<svg width="24" height="24" viewBox="0 0 24 24" fill="none" xmlns="http://www.w3.org/2000/svg">
<path d="M21 11H12V7H19C19.5304 7 20.0391 7.21071 20.4142 7.58579C20.7893 7.96086 21 8.46957 21 9V11ZM6 11V9C6 8.46957 6.21071 7.96086 6.58579 7.58579C6.96086 7.21071 7.46957 7 8 7C8.53043 7 9.03914 7.21071 9.41421 7.58579C9.78929 7.96086 10 8.46957 10 9V11H6ZM22 13.75C21.9974 13.5519 21.9176 13.3626 21.7775 13.2225C21.6374 13.0824 21.4481 13.0026 21.25 13H4V5H2V20H4V17H20V20H22V13.75Z" fill="#0F1621"/>
</svg>
