<svg xmlns="http://www.w3.org/2000/svg" viewBox="0 0 24 24"><defs><style>.cls-1{fill:none;opacity:0;}</style></defs><g id="Layer_2" data-name="Layer 2"><g id="Carto_POI_Solid" data-name="Carto POI Solid"><g id="connector-airport-access"><rect class="cls-1" width="24" height="24"/><path d="M4,18.13H20v3H4ZM22,7.25c-.25-.46-1.3-.38-1.7-.5s-1.1-.59-1.73-.24L14.34,8.78l-7-3.86a.94.94,0,0,0-.92,0l-1.21.66,5.83,5L6.83,12.88,4.15,11.06a1,1,0,0,0-1-.05L2,11.64l2.66,2.88,4.07.59a1.93,1.93,0,0,0,1.18-.21l10.3-5.62L21,8.83C21.5,8.58,22.2,7.71,22,7.25Z"/></g></g></g></svg>