<svg xmlns="http://www.w3.org/2000/svg" viewBox="0 0 24 24"><defs><style>.cls-1{fill:none;opacity:0;}</style></defs><g id="Layer_2" data-name="Layer 2"><g id="Carto_POI_Solid" data-name="Carto POI Solid"><g id="transport-airport"><rect class="cls-1" width="24" height="24"/><path d="M18.39,8.55l.93,11.14L17,22l-3-9.24a65,65,0,0,1-5.35,4.3l.93,3.14-.93.94L6.72,18.25c-.59.28-1,.38-1.18.21s-.07-.59.21-1.17L2.87,15.36l.94-.93,2.88,1.29A58.68,58.68,0,0,1,11.22,10L2,7,4.31,4.68l11.18.89c3.73-3.53,5.45-4,6.21-3.27S22,4.79,18.39,8.55Z"/></g></g></g></svg>