<svg width="24" height="24" viewBox="0 0 24 24" fill="none" xmlns="http://www.w3.org/2000/svg">
<path d="M5.6 18.4287C5.4 18.2287 5.4 17.9287 5.7 17.3287L2.8 15.6287L3.7 14.7287L6.9 15.4287C8 13.9287 9.5 11.9287 11.2 10.1287L2 7.02873L4.3 4.72873L15.4 5.62873C19.2 2.02873 20.9 1.52873 21.6 2.32873C22.4 3.12873 21.9 4.82873 18.3 8.52873L19.2 19.6287L17 22.0287L14 12.8287C12.1 14.5287 10.2 16.0287 8.7 17.1287L9.4 20.3287L8.5 21.2287L6.8 18.3287C6.1 18.5287 5.8 18.6287 5.6 18.4287Z" fill="#0F1621"/>
</svg>
