<svg width="24" height="24" viewBox="0 0 24 24" fill="none" xmlns="http://www.w3.org/2000/svg">
<path d="M18.5 11.5C18.5003 10.3116 18.1748 9.1458 17.5589 8.12943C16.943 7.11307 16.0602 6.28501 15.0066 5.73531C13.9529 5.1856 12.7687 4.93528 11.5827 5.01157C10.3968 5.08786 9.25441 5.48783 8.27987 6.168C7.30533 6.84818 6.53591 7.78251 6.05528 8.86941C5.57466 9.95631 5.40121 11.1542 5.55381 12.3328C5.7064 13.5114 6.1792 14.6256 6.92079 15.5542C7.66237 16.4829 8.64437 17.1904 9.76 17.6L8 22H16L14.24 17.6C15.4874 17.139 16.5641 16.3076 17.3255 15.2173C18.087 14.127 18.4968 12.8299 18.5 11.5ZM13.5 15.73L12.38 12.93C12.596 12.844 12.7753 12.6853 12.887 12.4814C12.9987 12.2775 13.0359 12.041 12.9921 11.8126C12.9483 11.5842 12.8263 11.3783 12.647 11.2301C12.4678 11.082 12.2425 11.001 12.01 11.001C11.7775 11.001 11.5522 11.082 11.373 11.2301C11.1937 11.3783 11.0717 11.5842 11.0279 11.8126C10.9841 12.041 11.0213 12.2775 11.133 12.4814C11.2447 12.6853 11.424 12.844 11.64 12.93L10.52 15.73C9.51918 15.3762 8.67567 14.6799 8.13855 13.7643C7.60144 12.8487 7.4053 11.7726 7.58481 10.7264C7.76431 9.68016 8.30791 8.73106 9.11951 8.04684C9.93111 7.36263 10.9585 6.98736 12.02 6.98736C13.0815 6.98736 14.1089 7.36263 14.9205 8.04684C15.7321 8.73106 16.2757 9.68016 16.4552 10.7264C16.6347 11.7726 16.4386 12.8487 15.9014 13.7643C15.3643 14.6799 14.5208 15.3762 13.52 15.73H13.5ZM4 6V5H7V6C7 6.26522 6.89464 6.51957 6.70711 6.70711C6.51957 6.89464 6.26522 7 6 7H5C4.73478 7 4.48043 6.89464 4.29289 6.70711C4.10536 6.51957 4 6.26522 4 6ZM10.5 3V2H13.5V3C13.5 3.26522 13.3946 3.51957 13.2071 3.70711C13.0196 3.89464 12.7652 4 12.5 4H11.5C11.2348 4 10.9804 3.89464 10.7929 3.70711C10.6054 3.51957 10.5 3.26522 10.5 3ZM17 6V5H20V6C20 6.26522 19.8946 6.51957 19.7071 6.70711C19.5196 6.89464 19.2652 7 19 7H18C17.7348 7 17.4804 6.89464 17.2929 6.70711C17.1054 6.51957 17 6.26522 17 6ZM4 13H3C2.73478 13 2.48043 12.8946 2.29289 12.7071C2.10536 12.5196 2 12.2652 2 12V11H5V12C5 12.2652 4.89464 12.5196 4.70711 12.7071C4.51957 12.8946 4.26522 13 4 13ZM22 12C22 12.2652 21.8946 12.5196 21.7071 12.7071C21.5196 12.8946 21.2652 13 21 13H20C19.7348 13 19.4804 12.8946 19.2929 12.7071C19.1054 12.5196 19 12.2652 19 12V11H22V12ZM4 17H7V18C7 18.2652 6.89464 18.5196 6.70711 18.7071C6.51957 18.8946 6.26522 19 6 19H5C4.73478 19 4.48043 18.8946 4.29289 18.7071C4.10536 18.5196 4 18.2652 4 18V17ZM17 17H20V18C20 18.2652 19.8946 18.5196 19.7071 18.7071C19.5196 18.8946 19.2652 19 19 19H18C17.7348 19 17.4804 18.8946 17.2929 18.7071C17.1054 18.5196 17 18.2652 17 18V17Z" fill="#0F1621"/>
</svg>
