<svg width="24" height="24" viewBox="0 0 24 24" fill="none" xmlns="http://www.w3.org/2000/svg">
<path d="M9.75 9.75H14.25V11.25H9.75V9.75ZM22 5V7C22 7.79565 21.6839 8.55871 21.1213 9.12132C20.5587 9.68393 19.7956 10 19 10H18V22H6V10H5C4.20435 10 3.44129 9.68393 2.87868 9.12132C2.31607 8.55871 2 7.79565 2 7V5C2 4.20435 2.31607 3.44129 2.87868 2.87868C3.44129 2.31607 4.20435 2 5 2H19C19.7956 2 20.5587 2.31607 21.1213 2.87868C21.6839 3.44129 22 4.20435 22 5ZM16 16H8V17L10 19H11V18H16V16ZM16 9C16 8.73478 15.8946 8.48043 15.7071 8.29289C15.5196 8.10536 15.2652 8 15 8H9C8.73478 8 8.48043 8.10536 8.29289 8.29289C8.10536 8.48043 8 8.73478 8 9V12C8 12.2652 8.10536 12.5196 8.29289 12.7071C8.48043 12.8946 8.73478 13 9 13H15C15.2652 13 15.5196 12.8946 15.7071 12.7071C15.8946 12.5196 16 12.2652 16 12V9ZM20 4H4V8H6V6H18V8H20V4Z" fill="#0F1621"/>
</svg>
