<svg xmlns="http://www.w3.org/2000/svg" viewBox="0 0 24 24"><defs><style>.cls-1{fill:none;}</style></defs><g id="Layer_2" data-name="Layer 2"><g id="Carto_POI_Solid" data-name="Carto POI Solid"><g id="automotive-repair-car"><rect class="cls-1" width="24" height="24"/><path d="M18.47,3.72V4H15V6h3.47v.29A1.72,1.72,0,0,1,16.75,8H13.47l-.75-1.5H5.5a2.12,2.12,0,0,1,0-3h7.23L13.47,2h3.29A1.72,1.72,0,0,1,18.47,3.72Zm3,9.28a1.25,1.25,0,0,1,0,2H21v6a1,1,0,0,1-1,1H17a1,1,0,0,1-1-1V20H8v1a1,1,0,0,1-1,1H4a1,1,0,0,1-1-1V15H2.5a1.25,1.25,0,0,1,0-2H4.24l1-2.3A2.79,2.79,0,0,1,7.77,9h8.46a2.79,2.79,0,0,1,2.51,1.7l1,2.3ZM6,14H18l-1.11-2.49a.79.79,0,0,0-.68-.51H7.77a.79.79,0,0,0-.68.51Zm2,2H5.5a1.25,1.25,0,0,0,0,2H8Zm10.5,0H16v2h2.5A1.25,1.25,0,0,0,18.5,16Z"/></g></g></g></svg>