<svg xmlns="http://www.w3.org/2000/svg" viewBox="0 0 24 24"><defs><style>.cls-1{fill:none;}</style></defs><g id="Layer_2" data-name="Layer 2"><g id="Carto_POI_Solid" data-name="Carto POI Solid"><g id="automotive-charging"><rect class="cls-1" width="24" height="24"/><path d="M19.76,13l-1-2.3A2.79,2.79,0,0,0,16.23,9H7.77a2.79,2.79,0,0,0-2.51,1.7l-1,2.3H2.5a1.27,1.27,0,0,0,0,2H3v6a1,1,0,0,0,1,1H7a1,1,0,0,0,1-1V20h8v1a1,1,0,0,0,1,1h3a1,1,0,0,0,1-1V15h.5a1.26,1.26,0,0,0,0-2ZM7.09,11.51A.79.79,0,0,1,7.77,11h8.46a.79.79,0,0,1,.68.51L18,14H6ZM8,18H5.5a1.25,1.25,0,0,1,0-2H8Zm10.5,0H16V16h2.5A1.25,1.25,0,0,1,18.5,18ZM16,6h3v.5a1,1,0,0,1-1,1H16ZM15,8H11A2,2,0,0,1,9,6H5A1.25,1.25,0,0,1,5,4H9a2,2,0,0,1,2-2h4V8Zm3-5.49a1,1,0,0,1,1,1V4H16V2.5Z"/></g></g></g></svg>