<svg xmlns="http://www.w3.org/2000/svg" viewBox="0 0 24 24"><g id="Layer_2" data-name="Layer 2"><g id="Carto_POI_Solid" data-name="Carto POI Solid"><g id="bank"><rect width="24" height="24" style="fill:none;opacity:0.11"/><path d="M14,18.87V22H11V19.12a6.73,6.73,0,0,1-4.2-1.87l1.38-1.54a5.4,5.4,0,0,0,3.63,1.4c1.5,0,2.58-.73,2.58-2.1,0-1.18-.59-1.71-2.79-2.38-2.95-.91-4.23-2.09-4.23-4.23S8.85,5,11,4.64V2h3V4.75a6.15,6.15,0,0,1,2.79,1.49L15.47,7.77a4.74,4.74,0,0,0-3.15-1.2c-1.27,0-2.18.57-2.18,1.67s.55,1.46,2.89,2.2,4.17,1.79,4.17,4.43A4.08,4.08,0,0,1,14,18.87Z"/></g></g></g></svg>