<svg xmlns="http://www.w3.org/2000/svg" viewBox="0 0 24 24"><defs><style>.cls-1{fill:none;}</style></defs><g id="Layer_2" data-name="Layer 2"><g id="Carto_POI_Solid" data-name="Carto POI Solid"><g id="facilities-parking-bicycle"><rect class="cls-1" width="24" height="24"/><path d="M11.5,7h1a2.5,2.5,0,0,0,0-5H10V9h1.5Zm0-3.5h1a1,1,0,0,1,0,2h-1ZM18,14a3.94,3.94,0,0,0-.77.08l-1.22-3A.09.09,0,0,1,16,11h1.5V9.5H16a1.48,1.48,0,0,0-1.42,2H8.64l.36-1v-1H6v2h1l.69,2-.46.71A3.87,3.87,0,0,0,6,14,4,4,0,1,0,10,18.5H11l4.47-4.78.37.92A4,4,0,1,0,18,14ZM6,20.5a2.5,2.5,0,0,1,0-5,3.27,3.27,0,0,1,.44,0L5.52,17a1,1,0,0,0,.84,1.54H8.45A2.5,2.5,0,0,1,6,20.5ZM7.28,17l1.08-1.67L8.93,17Zm3.18-.14L9.15,13h4.93ZM18,20.5A2.5,2.5,0,0,1,15.5,18a2.47,2.47,0,0,1,.92-1.92l1,2.42H19l-1.2-3,.19,0a2.5,2.5,0,0,1,0,5Z"/></g></g></g></svg>