<svg xmlns="http://www.w3.org/2000/svg" viewBox="0 0 24 24"><g id="Layer_2" data-name="Layer 2"><g id="Carto_POI_Solid" data-name="Carto POI Solid"><g id="bowling"><rect width="24" height="24" style="fill:none;opacity:0"/><path d="M14.69,7.38A7.26,7.26,0,0,0,9.61,9.47a10.83,10.83,0,0,0,.62,1.1,7.48,7.48,0,0,1,1.46,4,34.74,34.74,0,0,1-1.15,6.08A7.18,7.18,0,0,0,14.69,22a7.31,7.31,0,0,0,0-14.62Zm.44,5a1.15,1.15,0,1,1,2.29,0,1.15,1.15,0,1,1-2.29,0Zm1.92,4.23a1.16,1.16,0,1,1,1.14-1.15A1.15,1.15,0,0,1,17.05,16.62Zm2.32-2.31a1.14,1.14,0,0,1-1.14-1.15,1.15,1.15,0,1,1,1.14,1.15Zm-12-5.64c0,2.22,2.31,3.7,2.31,5.92a50.45,50.45,0,0,1-1.34,6.65,1,1,0,0,1-1,.76h-3a1,1,0,0,1-1-.76A49,49,0,0,1,2,14.59c0-2.22,2.31-3.7,2.31-5.92,0,0,0-.62-.06-1l-.66-3h0a2.31,2.31,0,0,1,0-.46A2.27,2.27,0,0,1,5.85,2,2.27,2.27,0,0,1,8.16,4.22a2,2,0,0,1-.08.56l-.64,2.9C7.4,8.05,7.38,8.67,7.38,8.67Z"/></g></g></g></svg>