<svg xmlns="http://www.w3.org/2000/svg" viewBox="0 0 24 24"><defs><style>.cls-1{fill:none;}</style></defs><g id="Layer_2" data-name="Layer 2"><g id="Carto_POI_Solid" data-name="Carto POI Solid"><g id="transport-bus"><rect id="_Path_" data-name="&lt;Path&gt;" class="cls-1" width="24" height="24"/><path d="M20,6V3.5A1.5,1.5,0,0,0,18.5,2H5.5A1.5,1.5,0,0,0,4,3.5V6H3v4H4V21a1,1,0,0,0,1,1H7a1,1,0,0,0,1-1V20h8v1a1,1,0,0,0,1,1h2a1,1,0,0,0,1-1V10h1V6ZM6,4H18V6H6ZM6,8H18v6H6ZM9,18H6.5a1.25,1.25,0,0,1,0-2H9Zm6-2h2.5a1.25,1.25,0,0,1,0,2H15Z"/></g></g></g></svg>