<svg width="24" height="24" viewBox="0 0 24 24" fill="none" xmlns="http://www.w3.org/2000/svg">
<path d="M19.7601 13L18.7601 10.7C18.5487 10.2018 18.1969 9.77581 17.7477 9.47396C17.2985 9.17212 16.7712 9.00744 16.2301 9H7.77006C7.23234 9.01128 6.70934 9.17775 6.26403 9.47935C5.81871 9.78096 5.47007 10.2049 5.26006 10.7L4.26006 13H2.50006C2.34831 13.1188 2.22559 13.2706 2.1412 13.4438C2.0568 13.6171 2.01294 13.8073 2.01294 14C2.01294 14.1927 2.0568 14.3829 2.1412 14.5562C2.22559 14.7294 2.34831 14.8812 2.50006 15H3.00006V21C3.00006 21.2652 3.10542 21.5196 3.29295 21.7071C3.48049 21.8946 3.73484 22 4.00006 22H7.00006C7.26528 22 7.51963 21.8946 7.70717 21.7071C7.8947 21.5196 8.00006 21.2652 8.00006 21V20H16.0001V21C16.0001 21.2652 16.1054 21.5196 16.293 21.7071C16.4805 21.8946 16.7348 22 17.0001 22H20.0001C20.2653 22 20.5196 21.8946 20.7072 21.7071C20.8947 21.5196 21.0001 21.2652 21.0001 21V15H21.5001C21.6535 14.8824 21.7779 14.731 21.8634 14.5576C21.949 14.3842 21.9935 14.1934 21.9935 14C21.9935 13.8066 21.949 13.6158 21.8634 13.4424C21.7779 13.269 21.6535 13.1176 21.5001 13H19.7601ZM7.09006 11.51C7.14301 11.369 7.23515 11.2461 7.35562 11.1558C7.4761 11.0654 7.61989 11.0114 7.77006 11H16.2301C16.3802 11.0114 16.524 11.0654 16.6445 11.1558C16.765 11.2461 16.8571 11.369 16.9101 11.51L18.0001 14H6.00006L7.09006 11.51ZM8.00006 18H5.50006C5.34482 17.8836 5.21881 17.7326 5.13203 17.559C5.04524 17.3854 5.00006 17.1941 5.00006 17C5.00006 16.8059 5.04524 16.6146 5.13203 16.441C5.21881 16.2674 5.34482 16.1164 5.50006 16H8.00006V18ZM18.5001 18H16.0001V16H18.5001C18.6553 16.1164 18.7813 16.2674 18.8681 16.441C18.9549 16.6146 19.0001 16.8059 19.0001 17C19.0001 17.1941 18.9549 17.3854 18.8681 17.559C18.7813 17.7326 18.6553 17.8836 18.5001 18ZM16.0001 6H19.0001V6.5C19.0001 6.76522 18.8947 7.01957 18.7072 7.20711C18.5196 7.39464 18.2653 7.5 18.0001 7.5H16.0001V6ZM15.0001 8H11.0001C10.4696 8 9.96092 7.78929 9.58585 7.41421C9.21077 7.03914 9.00006 6.53043 9.00006 6H5.00006C4.84482 5.88357 4.71881 5.73259 4.63203 5.55902C4.54524 5.38545 4.50006 5.19406 4.50006 5C4.50006 4.80594 4.54524 4.61455 4.63203 4.44098C4.71881 4.26741 4.84482 4.11643 5.00006 4H9.00006C9.00006 3.46957 9.21077 2.96086 9.58585 2.58579C9.96092 2.21071 10.4696 2 11.0001 2H15.0001V8ZM18.0001 2.51C18.2653 2.51 18.5196 2.61536 18.7072 2.80289C18.8947 2.99043 19.0001 3.24478 19.0001 3.51V4H16.0001V2.5L18.0001 2.51Z" fill="#0F1621"/>
</svg>
