<svg width="24" height="24" viewBox="0 0 24 24" fill="none" xmlns="http://www.w3.org/2000/svg">
<path d="M15.5 4C15.5 3.60444 15.6173 3.21776 15.8371 2.88886C16.0568 2.55996 16.3692 2.30362 16.7346 2.15224C17.1001 2.00087 17.5022 1.96126 17.8902 2.03843C18.2781 2.1156 18.6345 2.30608 18.9142 2.58579C19.1939 2.86549 19.3844 3.22186 19.4616 3.60982C19.5387 3.99778 19.4991 4.39992 19.3478 4.76537C19.1964 5.13082 18.94 5.44318 18.6111 5.66294C18.2822 5.8827 17.8956 6 17.5 6C16.9696 6 16.4609 5.78929 16.0858 5.41421C15.7107 5.03914 15.5 4.53043 15.5 4ZM12 6C12.3956 6 12.7822 5.8827 13.1111 5.66294C13.44 5.44318 13.6964 5.13082 13.8478 4.76537C13.9991 4.39992 14.0387 3.99778 13.9616 3.60982C13.8844 3.22186 13.6939 2.86549 13.4142 2.58579C13.1345 2.30608 12.7781 2.1156 12.3902 2.03843C12.0022 1.96126 11.6001 2.00087 11.2346 2.15224C10.8692 2.30362 10.5568 2.55996 10.3371 2.88886C10.1173 3.21776 10 3.60444 10 4C10 4.53043 10.2107 5.03914 10.5858 5.41421C10.9609 5.78929 11.4696 6 12 6ZM21 10C21.3522 9.99634 21.6971 9.89975 22 9.72V6.28C21.7346 6.12253 21.4363 6.02864 21.1285 6.00566C20.8207 5.98268 20.5118 6.03124 20.2259 6.14755C19.94 6.26385 19.6849 6.44475 19.4806 6.67606C19.2763 6.90738 19.1283 7.18285 19.0482 7.4809C18.968 7.77896 18.958 8.09151 19.0188 8.3941C19.0796 8.69669 19.2096 8.9811 19.3986 9.22507C19.5877 9.46904 19.8306 9.66595 20.1084 9.80039C20.3862 9.93483 20.6914 10.0032 21 10ZM2 9.72C2.30366 9.90018 2.64961 9.99676 3.0027 9.99992C3.35578 10.0031 3.7034 9.91271 4.01024 9.73798C4.31708 9.56326 4.57219 9.31042 4.74965 9.00516C4.92711 8.6999 5.02059 8.3531 5.02059 8C5.02059 7.6469 4.92711 7.3001 4.74965 6.99484C4.57219 6.68958 4.31708 6.43674 4.01024 6.26202C3.7034 6.0873 3.35578 5.99692 3.0027 6.00008C2.64961 6.00324 2.30366 6.09982 2 6.28V9.72ZM19.76 13H21.5C21.6552 13.1164 21.7812 13.2674 21.868 13.441C21.9548 13.6146 22 13.8059 22 14C22 14.1941 21.9548 14.3854 21.868 14.559C21.7812 14.7326 21.6552 14.8836 21.5 15H21V21C21 21.2652 20.8946 21.5196 20.7071 21.7071C20.5196 21.8946 20.2652 22 20 22H17C16.7348 22 16.4804 21.8946 16.2929 21.7071C16.1054 21.5196 16 21.2652 16 21V20H8V21C8 21.2652 7.89464 21.5196 7.70711 21.7071C7.51957 21.8946 7.26522 22 7 22H4C3.73478 22 3.48043 21.8946 3.29289 21.7071C3.10536 21.5196 3 21.2652 3 21V15H2.5C2.34475 14.8836 2.21875 14.7326 2.13197 14.559C2.04518 14.3854 2 14.1941 2 14C2 13.8059 2.04518 13.6146 2.13197 13.441C2.21875 13.2674 2.34475 13.1164 2.5 13H4.24L5.24 10.7C5.45139 10.2018 5.80311 9.77581 6.25233 9.47396C6.70154 9.17212 7.22885 9.00745 7.77 9H16.23C16.7677 9.01128 17.2907 9.17775 17.736 9.47936C18.1813 9.78096 18.53 10.2049 18.74 10.7L19.76 13ZM8 16H5.5C5.34475 16.1164 5.21875 16.2674 5.13197 16.441C5.04518 16.6146 5 16.8059 5 17C5 17.1941 5.04518 17.3854 5.13197 17.559C5.21875 17.7326 5.34475 17.8836 5.5 18H8V16ZM18 14L16.89 11.51C16.8371 11.369 16.7449 11.2461 16.6244 11.1558C16.504 11.0654 16.3602 11.0114 16.21 11H7.77C7.61983 11.0114 7.47604 11.0654 7.35556 11.1558C7.23509 11.2461 7.14295 11.369 7.09 11.51L6 14H18ZM18.49 16H16V18H18.51C19.21 17.38 19.16 16.71 18.51 16H18.49ZM6.5 6C6.89556 6 7.28224 5.8827 7.61114 5.66294C7.94004 5.44318 8.19638 5.13082 8.34776 4.76537C8.49913 4.39992 8.53874 3.99778 8.46157 3.60982C8.3844 3.22186 8.19392 2.86549 7.91421 2.58579C7.63451 2.30608 7.27814 2.1156 6.89018 2.03843C6.50222 1.96126 6.10009 2.00087 5.73463 2.15224C5.36918 2.30362 5.05682 2.55996 4.83706 2.88886C4.6173 3.21776 4.5 3.60444 4.5 4C4.5 4.53043 4.71071 5.03914 5.08579 5.41421C5.46086 5.78929 5.96957 6 6.5 6Z" fill="#0F1621"/>
</svg>
