<svg width="24" height="24" viewBox="0 0 24 24" fill="none" xmlns="http://www.w3.org/2000/svg">
<path d="M18.47 3.72V4H15V6H18.47V6.29C18.4674 6.74444 18.285 7.17936 17.9627 7.49976C17.6404 7.82017 17.2044 8.00001 16.75 8H13.47L12.72 6.5H5.5C5.30286 6.30311 5.14647 6.06928 5.03976 5.8119C4.93306 5.55452 4.87813 5.27862 4.87813 5C4.87813 4.72138 4.93306 4.44548 5.03976 4.1881C5.14647 3.93072 5.30286 3.69689 5.5 3.5H12.73L13.47 2H16.76C17.2144 2.00264 17.6494 2.18502 17.9698 2.5073C18.2902 2.82957 18.47 3.26556 18.47 3.72ZM21.47 13C21.6252 13.1164 21.7512 13.2674 21.838 13.441C21.9248 13.6146 21.97 13.8059 21.97 14C21.97 14.1941 21.9248 14.3854 21.838 14.559C21.7512 14.7326 21.6252 14.8836 21.47 15H21V21C21 21.2652 20.8946 21.5196 20.7071 21.7071C20.5196 21.8946 20.2652 22 20 22H17C16.7348 22 16.4804 21.8946 16.2929 21.7071C16.1054 21.5196 16 21.2652 16 21V20H8V21C8 21.2652 7.89464 21.5196 7.70711 21.7071C7.51957 21.8946 7.26522 22 7 22H4C3.73478 22 3.48043 21.8946 3.29289 21.7071C3.10536 21.5196 3 21.2652 3 21V15H2.5C2.34475 14.8836 2.21875 14.7326 2.13197 14.559C2.04518 14.3854 2 14.1941 2 14C2 13.8059 2.04518 13.6146 2.13197 13.441C2.21875 13.2674 2.34475 13.1164 2.5 13H4.24L5.24 10.7C5.45139 10.2018 5.80311 9.77581 6.25233 9.47396C6.70154 9.17212 7.22885 9.00744 7.77 9H16.23C16.7677 9.01128 17.2907 9.17775 17.736 9.47935C18.1813 9.78096 18.53 10.2049 18.74 10.7L19.74 13H21.47ZM6 14H18L16.89 11.51C16.8371 11.369 16.7449 11.2461 16.6244 11.1558C16.504 11.0654 16.3602 11.0114 16.21 11H7.77C7.61983 11.0114 7.47604 11.0654 7.35556 11.1558C7.23509 11.2461 7.14295 11.369 7.09 11.51L6 14ZM8 16H5.5C5.34475 16.1164 5.21875 16.2674 5.13197 16.441C5.04518 16.6146 5 16.8059 5 17C5 17.1941 5.04518 17.3854 5.13197 17.559C5.21875 17.7326 5.34475 17.8836 5.5 18H8V16ZM18.5 16H16V18H18.5C18.6552 17.8836 18.7812 17.7326 18.868 17.559C18.9548 17.3854 19 17.1941 19 17C19 16.8059 18.9548 16.6146 18.868 16.441C18.7812 16.2674 18.6552 16.1164 18.5 16Z" fill="#0F1621"/>
</svg>
