<svg xmlns="http://www.w3.org/2000/svg" width="24" height="24" viewBox="0 0 24 24"><rect width="24" height="24" style="fill:none"/><path d="M15.5,4a2,2,0,1,1,2,2A2,2,0,0,1,15.5,4ZM12,6a2,2,0,1,0-2-2A2,2,0,0,0,12,6Zm9,4a2,2,0,0,0,1-.28V6.28A2,2,0,1,0,21,10ZM2,9.72A2,2,0,1,0,2,6.28ZM19.76,13H21.5a1.25,1.25,0,0,1,0,2H21v6a1,1,0,0,1-1,1H17a1,1,0,0,1-1-1V20H8v1a1,1,0,0,1-1,1H4a1,1,0,0,1-1-1V15H2.5a1.25,1.25,0,0,1,0-2H4.24l1-2.3A2.79,2.79,0,0,1,7.77,9h8.46a2.79,2.79,0,0,1,2.51,1.7ZM8,16H5.5a1.25,1.25,0,0,0,0,2H8Zm10-2-1.11-2.49a.79.79,0,0,0-.68-.51H7.77a.79.79,0,0,0-.68.51L6,14Zm.49,2H16v2h2.51C19.21,17.38,19.16,16.71,18.51,16ZM6.5,6a2,2,0,1,0-2-2A2,2,0,0,0,6.5,6Z"/></svg>