<svg xmlns="http://www.w3.org/2000/svg" width="24" height="24" viewBox="0 0 24 24"><rect width="24" height="24" style="fill:none"/><path d="M19.76,13l-1-2.3A2.79,2.79,0,0,0,16.5,9v2.05a.84.84,0,0,1,.41.44L18,14H6l1.11-2.49a.84.84,0,0,1,.41-.44V9A2.79,2.79,0,0,0,5.26,10.7l-1,2.3H2.5a1.25,1.25,0,0,0,0,2H3v6a1,1,0,0,0,1,1H7a1,1,0,0,0,1-1V20h8v1a1,1,0,0,0,1,1h3a1,1,0,0,0,1-1V15h.5a1.25,1.25,0,0,0,0-2ZM8,18H5.5a1.25,1.25,0,0,1,0-2H8Zm10.5,0H16V16h2.5A1.25,1.25,0,0,1,18.5,18Zm-6.61-7.84A2.79,2.79,0,0,1,10,9.41L9.8,9.26,8.69,10.5l.17.17A4.15,4.15,0,0,0,11,11.74V13h2V11.72a2.63,2.63,0,0,0,2.21-2.59c0-1.63-1-2.29-2.55-2.77-1.33-.41-1.47-.63-1.47-1,0-.64.69-.7,1-.7a2.48,2.48,0,0,1,1.64.62l.19.16,1.07-1.24L14.9,4a3.81,3.81,0,0,0-1.9-1V2H11V3.13A2.4,2.4,0,0,0,9.11,5.44c0,1.31.75,2.08,2.59,2.65,1.27.39,1.41.65,1.41,1.12C13.11,10.09,12.17,10.16,11.89,10.16Z"/></svg>