<svg xmlns="http://www.w3.org/2000/svg" viewBox="0 0 24 24"><g id="Layer_2" data-name="Layer 2"><g id="Carto_POI_Solid" data-name="Carto POI Solid"><g id="carrental"><rect width="24" height="24" style="fill:none"/><path d="M5.71,8H10l.75-1.5H13.5l1-1,1,1H18L19.47,5,18,3.5H10.75L10,2H5.71A1.72,1.72,0,0,0,4,3.71V6.28A1.71,1.71,0,0,0,5.71,8ZM6,4H9V6H6Zm13.78,9-1-2.3A2.8,2.8,0,0,0,16.25,9H7.78a2.78,2.78,0,0,0-2.5,1.7l-1,2.3H2.5a1.25,1.25,0,0,0,0,2H3v6a1,1,0,0,0,1,1H7a1,1,0,0,0,1-1V20h8v1a1,1,0,0,0,1,1h3a1,1,0,0,0,1-1V15h.5a1.25,1.25,0,0,0,0-2ZM7.11,11.51A.78.78,0,0,1,7.78,11h8.47a.79.79,0,0,1,.68.51L18,14H6ZM8,18H5.5a1.25,1.25,0,0,1,0-2H8Zm10.5,0H16V16h2.5A1.25,1.25,0,0,1,18.5,18Z"/></g></g></g></svg>