<svg xmlns="http://www.w3.org/2000/svg" viewBox="0 0 24 24"><defs><style>.cls-1{fill:none;}</style></defs><g id="Layer_2" data-name="Layer 2"><g id="Carto_POI_Solid" data-name="Carto POI Solid"><g id="goingout-cinema"><rect class="cls-1" width="24" height="24"/><path d="M14.25,11A4.5,4.5,0,1,0,9.92,5.27,3.74,3.74,0,1,0,6.75,11Zm0-6a1.5,1.5,0,1,1-1.5,1.5A1.5,1.5,0,0,1,14.25,5Zm-9,2.25a1.5,1.5,0,1,1,1.5,1.5A1.5,1.5,0,0,1,5.25,7.25ZM21,14v7H19l-3-2v2a1,1,0,0,1-1,1H6a1,1,0,0,1-1-1V14a1,1,0,0,1,1-1h9a1,1,0,0,1,1,1v2l3-2Z"/></g></g></g></svg>