<svg xmlns="http://www.w3.org/2000/svg" viewBox="0 0 24 24"><defs><style>.cls-1{fill:none;}</style></defs><g id="Layer_2" data-name="Layer 2"><g id="Carto_POI_Solid" data-name="Carto POI Solid"><g id="eatdrink-cocktail"><rect class="cls-1" width="24" height="24"/><path d="M15,20H13s0-3.47,0-4.7a2,2,0,0,1,.54-1.37S21,6,21,6H9.45l-4-4L4.27,3.26,7,6,2.6,6l7.82,7.9a2,2,0,0,1,.58,1.4C11,16.57,11,20,11,20H9a2,2,0,0,0-2,2H17A2,2,0,0,0,15,20ZM13,12a2,2,0,0,1-1.88-2.64A2,2,0,0,1,13,8a1.86,1.86,0,0,1,1.68,1A2,2,0,0,1,13,12Z"/></g></g></g></svg>