<svg width="24" height="24" viewBox="0 0 24 24" fill="none" xmlns="http://www.w3.org/2000/svg">
<path d="M6.37 18H15.13C15.637 18.0012 16.1256 17.8099 16.4969 17.4646C16.8682 17.1192 17.0945 16.6458 17.13 16.14L17.43 12H17.84C18.7814 12.0175 19.7004 11.7112 20.443 11.1324C21.1857 10.5535 21.7071 9.73723 21.92 8.82C22.042 8.23736 22.0325 7.63482 21.892 7.05634C21.7516 6.47785 21.4838 5.93801 21.1082 5.47618C20.7326 5.01434 20.2587 4.64216 19.721 4.38678C19.1832 4.13141 18.5953 3.99927 18 4H3.5L4.37 16.13C4.40306 16.6376 4.62828 17.1135 4.99983 17.4609C5.37138 17.8083 5.86134 18.0011 6.37 18ZM18 6C18.3192 5.99863 18.6341 6.07368 18.9183 6.21888C19.2026 6.36408 19.448 6.5752 19.634 6.83461C19.82 7.09402 19.9412 7.39418 19.9874 7.71C20.0337 8.02582 20.0037 8.34814 19.9 8.65C19.7509 9.05674 19.4774 9.40612 19.1183 9.64848C18.7593 9.89084 18.333 10.0138 17.9 10H17.58L17.87 6H18ZM2 20H21L20.55 20.89C20.3844 21.2232 20.1292 21.5036 19.813 21.6997C19.4967 21.8958 19.1321 21.9998 18.76 22H4.24C3.86792 21.9998 3.50326 21.8958 3.18704 21.6997C2.87083 21.5036 2.61558 21.2232 2.45 20.89L2 20Z" fill="#0F1621"/>
</svg>
