<svg xmlns="http://www.w3.org/2000/svg" viewBox="0 0 24 24"><g id="Layer_2" data-name="Layer 2"><g id="Carto_POI_Solid" data-name="Carto POI Solid"><g id="connector-elevator"><rect width="24" height="24" style="fill:none"/><path id="elevator" d="M12,2H4A2,2,0,0,0,2,4V20a2,2,0,0,0,2,2h8a2,2,0,0,0,2-2V4A2,2,0,0,0,12,2ZM7,4.5A.5.5,0,0,1,7.5,4h1a.5.5,0,0,1,.5.5v2a.5.5,0,0,1-.5.5h-1A.5.5,0,0,1,7,6.5Zm2.5,10L9,19H7l-.5-4.5L5,14s.27-3.66.41-5.1a1,1,0,0,1,1-.9c.59,0,.87.5,1.6.5S9,8,9.59,8a1,1,0,0,1,1,.9L11,14ZM22,10H16l3-5Zm-6,4,6,.05L19,19Z"/></g></g></g></svg>