<svg width="24" height="24" viewBox="0 0 24 24" fill="none" xmlns="http://www.w3.org/2000/svg">
<path d="M20 4.99999H14V3.34999C14.0075 3.18913 13.976 3.02885 13.9082 2.88278C13.8405 2.7367 13.7384 2.60915 13.6108 2.51097C13.4832 2.41278 13.3337 2.34688 13.1751 2.31885C13.0166 2.29082 12.8536 2.30151 12.7 2.34999L5.43 4.56999C5.01643 4.69296 4.65372 4.94637 4.396 5.2924C4.13828 5.63843 3.99937 6.05853 4 6.48999V17.49C3.99937 17.9215 4.13828 18.3415 4.396 18.6876C4.65372 19.0336 5.01643 19.287 5.43 19.41L12.7 21.59C12.8536 21.6385 13.0166 21.6492 13.1751 21.6211C13.3337 21.5931 13.4832 21.5272 13.6108 21.429C13.7384 21.3308 13.8405 21.2033 13.9082 21.0572C13.976 20.9111 14.0075 20.7508 14 20.59V6.99999H18V19H20V4.99999ZM11 13H9V9.99999H11V13Z" fill="#0F1621"/>
</svg>
