<svg width="24" height="24" viewBox="0 0 24 24" fill="none" xmlns="http://www.w3.org/2000/svg">
<path d="M5.93 14H5.25L5.89 8.88C5.91948 8.63609 6.03771 8.41157 6.22215 8.24926C6.40659 8.08695 6.64432 7.99823 6.89 8H8.5C8.69698 8 8.89204 8.0388 9.07403 8.11418C9.25601 8.18956 9.42137 8.30005 9.56066 8.43934C9.69995 8.57863 9.81044 8.74399 9.88582 8.92597C9.9612 9.10796 10 9.30302 10 9.5V9.93L5.93 14ZM9 5V3C9 2.73478 8.89464 2.48043 8.70711 2.29289C8.51957 2.10536 8.26522 2 8 2H7C6.73478 2 6.48043 2.10536 6.29289 2.29289C6.10536 2.48043 6 2.73478 6 3V6H8C8.26522 6 8.51957 5.89464 8.70711 5.70711C8.89464 5.51957 9 5.26522 9 5ZM20 7H15.76L6.76 16H4C2.34 16 2 17.34 2 19C2 20.66 2.34 22 4 22H9.24L18.24 13H20C21.66 13 22 11.66 22 10C22 8.34 21.66 7 20 7Z" fill="#0F1621"/>
</svg>
