<svg width="24" height="24" viewBox="0 0 24 24" fill="none" xmlns="http://www.w3.org/2000/svg">
<path d="M2 10V21H9V18H15V21H22V10H2ZM6.5 16H4V12H6.5V16ZM11 16H8.5V12H11V16ZM15.5 16H13V12H15.5V16ZM20 16H17.5V12H20V16ZM2.21 8C3.1331 6.19818 4.53554 4.68607 6.26289 3.63017C7.99024 2.57428 9.97549 2.01556 12 2.01556C14.0245 2.01556 16.0098 2.57428 17.7371 3.63017C19.4645 4.68607 20.8669 6.19818 21.79 8H19.48C18.659 6.76235 17.5445 5.7471 16.2359 5.04479C14.9273 4.34248 13.4652 3.97494 11.98 3.97494C10.4948 3.97494 9.03272 4.34248 7.72409 5.04479C6.41546 5.7471 5.30096 6.76235 4.48 8H2.21Z" fill="#0F1621"/>
</svg>
