<svg width="24" height="24" viewBox="0 0 24 24" fill="none" xmlns="http://www.w3.org/2000/svg">
<path d="M20 6C19.0685 4.75804 17.8607 3.75001 16.4721 3.05573C15.0836 2.36145 13.5524 2 12 2C10.4475 2 8.91641 2.36145 7.52786 3.05573C6.13931 3.75001 4.93147 4.75804 4 6C2.69523 7.72753 1.9927 9.83512 2 12C2 14.6522 3.05356 17.1957 4.92893 19.0711C6.80429 20.9464 9.34783 22 12 22C14.6522 22 17.1957 20.9464 19.0711 19.0711C20.9464 17.1957 22 14.6522 22 12C22.0073 9.83512 21.3048 7.72753 20 6ZM14.59 8L12 10.59L9.41 8H14.59ZM13 6V4.07C14.5876 4.27079 16.0785 4.94308 17.28 6H13ZM11 4.07V6H6.72C7.92152 4.94308 9.41241 4.27079 11 4.07ZM5.08 8H6.59L10.59 12L5.69 16.9C4.70982 15.6477 4.12775 14.1302 4.019 12.5436C3.91026 10.9571 4.27985 9.37433 5.08 8ZM7.08 18.31L11.98 13.41L16.88 18.31C15.4813 19.4048 13.7562 19.9996 11.98 19.9996C10.2038 19.9996 8.47872 19.4048 7.08 18.31ZM18.31 16.9L13.41 12L17.41 8H18.92C19.7201 9.37433 20.0897 10.9571 19.981 12.5436C19.8722 14.1302 19.2902 15.6477 18.31 16.9Z" fill="#0F1621"/>
</svg>
