<svg width="24" height="24" viewBox="0 0 24 24" fill="none" xmlns="http://www.w3.org/2000/svg">
<path d="M12 4C13.5822 4 15.129 4.46919 16.4446 5.34824C17.7602 6.22729 18.7855 7.47672 19.391 8.93853C19.9965 10.4003 20.155 12.0089 19.8463 13.5607C19.5376 15.1126 18.7757 16.538 17.6569 17.6569C16.538 18.7757 15.1126 19.5376 13.5607 19.8463C12.0089 20.155 10.4003 19.9965 8.93853 19.391C7.47672 18.7855 6.22729 17.7602 5.34824 16.4446C4.46919 15.129 4 13.5823 4 12C4 9.87827 4.84285 7.84344 6.34314 6.34315C7.84343 4.84285 9.87827 4 12 4ZM12 2C10.0222 2 8.08879 2.58649 6.44429 3.6853C4.7998 4.78412 3.51808 6.3459 2.7612 8.17317C2.00433 10.0004 1.80629 12.0111 2.19214 13.9509C2.578 15.8907 3.5304 17.6725 4.92893 19.0711C6.32745 20.4696 8.10928 21.422 10.0491 21.8079C11.9889 22.1937 13.9996 21.9957 15.8268 21.2388C17.6541 20.4819 19.2159 19.2002 20.3147 17.5557C21.4135 15.9112 22 13.9778 22 12C22 10.6868 21.7413 9.38642 21.2388 8.17317C20.7362 6.95991 19.9996 5.85752 19.0711 4.92893C18.1425 4.00035 17.0401 3.26375 15.8268 2.7612C14.6136 2.25866 13.3132 2 12 2ZM12 8C12.7911 8 13.5645 8.2346 14.2223 8.67412C14.8801 9.11365 15.3928 9.73836 15.6955 10.4693C15.9983 11.2002 16.0775 12.0044 15.9231 12.7804C15.7688 13.5563 15.3878 14.269 14.8284 14.8284C14.269 15.3878 13.5563 15.7688 12.7804 15.9231C12.0044 16.0775 11.2002 15.9983 10.4693 15.6955C9.73836 15.3928 9.11364 14.8801 8.67412 14.2223C8.23459 13.5645 8 12.7911 8 12C8 10.9391 8.42142 9.92172 9.17157 9.17157C9.92171 8.42143 10.9391 8 12 8ZM12 6C10.8133 6 9.65327 6.35189 8.66657 7.01118C7.67988 7.67047 6.91085 8.60754 6.45672 9.7039C6.00259 10.8003 5.88377 12.0067 6.11528 13.1705C6.3468 14.3344 6.91824 15.4035 7.75736 16.2426C8.59647 17.0818 9.66557 17.6532 10.8295 17.8847C11.9933 18.1162 13.1997 17.9974 14.2961 17.5433C15.3925 17.0892 16.3295 16.3201 16.9888 15.3334C17.6481 14.3467 18 13.1867 18 12C18 10.4087 17.3679 8.88258 16.2426 7.75736C15.1174 6.63214 13.5913 6 12 6Z" fill="#0F1621"/>
</svg>
