<svg xmlns="http://www.w3.org/2000/svg" viewBox="0 0 24 24"><defs><style>.cls-1{fill:none;}</style></defs><g id="Layer_2" data-name="Layer 2"><g id="Carto_POI_Solid" data-name="Carto POI Solid"><g id="eatdrink-fastfood"><rect class="cls-1" width="24" height="24"/><path d="M22,6,21,22H16.15a3.45,3.45,0,0,0,.35-1.5V17.74a3.28,3.28,0,0,0,0-3.48V12a5,5,0,0,0-5-5h-.41L11,6h4.5V4a.75.75,0,0,1,.6-.74L20.1,2l.4,1.5-3,1V6ZM2.5,20.47A1.5,1.5,0,0,0,4,22h9a1.5,1.5,0,0,0,1.5-1.5V19h-12Zm12-8c0-1.66-1.34-3.5-3-3.5h-6c-1.66,0-3,1.84-3,3.5V13h12ZM14.25,15H2.75c-.41,0-.75.45-.75,1s.34,1,.75,1h11.5c.41,0,.75-.45.75-1S14.66,15,14.25,15Z"/></g></g></g></svg>