<svg xmlns="http://www.w3.org/2000/svg" width="24" height="24" viewBox="0 0 24 24"><rect width="24" height="24" style="fill:none"/><path d="M21.72,11,20.31,9.6l1.77-1.77L20,5.71,21,4.65,19.6,3.23,18.54,4.3,16.42,2.17,14.65,3.94,13.24,2.53a1,1,0,0,0-1.42,0L10.06,4.3a1,1,0,0,0,0,1.41l3.53,3.53L9,13.84,5.46,10.31a1,1,0,0,0-1.42,0L2.63,11.72a1,1,0,0,0,0,1.41L4,14.55,2.28,16.32,4.4,18.44,3,19.85,4.4,21.27l1.41-1.42L7.93,22,9.7,20.21l1.42,1.41a1,1,0,0,0,1.41,0l1.41-1.41a1,1,0,0,0,0-1.42l-3.53-3.53,4.6-4.6,3.53,3.53a1,1,0,0,0,1.41,0l1.77-1.76A1,1,0,0,0,21.72,11Z"/></svg>