<svg width="24" height="24" viewBox="0 0 24 24" fill="none" xmlns="http://www.w3.org/2000/svg">
<path d="M12 7C12.9889 7 13.9556 7.29324 14.7779 7.84265C15.6001 8.39206 16.241 9.17295 16.6194 10.0866C16.9978 11.0002 17.0969 12.0055 16.9039 12.9755C16.711 13.9454 16.2348 14.8363 15.5355 15.5355C14.8363 16.2348 13.9454 16.711 12.9755 16.9039C12.0055 17.0969 11.0002 16.9978 10.0866 16.6194C9.17295 16.241 8.39206 15.6001 7.84265 14.7779C7.29324 13.9556 7 12.9889 7 12C7 10.6739 7.52678 9.40215 8.46447 8.46447C9.40215 7.52678 10.6739 7 12 7Z" fill="#0F1621"/>
</svg>
