<svg xmlns="http://www.w3.org/2000/svg" viewBox="0 0 24 24"><g id="Layer_2" data-name="Layer 2"><g id="Carto_POI_Solid" data-name="Carto POI Solid"><g id="goingout"><rect width="24" height="24" style="fill:none;opacity:0"/><path d="M3,2V13.44a9,9,0,0,0,18,0V2ZM6,8.75a2.5,2.5,0,0,1,5,0C11,10.13,9.88,10,8.5,10S6,10.13,6,8.75Zm10.68,7a5,5,0,0,1-9.36,0,1,1,0,0,1,1.13-1.33,21.15,21.15,0,0,0,7.1,0A1,1,0,0,1,16.68,15.78ZM15.5,10c-1.38,0-2.5.13-2.5-1.25a2.5,2.5,0,0,1,5,0C18,10.13,16.88,10,15.5,10Z"/></g></g></g></svg>