<svg width="24" height="24" viewBox="0 0 24 24" fill="none" xmlns="http://www.w3.org/2000/svg">
<path d="M16 14.5C16 13.9067 16.1759 13.3266 16.5056 12.8333C16.8352 12.3399 17.3038 11.9554 17.8519 11.7284C18.4001 11.5013 19.0033 11.4419 19.5853 11.5576C20.1672 11.6734 20.7018 11.9591 21.1213 12.3787C21.5409 12.7982 21.8266 13.3328 21.9424 13.9147C22.0581 14.4967 21.9987 15.0999 21.7716 15.6481C21.5446 16.1962 21.1601 16.6648 20.6667 16.9944C20.1734 17.3241 19.5933 17.5 19 17.5C18.2044 17.5 17.4413 17.1839 16.8787 16.6213C16.3161 16.0587 16 15.2956 16 14.5ZM22 19H7V10.2L15 6L5 2V19H2V21H22V19Z" fill="#0F1621"/>
</svg>
