<svg xmlns="http://www.w3.org/2000/svg" viewBox="0 0 24 24"><defs><style>.cls-1{fill:none;}</style></defs><g id="Layer_2" data-name="Layer 2"><g id="Japan"><g id="facilities-education-higher_jpn"><rect class="cls-1" width="24" height="24"/><path d="M20,6V6h0A10,10,0,0,0,4,6H4V6a9.9,9.9,0,0,0-2,6,10,10,0,0,0,20,0A9.9,9.9,0,0,0,20,6ZM14.59,8,12,10.59,9.41,8ZM13,6V4.07A8,8,0,0,1,17.28,6ZM11,4.07V6H6.72A8,8,0,0,1,11,4.07ZM5.08,8H6.59l4,4-4.9,4.9A7.95,7.95,0,0,1,5.08,8Zm2,10.31,4.9-4.9,4.9,4.9a7.95,7.95,0,0,1-9.8,0ZM18.31,16.9,13.41,12l4-4h1.51a7.95,7.95,0,0,1-.61,8.9Z"/></g></g></g></svg>