<svg xmlns="http://www.w3.org/2000/svg" width="24" height="24" viewBox="0 0 24 24"><rect width="24" height="24" style="fill:none"/><path d="M22,16a6,6,0,0,1-6,6H8A6,6,0,0,1,5,10.81v2.57A4,4,0,0,0,8,20h8a4,4,0,0,0,3-6.62V10.81A6,6,0,0,1,22,16ZM12.94,2.78c-1,.15-2.82,1.44-2.37,4.4l1,6.93a4.37,4.37,0,0,1-.54,3.11c1-.15,2.81-1.44,2.36-4.4l-1-6.92A4.33,4.33,0,0,1,12.94,2.78Zm-3.81,1c-1,.15-2.81,1.43-2.36,4.4l.73,4.95A4.31,4.31,0,0,1,7,16.23c1-.15,2.82-1.43,2.37-4.4L8.59,6.88A4.37,4.37,0,0,1,9.13,3.77Zm7.91,0c-1,.15-2.81,1.43-2.36,4.4l.73,4.95a4.31,4.31,0,0,1-.54,3.11c1-.15,2.82-1.43,2.37-4.4L16.5,6.88A4.37,4.37,0,0,1,17,3.77Z" style="fill:#231f20"/></svg>