<svg width="24" height="24" viewBox="0 0 24 24" fill="none" xmlns="http://www.w3.org/2000/svg">
<path d="M20 14H13V10H18C18.5304 10 19.0391 10.2107 19.4142 10.5858C19.7893 10.9609 20 11.4696 20 12V14ZM7 14V12C7 11.4696 7.21071 10.9609 7.58579 10.5858C7.96086 10.2107 8.46957 10 9 10C9.53043 10 10.0391 10.2107 10.4142 10.5858C10.7893 10.9609 11 11.4696 11 12V14H7ZM21 16.75C20.9974 16.5519 20.9176 16.3626 20.7775 16.2225C20.6374 16.0824 20.4481 16.0026 20.25 16H5V10H3V22H5V20H19V22H21V16.75ZM22 8.42L12 4.84L2 8.42V5.56L12 2L22 5.56V8.42Z" fill="#0F1621"/>
</svg>
