<svg xmlns="http://www.w3.org/2000/svg" viewBox="0 0 24 24"><defs><style>.cls-1{fill:none;}</style></defs><g id="Layer_2" data-name="Layer 2"><g id="Carto_POI_Solid" data-name="Carto POI Solid"><g id="transport-inclined"><rect id="_Path_" data-name="&lt;Path&gt;" class="cls-1" width="24" height="24"/><path d="M19.51,2a2.38,2.38,0,0,0-.59.07L5.31,5.29A3,3,0,0,0,3,8.21V18l19-4.5v-9A2.5,2.5,0,0,0,19.51,2Zm-7.76,9L5,12.58V8.32A1.24,1.24,0,0,1,6,7.11l5.79-1.38ZM20,9l-6.75,1.61V5.37L19.08,4l.18,0a.75.75,0,0,1,.74.75ZM2,21.88l20-4.74v-1.5L2,20.38Z"/></g></g></g></svg>