<svg width="24" height="24" viewBox="0 0 24 24" fill="none" xmlns="http://www.w3.org/2000/svg">
<path d="M19 2H5C4.73478 2 4.48043 2.10536 4.29289 2.29289C4.10536 2.48043 4 2.73478 4 3V22H20V3C20 2.73478 19.8946 2.48043 19.7071 2.29289C19.5196 2.10536 19.2652 2 19 2ZM18 14C18 15.1867 17.6481 16.3467 16.9888 17.3334C16.3295 18.3201 15.3925 19.0892 14.2961 19.5433C13.1997 19.9974 11.9933 20.1162 10.8295 19.8847C9.66557 19.6532 8.59647 19.0818 7.75736 18.2426C6.91824 17.4035 6.3468 16.3344 6.11529 15.1705C5.88378 14.0067 6.0026 12.8003 6.45672 11.7039C6.91085 10.6075 7.67988 9.67047 8.66658 9.01118C9.65327 8.35189 10.8133 8 12 8H12.1C13.6739 8.02624 15.1745 8.66994 16.2781 9.79233C17.3818 10.9147 18.0002 12.4259 18 14ZM14 4H18V6H14V4ZM15 14C14.9995 14.593 14.8232 15.1725 14.4936 15.6653C14.1639 16.1582 13.6955 16.5423 13.1477 16.7691C12.5998 16.996 11.9971 17.0554 11.4155 16.9399C10.8339 16.8243 10.2995 16.539 9.88 16.12C9.31723 15.5579 9.0007 14.7954 9 14H15Z" fill="#0F1621"/>
</svg>
