<svg xmlns="http://www.w3.org/2000/svg" viewBox="0 0 24 24"><defs><style>.cls-1{fill:none;opacity:0;}</style></defs><g id="Layer_2" data-name="Layer 2"><g id="Carto_POI_Solid" data-name="Carto POI Solid"><g id="leisure-amusement"><rect class="cls-1" width="24" height="24"/><path d="M18.5,11.5a6.5,6.5,0,1,0-8.74,6.1L8,22h8l-1.76-4.4A6.52,6.52,0,0,0,18.5,11.5Zm-5,4.23-1.12-2.8a1,1,0,1,0-.74,0l-1.12,2.8a4.5,4.5,0,1,1,3,0ZM4,6H4V5H7V6H7A1,1,0,0,1,6,7H5A1,1,0,0,1,4,6Zm6.5-3h0V2h3V3h0a1,1,0,0,1-1,1h-1A1,1,0,0,1,10.5,3ZM17,6h0V5h3V6h0a1,1,0,0,1-1,1H18A1,1,0,0,1,17,6ZM4,13H3a1,1,0,0,1-1-1H2V11H5v1H5a1,1,0,0,1-1,1Zm18-1h0a1,1,0,0,1-1,1H20a1,1,0,0,1-1-1h0V11h3ZM4,17H7v1H7a1,1,0,0,1-1,1H5a1,1,0,0,1-1-1H4Zm13,0h3v1h0a1,1,0,0,1-1,1H18a1,1,0,0,1-1-1h0Z"/></g></g></g></svg>