<svg width="24" height="24" viewBox="0 0 24 24" fill="none" xmlns="http://www.w3.org/2000/svg">
<path d="M22 4H18.38C16.9531 4 15.5847 4.56682 14.5758 5.57577C13.5668 6.58471 13 7.95314 13 9.38V21H14C14 20.4696 14.2107 19.9609 14.5858 19.5858C14.9609 19.2107 15.4696 19 16 19H22V4ZM2 4H5.65C6.35473 4.00131 7.05228 4.14158 7.70274 4.41278C8.3532 4.68399 8.94379 5.0808 9.44071 5.58051C9.93764 6.08022 10.3311 6.67302 10.5987 7.32498C10.8663 7.97695 11.0026 8.67527 11 9.38V21H10C10 20.4696 9.78929 19.9609 9.41421 19.5858C9.03914 19.2107 8.53043 19 8 19H2V4Z" fill="#0F1621"/>
</svg>
