<svg xmlns="http://www.w3.org/2000/svg" width="24" height="24" viewBox="0 0 24 24"><rect width="24" height="24" style="fill:none"/><path d="M12,7.77c-1.35,0-3.5.35-3.5,2.73v1.83h7V10.5C15.5,8.12,13.36,7.77,12,7.77ZM11.22,18.5,9,22h6l-2.26-3.5ZM15,17h0a1.25,1.25,0,0,0,1.25-1.25h0A1.25,1.25,0,0,0,15,14.5h0a1.25,1.25,0,0,0-1.25,1.25h0A1.25,1.25,0,0,0,15,17ZM9,17H9a1.25,1.25,0,0,0,1.25-1.25h0A1.25,1.25,0,0,0,9,14.5H9a1.25,1.25,0,0,0-1.25,1.25h0A1.25,1.25,0,0,0,9,17ZM12,2C5.65,2,2,5.08,2,10.46V22H6l2.59-3.5H7a1,1,0,0,1-1-1V10.37c0-3,2.3-4.87,6-4.87s6,1.86,6,4.87V17.5a1,1,0,0,1-1,1H15.35L18,22h4V10.46C22,5.08,18.35,2,12,2Z"/></svg>