<svg width="24" height="24" viewBox="0 0 24 24" fill="none" xmlns="http://www.w3.org/2000/svg">
<path d="M19.9 12.31L19 4.82C18.954 4.05596 18.6178 3.33836 18.0601 2.81412C17.5024 2.28987 16.7654 1.99863 16 2H7.99995C7.23453 1.99863 6.49753 2.28987 5.93982 2.81412C5.38211 3.33836 5.04588 4.05596 4.99995 4.82L4.09995 12.31C4.01756 13.0937 4.12385 13.8858 4.40995 14.62L5.93995 18.1C6.09556 18.5063 6.36918 18.8567 6.7256 19.1062C7.08202 19.3557 7.50494 19.4929 7.93995 19.5L8.55995 16.5C8.67257 16.0634 8.92943 15.6776 9.28885 15.4053C9.64827 15.1331 10.0891 14.9902 10.54 15H13.46C13.9083 14.9981 14.3443 15.1469 14.698 15.4226C15.0516 15.6982 15.3023 16.0847 15.41 16.52L15.97 19.52C16.405 19.5129 16.8279 19.3757 17.1843 19.1262C17.5407 18.8767 17.8143 18.5263 17.97 18.12L19.55 14.64C19.8528 13.9029 19.9729 13.1035 19.9 12.31ZM7.89995 4H16.12C16.418 4.00662 16.7029 4.12396 16.9192 4.32915C17.1355 4.53435 17.2677 4.81271 17.29 5.11C17.29 5.11 17.39 7.32 17.45 9H6.51995C6.58995 7.32 6.71995 5.11 6.71995 5.11C6.74241 4.81102 6.87598 4.53127 7.09437 4.32583C7.31276 4.1204 7.60015 4.00416 7.89995 4ZM8.99995 13.5H6.99995C6.8853 13.5002 6.77183 13.4769 6.66651 13.4316C6.5612 13.3863 6.46627 13.3199 6.38758 13.2366C6.30889 13.1532 6.2481 13.0546 6.20895 12.9468C6.1698 12.8391 6.15313 12.7244 6.15995 12.61L6.20995 11.79C6.22285 11.5725 6.31976 11.3685 6.48022 11.2211C6.64068 11.0737 6.85214 10.9944 7.06995 11H8.99995V13.5ZM17 13.5H15V11H16.93C17.1443 10.9996 17.3507 11.0812 17.5069 11.2281C17.6631 11.375 17.7572 11.576 17.77 11.79L17.82 12.61C17.8267 12.7228 17.8106 12.8358 17.7727 12.9422C17.7348 13.0486 17.6758 13.1463 17.5992 13.2294C17.5227 13.3125 17.4301 13.3793 17.3272 13.4258C17.2242 13.4723 17.1129 13.4975 17 13.5ZM13.71 17.76L14.47 22H9.46995L10.25 17.77C10.3047 17.5481 10.4338 17.3517 10.6157 17.2134C10.7977 17.0751 11.0215 17.0033 11.25 17.01H12.68C12.9087 17.0005 13.1338 17.0698 13.3177 17.2063C13.5015 17.3428 13.6329 17.5383 13.69 17.76H13.71Z" fill="#0F1621"/>
</svg>
