<svg xmlns="http://www.w3.org/2000/svg" viewBox="0 0 24 24"><g id="Layer_2" data-name="Layer 2"><g id="Carto_POI_Solid" data-name="Carto POI Solid"><g id="monorail"><path id="_Path_" data-name="&lt;Path&gt;" d="M24,24H0V0H24Z" style="fill:none"/><path d="M19.9,12.31,19,4.82A3,3,0,0,0,16,2H8A3,3,0,0,0,5,4.82L4.1,12.31a4.94,4.94,0,0,0,.31,2.31L5.94,18.1a2.18,2.18,0,0,0,2,1.4l.62-3A2,2,0,0,1,10.54,15h2.92a2,2,0,0,1,1.95,1.52l.56,3a2.18,2.18,0,0,0,2-1.4l1.58-3.48A4.94,4.94,0,0,0,19.9,12.31ZM7.9,4h8.22a1.2,1.2,0,0,1,1.17,1.11s.1,2.21.16,3.89H6.52c.07-1.68.2-3.89.2-3.89A1.2,1.2,0,0,1,7.9,4ZM9,13.5H7a.84.84,0,0,1-.84-.89l.05-.82A.84.84,0,0,1,7.07,11H9Zm8,0H15V11h1.93a.84.84,0,0,1,.84.79l.05.82A.84.84,0,0,1,17,13.5Zm-3.29,4.26L14.47,22h-5l.78-4.23a1,1,0,0,1,1-.76h1.43A1,1,0,0,1,13.69,17.76Z"/></g></g></g></svg>