<svg xmlns="http://www.w3.org/2000/svg" viewBox="0 0 24 24"><defs><style>.cls-1{fill:none;opacity:0.11;}</style></defs><g id="Layer_2" data-name="Layer 2"><g id="Carto_POI_Solid" data-name="Carto POI Solid"><g id="nature-overlook"><rect class="cls-1" width="24" height="24"/><path d="M10,4H6V2h4ZM2,22H8V20H2Zm14,0h6V20H16ZM18,2H14V4h4Zm4,10.51V19a0,0,0,0,1,0,0H16a0,0,0,0,1,0,0V14H8v5H2V12.51a3.94,3.94,0,0,1,.48-1.9L5.5,5H10V6h4V5h4.48s3,5.61,3,5.61A3.94,3.94,0,0,1,22,12.51ZM13,8H11v4h2Z"/></g></g></g></svg>