<svg width="24" height="24" viewBox="0 0 24 24" fill="none" xmlns="http://www.w3.org/2000/svg">
<path d="M11 11C11 11.2967 10.912 11.5867 10.7472 11.8334C10.5824 12.08 10.3481 12.2723 10.074 12.3858C9.79994 12.4994 9.49834 12.5291 9.20737 12.4712C8.9164 12.4133 8.64912 12.2704 8.43934 12.0607C8.22957 11.8509 8.0867 11.5836 8.02883 11.2926C7.97095 11.0017 8.00065 10.7001 8.11418 10.426C8.22772 10.1519 8.41998 9.91762 8.66665 9.7528C8.91332 9.58797 9.20333 9.5 9.5 9.5C9.89783 9.5 10.2794 9.65804 10.5607 9.93934C10.842 10.2206 11 10.6022 11 11ZM8 18.36C6.66604 18.0949 5.42911 17.4724 4.42128 16.5592C3.41344 15.6459 2.67253 14.4761 2.27763 13.1746C1.88274 11.8732 1.84868 10.4889 2.1791 9.16957C2.50953 7.85026 3.19202 6.64544 4.15373 5.68373C5.11544 4.72202 6.32026 4.03952 7.63958 3.7091C8.95889 3.37868 10.3432 3.41273 11.6446 3.80763C12.9461 4.20252 14.1159 4.94344 15.0292 5.95127C15.9424 6.95911 16.5649 8.19603 16.83 9.53C17.0786 10.7423 17.0225 11.9974 16.6667 13.1827C16.311 14.368 15.6667 15.4465 14.7916 16.3216C13.9165 17.1967 12.838 17.841 11.6527 18.1967C10.4674 18.5525 9.21233 18.6086 8 18.36ZM8.55 7.62C7.97386 7.77297 7.44719 8.07262 7.02132 8.48972C6.59545 8.90683 6.28492 9.42716 6.12 10C5.95182 10.5993 5.94604 11.2326 6.10325 11.8349C6.26046 12.4371 6.57501 12.9868 7.01465 13.4274C7.45428 13.8681 8.0032 14.1839 8.60512 14.3425C9.20704 14.5011 9.8403 14.4968 10.44 14.33C11.0089 14.1809 11.5301 13.8884 11.9538 13.4805C12.3774 13.0726 12.6894 12.5629 12.86 12C13.0387 11.3986 13.0529 10.7602 12.9012 10.1514C12.7495 9.54263 12.4373 8.98563 11.9972 8.53842C11.5572 8.0912 11.0053 7.77012 10.399 7.6086C9.79273 7.44707 9.15424 7.45101 8.55 7.62ZM18 2V6H19V13.56C18.9987 14.0254 18.8892 14.4842 18.68 14.9L17.61 17.05L17.16 16.83L15.52 20.1L15.97 20.32L17.76 21.22L18.21 21.44L19.84 18.17L19.39 18L20.47 15.84C20.8246 15.1326 21.0062 14.3512 21 13.56V6H22V2H18Z" fill="#0F1621"/>
</svg>
