<svg xmlns="http://www.w3.org/2000/svg" viewBox="0 0 24 24"><g id="Layer_2" data-name="Layer 2"><g id="Carto_POI_Solid" data-name="Carto POI Solid"><g id="nightclub"><rect width="24" height="24" style="fill:none"/><path d="M11,11A1.5,1.5,0,1,1,9.5,9.5,1.5,1.5,0,0,1,11,11ZM8,18.36a7.51,7.51,0,1,1,8.83-8.83A7.48,7.48,0,0,1,8,18.36ZM8.55,7.62A3.45,3.45,0,0,0,6.12,10a3.51,3.51,0,0,0,4.32,4.33A3.44,3.44,0,0,0,12.86,12,3.51,3.51,0,0,0,8.55,7.62ZM18,2V6h1v7.56a3,3,0,0,1-.32,1.34l-1.07,2.15-.45-.22L15.52,20.1l.45.22,1.79.9.45.22,1.63-3.27L19.39,18l1.08-2.16A5,5,0,0,0,21,13.56V6h1V2Z"/></g></g></g></svg>