<svg width="24" height="24" viewBox="0 0 24 24" fill="none" xmlns="http://www.w3.org/2000/svg">
<path d="M22 5H2V4C2 3.46957 2.21071 2.96086 2.58579 2.58579C2.96086 2.21071 3.46957 2 4 2H20C20.5304 2 21.0391 2.21071 21.4142 2.58579C21.7893 2.96086 22 3.46957 22 4V5ZM2 20C2 20.5304 2.21071 21.0391 2.58579 21.4142C2.96086 21.7893 3.46957 22 4 22H20C20.5304 22 21.0391 21.7893 21.4142 21.4142C21.7893 21.0391 22 20.5304 22 20V19H2V20ZM4.36 17H2V7H5.23C7.81 7 9.4 8.07 9.4 10.26C9.4 12.45 7.75 13.67 5.4 13.67H4.36V17ZM4.36 12H5.24C6.31 12 7 11.52 7 10.26C7 9.19 6.37 8.69 5.2 8.69H4.36V12ZM10 11.49C9.99802 11.7875 10.0846 12.0789 10.2486 12.3271C10.4127 12.5753 10.6468 12.7691 10.9213 12.8839C11.1958 12.9986 11.4983 13.0292 11.7902 12.9716C12.0821 12.9141 12.3502 12.771 12.5606 12.5606C12.771 12.3502 12.9141 12.0821 12.9716 11.7902C13.0292 11.4983 12.9986 11.1958 12.8839 10.9213C12.7691 10.6468 12.5753 10.4127 12.3271 10.2486C12.0789 10.0846 11.7875 9.99802 11.49 10C11.2928 9.99448 11.0966 10.0292 10.9133 10.1022C10.7301 10.1751 10.5636 10.2847 10.4241 10.4241C10.2847 10.5636 10.1751 10.7301 10.1022 10.9133C10.0292 11.0966 9.99448 11.2928 10 11.49ZM19.47 12.74L22 17H19.34L17.29 13.18H16.36V17H14V7H17.27C19.98 7 21.38 8 21.38 10C21.4065 10.603 21.2338 11.198 20.8886 11.6932C20.5434 12.1884 20.0449 12.5562 19.47 12.74ZM19 10C19 9 18.43 8.62 17.26 8.62H16.41V11.51H17.41C18.4 11.55 19 11.1 19 10Z" fill="#0F1621"/>
</svg>
