<svg xmlns="http://www.w3.org/2000/svg" viewBox="0 0 24 24"><g id="Layer_2" data-name="Layer 2"><g id="Carto_POI_Solid" data-name="Carto POI Solid"><g id="parknride"><rect width="24" height="24" style="fill:none"/><path d="M22,5H2V4A2,2,0,0,1,4,2H20a2,2,0,0,1,2,2ZM2,20a2,2,0,0,0,2,2H20a2,2,0,0,0,2-2V19H2Zm2.36-3H2V7H5.23C7.81,7,9.4,8.07,9.4,10.26s-1.65,3.41-4,3.41H4.36Zm0-5h.88C6.31,12,7,11.52,7,10.26,7,9.19,6.37,8.69,5.2,8.69H4.36ZM10,11.49A1.5,1.5,0,1,0,11.49,10,1.45,1.45,0,0,0,10,11.49Zm9.47,1.25L22,17H19.34l-2.05-3.82h-.93V17H14V7h3.27c2.71,0,4.11,1,4.11,3A2.75,2.75,0,0,1,19.47,12.74ZM19,10c0-1-.57-1.38-1.74-1.38h-.85v2.89h1C18.4,11.55,19,11.1,19,10Z"/></g></g></g></svg>