<svg width="24" height="24" viewBox="0 0 24 24" fill="none" xmlns="http://www.w3.org/2000/svg">
<path d="M20.54 2H3.46C3.07359 2.00262 2.70376 2.15728 2.43052 2.43052C2.15728 2.70376 2.00262 3.07359 2 3.46V22H4V4H6.5V16C6.5 16.5304 6.71071 17.0391 7.08579 17.4142C7.46086 17.7893 7.96957 18 8.5 18H9V21.43L10.53 20.81C10.6782 20.7348 10.8015 20.6183 10.8849 20.4746C10.9683 20.3308 11.0083 20.166 11 20V18H13V20C12.9993 20.1593 13.0429 20.3156 13.1259 20.4516C13.2089 20.5875 13.328 20.6978 13.47 20.77L15 21.39V18H15.5C16.0304 18 16.5391 17.7893 16.9142 17.4142C17.2893 17.0391 17.5 16.5304 17.5 16V4H20V22H22V3.46C21.9974 3.07359 21.8427 2.70376 21.5695 2.43052C21.2962 2.15728 20.9264 2.00262 20.54 2ZM16 16H15.5L14.24 12.65C14.1691 12.4602 14.0422 12.2964 13.8761 12.1803C13.71 12.0643 13.5126 12.0014 13.31 12H10.69C10.4874 12.0014 10.29 12.0643 10.1239 12.1803C9.95781 12.2964 9.83091 12.4602 9.76 12.65L8.5 16H8V4H16V16ZM10 8.5V7.5C10 7.10218 10.158 6.72064 10.4393 6.43934C10.7206 6.15804 11.1022 6 11.5 6H12.5C12.8978 6 13.2794 6.15804 13.5607 6.43934C13.842 6.72064 14 7.10218 14 7.5V8.5C14 8.89782 13.842 9.27936 13.5607 9.56066C13.2794 9.84196 12.8978 10 12.5 10H11.5C11.1022 10 10.7206 9.84196 10.4393 9.56066C10.158 9.27936 10 8.89782 10 8.5Z" fill="#0F1621"/>
</svg>
