<svg xmlns="http://www.w3.org/2000/svg" width="24" height="24" viewBox="0 0 24 24"><rect width="24" height="24" style="fill:none;opacity:0"/><path d="M20.54,2H3.46A1.47,1.47,0,0,0,2,3.46V22H4V4H6.5V16a2,2,0,0,0,2,2H9v3.43l1.53-.62A.86.86,0,0,0,11,20V18h2v2a.86.86,0,0,0,.47.77l1.53.62V18h.5a2,2,0,0,0,2-2V4H20V22h2V3.46A1.47,1.47,0,0,0,20.54,2ZM16,16h-.5l-1.26-3.35a1,1,0,0,0-.93-.65H10.69a1,1,0,0,0-.93.65L8.5,16H8V4h8ZM10,8.5v-1A1.5,1.5,0,0,1,11.5,6h1A1.5,1.5,0,0,1,14,7.5v1A1.5,1.5,0,0,1,12.5,10h-1A1.5,1.5,0,0,1,10,8.5Z"/></svg>