<svg xmlns="http://www.w3.org/2000/svg" width="24" height="24" viewBox="0 0 24 24"><rect width="24" height="24" style="fill:none"/><path d="M12,2A10,10,0,1,0,22,12,10,10,0,0,0,12,2Zm0,15.89A5.89,5.89,0,1,1,17.89,12,5.89,5.89,0,0,1,12,17.89Zm1.2-6.18A1.86,1.86,0,0,0,14.42,10c0-1.23-1.11-1.89-2.42-1.89s-2.42.74-2.42,1.95a1.89,1.89,0,0,0,1.11,1.75,2,2,0,0,0-1.41,1.87c0,1.2,1,2.13,2.69,2.13s2.75-.95,2.75-2.16A2.15,2.15,0,0,0,13.2,11.71ZM12,9.14a.93.93,0,0,1,1.06,1,1.35,1.35,0,0,1-.8,1.25l-.2-.07c-.72-.27-1.12-.54-1.12-1.17A.93.93,0,0,1,12,9.14Zm0,5.67c-.79,0-1.3-.43-1.3-1.14a1.55,1.55,0,0,1,.89-1.46l.34.12c1,.36,1.36.67,1.36,1.36A1.13,1.13,0,0,1,12,14.81Z"/></svg>