<svg width="24" height="24" viewBox="0 0 24 24" fill="none" xmlns="http://www.w3.org/2000/svg">
<path d="M2.00006 7V6H22.0001V7C21.9965 7.16392 21.9527 7.32444 21.8724 7.46743C21.7922 7.61043 21.6781 7.7315 21.5401 7.82L12.5401 13.44C12.388 13.5278 12.2156 13.574 12.0401 13.574C11.8645 13.574 11.6921 13.5278 11.5401 13.44L2.54006 7.82C2.38713 7.7413 2.25709 7.62448 2.16249 7.48084C2.0679 7.33719 2.01195 7.17158 2.00006 7ZM22.0001 9.5L13.0901 15.29C12.7656 15.5009 12.387 15.6131 12.0001 15.6131C11.6131 15.6131 11.2345 15.5009 10.9101 15.29L2.00006 9.5V18.14C1.99872 18.2533 2.02005 18.3657 2.06279 18.4707C2.10554 18.5756 2.16883 18.671 2.24896 18.7511C2.32909 18.8312 2.42443 18.8945 2.52937 18.9373C2.63432 18.98 2.74675 19.0013 2.86006 19H21.1401C21.2534 19.0013 21.3658 18.98 21.4707 18.9373C21.5757 18.8945 21.671 18.8312 21.7512 18.7511C21.8313 18.671 21.8946 18.5756 21.9373 18.4707C21.9801 18.3657 22.0014 18.2533 22.0001 18.14V9.5Z" fill="#0F1621"/>
</svg>
