<svg xmlns="http://www.w3.org/2000/svg" viewBox="0 0 24 24"><defs><style>.cls-1{fill:none;}</style></defs><g id="Layer_2" data-name="Layer 2"><g id="Carto_POI_Solid" data-name="Carto POI Solid"><g id="eatdrink-pub"><rect class="cls-1" width="24" height="24"/><path d="M20.11,10H4V20l-.5,2h15L18,20V19l2.39-.38a2,2,0,0,0,1.61-2V12A2,2,0,0,0,20.11,10ZM10,19H8V12h2Zm4,0H12V12h2Zm6-2.81a.5.5,0,0,1-.4.49L18,17V12h1.5a.5.5,0,0,1,.5.5ZM5.09,8h-2a4,4,0,0,1,0-.5A3.5,3.5,0,0,1,6.5,4h1a4,4,0,0,1,6.9,0H15.5A3.5,3.5,0,0,1,19,7.5,4,4,0,0,1,19,8h-2A1.39,1.39,0,0,0,17,7.5,1.5,1.5,0,0,0,15.5,6H13A2,2,0,0,0,9,6H6.5A1.5,1.5,0,0,0,5,7.5,1.64,1.64,0,0,0,5.09,8Z"/></g></g></g></svg>