<svg width="24" height="24" viewBox="0 0 24 24" fill="none" xmlns="http://www.w3.org/2000/svg">
<path d="M20.1101 10H4.0001V20L3.5001 22H18.5001L18.0001 20V19L20.3901 18.62C20.8505 18.5286 21.2641 18.2781 21.5584 17.9125C21.8527 17.5468 22.0091 17.0893 22.0001 16.62V12C22.0009 11.4881 21.8053 10.9954 21.4537 10.6233C21.1021 10.2512 20.6212 10.0282 20.1101 10ZM10.0001 19H8.0001V12H10.0001V19ZM14.0001 19H12.0001V12H14.0001V19ZM20.0001 16.19C20.0001 16.3053 19.9603 16.417 19.8874 16.5063C19.8145 16.5956 19.713 16.6569 19.6001 16.68L18.0001 17V12H19.5001C19.6327 12 19.7599 12.0527 19.8536 12.1464C19.9474 12.2402 20.0001 12.3674 20.0001 12.5V16.19ZM5.0901 8H3.0901C3.07967 7.8335 3.07967 7.66651 3.0901 7.5C3.08979 6.58713 3.44616 5.71026 4.0832 5.05641C4.72024 4.40256 5.58752 4.02348 6.5001 4H7.5001C7.85302 3.3985 8.35707 2.89972 8.96225 2.55314C9.56743 2.20656 10.2527 2.02423 10.9501 2.02423C11.6475 2.02423 12.3328 2.20656 12.9379 2.55314C13.5431 2.89972 14.0472 3.3985 14.4001 4H15.5001C16.4284 4 17.3186 4.36875 17.975 5.02513C18.6313 5.68151 19.0001 6.57174 19.0001 7.5C19.0105 7.66651 19.0105 7.8335 19.0001 8H17.0001C17.0303 7.83471 17.0303 7.6653 17.0001 7.5C17.0001 7.10218 16.8421 6.72065 16.5608 6.43934C16.2795 6.15804 15.8979 6 15.5001 6H13.0001C13.0001 5.46957 12.7894 4.96086 12.4143 4.58579C12.0392 4.21072 11.5305 4 11.0001 4C10.4697 4 9.96096 4.21072 9.58588 4.58579C9.21081 4.96086 9.0001 5.46957 9.0001 6H6.5001C6.10227 6 5.72074 6.15804 5.43944 6.43934C5.15813 6.72065 5.0001 7.10218 5.0001 7.5C5.00394 7.67033 5.03431 7.83902 5.0901 8Z" fill="#0F1621"/>
</svg>
