<svg xmlns="http://www.w3.org/2000/svg" viewBox="0 0 24 24"><g id="Layer_2" data-name="Layer 2"><g id="Carto_POI_Solid" data-name="Carto POI Solid"><g id="publictoilet"><rect id="bounding.box" width="24" height="24" style="fill:none"/><path d="M21,15h-.8l.31,7h-2L18,15H17l-.5,7h-2l.29-7H14V8.5c0-1,.56-1.5,1.32-1.5h4.37C20.44,7,21,7.5,21,8.5ZM10,8.5A1.5,1.5,0,0,0,8.5,7h0c-.78,0-.93.5-2,.5S5.25,7,4.5,7h0A1.5,1.5,0,0,0,3,8.5v1l2,1L2,19H5l.5,3h2L8,19h3L8,10.5l2-1ZM17,6h1a1,1,0,0,0,1-1V3a1,1,0,0,0-1-1H17a1,1,0,0,0-1,1V5A1,1,0,0,0,17,6ZM6,6H7A1,1,0,0,0,8,5V3A1,1,0,0,0,7,2H6A1,1,0,0,0,5,3V5A1,1,0,0,0,6,6Z"/></g></g></g></svg>