<svg xmlns="http://www.w3.org/2000/svg" width="24" height="24" viewBox="0 0 24 24"><path d="M24,24H0V0H24Z" style="fill:none;opacity:0.05"/><path d="M20,2,10,2A2,2,0,0,0,8,4V8.5h2V8H20v6H16.5v6H18v1a1,1,0,0,0,1,1h2a1,1,0,0,0,1-1V4A2,2,0,0,0,20,2Zm-.5,16H18V16h1.5A1.25,1.25,0,0,1,19.5,18ZM20,6H10V4H20Zm-6.45,7.11A2,2,0,0,0,11.76,12H11l-.5-2h-4L6,12H5.24a2,2,0,0,0-1.79,1.11L2.11,15.79a1,1,0,0,0-.11.45V21a1,1,0,0,0,1,1H4a1,1,0,0,0,1-1h7a1,1,0,0,0,1,1h1a1,1,0,0,0,1-1V16.24a1,1,0,0,0-.11-.45Zm-8.3.39h6.5L13,16H4Zm.75,6H4A.94.94,0,0,1,4,18H6Zm7,0H11V18h2A.94.94,0,0,1,13,19.5Z"/></svg>