<svg width="24" height="24" viewBox="0 0 24 24" fill="none" xmlns="http://www.w3.org/2000/svg">
<path d="M20 2H10C9.46957 2 8.96086 2.21071 8.58579 2.58579C8.21071 2.96086 8 3.46957 8 4V8.5H10V8H20V14H16.5V20H18V21C18 21.2652 18.1054 21.5196 18.2929 21.7071C18.4804 21.8946 18.7348 22 19 22H21C21.2652 22 21.5196 21.8946 21.7071 21.7071C21.8946 21.5196 22 21.2652 22 21V4C22 3.46957 21.7893 2.96086 21.4142 2.58579C21.0391 2.21071 20.5304 2 20 2ZM19.5 18H18V16H19.5C19.6552 16.1164 19.7812 16.2674 19.868 16.441C19.9548 16.6146 20 16.8059 20 17C20 17.1941 19.9548 17.3854 19.868 17.559C19.7812 17.7326 19.6552 17.8836 19.5 18ZM20 6H10V4H20V6ZM13.55 13.11C13.3844 12.7768 13.1292 12.4964 12.813 12.3003C12.4967 12.1042 12.1321 12.0002 11.76 12H11L10.5 10H6.5L6 12H5.24C4.86792 12.0002 4.50326 12.1042 4.18704 12.3003C3.87083 12.4964 3.61558 12.7768 3.45 13.11L2.11 15.79C2.03862 15.9293 2.00094 16.0835 2 16.24V21C2 21.2652 2.10536 21.5196 2.29289 21.7071C2.48043 21.8946 2.73478 22 3 22H4C4.26522 22 4.51957 21.8946 4.70711 21.7071C4.89464 21.5196 5 21.2652 5 21H12C12 21.2652 12.1054 21.5196 12.2929 21.7071C12.4804 21.8946 12.7348 22 13 22H14C14.2652 22 14.5196 21.8946 14.7071 21.7071C14.8946 21.5196 15 21.2652 15 21V16.24C14.9991 16.0835 14.9614 15.9293 14.89 15.79L13.55 13.11ZM5.25 13.5H11.75L13 16H4L5.25 13.5ZM6 19.5H4C3.88401 19.4124 3.78993 19.299 3.72515 19.1689C3.66037 19.0388 3.62666 18.8954 3.62666 18.75C3.62666 18.6046 3.66037 18.4612 3.72515 18.3311C3.78993 18.201 3.88401 18.0876 4 18H6V19.5ZM13 19.5H11V18H13C13.116 18.0876 13.2101 18.201 13.2748 18.3311C13.3396 18.4612 13.3733 18.6046 13.3733 18.75C13.3733 18.8954 13.3396 19.0388 13.2748 19.1689C13.2101 19.299 13.116 19.4124 13 19.5Z" fill="#0F1621"/>
</svg>
