<svg width="24" height="24" viewBox="0 0 24 24" fill="none" xmlns="http://www.w3.org/2000/svg">
<path d="M17.9999 2L13.9999 12V19H10.9999V11H2.99993V22H21.9999V12L17.9999 2ZM5.99993 19V13C6.11636 12.8448 6.26734 12.7188 6.44091 12.632C6.61448 12.5452 6.80587 12.5 6.99993 12.5C7.19398 12.5 7.38538 12.5452 7.55894 12.632C7.73251 12.7188 7.88349 12.8448 7.99993 13V19H5.99993ZM16.9999 19V13C17.1164 12.8448 17.2673 12.7188 17.4409 12.632C17.6145 12.5452 17.8059 12.5 17.9999 12.5C18.194 12.5 18.3854 12.5452 18.5589 12.632C18.7325 12.7188 18.8835 12.8448 18.9999 13V19H16.9999ZM11.9999 7C12.0107 7.38992 11.9251 7.77646 11.7506 8.12535C11.5762 8.47423 11.3183 8.77467 10.9999 9H2.99993C2.68153 8.77467 2.42367 8.47423 2.24923 8.12535C2.07479 7.77646 1.98916 7.38992 1.99993 7C1.99993 5 6.99993 2 6.99993 2C6.99993 2 11.9999 5 11.9999 7Z" fill="#0F1621"/>
</svg>
