<svg xmlns="http://www.w3.org/2000/svg" viewBox="0 0 24 24"><defs><style>.cls-1{fill:none;}</style></defs><g id="Layer_2" data-name="Layer 2"><g id="Japan"><g id="transport-shinkansen-jpn"><path id="_Path_" data-name="&lt;Path&gt;" class="cls-1" d="M24,24H0V0H24Z"/><path d="M21.13,6.78a3,3,0,0,0-3-2.78H17a5,5,0,0,0-4-2H11A5,5,0,0,0,7,4H5.86a3,3,0,0,0-3,2.78l-.44,5.85a5,5,0,0,0,.92,3.23l.33,2.64a4,4,0,0,0,4,3.5h8.7a4,4,0,0,0,4-3.5l.33-2.64a5,5,0,0,0,.92-3.23ZM18.34,18.25a2,2,0,0,1-2,1.75H7.65a2,2,0,0,1-2-1.75l-.07-.61A5.14,5.14,0,0,0,7.42,18h9.16a5.14,5.14,0,0,0,1.83-.36ZM18.78,15a3,3,0,0,1-2.2,1H7.42a3,3,0,0,1-3-3.22l.43-5.85a1,1,0,0,1,1-.93H6.1A5.47,5.47,0,0,0,6,7V8H8V7a3,3,0,0,1,3-3h2a3,3,0,0,1,3,3V8h2V7a5.47,5.47,0,0,0-.1-1h.24a1,1,0,0,1,1,.93l.43,5.85A3,3,0,0,1,18.78,15ZM11,12H8V10h3Zm5,0H13V10h3ZM14,8H10V6h4Z"/></g></g></g></svg>