<svg width="24" height="24" viewBox="0 0 24 24" fill="none" xmlns="http://www.w3.org/2000/svg">
<path d="M17 8L16.7 6C16.6261 5.18972 16.2555 4.43528 15.6594 3.88157C15.0632 3.32785 14.2835 3.0139 13.47 3H10.53C9.71643 3.0139 8.93672 3.32785 8.34056 3.88157C7.7444 4.43528 7.37381 5.18972 7.29996 6L7.04996 8H3.32996L3.89996 19.1C3.92563 19.6129 4.14763 20.0963 4.51996 20.45C4.89228 20.8037 5.3864 21.0006 5.89996 21H18.1C18.6135 21.0006 19.1076 20.8037 19.48 20.45C19.8523 20.0963 20.0743 19.6129 20.1 19.1L20.67 8H17ZM9.27996 6.2C9.30646 5.88207 9.44807 5.58475 9.67821 5.36381C9.90835 5.14287 10.2112 5.01351 10.53 5H13.47C13.7887 5.01351 14.0916 5.14287 14.3217 5.36381C14.5518 5.58475 14.6935 5.88207 14.72 6.2L14.89 7.9C14.904 8.03948 14.8885 8.18034 14.8446 8.31346C14.8006 8.44657 14.7292 8.56896 14.6349 8.67269C14.5406 8.77641 14.4256 8.85915 14.2972 8.91554C14.1689 8.97193 14.0301 9.0007 13.89 9H10.11C9.96978 9.0007 9.83102 8.97193 9.70268 8.91554C9.57435 8.85915 9.4593 8.77641 9.365 8.67269C9.27071 8.56896 9.19927 8.44657 9.15534 8.31346C9.1114 8.18034 9.09594 8.03948 9.10996 7.9L9.27996 6.2Z" fill="#0F1621"/>
</svg>
