<svg xmlns="http://www.w3.org/2000/svg" viewBox="0 0 24 24"><defs><style>.cls-1{fill:none;opacity:0.05;}</style></defs><g id="Layer_2" data-name="Layer 2"><g id="Carto_POI_Solid" data-name="Carto POI Solid"><g id="sport-ski-run"><path class="cls-1" d="M0,0H24V24H0Z"/><path d="M20.37,6.09l1-1.74A1,1,0,0,0,21,3l-.87-.5a1,1,0,0,0-1.36.37L17.27,5.47l.87.49.86.5A1,1,0,0,0,20.37,6.09Zm-1,13.83c-.85.48-1.23.45-1.79.12L11.5,16.57,15,14.52,14,11.11,9.7,8.63l2.23,4.15-2.6,2.55L3.69,12.1,2.51,13.15l14.31,8.18A2.39,2.39,0,0,0,19.66,21Zm1.12-8-2.6-1.49L17.8,7.51,14.43,5.58a1,1,0,0,0-1,0L11.81,7,6.6,4l-.74,1.3,13.89,7.94Z"/></g></g></g></svg>