<svg xmlns="http://www.w3.org/2000/svg" viewBox="0 0 24 24"><defs><style>.cls-1{fill:none;}</style></defs><g id="Layer_2" data-name="Layer 2"><g id="Carto_POI_Solid" data-name="Carto POI Solid"><g id="sport-swimming"><rect class="cls-1" width="24" height="24"/><path d="M14.8,4,7.15,16.23a7.32,7.32,0,0,1,2.29-.33,7.44,7.44,0,0,1,3.51.81,3,3,0,0,0,1.59.39,3,3,0,0,0,1.6-.39,7.44,7.44,0,0,1,3.51-.81c.31,0,.59,0,.86,0l-5.06-5.45a1,1,0,0,1-.18-1.09l2.05-4.57A2,2,0,0,0,15.5,2H7.11l.71,2Zm4.85,14.8a6,6,0,0,0-2.87.67,4.44,4.44,0,0,1-2.24.53,4.43,4.43,0,0,1-2.23-.53,6,6,0,0,0-2.87-.67,5.91,5.91,0,0,0-2.86.67A4.43,4.43,0,0,1,4.35,20a4.37,4.37,0,0,1-2.23-.53l-.12,0v2.14A5.65,5.65,0,0,0,4.35,22a6,6,0,0,0,2.87-.67,4.36,4.36,0,0,1,2.22-.53,4.37,4.37,0,0,1,2.23.53,6,6,0,0,0,2.87.67,6,6,0,0,0,2.87-.67,4.44,4.44,0,0,1,2.24-.53,4.37,4.37,0,0,1,2.23.53l.12.05V19.24A5.69,5.69,0,0,0,19.65,18.8ZM6.78,13H5a2,2,0,0,1-2-2V9A2,2,0,0,1,5,7h1.5A1.5,1.5,0,0,1,8,8.5l.35,2.06Z"/></g></g></g></svg>