<svg xmlns="http://www.w3.org/2000/svg" viewBox="0 0 24 24"><defs><style>.cls-1{fill:none;opacity:0;}</style></defs><g id="Layer_2" data-name="Layer 2"><g id="Carto_POI_Solid" data-name="Carto POI Solid"><g id="sport-main"><rect class="cls-1" width="24" height="24"/><path d="M14,22V19.5a1.87,1.87,0,0,0-2-1.88,1.87,1.87,0,0,0-2,1.88V22H5.37a3,3,0,0,1-3-2.86l-.37-8,4.5,4.19A2.73,2.73,0,0,0,8.34,16h7a2.73,2.73,0,0,0,1.84-.72L22,11.09l-.37,8.05a3,3,0,0,1-3,2.86ZM7.85,13.81a.75.75,0,0,0,.49.19h7a.73.73,0,0,0,.49-.19l0,0,0,0,2-1.77h-12ZM22,2.9,18,2V8H12V4.3l2-.58V2.86L10,2V8H4L4,4.31l2-.59V2.86L2,2V8.36L3.76,10H20.2L22,8.45V8H20V4.35l2-.59Z"/></g></g></g></svg>