<svg width="24" height="24" viewBox="0 0 24 24" fill="none" xmlns="http://www.w3.org/2000/svg">
<path d="M14 22V19.5C14.002 19.2423 13.9507 18.9869 13.8493 18.7499C13.7479 18.5129 13.5986 18.2995 13.4108 18.1229C13.223 17.9464 13.0008 17.8106 12.758 17.724C12.5152 17.6375 12.2571 17.6021 12 17.62C11.7429 17.6021 11.4848 17.6375 11.242 17.724C10.9992 17.8106 10.777 17.9464 10.5892 18.1229C10.4014 18.2995 10.2521 18.5129 10.1507 18.7499C10.0493 18.9869 9.998 19.2423 10 19.5V22H5.37C4.59802 22.0008 3.85543 21.7041 3.29668 21.1714C2.73793 20.6387 2.40603 19.9111 2.37 19.14L2 11.14L6.5 15.33C7.00938 15.7732 7.66492 16.0119 8.34 16H15.34C16.0217 15.9982 16.6781 15.7413 17.18 15.28L22 11.09L21.63 19.14C21.594 19.9111 21.2621 20.6387 20.7033 21.1714C20.1446 21.7041 19.402 22.0008 18.63 22H14ZM7.85 13.81C7.98507 13.9304 8.1591 13.9978 8.34 14H15.34C15.5213 13.9997 15.6959 13.932 15.83 13.81L17.83 12.04H5.83L7.85 13.81ZM22 2.9L18 2V8H12V4.3L14 3.72V2.86L10 2V8H4V4.31L6 3.72V2.86L2 2V8.36L3.76 10H20.2L22 8.45V8H20V4.35L22 3.76V2.9Z" fill="#0F1621"/>
</svg>
