<svg xmlns="http://www.w3.org/2000/svg" width="24" height="24" viewBox="0 0 24 24"><rect width="24" height="24" style="fill:none"/><path d="M21.5,11H19.78l-1-2.3A2.8,2.8,0,0,0,16.25,7h-.81l-.38-2.9A1.21,1.21,0,0,0,13.9,3H10.1A1.21,1.21,0,0,0,8.94,4.1L8.56,7H7.78a2.78,2.78,0,0,0-2.5,1.7l-1,2.3H2.5a1.25,1.25,0,0,0,0,2H3v6a1,1,0,0,0,1,1H7a1,1,0,0,0,1-1V18h8v1a1,1,0,0,0,1,1h3a1,1,0,0,0,1-1V13h.5A1.25,1.25,0,0,0,21.5,11ZM8,16H5.5a1.25,1.25,0,0,1,0-2H8ZM6,12,7.11,9.51A.78.78,0,0,1,7.78,9h8.47a.79.79,0,0,1,.68.51L18,12Zm12.5,4H16V14h2.5A1.25,1.25,0,0,1,18.5,16Z"/></svg>