<svg width="24" height="24" viewBox="0 0 24 24" fill="none" xmlns="http://www.w3.org/2000/svg">
<path d="M3 2V13.44C3 15.8269 3.94821 18.1161 5.63604 19.804C7.32387 21.4918 9.61305 22.44 12 22.44C14.3869 22.44 16.6761 21.4918 18.364 19.804C20.0518 18.1161 21 15.8269 21 13.44V2H3ZM6 8.75C6 8.08696 6.26339 7.45107 6.73223 6.98223C7.20107 6.51339 7.83696 6.25 8.5 6.25C9.16304 6.25 9.79893 6.51339 10.2678 6.98223C10.7366 7.45107 11 8.08696 11 8.75C11 10.13 9.88 10 8.5 10C7.12 10 6 10.13 6 8.75ZM16.68 15.75C16.322 16.7019 15.6822 17.5221 14.8461 18.101C14.0099 18.6799 13.017 18.99 12 18.99C10.983 18.99 9.99014 18.6799 9.15395 18.101C8.31776 17.5221 7.67799 16.7019 7.32 15.75C7.25799 15.5834 7.24153 15.4032 7.27231 15.2281C7.3031 15.053 7.38001 14.8893 7.49513 14.7538C7.61025 14.6183 7.75942 14.5159 7.92725 14.4572C8.09509 14.3986 8.27554 14.3857 8.45 14.42C10.7998 14.8201 13.2002 14.8201 15.55 14.42C15.728 14.3826 15.9128 14.3945 16.0846 14.4543C16.2563 14.5141 16.4085 14.6197 16.5247 14.7596C16.641 14.8995 16.7168 15.0684 16.7442 15.2482C16.7716 15.428 16.7494 15.6119 16.68 15.78V15.75ZM15.5 10C14.12 10 13 10.13 13 8.75C13 8.08696 13.2634 7.45107 13.7322 6.98223C14.2011 6.51339 14.837 6.25 15.5 6.25C16.163 6.25 16.7989 6.51339 17.2678 6.98223C17.7366 7.45107 18 8.08696 18 8.75C18 10.13 16.88 10 15.5 10Z" fill="#0F1621"/>
</svg>
