<svg width="24" height="24" viewBox="0 0 24 24" fill="none" xmlns="http://www.w3.org/2000/svg">
<path d="M14 18V9.00005H7V13H10V18H6V22H17V18H14ZM14.7 5.00005C14.7 5.53406 14.5416 6.05608 14.245 6.50009C13.9483 6.9441 13.5266 7.29017 13.0332 7.49452C12.5399 7.69888 11.997 7.75235 11.4733 7.64817C10.9495 7.54399 10.4684 7.28684 10.0908 6.90924C9.71321 6.53164 9.45606 6.05054 9.35188 5.52679C9.2477 5.00304 9.30117 4.46016 9.50553 3.9668C9.70988 3.47344 10.0559 3.05176 10.5 2.75508C10.944 2.4584 11.466 2.30005 12 2.30005C12.7161 2.30005 13.4028 2.58451 13.9092 3.09086C14.4155 3.59721 14.7 4.28396 14.7 5.00005Z" fill="#0F1621"/>
</svg>
