<svg xmlns="http://www.w3.org/2000/svg" viewBox="0 0 24 24"><defs><style>.cls-1{fill:none;}</style></defs><g id="Layer_2" data-name="Layer 2"><g id="Carto_POI_Solid" data-name="Carto POI Solid"><g id="transport-train"><path id="_Path_" data-name="&lt;Path&gt;" class="cls-1" d="M24,24H0V0H24Z"/><path d="M16.31,17a3,3,0,0,0,3-3.18l-.64-9a3,3,0,0,0-3-2.82H8.32a3,3,0,0,0-3,2.82l-.64,9a3,3,0,0,0,3,3.18H8L3,22H6l4.5-5h3L18,22h3l-5-5ZM9.5,14.5H7.71a1,1,0,0,1-1-1.06l0-.5a1,1,0,0,1,1-.94H9.5ZM7,9.5,7.29,5a1.05,1.05,0,0,1,1-1h7.32a1.05,1.05,0,0,1,1.05,1L17,9.5Zm7.5,5V12h1.75a1,1,0,0,1,1,.94l0,.5a1,1,0,0,1-1,1.06Z"/></g></g></g></svg>