<svg xmlns="http://www.w3.org/2000/svg" viewBox="0 0 24 24"><defs><style>.cls-1{fill:none;}</style></defs><g id="Layer_2" data-name="Layer 2"><g id="Carto_POI_Solid" data-name="Carto POI Solid"><g id="transport-rail-regional"><rect id="_Path_" data-name="&lt;Path&gt;" class="cls-1" width="24" height="24"/><path d="M20,3.5A1.5,1.5,0,0,0,18.5,2H5.5A1.5,1.5,0,0,0,4,3.5V17H8L3,22H6l4.5-5h3L18,22h3l-5-5h4ZM6,4h5v7H6ZM7.5,15.5h0A1.5,1.5,0,0,1,6,14H6a1.5,1.5,0,0,1,1.5-1.5h0A1.5,1.5,0,0,1,9,14H9A1.5,1.5,0,0,1,7.5,15.5ZM18,14h0a1.5,1.5,0,0,1-1.5,1.5h0A1.5,1.5,0,0,1,15,14h0a1.5,1.5,0,0,1,1.5-1.5h0A1.5,1.5,0,0,1,18,14Zm0-3H13V4h5Z"/></g></g></g></svg>