<svg width="24" height="24" viewBox="0 0 24 24" fill="none" xmlns="http://www.w3.org/2000/svg">
<path d="M21.13 6.78C21.0743 6.02308 20.7339 5.31539 20.1772 4.79952C19.6205 4.28365 18.889 3.99796 18.13 4H17C16.5343 3.37902 15.9303 2.875 15.2361 2.52786C14.5418 2.18073 13.7762 2 13 2H11C10.2238 2 9.4582 2.18073 8.76393 2.52786C8.06965 2.875 7.46573 3.37902 6.99999 4H5.85999C5.10103 3.99796 4.36951 4.28365 3.81282 4.79952C3.25612 5.31539 2.91565 6.02308 2.85999 6.78L2.41999 12.63C2.34508 13.7805 2.67009 14.9216 3.33999 15.86L3.66999 18.5C3.79243 19.472 4.26732 20.3653 5.00462 21.0104C5.74191 21.6556 6.69033 22.0077 7.66999 22H16.37C17.3497 22.0077 18.2981 21.6556 19.0354 21.0104C19.7727 20.3653 20.2476 19.472 20.37 18.5L20.7 15.86C21.3699 14.9216 21.6949 13.7805 21.62 12.63L21.13 6.78ZM18.34 18.25C18.2788 18.736 18.0413 19.1826 17.6727 19.5052C17.304 19.8278 16.8298 20.0038 16.34 20H7.64999C7.16016 20.0038 6.68595 19.8278 6.31731 19.5052C5.94866 19.1826 5.71121 18.736 5.64999 18.25L5.57999 17.64C6.16607 17.8718 6.78978 17.9938 7.41999 18H16.58C17.2068 17.9926 17.8271 17.8706 18.41 17.64L18.34 18.25ZM18.78 15C18.5027 15.3101 18.1639 15.5592 17.7851 15.7313C17.4064 15.9035 16.996 15.995 16.58 16H7.41999C7.00681 16.0011 6.59786 15.9169 6.21876 15.7525C5.83966 15.5882 5.49859 15.3473 5.21694 15.045C4.93528 14.7427 4.71911 14.3855 4.58198 13.9957C4.44484 13.606 4.38969 13.1921 4.41999 12.78L4.84999 6.93C4.86774 6.6771 4.98088 6.44038 5.16653 6.26773C5.35218 6.09507 5.59647 5.99938 5.84999 6H6.09999C6.03605 6.32956 6.00257 6.6643 5.99999 7V8H7.99999V7C7.99999 6.20435 8.31606 5.44129 8.87867 4.87868C9.44128 4.31607 10.2043 4 11 4H13C13.7956 4 14.5587 4.31607 15.1213 4.87868C15.6839 5.44129 16 6.20435 16 7V8H18V7C17.9974 6.6643 17.9639 6.32956 17.9 6H18.14C18.3935 5.99938 18.6378 6.09507 18.8235 6.26773C19.0091 6.44038 19.1222 6.6771 19.14 6.93L19.57 12.78C19.595 13.1842 19.5379 13.5893 19.4021 13.9708C19.2663 14.3523 19.0547 14.7024 18.78 15ZM11 12H7.99999V10H11V12ZM16 12H13V10H16V12ZM14 8H9.99999V6H14V8Z" fill="#0F1621"/>
</svg>
