<svg xmlns="http://www.w3.org/2000/svg" viewBox="0 0 24 24"><defs><style>.cls-1{fill:none;}</style></defs><g id="Layer_2" data-name="Layer 2"><g id="Carto_POI_Solid" data-name="Carto POI Solid"><g id="transport-rail-light"><path id="_Path_" data-name="&lt;Path&gt;" class="cls-1" d="M24,24H0V0H24Z"/><path d="M16,17h2.5V12.05A20.74,20.74,0,0,0,18.39,10l-.61-5.27A3,3,0,0,0,14.8,2H9.2a3,3,0,0,0-3,2.69L5.61,10a20.74,20.74,0,0,0-.11,2.09V17H8L3,22H6l4.5-5h3L19,22h3ZM8.26,5.36C8.32,4.72,8.86,4,9.5,4h5c.64,0,1.18.73,1.24,1.37l.61,4.78c0,.28.06.57.07.86H7.58c0-.29,0-.58.07-.86ZM12,15.5A1.5,1.5,0,1,1,13.5,14,1.5,1.5,0,0,1,12,15.5Z"/></g></g></g></svg>