<svg xmlns="http://www.w3.org/2000/svg" width="24" height="24" viewBox="0 0 24 24"><rect width="24" height="24" style="fill:none"/><path d="M22,13.45v2c-.37,0-.52.12-.89.48a3.09,3.09,0,0,1-2.28,1,3,3,0,0,1-2.28-1c-.37-.36-.52-.48-.89-.48s-.52.12-.89.48a3,3,0,0,1-4.55,0c-.38-.36-.52-.48-.89-.48s-.52.12-.89.48a3,3,0,0,1-4.55,0c-.37-.36-.52-.48-.89-.48v-2a3.08,3.08,0,0,1,2.27,1c.38.36.52.48.89.48s.52-.12.89-.48a4.14,4.14,0,0,1,1-.73V6A2,2,0,0,0,6,4H5V2l8,0a4,4,0,0,1,4,4v7.77a4.17,4.17,0,0,1,.93.72c.38.36.53.48.9.48s.52-.12.89-.48A3.08,3.08,0,0,1,22,13.45Zm0,7v-2c-.37,0-.52.12-.89.48a3.09,3.09,0,0,1-2.28,1,3,3,0,0,1-2.28-1c-.37-.36-.52-.48-.89-.48s-.52.12-.89.48a3,3,0,0,1-4.55,0c-.38-.36-.52-.48-.89-.48s-.52.12-.89.48a3,3,0,0,1-4.55,0c-.37-.36-.52-.48-.89-.48v2.37A4.8,4.8,0,0,0,6.16,22a4.81,4.81,0,0,0,3.17-1.15A4.75,4.75,0,0,0,12.49,22a4.81,4.81,0,0,0,3.17-1.15,4.94,4.94,0,0,0,6.34,0Z" style="fill:#231f20"/></svg>