<svg width="24" height="24" viewBox="0 0 24 24" fill="none" xmlns="http://www.w3.org/2000/svg">
<path d="M22 13.45V15.45C21.63 15.45 21.48 15.57 21.11 15.93C20.8201 16.2457 20.4677 16.4976 20.0752 16.6698C19.6827 16.8419 19.2586 16.9306 18.83 16.93C18.4005 16.9362 17.9747 16.8502 17.5814 16.6777C17.188 16.5052 16.8363 16.2502 16.55 15.93C16.18 15.57 16.03 15.45 15.66 15.45C15.29 15.45 15.14 15.57 14.77 15.93C14.4884 16.2576 14.1393 16.5206 13.7466 16.7008C13.354 16.8811 12.927 16.9744 12.495 16.9744C12.063 16.9744 11.636 16.8811 11.2434 16.7008C10.8507 16.5206 10.5016 16.2576 10.22 15.93C9.84 15.57 9.7 15.45 9.33 15.45C8.96 15.45 8.81 15.57 8.44 15.93C8.15836 16.2576 7.80928 16.5206 7.41664 16.7008C7.02399 16.8811 6.59704 16.9744 6.165 16.9744C5.73296 16.9744 5.30601 16.8811 4.91336 16.7008C4.52072 16.5206 4.17164 16.2576 3.89 15.93C3.52 15.57 3.37 15.45 3 15.45V13.45C3.42702 13.4502 3.84934 13.5392 4.24012 13.7114C4.6309 13.8835 4.98162 14.1351 5.27 14.45C5.65 14.81 5.79 14.93 6.16 14.93C6.53 14.93 6.68 14.81 7.05 14.45C7.34486 14.1579 7.68196 13.9118 8.05 13.72V6C8.05008 5.7331 7.99674 5.46887 7.89312 5.22291C7.7895 4.97694 7.63769 4.7542 7.44665 4.56781C7.2556 4.38143 7.02918 4.23516 6.78073 4.13765C6.53228 4.04013 6.26682 3.99333 6 4H5V2H13C14.0609 2 15.0783 2.42143 15.8284 3.17157C16.5786 3.92172 17 4.93913 17 6V13.77C17.3425 13.9649 17.6556 14.2073 17.93 14.49C18.31 14.85 18.46 14.97 18.83 14.97C19.2 14.97 19.35 14.85 19.72 14.49C20.0059 14.1665 20.3567 13.9068 20.7494 13.7276C21.1422 13.5485 21.5683 13.4539 22 13.45ZM22 20.45V18.45C21.63 18.45 21.48 18.57 21.11 18.93C20.8201 19.2457 20.4677 19.4976 20.0752 19.6698C19.6827 19.8419 19.2586 19.9306 18.83 19.93C18.4005 19.9362 17.9747 19.8502 17.5814 19.6777C17.188 19.5052 16.8363 19.2502 16.55 18.93C16.18 18.57 16.03 18.45 15.66 18.45C15.29 18.45 15.14 18.57 14.77 18.93C14.4884 19.2576 14.1393 19.5206 13.7466 19.7008C13.354 19.8811 12.927 19.9744 12.495 19.9744C12.063 19.9744 11.636 19.8811 11.2434 19.7008C10.8507 19.5206 10.5016 19.2576 10.22 18.93C9.84 18.57 9.7 18.45 9.33 18.45C8.96 18.45 8.81 18.57 8.44 18.93C8.15836 19.2576 7.80928 19.5206 7.41664 19.7008C7.02399 19.8811 6.59704 19.9744 6.165 19.9744C5.73296 19.9744 5.30601 19.8811 4.91336 19.7008C4.52072 19.5206 4.17164 19.2576 3.89 18.93C3.52 18.57 3.37 18.45 3 18.45V20.82C3.87589 21.5827 4.9986 22.0019 6.16 22C7.32082 22.0118 8.44673 21.6033 9.33 20.85C10.2079 21.6058 11.3317 22.0148 12.49 22C13.6508 22.0118 14.7767 21.6033 15.66 20.85C16.5489 21.5937 17.671 22.0012 18.83 22.0012C19.989 22.0012 21.1111 21.5937 22 20.85V20.45Z" fill="#0F1621"/>
</svg>
