<svg width="24" height="24" viewBox="0 0 24 24" fill="none" xmlns="http://www.w3.org/2000/svg">
<path d="M22 7.75001C22.0013 6.99454 21.8535 6.24624 21.565 5.54802C21.2765 4.8498 20.853 4.21541 20.3188 3.68121C19.7846 3.14701 19.1502 2.72352 18.452 2.43502C17.7538 2.14652 17.0055 1.99869 16.25 2.00001H13.62C14.3707 2.69973 14.9694 3.54645 15.3789 4.48749C15.7883 5.42853 15.9998 6.44375 16 7.47001V12H14V7.47001C14 4.63001 12 2.00001 9.09 2.00001H7.5C6.04212 2.00265 4.64471 2.58296 3.61383 3.61384C2.58295 4.64472 2.00264 6.04213 2 7.50001C2 8.28001 2 16.5 2 16.5C2.00788 17.9563 2.58987 19.3506 3.61962 20.3804C4.64937 21.4101 6.04374 21.9921 7.5 22H8V19C7.42688 18.9923 6.87336 18.7903 6.43007 18.4269C5.98679 18.0636 5.68002 17.5605 5.56 17C5.485 16.6774 5.4751 16.3431 5.53088 16.0167C5.58667 15.6902 5.70701 15.3782 5.88488 15.0988C6.06274 14.8195 6.29455 14.5784 6.56673 14.3897C6.83891 14.201 7.14599 14.0685 7.47 14L10 13.5V22H14V17L18 17.53V22H21.5L22 8.00001V7.75001ZM6.5 10C6.20333 10 5.91332 9.91204 5.66664 9.74721C5.41997 9.58239 5.22771 9.34812 5.11418 9.07403C5.00065 8.79994 4.97094 8.49834 5.02882 8.20737C5.0867 7.9164 5.22956 7.64913 5.43934 7.43935C5.64912 7.22957 5.91639 7.08671 6.20736 7.02883C6.49834 6.97095 6.79994 7.00066 7.07403 7.11419C7.34811 7.22772 7.58238 7.41998 7.7472 7.66665C7.91203 7.91333 8 8.20334 8 8.50001C8 8.89783 7.84196 9.27936 7.56066 9.56067C7.27936 9.84197 6.89782 10 6.5 10Z" fill="#0F1621"/>
</svg>
