<svg xmlns="http://www.w3.org/2000/svg" viewBox="0 0 24 24"><defs><style>.cls-1{fill:none;opacity:0;}</style></defs><g id="Layer_2" data-name="Layer 2"><g id="Carto_POI_Solid" data-name="Carto POI Solid"><g id="leisure-zoo"><rect class="cls-1" width="24" height="24"/><path d="M22,7.75A5.74,5.74,0,0,0,16.25,2H13.62A7.48,7.48,0,0,1,16,7.47V12H14V7.47C14,4.63,12,2,9.09,2H7.5A5.51,5.51,0,0,0,2,7.5c0,.78,0,9,0,9A5.53,5.53,0,0,0,7.5,22H8V19a2.53,2.53,0,0,1-2.44-2,2.49,2.49,0,0,1,1.91-3L10,13.5V22h4V17l4,.53V22h3.5L22,8ZM6.5,10A1.5,1.5,0,1,1,8,8.5,1.5,1.5,0,0,1,6.5,10Z"/></g></g></g></svg>