<svg xmlns="http://www.w3.org/2000/svg" viewBox="0 0 80 80"><path d="M66.16,27.51c0-.84,0-1.67-.12-2.5H60.4a20.74,20.74,0,0,0-1.34-5.52l4.76-2.75a26.16,26.16,0,0,0-2.51-4.32L56.66,15.1a20.52,20.52,0,0,0-4-4.2l2.62-4.54a26.5,26.5,0,0,0-4.33-2.5L48.37,8.3a20.6,20.6,0,0,0-5.71-1.61V1.64c-.82-.08-1.65-.13-2.5-.13s-1.67.05-2.5.13v5a20.41,20.41,0,0,0-5.77,1.54l-2.5-4.32a26.16,26.16,0,0,0-4.32,2.51l2.51,4.36A20.55,20.55,0,0,0,23.44,15L19,12.42a26.16,26.16,0,0,0-2.51,4.32L21,19.34A20.23,20.23,0,0,0,19.6,25H14.29c-.08.83-.13,1.66-.13,2.5s.05,1.68.13,2.5h5.46a20.1,20.1,0,0,0,1.61,5.47l-4.85,2.8A25.84,25.84,0,0,0,19,42.61L24,39.75a20.62,20.62,0,0,0,4,3.83l-2.93,5.08a26.16,26.16,0,0,0,4.32,2.51l3-5.16A20.43,20.43,0,0,0,60.25,30H66C66.12,29.19,66.16,28.36,66.16,27.51ZM40,42.5A15.5,15.5,0,1,1,55.5,27,15.51,15.51,0,0,1,40,42.5Z" style="fill:#d1def4;opacity:0.35000000000000003"/><path d="M37,36H33.38V22.12l-3.84,2.36L27.92,22l5.83-3.51H37ZM50.65,23.1c0,2.84-1.54,4.94-7,10H51L50.62,36H39.47V33.32c6-5.95,7.38-7.56,7.38-9.9A2.24,2.24,0,0,0,44.46,21a4,4,0,0,0-3.3,1.84L39,21.08a7,7,0,0,1,5.85-2.94C48.54,18.14,50.65,20.37,50.65,23.1ZM66.89,33.36l.36,12.58-.23.23-6.29-6.29a4.9,4.9,0,0,1-1.17-5.22A21,21,0,1,0,33.55,47,5,5,0,0,1,37,51.74V80h6V51.74a11,11,0,0,0-7.61-10.46,15,15,0,0,1,2.89-29.19A15,15,0,0,1,54,32.47a10.89,10.89,0,0,0,2.52,11.65l6.12,6.12-12.25-.35L50,56H73V33Z" style="fill:#fff"/></svg>