<svg xmlns="http://www.w3.org/2000/svg" viewBox="0 0 80 80"><path d="M65.88,29.5c.08-.82.12-1.66.12-2.5s0-1.68-.12-2.5H60.33a20.42,20.42,0,0,0-4.19-10.1l3.92-3.92a25.75,25.75,0,0,0-3.54-3.54L52.6,10.86A20.42,20.42,0,0,0,42.5,6.67V1.12C41.68,1,40.84,1,40,1s-1.68,0-2.5.12V6.67a20.42,20.42,0,0,0-10.1,4.19L23.48,6.94a25.75,25.75,0,0,0-3.54,3.54l3.92,3.92a20.42,20.42,0,0,0-4.19,10.1H14.12C14,25.32,14,26.16,14,27s0,1.68.12,2.5h5.55A20.45,20.45,0,0,0,52.6,43.14l3.92,3.92a25.75,25.75,0,0,0,3.54-3.54L56.14,39.6a20.42,20.42,0,0,0,4.19-10.1ZM40,42.5A15.5,15.5,0,1,1,55.5,27,15.51,15.51,0,0,1,40,42.5Z" style="fill:#d1def4;opacity:0.35000000000000003"/><path d="M46,21,39.56,36.39l-3.35-1.12,6-14H35v-2.8H46Zm14.86,3.6A21,21,0,1,0,20.44,34.67a4.89,4.89,0,0,1-1.17,5.21L13,46.17l-.23-.23.36-12.58L7,33V56H30l-.36-6.11-12.25.35,6.12-6.12A10.89,10.89,0,0,0,26,32.47a15,15,0,1,1,18.58,8.81A11,11,0,0,0,37,51.74V80h6V51.74A5,5,0,0,1,46.45,47,21.13,21.13,0,0,0,60.87,24.62Z" style="fill:#fff"/></svg>