<svg xmlns="http://www.w3.org/2000/svg" viewBox="0 0 80 80"><path d="M60.5,33a20.36,20.36,0,0,0-1.63-8l4.78-2.76a25.51,25.51,0,0,0-2.5-4.33l-4.81,2.78a20.46,20.46,0,0,0-13.84-8V7.12C41.68,7,40.84,7,40,7s-1.68,0-2.5.12v5.55A20.49,20.49,0,1,0,56.34,45.32l4.81,2.78a25.51,25.51,0,0,0,2.5-4.33L58.87,41A20.36,20.36,0,0,0,60.5,33ZM40,48.5A15.5,15.5,0,1,1,55.5,33,15.51,15.51,0,0,1,40,48.5Z" style="fill:#d1def4;opacity:0.35000000000000003"/><path d="M46.43,38.1h-2V42H40.79l0-3.9H33.35V35.6l5-11.51,3.12,1.17-4.35,10h3.64L41.2,31h3.18v4.29h2Zm14.44-7.51A21,21,0,0,0,30.33,14.35a4.93,4.93,0,0,1-5.7-1L18,6.79l0,0,12.58.36L31,1H8V24l6.11-.36-.36-12.58,0,0,6.6,6.6A10.86,10.86,0,0,0,33.1,19.68a15,15,0,1,1,11.51,27.6A11,11,0,0,0,37,57.74V80h6V57.74A5,5,0,0,1,46.45,53,21.12,21.12,0,0,0,60.87,30.59Z" style="fill:#fff"/></svg>