<svg xmlns="http://www.w3.org/2000/svg" viewBox="0 0 80 80"><path d="M65.71,30c.08-.82.13-1.65.13-2.5s0-1.67-.13-2.5H60.4A20.23,20.23,0,0,0,59,19.34l4.49-2.6A26.16,26.16,0,0,0,61,12.42L56.56,15a20.55,20.55,0,0,0-4.14-4.24l2.51-4.36a26.16,26.16,0,0,0-4.32-2.51l-2.5,4.32a20.41,20.41,0,0,0-5.77-1.54v-5c-.83-.08-1.66-.13-2.5-.13s-1.68.05-2.5.13V6.69A20.6,20.6,0,0,0,31.63,8.3L29.07,3.86a26.5,26.5,0,0,0-4.33,2.5l2.62,4.54a20.52,20.52,0,0,0-4,4.2l-4.65-2.68a26.16,26.16,0,0,0-2.51,4.32l4.76,2.75A20.74,20.74,0,0,0,19.6,25H14c-.08.83-.12,1.66-.12,2.5s0,1.68.12,2.5h5.79A20.43,20.43,0,0,0,47.63,46l3,5.16a26.16,26.16,0,0,0,4.32-2.51L52,43.58a20.62,20.62,0,0,0,4-3.83L61,42.61a25.84,25.84,0,0,0,2.51-4.33l-4.85-2.8A20.1,20.1,0,0,0,60.25,30ZM40,42.5A15.5,15.5,0,1,1,55.5,27,15.51,15.51,0,0,1,40,42.5Z" style="fill:#d1def4;opacity:0.35000000000000003"/><path d="M37.09,36H33.47V22.12l-3.85,2.36L28,22l5.83-3.51h3.25ZM50.74,23.1c0,2.84-1.54,4.94-7,10h7.36L50.71,36H39.56V33.32c5.95-5.95,7.38-7.56,7.38-9.9A2.24,2.24,0,0,0,44.55,21a4,4,0,0,0-3.3,1.84L39,21.08a7,7,0,0,1,5.85-2.94C48.63,18.14,50.74,20.37,50.74,23.1Zm10.13,1.52A21,21,0,1,0,20.44,34.67a4.89,4.89,0,0,1-1.17,5.21L13,46.17l-.23-.23.36-12.58L7,33V56H30l-.36-6.11-12.25.35,6.12-6.12A10.89,10.89,0,0,0,26,32.47a15,15,0,1,1,18.58,8.81A11,11,0,0,0,37,51.74V80h6V51.74A5,5,0,0,1,46.45,47,21.13,21.13,0,0,0,60.87,24.62Z" style="fill:#fff"/></svg>