<?xml version="1.0" encoding="iso-8859-1"?>
<!-- Generator: Adobe Illustrator 24.1.2, SVG Export Plug-In . SVG Version: 6.00 Build 0)  -->
<svg version="1.1" id="_x36_00-6000-0000_x5F_shopping-layer"
	 xmlns="http://www.w3.org/2000/svg" xmlns:xlink="http://www.w3.org/1999/xlink" x="0px" y="0px" viewBox="0 0 24 24"
	 style="enable-background:new 0 0 24 24;" xml:space="preserve">
<g id="_x36_00-6000-0000_x5F_shopping">
	<rect style="fill:none;" width="24" height="24"/>
	<path d="M19.852,10l-0.714,10H4.862L4.148,10H19.852 M22,8H2l0.867,12.143C2.942,21.189,3.813,22,4.862,22h14.276
		c1.049,0,1.92-0.811,1.995-1.857L22,8L22,8z M14,2h-4C8.34,2,7,3.34,7,5v1h2V5c0-0.55,0.45-1,1-1h4c0.55,0,1,0.45,1,1v1h2V5
		C17,3.34,15.66,2,14,2z"/>
</g>
</svg>
