<svg xmlns="http://www.w3.org/2000/svg" viewBox="0 0 24 24"><defs><style>.cls-1{fill:none;}</style></defs><g id="Layer_2" data-name="Layer 2"><g id="UI_Outline" data-name="UI Outline"><g id="camera"><rect id="_Rectangle_" data-name="&lt;Rectangle&gt;" class="cls-1" width="24" height="24"/><path d="M11,6V4H4V6H2V18a3,3,0,0,0,3,3H19a3,3,0,0,0,3-3V6Zm9,12a1,1,0,0,1-1,1H5a1,1,0,0,1-1-1V8H6V6H9V8H20ZM6,12V10H9v2Zm8-2a4,4,0,1,0,4,4A4,4,0,0,0,14,10Zm0,6a2,2,0,1,1,2-2A2,2,0,0,1,14,16Z"/></g></g></g></svg>