<svg xmlns="http://www.w3.org/2000/svg" width="24" height="24" viewBox="0 0 24 24"><rect width="24" height="24" style="fill:none"/><path d="M8.5,7A1.5,1.5,0,1,0,10,8.5,1.5,1.5,0,0,0,8.5,7ZM19,9.24V20H4V5H14.76l2-2H2V20a2,2,0,0,0,2,2H19a2,2,0,0,0,2-2V7.24ZM15.18,7.41,14.62,8.8a.49.49,0,0,0,.58.58l1.39-.56,2.58-2.58L17.76,4.83Zm6.47-4.35-.71-.71a.51.51,0,0,0-.71,0L19.17,3.41l1.42,1.42,1.06-1.06A.51.51,0,0,0,21.65,3.06Zm-5.76,7.49a1,1,0,0,0-1.78,0L12,15l-1.37-1.41a2,2,0,0,0-3,.21L6,16v2H8V16.64L9.19,15l1.37,1.41A2,2,0,0,0,12,17h0a2,2,0,0,0,1.81-1.15L15,13.34l1,2.11V18h2V15Z"/></svg>