<svg width="24" height="24" viewBox="0 0 24 24" fill="none" xmlns="http://www.w3.org/2000/svg">
<path d="M17 15.25V18H6V16.17L7.48 14.17C7.637 13.9597 7.83741 13.7855 8.06763 13.6595C8.29786 13.5334 8.55251 13.4583 8.8143 13.4394C9.0761 13.4204 9.33891 13.458 9.5849 13.5495C9.8309 13.6411 10.0543 13.7845 10.24 13.97L11.5 15.27L13.43 11.19C13.507 11.0387 13.6243 10.9116 13.769 10.8229C13.9138 10.7341 14.0802 10.6871 14.25 10.6871C14.4198 10.6871 14.5862 10.7341 14.731 10.8229C14.8757 10.9116 14.993 11.0387 15.07 11.19L17 15.25ZM8.5 7.00001C8.20333 7.00001 7.91332 7.08799 7.66664 7.25281C7.41997 7.41763 7.22771 7.6519 7.11418 7.92599C7.00065 8.20008 6.97094 8.50168 7.02882 8.79265C7.0867 9.08362 7.22956 9.3509 7.43934 9.56067C7.64912 9.77045 7.91639 9.91331 8.20736 9.97119C8.49834 10.0291 8.79994 9.99937 9.07403 9.88583C9.34811 9.7723 9.58238 9.58004 9.7472 9.33337C9.91203 9.0867 10 8.79669 10 8.50001C10 8.10219 9.84196 7.72066 9.56066 7.43935C9.27936 7.15805 8.89782 7.00001 8.5 7.00001ZM19 9.24001V20H4V5.00001H14.76L16.76 3.00001H2V20C2 20.5304 2.21071 21.0392 2.58579 21.4142C2.96086 21.7893 3.46957 22 4 22H19C19.5304 22 20.0391 21.7893 20.4142 21.4142C20.7893 21.0392 21 20.5304 21 20V7.24001L19 9.24001ZM15.18 7.41001L14.62 8.80001C14.6033 8.8797 14.6068 8.96228 14.63 9.0403C14.6532 9.11832 14.6956 9.18933 14.7531 9.24689C14.8107 9.30446 14.8817 9.34677 14.9597 9.37002C15.0377 9.39326 15.1203 9.39669 15.2 9.38001L16.59 8.82001L19.17 6.24001L17.76 4.83001L15.18 7.41001ZM21.65 3.06001L20.94 2.35001C20.8449 2.25776 20.7175 2.20618 20.585 2.20618C20.4525 2.20618 20.3251 2.25776 20.23 2.35001L19.17 3.41001L20.59 4.83001L21.65 3.77001C21.7422 3.67486 21.7938 3.54754 21.7938 3.41501C21.7938 3.28249 21.7422 3.15516 21.65 3.06001Z" fill="#0F1621"/>
</svg>
