<svg width="16" height="16" viewBox="0 0 16 16" fill="none" xmlns="http://www.w3.org/2000/svg">
<path d="M5 8.99999H6.67L8 6.99999C8.11206 6.88827 8.24903 6.80473 8.39965 6.75625C8.55028 6.70777 8.71026 6.69572 8.86644 6.7211C9.02263 6.74648 9.17057 6.80856 9.29809 6.90224C9.42561 6.99593 9.52909 7.11853 9.6 7.25999L11 8.99999V11H5V8.99999ZM7 5.99999C7 5.80221 6.94135 5.60887 6.83147 5.44442C6.72159 5.27997 6.56541 5.1518 6.38268 5.07611C6.19996 5.00042 5.99889 4.98062 5.80491 5.0192C5.61093 5.05779 5.43275 5.15303 5.29289 5.29288C5.15304 5.43273 5.0578 5.61092 5.01921 5.8049C4.98063 5.99888 5.00043 6.19995 5.07612 6.38267C5.15181 6.5654 5.27998 6.72158 5.44443 6.83146C5.60888 6.94134 5.80222 6.99999 6 6.99999C6.26522 6.99999 6.51957 6.89463 6.70711 6.7071C6.89464 6.51956 7 6.26521 7 5.99999ZM13 6.50999V13H3V3.99999H8.39L10.39 1.99999H1V13C1 13.5304 1.21071 14.0391 1.58579 14.4142C1.96086 14.7893 2.46957 15 3 15H13C13.5304 15 14.0391 14.7893 14.4142 14.4142C14.7893 14.0391 15 13.5304 15 13V4.50999L13 6.50999ZM10 4.57999V5.99999H11.41L13.69 3.71999L12.28 2.30999L10 4.57999ZM14.87 2.18999L13.81 1.12999C13.7876 1.10607 13.7604 1.08701 13.7303 1.07398C13.7002 1.06095 13.6678 1.05423 13.635 1.05423C13.6022 1.05423 13.5698 1.06095 13.5397 1.07398C13.5096 1.08701 13.4824 1.10607 13.46 1.12999L12.93 1.65999L14.34 3.06999L14.87 2.53999C14.8939 2.51754 14.913 2.49044 14.926 2.46034C14.939 2.43024 14.9458 2.39779 14.9458 2.36499C14.9458 2.33219 14.939 2.29974 14.926 2.26964C14.913 2.23954 14.8939 2.21243 14.87 2.18999Z" fill="#0F1621"/>
</svg>
