<svg xmlns="http://www.w3.org/2000/svg" viewBox="0 0 24 24"><defs><style>.cls-1{fill:none;}</style></defs><g id="Layer_2" data-name="Layer 2"><g id="UI_Outline" data-name="UI Outline"><g id="heart"><rect class="cls-1" width="24" height="24"/><path d="M16.5,5A3.36,3.36,0,0,1,20,8.38a4.15,4.15,0,0,1-.51,1.92,15.28,15.28,0,0,1-3,3.63c-.23.23-1,.92-1.8,1.72L12,18.2,9.31,15.65c-.84-.8-1.57-1.49-1.8-1.72a15.28,15.28,0,0,1-3-3.63A4.15,4.15,0,0,1,4,8.38,3.36,3.36,0,0,1,7.5,5a4.05,4.05,0,0,1,2.14.64l1,.91L12,7.7l1.32-1.15,1-.91A4.05,4.05,0,0,1,16.5,5m0-2a6.14,6.14,0,0,0-3.36,1L12,5,10.86,4A6.14,6.14,0,0,0,7.5,3,5.35,5.35,0,0,0,2,8.38a6,6,0,0,0,.74,2.84,16.78,16.78,0,0,0,3.37,4.14c.58.57,4.06,3.84,5.18,4.94L12,21l.71-.7c1.12-1.1,4.6-4.37,5.18-4.94a16.78,16.78,0,0,0,3.37-4.14A6,6,0,0,0,22,8.38,5.35,5.35,0,0,0,16.5,3Z"/></g></g></g></svg>