<svg xmlns="http://www.w3.org/2000/svg" viewBox="0 0 24 24"><defs><style>.cls-1{fill:none;}</style></defs><g id="Layer_2" data-name="Layer 2"><g id="UI_Solid" data-name="UI Solid"><g id="live"><rect class="cls-1" width="24" height="24"/><path d="M14,12a2,2,0,1,1-2-2A2,2,0,0,1,14,12Zm4,0a5.94,5.94,0,0,1-1.76,4.24l-1.41-1.41a4,4,0,0,0,0-5.66l1.41-1.41A5.94,5.94,0,0,1,18,12ZM9.17,9.17a4,4,0,0,0,0,5.66L7.76,16.24a6,6,0,0,1,0-8.48ZM22,12a10,10,0,0,1-2.93,7.07l-1.42-1.42a8,8,0,0,0,0-11.3l1.42-1.42A10,10,0,0,1,22,12ZM6.35,6.35a8,8,0,0,0,0,11.3L4.93,19.07a10,10,0,0,1,0-14.14Z"/></g></g></g></svg>