<svg width="16" height="16" viewBox="0 0 16 16" fill="none" xmlns="http://www.w3.org/2000/svg">
<path d="M9.50002 8C9.50002 8.29667 9.41204 8.58668 9.24722 8.83336C9.0824 9.08003 8.84813 9.27229 8.57404 9.38582C8.29995 9.49935 7.99835 9.52906 7.70738 9.47118C7.41641 9.4133 7.14914 9.27044 6.93936 9.06066C6.72958 8.85088 6.58672 8.58361 6.52884 8.29264C6.47096 8.00167 6.50067 7.70007 6.6142 7.42598C6.72773 7.15189 6.91999 6.91762 7.16666 6.7528C7.41333 6.58798 7.70334 6.5 8.00002 6.5C8.39784 6.5 8.77937 6.65804 9.06068 6.93934C9.34198 7.22065 9.50002 7.60218 9.50002 8ZM13 8C13.0004 8.52545 12.8973 9.04582 12.6966 9.5314C12.4958 10.017 12.2014 10.4583 11.83 10.83L11.12 10.12C11.6818 9.5575 11.9974 8.79501 11.9974 8C11.9974 7.205 11.6818 6.4425 11.12 5.88L11.83 5.17C12.2014 5.54175 12.4958 5.98302 12.6966 6.4686C12.8973 6.95419 13.0004 7.47456 13 8ZM4.88002 5.88C4.31821 6.4425 4.00266 7.205 4.00266 8C4.00266 8.79501 4.31821 9.5575 4.88002 10.12L4.17002 10.83C3.79811 10.4585 3.50308 10.0174 3.30178 9.53176C3.10048 9.04617 2.99687 8.52566 2.99687 8C2.99687 7.47434 3.10048 6.95383 3.30178 6.46824C3.50308 5.98265 3.79811 5.5415 4.17002 5.17L4.88002 5.88ZM15 8C15.0133 8.92419 14.8433 9.84185 14.5001 10.7C14.1568 11.5582 13.647 12.3399 13 13L12.29 12.29C13.4136 11.165 14.0447 9.64001 14.0447 8.05C14.0447 6.46 13.4136 4.93501 12.29 3.81L13 3.05C14.2944 4.371 15.0134 6.15058 15 8ZM3.76002 3.76C2.63641 4.88501 2.0053 6.41 2.0053 8C2.0053 9.59001 2.63641 11.115 3.76002 12.24L3.05002 13C2.39993 12.35 1.88425 11.5783 1.53242 10.729C1.1806 9.87963 0.999512 8.96932 0.999512 8.05C0.999512 7.13069 1.1806 6.22038 1.53242 5.37105C1.88425 4.52173 2.39993 3.75002 3.05002 3.1L3.76002 3.76Z" fill="#0F1621"/>
</svg>
