<svg width="24" height="24" viewBox="0 0 24 24" fill="none" xmlns="http://www.w3.org/2000/svg">
<path d="M20 4V20H4V4H20ZM12 19C13.3845 19 14.7378 18.5895 15.889 17.8203C17.0401 17.0511 17.9373 15.9579 18.4672 14.6788C18.997 13.3997 19.1356 11.9922 18.8655 10.6344C18.5954 9.2765 17.9287 8.02922 16.9497 7.05025C15.9708 6.07128 14.7235 5.4046 13.3656 5.1345C12.0078 4.86441 10.6003 5.00303 9.32122 5.53284C8.04213 6.06266 6.94888 6.95986 6.17971 8.11101C5.41054 9.26215 5 10.6155 5 12C5 13.8565 5.7375 15.637 7.05025 16.9497C8.36301 18.2625 10.1435 19 12 19ZM20 2H4C3.46957 2 2.96086 2.21071 2.58579 2.58579C2.21071 2.96086 2 3.46957 2 4V20C2 20.5304 2.21071 21.0391 2.58579 21.4142C2.96086 21.7893 3.46957 22 4 22H20C20.5304 22 21.0391 21.7893 21.4142 21.4142C21.7893 21.0391 22 20.5304 22 20V4C22 3.46957 21.7893 2.96086 21.4142 2.58579C21.0391 2.21071 20.5304 2 20 2ZM12 17C11.0111 17 10.0444 16.7068 9.22215 16.1573C8.3999 15.6079 7.75904 14.827 7.3806 13.9134C7.00216 12.9998 6.90315 11.9945 7.09607 11.0245C7.289 10.0546 7.7652 9.16373 8.46447 8.46447C9.16373 7.7652 10.0546 7.289 11.0245 7.09607C11.9945 6.90315 12.9998 7.00216 13.9134 7.3806C14.827 7.75904 15.6079 8.3999 16.1573 9.22215C16.7068 10.0444 17 11.0111 17 12C17 13.3261 16.4732 14.5979 15.5355 15.5355C14.5979 16.4732 13.3261 17 12 17Z" fill="#0F1621"/>
</svg>
