<svg xmlns="http://www.w3.org/2000/svg" viewBox="0 0 16 16"><defs><style>.cls-1{fill:none;}</style></defs><g id="Layer_2" data-name="Layer 2"><g id="UI_System_16" data-name="UI System 16"><g id="star"><rect class="cls-1" width="16" height="16"/><path d="M5.91,5.89,7.17,1.61A.86.86,0,0,1,7.74,1a.87.87,0,0,1,1.09.57l1.26,4.28h4a.89.89,0,0,1,.72.37.87.87,0,0,1-.21,1.22L11.48,9.39l1.28,4.47a.87.87,0,0,1-1.35,1L8,12.2,4.57,14.83a.87.87,0,0,1-1.35-1l1.3-4.47L1.37,7.48A.79.79,0,0,1,1,6.77a.87.87,0,0,1,.87-.88Z"/></g></g></g></svg>