<svg width="24" height="24" viewBox="0 0 24 24" fill="none" xmlns="http://www.w3.org/2000/svg">
<path d="M9 8.99999L10.8 2.88999C10.8584 2.69899 10.9628 2.52524 11.104 2.38401C11.2452 2.24278 11.419 2.13839 11.61 2.07999C11.9256 1.97943 12.2682 2.00825 12.5626 2.16013C12.857 2.312 13.079 2.57451 13.18 2.88999L15 8.99999H20.76C20.9563 9.00501 21.1488 9.05548 21.3223 9.14744C21.4958 9.2394 21.6456 9.37035 21.76 9.52999C21.8557 9.66355 21.9238 9.81478 21.9605 9.9749C21.9973 10.135 22.0018 10.3008 21.9739 10.4627C21.946 10.6246 21.8862 10.7794 21.7979 10.9179C21.7097 11.0565 21.5949 11.1762 21.46 11.27L17 14L18.83 20.37C18.8929 20.5573 18.9094 20.7571 18.8781 20.9522C18.8467 21.1473 18.7685 21.3318 18.65 21.49C18.5539 21.6225 18.4325 21.7347 18.2929 21.8201C18.1532 21.9055 17.998 21.9624 17.8362 21.9875C17.6745 22.0126 17.5093 22.0054 17.3504 21.9663C17.1914 21.9273 17.0417 21.8572 16.91 21.76L12 18L7.1 21.76C6.88688 21.9124 6.63127 21.9939 6.36929 21.9931C6.10731 21.9924 5.85219 21.9093 5.63998 21.7557C5.42777 21.602 5.2692 21.3856 5.18666 21.137C5.10412 20.8883 5.10179 20.62 5.18 20.37L7 14L2.5 11.27C2.33081 11.1654 2.19254 11.0176 2.09939 10.8419C2.00624 10.6661 1.96158 10.4687 1.97 10.27C1.96725 10.1016 1.99856 9.93441 2.06205 9.77843C2.12553 9.62244 2.21987 9.4809 2.33942 9.36229C2.45897 9.24367 2.60125 9.15044 2.75772 9.08818C2.9142 9.02593 3.08164 8.99593 3.25 8.99999H9Z" fill="#0F1621"/>
</svg>
