<svg width="16" height="16" viewBox="0 0 16 16" fill="none" xmlns="http://www.w3.org/2000/svg">
<path d="M7.99998 4.44L8.99998 7.51H12.23L9.60998 9.41L10.61 12.48L7.99998 10.59L5.38998 12.48L6.38998 9.41L3.76998 7.51H6.99998L7.99998 4.44ZM7.99998 1.58C7.81262 1.57628 7.62918 1.63385 7.47755 1.74396C7.32593 1.85407 7.21441 2.01069 7.15998 2.19L5.90998 6H1.90998C1.7223 6.00067 1.53964 6.06065 1.3881 6.17136C1.23656 6.28208 1.12389 6.43787 1.06621 6.61646C1.00853 6.79505 1.00878 6.98731 1.06693 7.16575C1.12508 7.34419 1.23815 7.49968 1.38998 7.61L4.61998 10L3.37998 13.81C3.33392 13.9453 3.32076 14.0896 3.34156 14.231C3.36236 14.3724 3.41654 14.5068 3.49961 14.6231C3.58268 14.7394 3.69226 14.8343 3.81926 14.8998C3.94627 14.9653 4.08706 14.9997 4.22998 15C4.41773 14.9951 4.59937 14.9322 4.74998 14.82L7.99998 12.44L11.25 14.8C11.4006 14.9122 11.5822 14.9751 11.77 14.98C11.9106 14.9787 12.0489 14.9444 12.1738 14.88C12.2988 14.8156 12.4069 14.7228 12.4896 14.609C12.5722 14.4953 12.627 14.3638 12.6497 14.225C12.6723 14.0863 12.6622 13.9441 12.62 13.81L11.38 10L14.63 7.63C14.7907 7.52277 14.9122 7.36615 14.9761 7.18378C15.0399 7.00141 15.0427 6.80321 14.984 6.61913C14.9253 6.43504 14.8082 6.27507 14.6505 6.16337C14.4929 6.05168 14.3031 5.99434 14.11 6H10.11L8.83998 2.19C8.78554 2.01069 8.67403 1.85407 8.5224 1.74396C8.37077 1.63385 8.18733 1.57628 7.99998 1.58Z" fill="#0F1621"/>
</svg>
