<svg xmlns="http://www.w3.org/2000/svg" viewBox="0 0 24 24"><defs><style>.cls-1{fill:none;}</style></defs><g id="Layer_2" data-name="Layer 2"><g id="UI_Solid" data-name="UI Solid"><g id="tag-hearted"><rect class="cls-1" width="24" height="24"/><path d="M18.55,16.51,16,19.06l-2.55-2.55A1.48,1.48,0,0,1,13,15.44a1.5,1.5,0,0,1,1.5-1.5,1.61,1.61,0,0,1,1.5,1,1.58,1.58,0,0,1,1.5-1,1.5,1.5,0,0,1,1.5,1.5A1.48,1.48,0,0,1,18.55,16.51Zm-3.12,4.81-.1.09a2,2,0,0,1-2.83,0L2,11V2h9l8.46,8.53L18,12a4.4,4.4,0,0,0-.51-.05,3.61,3.61,0,0,0-1.5.32,3.61,3.61,0,0,0-1.5-.32,3.5,3.5,0,0,0-3.5,3.5,3.43,3.43,0,0,0,1.05,2.49Zm-6-14L7.33,5.19,5.21,7.31,7.33,9.43Z"/></g></g></g></svg>