<svg width="24" height="24" viewBox="0 0 24 24" fill="none" xmlns="http://www.w3.org/2000/svg">
<path d="M18.55 16.51L16 19.06L13.45 16.51C13.3068 16.3712 13.1931 16.2048 13.1157 16.021C13.0384 15.8371 12.999 15.6395 13 15.44C13 15.0422 13.158 14.6606 13.4393 14.3793C13.7206 14.098 14.1022 13.94 14.5 13.94C14.8213 13.938 15.1358 14.0322 15.4031 14.2104C15.6704 14.3886 15.8783 14.6427 16 14.94C16.1182 14.6402 16.3253 14.3838 16.5934 14.2051C16.8615 14.0263 17.1778 13.9338 17.5 13.94C17.8978 13.94 18.2794 14.098 18.5607 14.3793C18.842 14.6606 19 15.0422 19 15.44C19.001 15.6395 18.9616 15.8371 18.8843 16.021C18.8069 16.2048 18.6932 16.3712 18.55 16.51ZM10.17 4H4V10.17L13 19.17L15.29 21.47C14.9153 21.8425 14.4084 22.0516 13.88 22.0516C13.3516 22.0516 12.8447 21.8425 12.47 21.47L2 11V2H11L19.45 10.5L18 11.92L10.17 4ZM5.17 7.31L7.33 5.19L9.45 7.31L7.33 9.43L5.17 7.31Z" fill="#0F1621"/>
</svg>
