<svg xmlns="http://www.w3.org/2000/svg" viewBox="0 0 24 24"><defs><style>.cls-1{fill:none;}</style></defs><g id="Layer_2" data-name="Layer 2"><g id="System_UI_Outline" data-name="System UI Outline"><g id="tag-hearted"><rect class="cls-1" width="24" height="24"/><path d="M18.55,16.51,16,19.06l-2.55-2.55A1.48,1.48,0,0,1,13,15.44a1.5,1.5,0,0,1,1.5-1.5,1.61,1.61,0,0,1,1.5,1,1.58,1.58,0,0,1,1.5-1,1.5,1.5,0,0,1,1.5,1.5A1.48,1.48,0,0,1,18.55,16.51ZM10.17,4H4v6.17l9,9,2.29,2.3a2,2,0,0,1-2.82,0L2,11V2h9l8.45,8.5L18,11.92Zm-5,3.31L7.33,5.19,9.45,7.31,7.33,9.43Z"/></g></g></g></svg>