<svg width="24" height="24" viewBox="0 0 24 24" fill="none" xmlns="http://www.w3.org/2000/svg">
<path d="M18.55 16.51L16 19.06L13.45 16.51C13.3068 16.3712 13.1931 16.2048 13.1157 16.021C13.0384 15.8371 12.999 15.6395 13 15.44C13 15.0422 13.158 14.6606 13.4393 14.3793C13.7206 14.098 14.1022 13.94 14.5 13.94C14.8213 13.938 15.1358 14.0322 15.4031 14.2104C15.6704 14.3886 15.8783 14.6427 16 14.94C16.1182 14.6402 16.3253 14.3838 16.5934 14.2051C16.8615 14.0263 17.1778 13.9338 17.5 13.94C17.8978 13.94 18.2794 14.098 18.5607 14.3793C18.842 14.6606 19 15.0422 19 15.44C19.001 15.6395 18.9616 15.8371 18.8843 16.021C18.8069 16.2048 18.6932 16.3712 18.55 16.51ZM15.43 21.32L15.33 21.41C15.1443 21.596 14.9237 21.7435 14.6809 21.8441C14.4381 21.9448 14.1778 21.9966 13.915 21.9966C13.6522 21.9966 13.3919 21.9448 13.1491 21.8441C12.9063 21.7435 12.6857 21.596 12.5 21.41L2 11V2H11L19.46 10.53L18 12C17.8311 11.9734 17.6608 11.9567 17.49 11.95C16.9729 11.948 16.4613 12.0571 15.99 12.27C15.5187 12.0571 15.0071 11.948 14.49 11.95C13.5617 11.95 12.6715 12.3187 12.0151 12.9751C11.3587 13.6315 10.99 14.5217 10.99 15.45C10.9873 15.9145 11.079 16.3747 11.2594 16.8028C11.4399 17.2308 11.7055 17.6177 12.04 17.94L15.43 21.32ZM9.43 7.32L7.33 5.19L5.21 7.31L7.33 9.43L9.43 7.32Z" fill="#0F1621"/>
</svg>
