<svg xmlns="http://www.w3.org/2000/svg" viewBox="0 0 24 24"><g id="Layer_2" data-name="Layer 2"><g id="UI_Solid" data-name="UI Solid"><g id="telephone"><polygon id="_Rectangle_" data-name="&lt;Rectangle&gt;" points="24 0 0 0 0 24 24 24 24 0 24 0" style="fill:none"/><path d="M10,7.81l-.88,2.4a.79.79,0,0,0,.15.43l4.11,4.17a.72.72,0,0,0,.36.13h.08L17.7,13.7l3.67,3.05A1.73,1.73,0,0,1,22,18a2,2,0,0,1-.5,1.46l-1.82,2a1.94,1.94,0,0,1-.46.39L19,22h-.29a11.22,11.22,0,0,1-1.29-.11,18.52,18.52,0,0,1-10-5.51,18,18,0,0,1-5.3-10C2,6,2,5.68,2,5.37V5.12l.11-.22a2.09,2.09,0,0,1,.55-.7L4.78,2.47A2,2,0,0,1,6.26,2a1.78,1.78,0,0,1,1.23.66l3,3.74L10,7.81" style="fill-rule:evenodd"/></g></g></g></svg>