<svg width="16" height="16" viewBox="0 0 16 16" fill="none" xmlns="http://www.w3.org/2000/svg">
<path fill-rule="evenodd" clip-rule="evenodd" d="M14.59 13.25L13 14.84C12.8794 14.9293 12.7381 14.9862 12.5893 15.0055C12.4405 15.0247 12.2893 15.0056 12.15 14.95C9.50409 14.214 7.10624 12.7766 5.21 10.79C3.22334 8.89374 1.78601 6.4959 1.05 3.84999C0.994366 3.71068 0.975269 3.55946 0.994521 3.41069C1.01377 3.26192 1.07074 3.12055 1.16 2.99999L2.75 1.40999C2.8789 1.27444 3.03402 1.16651 3.20593 1.09276C3.37784 1.01902 3.56294 0.980988 3.75 0.980988C3.93706 0.980988 4.12216 1.01902 4.29407 1.09276C4.46597 1.16651 4.62109 1.27444 4.75 1.40999L6.75 3.66999L6.33 5.72999C6.29033 5.8533 6.28618 5.98528 6.31801 6.11084C6.34984 6.2364 6.41638 6.35047 6.51 6.43999L9.56 9.48999C9.64952 9.58361 9.76358 9.65014 9.88914 9.68197C10.0147 9.71381 10.1467 9.70965 10.27 9.66999L12.33 9.30999L14.59 11.31C14.8453 11.5683 14.9884 11.9168 14.9884 12.28C14.9884 12.6431 14.8453 12.9917 14.59 13.25Z" fill="#0F1621"/>
</svg>
