<?xml version="1.0" encoding="iso-8859-1"?>
<!-- Generator: Adobe Illustrator 24.1.2, SVG Export Plug-In . SVG Version: 6.00 Build 0)  -->
<svg version="1.1" id="_x35_50-5510-0202_x5F_park-recreation-area-layer"
	 xmlns="http://www.w3.org/2000/svg" xmlns:xlink="http://www.w3.org/1999/xlink" x="0px" y="0px" viewBox="0 0 24 24"
	 style="enable-background:new 0 0 24 24;" xml:space="preserve">
<g id="_x35_50-5510-0202_x5F_park-recreation-area_2_">
	<rect style="fill:none;" width="24" height="24"/>
	<g>
		<path d="M20,2H4C2.9,2,2,2.9,2,4v18h2V4h2v13h3v3h2v-3h2v3h2v-3h3V4h2v18h2V4C22,2.9,21.1,2,20,2z M16,13.31
			c0-1.28-1.03-2.31-2.31-2.31h-3.38C9.03,11,8,12.03,8,13.31V4h8V13.31z M12,10L12,10c-1.105,0-2-0.895-2-2v0c0-1.105,0.895-2,2-2
			h0c1.105,0,2,0.895,2,2v0C14,9.105,13.105,10,12,10z"/>
	</g>
</g>
</svg>
