<svg xmlns="http://www.w3.org/2000/svg" width="24" height="24" viewBox="0 0 24 24">
  <g fill="none" fill-rule="evenodd">
    <rect width="24" height="24"/>
    <path fill="#0F1621" fill-opacity=".95" d="M19.647,18.8 C20.6461667,18.8 21.3159445,18.9714167 21.8558293,19.1802257 L22,19.238 L22,21.382 L21.879,21.329 L21.879,21.329 L21.6040788,21.2014425 C21.1017989,20.9754142 20.5845385,20.8 19.647,20.8 C18.7086154,20.8 18.1919409,20.9754142 17.6892554,21.2014425 L17.140192,21.4559452 C16.53044,21.7318534 15.7936,22 14.543,22 C13.101,22 12.343,21.643 11.674,21.329 L11.3990824,21.2014425 C10.8968225,20.9754142 10.3796923,20.8 9.44299999,20.8 C8.50799999,20.8 7.99184614,20.9754142 7.48984659,21.2008366 L6.94164057,21.4552943 C6.33295553,21.7318534 5.59773331,22 4.34799997,22 C3.3515833,22 2.68287496,21.8294237 2.14391952,21.6207547 L1.99999996,21.563 L1.99999996,19.42 L2.11899996,19.472 L2.11899996,19.472 L2.39345968,19.5991634 C2.89489345,19.8245858 3.41130766,20 4.34799997,20 C5.36892305,20 5.89053252,19.7912426 6.43822847,19.5365389 L6.84935939,19.3447058 C7.45804443,19.0681467 8.19326665,18.8 9.44299999,18.8 C10.7888667,18.8 11.5388933,19.1109867 12.176837,19.4077452 L12.5869176,19.5985576 C13.0891775,19.8245858 13.6063077,20 14.543,20 C15.4813846,20 15.9987752,19.8245858 16.5010751,19.5985576 L17.049808,19.3440548 C17.65956,19.0681467 18.3964,18.8 19.647,18.8 Z M15.498,1.99999996 C16.9037931,1.99999996 17.8546611,3.40486084 17.3740195,4.69525111 L17.317,4.83299997 L15.271,9.39699999 C15.1252222,9.72233332 15.1643333,10.0974444 15.3665611,10.3832716 L15.45,10.486 L20.51,15.946 C20.242,15.92 19.96,15.901 19.647,15.901 C17.9735883,15.901 16.9884533,16.3173322 16.2697397,16.6531075 L16.138,16.715 C15.592,16.972 15.317,17.101 14.544,17.101 C13.9264,17.101 13.62752,17.01844 13.25312,16.853832 L12.6823147,16.5893269 C11.9759377,16.266917 11.0128235,15.901 9.44399999,15.901 C8.57999999,15.901 7.90404937,16.0131975 7.35012892,16.1673594 L7.14799998,16.227 L14.805,3.99999996 L7.81899998,3.99999996 L7.11199998,1.99999996 L15.498,1.99999996 Z M6.46499996,6.99999998 C7.29299998,6.99999998 7.96499996,7.67199998 7.96499996,8.49999998 L8.30799998,10.561 L6.78199998,13 L4.96499996,13 C3.85999997,13 2.96499996,12.104 2.96499996,11 L2.96499996,8.99999998 C2.96499996,7.89599998 3.85999997,6.99999998 4.96499996,6.99999998 L6.46499996,6.99999998 Z"/>
  </g>
</svg>
