<svg xmlns="http://www.w3.org/2000/svg" width="24" height="24" viewBox="0 0 24 24">
  <g fill="none" fill-rule="evenodd">
    <rect width="24" height="24"/>
    <path fill="#0F1621" fill-opacity=".95" d="M17.363,13.566 C17.363,16.819 15.06,18.333 11.828,18.333 L10.313,18.333 L10.313,22 L6.99999998,22 L6.99999998,8.99999999 L11.525,8.99999999 C15.141,8.99999999 17.363,10.496 17.363,13.566 Z M11.484,11.364 C13.121,11.364 13.949,12.072 13.949,13.566 C13.949,15.2563846 13.1085784,15.9001716 11.714881,15.9471931 L11.545,15.95 L10.312,15.95 L10.312,11.364 L11.484,11.364 Z M12,1.99999996 L22,5.55899997 L22,8.42199999 L12,4.84299997 L1.99999996,8.42199999 L1.99999996,5.55899997 L12,1.99999996 Z"/>
  </g>
</svg>
