<svg xmlns="http://www.w3.org/2000/svg" width="24" height="24" viewBox="0 0 24 24">
  <g fill="none" fill-rule="evenodd">
    <rect width="24" height="24"/>
    <path fill="#0F1621" fill-opacity=".95" d="M9.99999996,9.99999999 L9.99999996,11 L9.66999999,11.5 L9.75599999,12 L15.079,12 C14.74588,10.58304 15.7389424,10.0434432 16.4170019,10.0025426 L16.5,9.99999999 L18,9.99999999 L18,11.5 L16.5,11.5 L16.505,11.546 L17.727,14.578 C17.978,14.529 18.235,14.5 18.5,14.5 C20.709,14.5 22.5,16.291 22.5,18.5 C22.5,20.709 20.709,22.5 18.5,22.5 C16.291,22.5 14.5,20.709 14.5,18.5 C14.5,17.1673889 15.1547099,15.9926574 16.1566459,15.2664409 L16.337,15.143 L15.912,14.088 L11,19 L9.44999999,19 C9.20099999,20.97 7.53799998,22.5 5.49999996,22.5 C3.29099996,22.5 1.49999996,20.709 1.49999996,18.5 C1.49999996,16.291 3.29099996,14.5 5.49999996,14.5 C5.86079997,14.5 6.20815998,14.5512 6.53951998,14.64336 L6.78499998,14.72 L8.29899998,12.358 L8.19899998,11.883 L6.99999996,11.5 L6.99999996,9.99999999 L9.99999996,9.99999999 Z M5.49999996,16 C4.12199997,16 2.99999996,17.121 2.99999996,18.5 C2.99999996,19.878 4.12199997,21 5.49999996,21 C6.64952379,21 7.62036279,20.2199547 7.91062735,19.1608898 L7.94899998,19 L5.86299997,19 C5.11252378,19 4.64413376,18.2090703 4.96922176,17.5610194 L5.02399997,17.465 L5.93699997,16.041 C5.79499997,16.015 5.64899997,16 5.49999996,16 Z M18.5,16 L18.403625,16.007625 L18.308,16.019 L19.51,19 L17.893,19 L16.918,16.581 C16.362,17.04 16,17.725 16,18.5 C16,19.878 17.122,21 18.5,21 C19.878,21 21,19.878 21,18.5 C21,17.121 19.878,16 18.5,16 Z M8.73999999,14.448 L6.78299998,17.5 L9.38499999,17.5 L8.73999999,14.448 Z M14.249,13.5 L10.073,13.5 L10.761,16.756 L14.249,13.5 Z M12.007,1.49999996 C13.381,1.49999996 14.5,2.62599996 14.5,3.99999996 C14.5,5.32095997 13.4687296,6.40967676 12.1706007,6.49466056 L12.007,6.49999996 L11,6.49999996 L11,8.49999996 L9.49999999,8.49999996 L9.49999999,1.49999996 L12.007,1.49999996 Z M12,2.99999996 L11,2.99999996 L11,4.99999996 L12,4.99999996 C12.551,4.99999996 13,4.55199997 13,3.99999996 C13,3.44899996 12.551,2.99999996 12,2.99999996 Z"/>
  </g>
</svg>
