<svg xmlns="http://www.w3.org/2000/svg" width="24" height="24" viewBox="0 0 24 24">
  <g fill="none" fill-rule="evenodd">
    <rect width="24" height="24" opacity="0"/>
    <path fill="#0F1621" fill-opacity=".95" d="M21,1.99999996 C21.5125715,1.99999996 21.9354694,2.38628567 21.9932682,2.88343145 L22,2.99999996 L22,21 C22,21.5125715 21.6137143,21.9354694 21.1165685,21.9932682 L21,22 L2.99999996,22 C2.48742853,22 2.06453057,21.6137143 2.00673174,21.1165685 L1.99999996,21 L1.99999996,2.99999996 C1.99999996,2.48742853 2.38628567,2.06453057 2.88343145,2.00673174 L2.99999996,1.99999996 L21,1.99999996 Z M15,3.99999997 L8.99999997,3.99999997 L8.99999997,8.99999997 L3.99999997,8.99999997 L3.99999997,15 L8.99999997,15 L8.99999997,20 L15,20 L15,15 L20,15 L20,8.99999997 L15,8.99999997 L15,3.99999997 Z"/>
  </g>
</svg>
