<svg xmlns="http://www.w3.org/2000/svg" width="24" height="24" viewBox="0 0 24 24">
  <g fill="none" fill-rule="evenodd">
    <rect width="24" height="24"/>
    <path fill="#0F1621" fill-opacity=".95" d="M11.991,1.99999996 L19.991,6.41699998 L19.991,22 L13.241,22 L13.241,17 L10.745,17 L10.745,22 L3.99999997,22 L3.99999997,6.41699998 L11.991,1.99999996 Z M8.99999998,17 L6.49999998,17 L6.49999998,20 L8.99999998,20 L8.99999998,17 Z M17.5,17 L14.991,17 L14.991,20 L17.5,20 L17.5,17 Z M8.99999998,12 L6.49999998,12 L6.49999998,15 L8.99999998,15 L8.99999998,12 Z M13.241,12 L10.745,12 L10.745,15 L13.241,15 L13.241,12 Z M17.5,12 L14.982,12 L14.991,15 L17.5,15 L17.5,12 Z M8.99999998,6.99999998 L6.49999998,6.99999998 L6.49999998,9.99999998 L8.99999998,9.99999998 L8.99999998,6.99999998 Z M13.241,6.99999998 L10.745,6.99999998 L10.745,9.99999998 L13.241,9.99999998 L13.241,6.99999998 Z M17.5,6.99999998 L14.983,6.99999998 L14.983,9.99999998 L17.5,9.99999998 L17.5,6.99999998 Z"/>
  </g>
</svg>
