<svg xmlns="http://www.w3.org/2000/svg" width="24" height="24" viewBox="0 0 24 24">
  <g fill="none" fill-rule="evenodd">
    <rect width="24" height="24"/>
    <path fill="#0F1621" fill-opacity=".95" d="M18.289,16.036 C19.494,16.868 20.361,18.132 20.585,19.63 L20.94,22 L12.055,22 L18.289,16.036 Z M15.003,15 C15.208,15 15.404,15.032 15.604,15.053 L8.34199998,22 L2.99999996,22 L3.35399996,19.632 C3.74999997,16.974 6.12999998,15 8.93599999,15 L15.003,15 Z M6.99999998,8.49999999 L16,8.49999999 L16,8.55999999 C16,10.681 15,10.999 15,13 L8.49999998,13 C8.49999998,11.389 6.99999998,11.091 6.99999998,9.49999999 L6.99999998,8.49999999 Z M6.99999997,1.99999996 L14.246,2.78199996 C15.1952632,2.89947365 15.9201496,3.67033238 15.9938238,4.60907214 L16,4.76699997 L16,6.99999996 L3.99999997,6.99999996 L3.99999997,5.99999996 L6.99999997,4.99999996 L6.99999997,1.99999996 Z"/>
  </g>
</svg>
