<svg xmlns="http://www.w3.org/2000/svg" width="24" height="24" viewBox="0 0 24 24">
  <g fill="none" fill-rule="evenodd">
    <rect width="24" height="24"/>
    <path fill="#0F1621" fill-opacity=".95" d="M22,9.99999999 L22,21 L15,21 L15,18 L8.99999996,18 L8.99999996,21 L1.99999996,21 L1.99999996,9.99999999 L22,9.99999999 Z M6.49999997,12 L3.99999997,12 L3.99999997,16 L6.49999997,16 L6.49999997,12 Z M11,12 L8.49999999,12 L8.49999999,16 L11,16 L11,12 Z M15.5,12 L13,12 L13,16 L15.5,16 L15.5,12 Z M20,12 L17.5,12 L17.5,16 L20,16 L20,12 Z M12,1.99999996 C16.273,1.99999996 19.968,4.44099997 21.79,7.99999996 L19.479,7.99999996 C17.862,5.58999997 15.114,3.99999996 12,3.99999996 C8.88599999,3.99999996 6.13799998,5.58999997 4.52199997,7.99999996 L2.20999996,7.99999996 C4.03199997,4.44099997 7.72699998,1.99999996 12,1.99999996 Z"/>
  </g>
</svg>
