<svg width="24" height="24" viewBox="0 0 24 24" fill="none" xmlns="http://www.w3.org/2000/svg">
<path d="M18 12.5C18 12.9945 17.8534 13.4778 17.5787 13.8889C17.304 14.3 16.9135 14.6205 16.4567 14.8097C15.9999 14.9989 15.4972 15.0484 15.0123 14.952C14.5273 14.8555 14.0819 14.6174 13.7322 14.2678C13.3826 13.9181 13.1445 13.4727 13.048 12.9877C12.9516 12.5028 13.0011 12.0001 13.1903 11.5433C13.3795 11.0865 13.7 10.696 14.1111 10.4213C14.5222 10.1466 15.0055 10 15.5 10C16.163 10 16.7989 10.2634 17.2678 10.7322C17.7366 11.2011 18 11.837 18 12.5ZM22 6V17C22 17.5304 21.7893 18.0391 21.4142 18.4142C21.0391 18.7893 20.5304 19 20 19H4C3.46957 19 2.96086 18.7893 2.58579 18.4142C2.21071 18.0391 2 17.5304 2 17V6H5V4H9V6H22ZM9 8H5V10H9V8ZM20 12.5C20 11.61 19.7361 10.74 19.2416 9.99993C18.7471 9.25991 18.0443 8.68314 17.2221 8.34254C16.3998 8.00195 15.495 7.91283 14.6221 8.08647C13.7492 8.2601 12.9474 8.68868 12.318 9.31802C11.6887 9.94736 11.2601 10.7492 11.0865 11.6221C10.9128 12.495 11.0019 13.3998 11.3425 14.2221C11.6831 15.0443 12.2599 15.7471 12.9999 16.2416C13.74 16.7361 14.61 17 15.5 17C16.0913 17.0013 16.6771 16.8858 17.2236 16.6601C17.7702 16.4345 18.2668 16.103 18.6849 15.6849C19.103 15.2668 19.4345 14.7702 19.6601 14.2236C19.8858 13.6771 20.0013 13.0913 20 12.5Z" fill="#0F1621"/>
</svg>
