<svg width="24" height="24" viewBox="0 0 24 24" fill="none" xmlns="http://www.w3.org/2000/svg">
<path d="M22 9.38C22.0054 9.58751 21.9697 9.79403 21.8952 9.98776C21.8207 10.1815 21.7087 10.3586 21.5657 10.5091C21.4227 10.6595 21.2514 10.7803 21.0617 10.8646C20.872 10.9488 20.6675 10.9948 20.46 11H18C17.796 10.9994 17.5942 10.9574 17.4069 10.8766C17.2196 10.7958 17.0505 10.6779 16.91 10.53L15.85 9.38L14.76 10.53C14.6195 10.6779 14.4505 10.7958 14.2632 10.8766C14.0758 10.9574 13.874 10.9994 13.67 11H10.33C10.126 10.9994 9.92425 10.9574 9.73691 10.8766C9.54957 10.7958 9.38054 10.6779 9.24003 10.53L8.15003 9.38L7.07003 10.53C6.93185 10.6755 6.76606 10.792 6.58234 10.8727C6.39862 10.9534 6.20066 10.9967 6.00003 11H3.54003C3.33252 10.9948 3.12807 10.9488 2.93835 10.8646C2.74864 10.7803 2.57738 10.6595 2.43437 10.5091C2.29135 10.3586 2.17938 10.1815 2.10486 9.98776C2.03033 9.79403 1.99471 9.58751 2.00003 9.38C4.09003 6.31 6.29003 4 11.05 4H11.47V2.5H12.47V4H13C17.71 4 19.91 6.31 22 9.38ZM11.23 13L11 21H13L12.77 13H11.23Z" fill="#0F1621"/>
</svg>
