<svg width="24" height="24" viewBox="0 0 24 24" fill="none" xmlns="http://www.w3.org/2000/svg">
<path d="M14.69 7.38C12.7883 7.38444 10.9642 8.13488 9.61 9.47C9.7951 9.84841 10.0021 10.2157 10.23 10.57C11.0939 11.7337 11.6011 13.1234 11.69 14.57C11.4883 16.6268 11.1034 18.6616 10.54 20.65C11.7498 21.5197 13.2001 21.9915 14.69 22C16.6287 22 18.4881 21.2298 19.8589 19.8589C21.2298 18.4881 22 16.6287 22 14.69C22 12.7513 21.2298 10.8919 19.8589 9.52105C18.4881 8.15015 16.6287 7.38 14.69 7.38ZM15.13 12.38C15.1151 12.2206 15.1336 12.0599 15.1844 11.9081C15.2351 11.7563 15.317 11.6168 15.4248 11.4985C15.5326 11.3802 15.6639 11.2856 15.8103 11.221C15.9567 11.1563 16.1149 11.1229 16.275 11.1229C16.4351 11.1229 16.5933 11.1563 16.7397 11.221C16.8861 11.2856 17.0174 11.3802 17.1252 11.4985C17.233 11.6168 17.3149 11.7563 17.3656 11.9081C17.4164 12.0599 17.4349 12.2206 17.42 12.38C17.4349 12.5394 17.4164 12.7001 17.3656 12.8519C17.3149 13.0036 17.233 13.1432 17.1252 13.2615C17.0174 13.3798 16.8861 13.4743 16.7397 13.539C16.5933 13.6037 16.4351 13.6371 16.275 13.6371C16.1149 13.6371 15.9567 13.6037 15.8103 13.539C15.6639 13.4743 15.5326 13.3798 15.4248 13.2615C15.317 13.1432 15.2351 13.0036 15.1844 12.8519C15.1336 12.7001 15.1151 12.5394 15.13 12.38ZM17.05 16.61C16.8193 16.614 16.5927 16.5491 16.3991 16.4236C16.2056 16.2981 16.0538 16.1178 15.9632 15.9056C15.8726 15.6934 15.8474 15.4591 15.8906 15.2325C15.9339 15.0059 16.0438 14.7973 16.2062 14.6335C16.3686 14.4697 16.5762 14.358 16.8024 14.3127C17.0286 14.2675 17.2632 14.2907 17.4762 14.3794C17.6891 14.4681 17.8708 14.6183 17.9979 14.8108C18.1251 15.0033 18.192 15.2293 18.19 15.46C18.1913 15.611 18.1629 15.7608 18.1063 15.9009C18.0497 16.0409 17.9661 16.1684 17.8603 16.2761C17.7544 16.3838 17.6284 16.4696 17.4893 16.5286C17.3503 16.5876 17.201 16.6187 17.05 16.62V16.61ZM19.37 14.3C19.2194 14.3 19.0704 14.2702 18.9314 14.2123C18.7925 14.1544 18.6663 14.0695 18.5603 13.9626C18.4544 13.8556 18.3706 13.7288 18.3139 13.5893C18.2572 13.4499 18.2287 13.3005 18.23 13.15C18.23 12.9221 18.2977 12.6994 18.4245 12.5101C18.5513 12.3207 18.7315 12.1734 18.9423 12.0866C19.153 11.9999 19.3847 11.9777 19.6081 12.0229C19.8314 12.0681 20.0363 12.1786 20.1967 12.3404C20.3571 12.5023 20.4659 12.7081 20.5091 12.9318C20.5523 13.1556 20.5281 13.3871 20.4396 13.5971C20.351 13.807 20.202 13.9859 20.0116 14.1111C19.8212 14.2362 19.5979 14.302 19.37 14.3ZM7.37 8.66C7.37 10.88 9.68 12.36 9.68 14.58C9.38304 16.8242 8.93536 19.0459 8.34 21.23C8.28525 21.4519 8.15615 21.6483 7.97421 21.7866C7.79226 21.9249 7.56843 21.9967 7.34 21.99H4.34C4.11157 21.9967 3.88774 21.9249 3.70579 21.7866C3.52385 21.6483 3.39475 21.4519 3.34 21.23C2.7407 19.0502 2.29296 16.8316 2 14.59C2 12.37 4.31 10.89 4.31 8.67C4.31 8.67 4.31 8.05 4.25 7.67L3.59 4.67C3.57469 4.51705 3.57469 4.36295 3.59 4.21C3.60559 3.62014 3.85025 3.05954 4.27213 2.64699C4.69401 2.23445 5.25994 2.00239 5.85 2C6.45037 1.98927 7.03053 2.21686 7.46347 2.63293C7.89642 3.04901 8.14687 3.61967 8.16 4.22C8.16 4.40951 8.13306 4.59806 8.08 4.78L7.44 7.68C7.4 8.05 7.38 8.67 7.38 8.67L7.37 8.66Z" fill="#0F1621"/>
</svg>
