<svg width="24" height="24" viewBox="0 0 24 24" fill="none" xmlns="http://www.w3.org/2000/svg">
<path d="M20 6V3.5C20 3.10218 19.842 2.72064 19.5607 2.43934C19.2794 2.15804 18.8978 2 18.5 2H5.5C5.10218 2 4.72064 2.15804 4.43934 2.43934C4.15804 2.72064 4 3.10218 4 3.5V6H3V10H4V21C4 21.2652 4.10536 21.5196 4.29289 21.7071C4.48043 21.8946 4.73478 22 5 22H7C7.26522 22 7.51957 21.8946 7.70711 21.7071C7.89464 21.5196 8 21.2652 8 21V20H16V21C16 21.2652 16.1054 21.5196 16.2929 21.7071C16.4804 21.8946 16.7348 22 17 22H19C19.2652 22 19.5196 21.8946 19.7071 21.7071C19.8946 21.5196 20 21.2652 20 21V10H21V6H20ZM6 4H18V6H6V4ZM6 8H18V14H6V8ZM9 18H6.5C6.34475 17.8836 6.21875 17.7326 6.13197 17.559C6.04518 17.3854 6 17.1941 6 17C6 16.8059 6.04518 16.6146 6.13197 16.441C6.21875 16.2674 6.34475 16.1164 6.5 16H9V18ZM15 16H17.5C17.6552 16.1164 17.7812 16.2674 17.868 16.441C17.9548 16.6146 18 16.8059 18 17C18 17.1941 17.9548 17.3854 17.868 17.559C17.7812 17.7326 17.6552 17.8836 17.5 18H15V16Z" fill="#0F1621"/>
</svg>
