<svg width="24" height="24" viewBox="0 0 24 24" fill="none" xmlns="http://www.w3.org/2000/svg">
<path d="M22 4V2L2 4.5V6.5L11 5.37V9H3.72C3.26383 9 2.82634 9.18121 2.50378 9.50378C2.18121 9.82634 2 10.2638 2 10.72V18C2 19.0609 2.42143 20.0783 3.17157 20.8284C3.92172 21.5786 4.93913 22 6 22H18C19.0609 22 20.0783 21.5786 20.8284 20.8284C21.5786 20.0783 22 19.0609 22 18V10.72C22 10.2638 21.8188 9.82634 21.4962 9.50378C21.1737 9.18121 20.7362 9 20.28 9H13V5.13L22 4ZM11 16.5H5V11H11V16.5ZM13 11H19V16.5H13V11Z" fill="#0F1621"/>
</svg>
