<svg width="24" height="24" viewBox="0 0 24 24" fill="none" xmlns="http://www.w3.org/2000/svg">
<path d="M5.71 8H10L10.75 6.5H13.5L14.5 5.5L15.5 6.5H18L19.47 5L18 3.5H10.75L10 2H5.71C5.25729 2.00262 4.82387 2.18363 4.50375 2.50375C4.18363 2.82387 4.00262 3.25729 4 3.71V6.28C3.99868 6.5054 4.04194 6.72884 4.12728 6.93746C4.21263 7.14608 4.33838 7.33577 4.4973 7.49562C4.65622 7.65547 4.84517 7.78232 5.05329 7.86888C5.26141 7.95544 5.4846 8 5.71 8ZM6 4H9V6H6V4ZM19.78 13L18.78 10.7C18.5676 10.2025 18.2156 9.77725 17.7666 9.47556C17.3176 9.17388 16.7909 9.0087 16.25 9H7.78C7.2437 9.01195 6.7223 9.17881 6.27871 9.48045C5.83511 9.7821 5.48827 10.2056 5.28 10.7L4.28 13H2.5C2.34475 13.1164 2.21875 13.2674 2.13197 13.441C2.04518 13.6146 2 13.8059 2 14C2 14.1941 2.04518 14.3854 2.13197 14.559C2.21875 14.7326 2.34475 14.8836 2.5 15H3V21C3 21.2652 3.10536 21.5196 3.29289 21.7071C3.48043 21.8946 3.73478 22 4 22H7C7.26522 22 7.51957 21.8946 7.70711 21.7071C7.89464 21.5196 8 21.2652 8 21V20H16V21C16 21.2652 16.1054 21.5196 16.2929 21.7071C16.4804 21.8946 16.7348 22 17 22H20C20.2652 22 20.5196 21.8946 20.7071 21.7071C20.8946 21.5196 21 21.2652 21 21V15H21.5C21.6552 14.8836 21.7812 14.7326 21.868 14.559C21.9548 14.3854 22 14.1941 22 14C22 13.8059 21.9548 13.6146 21.868 13.441C21.7812 13.2674 21.6552 13.1164 21.5 13H19.78ZM7.11 11.51C7.16118 11.3698 7.25151 11.2472 7.37027 11.1568C7.48903 11.0664 7.63123 11.012 7.78 11H16.25C16.4002 11.0114 16.544 11.0654 16.6644 11.1558C16.7849 11.2461 16.8771 11.369 16.93 11.51L18 14H6L7.11 11.51ZM8 18H5.5C5.34475 17.8836 5.21875 17.7326 5.13197 17.559C5.04518 17.3854 5 17.1941 5 17C5 16.8059 5.04518 16.6146 5.13197 16.441C5.21875 16.2674 5.34475 16.1164 5.5 16H8V18ZM18.5 18H16V16H18.5C18.6552 16.1164 18.7812 16.2674 18.868 16.441C18.9548 16.6146 19 16.8059 19 17C19 17.1941 18.9548 17.3854 18.868 17.559C18.7812 17.7326 18.6552 17.8836 18.5 18Z" fill="#0F1621"/>
</svg>
