<svg width="24" height="24" viewBox="0 0 24 24" fill="none" xmlns="http://www.w3.org/2000/svg">
<path d="M19.5 3H4.5C4.10218 3 3.72064 3.15804 3.43934 3.43934C3.15804 3.72064 3 4.10218 3 4.5V19.5C3 19.8978 3.15804 20.2794 3.43934 20.5607C3.72064 20.842 4.10218 21 4.5 21H19.5C19.8978 21 20.2794 20.842 20.5607 20.5607C20.842 20.2794 21 19.8978 21 19.5V4.5C21 4.10218 20.842 3.72064 20.5607 3.43934C20.2794 3.15804 19.8978 3 19.5 3ZM7 19.5C6.50555 19.5 6.0222 19.3534 5.61107 19.0787C5.19995 18.804 4.87952 18.4135 4.6903 17.9567C4.50108 17.4999 4.45157 16.9972 4.54804 16.5123C4.6445 16.0273 4.8826 15.5819 5.23223 15.2322C5.58186 14.8826 6.02732 14.6445 6.51227 14.548C6.99723 14.4516 7.49989 14.5011 7.95671 14.6903C8.41352 14.8795 8.80397 15.2 9.07867 15.6111C9.35338 16.0222 9.5 16.5055 9.5 17C9.5 17.663 9.23661 18.2989 8.76777 18.7678C8.29893 19.2366 7.66304 19.5 7 19.5ZM12 14.5C11.5055 14.5 11.0222 14.3534 10.6111 14.0787C10.2 13.804 9.87952 13.4135 9.6903 12.9567C9.50108 12.4999 9.45157 11.9972 9.54804 11.5123C9.6445 11.0273 9.8826 10.5819 10.2322 10.2322C10.5819 9.8826 11.0273 9.6445 11.5123 9.54804C11.9972 9.45157 12.4999 9.50108 12.9567 9.6903C13.4135 9.87952 13.804 10.2 14.0787 10.6111C14.3534 11.0222 14.5 11.5055 14.5 12C14.5 12.663 14.2366 13.2989 13.7678 13.7678C13.2989 14.2366 12.663 14.5 12 14.5ZM17 9.5C16.5055 9.5 16.0222 9.35338 15.6111 9.07867C15.2 8.80397 14.8795 8.41352 14.6903 7.95671C14.5011 7.49989 14.4516 6.99723 14.548 6.51227C14.6445 6.02732 14.8826 5.58186 15.2322 5.23223C15.5819 4.8826 16.0273 4.6445 16.5123 4.54804C16.9972 4.45157 17.4999 4.50108 17.9567 4.6903C18.4135 4.87952 18.804 5.19995 19.0787 5.61107C19.3534 6.0222 19.5 6.50555 19.5 7C19.5 7.66304 19.2366 8.29893 18.7678 8.76777C18.2989 9.23661 17.663 9.5 17 9.5Z" fill="#0F1621"/>
</svg>
