<svg width="24" height="24" viewBox="0 0 24 24" fill="none" xmlns="http://www.w3.org/2000/svg">
<path d="M14.25 11C15.087 10.9997 15.9073 10.7661 16.6188 10.3252C17.3303 9.88442 17.9047 9.25391 18.2775 8.50456C18.6504 7.75522 18.8068 6.91675 18.7294 6.08337C18.6519 5.24999 18.3435 4.45474 17.8389 3.78699C17.3343 3.11923 16.6535 2.60544 15.8729 2.30334C15.0923 2.00125 14.243 1.92283 13.4203 2.0769C12.5977 2.23096 11.8343 2.61141 11.2159 3.17549C10.5976 3.73956 10.1488 4.4649 9.92005 5.27C9.57397 4.71929 9.09025 4.26836 8.51664 3.96172C7.94303 3.65508 7.29937 3.50333 6.6492 3.52146C5.99903 3.53958 5.36482 3.72696 4.80919 4.06508C4.25356 4.4032 3.79571 4.88038 3.48085 5.44952C3.16599 6.01866 3.005 6.66007 3.01377 7.31043C3.02254 7.9608 3.20077 8.59763 3.53086 9.15807C3.86096 9.71851 4.3315 10.1832 4.89605 10.5062C5.4606 10.8292 6.09962 10.9994 6.75005 11H14.25ZM14.25 5C14.5467 5 14.8367 5.08797 15.0834 5.2528C15.3301 5.41762 15.5223 5.65189 15.6359 5.92598C15.7494 6.20007 15.7791 6.50167 15.7212 6.79264C15.6634 7.08361 15.5205 7.35088 15.3107 7.56066C15.1009 7.77044 14.8337 7.9133 14.5427 7.97118C14.2517 8.02906 13.9501 7.99935 13.676 7.88582C13.4019 7.77229 13.1677 7.58003 13.0028 7.33336C12.838 7.08668 12.75 6.79667 12.75 6.5C12.75 6.10218 12.9081 5.72065 13.1894 5.43934C13.4707 5.15804 13.8522 5 14.25 5ZM5.25005 7.25C5.25005 6.95333 5.33802 6.66332 5.50285 6.41665C5.66767 6.16997 5.90194 5.97771 6.17602 5.86418C6.45011 5.75065 6.75171 5.72095 7.04269 5.77882C7.33366 5.8367 7.60093 5.97956 7.81071 6.18934C8.02049 6.39912 8.16335 6.66639 8.22123 6.95737C8.27911 7.24834 8.2494 7.54994 8.13587 7.82403C8.02234 8.09812 7.83008 8.33238 7.58341 8.49721C7.33673 8.66203 7.04672 8.75 6.75005 8.75C6.35222 8.75 5.97069 8.59197 5.68939 8.31066C5.40808 8.02936 5.25005 7.64783 5.25005 7.25ZM21 14V21H19L16 19V21C16 21.2652 15.8947 21.5196 15.7072 21.7071C15.5196 21.8946 15.2653 22 15 22H6.00005C5.73483 22 5.48048 21.8946 5.29294 21.7071C5.10541 21.5196 5.00005 21.2652 5.00005 21V14C5.00005 13.7348 5.10541 13.4804 5.29294 13.2929C5.48048 13.1054 5.73483 13 6.00005 13H15C15.2653 13 15.5196 13.1054 15.7072 13.2929C15.8947 13.4804 16 13.7348 16 14V16L19 14H21Z" fill="#0F1621"/>
</svg>
