<svg width="24" height="24" viewBox="0 0 24 24" fill="none" xmlns="http://www.w3.org/2000/svg">
<path d="M15.0001 20H13.0001C13.0001 20 13.0001 16.53 13.0001 15.3C12.9993 14.7913 13.1924 14.3014 13.5401 13.93L21.0001 6H9.4501L5.4501 2L4.2701 3.26L7.0001 6H2.6001L10.4201 13.9C10.7896 14.2725 10.9979 14.7753 11.0001 15.3C11.0001 16.57 11.0001 20 11.0001 20H9.0001C8.46966 20 7.96096 20.2107 7.58588 20.5858C7.21081 20.9609 7.0001 21.4696 7.0001 22H17.0001C17.0001 21.4696 16.7894 20.9609 16.4143 20.5858C16.0392 20.2107 15.5305 20 15.0001 20ZM13.0001 12C12.6838 11.9977 12.3725 11.9203 12.0919 11.7743C11.8113 11.6283 11.5693 11.4179 11.3858 11.1602C11.2023 10.9025 11.0825 10.605 11.0363 10.2921C10.9902 9.97912 11.0189 9.65969 11.1201 9.36C11.2532 8.96598 11.5058 8.62325 11.8427 8.3795C12.1797 8.13574 12.5842 8.00309 13.0001 8C13.3454 7.99431 13.6854 8.08485 13.9821 8.26146C14.2788 8.43808 14.5205 8.6938 14.6801 9C14.8536 9.30024 14.946 9.64042 14.9484 9.98717C14.9507 10.3339 14.8629 10.6753 14.6934 10.9779C14.524 11.2804 14.2788 11.5337 13.982 11.7129C13.6851 11.8921 13.3467 11.991 13.0001 12Z" fill="#0F1621"/>
</svg>
