<svg width="24" height="24" viewBox="0 0 24 24" fill="none" xmlns="http://www.w3.org/2000/svg">
<path d="M12 2H4C3.46957 2 2.96086 2.21071 2.58579 2.58579C2.21071 2.96086 2 3.46957 2 4V20C2 20.5304 2.21071 21.0391 2.58579 21.4142C2.96086 21.7893 3.46957 22 4 22H12C12.5304 22 13.0391 21.7893 13.4142 21.4142C13.7893 21.0391 14 20.5304 14 20V4C14 3.46957 13.7893 2.96086 13.4142 2.58579C13.0391 2.21071 12.5304 2 12 2ZM7 4.5C7 4.36739 7.05268 4.24021 7.14645 4.14645C7.24021 4.05268 7.36739 4 7.5 4H8.5C8.63261 4 8.75979 4.05268 8.85355 4.14645C8.94732 4.24021 9 4.36739 9 4.5V6.5C9 6.63261 8.94732 6.75979 8.85355 6.85355C8.75979 6.94732 8.63261 7 8.5 7H7.5C7.36739 7 7.24021 6.94732 7.14645 6.85355C7.05268 6.75979 7 6.63261 7 6.5V4.5ZM9.5 14.5L9 19H7L6.5 14.5L5 14C5 14 5.27 10.34 5.41 8.9C5.43487 8.65248 5.55111 8.42311 5.73602 8.25669C5.92093 8.09027 6.16123 7.99875 6.41 8C7 8 7.28 8.5 8.01 8.5C8.74 8.5 9 8 9.59 8C9.83877 7.99875 10.0791 8.09027 10.264 8.25669C10.4489 8.42311 10.5651 8.65248 10.59 8.9L11 14L9.5 14.5ZM22 10H16L19 5L22 10ZM16 14L22 14.05L19 19L16 14Z" fill="#0F1621"/>
</svg>
