<svg width="24" height="24" viewBox="0 0 24 24" fill="none" xmlns="http://www.w3.org/2000/svg">
<path d="M12 2C10.0222 2 8.08879 2.58649 6.4443 3.6853C4.79981 4.78412 3.51809 6.3459 2.76121 8.17317C2.00433 10.0004 1.8063 12.0111 2.19215 13.9509C2.578 15.8907 3.53041 17.6725 4.92894 19.0711C6.32746 20.4696 8.10929 21.422 10.0491 21.8079C11.9889 22.1937 13.9996 21.9957 15.8268 21.2388C17.6541 20.4819 19.2159 19.2002 20.3147 17.5557C21.4135 15.9112 22 13.9778 22 12C22 10.6868 21.7413 9.38642 21.2388 8.17317C20.7363 6.95991 19.9997 5.85752 19.0711 4.92893C18.1425 4.00035 17.0401 3.26375 15.8268 2.7612C14.6136 2.25866 13.3132 2 12 2ZM13.41 12L18.31 7.1C19.4048 8.49872 19.9996 10.2238 19.9996 12C19.9996 13.7762 19.4048 15.5013 18.31 16.9L13.41 12ZM16.9 5.69L12 10.59L7.1 5.69C8.49873 4.59522 10.2238 4.00039 12 4.00039C13.7762 4.00039 15.5013 4.59522 16.9 5.69ZM5.69 7.1L10.59 12L5.69 16.9C4.59523 15.5013 4.0004 13.7762 4.0004 12C4.0004 10.2238 4.59523 8.49872 5.69 7.1ZM7.1 18.31L12 13.41L16.9 18.31C15.5013 19.4048 13.7762 19.9996 12 19.9996C10.2238 19.9996 8.49873 19.4048 7.1 18.31Z" fill="#0F1621"/>
</svg>
