<svg width="24" height="24" viewBox="0 0 24 24" fill="none" xmlns="http://www.w3.org/2000/svg">
<path d="M19.5101 12.39L19.0001 6.39C18.9561 6.00896 18.7742 5.65721 18.4886 5.40113C18.203 5.14504 17.8336 5.00236 17.4501 5H13.0001V2H11.0001V5H6.55006C6.16955 5.00175 5.80263 5.14163 5.51752 5.39362C5.23241 5.64562 5.04853 5.99259 5.00006 6.37L4.49006 12.37L12.0001 10L19.5101 12.39ZM12.0001 12.68L2.06006 15.84L4.61006 21.84C4.98871 21.1868 5.53566 20.6472 6.19388 20.2774C6.85211 19.9075 7.59749 19.7211 8.35231 19.7374C9.10714 19.7538 9.84375 19.9723 10.4854 20.3703C11.127 20.7682 11.65 21.331 12.0001 22C12.3464 21.3289 12.8664 20.7631 13.506 20.3615C14.1455 19.9599 14.8811 19.7372 15.636 19.7168C16.3909 19.6964 17.1374 19.8789 17.7977 20.2453C18.4581 20.6117 19.0079 21.1486 19.3901 21.8L21.9401 15.8L12.0001 12.68Z" fill="#0F1621"/>
</svg>
