<svg width="24" height="24" viewBox="0 0 24 24" fill="none" xmlns="http://www.w3.org/2000/svg">
<path d="M21.72 11L20.31 9.60004L22.08 7.83004L20 5.71004L21 4.65004L19.6 3.23004L18.54 4.30004L16.42 2.17004L14.65 3.94004L13.24 2.53004C13.1471 2.43632 13.0365 2.36192 12.9146 2.31115C12.7927 2.26038 12.662 2.23425 12.53 2.23425C12.398 2.23425 12.2673 2.26038 12.1455 2.31115C12.0236 2.36192 11.913 2.43632 11.82 2.53004L10.06 4.30004C9.87378 4.48741 9.76924 4.74086 9.76924 5.00504C9.76924 5.26923 9.87378 5.52268 10.06 5.71004L13.59 9.24004L9.00003 13.84L5.46003 10.31C5.36707 10.2163 5.25647 10.1419 5.13461 10.0912C5.01275 10.0404 4.88204 10.0142 4.75003 10.0142C4.61802 10.0142 4.48731 10.0404 4.36545 10.0912C4.24359 10.1419 4.13299 10.2163 4.04003 10.31L2.63003 11.72C2.44378 11.9074 2.33924 12.1609 2.33924 12.425C2.33924 12.6892 2.44378 12.9427 2.63003 13.13L4.00003 14.55L2.28003 16.32L4.40003 18.44L3.00003 19.85L4.40003 21.27L5.81003 19.85L7.93003 22L9.70003 20.21L11.12 21.62C11.3074 21.8063 11.5608 21.9108 11.825 21.9108C12.0892 21.9108 12.3427 21.8063 12.53 21.62L13.94 20.21C14.0338 20.1171 14.1082 20.0065 14.1589 19.8846C14.2097 19.7628 14.2358 19.6321 14.2358 19.5C14.2358 19.368 14.2097 19.2373 14.1589 19.1155C14.1082 18.9936 14.0338 18.883 13.94 18.79L10.41 15.26L15.01 10.66L18.54 14.19C18.7274 14.3763 18.9808 14.4808 19.245 14.4808C19.5092 14.4808 19.7627 14.3763 19.95 14.19L21.72 12.43C21.8153 12.3369 21.891 12.2257 21.9426 12.1029C21.9943 11.9801 22.0209 11.8483 22.0209 11.715C22.0209 11.5818 21.9943 11.45 21.9426 11.3272C21.891 11.2044 21.8153 11.0932 21.72 11Z" fill="#0F1621"/>
</svg>
