<svg width="24" height="24" viewBox="0 0 24 24" fill="none" xmlns="http://www.w3.org/2000/svg">
<path d="M7 2V5L4 6V7H16V4.77C16.0038 4.28017 15.8278 3.80596 15.5052 3.43731C15.1826 3.06866 14.736 2.83122 14.25 2.77L7 2ZM20.59 19.63L20.94 22H12.05L18.29 16C18.9031 16.4137 19.4239 16.9497 19.8197 17.5744C20.2155 18.1991 20.4778 18.899 20.59 19.63ZM8.34 22H3L3.35 19.63C3.57451 18.3175 4.26178 17.1288 5.28728 16.2794C6.31278 15.4301 7.60864 14.9762 8.94 15H15C15.2007 15.0063 15.401 15.023 15.6 15.05L8.34 22ZM16 8.5V8.56C16 10.68 15 11 15 13H8.5C8.5 11.39 7 11.09 7 9.5V8.5H16Z" fill="#0F1621"/>
</svg>
