<svg width="24" height="24" viewBox="0 0 24 24" fill="none" xmlns="http://www.w3.org/2000/svg">
<path d="M19.51 2.00006C19.3112 1.99866 19.113 2.02217 18.92 2.07006L5.31 5.29006C4.65236 5.44548 4.06646 5.81838 3.64721 6.34835C3.22795 6.87831 2.9999 7.53431 3 8.21006V18.0001L22 13.5001V4.50006C22 3.83875 21.738 3.20437 21.2713 2.73582C20.8046 2.26726 20.1713 2.0027 19.51 2.00006ZM11.75 11.0001L5 12.5801V8.32006C5.00151 8.03397 5.1019 7.75721 5.28416 7.53668C5.46641 7.31615 5.71932 7.16543 6 7.11006L11.79 5.73006L11.75 11.0001ZM20 9.00006L13.25 10.6101V5.37006L19.08 4.00006H19.26C19.4572 4.00269 19.6454 4.08287 19.7839 4.22323C19.9224 4.3636 20 4.55287 20 4.75006V9.00006ZM2 21.8801L22 17.1401V15.6401L2 20.3801V21.8801Z" fill="#0F1621"/>
</svg>
