<svg width="24" height="24" viewBox="0 0 24 24" fill="none" xmlns="http://www.w3.org/2000/svg">
<path d="M14.74 13.32L7.41004 19.63C7.10899 19.891 6.73684 20.0562 6.3413 20.1043C5.94577 20.1524 5.54488 20.0812 5.19004 19.9L3.35004 21.74L2.29004 20.68L4.13004 18.83C3.95096 18.4763 3.88101 18.0774 3.92909 17.6839C3.97716 17.2904 4.14108 16.9201 4.40004 16.62L10.71 9.28997L14.74 13.32ZM16.77 1.99997C15.3777 1.99997 14.0423 2.55309 13.0577 3.53766C12.0732 4.52223 11.52 5.85758 11.52 7.24997L16.74 12.47C18.1324 12.47 19.4678 11.9168 20.4524 10.9323C21.4369 9.94771 21.99 8.61236 21.99 7.21997C21.99 5.82758 21.4369 4.49223 20.4524 3.50766C19.4678 2.52309 18.1324 1.96997 16.74 1.96997L16.77 1.99997Z" fill="#0F1621"/>
</svg>
