<svg width="24" height="24" viewBox="0 0 24 24" fill="none" xmlns="http://www.w3.org/2000/svg">
<path d="M12 7.77C10.65 7.77 8.5 8.12 8.5 10.5V12.33H15.5V10.5C15.5 8.12 13.36 7.77 12 7.77ZM11.22 18.5L9 22H15L12.74 18.5H11.22ZM15 17C15.3315 17 15.6495 16.8683 15.8839 16.6339C16.1183 16.3995 16.25 16.0815 16.25 15.75C16.25 15.4185 16.1183 15.1005 15.8839 14.8661C15.6495 14.6317 15.3315 14.5 15 14.5C14.6685 14.5 14.3505 14.6317 14.1161 14.8661C13.8817 15.1005 13.75 15.4185 13.75 15.75C13.75 16.0815 13.8817 16.3995 14.1161 16.6339C14.3505 16.8683 14.6685 17 15 17ZM9 17C9.16415 17 9.3267 16.9677 9.47835 16.9049C9.63001 16.842 9.76781 16.75 9.88388 16.6339C9.99996 16.5178 10.092 16.38 10.1548 16.2284C10.2177 16.0767 10.25 15.9142 10.25 15.75C10.25 15.5858 10.2177 15.4233 10.1548 15.2716C10.092 15.12 9.99996 14.9822 9.88388 14.8661C9.76781 14.75 9.63001 14.658 9.47835 14.5952C9.3267 14.5323 9.16415 14.5 9 14.5C8.66848 14.5 8.35054 14.6317 8.11612 14.8661C7.8817 15.1005 7.75 15.4185 7.75 15.75C7.75 16.0815 7.8817 16.3995 8.11612 16.6339C8.35054 16.8683 8.66848 17 9 17ZM12 2C5.65 2 2 5.08 2 10.46V22H6L8.59 18.5H7C6.73478 18.5 6.48043 18.3946 6.29289 18.2071C6.10536 18.0196 6 17.7652 6 17.5V10.37C6 7.37 8.3 5.5 12 5.5C15.7 5.5 18 7.36 18 10.37V17.5C18 17.7652 17.8946 18.0196 17.7071 18.2071C17.5196 18.3946 17.2652 18.5 17 18.5H15.35L18 22H22V10.46C22 5.08 18.35 2 12 2Z" fill="#0F1621"/>
</svg>
