<svg width="24" height="24" viewBox="0 0 24 24" fill="none" xmlns="http://www.w3.org/2000/svg">
<path d="M10.09 18.06L6.76 22L4.94 20.18L8.88 16.85C8.3442 15.6519 8.17322 14.3225 8.38842 13.0277C8.60361 11.733 9.19544 10.5304 10.09 9.57C13.27 6.39 21 5.94 21 5.94C21 5.94 20.54 13.67 17.36 16.85C16.4005 17.7426 15.1996 18.3332 13.907 18.5483C12.6143 18.7635 11.2869 18.5937 10.09 18.06ZM5.85 17.16L6.85 16.28C6.46111 14.9003 6.44115 13.4427 6.79212 12.0529C7.14309 10.663 7.85269 9.38965 8.85 8.36C9.58991 7.64352 10.4367 7.0464 11.36 6.59C10.4301 4.96426 9.35217 3.42775 8.14 2C8.14 2 3 7.79 3 12.29C3.02308 13.2768 3.29677 14.2416 3.79534 15.0935C4.2939 15.9454 5.00095 16.6565 5.85 17.16Z" fill="#0F1621"/>
</svg>
