<svg width="24" height="24" viewBox="0 0 24 24" fill="none" xmlns="http://www.w3.org/2000/svg">
<path d="M11.5 7H12.5C13.163 7 13.7989 6.73661 14.2678 6.26777C14.7366 5.79893 15 5.16304 15 4.5C15 3.83696 14.7366 3.20107 14.2678 2.73223C13.7989 2.26339 13.163 2 12.5 2H9.99999V9H11.5V7ZM11.5 3.5H12.5C12.7652 3.5 13.0196 3.60536 13.2071 3.79289C13.3946 3.98043 13.5 4.23478 13.5 4.5C13.5 4.76522 13.3946 5.01957 13.2071 5.20711C13.0196 5.39464 12.7652 5.5 12.5 5.5H11.5V3.5ZM18 14C17.7413 14.0013 17.4834 14.0281 17.23 14.08L16.01 11.08C16.0022 11.0684 15.9973 11.0551 15.9955 11.0412C15.9938 11.0273 15.9953 11.0132 16 11H17.5V9.5H16C15.7579 9.49435 15.5182 9.54818 15.3018 9.65676C15.0853 9.76535 14.8989 9.92537 14.7587 10.1228C14.6185 10.3202 14.5289 10.549 14.4978 10.7891C14.4666 11.0292 14.4948 11.2733 14.58 11.5H8.63999L8.99999 10.5V9.5H5.99999V11.5H6.99999L7.68999 13.5L7.22999 14.21C6.83404 14.0739 6.41865 14.003 5.99999 14C5.23156 14.006 4.48113 14.2333 3.83846 14.6546C3.19578 15.0759 2.68806 15.6733 2.37601 16.3756C2.06397 17.0778 1.9608 17.8551 2.07886 18.6144C2.19692 19.3737 2.53121 20.083 3.04174 20.6573C3.55227 21.2317 4.21743 21.6468 4.95768 21.8531C5.69793 22.0594 6.48193 22.048 7.21591 21.8205C7.94989 21.5929 8.60279 21.1587 9.09652 20.5699C9.59024 19.981 9.90391 19.2624 9.99999 18.5H11L15.47 13.72L15.84 14.64C15.0317 15.1621 14.4387 15.9582 14.1697 16.8821C13.9008 17.806 13.974 18.796 14.3758 19.6703C14.7776 20.5447 15.4812 21.2449 16.3575 21.6425C17.2338 22.0402 18.2241 22.1086 19.1467 21.8352C20.0693 21.5618 20.8625 20.965 21.3807 20.1542C21.899 19.3433 22.1075 18.3729 21.9682 17.4207C21.8288 16.4686 21.3509 15.5986 20.6221 14.9703C19.8932 14.342 18.9623 13.9975 18 14ZM5.99999 20.5C5.33694 20.5 4.70106 20.2366 4.23222 19.7678C3.76338 19.2989 3.49999 18.663 3.49999 18C3.49999 17.337 3.76338 16.7011 4.23222 16.2322C4.70106 15.7634 5.33694 15.5 5.99999 15.5C6.14649 15.4901 6.29349 15.4901 6.43999 15.5L5.51999 17C5.42313 17.151 5.36866 17.3252 5.36228 17.5045C5.35591 17.6837 5.39786 17.8614 5.48375 18.0189C5.56965 18.1763 5.69631 18.3078 5.85047 18.3995C6.00463 18.4912 6.18062 18.5397 6.35999 18.54H8.44999C8.3267 19.0973 8.01643 19.5956 7.57074 19.9522C7.12504 20.3087 6.57075 20.5021 5.99999 20.5ZM7.27999 17L8.35999 15.33L8.92999 17H7.27999ZM10.46 16.86L9.14999 13H14.08L10.46 16.86ZM18 20.5C17.6717 20.5 17.3466 20.4353 17.0433 20.3097C16.74 20.1841 16.4644 19.9999 16.2322 19.7678C16.0001 19.5356 15.8159 19.26 15.6903 18.9567C15.5646 18.6534 15.5 18.3283 15.5 18C15.5005 17.6316 15.5833 17.268 15.7425 16.9358C15.9017 16.6036 16.1332 16.3112 16.42 16.08L17.42 18.5H19L17.8 15.5H17.99C18.653 15.5 19.2889 15.7634 19.7578 16.2322C20.2266 16.7011 20.49 17.337 20.49 18C20.49 18.663 20.2266 19.2989 19.7578 19.7678C19.2889 20.2366 18.653 20.5 17.99 20.5H18Z" fill="#0F1621"/>
</svg>
