<svg width="24" height="24" viewBox="0 0 24 24" fill="none" xmlns="http://www.w3.org/2000/svg">
<path d="M22 8.42L12 4.84L2 8.42V5.56L12 2L22 5.56V8.42ZM17.36 13.57C17.36 16.82 15.06 18.33 11.83 18.33H10.31V22H7V9H11.53C15.14 9 17.36 10.5 17.36 13.57ZM13.95 13.57C13.95 12.07 13.12 11.36 11.48 11.36H10.31V16H11.55C11.8838 16.0641 12.2283 16.0459 12.5535 15.9468C12.8787 15.8477 13.1748 15.6708 13.4162 15.4314C13.6575 15.192 13.8369 14.8974 13.9386 14.573C14.0403 14.2486 14.0614 13.9044 14 13.57H13.95Z" fill="#0F1621"/>
</svg>
