<svg width="24" height="24" viewBox="0 0 24 24" fill="none" xmlns="http://www.w3.org/2000/svg">
<path d="M22 8L18 4L17 5.09L19 7.09V12L20 13V18C20 18.5304 19.7893 19.0391 19.4142 19.4142C19.0391 19.7893 18.5304 20 18 20H14V4C14.0218 3.49398 13.8427 2.99985 13.5018 2.62525C13.1609 2.25064 12.6858 2.02591 12.18 2H5.82C5.31417 2.02591 4.83907 2.25064 4.49818 2.62525C4.15729 2.99985 3.97823 3.49398 4 4V20H2V22H18C19.0609 22 20.0783 21.5786 20.8284 20.8284C21.5786 20.0783 22 19.0609 22 18V8ZM6 4H12V11H6V4Z" fill="#0F1621"/>
</svg>
