<svg width="24" height="24" viewBox="0 0 24 24" fill="none" xmlns="http://www.w3.org/2000/svg">
<path d="M14.57 6.57C14.5324 7.3328 14.2677 8.06695 13.8097 8.67815C13.3518 9.28935 12.7215 9.74967 12 10C11.2785 9.74967 10.6482 9.28935 10.1903 8.67815C9.73234 8.06695 9.46757 7.3328 9.43 6.57V5.71L12 4.86L14.57 5.71V6.57ZM21.5 7L12 2L2.5 7L6 10V11C6 11 7 12 12 12C17 12 18 11 18 11V10L21.5 7ZM18 12.5C18 12.5 17 15 12 15C7 15 6 12.5 6 12.5V13.5C6 18.19 8.69 22 12 22C15.31 22 18 18.19 18 13.5V12.5Z" fill="#0F1621"/>
</svg>
