<svg width="24" height="24" viewBox="0 0 24 24" fill="none" xmlns="http://www.w3.org/2000/svg">
<path d="M12 2C10.0222 2 8.08879 2.58649 6.4443 3.6853C4.79981 4.78412 3.51809 6.3459 2.76121 8.17317C2.00433 10.0004 1.8063 12.0111 2.19215 13.9509C2.578 15.8907 3.53041 17.6725 4.92894 19.0711C6.32746 20.4696 8.10929 21.422 10.0491 21.8079C11.9889 22.1937 13.9996 21.9957 15.8268 21.2388C17.6541 20.4819 19.2159 19.2002 20.3147 17.5557C21.4135 15.9112 22 13.9778 22 12C22 10.6868 21.7413 9.38642 21.2388 8.17317C20.7363 6.95991 19.9997 5.85752 19.0711 4.92893C18.1425 4.00035 17.0401 3.26375 15.8268 2.7612C14.6136 2.25866 13.3132 2 12 2ZM12 17.89C10.8351 17.89 9.6963 17.5446 8.7277 16.8974C7.75909 16.2502 7.00415 15.3303 6.55835 14.254C6.11255 13.1777 5.99591 11.9935 6.22318 10.8509C6.45045 9.70837 7.01141 8.65887 7.83515 7.83514C8.65888 7.01141 9.70837 6.45044 10.8509 6.22317C11.9935 5.99591 13.1778 6.11255 14.254 6.55835C15.3303 7.00415 16.2502 7.75909 16.8974 8.72769C17.5446 9.6963 17.89 10.8351 17.89 12C17.89 12.7735 17.7377 13.5394 17.4417 14.254C17.1457 14.9686 16.7118 15.6179 16.1649 16.1649C15.6179 16.7118 14.9686 17.1456 14.254 17.4417C13.5394 17.7377 12.7735 17.89 12 17.89ZM13.2 11.71C13.552 11.5811 13.8568 11.3489 14.0745 11.0437C14.2922 10.7386 14.4126 10.3748 14.42 10C14.42 8.77 13.31 8.11 12 8.11C10.69 8.11 9.58 8.85 9.58 10.06C9.57448 10.4281 9.67658 10.7898 9.87377 11.1007C10.071 11.4116 10.3547 11.6581 10.69 11.81C10.2883 11.9339 9.93578 12.1813 9.68266 12.517C9.42954 12.8527 9.28865 13.2597 9.28 13.68C9.28 14.88 10.28 15.81 11.97 15.81C13.66 15.81 14.72 14.86 14.72 13.65C14.6961 13.2098 14.5375 12.7876 14.2656 12.4406C13.9937 12.0936 13.6217 11.8385 13.2 11.71ZM12 9.14C12.1387 9.1199 12.2801 9.13139 12.4137 9.17363C12.5473 9.21586 12.6697 9.28775 12.7716 9.3839C12.8735 9.48006 12.9524 9.59801 13.0024 9.72894C13.0523 9.85987 13.072 10.0004 13.06 10.14C13.0633 10.4037 12.9894 10.6626 12.8472 10.8848C12.705 11.1069 12.5009 11.2826 12.26 11.39L12.06 11.32C11.34 11.05 10.94 10.78 10.94 10.15C10.9264 10.0096 10.9449 9.86793 10.9941 9.73573C11.0433 9.60353 11.122 9.48426 11.2241 9.38695C11.3263 9.28964 11.4492 9.21683 11.5836 9.17405C11.718 9.13127 11.8604 9.11962 12 9.14ZM12 14.81C11.21 14.81 10.7 14.38 10.7 13.67C10.6888 13.3662 10.7672 13.0658 10.9255 12.8062C11.0837 12.5466 11.3148 12.3393 11.59 12.21L11.93 12.33C12.93 12.69 13.29 13 13.29 13.69C13.2902 13.852 13.2556 14.0122 13.1884 14.1597C13.1213 14.3071 13.0232 14.4384 12.9008 14.5447C12.7785 14.6509 12.6347 14.7296 12.4793 14.7753C12.3239 14.8211 12.1604 14.8329 12 14.81Z" fill="#0F1621"/>
</svg>
