<svg width="24" height="24" viewBox="0 0 24 24" fill="none" xmlns="http://www.w3.org/2000/svg">
<path d="M20 3.5C20 3.10218 19.842 2.72064 19.5607 2.43934C19.2794 2.15804 18.8978 2 18.5 2H5.5C5.10218 2 4.72064 2.15804 4.43934 2.43934C4.15804 2.72064 4 3.10218 4 3.5V17H8L3 22H6L10.5 17H13.5L18 22H21L16 17H20V3.5ZM6 4H11V11H6V4ZM7.5 15.5C7.10218 15.5 6.72064 15.342 6.43934 15.0607C6.15804 14.7794 6 14.3978 6 14C6 13.6022 6.15804 13.2206 6.43934 12.9393C6.72064 12.658 7.10218 12.5 7.5 12.5C7.89782 12.5 8.27936 12.658 8.56066 12.9393C8.84196 13.2206 9 13.6022 9 14C9 14.3978 8.84196 14.7794 8.56066 15.0607C8.27936 15.342 7.89782 15.5 7.5 15.5ZM18 14C18 14.3978 17.842 14.7794 17.5607 15.0607C17.2794 15.342 16.8978 15.5 16.5 15.5C16.1022 15.5 15.7206 15.342 15.4393 15.0607C15.158 14.7794 15 14.3978 15 14C15 13.6022 15.158 13.2206 15.4393 12.9393C15.7206 12.658 16.1022 12.5 16.5 12.5C16.8978 12.5 17.2794 12.658 17.5607 12.9393C17.842 13.2206 18 13.6022 18 14ZM18 11H13V4H18V11Z" fill="#0F1621"/>
</svg>
