<svg width="24" height="24" viewBox="0 0 24 24" fill="none" xmlns="http://www.w3.org/2000/svg">
<path d="M21.5 11H19.78L18.78 8.7C18.5676 8.20253 18.2156 7.77725 17.7666 7.47557C17.3176 7.17388 16.7909 7.0087 16.25 7H15.44L15.06 4.1C15.0335 3.80695 14.901 3.53362 14.6875 3.33116C14.474 3.12869 14.194 3.01096 13.9 3H10.1C9.80596 3.01096 9.52599 3.12869 9.31248 3.33116C9.09896 3.53362 8.96655 3.80695 8.94 4.1L8.56 7H7.78C7.2437 7.01195 6.7223 7.17881 6.27871 7.48045C5.83511 7.7821 5.48827 8.20564 5.28 8.7L4.28 11H2.5C2.34475 11.1164 2.21875 11.2674 2.13197 11.441C2.04518 11.6146 2 11.8059 2 12C2 12.1941 2.04518 12.3854 2.13197 12.559C2.21875 12.7326 2.34475 12.8836 2.5 13H3V19C3 19.2652 3.10536 19.5196 3.29289 19.7071C3.48043 19.8946 3.73478 20 4 20H7C7.26522 20 7.51957 19.8946 7.70711 19.7071C7.89464 19.5196 8 19.2652 8 19V18H16V19C16 19.2652 16.1054 19.5196 16.2929 19.7071C16.4804 19.8946 16.7348 20 17 20H20C20.2652 20 20.5196 19.8946 20.7071 19.7071C20.8946 19.5196 21 19.2652 21 19V13H21.5C21.6552 12.8836 21.7812 12.7326 21.868 12.559C21.9548 12.3854 22 12.1941 22 12C22 11.8059 21.9548 11.6146 21.868 11.441C21.7812 11.2674 21.6552 11.1164 21.5 11ZM8 16H5.5C5.34475 15.8836 5.21875 15.7326 5.13197 15.559C5.04518 15.3854 5 15.1941 5 15C5 14.8059 5.04518 14.6146 5.13197 14.441C5.21875 14.2674 5.34475 14.1164 5.5 14H8V16ZM6 12L7.11 9.51C7.16118 9.3698 7.25151 9.24723 7.37027 9.15683C7.48903 9.06643 7.63123 9.012 7.78 9H16.25C16.4002 9.01135 16.544 9.06539 16.6644 9.15575C16.7849 9.24611 16.8771 9.36902 16.93 9.51L18 12H6ZM18.5 16H16V14H18.5C18.6552 14.1164 18.7812 14.2674 18.868 14.441C18.9548 14.6146 19 14.8059 19 15C19 15.1941 18.9548 15.3854 18.868 15.559C18.7812 15.7326 18.6552 15.8836 18.5 16Z" fill="#0F1621"/>
</svg>
