<svg width="24" height="24" viewBox="0 0 24 24" fill="none" xmlns="http://www.w3.org/2000/svg">
<path d="M11.4999 18C12.6866 18 13.8467 17.6481 14.8334 16.9888C15.8201 16.3295 16.5891 15.3925 17.0432 14.2961C17.4974 13.1997 17.6162 11.9933 17.3847 10.8295C17.1531 9.66557 16.5817 8.59647 15.7426 7.75736C14.9035 6.91824 13.8344 6.3468 12.6705 6.11529C11.5066 5.88378 10.3002 6.0026 9.20385 6.45672C8.10749 6.91085 7.17042 7.67988 6.51113 8.66658C5.85184 9.65327 5.49995 10.8133 5.49995 12C5.49995 13.5913 6.13209 15.1174 7.25731 16.2426C8.38253 17.3679 9.90865 18 11.4999 18ZM10.9999 8H12.9999V16H10.9999V10.5H8.99995L10.9999 8ZM21.9999 18V19C21.9999 19.7956 21.6839 20.5587 21.1213 21.1213C20.5587 21.6839 19.7956 22 18.9999 22H4.99995C4.2043 22 3.44124 21.6839 2.87863 21.1213C2.31602 20.5587 1.99995 19.7956 1.99995 19V18C1.99491 17.2614 2.26249 16.547 2.75146 15.9934C3.24043 15.4399 3.91641 15.0862 4.64995 15C4.96444 15.7321 5.39684 16.4078 5.92995 17H3.99995V20H19.9999V17H17.0699C17.6086 16.408 18.0476 15.7326 18.3699 15H18.9999C19.7956 15 20.5587 15.3161 21.1213 15.8787C21.6839 16.4413 21.9999 17.2043 21.9999 18ZM11.4999 4.5C11.3067 4.48978 11.1131 4.48978 10.9199 4.5C11.5333 3.63423 12.4061 2.986 13.4121 2.64907C14.4182 2.31214 15.5054 2.30398 16.5164 2.62577C17.5274 2.94756 18.4099 3.58261 19.0361 4.43907C19.6623 5.29554 19.9999 6.32901 19.9999 7.39C19.9967 8.53913 19.5896 9.65056 18.8499 10.53C18.5102 8.83042 17.5924 7.30096 16.2524 6.20165C14.9125 5.10234 13.2331 4.50105 11.4999 4.5Z" fill="#0F1621"/>
</svg>
