<svg width="24" height="24" viewBox="0 0 24 24" fill="none" xmlns="http://www.w3.org/2000/svg">
<path d="M16.31 17C16.7196 17.0007 17.125 16.9176 17.5012 16.7557C17.8774 16.5938 18.2165 16.3566 18.4976 16.0587C18.7786 15.7607 18.9957 15.4084 19.1355 15.0234C19.2752 14.6384 19.3346 14.2288 19.31 13.82L18.67 4.82C18.6241 4.05596 18.2878 3.33836 17.7301 2.81412C17.1724 2.28987 16.4354 1.99863 15.67 2H8.32C7.55458 1.99863 6.81757 2.28987 6.25987 2.81412C5.70216 3.33836 5.36592 4.05596 5.32 4.82L4.68 13.82C4.65542 14.2288 4.71483 14.6384 4.85455 15.0234C4.99427 15.4084 5.21135 15.7607 5.49241 16.0587C5.77348 16.3566 6.11257 16.5938 6.4888 16.7557C6.86503 16.9176 7.27042 17.0007 7.68 17H8L3 22H6L10.5 17H13.5L18 22H21L16 17H16.31ZM9.5 14.5H7.71C7.57347 14.5003 7.43834 14.4725 7.31293 14.4186C7.18752 14.3646 7.07449 14.2855 6.9808 14.1862C6.88712 14.0869 6.81476 13.9695 6.76818 13.8411C6.72161 13.7128 6.70181 13.5763 6.71 13.44V12.94C6.72531 12.6853 6.83739 12.4461 7.02329 12.2714C7.20919 12.0966 7.45486 11.9995 7.71 12H9.5V14.5ZM7 9.5L7.29 5C7.30217 4.73871 7.41144 4.49137 7.5964 4.30641C7.78136 4.12144 8.02871 4.01218 8.29 4H15.61C15.88 3.9997 16.1398 4.10343 16.3353 4.28966C16.5309 4.47589 16.6471 4.73028 16.66 5L17 9.5H7ZM14.5 14.5V12H16.25C16.5051 11.9995 16.7508 12.0966 16.9367 12.2714C17.1226 12.4461 17.2347 12.6853 17.25 12.94V13.44C17.2582 13.5763 17.2384 13.7128 17.1918 13.8411C17.1452 13.9695 17.0729 14.0869 16.9792 14.1862C16.8855 14.2855 16.7725 14.3646 16.6471 14.4186C16.5217 14.4725 16.3865 14.5003 16.25 14.5H14.5Z" fill="#0F1621"/>
</svg>
