<svg width="16" height="16" viewBox="0 0 16 16" fill="none" xmlns="http://www.w3.org/2000/svg">
<path d="M6 4.5C6 5.05228 5.55228 5.5 5 5.5C4.44772 5.5 4 5.05228 4 4.5V3.5C4 2.94772 4.44772 2.5 5 2.5C5.55228 2.5 6 2.94772 6 3.5V4.5ZM5 1C3.61929 1 2.5 2.11929 2.5 3.5V4.5C2.5 5.88071 3.61929 7 5 7C6.38071 7 7.5 5.88071 7.5 4.5V3.5C7.5 2.11929 6.38071 1 5 1Z" fill="#0F1621"/>
<path d="M7.5 11V15H9V11C9 9.34315 7.65685 8 6 8H4C2.34315 8 1 9.34315 1 11V15H2.5V11C2.5 10.1716 3.17157 9.5 4 9.5H6C6.82843 9.5 7.5 10.1716 7.5 11Z" fill="#0F1621"/>
<path d="M11.25 7.75V10H12.75V7.75H15V6.25H12.75V4H11.25V6.25H9V7.75H11.25Z" fill="#0F1621"/>
</svg>
