<svg width="24" height="24" viewBox="0 0 24 24" fill="none" xmlns="http://www.w3.org/2000/svg">
<path d="M9.5 7.5C9.5 8.32843 8.82843 9 8 9C7.17157 9 6.5 8.32843 6.5 7.5V5.5C6.5 4.67157 7.17157 4 8 4C8.82843 4 9.5 4.67157 9.5 5.5V7.5ZM8 2C6.067 2 4.5 3.567 4.5 5.5V7.5C4.5 9.433 6.067 11 8 11C9.933 11 11.5 9.433 11.5 7.5V5.5C11.5 3.567 9.933 2 8 2Z" fill="#0F1621"/>
<path d="M16.5 12V15.5H18.5V12H22V10H18.5V6.5H16.5V10H13V12H16.5Z" fill="#0F1621"/>
<path d="M6 15H10C11.1046 15 12 15.8954 12 17V22H14V17C14 14.7909 12.2091 13 10 13H6C3.79086 13 2 14.7909 2 17V22H4V17C4 15.8954 4.89543 15 6 15Z" fill="#0F1621"/>
</svg>
