<svg width="24" height="24" viewBox="0 0 24 24" fill="none" xmlns="http://www.w3.org/2000/svg">
<path d="M19.4999 4.5H21.9999V6.5H19.4999V9H17.4999V6.5H14.9999V4.5H17.4999V2H19.4999V4.5Z" fill="#0F1621"/>
<path d="M11.9983 18.9999H10.0003V16.9999H11.9983V18.9999Z" fill="black"/>
<path d="M12.0003 14.9999H10.0003V9.99994H12.0003V14.9999Z" fill="black"/>
<path fill-rule="evenodd" clip-rule="evenodd" d="M8.83914 5.39252C9.79263 3.73633 12.2081 3.73617 13.1614 5.39252L13.2513 5.56342L19.4554 18.413C20.2566 20.0729 19.0465 21.9997 17.2034 21.9999H4.79715C2.95387 21.9999 1.7439 20.073 2.5452 18.413L8.7493 5.56342L8.83914 5.39252ZM11.4505 6.43256C11.2685 6.05611 10.7322 6.05626 10.5501 6.43256L4.34696 19.2822C4.19664 19.5935 4.39978 19.9517 4.72977 19.9951L4.79715 19.9999H17.2034C17.5719 19.9997 17.8138 19.6141 17.6536 19.2822L11.4505 6.43256Z" fill="black"/>
</svg>
