<svg width="24" height="24" viewBox="0 0 24 24" fill="none" xmlns="http://www.w3.org/2000/svg">
<path d="M10.9999 9V14H12.9999V9H10.9999ZM10.9999 16V18H12.9999V16H10.9999ZM13.7899 3.11L21.7899 19.11C21.9414 19.4148 22.0126 19.7533 21.9967 20.0933C21.9808 20.4334 21.8784 20.7637 21.6991 21.0531C21.5199 21.3425 21.2698 21.5814 20.9724 21.7471C20.675 21.9128 20.3403 21.9998 19.9999 22H3.99992C3.65951 21.9998 3.32479 21.9128 3.02743 21.7471C2.73008 21.5814 2.47994 21.3425 2.3007 21.0531C2.12146 20.7637 2.01904 20.4334 2.00316 20.0933C1.98727 19.7533 2.05844 19.4148 2.20992 19.11L10.2099 3.11C10.3758 2.77719 10.6312 2.49721 10.9474 2.30151C11.2636 2.10581 11.6281 2.00214 11.9999 2.00214C12.3718 2.00214 12.7363 2.10581 13.0525 2.30151C13.3687 2.49721 13.624 2.77719 13.7899 3.11Z" fill="#0F1621"/>
</svg>
