<svg width="16" height="16" viewBox="0 0 16 16" fill="none" xmlns="http://www.w3.org/2000/svg">
<path d="M13 3H15V4.5H13V6.5H11.5V4.5H9.5V3H11.5V1H13V3Z" fill="#0F1621"/>
<path d="M5.48176 3.71393C6.16838 2.50196 7.96895 2.54231 8.58137 3.83502L12.6868 12.501C13.2365 13.6619 12.3892 14.9998 11.1048 15.0001H2.89582C1.61115 15.0001 0.763942 13.662 1.31379 12.501L5.41926 3.83502L5.48176 3.71393ZM6.00031 11.5001V13.5001H8.00031V11.5001H6.00031ZM2.64973 13.1973C2.64917 13.1999 2.64922 13.2026 2.64875 13.2051C2.65262 13.1843 2.65956 13.1631 2.66926 13.1426L2.64973 13.1973ZM6.00031 6.00006V10.0001H8.00031V6.00006H6.00031Z" fill="#0F1621"/>
</svg>
