<svg width="24" height="24" viewBox="0 0 24 24" fill="none" xmlns="http://www.w3.org/2000/svg">
<path d="M12 22C13.9778 22 15.9112 21.4135 17.5557 20.3147C19.2002 19.2159 20.4819 17.6541 21.2388 15.8268C21.9957 13.9996 22.1937 11.9889 21.8079 10.0491C21.422 8.10929 20.4696 6.32746 19.0711 4.92894C17.6725 3.53041 15.8907 2.578 13.9509 2.19215C12.0111 1.8063 10.0004 2.00433 8.17316 2.76121C6.3459 3.51809 4.78412 4.79981 3.6853 6.4443C2.58649 8.0888 2 10.0222 2 12C2 13.3132 2.25866 14.6136 2.7612 15.8268C3.26375 17.0401 4.00035 18.1425 4.92893 19.0711C5.85752 19.9997 6.95991 20.7363 8.17317 21.2388C9.38642 21.7413 10.6868 22 12 22ZM12 4.00001C13.5822 4.00001 15.129 4.4692 16.4446 5.34825C17.7602 6.2273 18.7855 7.47673 19.391 8.93854C19.9965 10.4003 20.155 12.0089 19.8463 13.5607C19.5376 15.1126 18.7757 16.538 17.6569 17.6569C16.538 18.7757 15.1126 19.5376 13.5607 19.8463C12.0089 20.155 10.4003 19.9965 8.93853 19.391C7.47672 18.7855 6.2273 17.7602 5.34824 16.4446C4.46919 15.129 4 13.5823 4 12C4 9.87827 4.84285 7.84344 6.34314 6.34315C7.84343 4.84286 9.87827 4.00001 12 4.00001ZM7.89 15.12L6.48 13.7L12 8.18001L17.52 13.7L16.11 15.12L12 11L7.89 15.12Z" fill="#0F1621"/>
</svg>
