<svg width="16" height="16" viewBox="0 0 16 16" fill="none" xmlns="http://www.w3.org/2000/svg">
<path d="M8.00002 14.67C9.31922 14.67 10.6088 14.2788 11.7057 13.5459C12.8025 12.813 13.6575 11.7713 14.1623 10.5525C14.6671 9.3337 14.7992 7.99259 14.5419 6.69874C14.2845 5.40488 13.6492 4.2164 12.7164 3.28359C11.7836 2.35077 10.5951 1.71551 9.30127 1.45815C8.00742 1.20079 6.6663 1.33288 5.44752 1.83771C4.22873 2.34255 3.18702 3.19746 2.45411 4.29434C1.72121 5.39121 1.33002 6.68079 1.33002 7.99999C1.33002 8.87591 1.50254 9.74325 1.83774 10.5525C2.17294 11.3617 2.66425 12.097 3.28362 12.7164C3.90298 13.3358 4.63828 13.8271 5.44752 14.1623C6.25676 14.4975 7.1241 14.67 8.00002 14.67ZM8.00002 5.16999L12.24 9.40999L10.83 10.83L8.00002 7.99999L5.17002 10.83L3.76002 9.40999L8.00002 5.16999Z" fill="#0F1621"/>
</svg>
