<svg width="16" height="16" viewBox="0 0 16 16" fill="none" xmlns="http://www.w3.org/2000/svg">
<path d="M15 4V9C15 9.53043 14.7893 10.0391 14.4142 10.4142C14.0391 10.7893 13.5304 11 13 11H10L5.8 14.9C5.72572 14.9557 5.63738 14.9896 5.5449 14.998C5.45242 15.0063 5.35945 14.9887 5.27639 14.9472C5.19334 14.9057 5.12349 14.8419 5.07467 14.7629C5.02586 14.6839 5 14.5929 5 14.5V11H3C2.46957 11 1.96086 10.7893 1.58579 10.4142C1.21071 10.0391 1 9.53043 1 9V4C1 3.46957 1.21071 2.96086 1.58579 2.58579C1.96086 2.21071 2.46957 2 3 2H13C13.5304 2 14.0391 2.21071 14.4142 2.58579C14.7893 2.96086 15 3.46957 15 4Z" fill="#0F1621"/>
</svg>
