<svg width="24" height="24" viewBox="0 0 24 24" fill="none" xmlns="http://www.w3.org/2000/svg">
<path d="M12 2C10.0222 2 8.08879 2.58649 6.4443 3.6853C4.79981 4.78412 3.51809 6.3459 2.76121 8.17317C2.00433 10.0004 1.8063 12.0111 2.19215 13.9509C2.578 15.8907 3.53041 17.6725 4.92894 19.0711C6.32746 20.4696 8.10929 21.422 10.0491 21.8079C11.9889 22.1937 13.9996 21.9957 15.8268 21.2388C17.6541 20.4819 19.2159 19.2002 20.3147 17.5557C21.4135 15.9112 22 13.9778 22 12C22 10.6868 21.7413 9.38642 21.2388 8.17317C20.7363 6.95991 19.9997 5.85752 19.0711 4.92893C18.1425 4.00035 17.0401 3.26375 15.8268 2.7612C14.6136 2.25866 13.3132 2 12 2ZM11.52 15.78C11.427 15.8737 11.3164 15.9481 11.1946 15.9989C11.0727 16.0497 10.942 16.0758 10.81 16.0758C10.678 16.0758 10.5473 16.0497 10.4254 15.9989C10.3036 15.9481 10.193 15.8737 10.1 15.78L7 12.68L8.41 11.27L10.81 13.66L16.47 8L17.88 9.42L11.52 15.78Z" fill="#0F1621"/>
</svg>
