<svg width="16" height="16" viewBox="0 0 16 16" fill="none" xmlns="http://www.w3.org/2000/svg">
<path d="M11.8928 10.4728C12.7634 9.24628 13.1415 7.73752 12.9524 6.24538C12.7632 4.75324 12.0205 3.38657 10.8714 2.41609C9.72231 1.44561 8.25062 0.942099 6.74787 1.0053C5.24512 1.06851 3.82091 1.69382 2.75736 2.75736C1.69382 3.82091 1.06851 5.24512 1.0053 6.74787C0.942099 8.25062 1.44561 9.72231 2.41609 10.8714C3.38657 12.0205 4.75324 12.7632 6.24538 12.9524C7.73752 13.1415 9.24628 12.7634 10.4728 11.8928L13.5928 15.0028L15.0028 13.5928L11.8928 10.4728ZM10.0028 8.00281H8.00281V10.0028H6.00281V8.00281H4.00281V6.00281H6.00281V4.00281H8.00281V6.00281H10.0028V8.00281Z" fill="#0F1621"/>
</svg>
