<svg width="16" height="16" viewBox="0 0 16 16" fill="none" xmlns="http://www.w3.org/2000/svg">
<path d="M2.13996 11L0.999955 13.8C0.961614 13.9654 0.966012 14.1378 1.01273 14.301C1.05946 14.4643 1.14697 14.6129 1.26701 14.7329C1.38706 14.853 1.5357 14.9405 1.69892 14.9872C1.86214 15.0339 2.03457 15.0383 2.19996 15L4.99996 13.86L12.32 6.54L9.45996 3.71L2.13996 11ZM14.71 2.71L13.29 1.29C13.1026 1.10375 12.8491 0.999207 12.585 0.999207C12.3208 0.999207 12.0673 1.10375 11.88 1.29L11.17 2L14 4.83L14.71 4.12C14.8962 3.93264 15.0007 3.67918 15.0007 3.415C15.0007 3.15081 14.8962 2.89736 14.71 2.71Z" fill="#0F1621"/>
</svg>
