<svg width="16" height="16" viewBox="0 0 16 16" fill="none" xmlns="http://www.w3.org/2000/svg">
<path d="M8 1C6.61553 1 5.26216 1.41054 4.11101 2.17971C2.95987 2.94888 2.06266 4.04213 1.53285 5.32122C1.00303 6.6003 0.86441 8.00776 1.13451 9.36563C1.4046 10.7235 2.07129 11.9708 3.05026 12.9497C4.02922 13.9287 5.2765 14.5954 6.63437 14.8655C7.99224 15.1356 9.3997 14.997 10.6788 14.4672C11.9579 13.9373 13.0511 13.0401 13.8203 11.889C14.5895 10.7378 15 9.38447 15 8C15 6.14348 14.2625 4.36301 12.9497 3.05025C11.637 1.7375 9.85652 1 8 1ZM6.94 11.18L4.89 11.68C4.81282 11.6898 4.73443 11.6818 4.66082 11.6566C4.58722 11.6314 4.52035 11.5897 4.46534 11.5347C4.41033 11.4796 4.36864 11.4128 4.34344 11.3392C4.31825 11.2656 4.31024 11.1872 4.32 11.11L4.82 9.11L7.65 6.23L9.77 8.35L6.94 11.18ZM11.94 6.23L11.23 6.94L9.06 4.82L9.77 4.11C9.95737 3.92375 10.2108 3.81921 10.475 3.81921C10.7392 3.81921 10.9926 3.92375 11.18 4.11L11.89 4.82C12.0763 5.00736 12.1808 5.26081 12.1808 5.525C12.1808 5.78919 12.0763 6.04264 11.89 6.23H11.94Z" fill="#0F1621"/>
</svg>
