<svg width="24" height="24" viewBox="0 0 24 24" fill="none" xmlns="http://www.w3.org/2000/svg">
<path d="M12 4C13.8507 4.00146 15.6437 4.64457 17.0735 5.81976C18.5033 6.99496 19.4813 8.62953 19.8411 10.445C20.2008 12.2605 19.92 14.1445 19.0464 15.7761C18.1728 17.4077 16.7605 18.686 15.0502 19.3931C13.3398 20.1002 11.4372 20.1924 9.66647 19.654C7.89575 19.1156 6.36647 17.98 5.33918 16.4405C4.3119 14.901 3.85016 13.053 4.03265 11.2112C4.21513 9.36946 5.03054 7.64796 6.33995 6.34C7.08181 5.5951 7.96403 5.00473 8.93557 4.60307C9.90711 4.20141 10.9487 3.99643 12 4ZM12 2C9.68637 1.99951 7.4442 2.80124 5.65548 4.26859C3.86675 5.73594 2.64216 7.77812 2.19035 10.0472C1.73855 12.3162 2.08748 14.6717 3.17771 16.7123C4.26794 18.7529 6.03199 20.3523 8.1693 21.2381C10.3066 22.1239 12.6849 22.2411 14.899 21.5699C17.1131 20.8987 19.0259 19.4805 20.3116 17.5571C21.5973 15.6336 22.1762 13.3239 21.9498 11.0214C21.7234 8.71893 20.7057 6.5662 19.07 4.93C17.195 3.05451 14.6519 2.00057 12 2ZM17 9.88C17.0937 9.78704 17.1681 9.67644 17.2188 9.55458C17.2696 9.43272 17.2958 9.30201 17.2958 9.17C17.2958 9.03799 17.2696 8.90728 17.2188 8.78542C17.1681 8.66356 17.0937 8.55296 17 8.46L15.54 7.05C15.447 6.95627 15.3364 6.88188 15.2145 6.83111C15.0927 6.78034 14.962 6.7542 14.83 6.7542C14.6979 6.7542 14.5672 6.78034 14.4454 6.83111C14.3235 6.88188 14.2129 6.95627 14.12 7.05L13.41 7.76L16.24 10.59L17 9.88ZM8.25995 16.38L11.33 15.55L14.83 12L12 9.17L8.44995 12.72L7.61995 15.79C7.6034 15.871 7.60718 15.9548 7.63097 16.034C7.65476 16.1132 7.69782 16.1852 7.75627 16.2437C7.81473 16.3021 7.88677 16.3452 7.96594 16.369C8.04512 16.3928 8.12896 16.3966 8.20995 16.38H8.25995Z" fill="#0F1621"/>
</svg>
