<svg width="24" height="24" viewBox="0 0 24 24" fill="none" xmlns="http://www.w3.org/2000/svg">
<path d="M21.7101 5.15L18.8601 2.31C18.7671 2.21628 18.6565 2.14188 18.5347 2.09111C18.4128 2.04034 18.2821 2.01421 18.1501 2.01421C18.0181 2.01421 17.8874 2.04034 17.7655 2.09111C17.6437 2.14188 17.5331 2.21628 17.4401 2.31L15.3201 4.42L19.5901 8.69L21.6701 6.61C21.7726 6.51923 21.8554 6.40837 21.9133 6.28429C21.9713 6.16021 22.0031 6.02556 22.0068 5.88868C22.0106 5.7518 21.9862 5.61561 21.9351 5.48854C21.8841 5.36148 21.8075 5.24625 21.7101 5.15ZM3.08011 16.66L2.00011 20.73C1.93831 20.9081 1.92809 21.0999 1.97062 21.2836C2.01315 21.4672 2.10671 21.635 2.2405 21.7678C2.37429 21.9005 2.54287 21.9927 2.7268 22.0338C2.91074 22.0749 3.10254 22.0632 3.28011 22L7.35011 21L18.1801 10.11L13.9101 5.84L3.08011 16.66Z" fill="#0F1621"/>
</svg>
