<svg width="24" height="24" viewBox="0 0 24 24" fill="none" xmlns="http://www.w3.org/2000/svg">
<path d="M19.0699 4.93C17.6715 3.53118 15.8897 2.57847 13.9498 2.19237C12.0099 1.80628 9.9991 2.00413 8.17167 2.76092C6.34423 3.51771 4.78226 4.79943 3.68332 6.44399C2.58437 8.08855 1.9978 10.0221 1.9978 12C1.9978 13.9779 2.58437 15.9115 3.68332 17.556C4.78226 19.2006 6.34423 20.4823 8.17167 21.2391C9.9991 21.9959 12.0099 22.1937 13.9498 21.8076C15.8897 21.4215 17.6715 20.4688 19.0699 19.07C20.9446 17.1947 21.9978 14.6516 21.9978 12C21.9978 9.34836 20.9446 6.80528 19.0699 4.93ZM11.2799 15.55L8.20994 16.38C8.12894 16.3966 8.0451 16.3928 7.96593 16.369C7.88675 16.3452 7.81471 16.3021 7.75626 16.2437C7.6978 16.1852 7.65475 16.1132 7.63096 16.034C7.60717 15.9548 7.60338 15.871 7.61994 15.79L8.44994 12.72L11.9999 9.17L14.8299 12L11.2799 15.55ZM16.9999 9.88L16.2899 10.59L13.4099 7.76L14.1199 7.05C14.2129 6.95628 14.3235 6.88188 14.4454 6.83111C14.5672 6.78034 14.6979 6.75421 14.8299 6.75421C14.9619 6.75421 15.0927 6.78034 15.2145 6.83111C15.3364 6.88188 15.447 6.95628 15.5399 7.05L16.9999 8.46C17.0937 8.55297 17.1681 8.66357 17.2188 8.78543C17.2696 8.90729 17.2957 9.03799 17.2957 9.17C17.2957 9.30202 17.2696 9.43272 17.2188 9.55458C17.1681 9.67644 17.0937 9.78704 16.9999 9.88Z" fill="#0F1621"/>
</svg>
