<svg width="24" height="24" viewBox="0 0 24 24" fill="none" xmlns="http://www.w3.org/2000/svg">
<path d="M7 6H5V2H7V6ZM7 8H5V10H7V8ZM15 3H11V5H15C16.0609 5 17.0783 5.42143 17.8284 6.17157C18.5786 6.92172 19 7.93913 19 9V12C19 13.0609 18.5786 14.0783 17.8284 14.8284C17.0783 15.5786 16.0609 16 15 16H6.83L9.45 13.38L8 12L3 17L8 22L9.41 20.58L6.83 18H15C16.5913 18 18.1174 17.3679 19.2426 16.2426C20.3679 15.1174 21 13.5913 21 12V9C21 7.4087 20.3679 5.88258 19.2426 4.75736C18.1174 3.63214 16.5913 3 15 3Z" fill="#0F1621"/>
</svg>
