<svg width="16" height="16" viewBox="0 0 16 16" fill="none" xmlns="http://www.w3.org/2000/svg">
<path d="M3 5H1V1H3V5ZM3 6H1V8H3V6ZM10.5 3H5V5H10.5C11.163 5 11.7989 5.26339 12.2678 5.73223C12.7366 6.20107 13 6.83696 13 7.5C13 8.16304 12.7366 8.79893 12.2678 9.26777C11.7989 9.73661 11.163 10 10.5 10H6.83L7.91 8.91L6.5 7.5L3 11L6.5 14.5L7.91 13.09L6.83 12H10.5C11.6935 12 12.8381 11.5259 13.682 10.682C14.5259 9.83807 15 8.69347 15 7.5C15 6.30653 14.5259 5.16193 13.682 4.31802C12.8381 3.47411 11.6935 3 10.5 3Z" fill="#0F1621"/>
</svg>
