<svg width="24" height="24" viewBox="0 0 24 24" fill="none" xmlns="http://www.w3.org/2000/svg">
<path d="M7.51481 18.3794L4.7574 21.1368L2 18.3794H7.51481Z" fill="#0E1520"/>
<path d="M11.5487 12.1171C10.9704 11.433 10.9986 11.0663 11.3583 10.7067C11.7884 10.2765 12.2327 10.4598 12.7264 10.9394L11.5487 12.1171ZM17.4513 4.61357C17.8815 4.18339 18.3258 4.36675 18.8195 4.84629L17.6417 6.02401C17.0635 5.33995 17.0917 4.97323 17.4513 4.61357ZM21.0127 5.8195C20.4767 6.61639 19.5458 7.92105 18.5726 6.94079L21.048 4.46548C20.8293 4.2257 20.6601 4.02824 20.5261 3.9013C19.1932 2.56139 17.6911 2.54728 16.5063 3.71794C15.7165 4.50074 15.512 5.40342 15.7447 6.25673L14.969 5.37521C14.7433 5.50215 13.7913 6.33431 14.5035 7.6037L13.615 6.86322L12.4372 8.04093L14.031 9.63473C12.8039 8.66153 11.4781 8.75321 10.4133 9.81809C9.27786 10.9535 9.35543 12.3287 10.2087 13.4641L10.0395 13.2948C8.91114 12.1594 7.69111 12.5543 7.08463 13.1608C6.61918 13.6263 6.33004 14.268 6.44993 14.7194L4.00987 12.2793L2.70522 13.5698L7.51481 18.3794L10.0959 18.3794L8.36107 16.6446C7.45134 15.7208 7.43724 15.2271 7.87447 14.7899C8.2976 14.3667 8.79831 14.6277 9.67278 15.5021L11.3865 17.2158L12.677 15.9253L11.055 14.3033C12.2257 15.1918 13.6291 15.2342 14.8843 13.9859C14.8914 13.9789 14.8984 13.9718 14.9055 13.9648C15.6742 13.2525 15.8999 12.5684 15.8999 12.5684L14.9267 11.9126C14.3907 12.7165 13.4598 14.0141 12.4866 13.0409L14.969 10.5586L16.5134 12.103L17.8604 10.756L15.9281 8.82373C15.0254 7.92105 15.5614 7.07478 15.9351 6.75038C16.1114 7.12415 16.3653 7.48381 16.6968 7.80821C17.945 9.0635 19.567 9.31738 20.9845 7.89989C20.9915 7.89284 20.9986 7.88579 21.0056 7.87873C21.7743 7.16646 22 6.4824 22 6.4824L21.0127 5.8195Z" fill="#0E1520"/>
</svg>
