<svg width="24" height="24" viewBox="0 0 24 24" fill="none" xmlns="http://www.w3.org/2000/svg">
<path d="M13.0744 5.07479C12.7188 5.02876 12.36 5.0037 12 5C5.83 5 2 12 2 12C2.41034 12.9259 2.94372 13.7887 3.58339 14.5658L5.00311 13.1461C4.74365 12.817 4.50537 12.471 4.29 12.11C5.33418 10.6078 7.80461 7.57037 11.0788 7.07039L13.0744 5.07479Z" fill="#0F1621"/>
<path fill-rule="evenodd" clip-rule="evenodd" d="M11.9776 9.00008C11.985 9.00003 11.9925 9 12 9L13.78 7.24C13.7689 7.23698 13.7578 7.23399 13.7466 7.23103L16.2519 4.72576L19 2L20.37 3.41L14 9.79C14.4434 10.197 14.7541 10.7279 14.8918 11.3138C15.0295 11.8997 14.9878 12.5134 14.7721 13.0753C14.5564 13.6371 14.1767 14.1211 13.6824 14.4644C13.188 14.8076 12.6018 14.9943 12 15C11.5823 14.9964 11.17 14.9055 10.7894 14.7333C10.4089 14.5611 10.0685 14.3114 9.79 14L3.41 20.41L2 19L5 16C4.99596 15.9966 4.99193 15.9932 4.98789 15.9898L7.05626 13.9214L9 12C9 11.9925 9.00003 11.985 9.00008 11.9776L11.9776 9.00008ZM11.5569 12.8877C11.6939 12.9589 11.8456 12.9973 12 13C12.2652 13 12.5196 12.8946 12.7071 12.7071C12.8946 12.5196 13 12.2652 13 12C12.9973 11.8456 12.9589 11.6939 12.8877 11.5569C12.8166 11.4198 12.7147 11.3011 12.59 11.21L11.21 12.59C11.3011 12.7147 11.4198 12.8166 11.5569 12.8877Z" fill="#0F1621"/>
<path d="M17.36 9.22L18.79 7.79C20.1686 8.92864 21.267 10.3691 22 12C22 12 18.06 19 11.94 19C10.7074 18.9934 9.49031 18.7241 8.37 18.21L9.87 16.71C10.5495 16.8676 11.2428 16.958 11.94 16.98H12.43C15.88 16.69 18.57 13.46 19.69 11.88C19.4268 11.4349 19.1256 11.0134 18.79 10.62C18.3534 10.1141 17.875 9.64579 17.36 9.22Z" fill="#0F1621"/>
</svg>
