<svg width="24" height="24" viewBox="0 0 24 24" fill="none" xmlns="http://www.w3.org/2000/svg">
<path d="M10.1872 16.7866C10.7681 16.9235 11.3731 16.9999 12 16.9999C12.6269 16.9999 13.2319 16.9235 13.8128 16.7866L14.54 19.2799L16.46 18.7199L15.6984 16.1085C16.5852 15.6784 17.3952 15.1268 18.1174 14.5314L19.7929 16.207L21.2071 14.7927L19.5777 13.1633C21.1243 11.5324 22 9.99989 22 9.99989L20.1926 9.09619C20.1001 9.24845 19.8976 9.57111 19.5979 9.99086L19.6044 9.99989C19.2813 10.4476 18.8528 10.9963 18.3327 11.5655C16.8588 13.1953 14.6324 14.9999 12 14.9999C9.3676 14.9999 7.14122 13.1953 5.66725 11.5655C5.14715 10.9963 4.71868 10.4476 4.39556 9.99989L4.40209 9.99086C4.1024 9.57111 3.89989 9.24845 3.8074 9.09619L2 9.99989C2 9.99989 2.87573 11.5324 4.42232 13.1633L2.79291 14.7927L4.20712 16.207L5.88262 14.5315C6.60481 15.1268 7.41486 15.6784 8.30167 16.1085L7.54001 18.7199L9.46001 19.2799L10.1872 16.7866Z" fill="#0F1621"/>
</svg>
