<svg width="16" height="16" viewBox="0 0 16 16" fill="none" xmlns="http://www.w3.org/2000/svg">
<path d="M12.3137 1L13.7279 2.41421L2.41423 13.7279L1.00001 12.3137L12.3137 1Z" fill="#0E1520"/>
<path d="M8.20985 3.00387C8.14035 3.0013 8.0704 3 8 3C3.68 3 1 8 1 8C1 8 1.30658 8.57412 1.88045 9.33327L8.20985 3.00387Z" fill="#0E1520"/>
<path d="M8 11C7.77641 11 7.55471 10.975 7.33882 10.9262L5.73225 12.5328C6.42449 12.8219 7.18267 13 8 13C12.33 13 15 8 15 8C15 8 14.2728 6.62265 12.9513 5.31376L10.9262 7.33882C10.975 7.55471 11 7.77641 11 8C11 8.79565 10.6839 9.55871 10.1213 10.1213C9.55871 10.6839 8.79565 11 8 11Z" fill="#0E1520"/>
</svg>
