<svg width="16" height="16" viewBox="0 0 16 16" fill="none" xmlns="http://www.w3.org/2000/svg">
<path d="M13.1696 6.08496L14.9999 7.00014C14.9923 7.01369 14.4463 7.98414 13.4803 9.06643L14.707 10.2932L13.2928 11.7074L12.0286 10.4432C11.6699 10.7255 11.283 10.989 10.8705 11.2161L11.4594 13.2181L9.54063 13.7825L8.98917 11.9075C8.66907 11.9674 8.3391 12 8 12C7.66089 12 7.3309 11.9674 7.01078 11.9075L6.4593 13.7825L4.54058 13.2181L5.12944 11.216C4.71697 10.989 4.3301 10.7255 3.97131 10.4431L2.70704 11.7074L1.29284 10.2932L2.51965 9.06637C1.5524 7.98272 1.00628 7.01119 1.00005 7.0001L2.83028 6.08498C3.01078 6.39927 3.20592 6.70306 3.41329 6.99305L3.40802 7C3.47201 7.08447 3.54001 7.17195 3.61188 7.26162C4.84628 8.87631 6.4601 10.0002 7.99991 10.0002C9.53816 10.0002 11.1503 8.87858 12.3842 7.26652C12.4575 7.17514 12.5268 7.08601 12.592 7L12.5866 6.99292C12.794 6.70297 12.9891 6.39921 13.1696 6.08496Z" fill="#0F1621"/>
</svg>
