<svg width="16" height="16" viewBox="0 0 16 16" fill="none" xmlns="http://www.w3.org/2000/svg">
<path d="M13.24 5.6L11 7.84C11.0055 7.89319 11.0055 7.94681 11 8C11 8.79565 10.6839 9.55871 10.1213 10.1213C9.55871 10.6839 8.79565 11 8 11H7.84L6.14 12.7C6.73907 12.9025 7.36765 13.0039 8 13C12.29 13 15 8 15 8C14.5111 7.13271 13.9202 6.32699 13.24 5.6ZM10.13 5.88L11.24 4.76L13.59 2.42L12.17 1L9.86 3.32C9.26167 3.11232 8.63333 3.00422 8 3C3.69 3 1 8 1 8C1.50136 8.86121 2.09848 9.66297 2.78 10.39L1 12.18L2.41 13.6L10.13 5.88ZM5 8.15C4.99512 8.10012 4.99512 8.04988 5 8C5 7.20435 5.31607 6.44129 5.87868 5.87868C6.44129 5.31607 7.20435 5 8 5H8.16L5 8.15Z" fill="#0F1621"/>
</svg>
