<svg width="16" height="16" viewBox="0 0 16 16" fill="none" xmlns="http://www.w3.org/2000/svg">
<path fill-rule="evenodd" clip-rule="evenodd" d="M9 9L6.85 11.15L5.35 9.65L7 8V5H9V9ZM8 1C7.01445 0.973549 6.03837 1.19833 5.16365 1.65318C4.28894 2.10803 3.54436 2.778 3 3.6V2H1V7H6V5H4.5C4.80605 4.34649 5.30661 3.80355 5.93316 3.44552C6.5597 3.0875 7.2816 2.93189 8 3C8.94603 3.00019 9.87259 3.26877 10.6721 3.77454C11.4716 4.2803 12.1112 5.0025 12.5166 5.85726C12.922 6.71202 13.0766 7.66425 12.9624 8.60337C12.8483 9.54248 12.47 10.4299 11.8716 11.1627C11.2732 11.8954 10.4792 12.4433 9.58188 12.7428C8.68451 13.0423 7.72058 13.0811 6.80206 12.8546C5.88353 12.6282 5.0481 12.1458 4.3928 11.4634C3.73749 10.7811 3.28921 9.92692 3.1 9H1.1C1.29186 10.3292 1.86203 11.5751 2.74249 12.5892C3.62295 13.6033 4.77653 14.3427 6.06563 14.7192C7.35474 15.0957 8.72494 15.0935 10.0128 14.7127C11.3007 14.332 12.4518 13.5888 13.3289 12.5718C14.2061 11.5549 14.7721 10.3071 14.9596 8.97726C15.1471 7.64745 14.9481 6.29177 14.3864 5.07193C13.8247 3.8521 12.9239 2.8196 11.7915 2.09761C10.6591 1.37561 9.34295 0.994592 8 1Z" fill="#0F1621"/>
</svg>
