<svg width="24" height="24" viewBox="0 0 24 24" fill="none" xmlns="http://www.w3.org/2000/svg">
<path d="M13 8V13L9.35 15.86L8 14.25L11 12V8H13ZM12 2C10.4475 2 8.91642 2.36145 7.52786 3.05573C6.13931 3.75001 4.93147 4.75804 4 6V2H2V10H9V8H5.08C6.05383 6.32124 7.60472 5.05372 9.44375 4.43359C11.2828 3.81345 13.2845 3.88299 15.0761 4.62924C16.8677 5.37549 18.3269 6.74757 19.1818 8.48986C20.0368 10.2322 20.2293 12.2258 19.7234 14.0995C19.2175 15.9732 18.0478 17.5991 16.432 18.6743C14.8163 19.7495 12.8649 20.2007 10.9412 19.9438C9.01746 19.6869 7.25273 18.7395 5.97574 17.2781C4.69874 15.8166 3.99656 13.9408 4 12H2C2 13.9778 2.58649 15.9112 3.6853 17.5557C4.78412 19.2002 6.3459 20.4819 8.17317 21.2388C10.0004 21.9957 12.0111 22.1937 13.9509 21.8079C15.8907 21.422 17.6725 20.4696 19.0711 19.0711C20.4696 17.6725 21.422 15.8907 21.8079 13.9509C22.1937 12.0111 21.9957 10.0004 21.2388 8.17317C20.4819 6.3459 19.2002 4.78412 17.5557 3.6853C15.9112 2.58649 13.9778 2 12 2Z" fill="#0F1621"/>
</svg>
