<svg width="24" height="24" viewBox="0 0 24 24" fill="none" xmlns="http://www.w3.org/2000/svg">
<path d="M22 4.00001V20C22 20.5304 21.7893 21.0391 21.4142 21.4142C21.0391 21.7893 20.5304 22 20 22H4C3.46957 22 2.96086 21.7893 2.58579 21.4142C2.21071 21.0391 2 20.5304 2 20V4.00001H9.18C9.3902 3.42085 9.77363 2.92047 10.2782 2.56685C10.7827 2.21323 11.3839 2.02353 12 2.02353C12.6161 2.02353 13.2173 2.21323 13.7218 2.56685C14.2264 2.92047 14.6098 3.42085 14.82 4.00001H22ZM11 18H13V16H11V18ZM11 14H13V8.00001H11V14Z" fill="#0F1621"/>
</svg>
