<svg width="8" height="8" viewBox="0 0 8 8" fill="none" xmlns="http://www.w3.org/2000/svg">
    <path d="M1.77772 0.674122C2.43552 0.234596 3.20888 0 4 0C5.06087 0 6.07828 0.421427 6.82843 1.17157C7.57857 1.92172 8 2.93913 8 4C8 4.79113 7.76541 5.56448 7.32588 6.22228C6.88635 6.88008 6.26164 7.39277 5.53074 7.69552C4.79983 7.99827 3.99556 8.07748 3.21964 7.92314C2.44372 7.7688 1.73098 7.38784 1.17157 6.82843C0.612165 6.26902 0.231202 5.55629 0.0768607 4.78036C-0.0774802 4.00444 0.00173312 3.20017 0.304484 2.46927C0.607234 1.73836 1.11992 1.11365 1.77772 0.674122ZM5 1H3V3H5V1ZM5 4H3V7H5V4Z" fill="#0E1520" />
</svg>
