<svg width="16" height="16" viewBox="0 0 16 16" fill="none" xmlns="http://www.w3.org/2000/svg">
<path d="M7.99988 1.00006C6.61541 1.00006 5.26203 1.4106 4.11089 2.17977C2.95975 2.94894 2.06254 4.04219 1.53272 5.32128C1.00291 6.60036 0.864288 8.00783 1.13438 9.36569C1.40448 10.7236 2.07117 11.9708 3.05013 12.9498C4.0291 13.9288 5.27638 14.5955 6.63425 14.8656C7.99212 15.1357 9.39958 14.997 10.6787 14.4672C11.9577 13.9374 13.051 13.0402 13.8202 11.8891C14.5893 10.7379 14.9999 9.38453 14.9999 8.00006C14.9999 6.14355 14.2624 4.36307 12.9496 3.05031C11.6369 1.73756 9.8564 1.00006 7.99988 1.00006V1.00006ZM7.99988 3.00006C8.98584 3.00083 9.94956 3.29307 10.7699 3.84006L3.83988 10.7701C3.33883 10.0171 3.05139 9.14236 3.00818 8.23898C2.96496 7.33559 3.16759 6.43739 3.59447 5.64006C4.02136 4.84272 4.65652 4.1761 5.43231 3.7112C6.2081 3.2463 7.09546 3.00053 7.99988 3.00006V3.00006ZM7.99988 13.0001C7.02517 12.9964 6.07279 12.7079 5.25988 12.1701L12.1699 5.26006C12.6634 6.01334 12.9443 6.88592 12.9829 7.78564C13.0215 8.68535 12.8164 9.57879 12.3893 10.3716C11.9622 11.1644 11.3289 11.8271 10.5562 12.2898C9.78364 12.7524 8.90042 12.9978 7.99988 13.0001V13.0001Z" fill="#0F1621"/>
</svg>
