<svg width="24" height="24" viewBox="0 0 24 24" fill="none" xmlns="http://www.w3.org/2000/svg">
<path d="M2 12H4C4 10.4178 4.46919 8.87103 5.34824 7.55544C6.22729 6.23985 7.47672 5.21447 8.93853 4.60896C10.4003 4.00346 12.0089 3.84504 13.5607 4.15372C15.1126 4.4624 16.538 5.22433 17.6569 6.34315C18.7757 7.46197 19.5376 8.88743 19.8463 10.4393C20.155 11.9911 19.9965 13.5997 19.391 15.0615C18.7855 16.5233 17.7602 17.7727 16.4446 18.6518C15.129 19.5308 13.5823 20 12 20V22C13.9778 22 15.9112 21.4135 17.5557 20.3147C19.2002 19.2159 20.4819 17.6541 21.2388 15.8268C21.9957 13.9996 22.1937 11.9889 21.8079 10.0491C21.422 8.10929 20.4696 6.32746 19.0711 4.92893C17.6725 3.53041 15.8907 2.578 13.9509 2.19215C12.0111 1.8063 10.0004 2.00433 8.17317 2.76121C6.3459 3.51808 4.78412 4.79981 3.6853 6.4443C2.58649 8.08879 2 10.0222 2 12Z" fill="#0F1621"/>
</svg>
