<svg width="24" height="24" viewBox="0 0 24 24" fill="none" xmlns="http://www.w3.org/2000/svg">
<path fill-rule="evenodd" clip-rule="evenodd" d="M9.49981 10.5C9.49981 9.1 10.5998 8 11.9998 8C12.0998 8 12.2998 8 12.3998 8L16.8998 3.5C15.4998 2.6 13.7998 2 11.9998 2C7.29981 2 3.49981 5.8 3.49981 10.5C3.49981 12.3 4.0998 14 5.0998 15.4L9.49981 11C9.49981 10.8 9.49981 10.6 9.49981 10.5ZM19.9998 7.6L8.49981 19L11.9998 22.5L17.9998 16.4C19.4998 14.9 20.4998 12.8 20.4998 10.5C20.4998 9.5 20.2998 8.5 19.9998 7.6ZM20.6998 4.7L4.69981 20.7L3.2998 19.3L19.2998 3.3L20.6998 4.7Z" fill="black"/>
</svg>
