<svg width="17" height="16" viewBox="0 0 17 16" fill="none" xmlns="http://www.w3.org/2000/svg">
<path d="M14.0182 1.29553L15.4324 2.70975L3.41421 14.7279L2 13.3137L14.0182 1.29553Z" fill="#0E1520"/>
<path d="M11.5719 1.60631C11.4577 1.54954 11.3415 1.49647 11.2234 1.44723C10.5189 1.15329 9.76334 1.00131 8.99998 1C7.46346 1.00265 5.99078 1.61489 4.90523 2.70231C3.81968 3.78974 3.20998 5.26348 3.20998 6.8C3.2136 7.54621 3.36578 8.28422 3.65766 8.97099C3.71163 9.09797 3.77017 9.22274 3.83313 9.34505L11.5719 1.60631Z" fill="#0E1520"/>
<path d="M8.99998 15L7.15949 13.11L14.6654 5.60408C14.7502 6.00617 14.7921 6.4171 14.79 6.83C14.7864 7.57621 14.6342 8.31422 14.3423 9.00099C14.0504 9.68775 13.6247 10.3095 13.09 10.83L8.99998 15Z" fill="#0E1520"/>
</svg>
