<svg width="24" height="24" viewBox="0 0 24 24" fill="none" xmlns="http://www.w3.org/2000/svg">
<path d="M10.6998 9.8C10.7998 9.6 10.9998 9.4 11.2998 9.2L13.2998 7.2C12.7998 7.1 12.3998 7 11.9998 7C10.0998 7 8.4998 8.6 8.4998 10.5C8.4998 10.9 8.5998 11.3 8.6998 11.7L10.6998 9.8ZM19.9998 7.6L18.3998 9.2C18.4998 9.6 18.4998 10.1 18.4998 10.5C18.4998 12.2 17.7998 13.8 16.5998 15L11.9998 19.7L9.8998 17.6L8.4998 19L11.9998 22.5L17.9998 16.4C19.5998 14.8 20.4998 12.7 20.4998 10.5C20.4998 9.5 20.2998 8.5 19.9998 7.6ZM11.9998 4C13.2998 4 14.4998 4.4 15.4998 5L16.8998 3.6C15.4998 2.6 13.7998 2 11.9998 2C7.2998 2 3.4998 5.8 3.4998 10.5C3.4998 12.3 4.0998 13.9 5.0998 15.4L6.4998 14C5.7998 13 5.4998 11.8 5.4998 10.6C5.4998 6.9 8.3998 4 11.9998 4ZM20.6998 4.7L4.6998 20.7L3.2998 19.3L19.2998 3.3L20.6998 4.7Z" fill="black"/>
</svg>
