<svg width="16" height="16" viewBox="0 0 16 16" fill="none" xmlns="http://www.w3.org/2000/svg">
<path d="M7.99494 1C8.92537 1 9.80131 1.25009 10.5614 1.68857L9.44549 2.80451C8.99617 2.60804 8.5051 2.5 7.99494 2.5C5.9703 2.5 4.25 4.20411 4.25 6.3909C4.25 6.93098 4.25596 7.3922 4.36358 7.88642L3.16473 9.08527C2.75494 8.03434 2.75 7.17531 2.75 6.3909C2.75 3.41358 5.10448 1 7.99494 1Z" fill="#0E1520"/>
<path d="M9.00322 5.74678C8.95421 5.70297 8.902 5.66247 8.84691 5.62565C8.61519 5.47082 8.34277 5.38818 8.06408 5.38818C7.69038 5.38818 7.33198 5.53664 7.06773 5.80089C6.80348 6.06513 6.65503 6.42353 6.65503 6.79724C6.65503 7.07592 6.73767 7.34835 6.8925 7.58006C6.92931 7.63516 6.96981 7.68736 7.01363 7.73637L1.75 13L3 14.25L14.25 3L13 1.75L9.00322 5.74678Z" fill="#0E1520"/>
<path d="M6.39844 13.3516L7.45921 12.2908L8 12.8474L9.39138 11.4153C10.6694 10.1102 11.2241 9.14243 11.4828 8.41992C11.5105 8.34271 11.5353 8.26702 11.5575 8.19251L13.2499 6.50007C13.2475 7.96572 13.1649 9.70579 10.4631 12.4648L8 15L6.39844 13.3516Z" fill="#0E1520"/>
</svg>
