<svg width="24" height="24" viewBox="0 0 24 24" fill="none" xmlns="http://www.w3.org/2000/svg">
<path d="M11.9928 2C13.5418 2 14.985 2.4852 16.1839 3.31609L14.7367 4.76335C13.9227 4.27669 12.9827 4 11.9928 4C9.01797 4 6.5 6.50201 6.5 9.70128C6.5 10.7339 6.51461 11.585 6.88007 12.6199L5.35087 14.1491C4.509 12.3694 4.5 10.9673 4.5 9.70128C4.5 5.44797 7.86354 2 11.9928 2Z" fill="#0E1520"/>
<path d="M13.5758 8.92416C13.4659 8.80306 13.3411 8.69518 13.2037 8.60337C12.8729 8.38235 12.484 8.26437 12.0862 8.26437C11.5527 8.26437 11.0411 8.4763 10.6639 8.85353C10.2866 9.23076 10.0747 9.74239 10.0747 10.2759C10.0747 10.6737 10.1927 11.0626 10.4137 11.3934C10.5055 11.5308 10.6134 11.6556 10.7345 11.7655L2.5 20L4 21.5L21.5 4L20 2.5L13.5758 8.92416Z" fill="#0E1520"/>
<path d="M9.28966 19.2103L10.704 17.796L12 19.1299L14.0898 16.979C15.9256 15.1042 16.7315 13.7046 17.1099 12.648C17.3148 12.0761 17.4122 11.561 17.4585 11.0415L19.4716 9.0284C19.4904 9.25014 19.5 9.47457 19.5 9.70128C19.5 11.8279 19.4746 14.3385 15.5187 18.3783L12 22L9.28966 19.2103Z" fill="#0E1520"/>
</svg>
