<svg width="16" height="16" viewBox="0 0 16 16" fill="none" xmlns="http://www.w3.org/2000/svg">
<path d="M13.3002 1.29553L14.7144 2.70975L2.69626 14.7279L1.28204 13.3137L13.3002 1.29553Z" fill="#0F1621"/>
<path d="M10.8539 1.60631C10.7397 1.54954 10.6235 1.49647 10.5055 1.44723C9.80097 1.15329 9.04538 1.00131 8.28203 1C6.7455 1.00265 5.27282 1.61489 4.18727 2.70231C3.10172 3.78974 2.49202 5.26348 2.49203 6.8C2.49564 7.54621 2.64783 8.28422 2.9397 8.97099C2.99367 9.09797 3.05221 9.22274 3.11518 9.34505L10.8539 1.60631Z" fill="#0F1621"/>
<path d="M3.98932 10.5922C4.05501 10.6631 4.1226 10.7324 4.19203 10.8L5.39495 12.0353L13.3792 4.05098C13.1152 3.5605 12.7814 3.10965 12.3874 2.71291C12.3011 2.62598 12.2121 2.54192 12.1207 2.46084L8.93295 5.64859C9.17396 5.76468 9.38004 5.94337 9.52923 6.16664C9.69405 6.41332 9.78203 6.70333 9.78203 7C9.78203 7.39782 9.62399 7.77936 9.34269 8.06066C9.06138 8.34196 8.67985 8.5 8.28203 8.5C7.98535 8.5 7.69534 8.41203 7.44867 8.2472C7.2254 8.09802 7.0467 7.89193 6.93062 7.65092L3.98932 10.5922Z" fill="#0F1621"/>
<path d="M8.28203 15L6.44154 13.11L13.9475 5.60408C14.0322 6.00617 14.0742 6.4171 14.072 6.83C14.0684 7.57621 13.9162 8.31422 13.6244 9.00099C13.3325 9.68775 12.9068 10.3095 12.372 10.83L8.28203 15Z" fill="#0F1621"/>
</svg>
