<svg width="24" height="24" viewBox="0 0 24 24" fill="none" xmlns="http://www.w3.org/2000/svg">
<path d="M20.5928 2.58673L22.007 4.00094L4.32553 21.6824L2.91132 20.2682L20.5928 2.58673Z" fill="#0F1621"/>
<path d="M16.9016 3.44359C15.515 2.51311 13.8738 2.00398 12.1795 2C9.92427 2.00265 7.76229 2.90041 6.16851 4.49605C4.57474 6.0917 3.67953 8.25474 3.67953 10.51C3.67957 11.6137 3.90082 12.7063 4.33021 13.7231C4.55022 14.2441 4.82259 14.7398 5.14232 15.2028L6.58902 13.7561C6.43121 13.496 6.29218 13.2242 6.17329 12.9426C5.84693 12.1697 5.67902 11.339 5.67953 10.5C5.67953 8.77609 6.36435 7.12279 7.58334 5.90381C8.80232 4.68482 10.4556 4 12.1795 4C13.3415 4 14.4714 4.31114 15.4579 4.88727L16.9016 3.44359Z" fill="#0F1621"/>
<path d="M13.1947 7.15045C12.8685 7.05156 12.5266 7 12.1795 7C11.4873 7 10.8106 7.20527 10.235 7.58986C9.65946 7.97444 9.21086 8.52107 8.94595 9.16061C8.68104 9.80015 8.61173 10.5039 8.74678 11.1828C8.76914 11.2952 8.79694 11.4061 8.82998 11.5152L13.1947 7.15045Z" fill="#0F1621"/>
<path d="M9.96404 13.2095C10.4066 13.5714 10.9326 13.8205 11.4967 13.9327C12.1756 14.0678 12.8794 13.9985 13.5189 13.7336C14.1585 13.4687 14.7051 13.0201 15.0897 12.4445C15.4743 11.8689 15.6795 11.1922 15.6795 10.5C15.6795 9.68893 15.398 8.90688 14.8891 8.2845L13.458 9.71553C13.6027 9.95123 13.6795 10.2227 13.6795 10.5C13.6795 10.8978 13.5215 11.2794 13.2402 11.5607C12.9589 11.842 12.5774 12 12.1795 12C11.9022 12 11.6308 11.9231 11.3951 11.7785L9.96404 13.2095Z" fill="#0F1621"/>
<path d="M7.87336 15.3002L9.26716 16.7243L7.85238 18.1391L6.45853 16.715L7.87336 15.3002Z" fill="#0F1621"/>
<path d="M9.25144 19.5685L10.6662 18.1537L12.1795 19.7L16.7595 15C17.3639 14.4162 17.8452 13.7172 18.175 12.9443C18.5047 12.1714 18.6763 11.3403 18.6795 10.5C18.6795 10.3829 18.6764 10.2661 18.6701 10.1498L20.4071 8.41281C20.58 9.09263 20.6695 9.79671 20.6695 10.51C20.6725 11.6133 20.4536 12.7059 20.0258 13.7229C19.5981 14.7399 18.9702 15.6605 18.1795 16.43L12.1795 22.56L9.25144 19.5685Z" fill="#0F1621"/>
<path d="M19.6042 6.38725C19.2793 5.80051 18.884 5.2503 18.4238 4.74981L17.0161 6.15747C17.476 6.66965 17.8482 7.24782 18.123 7.86846L19.6042 6.38725Z" fill="#0F1621"/>
</svg>
