<svg width="25" height="24" viewBox="0 0 25 24" fill="none" xmlns="http://www.w3.org/2000/svg">
<path d="M21.6813 2.59023L23.0955 4.00445L5.41421 21.6858L4 20.2715L21.6813 2.59023Z" fill="#0E1520"/>
<path d="M16.5236 2.65085C17.0405 2.86568 17.5337 3.13051 17.9963 3.44083L13.432 8.00515C13.2162 7.99127 12.9983 8.00538 12.7838 8.04804C12.2989 8.1445 11.8534 8.3826 11.5038 8.73223C11.1542 9.08186 10.9161 9.52732 10.8196 10.0123C10.7769 10.2267 10.7628 10.4446 10.7767 10.6605L6.23707 15.2001C5.91598 14.7368 5.64254 14.2405 5.42182 13.7187C4.99236 12.7035 4.77124 11.6123 4.77155 10.51C4.77024 9.39292 4.98913 8.28654 5.41571 7.25412C5.84228 6.2217 6.46818 5.28348 7.25761 4.49313C8.04704 3.70277 8.98451 3.07577 10.0164 2.64798C11.0484 2.22019 12.1545 2 13.2716 2C14.3878 2.00131 15.4928 2.22247 16.5236 2.65085Z" fill="#0E1520"/>
<path d="M21.5009 8.41105L10.3484 19.5635L13.2716 22.55L19.2716 16.42C20.061 15.6517 20.6882 14.7327 21.1159 13.7175C21.5436 12.7023 21.7632 11.6116 21.7616 10.51C21.7624 9.80064 21.6744 9.09559 21.5009 8.41105Z" fill="#0E1520"/>
</svg>
