<svg width="25" height="24" viewBox="0 0 25 24" fill="none" xmlns="http://www.w3.org/2000/svg">
<path d="M13.2682 2C14.9625 2.00398 16.6036 2.51311 17.9902 3.44359L16.5466 4.88727C15.5601 4.31114 14.4302 4 13.2682 4C11.5443 4 9.89101 4.68482 8.67202 5.90381C7.45303 7.12279 6.76821 8.77609 6.76821 10.5C6.76771 11.339 6.93561 12.1697 7.26198 12.9426C7.38086 13.2242 7.51989 13.496 7.6777 13.7561L6.231 15.2028C5.91128 14.7398 5.63891 14.2441 5.4189 13.7231C4.98951 12.7063 4.76825 11.6137 4.76821 10.51C4.76821 8.25474 5.66343 6.0917 7.2572 4.49605C8.85097 2.90041 11.013 2.00265 13.2682 2Z" fill="#0E1520"/>
<path d="M23.0957 4.00094L21.6815 2.58673L15.9804 8.28777L15.9778 8.2845L11.0527 13.2095L11.056 13.2122L4 20.2682L5.41421 21.6824L13.1007 13.996C13.6141 14.0206 14.1288 13.9319 14.6076 13.7336C15.2472 13.4687 15.7938 13.0201 16.1784 12.4445C16.563 11.8689 16.7682 11.1922 16.7682 10.5C16.7682 10.444 16.7669 10.3881 16.7642 10.3324L23.0957 4.00094Z" fill="#0E1520"/>
<path d="M14.2834 7.15045C13.9571 7.05156 13.6153 7 13.2682 7C12.576 7 11.8993 7.20527 11.3237 7.58986C10.7481 7.97444 10.2995 8.52107 10.0346 9.16061C9.76973 9.80015 9.70042 10.5039 9.83546 11.1828C9.85783 11.2952 9.88562 11.4061 9.91867 11.5152L14.2834 7.15045Z" fill="#0E1520"/>
<path d="M11.7549 18.1537L10.3401 19.5685L13.2682 22.56L19.2682 16.43C20.0589 15.6605 20.6868 14.7399 21.1145 13.7229C21.5423 12.7059 21.7612 11.6133 21.7582 10.51C21.7582 9.79671 21.6687 9.09263 21.4958 8.41281L19.7588 10.1498C19.7651 10.2661 19.7682 10.3829 19.7682 10.5C19.765 11.3403 19.5934 12.1714 19.2637 12.9443C18.9339 13.7172 18.4526 14.4162 17.8482 15L13.2682 19.7L11.7549 18.1537Z" fill="#0E1520"/>
</svg>
