<svg width="24" height="24" viewBox="0 0 24 24" fill="none" xmlns="http://www.w3.org/2000/svg">
<path d="M20.5123 2.59023L21.9266 4.00445L4.24524 21.6858L2.83102 20.2715L20.5123 2.59023Z" fill="#0F1621"/>
<path d="M15.3546 2.65085C15.8715 2.86568 16.3647 3.13051 16.8274 3.44083L12.263 8.00515C12.0472 7.99127 11.8293 8.00538 11.6149 8.04804C11.1299 8.1445 10.6844 8.3826 10.3348 8.73223C9.98518 9.08186 9.74708 9.52732 9.65061 10.0123C9.60796 10.2267 9.59385 10.4446 9.60773 10.6605L5.0681 15.2001C4.747 14.7368 4.47356 14.2405 4.25284 13.7187C3.82339 12.7035 3.60226 11.6123 3.60258 10.51C3.60126 9.39292 3.82015 8.28654 4.24673 7.25412C4.67331 6.2217 5.2992 5.28348 6.08863 4.49313C6.87806 3.70277 7.81554 3.07577 8.84746 2.64798C9.87938 2.22019 10.9855 2 12.1026 2C13.2188 2.00131 14.3239 2.22247 15.3546 2.65085Z" fill="#0F1621"/>
<path d="M10.7137 12.5787C10.6747 12.5526 10.6365 12.5255 10.5992 12.4974L6.38652 16.7101L7.78037 18.1341L13.1399 12.7746C12.8173 12.9218 12.464 13 12.1026 13C11.6081 13 11.1248 12.8534 10.7137 12.5787Z" fill="#0F1621"/>
<path d="M14.3772 11.5373L19.5299 6.38462C19.2033 5.79442 18.8073 5.24452 18.3497 4.74689L14.1 8.9966C14.1281 9.03392 14.1552 9.07209 14.1813 9.11107C14.456 9.5222 14.6026 10.0055 14.6026 10.5C14.6026 10.8614 14.5243 11.2147 14.3772 11.5373Z" fill="#0F1621"/>
<path d="M20.3319 8.41105L9.17943 19.5635L12.1026 22.55L18.1026 16.42C18.892 15.6517 19.5192 14.7327 19.9469 13.7175C20.3746 12.7023 20.5942 11.6116 20.5926 10.51C20.5934 9.80064 20.5055 9.09559 20.3319 8.41105Z" fill="#0F1621"/>
</svg>
