<svg width="8" height="8" viewBox="0 0 8 8" fill="none" xmlns="http://www.w3.org/2000/svg">
    <path d="M6 3V2C6 1.46957 5.78929 0.96086 5.41421 0.585788C5.03914 0.210715 4.53043 3.74103e-07 4 3.74103e-07C3.48148 -0.000316566 2.98309 0.200761 2.60997 0.560826C2.23685 0.92089 2.01815 1.41179 2 1.93V3H1V7C1 7.26522 1.10536 7.51957 1.29289 7.70711C1.48043 7.89464 1.73478 8 2 8H6C6.26522 8 6.51957 7.89464 6.70711 7.70711C6.89464 7.51957 7 7.26522 7 7V3H6ZM4 1C4.55228 1 5 1.44772 5 2V3H3V2C3 1.44772 3.44772 1 4 1Z" fill="#0E1520" />
</svg>
