<svg width="24" height="24" viewBox="0 0 24 24" fill="none" xmlns="http://www.w3.org/2000/svg">
<path d="M17 9V7C17.015 6.33928 16.896 5.68236 16.65 5.06893C16.4041 4.45551 16.0363 3.8983 15.569 3.43098C15.1017 2.96366 14.5445 2.59591 13.9311 2.34996C13.3176 2.10401 12.6607 1.98496 12 2C10.7069 1.97838 9.45734 2.46674 8.52161 3.35943C7.58588 4.25212 7.03925 5.47735 7 6.77V9H4V20C4 20.5304 4.21071 21.0391 4.58579 21.4142C4.96086 21.7893 5.46957 22 6 22H18C18.5304 22 19.0391 21.7893 19.4142 21.4142C19.7893 21.0391 20 20.5304 20 20V9H17ZM9 6.77C9.02353 5.99723 9.35257 5.26533 9.91495 4.73481C10.4773 4.20429 11.2272 3.91846 12 3.94C12.3977 3.92603 12.7941 3.99408 13.1644 4.1399C13.5347 4.28572 13.871 4.50619 14.1524 4.7876C14.4338 5.06901 14.6543 5.40533 14.8001 5.77563C14.9459 6.14592 15.014 6.54227 15 6.94V9H9V6.77Z" fill="#0F1621"/>
</svg>
