<svg width="16" height="16" viewBox="0 0 16 16" fill="none" xmlns="http://www.w3.org/2000/svg">
<path d="M11 2V4H5V2C5 1.73478 5.10536 1.48043 5.29289 1.29289C5.48043 1.10536 5.73478 1 6 1H10C10.2652 1 10.5196 1.10536 10.7071 1.29289C10.8946 1.48043 11 1.73478 11 2ZM5 7C5 7.53043 5.21071 8.03914 5.58579 8.41421C5.96086 8.78929 6.46957 9 7 9H9C9.53043 9 10.0391 8.78929 10.4142 8.41421C10.7893 8.03914 11 7.53043 11 7V6H5V7ZM13 7C13 8.06087 12.5786 9.07828 11.8284 9.82843C11.0783 10.5786 10.0609 11 9 11H7C5.93913 11 4.92172 10.5786 4.17157 9.82843C3.42143 9.07828 3 8.06087 3 7H1C1 8.5913 1.63214 10.1174 2.75736 11.2426C3.88258 12.3679 5.4087 13 7 13V15H9V13C10.5913 13 12.1174 12.3679 13.2426 11.2426C14.3679 10.1174 15 8.5913 15 7H13Z" fill="#0F1621"/>
</svg>
