<svg width="16" height="16" viewBox="0 0 16 16" fill="none" xmlns="http://www.w3.org/2000/svg">
<path d="M10.58 1.18L7.76005 4H5.00005V2C5.00005 1.73478 5.10541 1.48043 5.29294 1.29289C5.48048 1.10536 5.73483 0.999998 6.00005 0.999998H10C10.2074 0.998424 10.41 1.06133 10.58 1.18ZM1.00005 7C0.995835 8.05196 1.26828 9.08654 1.79005 10L3.29005 8.5C3.09229 8.02495 2.99361 7.51453 3.00005 7H1.00005ZM13 7C13.005 7.08326 13.005 7.16674 13 7.25C12.9408 8.22518 12.5267 9.14496 11.8358 9.83579C11.145 10.5266 10.2252 10.9407 9.25005 11L7.00005 13.24V15H9.00005V13C10.5913 13 12.1175 12.3679 13.2427 11.2426C14.3679 10.1174 15 8.5913 15 7H13ZM15 2.41L13.59 0.999998L1.00005 13.59L2.41005 15L15 2.41Z" fill="#0F1621"/>
</svg>
