<svg width="24" height="24" viewBox="0 0 24 24" fill="none" xmlns="http://www.w3.org/2000/svg">
<path d="M17 4V8H7V4C7 3.46957 7.21071 2.96086 7.58579 2.58579C7.96086 2.21071 8.46957 2 9 2H15C15.5304 2 16.0391 2.21071 16.4142 2.58579C16.7893 2.96086 17 3.46957 17 4ZM7 13C7 13.7956 7.31607 14.5587 7.87868 15.1213C8.44129 15.6839 9.20435 16 10 16H14C14.7956 16 15.5587 15.6839 16.1213 15.1213C16.6839 14.5587 17 13.7956 17 13V10H7V13ZM19 13C19 14.3261 18.4732 15.5979 17.5355 16.5355C16.5979 17.4732 15.3261 18 14 18H10C8.67392 18 7.40215 17.4732 6.46447 16.5355C5.52678 15.5979 5 14.3261 5 13H3C3 14.8565 3.7375 16.637 5.05025 17.9497C6.36301 19.2625 8.14348 20 10 20V22H14V20C15.8565 20 17.637 19.2625 18.9497 17.9497C20.2625 16.637 21 14.8565 21 13H19Z" fill="#0F1621"/>
</svg>
