<svg width="24" height="24" viewBox="0 0 24 24" fill="none" xmlns="http://www.w3.org/2000/svg">
<path d="M16.74 2.99999L11.74 7.99999H7V3.99999C7 3.46955 7.21071 2.96084 7.58579 2.58577C7.96086 2.2107 8.46957 1.99999 9 1.99999H15C15.3524 1.99859 15.699 2.09034 16.0045 2.26594C16.3101 2.44155 16.5638 2.69478 16.74 2.99999ZM7 12.75L9.75 9.99999H7V12.75ZM12.27 16H14C14.7956 16 15.5587 15.6839 16.1213 15.1213C16.6839 14.5587 17 13.7956 17 13V11.26L12.27 16ZM3 13C2.99809 14.0567 3.23751 15.0999 3.7 16.05L5.23 14.52C5.07667 14.0279 4.99912 13.5154 5 13H3ZM19 13C19 14.3261 18.4732 15.5978 17.5355 16.5355C16.5979 17.4732 15.3261 18 14 18H10.27L8.44 19.82C8.95108 19.9413 9.47472 20.0017 10 20V22H14V20C15.8565 20 17.637 19.2625 18.9497 17.9497C20.2625 16.637 21 14.8565 21 13H19ZM22 3.42999L20.58 1.99999L2 20.57L3.44 22L22 3.42999Z" fill="#0F1621"/>
</svg>
