<svg width="16" height="16" viewBox="0 0 16 16" fill="none" xmlns="http://www.w3.org/2000/svg">
<path fill-rule="evenodd" clip-rule="evenodd" d="M1.46967 12.4697L12.4697 1.46967L13.5303 2.53033L2.53033 13.5303L1.46967 12.4697Z" fill="#0F1621"/>
<path fill-rule="evenodd" clip-rule="evenodd" d="M5.23664 12.5437C5.84856 12.8797 6.52825 13.1075 7.25 13.2015V15H8.75V13.2015C11.5713 12.834 13.75 10.4214 13.75 7.5V6.5H12.25V7.5C12.25 9.84721 10.3472 11.75 8 11.75C7.41823 11.75 6.86376 11.6331 6.3588 11.4215L5.23664 12.5437ZM7.35076 10.4296C7.55982 10.4757 7.77707 10.5 8 10.5C9.65685 10.5 11 9.15685 11 7.5V6.78033L7.35076 10.4296ZM10.2283 1.99134L5 7.21967V4C5 2.34315 6.34314 1 8 1C8.88431 1 9.67926 1.38262 10.2283 1.99134ZM3.84094 8.37872L2.63827 9.58139C2.38754 8.93597 2.25 8.23405 2.25 7.5V6.5H3.75V7.5C3.75 7.80126 3.78134 8.09519 3.84094 8.37872Z" fill="#0F1621"/>
</svg>
