<svg width="16" height="16" viewBox="0 0 16 16" fill="none" xmlns="http://www.w3.org/2000/svg">
<path d="M13.5901 1.4236L15.0043 2.83782L2.98159 14.8605L1.56738 13.4463L13.5901 1.4236Z" fill="#0F1621"/>
<path d="M10.9933 1.88474C10.9675 1.66196 10.8673 1.45306 10.7071 1.29289C10.5196 1.10536 10.2652 1 10 1H6C5.73478 1 5.48043 1.10536 5.29289 1.29289C5.10536 1.48043 5 1.73478 5 2V4H8.87808L10.9933 1.88474Z" fill="#0F1621"/>
<path d="M6.87808 6H5V7C5 7.2549 5.04866 7.50479 5.14084 7.73724L6.87808 6Z" fill="#0F1621"/>
<path d="M6.17671 8.82269L8.9994 6H11V6.84817L8.84817 9H7C6.71334 9 6.43302 8.93846 6.17671 8.82269Z" fill="#0F1621"/>
<path d="M3.66679 9.21129C3.23514 8.56063 3 7.79244 3 7H1C1 8.3245 1.43794 9.60385 2.23363 10.6444L3.66679 9.21129Z" fill="#0F1621"/>
<path d="M3.28657 11.7128L4.71575 10.2836C5.34127 10.7188 6.0818 10.9686 6.85094 10.9972L5.14282 12.7053C4.47329 12.4874 3.8443 12.1523 3.28657 11.7128Z" fill="#0F1621"/>
<path d="M6.96957 12.9999L8.96949 11H9C10.0609 11 11.0783 10.5786 11.8284 9.82843C12.5786 9.07828 13 8.06087 13 7H15C15 8.5913 14.3679 10.1174 13.2426 11.2426C12.1174 12.3679 10.5913 13 9 13V15H7V13L6.96957 12.9999Z" fill="#0F1621"/>
</svg>
