<svg width="24" height="24" viewBox="0 0 24 24" fill="none" xmlns="http://www.w3.org/2000/svg">
<path fill-rule="evenodd" clip-rule="evenodd" d="M2.29291 19.2929L19.2929 2.29289L20.7071 3.70711L3.70712 20.7071L2.29291 19.2929Z" fill="#0F1621"/>
<path fill-rule="evenodd" clip-rule="evenodd" d="M15.4932 4.04973C14.8089 2.82676 13.501 2 12 2C9.79088 2 8.00001 3.79086 8.00001 6V11.5429L15.4932 4.04973ZM10.7375 15.7967L16 10.6889V12C16 14.2091 14.2092 16 12 16C11.5588 16 11.1344 15.9286 10.7375 15.7967ZM6.16013 13.3828C6.05542 12.9389 6.00001 12.4759 6.00001 12V11H4.00001V12C4.00001 13.0504 4.20245 14.0535 4.57044 14.9725L6.16013 13.3828ZM7.69846 18.7463L9.18732 17.3012C10.0262 17.7473 10.9836 18 12 18C15.3137 18 18 15.3137 18 12V11H20V12C20 16.0796 16.9463 19.446 13 19.9381V22H11V19.9381C9.79594 19.788 8.67496 19.3702 7.69846 18.7463Z" fill="#0F1621"/>
</svg>
