<svg width="24" height="24" viewBox="0 0 24 24" fill="none" xmlns="http://www.w3.org/2000/svg">
<path d="M14.94 13.32C14.8905 13.4637 14.809 13.5941 14.7016 13.7016C14.5941 13.809 14.4637 13.8905 14.32 13.94L12.26 16H14C14.7956 16 15.5587 15.6839 16.1213 15.1213C16.6839 14.5587 17 13.7956 17 13V11.26L14.94 13.32ZM9 4H15V4.74L16.73 3C16.5546 2.69626 16.3025 2.44398 15.9988 2.26846C15.6952 2.09294 15.3507 2.00036 15 2H9C8.46957 2 7.96086 2.21071 7.58579 2.58579C7.21071 2.96086 7 3.46957 7 4V12.75L9 10.75V10H9.75L11.75 8H9V4ZM5 13C4.99912 13.5154 5.07667 14.0279 5.23 14.52L3.7 16C3.24324 15.0656 3.00392 14.04 3 13H5ZM21 13C21 14.8565 20.2625 16.637 18.9497 17.9497C17.637 19.2625 15.8565 20 14 20V22H10V20C9.47472 20.0017 8.95108 19.9413 8.44 19.82L10.26 18H14C15.3261 18 16.5979 17.4732 17.5355 16.5355C18.4732 15.5979 19 14.3261 19 13H21ZM3.44 22L2 20.57L20.58 2L22 3.43L3.44 22Z" fill="#0F1621"/>
</svg>
