<svg width="24" height="24" viewBox="0 0 24 24" fill="none" xmlns="http://www.w3.org/2000/svg">
<path d="M15 2H9C8.46957 2 7.96086 2.21071 7.58579 2.58579C7.21071 2.96086 7 3.46957 7 4V13C7 13.7956 7.31607 14.5587 7.87868 15.1213C8.44129 15.6839 9.20435 16 10 16H14C14.7956 16 15.5587 15.6839 16.1213 15.1213C16.6839 14.5587 17 13.7956 17 13V4C17 3.46957 16.7893 2.96086 16.4142 2.58579C16.0391 2.21071 15.5304 2 15 2ZM15 13C15 13.2652 14.8946 13.5196 14.7071 13.7071C14.5196 13.8946 14.2652 14 14 14H10C9.73478 14 9.48043 13.8946 9.29289 13.7071C9.10536 13.5196 9 13.2652 9 13V10H15V13ZM9 8V4H15V8H9ZM21 13C21 14.8565 20.2625 16.637 18.9497 17.9497C17.637 19.2625 15.8565 20 14 20V22H10V20C8.14348 20 6.36301 19.2625 5.05025 17.9497C3.7375 16.637 3 14.8565 3 13H5C5 14.3261 5.52678 15.5979 6.46447 16.5355C7.40215 17.4732 8.67392 18 10 18H14C15.3261 18 16.5979 17.4732 17.5355 16.5355C18.4732 15.5979 19 14.3261 19 13H21Z" fill="#0F1621"/>
</svg>
