<svg width="16" height="16" viewBox="0 0 16 16" fill="none" xmlns="http://www.w3.org/2000/svg">
<path d="M14 9V11H2V9H4V7.29C3.98472 6.41919 4.23485 5.56435 4.71714 4.83913C5.19943 4.11391 5.89103 3.55266 6.7 3.23C6.56757 3.00965 6.49838 2.75708 6.5 2.5C6.5 2.10218 6.65804 1.72064 6.93934 1.43934C7.22064 1.15804 7.60218 1 8 1C8.39782 1 8.77936 1.15804 9.06066 1.43934C9.34196 1.72064 9.5 2.10218 9.5 2.5C9.50162 2.75708 9.43243 3.00965 9.3 3.23C10.109 3.55266 10.8006 4.11391 11.2829 4.83913C11.7652 5.56435 12.0153 6.41919 12 7.29V9H14ZM8 15C8.57633 15.0001 9.13499 14.8011 9.58145 14.4367C10.0279 14.0722 10.3347 13.5647 10.45 13H5.55C5.66527 13.5647 5.97209 14.0722 6.41855 14.4367C6.86501 14.8011 7.42367 15.0001 8 15Z" fill="#0F1621"/>
</svg>
