<svg width="24" height="24" viewBox="0 0 24 24" fill="none" xmlns="http://www.w3.org/2000/svg">
<path d="M12 20C11.7348 20 11.4804 19.8946 11.2929 19.7071C11.1054 19.5196 11 19.2652 11 19H9C9 19.7956 9.31607 20.5587 9.87868 21.1213C10.4413 21.6839 11.2044 22 12 22C12.7956 22 13.5587 21.6839 14.1213 21.1213C14.6839 20.5587 15 19.7956 15 19H13C13 19.2652 12.8946 19.5196 12.7071 19.7071C12.5196 19.8946 12.2652 20 12 20ZM19 15V12C18.9996 10.3903 18.5136 8.81809 17.6055 7.48895C16.6974 6.15981 15.4095 5.13554 13.91 4.55C13.9655 4.37177 13.9958 4.18664 14 4C14 3.46957 13.7893 2.96086 13.4142 2.58579C13.0391 2.21071 12.5304 2 12 2C11.4696 2 10.9609 2.21071 10.5858 2.58579C10.2107 2.96086 10 3.46957 10 4C10.0042 4.18664 10.0345 4.37177 10.09 4.55C8.59054 5.13554 7.30259 6.15981 6.3945 7.48895C5.4864 8.81809 5.0004 10.3903 5 12V15H3V17H21V15H19ZM17 15H7V12C7.002 10.7937 7.36758 9.61599 8.04902 8.62058C8.73046 7.62518 9.69612 6.85829 10.82 6.42L12 6L13.18 6.47C14.296 6.90515 15.2562 7.66437 15.937 8.64992C16.6178 9.63547 16.988 10.8022 17 12V15Z" fill="#0F1621"/>
</svg>
