<svg width="8" height="8" viewBox="0 0 8 8" fill="none" xmlns="http://www.w3.org/2000/svg">
<path d="M6.25 2.5C5.83579 2.5 5.5 2.16421 5.5 1.75C5.5 1.33579 5.83579 1 6.25 1C6.66421 1 7 1.33579 7 1.75C7 2.16421 6.66421 2.5 6.25 2.5Z" fill="#0F1621"/>
<path d="M6.25 7C5.83579 7 5.5 6.66421 5.5 6.25C5.5 5.83579 5.83579 5.5 6.25 5.5C6.66421 5.5 7 5.83579 7 6.25C7 6.66421 6.66421 7 6.25 7Z" fill="#0F1621"/>
<path d="M6.25 4.75C5.83579 4.75 5.5 4.41421 5.5 4C5.5 3.58579 5.83579 3.25 6.25 3.25C6.66421 3.25 7 3.58579 7 4C7 4.41421 6.66421 4.75 6.25 4.75Z" fill="#0F1621"/>
</svg>
