<svg width="8" height="8" viewBox="0 0 8 8" fill="none" xmlns="http://www.w3.org/2000/svg">
<path d="M4 2.5C3.58579 2.5 3.25 2.16421 3.25 1.75C3.25 1.33579 3.58579 1 4 1C4.41421 1 4.75 1.33579 4.75 1.75C4.75 2.16421 4.41421 2.5 4 2.5Z" fill="#0F1621"/>
<path d="M4 7C3.58579 7 3.25 6.66421 3.25 6.25C3.25 5.83579 3.58579 5.5 4 5.5C4.41421 5.5 4.75 5.83579 4.75 6.25C4.75 6.66421 4.41421 7 4 7Z" fill="#0F1621"/>
<path d="M4 4.75C3.58579 4.75 3.25 4.41421 3.25 4C3.25 3.58579 3.58579 3.25 4 3.25C4.41421 3.25 4.75 3.58579 4.75 4C4.75 4.41421 4.41421 4.75 4 4.75Z" fill="#0F1621"/>
</svg>
