<svg width="24" height="24" viewBox="0 0 24 24" fill="none" xmlns="http://www.w3.org/2000/svg">
<path fill-rule="evenodd" clip-rule="evenodd" d="M16 12C16 12.3956 16.1173 12.7822 16.3371 13.1111C16.5568 13.44 16.8692 13.6964 17.2346 13.8478C17.6001 13.9991 18.0022 14.0387 18.3902 13.9616C18.7781 13.8844 19.1345 13.6939 19.4142 13.4142C19.6939 13.1345 19.8844 12.7781 19.9616 12.3902C20.0387 12.0022 19.9991 11.6001 19.8478 11.2346C19.6964 10.8692 19.44 10.5568 19.1111 10.3371C18.7822 10.1173 18.3956 10 18 10C17.4696 10 16.9609 10.2107 16.5858 10.5858C16.2107 10.9609 16 11.4696 16 12ZM10 12C10 12.3956 10.1173 12.7822 10.3371 13.1111C10.5568 13.44 10.8692 13.6964 11.2346 13.8478C11.6001 13.9991 12.0022 14.0387 12.3902 13.9616C12.7781 13.8844 13.1345 13.6939 13.4142 13.4142C13.6939 13.1345 13.8844 12.7781 13.9616 12.3902C14.0387 12.0022 13.9991 11.6001 13.8478 11.2346C13.6964 10.8692 13.44 10.5568 13.1111 10.3371C12.7822 10.1173 12.3956 10 12 10C11.4696 10 10.9609 10.2107 10.5858 10.5858C10.2107 10.9609 10 11.4696 10 12ZM8 12C8 11.6044 7.8827 11.2178 7.66294 10.8889C7.44318 10.56 7.13082 10.3036 6.76537 10.1522C6.39992 10.0009 5.99778 9.96126 5.60982 10.0384C5.22186 10.1156 4.86549 10.3061 4.58579 10.5858C4.30608 10.8655 4.1156 11.2219 4.03843 11.6098C3.96126 11.9978 4.00087 12.3999 4.15224 12.7654C4.30362 13.1308 4.55996 13.4432 4.88886 13.6629C5.21776 13.8827 5.60444 14 6 14C6.53043 14 7.03914 13.7893 7.41421 13.4142C7.78929 13.0391 8 12.5304 8 12Z" fill="#0F1621"/>
</svg>
