<svg width="8" height="8" viewBox="0 0 8 8" fill="none" xmlns="http://www.w3.org/2000/svg">
<path d="M2.5 4C2.5 4.41421 2.16421 4.75 1.75 4.75C1.33579 4.75 1 4.41421 1 4C1 3.58579 1.33579 3.25 1.75 3.25C2.16421 3.25 2.5 3.58579 2.5 4Z" fill="#0F1621"/>
<path d="M7 4C7 4.41421 6.66421 4.75 6.25 4.75C5.83579 4.75 5.5 4.41421 5.5 4C5.5 3.58579 5.83579 3.25 6.25 3.25C6.66421 3.25 7 3.58579 7 4Z" fill="#0F1621"/>
<path d="M4.75 4C4.75 4.41421 4.41421 4.75 4 4.75C3.58579 4.75 3.25 4.41421 3.25 4C3.25 3.58579 3.58579 3.25 4 3.25C4.41421 3.25 4.75 3.58579 4.75 4Z" fill="#0F1621"/>
</svg>
