<svg width="16" height="16" viewBox="0 0 16 16" fill="none" xmlns="http://www.w3.org/2000/svg">
<path fill-rule="evenodd" clip-rule="evenodd" d="M9.5 12.5C9.5 12.7967 9.41203 13.0867 9.24721 13.3334C9.08238 13.58 8.84811 13.7723 8.57403 13.8858C8.29994 13.9994 7.99834 14.0291 7.70737 13.9712C7.41639 13.9133 7.14912 13.7704 6.93934 13.5607C6.72956 13.3509 6.5867 13.0836 6.52882 12.7926C6.47094 12.5017 6.50065 12.2001 6.61418 11.926C6.72771 11.6519 6.91997 11.4176 7.16665 11.2528C7.41332 11.088 7.70333 11 8 11C8.39783 11 8.77936 11.158 9.06066 11.4393C9.34197 11.7206 9.5 12.1022 9.5 12.5ZM8 6.5C7.70333 6.5 7.41332 6.58797 7.16665 6.7528C6.91997 6.91762 6.72771 7.15189 6.61418 7.42598C6.50065 7.70006 6.47094 8.00167 6.52882 8.29264C6.5867 8.58361 6.72956 8.85088 6.93934 9.06066C7.14912 9.27044 7.41639 9.4133 7.70737 9.47118C7.99834 9.52906 8.29994 9.49935 8.57403 9.38582C8.84811 9.27229 9.08238 9.08003 9.24721 8.83336C9.41203 8.58668 9.5 8.29667 9.5 8C9.5 7.60218 9.34197 7.22064 9.06066 6.93934C8.77936 6.65804 8.39783 6.5 8 6.5ZM8 5C8.29667 5 8.58668 4.91203 8.83336 4.7472C9.08003 4.58238 9.27229 4.34811 9.38582 4.07403C9.49935 3.79994 9.52906 3.49834 9.47118 3.20737C9.4133 2.91639 9.27044 2.64912 9.06066 2.43934C8.85088 2.22956 8.58361 2.0867 8.29264 2.02882C8.00167 1.97094 7.70006 2.00065 7.42598 2.11418C7.15189 2.22771 6.91762 2.41997 6.7528 2.66665C6.58797 2.91332 6.5 3.20333 6.5 3.5C6.5 3.89783 6.65804 4.27936 6.93934 4.56066C7.22065 4.84197 7.60218 5 8 5Z" fill="#0F1621"/>
</svg>
