<svg width="16" height="16" viewBox="0 0 16 16" fill="none" xmlns="http://www.w3.org/2000/svg">
<path d="M11.5001 9.75H13.5001C14.1905 9.75 14.7501 9.19035 14.7501 8.5L14.7501 2.5C14.7501 1.80964 14.1905 1.25 13.5001 1.25H7.50012C6.80977 1.25 6.25012 1.80964 6.25012 2.5V4.5H7.75012V2.75L13.2501 2.75L13.2501 8.25L11.5001 8.25V9.75Z" fill="#0F1621"/>
<path d="M2.50012 6.25C1.80977 6.25 1.25012 6.80964 1.25012 7.5V13.5C1.25012 14.1904 1.80977 14.75 2.50012 14.75H8.50012C9.19048 14.75 9.75012 14.1904 9.75012 13.5V12.5H8.25012V13.25H2.75012V7.75H3.50012V6.25H2.50012Z" fill="#0F1621"/>
<path d="M8.25012 8.81071L5.03045 12.0304L3.96979 10.9697L7.18951 7.75H5.00012V6.25H9.75012V11H8.25012V8.81071Z" fill="#0F1621"/>
</svg>
