<svg width="24" height="24" viewBox="0 0 24 24" fill="none" xmlns="http://www.w3.org/2000/svg">
<path d="M18.0001 16H20.0001C21.1047 16 22.0001 15.1046 22.0001 14L22.0001 4C22.0001 2.89543 21.1047 2 20.0001 2H10.0001C8.89555 2 8.00012 2.89543 8.00012 4V6L10.0001 6V4L20.0001 4L20.0001 14H18.0001V16Z" fill="#0F1621"/>
<path d="M4.00012 8C2.89555 8 2.00012 8.89543 2.00012 10V20C2.00012 21.1046 2.89555 22 4.00012 22H14.0001C15.1047 22 16.0001 21.1046 16.0001 20V18H14.0001V20H4.00012V10H6.00012V8H4.00012Z" fill="#0F1621"/>
<path fill-rule="evenodd" clip-rule="evenodd" d="M14.0001 11.4143L7.70724 17.7072L6.29303 16.293L12.586 10H8.00012V8H16.0001V16H14.0001V11.4143Z" fill="#0F1621"/>
</svg>
