<svg width="8" height="8" viewBox="0 0 8 8" fill="none" xmlns="http://www.w3.org/2000/svg">
<path d="M7.00012 5C7.55241 5 8.00012 4.55228 8.00012 4L8.00012 1C8.00012 0.447716 7.55241 0 7.00012 0H4.00006C3.44782 0 3.00013 0.447641 3.00006 0.999878L3 1.49994L4 1.50006L4.00006 1L7.00012 1L7.00012 4H6.5V5H7.00012Z" fill="#0F1621"/>
<path d="M1 3C0.447715 3 0 3.44772 0 4V7C0 7.55228 0.447716 8 1 8L4 8C4.55228 8 5 7.55228 5 7V6.5H4V7L1 7L1 4H1.5V3H1Z" fill="#0F1621"/>
<path d="M4.5 4.20727L2.35368 6.35359L1.64658 5.64648L3.79306 3.5H2.5V2.5H5.5V5.5H4.5V4.20727Z" fill="#0F1621"/>
</svg>
