<svg width="24" height="24" viewBox="0 0 24 24" fill="none" xmlns="http://www.w3.org/2000/svg">
<path d="M20 18.07C20 15 18.39 13 16 13H8C5.5 13 4 14.9 4 18.07V22H6V18.07C6 16 6.67 15 8 15H16C17.47 15 18 16.65 18 18.07V22H20V18.07ZM12 11C12.4578 11.0026 12.9117 10.9149 13.3356 10.7418C13.7594 10.5687 14.145 10.3137 14.4701 9.99135C14.7953 9.669 15.0536 9.28566 15.2303 8.8633C15.4071 8.44093 15.4987 7.98784 15.5 7.53V5.47C15.4987 5.01215 15.4071 4.55906 15.2303 4.1367C15.0536 3.71433 14.7953 3.33099 14.4701 3.00864C14.145 2.68629 13.7594 2.43127 13.3356 2.25818C12.9117 2.0851 12.4578 1.99736 12 2C11.5422 1.99736 11.0883 2.0851 10.6644 2.25818C10.2406 2.43127 9.85501 2.68629 9.52987 3.00864C9.20473 3.33099 8.9464 3.71433 8.76967 4.1367C8.59295 4.55906 8.50131 5.01215 8.5 5.47V7.53C8.50131 7.98784 8.59295 8.44093 8.76967 8.8633C8.9464 9.28566 9.20473 9.669 9.52987 9.99135C9.85501 10.3137 10.2406 10.5687 10.6644 10.7418C11.0883 10.9149 11.5422 11.0026 12 11ZM10.5 5.47C10.5 5.2744 10.539 5.08077 10.6147 4.90044C10.6904 4.7201 10.8014 4.5567 10.9411 4.4198C11.0808 4.2829 11.2464 4.17525 11.4282 4.10316C11.6101 4.03108 11.8044 3.996 12 4C12.1956 3.996 12.3899 4.03108 12.5718 4.10316C12.7536 4.17525 12.9192 4.2829 13.0589 4.4198C13.1986 4.5567 13.3096 4.7201 13.3853 4.90044C13.461 5.08077 13.5 5.2744 13.5 5.47V7.53C13.5 7.72559 13.461 7.91923 13.3853 8.09956C13.3096 8.27989 13.1986 8.44329 13.0589 8.5802C12.9192 8.7171 12.7536 8.82474 12.5718 8.89683C12.3899 8.96891 12.1956 9.00399 12 9C11.8044 9.00399 11.6101 8.96891 11.4282 8.89683C11.2464 8.82474 11.0808 8.7171 10.9411 8.5802C10.8014 8.44329 10.6904 8.27989 10.6147 8.09956C10.539 7.91923 10.5 7.72559 10.5 7.53V5.47Z" fill="#0F1621"/>
</svg>
