<svg width="24" height="24" viewBox="0 0 24 24" fill="none" xmlns="http://www.w3.org/2000/svg">
<path d="M20 22H4V17C4 14.62 5.47 13 7.56 13H16.44C17.4403 13.0644 18.3748 13.5204 19.0412 14.2691C19.7076 15.0179 20.0521 15.999 20 17V22ZM15.5 6.55V4.45C15.4921 3.52878 15.1192 2.64829 14.4631 2.00157C13.807 1.35485 12.9212 0.994669 12 0.999997C11.0788 0.994669 10.193 1.35485 9.53691 2.00157C8.88081 2.64829 8.50793 3.52878 8.5 4.45V6.55C8.50793 7.47122 8.88081 8.3517 9.53691 8.99843C10.193 9.64515 11.0788 10.0053 12 10C12.9212 10.0053 13.807 9.64515 14.4631 8.99843C15.1192 8.3517 15.4921 7.47122 15.5 6.55Z" fill="#0F1621"/>
</svg>
