<svg width="24" height="24" viewBox="0 0 24 24" fill="none" xmlns="http://www.w3.org/2000/svg">
<path d="M4 18C4 15.2386 6.23858 13 9 13H15C17.7614 13 20 15.2386 20 18V22H18V18C18 16.3431 16.6569 15 15 15H9C7.34315 15 6 16.3431 6 18V22H4V18Z" fill="#0E1520"/>
<path d="M13.5 7.5C13.5 8.32843 12.8284 9 12 9C11.1716 9 10.5 8.32843 10.5 7.5V5.5C10.5 4.67157 11.1716 4 12 4C12.8284 4 13.5 4.67157 13.5 5.5V7.5ZM12 2C10.067 2 8.5 3.567 8.5 5.5V7.5C8.5 9.433 10.067 11 12 11C13.933 11 15.5 9.433 15.5 7.5V5.5C15.5 3.567 13.933 2 12 2Z" fill="#0E1520"/>
</svg>
