<svg width="16" height="16" viewBox="0 0 16 16" fill="none" xmlns="http://www.w3.org/2000/svg">
<path d="M13 0.999994V4.04999C12.2794 2.88007 11.2061 1.96904 9.93458 1.44812C8.66311 0.927201 7.25911 0.823266 5.9248 1.15129C4.59048 1.47931 3.3947 2.22235 2.50967 3.27341C1.62465 4.32447 1.09604 5.62931 1 6.99999H3C3.12136 5.89428 3.64882 4.87298 4.48021 4.13397C5.31159 3.39497 6.38769 2.99088 7.5 2.99999C8.23399 3.00156 8.95614 3.18506 9.60184 3.53409C10.2475 3.88311 10.7966 4.38677 11.2 4.99999H9V6.99999H15V0.999994H13ZM8.5 13C7.76601 12.9984 7.04386 12.8149 6.39816 12.4659C5.75246 12.1169 5.20336 11.6132 4.8 11H7V8.99999H1V15H3V12C3.72342 13.1722 4.80101 14.0838 6.07685 14.6029C7.3527 15.122 8.76063 15.2218 10.0969 14.8877C11.4332 14.5536 12.6286 13.8031 13.51 12.7446C14.3915 11.6861 14.9133 10.3747 15 8.99999H13C12.8786 10.1057 12.3512 11.127 11.5198 11.866C10.6884 12.605 9.61231 13.0091 8.5 13Z" fill="#0F1621"/>
</svg>
