<svg width="24" height="24" viewBox="0 0 24 24" fill="none" xmlns="http://www.w3.org/2000/svg">
<path d="M14 10V8H18.93C18.0499 6.47397 16.6906 5.28113 15.0632 4.60658C13.4359 3.93204 11.6313 3.81352 9.92968 4.26942C8.22804 4.72531 6.72447 5.73013 5.6523 7.12793C4.58013 8.52574 3.99931 10.2384 4 12H2C2 9.90118 2.66037 7.85555 3.88758 6.1529C5.11478 4.45024 6.8466 3.17687 8.83772 2.51317C10.8288 1.84946 12.9783 1.82906 14.9817 2.45486C16.985 3.08067 18.7407 4.32094 20 6V2H22V10H14ZM2 14V22H4V18C5.25929 19.6791 7.01497 20.9193 9.01832 21.5451C11.0217 22.1709 13.1712 22.1505 15.1623 21.4868C17.1534 20.8231 18.8852 19.5498 20.1124 17.8471C21.3396 16.1444 22 14.0988 22 12H20C20 14.1217 19.1571 16.1566 17.6569 17.6569C16.1566 19.1571 14.1217 20 12 20C10.5857 20.0015 9.19567 19.6331 7.96774 18.9315C6.73981 18.2298 5.71672 17.2192 5 16H10V14H2Z" fill="#0F1621"/>
</svg>
