<svg width="24" height="24" viewBox="0 0 24 24" fill="none" xmlns="http://www.w3.org/2000/svg">
<path d="M13 22H7L5 17H4C3.46957 17 2.96086 16.7893 2.58579 16.4142C2.21071 16.0391 2 15.5304 2 15V7.99999C2 7.46956 2.21071 6.96085 2.58579 6.58578C2.96086 6.2107 3.46957 5.99999 4 5.99999H11V16L13 22ZM22 19V2.99999C21.9995 2.82759 21.9545 2.65823 21.8693 2.50836C21.7841 2.35849 21.6616 2.2332 21.5136 2.14465C21.3657 2.05609 21.1974 2.00729 21.0251 2.00297C20.8527 1.99865 20.6822 2.03896 20.53 2.11999C18.92 2.99999 16.16 5.99999 13 5.99999V16C16.16 16 18.92 19 20.53 19.88C20.6822 19.961 20.8527 20.0013 21.0251 19.997C21.1974 19.9927 21.3657 19.9439 21.5136 19.8553C21.6616 19.7668 21.7841 19.6415 21.8693 19.4916C21.9545 19.3417 21.9995 19.1724 22 19Z" fill="#0F1621"/>
</svg>
