<svg width="16" height="16" viewBox="0 0 16 16" fill="none" xmlns="http://www.w3.org/2000/svg">
<path d="M9 15H5L3 12H2C1.73478 12 1.48043 11.8946 1.29289 11.7071C1.10536 11.5196 1 11.2652 1 11V5C1 4.73479 1.10536 4.48043 1.29289 4.2929C1.48043 4.10536 1.73478 4 2 4H7V11.05L9 15ZM13.43 13.82C13.5799 13.924 13.7554 13.985 13.9374 13.9964C14.1195 14.0078 14.3012 13.9692 14.463 13.8847C14.6247 13.8003 14.7602 13.6732 14.8548 13.5173C14.9495 13.3613 14.9997 13.1824 15 13V2C14.9997 1.81757 14.9495 1.6387 14.8548 1.48275C14.7602 1.3268 14.6247 1.19972 14.463 1.11526C14.3012 1.03081 14.1195 0.992195 13.9374 1.00361C13.7554 1.01502 13.5799 1.07602 13.43 1.18C12.27 2 11 4.05 9 4.05V11C11 11 12.28 13 13.43 13.82Z" fill="#0F1621"/>
</svg>
