<svg width="24" height="24" viewBox="0 0 24 24" fill="none" xmlns="http://www.w3.org/2000/svg">
<path fill-rule="evenodd" clip-rule="evenodd" d="M12 9C11.4067 9 10.8266 9.17595 10.3333 9.50559C9.83994 9.83524 9.45542 10.3038 9.22836 10.8519C9.0013 11.4001 8.94189 12.0033 9.05764 12.5853C9.1734 13.1672 9.45912 13.7018 9.87868 14.1213C10.2982 14.5409 10.8328 14.8266 11.4147 14.9424C11.9967 15.0581 12.5999 14.9987 13.1481 14.7716C13.6962 14.5446 14.1648 14.1601 14.4944 13.6667C14.8241 13.1734 15 12.5933 15 12C15 11.2044 14.6839 10.4413 14.1213 9.87868C13.5587 9.31607 12.7956 9 12 9ZM12 5C5.83 5 2 12 2 12C2 12 5.81 19 11.94 19C18.07 19 22 12 22 12C22 12 18.23 5 12 5ZM12 17C11.0111 17 10.0444 16.7068 9.22215 16.1573C8.3999 15.6079 7.75904 14.827 7.3806 13.9134C7.00216 12.9998 6.90315 11.9945 7.09607 11.0245C7.289 10.0546 7.7652 9.16373 8.46447 8.46447C9.16373 7.7652 10.0546 7.289 11.0245 7.09607C11.9945 6.90315 12.9998 7.00216 13.9134 7.3806C14.827 7.75904 15.6079 8.3999 16.1573 9.22215C16.7068 10.0444 17 11.0111 17 12C17 13.3261 16.4732 14.5979 15.5355 15.5355C14.5979 16.4732 13.3261 17 12 17Z" fill="#0F1621"/>
</svg>
