<svg width="24" height="24" viewBox="0 0 24 24" fill="none" xmlns="http://www.w3.org/2000/svg">
<path d="M21 2L2.63003 9.41C2.47242 9.47298 2.33344 9.57504 2.22617 9.70656C2.1189 9.83808 2.04686 9.99475 2.01685 10.1618C1.98685 10.3288 1.99985 10.5008 2.05464 10.6614C2.10943 10.8221 2.2042 10.9661 2.33003 11.08L5.00003 13V18C5.00003 18.2652 5.10539 18.5196 5.29292 18.7071C5.48046 18.8946 5.73481 19 6.00003 19H11.53L13.9 21.73C14.0222 21.8442 14.171 21.9259 14.3329 21.9677C14.4948 22.0094 14.6646 22.01 14.8268 21.9692C14.9889 21.9284 15.1382 21.8476 15.2611 21.7342C15.384 21.6208 15.4764 21.4784 15.53 21.32L19.62 10L22 3C22 2.73478 21.8947 2.48043 21.7071 2.29289C21.5196 2.10536 21.2652 2 21 2ZM5.07003 10.58L16.71 5.89L7.00003 15.6V12L6.17003 11.41L5.07003 10.58ZM17.74 9.32L14.22 19.05L13 17.69L12.45 17H8.45003L18.59 6.83L17.74 9.32Z" fill="#0F1621"/>
</svg>
