<svg width="24" height="24" viewBox="0 0 24 24" fill="none" xmlns="http://www.w3.org/2000/svg">
<path d="M7.00003 17L9.00003 19H6.00003C5.73481 19 5.48046 18.8946 5.29292 18.7071C5.10539 18.5196 5.00003 18.2652 5.00003 18V15.45L7.00003 17ZM2.63003 9.40999C2.47242 9.47297 2.33344 9.57502 2.22617 9.70655C2.1189 9.83807 2.04686 9.99473 2.01685 10.1618C1.98685 10.3288 1.99985 10.5008 2.05464 10.6614C2.10943 10.822 2.2042 10.9661 2.33003 11.08L5.00003 13L7.68003 14.92L20.33 2.26999L2.63003 9.40999ZM9.17003 16.26L11.53 19L13.9 21.73C14.0222 21.8442 14.171 21.9259 14.3329 21.9676C14.4948 22.0094 14.6646 22.01 14.8268 21.9692C14.9889 21.9284 15.1382 21.8476 15.2611 21.7342C15.384 21.6208 15.4764 21.4784 15.53 21.32L19.62 9.99999L21.78 3.64999L9.17003 16.26Z" fill="#0F1621"/>
</svg>
