<svg width="16" height="16" viewBox="0 0 16 16" fill="none" xmlns="http://www.w3.org/2000/svg">
<path d="M4.57 10L1.32 7.35C1.18337 7.24587 1.07586 7.1083 1.00785 6.95055C0.939844 6.7928 0.913619 6.62019 0.931707 6.44936C0.949795 6.27853 1.01159 6.11523 1.11112 5.97522C1.21066 5.83521 1.34459 5.72321 1.5 5.65L13.57 1L4.57 10ZM15 2.42L6 11.42L9.10999 14.71C9.22794 14.8277 9.37342 14.914 9.53321 14.9612C9.693 15.0083 9.86204 15.0148 10.025 14.98C10.1879 14.9453 10.3396 14.8703 10.4662 14.762C10.5928 14.6538 10.6904 14.5156 10.75 14.36L15 2.42ZM3 11V13C3 13.2652 3.10535 13.5196 3.29289 13.7071C3.48043 13.8946 3.73478 14 4 14H6L3 11Z" fill="#0F1621"/>
</svg>
