<svg width="16" height="16" viewBox="0 0 16 16" fill="none" xmlns="http://www.w3.org/2000/svg">
<path d="M14.59 8.64L7 1H1V7L8.63 14.64C8.75964 14.7743 8.915 14.8811 9.08681 14.954C9.25861 15.027 9.44335 15.0645 9.63 15.0645C9.81665 15.0645 10.0014 15.027 10.1732 14.954C10.345 14.8811 10.5004 14.7743 10.63 14.64L14.63 10.64C14.7617 10.5077 14.8654 10.3502 14.935 10.1769C15.0045 10.0037 15.0384 9.81817 15.0347 9.63151C15.0309 9.44485 14.9896 9.26085 14.9132 9.0905C14.8368 8.92015 14.7269 8.76694 14.59 8.64ZM4.7 6.1L3.29 4.68L4.7 3.27L6.11 4.68L4.7 6.1Z" fill="#0F1621"/>
</svg>
