<svg width="16" height="16" viewBox="0 0 16 16" fill="none" xmlns="http://www.w3.org/2000/svg">
<path d="M6 7V5C6.00446 4.56352 6.15158 4.14049 6.41893 3.79545C6.68627 3.4504 7.05916 3.2023 7.48069 3.08898C7.90223 2.97566 8.34926 3.00337 8.75357 3.16785C9.15789 3.33234 9.4973 3.62459 9.72 4H11.86C11.6071 3.06853 11.026 2.25991 10.2238 1.72326C9.42155 1.1866 8.45234 0.958112 7.49488 1.07993C6.53742 1.20174 5.65629 1.66564 5.014 2.38608C4.37171 3.10651 4.01157 4.03489 4 5V7H3V14C3 14.2652 3.10536 14.5196 3.29289 14.7071C3.48043 14.8946 3.73478 15 4 15H12C12.2652 15 12.5196 14.8946 12.7071 14.7071C12.8946 14.5196 13 14.2652 13 14V7H6ZM9 11H7V9H9V11Z" fill="#0F1621"/>
</svg>
