<svg width="24" height="24" viewBox="0 0 24 24" fill="none" xmlns="http://www.w3.org/2000/svg">
<path d="M9 9V6.81C9.0261 6.03986 9.3566 5.31151 9.919 4.78472C10.4814 4.25793 11.2298 3.97572 12 4C12.3981 3.98453 12.7951 4.05155 13.1661 4.19684C13.5371 4.34214 13.874 4.56256 14.1557 4.84428C14.4374 5.126 14.6579 5.46293 14.8032 5.8339C14.9484 6.20488 15.0155 6.60189 15 7H17C17.015 6.33928 16.896 5.68236 16.65 5.06893C16.4041 4.45551 16.0363 3.8983 15.569 3.43098C15.1017 2.96366 14.5445 2.59591 13.9311 2.34996C13.3176 2.10401 12.6607 1.98496 12 2C10.6994 1.97589 9.44243 2.46886 8.50499 3.37068C7.56754 4.2725 7.02627 5.50946 7 6.81V9H4V20C4 20.5304 4.21071 21.0391 4.58579 21.4142C4.96086 21.7893 5.46957 22 6 22H18C18.5304 22 19.0391 21.7893 19.4142 21.4142C19.7893 21.0391 20 20.5304 20 20V9H9ZM18 20H6V11H18V20ZM14 13H10V17H14V13Z" fill="#0F1621"/>
</svg>
