<svg width="8" height="8" viewBox="0 0 8 8" fill="none" xmlns="http://www.w3.org/2000/svg">
<g clip-path="url(#clip0_10648_33523)">
<path d="M5.41421 0.585788C5.78929 0.960861 6 1.46957 6 2L5 2C5 1.44772 4.55228 1 4 1C3.44772 1 3 1.44772 3 2V3L7 3V7C7 7.26522 6.89464 7.51957 6.70711 7.70711C6.51957 7.89465 6.26522 8 6 8H2C1.73478 8 1.48043 7.89465 1.29289 7.70711C1.10536 7.51957 1 7.26522 1 7V3H2V1.93C2.01815 1.41179 2.23685 0.920891 2.60997 0.560827C2.98309 0.200762 3.48148 -0.00031582 4 3.72342e-07C4.53043 3.72342e-07 5.03914 0.210716 5.41421 0.585788ZM5 6V5H3V6H5Z" fill="#0F1621"/>
</g>
<defs>
<clipPath id="clip0_10648_33523">
<rect width="8" height="8" fill="white"/>
</clipPath>
</defs>
</svg>
