<svg width="8" height="8" viewBox="0 0 8 8" fill="none" xmlns="http://www.w3.org/2000/svg">
<g clip-path="url(#clip0)">
<path d="M3 3V1.93C3.01775 1.6771 3.13089 1.44038 3.31653 1.26773C3.50218 1.09507 3.74648 0.999379 4 1C4.26522 1 4.51957 1.10536 4.70711 1.29289C4.89464 1.48043 5 1.73478 5 2H6C6 1.46957 5.78929 0.96086 5.41421 0.585787C5.03914 0.210714 4.53043 3.75875e-07 4 3.75875e-07C3.48148 -0.000317314 2.98309 0.200761 2.60997 0.560825C2.23685 0.92089 2.01815 1.41179 2 1.93V3H1V7C1 7.26522 1.10536 7.51957 1.29289 7.70711C1.48043 7.89464 1.73478 8 2 8H6C6.26522 8 6.51957 7.89464 6.70711 7.70711C6.89464 7.51957 7 7.26522 7 7V3H3ZM5 6H3V5H5V6Z" fill="#0F1621"/>
</g>
<defs>
<clipPath id="clip0">
<rect width="8" height="8" fill="white"/>
</clipPath>
</defs>
</svg>
