<svg width="24" height="24" viewBox="0 0 24 24" fill="none" xmlns="http://www.w3.org/2000/svg">
<path d="M9 13.5856L5.79293 16.7926L5 15.9997H2V7.9997H5L9 3.9997V13.5856ZM5.82843 9.9997H4V13.9997H5.82843L7 15.1713V8.82813L5.82843 9.9997Z" fill="#0F1621"/>
<path d="M13.2903 9.29528L11.7881 10.7975C11.5488 10.1433 11.1199 9.58045 10.5678 9.17556L12.0089 7.76422C12.5235 8.19099 12.959 8.70975 13.2903 9.29528Z" fill="#0F1621"/>
<path d="M18.9513 3.6343C18.5414 3.14724 18.0964 2.69069 17.6202 2.26855L16.1871 3.6721C16.6742 4.09285 17.124 4.5556 17.5308 5.05474L18.9513 3.6343Z" fill="#0F1621"/>
<path d="M19.9854 11.4286L21.7844 9.62955C21.926 10.3981 22 11.1902 22 11.9997C22 15.8582 20.319 19.324 17.6494 21.7049L16.2245 20.2949C18.538 18.2783 20 15.3097 20 11.9997C20 11.8081 19.9951 11.6177 19.9854 11.4286Z" fill="#0F1621"/>
<path d="M17.8761 13.5379C17.5262 15.6872 16.455 17.5945 14.9191 19.003L13.6585 17.7555L17.8761 13.5379Z" fill="#0F1621"/>
<path d="M16.1795 6.40609L14.7433 7.84231C14.3764 7.29243 13.9387 6.79375 13.4434 6.35928L14.8755 4.95668C15.3579 5.39356 15.7951 5.8793 16.1795 6.40609Z" fill="#0F1621"/>
<path d="M5.29289 20.2926L20.2929 5.29265L21.7071 6.70686L6.70711 21.7069L5.29289 20.2926Z" fill="#0F1621"/>
</svg>
