<svg width="24" height="24" viewBox="0 0 24 24" fill="none" xmlns="http://www.w3.org/2000/svg">
<path d="M20 17.6667C20 18.9554 18.9554 20 17.6667 20C16.378 20 15.3334 18.9554 15.3334 17.6667C15.3334 16.378 16.378 15.3334 17.6667 15.3334C18.9554 15.3334 20 16.378 20 17.6667Z" fill="#0F1621"/>
<path d="M16 13.3334L15.3334 4.00004H20L19.3334 13.3334H16Z" fill="#0F1621"/>
<path d="M7 8H4V16H7L11 20V4L7 8ZM9 8.82843V15.1716L7.82843 14H6V10H7.82843L9 8.82843ZM19.3334 13.3334H16L15.3334 4.00004H20L19.3334 13.3334ZM20 17.6667C20 18.9554 18.9554 20 17.6667 20C16.378 20 15.3334 18.9554 15.3334 17.6667C15.3334 16.378 16.378 15.3334 17.6667 15.3334C18.9554 15.3334 20 16.378 20 17.6667Z" fill="#0F1621"/>
</svg>
