<svg width="16" height="16" viewBox="0 0 16 16" fill="none" xmlns="http://www.w3.org/2000/svg">
<path d="M9.24 4L7.87 5.44C8.12939 5.66891 8.34903 5.93924 8.52 6.24L10 4.8C9.77314 4.50938 9.51861 4.24146 9.24 4ZM12.45 10.82C12.0037 11.8669 11.3188 12.7949 10.45 13.53L11.85 15C12.8131 14.1516 13.5902 13.113 14.1323 11.9496C14.6744 10.7862 14.9698 9.52316 15 8.24L12.45 10.82ZM12.17 2.62L12.8 2C12.4947 1.63981 12.1602 1.30535 11.8 1L10.49 2.5C10.8098 2.76973 11.1013 3.07128 11.36 3.4L12.17 2.62ZM6 3V8.76L3.46 11.3L3 11H1V5H3L6 3ZM6.42 14L5 12.59L13.59 4L15 5.42L6.42 14Z" fill="#0F1621"/>
</svg>
