<svg width="16" height="16" viewBox="0 0 16 16" fill="none" xmlns="http://www.w3.org/2000/svg">
<path d="M12.9258 2.07432C12.6061 1.67422 12.2547 1.30053 11.8755 0.957031L10.4434 2.35963C10.8337 2.70194 11.1881 3.08411 11.5003 3.49978L12.9258 2.07432Z" fill="#0F1621"/>
<path d="M14.9555 7.07485C14.9849 7.37928 15 7.6879 15 8.00005C15 10.772 13.8128 13.2667 11.9191 15.0034L10.4953 13.5945C11.7385 12.4837 12.6091 10.9647 12.8966 9.24814L14.9555 7.07485Z" fill="#0F1621"/>
<path d="M10.0665 4.9336C9.77138 4.49496 9.41472 4.10116 9.00888 3.76457L7.56783 5.17592C8.00173 5.49416 8.35958 5.90999 8.60906 6.39107L10.0665 4.9336Z" fill="#0F1621"/>
<path d="M6.5 8.50012V2.0001L3 5.0001H1V11.0001H3L3.53848 11.4616L6.5 8.50012Z" fill="#0F1621"/>
<path fill-rule="evenodd" clip-rule="evenodd" d="M14.7071 5.20723L5.20711 14.7072L3.79289 13.293L13.2929 3.79302L14.7071 5.20723Z" fill="#0F1621"/>
</svg>
