<svg width="24" height="24" viewBox="0 0 24 24" fill="none" xmlns="http://www.w3.org/2000/svg">
<path d="M16.9191 19.0033C18.8128 17.2667 20 14.772 20 12C20 9.20683 18.7945 6.69521 16.8755 4.95698L15.4434 6.35958C17.0106 7.73421 18 9.75156 18 12C18 14.2235 17.0324 16.221 15.4953 17.5944L16.9191 19.0033Z" fill="#0F1621"/>
<path d="M14.07 16.184C15.2512 15.1752 16 13.6751 16 12C16 10.2962 15.2253 8.77337 14.0089 7.76452L12.5678 9.17587C13.4362 9.81278 14 10.8405 14 12C14 13.1268 13.4675 14.1292 12.6405 14.7694L14.07 16.184Z" fill="#0F1621"/>
<path d="M4 16V8H7L11 4V20L7 16H4Z" fill="#0F1621"/>
</svg>
