<svg width="24" height="24" viewBox="0 0 24 24" fill="none" xmlns="http://www.w3.org/2000/svg">
<path d="M2 16.0003V8.00025H5L8.99998 4.00025V20.0003L5 16.0003H2Z" fill="#0F1621"/>
<path d="M17.6495 21.7054C20.3191 19.3246 22.0001 15.8587 22.0001 12.0002C22.0001 8.12768 20.3068 4.65063 17.6203 2.26904L16.1872 3.67259C18.5223 5.6897 20.0001 8.67238 20.0001 12.0002C20.0001 15.3103 18.5381 18.2788 16.2246 20.2954L17.6495 21.7054Z" fill="#0F1621"/>
<path d="M14.9191 19.0036C16.8128 17.2669 18.0001 14.7722 18.0001 12.0002C18.0001 9.20703 16.7946 6.69539 14.8756 4.95717L13.4434 6.35977C15.0107 7.7344 16.0001 9.75176 16.0001 12.0002C16.0001 14.2237 15.0325 16.2212 13.4954 17.5947L14.9191 19.0036Z" fill="#0F1621"/>
<path d="M12.0701 16.1842C13.2513 15.1755 14.0001 13.6753 14.0001 12.0002C14.0001 10.2964 13.2253 8.77355 12.0089 7.76471L10.5679 9.17606C11.4363 9.81296 12.0001 10.8407 12.0001 12.0002C12.0001 13.127 11.4676 14.1294 10.6406 14.7696L12.0701 16.1842Z" fill="#0F1621"/>
</svg>
