<svg width="16" height="16" viewBox="0 0 16 16" fill="none" xmlns="http://www.w3.org/2000/svg">
<path d="M11 8C10.9955 7.24839 10.837 6.50567 10.5343 5.81769C10.2316 5.12972 9.79111 4.51109 9.24 4L7.87 5.44C8.22666 5.76429 8.51162 6.15953 8.70662 6.60038C8.90161 7.04122 9.00234 7.51795 9.00234 8C9.00234 8.48205 8.90161 8.95878 8.70662 9.39962C8.51162 9.84047 8.22666 10.2357 7.87 10.56L9.24 12C9.79111 11.4889 10.2316 10.8703 10.5343 10.1823C10.837 9.49433 10.9955 8.75161 11 8ZM6 3V13L3 11H1V5H3L6 3Z" fill="#0F1621"/>
</svg>
