<svg width="16" height="16" viewBox="0 0 16 16" fill="none" xmlns="http://www.w3.org/2000/svg">
<path d="M13.5951 4.11871L15.0093 5.53293L5.81531 14.7269L4.40109 13.3127L13.5951 4.11871Z" fill="#0F1621"/>
<path d="M10.96 8.63049L8.43577 11.1547L8.90273 11.6455L10.65 9.89824C10.8034 9.48911 10.9074 9.0635 10.96 8.63049Z" fill="#0F1621"/>
<path d="M3.94688 11.6313L3 11H1V5H3L6 3V9.57812L3.94688 11.6313Z" fill="#0F1621"/>
<path d="M12.8845 6.70592L14.5323 5.05815C14.6134 5.30382 14.6841 5.55261 14.7444 5.80385L12.9872 7.56099C12.9699 7.27379 12.9355 6.98828 12.8845 6.70592Z" fill="#0F1621"/>
<path d="M13.159 2.41916L11.7125 3.86558C11.3651 3.36209 10.9547 2.90299 10.49 2.5L11.85 1C12.3359 1.42747 12.7743 1.90334 13.159 2.41916Z" fill="#0F1621"/>
<path d="M10.275 5.30316L8.78502 6.7931C8.76086 6.72818 8.73472 6.6639 8.70662 6.60038C8.51162 6.15953 8.22666 5.76429 7.87 5.44L9.24 4C9.6499 4.38014 9.99862 4.81976 10.275 5.30316Z" fill="#0F1621"/>
<path d="M12.3432 11.0229C12.5049 10.6686 12.6375 10.3029 12.7401 9.92939L14.9954 7.67411C14.9989 7.78261 15.0004 7.89126 15 8C15.0047 9.32396 14.726 10.6336 14.1827 11.841C13.6394 13.0483 12.844 14.1254 11.85 15L10.49 13.5C11.2781 12.8166 11.91 11.9719 12.3432 11.0229Z" fill="#0F1621"/>
</svg>
