<svg width="16" height="16" viewBox="0 0 16 16" fill="none" xmlns="http://www.w3.org/2000/svg">
<path d="M12.9257 2.07425C12.6061 1.67418 12.2547 1.30051 11.8755 0.957031L10.4434 2.35963C10.8336 2.70192 11.1881 3.08407 11.5003 3.49971L12.9257 2.07425Z" fill="#0F1621"/>
<path d="M14.9555 7.07474C14.9849 7.3792 15 7.68786 15 8.00005C15 10.772 13.8128 13.2667 11.9191 15.0034L10.4954 13.5945C11.7385 12.4837 12.6091 10.9646 12.8966 9.24798L14.9555 7.07474Z" fill="#0F1621"/>
<path d="M10.3928 4.60722C10.0821 4.18285 9.71469 3.80265 9.30167 3.47782L7.85409 4.89556C8.29719 5.19646 8.67248 5.58973 8.95229 6.04771L10.3928 4.60722Z" fill="#0F1621"/>
<path d="M7 8V2.00005L3.5 5.00005H1V11H3.5L3.76921 11.2308L4.833 10.167L4.05489 9.50005H2.5V6.50005H4.05489L5.5 5.26138V9.5L7 8Z" fill="#0F1621"/>
<path d="M14.7071 5.20711L5.20711 14.7071L3.79289 13.2929L13.2929 3.79289L14.7071 5.20711Z" fill="#0F1621"/>
</svg>
