<svg width="24" height="24" viewBox="0 0 24 24" fill="none" xmlns="http://www.w3.org/2000/svg">
<path d="M17.6494 21.7054C20.319 19.3245 22 15.8587 22 12.0002C22 8.12767 20.3067 4.65063 17.6202 2.26904L16.1871 3.67259C18.5222 5.6897 20 8.67237 20 12.0002C20 15.3102 18.538 18.2788 16.2245 20.2953L17.6494 21.7054Z" fill="#0F1621"/>
<path d="M14.9191 19.0035C16.8128 17.2669 18 14.7722 18 12.0002C18 9.20702 16.7945 6.69539 14.8755 4.95717L13.4434 6.35977C15.0106 7.73439 16 9.75175 16 12.0002C16 14.2237 15.0324 16.2212 13.4953 17.5946L14.9191 19.0035Z" fill="#0F1621"/>
<path d="M12.07 16.1842C13.2512 15.1754 14 13.6752 14 12.0002C14 10.2964 13.2253 8.77355 12.0089 7.7647L10.5678 9.17605C11.4362 9.81296 12 10.8407 12 12.0002C12 13.127 11.4675 14.1294 10.6405 14.7696L12.07 16.1842Z" fill="#0F1621"/>
<path d="M5 8.00012L9 4.00012V20.0001L5 16.0001H2V8.00012H5ZM7 8.82855L5.82843 10.0001H4V14.0001H5.82843L7 15.1717V8.82855Z" fill="#0F1621"/>
</svg>
