<svg width="16" height="16" viewBox="0 0 16 16" fill="none" xmlns="http://www.w3.org/2000/svg">
<path d="M11.8612 15.0559C13.7886 13.3172 15.0001 10.8 15.0001 7.99988C15.0001 5.17869 13.7703 2.64472 11.8176 0.904785L10.3845 2.30832C11.9858 3.68379 13.0001 5.72339 13.0001 7.99988C13.0001 10.2515 12.0078 12.2715 10.4367 13.6462L11.8612 15.0559Z" fill="#0F1621"/>
<path d="M9.30124 12.5226C10.6401 11.4698 11.5 9.83527 11.5 7.99991C11.5 6.13659 10.6137 4.48027 9.23971 3.42955L7.7879 4.85142C8.81836 5.51976 9.50005 6.68023 9.50005 7.99991C9.50005 9.28751 8.85111 10.4235 7.86245 11.0988L9.30124 12.5226Z" fill="#0F1621"/>
<path d="M3.5 4.99988H1V10.9999H3.5L7 13.9999V1.99988L3.5 4.99988ZM5.5 5.26121V10.7386L4.05489 9.49988H2.5V6.49988H4.05489L5.5 5.26121Z" fill="#0F1621"/>
</svg>
