<svg width="24" height="24" viewBox="0 0 24 24" fill="none" xmlns="http://www.w3.org/2000/svg">
<path d="M14 12C13.9985 11.2479 13.8414 10.5043 13.5385 9.81587C13.2356 9.12747 12.7935 8.50921 12.24 8L10.83 9.33C11.1991 9.66996 11.4937 10.0827 11.6952 10.5423C11.8967 11.0019 12.0007 11.4982 12.0007 12C12.0007 12.5018 11.8967 12.9981 11.6952 13.4577C11.4937 13.9173 11.1991 14.33 10.83 14.67L12.24 16C12.7935 15.4908 13.2356 14.8725 13.5385 14.1841C13.8414 13.4957 13.9985 12.7521 14 12ZM9 5V19L5 17H2V8H5L9 5Z" fill="#0F1621"/>
</svg>
