<svg width="24" height="24" viewBox="0 0 24 24" fill="none" xmlns="http://www.w3.org/2000/svg">
<path d="M9 13.5859L5.7929 16.793L5 16.0001H2V8.00013H5L9 4.00013V13.5859Z" fill="#0F1621"/>
<path d="M13.2902 9.29569L11.788 10.7979C11.5488 10.1437 11.1198 9.5809 10.5678 9.17603L12.0089 7.76468C12.5234 8.19145 12.959 8.71019 13.2902 9.29569Z" fill="#0F1621"/>
<path d="M18.9512 3.63474C18.5413 3.14769 18.0964 2.69116 17.6202 2.26904L16.1871 3.67259C16.6742 4.09332 17.1239 4.55606 17.5308 5.05518L18.9512 3.63474Z" fill="#0F1621"/>
<path d="M19.9854 11.429L21.7844 9.62998C21.926 10.3985 21.9999 11.1907 21.9999 12.0002C21.9999 15.8586 20.319 19.3245 17.6494 21.7053L16.2245 20.2953C18.538 18.2787 19.9999 15.3102 19.9999 12.0002C19.9999 11.8086 19.995 11.6182 19.9854 11.429Z" fill="#0F1621"/>
<path d="M17.8761 13.5382C17.5262 15.6876 16.455 17.5949 14.9191 19.0035L13.6584 17.7559L17.8761 13.5382Z" fill="#0F1621"/>
<path d="M16.1794 6.40651L14.7432 7.84273C14.3763 7.29286 13.9387 6.79421 13.4434 6.35975L14.8755 4.95715C15.3578 5.39402 15.7951 5.87974 16.1794 6.40651Z" fill="#0F1621"/>
<path fill-rule="evenodd" clip-rule="evenodd" d="M5.29289 20.293L20.2929 5.29302L21.7071 6.70723L6.70711 21.7072L5.29289 20.293Z" fill="#0F1621"/>
</svg>
