<svg width="24" height="24" viewBox="0 0 24 24" fill="none" xmlns="http://www.w3.org/2000/svg">
<path d="M19 2L20.4142 3.41421L4.85953 18.9689L3.44531 17.5547L19 2Z" fill="#0F1621"/>
<path d="M18.3279 5.48402C17.6806 5.16321 17.0097 4.89203 16.3211 4.6729L14.6938 6.30028C15.4233 6.4656 16.1349 6.69746 16.8197 6.99224L18.3279 5.48402Z" fill="#0F1621"/>
<path d="M15.2558 8.55618C14.509 8.29406 13.7338 8.12322 12.947 8.04707L10.9207 10.0733C11.2775 10.0236 11.6381 9.99847 12 9.99847C12.5525 9.99847 13.1021 10.057 13.6397 10.1723L15.2558 8.55618Z" fill="#0F1621"/>
<path d="M15.7073 10.9331L17.1698 9.4706C17.8342 9.88146 18.4489 10.371 19 10.93L17.59 12.35C17.0366 11.7843 16.4016 11.3069 15.7073 10.9331Z" fill="#0F1621"/>
<path d="M11.8063 12.0056C11.1204 12.0301 10.4448 12.1844 9.8154 12.461C9.12683 12.7636 8.50864 13.2059 8 13.76L8.99603 14.8159L11.8063 12.0056Z" fill="#0F1621"/>
<path d="M12.5925 14.0479L14.181 12.4594L14.1846 12.461C14.8732 12.7636 15.4914 13.2059 16 13.76L14.67 15.17C14.33 14.8009 13.9173 14.5063 13.4577 14.3048C13.1804 14.1832 12.8897 14.0971 12.5925 14.0479Z" fill="#0F1621"/>
<path d="M18.6608 7.97959L20.1074 6.53298C20.7778 6.9968 21.4115 7.52027 22 8.09998L20.57 9.51998C19.9826 8.93932 19.3424 8.4243 18.6608 7.97959Z" fill="#0F1621"/>
<path d="M12 4.00195C12.6798 4.00195 13.3546 4.05053 14.0198 4.14577L12.1655 6.00008C12.1104 5.99934 12.0552 5.99896 12 5.99896C8.79126 5.99896 5.71191 7.26412 3.43 9.51998L2 8.09998C4.66595 5.47394 8.25789 4.00195 12 4.00195Z" fill="#0F1621"/>
<path d="M8.20603 8.76302C8.76979 8.52716 9.3529 8.34496 9.94763 8.21799L6.11387 12.0518L5 10.93C5.91454 10.0024 7.00433 9.26578 8.20603 8.76302Z" fill="#0F1621"/>
<path d="M12 16C12.3956 16 12.7822 16.1173 13.1111 16.337C13.44 16.5568 13.6964 16.8692 13.8478 17.2346C13.9991 17.6001 14.0387 18.0022 13.9616 18.3902C13.8844 18.7781 13.6939 19.1345 13.4142 19.4142C13.1345 19.6939 12.7781 19.8844 12.3902 19.9616C12.0022 20.0387 11.6001 19.9991 11.2346 19.8477C10.8692 19.6964 10.5568 19.44 10.3371 19.1111C10.1173 18.7822 10 18.3955 10 18C10 17.4696 10.2107 16.9608 10.5858 16.5858C10.9609 16.2107 11.4696 16 12 16Z" fill="#0F1621"/>
</svg>
