<svg width="24" height="24" viewBox="0 0 24 24" fill="none" xmlns="http://www.w3.org/2000/svg">
<path d="M12 16C12.3956 16 12.7822 16.1173 13.1111 16.3371C13.44 16.5568 13.6964 16.8692 13.8478 17.2346C13.9991 17.6001 14.0387 18.0022 13.9616 18.3902C13.8844 18.7781 13.6939 19.1345 13.4142 19.4142C13.1345 19.6939 12.7781 19.8844 12.3902 19.9616C12.0022 20.0387 11.6001 19.9991 11.2346 19.8478C10.8692 19.6964 10.5568 19.44 10.3371 19.1111C10.1173 18.7822 10 18.3956 10 18C10 17.4696 10.2107 16.9609 10.5858 16.5858C10.9609 16.2107 11.4696 16 12 16ZM16 13.76L14.67 15.17C14.33 14.8009 13.9173 14.5063 13.4577 14.3048C12.9981 14.1033 12.5018 13.9993 12 13.9993C11.4982 13.9993 11.0019 14.1033 10.5423 14.3048C10.0827 14.5063 9.66996 14.8009 9.33 15.17L8 13.76C8.50864 13.206 9.12683 12.7636 9.8154 12.461C10.504 12.1584 11.2479 12.0022 12 12.0022C12.7521 12.0022 13.496 12.1584 14.1846 12.461C14.8732 12.7636 15.4914 13.206 16 13.76Z" fill="#0F1621"/>
</svg>
