<svg width="16" height="16" viewBox="0 0 16 16" fill="none" xmlns="http://www.w3.org/2000/svg">
<path d="M8.00004 10C8.29672 10 8.58673 10.088 8.8334 10.2528C9.08007 10.4176 9.27233 10.6519 9.38586 10.926C9.49939 11.2001 9.5291 11.5017 9.47122 11.7926C9.41334 12.0836 9.27048 12.3509 9.0607 12.5607C8.85093 12.7704 8.58365 12.9133 8.29268 12.9712C8.00171 13.0291 7.70011 12.9994 7.42602 12.8858C7.15193 12.7723 6.91766 12.58 6.75284 12.3334C6.58802 12.0867 6.50004 11.7967 6.50004 11.5C6.50004 11.1022 6.65808 10.7206 6.93938 10.4393C7.22069 10.158 7.60222 10 8.00004 10ZM12 7.76001L10.56 9.13001C10.2358 8.77335 9.84052 8.48838 9.39967 8.29339C8.95882 8.09839 8.48209 7.99766 8.00004 7.99766C7.518 7.99766 7.04127 8.09839 6.60042 8.29339C6.15957 8.48838 5.76433 8.77335 5.44004 9.13001L4.00004 7.76001C4.51404 7.20439 5.13738 6.76107 5.8309 6.45787C6.52442 6.15468 7.27314 5.99817 8.03004 5.99817C8.78694 5.99817 9.53567 6.15468 10.2292 6.45787C10.9227 6.76107 11.546 7.20439 12.06 7.76001H12ZM14.8 5.15001L13.37 6.51001C12.7131 5.72431 11.8917 5.09235 10.9638 4.65872C10.0359 4.22508 9.02423 4.00034 8.00004 4.00034C6.97586 4.00034 5.96415 4.22508 5.03629 4.65872C4.10843 5.09235 3.28703 5.72431 2.63004 6.51001L1.17004 5.15001C2.01496 4.1654 3.06276 3.37511 4.24164 2.83331C5.42053 2.2915 6.70262 2.01099 8.00004 2.01099C9.29747 2.01099 10.5796 2.2915 11.7584 2.83331C12.9373 3.37511 13.9851 4.1654 14.83 5.15001H14.8Z" fill="#0F1621"/>
</svg>
