<svg width="16" height="16" viewBox="0 0 16 16" fill="none" xmlns="http://www.w3.org/2000/svg">
<path d="M14.33 2.94L3.12002 14.15L2.06002 13.09L13.27 1.88L14.33 2.94ZM6.57002 7.17C5.49339 7.42424 4.50954 7.97506 3.73002 8.76L4.36002 9.38L6.57002 7.17ZM8.00002 5C8.23315 4.98602 8.4669 4.98602 8.70002 5L10.42 3.27C8.73873 2.85055 6.97729 2.87519 5.30839 3.3415C3.63948 3.80781 2.12039 4.69979 0.900024 5.93L2.32002 7.34C3.06391 6.59224 3.94932 6.00019 4.92455 5.59842C5.89979 5.19666 6.9453 4.99322 8.00002 5ZM13.83 4.88L12.37 6.32C12.8242 6.60788 13.2465 6.94309 13.63 7.32L15 5.93C14.63 5.54719 14.2286 5.19597 13.8 4.88H13.83ZM9.39003 9.29C9.91835 9.47746 10.3995 9.77775 10.8 10.17L12.22 8.76C11.8299 8.36976 11.3893 8.03345 10.91 7.76L9.39003 9.29ZM8.00002 11.5C7.70215 11.494 7.40924 11.5769 7.15865 11.7381C6.90807 11.8992 6.71115 12.1314 6.593 12.4049C6.47486 12.6784 6.44084 12.9809 6.49528 13.2738C6.54973 13.5667 6.69017 13.8368 6.89871 14.0496C7.10724 14.2624 7.37442 14.4082 7.66618 14.4686C7.95794 14.529 8.26106 14.5011 8.5369 14.3885C8.81275 14.2759 9.04881 14.0837 9.215 13.8364C9.38118 13.5891 9.46997 13.2979 9.47003 13C9.4701 12.6073 9.31619 12.2303 9.04134 11.9498C8.76649 11.6693 8.39263 11.5079 8.00002 11.5Z" fill="#0F1621"/>
</svg>
