<svg width="24" height="24" viewBox="0 0 24 24" fill="none" xmlns="http://www.w3.org/2000/svg">
<path d="M12 16C12.3956 16 12.7822 16.1173 13.1111 16.3371C13.44 16.5568 13.6964 16.8692 13.8478 17.2346C13.9991 17.6001 14.0387 18.0022 13.9616 18.3902C13.8844 18.7782 13.6939 19.1345 13.4142 19.4142C13.1345 19.6939 12.7781 19.8844 12.3902 19.9616C12.0022 20.0388 11.6001 19.9991 11.2346 19.8478C10.8692 19.6964 10.5568 19.4401 10.3371 19.1112C10.1173 18.7823 10 18.3956 10 18C10 17.4696 10.2107 16.9609 10.5858 16.5858C10.9609 16.2107 11.4696 16 12 16ZM16 13.76L14.67 15.17C14.33 14.8009 13.9173 14.5063 13.4577 14.3048C12.9981 14.1033 12.5018 13.9993 12 13.9993C11.4982 13.9993 11.0019 14.1033 10.5423 14.3048C10.0827 14.5063 9.66996 14.8009 9.33 15.17L8 13.76C8.50864 13.206 9.12683 12.7636 9.8154 12.461C10.504 12.1584 11.2479 12.0022 12 12.0022C12.7521 12.0022 13.496 12.1584 14.1846 12.461C14.8732 12.7636 15.4914 13.206 16 13.76ZM19 10.93L17.59 12.35C16.8618 11.6056 15.9922 11.0141 15.0322 10.6103C14.0723 10.2065 13.0414 9.9985 12 9.9985C10.9586 9.9985 9.92769 10.2065 8.96777 10.6103C8.00784 11.0141 7.13824 11.6056 6.41 12.35L5 10.93C5.91454 10.0024 7.00433 9.26581 8.20603 8.76305C9.40773 8.26029 10.6974 8.00138 12 8.00138C13.3026 8.00138 14.5923 8.26029 15.794 8.76305C16.9957 9.26581 18.0855 10.0024 19 10.93ZM22 8.10001L20.57 9.52001C18.2881 7.26415 15.2087 5.99899 12 5.99899C8.79126 5.99899 5.71191 7.26415 3.43 9.52001L2 8.10001C4.66595 5.47397 8.25789 4.00198 12 4.00198C15.7421 4.00198 19.334 5.47397 22 8.10001Z" fill="#0F1621"/>
</svg>
