<svg width="24" height="24" viewBox="0 0 24 24" fill="none" xmlns="http://www.w3.org/2000/svg">
<path d="M11.9999 16C12.3955 16 12.7822 16.1173 13.1111 16.3371C13.44 16.5568 13.6963 16.8692 13.8477 17.2346C13.9991 17.6001 14.0387 18.0022 13.9615 18.3902C13.8843 18.7781 13.6939 19.1345 13.4142 19.4142C13.1345 19.6939 12.7781 19.8844 12.3901 19.9616C12.0022 20.0387 11.6 19.9991 11.2346 19.8478C10.8691 19.6964 10.5568 19.44 10.337 19.1111C10.1172 18.7822 9.99995 18.3956 9.99995 18C9.99995 17.4696 10.2107 16.9609 10.5857 16.5858C10.9608 16.2107 11.4695 16 11.9999 16ZM21.1899 4.22L19.7799 2.81L4.28995 18.29L5.70995 19.71L21.1899 4.22ZM11.1299 10.05C9.30607 10.2303 7.60188 11.04 6.30995 12.34L4.88995 10.93C5.82073 9.99342 6.92897 9.25189 8.1498 8.74879C9.37063 8.24569 10.6795 7.99113 11.9999 8C12.3809 8.00277 12.7615 8.02614 13.1399 8.07L11.1299 10.05ZM17.2899 9.54C17.9073 9.94189 18.4804 10.4078 18.9999 10.93L17.5799 12.34C17.0612 11.8147 16.4723 11.3638 15.8299 11L17.2899 9.54ZM3.47995 9.54L2.06995 8.1C3.91395 6.26276 6.23365 4.97599 8.76853 4.38423C11.3034 3.79246 13.9531 3.91913 16.4199 4.75L14.8099 6.36C12.8098 5.86863 10.7169 5.90031 8.73264 6.45199C6.74833 7.00367 4.93941 8.05679 3.47995 9.51V9.54ZM21.8599 8.1L20.4499 9.51C19.9192 8.99033 19.3436 8.51851 18.7299 8.1L20.1599 6.67C20.7628 7.10189 21.3312 7.58 21.8599 8.1ZM14.3399 12.49C15.0381 12.791 15.6727 13.222 16.2099 13.76L14.7899 15.17C14.2242 14.6138 13.5019 14.244 12.7199 14.11L14.3399 12.49Z" fill="#0F1621"/>
</svg>
