<svg width="16" height="16" viewBox="0 0 16 16" fill="none" xmlns="http://www.w3.org/2000/svg">
<path d="M10.8991 1.41455L12.3134 2.82876L2.41421 12.7279L1 11.3137L10.8991 1.41455Z" fill="#0F1621"/>
<path d="M7.13563 3.05259C6.13612 3.14903 5.15771 3.41228 4.24162 3.83331C3.06273 4.37511 2.01493 5.1654 1.17002 6.15L2.63002 7.51C2.96353 7.11116 3.33941 6.75193 3.75007 6.43815L7.13563 3.05259Z" fill="#0F1621"/>
<path d="M7.27115 5.03838C7.51276 5.01309 7.75603 5.00034 8.00002 5.00034C8.64014 5.00034 9.2754 5.08813 9.88835 5.25985L11.4498 3.6984C10.7332 3.40101 9.98233 3.19801 9.21603 3.09351L7.27115 5.03838Z" fill="#0F1621"/>
<path d="M8.03002 6.99817C8.06962 6.99817 8.1092 6.99859 8.14874 6.99945L5.22385 9.92434L4.00002 8.76C4.51401 8.20439 5.13735 7.76107 5.83087 7.45787C6.52439 7.15468 7.27312 6.99817 8.03002 6.99817Z" fill="#0F1621"/>
<path d="M9.93153 7.33799L8.26193 9.00759C8.65403 9.03735 9.03885 9.1338 9.39964 9.29338C9.84049 9.48838 10.2357 9.77334 10.56 10.13L12 8.76H12.06C11.546 8.20439 10.9227 7.76107 10.2292 7.45787C10.131 7.41496 10.0318 7.37499 9.93153 7.33799Z" fill="#0F1621"/>
<path d="M12.8439 4.42565L11.3923 5.87722C12.1453 6.29437 12.8161 6.84754 13.37 7.51L14.8 6.15H14.83C14.2545 5.47937 13.5849 4.89888 12.8439 4.42565Z" fill="#0F1621"/>
<path d="M8.00002 11C8.29669 11 8.5867 11.088 8.83337 11.2528C9.08005 11.4176 9.27231 11.6519 9.38584 11.926C9.49937 12.2001 9.52907 12.5017 9.4712 12.7926C9.41332 13.0836 9.27046 13.3509 9.06068 13.5607C8.8509 13.7704 8.58362 13.9133 8.29265 13.9712C8.00168 14.0291 7.70008 13.9994 7.42599 13.8858C7.1519 13.7723 6.91763 13.58 6.75281 13.3334C6.58799 13.0867 6.50002 12.7967 6.50002 12.5C6.50002 12.1022 6.65805 11.7206 6.93936 11.4393C7.22066 11.158 7.60219 11 8.00002 11Z" fill="#0F1621"/>
</svg>
