<svg width="16" height="16" viewBox="0 0 16 16" fill="none" xmlns="http://www.w3.org/2000/svg">
<path d="M10.8991 1.41992L12.3134 2.83414L2.41421 12.7333L1 11.3191L10.8991 1.41992Z" fill="#0E1520"/>
<path d="M7.13563 3.05796C6.13612 3.1544 5.15771 3.41765 4.24162 3.83868C3.06273 4.38048 2.01493 5.17077 1.17002 6.15537L2.63002 7.51537C2.96353 7.11653 3.33941 6.7573 3.75007 6.44352L7.13563 3.05796Z" fill="#0E1520"/>
<path d="M9.93153 7.34336L8.26193 9.01296C8.65403 9.04273 9.03885 9.13917 9.39964 9.29876C9.84049 9.49375 10.2357 9.77871 10.56 10.1354L12 8.76537H12.06C11.546 8.20976 10.9227 7.76644 10.2292 7.46324C10.131 7.42033 10.0318 7.38036 9.93153 7.34336Z" fill="#0E1520"/>
<path d="M12.8439 4.43103L11.3923 5.8826C12.1453 6.29974 12.8161 6.85291 13.37 7.51537L14.8 6.15537H14.83C14.2545 5.48474 13.5849 4.90425 12.8439 4.43103Z" fill="#0E1520"/>
<path d="M8.00002 11.0054C8.29669 11.0054 8.5867 11.0933 8.83337 11.2582C9.08005 11.423 9.27231 11.6573 9.38584 11.9313C9.49937 12.2054 9.52907 12.507 9.4712 12.798C9.41332 13.089 9.27046 13.3563 9.06068 13.566C8.8509 13.7758 8.58362 13.9187 8.29265 13.9766C8.00168 14.0344 7.70008 14.0047 7.42599 13.8912C7.1519 13.7777 6.91763 13.5854 6.75281 13.3387C6.58799 13.0921 6.50002 12.802 6.50002 12.5054C6.50002 12.1075 6.65805 11.726 6.93936 11.4447C7.22066 11.1634 7.60219 11.0054 8.00002 11.0054Z" fill="#0E1520"/>
</svg>
