<svg width="16" height="16" viewBox="0 0 16 16" fill="none" xmlns="http://www.w3.org/2000/svg">
<path d="M8 10C8.29667 10 8.58668 10.088 8.83335 10.2528C9.08003 10.4176 9.27229 10.6519 9.38582 10.926C9.49935 11.2001 9.52906 11.5017 9.47118 11.7926C9.4133 12.0836 9.27044 12.3509 9.06066 12.5607C8.85088 12.7704 8.58361 12.9133 8.29264 12.9712C8.00166 13.0291 7.70006 12.9994 7.42597 12.8858C7.15189 12.7723 6.91762 12.58 6.7528 12.3334C6.58797 12.0867 6.5 11.7967 6.5 11.5C6.5 11.1022 6.65804 10.7206 6.93934 10.4393C7.22064 10.158 7.60218 10 8 10ZM12 7.76001L10.56 9.13001C10.2357 8.77335 9.84047 8.48838 9.39962 8.29339C8.95878 8.09839 8.48205 7.99767 8 7.99767C7.51795 7.99767 7.04122 8.09839 6.60038 8.29339C6.15953 8.48838 5.76429 8.77335 5.44 9.13001L4 7.76001C4.514 7.20439 5.13733 6.76107 5.83085 6.45787C6.52438 6.15468 7.2731 5.99817 8.03 5.99817C8.7869 5.99817 9.53562 6.15468 10.2291 6.45787C10.9227 6.76107 11.546 7.20439 12.06 7.76001H12Z" fill="#0F1621"/>
</svg>
