<svg width="24" height="24" viewBox="0 0 24 24" fill="none" xmlns="http://www.w3.org/2000/svg">
<path d="M21.075 7.375L22.075 6.375L20.675 4.975L19.875 5.775L16.475 2.375C15.975 1.875 15.175 1.875 14.675 2.375L12.475 4.575C11.975 5.075 11.975 5.875 12.475 6.375L13.075 6.975L7.075 12.975L6.375 12.275C5.875 11.775 5.075 11.775 4.575 12.275L2.375 14.575C1.875 15.075 1.875 15.875 2.375 16.375L5.775 19.775L5.075 20.575L6.475 21.975L7.475 20.975H8.075H15.075C15.475 20.975 15.875 20.775 15.975 20.375L17.775 15.775L20.375 14.875C20.775 14.775 21.075 14.375 21.075 13.975V7.975V7.675V7.375ZM16.975 5.575L18.375 6.975L15.575 9.775L14.175 8.375L16.975 5.575ZM7.175 18.375L5.775 16.975L8.575 14.175L9.975 15.575L7.175 18.375ZM19.075 13.275L16.275 14.175L14.375 18.975H10.075L19.075 9.975V13.275ZM22.075 21.975H17.775L22.075 19.075V21.975ZM2.075 21.975V20.575L4.975 21.975H2.075Z" fill="#0F1621"/>
</svg>
