<svg width="16" height="16" viewBox="0 0 16 16" fill="none" xmlns="http://www.w3.org/2000/svg">
<path d="M12.0999 13L14.0999 9.99999V13H12.0999ZM13.0999 8.59999L11.4999 9.69999L10.4999 14.1H4.79995L4.19995 15.1L2.99995 14.2L3.59995 13.2L1.59995 11.9C0.999949 11.5 0.899949 10.8 1.19995 10.3L2.59995 8.09999L4.19995 8.89999L6.79995 4.89999L5.49995 3.79999L6.89995 1.59999C7.29995 0.999987 7.99995 0.799986 8.49995 1.19999L10.4999 2.49999L11.0999 1.49999L12.2999 2.29999L11.6999 3.29999L13.4999 6.49999C13.9999 7.19999 13.7999 8.09999 13.0999 8.59999ZM7.59995 4.69999C7.69995 5.19999 8.29995 5.59999 8.79995 5.49999C9.29995 5.39999 9.69995 4.79999 9.59995 4.29999C9.49995 3.79999 8.89995 3.39999 8.39995 3.49999C7.79995 3.59999 7.49995 4.19999 7.59995 4.69999ZM5.59995 10.4C5.49995 9.89999 4.89995 9.49999 4.39995 9.59999C3.89995 9.69999 3.49995 10.3 3.59995 10.8C3.69995 11.3 4.29995 11.7 4.79995 11.6C5.39995 11.4 5.79995 10.9 5.59995 10.4ZM12.2999 7.19999L10.8999 4.69999H10.7999L6.39995 11.6L5.89995 12.4H9.39995L10.0999 9.19999L10.1999 8.59999L10.6999 8.29999L12.2999 7.19999C12.2999 7.29999 12.2999 7.29999 12.2999 7.19999Z" fill="#0F1621"/>
</svg>
