<svg width="24" height="24" viewBox="0 0 24 24" fill="none" xmlns="http://www.w3.org/2000/svg">
<path d="M22 22H17.8L22 19.2V22ZM5 22L2 20V22H5ZM5.1 20.5L5.8 19.8L2.3 16.3C1.9 15.9 1.9 15.3 2.3 14.9L5.1 12.1C5.5 11.7 6.1 11.7 6.5 12.1L7.2 12.8L12.8 7.2L12.1 6.5C11.7 6.1 11.7 5.5 12.1 5.1C12.7 4.5 14.1 3.1 14.9 2.3C15.3 1.9 15.9 1.9 16.3 2.3L19.8 5.8L20.5 5.1L21.9 6.5L20.9 7.5L21 14.1C21 14.5 20.7 14.9 20.3 15L17.8 15.8L16 20.4C15.8 20.8 15.5 21 15.1 21L7.5 20.9L6.5 21.9L5.1 20.5ZM19 10.1V9.3L9.4 19H10.1H14.4L16.3 14.2L19 13.3V10.1ZM7.2 18.4L18.4 7.2L15.6 4.4L14.2 5.8L15.6 7.2L7.2 15.6L5.8 14.2L4.4 15.6L7.2 18.4Z" fill="#0F1621"/>
</svg>
