<svg width="24" height="24" viewBox="0 0 24 24" fill="none" xmlns="http://www.w3.org/2000/svg">
<path d="M5 3.3L3 5.3L8.2 10.3L12.5 5.7L5 3.3ZM20.4 4.1C20.3 5.1 19.9 6.4 19.6 6.8L17.6 8.9L16.8 9.7L17 10.8L18.4 17.1L15.6 13.1L14.4 11.4L12.8 12.6L8.8 15.6L8.7 15.7V15.5H8.5C11.7 11.9 16.7 6.3 17.4 5.6C17.8 5.3 19.3 4.5 20.4 4.1ZM21.1 2C19.5 2 16.8 3.5 16 4.3C15 5.3 7 14.3 7 14.3L3.4 14.9L2 16.3L7 17.3L8 22.3L9.4 20.9L10 17.3L14 14.3L19 21.3L21 19.3L19 10.4L21 8.3C22 7.3 23 3.3 22 2.3C21.8 2.1 21.5 2 21.1 2Z" fill="black"/>
</svg>
