<svg width="16" height="16" viewBox="0 0 16 16" fill="none" xmlns="http://www.w3.org/2000/svg">
<path d="M3.7998 12.2C3.6998 12.1 3.6998 11.9 3.8998 11.5L1.8998 10.3L2.4998 9.70002L4.5998 10.2C5.2998 9.20002 6.3998 7.90003 7.4998 6.60003L1.2998 4.60003L2.7998 3.10003L10.1998 3.70002C12.6998 1.30002 13.8998 1.00003 14.3998 1.50003C14.8998 2.00003 14.5998 3.20002 12.1998 5.70002L12.7998 13.1L11.2998 14.6L9.2998 8.40003C7.9998 9.50003 6.7998 10.5 5.6998 11.3L6.1998 13.4L5.5998 14L4.3998 12C4.0998 12.4 3.8998 12.4 3.7998 12.2Z" fill="#0F1621"/>
</svg>
