<svg width="24" height="24" viewBox="0 0 24 24" fill="none" xmlns="http://www.w3.org/2000/svg">
<path d="M11.9999 4L19.9999 20H3.99992L11.9999 4ZM11.9999 2C11.6278 2.0002 11.2632 2.10419 10.947 2.30028C10.6307 2.49637 10.3755 2.77679 10.2099 3.11L2.20992 19.11C2.05844 19.4148 1.98727 19.7533 2.00316 20.0933C2.01904 20.4334 2.12146 20.7637 2.3007 21.0531C2.47994 21.3425 2.73008 21.5814 3.02743 21.7471C3.32479 21.9128 3.65951 21.9998 3.99992 22H19.9999C20.3403 21.9998 20.675 21.9128 20.9724 21.7471C21.2698 21.5814 21.5199 21.3425 21.6991 21.0531C21.8784 20.7637 21.9808 20.4334 21.9967 20.0933C22.0126 19.7533 21.9414 19.4148 21.7899 19.11L13.7899 3.11C13.6243 2.77679 13.3691 2.49637 13.0529 2.30028C12.7367 2.10419 12.372 2.0002 11.9999 2ZM10.9999 9V14H12.9999V9H10.9999ZM10.9999 16V18H12.9999V16H10.9999Z" fill="#0F1621"/>
</svg>
