<svg width="24" height="24" viewBox="0 0 24 24" fill="none" xmlns="http://www.w3.org/2000/svg">
<path d="M11 8.99994V13.9999H13V8.99994H11ZM11 15.9999V17.9999H13V15.9999H11ZM13.79 3.10994L21.79 19.1099C21.9415 19.4148 22.0127 19.7532 21.9968 20.0933C21.9809 20.4333 21.8785 20.7637 21.6993 21.0531C21.52 21.3424 21.2699 21.5813 20.9725 21.747C20.6752 21.9127 20.3404 21.9998 20 21.9999H4.00004C3.65963 21.9998 3.32491 21.9127 3.02756 21.747C2.7302 21.5813 2.48006 21.3424 2.30082 21.0531C2.12158 20.7637 2.01916 20.4333 2.00328 20.0933C1.98739 19.7532 2.05856 19.4148 2.21004 19.1099L10.21 3.10994C10.3759 2.77713 10.6313 2.49715 10.9475 2.30145C11.2637 2.10575 11.6282 2.00208 12 2.00208C12.3719 2.00208 12.7364 2.10575 13.0526 2.30145C13.3688 2.49715 13.6242 2.77713 13.79 3.10994Z" fill="#0F1621"/>
</svg>
