<svg width="16" height="16" viewBox="0 0 16 16" fill="none" xmlns="http://www.w3.org/2000/svg">
<path d="M6.99978 5.00001V9.00001H8.99978V5.00001H6.99978ZM6.99978 11V13H8.99978V11H6.99978ZM9.24977 1.77001L14.8498 13C14.9505 13.2123 14.9961 13.4464 14.9826 13.681C14.969 13.9155 14.8966 14.1429 14.7721 14.3421C14.6476 14.5413 14.4749 14.706 14.2701 14.821C14.0652 14.9359 13.8347 14.9975 13.5998 15H2.39978C2.16486 14.9975 1.93435 14.9359 1.72948 14.821C1.52461 14.706 1.35196 14.5413 1.22745 14.3421C1.10294 14.1429 1.03056 13.9155 1.01699 13.681C1.00341 13.4464 1.04908 13.2123 1.14978 13L6.74978 1.80001C6.86368 1.56718 7.03999 1.37055 7.25906 1.23201C7.47813 1.09347 7.73136 1.01847 7.99054 1.01536C8.24972 1.01225 8.50467 1.08115 8.72701 1.21439C8.94934 1.34763 9.13031 1.53998 9.24977 1.77001Z" fill="#0F1621"/>
</svg>
