<svg width="24" height="24" viewBox="0 0 24 24" fill="none" xmlns="http://www.w3.org/2000/svg">
<path d="M9 10H11V12H9V14H7V12H5V10H7V8H9V10Z" fill="#0F1621"/>
<path d="M17 21C15.6938 21 14.5825 20.1652 14.1707 19H9.82929C9.41746 20.1652 8.30622 21 7 21C5.69378 21 4.58254 20.1652 4.17071 19H3.5C2.67157 19 2 18.3284 2 17.5V6.5C2 5.67157 2.67157 5 3.5 5H14V7H16V6C16 5.44772 16.4477 5 17 5C17.5523 5 18 5.44772 18 6V7C18 7.0135 17.9995 7.02688 17.9984 7.04011C18.4778 7.15332 18.8799 7.49827 19.058 7.97331L20.386 11.5147L21.6 13.1333C21.8596 13.4795 22 13.9006 22 14.3333V17.5C22 18.3284 21.3284 19 20.5 19H19.8293C19.4175 20.1652 18.3062 21 17 21ZM4 17H4.17071C4.58254 15.8348 5.69378 15 7 15C8.30622 15 9.41746 15.8348 9.82929 17H14.1707C14.5825 15.8348 15.6938 15 17 15C18.3062 15 19.4175 15.8348 19.8293 17H20V14.3333L19.75 14H13.5C12.6716 14 12 13.3284 12 12.5V7H4V17ZM14 9V12H18.432L17.307 9H14ZM7 17C6.44772 17 6 17.4477 6 18C6 18.5523 6.44772 19 7 19C7.55228 19 8 18.5523 8 18C8 17.4477 7.55228 17 7 17ZM16 18C16 18.5523 16.4477 19 17 19C17.5523 19 18 18.5523 18 18C18 17.4477 17.5523 17 17 17C16.4477 17 16 17.4477 16 18Z" fill="#0F1621"/>
</svg>
