<svg width="24" height="24" viewBox="0 0 24 24" fill="none" xmlns="http://www.w3.org/2000/svg">
<path d="M19.8293 19H20.5C21.3284 19 22 18.3284 22 17.5V14.4142C22 13.8838 21.7893 13.3751 21.4142 13L20.4174 12.0032L19.6081 8.15571C19.5961 8.09868 19.5707 7.99047 19.5142 7.86866C19.2699 7.34197 18.7407 7 18.1535 7H18V6C18 5.44772 17.5523 5 17 5C16.4477 5 16 5.44772 16 6V7H14V5H3.5C2.67157 5 2 5.67157 2 6.5V17.5C2 18.3284 2.67157 19 3.5 19H4.17071C4.58254 20.1652 5.69378 21 7 21C8.30622 21 9.41746 20.1652 9.82929 19H14.1707C14.5825 20.1652 15.6938 21 17 21C18.3062 21 19.4175 20.1652 19.8293 19ZM14 12V9H17.7419L18.3729 12H14ZM7 12H5V10H7V8H9V10H11V12H9V14H7V12ZM7 17C7.55228 17 8 17.4477 8 18C8 18.5523 7.55228 19 7 19C6.44772 19 6 18.5523 6 18C6 17.4477 6.44772 17 7 17ZM16 18C16 17.4477 16.4477 17 17 17C17.5523 17 18 17.4477 18 18C18 18.5523 17.5523 19 17 19C16.4477 19 16 18.5523 16 18Z" fill="#0F1621"/>
</svg>
