<svg width="16" height="16" viewBox="0 0 16 16" fill="none" xmlns="http://www.w3.org/2000/svg">
<path d="M3.25 7.5H4.5V8.75H6V7.5H7.25V6H6V4.75H4.5V6H3.25V7.5Z" fill="#0F1621"/>
<path d="M12 3.43373V2.75C12 2.33579 11.6642 2 11.25 2C10.8358 2 10.5 2.33579 10.5 2.75V3.25H9.5V2.25H2.25C1.55964 2.25 1 2.80965 1 3.5V11.5C1 12.1904 1.55964 12.75 2.25 12.75H3.06294C3.39643 13.4871 4.13832 14 5 14C5.86168 14 6.60357 13.4871 6.93707 12.75H9.43793C9.77143 13.4871 10.5133 14 11.375 14C12.2367 14 12.9786 13.4871 13.3121 12.75H13.7115C14.4019 12.75 14.9615 12.1904 14.9615 11.5V9.47124C14.9615 8.949 14.7283 8.45405 14.3255 8.12161L13.7312 7.63104C13.69 7.59703 13.6608 7.55071 13.6478 7.49887L12.917 4.57556C12.7897 4.06642 12.4466 3.65659 12 3.43373ZM2.5 11.25V3.75H8V7.5C8 8.19036 8.55964 8.75 9.25 8.75H12.732C12.7465 8.76285 12.7613 8.77548 12.7763 8.78788L13.3707 9.27844C13.4282 9.32593 13.4615 9.39664 13.4615 9.47124V11.25H13.4066C13.1397 10.3814 12.3311 9.75 11.375 9.75C10.4189 9.75 9.61029 10.3814 9.3434 11.25H7.0316C6.76471 10.3814 5.95609 9.75 5 9.75C4.04391 9.75 3.23529 10.3814 2.9684 11.25H2.5ZM12.0394 7.25H9.5V4.75H11.2192C11.3339 4.75 11.4339 4.82807 11.4618 4.93937L12.0394 7.25ZM4.375 11.875C4.375 11.5298 4.65482 11.25 5 11.25C5.34518 11.25 5.625 11.5298 5.625 11.875C5.625 12.2202 5.34518 12.5 5 12.5C4.65482 12.5 4.375 12.2202 4.375 11.875ZM11.375 11.25C11.7202 11.25 12 11.5298 12 11.875C12 12.2202 11.7202 12.5 11.375 12.5C11.0298 12.5 10.75 12.2202 10.75 11.875C10.75 11.5298 11.0298 11.25 11.375 11.25Z" fill="#0F1621"/>
</svg>
