<svg width="24" height="24" viewBox="0 0 24 24" fill="none" xmlns="http://www.w3.org/2000/svg">
<path d="M18.6 7H22V5H18.6C17.6 5 16.6 5.5 16 6.3L13.7 9.2C13.2 9.8 13 10.5 13 11.3V15H11V9.3C11 6.9 9.1 5 6.7 5H2V7H3V10H2V12H9V15H8.8C8.4 13.8 7.3 13 6 13C4.7 13 3.6 13.8 3.2 15H2V17H3.2C3.6 18.2 4.7 19 6 19C7.3 19 8.4 18.2 8.8 17H11H13H15H15.2C15.6 18.2 16.7 19 18 19C19.3 19 20.4 18.2 20.8 17H22V15H20.8C20.4 13.8 19.3 13 18 13C16.7 13 15.6 13.8 15.2 15H15V12H22V10H15.6L17.6 7.5C17.8 7.2 18.2 7 18.6 7ZM6 17C5.4 17 5 16.6 5 16C5 15.4 5.4 15 6 15C6.6 15 7 15.4 7 16C7 16.6 6.6 17 6 17ZM9 10H5V7H6.7C8 7 9 8 9 9.3V10ZM18 15C18.6 15 19 15.4 19 16C19 16.6 18.6 17 18 17C17.4 17 17 16.6 17 16C17 15.4 17.4 15 18 15Z" fill="#0F1621"/>
</svg>
