<svg width="24" height="24" viewBox="0 0 24 24" fill="none" xmlns="http://www.w3.org/2000/svg">
<path d="M18.6 8H22V6H18.6C17.6 6 16.6 6.5 16 7.3L13.7 10.2C13.2 10.8 13 11.5 13 12.3V16H11V9C11 7.9 10.1 7 9 7H4C2.9 7 2 7.9 2 9V18H3.2C3.6 19.2 4.7 20 6 20C7.3 20 8.4 19.2 8.8 18H9H10H13H15H15.2C15.6 19.2 16.7 20 18 20C19.3 20 20.4 19.2 20.8 18H22V16H20.8C20.4 14.8 19.3 14 18 14C16.7 14 15.6 14.8 15.2 16H15V13H22V11H15.6L17.6 8.5C17.8 8.2 18.2 8 18.6 8ZM6 18C5.4 18 5 17.6 5 17C5 16.4 5.4 16 6 16C6.6 16 7 16.4 7 17C7 17.6 6.6 18 6 18ZM9 16H8.8C8.4 14.8 7.3 14 6 14C5.2 14 4.5 14.3 4 14.8V9H9V16ZM18 16C18.6 16 19 16.4 19 17C19 17.6 18.6 18 18 18C17.4 18 17 17.6 17 17C17 16.4 17.4 16 18 16Z" fill="#0F1621"/>
</svg>
