<svg width="16" height="16" viewBox="0 0 16 16" fill="none" xmlns="http://www.w3.org/2000/svg">
<path d="M14.2 5H15V3H14.2C13.1 3 12.1 3.4 11.4 4.2L9.89999 5.7C9.29999 6.3 9 7 9 7.8V9H8V6C8 4.9 7.1 4 6 4H3C1.9 4 1 4.9 1 6V11H2.09999C2.29999 12.1 3.3 13 4.5 13C5.7 13 6.69999 12.1 6.89999 11H10C10.2 12.1 11.2 13 12.4 13C13.8 13 14.9 11.9 14.9 10.5V7H11.4L12.8 5.6C13.2 5.2 13.7 5 14.2 5ZM4.5 11.5C3.9 11.5 3.5 11.1 3.5 10.5C3.5 9.9 3.9 9.5 4.5 9.5C5.1 9.5 5.5 9.9 5.5 10.5C5.5 11.1 5 11.5 4.5 11.5ZM12.5 9.5C13.1 9.5 13.5 9.9 13.5 10.5C13.5 11.1 13.1 11.5 12.5 11.5C11.9 11.5 11.5 11.1 11.5 10.5C11.5 9.9 11.9 9.5 12.5 9.5Z" fill="#0F1621"/>
</svg>
