<svg width="16" height="16" viewBox="0 0 16 16" fill="none" xmlns="http://www.w3.org/2000/svg">
<path d="M14.2 6H15V4H14.2C13.1 4 12.1 4.4 11.4 5.2L9.89999 6.7C9.29999 7.3 9 8 9 8.8V10H8V5C8 3.9 7.1 3 6 3H1V5H2V7H1V11.5C1 12.9 2.1 14 3.5 14C4.7 14 5.69999 13.1 5.89999 12H10C10.2 13.1 11.2 14 12.4 14C13.8 14 14.9 12.9 14.9 11.5V8H11.3L12.7 6.6C13.2 6.2 13.7 6 14.2 6ZM3.5 12.5C2.9 12.5 2.5 12.1 2.5 11.5C2.5 10.9 2.9 10.5 3.5 10.5C4.1 10.5 4.5 10.9 4.5 11.5C4.5 12.1 4.1 12.5 3.5 12.5ZM6 7H4V5H6V7ZM12.5 10.5C13.1 10.5 13.5 10.9 13.5 11.5C13.5 12.1 13.1 12.5 12.5 12.5C11.9 12.5 11.5 12.1 11.5 11.5C11.5 10.9 11.9 10.5 12.5 10.5Z" fill="#0F1621"/>
</svg>
