<svg width="24" height="24" viewBox="0 0 24 24" fill="none" xmlns="http://www.w3.org/2000/svg">
<path d="M19 7H22V5H19C18.1 5 17.2 5.4 16.7 6.1L13.7 9.8C13.3 10.3 13 11 13 11.7V15H11V9.3C11 6.9 9.10001 5 6.70001 5H2V7H3V10H2V17H3.20001C3.60001 18.2 4.7 19 6 19C7.3 19 8.39999 18.2 8.79999 17H15.2C15.6 18.2 16.7 19 18 19C19.3 19 20.4 18.2 20.8 17H22V10H16.1L18.2 7.4C18.4 7.1 18.7 7 19 7ZM5 7H6.70001C8.00001 7 9 8 9 9.3V10H5V7ZM6 17C5.4 17 5 16.6 5 16C5 15.4 5.4 15 6 15C6.6 15 7 15.4 7 16C7 16.6 6.6 17 6 17ZM18 15C18.6 15 19 15.4 19 16C19 16.6 18.6 17 18 17C17.4 17 17 16.6 17 16C17 15.4 17.4 15 18 15Z" fill="#0F1621"/>
</svg>
