<svg width="24" height="24" viewBox="0 0 24 24" fill="none" xmlns="http://www.w3.org/2000/svg">
<path d="M19 8H22V6H19C18.1 6 17.2 6.4 16.7 7.1L13.7 10.8C13.3 11.3 13 12 13 12.7V16H11V9C11 7.9 10.1 7 9 7H4C2.9 7 2 7.9 2 9V18H3.20001C3.60001 19.2 4.7 20 6 20C7.3 20 8.39999 19.2 8.79999 18H15.2C15.6 19.2 16.7 20 18 20C19.3 20 20.4 19.2 20.8 18H22V11H16.1L18.2 8.4C18.4 8.1 18.7 8 19 8ZM6 18C5.4 18 5 17.6 5 17C5 16.4 5.4 16 6 16C6.6 16 7 16.4 7 17C7 17.6 6.6 18 6 18ZM18 18C17.4 18 17 17.6 17 17C17 16.4 17.4 16 18 16C18.6 16 19 16.4 19 17C19 17.6 18.6 18 18 18Z" fill="#0F1621"/>
</svg>
