<svg width="24" height="24" viewBox="0 0 24 24" fill="none" xmlns="http://www.w3.org/2000/svg">
<path d="M2 12C2 7.58172 5.58172 4 10 4H10.1502C10.3802 4 10.6081 4.05517 10.7689 4.21968C11.3144 4.77771 12.5 6.61046 12.5 12C12.5 17.3895 11.3144 19.2223 10.7689 19.7803C10.6081 19.9448 10.3802 20 10.1502 20H10C5.58172 20 2 16.4183 2 12Z" fill="#0E1520"/>
<path fill-rule="evenodd" clip-rule="evenodd" d="M14 6C14 5.44772 14.4477 5 15 5H20C20.5523 5 21 5.44772 21 6C21 6.55228 20.5523 7 20 7H15C14.4477 7 14 6.55228 14 6ZM15 10C15 9.44772 15.4477 9 16 9H21C21.5523 9 22 9.44772 22 10C22 10.5523 21.5523 11 21 11H16C15.4477 11 15 10.5523 15 10ZM15 14C15 13.4477 15.4477 13 16 13H21C21.5523 13 22 13.4477 22 14C22 14.5523 21.5523 15 21 15H16C15.4477 15 15 14.5523 15 14ZM14 18C14 17.4477 14.4477 17 15 17H20C20.5523 17 21 17.4477 21 18C21 18.5523 20.5523 19 20 19H15C14.4477 19 14 18.5523 14 18Z" fill="#0E1520"/>
</svg>
