<svg width="16" height="16" viewBox="0 0 16 16" fill="none" xmlns="http://www.w3.org/2000/svg">
<path d="M1 8C1 5.23858 3.23858 3 6 3H6.68693C6.89107 3 7.09153 3.06116 7.22864 3.2124C7.64855 3.67558 8.5 4.98634 8.5 8C8.5 11.0137 7.64855 12.3244 7.22864 12.7876C7.09153 12.9388 6.89107 13 6.68693 13H6C3.23858 13 1 10.7614 1 8Z" fill="#0E1520"/>
<path fill-rule="evenodd" clip-rule="evenodd" d="M9.25 3.5C9.25 3.08579 9.58579 2.75 10 2.75H13C13.4142 2.75 13.75 3.08579 13.75 3.5C13.75 3.91421 13.4142 4.25 13 4.25H10C9.58579 4.25 9.25 3.91421 9.25 3.5ZM10.25 6.5C10.25 6.08579 10.5858 5.75 11 5.75H14C14.4142 5.75 14.75 6.08579 14.75 6.5C14.75 6.91421 14.4142 7.25 14 7.25H11C10.5858 7.25 10.25 6.91421 10.25 6.5ZM10.25 9.5C10.25 9.08579 10.5858 8.75 11 8.75H14C14.4142 8.75 14.75 9.08579 14.75 9.5C14.75 9.91421 14.4142 10.25 14 10.25H11C10.5858 10.25 10.25 9.91421 10.25 9.5ZM9.25 12.5C9.25 12.0858 9.58579 11.75 10 11.75H13C13.4142 11.75 13.75 12.0858 13.75 12.5C13.75 12.9142 13.4142 13.25 13 13.25H10C9.58579 13.25 9.25 12.9142 9.25 12.5Z" fill="#0E1520"/>
</svg>
