<svg width="24" height="24" viewBox="0 0 24 24" fill="none" xmlns="http://www.w3.org/2000/svg">
<path d="M11.0717 15.8534L13.434 13.8953C13.3841 14.1565 13.358 14.4261 13.358 14.7018C13.358 17.0756 15.2926 19 17.679 19C20.0654 19 22 17.0756 22 14.7018C22 12.328 20.0654 10.4036 17.679 10.4036C17.6179 10.4036 17.5571 10.4049 17.4966 10.4074L15.8906 6.89289C15.8534 6.81158 15.9132 6.71927 16.003 6.71927L17.9259 6.71927C18.4032 6.71927 18.7901 6.3344 18.7901 5.85964C18.7901 5.38487 18.4032 5 17.9259 5L16.003 5C14.6561 5 13.7598 6.3847 14.3171 7.60433L14.6984 8.43874L8.21322 8.43873L7.88915 7.70192H9.03704C9.51432 7.70192 9.90123 7.31705 9.90123 6.84229C9.90123 6.36752 9.51432 5.98265 9.03704 5.98265H5.58025C5.10296 5.98265 4.71605 6.36752 4.71605 6.84229C4.71605 7.31705 5.10296 7.70192 5.58025 7.70192H6.00258L7.23305 10.4996C6.93902 10.4367 6.63389 10.4036 6.32099 10.4036C3.93457 10.4036 2 12.328 2 14.7018C2 17.0756 3.93457 19 6.32099 19C8.23484 19 9.85808 17.7623 10.4259 16.0477C10.6506 16.0718 10.8844 16.0087 11.0717 15.8534ZM10.52 13.6835C10.4003 13.1935 10.1962 12.7364 9.92387 12.3282L8.96939 10.158L15.2427 10.158L10.6455 13.9688L10.52 13.6835ZM8.40854 13.1722L8.86767 14.2161C8.89781 14.3734 8.91358 14.5358 8.91358 14.7018C8.91358 16.1261 7.75284 17.2807 6.32099 17.2807C4.88914 17.2807 3.7284 16.1261 3.7284 14.7018C3.7284 13.2775 4.88914 12.1229 6.32099 12.1229C7.17718 12.1229 7.93644 12.5358 8.40854 13.1722ZM17.679 12.1229C19.1109 12.1229 20.2716 13.2775 20.2716 14.7018C20.2716 16.1261 19.1109 17.2807 17.679 17.2807C16.2472 17.2807 15.0864 16.1261 15.0864 14.7018C15.0864 13.2775 16.2472 12.1229 17.679 12.1229Z" fill="#0F1621"/>
</svg>
