<svg width="16" height="16" viewBox="0 0 16 16" fill="none" xmlns="http://www.w3.org/2000/svg">
<path d="M10.7192 5.625H9.46342V4.375H10.7192C11.4649 4.375 12.1148 4.88248 12.2957 5.60588L12.991 8.38707C14.1895 8.50784 15.125 9.51967 15.125 10.75C15.125 12.0617 14.0617 13.125 12.75 13.125C11.5762 13.125 10.6013 12.2735 10.4093 11.1545L10.3966 11.1668C10.0934 11.4607 9.6878 11.625 9.2656 11.625H9.18667C9.03052 11.625 8.87811 11.6027 8.73311 11.5605C8.40182 12.4731 7.52704 13.125 6.5 13.125C5.18832 13.125 4.125 12.0617 4.125 10.75C4.125 9.43832 5.18832 8.375 6.5 8.375C6.61162 8.375 6.72144 8.3827 6.82896 8.3976L5.95451 6.12499H4.98784V4.87499H7.50003V6.12499H7.29385L7.58243 6.87499H11.3245L11.083 5.90905C11.0413 5.74211 10.8913 5.625 10.7192 5.625ZM8.83668 10.1347C8.8924 10.2794 9.03152 10.375 9.18667 10.375H9.2656C9.36303 10.375 9.45664 10.3371 9.5266 10.2693L11.5562 8.30199L11.512 8.12499H8.0634L8.83668 10.1347ZM5.375 10.75C5.375 11.3713 5.87868 11.875 6.5 11.875C7.12132 11.875 7.625 11.3713 7.625 10.75C7.625 10.1287 7.12132 9.625 6.5 9.625C5.87868 9.625 5.375 10.1287 5.375 10.75ZM12.75 9.625C12.1287 9.625 11.625 10.1287 11.625 10.75C11.625 11.3713 12.1287 11.875 12.75 11.875C13.3713 11.875 13.875 11.3713 13.875 10.75C13.875 10.1287 13.3713 9.625 12.75 9.625Z" fill="#0F1621"/>
<path d="M1 6.125H3V4.875H1V6.125Z" fill="#0F1621"/>
<path d="M3 11.125H1V9.875H3V11.125Z" fill="#0F1621"/>
<path d="M2 7.375V8.625H4V7.375H2Z" fill="#0F1621"/>
</svg>
