<svg width="16" height="16" viewBox="0 0 16 16" fill="none" xmlns="http://www.w3.org/2000/svg">
<path d="M12.3 8L11.6 4.4C11.6 3.6 10.8 3 10 3L8 3V4.4H10C10.1 4.4 10.2 4.5 10.3 4.6L10.5 6H6.3H5.8L5.6 5.4H6V4H2V5.4H4.1L4.9 8L5 8.2C4.7 8.1 4.4 8 4 8C2.3 8 1 9.3 1 11C1 12.7 2.3 14 4 14C5.3 14 6.4 13.1 6.8 11.9C7 12 7.1 12.1 7.3 12.1H7.4C7.5 12.1 7.7 12.1 7.8 12.1C8.3 12.1 8.7 11.9 9.1 11.7C9.4 13 10.6 14 12 14C13.7 14 15 12.7 15 11C15 9.5 13.8 8.2 12.3 8ZM4 12.6C3.1 12.6 2.4 11.9 2.4 11C2.4 10.1 3.1 9.4 4 9.4C4.9 9.4 5.6 10.1 5.6 11C5.6 11.9 4.9 12.6 4 12.6ZM7.6 10.7C7.4 10.7 7.2 10.5 7.1 10.2L6.3 7.4H10.8L8.4 10.4C8.2 10.7 7.9 10.8 7.6 10.7ZM12 12.6C11.1 12.6 10.4 11.9 10.4 11C10.4 10.1 11.1 9.4 12 9.4C12.9 9.4 13.6 10.1 13.6 11C13.6 11.9 12.9 12.6 12 12.6Z" fill="#0F1621"/>
</svg>
