<svg width="16" height="16" viewBox="0 0 16 16" fill="none" xmlns="http://www.w3.org/2000/svg">
<path d="M10.1623 5.6317L9.75558 4.65067C9.43164 3.86926 9.98608 3 10.8084 3L12.5818 3C12.9333 3 13.2182 3.29454 13.2182 3.65788C13.2182 4.02122 12.9333 4.31577 12.5818 4.31577H11.0014L12.0924 6.94754C13.7001 6.9585 15 8.30917 15 9.97374C15 11.6451 13.6894 13 12.0727 13C10.456 13 9.14545 11.6451 9.14545 9.97374C9.14545 9.76454 9.16599 9.56029 9.20508 9.36305L7.90588 10.5383C7.57259 10.8398 7.13052 10.9007 6.75522 10.7583C6.42094 12.0493 5.2815 13 3.92727 13C2.31058 13 1 11.6451 1 9.97374C1 8.30238 2.31058 6.94747 3.92727 6.94747C4.18739 6.94747 4.43958 6.98254 4.67966 7.04837L3.65907 4.84224H3.41818C3.06673 4.84224 2.78182 4.5477 2.78182 4.18436C2.78182 3.82102 3.06673 3.52648 3.41818 3.52648H5.70909C6.06054 3.52648 6.34545 3.82102 6.34545 4.18436C6.34545 4.5477 6.06054 4.84224 5.70909 4.84224H5.06987L5.43509 5.6317H10.1623ZM9.94269 6.94747H6.04378L7.19403 9.43387L9.94269 6.94747ZM2.27273 9.97374C2.27273 10.9184 3.01349 11.6842 3.92727 11.6842C4.84105 11.6842 5.58182 10.9184 5.58182 9.97374C5.58182 9.02905 4.84105 8.26324 3.92727 8.26324C3.01349 8.26324 2.27273 9.02905 2.27273 9.97374ZM10.4182 9.97374C10.4182 10.9184 11.1589 11.6842 12.0727 11.6842C12.9865 11.6842 13.7273 10.9184 13.7273 9.97374C13.7273 9.02905 12.9865 8.26324 12.0727 8.26324C11.1589 8.26324 10.4182 9.02905 10.4182 9.97374Z" fill="#0F1621"/>
</svg>
