<svg width="24" height="24" viewBox="0 0 24 24" fill="none" xmlns="http://www.w3.org/2000/svg">
<path d="M12 8.75H14.1802C14.2994 8.75 14.402 8.83411 14.4253 8.95097L14.6852 10.25H9.41676L9.06191 9.25H9.5V7.75H5.5V9.25H7.47028L8.70543 12.7309C8.33269 12.5819 7.92591 12.5 7.5 12.5C5.70507 12.5 4.25 13.9551 4.25 15.75C4.25 17.5449 5.70507 19 7.5 19C8.93902 19 10.1596 18.0648 10.5871 16.7689C10.8459 16.9171 11.1439 17 11.4562 17H11.7558C12.2592 17 12.7361 16.7834 13.0669 16.4091C13.3715 17.888 14.6809 19 16.25 19C18.0449 19 19.5 17.5449 19.5 15.75C19.5 14.0975 18.2666 12.733 16.6702 12.5269L15.8962 8.6568C15.7326 7.8388 15.0144 7.25 14.1802 7.25H12V8.75ZM9.94902 11.75H14.6644L14.6847 11.8314L11.9544 15.4019C11.9071 15.4637 11.8337 15.5 11.7558 15.5H11.4562C11.3504 15.5 11.256 15.4334 11.2206 15.3336L9.94902 11.75ZM7.5 14C8.4665 14 9.25 14.7835 9.25 15.75C9.25 16.7165 8.4665 17.5 7.5 17.5C6.5335 17.5 5.75 16.7165 5.75 15.75C5.75 14.7835 6.5335 14 7.5 14ZM14.5 15.75C14.5 14.7835 15.2835 14 16.25 14C17.2165 14 18 14.7835 18 15.75C18 16.7165 17.2165 17.5 16.25 17.5C15.2835 17.5 14.5 16.7165 14.5 15.75Z" fill="#0F1621"/>
</svg>
