<svg width="24" height="24" viewBox="0 0 24 24" fill="none" xmlns="http://www.w3.org/2000/svg">
<path d="M16.6802 8.75H14.5V7.25H16.6802C17.5144 7.25 18.2326 7.8388 18.3962 8.6568L19.1702 12.5269C20.7666 12.733 22 14.0975 22 15.75C22 17.5449 20.5449 19 18.75 19C17.1809 19 15.8715 17.888 15.5669 16.4091C15.2361 16.7834 14.7592 17 14.2558 17H13.9562C13.6439 17 13.3459 16.9171 13.0871 16.7689C12.6596 18.0648 11.439 19 10 19C8.20507 19 6.75 17.5449 6.75 15.75C6.75 13.9551 8.20507 12.5 10 12.5C10.4259 12.5 10.8327 12.5819 11.2054 12.7309L9.97028 9.25H8V7.75H12V9.25H11.5619L11.9168 10.25H17.1852L16.9253 8.95097C16.902 8.83411 16.7994 8.75 16.6802 8.75ZM13.7206 15.3336C13.756 15.4334 13.8504 15.5 13.9562 15.5H14.2558C14.3337 15.5 14.4071 15.4637 14.4544 15.4019L17.1847 11.8314L17.1644 11.75H12.449L13.7206 15.3336ZM8.25 15.75C8.25 16.7165 9.0335 17.5 10 17.5C10.9665 17.5 11.75 16.7165 11.75 15.75C11.75 14.7835 10.9665 14 10 14C9.0335 14 8.25 14.7835 8.25 15.75ZM18.75 14C17.7835 14 17 14.7835 17 15.75C17 16.7165 17.7835 17.5 18.75 17.5C19.7165 17.5 20.5 16.7165 20.5 15.75C20.5 14.7835 19.7165 14 18.75 14Z" fill="#0F1621"/>
<path d="M2 9.25H6V7.75H2V9.25Z" fill="#0F1621"/>
<path d="M5 15.75H2V14.25H5V15.75Z" fill="#0F1621"/>
<path d="M4 12.5H7V11H4V12.5Z" fill="#0F1621"/>
</svg>
