<svg width="16" height="16" viewBox="0 0 16 16" fill="none" xmlns="http://www.w3.org/2000/svg">
<path d="M12.4499 7.92002L12.2199 7.00002L11.8399 4.36002C11.7819 3.94831 11.5767 3.57156 11.2623 3.29947C10.9479 3.02738 10.5457 2.87837 10.1299 2.88002H8.37988V4.32002H10.1299C10.1966 4.31961 10.2611 4.3439 10.3109 4.38821C10.3608 4.43253 10.3925 4.49373 10.3999 4.56002L10.5899 5.88002H5.75988L5.59988 5.33002H5.99988V3.88002H1.99988V5.33002H4.07988L4.87988 8.00002C4.59413 7.91658 4.29755 7.87614 3.99988 7.88002C3.17241 7.88002 2.37882 8.20873 1.79371 8.79385C1.2086 9.37896 0.879883 10.1725 0.879883 11C0.879883 11.8275 1.2086 12.6211 1.79371 13.2062C2.37882 13.7913 3.17241 14.12 3.99988 14.12C4.63115 14.1238 5.24844 13.9342 5.7687 13.5766C6.28895 13.2191 6.68721 12.7107 6.90988 12.12C7.05352 12.1757 7.20047 12.2225 7.34988 12.26C7.63572 12.3102 7.92867 12.3034 8.21185 12.2399C8.49503 12.1764 8.76285 12.0575 8.99988 11.89C9.16333 12.4237 9.46698 12.9038 9.87916 13.2803C10.2913 13.6567 10.7969 13.9156 11.3433 14.0301C11.8896 14.1446 12.4566 14.1104 12.9852 13.9311C13.5139 13.7518 13.9847 13.434 14.3487 13.0108C14.7126 12.5876 14.9564 12.0744 15.0545 11.525C15.1527 10.9755 15.1016 10.4097 14.9066 9.88666C14.7117 9.36362 14.3799 8.90247 13.9461 8.55128C13.5122 8.20009 12.9921 7.97174 12.4399 7.89002L12.4499 7.92002ZM3.99988 12.67C3.67002 12.668 3.34813 12.5684 3.07482 12.3837C2.80151 12.199 2.58902 11.9375 2.46415 11.6322C2.33929 11.3269 2.30764 10.9914 2.3732 10.6681C2.43876 10.3448 2.5986 10.0482 2.83254 9.81566C3.06649 9.58311 3.36407 9.42504 3.68774 9.36141C4.01141 9.29778 4.34668 9.33143 4.65125 9.45812C4.95582 9.58481 5.21605 9.79885 5.39912 10.0733C5.58218 10.3477 5.67988 10.6702 5.67988 11C5.67724 11.4438 5.49908 11.8686 5.1843 12.1815C4.86953 12.4944 4.44372 12.67 3.99988 12.67ZM10.8399 7.45002L8.35988 10.54C8.27725 10.6476 8.16552 10.7293 8.03792 10.7754C7.91032 10.8214 7.77219 10.83 7.63988 10.8C7.50407 10.7756 7.37815 10.7126 7.27709 10.6187C7.17604 10.5247 7.10412 10.4037 7.06988 10.27L6.18988 7.33002H10.8099L10.8399 7.45002ZM11.9999 12.67C11.67 12.668 11.3481 12.5684 11.0748 12.3837C10.8015 12.199 10.589 11.9375 10.4642 11.6322C10.3393 11.3269 10.3076 10.9914 10.3732 10.6681C10.4388 10.3448 10.5986 10.0482 10.8325 9.81566C11.0665 9.58311 11.3641 9.42504 11.6877 9.36141C12.0114 9.29778 12.3467 9.33143 12.6513 9.45812C12.9558 9.58481 13.2161 9.79885 13.3991 10.0733C13.5822 10.3477 13.6799 10.6702 13.6799 11C13.6772 11.4438 13.4991 11.8686 13.1843 12.1815C12.8695 12.4944 12.4437 12.67 11.9999 12.67Z" fill="#0F1621"/>
</svg>
