<svg width="16" height="16" viewBox="0 0 16 16" fill="none" xmlns="http://www.w3.org/2000/svg">
<path d="M11 8H1V4H7V1H8L11 4H14V5C14 5.79565 13.6839 6.55871 13.1213 7.12132C12.5587 7.68393 11.7956 8 11 8ZM15 12H10C10.032 12.1648 10.0487 12.3322 10.05 12.5C10.05 13.163 9.78661 13.7989 9.31777 14.2678C8.84893 14.7366 8.21304 15 7.55 15C6.88696 15 6.25107 14.7366 5.78223 14.2678C5.31339 13.7989 5.05 13.163 5.05 12.5C5.03471 12.3337 5.03471 12.1663 5.05 12H1V10H15V12ZM8.5 12.5C8.5 12.3022 8.44135 12.1089 8.33147 11.9444C8.22159 11.78 8.06541 11.6518 7.88268 11.5761C7.69996 11.5004 7.49889 11.4806 7.30491 11.5192C7.11093 11.5578 6.93275 11.653 6.79289 11.7929C6.65304 11.9327 6.5578 12.1109 6.51921 12.3049C6.48063 12.4989 6.50043 12.7 6.57612 12.8827C6.65181 13.0654 6.77998 13.2216 6.94443 13.3315C7.10888 13.4414 7.30222 13.5 7.5 13.5C7.76522 13.5 8.01957 13.3946 8.20711 13.2071C8.39464 13.0196 8.5 12.7652 8.5 12.5Z" fill="#0F1621"/>
</svg>
