<svg width="24" height="24" viewBox="0 0 24 24" fill="none" xmlns="http://www.w3.org/2000/svg">
<path d="M21 7V8.5C21 11 19.66 13 18 13H2V7H11V3H13L17 7H21ZM22 17H14.82C14.9845 17.4531 15.0373 17.9392 14.9741 18.4171C14.9108 18.895 14.7334 19.3506 14.4567 19.7454C14.18 20.1401 13.8123 20.4624 13.3846 20.6849C12.957 20.9074 12.4821 21.0235 12 21.0235C11.5179 21.0235 11.043 20.9074 10.6154 20.6849C10.1877 20.4624 9.81999 20.1401 9.54332 19.7454C9.26665 19.3506 9.08917 18.895 9.02593 18.4171C8.96269 17.9392 9.01554 17.4531 9.18 17H2V15H22V17ZM13 18C13 17.8022 12.9414 17.6089 12.8315 17.4444C12.7216 17.28 12.5654 17.1518 12.3827 17.0761C12.2 17.0004 11.9989 16.9806 11.8049 17.0192C11.6109 17.0578 11.4327 17.153 11.2929 17.2929C11.153 17.4327 11.0578 17.6109 11.0192 17.8049C10.9806 17.9989 11.0004 18.2 11.0761 18.3827C11.1518 18.5654 11.28 18.7216 11.4444 18.8315C11.6089 18.9414 11.8022 19 12 19C12.2652 19 12.5196 18.8946 12.7071 18.7071C12.8946 18.5196 13 18.2652 13 18Z" fill="#0F1621"/>
</svg>
