<svg width="24" height="24" viewBox="0 0 24 24" fill="none" xmlns="http://www.w3.org/2000/svg">
<path d="M17 7L13 3H11V7H2V13H18C19.66 13 21 11 21 8.5V7H17ZM18 11H4V9H19C18.84 10.33 18.17 11 18 11ZM22 15H2V17H9.18C9.01554 17.4531 8.96269 17.9392 9.02593 18.4171C9.08917 18.895 9.26665 19.3506 9.54332 19.7454C9.81999 20.1401 10.1877 20.4624 10.6154 20.6849C11.043 20.9074 11.5179 21.0235 12 21.0235C12.4821 21.0235 12.957 20.9074 13.3846 20.6849C13.8123 20.4624 14.18 20.1401 14.4567 19.7454C14.7334 19.3506 14.9108 18.895 14.9741 18.4171C15.0373 17.9392 14.9845 17.4531 14.82 17H22V15ZM12 19C11.8022 19 11.6089 18.9414 11.4444 18.8315C11.28 18.7216 11.1518 18.5654 11.0761 18.3827C11.0004 18.2 10.9806 17.9989 11.0192 17.8049C11.0578 17.6109 11.153 17.4327 11.2929 17.2929C11.4327 17.153 11.6109 17.0578 11.8049 17.0192C11.9989 16.9806 12.2 17.0004 12.3827 17.0761C12.5654 17.1518 12.7216 17.28 12.8315 17.4444C12.9414 17.6089 13 17.8022 13 18C13 18.2652 12.8946 18.5196 12.7071 18.7071C12.5196 18.8946 12.2652 19 12 19Z" fill="#0F1621"/>
</svg>
