<svg width="24" height="24" viewBox="0 0 24 24" fill="none" xmlns="http://www.w3.org/2000/svg">
<path d="M17 8.99999C17.1772 9.0003 17.3511 9.04768 17.504 9.13729C17.6569 9.2269 17.7832 9.35552 17.87 9.50999C18.365 10.3739 19.1067 11.0703 20 11.51V14H4V11.54C4.89329 11.1003 5.63497 10.4039 6.13 9.53999C6.21722 9.38609 6.3437 9.25808 6.49654 9.16902C6.64938 9.07996 6.82311 9.03304 7 9.03304C7.17689 9.03304 7.35062 9.07996 7.50346 9.16902C7.6563 9.25808 7.78278 9.38609 7.87 9.53999C8.26669 10.2915 8.86093 10.9206 9.5887 11.3594C10.3165 11.7982 11.1502 12.0301 12 12.0301C12.8498 12.0301 13.6835 11.7982 14.4113 11.3594C15.1391 10.9206 15.7333 10.2915 16.13 9.53999C16.2129 9.37993 16.3375 9.24525 16.4906 9.15019C16.6438 9.05513 16.8198 9.00324 17 8.99999ZM17 6.99999C16.4694 6.99991 15.9483 7.14055 15.4898 7.40757C15.0312 7.6746 14.6518 8.05845 14.39 8.51999C14.1591 8.95682 13.8159 9.32421 13.3959 9.58434C12.9758 9.84448 12.494 9.98795 12 9.99999C11.506 9.98795 11.0242 9.84448 10.6041 9.58434C10.1841 9.32421 9.84091 8.95682 9.61 8.51999C9.34835 8.0583 8.9689 7.67427 8.51039 7.40709C8.05187 7.13992 7.53068 6.99915 7 6.99915C6.46932 6.99915 5.94813 7.13992 5.48961 7.40709C5.03109 7.67427 4.65165 8.0583 4.39 8.51999C4.15909 8.95682 3.81593 9.32421 3.39585 9.58434C2.97577 9.84448 2.49395 9.98795 2 9.99999V16H22V9.99999C21.506 9.98795 21.0242 9.84448 20.6041 9.58434C20.1841 9.32421 19.8409 8.95682 19.61 8.51999C19.3482 8.05845 18.9688 7.6746 18.5102 7.40757C18.0517 7.14055 17.5306 6.99991 17 6.99999Z" fill="#0F1621"/>
</svg>
