<svg width="16" height="16" viewBox="0 0 16 16" fill="none" xmlns="http://www.w3.org/2000/svg">
<path d="M15 8.09999V9.99999H1V8.09999C1.34178 8.09521 1.67623 8.0002 1.96949 7.8246C2.26275 7.64899 2.50441 7.39902 2.67 7.09999C2.85273 6.77538 3.11851 6.5052 3.4401 6.31719C3.76168 6.12918 4.12749 6.03009 4.5 6.03009C4.87251 6.03009 5.23832 6.12918 5.5599 6.31719C5.88149 6.5052 6.14727 6.77538 6.33 7.09999C6.49559 7.39902 6.73725 7.64899 7.03051 7.8246C7.32377 8.0002 7.65822 8.09521 8 8.09999C8.34178 8.09521 8.67623 8.0002 8.96949 7.8246C9.26275 7.64899 9.50441 7.39902 9.67 7.09999C9.85273 6.77538 10.1185 6.5052 10.4401 6.31719C10.7617 6.12918 11.1275 6.03009 11.5 6.03009C11.8725 6.03009 12.2383 6.12918 12.5599 6.31719C12.8815 6.5052 13.1473 6.77538 13.33 7.09999C13.4956 7.39902 13.7372 7.64899 14.0305 7.8246C14.3238 8.0002 14.6582 8.09521 15 8.09999Z" fill="#0F1621"/>
</svg>
