<svg width="24" height="24" viewBox="0 0 24 24" fill="none" xmlns="http://www.w3.org/2000/svg">
<path d="M22 12V15H2V12C2.49395 11.9879 2.97577 11.8445 3.39585 11.5843C3.81593 11.3242 4.15909 10.9568 4.39 10.52C4.65165 10.0583 5.03109 9.67427 5.48961 9.40709C5.94813 9.13992 6.46932 8.99915 7 8.99915C7.53068 8.99915 8.05187 9.13992 8.51039 9.40709C8.9689 9.67427 9.34835 10.0583 9.61 10.52C9.84091 10.9568 10.1841 11.3242 10.6041 11.5843C11.0242 11.8445 11.506 11.9879 12 12C12.494 11.9879 12.9758 11.8445 13.3959 11.5843C13.8159 11.3242 14.1591 10.9568 14.39 10.52C14.6517 10.0583 15.0311 9.67427 15.4896 9.40709C15.9481 9.13992 16.4693 8.99915 17 8.99915C17.5307 8.99915 18.0519 9.13992 18.5104 9.40709C18.9689 9.67427 19.3483 10.0583 19.61 10.52C19.8409 10.9568 20.1841 11.3242 20.6041 11.5843C21.0242 11.8445 21.506 11.9879 22 12Z" fill="#0F1621"/>
</svg>
