<svg width="16" height="16" viewBox="0 0 16 16" fill="none" xmlns="http://www.w3.org/2000/svg">
<path d="M13.3 3.7V2C13.3 1.4 12.9 1 12.3 1H3.7C3.1 1 2.7 1.4 2.7 2V3.7H2V6.4H2.7V12.4V13V13.7C2.7 14.1 3 14.4 3.4 14.4H4.7C5.1 14.4 5.4 14.1 5.4 13.7V13H10.7V13.7C10.7 14.1 11 14.4 11.4 14.4H12.7C13.1 14.4 13.4 14.1 13.4 13.7V13V12.3V6.3H14V3.7H13.3ZM4 2.3H12V3.6H4V2.3ZM4 5H12V9H4V5ZM6 11.7H4.3C3.9 11.3 3.9 10.8 4.3 10.4H6V11.7ZM10 10.3H11.7C12.1 10.7 12.1 11.2 11.7 11.6H10V10.3Z" fill="#0F1621"/>
</svg>
