<svg width="16" height="16" viewBox="0 0 16 16" fill="none" xmlns="http://www.w3.org/2000/svg">
<path d="M12.75 7.89C12.5302 7.33809 12.1516 6.86385 11.662 6.52738C11.1724 6.19091 10.594 6.00736 10 6H6C5.406 6.00736 4.82755 6.19091 4.33798 6.52738C3.84841 6.86385 3.46975 7.33809 3.25 7.89L2 11V13C2 13.5304 2.21071 14.0391 2.58579 14.4142C2.96086 14.7893 3.46957 15 4 15H5L6 14H10L11 15H12C12.5304 15 13.0391 14.7893 13.4142 14.4142C13.7893 14.0391 14 13.5304 14 13V11L12.75 7.89ZM10 12C10 11.8022 10.0586 11.6089 10.1685 11.4444C10.2784 11.28 10.4346 11.1518 10.6173 11.0761C10.8 11.0004 11.0011 10.9806 11.1951 11.0192C11.3891 11.0578 11.5673 11.153 11.7071 11.2929C11.847 11.4327 11.9422 11.6109 11.9808 11.8049C12.0194 11.9989 11.9996 12.2 11.9239 12.3827C11.8482 12.5654 11.72 12.7216 11.5556 12.8315C11.3911 12.9414 11.1978 13 11 13C10.7348 13 10.4804 12.8946 10.2929 12.7071C10.1054 12.5196 10 12.2652 10 12ZM6 7.5H10C10.299 7.50031 10.5911 7.58996 10.8387 7.75745C11.0864 7.92494 11.2784 8.16263 11.39 8.44L12 10H4L4.62 8.44C4.73098 8.1642 4.92141 7.9276 5.16712 7.76023C5.41282 7.59287 5.70272 7.50229 6 7.5ZM5 13C4.80222 13 4.60888 12.9414 4.44443 12.8315C4.27998 12.7216 4.15181 12.5654 4.07612 12.3827C4.00043 12.2 3.98063 11.9989 4.01921 11.8049C4.0578 11.6109 4.15304 11.4327 4.29289 11.2929C4.43275 11.153 4.61093 11.0578 4.80491 11.0192C4.99889 10.9806 5.19996 11.0004 5.38268 11.0761C5.56541 11.1518 5.72159 11.28 5.83147 11.4444C5.94135 11.6089 6 11.8022 6 12C6 12.2652 5.89464 12.5196 5.70711 12.7071C5.51957 12.8946 5.26522 13 5 13ZM13 2H8L7 1H4C3.73478 1 3.48043 1.10536 3.29289 1.29289C3.10536 1.48043 3 1.73478 3 2V4C3 4.26522 3.10536 4.51957 3.29289 4.70711C3.48043 4.89464 3.73478 5 4 5H7L8 4H13V2ZM6 4H5V2H6V4Z" fill="#0F1621"/>
</svg>
