<svg width="16" height="16" viewBox="0 0 16 16" fill="none" xmlns="http://www.w3.org/2000/svg">
<path d="M3.80341 5.33008H6.66341L7.16341 4.33008H8.99675L9.66341 3.66341L10.3301 4.33008H11.9967L12.9767 3.33008L11.9967 2.33008H7.16341L6.66341 1.33008H3.80341C3.5016 1.33183 3.21266 1.4525 2.99924 1.66591C2.78583 1.87932 2.66516 2.16827 2.66341 2.47008V4.18341C2.66253 4.33368 2.69137 4.48264 2.74827 4.62172C2.80516 4.7608 2.889 4.88726 2.99494 4.99383C3.10089 5.10039 3.22686 5.18496 3.36561 5.24267C3.50435 5.30037 3.65314 5.33008 3.80341 5.33008ZM3.99674 2.66341H5.99675V3.99674H3.99674V2.66341ZM13.1834 8.66341L12.5167 7.13008C12.3751 6.79843 12.1405 6.51491 11.8411 6.31379C11.5418 6.11266 11.1906 6.00254 10.8301 5.99675H5.18341C4.82588 6.00471 4.47828 6.11595 4.18255 6.31705C3.88682 6.51814 3.65559 6.80051 3.51675 7.13008L2.85008 8.66341H1.66341C1.55991 8.74103 1.47591 8.84169 1.41806 8.9574C1.3602 9.07311 1.33008 9.20071 1.33008 9.33008C1.33008 9.45945 1.3602 9.58704 1.41806 9.70276C1.47591 9.81847 1.55991 9.91912 1.66341 9.99675H1.99674V13.9967C1.99674 14.1736 2.06698 14.3431 2.19201 14.4682C2.31703 14.5932 2.4866 14.6634 2.66341 14.6634H4.66341C4.84022 14.6634 5.00979 14.5932 5.13482 14.4682C5.25984 14.3431 5.33008 14.1736 5.33008 13.9967V13.3301H10.6634V13.9967C10.6634 14.1736 10.7336 14.3431 10.8587 14.4682C10.9837 14.5932 11.1533 14.6634 11.3301 14.6634H13.3301C13.5069 14.6634 13.6765 14.5932 13.8015 14.4682C13.9265 14.3431 13.9967 14.1736 13.9967 13.9967V9.99675H14.3301C14.4336 9.91912 14.5176 9.81847 14.5754 9.70276C14.6333 9.58704 14.6634 9.45945 14.6634 9.33008C14.6634 9.20071 14.6333 9.07311 14.5754 8.9574C14.5176 8.84169 14.4336 8.74103 14.3301 8.66341H13.1834ZM4.73674 7.67008C4.77087 7.57661 4.83109 7.49489 4.91026 7.43463C4.98943 7.37436 5.08423 7.33808 5.18341 7.33008H10.8301C10.9302 7.33765 11.0261 7.37367 11.1064 7.43391C11.1867 7.49415 11.2481 7.57609 11.2834 7.67008L11.9967 9.33008H3.99674L4.73674 7.67008ZM5.33008 11.9967H3.66341C3.55991 11.9191 3.47591 11.8185 3.41806 11.7028C3.3602 11.587 3.33008 11.4594 3.33008 11.3301C3.33008 11.2007 3.3602 11.0731 3.41806 10.9574C3.47591 10.8417 3.55991 10.741 3.66341 10.6634H5.33008V11.9967ZM12.3301 11.9967H10.6634V10.6634H12.3301C12.4336 10.741 12.5176 10.8417 12.5754 10.9574C12.6333 11.0731 12.6634 11.2007 12.6634 11.3301C12.6634 11.4594 12.6333 11.587 12.5754 11.7028C12.5176 11.8185 12.4336 11.9191 12.3301 11.9967Z" fill="#0E1520"/>
</svg>
