<svg width="16" height="16" viewBox="0 0 16 16" fill="none" xmlns="http://www.w3.org/2000/svg">
<path d="M3.4 5H6.3L6.8 4H8.6L9.3 3.3L10 4H11.6L12.6 3L11.6 2H6.8L6.3 1H3.4C2.8 1 2.3 1.49999 2.3 2.09999V3.8C2.3 4.5 2.8 5 3.4 5ZM3.6 2.39999H5.6V3.7H3.6V2.39999ZM12.8 8.39999L12.1 6.89999C11.8 6.19999 11.1 5.8 10.4 5.8H4.8C4.1 5.8 3.4 6.19999 3.1 6.89999L2.4 8.39999H1.3C0.9 8.79999 0.9 9.3 1.3 9.7H1.6V13.7C1.6 14.1 1.9 14.4 2.3 14.4H4.3C4.7 14.4 5 14.1 5 13.7V13H10.3V13.7C10.3 14.1 10.6 14.4 11 14.4H13C13.4 14.4 13.7 14.1 13.7 13.7V9.7H14C14.4 9.3 14.4 8.79999 14 8.39999H12.8ZM4.3 7.39999C4.4 7.19999 4.6 7.09999 4.8 7.09999H10.4C10.6 7.09999 10.8 7.19999 10.9 7.39999L11.6 9.09999H3.6L4.3 7.39999ZM4.9 11.7H3.3C2.9 11.3 2.9 10.8 3.3 10.4H5V11.7H4.9ZM11.9 11.7H10.2V10.4H11.9C12.4 10.8 12.4 11.3 11.9 11.7Z" fill="#0F1621"/>
</svg>
