<svg width="24" height="24" viewBox="0 0 24 24" fill="none" xmlns="http://www.w3.org/2000/svg">
<path d="M19 4.5L17 6H14L13 5L12 6H9.99999L8.99999 7H4.99999C4.73478 7 4.48042 6.89464 4.29289 6.70711C4.10535 6.51957 3.99999 6.26522 3.99999 6V3C3.99999 2.73478 4.10535 2.48043 4.29289 2.29289C4.48042 2.10536 4.73478 2 4.99999 2H8.99999L9.99999 3H17L19 4.5ZM22 13H20.9L21.67 14.06C21.8869 14.348 22.0029 14.6995 22 15.06V20C22 20.5304 21.7893 21.0391 21.4142 21.4142C21.0391 21.7893 20.5304 22 20 22H17C16.7348 22 16.4804 21.8946 16.2929 21.7071C16.1053 21.5196 16 21.2652 16 21V20H7.99999V21C7.99999 21.2652 7.89464 21.5196 7.7071 21.7071C7.51956 21.8946 7.26521 22 6.99999 22H3.99999C3.46956 22 2.96085 21.7893 2.58578 21.4142C2.21071 21.0391 1.99999 20.5304 1.99999 20V15.06C1.99708 14.6995 2.11306 14.348 2.32999 14.06L3.09999 13H1.99999V11H4.54999L5.40999 9.82C5.60011 9.55965 5.85035 9.34912 6.13939 9.20634C6.42843 9.06357 6.7477 8.99277 7.06999 9H16.93C17.2523 8.99277 17.5716 9.06357 17.8606 9.20634C18.1496 9.34912 18.3999 9.55965 18.59 9.82L19.45 11H22V13ZM7.99999 16H3.99999V18H7.99999V16ZM12 14H19L17.3 11.45C17.2085 11.311 17.0837 11.1971 16.937 11.1185C16.7904 11.0399 16.6264 10.9992 16.46 11H7.53999C7.37359 10.9992 7.20962 11.0399 7.06294 11.1185C6.91626 11.1971 6.79151 11.311 6.69999 11.45L4.99999 14H12ZM20 16H16V18H20V16Z" fill="#0E1520"/>
</svg>
