<svg width="24" height="24" viewBox="0 0 24 24" fill="none" xmlns="http://www.w3.org/2000/svg">
<path d="M9.88 13L11.545 10.833C12.1434 11.1265 12.8071 11.2199 13.4535 11.1016C14.0998 10.9832 14.7002 10.6584 15.18 10.1675C16.77 8.4185 17 4.167 17 4.167C17 4.167 13.135 4.4145 11.545 6.1635C11.0977 6.69171 10.8018 7.35316 10.6942 8.06526C10.5866 8.77735 10.6721 9.50853 10.94 10.1675L8.97 11.999L9.88 13Z" fill="#0F1621"/>
<path d="M9.925 9.854L9.425 10.338C9.00047 10.0611 8.64695 9.66998 8.39767 9.20142C8.14839 8.73286 8.01154 8.20225 8 7.6595C8 5.1845 10.57 2 10.57 2C11.1761 2.78526 11.715 3.63034 12.18 4.5245C11.7183 4.77552 11.295 5.10394 10.925 5.498C10.4263 6.06431 10.0715 6.76466 9.89606 7.52907C9.72057 8.29348 9.73055 9.09517 9.925 9.854Z" fill="#0F1621"/>
<path d="M19.4501 11H22.0001V13H20.9001L21.6701 14.06C21.887 14.348 22.003 14.6995 22.0001 15.06V20C22.0001 20.5304 21.7893 21.0391 21.4143 21.4142C21.0392 21.7893 20.5305 22 20.0001 22H17.0001C16.7348 22 16.4805 21.8946 16.2929 21.7071C16.1054 21.5196 16.0001 21.2652 16.0001 21V20H8.00005V21C8.00005 21.2652 7.8947 21.5196 7.70716 21.7071C7.51962 21.8946 7.26527 22 7.00005 22H4.00005C3.46962 22 2.96091 21.7893 2.58584 21.4142C2.21077 21.0391 2.00005 20.5304 2.00005 20V15.06C1.99714 14.6995 2.11312 14.348 2.33005 14.06L3.10005 13H2.00005V11H4.55005L5.41005 9.82C5.59638 9.57258 5.83611 9.37036 6.11139 9.22839C6.38668 9.08642 6.69043 9.00835 7.00005 9V11.16C6.87916 11.2324 6.77652 11.3316 6.70005 11.45L5.00005 14H19.0001L17.3001 11.45C17.2236 11.3316 17.1209 11.2324 17.0001 11.16V9C17.3097 9.00835 17.6134 9.08642 17.8887 9.22839C18.164 9.37036 18.4037 9.57258 18.5901 9.82L19.4501 11ZM4.00005 18H8.00005V16H4.00005V18ZM16.0001 18H20.0001V16H16.0001V18Z" fill="#0F1621"/>
</svg>
