<svg width="16" height="16" viewBox="0 0 16 16" fill="none" xmlns="http://www.w3.org/2000/svg">
<path d="M12.55 8.11C12.4044 7.81059 12.1864 7.55226 11.9158 7.35843C11.6451 7.1646 11.3303 7.0414 11 7V8.9C11.1538 9.04345 11.2763 9.21707 11.36 9.41L12 11H4L4.64 9.44C4.72368 9.24707 4.84623 9.07345 5 8.93V7C4.66967 7.0414 4.3549 7.1646 4.08423 7.35843C3.81356 7.55226 3.59556 7.81059 3.45 8.11L2 11V13C2 13.5304 2.21071 14.0391 2.58579 14.4142C2.96086 14.7893 3.46957 15 4 15H5L6 14H10L11 15H12C12.5304 15 13.0391 14.7893 13.4142 14.4142C13.7893 14.0391 14 13.5304 14 13V12V11L12.55 8.11ZM6 13H4V12H6V13ZM12 13H10V12H12V13Z" fill="#0F1621"/>
<path d="M10 8.5V7H8.75V5H9C9.26522 5 9.51957 4.89464 9.70711 4.70711C9.89464 4.51957 10 4.26522 10 4V2C10 1.73478 9.89464 1.48043 9.70711 1.29289C9.51957 1.10536 9.26522 1 9 1H7C6.73478 1 6.48043 1.10536 6.29289 1.29289C6.10536 1.48043 6 1.73478 6 2V4C6 4.26522 6.10536 4.51957 6.29289 4.70711C6.48043 4.89464 6.73478 5 7 5H7.25V7H6V8.5H10ZM7 3C7 2.80222 7.05865 2.60888 7.16853 2.44443C7.27841 2.27998 7.43459 2.15181 7.61732 2.07612C7.80004 2.00043 8.00111 1.98063 8.19509 2.01921C8.38907 2.0578 8.56725 2.15304 8.70711 2.29289C8.84696 2.43275 8.9422 2.61093 8.98079 2.80491C9.01937 2.99889 8.99957 3.19996 8.92388 3.38268C8.84819 3.56541 8.72002 3.72159 8.55557 3.83147C8.39112 3.94135 8.19778 4 8 4C7.73478 4 7.48043 3.89464 7.29289 3.70711C7.10536 3.51957 7 3.26522 7 3Z" fill="#0F1621"/>
</svg>
