<svg width="24" height="24" viewBox="0 0 24 24" fill="none" xmlns="http://www.w3.org/2000/svg">
<path d="M19.0001 4.5L17.0001 6H14.0001L13.0001 5L12.0001 6H10.0001L9.00005 7H5.00005C4.73484 7 4.48048 6.89464 4.29295 6.70711C4.10541 6.51957 4.00005 6.26522 4.00005 6V3C4.00005 2.73478 4.10541 2.48043 4.29295 2.29289C4.48048 2.10536 4.73484 2 5.00005 2H9.00005L10.0001 3H17.0001L19.0001 4.5ZM16.9301 11H7.00005L4.71005 14.18L4.00005 15.18V20H6.00005V18H18.0001V20H20.0001V15.16L19.2901 14.16L17.0001 11H16.9301ZM17.0001 9C17.3224 8.99277 17.6416 9.06357 17.9307 9.20634C18.2197 9.34912 18.4699 9.55965 18.6601 9.82L19.4501 11H22.0001V13H20.9001L21.6701 14.06C21.887 14.348 22.003 14.6995 22.0001 15.06V20C22.0001 20.5304 21.7893 21.0391 21.4143 21.4142C21.0392 21.7893 20.5305 22 20.0001 22H17.0001C16.7348 22 16.4805 21.8946 16.2929 21.7071C16.1054 21.5196 16.0001 21.2652 16.0001 21V20H8.00005V21C8.00005 21.2652 7.8947 21.5196 7.70716 21.7071C7.51962 21.8946 7.26527 22 7.00005 22H4.00005C3.46962 22 2.96091 21.7893 2.58584 21.4142C2.21077 21.0391 2.00005 20.5304 2.00005 20V15.06C1.99714 14.6995 2.11312 14.348 2.33005 14.06L3.10005 13H2.00005V11H4.55005L5.41005 9.82C5.60018 9.55965 5.85042 9.34912 6.13945 9.20634C6.42849 9.06357 6.74776 8.99277 7.07005 9H17.0001ZM16.5701 14H7.57005L6.00005 16H18.0001L16.5701 14Z" fill="#0F1621"/>
</svg>
