<svg width="16" height="16" viewBox="0 0 16 16" fill="none" xmlns="http://www.w3.org/2000/svg">
<path d="M4.15643 7.65645C4.07369 7.76453 4.00427 7.88278 3.95017 8.00881L3.34958 9.37365H2.29256C2.20142 9.44415 2.12772 9.53421 2.07703 9.63702C2.02634 9.73983 2 9.85269 2 9.96706C2 10.0814 2.02634 10.1943 2.07703 10.2971C2.12772 10.3999 2.20142 10.49 2.29256 10.5605H2.59285V14.1209C2.59285 14.2783 2.65612 14.4292 2.76876 14.5405C2.88139 14.6518 3.03415 14.7143 3.19343 14.7143H4.99518C5.15447 14.7143 5.30723 14.6518 5.41986 14.5405C5.53249 14.4292 5.59577 14.2783 5.59577 14.1209V13.5275H10.4004V14.1209C10.4004 14.2783 10.4637 14.4292 10.5763 14.5405C10.689 14.6518 10.8417 14.7143 11.001 14.7143H12.8028C12.9621 14.7143 13.1148 14.6518 13.2274 14.5405C13.3401 14.4292 13.4034 14.2783 13.4034 14.1209V10.5605H13.7036C13.7958 10.4907 13.8705 10.4008 13.9219 10.2979C13.9733 10.195 14 10.0818 14 9.96706C14 9.85231 13.9733 9.7391 13.9219 9.6362C13.8705 9.53329 13.7958 9.44346 13.7036 9.37365H12.6586L12.058 8.00881C12.0032 7.88098 11.9325 7.76117 11.8482 7.65186L10.9665 8.53354L11.6016 9.96706H4.3946L5.03088 8.5309L4.15643 7.65645ZM4.09431 12.3407C4.00107 12.2716 3.92539 12.182 3.87327 12.079C3.82115 11.976 3.79402 11.8624 3.79402 11.7473C3.79402 11.6321 3.82115 11.5185 3.87327 11.4156C3.92539 11.3126 4.00107 11.223 4.09431 11.1539H5.59577V12.3407H4.09431ZM10.4004 12.3407V11.1539H11.9019C11.9951 11.223 12.0708 11.3126 12.1229 11.4156C12.175 11.5185 12.2022 11.6321 12.2022 11.7473C12.2022 11.8624 12.175 11.976 12.1229 12.079C12.0708 12.182 11.9951 12.2716 11.9019 12.3407H10.4004Z" fill="#0F1621"/>
<path d="M7.75722 7.424L6.46222 9L5.75444 8.272L7.28667 6.94C7.0783 6.46075 7.01181 5.92898 7.0955 5.4111C7.17918 4.89321 7.40934 4.41216 7.75722 4.028C8.99389 2.756 12 2.576 12 2.576C12 2.576 11.8211 5.668 10.5844 6.94C10.2113 7.29702 9.74431 7.53327 9.2416 7.61933C8.73889 7.70539 8.22268 7.63746 7.75722 7.424ZM6.10833 7.064L6.49722 6.712C6.34599 6.16012 6.33822 5.57708 6.47471 5.02114C6.6112 4.46521 6.88716 3.95586 7.275 3.544C7.56274 3.25741 7.89204 3.01856 8.25111 2.836C7.88947 2.1857 7.47029 1.5711 6.99889 1C6.99889 1 5 3.316 5 5.116C5.00898 5.51073 5.11541 5.89662 5.3093 6.2374C5.50318 6.57817 5.77815 6.86262 6.10833 7.064Z" fill="#0F1621"/>
</svg>
