<svg width="24" height="24" viewBox="0 0 24 24" fill="none" xmlns="http://www.w3.org/2000/svg">
<path d="M9.88 13L11.545 10.833C12.1434 11.1265 12.8071 11.2199 13.4535 11.1016C14.0998 10.9832 14.7002 10.6584 15.18 10.1675C16.77 8.4185 17 4.167 17 4.167C17 4.167 13.135 4.4145 11.545 6.1635C11.0977 6.69171 10.8018 7.35316 10.6942 8.06526C10.5866 8.77735 10.6721 9.50853 10.94 10.1675L8.97 11.999L9.88 13Z" fill="#0F1621"/>
<path d="M9.925 9.854L9.425 10.338C9.00047 10.0611 8.64695 9.66998 8.39767 9.20142C8.14839 8.73286 8.01154 8.20225 8 7.6595C8 5.1845 10.57 2 10.57 2C11.1761 2.78526 11.715 3.63034 12.18 4.5245C11.7183 4.77552 11.295 5.10394 10.925 5.498C10.4263 6.06431 10.0715 6.76466 9.89606 7.52907C9.72057 8.29348 9.73055 9.09517 9.925 9.854Z" fill="#0F1621"/>
<path d="M20.9 13H22V11H19.5L18.6 9.8C18.2 9.3 17.6 9 17 9V11L18.4 13L18.7 13.4L17.7 13.9H6.2L5.2 13.4L7 11V9C6.4 9 5.8 9.3 5.4 9.8L4.5 11H2V13H3.1L2.3 14.1C2.25 14.15 2.225 14.225 2.2 14.3C2.175 14.375 2.15 14.45 2.1 14.5C2 14.7 2 14.9 2 15.1V20C2 21.1 2.9 22 4 22H7C7.5 22 8 21.5 8 21V20H16V21C16 21.5 16.5 22 17 22H20C20.5 22 21 21.8 21.4 21.4C21.8 21 22 20.5 22 20V15.1C22 14.9 22 14.7 21.9 14.5C21.9 14.4 21.8 14.2 21.7 14.1L20.9 13ZM20 15.2V20H18V18H6V20H4V15.1L5.8 16H18.2L20 15.2Z" fill="#0F1621"/>
</svg>
