<svg width="16" height="16" viewBox="0 0 16 16" fill="none" xmlns="http://www.w3.org/2000/svg">
<path d="M13 10V5C13 4.46957 12.7893 3.96086 12.4142 3.58579C12.0391 3.21071 11.5304 3 11 3H3C2.46957 3 1.96086 3.21071 1.58579 3.58579C1.21071 3.96086 1 4.46957 1 5V10C1 10.5304 1.21071 11.0391 1.58579 11.4142C1.96086 11.7893 2.46957 12 3 12H5.05C5.13491 12.5959 5.43199 13.1412 5.88666 13.5357C6.34133 13.9301 6.92306 14.1473 7.525 14.1473C8.12694 14.1473 8.70867 13.9301 9.16334 13.5357C9.61801 13.1412 9.91509 12.5959 10 12H15V10H13ZM3 7V5H7V7H3ZM7.5 12.5C7.30222 12.5 7.10888 12.4414 6.94443 12.3315C6.77998 12.2216 6.65181 12.0654 6.57612 11.8827C6.50043 11.7 6.48063 11.4989 6.51921 11.3049C6.5578 11.1109 6.65304 10.9327 6.79289 10.7929C6.93275 10.653 7.11093 10.5578 7.30491 10.5192C7.49889 10.4806 7.69996 10.5004 7.88268 10.5761C8.06541 10.6518 8.22159 10.78 8.33147 10.9444C8.44135 11.1089 8.5 11.3022 8.5 11.5C8.5 11.7652 8.39464 12.0196 8.20711 12.2071C8.01957 12.3946 7.76522 12.5 7.5 12.5ZM11 7H9V5H11V7Z" fill="#0F1621"/>
</svg>
