<svg width="24" height="24" viewBox="0 0 24 24" fill="none" xmlns="http://www.w3.org/2000/svg">
<path d="M20 15V9C20 7.93913 19.5786 6.92172 18.8284 6.17157C18.0783 5.42143 17.0609 5 16 5H6C4.93913 5 3.92172 5.42143 3.17157 6.17157C2.42143 6.92172 2 7.93913 2 9V13C2 14.0609 2.42143 15.0783 3.17157 15.8284C3.92172 16.5786 4.93913 17 6 17H9.18C9.3902 17.5792 9.77363 18.0795 10.2782 18.4332C10.7827 18.7868 11.3839 18.9765 12 18.9765C12.6161 18.9765 13.2173 18.7868 13.7218 18.4332C14.2264 18.0795 14.6098 17.5792 14.82 17H22V15H20ZM4 9C4 8.46957 4.21071 7.96086 4.58579 7.58579C4.96086 7.21071 5.46957 7 6 7H12V10H4V9ZM12 17C11.8022 17 11.6089 16.9414 11.4444 16.8315C11.28 16.7216 11.1518 16.5654 11.0761 16.3827C11.0004 16.2 10.9806 15.9989 11.0192 15.8049C11.0578 15.6109 11.153 15.4327 11.2929 15.2929C11.4327 15.153 11.6109 15.0578 11.8049 15.0192C11.9989 14.9806 12.2 15.0004 12.3827 15.0761C12.5654 15.1518 12.7216 15.28 12.8315 15.4444C12.9414 15.6089 13 15.8022 13 16C13 16.2652 12.8946 16.5196 12.7071 16.7071C12.5196 16.8946 12.2652 17 12 17ZM18 15H14.82C14.6098 14.4208 14.2264 13.9205 13.7218 13.5668C13.2173 13.2132 12.6161 13.0235 12 13.0235C11.3839 13.0235 10.7827 13.2132 10.2782 13.5668C9.77363 13.9205 9.3902 14.4208 9.18 15H6C5.46957 15 4.96086 14.7893 4.58579 14.4142C4.21071 14.0391 4 13.5304 4 13V12H18V15ZM18 10H14V7H16C16.5304 7 17.0391 7.21071 17.4142 7.58579C17.7893 7.96086 18 8.46957 18 9V10Z" fill="#0F1621"/>
</svg>
