<svg width="24" height="24" viewBox="0 0 24 24" fill="none" xmlns="http://www.w3.org/2000/svg">
<path d="M20 16V10C20 7.8 18.2 6 16 6H6C3.8 6 2 7.8 2 10V14C2 16.2 3.8 18 6 18H9.2C9.6 19.2 10.7 20 12 20C13.3 20 14.4 19.2 14.8 18H22V16H20ZM4 10C4 8.9 4.9 8 6 8H12V11H4V10ZM12 18C11.4 18 11 17.6 11 17C11 16.4 11.4 16 12 16C12.6 16 13 16.4 13 17C13 17.6 12.6 18 12 18ZM18 16H14.8C14.4 14.8 13.3 14 12 14C10.7 14 9.6 14.8 9.2 16H6C4.9 16 4 15.1 4 14V13H18V16ZM18 11H14V8H16C17.1 8 18 8.9 18 10V11Z" fill="#0F1621"/>
</svg>
