<svg width="16" height="16" viewBox="0 0 16 16" fill="none" xmlns="http://www.w3.org/2000/svg">
<path d="M3 7H2.5C1.94772 7 1.5 6.55228 1.5 6V4C1.5 3.44772 1.94772 3 2.5 3H3.17071C3.58254 1.83481 4.69378 1 6 1H10C11.3062 1 12.4175 1.83481 12.8293 3H13.5C14.0523 3 14.5 3.44772 14.5 4V6C14.5 6.55228 14.0523 7 13.5 7L13 7V14C13 14.5523 12.5523 15 12 15H11C10.4477 15 10 14.5523 10 14V13.5H6V14C6 14.5523 5.55228 15 5 15H4C3.44772 15 3 14.5523 3 14V7ZM7 10.5H4.5V12H7V10.5ZM11.5 10.5H9V12H11.5V10.5ZM4.5 4.5V9H11.5V4.5C11.5 3.39543 10.6046 2.5 9.5 2.5H6.5C5.39543 2.5 4.5 3.39543 4.5 4.5Z" fill="#0F1621"/>
</svg>
