<svg width="24" height="24" viewBox="0 0 24 24" fill="none" xmlns="http://www.w3.org/2000/svg">
<path d="M5 11H4C3.44772 11 3 10.5523 3 10V6C3 5.44772 3.44772 5 4 5H5.12602C5.57006 3.27477 7.13616 2 9 2H15C16.8638 2 18.4299 3.27477 18.874 5H20C20.5523 5 21 5.44772 21 6V10C21 10.5523 20.5523 11 20 11H19V21C19 21.5523 18.5523 22 18 22H14C13.4477 22 13 21.5523 13 21V20H11V21C11 21.5523 10.5523 22 10 22H6C5.44772 22 5 21.5523 5 21V11ZM9 20V18H15V20H17V16H7V20H9ZM7 6V14H17V6C17 4.89543 16.1046 4 15 4H9C7.89543 4 7 4.89543 7 6Z" fill="#0F1621"/>
</svg>
