<svg width="24" height="24" viewBox="0 0 24 24" fill="none" xmlns="http://www.w3.org/2000/svg">
<path d="M7 19C8.30622 19 9.41746 18.1652 9.82929 17H14.1707C14.5825 18.1652 15.6938 19 17 19C18.3062 19 19.4175 18.1652 19.8293 17H20.5C21.3284 17 22 16.3284 22 15.5V12.5352C22 11.8665 21.6658 11.242 21.1094 10.8711L18.7418 9.29268L16.1488 4.97101C15.7873 4.3686 15.1363 4 14.4338 4H3.5C2.67157 4 2 4.67157 2 5.5V15.5C2 16.3284 2.67157 17 3.5 17H4.17071C4.58254 18.1652 5.69378 19 7 19ZM4 6H11.0868L11.4628 10.136C11.533 10.9086 12.1808 11.5002 12.9566 11.5002H18.4475L20 12.5352V15H19.8293C19.4175 13.8348 18.3062 13 17 13C15.6938 13 14.5825 13.8348 14.1707 15H9.82929C9.41746 13.8348 8.30622 13 7 13C5.69378 13 4.58254 13.8348 4.17071 15H4V6ZM13.095 6H14.4338L16.5339 9.5002H13.4132L13.095 6ZM7 15C7.55228 15 8 15.4477 8 16C8 16.5523 7.55228 17 7 17C6.44772 17 6 16.5523 6 16C6 15.4477 6.44772 15 7 15ZM16 16C16 15.4477 16.4477 15 17 15C17.5523 15 18 15.4477 18 16C18 16.5523 17.5523 17 17 17C16.4477 17 16 16.5523 16 16Z" fill="#0F1621"/>
</svg>
