<svg width="16" height="16" viewBox="0 0 16 16" fill="none" xmlns="http://www.w3.org/2000/svg">
<path d="M6.86015 11.75H9.38614C9.68929 12.5535 10.4654 13.125 11.375 13.125C12.2846 13.125 13.0607 12.5535 13.3639 11.75H13.7185C14.402 11.75 14.9588 11.201 14.9684 10.5175L14.9916 8.85829C15.0006 8.21403 14.6548 7.61694 14.0916 7.30404L13.0361 6.71765L10.9225 3.60332C10.888 3.54549 10.8505 3.49011 10.8101 3.43732C10.4818 3.00763 9.96918 2.75 9.41968 2.75H2.25C1.55964 2.75 1 3.30964 1 4V10.5C1 11.1904 1.55964 11.75 2.25 11.75H2.88985C3.19559 12.5484 3.9691 13.1152 4.875 13.1152C5.7809 13.1152 6.55441 12.5484 6.86015 11.75ZM8.33795 4.25H9.41968C9.50939 4.25 9.59223 4.29807 9.63674 4.37597L11.2103 7.12968C11.2338 7.17089 11.259 7.21102 11.2857 7.25H8.67128L8.33795 4.25ZM4.25 10.9902C4.25 10.6451 4.52982 10.3652 4.875 10.3652C5.22018 10.3652 5.5 10.6451 5.5 10.9902C5.5 11.3354 5.22018 11.6152 4.875 11.6152C4.52982 11.6152 4.25 11.3354 4.25 10.9902ZM11.375 10.375C11.7202 10.375 12 10.6548 12 11C12 11.3452 11.7202 11.625 11.375 11.625C11.0298 11.625 10.75 11.3452 10.75 11C10.75 10.6548 11.0298 10.375 11.375 10.375Z" fill="#0F1621"/>
</svg>
