<svg width="16" height="16" viewBox="0 0 16 16" fill="none" xmlns="http://www.w3.org/2000/svg">
<path d="M4.875 13.1152C5.7809 13.1152 6.55441 12.5484 6.86015 11.75H9.38611C9.68926 12.5535 10.4654 13.125 11.375 13.125C12.2846 13.125 13.0607 12.5535 13.3638 11.75H13.7185C14.402 11.75 14.9588 11.201 14.9684 10.5175L14.9916 8.85829C15.0006 8.21403 14.6548 7.61694 14.0916 7.30404L12.6083 6.47998C12.5684 6.4578 12.5353 6.42512 12.5127 6.38547L10.9391 3.63176C10.6275 3.0865 10.0477 2.75 9.41968 2.75H2.25C1.55964 2.75 1 3.30964 1 4V10.5C1 11.1904 1.55964 11.75 2.25 11.75H2.88985C3.19559 12.5484 3.9691 13.1152 4.875 13.1152ZM2.5 4.25H7.34313L7.69871 6.92391C7.78147 7.54629 8.31307 8.0107 8.94092 8.00913L12.2572 8.00084L13.3631 8.61527C13.4436 8.65997 13.493 8.74527 13.4917 8.83731L13.472 10.25H13.3638C13.0607 9.44649 12.2846 8.875 11.375 8.875C10.4654 8.875 9.68926 9.44649 9.38611 10.25H6.86752C6.56699 9.44136 5.78827 8.86523 4.875 8.86523C3.96173 8.86523 3.18301 9.44136 2.88248 10.25H2.5V4.25ZM8.85634 4.25H9.41968C9.50939 4.25 9.59223 4.29807 9.63674 4.37597L10.853 6.50435L9.15668 6.50859L8.85634 4.25ZM4.875 10.3652C5.22018 10.3652 5.5 10.6451 5.5 10.9902C5.5 11.3354 5.22018 11.6152 4.875 11.6152C4.52982 11.6152 4.25 11.3354 4.25 10.9902C4.25 10.6451 4.52982 10.3652 4.875 10.3652ZM10.75 11C10.75 10.6548 11.0298 10.375 11.375 10.375C11.7201 10.375 12 10.6548 12 11C12 11.3452 11.7201 11.625 11.375 11.625C11.0298 11.625 10.75 11.3452 10.75 11Z" fill="#0F1621"/>
</svg>
