<svg width="16" height="16" viewBox="0 0 16 16" fill="none" xmlns="http://www.w3.org/2000/svg">
<path d="M14.5703 11.32L10.5703 13.82C10.4204 13.924 10.2449 13.985 10.0629 13.9964C9.88079 14.0078 9.69906 13.9692 9.53736 13.8848C9.37565 13.8003 9.24013 13.6732 9.14547 13.5173C9.05081 13.3613 9.00061 13.1824 9.00031 13V12H8.50031C7.83727 12 7.20138 12.2634 6.73254 12.7323C6.2637 13.2011 6.00031 13.837 6.00031 14.5V15H3.00031V7.00002H2.00031C1.81788 6.99972 1.63901 6.94952 1.48306 6.85486C1.32711 6.76019 1.20003 6.62467 1.11557 6.46297C1.03111 6.30127 0.9925 6.11954 1.00391 5.93747C1.01532 5.75539 1.07632 5.57991 1.18031 5.43002L3.68031 1.43002C3.77247 1.29799 3.89514 1.19016 4.0379 1.11571C4.18067 1.04126 4.3393 1.00238 4.50031 1.00238C4.66132 1.00238 4.81995 1.04126 4.96271 1.11571C5.10548 1.19016 5.22815 1.29799 5.32031 1.43002L7.82031 5.43002C7.9243 5.57991 7.9853 5.75539 7.99671 5.93747C8.00812 6.11954 7.96951 6.30127 7.88505 6.46297C7.80059 6.62467 7.67351 6.76019 7.51756 6.85486C7.36161 6.94952 7.18274 6.99972 7.00031 7.00002H6.00031V9.61002C6.77231 9.20819 7.63 8.99892 8.50031 9.00002H9.00031V8.00002C9.00061 7.81759 9.05081 7.63871 9.14547 7.48276C9.24013 7.32682 9.37565 7.19973 9.53736 7.11528C9.69906 7.03082 9.88079 6.99221 10.0629 7.00362C10.2449 7.01503 10.4204 7.07603 10.5703 7.18002L14.5703 9.68002C14.7023 9.77217 14.8102 9.89485 14.8846 10.0376C14.9591 10.1804 14.9979 10.339 14.9979 10.5C14.9979 10.661 14.9591 10.8197 14.8846 10.9624C14.8102 11.1052 14.7023 11.2279 14.5703 11.32Z" fill="#0F1621"/>
</svg>
