<svg width="24" height="24" viewBox="0 0 24 24" fill="none" xmlns="http://www.w3.org/2000/svg">
<path d="M15.5 13.5933L19.0878 20H11.9122L15.5 13.5933ZM16.3725 11.058C15.9907 10.3762 15.0093 10.3762 14.6275 11.058L9.33362 20.5114C8.96033 21.1779 9.44214 22 10.2061 22H20.7939C21.5579 22 22.0397 21.1779 21.6664 20.5114L16.3725 11.058Z" fill="#0E1520"/>
<path d="M8.02605 3.99997C7.69674 3.99997 7.38854 4.16209 7.20199 4.43346L4.75 8.00017L14.25 7.99997L13.1667 9.99997H4V14H6V12H12.0833L11 14H8V15C8 15.5523 7.55231 16 7.00003 16L3.00003 16.0001C2.44774 16.0002 2 15.5524 2 15.0001V8.60573C2 8.21088 2.11688 7.82486 2.3359 7.49633L5.10942 3.33604C5.66581 2.50146 6.60247 2.00016 7.60551 2.00014L13.9999 2C14.9442 1.99998 15.8334 2.44459 16.4 3.20006L18.5 6.00017H15.75L14.55 4.40001C14.3611 4.14818 14.0647 3.99997 13.75 3.99997H8.02605Z" fill="#0E1520"/>
</svg>
