<svg width="16" height="16" viewBox="0 0 16 16" fill="none" xmlns="http://www.w3.org/2000/svg">
<path d="M5.13238 2C4.42986 2 3.77884 2.3686 3.41739 2.97101L1.28501 6.52498C1.09852 6.83581 1 7.19148 1 7.55397V10C1 10.5523 1.44772 11 2 11H3.46481C3.79917 11 4.1114 10.8329 4.29687 10.5547L5 9.5H6.5L8.44444 6H3.3L4.8 3.5H9.3L10.2 5H11.8L10.5826 2.97101C10.2212 2.3686 9.57015 2 8.86762 2H5.13238ZM4 7C4.55228 7 5 7.44772 5 8C5 8.55228 4.55228 9 4 9C3.44772 9 3 8.55228 3 8C3 7.44772 3.44772 7 4 7Z" fill="#0E1520"/>
<path d="M10.8742 6.57344C10.4932 5.88763 9.50689 5.88763 9.12589 6.57344L5.8254 12.5143C5.45511 13.1808 5.93707 14 6.69956 14H13.3005C14.063 14 14.545 13.1808 14.1747 12.5143L10.8742 6.57344ZM10 8.08864L12.4508 12.5H7.54932L10 8.08864Z" fill="#0E1520"/>
</svg>
