<svg width="16" height="16" viewBox="0 0 16 16" fill="none" xmlns="http://www.w3.org/2000/svg">
<path d="M3.5547 1.66795C3.8329 1.25065 4.30125 1 4.80278 1H10.1972C10.6988 1 11.1671 1.25065 11.4453 1.66795L13 4H11.25L10.4726 2.83397C10.3336 2.62533 10.0994 2.5 9.84861 2.5H5.18078C4.91403 2.5 4.66735 2.64168 4.53294 2.8721L2.75 5.5H9L6.5 10L4.75 9.99999L4.75 11C4.75 11.5523 4.30228 12 3.75 12H2C1.44772 12 1 11.5523 1 11V6.10555C1 5.7107 1.11688 5.32469 1.3359 4.99615L3.5547 1.66795ZM5 7.875C5 7.25368 4.49632 6.75 3.875 6.75C3.25368 6.75 2.75 7.25368 2.75 7.875C2.75 8.49632 3.25368 9 3.875 9C4.49632 9 5 8.49632 5 7.875Z" fill="#0E1520"/>
<path d="M9.61511 7.18123C9.99002 6.46889 11.01 6.46889 11.3849 7.18123L14.7286 13.5341C15.0791 14.2 14.5962 14.9999 13.8437 14.9999H7.15639C6.40388 14.9999 5.92099 14.2 6.27147 13.5341L9.61511 7.18123ZM7.98457 13.4999H13.0155L10.5 8.72052L7.98457 13.4999Z" fill="#0E1520"/>
</svg>
