<svg width="24" height="24" viewBox="0 0 24 24" fill="none" xmlns="http://www.w3.org/2000/svg">
<path d="M7.20199 4.43344C7.38854 4.16208 7.69673 3.99997 8.02603 3.99997H13.75C14.0648 3.99997 14.3611 4.14816 14.55 4.39997L15.75 5.99997L18.5 6.00017L16.4 3.20006C15.8334 2.44459 14.9442 1.99998 13.9999 2L7.60551 2.00014C6.60247 2.00016 5.66581 2.50146 5.10942 3.33604L2.3359 7.49633C2.11688 7.82486 2 8.21088 2 8.60573V15.0002C2 15.5525 2.44772 16.0002 3 16.0002H7C7.55228 16.0002 8 15.5525 8 15.0002V14.0002L11 14L14.25 7.99997H4.75L7.20199 4.43344ZM4.5 10.0001H8V12H4.5V10.0001Z" fill="#0E1520"/>
<path d="M14.6275 11.058C15.0093 10.3762 15.9907 10.3762 16.3725 11.058L21.6664 20.5114C22.0397 21.178 21.5579 22 20.7939 22H10.2061C9.44214 22 8.96033 21.178 9.33362 20.5114L14.6275 11.058ZM11.9122 20H19.0878L15.5 13.5933L11.9122 20Z" fill="#0E1520"/>
</svg>
