<svg width="24" height="24" viewBox="0 0 24 24" fill="none" xmlns="http://www.w3.org/2000/svg">
<path d="M7.23607 4C6.8573 4 6.51103 4.214 6.34164 4.55279L5.11803 7H13.4167L12.3333 9H4.11803L4 9.23607V13H5V11H11.25L10.1667 13H7V14C7 14.5523 6.55228 15 6 15H3C2.44772 15 2 14.5523 2 14V8.76393L4.55279 3.65836C5.06096 2.64201 6.09975 2 7.23607 2H12.7639C13.9002 2 14.939 2.64201 15.4472 3.65836L16.6525 6.06899C16.5369 6.02247 16.1299 5.99951 16 6C15.4047 6.00224 14.9937 6.02308 14.4561 6.14822L13.6584 4.55279C13.489 4.214 13.1427 4 12.7639 4H7.23607Z" fill="#0E1520"/>
<path fill-rule="evenodd" clip-rule="evenodd" d="M14.6207 8.62333C14.9989 7.92504 16.001 7.92504 16.3793 8.62333L21.2003 17.5237C21.5613 18.19 21.0788 19 20.321 19H10.6789C9.92117 19 9.43873 18.19 9.79965 17.5237L14.6207 8.62333ZM12.3579 17L15.5 11.1992L18.6421 17H12.3579Z" fill="#0E1520"/>
</svg>
