<svg width="16" height="16" viewBox="0 0 16 16" fill="none" xmlns="http://www.w3.org/2000/svg">
<path fill-rule="evenodd" clip-rule="evenodd" d="M3.41739 2.97101C3.77884 2.3686 4.42986 2 5.13238 2H8.86762C9.57015 2 10.2212 2.3686 10.5826 2.97101L11.8 5H10.2L9.3 3.5H4.8L3.3 6H8.44444L6.5 9.5H5L4.29687 10.5547C4.1114 10.8329 3.79917 11 3.46481 11H2C1.44772 11 1 10.5523 1 10V7.55397C1 7.19148 1.09852 6.83581 1.28501 6.52498L3.41739 2.97101ZM5 8C5 8.55228 4.55228 9 4 9C3.44772 9 3 8.55228 3 8C3 7.44772 3.44772 7 4 7C4.55228 7 5 7.44772 5 8Z" fill="#0E1520"/>
<path fill-rule="evenodd" clip-rule="evenodd" d="M9.12589 6.57344C9.50689 5.88763 10.4932 5.88763 10.8742 6.57344L14.1747 12.5143C14.545 13.1808 14.063 14 13.3005 14H6.69956C5.93707 14 5.45511 13.1808 5.8254 12.5143L9.12589 6.57344ZM7.54932 12.5L10 8.08864L12.4508 12.5H7.54932Z" fill="#0E1520"/>
</svg>
