<svg width="24" height="24" viewBox="0 0 24 24" fill="none" xmlns="http://www.w3.org/2000/svg">
<path fill-rule="evenodd" clip-rule="evenodd" d="M6.34164 4.55279C6.51103 4.214 6.8573 4 7.23607 4H12.7639C13.1427 4 13.489 4.214 13.6584 4.55279L14.4686 6.17333C15.0891 6.03355 16 6 16.6172 5.99839L15.4472 3.65836C14.939 2.64201 13.9002 2 12.7639 2H7.23607C6.09975 2 5.06096 2.64201 4.55279 3.65836L2 8.76393V14C2 14.5523 2.44772 15 3 15H6C6.55228 15 7 14.5523 7 14V13H10.1667L13.4167 7H5.11803L6.34164 4.55279ZM4 9H7V11H4V9Z" fill="#0E1520"/>
<path fill-rule="evenodd" clip-rule="evenodd" d="M14.6207 8.62331C14.9989 7.92502 16.0011 7.92502 16.3793 8.62331L21.2003 17.5237C21.5613 18.19 21.0788 19 20.3211 19H10.6789C9.92118 19 9.43874 18.19 9.79965 17.5237L14.6207 8.62331ZM12.3579 17L15.5 11.1992L18.6421 17H12.3579Z" fill="#0E1520"/>
</svg>
