<svg width="24" height="24" viewBox="0 0 24 24" fill="none" xmlns="http://www.w3.org/2000/svg">
<path d="M19 3L20.4142 4.41421L3.44365 21.3848L2.02944 19.9706L19 3Z" fill="#0E1520"/>
<path d="M16.6404 11H17.7L18.7 10.5L18.0471 9.59324L19.6404 8H22V10H20.9L21.7 11.1C21.9 11.4 22 11.7 22 12.1V18C22 18.5 21.8 19 21.4 19.4C21 19.8 20.5 20 20 20H17C16.4 20 16 19.6 16 19V18H9.64038L11.6404 16H18V18H19.9V12.2L18.2 13.1H14.5404L16.6404 11Z" fill="#0E1520"/>
<path d="M7 6H13.1656L11.1656 8H7L5.2 10.5L6.2 11H8.16562L6.06562 13.1H5.7L4 12.2V15.1656L2 17.1656V12.1C2 11.7 2.1 11.4 2.3 11.1L3.1 10H2V8H4.5L5.3 6.8C5.7 6.3 6.3 6 7 6Z" fill="#0E1520"/>
</svg>
