<svg width="16" height="16" viewBox="0 0 16 16" fill="none" xmlns="http://www.w3.org/2000/svg">
<path d="M14.6 7.5L12.6 4.8C12.2 4.3 11.6 4 11 4H5C4.4 4 3.8 4.3 3.4 4.8L1.4 7.5C1.1 7.8 1 8.2 1 8.7V12C1 12.5 1.4 13 2 13H5L6 11.5H10L11 13H14C14.6 13 15 12.5 15 12V8.7C15 8.2 14.9 7.8 14.6 7.5ZM4 11C3.4 11 3 10.6 3 10C3 9.4 3.4 9 4 9C4.6 9 5 9.4 5 10C5 10.6 4.6 11 4 11ZM3 8V7.8L4.3 6.1C4.6 5.7 5 5.5 5.5 5.5H10.5C11 5.5 11.4 5.7 11.7 6.1L13 7.8V8H3ZM12 11C11.4 11 11 10.6 11 10C11 9.4 11.4 9 12 9C12.6 9 13 9.4 13 10C13 10.6 12.6 11 12 11Z" fill="black"/>
</svg>
