<svg width="16" height="16" viewBox="0 0 16 16" fill="none" xmlns="http://www.w3.org/2000/svg">
<path d="M12.3112 2L13.7254 3.41421L2.41422 14.7254L1 13.3112L12.3112 2Z" fill="#0E1520"/>
<path d="M9.21819 2.99744H5C4.4 2.99744 3.8 3.29744 3.4 3.79744L1.4 6.49744C1.1 6.79744 1 7.19744 1 7.69744V10.9974C1 11.0675 1.00365 11.1367 1.01076 11.2049L5.21819 6.99744H3V6.79744L4.3 5.09744C4.6 4.69744 5 4.49744 5.5 4.49744H7.71819L9.21819 2.99744Z" fill="#0E1520"/>
<path d="M14.6 6.49744L13.8211 5.44588L12.7701 6.49683L13 6.79744V6.99744H12.2695L7.76951 11.4974H10L11 12.9974H13C14.1 12.9974 15 12.0974 15 10.9974V7.69744C15 7.19744 14.9 6.79744 14.6 6.49744ZM12 10.9974C11.4 10.9974 11 10.5974 11 9.99744C11 9.39744 11.4 8.99744 12 8.99744C12.6 8.99744 13 9.39744 13 9.99744C13 10.5974 12.6 10.9974 12 10.9974Z" fill="#0E1520"/>
</svg>
