<svg width="16" height="16" viewBox="0 0 16 16" fill="none" xmlns="http://www.w3.org/2000/svg">
<path d="M12.3112 2.00244L13.7254 3.41665L2.41422 14.7278L1 13.3136L12.3112 2.00244Z" fill="#0F1621"/>
<path d="M9.21819 2.99988H5C4.4 2.99988 3.8 3.29988 3.4 3.79988L1.4 6.49988C1.1 6.79988 1 7.19988 1 7.69988V10.9999C1 11.0699 1.00365 11.1391 1.01076 11.2073L5.21819 6.99988H3V6.79988L4.3 5.09988C4.6 4.69988 5 4.49988 5.5 4.49988H7.71819L9.21819 2.99988Z" fill="#0F1621"/>
<path d="M7.33951 6.99988L4.87099 9.46839C4.95443 9.61765 5 9.79737 5 9.99988C5 10.5999 4.6 10.9999 4 10.9999C3.79749 10.9999 3.61777 10.9543 3.46852 10.8709L1.76735 12.572C2.10763 12.8398 2.53602 12.9999 3 12.9999H4.14819L10.1482 6.99988H7.33951Z" fill="#0F1621"/>
<path d="M9.83951 4.49988L11.3127 3.02669C11.8031 3.11054 12.2697 3.38703 12.6 3.79988L12.9184 4.22969L11.8509 5.29719L11.7 5.09988C11.4 4.69988 11 4.49988 10.5 4.49988H9.83951Z" fill="#0F1621"/>
<path fill-rule="evenodd" clip-rule="evenodd" d="M14.6 6.49988L13.8211 5.44832L12.7701 6.49927L13 6.79988V6.99988H12.2695L7.76951 11.4999H10L11 12.9999H13C14.1 12.9999 15 12.0999 15 10.9999V7.69988C15 7.19988 14.9 6.79988 14.6 6.49988ZM12 10.9999C11.4 10.9999 11 10.5999 11 9.99988C11 9.39988 11.4 8.99988 12 8.99988C12.6 8.99988 13 9.39988 13 9.99988C13 10.5999 12.6 10.9999 12 10.9999Z" fill="#0F1621"/>
</svg>
