<svg width="24" height="24" viewBox="0 0 24 24" fill="none" xmlns="http://www.w3.org/2000/svg">
<path d="M16.6404 11H19L18.0123 9.62813L19.6404 8H22V10H20.9L21.7 11.1C21.9 11.4 22 11.7 22 12.1V18C22 18.5 21.8 19 21.4 19.4C21 19.8 20.5 20 20 20H17C16.4 20 16 19.6 16 19V18H9.64038L16.6404 11ZM20 15V13H16V15H20Z" fill="#0E1520"/>
<path d="M7 6H13.1656L11.1656 8H7.5C7.2 8 6.9 8.2 6.7 8.5L5 11H8.16562L6.16562 13H4V15L2 17V12.1C2 11.7 2.1 11.4 2.3 11.1L3.1 10H2V8H4.5L5.3 6.8C5.7 6.3 6.3 6 7 6Z" fill="#0E1520"/>
<path d="M19 3L20.4142 4.41421L3.44365 21.3848L2.02944 19.9706L19 3Z" fill="#0E1520"/>
</svg>
