<svg width="16" height="16" viewBox="0 0 16 16" fill="none" xmlns="http://www.w3.org/2000/svg">
<path d="M14.6 6.5L12.6 3.8C12.2 3.3 11.6 3 11 3H5C4.4 3 3.8 3.3 3.4 3.8L1.4 6.5C1.1 6.8 1 7.2 1 7.7V11C1 12.1 1.9 13 3 13H5L6 11.5H10L11 13H13C14.1 13 15 12.1 15 11V7.7C15 7.2 14.9 6.8 14.6 6.5ZM4 11C3.4 11 3 10.6 3 10C3 9.4 3.4 9 4 9C4.6 9 5 9.4 5 10C5 10.6 4.6 11 4 11ZM3 7V6.8L4.3 5.1C4.6 4.7 5 4.5 5.5 4.5H10.5C11 4.5 11.4 4.7 11.7 5.1L13 6.8V7H3V7ZM12 11C11.4 11 11 10.6 11 10C11 9.4 11.4 9 12 9C12.6 9 13 9.4 13 10C13 10.6 12.6 11 12 11Z" fill="#0F1621"/>
</svg>
