<svg width="24" height="24" viewBox="0 0 24 24" fill="none" xmlns="http://www.w3.org/2000/svg">
<path fill-rule="evenodd" clip-rule="evenodd" d="M3.4 7.4L2 6L6 2L10 6L8.6 7.4L6 4.79L3.4 7.4ZM18 4.79L20.6 7.4L22 6L18 2L14 6L15.4 7.4L18 4.79ZM17 11.17C17.0008 11.3016 16.9755 11.4321 16.9258 11.5539C16.876 11.6757 16.8027 11.7866 16.71 11.88L12 16.59L11.41 16L10 17.41L10.71 18.12C10.8027 18.2134 10.876 18.3243 10.9258 18.4461C10.9755 18.5679 11.0008 18.6984 11 18.83V22H13V18.83C12.9992 18.6984 13.0245 18.5679 13.0742 18.4461C13.124 18.3243 13.1973 18.2134 13.29 18.12L18.12 13.29C18.6828 12.7279 18.9993 11.9654 19 11.17V8L18 7L17 8V11.17ZM7 8L6 7L5 8V9H7V8ZM7 11.17V11H5V11.17C5.00715 11.9114 5.28857 12.6239 5.79 13.17L7.2 11.78C7.06811 11.6042 6.99782 11.3898 7 11.17ZM8.61 13.17L7.2 14.61L8.62 16L10 14.62L8.61 13.17Z" fill="#0F1621"/>
</svg>
