<svg width="16" height="16" viewBox="0 0 16 16" fill="none" xmlns="http://www.w3.org/2000/svg">
<path d="M4.87804 8.36655C2.57902 8.9403 1 10.128 1 11.5C1 13.433 4.13401 15 8 15C11.866 15 15 13.433 15 11.5C15 10.2179 13.6213 9.09686 11.5647 8.48723L10.9317 9.83224C12.1849 10.1502 13 10.6668 13 11.25C13 12.2165 10.7614 13 8 13C5.23858 13 3 12.2165 3 11.25C3 10.5994 4.01438 10.0317 5.5198 9.73013L4.87804 8.36655Z" fill="#0F1621"/>
<path d="M8.81816 11H7.1818L7.72727 7H5L7.36364 1H9L8.27273 5H11L8.81816 11Z" fill="#0F1621"/>
</svg>
