<svg width="24" height="24" viewBox="0 0 24 24" fill="none" xmlns="http://www.w3.org/2000/svg">
<path d="M12.4 16H10.5143L11.2 10.1667H7L10.5143 2H12.5714L11.9714 7.83333H16L12.4 16Z" fill="#0F1621"/>
<path d="M6.82917 11.7914C3.93462 12.755 2 14.5032 2 16.5C2 19.5376 6.47715 22 12 22C17.5228 22 22 19.5376 22 16.5C22 14.5032 20.0654 12.755 17.1708 11.7914L16.0221 13.5444C17.8231 14.0872 19 14.9847 19 16C19 17.6568 15.866 19 12 19C8.13401 19 5 17.6568 5 16C5 14.9847 6.17687 14.0872 7.97787 13.5444L6.82917 11.7914Z" fill="#0F1621"/>
</svg>
