<svg width="24" height="24" viewBox="0 0 24 24" fill="none" xmlns="http://www.w3.org/2000/svg">
<path d="M22 3.39999L20.6 2L2 20.6L3.4 22L22 3.39999ZM3.8 16.6L3 13L5 12.6V6C5 4.9 5.9 4 7 4H13V2H15V4H16.4L14.4 6H7V12.1L8.7 11.7L6 14.4L5.5 14.5L5.6 14.9L3.8 16.6ZM19 12.6L21 13L19 22C19 22 18 20 15.5 20C13 20 12 22 12 22C12 22 11 20 8.5 20C8.1 20 7.7 20.1 7.4 20.2L9.5 18.1C10.5 18.3 11.4 18.6 12 19.1C12.9 18.5 14 18 15.5 18C16.4 18 17.2 18.2 17.9 18.5L18.5 14.6L14 13.6L15.7 11.9L17 12.2V10.6L19 8.60001V12.6Z" fill="#0F1621"/>
</svg>
