<svg width="16" height="16" viewBox="0 0 16 16" fill="none" xmlns="http://www.w3.org/2000/svg">
<path d="M13.0214 1.29004L14.4356 2.70425L2.41421 14.7256L1 13.3114L13.0214 1.29004Z" fill="#0E1520"/>
<path d="M8.84484 3.33103H8.66667V1.33103H7.33333V3.33103H4.36667C4.11299 3.33219 3.86838 3.42545 3.67831 3.59344C3.48824 3.76144 3.36565 3.99275 3.33333 4.24436L2.99333 8.24436L4.3641 7.81178L8.84484 3.33103Z" fill="#0E1520"/>
<path d="M13.0067 8.2577L12.8502 6.41702L11.4917 7.77556L13.0067 8.2577Z" fill="#0E1520"/>
<path d="M10.1434 9.12381L6.05757 13.2097C6.38669 13.2753 6.70275 13.3996 6.99019 13.5779C7.41793 13.8432 7.76665 14.2184 8 14.6644C8.23088 14.217 8.57758 13.8397 9.00393 13.572C9.43029 13.3043 9.92068 13.1559 10.4239 13.1422C10.9272 13.1286 11.4249 13.2503 11.8651 13.4946C12.3053 13.7389 12.6719 14.0968 12.9267 14.531L14.6267 10.531L10.1434 9.12381Z" fill="#0E1520"/>
</svg>
