<svg width="24" height="24" viewBox="0 0 24 24" fill="none" xmlns="http://www.w3.org/2000/svg">
<path d="M20.1993 2.40082L21.6135 3.81503L3.93692 21.4916L2.52271 20.0774L20.1993 2.40082Z" fill="#0F1621"/>
<path d="M15.0001 4H15.7657L10.4571 9.30859L5.00009 10.4V6C5.00009 4.9 5.90009 4 7.00009 4H13.0001V2H15.0001V4Z" fill="#0F1621"/>
<path d="M3.00009 13L7.84164 11.9241L3.68475 16.081L3.00009 13Z" fill="#0F1621"/>
<path d="M11.4782 11.116L4.19901 18.3952L4.71136 20.7007L13.9735 11.4385L12.0001 11L11.4782 11.116Z" fill="#0F1621"/>
<path d="M16.2877 11.9528L8.23273 20.0078C8.31987 20.0027 8.40898 20 8.50009 20C11.0001 20 12.0001 22 12.0001 22C12.0001 22 13.0001 20 15.5001 20C18.0001 20 19.0001 22 19.0001 22L21.0001 13L16.2877 11.9528Z" fill="#0F1621"/>
<path d="M18.0422 10.1983L19.0001 9.24041V10.4L18.0422 10.1983Z" fill="#0F1621"/>
<path d="M19.0001 6.41199L15.6888 9.72328L13.3328 9.26132L18.1952 4.39899C18.683 4.7646 19.0001 5.34706 19.0001 6V6.41199Z" fill="#0F1621"/>
</svg>
