<svg width="24" height="24" viewBox="0 0 24 24" fill="none" xmlns="http://www.w3.org/2000/svg">
<path d="M17 6V8.94L12.39 8L12 7.94L11.61 8L7 8.94V6H17ZM15 2H13V4H7C6.46957 4 5.96086 4.21071 5.58579 4.58579C5.21071 4.96086 5 5.46957 5 6V11.38L6.9 11L12 10L17.1 11L19 11.38V6C19 5.46957 18.7893 4.96086 18.4142 4.58579C18.0391 4.21071 17.5304 4 17 4H15V2ZM12 14.06L18.51 15.54L17.89 18.48C17.1338 18.1606 16.3209 17.9973 15.5 18C14.2471 17.9922 13.0232 18.3769 12 19.1C10.9768 18.3769 9.7529 17.9922 8.5 18C7.67913 17.9973 6.86618 18.1606 6.11 18.48L5.49 15.54L12 14.06ZM12 12L3 14L5 22C5.3541 21.3866 5.86471 20.8783 6.47964 20.5269C7.09457 20.1755 7.79178 19.9937 8.5 20C9.20822 19.9937 9.90543 20.1755 10.5204 20.5269C11.1353 20.8783 11.6459 21.3866 12 22C12.3584 21.3903 12.8699 20.8848 13.4838 20.5336C14.0977 20.1823 14.7927 19.9976 15.5 19.9976C16.2073 19.9976 16.9023 20.1823 17.5162 20.5336C18.1301 20.8848 18.6416 21.3903 19 22L21 14L12 12Z" fill="#0F1621"/>
</svg>
