<svg width="24" height="24" viewBox="0 0 24 24" fill="none" xmlns="http://www.w3.org/2000/svg">
<path d="M20.1966 2.40081L21.6108 3.81502L3.9342 21.4916L2.51999 20.0774L20.1966 2.40081Z" fill="#0E1520"/>
<path d="M14.9974 4H15.763L13.763 6H6.99737V12.1L7.85078 11.9122L3.68203 16.081L2.99737 13L4.99737 12.6V6C4.99737 4.9 5.89737 4 6.99737 4H12.9974V2H14.9974V4Z" fill="#0E1520"/>
<path d="M16.2928 11.945L16.9974 12.1V11.2404L18.9974 9.2404V12.6L20.9974 13L18.9974 22C18.9974 22 17.9974 20 15.4974 20C12.9974 20 11.9974 22 11.9974 22C11.9974 22 10.9974 20 8.49737 20C8.40626 20 8.31715 20.0027 8.23 20.0078L10.0435 18.1942C10.8036 18.394 11.439 18.7277 11.9974 19.1C12.8974 18.5 13.9974 18 15.4974 18C16.3974 18 17.1974 18.2 17.8974 18.5L18.4974 14.6L14.549 13.6888L16.2928 11.945Z" fill="#0E1520"/>
</svg>
