<svg width="24" height="24" viewBox="0 0 24 24" fill="none" xmlns="http://www.w3.org/2000/svg">
<path d="M20.1993 2.40081L21.6135 3.81502L3.93692 21.4916L2.52271 20.0774L20.1993 2.40081Z" fill="#0F1621"/>
<path d="M15.0001 4H15.7657L13.7657 6H7.00009V12.1L7.8535 11.9122L3.68475 16.081L3.00009 13L5.00009 12.6V6C5.00009 4.9 5.90009 4 7.00009 4H13.0001V2H15.0001V4Z" fill="#0F1621"/>
<path d="M12.0001 11L11.4797 11.1145L8.74241 13.8517L12.0001 13.1L12.2536 13.1585L13.9771 11.4349L12.0001 11Z" fill="#0F1621"/>
<path d="M16.2955 11.945L17.0001 12.1V11.2404L19.0001 9.2404V12.6L21.0001 13L19.0001 22C19.0001 22 18.0001 20 15.5001 20C13.0001 20 12.0001 22 12.0001 22C12.0001 22 11.0001 20 8.50009 20C8.40898 20 8.31986 20.0027 8.23271 20.0078L10.0462 18.1942C10.8064 18.394 11.4417 18.7277 12.0001 19.1C12.9001 18.5 14.0001 18 15.5001 18C16.4001 18 17.2001 18.2 17.9001 18.5L18.5001 14.6L14.5517 13.6888L16.2955 11.945Z" fill="#0F1621"/>
<path d="M7.28796 18.1241C6.86433 18.212 6.46837 18.3422 6.10009 18.5L5.83263 16.7615L4.19901 18.3951L4.71135 20.7007L7.28796 18.1241Z" fill="#0F1621"/>
<path d="M19.0001 6.41197L17.0001 8.41197V6H16.5942L18.1952 4.39898C18.683 4.76459 19.0001 5.34706 19.0001 6V6.41197Z" fill="#0F1621"/>
</svg>
