<svg width="24" height="24" viewBox="0 0 24 24" fill="none" xmlns="http://www.w3.org/2000/svg">
<path d="M20.1966 2.40082L21.6108 3.81503L3.9342 21.4916L2.51999 20.0774L20.1966 2.40082Z" fill="#0E1520"/>
<path d="M14.9974 4H15.763L10.4544 9.30859L4.99737 10.4V6C4.99737 4.9 5.89737 4 6.99737 4H12.9974V2H14.9974V4Z" fill="#0E1520"/>
<path d="M2.99737 13L7.83893 11.9241L3.68203 16.081L2.99737 13Z" fill="#0E1520"/>
<path d="M16.285 11.9528L8.23001 20.0078C8.31715 20.0027 8.40627 20 8.49737 20C10.9974 20 11.9974 22 11.9974 22C11.9974 22 12.9974 20 15.4974 20C17.9974 20 18.9974 22 18.9974 22L20.9974 13L16.285 11.9528Z" fill="#0E1520"/>
<path d="M18.0394 10.1983L18.9974 9.24041V10.4L18.0394 10.1983Z" fill="#0E1520"/>
</svg>
