<svg width="16" height="16" viewBox="0 0 16 16" fill="none" xmlns="http://www.w3.org/2000/svg">
<path d="M13.0214 1.29248L14.4356 2.70669L2.41421 14.7281L1 13.3139L13.0214 1.29248Z" fill="#0F1621"/>
<path d="M8.84484 3.33347H8.66667V1.33347H7.33333V3.33347H4.36667C4.11299 3.33463 3.86838 3.42789 3.67831 3.59589C3.48824 3.76388 3.36565 3.99519 3.33333 4.2468L2.99333 8.2468L4.3641 7.81422L8.84484 3.33347Z" fill="#0F1621"/>
<path d="M2.05153 12.2481L4.45869 9.84095L8 8.45347L8.52887 8.61947L2.92464 14.2237L2.05153 12.2481Z" fill="#0F1621"/>
<path d="M7.46353 6.8361L10.9662 3.33347H11.6333C11.889 3.33504 12.1353 3.43017 12.3257 3.60089C12.5161 3.77161 12.6374 4.00611 12.6667 4.26014L12.684 4.46432L9.88246 7.26588L8 6.6668L7.46353 6.8361Z" fill="#0F1621"/>
<path d="M13.0067 8.26014L12.8502 6.41946L11.4917 7.778L13.0067 8.26014Z" fill="#0F1621"/>
<path d="M10.1434 9.12625L6.05757 13.2121C6.38669 13.2777 6.70275 13.402 6.99019 13.5803C7.41793 13.8456 7.76665 14.2208 8 14.6668C8.23088 14.2194 8.57758 13.8422 9.00393 13.5745C9.43029 13.3067 9.92068 13.1583 10.4239 13.1447C10.9272 13.1311 11.4249 13.2527 11.8651 13.497C12.3053 13.7413 12.6719 14.0992 12.9267 14.5335L14.6267 10.5335L10.1434 9.12625Z" fill="#0F1621"/>
</svg>
