<svg width="24" height="24" viewBox="0 0 24 24" fill="none" xmlns="http://www.w3.org/2000/svg">
<path d="M18 17H15V15H18V17ZM18 11H15V13H18V11ZM18 7H15V9H18V7ZM5 12C5 11.2089 5.2346 10.4355 5.67412 9.77772C6.11365 9.11992 6.73836 8.60723 7.46927 8.30448C8.20017 8.00173 9.00444 7.92252 9.78036 8.07686C10.5563 8.2312 11.269 8.61216 11.8284 9.17157C12.3878 9.73098 12.7688 10.4437 12.9231 11.2196C13.0775 11.9956 12.9983 12.7998 12.6955 13.5307C12.3928 14.2616 11.8801 14.8864 11.2223 15.3259C10.5645 15.7654 9.79113 16 9 16C7.93913 16 6.92172 15.5786 6.17157 14.8284C5.42143 14.0783 5 13.0609 5 12ZM6.85 13.09L7.91 14.15L9.75 12.31V9.5H8.25V11.69L6.85 13.09ZM22 4V18C22 18.5304 21.7893 19.0391 21.4142 19.4142C21.0391 19.7893 20.5304 20 20 20H4C3.46957 20 2.96086 19.7893 2.58579 19.4142C2.21071 19.0391 2 18.5304 2 18V4H22ZM20 6H4V18H20V6Z" fill="#0F1621"/>
</svg>
