<svg width="16" height="16" viewBox="0 0 16 16" fill="none" xmlns="http://www.w3.org/2000/svg">
<path d="M2 3V11C2 11.5304 2.21071 12.0391 2.58579 12.4142C2.96086 12.7893 3.46957 13 4 13H12C12.5304 13 13.0391 12.7893 13.4142 12.4142C13.7893 12.0391 14 11.5304 14 11V3H2ZM5.5 10.5C5.00555 10.5 4.5222 10.3534 4.11107 10.0787C3.69995 9.80397 3.37952 9.41352 3.1903 8.95671C3.00108 8.49989 2.95157 7.99723 3.04804 7.51227C3.1445 7.02732 3.3826 6.58186 3.73223 6.23223C4.08186 5.8826 4.52732 5.6445 5.01227 5.54804C5.49723 5.45157 5.99989 5.50108 6.45671 5.6903C6.91352 5.87952 7.30397 6.19995 7.57867 6.61107C7.85338 7.0222 8 7.50555 8 8C8 8.66304 7.73661 9.29893 7.26777 9.76777C6.79893 10.2366 6.16304 10.5 5.5 10.5ZM12 11H9V9H12V11ZM12 7H9V5H12V7Z" fill="#0F1621"/>
</svg>
