<svg width="24" height="24" viewBox="0 0 24 24" fill="none" xmlns="http://www.w3.org/2000/svg">
<path d="M2 4V18C2 18.5304 2.21071 19.0391 2.58579 19.4142C2.96086 19.7893 3.46957 20 4 20H20C20.5304 20 21.0391 19.7893 21.4142 19.4142C21.7893 19.0391 22 18.5304 22 18V4H2ZM9 16.5C8.10998 16.5 7.23995 16.2361 6.49993 15.7416C5.75991 15.2471 5.18314 14.5443 4.84254 13.7221C4.50195 12.8998 4.41283 11.995 4.58647 11.1221C4.7601 10.2492 5.18868 9.44736 5.81802 8.81802C6.44736 8.18868 7.24918 7.7601 8.12209 7.58647C8.99501 7.41283 9.89981 7.50195 10.7221 7.84254C11.5443 8.18314 12.2471 8.75991 12.7416 9.49993C13.2361 10.24 13.5 11.11 13.5 12C13.5013 12.5913 13.3858 13.1771 13.1601 13.7236C12.9345 14.2702 12.603 14.7668 12.1849 15.1849C11.7668 15.603 11.2702 15.9345 10.7236 16.1601C10.1771 16.3858 9.59132 16.5013 9 16.5ZM20 17H15V15H20V17ZM20 13H15V11H20V13ZM20 9H15V7H20V9ZM8 9H10V12.41L7.59 14.83L6.17 13.41L8 11.59V9Z" fill="#0F1621"/>
</svg>
