<svg width="16" height="16" viewBox="0 0 16 16" fill="none" xmlns="http://www.w3.org/2000/svg">
<path fill-rule="evenodd" clip-rule="evenodd" d="M1 4C1 3.44772 1.44772 3 2 3H10V5H13C13.5523 5 14 5.44772 14 6V9C14.5523 9 15 9.44772 15 10V12H13.9146C13.9699 12.1564 14 12.3247 14 12.5C14 13.3284 13.3284 14 12.5 14C11.6716 14 11 13.3284 11 12.5C11 12.3247 11.0301 12.1564 11.0854 12H8.91465C8.96992 12.1564 9 12.3247 9 12.5C9 13.3284 8.32843 14 7.5 14C6.67157 14 6 13.3284 6 12.5C6 12.3247 6.03008 12.1564 6.08535 12H4.91465C4.96992 12.1564 5 12.3247 5 12.5C5 13.3284 4.32843 14 3.5 14C2.67157 14 2 13.3284 2 12.5C2 12.3247 2.03008 12.1564 2.08535 12H1V4ZM12.5 6.5V9H10V6.5L12.5 6.5Z" fill="#0F1621"/>
</svg>
