<svg width="24" height="24" viewBox="0 0 24 24" fill="none" xmlns="http://www.w3.org/2000/svg">
<path d="M6 9H12V14H6V9Z" fill="#0F1621"/>
<path fill-rule="evenodd" clip-rule="evenodd" d="M2 7C2 5.89543 2.89543 5 4 5H14C15.1046 5 16 5.89543 16 7V8H18C19.1046 8 20 8.89543 20 10V12C21.1046 12 22 12.8954 22 14V18H19.95C19.7184 19.1411 18.7095 20 17.5 20C16.2905 20 15.2816 19.1411 15.05 18H11.95C11.7184 19.1411 10.7095 20 9.5 20C8.29052 20 7.28164 19.1411 7.05001 18H6.94999C6.71836 19.1411 5.70948 20 4.5 20C3.29052 20 2.28164 19.1411 2.05001 18H2V7ZM6.50018 16C6.04408 15.3928 5.31791 15 4.5 15C4.32877 15 4.16156 15.0172 4 15.05V7H14V16H11.5002C11.0441 15.3928 10.3179 15 9.5 15C8.68209 15 7.95592 15.3928 7.49982 16H6.50018ZM18 12V10H16V12H18ZM4.5 18.5C5.05228 18.5 5.5 18.0523 5.5 17.5C5.5 16.9477 5.05228 16.5 4.5 16.5C3.94772 16.5 3.5 16.9477 3.5 17.5C3.5 18.0523 3.94772 18.5 4.5 18.5ZM10.5 17.5C10.5 18.0523 10.0523 18.5 9.5 18.5C8.94772 18.5 8.5 18.0523 8.5 17.5C8.5 16.9477 8.94772 16.5 9.5 16.5C10.0523 16.5 10.5 16.9477 10.5 17.5ZM18.5 17.5C18.5 18.0523 18.0523 18.5 17.5 18.5C16.9477 18.5 16.5 18.0523 16.5 17.5C16.5 16.9477 16.9477 16.5 17.5 16.5C18.0523 16.5 18.5 16.9477 18.5 17.5Z" fill="#0F1621"/>
</svg>
