<svg width="24" height="24" viewBox="0 0 24 24" fill="none" xmlns="http://www.w3.org/2000/svg">
<path d="M9.41961 13.8743C6.51862 10.9454 6.5 9.12525 6.5 7.58343C6.5 4.49978 8.96659 2 11.9947 2C15.0228 2 17.5 4.49978 17.5 7.58343C17.5 9.12525 17.4814 10.9454 14.5804 13.8743L12 16.5L9.41961 13.8743ZM12 13.6466L13.1594 12.4668C14.4674 11.1463 15.005 10.1973 15.2477 9.52754C15.4867 8.86764 15.5 8.3325 15.5 7.58343C15.5 5.58063 13.8947 4 11.9947 4C10.0997 4 8.5 5.57558 8.5 7.58343C8.5 8.33249 8.51331 8.86763 8.75236 9.52753C8.99497 10.1973 9.53261 11.1463 10.8406 12.4668L10.8461 12.4724L12 13.6466Z" fill="#0E1520"/>
<path d="M12 6.5C12.2967 6.5 12.5867 6.58797 12.8334 6.7528C13.08 6.91762 13.2723 7.15189 13.3858 7.42597C13.4993 7.70006 13.5291 8.00166 13.4712 8.29263C13.4133 8.58361 13.2704 8.85088 13.0607 9.06066C12.8509 9.27044 12.5836 9.4133 12.2926 9.47118C12.0017 9.52905 11.7001 9.49935 11.426 9.38582C11.1519 9.27229 10.9176 9.08003 10.7528 8.83335C10.588 8.58668 10.5 8.29667 10.5 8C10.5 7.60217 10.658 7.22064 10.9393 6.93934C11.2206 6.65804 11.6022 6.5 12 6.5Z" fill="#0E1520"/>
<path d="M2.35384 9.35389C2.12317 10.1967 2 11.084 2 12C2 17.5228 6.47715 22 12 22C17.5228 22 22 17.5228 22 12C22 11.084 21.8768 10.1967 21.6462 9.35385L19.9448 11.0552C19.9813 11.3651 20 11.6803 20 12C20 16.4183 16.4183 20 12 20C7.58172 20 4 16.4183 4 12C4 11.6804 4.01875 11.3651 4.0552 11.0552L2.35384 9.35389Z" fill="#0E1520"/>
</svg>
