<svg width="16" height="16" viewBox="0 0 16 16" fill="none" xmlns="http://www.w3.org/2000/svg">
<path d="M7.31649 8.14389L7.31237 8.13967C6.42994 7.23853 6.07435 6.59826 5.91576 6.15544C5.75957 5.71932 5.75 5.36629 5.75 4.85064C5.75 3.51451 6.79759 2.5 7.99639 2.5C9.19889 2.5 10.25 3.51832 10.25 4.85064C10.25 5.3663 10.2404 5.71932 10.0842 6.15544C9.92566 6.59826 9.57006 7.23853 8.68763 8.13966L8 8.84741L7.31649 8.14389ZM9.75937 9.18915C11.7373 7.16927 11.75 5.91397 11.75 4.85064C11.75 2.72398 10.061 1 7.99639 1C5.93177 1 4.25 2.72398 4.25 4.85064C4.25 5.91397 4.2627 7.16927 6.24064 9.18915L8 11L9.75937 9.18915Z" fill="#0E1520"/>
<path d="M8 4C8.19778 4 8.39112 4.05865 8.55557 4.16853C8.72002 4.27841 8.84819 4.43459 8.92388 4.61732C8.99957 4.80004 9.01937 5.00111 8.98078 5.19509C8.9422 5.38907 8.84696 5.56725 8.70711 5.70711C8.56725 5.84696 8.38907 5.9422 8.19509 5.98078C8.00111 6.01937 7.80004 5.99957 7.61732 5.92388C7.43459 5.84819 7.27841 5.72002 7.16853 5.55557C7.05865 5.39112 7 5.19778 7 5C7 4.73478 7.10536 4.48043 7.29289 4.29289C7.48043 4.10536 7.73478 4 8 4Z" fill="#0E1520"/>
<path d="M1.47084 5.47088C1.16677 6.25531 1 7.10818 1 7.99999C1 11.866 4.13401 15 8 15C11.866 15 15 11.866 15 7.99999C15 7.10815 14.8332 6.25527 14.5291 5.47083L13.3365 6.66348C13.4433 7.09135 13.5 7.53905 13.5 7.99999C13.5 11.0376 11.0376 13.5 8 13.5C4.96243 13.5 2.5 11.0376 2.5 7.99999C2.5 7.53907 2.5567 7.09139 2.6635 6.66355L1.47084 5.47088Z" fill="#0E1520"/>
</svg>
