<svg width="24" height="24" viewBox="0 0 24 24" fill="none" xmlns="http://www.w3.org/2000/svg">
<path d="M9.41961 13.8743L12 16.5L14.5804 13.8743C17.4814 10.9454 17.5 9.12525 17.5 7.58343C17.5 4.49978 15.0228 2 11.9947 2C8.96659 2 6.5 4.49978 6.5 7.58343C6.5 9.12525 6.51862 10.9454 9.41961 13.8743ZM12.8334 6.7528C13.08 6.91762 13.2723 7.15189 13.3858 7.42597C13.4994 7.70006 13.5291 8.00166 13.4712 8.29263C13.4133 8.58361 13.2704 8.85088 13.0607 9.06066C12.8509 9.27044 12.5836 9.4133 12.2926 9.47118C12.0017 9.52906 11.7001 9.49935 11.426 9.38582C11.1519 9.27229 10.9176 9.08003 10.7528 8.83335C10.588 8.58668 10.5 8.29667 10.5 8C10.5 7.60217 10.658 7.22064 10.9393 6.93934C11.2206 6.65804 11.6022 6.5 12 6.5C12.2967 6.5 12.5867 6.58797 12.8334 6.7528Z" fill="#0E1520"/>
<path d="M2.35384 9.35387C2.12317 10.1967 2 11.084 2 12C2 17.5228 6.47715 22 12 22C17.5228 22 22 17.5228 22 12C22 11.0839 21.8768 10.1967 21.6462 9.35384L19.9448 11.0552C19.9813 11.3651 20 11.6803 20 12C20 16.4183 16.4183 20 12 20C7.58172 20 4 16.4183 4 12C4 11.6803 4.01875 11.3651 4.0552 11.0552L2.35384 9.35387Z" fill="#0E1520"/>
</svg>
