<svg width="16" height="16" viewBox="0 0 16 16" fill="none" xmlns="http://www.w3.org/2000/svg">
<path fill-rule="evenodd" clip-rule="evenodd" d="M3.25 6C3.25 3.37665 5.37665 1.25 8 1.25C10.6234 1.25 12.75 3.37665 12.75 6C12.75 8.62335 10.6234 10.75 8 10.75C5.37665 10.75 3.25 8.62335 3.25 6ZM8 2.75C6.52692 2.75 5.28275 3.73004 4.88392 5.07366L6.53348 5.21112C7.43814 4.7074 8.56173 4.7074 9.46638 5.21114L11.1161 5.07366C10.7173 3.73004 9.47308 2.75 8 2.75ZM4.7624 6.2859L6.75856 7.03446L7.29322 9.17293C5.92845 8.87027 4.88648 7.70957 4.7624 6.2859ZM11.2376 6.2859C11.1135 7.70958 10.0715 8.87029 8.70675 9.17294L9.24132 7.0345L11.2376 6.2859Z" fill="#0F1621"/>
<path d="M1 6C1 5.58579 1.33579 5.25 1.75 5.25C2.16421 5.25 2.5 5.58579 2.5 6V7.59688C2.5 8.13106 2.6316 8.65373 2.87912 9.12023C3.20169 8.93114 3.62204 9.00843 3.85429 9.31339L5.02889 10.8557C5.65885 11.6829 6 12.6939 6 13.7336V15H3V13.2271L1.79776 11.4237C1.27758 10.6435 1 9.72667 1 8.7889V6Z" fill="#0F1621"/>
<path d="M14.25 5.25C14.6642 5.25 15 5.58579 15 6V8.7889C15 9.72667 14.7224 10.6435 14.2022 11.4237L13 13.2271V15H10V13.7336C10 12.6939 10.3412 11.6829 10.9711 10.8557L12.1457 9.31339C12.378 9.00842 12.7983 8.93114 13.1209 9.12023C13.3684 8.65373 13.5 8.13106 13.5 7.59688V6C13.5 5.58579 13.8358 5.25 14.25 5.25Z" fill="#0F1621"/>
</svg>
