<svg width="24" height="24" viewBox="0 0 24 24" fill="none" xmlns="http://www.w3.org/2000/svg">
<path fill-rule="evenodd" clip-rule="evenodd" d="M12 2C8.13401 2 5 5.13401 5 9C5 12.866 8.13401 16 12 16C15.866 16 19 12.866 19 9C19 5.13401 15.866 2 12 2ZM7.19868 7.59989C7.80419 5.51993 9.72459 4 12 4C14.2754 4 16.1958 5.51993 16.8013 7.59989L14.1997 7.81669C12.8427 7.0611 11.1573 7.0611 9.80032 7.81669L7.19868 7.59989ZM10.25 10.625L7 9C7 11.4877 8.81678 13.5511 11.1959 13.9357L10.25 10.625ZM12.8041 13.9357C15.1832 13.5511 17 11.4877 17 9L13.75 10.625L12.8041 13.9357Z" fill="#0F1621"/>
<path d="M22 10C22 9.44772 21.5523 9 21 9C20.4477 9 20 9.44772 20 10V12.5C20 13.1426 19.7822 13.7027 19.4051 14.2444L19.4008 14.2407C18.9815 13.8813 18.3502 13.9299 17.9907 14.3492L15.9537 16.7257C15.177 17.632 14.75 18.7861 14.75 19.9797V22L19 22V19.3333L21 16.6667C21.6491 15.8012 22 14.7485 22 13.6667V10Z" fill="#0F1621"/>
<path d="M3 9.04082C2.44772 9.04082 2 9.48853 2 10.0408V13.7075C2 14.7893 2.35089 15.842 3 16.7075L5 19.3742V22.0408L9.25 22.0408V20.0205C9.25 18.827 8.82304 17.6728 8.04628 16.7666L6.00926 14.39C5.65222 13.9735 5.02689 13.9228 4.60757 14.2745C4.22309 13.7211 4 13.1503 4 12.5V10.0408C4 9.48853 3.55228 9.04082 3 9.04082Z" fill="#0F1621"/>
</svg>
