<svg width="16" height="16" viewBox="0 0 16 16" fill="none" xmlns="http://www.w3.org/2000/svg">
<path d="M1 8C1 4.7093 3.66764 2 6.95833 2C7.29932 2 7.61951 2.1615 7.78201 2.46128C8.2165 3.26285 9 5.10909 9 8C9 10.8909 8.2165 12.7372 7.78201 13.5387C7.61951 13.8385 7.29932 14 6.95833 14C3.66764 14 1 11.2907 1 8Z" fill="#0E1520"/>
<path fill-rule="evenodd" clip-rule="evenodd" d="M10.3292 3.16459C10.5144 2.79411 10.9649 2.64394 11.3354 2.82918L14.3354 4.32918C14.7059 4.51442 14.8561 4.96493 14.6708 5.33541C14.4856 5.70589 14.0351 5.85606 13.6646 5.67082L10.6646 4.17082C10.2941 3.98558 10.1439 3.53507 10.3292 3.16459ZM10.3292 6.16459C10.5144 5.79411 10.9649 5.64394 11.3354 5.82918L14.3354 7.32918C14.7059 7.51442 14.8561 7.96493 14.6708 8.33541C14.4856 8.70589 14.0351 8.85606 13.6646 8.67082L10.6646 7.17082C10.2941 6.98558 10.1439 6.53507 10.3292 6.16459ZM10.3292 9.16459C10.5144 8.79411 10.9649 8.64394 11.3354 8.82918L14.3354 10.3292C14.7059 10.5144 14.8561 10.9649 14.6708 11.3354C14.4856 11.7059 14.0351 11.8561 13.6646 11.6708L10.6646 10.1708C10.2941 9.98558 10.1439 9.53507 10.3292 9.16459ZM10.3292 12.1646C10.5144 11.7941 10.9649 11.6439 11.3354 11.8292L14.3354 13.3292C14.7059 13.5144 14.8561 13.9649 14.6708 14.3354C14.4856 14.7059 14.0351 14.8561 13.6646 14.6708L10.6646 13.1708C10.2941 12.9856 10.1439 12.5351 10.3292 12.1646Z" fill="#0E1520"/>
</svg>
