<svg width="24" height="24" viewBox="0 0 24 24" fill="none" xmlns="http://www.w3.org/2000/svg">
<path fill-rule="evenodd" clip-rule="evenodd" d="M14.1056 5.55279C14.3526 5.05881 14.9532 4.85858 15.4472 5.10557L21.4472 8.10557C21.9412 8.35256 22.1414 8.95324 21.8944 9.44721C21.6474 9.94119 21.0468 10.1414 20.5528 9.89443L14.5528 6.89443C14.0588 6.64744 13.8586 6.04677 14.1056 5.55279ZM14.1056 9.55279C14.3526 9.05881 14.9532 8.85858 15.4472 9.10557L21.4472 12.1056C21.9412 12.3526 22.1414 12.9532 21.8944 13.4472C21.6474 13.9412 21.0468 14.1414 20.5528 13.8944L14.5528 10.8944C14.0588 10.6474 13.8586 10.0468 14.1056 9.55279ZM14.1056 13.5528C14.3526 13.0588 14.9532 12.8586 15.4472 13.1056L21.4472 16.1056C21.9412 16.3526 22.1414 16.9532 21.8944 17.4472C21.6474 17.9412 21.0468 18.1414 20.5528 17.8944L14.5528 14.8944C14.0588 14.6474 13.8586 14.0468 14.1056 13.5528ZM14.1056 17.5528C14.3526 17.0588 14.9532 16.8586 15.4472 17.1056L21.4472 20.1056C21.9412 20.3526 22.1414 20.9532 21.8944 21.4472C21.6474 21.9412 21.0468 22.1414 20.5528 21.8944L14.5528 18.8944C14.0588 18.6474 13.8586 18.0468 14.1056 17.5528Z" fill="#0E1520"/>
<path d="M2 12C2 7.58172 5.58172 4 10 4H10.1502C10.3802 4 10.6081 4.05517 10.7689 4.21968C11.3144 4.77771 12.5 6.61046 12.5 12C12.5 17.3895 11.3144 19.2223 10.7689 19.7803C10.6081 19.9448 10.3802 20 10.1502 20H10C5.58172 20 2 16.4183 2 12Z" fill="#0E1520"/>
</svg>
