<svg width="16" height="16" viewBox="0 0 16 16" fill="none" xmlns="http://www.w3.org/2000/svg">
<path d="M9 8H11V6.27993C11 5.37903 10.6959 4.50451 10.1369 3.798L8.52363 1.75904C8.1443 1.27961 7.56654 1 6.95519 1H3V6C1.89543 6 1 6.89543 1 8V9H4V10H3.5C2.11929 10 1 11.1193 1 12.5C1 13.8807 2.11929 15 3.5 15H8.5C9.88071 15 11 13.8807 11 12.5C11 12.1444 10.9258 11.8062 10.792 11.5H13V13C13 14.1046 13.8954 15 15 15V7C13.8954 7 13 7.89543 13 9V10H9V8ZM4.5 6.5V2.5H6.95519C7.10803 2.5 7.25247 2.5699 7.3473 2.68976L8.96055 4.72873C9.30992 5.17029 9.5 5.71687 9.5 6.27993V6.5H4.5ZM3.5 11.5H8.5C9.05228 11.5 9.5 11.9477 9.5 12.5C9.5 13.0523 9.05228 13.5 8.5 13.5H3.5C2.94772 13.5 2.5 13.0523 2.5 12.5C2.5 11.9477 2.94772 11.5 3.5 11.5Z" fill="#0E1520"/>
</svg>
