<svg width="24" height="24" viewBox="0 0 24 24" fill="none" xmlns="http://www.w3.org/2000/svg">
<path d="M5 2V8H4C2.89543 8 2 8.89543 2 10V13H6V15H5.5C3.567 15 2 16.567 2 18.5C2 20.433 3.567 22 5.5 22H12.5C14.433 22 16 20.433 16 18.5C16 17.9632 15.8792 17.4546 15.6632 17H19V20C19 21.1046 19.8954 22 21 22H22V10H21C19.8954 10 19 10.8954 19 12V15H13V13H16V9.36062C16 8.547 15.7519 7.75273 15.2888 7.08378L12.3657 2.86158C11.9921 2.32198 11.3776 2 10.7213 2H5ZM7 11V4L10.7213 4L13.6444 8.2222C13.8759 8.55667 14 8.95381 14 9.36062V11H7ZM12.5 17C13.3284 17 14 17.6716 14 18.5C14 19.3284 13.3284 20 12.5 20H5.5C4.67157 20 4 19.3284 4 18.5C4 17.6716 4.67157 17 5.5 17H12.5Z" fill="#0E1520"/>
</svg>
