<svg width="16" height="16" viewBox="0 0 16 16" fill="none" xmlns="http://www.w3.org/2000/svg">
<path d="M4 6H3C1.89543 6 1 6.89543 1 8V9H4V6Z" fill="#0F1621"/>
<path d="M15 7C13.8954 7 13 7.89543 13 9V13C13 14.1046 13.8954 15 15 15V7Z" fill="#0F1621"/>
<path fill-rule="evenodd" clip-rule="evenodd" d="M3.5 11.5H8.5C9.05228 11.5 9.5 11.9477 9.5 12.5C9.5 13.0523 9.05228 13.5 8.5 13.5H3.5C2.94772 13.5 2.5 13.0523 2.5 12.5C2.5 11.9477 2.94772 11.5 3.5 11.5ZM8.5 10C9.88071 10 11 11.1193 11 12.5C11 13.8807 9.88071 15 8.5 15H3.5C2.11929 15 1 13.8807 1 12.5C1 11.1193 2.11929 10 3.5 10H8.5Z" fill="#0F1621"/>
<path d="M14 10H7V11.5H14V10Z" fill="#0F1621"/>
<path d="M9 8H4V10H9V8Z" fill="#0F1621"/>
<path fill-rule="evenodd" clip-rule="evenodd" d="M4.5 2.5V6.5H9.5V6.27993C9.5 5.71687 9.30992 5.17029 8.96055 4.72873L7.3473 2.68976L8.52363 1.75904L10.1369 3.798C10.6959 4.50451 11 5.37903 11 6.27993V8H3V1H6.95519C7.56654 1 8.1443 1.27961 8.52363 1.75904L7.3473 2.68976C7.25247 2.5699 7.10803 2.5 6.95519 2.5H4.5Z" fill="#0F1621"/>
</svg>
