<svg width="24" height="24" viewBox="0 0 24 24" fill="none" xmlns="http://www.w3.org/2000/svg">
<path d="M22 10H21C19.8954 10 19 10.8954 19 12V20C19 21.1046 19.8954 22 21 22H22V10Z" fill="#0F1621"/>
<path d="M5 8H4C2.89543 8 2 8.89543 2 10V13H5V8Z" fill="#0F1621"/>
<path fill-rule="evenodd" clip-rule="evenodd" d="M5.5 17H12.5C13.3284 17 14 17.6716 14 18.5C14 19.3284 13.3284 20 12.5 20H5.5C4.67157 20 4 19.3284 4 18.5C4 17.6716 4.67157 17 5.5 17ZM12.5 15C14.433 15 16 16.567 16 18.5C16 20.433 14.433 22 12.5 22H5.5C3.567 22 2 20.433 2 18.5C2 16.567 3.567 15 5.5 15H12.5Z" fill="#0F1621"/>
<path d="M20 15H13V17H20V15Z" fill="#0F1621"/>
<path d="M13 13H6V15H13V13Z" fill="#0F1621"/>
<path fill-rule="evenodd" clip-rule="evenodd" d="M7 4V11H14V9.36062C14 8.95381 13.8759 8.55667 13.6444 8.2222L10.7213 4L7 4ZM5 2H10.7213C11.3776 2 11.9921 2.32198 12.3657 2.86158L15.2888 7.08378C15.7519 7.75273 16 8.547 16 9.36062V13H5V2Z" fill="#0F1621"/>
<path d="M20 15H12V17H20V15Z" fill="#0F1621"/>
</svg>
