<svg width="16" height="16" viewBox="0 0 16 16" fill="none" xmlns="http://www.w3.org/2000/svg">
<path d="M12.9998 1.29999C12.8998 1.29999 12.6998 1.29999 12.5998 1.29999L3.4998 3.49999C2.5998 3.69999 1.9998 4.49999 1.9998 5.49999V12L14.6998 8.99999V2.99999C14.6998 2.09999 13.8998 1.29999 12.9998 1.29999ZM7.7998 7.29999L3.2998 8.39999V5.49999C3.2998 5.09999 3.5998 4.79999 3.8998 4.69999L7.7998 3.79999V7.29999ZM13.2998 5.99999L8.7998 7.09999V3.59999L12.6998 2.69999H12.7998C12.9998 2.69999 13.2998 2.89999 13.2998 3.19999V5.99999ZM1.2998 14.6L14.5998 11.4V10.4L1.2998 13.6V14.6Z" fill="#0F1621"/>
</svg>
