<svg width="16" height="16" viewBox="0 0 16 16" fill="none" xmlns="http://www.w3.org/2000/svg">
<path d="M15 11L1.00001 15V13.5L15 9.5V11ZM12 1C11.719 0.999855 11.4395 1.04027 11.17 1.12L3.17001 3.4C2.54335 3.58042 1.99255 3.9601 1.601 4.48157C1.20944 5.00304 0.998465 5.63789 1.00001 6.29V12L15 8V4C15 3.20435 14.6839 2.44129 14.1213 1.87868C13.5587 1.31607 12.7957 1 12 1ZM3.00001 6.29C2.99171 6.06555 3.05921 5.84485 3.19164 5.66344C3.32407 5.48203 3.51371 5.35049 3.73001 5.29L7.00001 4.39V7.23L3.00001 8.37V6.29ZM13 5.52L9.00001 6.66V3.82L11.73 3C11.8194 2.98578 11.9106 2.98578 12 3C12.2652 3 12.5196 3.10536 12.7071 3.29289C12.8947 3.48043 13 3.73478 13 4V5.52Z" fill="#0F1621"/>
</svg>
