<svg width="16" height="16" viewBox="0 0 16 16" fill="none" xmlns="http://www.w3.org/2000/svg">
<path d="M15 13C15 12.6044 14.8827 12.2178 14.6629 11.8889C14.4432 11.56 14.1308 11.3036 13.7654 11.1522C13.3999 11.0009 12.9978 10.9613 12.6098 11.0384C12.2219 11.1156 11.8655 11.3061 11.5858 11.5858C11.3061 11.8655 11.1156 12.2219 11.0384 12.6098C10.9613 12.9978 11.0009 13.3999 11.1522 13.7654C11.3036 14.1308 11.56 14.4432 11.8889 14.6629C12.2178 14.8827 12.6044 15 13 15C13.5304 15 14.0391 14.7893 14.4142 14.4142C14.7893 14.0391 15 13.5304 15 13ZM4 10H2V7C2 5.4087 2.63214 3.88258 3.75736 2.75736C4.88258 1.63214 6.4087 1 8 1C9.5913 1 11.1174 1.63214 12.2426 2.75736C13.3679 3.88258 14 5.4087 14 7V9H12V7C12 5.93913 11.5786 4.92172 10.8284 4.17157C10.0783 3.42143 9.06087 3 8 3C6.93913 3 5.92172 3.42143 5.17157 4.17157C4.42143 4.92172 4 5.93913 4 7V10ZM4 14H2V12H4V14Z" fill="#0F1621"/>
</svg>
