<svg width="24" height="24" viewBox="0 0 24 24" fill="none" xmlns="http://www.w3.org/2000/svg">
<path d="M5 16C4.40666 16 3.82664 16.1759 3.33329 16.5056C2.83994 16.8352 2.45543 17.3038 2.22836 17.8519C2.0013 18.4001 1.94189 19.0033 2.05765 19.5853C2.1734 20.1672 2.45912 20.7018 2.87868 21.1213C3.29824 21.5409 3.83279 21.8266 4.41473 21.9424C4.99667 22.0581 5.59987 21.9987 6.14805 21.7716C6.69623 21.5446 7.16477 21.1601 7.49441 20.6667C7.82405 20.1734 8 19.5933 8 19C8 18.2044 7.68393 17.4413 7.12132 16.8787C6.55871 16.3161 5.79565 16 5 16ZM5 20C4.80222 20 4.60888 19.9414 4.44443 19.8315C4.27998 19.7216 4.15181 19.5654 4.07612 19.3827C4.00043 19.2 3.98063 18.9989 4.01922 18.8049C4.0578 18.6109 4.15304 18.4327 4.29289 18.2929C4.43275 18.153 4.61093 18.0578 4.80491 18.0192C4.99889 17.9806 5.19996 18.0004 5.38268 18.0761C5.56541 18.1518 5.72159 18.28 5.83147 18.4444C5.94135 18.6089 6 18.8022 6 19C6 19.2652 5.89464 19.5196 5.70711 19.7071C5.51957 19.8946 5.26522 20 5 20ZM22 19C22 19.5933 21.8241 20.1734 21.4944 20.6667C21.1648 21.1601 20.6962 21.5446 20.1481 21.7716C19.5999 21.9987 18.9967 22.0581 18.4147 21.9424C17.8328 21.8266 17.2982 21.5409 16.8787 21.1213C16.4591 20.7018 16.1734 20.1672 16.0576 19.5853C15.9419 19.0033 16.0013 18.4001 16.2284 17.8519C16.4554 17.3038 16.8399 16.8352 17.3333 16.5056C17.8266 16.1759 18.4067 16 19 16C19.7957 16 20.5587 16.3161 21.1213 16.8787C21.6839 17.4413 22 18.2044 22 19ZM12 4C10.4087 4 8.88258 4.63214 7.75736 5.75736C6.63214 6.88258 6 8.4087 6 10V14H4V10C4 7.87827 4.84286 5.84344 6.34315 4.34315C7.84344 2.84285 9.87827 2 12 2C14.1217 2 16.1566 2.84285 17.6569 4.34315C19.1571 5.84344 20 7.87827 20 10V14H18V10C18 8.4087 17.3679 6.88258 16.2426 5.75736C15.1174 4.63214 13.5913 4 12 4Z" fill="#0F1621"/>
</svg>
