<svg width="16" height="16" viewBox="0 0 16 16" fill="none" xmlns="http://www.w3.org/2000/svg">
<path d="M10.4989 6.49455V8.49673H11.5011V6.49455H10.4989ZM10.4989 9.49782V10.4989H11.5011V9.49782H10.4989ZM11.6263 4.87779L14.4323 10.4989C14.4827 10.6052 14.5056 10.7224 14.4988 10.8398C14.492 10.9572 14.4558 11.071 14.3934 11.1707C14.331 11.2704 14.2445 11.3528 14.1418 11.4104C14.0392 11.4679 13.9237 11.4988 13.806 11.5H8.19404C8.07633 11.4988 7.96083 11.4679 7.85818 11.4104C7.75552 11.3528 7.66902 11.2704 7.60663 11.1707C7.54424 11.071 7.50797 10.9572 7.50117 10.8398C7.49437 10.7224 7.51725 10.6052 7.56771 10.4989L10.3737 4.8928C10.4307 4.77626 10.5191 4.67784 10.6289 4.60849C10.7386 4.53915 10.8655 4.50161 10.9954 4.50005C11.1252 4.49849 11.253 4.53298 11.3644 4.59968C11.4758 4.66637 11.5665 4.76265 11.6263 4.87779Z" fill="#0E1520"/>
<path fill-rule="evenodd" clip-rule="evenodd" d="M5 1L5 15L3 15L3 1L5 1Z" fill="black"/>
<path fill-rule="evenodd" clip-rule="evenodd" d="M12 1V3H10V1H12Z" fill="black"/>
<path fill-rule="evenodd" clip-rule="evenodd" d="M12 13V15H10V13H12Z" fill="black"/>
</svg>
