<svg width="24" height="24" viewBox="0 0 24 24" fill="none" xmlns="http://www.w3.org/2000/svg">
<path fill-rule="evenodd" clip-rule="evenodd" d="M5 22V2H7V22H5Z" fill="black"/>
<path fill-rule="evenodd" clip-rule="evenodd" d="M16 2V5H14V2H16Z" fill="black"/>
<path fill-rule="evenodd" clip-rule="evenodd" d="M16 19V22H14V19H16Z" fill="black"/>
<path d="M14.2484 9.75326V12.7565H15.7516V9.75326H14.2484ZM14.2484 14.2582V15.7598H15.7516V14.2582H14.2484ZM15.9395 7.32812L20.1484 15.7598C20.2241 15.9192 20.2584 16.095 20.2482 16.2711C20.238 16.4472 20.1836 16.6179 20.0901 16.7675C19.9965 16.917 19.8667 17.0407 19.7127 17.127C19.5588 17.2133 19.3855 17.2596 19.2089 17.2614H10.7911C10.6145 17.2596 10.4412 17.2133 10.2873 17.127C10.1333 17.0407 10.0035 16.917 9.90994 16.7675C9.81636 16.6179 9.76196 16.4472 9.75176 16.2711C9.74156 16.095 9.77588 15.9192 9.85156 15.7598L14.0605 7.35065C14.1461 7.17584 14.2786 7.0282 14.4433 6.92418C14.6079 6.82017 14.7983 6.76386 14.9931 6.76152C15.1879 6.75918 15.3795 6.81092 15.5466 6.91096C15.7137 7.011 15.8497 7.15541 15.9395 7.32812Z" fill="#0E1520"/>
</svg>
