<svg width="16" height="16" viewBox="0 0 16 16" fill="none" xmlns="http://www.w3.org/2000/svg">
<path d="M2.25 3C1.55964 3 1 3.55964 1 4.25V12.5L2 12.5C2 13.3284 2.67157 14 3.5 14C4.32843 14 5 13.3284 5 12.5H5.5C5.5 13.3284 6.17157 14 7 14C7.82843 14 8.5 13.3284 8.5 12.5H11C11 13.3284 11.6716 14 12.5 14C13.3284 14 14 13.3284 14 12.5H15V10C15 9.36035 14.5996 8.81422 14.0358 8.59853L13.4226 6.29909C13.2183 5.53302 12.5246 5 11.7317 5H10.25V4.25C10.25 3.55964 9.69036 3 9 3H2.25ZM10.25 8.5V6.5H11.7317C11.845 6.5 11.9441 6.57615 11.9733 6.68558L12.4571 8.5H10.25ZM8.5 10H2V4.5H3.5L8.5 10Z" fill="#0E1520"/>
</svg>
