<svg width="16" height="16" viewBox="0 0 16 16" fill="none" xmlns="http://www.w3.org/2000/svg">
<path fill-rule="evenodd" clip-rule="evenodd" d="M2 3C1.44772 3 1 3.44772 1 4V12H2.08535C2.03008 12.1564 2 12.3247 2 12.5C2 13.3284 2.67157 14 3.5 14C4.32843 14 5 13.3284 5 12.5C5 12.3247 4.96992 12.1564 4.91465 12H6.08535C6.03008 12.1564 6 12.3247 6 12.5C6 13.3284 6.67157 14 7.5 14C8.32843 14 9 13.3284 9 12.5C9 12.3247 8.96992 12.1564 8.91465 12H11.0854C11.0301 12.1564 11 12.3247 11 12.5C11 13.3284 11.6716 14 12.5 14C13.3284 14 14 13.3284 14 12.5C14 12.3247 13.9699 12.1564 13.9146 12H15V10C15 9.44772 14.5523 9 14 9V6C14 5.96548 13.9983 5.93137 13.9948 5.89776C13.9436 5.3935 13.5178 5 13 5H10V3H2ZM10 6.5V9H12.5V6.5L10 6.5ZM2.5 10.5H8.5L3.5 4.5H2.5V10.5Z" fill="#0F1621"/>
</svg>
