<svg width="24" height="24" viewBox="0 0 24 24" fill="none" xmlns="http://www.w3.org/2000/svg">
<path d="M11 3.5V2H13V3.5L20.3334 9H22V22H18V20.9167H6V22H2V9H3.66669L11 3.5ZM13 6V7H11V6L7.00002 9H17L13 6ZM20 18.9167V11H4V18.9167H20Z" fill="#0E1520"/>
<path d="M17 18H19V12H17V18Z" fill="#0E1520"/>
<path d="M5 18H7V16.16L5 17V18Z" fill="#0E1520"/>
<path d="M8 18H10V14.9L8 15.7V18Z" fill="#0E1520"/>
<path d="M11 18H13V13.66L11 14.5V18Z" fill="#0E1520"/>
<path d="M14 18H16V12.42L14 13.25V18Z" fill="#0E1520"/>
<path d="M17 12H19V18H17V12Z" fill="#0E1520"/>
</svg>
