<svg width="24" height="24" viewBox="0 0 24 24" fill="none" xmlns="http://www.w3.org/2000/svg">
<path d="M11 2H13V6H11V2Z" fill="#0F1621"/>
<path d="M2 19H6V22H2V19Z" fill="#0F1621"/>
<path d="M18 19H22V22H18V19Z" fill="#0F1621"/>
<path fill-rule="evenodd" clip-rule="evenodd" d="M2 21V9H22V21H2ZM20 19V11H4V19H20Z" fill="#0F1621"/>
<path d="M2 10L11 3L11.9647 4.14865L2.96468 11.1487L2 10Z" fill="#0F1621"/>
<path d="M22 10L13 3L12.0353 4.14865L21.0353 11.1487L22 10Z" fill="#0F1621"/>
<path d="M5 18H7V16.16L5 17V18Z" fill="#0F1621"/>
<path d="M8 18H10V14.9L8 15.7V18Z" fill="#0F1621"/>
<path d="M11 17.9999H13V13.66L11 14.5V17.9999Z" fill="#0F1621"/>
<path d="M14 17.9999H16V12.42L14 13.25V17.9999Z" fill="#0F1621"/>
<path d="M17 12H19V18H17V12Z" fill="#0F1621"/>
</svg>
