<svg width="24" height="24" viewBox="0 0 24 24" fill="none" xmlns="http://www.w3.org/2000/svg">
<path d="M13 2H11V3L3.28571 9H2V22H6V21H18V22H22V9H20.7143L13 3V2ZM13 4.89896L18.2728 9H5.72723L11 4.89895V6H13V4.89896ZM20 19H4V11H20V19Z" fill="#0E1520"/>
<path d="M5 18V17L7 16.1666V18H5Z" fill="black"/>
<path d="M8 15.75V18H10V14.9166L8 15.75Z" fill="black"/>
<path d="M11 14.5V18H13V13.6666L11 14.5Z" fill="black"/>
<path d="M14 13.25V18H16V12.4166L14 13.25Z" fill="black"/>
<path d="M17 12V18H19V12H17Z" fill="black"/>
</svg>
