<svg width="16" height="16" viewBox="0 0 16 16" fill="none" xmlns="http://www.w3.org/2000/svg">
<path d="M10.7 11.2998H12.4V7.9998C12.4 7.4998 12.4 7.0998 12.3 6.5998L11.9 3.0998C11.8 2.0998 10.9 1.2998 9.9 1.2998H6.1C5.1 1.2998 4.2 2.0998 4.1 3.0998L3.7 6.5998C3.7 7.0998 3.6 7.4998 3.6 7.9998V11.2998H5.3L2 14.6998H4L7 11.3998H9L12.7 14.6998H14.7L10.7 11.2998ZM5.5 3.5998C5.5 3.1998 5.9 2.6998 6.3 2.6998H9.6C10 2.6998 10.4 3.1998 10.4 3.5998L10.8 6.7998C10.8 6.9998 10.8 7.19981 10.8 7.39981H5.1C5.1 7.19981 5.1 6.9998 5.1 6.7998L5.5 3.5998ZM8 10.2998C7.4 10.2998 7 9.8998 7 9.2998C7 8.6998 7.4 8.2998 8 8.2998C8.6 8.2998 9 8.6998 9 9.2998C9 9.8998 8.6 10.2998 8 10.2998Z" fill="#0F1621"/>
</svg>
