<svg width="16" height="16" viewBox="0 0 16 16" fill="none" xmlns="http://www.w3.org/2000/svg">
<path d="M5.00006 2V1H11V2H8.75V3.5H10.1978C10.6665 3.5 11.0723 3.82553 11.174 4.28307L12 8V11C12 11.5523 11.5523 12 11 12H5C4.44772 12 4 11.5523 4 11V8L4.82598 4.28307C4.92766 3.82553 5.33347 3.5 5.80217 3.5H7.25V2L5.00006 2ZM8 9C7.44772 9 7 9.44772 7 10C7 10.5523 7.44772 11 8 11C8.55228 11 9 10.5523 9 10C9 9.44772 8.55228 9 8 9ZM5.93037 5.41778L5.50001 8H10.5L10.0696 5.41778C10.0295 5.17669 9.82086 4.99998 9.57644 4.99998H6.42357C6.17915 4.99998 5.97056 5.17669 5.93037 5.41778Z" fill="#0F1621"/>
<path d="M3 15L5.5 13H7L5.5 15H3Z" fill="#0F1621"/>
<path d="M13 15L10.5 13H9L10.5 15H13Z" fill="#0F1621"/>
</svg>
