<svg width="24" height="24" viewBox="0 0 24 24" fill="none" xmlns="http://www.w3.org/2000/svg">
<path d="M18 22H6V20H18V22ZM20 14V16C19.9825 16.5249 19.7662 17.0235 19.3949 17.3949C19.0235 17.7662 18.5249 17.9825 18 18H6C5.46957 18 4.96086 17.7893 4.58579 17.4142C4.21071 17.0392 4 16.5304 4 16V14L5.51 5.30001C5.65302 4.91721 5.90988 4.58741 6.24599 4.35499C6.58211 4.12257 6.98135 3.99868 7.39 4.00001H16.61C17.0186 3.99868 17.4179 4.12257 17.754 4.35499C18.0901 4.58741 18.347 4.91721 18.49 5.30001L20 14ZM6.38 12H17.62L16.72 6.83001C16.6795 6.59522 16.5565 6.38259 16.3732 6.23042C16.1899 6.07826 15.9582 5.99655 15.72 6.00001H8.26C8.02177 5.99655 7.79013 6.07826 7.60679 6.23042C7.42346 6.38259 7.30048 6.59522 7.26 6.83001L6.38 12ZM10 14H6V16H10V14ZM18 14H14V16H18V14Z" fill="#0F1621"/>
</svg>
