<svg width="16" height="16" viewBox="0 0 16 16" fill="none" xmlns="http://www.w3.org/2000/svg">
<path d="M4.00001 13H12V15H4.00001V13ZM9.78001 12H6.22001C5.70863 12.0011 5.2034 11.8886 4.74087 11.6705C4.27834 11.4524 3.87008 11.1342 3.54563 10.7389C3.22118 10.3436 2.98866 9.88117 2.8649 9.385C2.74113 8.88883 2.72921 8.37134 2.83001 7.87L3.22001 5.92C3.43622 4.811 4.03132 3.81169 4.90337 3.09325C5.77541 2.3748 6.87013 1.98193 8.00001 1.98193C9.12989 1.98193 10.2246 2.3748 11.0967 3.09325C11.9687 3.81169 12.5638 4.811 12.78 5.92L13.17 7.92C13.2625 8.41775 13.2442 8.92975 13.1166 9.41966C12.989 9.90958 12.7551 10.3654 12.4316 10.7548C12.108 11.1442 11.7028 11.4576 11.2445 11.6728C10.7863 11.888 10.2863 11.9997 9.78001 12ZM7.00001 9H5.00001V10H7.00001V9ZM11 9H9.00001V10H11V9ZM11.47 7L11.31 6.22C11.1627 5.45003 10.7516 4.75548 10.1475 4.25593C9.54335 3.75639 8.78394 3.48309 8.00001 3.48309C7.21608 3.48309 6.45667 3.75639 5.85252 4.25593C5.24837 4.75548 4.83728 5.45003 4.69001 6.22L4.53001 7H11.47Z" fill="#0F1621"/>
</svg>
