<svg width="24" height="24" viewBox="0 0 24 24" fill="none" xmlns="http://www.w3.org/2000/svg">
<path d="M21.9739 10.75C21.9739 7.97538 20.7844 5.47856 18.8875 3.7417L17.4482 5.13686C18.9975 6.51082 19.9739 8.51639 19.9739 10.75C19.9739 12.966 19.0128 14.9576 17.4848 16.3306L18.9121 17.7358C20.7947 15.9999 21.9739 13.5127 21.9739 10.75Z" fill="#0F1621"/>
<path d="M16.0559 14.9238C17.2301 13.9152 17.9739 12.4195 17.9739 10.75C17.9739 9.05733 17.2092 7.54323 16.0065 6.53432L14.5583 7.9381C15.4173 8.57588 15.9739 9.59795 15.9739 10.75C15.9739 11.873 15.445 12.8725 14.6227 13.5129L16.0559 14.9238Z" fill="#0F1621"/>
<path fill-rule="evenodd" clip-rule="evenodd" d="M4.81893 16.4648L7.31034 19L9.80177 16.4648C12.6027 13.637 12.6207 11.8796 12.6207 10.3909C12.6207 7.4136 10.2289 5.00002 7.30523 5.00002C4.38154 5.00002 2 7.4136 2 10.3909C2 11.8796 2.01798 13.637 4.81893 16.4648ZM8.11496 9.58888C7.87679 9.42975 7.59678 9.34481 7.31034 9.34481C6.92623 9.34481 6.55786 9.49739 6.28625 9.769C6.01465 10.0406 5.86206 10.409 5.86206 10.7931C5.86206 11.0795 5.947 11.3595 6.10614 11.5977C6.26528 11.8359 6.49147 12.0215 6.75611 12.1311C7.02075 12.2407 7.31194 12.2694 7.59288 12.2135C7.87382 12.1576 8.13188 12.0197 8.33442 11.8172C8.53697 11.6146 8.6749 11.3566 8.73079 11.0756C8.78667 10.7947 8.75799 10.5035 8.64837 10.2389C8.53875 9.97421 8.35313 9.74802 8.11496 9.58888Z" fill="#0F1621"/>
</svg>
