<svg width="16" height="16" viewBox="0 0 16 16" fill="none" xmlns="http://www.w3.org/2000/svg">
<path fill-rule="evenodd" clip-rule="evenodd" d="M4.0665 10.1439L4.75002 10.8474L5.43765 10.1396C6.32008 9.23849 6.67567 8.59822 6.83426 8.15541C6.99045 7.71929 7.00001 7.36626 7.00001 6.85061C7.00001 5.51828 5.9489 4.49996 4.7464 4.49996C3.54761 4.49996 2.50002 5.51448 2.50002 6.85061C2.50002 7.36626 2.50958 7.71928 2.66577 8.1554C2.82436 8.59822 3.17996 9.2385 4.06238 10.1396L4.0665 10.1439ZM6.50938 11.1891C8.48733 9.16923 8.50001 7.91393 8.50001 6.85061C8.50001 4.72395 6.81102 2.99996 4.7464 2.99996C2.68178 2.99996 1.00002 4.72395 1.00002 6.85061C1.00002 7.91393 1.01271 9.16923 2.99066 11.1891L4.75001 13L6.50938 11.1891Z" fill="#0F1621"/>
<path d="M4.75003 5.99996C4.94781 5.99996 5.14115 6.05861 5.3056 6.16849C5.47005 6.27838 5.59822 6.43455 5.67391 6.61728C5.74959 6.80001 5.7694 7.00107 5.73081 7.19505C5.69223 7.38904 5.59699 7.56722 5.45713 7.70707C5.31728 7.84692 5.1391 7.94216 4.94512 7.98075C4.75114 8.01933 4.55007 7.99953 4.36734 7.92384C4.18462 7.84816 4.02844 7.71998 3.91856 7.55553C3.80868 7.39108 3.75003 7.19775 3.75003 6.99996C3.75003 6.73475 3.85538 6.48039 4.04292 6.29286C4.23046 6.10532 4.48481 5.99996 4.75003 5.99996Z" fill="#0F1621"/>
<path d="M12.8711 11.8711C14.1736 10.6767 14.9902 8.96096 14.9902 7.05448C14.9902 5.12024 14.1497 3.38232 12.8139 2.18604L11.7512 3.2488C12.8164 4.17173 13.4902 5.53442 13.4902 7.05448C13.4902 8.54676 12.8408 9.88737 11.8092 10.8091L12.8711 11.8711Z" fill="#0F1621"/>
<path d="M10.9435 9.94344C11.7548 9.24441 12.2685 8.20942 12.2685 7.05445C12.2685 5.8717 11.7298 4.81475 10.8844 4.11558L9.81583 5.18415C10.3932 5.60447 10.7685 6.28564 10.7685 7.05445C10.7685 7.79533 10.42 8.45482 9.87796 8.87791L10.9435 9.94344Z" fill="#0F1621"/>
</svg>
