<svg width="24" height="24" viewBox="0 0 24 24" fill="none" xmlns="http://www.w3.org/2000/svg">
<path fill-rule="evenodd" clip-rule="evenodd" d="M4.81892 16.4648L7.31033 19L9.80176 16.4648C12.6027 13.637 12.6207 11.8796 12.6207 10.3909C12.6207 7.4136 10.2289 5.00002 7.30521 5.00002C4.38152 5.00002 1.99998 7.4136 1.99998 10.3909C1.99998 11.8796 2.01796 13.637 4.81892 16.4648ZM8.11494 9.58888C7.87677 9.42974 7.59677 9.3448 7.31032 9.3448C6.92622 9.3448 6.55784 9.49739 6.28624 9.76899C6.01463 10.0406 5.86205 10.409 5.86205 10.7931C5.86205 11.0795 5.94699 11.3595 6.10613 11.5977C6.26526 11.8359 6.49145 12.0215 6.75609 12.1311C7.02073 12.2407 7.31193 12.2694 7.59287 12.2135C7.87381 12.1576 8.13186 12.0197 8.33441 11.8172C8.53695 11.6146 8.67489 11.3566 8.73077 11.0756C8.78665 10.7947 8.75797 10.5035 8.64836 10.2388C8.53874 9.97421 8.35311 9.74802 8.11494 9.58888Z" fill="#0F1621"/>
<path d="M18.9382 16.9857C20.8208 15.2499 22 12.7626 22 10C22 7.22538 20.8105 4.72856 18.9136 2.9917L17.4743 4.38686C19.0236 5.76082 20 7.76639 20 10C20 12.216 19.0389 14.2076 17.5109 15.5805L18.9382 16.9857Z" fill="#0F1621"/>
<path d="M16.082 14.1738C17.2562 13.1651 18 11.6694 18 10C18 8.30732 17.2353 6.79323 16.0326 5.78431L14.5844 7.1881C15.4434 7.82588 16 8.84795 16 10C16 11.123 15.4711 12.1225 14.6488 12.7629L16.082 14.1738Z" fill="#0F1621"/>
</svg>
