<svg width="16" height="16" viewBox="0 0 16 16" fill="none" xmlns="http://www.w3.org/2000/svg">
<path d="M11.7512 3.2527L12.8139 2.18994C14.1497 3.38623 14.9902 5.12415 14.9902 7.05838C14.9902 8.96486 14.1736 10.6806 12.8711 11.875L11.8092 10.813C12.8408 9.89128 13.4902 8.55067 13.4902 7.05838C13.4902 5.53833 12.8164 4.17564 11.7512 3.2527Z" fill="#0F1621"/>
<path d="M12.2685 7.05836C12.2685 8.21332 11.7548 9.24831 10.9435 9.94735L9.87796 8.88182C10.42 8.45872 10.7685 7.79924 10.7685 7.05836C10.7685 6.28954 10.3932 5.60838 9.81583 5.18806L10.8844 4.11949C11.7298 4.81866 12.2685 5.8756 12.2685 7.05836Z" fill="#0F1621"/>
<path d="M4.75 6.00391C4.94778 6.00391 5.14112 6.06256 5.30557 6.17244C5.47002 6.28232 5.59819 6.4385 5.67388 6.62122C5.74957 6.80395 5.76937 7.00502 5.73079 7.199C5.6922 7.39298 5.59696 7.57116 5.45711 7.71101C5.31725 7.85087 5.13907 7.94611 4.94509 7.98469C4.75111 8.02328 4.55004 8.00347 4.36732 7.92779C4.18459 7.8521 4.02841 7.72393 3.91853 7.55948C3.80865 7.39503 3.75 7.20169 3.75 7.00391C3.75 6.73869 3.85536 6.48434 4.04289 6.2968C4.23043 6.10926 4.48478 6.00391 4.75 6.00391Z" fill="#0F1621"/>
<path fill-rule="evenodd" clip-rule="evenodd" d="M6.50937 11.1931C8.48731 9.17317 8.5 7.91787 8.5 6.85455C8.5 4.72789 6.811 3.00391 4.74639 3.00391C2.68177 3.00391 1 4.72789 1 6.85455C1 7.91787 1.0127 9.17317 2.99064 11.1931L4.75 13.0039L6.50937 11.1931ZM4.06649 10.1478L4.75 10.8513L5.43763 10.1436C6.32006 9.24243 6.67566 8.60217 6.83424 8.15935C6.99043 7.72323 7 7.3702 7 6.85455C7 5.52223 5.94889 4.50391 4.74639 4.50391C3.5476 4.50391 2.5 5.51842 2.5 6.85455C2.5 7.3702 2.50957 7.72322 2.66576 8.15935C2.82435 8.60216 3.17994 9.24244 4.06237 10.1436L4.06649 10.1478Z" fill="#0F1621"/>
</svg>
