<svg width="16" height="16" viewBox="0 0 16 16" fill="none" xmlns="http://www.w3.org/2000/svg">
<path fill-rule="evenodd" clip-rule="evenodd" d="M2.99064 11.1891L4.75 13L6.50937 11.1891C8.48731 9.16923 8.5 7.91393 8.5 6.85061C8.5 4.72395 6.811 2.99996 4.74639 2.99996C2.68177 2.99996 1 4.72395 1 6.85061C1 7.91393 1.0127 9.16923 2.99064 11.1891ZM5.30557 6.16849C5.14112 6.05861 4.94778 5.99996 4.75 5.99996C4.48478 5.99996 4.23043 6.10532 4.04289 6.29286C3.85536 6.48039 3.75 6.73475 3.75 6.99996C3.75 7.19775 3.80865 7.39108 3.91853 7.55553C4.02841 7.71998 4.18459 7.84816 4.36732 7.92384C4.55004 7.99953 4.75111 8.01933 4.94509 7.98075C5.13907 7.94216 5.31725 7.84692 5.45711 7.70707C5.59696 7.56722 5.6922 7.38904 5.73078 7.19505C5.76937 7.00107 5.74957 6.80001 5.67388 6.61728C5.59819 6.43455 5.47002 6.27838 5.30557 6.16849Z" fill="#0F1621"/>
<path d="M12.8711 11.8711C14.1736 10.6767 14.9902 8.96096 14.9902 7.05448C14.9902 5.12024 14.1496 3.38232 12.8139 2.18604L11.7512 3.2488C12.8164 4.17173 13.4902 5.53442 13.4902 7.05448C13.4902 8.54676 12.8408 9.88737 11.8092 10.8091L12.8711 11.8711Z" fill="#0F1621"/>
<path d="M10.9435 9.94344C11.7548 9.24441 12.2685 8.20942 12.2685 7.05445C12.2685 5.8717 11.7298 4.81475 10.8844 4.11558L9.81581 5.18415C10.3932 5.60447 10.7685 6.28564 10.7685 7.05445C10.7685 7.79533 10.42 8.45482 9.87794 8.87791L10.9435 9.94344Z" fill="#0F1621"/>
</svg>
