<svg width="16" height="16" viewBox="0 0 16 16" fill="none" xmlns="http://www.w3.org/2000/svg">
<path d="M14.9902 7.05448C14.9902 8.96096 14.1736 10.6767 12.8712 11.8711L11.8092 10.8091C12.8408 9.88737 13.4902 8.54676 13.4902 7.05448C13.4902 5.53442 12.8164 4.17173 11.7512 3.2488L12.814 2.18604C14.1497 3.38232 14.9902 5.12024 14.9902 7.05448Z" fill="#0F1621"/>
<path d="M12.2685 7.05445C12.2685 8.20942 11.7549 9.24441 10.9435 9.94344L9.87799 8.87791C10.42 8.45482 10.7685 7.79533 10.7685 7.05445C10.7685 6.28564 10.3932 5.60447 9.81586 5.18415L10.8844 4.11558C11.7298 4.81475 12.2685 5.8717 12.2685 7.05445Z" fill="#0F1621"/>
<path fill-rule="evenodd" clip-rule="evenodd" d="M4.75 13L2.99064 11.1891C1.0127 9.16927 1 7.91397 1 6.85064C1 4.72399 2.68177 3 4.74639 3C6.811 3 8.5 4.72399 8.5 6.85064C8.5 7.91397 8.48731 9.16927 6.50937 11.1891L4.75 13ZM4.75 6C4.94778 6 5.14112 6.05865 5.30557 6.16853C5.47002 6.27841 5.59819 6.43459 5.67388 6.61732C5.74957 6.80004 5.76937 7.00111 5.73078 7.19509C5.6922 7.38907 5.59696 7.56725 5.45711 7.70711C5.31725 7.84696 5.13907 7.9422 4.94509 7.98078C4.75111 8.01937 4.55004 7.99957 4.36732 7.92388C4.18459 7.84819 4.02841 7.72002 3.91853 7.55557C3.80865 7.39112 3.75 7.19778 3.75 7C3.75 6.73478 3.85536 6.48043 4.04289 6.29289C4.23043 6.10536 4.48478 6 4.75 6Z" fill="#0F1621"/>
</svg>
