<svg width="24" height="24" viewBox="0 0 24 24" fill="none" xmlns="http://www.w3.org/2000/svg">
<path d="M8.11497 9.58882C7.8768 9.42968 7.59679 9.34474 7.31035 9.34474C6.92624 9.34474 6.55787 9.49733 6.28627 9.76893C6.01466 10.0405 5.86208 10.4089 5.86208 10.793C5.86208 11.0795 5.94702 11.3595 6.10615 11.5976C6.26529 11.8358 6.49148 12.0214 6.75612 12.1311C7.02076 12.2407 7.31196 12.2693 7.5929 12.2135C7.87383 12.1576 8.13189 12.0196 8.33444 11.8171C8.53698 11.6146 8.67492 11.3565 8.7308 11.0756C8.78668 10.7946 8.758 10.5034 8.64838 10.2388C8.53877 9.97415 8.35314 9.74796 8.11497 9.58882Z" fill="#0F1621"/>
<path fill-rule="evenodd" clip-rule="evenodd" d="M7.31034 19L4.81893 16.4648C2.01798 13.637 2 11.8796 2 10.3909C2 7.4136 4.38154 5.00002 7.30523 5.00002C10.2289 5.00002 12.6207 7.4136 12.6207 10.3909C12.6207 11.8796 12.6027 13.637 9.80177 16.4648L7.31034 19ZM8.38081 15.0574L7.31035 16.1466L6.24542 15.063L6.23988 15.0574C4.98195 13.7874 4.46948 12.8793 4.23953 12.2445C4.01315 11.6196 4 11.1134 4 10.3909C4 8.4894 5.51465 7.00002 7.30523 7.00002C9.10078 7.00002 10.6207 8.49445 10.6207 10.3909C10.6207 11.1134 10.6075 11.6196 10.3812 12.2445C10.1512 12.8793 9.63874 13.7874 8.38081 15.0574Z" fill="#0F1621"/>
<path d="M18.9382 16.9857C20.8208 15.2499 22 12.7626 22 10C22 7.22538 20.8105 4.72856 18.9136 2.9917L17.4743 4.38686C19.0236 5.76082 20 7.76639 20 10C20 12.216 19.0389 14.2076 17.5109 15.5805L18.9382 16.9857Z" fill="#0F1621"/>
<path d="M16.082 14.1738C17.2562 13.1651 18 11.6694 18 10C18 8.30732 17.2354 6.79323 16.0326 5.78431L14.5844 7.1881C15.4434 7.82588 16 8.84795 16 10C16 11.123 15.4711 12.1225 14.6488 12.7629L16.082 14.1738Z" fill="#0F1621"/>
</svg>
