<svg width="24" height="24" viewBox="0 0 24 24" fill="none" xmlns="http://www.w3.org/2000/svg">
<path d="M18.9121 17.7357C20.7947 15.9998 21.9739 13.5126 21.9739 10.75C21.9739 7.97538 20.7844 5.47856 18.8875 3.7417L17.4482 5.13686C18.9975 6.51082 19.9739 8.51639 19.9739 10.75C19.9739 12.966 19.0128 14.9575 17.4847 16.3305L18.9121 17.7357Z" fill="#0F1621"/>
<path d="M16.0558 14.9238C17.2301 13.9151 17.9739 12.4194 17.9739 10.75C17.9739 9.05732 17.2092 7.54323 16.0065 6.53432L14.5583 7.9381C15.4173 8.57589 15.9739 9.59795 15.9739 10.75C15.9739 11.873 15.445 12.8725 14.6227 13.5129L16.0558 14.9238Z" fill="#0F1621"/>
<path fill-rule="evenodd" clip-rule="evenodd" d="M4.81893 16.4648L7.31034 19L9.80177 16.4648C12.6027 13.637 12.6207 11.8796 12.6207 10.3909C12.6207 7.41359 10.2289 5.00001 7.30523 5.00001C4.38154 5.00001 2 7.41359 2 10.3909C2 11.8796 2.01798 13.637 4.81893 16.4648ZM7.31035 16.1466L8.38081 15.0574C9.63874 13.7874 10.1512 12.8793 10.3812 12.2445C10.6075 11.6196 10.6207 11.1134 10.6207 10.3909C10.6207 8.49444 9.10078 7.00001 7.30523 7.00001C5.51465 7.00001 4 8.48939 4 10.3909C4 11.1134 4.01315 11.6195 4.23953 12.2445C4.46948 12.8793 4.98195 13.7874 6.23988 15.0574L6.24542 15.063L7.31035 16.1466Z" fill="#0F1621"/>
<path d="M7.31034 9.34484C7.59679 9.34484 7.8768 9.42978 8.11496 9.58892C8.35313 9.74805 8.53876 9.97424 8.64838 10.2389C8.75799 10.5035 8.78667 10.7947 8.73079 11.0757C8.67491 11.3566 8.53697 11.6147 8.33443 11.8172C8.13188 12.0197 7.87383 12.1577 7.59289 12.2136C7.31195 12.2694 7.02075 12.2408 6.75611 12.1311C6.49148 12.0215 6.26529 11.8359 6.10615 11.5977C5.94701 11.3596 5.86207 11.0796 5.86207 10.7931C5.86207 10.409 6.01465 10.0406 6.28626 9.76903C6.55786 9.49742 6.92624 9.34484 7.31034 9.34484Z" fill="#0F1621"/>
</svg>
