<svg width="16" height="16" viewBox="0 0 16 16" fill="none" xmlns="http://www.w3.org/2000/svg">
<path d="M3 4C3.55228 4 4 3.55228 4 3C4 2.44772 3.55228 2 3 2C2.44772 2 2 2.44772 2 3C2 3.55228 2.44772 4 3 4Z" fill="#0E1520"/>
<path d="M1 6C1 5.44772 1.44772 5 2 5H3V10H4V14H2V9H1V6Z" fill="#0E1520"/>
<path d="M5 5C4.44772 5 4 5.44772 4 6V9H5V14H7V9H8V6C8 5.44772 7.55228 5 7 5H5Z" fill="#0E1520"/>
<path d="M6 4C6.55228 4 7 3.55228 7 3C7 2.44772 6.55228 2 6 2C5.44772 2 5 2.44772 5 3C5 3.55228 5.44772 4 6 4Z" fill="#0E1520"/>
<path d="M15 1H13C11.9391 1 10.9217 1.42143 10.1716 2.17157C9.42143 2.92172 9 3.93913 9 5V11H15V8H11V5H15V4H13V3H15V1Z" fill="#0E1520"/>
<path d="M15 12V14H11V12H15Z" fill="#0E1520"/>
</svg>
