<svg width="16" height="16" viewBox="0 0 16 16" fill="none" xmlns="http://www.w3.org/2000/svg">
<path d="M6 3C6 3.55228 5.55228 4 5 4C4.44772 4 4 3.55228 4 3C4 2.44772 4.44772 2 5 2C5.55228 2 6 2.44772 6 3Z" fill="#0E1520"/>
<path d="M4 5C3.44772 5 3 5.44772 3 6V10H4V14H6V11H5V5L4 5Z" fill="#0E1520"/>
<path d="M6 6C6 5.44772 6.44772 5 7 5H9C9.55228 5 10 5.44772 10 6V10H9V14H7V10H6V6Z" fill="#0E1520"/>
<path d="M11 4C10.4477 4 10 3.55228 10 3C10 2.44772 10.4477 2 11 2C11.5523 2 12 2.44772 12 3C12 3.55228 11.5523 4 11 4Z" fill="#0E1520"/>
<path d="M13 6C13 5.44772 12.5523 5 12 5L11 5V11H10V14H12V10H13V6Z" fill="#0E1520"/>
<path d="M8 4C8.55228 4 9 3.55228 9 3C9 2.44772 8.55228 2 8 2C7.44772 2 7 2.44772 7 3C7 3.55228 7.44772 4 8 4Z" fill="#0E1520"/>
</svg>
