<svg width="24" height="24" viewBox="0 0 24 24" fill="none" xmlns="http://www.w3.org/2000/svg">
<path d="M13 4C13 2.89543 13.8954 2 15 2H22V6H17V4H15V11H22V13H15V15H22V17H13V4Z" fill="#0E1520"/>
<path d="M22 20V18H15V20H22Z" fill="#0E1520"/>
<path d="M3 5C3 4.44772 3.44772 4 4 4C4.55228 4 5 4.44772 5 5V6C5 6.55228 4.55228 7 4 7C3.44772 7 3 6.55228 3 6V5Z" fill="#0E1520"/>
<path d="M10 4C9.44772 4 9 4.44772 9 5V6C9 6.55228 9.44772 7 10 7C10.5523 7 11 6.55228 11 6V5C11 4.44772 10.5523 4 10 4Z" fill="#0E1520"/>
<path d="M10 14V8H11C11.5523 8 12 8.44772 12 9V13H11V20H9V14H10Z" fill="#0E1520"/>
<path d="M2 9C2 8.44772 2.44772 8 3 8H4V14H5V20H3V13H2V9Z" fill="#0E1520"/>
<path d="M7 4C6.44772 4 6 4.44772 6 5V6C6 6.55228 6.44772 7 7 7C7.55228 7 8 6.55228 8 6V5C8 4.44772 7.55228 4 7 4Z" fill="#0E1520"/>
<path d="M6 8C5.44772 8 5 8.44772 5 9V13H6V20H8V13H9V9C9 8.44772 8.55228 8 8 8H6Z" fill="#0E1520"/>
</svg>
