<svg width="24" height="24" viewBox="0 0 24 24" fill="none" xmlns="http://www.w3.org/2000/svg">
<path d="M9 8C9.55228 8 10 7.55228 10 7C10 6.44772 9.55228 6 9 6C8.44772 6 8 6.44772 8 7C8 7.55228 8.44772 8 9 8Z" fill="#0E1520"/>
<path d="M7 10C7 9.44772 7.44772 9 8 9H9V10H8V13H9V15H10V18H8V14H7V10Z" fill="#0E1520"/>
<path d="M15 8C14.4477 8 14 7.55228 14 7C14 6.44772 14.4477 6 15 6C15.5523 6 16 6.44772 16 7C16 7.55228 15.5523 8 15 8Z" fill="#0E1520"/>
<path d="M17 10C17 9.44772 16.5523 9 16 9H15V10H16V13H15V15H14V18H16V14H17V10Z" fill="#0E1520"/>
<path d="M12 8C12.5523 8 13 7.55228 13 7C13 6.44772 12.5523 6 12 6C11.4477 6 11 6.44772 11 7C11 7.55228 11.4477 8 12 8Z" fill="#0E1520"/>
<path fill-rule="evenodd" clip-rule="evenodd" d="M11 9C10.4477 9 10 9.44772 10 10V14H11V18H13V14H14V10C14 9.44772 13.5523 9 13 9H11ZM13 10V13H11V10H13Z" fill="#0E1520"/>
</svg>
