<svg width="16" height="16" viewBox="0 0 16 16" fill="none" xmlns="http://www.w3.org/2000/svg">
<path fill-rule="evenodd" clip-rule="evenodd" d="M15 1V2.5H11.0607L14.0303 5.46966L12.9697 6.53032L11.725 5.28568V10.7143L12.9697 9.46968L14.0303 10.5303L11.0607 13.5H15V15H2C1.44772 15 1 14.5523 1 14V2C1 1.44772 1.44772 1 2 1H15ZM2.5 13.5H10.9393L7.96967 10.5303L9.03033 9.46968L10.275 10.7144V5.28562L9.03033 6.53032L7.96967 5.46966L10.9393 2.5H2.5V4H5V5.5H2.5V7.25H7V8.75H2.5V10.5H5V12H2.5V13.5Z" fill="#0E1520"/>
</svg>
