<svg width="16" height="16" viewBox="0 0 16 16" fill="none" xmlns="http://www.w3.org/2000/svg">
<path fill-rule="evenodd" clip-rule="evenodd" d="M1 1L2.5 1L2.5 4.93933L5.46966 1.96967L6.53032 3.03033L5.28568 4.27498L10.7143 4.27498L9.46968 3.03033L10.5303 1.96967L13.5 4.93934V1L15 1L15 14C15 14.5523 14.5523 15 14 15L2 15C1.44772 15 1 14.5523 1 14L1 1ZM13.5 13.5L13.5 5.06067L10.5303 8.03033L9.46968 6.96967L10.7144 5.72498L5.28562 5.72498L6.53032 6.96967L5.46966 8.03033L2.5 5.06067L2.5 13.5H4V11H5.5V13.5H7.25V9H8.75V13.5H10.5L10.5 11H12L12 13.5L13.5 13.5Z" fill="#0E1520"/>
</svg>
