<svg width="24" height="24" viewBox="0 0 24 24" fill="none" xmlns="http://www.w3.org/2000/svg">
<path d="M16 22H8V20H16V22ZM12 8C9.8 8 8 9.8 8 12V16H16V12C16 9.8 14.2 8 12 8ZM12 6C15.3 6 18 8.7 18 12V16C18 17 17.1 18 16 18H8C6.9 18 6 17.1 6 16V12C6 8.7 8.7 6 12 6ZM22 12C22 12.8 21.9 13.6 21.7 14.4L19.8 13.9C20 13.3 20 12.6 20 12C20 7.6 16.4 4 12 4C7.6 4 4 7.6 4 12C4 12.7 4.1 13.3 4.2 13.9L2.3 14.4C2.1 13.6 2 12.8 2 12C2 6.5 6.5 2 12 2C17.5 2 22 6.5 22 12ZM12 10C10.9 10 10 10.9 10 12V13H14V12C14 10.9 13.1 10 12 10Z" fill="#0F1621"/>
</svg>
