<svg width="16" height="16" viewBox="0 0 16 16" fill="none" xmlns="http://www.w3.org/2000/svg">
<path d="M15 8C14.9995 8.47675 14.9526 8.95233 14.86 9.42L13.39 9.1C13.4622 8.73776 13.4991 8.36936 13.5 8C13.5 6.54131 12.9205 5.14236 11.8891 4.11091C10.8576 3.07946 9.45869 2.5 8 2.5C6.54131 2.5 5.14236 3.07946 4.11091 4.11091C3.07946 5.14236 2.5 6.54131 2.5 8C2.50094 8.36936 2.53778 8.73776 2.61 9.1L1.14 9.42C1.04739 8.95233 1.0005 8.47675 1 8C1 6.14348 1.7375 4.36301 3.05025 3.05025C4.36301 1.7375 6.14348 1 8 1C9.85652 1 11.637 1.7375 12.9497 3.05025C14.2625 4.36301 15 6.14348 15 8ZM5 15H11V13H5V15ZM12 8.17V10C12 10.5304 11.7893 11.0391 11.4142 11.4142C11.0391 11.7893 10.5304 12 10 12H6C5.46957 12 4.96086 11.7893 4.58579 11.4142C4.21071 11.0391 4 10.5304 4 10V8C4 6.93913 4.42143 5.92172 5.17157 5.17157C5.92172 4.42143 6.93913 4 8 4H8.39C9.40076 4.12589 10.3291 4.62172 10.9957 5.39181C11.6624 6.16189 12.0202 7.15163 12 8.17ZM7 9H6V10H7V9ZM10 9H9V10H10V9ZM10.48 8C10.4623 7.38843 10.2286 6.80287 9.82045 6.34711C9.41227 5.89134 8.85593 5.59479 8.25 5.51H8C7.33869 5.50999 6.70431 5.77201 6.23576 6.23869C5.7672 6.70537 5.50265 7.33869 5.5 8H10.48Z" fill="#0F1621"/>
</svg>
