<svg width="16" height="16" viewBox="0 0 16 16" fill="none" xmlns="http://www.w3.org/2000/svg">
<path d="M7.99967 5.17998C7.09967 5.17998 5.66634 5.41331 5.66634 6.99998V8.21998H10.333V6.99998C10.333 5.41331 8.90634 5.17998 7.99967 5.17998ZM7.47967 12.3333L5.99967 14.6666H9.99967L8.49301 12.3333H7.47967ZM9.99967 11.3333C10.2207 11.3333 10.4327 11.2455 10.5889 11.0892C10.7452 10.933 10.833 10.721 10.833 10.5V10.5C10.833 10.279 10.7452 10.067 10.5889 9.91072C10.4327 9.75444 10.2207 9.66665 9.99967 9.66665V9.66665C9.77866 9.66665 9.5667 9.75444 9.41042 9.91072C9.25414 10.067 9.16634 10.279 9.16634 10.5V10.5C9.16634 10.721 9.25414 10.933 9.41042 11.0892C9.5667 11.2455 9.77866 11.3333 9.99967 11.3333V11.3333ZM5.99967 11.3333C6.10911 11.3333 6.21747 11.3118 6.31858 11.2699C6.41968 11.228 6.51155 11.1666 6.58893 11.0892C6.66631 11.0119 6.7277 10.92 6.76957 10.8189C6.81145 10.7178 6.83301 10.6094 6.83301 10.5V10.5C6.83301 10.3905 6.81145 10.2822 6.76957 10.1811C6.7277 10.08 6.66631 9.98811 6.58893 9.91072C6.51155 9.83334 6.41968 9.77196 6.31858 9.73008C6.21747 9.6882 6.10911 9.66665 5.99967 9.66665V9.66665C5.77866 9.66665 5.5667 9.75444 5.41042 9.91072C5.25414 10.067 5.16634 10.279 5.16634 10.5V10.5C5.16634 10.721 5.25414 10.933 5.41042 11.0892C5.5667 11.2455 5.77866 11.3333 5.99967 11.3333V11.3333ZM7.99967 1.33331C3.76634 1.33331 1.33301 3.38665 1.33301 6.97331V14.6666H3.99967L5.72634 12.3333H4.66634C4.48953 12.3333 4.31996 12.2631 4.19494 12.1381C4.06991 12.013 3.99967 11.8435 3.99967 11.6666V6.91331C3.99967 4.91331 5.53301 3.66665 7.99967 3.66665C10.4663 3.66665 11.9997 4.90665 11.9997 6.91331V11.6666C11.9997 11.8435 11.9294 12.013 11.8044 12.1381C11.6794 12.2631 11.5098 12.3333 11.333 12.3333H10.233L11.9997 14.6666H14.6663V6.97331C14.6663 3.38665 12.233 1.33331 7.99967 1.33331Z" fill="#0F1621"/>
</svg>
