<svg width="16" height="16" viewBox="0 0 16 16" fill="none" xmlns="http://www.w3.org/2000/svg">
<path d="M13.3004 8.19999L12.7004 3.19999C12.6004 2.09999 11.8004 1.29999 10.7004 1.29999H5.30036C4.20036 1.29999 3.40036 2.09999 3.30036 3.19999L2.70036 8.19999C2.60036 8.69999 2.70036 9.29999 2.90036 9.69999L3.90036 12C4.20036 12.6 4.70036 13 5.30036 13L5.70036 11C5.80036 10.4 6.40036 9.99999 7.00036 9.99999H9.00036C9.60036 9.99999 10.2004 10.4 10.3004 11L10.7004 13C11.3004 13 11.8004 12.6 12.1004 12.1L13.2004 9.79999C13.3004 9.29999 13.3004 8.69999 13.3004 8.19999ZM5.30036 2.69999H10.8004C11.2004 2.69999 11.6004 2.99999 11.6004 3.39999C11.6004 3.39999 11.7004 4.89999 11.7004 5.99999H4.30036C4.30036 4.89999 4.40036 3.39999 4.40036 3.39999C4.50036 2.99999 4.90036 2.69999 5.30036 2.69999ZM6.00036 8.99999H4.70036C4.40036 8.99999 4.10036 8.69999 4.10036 8.39999V7.89999C4.10036 7.59999 4.40036 7.39999 4.70036 7.39999H6.00036V8.99999ZM11.3004 8.99999H10.0004V7.29999H11.3004C11.6004 7.29999 11.8004 7.49999 11.9004 7.79999V8.29999C11.9004 8.69999 11.6004 8.99999 11.3004 8.99999ZM9.10036 11.8L9.60036 14.6H6.30036L6.80036 11.8C6.90036 11.5 7.20036 11.3 7.50036 11.3H8.50036C8.80036 11.3 9.00036 11.5 9.10036 11.8Z" fill="#0F1621"/>
</svg>
