<svg width="16" height="16" viewBox="0 0 16 16" fill="none" xmlns="http://www.w3.org/2000/svg">
<path d="M9.00005 15H7.00005V12H9.00005V15ZM14.0001 8.67001L13.0001 3.00001C12.9033 2.43934 12.6112 1.93099 12.1756 1.56496C11.7401 1.19892 11.189 0.998794 10.6201 1.00001H5.35005C4.78626 1.00583 4.24235 1.20914 3.81298 1.57457C3.3836 1.93999 3.09594 2.4444 3.00005 3.00001L2.00005 8.67001C1.94497 8.87978 1.94497 9.10023 2.00005 9.31001L3.00005 12.09C3.08999 12.3554 3.26089 12.586 3.48871 12.7492C3.71652 12.9125 3.98979 13.0002 4.27005 13H6.00005V11L7.00005 10H9.00005L10.0001 11V13H11.7301C12.0103 13.0002 12.2836 12.9125 12.5114 12.7492C12.7392 12.586 12.9101 12.3554 13.0001 12.09L13.9301 9.31001C14.0084 9.10633 14.0325 8.8858 14.0001 8.67001ZM5.00005 9.00001H4.00005V8.00001H5.00005V9.00001ZM4.49005 6.00001L4.94005 3.35001C4.95455 3.25197 5.00407 3.1625 5.07944 3.09815C5.15482 3.0338 5.25095 2.99894 5.35005 3.00001H10.6501C10.7492 2.99894 10.8453 3.0338 10.9207 3.09815C10.996 3.1625 11.0456 3.25197 11.0601 3.35001L11.5101 6.00001H4.49005ZM12.0001 9.00001H11.0001V8.00001H12.0001V9.00001Z" fill="#0F1621"/>
</svg>
