<svg width="24" height="24" viewBox="0 0 24 24" fill="none" xmlns="http://www.w3.org/2000/svg">
<path d="M13 17L15 19V22H13V20L12 19L11 20V22H9V19L11 17H13ZM20.9 14.5L19.5 18.7C19.2 19.5 18.5 20.1 17.6 20.1H17V18.3L14 15H10L7 18.2V20H6.4C5.5 20 4.8 19.4 4.5 18.6L3.1 14.4C3 14.2 3 13.9 3 13.5L4.6 3.7C4.8 2.7 5.6 2 6.6 2H17.3C18.3 2 19.1 2.7 19.3 3.7L20.9 13.5C21 13.9 21 14.2 20.9 14.5ZM6.7 4L6 8H18L17.3 4H6.7ZM19 13.9L18.4 10H5.6L5 13.9L5.9 16.5L8.6 13.7L9.1 13H10H14H14.9L15.5 13.6L18.2 16.4L19 13.9Z" fill="#0F1621"/>
</svg>
