<svg width="24" height="24" viewBox="0 0 24 24" fill="none" xmlns="http://www.w3.org/2000/svg">
<path d="M20.6 12.4C20.2 12.2 19.9 11.9 19.7 11.4L18.7 9.20001C18.4 8.50001 17.7 8 16.9 8H15V6H21V4.5L19.5 3H10L7 6H4.2C3 6 2 6.80002 2 7.80002V18.1H4.2C4.6 19.3 5.7 20.1 7 20.1C8.3 20.1 9.4 19.3 9.8 18.1H14.2C14.6 19.3 15.7 20.1 17 20.1C18.3 20.1 19.4 19.3 19.8 18.1H22V13.1L20.6 12.4ZM7 18.1C6.4 18.1 6 17.7 6 17.1C6 16.5 6.4 16.1 7 16.1C7.6 16.1 8 16.5 8 17.1C8 17.7 7.6 18.1 7 18.1ZM8 13.1H5V10.1H8V13.1ZM17 18.1C16.4 18.1 16 17.7 16 17.1C16 16.5 16.4 16.1 17 16.1C17.6 16.1 18 16.5 18 17.1C18 17.7 17.6 18.1 17 18.1ZM15 13.1V10.1H16.9L17.9 12.3C18 12.6 18.2 12.9 18.4 13.1H15Z" fill="#0F1621"/>
</svg>
