<svg width="16" height="16" viewBox="0 0 16 16" fill="none" xmlns="http://www.w3.org/2000/svg">
<path d="M14.14 7.14C14.0485 7.04714 13.9648 6.94679 13.89 6.84L12.59 4.89C12.4077 4.61673 12.1609 4.39258 11.8713 4.23735C11.5818 4.08213 11.2585 4.00061 10.93 4H9V3H14V2L13 1H6L4 3H3C2.46957 3 1.96086 3.21071 1.58579 3.58579C1.21071 3.96086 1 4.46957 1 5V13H2C2 13.663 2.26339 14.2989 2.73223 14.7678C3.20107 15.2366 3.83696 15.5 4.5 15.5C5.16304 15.5 5.79893 15.2366 6.26777 14.7678C6.73661 14.2989 7 13.663 7 13H9.1C9.21476 13.5651 9.52136 14.0732 9.96787 14.4382C10.4144 14.8031 10.9733 15.0025 11.55 15.0025C12.1267 15.0025 12.6856 14.8031 13.1321 14.4382C13.5786 14.0732 13.8852 13.5651 14 13H15V8L14.14 7.14ZM3 6H5V8H3V6ZM4.5 13.5C4.30222 13.5 4.10888 13.4414 3.94443 13.3315C3.77998 13.2216 3.65181 13.0654 3.57612 12.8827C3.50043 12.7 3.48063 12.4989 3.51921 12.3049C3.5578 12.1109 3.65304 11.9327 3.79289 11.7929C3.93275 11.653 4.11093 11.5578 4.30491 11.5192C4.49889 11.4806 4.69996 11.5004 4.88268 11.5761C5.06541 11.6518 5.22159 11.78 5.33147 11.9444C5.44135 12.1089 5.5 12.3022 5.5 12.5C5.5 12.7652 5.39464 13.0196 5.20711 13.2071C5.01957 13.3946 4.76522 13.5 4.5 13.5ZM9 8V6H10.93L12.23 7.94V8H9ZM11.5 13.5C11.3022 13.5 11.1089 13.4414 10.9444 13.3315C10.78 13.2216 10.6518 13.0654 10.5761 12.8827C10.5004 12.7 10.4806 12.4989 10.5192 12.3049C10.5578 12.1109 10.653 11.9327 10.7929 11.7929C10.9327 11.653 11.1109 11.5578 11.3049 11.5192C11.4989 11.4806 11.7 11.5004 11.8827 11.5761C12.0654 11.6518 12.2216 11.78 12.3315 11.9444C12.4414 12.1089 12.5 12.3022 12.5 12.5C12.5 12.7652 12.3946 13.0196 12.2071 13.2071C12.0196 13.3946 11.7652 13.5 11.5 13.5Z" fill="#0F1621"/>
</svg>
