<svg width="24" height="24" viewBox="0 0 24 24" fill="none" xmlns="http://www.w3.org/2000/svg">
<path d="M13 5H16.7208L18.0541 9H21V11H18.7208L19.0695 12.0461C20.7316 12.3181 22 13.7609 22 15.5C22 17.433 20.433 19 18.5 19C16.567 19 15 17.433 15 15.5C15 14.0841 15.8408 12.8645 17.0504 12.3134L16.6126 11H16.0744L12.5744 17H9.5L8.92348 16.2313C8.5872 17.8133 7.18219 19 5.5 19C3.567 19 2 17.433 2 15.5C2 13.567 3.567 12 5.5 12C5.58642 12 5.67211 12.0031 5.75697 12.0093L5 11H2V9H6L7.125 10.5H10.1667L12.1667 9H15.9459L15.2792 7H13V5ZM7.25 15.5C7.25 14.5335 6.4665 13.75 5.5 13.75C4.5335 13.75 3.75 14.5335 3.75 15.5C3.75 16.4665 4.5335 17.25 5.5 17.25C6.4665 17.25 7.25 16.4665 7.25 15.5ZM20 15.5C20 14.6716 19.3284 14 18.5 14C17.6716 14 17 14.6716 17 15.5C17 16.3284 17.6716 17 18.5 17C19.3284 17 20 16.3284 20 15.5ZM11.4256 15L13.759 11H12.8333L10.8333 12.5H8.625L10.5 15H11.4256Z" fill="#0E1520"/>
</svg>
