<svg width="24" height="24" viewBox="0 0 24 24" fill="none" xmlns="http://www.w3.org/2000/svg">
<path d="M20.63 13.32C20.216 13.1043 19.8906 12.7505 19.71 12.32L18.71 10.13C18.545 9.78845 18.2863 9.50085 17.9641 9.30077C17.6418 9.10069 17.2693 8.99638 16.89 9H15V7H21V5.5L19.5 4H9L7 6H4.16C3.89641 5.97816 3.6311 6.00882 3.37944 6.09022C3.12777 6.17161 2.89475 6.30211 2.69387 6.47416C2.49298 6.64622 2.32821 6.85641 2.20911 7.09258C2.09001 7.32874 2.01893 7.58618 2 7.85V19H4.18C4.3902 19.5792 4.77363 20.0795 5.27817 20.4332C5.7827 20.7868 6.38388 20.9765 7 20.9765C7.61612 20.9765 8.2173 20.7868 8.72184 20.4332C9.22637 20.0795 9.6098 19.5792 9.82 19H14.18C14.3902 19.5792 14.7736 20.0795 15.2782 20.4332C15.7827 20.7868 16.3839 20.9765 17 20.9765C17.6161 20.9765 18.2173 20.7868 18.7218 20.4332C19.2264 20.0795 19.6098 19.5792 19.82 19H22V14L20.63 13.32ZM7 19C6.80222 19 6.60888 18.9414 6.44443 18.8315C6.27998 18.7216 6.15181 18.5654 6.07612 18.3827C6.00043 18.2 5.98063 17.9989 6.01921 17.8049C6.0578 17.6109 6.15304 17.4327 6.29289 17.2929C6.43275 17.153 6.61093 17.0578 6.80491 17.0192C6.99889 16.9806 7.19996 17.0004 7.38268 17.0761C7.56541 17.1518 7.72159 17.28 7.83147 17.4444C7.94135 17.6089 8 17.8022 8 18C8 18.2652 7.89464 18.5196 7.70711 18.7071C7.51957 18.8946 7.26522 19 7 19ZM8 12H5V9H8V12ZM17 19C16.8022 19 16.6089 18.9414 16.4444 18.8315C16.28 18.7216 16.1518 18.5654 16.0761 18.3827C16.0004 18.2 15.9806 17.9989 16.0192 17.8049C16.0578 17.6109 16.153 17.4327 16.2929 17.2929C16.4327 17.153 16.6109 17.0578 16.8049 17.0192C16.9989 16.9806 17.2 17.0004 17.3827 17.0761C17.5654 17.1518 17.7216 17.28 17.8315 17.4444C17.9414 17.6089 18 17.8022 18 18C18 18.2652 17.8946 18.5196 17.7071 18.7071C17.5196 18.8946 17.2652 19 17 19ZM15 14V11H16.89L17.89 13.19C18.0253 13.4804 18.1966 13.7525 18.4 14H15Z" fill="#0F1621"/>
</svg>
