<svg width="16" height="16" viewBox="0 0 16 16" fill="none" xmlns="http://www.w3.org/2000/svg">
<path fill-rule="evenodd" clip-rule="evenodd" d="M8.5 2H11.5795L12.3621 5H14V6.5H12.7534L13.1683 8.09031C14.2245 8.3826 15 9.35074 15 10.5C15 11.8807 13.8807 13 12.5 13C11.1193 13 10 11.8807 10 10.5C10 9.42349 10.6804 8.5059 11.6346 8.15382L11.2032 6.5H10.9956C10.9956 6.5 9.65212 7.20054 9 8.5C8.34788 9.79946 8.5 11.5 8.5 11.5H6.49217L5.98857 10.7406C5.86751 12.0084 4.79955 13 3.5 13C2.11929 13 1 11.8807 1 10.5C1 9.11929 2.11929 8 3.5 8C3.75992 8 4.01057 8.03967 4.24624 8.11327L3.17638 6.5H1V5H3.98151L4.64467 6H7.23474L8.47158 5H10.8119L10.4206 3.5H8.5V2ZM4.5 10.5C4.5 11.0523 4.05228 11.5 3.5 11.5C2.94772 11.5 2.5 11.0523 2.5 10.5C2.5 9.94772 2.94772 9.5 3.5 9.5C4.05228 9.5 4.5 9.94772 4.5 10.5ZM13.5 10.5C13.5 11.0523 13.0523 11.5 12.5 11.5C11.9477 11.5 11.5 11.0523 11.5 10.5C11.5 9.94772 11.9477 9.5 12.5 9.5C13.0523 9.5 13.5 9.94772 13.5 10.5Z" fill="#0F1621"/>
</svg>
