<svg width="24" height="24" viewBox="0 0 24 24" fill="none" xmlns="http://www.w3.org/2000/svg">
<path d="M6 13H9V10H6V13ZM20.6 12.3C20.2 12.1 19.9 11.8 19.7 11.3L18.7 9.10004C18.4 8.40004 17.7 7.90002 16.9 7.90002H15V5.90002H21V3.90002L20 2.90002H10L7 5.90002H4.2C3 6.00002 2 6.80002 2 7.80002V18H4.2C4.6 19.2 5.7 20 7 20C8.3 20 9.4 19.2 9.8 18H14.2C14.6 19.2 15.7 20 17 20C18.3 20 19.4 19.2 19.8 18H22V13L20.6 12.3ZM7 18C6.4 18 6 17.6 6 17C6 16.4 6.4 16 7 16C7.6 16 8 16.4 8 17C8 17.6 7.6 18 7 18ZM17 18C16.4 18 16 17.6 16 17C16 16.4 16.4 16 17 16C17.6 16 18 16.4 18 17C18 17.6 17.6 18 17 18ZM20 16H19.8C19.4 14.8 18.3 14 17 14C15.7 14 14.6 14.8 14.2 16H9.8C9.4 14.8 8.3 14 7 14C5.7 14 4.6 14.8 4.2 16H4V8.00003C4 8.00003 4.1 8.00003 4.2 8.00003H7.9L10.1 6.00003H13.1V14H15.1V10H17L18 12.2C18.4 13 19 13.7 19.8 14.1L20.1 14.2V16H20Z" fill="#0F1621"/>
</svg>
