<svg width="16" height="16" viewBox="0 0 16 16" fill="none" xmlns="http://www.w3.org/2000/svg">
<path d="M12.5 8C12.0055 8 11.5222 8.14662 11.1111 8.42133C10.7 8.69603 10.3795 9.08648 10.1903 9.54329C10.0011 10.0001 9.95157 10.5028 10.048 10.9877C10.1445 11.4727 10.3826 11.9181 10.7322 12.2678C11.0819 12.6174 11.5273 12.8555 12.0123 12.952C12.4972 13.0484 12.9999 12.9989 13.4567 12.8097C13.9135 12.6205 14.304 12.3 14.5787 11.8889C14.8534 11.4778 15 10.9945 15 10.5C15 9.83696 14.7366 9.20107 14.2678 8.73223C13.7989 8.26339 13.163 8 12.5 8ZM12.5 11.5C12.3022 11.5 12.1089 11.4414 11.9444 11.3315C11.78 11.2216 11.6518 11.0654 11.5761 10.8827C11.5004 10.7 11.4806 10.4989 11.5192 10.3049C11.5578 10.1109 11.653 9.93275 11.7929 9.79289C11.9327 9.65304 12.1109 9.5578 12.3049 9.51921C12.4989 9.48063 12.7 9.50043 12.8827 9.57612C13.0654 9.65181 13.2216 9.77998 13.3315 9.94443C13.4414 10.1089 13.5 10.3022 13.5 10.5C13.5 10.7652 13.3946 11.0196 13.2071 11.2071C13.0196 11.3946 12.7652 11.5 12.5 11.5Z" fill="#0F1621"/>
<path d="M11.91 6.6C12.2684 6.52694 12.6352 6.50338 13 6.53V5C12.6938 4.97538 12.3862 4.97538 12.08 5L11 2H8V3.5H9.93L10.64 5.5C9.61902 5.93093 8.75139 6.65918 8.15 7.59C8.02462 7.7872 7.8842 7.97442 7.73 8.15C7.55219 7.71445 7.28276 7.32224 6.94 7H7V6H2V7H2.06C1.72568 7.32508 1.4597 7.7137 1.27767 8.14301C1.09564 8.57233 1.00124 9.03369 1 9.5H2.21C2.07351 9.81583 2.00209 10.1559 2 10.5C2 11.163 2.26339 11.7989 2.73223 12.2678C3.20107 12.7366 3.83696 13 4.5 13C5.16304 13 5.79893 12.7366 6.26777 12.2678C6.73661 11.7989 7 11.163 7 10.5C8.00296 10.051 8.84908 9.31279 9.43 8.38C9.98885 7.48215 10.8805 6.84216 11.91 6.6ZM4.5 11.5C4.30222 11.5 4.10888 11.4414 3.94443 11.3315C3.77998 11.2216 3.65181 11.0654 3.57612 10.8827C3.50043 10.7 3.48063 10.4989 3.51921 10.3049C3.5578 10.1109 3.65304 9.93275 3.79289 9.79289C3.93275 9.65304 4.11093 9.5578 4.30491 9.51921C4.49889 9.48063 4.69996 9.50043 4.88268 9.57612C5.06541 9.65181 5.22159 9.77998 5.33147 9.94443C5.44135 10.1089 5.5 10.3022 5.5 10.5C5.5 10.7652 5.39464 11.0196 5.20711 11.2071C5.01957 11.3946 4.76522 11.5 4.5 11.5Z" fill="#0F1621"/>
</svg>
