<svg width="16" height="16" viewBox="0 0 16 16" fill="none" xmlns="http://www.w3.org/2000/svg">
<path d="M8 14H14V15H8V14ZM4 2.99997H10.84C10.6758 2.38676 10.3016 1.85065 9.78256 1.48514C9.26354 1.11963 8.63267 0.947924 8 0.999973H5C4.60379 0.991801 4.21002 1.06381 3.84235 1.21169C3.47468 1.35956 3.1407 1.58023 2.86048 1.86045C2.58026 2.14067 2.35958 2.47466 2.21171 2.84233C2.06384 3.21 1.99183 3.60377 2 3.99997H1V6.99997H2V13H6V11H4V9.99997H6V7.99997H4V2.99997ZM13.56 3.99997H8.47C8.2861 3.99055 8.10214 4.0175 7.92867 4.07927C7.75519 4.14105 7.59561 4.23644 7.45906 4.35999C7.32251 4.48353 7.21167 4.6328 7.1329 4.79925C7.05413 4.9657 7.00897 5.14605 7 5.32997V13H15V5.32997C14.9793 4.96481 14.8176 4.62196 14.5489 4.37381C14.2802 4.12565 13.9257 3.99161 13.56 3.99997ZM10 11H9V9.99997H10V11ZM13 11H12V9.99997H13V11ZM13 8.99997H9V5.99997H13V8.99997Z" fill="#0F1621"/>
</svg>
