<svg width="16" height="16" viewBox="0 0 16 16" fill="none" xmlns="http://www.w3.org/2000/svg">
<path d="M8.00027 3.56001L12.7403 13.38L9.00027 11.81L8.90027 11.76H8.79027C8.53377 11.6823 8.26816 11.6386 8.00027 11.63V3.56001ZM8.00027 1.00001C7.8718 0.999347 7.74569 1.03457 7.63615 1.10171C7.52661 1.16884 7.43799 1.26523 7.38027 1.38001L1.85027 13C1.75052 13.21 1.70463 13.4415 1.71675 13.6737C1.72886 13.9058 1.7986 14.1313 1.91966 14.3298C2.04072 14.5282 2.2093 14.6934 2.41018 14.8104C2.61106 14.9275 2.83791 14.9926 3.07027 15C3.2091 14.9997 3.34718 14.9795 3.48027 14.94L7.61027 13.19C7.73635 13.1498 7.86794 13.1296 8.00027 13.13C8.13582 13.1304 8.27058 13.1506 8.40027 13.19L12.5203 14.94C12.6534 14.9795 12.7914 14.9997 12.9303 15C13.1626 14.9926 13.3895 14.9275 13.5904 14.8104C13.7912 14.6934 13.9598 14.5282 14.0809 14.3298C14.2019 14.1313 14.2717 13.9058 14.2838 13.6737C14.2959 13.4415 14.25 13.21 14.1503 13L8.62027 1.38001C8.56255 1.26523 8.47393 1.16884 8.36439 1.10171C8.25485 1.03457 8.12874 0.999347 8.00027 1.00001Z" fill="#0F1621"/>
</svg>
