<svg width="24" height="24" viewBox="0 0 24 24" fill="none" xmlns="http://www.w3.org/2000/svg">
<path d="M7.94999 18H8.05001C8.28164 19.1411 9.29052 20 10.5 20C11.7095 20 12.7184 19.1411 12.95 18H16.05C16.2816 19.1411 17.2905 20 18.5 20C19.7095 20 20.7184 19.1411 20.95 18H22L22.0002 14.5354C22.0002 13.8666 21.666 13.242 21.1095 12.871L20.3764 12.3824L19.6595 9.51493C19.4369 8.62459 18.637 8 17.7192 8H15V7C15 5.90082 14.1141 5 13.0041 5H3.5C2.67157 5 2 5.67157 2 6.5V18H3.05001C3.28164 19.1411 4.29052 20 5.5 20C6.70948 20 7.71836 19.1411 7.94999 18ZM3.5 15V7H13V15H3.5ZM15 13V10H17.7192L18.4692 13H15Z" fill="#0E1520"/>
</svg>
