<svg width="24" height="24" viewBox="0 0 24 24" fill="none" xmlns="http://www.w3.org/2000/svg">
<path fill-rule="evenodd" clip-rule="evenodd" d="M2 6.5C2 5.67157 2.67157 5 3.5 5H13.0041C14.1141 5 15 5.90082 15 7V8H17.7457C18.6387 8 19.4235 8.59201 19.6687 9.45066L20.3603 11.8718L21.1093 12.371C21.6658 12.742 22 13.3665 22 14.0352L22 18H20.95C20.7184 19.1411 19.7095 20 18.5 20C17.2905 20 16.2816 19.1411 16.05 18H12.95C12.7184 19.1411 11.7095 20 10.5 20C9.29052 20 8.28164 19.1411 8.05001 18H7.94999C7.71836 19.1411 6.70948 20 5.5 20C4.29052 20 3.28164 19.1411 3.05001 18H2V6.5ZM16.4998 16C16.9559 15.3928 17.6821 15 18.5 15C19.0628 15 19.5822 15.186 20 15.4998L20 14.0352L18.6392 13.1282L17.7457 10H15V16H16.4998ZM13 16H12.5002C12.0441 15.3928 11.3179 15 10.5 15C9.68209 15 8.95592 15.3928 8.49982 16H7.50018C7.04408 15.3928 6.31791 15 5.5 15C4.6822 15 3.95611 15.3927 3.5 15.9998V7H13V16ZM6.5 17.5C6.5 18.0523 6.05228 18.5 5.5 18.5C4.94772 18.5 4.5 18.0523 4.5 17.5C4.5 16.9477 4.94772 16.5 5.5 16.5C6.05228 16.5 6.5 16.9477 6.5 17.5ZM10.5 18.5C11.0523 18.5 11.5 18.0523 11.5 17.5C11.5 16.9477 11.0523 16.5 10.5 16.5C9.94772 16.5 9.5 16.9477 9.5 17.5C9.5 18.0523 9.94772 18.5 10.5 18.5ZM19.5 17.5C19.5 18.0523 19.0523 18.5 18.5 18.5C17.9477 18.5 17.5 18.0523 17.5 17.5C17.5 16.9477 17.9477 16.5 18.5 16.5C19.0523 16.5 19.5 16.9477 19.5 17.5Z" fill="#0E1520"/>
</svg>
