<svg width="16" height="16" viewBox="0 0 16 16" fill="none" xmlns="http://www.w3.org/2000/svg">
<path d="M1 4.25C1 3.55964 1.55964 3 2.25 3H9C9.69036 3 10.25 3.55964 10.25 4.25V5H11.7317C12.5246 5 13.2183 5.53302 13.4226 6.29909L14.0358 8.59853C14.5996 8.81422 15 9.36035 15 10V12.5H14C14 13.3284 13.3284 14 12.5 14C11.6716 14 11 13.3284 11 12.5H8.5C8.5 13.3284 7.82843 14 7 14C6.17157 14 5.5 13.3284 5.5 12.5H5C5 13.3284 4.32843 14 3.5 14C2.67157 14 2 13.3284 2 12.5L1 12.5V4.25ZM12.4571 8.5L11.9733 6.68558C11.9441 6.57615 11.845 6.5 11.7317 6.5H10.25V8.5H12.4571ZM2 10H8.75V4.5H2V10Z" fill="#0E1520"/>
</svg>
