<svg width="16" height="16" viewBox="0 0 16 16" fill="none" xmlns="http://www.w3.org/2000/svg">
<path fill-rule="evenodd" clip-rule="evenodd" d="M1 3C0.447715 3 0 3.44772 0 4V12H1.08535C1.03008 12.1564 1 12.3247 1 12.5C1 13.3284 1.67157 14 2.5 14C3.32843 14 4 13.3284 4 12.5C4 12.3247 3.96992 12.1564 3.91465 12H5.08535C5.03008 12.1564 5 12.3247 5 12.5C5 13.3284 5.67157 14 6.5 14C7.32843 14 8 13.3284 8 12.5C8 12.3247 7.96992 12.1564 7.91465 12H10.0854C10.0301 12.1564 10 12.3247 10 12.5C10 13.3284 10.6716 14 11.5 14C12.3284 14 13 13.3284 13 12.5C13 12.3247 12.9699 12.1564 12.9146 12H14V10C14 9.44772 13.5523 9 13 9V6C13 5.96548 12.9983 5.93137 12.9948 5.89776C12.9436 5.3935 12.5178 5 12 5H9V3H1ZM9 6.5V9H11.5V6.5L9 6.5ZM1.5 10.5H7.5V4.5H1.5V10.5Z" fill="#0F1621"/>
</svg>
