<svg width="24" height="24" viewBox="0 0 24 24" fill="none" xmlns="http://www.w3.org/2000/svg">
<path fill-rule="evenodd" clip-rule="evenodd" d="M19 16C17.3431 16 16 17.3431 16 19C16 20.6569 17.3431 22 19 22C20.6569 22 22 20.6569 22 19C22 17.3431 20.6569 16 19 16Z" fill="#0F1621"/>
<path fill-rule="evenodd" clip-rule="evenodd" d="M14 4H10V6H14V4Z" fill="#0F1621"/>
<path fill-rule="evenodd" clip-rule="evenodd" d="M20 10H18V14H20V10Z" fill="#0F1621"/>
<path fill-rule="evenodd" clip-rule="evenodd" d="M6 10H4V14H6V10Z" fill="#0F1621"/>
<path fill-rule="evenodd" clip-rule="evenodd" d="M18 4H16V6H18V8H20V6C20 4.89543 19.1046 4 18 4Z" fill="#0F1621"/>
<path fill-rule="evenodd" clip-rule="evenodd" d="M6 16H4V18C4 19.1046 4.89543 20 6 20H8V18H6V16Z" fill="#0F1621"/>
<path fill-rule="evenodd" clip-rule="evenodd" d="M10 18V20H14V18H10Z" fill="#0F1621"/>
<path fill-rule="evenodd" clip-rule="evenodd" d="M2 5C2 3.34315 3.34315 2 5 2C6.65685 2 8 3.34315 8 5C8 6.65685 6.65685 8 5 8C3.34315 8 2 6.65685 2 5ZM5 6C5.55228 6 6 5.55228 6 5C6 4.44772 5.55228 4 5 4C4.44772 4 4 4.44772 4 5C4 5.55228 4.44772 6 5 6Z" fill="#0F1621"/>
</svg>
