<svg width="24" height="24" viewBox="0 0 24 24" fill="none" xmlns="http://www.w3.org/2000/svg">
<path fill-rule="evenodd" clip-rule="evenodd" d="M19 17C17.3431 17 16 18.3431 16 20C16 21.6569 17.3431 23 19 23C20.6569 23 22 21.6569 22 20C22 18.3431 20.6569 17 19 17Z" fill="#0F1621"/>
<path fill-rule="evenodd" clip-rule="evenodd" d="M14 5H10V7H14V5Z" fill="#0F1621"/>
<path fill-rule="evenodd" clip-rule="evenodd" d="M20 11H18V15H20V11Z" fill="#0F1621"/>
<path fill-rule="evenodd" clip-rule="evenodd" d="M6 11H4V15H6V11Z" fill="#0F1621"/>
<path fill-rule="evenodd" clip-rule="evenodd" d="M18 5H16V7H18V9H20V7C20 5.89543 19.1046 5 18 5Z" fill="#0F1621"/>
<path fill-rule="evenodd" clip-rule="evenodd" d="M6 17H4V19C4 20.1046 4.89543 21 6 21H8V19H6V17Z" fill="#0F1621"/>
<path fill-rule="evenodd" clip-rule="evenodd" d="M10 19V21H14V19H10Z" fill="#0F1621"/>
<path fill-rule="evenodd" clip-rule="evenodd" d="M2 6C2 4.34315 3.34315 3 5 3C6.65685 3 8 4.34315 8 6C8 7.65685 6.65685 9 5 9C3.34315 9 2 7.65685 2 6ZM5 7C5.55228 7 6 6.55228 6 6C6 5.44772 5.55228 5 5 5C4.44772 5 4 5.44772 4 6C4 6.55228 4.44772 7 5 7Z" fill="#0F1621"/>
</svg>
