<svg width="24" height="24" viewBox="0 0 24 24" fill="none" xmlns="http://www.w3.org/2000/svg">
<path d="M17.25 16C18.4797 14.9305 19.3534 13.511 19.7543 11.9314C20.1551 10.3518 20.064 8.68742 19.4931 7.16102C18.9221 5.63462 17.8987 4.31898 16.5596 3.39016C15.2205 2.46133 13.6297 1.96362 12 1.96362C10.3704 1.96362 8.77956 2.46133 7.44048 3.39016C6.10141 4.31898 5.07794 5.63462 4.50702 7.16102C3.9361 8.68742 3.84497 10.3518 4.24582 11.9314C4.64667 13.511 5.52038 14.9305 6.75004 16C5.95439 16.0331 5.2045 16.381 4.66533 16.967C4.12617 17.5531 3.84189 18.3293 3.87504 19.125C3.90819 19.9206 4.25606 20.6705 4.84211 21.2097C5.42816 21.7488 6.20439 22.0331 7.00004 22H17C17.7957 22.0278 18.5698 21.7385 19.1521 21.1955C19.7344 20.6526 20.0772 19.9006 20.105 19.105C20.1329 18.3093 19.8435 17.5352 19.3006 16.9529C18.7577 16.3706 18.0057 16.0278 17.21 16H17.25ZM6.00004 9.99997C6.00004 8.81328 6.35194 7.65325 7.01122 6.66655C7.67051 5.67986 8.60759 4.91082 9.70394 4.45669C10.8003 4.00257 12.0067 3.88375 13.1706 4.11526C14.3345 4.34677 15.4036 4.91822 16.2427 5.75733C17.0818 6.59645 17.6532 7.66554 17.8848 8.82943C18.1163 9.99332 17.9974 11.1997 17.5433 12.2961C17.0892 13.3924 16.3202 14.3295 15.3335 14.9888C14.3468 15.6481 13.1867 16 12 16C10.4087 16 8.88262 15.3678 7.7574 14.2426C6.63218 13.1174 6.00004 11.5913 6.00004 9.99997V9.99997ZM17 20H7.00004C6.73483 20 6.48047 19.8946 6.29294 19.7071C6.1054 19.5195 6.00004 19.2652 6.00004 19C6.00004 18.7348 6.1054 18.4804 6.29294 18.2929C6.48047 18.1053 6.73483 18 7.00004 18H17C17.2653 18 17.5196 18.1053 17.7071 18.2929C17.8947 18.4804 18 18.7348 18 19C18 19.2652 17.8947 19.5195 17.7071 19.7071C17.5196 19.8946 17.2653 20 17 20ZM9.54004 8.99997C9.33972 9.00532 9.14036 8.97047 8.95373 8.89748C8.7671 8.82449 8.59698 8.71485 8.45343 8.57503C8.30988 8.4352 8.1958 8.26803 8.11793 8.08339C8.04005 7.89874 7.99997 7.70037 8.00004 7.49997C8.00004 7.10215 8.15808 6.72062 8.43938 6.43931C8.72069 6.15801 9.10222 5.99997 9.50004 5.99997C9.89787 5.99997 10.2794 6.15801 10.5607 6.43931C10.842 6.72062 11 7.10215 11 7.49997V7.49997C10.9928 7.8887 10.8379 8.26011 10.5667 8.53872C10.2955 8.81733 9.92844 8.98225 9.54004 8.99997ZM12 15C11.6022 15 11.2207 14.8419 10.9394 14.5606C10.6581 14.2793 10.5 13.8978 10.5 13.5C10.5 13.1021 10.6581 12.7206 10.9394 12.4393C11.2207 12.158 11.6022 12 12 12C12.3979 12 12.7794 12.158 13.0607 12.4393C13.342 12.7206 13.5 13.1021 13.5 13.5C13.4949 13.8962 13.3352 14.2747 13.055 14.5549C12.7748 14.8351 12.3963 14.9948 12 15V15ZM8.00004 12C7.73483 12 7.48047 11.8946 7.29294 11.7071C7.1054 11.5195 7.00004 11.2652 7.00004 11C7.00004 10.7348 7.1054 10.4804 7.29294 10.2929C7.48047 10.1053 7.73483 9.99997 8.00004 9.99997C8.26526 9.99997 8.51961 10.1053 8.70715 10.2929C8.89469 10.4804 9.00004 10.7348 9.00004 11V11C9.00004 11.2652 8.89469 11.5195 8.70715 11.7071C8.51961 11.8946 8.26526 12 8.00004 12ZM16 12C15.7348 12 15.4805 11.8946 15.2929 11.7071C15.1054 11.5195 15 11.2652 15 11C15 10.7348 15.1054 10.4804 15.2929 10.2929C15.4805 10.1053 15.7348 9.99997 16 9.99997C16.2653 9.99997 16.5196 10.1053 16.7071 10.2929C16.8947 10.4804 17 10.7348 17 11V11C17 11.2652 16.8947 11.5195 16.7071 11.7071C16.5196 11.8946 16.2653 12 16 12ZM14.5 8.99997C14.1022 8.99997 13.7207 8.84194 13.4394 8.56063C13.1581 8.27933 13 7.8978 13 7.49997C13 7.10215 13.1581 6.72062 13.4394 6.43931C13.7207 6.15801 14.1022 5.99997 14.5 5.99997C14.8979 5.99997 15.2794 6.15801 15.5607 6.43931C15.842 6.72062 16 7.10215 16 7.49997V7.49997C15.9928 7.8887 15.8379 8.26011 15.5667 8.53872C15.2955 8.81733 14.9284 8.98225 14.54 8.99997H14.5Z" fill="#0F1621"/>
</svg>
