<svg width="24" height="24" viewBox="0 0 24 24" fill="none" xmlns="http://www.w3.org/2000/svg">
<path d="M12 2C10.0222 2 8.08879 2.58649 6.4443 3.6853C4.79981 4.78412 3.51809 6.3459 2.76121 8.17317C2.00433 10.0004 1.8063 12.0111 2.19215 13.9509C2.578 15.8907 3.53041 17.6725 4.92894 19.0711C6.32746 20.4696 8.10929 21.422 10.0491 21.8079C11.9889 22.1937 13.9996 21.9957 15.8268 21.2388C17.6541 20.4819 19.2159 19.2002 20.3147 17.5557C21.4135 15.9112 22 13.9778 22 12C22 9.34784 20.9464 6.8043 19.0711 4.92893C17.1957 3.05357 14.6522 2 12 2V2ZM6 14C5.60444 14 5.21776 13.8827 4.88886 13.6629C4.55997 13.4432 4.30362 13.1308 4.15225 12.7654C4.00087 12.3999 3.96126 11.9978 4.03843 11.6098C4.1156 11.2219 4.30609 10.8655 4.58579 10.5858C4.8655 10.3061 5.22186 10.1156 5.60982 10.0384C5.99779 9.96126 6.39992 10.0009 6.76537 10.1522C7.13082 10.3036 7.44318 10.56 7.66294 10.8889C7.88271 11.2178 8 11.6044 8 12C8 12.5304 7.78929 13.0391 7.41422 13.4142C7.03915 13.7893 6.53044 14 6 14ZM12 20C11.6044 20 11.2178 19.8827 10.8889 19.6629C10.56 19.4432 10.3036 19.1308 10.1522 18.7654C10.0009 18.3999 9.96126 17.9978 10.0384 17.6098C10.1156 17.2219 10.3061 16.8655 10.5858 16.5858C10.8655 16.3061 11.2219 16.1156 11.6098 16.0384C11.9978 15.9613 12.3999 16.0009 12.7654 16.1522C13.1308 16.3036 13.4432 16.56 13.6629 16.8889C13.8827 17.2178 14 17.6044 14 18C14 18.5304 13.7893 19.0391 13.4142 19.4142C13.0391 19.7893 12.5304 20 12 20ZM12 14C11.6044 14 11.2178 13.8827 10.8889 13.6629C10.56 13.4432 10.3036 13.1308 10.1522 12.7654C10.0009 12.3999 9.96126 11.9978 10.0384 11.6098C10.1156 11.2219 10.3061 10.8655 10.5858 10.5858C10.8655 10.3061 11.2219 10.1156 11.6098 10.0384C11.9978 9.96126 12.3999 10.0009 12.7654 10.1522C13.1308 10.3036 13.4432 10.56 13.6629 10.8889C13.8827 11.2178 14 11.6044 14 12C14 12.5304 13.7893 13.0391 13.4142 13.4142C13.0391 13.7893 12.5304 14 12 14ZM12 8C11.6044 8 11.2178 7.8827 10.8889 7.66294C10.56 7.44318 10.3036 7.13082 10.1522 6.76537C10.0009 6.39991 9.96126 5.99778 10.0384 5.60982C10.1156 5.22186 10.3061 4.86549 10.5858 4.58579C10.8655 4.30608 11.2219 4.1156 11.6098 4.03843C11.9978 3.96126 12.3999 4.00087 12.7654 4.15224C13.1308 4.30362 13.4432 4.55996 13.6629 4.88886C13.8827 5.21776 14 5.60444 14 6C14 6.53043 13.7893 7.03914 13.4142 7.41421C13.0391 7.78929 12.5304 8 12 8ZM17 11C16.6044 11 16.2178 10.8827 15.8889 10.6629C15.56 10.4432 15.3036 10.1308 15.1522 9.76537C15.0009 9.39991 14.9613 8.99778 15.0384 8.60982C15.1156 8.22186 15.3061 7.86549 15.5858 7.58579C15.8655 7.30608 16.2219 7.1156 16.6098 7.03843C16.9978 6.96126 17.3999 7.00087 17.7654 7.15224C18.1308 7.30362 18.4432 7.55996 18.6629 7.88886C18.8827 8.21776 19 8.60444 19 9C19 9.53043 18.7893 10.0391 18.4142 10.4142C18.0391 10.7893 17.5304 11 17 11Z" fill="#0F1621"/>
</svg>
