<svg width="24" height="24" viewBox="0 0 24 24" fill="none" xmlns="http://www.w3.org/2000/svg">
<path fill-rule="evenodd" clip-rule="evenodd" d="M13 1.99219C16.2693 2.31796 19.0737 4.22469 20.6475 6.9375V11H21.5459C21.7966 11.0002 21.9998 11.2034 22 11.4541V12.5459C21.9998 12.7966 21.7966 12.9998 21.5459 13H20.6475V17.0049C19.0738 19.7178 16.2693 21.6233 13 21.9492V20.4541C12.9998 20.2033 12.7958 20 12.5449 20H11.4541C11.2035 20.0003 11.0002 20.2035 11 20.4541V21.9492C7.78397 21.6288 5.0161 19.7809 3.42871 17.1387V13H2.4541C2.20341 12.9998 2.00024 12.7966 2 12.5459V11.4541C2.00024 11.2034 2.20341 11.0002 2.4541 11H3.42871V6.80371C5.01614 4.16157 7.78397 2.31249 11 1.99219V3.5459C11.0002 3.79654 11.2035 3.9997 11.4541 4H12.5449C12.7958 4 12.9998 3.79673 13 3.5459V1.99219ZM7.5 10.5C6.67169 10.5001 6.00001 11.1717 6 12C6 12.8283 6.67169 13.4999 7.5 13.5C8.3284 13.5 9 12.8284 9 12C8.99999 11.1716 8.32839 10.5 7.5 10.5ZM16.5 10.5C15.6717 10.5001 15 11.1717 15 12C15 12.8283 15.6717 13.4999 16.5 13.5C17.3284 13.5 18 12.8284 18 12C18 11.1716 17.3284 10.5 16.5 10.5Z" fill="#092732"/>
</svg>
