<svg width="24" height="24" viewBox="0 0 24 24" fill="none" xmlns="http://www.w3.org/2000/svg">
<path d="M12 4C13.5823 4 15.129 4.46919 16.4446 5.34824C17.7602 6.22729 18.7855 7.47672 19.391 8.93853C19.9965 10.4003 20.155 12.0089 19.8463 13.5607C19.5376 15.1126 18.7757 16.538 17.6569 17.6569C16.538 18.7757 15.1126 19.5376 13.5607 19.8463C12.0089 20.155 10.4003 19.9965 8.93854 19.391C7.47673 18.7855 6.2273 17.7602 5.34825 16.4446C4.4692 15.129 4 13.5823 4 12C4 9.87827 4.84286 7.84344 6.34315 6.34315C7.84344 4.84285 9.87827 4 12 4V4ZM12 2C10.0222 2 8.08879 2.58649 6.4443 3.6853C4.79981 4.78412 3.51809 6.3459 2.76121 8.17317C2.00433 10.0004 1.8063 12.0111 2.19215 13.9509C2.578 15.8907 3.53041 17.6725 4.92894 19.0711C6.32746 20.4696 8.10929 21.422 10.0491 21.8079C11.9889 22.1937 13.9996 21.9957 15.8268 21.2388C17.6541 20.4819 19.2159 19.2002 20.3147 17.5557C21.4135 15.9112 22 13.9778 22 12C22 9.34784 20.9464 6.8043 19.0711 4.92893C17.1957 3.05357 14.6522 2 12 2V2ZM8.5 11C8.69779 11 8.89113 11.0586 9.05557 11.1685C9.22002 11.2784 9.3482 11.4346 9.42388 11.6173C9.49957 11.8 9.51937 12.0011 9.48079 12.1951C9.4422 12.3891 9.34696 12.5673 9.20711 12.7071C9.06726 12.847 8.88908 12.9422 8.69509 12.9808C8.50111 13.0194 8.30005 12.9996 8.11732 12.9239C7.93459 12.8482 7.77842 12.72 7.66853 12.5556C7.55865 12.3911 7.5 12.1978 7.5 12C7.5 11.7348 7.60536 11.4804 7.7929 11.2929C7.98043 11.1054 8.23479 11 8.5 11ZM8.5 9.5C8.00555 9.5 7.5222 9.64662 7.11108 9.92133C6.69996 10.196 6.37952 10.5865 6.19031 11.0433C6.00109 11.5001 5.95158 12.0028 6.04804 12.4877C6.1445 12.9727 6.38261 13.4181 6.73224 13.7678C7.08187 14.1174 7.52733 14.3555 8.01228 14.452C8.49723 14.5484 8.9999 14.4989 9.45671 14.3097C9.91353 14.1205 10.304 13.8 10.5787 13.3889C10.8534 12.9778 11 12.4945 11 12C11 11.337 10.7366 10.7011 10.2678 10.2322C9.79893 9.76339 9.16305 9.5 8.5 9.5ZM15.5 11C15.6978 11 15.8911 11.0586 16.0556 11.1685C16.22 11.2784 16.3482 11.4346 16.4239 11.6173C16.4996 11.8 16.5194 12.0011 16.4808 12.1951C16.4422 12.3891 16.347 12.5673 16.2071 12.7071C16.0673 12.847 15.8891 12.9422 15.6951 12.9808C15.5011 13.0194 15.3 12.9996 15.1173 12.9239C14.9346 12.8482 14.7784 12.72 14.6685 12.5556C14.5587 12.3911 14.5 12.1978 14.5 12C14.5 11.7348 14.6054 11.4804 14.7929 11.2929C14.9804 11.1054 15.2348 11 15.5 11V11ZM15.5 9.5C15.0056 9.5 14.5222 9.64662 14.1111 9.92133C13.7 10.196 13.3795 10.5865 13.1903 11.0433C13.0011 11.5001 12.9516 12.0028 13.048 12.4877C13.1445 12.9727 13.3826 13.4181 13.7322 13.7678C14.0819 14.1174 14.5273 14.3555 15.0123 14.452C15.4972 14.5484 15.9999 14.4989 16.4567 14.3097C16.9135 14.1205 17.304 13.8 17.5787 13.3889C17.8534 12.9778 18 12.4945 18 12C18 11.337 17.7366 10.7011 17.2678 10.2322C16.7989 9.76339 16.163 9.5 15.5 9.5ZM14.3 6.26L13.24 5.2L12 6.44L10.76 5.2L9.7 6.26L10.94 7.5L9.7 8.74L10.76 9.8L12 8.56L13.24 9.8L14.3 8.74L13.06 7.5L14.3 6.26ZM13.24 14.2L12 15.44L10.76 14.2L9.7 15.26L10.94 16.5L9.7 17.74L10.76 18.8L12 17.56L13.24 18.8L14.3 17.74L13.06 16.5L14.3 15.26L13.24 14.2Z" fill="#0F1621"/>
</svg>
