<svg width="24" height="24" viewBox="0 0 24 24" fill="none" xmlns="http://www.w3.org/2000/svg">
<path d="M12 4C13.5823 4 15.129 4.46919 16.4446 5.34824C17.7602 6.22729 18.7855 7.47672 19.391 8.93853C19.9965 10.4003 20.155 12.0089 19.8463 13.5607C19.5376 15.1126 18.7757 16.538 17.6569 17.6569C16.538 18.7757 15.1126 19.5376 13.5607 19.8463C12.0089 20.155 10.4003 19.9965 8.93854 19.391C7.47673 18.7855 6.2273 17.7602 5.34825 16.4446C4.4692 15.129 4 13.5823 4 12C4 9.87827 4.84286 7.84344 6.34315 6.34315C7.84344 4.84285 9.87827 4 12 4V4ZM12 2C10.0222 2 8.08879 2.58649 6.4443 3.6853C4.79981 4.78412 3.51809 6.3459 2.76121 8.17317C2.00433 10.0004 1.8063 12.0111 2.19215 13.9509C2.578 15.8907 3.53041 17.6725 4.92894 19.0711C6.32746 20.4696 8.10929 21.422 10.0491 21.8079C11.9889 22.1937 13.9996 21.9957 15.8268 21.2388C17.6541 20.4819 19.2159 19.2002 20.3147 17.5557C21.4135 15.9112 22 13.9778 22 12C22 9.34784 20.9464 6.8043 19.0711 4.92893C17.1957 3.05357 14.6522 2 12 2V2ZM12 9C12.3956 9 12.7822 8.8827 13.1111 8.66294C13.44 8.44318 13.6964 8.13082 13.8478 7.76537C13.9991 7.39991 14.0387 6.99778 13.9616 6.60982C13.8844 6.22186 13.6939 5.86549 13.4142 5.58579C13.1345 5.30608 12.7781 5.1156 12.3902 5.03843C12.0022 4.96126 11.6001 5.00087 11.2346 5.15224C10.8692 5.30362 10.5568 5.55996 10.3371 5.88886C10.1173 6.21776 10 6.60444 10 7C10 7.53043 10.2107 8.03914 10.5858 8.41421C10.9609 8.78929 11.4696 9 12 9ZM12 14C12.3956 14 12.7822 13.8827 13.1111 13.6629C13.44 13.4432 13.6964 13.1308 13.8478 12.7654C13.9991 12.3999 14.0387 11.9978 13.9616 11.6098C13.8844 11.2219 13.6939 10.8655 13.4142 10.5858C13.1345 10.3061 12.7781 10.1156 12.3902 10.0384C12.0022 9.96126 11.6001 10.0009 11.2346 10.1522C10.8692 10.3036 10.5568 10.56 10.3371 10.8889C10.1173 11.2178 10 11.6044 10 12C10 12.5304 10.2107 13.0391 10.5858 13.4142C10.9609 13.7893 11.4696 14 12 14ZM16 12C16.3956 12 16.7822 11.8827 17.1111 11.6629C17.44 11.4432 17.6964 11.1308 17.8478 10.7654C17.9991 10.3999 18.0387 9.99778 17.9616 9.60982C17.8844 9.22186 17.6939 8.86549 17.4142 8.58579C17.1345 8.30608 16.7781 8.1156 16.3902 8.03843C16.0022 7.96126 15.6001 8.00087 15.2346 8.15224C14.8692 8.30362 14.5568 8.55996 14.3371 8.88886C14.1173 9.21776 14 9.60444 14 10C14 10.5304 14.2107 11.0391 14.5858 11.4142C14.9609 11.7893 15.4696 12 16 12ZM7 14C7.39557 14 7.78225 13.8827 8.11114 13.6629C8.44004 13.4432 8.69639 13.1308 8.84776 12.7654C8.99914 12.3999 9.03875 11.9978 8.96158 11.6098C8.8844 11.2219 8.69392 10.8655 8.41422 10.5858C8.13451 10.3061 7.77815 10.1156 7.39018 10.0384C7.00222 9.96126 6.60009 10.0009 6.23464 10.1522C5.86919 10.3036 5.55683 10.56 5.33707 10.8889C5.1173 11.2178 5 11.6044 5 12C5 12.5304 5.21072 13.0391 5.58579 13.4142C5.96086 13.7893 6.46957 14 7 14ZM12 19C12.3956 19 12.7822 18.8827 13.1111 18.6629C13.44 18.4432 13.6964 18.1308 13.8478 17.7654C13.9991 17.3999 14.0387 16.9978 13.9616 16.6098C13.8844 16.2219 13.6939 15.8655 13.4142 15.5858C13.1345 15.3061 12.7781 15.1156 12.3902 15.0384C12.0022 14.9613 11.6001 15.0009 11.2346 15.1522C10.8692 15.3036 10.5568 15.56 10.3371 15.8889C10.1173 16.2178 10 16.6044 10 17C10 17.5304 10.2107 18.0391 10.5858 18.4142C10.9609 18.7893 11.4696 19 12 19Z" fill="#0F1621"/>
</svg>
