<svg width="24" height="24" viewBox="0 0 24 24" fill="none" xmlns="http://www.w3.org/2000/svg">
<path d="M20 4H4C3.04929 5.26762 2.41341 6.74301 2.14477 8.30459C1.87613 9.86617 1.98241 11.4692 2.45487 12.9817C2.92732 14.4941 3.75241 15.8726 4.86215 17.0037C5.9719 18.1347 7.33452 18.9858 8.83772 19.4868C10.3409 19.9879 11.9417 20.1246 13.5081 19.8856C15.0745 19.6467 16.5617 19.0389 17.8471 18.1124C19.1325 17.1859 20.1794 15.9673 20.9014 14.5568C21.6235 13.1464 22 11.5845 22 10C22.0051 7.83548 21.3028 5.72857 20 4V4ZM15.5 5C15.7967 5 16.0867 5.08797 16.3334 5.2528C16.58 5.41762 16.7723 5.65189 16.8858 5.92597C16.9994 6.20006 17.0291 6.50166 16.9712 6.79264C16.9133 7.08361 16.7704 7.35088 16.5607 7.56066C16.3509 7.77044 16.0836 7.9133 15.7926 7.97118C15.5017 8.02906 15.2001 7.99935 14.926 7.88582C14.6519 7.77229 14.4176 7.58003 14.2528 7.33336C14.088 7.08668 14 6.79667 14 6.5C14 6.10218 14.158 5.72064 14.4393 5.43934C14.7206 5.15804 15.1022 5 15.5 5ZM8.5 5C8.79667 5 9.08668 5.08797 9.33336 5.2528C9.58003 5.41762 9.77229 5.65189 9.88582 5.92597C9.99935 6.20006 10.0291 6.50166 9.97118 6.79264C9.9133 7.08361 9.77044 7.35088 9.56066 7.56066C9.35088 7.77044 9.08361 7.9133 8.79264 7.97118C8.50166 8.02906 8.20006 7.99935 7.92598 7.88582C7.65189 7.77229 7.41762 7.58003 7.2528 7.33336C7.08797 7.08668 7 6.79667 7 6.5C7 6.10218 7.15804 5.72064 7.43934 5.43934C7.72065 5.15804 8.10218 5 8.5 5V5ZM4 11C4 10.6044 4.1173 10.2178 4.33706 9.88886C4.55682 9.55996 4.86918 9.30362 5.23463 9.15224C5.60009 9.00087 6.00222 8.96126 6.39018 9.03843C6.77814 9.1156 7.13451 9.30608 7.41421 9.58579C7.69392 9.86549 7.8844 10.2219 7.96157 10.6098C8.03874 10.9978 7.99914 11.3999 7.84776 11.7654C7.69638 12.1308 7.44004 12.4432 7.11114 12.6629C6.78224 12.8827 6.39556 13 6 13C5.46957 13 4.96086 12.7893 4.58579 12.4142C4.21071 12.0391 4 11.5304 4 11ZM9 18C8.60444 18 8.21776 17.8827 7.88886 17.6629C7.55996 17.4432 7.30362 17.1308 7.15224 16.7654C7.00087 16.3999 6.96126 15.9978 7.03843 15.6098C7.1156 15.2219 7.30608 14.8655 7.58579 14.5858C7.86549 14.3061 8.22186 14.1156 8.60982 14.0384C8.99778 13.9613 9.39992 14.0009 9.76537 14.1522C10.1308 14.3036 10.4432 14.56 10.6629 14.8889C10.8827 15.2178 11 15.6044 11 16C11 16.5304 10.7893 17.0391 10.4142 17.4142C10.0391 17.7893 9.53043 18 9 18ZM10 11C10 10.6044 10.1173 10.2178 10.3371 9.88886C10.5568 9.55996 10.8692 9.30362 11.2346 9.15224C11.6001 9.00087 12.0022 8.96126 12.3902 9.03843C12.7781 9.1156 13.1345 9.30608 13.4142 9.58579C13.6939 9.86549 13.8844 10.2219 13.9616 10.6098C14.0387 10.9978 13.9991 11.3999 13.8478 11.7654C13.6964 12.1308 13.44 12.4432 13.1111 12.6629C12.7822 12.8827 12.3956 13 12 13C11.4696 13 10.9609 12.7893 10.5858 12.4142C10.2107 12.0391 10 11.5304 10 11ZM15 18C14.6044 18 14.2178 17.8827 13.8889 17.6629C13.56 17.4432 13.3036 17.1308 13.1522 16.7654C13.0009 16.3999 12.9613 15.9978 13.0384 15.6098C13.1156 15.2219 13.3061 14.8655 13.5858 14.5858C13.8655 14.3061 14.2219 14.1156 14.6098 14.0384C14.9978 13.9613 15.3999 14.0009 15.7654 14.1522C16.1308 14.3036 16.4432 14.56 16.6629 14.8889C16.8827 15.2178 17 15.6044 17 16C17 16.5304 16.7893 17.0391 16.4142 17.4142C16.0391 17.7893 15.5304 18 15 18ZM18 13C17.6044 13 17.2178 12.8827 16.8889 12.6629C16.56 12.4432 16.3036 12.1308 16.1522 11.7654C16.0009 11.3999 15.9613 10.9978 16.0384 10.6098C16.1156 10.2219 16.3061 9.86549 16.5858 9.58579C16.8655 9.30608 17.2219 9.1156 17.6098 9.03843C17.9978 8.96126 18.3999 9.00087 18.7654 9.15224C19.1308 9.30362 19.4432 9.55996 19.6629 9.88886C19.8827 10.2178 20 10.6044 20 11C20 11.5304 19.7893 12.0391 19.4142 12.4142C19.0391 12.7893 18.5304 13 18 13V13Z" fill="#0F1621"/>
</svg>
