<svg width="16" height="16" viewBox="0 0 16 16" fill="none" xmlns="http://www.w3.org/2000/svg">
<path d="M8.00002 11C9.59131 11 11.1174 10.3679 12.2427 9.24264C13.3679 8.11742 14 6.5913 14 5C14.0034 3.52129 13.4541 2.09469 12.46 1L3.54002 1C2.54591 2.09469 1.99667 3.52129 2.00002 5C2.00002 6.5913 2.63216 8.11742 3.75737 9.24264C4.88259 10.3679 6.40872 11 8.00002 11V11ZM12 4C12.1978 4 12.3911 4.05865 12.5556 4.16853C12.72 4.27841 12.8482 4.43459 12.9239 4.61732C12.9996 4.80004 13.0194 5.00111 12.9808 5.19509C12.9422 5.38907 12.847 5.56725 12.7071 5.70711C12.5673 5.84696 12.3891 5.9422 12.1951 5.98079C12.0011 6.01937 11.8001 5.99957 11.6173 5.92388C11.4346 5.84819 11.2784 5.72002 11.1685 5.55557C11.0587 5.39112 11 5.19778 11 5C11 4.73478 11.1054 4.48043 11.2929 4.29289C11.4804 4.10536 11.7348 4 12 4V4ZM10 2H11V3H10V2ZM10 7C10.1978 7 10.3911 7.05865 10.5556 7.16853C10.72 7.27841 10.8482 7.43459 10.9239 7.61732C10.9996 7.80004 11.0194 8.00111 10.9808 8.19509C10.9422 8.38907 10.847 8.56725 10.7071 8.70711C10.5673 8.84696 10.3891 8.9422 10.1951 8.98079C10.0011 9.01937 9.80006 8.99957 9.61733 8.92388C9.43461 8.84819 9.27843 8.72002 9.16855 8.55557C9.05866 8.39112 9.00002 8.19778 9.00002 8C9.00002 7.73478 9.10537 7.48043 9.29291 7.29289C9.48045 7.10536 9.7348 7 10 7V7ZM8.00002 4C8.1978 4 8.39114 4.05865 8.55559 4.16853C8.72003 4.27841 8.84821 4.43459 8.92389 4.61732C8.99958 4.80004 9.01939 5.00111 8.9808 5.19509C8.94222 5.38907 8.84697 5.56725 8.70712 5.70711C8.56727 5.84696 8.38909 5.9422 8.19511 5.98079C8.00112 6.01937 7.80006 5.99957 7.61733 5.92388C7.43461 5.84819 7.27843 5.72002 7.16855 5.55557C7.05866 5.39112 7.00002 5.19778 7.00002 5C7.00002 4.73478 7.10537 4.48043 7.29291 4.29289C7.48045 4.10536 7.7348 4 8.00002 4ZM7.00002 8C7.00002 8.19778 6.94137 8.39112 6.83148 8.55557C6.7216 8.72002 6.56542 8.84819 6.3827 8.92388C6.19997 8.99957 5.99891 9.01937 5.80492 8.98079C5.61094 8.9422 5.43276 8.84696 5.29291 8.70711C5.15306 8.56725 5.05782 8.38907 5.01923 8.19509C4.98064 8.00111 5.00045 7.80004 5.07614 7.61732C5.15182 7.43459 5.28 7.27841 5.44445 7.16853C5.60889 7.05865 5.80223 7 6.00002 7C6.26523 7 6.51959 7.10536 6.70712 7.29289C6.89466 7.48043 7.00002 7.73478 7.00002 8ZM5.00002 2H6.00002V3H5.00002V2ZM3.00002 5C3.00002 4.80222 3.05866 4.60888 3.16855 4.44443C3.27843 4.27998 3.43461 4.15181 3.61733 4.07612C3.80006 4.00043 4.00112 3.98063 4.19511 4.01921C4.38909 4.0578 4.56727 4.15304 4.70712 4.29289C4.84697 4.43275 4.94222 4.61093 4.9808 4.80491C5.01939 4.99889 4.99958 5.19996 4.92389 5.38268C4.84821 5.56541 4.72003 5.72159 4.55559 5.83147C4.39114 5.94135 4.1978 6 4.00002 6C3.7348 6 3.48044 5.89464 3.29291 5.70711C3.10537 5.51957 3.00002 5.26522 3.00002 5ZM14 13.5C14 13.8978 13.842 14.2794 13.5607 14.5607C13.2794 14.842 12.8978 15 12.5 15H3.50002C3.10219 15 2.72066 14.842 2.43936 14.5607C2.15805 14.2794 2.00002 13.8978 2.00002 13.5C2.00002 13.1022 2.15805 12.7206 2.43936 12.4393C2.72066 12.158 3.10219 12 3.50002 12H12.5C12.8978 12 13.2794 12.158 13.5607 12.4393C13.842 12.7206 14 13.1022 14 13.5V13.5Z" fill="#0F1621"/>
</svg>
