<svg width="16" height="16" viewBox="0 0 16 16" fill="none" xmlns="http://www.w3.org/2000/svg">
<path d="M8 1C6.61553 1 5.26216 1.41054 4.11101 2.17971C2.95987 2.94888 2.06266 4.04213 1.53285 5.32122C1.00303 6.6003 0.86441 8.00777 1.13451 9.36563C1.4046 10.7235 2.07129 11.9708 3.05026 12.9497C4.02922 13.9287 5.2765 14.5954 6.63437 14.8655C7.99224 15.1356 9.3997 14.997 10.6788 14.4672C11.9579 13.9373 13.0511 13.0401 13.8203 11.889C14.5895 10.7378 15 9.38447 15 8C15 6.14348 14.2625 4.36301 12.9497 3.05025C11.637 1.7375 9.85652 1 8 1V1ZM4.5 10C4.20333 10 3.91332 9.91203 3.66665 9.7472C3.41997 9.58238 3.22772 9.34811 3.11418 9.07403C3.00065 8.79994 2.97095 8.49834 3.02883 8.20736C3.0867 7.91639 3.22956 7.64912 3.43934 7.43934C3.64912 7.22956 3.9164 7.0867 4.20737 7.02882C4.49834 6.97094 4.79994 7.00065 5.07403 7.11418C5.34812 7.22771 5.58239 7.41997 5.74721 7.66664C5.91203 7.91332 6 8.20333 6 8.5C6 8.89782 5.84197 9.27936 5.56066 9.56066C5.27936 9.84196 4.89783 10 4.5 10ZM8 5C7.80222 5 7.60888 4.94135 7.44443 4.83147C7.27998 4.72159 7.15181 4.56541 7.07612 4.38268C7.00044 4.19996 6.98063 3.99889 7.01922 3.80491C7.0578 3.61093 7.15304 3.43275 7.2929 3.29289C7.43275 3.15304 7.61093 3.0578 7.80491 3.01921C7.99889 2.98063 8.19996 3.00043 8.38269 3.07612C8.56541 3.15181 8.72159 3.27998 8.83147 3.44443C8.94135 3.60888 9 3.80222 9 4C9 4.26522 8.89465 4.51957 8.70711 4.70711C8.51957 4.89464 8.26522 5 8 5ZM11.5 10C11.2033 10 10.9133 9.91203 10.6666 9.7472C10.42 9.58238 10.2277 9.34811 10.1142 9.07403C10.0007 8.79994 9.97095 8.49834 10.0288 8.20736C10.0867 7.91639 10.2296 7.64912 10.4393 7.43934C10.6491 7.22956 10.9164 7.0867 11.2074 7.02882C11.4983 6.97094 11.7999 7.00065 12.074 7.11418C12.3481 7.22771 12.5824 7.41997 12.7472 7.66664C12.912 7.91332 13 8.20333 13 8.5C13 8.89782 12.842 9.27936 12.5607 9.56066C12.2794 9.84196 11.8978 10 11.5 10Z" fill="#0F1621"/>
</svg>
