<svg width="24" height="24" viewBox="0 0 24 24" fill="none" xmlns="http://www.w3.org/2000/svg">
<path d="M6.5 11C7.32843 11 8 10.3284 8 9.5C8 8.67157 7.32843 8 6.5 8C5.67157 8 5 8.67157 5 9.5C5 10.3284 5.67157 11 6.5 11Z" fill="#020204"/>
<path d="M12 15.5C12.5523 15.5 13 15.0523 13 14.5C13 13.9477 12.5523 13.5 12 13.5C11.4477 13.5 11 13.9477 11 14.5C11 15.0523 11.4477 15.5 12 15.5Z" fill="#020204"/>
<path d="M17.5 11C18.3284 11 19 10.3284 19 9.5C19 8.67157 18.3284 8 17.5 8C16.6716 8 16 8.67157 16 9.5C16 10.3284 16.6716 11 17.5 11Z" fill="#020204"/>
<path fill-rule="evenodd" clip-rule="evenodd" d="M17.2793 5C19.84 5 21.9244 7.03927 21.998 9.58203H22V15.5869H21.998C21.9573 17.2033 20.6352 18.502 19.0088 18.502L14.3535 18.6504L13.8564 19H10.1436L9.64648 18.6504L4.99121 18.502C3.36484 18.502 2.04275 17.2033 2.00195 15.5869H2V9.58203H2.00195C2.07561 7.03877 4.16052 5 6.7207 5C7.90858 5.00008 8.99348 5.43884 9.82324 6.16309H14.1768C15.0065 5.43884 16.0914 5.00008 17.2793 5ZM6.08887 15.2197C5.43157 14.4448 3.88596 14.5956 3.71582 15.9229C3.59234 17.2454 5.04602 17.7326 5.86035 17.1396L6.1416 17.1709C6.80692 17.9268 8.33137 17.7689 8.5 16.4512C8.62483 15.1189 7.14882 14.6341 6.33789 15.2471L6.08887 15.2197ZM20.2842 15.9229C20.114 14.5956 18.5684 14.4448 17.9111 15.2197L17.6621 15.2471C16.8512 14.6341 15.3752 15.1189 15.5 16.4512C15.6686 17.7689 17.1931 17.9268 17.8584 17.1709L18.1396 17.1396C18.954 17.7326 20.4077 17.2454 20.2842 15.9229ZM12 12C10.6193 12 9.5 13.1193 9.5 14.5C9.5 15.8807 10.6193 17 12 17C13.3807 17 14.5 15.8807 14.5 14.5C14.5 13.1193 13.3807 12 12 12ZM6.59961 6C4.66678 6.0002 3.09961 7.56713 3.09961 9.5C3.09961 11.4329 4.66678 12.9998 6.59961 13C8.53261 13 10.0996 11.433 10.0996 9.5C10.0996 7.567 8.53261 6 6.59961 6ZM17.4004 6C15.4674 6 13.9004 7.567 13.9004 9.5C13.9004 11.433 15.4674 13 17.4004 13C19.3332 12.9998 20.9004 11.4329 20.9004 9.5C20.9004 7.56714 19.3332 6.00022 17.4004 6Z" fill="#020204"/>
</svg>
