<svg width="24" height="24" viewBox="0 0 24 24" fill="none" xmlns="http://www.w3.org/2000/svg">
<path d="M18.49 7L19.92 12L18.49 17H5.49L4.08 12L5.51 7H18.51H18.49ZM20 5H4L2 12L4 19H20L22 12L20 5ZM7.5 9C7.20333 9 6.91332 9.08797 6.66664 9.2528C6.41997 9.41762 6.22771 9.65189 6.11418 9.92597C6.00065 10.2001 5.97094 10.5017 6.02882 10.7926C6.0867 11.0836 6.22956 11.3509 6.43934 11.5607C6.64912 11.7704 6.91639 11.9133 7.20736 11.9712C7.49834 12.0291 7.79994 11.9994 8.07403 11.8858C8.34811 11.7723 8.58238 11.58 8.7472 11.3334C8.91203 11.0867 9 10.7967 9 10.5C9 10.1022 8.84196 9.72064 8.56066 9.43934C8.27936 9.15804 7.89782 9 7.5 9ZM16.5 9C16.2033 9 15.9133 9.08797 15.6666 9.2528C15.42 9.41762 15.2277 9.65189 15.1142 9.92597C15.0006 10.2001 14.9709 10.5017 15.0288 10.7926C15.0867 11.0836 15.2296 11.3509 15.4393 11.5607C15.6491 11.7704 15.9164 11.9133 16.2074 11.9712C16.4983 12.0291 16.7999 11.9994 17.074 11.8858C17.3481 11.7723 17.5824 11.58 17.7472 11.3334C17.912 11.0867 18 10.7967 18 10.5C18 10.1022 17.842 9.72064 17.5607 9.43934C17.2794 9.15804 16.8978 9 16.5 9ZM12 12.5C11.7033 12.5 11.4133 12.588 11.1666 12.7528C10.92 12.9176 10.7277 13.1519 10.6142 13.426C10.5006 13.7001 10.4709 14.0017 10.5288 14.2926C10.5867 14.5836 10.7296 14.8509 10.9393 15.0607C11.1491 15.2704 11.4164 15.4133 11.7074 15.4712C11.9983 15.5291 12.2999 15.4994 12.574 15.3858C12.8481 15.2723 13.0824 15.08 13.2472 14.8334C13.412 14.5867 13.5 14.2967 13.5 14C13.5 13.6022 13.342 13.2206 13.0607 12.9393C12.7794 12.658 12.3978 12.5 12 12.5Z" fill="#0F1621"/>
</svg>
