<svg width="24" height="24" viewBox="0 0 24 24" fill="none" xmlns="http://www.w3.org/2000/svg">
<path fill-rule="evenodd" clip-rule="evenodd" d="M16.5098 3C19.542 3.00026 21.9999 5.50089 22 8.58594C22 9.89562 21.5563 11.0996 20.8145 12.0518L20.8125 12.0566L15.1318 19.3789C14.4268 20.3612 13.2708 21 12 21C10.7291 21 9.60156 20.3776 8.89453 19.416L3.2041 12.0762L3.20215 12.0732C2.45027 11.1177 2 9.90515 2 8.58594C2.00014 5.50089 4.45795 3.00026 7.49023 3H16.5098ZM12 15C10.7574 15 9.75 16.0074 9.75 17.25C9.75 18.4926 10.7574 19.5 12 19.5C13.2426 19.5 14.25 18.4926 14.25 17.25C14.25 16.0074 13.2426 15 12 15ZM8.5 13C7.80964 13 7.25 13.5596 7.25 14.25C7.25 14.9404 7.80964 15.5 8.5 15.5C9.19036 15.5 9.75 14.9404 9.75 14.25C9.75 13.5596 9.19036 13 8.5 13ZM15.5 13C14.8096 13 14.25 13.5596 14.25 14.25C14.25 14.9404 14.8096 15.5 15.5 15.5C16.1904 15.5 16.75 14.9404 16.75 14.25C16.75 13.5596 16.1904 13 15.5 13ZM11.3291 11.4404V11.4424C10.6684 11.4691 10.1408 12.0125 10.1406 12.6797C10.1406 13.347 10.6683 13.8893 11.3291 13.916V13.9199L12.6201 13.9189C13.3045 13.9188 13.8594 13.364 13.8594 12.6797C13.8592 12.0384 13.3716 11.5109 12.7471 11.4473L12.6201 11.4404H11.3291ZM7.5 5C5.567 5 4 6.567 4 8.5C4 10.433 5.567 12 7.5 12C9.433 12 11 10.433 11 8.5C11 6.567 9.433 5 7.5 5ZM16.5 5C14.567 5 13 6.567 13 8.5C13 10.433 14.567 12 16.5 12C18.433 12 20 10.433 20 8.5C20 6.567 18.433 5 16.5 5Z" fill="#020204"/>
<path d="M12 18.25C12.5523 18.25 13 17.8023 13 17.25C13 16.6977 12.5523 16.25 12 16.25C11.4477 16.25 11 16.6977 11 17.25C11 17.8023 11.4477 18.25 12 18.25Z" fill="black"/>
<path d="M16.5 10C17.3284 10 18 9.32843 18 8.5C18 7.67157 17.3284 7 16.5 7C15.6716 7 15 7.67157 15 8.5C15 9.32843 15.6716 10 16.5 10Z" fill="black"/>
<path d="M7.5 10C8.32843 10 9 9.32843 9 8.5C9 7.67157 8.32843 7 7.5 7C6.67157 7 6 7.67157 6 8.5C6 9.32843 6.67157 10 7.5 10Z" fill="black"/>
</svg>
