<svg width="24" height="24" viewBox="0 0 24 24" fill="none" xmlns="http://www.w3.org/2000/svg">
<path d="M12 2C10.0222 2 8.08879 2.58649 6.4443 3.6853C4.79981 4.78412 3.51809 6.3459 2.76121 8.17317C2.00433 10.0004 1.8063 12.0111 2.19215 13.9509C2.578 15.8907 3.53041 17.6725 4.92894 19.0711C6.32746 20.4696 8.10929 21.422 10.0491 21.8079C11.9889 22.1937 13.9996 21.9957 15.8268 21.2388C17.6541 20.4819 19.2159 19.2002 20.3147 17.5557C21.4135 15.9112 22 13.9778 22 12C22 9.34784 20.9464 6.8043 19.0711 4.92893C17.1957 3.05357 14.6522 2 12 2V2ZM7 14C6.60444 14 6.21776 13.8827 5.88886 13.6629C5.55997 13.4432 5.30362 13.1308 5.15225 12.7654C5.00087 12.3999 4.96126 11.9978 5.03843 11.6098C5.1156 11.2219 5.30609 10.8655 5.58579 10.5858C5.8655 10.3061 6.22186 10.1156 6.60982 10.0384C6.99779 9.96126 7.39992 10.0009 7.76537 10.1522C8.13082 10.3036 8.44318 10.56 8.66294 10.8889C8.88271 11.2178 9 11.6044 9 12C9 12.5304 8.78929 13.0391 8.41422 13.4142C8.03915 13.7893 7.53044 14 7 14ZM17 14C16.6044 14 16.2178 13.8827 15.8889 13.6629C15.56 13.4432 15.3036 13.1308 15.1522 12.7654C15.0009 12.3999 14.9613 11.9978 15.0384 11.6098C15.1156 11.2219 15.3061 10.8655 15.5858 10.5858C15.8655 10.3061 16.2219 10.1156 16.6098 10.0384C16.9978 9.96126 17.3999 10.0009 17.7654 10.1522C18.1308 10.3036 18.4432 10.56 18.6629 10.8889C18.8827 11.2178 19 11.6044 19 12C19 12.5304 18.7893 13.0391 18.4142 13.4142C18.0391 13.7893 17.5304 14 17 14Z" fill="#0F1621"/>
</svg>
