<svg width="16" height="16" viewBox="0 0 16 16" fill="none" xmlns="http://www.w3.org/2000/svg">
<path d="M13.6 3H2.4L1 8L2.4 13H13.6L15 8L13.6 3ZM4.5 8C4.20333 8 3.91332 7.91203 3.66664 7.7472C3.41997 7.58238 3.22771 7.34811 3.11418 7.07403C3.00065 6.79994 2.97094 6.49834 3.02882 6.20736C3.0867 5.91639 3.22956 5.64912 3.43934 5.43934C3.64912 5.22956 3.91639 5.0867 4.20736 5.02882C4.49834 4.97094 4.79994 5.00065 5.07403 5.11418C5.34811 5.22771 5.58238 5.41997 5.7472 5.66664C5.91203 5.91332 6 6.20333 6 6.5C6 6.89782 5.84196 7.27936 5.56066 7.56066C5.27936 7.84196 4.89782 8 4.5 8V8ZM8 12C7.70333 12 7.41332 11.912 7.16664 11.7472C6.91997 11.5824 6.72771 11.3481 6.61418 11.074C6.50065 10.7999 6.47094 10.4983 6.52882 10.2074C6.5867 9.91639 6.72956 9.64912 6.93934 9.43934C7.14912 9.22956 7.41639 9.0867 7.70736 9.02882C7.99834 8.97094 8.29994 9.00065 8.57403 9.11418C8.84811 9.22771 9.08238 9.41997 9.2472 9.66664C9.41203 9.91332 9.5 10.2033 9.5 10.5C9.5 10.8978 9.34196 11.2794 9.06066 11.5607C8.77936 11.842 8.39782 12 8 12V12ZM11.5 8C11.2033 8 10.9133 7.91203 10.6666 7.7472C10.42 7.58238 10.2277 7.34811 10.1142 7.07403C10.0006 6.79994 9.97094 6.49834 10.0288 6.20736C10.0867 5.91639 10.2296 5.64912 10.4393 5.43934C10.6491 5.22956 10.9164 5.0867 11.2074 5.02882C11.4983 4.97094 11.7999 5.00065 12.074 5.11418C12.3481 5.22771 12.5824 5.41997 12.7472 5.66664C12.912 5.91332 13 6.20333 13 6.5C13 6.89782 12.842 7.27936 12.5607 7.56066C12.2794 7.84196 11.8978 8 11.5 8V8Z" fill="#0F1621"/>
</svg>
