<svg width="24" height="24" viewBox="0 0 24 24" fill="none" xmlns="http://www.w3.org/2000/svg">
<path d="M12.0002 1.99951C17.5229 1.99964 22 6.47691 22.0002 11.9995C22.0002 17.5223 17.523 21.9994 12.0002 21.9995C6.4774 21.9995 2.00024 17.5224 2.00024 11.9995C2.00044 6.47683 6.47752 1.99951 12.0002 1.99951ZM11.3577 15.0005C11.1605 15.0005 11.0003 15.1608 11.0002 15.3579V17.644C11.0007 17.8409 11.1607 18.0005 11.3577 18.0005H12.6438C12.8405 18.0002 12.9998 17.8407 13.0002 17.644V15.3579C13.0001 15.1609 12.8407 15.0008 12.6438 15.0005H11.3577ZM6.90649 11.0972C6.77744 10.9682 6.56782 10.9673 6.43872 11.0962L5.59595 11.939C5.46733 12.0681 5.46808 12.2778 5.59692 12.4067L7.09399 13.9038C7.22299 14.0324 7.43176 14.0323 7.56079 13.9038L8.40356 13.061C8.53233 12.932 8.53222 12.7233 8.40356 12.5942L6.90649 11.0972ZM17.5608 11.0962C17.4317 10.9676 17.223 10.9684 17.094 11.0972L15.5969 12.5942C15.4681 12.7233 15.4682 12.9319 15.5969 13.061L16.4387 13.9028C16.5678 14.0319 16.7773 14.0327 16.9065 13.9038L18.4036 12.4067C18.5323 12.2777 18.5322 12.0681 18.4036 11.939L17.5608 11.0962Z" fill="#092732"/>
</svg>
