<svg width="16" height="16" viewBox="0 0 16 16" fill="none" xmlns="http://www.w3.org/2000/svg">
<path d="M4.25 7.25C4.80228 7.25 5.25 6.80228 5.25 6.25C5.25 5.69772 4.80228 5.25 4.25 5.25C3.69772 5.25 3.25 5.69772 3.25 6.25C3.25 6.80228 3.69772 7.25 4.25 7.25Z" fill="#020204"/>
<path d="M8 10.5C8.41421 10.5 8.75 10.1642 8.75 9.75C8.75 9.33579 8.41421 9 8 9C7.58579 9 7.25 9.33579 7.25 9.75C7.25 10.1642 7.58579 10.5 8 10.5Z" fill="#020204"/>
<path d="M11.75 7.25C12.3023 7.25 12.75 6.80228 12.75 6.25C12.75 5.69772 12.3023 5.25 11.75 5.25C11.1977 5.25 10.75 5.69772 10.75 6.25C10.75 6.80228 11.1977 7.25 11.75 7.25Z" fill="#020204"/>
<path fill-rule="evenodd" clip-rule="evenodd" d="M11.6953 3C13.4877 3 14.9473 4.42728 14.999 6.20703L15 10.6113C14.9712 11.7426 14.0446 12.6514 12.9062 12.6514L9.64746 12.7559L9.2998 13H6.7002L6.35254 12.7559L3.09375 12.6514C1.95542 12.6514 1.02973 11.7426 1.00098 10.6113L1 6.20703C1.05176 4.42693 2.51269 3 4.30469 3C5.13617 3.0001 5.89576 3.30747 6.47656 3.81445H9.52344C10.1042 3.30747 10.8638 3.0001 11.6953 3ZM14 10.5742C13.8806 9.64547 12.7988 9.54051 12.3389 10.083L12.1641 10.1025C11.5964 9.67348 10.564 10.0127 10.6514 10.9453C10.7697 11.8674 11.8372 11.9775 12.3027 11.4482L12.499 11.4268C13.0691 11.8419 14.0867 11.5002 14 10.5742ZM3.66602 10.0791C3.20599 9.53664 2.12418 9.64147 2.00488 10.5703C1.91818 11.4962 2.93572 11.8378 3.50586 11.4229L3.70312 11.4443C4.16877 11.9736 5.23644 11.8629 5.35449 10.9404C5.44151 10.0083 4.40843 9.6689 3.84082 10.0977L3.66602 10.0791ZM8 8C7.0335 8 6.25 8.7835 6.25 9.75C6.25 10.7165 7.0335 11.5 8 11.5C8.9665 11.5 9.75 10.7165 9.75 9.75C9.75 8.7835 8.9665 8 8 8ZM4.25 3.75C2.86929 3.75 1.75 4.86929 1.75 6.25C1.75 7.63071 2.86929 8.75 4.25 8.75C5.63071 8.75 6.75 7.63071 6.75 6.25C6.75 4.86929 5.63071 3.75 4.25 3.75ZM11.75 3.75C10.3693 3.75002 9.25 4.8693 9.25 6.25C9.25 7.6307 10.3693 8.74998 11.75 8.75C13.1307 8.75 14.25 7.63071 14.25 6.25C14.25 4.86929 13.1307 3.75 11.75 3.75Z" fill="#020204"/>
</svg>
