<svg width="16" height="16" viewBox="0 0 16 16" fill="none" xmlns="http://www.w3.org/2000/svg">
<path d="M8.00005 1C6.50168 1.00868 5.06077 1.57769 3.96075 2.59512C2.86073 3.61254 2.18121 5.00474 2.05584 6.49789C1.93047 7.99103 2.36833 9.47705 3.28329 10.6637C4.19826 11.8503 5.5241 12.6516 7.00005 12.91V13C7.00005 13.2652 7.10541 13.5196 7.29294 13.7071C7.48048 13.8946 7.73483 14 8.00005 14C8.26527 14 8.51962 13.8946 8.70716 13.7071C8.89469 13.5196 9.00005 13.2652 9.00005 13V12.91C10.476 12.6516 11.8018 11.8503 12.7168 10.6637C13.6318 9.47705 14.0696 7.99103 13.9443 6.49789C13.8189 5.00474 13.1394 3.61254 12.0393 2.59512C10.9393 1.57769 9.49842 1.00868 8.00005 1V1ZM5.00005 6C4.80227 6 4.60893 5.94135 4.44448 5.83147C4.28003 5.72159 4.15186 5.56541 4.07617 5.38268C4.00048 5.19996 3.98068 4.99889 4.01926 4.80491C4.05785 4.61093 4.15309 4.43275 4.29294 4.29289C4.4328 4.15304 4.61098 4.0578 4.80496 4.01921C4.99894 3.98063 5.20001 4.00043 5.38273 4.07612C5.56546 4.15181 5.72164 4.27998 5.83152 4.44443C5.9414 4.60888 6.00005 4.80222 6.00005 5C6.00005 5.26522 5.89469 5.51957 5.70716 5.70711C5.51962 5.89464 5.26527 6 5.00005 6ZM8.00005 11C7.70338 11 7.41337 10.912 7.16669 10.7472C6.92002 10.5824 6.72776 10.3481 6.61423 10.074C6.5007 9.79994 6.47099 9.49834 6.52887 9.20736C6.58675 8.91639 6.72961 8.64912 6.93939 8.43934C7.14917 8.22956 7.41644 8.0867 7.70741 8.02882C7.99839 7.97094 8.29999 8.00065 8.57408 8.11418C8.84816 8.22771 9.08243 8.41997 9.24725 8.66664C9.41208 8.91332 9.50005 9.20333 9.50005 9.5C9.50005 9.89782 9.34201 10.2794 9.06071 10.5607C8.77941 10.842 8.39787 11 8.00005 11ZM11.0001 6C10.8023 6 10.6089 5.94135 10.4445 5.83147C10.28 5.72159 10.1519 5.56541 10.0762 5.38268C10.0005 5.19996 9.98068 4.99889 10.0193 4.80491C10.0578 4.61093 10.1531 4.43275 10.2929 4.29289C10.4328 4.15304 10.611 4.0578 10.805 4.01921C10.9989 3.98063 11.2 4.00043 11.3827 4.07612C11.5655 4.15181 11.7216 4.27998 11.8315 4.44443C11.9414 4.60888 12.0001 4.80222 12.0001 5C12.0001 5.26522 11.8947 5.51957 11.7072 5.70711C11.5196 5.89464 11.2653 6 11.0001 6Z" fill="#0F1621"/>
</svg>
