<svg width="16" height="16" viewBox="0 0 16 16" fill="none" xmlns="http://www.w3.org/2000/svg">
<path fill-rule="evenodd" clip-rule="evenodd" d="M11.1562 1.5C13.279 1.5 14.9998 3.30602 15 5.53418C15 6.48003 14.6892 7.34948 14.1699 8.03711L14.1689 8.04102L10.1924 13.3291C9.69884 14.0386 8.88965 14.5 8 14.5C7.11043 14.5 6.3211 14.0508 5.82617 13.3564L1.84277 8.05469L1.8418 8.05273C1.31548 7.36263 1 6.48695 1 5.53418C1.00016 3.30602 2.72104 1.5 4.84375 1.5H11.1562ZM8 10.25C7.13041 10.2502 6.42589 10.9556 6.42578 11.8252C6.426 12.6947 7.13048 13.4002 8 13.4004C8.86954 13.4002 9.57498 12.6947 9.5752 11.8252C9.57509 10.9556 8.8696 10.2502 8 10.25ZM5.55078 8.84277C5.06753 8.84277 4.67578 9.23452 4.67578 9.71777C4.67626 10.2006 5.06783 10.5928 5.55078 10.5928C6.03355 10.5926 6.4253 10.2005 6.42578 9.71777C6.42578 9.23465 6.03385 8.84298 5.55078 8.84277ZM10.4512 8.84277C9.96792 8.84277 9.57617 9.23452 9.57617 9.71777C9.57665 10.2006 9.96822 10.5928 10.4512 10.5928C10.9337 10.5923 11.3257 10.2003 11.3262 9.71777C11.3262 9.23482 10.934 8.84325 10.4512 8.84277ZM7.53125 7.75195C7.06878 7.77066 6.69937 8.15114 6.69922 8.61816C6.69953 9.08503 7.0689 9.46467 7.53125 9.4834V9.48633L8.43457 9.48535C8.91322 9.48506 9.30144 9.09681 9.30176 8.61816C9.30161 8.16939 8.96042 7.79965 8.52344 7.75488L8.43457 7.75098L7.53125 7.75195ZM4.85059 2.90039C3.49749 2.90039 2.40039 3.99749 2.40039 5.35059C2.40071 6.70341 3.49769 7.80078 4.85059 7.80078C6.20321 7.80046 7.30046 6.70321 7.30078 5.35059C7.30078 3.99768 6.20341 2.90071 4.85059 2.90039ZM11.1504 2.90039C9.79729 2.90039 8.7002 3.99749 8.7002 5.35059C8.70052 6.70341 9.79749 7.80078 11.1504 7.80078C12.5031 7.80056 13.6003 6.70327 13.6006 5.35059C13.6006 3.99763 12.5033 2.90062 11.1504 2.90039Z" fill="#020204"/>
<path d="M8.00005 12.525C8.38665 12.525 8.70005 12.2116 8.70005 11.825C8.70005 11.4384 8.38665 11.125 8.00005 11.125C7.61345 11.125 7.30005 11.4384 7.30005 11.825C7.30005 12.2116 7.61345 12.525 8.00005 12.525Z" fill="black"/>
<path d="M11.15 6.39999C11.7299 6.39999 12.2 5.92989 12.2 5.34999C12.2 4.77009 11.7299 4.29999 11.15 4.29999C10.5701 4.29999 10.1 4.77009 10.1 5.34999C10.1 5.92989 10.5701 6.39999 11.15 6.39999Z" fill="black"/>
<path d="M4.85005 6.39999C5.42995 6.39999 5.90005 5.92989 5.90005 5.34999C5.90005 4.77009 5.42995 4.29999 4.85005 4.29999C4.27015 4.29999 3.80005 4.77009 3.80005 5.34999C3.80005 5.92989 4.27015 6.39999 4.85005 6.39999Z" fill="black"/>
</svg>
