<svg width="24" height="24" viewBox="0 0 24 24" fill="none" xmlns="http://www.w3.org/2000/svg">
<path d="M18.9706 2L20.3848 3.41421L3.41421 20.3848L2 18.9706L18.9706 2Z" fill="#0E1520"/>
<path d="M8.61096 18H16.9706C18.0314 18 19.0488 17.5786 19.799 16.8284C20.5491 16.0783 20.9706 15.0609 20.9706 14V11C20.9733 9.76588 20.7222 8.54438 20.2329 7.41141C20.1304 7.17416 20.0179 6.94186 19.8959 6.71508L8.61096 18ZM17.9706 13V15H13.9706V13H17.9706Z" fill="#0E1520"/>
<path d="M14.9992 2.50489C15.1528 2.55975 15.3046 2.6187 15.4545 2.68166L13.903 4.23315C13.2965 4.0834 12.6464 4.00001 11.9706 4.00001C8.66056 4.00001 5.97056 6 5.97056 8C5.97056 8.51578 7.30069 9.03156 8.72606 9.41013L3.10559 15.0306C3.01669 14.6972 2.97056 14.351 2.97056 14V11.31C2.93631 8.98426 3.78333 6.73169 5.34149 5.00472C6.89965 3.27776 9.05355 2.20432 11.3706 2C12.6019 1.91773 13.8371 2.08958 14.9992 2.50489Z" fill="#0E1520"/>
<path d="M17.9706 20V22H5.97056V20H17.9706Z" fill="#0E1520"/>
</svg>
