<svg width="16" height="16" viewBox="0 0 16 16" fill="none" xmlns="http://www.w3.org/2000/svg">
<path d="M13.0182 1.29553L14.4324 2.70975L2.41421 14.7279L1 13.3137L13.0182 1.29553Z" fill="#0F1621"/>
<path d="M10.5861 1.6221C9.7878 1.23071 8.90591 1.01475 7.99999 1H7.59999C6.03218 1.1656 4.58458 1.91667 3.54642 3.10313C2.50827 4.28959 1.95601 5.82408 1.99999 7.4V8C1.99999 8.6261 2.14678 9.23707 2.42129 9.78689L3.99999 8.20819V8H4.20818L6.25627 5.95191L4.23999 4.74C4.59052 4.11381 5.08921 3.58309 5.69241 3.19432C6.29561 2.80556 6.98492 2.57059 7.69999 2.51H7.99999C8.49424 2.51391 8.9824 2.6001 9.44494 2.76324L10.5861 1.6221Z" fill="#0F1621"/>
<path d="M7.58121 6.74829L7.99999 7L11.81 4.72C11.545 4.26516 11.2025 3.86266 10.7997 3.52976L11.8658 2.46369C12.0095 2.58662 12.148 2.71667 12.2807 2.85359C12.618 3.20156 12.9098 3.5854 13.1523 3.99588L5.22413 11.9241C4.5275 11.7863 3.87646 11.4647 3.34111 10.9884L5.3295 9H5.99999V8.32951L7.58121 6.74829Z" fill="#0F1621"/>
<path d="M3.99999 13H4.14818L3.99999 13.1482V13Z" fill="#0F1621"/>
<path d="M6.26951 13L4.26951 15H12V13H6.26951Z" fill="#0F1621"/>
<path d="M10.2695 9L7.26951 12H9.99999C11.0609 12 12.0783 11.5786 12.8284 10.8284C13.5786 10.0783 14 9.06087 14 8V7.19C14.0086 6.60941 13.9344 6.03612 13.7835 5.486L11.2695 8H12V9H10.2695Z" fill="#0F1621"/>
</svg>
