<svg width="16" height="16" viewBox="0 0 16 16" fill="none" xmlns="http://www.w3.org/2000/svg">
<path d="M12 15H4V13H12V15ZM14 4V10C14 10.5304 13.7893 11.0391 13.4142 11.4142C13.0391 11.7893 12.5304 12 12 12H4C3.46957 12 2.96086 11.7893 2.58579 11.4142C2.21071 11.0391 2 10.5304 2 10V4C2 3.20435 2.31607 2.44129 2.87868 1.87868C3.44129 1.31607 4.20435 1 5 1H11C11.7956 1 12.5587 1.31607 13.1213 1.87868C13.6839 2.44129 14 3.20435 14 4ZM6 8H4V9H6V8ZM12 8H10V9H12V8ZM12 6V3H4V6H12Z" fill="#0F1621"/>
</svg>
