<svg width="16" height="16" viewBox="0 0 16 16" fill="none" xmlns="http://www.w3.org/2000/svg">
<path d="M8 1H7.6C6.03219 1.1656 4.58459 1.91667 3.54643 3.10313C2.50828 4.28959 1.95602 5.82408 2 7.4V8C2 9.06087 2.42142 10.0783 3.17157 10.8284C3.92172 11.5786 4.93913 12 6 12H10C11.0609 12 12.0783 11.5786 12.8284 10.8284C13.5786 10.0783 14 9.06087 14 8V7.19C14.0241 5.57383 13.4057 4.01419 12.2807 2.85359C11.1557 1.69298 9.61613 1.02632 8 1ZM6 9H4V8H6V9ZM4.24 4.74C4.59053 4.11381 5.08922 3.58309 5.69242 3.19432C6.29562 2.80556 6.98493 2.57059 7.7 2.51H8C8.77223 2.51611 9.52959 2.72308 10.1976 3.11056C10.8656 3.49804 11.4213 4.0527 11.81 4.72L8 7L4.24 4.74ZM12 9H10V8H12V9ZM4 13H12V15H4V13Z" fill="#0F1621"/>
</svg>
