<svg width="24" height="24" viewBox="0 0 24 24" fill="none" xmlns="http://www.w3.org/2000/svg">
<path d="M19 2L20.4142 3.41421L3.44366 20.3848L2.02945 18.9706L19 2Z" fill="#0F1621"/>
<path d="M18.7664 5.04562C18.5735 4.82573 18.3697 4.61495 18.1555 4.41415C17.8825 4.1582 17.5944 3.9201 17.2931 3.70099L15.9395 5.05459C16.5615 5.43221 17.0709 5.88838 17.4276 6.3844L18.7664 5.04562Z" fill="#0F1621"/>
<path d="M14.1373 9.6747C13.1919 9.87723 12.3504 10 12 10C11.8149 10 11.4927 9.96574 11.0905 9.90354L7.99405 13H10V13.812L14.1373 9.6747Z" fill="#0F1621"/>
<path d="M8.81199 15H6V14.9941L4.1686 16.8255L4.17158 16.8284C4.66916 17.326 5.28433 17.679 5.95177 17.8602L8.81199 15Z" fill="#0F1621"/>
<path fill-rule="evenodd" clip-rule="evenodd" d="M8.64041 18H17C18.0609 18 19.0783 17.5786 19.8284 16.8284C20.5786 16.0783 21 15.0609 21 14V11C21.0028 9.76588 20.7516 8.54438 20.2623 7.41141C20.1598 7.17416 20.0474 6.94186 19.9253 6.71508L8.64041 18ZM18 13H14V15H18V13Z" fill="#0F1621"/>
<path d="M15.0287 2.50489C15.1822 2.55975 15.334 2.6187 15.484 2.68166L13.9325 4.23315C13.3259 4.0834 12.6759 4.00001 12 4.00001C8.69 4.00001 6 6 6 8C6 8.51578 7.33014 9.03156 8.75551 9.41013L3.13504 15.0306C3.04613 14.6972 3 14.351 3 14V11.31C2.96576 8.98426 3.81278 6.73169 5.37094 5.00472C6.9291 3.27776 9.083 2.20432 11.4 2C12.6314 1.91773 13.8665 2.08958 15.0287 2.50489Z" fill="#0F1621"/>
<path d="M18 20V22H6V20H18Z" fill="#0F1621"/>
</svg>
