<svg width="16" height="16" viewBox="0 0 16 16" fill="none" xmlns="http://www.w3.org/2000/svg">
<path d="M13.3 2.2998C13.3 1.6998 12.9 1.2998 12.3 1.2998H3.7C3.1 1.2998 2.7 1.6998 2.7 2.2998V11.2998H5.4L2 14.6998H4L7 11.3998H9L12 14.6998H14L10.7 11.3998H13.4V2.2998H13.3ZM4 2.6998H7.3V7.3998H4V2.6998ZM5 10.2998C4.4 10.2998 4 9.8998 4 9.2998C4 8.6998 4.4 8.2998 5 8.2998C5.6 8.2998 6 8.6998 6 9.2998C6 9.8998 5.6 10.2998 5 10.2998ZM12 9.2998C12 9.8998 11.6 10.2998 11 10.2998C10.4 10.2998 10 9.8998 10 9.2998C10 8.6998 10.4 8.2998 11 8.2998C11.6 8.2998 12 8.7998 12 9.2998ZM12 7.2998H8.7V2.59981H12V7.2998Z" fill="#0F1621"/>
</svg>
