<svg width="16" height="16" viewBox="0 0 16 16" fill="none" xmlns="http://www.w3.org/2000/svg">
<path d="M8.00049 1H7.60049C6.03267 1.1656 4.58507 1.91667 3.54692 3.10313C2.50876 4.28959 1.95651 5.82408 2.00049 7.4V8C2.00049 9.06087 2.42191 10.0783 3.17206 10.8284C3.9222 11.5786 4.93962 12 6.00049 12H10.0005C11.0614 12 12.0788 11.5786 12.8289 10.8284C13.5791 10.0783 14.0005 9.06087 14.0005 8V7.19C14.0245 5.57383 13.4062 4.01419 12.2812 2.85359C11.1562 1.69298 9.61662 1.02632 8.00049 1ZM6.00049 9H4.00049V8H6.00049V9ZM4.24049 4.74C4.59102 4.11381 5.08971 3.58309 5.69291 3.19432C6.29611 2.80556 6.98542 2.57059 7.70049 2.51H8.00049C8.77272 2.51611 9.53007 2.72308 10.1981 3.11056C10.8661 3.49804 11.4218 4.0527 11.8105 4.72L8.00049 7L4.24049 4.74ZM12.0005 9H10.0005V8H12.0005V9ZM4.00049 13H12.0005V15H4.00049V13Z" fill="#0F1621"/>
</svg>
