<svg width="24" height="24" viewBox="0 0 24 24" fill="none" xmlns="http://www.w3.org/2000/svg">
<path d="M18.9706 2L20.3848 3.41421L3.41421 20.3848L2 18.9706L18.9706 2Z" fill="#0E1520"/>
<path d="M10.611 16H16.9706C18.0706 16 18.9706 15.1 18.9706 14V11C18.9706 10.85 18.9456 10.675 18.9206 10.5C18.8956 10.325 18.8706 10.15 18.8706 10C17.9117 10.7762 16.4108 11.2606 15.0532 11.5577L19.8985 6.71242C20.5831 7.98444 20.9706 9.44378 20.9706 11V14C20.9706 16.2 19.1706 18 16.9706 18H8.61097L10.611 16Z" fill="#0E1520"/>
<path d="M11.9706 2C13.2061 2 14.3806 2.24425 15.4487 2.68747L13.9023 4.23391C13.2955 4.08368 12.6456 4 11.9706 4C8.67056 4 5.97056 6 5.97056 8C5.97056 8.51578 7.30069 9.03155 8.72606 9.41012L7.09495 11.0412C6.34083 10.7722 5.62851 10.4311 5.07056 10C4.97056 10.4 4.97056 10.9 4.97056 11.3V13.1656L3.10593 15.0303C3.01766 14.7013 2.97056 14.3559 2.97056 14V11.3C2.97056 6.5 6.57056 2.3 11.3706 2H11.9706Z" fill="#0E1520"/>
<path d="M5.97056 20V22H17.9706V20H5.97056Z" fill="#0E1520"/>
</svg>
