<svg width="16" height="16" viewBox="0 0 16 16" fill="none" xmlns="http://www.w3.org/2000/svg">
<path d="M13.0182 1.29553L14.4324 2.70975L2.41421 14.7279L1 13.3137L13.0182 1.29553Z" fill="#0E1520"/>
<path d="M10.5861 1.6221C9.7878 1.23071 8.90591 1.01475 7.99999 1H7.59999C6.03218 1.1656 4.58458 1.91667 3.54642 3.10313C2.50827 4.28959 1.95601 5.82408 1.99999 7.4V8C1.99999 8.6261 2.14678 9.23707 2.42129 9.78689L3.99999 8.20819V8H4.20818L6.25627 5.95191L4.23999 4.74C4.59052 4.11381 5.08921 3.58309 5.69241 3.19432C6.29561 2.80556 6.98492 2.57059 7.69999 2.51H7.99999C8.49424 2.51391 8.9824 2.6001 9.44494 2.76324L10.5861 1.6221Z" fill="#0E1520"/>
<path d="M6.26951 13L4.26951 15H12V13H6.26951Z" fill="#0E1520"/>
<path d="M10.2695 9L7.26951 12H9.99999C11.0609 12 12.0783 11.5786 12.8284 10.8284C13.5786 10.0783 14 9.06087 14 8V7.19C14.0086 6.60941 13.9344 6.03612 13.7835 5.486L11.2695 8H12V9H10.2695Z" fill="#0E1520"/>
</svg>
