<svg width="24" height="24" viewBox="0 0 24 24" fill="none" xmlns="http://www.w3.org/2000/svg">
<path d="M19 2L20.4142 3.41421L3.44363 20.3848L2.02942 18.9706L19 2Z" fill="#0F1621"/>
<path d="M18.768 5.04401C18.3281 4.54376 17.8331 4.09335 17.2921 3.70191L15.9379 5.05612C16.5597 5.43368 17.0695 5.88964 17.4266 6.38535L18.768 5.04401Z" fill="#0F1621"/>
<path d="M14.1373 9.6747C13.1919 9.87723 12.3504 10 12 10C11.8149 10 11.4927 9.96573 11.0905 9.90354L9.35336 11.6407C10.4781 11.8647 11.4397 11.9586 11.8235 11.9885L14.1373 9.6747Z" fill="#0F1621"/>
<path d="M10.6404 16H17C18.1 16 19 15.1 19 14V11C19 10.85 18.975 10.675 18.95 10.5C18.925 10.325 18.9 10.15 18.9 10C17.9411 10.7762 16.4402 11.2606 15.0827 11.5577L19.928 6.71242C20.6125 7.98444 21 9.44378 21 11V14C21 16.2 19.2 18 17 18H8.64039L10.6404 16Z" fill="#0F1621"/>
<path d="M7.81196 16H6.99998C6.44848 16 5.94724 15.7738 5.58451 15.4095L4.17201 16.822C4.65876 17.3098 5.26983 17.6734 5.9521 17.8599L7.81196 16Z" fill="#0F1621"/>
<path d="M12 2C13.2355 2 14.41 2.24425 15.4781 2.68747L13.9317 4.23391C13.3249 4.08368 12.675 4 12 4C8.69998 4 5.99998 6 5.99998 8C5.99998 8.51578 7.33011 9.03155 8.75548 9.41012L7.12437 11.0412C6.37025 10.7722 5.65793 10.4311 5.09998 10C4.99998 10.4 4.99998 10.9 4.99998 11.3V13.1656L3.13534 15.0303C3.04708 14.7013 2.99998 14.3559 2.99998 14V11.3C2.99998 6.5 6.59998 2.3 11.4 2H12Z" fill="#0F1621"/>
<path d="M5.99998 20V22H18V20H5.99998Z" fill="#0F1621"/>
</svg>
