<svg width="24" height="24" viewBox="0 0 24 24" fill="none" xmlns="http://www.w3.org/2000/svg">
<path d="M14.25 8.5C14.25 8.08579 13.9142 7.75 13.5 7.75H10.5C10.0858 7.75 9.75 8.08579 9.75 8.5V19.5C9.75 19.9142 10.0858 20.25 10.5 20.25H13.5C13.9142 20.25 14.25 19.9142 14.25 19.5V8.5ZM15.75 19.5C15.75 20.7426 14.7426 21.75 13.5 21.75H10.5C9.25736 21.75 8.25 20.7426 8.25 19.5V8.5C8.25 7.25736 9.25736 6.25 10.5 6.25H13.5C14.7426 6.25 15.75 7.25736 15.75 8.5V19.5Z" fill="#0F1621"/>
<path d="M6 9C6.55228 9 7 9.44772 7 10C7 10.5523 6.55228 11 6 11H5C4.44772 11 4 10.5523 4 10C4 9.44772 4.44772 9 5 9H6ZM19 9C19.5523 9 20 9.44772 20 10C20 10.5523 19.5523 11 19 11H18C17.4477 11 17 10.5523 17 10C17 9.44772 17.4477 9 18 9H19ZM5.29297 3.29297C5.65908 2.92685 6.23809 2.90426 6.63086 3.22461L6.70703 3.29297L7.70703 4.29297L7.77539 4.36914C8.09574 4.76191 8.07315 5.34092 7.70703 5.70703C7.34092 6.07315 6.76191 6.09574 6.36914 5.77539L6.29297 5.70703L5.29297 4.70703L5.22461 4.63086C4.90426 4.23809 4.92685 3.65908 5.29297 3.29297ZM17.293 3.29297C17.6835 2.90244 18.3165 2.90244 18.707 3.29297C19.0976 3.68349 19.0976 4.31651 18.707 4.70703L17.707 5.70703C17.3165 6.09756 16.6835 6.09756 16.293 5.70703C15.9024 5.31651 15.9024 4.68349 16.293 4.29297L17.293 3.29297ZM11 4V3C11 2.44772 11.4477 2 12 2C12.5523 2 13 2.44772 13 3V4C13 4.55228 12.5523 5 12 5C11.4477 5 11 4.55228 11 4Z" fill="#0F1621"/>
<path fill-rule="evenodd" clip-rule="evenodd" d="M12 16.5C12.8284 16.5 13.5 17.1716 13.5 18C13.5 18.8284 12.8284 19.5 12 19.5C11.1716 19.5 10.5 18.8284 10.5 18C10.5 17.1716 11.1716 16.5 12 16.5ZM12 17.25C11.5858 17.25 11.25 17.5858 11.25 18C11.25 18.4142 11.5858 18.75 12 18.75C12.4142 18.75 12.75 18.4142 12.75 18C12.75 17.5858 12.4142 17.25 12 17.25Z" fill="#0F1621"/>
<path fill-rule="evenodd" clip-rule="evenodd" d="M12 12.5C12.8284 12.5 13.5 13.1716 13.5 14C13.5 14.8284 12.8284 15.5 12 15.5C11.1716 15.5 10.5 14.8284 10.5 14C10.5 13.1716 11.1716 12.5 12 12.5ZM12 13.25C11.5858 13.25 11.25 13.5858 11.25 14C11.25 14.4142 11.5858 14.75 12 14.75C12.4142 14.75 12.75 14.4142 12.75 14C12.75 13.5858 12.4142 13.25 12 13.25Z" fill="#0F1621"/>
<path d="M12 8.5C12.8284 8.5 13.5 9.17157 13.5 10C13.5 10.8284 12.8284 11.5 12 11.5C11.1716 11.5 10.5 10.8284 10.5 10C10.5 9.17157 11.1716 8.5 12 8.5Z" fill="#0F1621"/>
</svg>
