<svg width="16" height="16" viewBox="0 0 16 16" fill="none" xmlns="http://www.w3.org/2000/svg">
<path d="M6.5 4C5.94772 4 5.5 4.44772 5.5 5V14C5.5 14.5523 5.94772 15 6.5 15H9.5C10.0523 15 10.5 14.5523 10.5 14V5C10.5 4.44772 10.0523 4 9.5 4H6.5ZM8 7.5C7.30964 7.5 6.75 6.94036 6.75 6.25C6.75 5.55964 7.30964 5 8 5C8.69036 5 9.25 5.55964 9.25 6.25C9.25 6.94036 8.69036 7.5 8 7.5ZM8 10.75C7.30964 10.75 6.75 10.1904 6.75 9.5C6.75 8.80964 7.30964 8.25 8 8.25C8.69036 8.25 9.25 8.80964 9.25 9.5C9.25 10.1904 8.69036 10.75 8 10.75ZM9.25 12.75C9.25 13.4404 8.69036 14 8 14C7.30964 14 6.75 13.4404 6.75 12.75C6.75 12.0596 7.30964 11.5 8 11.5C8.69036 11.5 9.25 12.0596 9.25 12.75Z" fill="#0E1520"/>
<path d="M8.75 6.25C8.75 6.66421 8.41421 7 8 7C7.58579 7 7.25 6.66421 7.25 6.25C7.25 5.83579 7.58579 5.5 8 5.5C8.41421 5.5 8.75 5.83579 8.75 6.25Z" fill="#0E1520"/>
<path d="M8 1C7.58579 1 7.25 1.33579 7.25 1.75V2.25C7.25 2.66421 7.58579 3 8 3C8.41421 3 8.75 2.66421 8.75 2.25V1.75C8.75 1.33579 8.41421 1 8 1Z" fill="#0E1520"/>
<path d="M12.7803 2.21967C13.0732 2.51256 13.0732 2.98744 12.7803 3.28033L12.2803 3.78033C11.9874 4.07322 11.5126 4.07322 11.2197 3.78033C10.9268 3.48744 10.9268 3.01256 11.2197 2.71967L11.7197 2.21967C12.0126 1.92678 12.4874 1.92678 12.7803 2.21967Z" fill="#0E1520"/>
<path d="M3.21967 2.21967C2.92678 2.51256 2.92678 2.98744 3.21967 3.28033L3.71967 3.78033C4.01256 4.07322 4.48744 4.07322 4.78033 3.78033C5.07322 3.48744 5.07322 3.01256 4.78033 2.71967L4.28033 2.21967C3.98744 1.92678 3.51256 1.92678 3.21967 2.21967Z" fill="#0E1520"/>
<path d="M4.5 6.25C4.5 5.83579 4.16421 5.5 3.75 5.5H3C2.58579 5.5 2.25 5.83579 2.25 6.25C2.25 6.66421 2.58579 7 3 7H3.75C4.16421 7 4.5 6.66421 4.5 6.25Z" fill="#0E1520"/>
<path d="M13.75 6.25C13.75 6.66421 13.4142 7 13 7H12.25C11.8358 7 11.5 6.66421 11.5 6.25C11.5 5.83579 11.8358 5.5 12.25 5.5H13C13.4142 5.5 13.75 5.83579 13.75 6.25Z" fill="#0E1520"/>
</svg>
