<svg width="24" height="24" viewBox="0 0 24 24" fill="none" xmlns="http://www.w3.org/2000/svg">
<path d="M14.5 7.5V20.5H9.5V7.5H14.5ZM9 6C8.44772 6 8 6.44772 8 7V21C8 21.5523 8.44772 22 9 22H15C15.5523 22 16 21.5523 16 21V7C16 6.44772 15.5523 6 15 6H9Z" fill="#0E1520"/>
<path d="M12 2C12.5523 2 13 2.44772 13 3V4C13 4.55228 12.5523 5 12 5C11.4477 5 11 4.55228 11 4V3C11 2.44772 11.4477 2 12 2ZM5.29289 3.29289C5.68342 2.90237 6.31658 2.90237 6.70711 3.29289L7.70711 4.29289C8.09763 4.68342 8.09763 5.31658 7.70711 5.70711C7.31658 6.09763 6.68342 6.09763 6.29289 5.70711L5.29289 4.70711C4.90237 4.31658 4.90237 3.68342 5.29289 3.29289ZM17.2929 3.29289C17.6834 2.90237 18.3166 2.90237 18.7071 3.29289C19.0976 3.68342 19.0976 4.31658 18.7071 4.70711L17.7071 5.70711C17.3166 6.09763 16.6834 6.09763 16.2929 5.70711C15.9024 5.31658 15.9024 4.68342 16.2929 4.29289L17.2929 3.29289ZM4 10C4 9.44772 4.44772 9 5 9H6C6.55228 9 7 9.44772 7 10C7 10.5523 6.55228 11 6 11H5C4.44772 11 4 10.5523 4 10ZM17 10C17 9.44772 17.4477 9 18 9H19C19.5523 9 20 9.44772 20 10C20 10.5523 19.5523 11 19 11H18C17.4477 11 17 10.5523 17 10Z" fill="#0E1520"/>
<path d="M13.5 10C13.5 10.8284 12.8284 11.5 12 11.5C11.1716 11.5 10.5 10.8284 10.5 10C10.5 9.17157 11.1716 8.5 12 8.5C12.8284 8.5 13.5 9.17157 13.5 10Z" fill="#0E1520"/>
<path d="M13.5 14C13.5 14.8284 12.8284 15.5 12 15.5C11.1716 15.5 10.5 14.8284 10.5 14C10.5 13.1716 11.1716 12.5 12 12.5C12.8284 12.5 13.5 13.1716 13.5 14ZM12 14.75C12.4143 14.75 12.75 14.4142 12.75 14C12.75 13.5858 12.4143 13.25 12 13.25C11.5858 13.25 11.25 13.5858 11.25 14C11.25 14.4142 11.5858 14.75 12 14.75Z" fill="#0E1520"/>
<path d="M12 19.5C12.8284 19.5 13.5 18.8284 13.5 18C13.5 17.1716 12.8284 16.5 12 16.5C11.1716 16.5 10.5 17.1716 10.5 18C10.5 18.8284 11.1716 19.5 12 19.5ZM12 18.75C11.5858 18.75 11.25 18.4142 11.25 18C11.25 17.5858 11.5858 17.25 12 17.25C12.4142 17.25 12.75 17.5858 12.75 18C12.75 18.4142 12.4142 18.75 12 18.75Z" fill="#0E1520"/>
</svg>
