<svg width="16" height="16" viewBox="0 0 16 16" fill="none" xmlns="http://www.w3.org/2000/svg">
<path d="M8 12C8.41421 12 8.75 12.3358 8.75 12.75C8.75 13.1642 8.41421 13.5 8 13.5C7.58579 13.5 7.25 13.1642 7.25 12.75C7.25 12.3358 7.58579 12 8 12Z" fill="#0F1621"/>
<path d="M8 8.75C8.41421 8.75 8.75 9.08579 8.75 9.5C8.75 9.91421 8.41421 10.25 8 10.25C7.58579 10.25 7.25 9.91421 7.25 9.5C7.25 9.08579 7.58579 8.75 8 8.75Z" fill="#0F1621"/>
<path fill-rule="evenodd" clip-rule="evenodd" d="M9.5 4C10.0523 4 10.5 4.44772 10.5 5V14C10.5 14.5523 10.0523 15 9.5 15H6.5C5.94772 15 5.5 14.5523 5.5 14V5C5.5 4.44772 5.94772 4 6.5 4H9.5ZM8 11.5C7.30964 11.5 6.75 12.0596 6.75 12.75C6.75 13.4404 7.30964 14 8 14C8.69036 14 9.25 13.4404 9.25 12.75C9.25 12.0596 8.69036 11.5 8 11.5ZM8 8.25C7.30964 8.25 6.75 8.80964 6.75 9.5C6.75 10.1904 7.30964 10.75 8 10.75C8.69036 10.75 9.25 10.1904 9.25 9.5C9.25 8.80964 8.69036 8.25 8 8.25ZM8 5C7.30964 5 6.75 5.55964 6.75 6.25C6.75 6.94036 7.30964 7.5 8 7.5C8.69036 7.5 9.25 6.94036 9.25 6.25C9.25 5.55964 8.69036 5 8 5Z" fill="#0F1621"/>
<path d="M3.75 5.5C4.16421 5.5 4.5 5.83579 4.5 6.25C4.5 6.66421 4.16421 7 3.75 7H3C2.58579 7 2.25 6.66421 2.25 6.25C2.25 5.83579 2.58579 5.5 3 5.5H3.75Z" fill="#0F1621"/>
<path d="M13 5.5C13.4142 5.5 13.75 5.83579 13.75 6.25C13.75 6.66421 13.4142 7 13 7H12.25C11.8358 7 11.5 6.66421 11.5 6.25C11.5 5.83579 11.8358 5.5 12.25 5.5H13Z" fill="#0F1621"/>
<path d="M3.21973 2.21973C3.51262 1.92683 3.98738 1.92683 4.28027 2.21973L4.78027 2.71973C5.07317 3.01262 5.07317 3.48738 4.78027 3.78027C4.48738 4.07317 4.01262 4.07317 3.71973 3.78027L3.21973 3.28027C2.92683 2.98738 2.92683 2.51262 3.21973 2.21973Z" fill="#0F1621"/>
<path d="M11.7197 2.21973C12.0126 1.92683 12.4874 1.92683 12.7803 2.21973C13.0732 2.51262 13.0732 2.98738 12.7803 3.28027L12.2803 3.78027C11.9874 4.07317 11.5126 4.07317 11.2197 3.78027C10.9268 3.48738 10.9268 3.01262 11.2197 2.71973L11.7197 2.21973Z" fill="#0F1621"/>
<path d="M8 1C8.41421 1 8.75 1.33579 8.75 1.75V2.25C8.75 2.66421 8.41421 3 8 3C7.58579 3 7.25 2.66421 7.25 2.25V1.75C7.25 1.33579 7.58579 1 8 1Z" fill="#0F1621"/>
</svg>
