<svg width="24" height="24" viewBox="0 0 24 24" fill="none" xmlns="http://www.w3.org/2000/svg">
<path d="M12 17.75C12.5523 17.75 13 18.1977 13 18.75C13 19.3023 12.5523 19.75 12 19.75C11.4477 19.75 11 19.3023 11 18.75C11 18.1977 11.4477 17.75 12 17.75Z" fill="#0F1621"/>
<path d="M12 13.25C12.5523 13.25 13 13.6977 13 14.25C13 14.8023 12.5523 15.25 12 15.25C11.4477 15.25 11 14.8023 11 14.25C11 13.6977 11.4477 13.25 12 13.25Z" fill="#0F1621"/>
<path fill-rule="evenodd" clip-rule="evenodd" d="M13.5 6.5C14.6046 6.5 15.5 7.39543 15.5 8.5V20C15.5 21.1046 14.6046 22 13.5 22H10.5C9.39543 22 8.5 21.1046 8.5 20V8.5C8.5 7.39543 9.39543 6.5 10.5 6.5H13.5ZM12 17C11.0335 17 10.25 17.7835 10.25 18.75C10.25 19.7165 11.0335 20.5 12 20.5C12.9665 20.5 13.75 19.7165 13.75 18.75C13.75 17.7835 12.9665 17 12 17ZM12 12.5C11.0335 12.5 10.25 13.2835 10.25 14.25C10.25 15.2165 11.0335 16 12 16C12.9665 16 13.75 15.2165 13.75 14.25C13.75 13.2835 12.9665 12.5 12 12.5ZM12 8C11.0335 8 10.25 8.7835 10.25 9.75C10.25 10.7165 11.0335 11.5 12 11.5C12.9665 11.5 13.75 10.7165 13.75 9.75C13.75 8.7835 12.9665 8 12 8Z" fill="#0F1621"/>
<path d="M6 8.5C6.55228 8.5 7 8.94772 7 9.5C7 10.0523 6.55228 10.5 6 10.5H5C4.44772 10.5 4 10.0523 4 9.5C4 8.94772 4.44772 8.5 5 8.5H6Z" fill="#0F1621"/>
<path d="M19 8.5C19.5523 8.5 20 8.94772 20 9.5C20 10.0523 19.5523 10.5 19 10.5H18C17.4477 10.5 17 10.0523 17 9.5C17 8.94772 17.4477 8.5 18 8.5H19Z" fill="#0F1621"/>
<path d="M5.29297 3.29297C5.68349 2.90244 6.31651 2.90244 6.70703 3.29297L7.70703 4.29297C8.09756 4.68349 8.09756 5.31651 7.70703 5.70703C7.31651 6.09756 6.68349 6.09756 6.29297 5.70703L5.29297 4.70703C4.90244 4.31651 4.90244 3.68349 5.29297 3.29297Z" fill="#0F1621"/>
<path d="M17.293 3.29297C17.6835 2.90244 18.3165 2.90244 18.707 3.29297C19.0976 3.68349 19.0976 4.31651 18.707 4.70703L17.707 5.70703C17.3165 6.09756 16.6835 6.09756 16.293 5.70703C15.9024 5.31651 15.9024 4.68349 16.293 4.29297L17.293 3.29297Z" fill="#0F1621"/>
<path d="M12 2C12.5523 2 13 2.44772 13 3V4C13 4.55228 12.5523 5 12 5C11.4477 5 11 4.55228 11 4V3C11 2.44772 11.4477 2 12 2Z" fill="#0F1621"/>
</svg>
