<svg width="24" height="24" viewBox="0 0 24 24" fill="none" xmlns="http://www.w3.org/2000/svg">
<path d="M10.5 6.5C9.39543 6.5 8.5 7.39543 8.5 8.5V20C8.5 21.1046 9.39543 22 10.5 22H13.5C14.6046 22 15.5 21.1046 15.5 20V8.5C15.5 7.39543 14.6046 6.5 13.5 6.5H10.5ZM12 11.5C11.0335 11.5 10.25 10.7165 10.25 9.75C10.25 8.7835 11.0335 8 12 8C12.9665 8 13.75 8.7835 13.75 9.75C13.75 10.7165 12.9665 11.5 12 11.5ZM13.75 14.25C13.75 15.2165 12.9665 16 12 16C11.0335 16 10.25 15.2165 10.25 14.25C10.25 13.2835 11.0335 12.5 12 12.5C12.9665 12.5 13.75 13.2835 13.75 14.25ZM12 20.5C11.0335 20.5 10.25 19.7165 10.25 18.75C10.25 17.7835 11.0335 17 12 17C12.9665 17 13.75 17.7835 13.75 18.75C13.75 19.7165 12.9665 20.5 12 20.5Z" fill="#0E1520"/>
<path d="M13 9.75C13 10.3023 12.5523 10.75 12 10.75C11.4477 10.75 11 10.3023 11 9.75C11 9.19772 11.4477 8.75 12 8.75C12.5523 8.75 13 9.19772 13 9.75Z" fill="#0E1520"/>
<path d="M12 2C12.5523 2 13 2.44772 13 3V4C13 4.55228 12.5523 5 12 5C11.4477 5 11 4.55228 11 4V3C11 2.44772 11.4477 2 12 2ZM5.29289 3.29289C5.68342 2.90237 6.31658 2.90237 6.70711 3.29289L7.70711 4.29289C8.09763 4.68342 8.09763 5.31658 7.70711 5.70711C7.31658 6.09763 6.68342 6.09763 6.29289 5.70711L5.29289 4.70711C4.90237 4.31658 4.90237 3.68342 5.29289 3.29289ZM17.2929 3.29289C17.6834 2.90237 18.3166 2.90237 18.7071 3.29289C19.0976 3.68342 19.0976 4.31658 18.7071 4.70711L17.7071 5.70711C17.3166 6.09763 16.6834 6.09763 16.2929 5.70711C15.9024 5.31658 15.9024 4.68342 16.2929 4.29289L17.2929 3.29289ZM4 9.5C4 8.94772 4.44772 8.5 5 8.5H6C6.55228 8.5 7 8.94772 7 9.5C7 10.0523 6.55228 10.5 6 10.5H5C4.44772 10.5 4 10.0523 4 9.5ZM17 9.5C17 8.94772 17.4477 8.5 18 8.5H19C19.5523 8.5 20 8.94772 20 9.5C20 10.0523 19.5523 10.5 19 10.5H18C17.4477 10.5 17 10.0523 17 9.5Z" fill="#0E1520"/>
</svg>
