<svg width="24" height="24" viewBox="0 0 24 24" fill="none" xmlns="http://www.w3.org/2000/svg">
<path d="M11.5 2C10.6716 2 10 2.67157 10 3.5V4.5C10 5.32843 10.6716 6 11.5 6C12.3284 6 13 5.32843 13 4.5V3.5C13 2.67157 12.3284 2 11.5 2Z" fill="#0E1520"/>
<path d="M8.92654 7C8.20021 7 7.53123 7.39378 7.17849 8.02871L5.45335 11.134C5.31815 11.3773 5.20868 11.6341 5.12761 11.9004C4.8607 12.7772 4.25 14.8046 4.25 15H6.25C6.25 14.811 6.63812 13.3671 6.85596 12.5423C6.95103 12.1823 7.09718 11.838 7.28873 11.5188L8.12401 10.1266C8.20794 9.98677 8.4233 10.0625 8.40126 10.2241L7.75 15L6.75 22H8.99998L10 15H10.75V22H13V10.118C13 9.73926 13.214 9.393 13.5528 9.22361L16.5249 7.73753C16.8363 7.58187 17.1016 7.34767 17.2946 7.05807L19.5 3.75L17.75 2.75L15.8427 5.50504C15.6192 5.82786 15.3056 6.07776 14.9411 6.22358L13.3576 6.85695C13.1214 6.95145 12.8693 7 12.6148 7H8.92654Z" fill="#0E1520"/>
</svg>
