<svg width="16" height="16" viewBox="0 0 16 16" fill="none" xmlns="http://www.w3.org/2000/svg">
<path d="M9 4C9 4.19778 8.94135 4.39112 8.83147 4.55557C8.72159 4.72002 8.56541 4.84819 8.38268 4.92388C8.19996 4.99957 7.99889 5.01937 7.80491 4.98079C7.61093 4.9422 7.43275 4.84696 7.29289 4.70711C7.15304 4.56725 7.0578 4.38907 7.01921 4.19509C6.98063 4.00111 7.00043 3.80004 7.07612 3.61732C7.15181 3.43459 7.27998 3.27841 7.44443 3.16853C7.60888 3.05865 7.80222 3 8 3C8.26522 3 8.51957 3.10536 8.70711 3.29289C8.89464 3.48043 9 3.73478 9 4ZM10 7C10 6.73478 9.89464 6.48043 9.70711 6.29289C9.51957 6.10536 9.26522 6 9 6H7C6.73478 6 6.48043 6.10536 6.29289 6.29289C6.10536 6.48043 6 6.73478 6 7V8H10V7ZM13 1C12.8022 1 12.6089 1.05865 12.4444 1.16853C12.28 1.27841 12.1518 1.43459 12.0761 1.61732C12.0004 1.80004 11.9806 2.00111 12.0192 2.19509C12.0578 2.38907 12.153 2.56725 12.2929 2.70711C12.4327 2.84696 12.6109 2.9422 12.8049 2.98079C12.9989 3.01937 13.2 2.99957 13.3827 2.92388C13.5654 2.84819 13.7216 2.72002 13.8315 2.55557C13.9414 2.39112 14 2.19778 14 2C14 1.73478 13.8946 1.48043 13.7071 1.29289C13.5196 1.10536 13.2652 1 13 1ZM15 5C15 4.73478 14.8946 4.48043 14.7071 4.29289C14.5196 4.10536 14.2652 4 14 4H12V6H15V5ZM3 1C2.80222 1 2.60888 1.05865 2.44443 1.16853C2.27998 1.27841 2.15181 1.43459 2.07612 1.61732C2.00043 1.80004 1.98063 2.00111 2.01921 2.19509C2.0578 2.38907 2.15304 2.56725 2.29289 2.70711C2.43275 2.84696 2.61093 2.9422 2.80491 2.98079C2.99889 3.01937 3.19996 2.99957 3.38268 2.92388C3.56541 2.84819 3.72159 2.72002 3.83147 2.55557C3.94135 2.39112 4 2.19778 4 2C4 1.73478 3.89464 1.48043 3.70711 1.29289C3.51957 1.10536 3.26522 1 3 1ZM4 4H2C1.73478 4 1.48043 4.10536 1.29289 4.29289C1.10536 4.48043 1 4.73478 1 5V6H4V4ZM15 10.67V14C15 14.2652 14.8946 14.5196 14.7071 14.7071C14.5196 14.8946 14.2652 15 14 15H12C11.7348 15 11.4804 14.8946 11.2929 14.7071C11.1054 14.5196 11 14.2652 11 14V13H5V14C5 14.2652 4.89464 14.5196 4.70711 14.7071C4.51957 14.8946 4.26522 15 4 15H2C1.73478 15 1.48043 14.8946 1.29289 14.7071C1.10536 14.5196 1 14.2652 1 14V10.67C1 10.2373 1.14036 9.81619 1.4 9.47L2.5 8H5L4.7 8.4L3.5 10H12.5L11.3 8.4L11 8H13.5L14.6 9.47C14.8596 9.81619 15 10.2373 15 10.67Z" fill="#0F1621"/>
</svg>
