<svg width="24" height="24" viewBox="0 0 24 24" fill="none" xmlns="http://www.w3.org/2000/svg">
<path d="M20 7H16V6C16 5.4 16.4 5 17 5H19C19.6 5 20 5.4 20 6V7ZM11.8 9H12.1C12.8 9 13.4 8.4 13.4 7.7V6.39999C13.4 5.69999 12.8 5.10001 12.1 5.10001H11.8C11.1 5.10001 10.5 5.69999 10.5 6.39999V7.7C10.5 8.4 11.1 9 11.8 9ZM18 4C18.6 4 19 3.6 19 3C19 2.4 18.6 2 18 2C17.4 2 17 2.4 17 3C17 3.6 17.4 4 18 4ZM6 4C6.6 4 7 3.6 7 3C7 2.4 6.6 2 6 2C5.4 2 5 2.4 5 3C5 3.6 5.4 4 6 4ZM15 11C15 10.4 14.6 10 14 10H10C9.4 10 9 10.4 9 11V12H15V11ZM22 13H20.9L21.7 14.1C21.9 14.4 22 14.7 22 15.1V20C22 20.5 21.8 21 21.4 21.4C21 21.8 20.5 22 20 22H17C16.5 22 16 21.5 16 21V20H8V21C8 21.5 7.5 22 7 22H4C2.9 22 2 21.1 2 20V15.1C2 14.7 2.1 14.4 2.3 14.1L3.1 13H2V11H4.5L5.4 9.8C5.8 9.3 6.3 9 7 9V11L5.6 13L5.2 13.5L6.2 14H17.7L18.7 13.5L18.3 13L16.9 11V9C17.5 9 18.1 9.3 18.5 9.8L19.4 11H21.9V13H22ZM20 15.2L18.2 16H18H5.8L4.1 15.1V19.9H6.1V17.9H18.1V19.9H20.1V15.2H20ZM8 6C8 5.4 7.6 5 7 5H5C4.4 5 4 5.4 4 6V7H8V6Z" fill="#0F1621"/>
</svg>
