<svg width="24" height="24" viewBox="0 0 24 24" fill="none" xmlns="http://www.w3.org/2000/svg">
<path d="M15.0001 11V12H9.00005V11C9.00005 10.7348 9.10541 10.4804 9.29295 10.2929C9.48048 10.1054 9.73484 10 10.0001 10H14.0001C14.2653 10 14.5196 10.1054 14.7072 10.2929C14.8947 10.4804 15.0001 10.7348 15.0001 11ZM13.5001 7.66V6.34C13.5001 5.98461 13.3589 5.64378 13.1076 5.39248C12.8563 5.14118 12.5154 5 12.1601 5H11.8401C11.4847 5 11.1438 5.14118 10.8925 5.39248C10.6412 5.64378 10.5001 5.98461 10.5001 6.34V7.66C10.5001 8.01539 10.6412 8.35622 10.8925 8.60752C11.1438 8.85882 11.4847 9 11.8401 9H12.1601C12.5154 9 12.8563 8.85882 13.1076 8.60752C13.3589 8.35622 13.5001 8.01539 13.5001 7.66ZM22.0001 13H20.9001L21.6701 14.06C21.887 14.348 22.003 14.6995 22.0001 15.06V20C22.0001 20.5304 21.7893 21.0391 21.4143 21.4142C21.0392 21.7893 20.5305 22 20.0001 22H17.0001C16.7348 22 16.4805 21.8946 16.2929 21.7071C16.1054 21.5196 16.0001 21.2652 16.0001 21V20H8.00005V21C8.00005 21.2652 7.8947 21.5196 7.70716 21.7071C7.51962 21.8946 7.26527 22 7.00005 22H4.00005C3.46962 22 2.96091 21.7893 2.58584 21.4142C2.21077 21.0391 2.00005 20.5304 2.00005 20V15.06C1.99714 14.6995 2.11312 14.348 2.33005 14.06L3.10005 13H2.00005V11H4.55005L5.41005 9.82C5.59638 9.57258 5.83611 9.37036 6.11139 9.22839C6.38668 9.08642 6.69043 9.00835 7.00005 9V11L6.70005 11.45L5.00005 14H19.0001L17.3001 11.45L17.0001 11V9C17.3097 9.00835 17.6134 9.08642 17.8887 9.22839C18.164 9.37036 18.4037 9.57258 18.5901 9.82L19.4501 11H22.0001V13ZM8.00005 16H4.00005V18H8.00005V16ZM20.0001 16H16.0001V18H20.0001V16ZM18.0001 2C17.8023 2 17.6089 2.05865 17.4445 2.16853C17.28 2.27841 17.1519 2.43459 17.0762 2.61732C17.0005 2.80004 16.9807 3.00111 17.0193 3.19509C17.0579 3.38907 17.1531 3.56725 17.2929 3.70711C17.4328 3.84696 17.611 3.9422 17.805 3.98079C17.9989 4.01937 18.2 3.99957 18.3827 3.92388C18.5655 3.84819 18.7216 3.72002 18.8315 3.55557C18.9414 3.39112 19.0001 3.19778 19.0001 3C19.0001 2.73478 18.8947 2.48043 18.7072 2.29289C18.5196 2.10536 18.2653 2 18.0001 2ZM20.0001 6C20.0001 5.73478 19.8947 5.48043 19.7072 5.29289C19.5196 5.10536 19.2653 5 19.0001 5H17.0001C16.7348 5 16.4805 5.10536 16.2929 5.29289C16.1054 5.48043 16.0001 5.73478 16.0001 6V7H20.0001V6ZM6.00005 2C5.80227 2 5.60893 2.05865 5.44448 2.16853C5.28003 2.27841 5.15186 2.43459 5.07617 2.61732C5.00049 2.80004 4.98068 3.00111 5.01927 3.19509C5.05785 3.38907 5.15309 3.56725 5.29295 3.70711C5.4328 3.84696 5.61098 3.9422 5.80496 3.98079C5.99894 4.01937 6.20001 3.99957 6.38274 3.92388C6.56546 3.84819 6.72164 3.72002 6.83152 3.55557C6.9414 3.39112 7.00005 3.19778 7.00005 3C7.00005 2.73478 6.8947 2.48043 6.70716 2.29289C6.51962 2.10536 6.26527 2 6.00005 2ZM8.00005 6C8.00005 5.73478 7.8947 5.48043 7.70716 5.29289C7.51962 5.10536 7.26527 5 7.00005 5H5.00005C4.73484 5 4.48048 5.10536 4.29295 5.29289C4.10541 5.48043 4.00005 5.73478 4.00005 6V7H8.00005V6Z" fill="#0F1621"/>
</svg>
