<svg width="16" height="16" viewBox="0 0 16 16" fill="none" xmlns="http://www.w3.org/2000/svg">
<path d="M8 1C7.44772 1 7 1.44772 7 2V3C7 3.55228 7.44772 4 8 4C8.55228 4 9 3.55228 9 3V2C9 1.44772 8.55228 1 8 1Z" fill="#0E1520"/>
<path d="M5.98055 5C5.67677 5 5.38961 5.13808 5.19984 5.37529L3.60772 7.36535C3.53643 7.45446 3.48123 7.55414 3.44441 7.66215C3.27076 8.17152 2.75 9.72224 2.75 10H4C4 9.73782 4.30938 8.80542 4.44146 8.41932C4.4799 8.30695 4.53901 8.20328 4.61504 8.11204L5.51963 7.02647C5.5845 6.94862 5.71069 7.00553 5.69529 7.10569L5.25008 10L4.50008 15H6.00008L6.66667 10L7.50012 9.99994L7.50016 15H9.00016L9.00001 7.03719C9 6.85935 9.09446 6.6949 9.24807 6.60529L11.7744 5.13162C11.9223 5.04532 12.0456 4.92248 12.1324 4.77486L13.6667 2.16667L12.5 1.5L11.1498 3.7503C11.052 3.91338 10.9096 4.04518 10.7395 4.13023L9.28169 4.85917C9.09655 4.95174 8.8924 4.99994 8.6854 4.99994L5.98055 5Z" fill="#0E1520"/>
</svg>
