<svg width="24" height="24" viewBox="0 0 24 24" fill="none" xmlns="http://www.w3.org/2000/svg">
<path d="M4.78232 18.5588C4.27352 18.1954 3.66387 18 3.0386 18H2V20H3.32748C3.76382 20 4.18819 20.1427 4.53588 20.4063L5.68741 21.2795C6.75919 22.0921 8.24081 22.0921 9.31259 21.2795L10.4641 20.4063C10.8118 20.1427 11.2362 20 11.6725 20H22V18H11.9614C11.3361 18 10.7265 18.1954 10.2177 18.5588L8.66248 19.6697C7.96707 20.1664 7.03293 20.1664 6.33752 19.6697L4.78232 18.5588Z" fill="#0E1520"/>
<path d="M6.17637 17.1172L3.97876 12.6114L4.00233 7.17728C4.00728 6.035 4.6605 4.99466 5.68719 4.49391L10.283 2.25237C11.3097 1.75162 12.5317 1.87738 13.4349 2.57673L17.7315 5.90375L19.9291 10.4095C20.1712 10.9059 19.9204 11.5264 19.424 11.7685L16.9519 12.9742C16.4555 13.2163 15.8569 13.0102 15.6148 12.5138L15.2246 11.714L10.101 14.2129L10.4911 15.0127C10.7332 15.5091 10.5271 16.1078 10.0307 16.3499L7.5586 17.5556C7.06221 17.7977 6.41847 17.6136 6.17637 17.1172ZM6.56393 6.2915C6.2217 6.45841 6.00396 6.8052 6.00231 7.18596L5.99121 9.74542L14.2341 5.7251L12.2104 4.15808C11.9093 3.92496 11.502 3.88304 11.1598 4.04996L6.56393 6.2915ZM16.0811 6.96785L5.8338 11.966L7.52298 15.4293L8.37692 15.0127L7.51634 13.2484L16.0558 9.08339L16.9164 10.8478L17.7703 10.4313L16.0811 6.96785Z" fill="#0E1520"/>
</svg>
