<svg width="24" height="24" viewBox="0 0 24 24" fill="none" xmlns="http://www.w3.org/2000/svg">
<path fill-rule="evenodd" clip-rule="evenodd" d="M21.7071 3.70718L3.70709 21.7072L2.29288 20.293L20.2929 2.29297L21.7071 3.70718Z" fill="#0F1621"/>
<path d="M3.62187 15.964C2.70098 15.786 1.99991 14.9709 1.99991 14.0001V9.10006C1.99218 8.71094 2.11725 8.31437 2.30165 8.09309L3.09991 7.00006H1.99991V5.00006H4.49991L5.39991 3.80006C5.79991 3.30006 6.39991 3.00006 7.09991 3.00006H16.5858L14.5858 5.00006H6.99991L5.49991 7.00006L5.09991 7.50006L6.09991 8.00006H11.5858L9.58579 10.0001H5.79991L3.99991 9.10006V14.0001H5.58579L3.62187 15.964Z" fill="#0F1621"/>
<path d="M7.58579 12.0001H5.99991V13.5859L7.58579 12.0001Z" fill="#0F1621"/>
<path d="M21.1165 7.29782L18.5857 9.82862L19.9999 9.20006V14.0001H17.9999V12.0001H16.4142L14.4142 14.0001H15.9999V15.0001C15.9999 15.5001 16.4999 16.0001 16.9999 16.0001H19.9999C20.4999 16.0001 20.9999 15.8001 21.3999 15.4001C21.7999 15.0001 21.9999 14.5001 21.9999 14.0001V9.10006C21.9999 8.78674 21.8417 8.31016 21.6999 8.10006C21.3282 7.54297 21.1165 7.29782 21.1165 7.29782Z" fill="#0F1621"/>
<path d="M6.41422 22.0001L7.99991 20.5001L11.9999 18.0001L15.9999 20.5001L18.9999 19.0001L21.9999 20.5884V22.0001H6.41422Z" fill="#0F1621"/>
</svg>
