<svg width="16" height="16" viewBox="0 0 16 16" fill="none" xmlns="http://www.w3.org/2000/svg">
<path d="M8.99961 2.5C8.99961 1.7 9.69961 1 10.4996 1C11.2996 1 11.9996 1.7 11.9996 2.5C11.9996 3.3 11.2996 4 10.4996 4C9.69961 4 8.99961 3.3 8.99961 2.5ZM6.19961 8.8L5.89961 8.4L3.49961 6L3.29961 6.1C2.79961 6.7 2.49961 7.3 2.49961 8.1V11C2.49961 11.1 2.49961 11.2 2.49961 11.3L1.59961 13L2.59961 14L3.89961 11.6C3.99961 11.4 3.99961 11.2 3.99961 11V8.6L5.09961 9.8C5.29961 10 5.39961 10.3 5.39961 10.7V14H6.99961V10.7C6.99961 9.9 6.69961 9.3 6.19961 8.8ZM14.9996 12L12.9996 14H6.99961L9.99961 11L2.49961 3.5L1.99961 3L4.39961 1.6C4.69961 1.4 5.09961 1.3 5.39961 1.3C5.89961 1.3 6.39961 1.5 6.79961 1.9L9.39961 4.5C9.79961 4.8 9.99961 5.3 9.99961 5.8V9.6L10.6996 10.3L11.9996 9L14.9996 12ZM6.79961 4L5.79961 2.9C5.69961 2.8 5.59961 2.8 5.39961 2.8C5.29961 2.8 5.19961 2.8 5.09961 2.9L3.99961 3.6L5.29961 4.9L6.79961 4ZM8.49961 5.9L7.09961 6.7L8.49961 8.1V5.9Z" fill="#0F1621"/>
</svg>
