<svg width="24" height="24" viewBox="0 0 24 24" fill="none" xmlns="http://www.w3.org/2000/svg">
<path d="M22 18V20C22 21.1 21.1 22 20 22H4C2.9 22 2 21.1 2 20V18C2 16.9 2.9 16 4 16H5V18H4V20H20V18H19V16H20C21.1 16 22 16.9 22 18ZM5 12C5 8.6 7.5 5.7 10.8 5.1C11.8 3.2 13.8 2 16 2C19.3 2 22 4.7 22 8C22 10.3 20.7 12.2 18.9 13.3C18.3 16.6 15.5 19 12 19C8.1 19 5 15.9 5 12ZM13.2 5.1C16.1 5.6 18.3 7.9 18.8 10.7C19.6 10 20 9.1 20 8C20 5.8 18.2 4 16 4C14.9 4 14 4.4 13.2 5.1ZM7 12C7 14.8 9.2 17 12 17C14.8 17 17 14.8 17 12C17 9.2 14.8 7 12 7C9.2 7 7 9.2 7 12ZM11 15H13V9H11L10 11H11V15Z" fill="#0F1621"/>
</svg>
