<svg width="16" height="16" viewBox="0 0 16 16" fill="none" xmlns="http://www.w3.org/2000/svg">
<path fill-rule="evenodd" clip-rule="evenodd" d="M12.9033 9.56987L8.89476 1.53969C8.80925 1.37521 8.6797 1.23767 8.52056 1.14239C8.36141 1.04712 8.17891 0.997848 7.99339 1.00007C7.80787 1.0023 7.6266 1.05593 7.46979 1.15499C7.31298 1.25405 7.18678 1.39466 7.10524 1.56115L3.09672 9.56987C3.02464 9.72165 2.99196 9.8891 3.00167 10.0568C3.01139 10.2245 3.0632 10.3871 3.15233 10.5295C3.24145 10.672 3.36503 10.7898 3.51168 10.872C3.65833 10.9542 3.82333 10.9982 3.99148 11H12.0085C12.1767 10.9982 12.3417 10.9542 12.4883 10.872C12.635 10.7898 12.7585 10.672 12.8477 10.5295C12.9368 10.3871 12.9886 10.2245 12.9983 10.0568C13.008 9.8891 12.9754 9.72165 12.9033 9.56987ZM7.28419 6.70961V3.84935H8.71581V6.70961H7.28419ZM7.28419 9.56987V8.13974H8.71581V9.56987H7.28419Z" fill="#0E1520"/>
<path d="M12 12C12.7379 12 13.45 12.272 14 12.7639C14.2909 12.5004 14.6306 12.2966 15 12.1639V14.6839C14.9113 14.7841 14.8018 14.8638 14.6792 14.9173C14.5566 14.9709 14.4238 14.997 14.29 14.9939H13.71C13.5456 14.9991 13.3828 14.9601 13.2385 14.8809C13.0943 14.8018 12.974 14.6854 12.89 14.5439C12.8061 14.3801 12.6786 14.2427 12.5216 14.1467C12.3645 14.0507 12.184 13.9999 12 13.9999C11.816 13.9999 11.6355 14.0507 11.4784 14.1467C11.3214 14.2427 11.1939 14.3801 11.11 14.5439C11.026 14.6854 10.9057 14.8018 10.7615 14.8809C10.6172 14.9601 10.4544 14.9991 10.29 14.9939H9.71C9.54557 14.9991 9.38277 14.9601 9.23854 14.8809C9.09432 14.8018 8.97396 14.6854 8.89 14.5439C8.80608 14.3801 8.67859 14.2427 8.52155 14.1467C8.36452 14.0507 8.18405 13.9999 8 13.9999C7.81595 13.9999 7.63548 14.0507 7.47845 14.1467C7.32141 14.2427 7.19392 14.3801 7.11 14.5439C7.02604 14.6854 6.90568 14.8018 6.76146 14.8809C6.61723 14.9601 6.45443 14.9991 6.29 14.9939H5.71C5.54557 14.9991 5.38277 14.9601 5.23854 14.8809C5.09432 14.8018 4.97396 14.6854 4.89 14.5439C4.80608 14.3801 4.67859 14.2427 4.52155 14.1467C4.36452 14.0507 4.18405 13.9999 4 13.9999C3.81595 13.9999 3.63548 14.0507 3.47844 14.1467C3.32141 14.2427 3.19392 14.3801 3.11 14.5439C3.02604 14.6854 2.90568 14.8018 2.76146 14.8809C2.61723 14.9601 2.45443 14.9991 2.29 14.9939H1.71C1.57623 14.997 1.4434 14.9709 1.32078 14.9173C1.19815 14.8638 1.08868 14.7841 1 14.6839V12.1639C1.36937 12.2966 1.70912 12.5004 2 12.7639C2.55002 12.272 3.26207 12 4 12C4.73793 12 5.44998 12.272 6 12.7639C6.55002 12.272 7.26207 12 8 12C8.73793 12 9.44998 12.272 10 12.7639C10.55 12.272 11.2621 12 12 12Z" fill="#0E1520"/>
</svg>
