<svg width="16" height="16" viewBox="0 0 16 16" fill="none" xmlns="http://www.w3.org/2000/svg">
<path d="M1 15V14L3 13.25L5.5 14L8 12.5L10.5 14L12.5 13.25L15 14V15H1Z" fill="#0E1520"/>
<path d="M12.3 6L11.6 2.4C11.6 1.6 10.8 1 10 1L8 1V2.4H10C10.1 2.4 10.2 2.5 10.3 2.6L10.5 4H5.8L5.6 3.4H6V2H2V3.4H4.1L4.9 6L5 6.2C4.7 6.1 4.4 6 4 6C2.3 6 1 7.3 1 9C1 10.7 2.3 12 4 12C5.3 12 6.4 11.1 6.8 9.9C7 10 7.1 10.1 7.3 10.1H7.4C7.5 10.1 7.7 10.1 7.8 10.1C8.3 10.1 8.7 9.9 9.1 9.7C9.4 11 10.6 12 12 12C13.7 12 15 10.7 15 9C15 7.5 13.8 6.2 12.3 6ZM4 10.6C3.1 10.6 2.4 9.9 2.4 9C2.4 8.1 3.1 7.4 4 7.4C4.9 7.4 5.6 8.1 5.6 9C5.6 9.9 4.9 10.6 4 10.6ZM7.6 8.7C7.4 8.7 7.2 8.5 7.1 8.2L6.3 5.4H10.8L8.4 8.4C8.2 8.7 7.9 8.8 7.6 8.7ZM12 10.6C11.1 10.6 10.4 9.9 10.4 9C10.4 8.1 11.1 7.4 12 7.4C12.9 7.4 13.6 8.1 13.6 9C13.6 9.9 12.9 10.6 12 10.6Z" fill="#0E1520"/>
</svg>
