<svg width="24" height="24" viewBox="0 0 24 24" fill="none" xmlns="http://www.w3.org/2000/svg">
<path d="M2 21.9116V20.9116L5 19.4116L8 20.9116L12 18.4116L16 20.9116L19 19.4116L22 21V22L2 21.9116Z" fill="#0E1520"/>
<path d="M17.8944 9.01027L17.2844 4.51027C17.1673 3.80222 16.8002 3.15964 16.2497 2.69911C15.6993 2.23859 15.002 1.99064 14.2844 2.00027H12.0144V4.01027H14.3244C14.5598 4.00599 14.7891 4.08488 14.972 4.23304C15.1549 4.38121 15.2797 4.58915 15.3244 4.82027L15.5944 7.01027H10.0144V5.01027H5.01441V7.01027H7.01441V9.01027H6.51441C5.69469 9.00765 4.88983 9.22898 4.18671 9.65036C3.4836 10.0718 2.90894 10.6772 2.52478 11.4013C2.14061 12.1254 1.96154 12.9407 2.00689 13.7592C2.05224 14.5777 2.32029 15.3682 2.78211 16.0455C3.24392 16.7227 3.88195 17.2609 4.62731 17.6021C5.37268 17.9432 6.19707 18.0743 7.01147 17.9811C7.82588 17.8879 8.59937 17.5741 9.24843 17.0734C9.8975 16.5728 10.3975 15.9043 10.6944 15.1403C10.838 15.196 10.985 15.2427 11.1344 15.2803C11.2676 15.2902 11.4013 15.2902 11.5344 15.2803C12.1426 15.2771 12.7289 15.0532 13.1844 14.6503C13.3978 15.4441 13.825 16.1641 14.4194 16.7318C15.0139 17.2995 15.7528 17.6931 16.5556 17.8698C17.3584 18.0464 18.1942 17.9993 18.9721 17.7335C19.7499 17.4678 20.4399 16.9936 20.9668 16.3627C21.4937 15.7318 21.8372 14.9683 21.9601 14.1556C22.0829 13.3428 21.9802 12.5119 21.6633 11.7535C21.3464 10.9951 20.8273 10.3382 20.1628 9.85446C19.4982 9.37073 18.7135 9.07873 17.8944 9.01027ZM6.51441 16.0103C6.07813 16.0119 5.64903 15.8993 5.26975 15.6837C4.89046 15.4681 4.57419 15.1571 4.35238 14.7814C4.13056 14.4057 4.01091 13.9785 4.00533 13.5423C3.99974 13.1061 4.10841 12.676 4.32054 12.2947C4.53267 11.9135 4.84087 11.5944 5.21451 11.3692C5.58815 11.144 6.01423 11.0204 6.4504 11.0109C6.88657 11.0013 7.31764 11.1061 7.70078 11.3147C8.08393 11.5234 8.40579 11.8287 8.63441 12.2003L9.01441 13.1103C9.02476 13.2434 9.02476 13.3771 9.01441 13.5103C9.01441 14.1733 8.75101 14.8092 8.28217 15.278C7.81333 15.7469 7.17745 16.0103 6.51441 16.0103ZM11.9444 13.1003C11.8913 13.178 11.8166 13.2383 11.7295 13.2739C11.6423 13.3095 11.5467 13.3186 11.4544 13.3003C11.3578 13.2845 11.2677 13.2412 11.195 13.1756C11.1223 13.11 11.07 13.0248 11.0444 12.9303L10.9244 12.6203C10.8332 12.2006 10.6816 11.7964 10.4744 11.4203L9.57441 9.01027H14.7844L11.9444 13.1003ZM17.5144 16.0103C17.02 16.0103 16.5366 15.8636 16.1255 15.5889C15.7144 15.3142 15.3939 14.9238 15.2047 14.467C15.0155 14.0102 14.966 13.5075 15.0624 13.0225C15.1589 12.5376 15.397 12.0921 15.7466 11.7425C16.0963 11.3929 16.5417 11.1548 17.0267 11.0583C17.5116 10.9618 18.0143 11.0114 18.4711 11.2006C18.9279 11.3898 19.3184 11.7102 19.5931 12.1213C19.8678 12.5325 20.0144 13.0158 20.0144 13.5103C20.0144 14.1733 19.751 14.8092 19.2822 15.278C18.8133 15.7469 18.1774 16.0103 17.5144 16.0103Z" fill="#0E1520"/>
</svg>
