<svg width="16" height="16" viewBox="0 0 16 16" fill="none" xmlns="http://www.w3.org/2000/svg">
<path d="M5.39011 11H4.25001V13.2501H8.5V11H7.5V8.5C7.5 7.94772 7.94772 7.5 8.5 7.5H10.5C11.0523 7.5 11.5 7.94772 11.5 8.5V11H10.5V13.2501H12.75V4.46367L9.50001 2.83867L6.19792 4.48972L5.893 2.96512L9.50001 1.16162L14.25 3.53662V14.7501H2.75001V11H1.60991C1.29439 11 1.05774 10.7113 1.11962 10.4019L2.90195 1.49029C2.95897 1.20521 3.20928 1 3.50001 1C3.79074 1 4.04105 1.20521 4.09807 1.49029L5.8804 10.4019C5.94228 10.7113 5.70563 11 5.39011 11Z" fill="#0F1621"/>
<path d="M9.5 4.25C9.08579 4.25 8.75 4.58579 8.75 5V5.75C8.75 6.16421 9.08579 6.5 9.5 6.5C9.91421 6.5 10.25 6.16421 10.25 5.75V5C10.25 4.58579 9.91421 4.25 9.5 4.25Z" fill="#0F1621"/>
</svg>
