<svg width="24" height="24" viewBox="0 0 24 24" fill="none" xmlns="http://www.w3.org/2000/svg">
<path fill-rule="evenodd" clip-rule="evenodd" d="M21.7071 3.70718L3.70706 21.7072L2.29285 20.293L20.2928 2.29297L21.7071 3.70718Z" fill="#0F1621"/>
<path d="M3.62139 15.9644C3.23182 15.8893 2.8703 15.6994 2.58572 15.4148C2.21065 15.0397 1.99993 14.531 1.99993 14.0006V9.06056C1.99701 8.70002 2.113 8.34856 2.32993 8.06056L3.09993 7.00056H1.99993V5.00056H4.54993L5.40993 3.82056C5.60005 3.56021 5.85029 3.34968 6.13933 3.20691C6.42837 3.06413 6.74763 2.99334 7.06993 3.00056H16.5853L14.5853 5.00056H7.53993C7.37353 4.99976 7.20956 5.04049 7.06288 5.11907C6.9162 5.19765 6.79145 5.31159 6.69993 5.45056L4.99993 8.00056H11.5853L7.99993 11.5859V10.0006H3.99993V12.0006H7.58525L3.62139 15.9644Z" fill="#0F1621"/>
<path d="M21.1161 7.29815L18.4137 10.0006H19.9999V12.0006H16.4137L14.4137 14.0006H15.9999V15.0006C15.9999 15.2658 16.1053 15.5201 16.2928 15.7077C16.4804 15.8952 16.7347 16.0006 16.9999 16.0006H19.9999C20.5304 16.0006 21.0391 15.7898 21.4141 15.4148C21.7892 15.0397 21.9999 14.531 21.9999 14.0006V9.06056C22.0028 8.70002 21.8869 8.34856 21.6699 8.06056L21.1161 7.29815Z" fill="#0F1621"/>
<path d="M6.41418 22.0001L7.99988 20.5001L11.9999 18.0001L15.9999 20.5001L18.9999 19.0001L21.9999 20.5884V22.0001H6.41418Z" fill="#0F1621"/>
</svg>
