<svg width="16" height="16" viewBox="0 0 16 16" fill="none" xmlns="http://www.w3.org/2000/svg">
<path d="M13 11V13H7.24L5.24 15H15V11H13ZM12 10C12.003 10.3377 11.9593 10.6743 11.87 11H9.24L11.71 8.53C11.9038 8.99574 12.0024 9.49556 12 10ZM8 1C8.75766 0.999823 9.49978 1.21483 10.14 1.62L7.75 4C6.36046 4.04258 5.03132 4.57779 4 5.51C3.99005 5.34015 3.99005 5.16985 4 5C4 3.93913 4.42143 2.92172 5.17157 2.17157C5.92172 1.42143 6.93913 1 8 1ZM2.41 15L1 13.59L13.59 1L15 2.41L2.41 15Z" fill="#0F1621"/>
</svg>
