<svg width="24" height="24" viewBox="0 0 24 24" fill="none" xmlns="http://www.w3.org/2000/svg">
<path d="M20 18C20.8 18 21.5 18.3 22 18.8V21H21.7C21.4 21 21 20.8 20.9 20.5C20.7 20.2 20.4 20 20 20C19.6 20 19.3 20.2 19.1 20.5C19 20.8 18.6 21 18.3 21H17.7C17.4 21 17 20.8 16.9 20.5C16.7 20.2 16.4 20 16 20C15.6 20 15.3 20.2 15.1 20.5C15 20.8 14.6 21 14.3 21H13.7C13.4 21 13 20.8 12.9 20.5C12.7 20.2 12.4 20 12 20C11.6 20 11.3 20.2 11.1 20.5C11 20.8 10.6 21 10.3 21H9.7C9.4 21 9 20.8 8.9 20.5C8.7 20.2 8.4 20 8 20C7.6 20 7.3 20.2 7.1 20.5C7 20.8 6.6 21 6.3 21H5.7C5.4 21 5 20.8 4.9 20.5C4.7 20.2 4.4 20 4 20C3.6 20 3.3 20.2 3.1 20.5C3 20.8 2.6 21 2.3 21H2V18.8C2.5 18.3 3.2 18 4 18C4.8 18 5.5 18.3 6 18.8C6.5 18.3 7.2 18 8 18C8.8 18 9.5 18.3 10 18.8C10.5 18.3 11.2 18 12 18C12.8 18 13.5 18.3 14 18.8C14.5 18.3 15.2 18 16 18C16.8 18 17.5 18.3 18 18.8C18.5 18.3 19.2 18 20 18ZM22 7H20.9L21.7 8.1C21.9 8.4 22 8.7 22 9.1V14C22 14.5 21.8 15 21.4 15.4C21 15.8 20.5 16 20 16H17C16.4 16 16 15.6 16 15V14H8V15C8 15.6 7.6 16 7 16H4C2.9 16 2 15.1 2 14V9.1C2 8.7 2.1 8.4 2.3 8.1L3.1 7H2V5H4.5L5.4 3.8C5.8 3.3 6.4 3 7.1 3H17C17.7 3 18.3 3.3 18.7 3.8L19.5 5H22V7ZM5.2 7.5L6.2 8H17.7L18.7 7.5L18.4 7L17 5H7.1L5.2 7.5ZM20 9.2L18.2 10H5.8L4 9.1V14H6V12H18V14H20V9.2Z" fill="#0F1621"/>
</svg>
