<svg width="24" height="24" viewBox="0 0 24 24" fill="none" xmlns="http://www.w3.org/2000/svg">
<path d="M20.9 7H22V5H19.5L18.7 3.8C18.3 3.3 17.7 3 17 3H7.1C6.4 3 5.8 3.3 5.4 3.8L4.5 5H2V7H3.1L2.3 8.1C2.25 8.15 2.225 8.225 2.2 8.3C2.175 8.375 2.15 8.45 2.1 8.5C2 8.7 2 8.9 2 9.1V14C2 15.1 2.9 16 4 16H7C7.5 16 8 15.5 8 15V14H16V15C16 15.5 16.5 16 17 16H20C20.5 16 21 15.8 21.4 15.4C21.8 15 22 14.5 22 14V9.1C22 8.9 22 8.7 21.9 8.5C21.9 8.4 21.8 8.2 21.7 8.1L20.9 7ZM20 9.2V14H18V12H6V14H4V9.1L5.8 10H18.2L20 9.2ZM17 5L18.4 7L18.6 7.5L17.6 8H6.1L5.1 7.5L5.5 7L7 5H17Z" fill="#0F1621"/>
<path d="M2 20.5V22H22V20.5884L19 19L16 20.5L12 18L8 20.5L5 19L2 20.5Z" fill="#0F1621"/>
</svg>
