<svg width="24" height="24" viewBox="0 0 24 24" fill="none" xmlns="http://www.w3.org/2000/svg">
<path d="M13.5 6V5.5H13H11H10.5V6V11V11.5H11H13H13.5V11V6ZM13.5 13V12.5H13H11H10.5V13V15V15.5H11H13H13.5V15V13ZM17.6667 20.1427L18.001 20.4417L18.3345 20.1417C18.7918 19.7301 19.3848 19.5017 20 19.5C20.5434 19.5015 21.0695 19.6799 21.5 20.0051V21.4594C21.4929 21.456 21.486 21.4524 21.4791 21.4487C21.4165 21.4143 21.3637 21.3646 21.3257 21.3042C21.1998 21.0664 21.0122 20.8666 20.7823 20.7261C20.5468 20.5821 20.2761 20.506 20 20.506C19.7239 20.506 19.4532 20.5821 19.2177 20.7261C18.9878 20.8666 18.8002 21.0664 18.6743 21.3042C18.6363 21.3646 18.5835 21.4143 18.5209 21.4487C18.4551 21.4848 18.3807 21.5026 18.3057 21.5002L18.2978 21.5H18.29H17.71H17.7022L17.6943 21.5002C17.6193 21.5026 17.5449 21.4848 17.4791 21.4487C17.4165 21.4143 17.3637 21.3646 17.3257 21.3042C17.1998 21.0664 17.0122 20.8666 16.7823 20.7261C16.5468 20.5821 16.2761 20.506 16 20.506C15.7239 20.506 15.4532 20.5821 15.2177 20.7261C14.9878 20.8666 14.8002 21.0664 14.6743 21.3042C14.6363 21.3646 14.5835 21.4143 14.5209 21.4487C14.4551 21.4848 14.3807 21.5026 14.3057 21.5002L14.2978 21.5H14.29H13.71H13.7022L13.6943 21.5002C13.6193 21.5026 13.5449 21.4848 13.4791 21.4487C13.4165 21.4143 13.3637 21.3646 13.3257 21.3042C13.1998 21.0664 13.0122 20.8666 12.7823 20.7261C12.5468 20.5821 12.2761 20.506 12 20.506C11.7239 20.506 11.4532 20.5821 11.2177 20.7261C10.9878 20.8666 10.8002 21.0664 10.6743 21.3042C10.6363 21.3646 10.5835 21.4143 10.5209 21.4487C10.4551 21.4848 10.3807 21.5026 10.3057 21.5002L10.2978 21.5H10.29H9.71H9.70216L9.69432 21.5002C9.61926 21.5026 9.54493 21.4848 9.47909 21.4487C9.41648 21.4143 9.36372 21.3646 9.32574 21.3042C9.19983 21.0664 9.01217 20.8666 8.78233 20.7261C8.54678 20.5821 8.27607 20.506 8 20.506C7.72393 20.506 7.45322 20.5821 7.21767 20.7261C6.98783 20.8666 6.80017 21.0664 6.67427 21.3042C6.63628 21.3646 6.58352 21.4143 6.5209 21.4487C6.45507 21.4848 6.38074 21.5026 6.30568 21.5002L6.29784 21.5H6.29H5.71H5.70216L5.69432 21.5002C5.61926 21.5026 5.54493 21.4848 5.47909 21.4487C5.41649 21.4143 5.36373 21.3646 5.32574 21.3042C5.19983 21.0664 5.01217 20.8666 4.78233 20.7261L4.52155 21.1527L4.78233 20.7261C4.54678 20.5821 4.27607 20.506 4 20.506C3.72393 20.506 3.45321 20.5821 3.21767 20.7261L3.47844 21.1527L3.21767 20.7261C2.98783 20.8666 2.80017 21.0664 2.67427 21.3042C2.63628 21.3646 2.58352 21.4143 2.5209 21.4487C2.51402 21.4524 2.50706 21.456 2.5 21.4594V20.0061C2.93117 19.6827 3.45718 19.5061 4 19.5061C4.61494 19.5061 5.20831 19.7327 5.66667 20.1427L6 20.4408L6.33333 20.1427C6.79169 19.7327 7.38506 19.5061 8 19.5061C8.61494 19.5061 9.20831 19.7327 9.66667 20.1427L10 20.4408L10.3333 20.1427C10.7917 19.7327 11.3851 19.5061 12 19.5061C12.6149 19.5061 13.2083 19.7327 13.6667 20.1427L14 20.4408L14.3333 20.1427C14.7917 19.7327 15.3851 19.5061 16 19.5061C16.6149 19.5061 17.2083 19.7327 17.6667 20.1427ZM10.723 3.30921C11.27 2.23026 12.73 2.23026 13.277 3.30921L19.3249 15.2391C19.8595 16.2934 19.1091 17.5 18.0479 17.5H5.95206C4.89092 17.5 4.14055 16.2934 4.67505 15.2391L10.723 3.30921Z" fill="#0E1520" stroke="#0E1520"/>
</svg>
