<svg width="24" height="24" viewBox="0 0 24 24" fill="none" xmlns="http://www.w3.org/2000/svg">
<path d="M20 15V20H4V15H2V22H22V15H20ZM13 18H11V14H13V18ZM12 10C10.4087 10 8.88258 10.6321 7.75736 11.7574C6.63214 12.8826 6 14.4087 6 16C5.99816 16.6821 6.11664 17.3591 6.35 18H8.54C8.18733 17.392 8.00108 16.7019 8 15.9991C7.99893 15.2962 8.18306 14.6055 8.53385 13.9965C8.88465 13.3874 9.38973 12.8816 9.99823 12.5298C10.6067 12.1781 11.2972 11.9929 12 11.9929C12.7028 11.9929 13.3933 12.1781 14.0018 12.5298C14.6103 12.8816 15.1153 13.3874 15.4661 13.9965C15.8169 14.6055 16.0011 15.2962 16 15.9991C15.9989 16.7019 15.8127 17.392 15.46 18H17.65C17.8834 17.3591 18.0018 16.6821 18 16C18 14.4087 17.3679 12.8826 16.2426 11.7574C15.1174 10.6321 13.5913 10 12 10ZM13 6V8.06C12.3357 7.97997 11.6643 7.97997 11 8.06V6H13ZM12 2C10.4087 2 8.88258 2.63214 7.75736 3.75736C6.63214 4.88258 6 6.4087 6 8C5.99523 8.77183 6.14483 9.53682 6.44 10.25C6.94363 9.75813 7.51224 9.33756 8.13 9C8.04073 8.67426 7.99699 8.33773 8 8C8 6.93913 8.42143 5.92172 9.17157 5.17157C9.92172 4.42143 10.9391 4 12 4C13.0609 4 14.0783 4.42143 14.8284 5.17157C15.5786 5.92172 16 6.93913 16 8C16.003 8.33773 15.9593 8.67426 15.87 9C16.4878 9.33756 17.0564 9.75813 17.56 10.25C17.8552 9.53682 18.0048 8.77183 18 8C18 6.4087 17.3679 4.88258 16.2426 3.75736C15.1174 2.63214 13.5913 2 12 2Z" fill="#0F1621"/>
</svg>
