<svg width="24" height="24" viewBox="0 0 24 24" fill="none" xmlns="http://www.w3.org/2000/svg">
<path d="M21.6701 8.06L21.0501 7.21L18.2601 10H20.0001V12H16.2601L14.2601 14H16.0001V15C16.0001 15.2652 16.1054 15.5196 16.2929 15.7071C16.4805 15.8946 16.7348 16 17.0001 16H20.0001C20.5305 16 21.0392 15.7893 21.4143 15.4142C21.7893 15.0391 22.0001 14.5304 22.0001 14V9.06C22.003 8.69945 21.887 8.348 21.6701 8.06ZM6.70005 5.45C6.79157 5.31103 6.91633 5.19709 7.063 5.11851C7.20968 5.03993 7.37365 4.9992 7.54005 5H14.7401L16.7401 3H7.07005C6.74776 2.99277 6.42849 3.06357 6.13945 3.20634C5.85042 3.34912 5.60018 3.55965 5.41005 3.82L4.55005 5H2.00005V7H3.10005L2.33005 8.06C2.11312 8.348 1.99714 8.69945 2.00005 9.06V14C1.9965 14.4914 2.17396 14.9668 2.49857 15.3357C2.82319 15.7046 3.27223 15.941 3.76005 16L7.76005 12H4.00005V10H8.00005V11.75L11.7401 8H5.00005L6.70005 5.45ZM3.43005 22L2.00005 20.57L20.5701 2L22.0001 3.43L3.43005 22ZM20.0001 18C19.2613 18.0017 18.5492 18.2758 18.0001 18.77C17.45 18.278 16.738 18.0061 16.0001 18.0061C15.2621 18.0061 14.5501 18.278 14.0001 18.77C13.45 18.278 12.738 18.0061 12.0001 18.0061C11.2621 18.0061 10.5501 18.278 10.0001 18.77L8.58005 20.19C8.71377 20.2801 8.82083 20.4044 8.89005 20.55C8.97402 20.6915 9.09438 20.8078 9.2386 20.887C9.38282 20.9661 9.54562 21.0052 9.71005 21H10.2901C10.4545 21.0052 10.6173 20.9661 10.7615 20.887C10.9057 20.8078 11.0261 20.6915 11.1101 20.55C11.194 20.3862 11.3215 20.2487 11.4785 20.1527C11.6355 20.0568 11.816 20.006 12.0001 20.006C12.1841 20.006 12.3646 20.0568 12.5216 20.1527C12.6786 20.2487 12.8061 20.3862 12.8901 20.55C12.974 20.6915 13.0944 20.8078 13.2386 20.887C13.3828 20.9661 13.5456 21.0052 13.7101 21H14.2901C14.4545 21.0052 14.6173 20.9661 14.7615 20.887C14.9057 20.8078 15.0261 20.6915 15.1101 20.55C15.194 20.3862 15.3215 20.2487 15.4785 20.1527C15.6355 20.0568 15.816 20.006 16.0001 20.006C16.1841 20.006 16.3646 20.0568 16.5216 20.1527C16.6786 20.2487 16.8061 20.3862 16.8901 20.55C16.974 20.6915 17.0944 20.8078 17.2386 20.887C17.3828 20.9661 17.5456 21.0052 17.7101 21H18.2901C18.4545 21.0052 18.6173 20.9661 18.7615 20.887C18.9057 20.8078 19.0261 20.6915 19.1101 20.55C19.194 20.3862 19.3215 20.2487 19.4785 20.1527C19.6355 20.0568 19.816 20.006 20.0001 20.006C20.1841 20.006 20.3646 20.0568 20.5216 20.1527C20.6786 20.2487 20.8061 20.3862 20.8901 20.55C20.974 20.6915 21.0944 20.8078 21.2386 20.887C21.3828 20.9661 21.5456 21.0052 21.7101 21H22.0001V18.77C21.4509 18.2758 20.7388 18.0017 20.0001 18Z" fill="#0F1621"/>
</svg>
