<svg width="24" height="24" viewBox="0 0 24 24" fill="none" xmlns="http://www.w3.org/2000/svg">
<path d="M3.78232 18.5588C3.27352 18.1954 2.66387 18 2.0386 18H1V20H2.32748C2.76382 20 3.18819 20.1427 3.53588 20.4063L4.68741 21.2795C5.75919 22.0921 7.24081 22.0921 8.31259 21.2795L9.46412 20.4063C9.81181 20.1427 10.2362 20 10.6725 20H21V18H10.9614C10.3361 18 9.72648 18.1954 9.21768 18.5588L7.66248 19.6697C6.96707 20.1664 6.03293 20.1664 5.33752 19.6697L3.78232 18.5588Z" fill="#0E1520"/>
<path d="M4.68489 4.49998C3.65152 5.00399 2.9971 6.05424 3.00001 7.20395L3.01377 12.6439L4.82769 16.363L4.82869 16.3625L5.22687 17.1788C5.46898 17.6752 6.06765 17.8814 6.56404 17.6393L9.02231 16.4403C9.5187 16.1982 9.72484 15.5995 9.48273 15.1031L9.08456 14.2867L14.1916 11.7959L14.5898 12.6123C14.8319 13.1086 15.4305 13.3148 15.9269 13.0727L18.3852 11.8737C18.8816 11.6316 19.0877 11.0329 18.8456 10.5365L16.6344 6.00066L12.3561 2.64067C11.4519 1.93054 10.2214 1.79964 9.18805 2.30364L4.68489 4.49998ZM5 7.19889C4.99903 6.81565 5.21718 6.46557 5.56163 6.29757L10.0648 4.10123C10.4092 3.93323 10.8194 3.97686 11.1208 4.21357L13.143 5.80171L5.00651 9.77012L5 7.19889ZM7.37125 10.7739L8.2212 12.5166L5.66768 13.762L4.81773 12.0194L7.37125 10.7739ZM15.0318 7.03766L15.8818 8.78031L13.3282 10.0257L12.4783 8.28309L15.0318 7.03766Z" fill="#0E1520"/>
</svg>
