<svg width="16" height="16" viewBox="0 0 16 16" fill="none" xmlns="http://www.w3.org/2000/svg">
<path d="M14.6 4.47L12.6 1.8C12.4137 1.55161 12.1721 1.35 11.8944 1.21115C11.6167 1.07229 11.3105 1 11 1H5C4.68951 1 4.38328 1.07229 4.10557 1.21115C3.82786 1.35 3.58629 1.55161 3.4 1.8L1.4 4.47C1.14036 4.81619 1 5.23726 1 5.67V10C1 10.2652 1.10536 10.5196 1.29289 10.7071C1.48043 10.8946 1.73478 11 2 11H4C4.26522 11 4.51957 10.8946 4.70711 10.7071C4.89464 10.5196 5 10.2652 5 10V9H11V10C11 10.2652 11.1054 10.5196 11.2929 10.7071C11.4804 10.8946 11.7348 11 12 11H14C14.2652 11 14.5196 10.8946 14.7071 10.7071C14.8946 10.5196 15 10.2652 15 10V5.67C15 5.23726 14.8596 4.81619 14.6 4.47ZM2.75 6L4.75 3.4C4.83796 3.28233 4.95076 3.18548 5.08039 3.11635C5.21001 3.04721 5.35328 3.00749 5.5 3H10.5C10.6552 3 10.8084 3.03614 10.9472 3.10557C11.0861 3.175 11.2069 3.2758 11.3 3.4L13.25 6H2.75ZM14 12.77C13.45 12.278 12.7379 12.0061 12 12.0061C11.2621 12.0061 10.55 12.278 10 12.77C9.44998 12.278 8.73793 12.0061 8 12.0061C7.26207 12.0061 6.55002 12.278 6 12.77C5.44998 12.278 4.73793 12.0061 4 12.0061C3.26207 12.0061 2.55002 12.278 2 12.77C1.70912 12.5065 1.36937 12.3027 1 12.17V14.69C1.08868 14.7902 1.19815 14.8698 1.32078 14.9234C1.4434 14.9769 1.57623 15.0031 1.71 15H2.29C2.45443 15.0052 2.61723 14.9661 2.76146 14.887C2.90568 14.8078 3.02604 14.6915 3.11 14.55C3.19392 14.3862 3.32141 14.2487 3.47844 14.1527C3.63548 14.0568 3.81595 14.006 4 14.006C4.18405 14.006 4.36452 14.0568 4.52155 14.1527C4.67859 14.2487 4.80608 14.3862 4.89 14.55C4.97396 14.6915 5.09432 14.8078 5.23854 14.887C5.38277 14.9661 5.54557 15.0052 5.71 15H6.29C6.45443 15.0052 6.61723 14.9661 6.76146 14.887C6.90568 14.8078 7.02604 14.6915 7.11 14.55C7.19392 14.3862 7.32141 14.2487 7.47845 14.1527C7.63548 14.0568 7.81595 14.006 8 14.006C8.18405 14.006 8.36452 14.0568 8.52155 14.1527C8.67859 14.2487 8.80608 14.3862 8.89 14.55C8.97396 14.6915 9.09432 14.8078 9.23854 14.887C9.38277 14.9661 9.54557 15.0052 9.71 15H10.29C10.4544 15.0052 10.6172 14.9661 10.7615 14.887C10.9057 14.8078 11.026 14.6915 11.11 14.55C11.1939 14.3862 11.3214 14.2487 11.4784 14.1527C11.6355 14.0568 11.816 14.006 12 14.006C12.184 14.006 12.3645 14.0568 12.5216 14.1527C12.6786 14.2487 12.8061 14.3862 12.89 14.55C12.974 14.6915 13.0943 14.8078 13.2385 14.887C13.3828 14.9661 13.5456 15.0052 13.71 15H14.29C14.4238 15.0031 14.5566 14.9769 14.6792 14.9234C14.8018 14.8698 14.9113 14.7902 15 14.69V12.17C14.6306 12.3027 14.2909 12.5065 14 12.77Z" fill="#0F1621"/>
</svg>
