<svg width="24" height="24" viewBox="0 0 24 24" fill="none" xmlns="http://www.w3.org/2000/svg">
<path d="M20 18.9999C19.2613 19.0016 18.5491 19.2758 18 19.7699C17.45 19.278 16.7379 19.006 16 19.006C15.2621 19.006 14.55 19.278 14 19.7699C13.45 19.278 12.7379 19.006 12 19.006C11.2621 19.006 10.55 19.278 10 19.7699C9.44998 19.278 8.73793 19.006 8 19.006C7.26207 19.006 6.55002 19.278 6 19.7699C5.44998 19.278 4.73793 19.006 4 19.006C3.26207 19.006 2.55002 19.278 2 19.7699V21.9999H2.29C2.45443 22.0051 2.61723 21.9661 2.76146 21.8869C2.90568 21.8078 3.02604 21.6914 3.11 21.5499C3.19392 21.3861 3.32141 21.2487 3.47844 21.1527C3.63548 21.0567 3.81595 21.0059 4 21.0059C4.18405 21.0059 4.36452 21.0567 4.52155 21.1527C4.67859 21.2487 4.80608 21.3861 4.89 21.5499C4.97396 21.6914 5.09432 21.8078 5.23854 21.8869C5.38277 21.9661 5.54557 22.0051 5.71 21.9999H6.29C6.45443 22.0051 6.61723 21.9661 6.76146 21.8869C6.90568 21.8078 7.02604 21.6914 7.11 21.5499C7.19392 21.3861 7.32141 21.2487 7.47845 21.1527C7.63548 21.0567 7.81595 21.0059 8 21.0059C8.18405 21.0059 8.36452 21.0567 8.52155 21.1527C8.67859 21.2487 8.80608 21.3861 8.89 21.5499C8.97396 21.6914 9.09432 21.8078 9.23854 21.8869C9.38277 21.9661 9.54557 22.0051 9.71 21.9999H10.29C10.4544 22.0051 10.6172 21.9661 10.7615 21.8869C10.9057 21.8078 11.026 21.6914 11.11 21.5499C11.1939 21.3861 11.3214 21.2487 11.4784 21.1527C11.6355 21.0567 11.816 21.0059 12 21.0059C12.184 21.0059 12.3645 21.0567 12.5216 21.1527C12.6786 21.2487 12.8061 21.3861 12.89 21.5499C12.974 21.6914 13.0943 21.8078 13.2385 21.8869C13.3828 21.9661 13.5456 22.0051 13.71 21.9999H14.29C14.4544 22.0051 14.6172 21.9661 14.7615 21.8869C14.9057 21.8078 15.026 21.6914 15.11 21.5499C15.1939 21.3861 15.3214 21.2487 15.4784 21.1527C15.6355 21.0567 15.816 21.0059 16 21.0059C16.184 21.0059 16.3645 21.0567 16.5216 21.1527C16.6786 21.2487 16.8061 21.3861 16.89 21.5499C16.974 21.6914 17.0943 21.8078 17.2385 21.8869C17.3828 21.9661 17.5456 22.0051 17.71 21.9999H18.29C18.4544 22.0051 18.6172 21.9661 18.7615 21.8869C18.9057 21.8078 19.026 21.6914 19.11 21.5499C19.1939 21.3861 19.3214 21.2487 19.4784 21.1527C19.6355 21.0567 19.816 21.0059 20 21.0059C20.184 21.0059 20.3645 21.0567 20.5216 21.1527C20.6786 21.2487 20.8061 21.3861 20.89 21.5499C20.974 21.6914 21.0943 21.8078 21.2385 21.8869C21.3828 21.9661 21.5456 22.0051 21.71 21.9999H22V19.7699C21.4509 19.2758 20.7387 19.0016 20 18.9999Z" fill="#0E1520"/>
<path d="M13 6.99995H11V11.9999H13V6.99995Z" fill="#0E1520"/>
<path d="M13 12.9999H11V14.9999H13V12.9999Z" fill="#0E1520"/>
<path fill-rule="evenodd" clip-rule="evenodd" d="M13.7917 3.10985C13.0566 1.62865 10.9437 1.62878 10.2087 3.11006L4.2538 15.1112C3.59414 16.4406 4.56127 18.0002 6.04537 18.0002H17.9569C19.4411 18.0002 20.4082 16.4405 19.7484 15.111L13.7917 3.10985ZM12.4483 4.87894C12.2648 4.50768 11.7353 4.50773 11.5518 4.87902L6.41291 15.2787C6.2487 15.611 6.4905 16.0002 6.86117 16.0002H17.1414C17.5121 16.0002 17.7539 15.6109 17.5896 15.2786L12.4483 4.87894Z" fill="#0E1520"/>
</svg>
