<svg width="16" height="16" viewBox="0 0 16 16" fill="none" xmlns="http://www.w3.org/2000/svg">
<path d="M14.7454 4.96066C14.6875 4.84494 14.6035 4.74429 14.5 4.66667H13.1567L12.4901 3.13333C12.3501 2.80324 12.1176 2.52064 11.8208 2.31957C11.5239 2.1185 11.1752 2.00752 10.8167 2H5.17675C4.81598 2.00496 4.46444 2.11475 4.16496 2.31598C3.86549 2.5172 3.631 2.80119 3.49008 3.13333L2.82341 4.66667H1.50008C1.39658 4.74429 1.31258 4.84494 1.25473 4.96066C1.19687 5.07637 1.16675 5.20396 1.16675 5.33333C1.16675 5.4627 1.19687 5.5903 1.25473 5.70601C1.31258 5.82172 1.39658 5.92238 1.50008 6H1.99674V10.3333C1.99674 10.5101 2.06698 10.6797 2.19201 10.8047C2.31703 10.9298 2.4866 11 2.66341 11H4.72341C4.90022 11 5.06979 10.9298 5.19482 10.8047C5.31984 10.6797 5.39008 10.5101 5.39008 10.3333V9.66667H10.5901V10.3333C10.5901 10.5101 10.6603 10.6797 10.7853 10.8047C10.9104 10.9298 11.0799 11 11.2567 11H13.3301C13.5069 11 13.6765 10.9298 13.8015 10.8047C13.9265 10.6797 13.9967 10.5101 13.9967 10.3333V6H14.5C14.6035 5.92238 14.6875 5.82172 14.7454 5.70601C14.8032 5.5903 14.8333 5.4627 14.8333 5.33333C14.8333 5.20396 14.8032 5.07637 14.7454 4.96066ZM11.9967 5.33333H3.99674L4.72341 3.67333C4.75871 3.57935 4.82014 3.49741 4.90045 3.43717C4.98077 3.37693 5.07663 3.3409 5.17675 3.33333H10.8034C10.9035 3.3409 10.9994 3.37693 11.0797 3.43717C11.16 3.49741 11.2214 3.57935 11.2567 3.67333L11.9967 5.33333ZM3.66341 6.66667H5.33008V8H3.66341C3.55991 7.92238 3.47591 7.82172 3.41806 7.70601C3.3602 7.5903 3.33008 7.4627 3.33008 7.33333C3.33008 7.20396 3.3602 7.07637 3.41806 6.96066C3.47591 6.84494 3.55991 6.74429 3.66341 6.66667ZM10.6634 6.66667H12.3301C12.4336 6.74429 12.5176 6.84494 12.5754 6.96066C12.6333 7.07637 12.6634 7.20396 12.6634 7.33333C12.6634 7.4627 12.6333 7.5903 12.5754 7.70601C12.5176 7.82172 12.4336 7.92238 12.3301 8H10.6634V6.66667Z" fill="#0F1621"/>
<path d="M1 14V15H15V14L12.5 13L10.5 14L8 12.5L5.5 14L3 13L1 14Z" fill="#0F1621"/>
</svg>
