<svg width="24" height="24" viewBox="0 0 24 24" fill="none" xmlns="http://www.w3.org/2000/svg">
<path d="M20.9001 7.0005H22.0001V5.0005H19.4501L18.5901 3.8205C18.3999 3.56015 18.1497 3.34962 17.8607 3.20685C17.5716 3.06407 17.2524 2.99328 16.9301 3.0005H7.07005C6.74776 2.99328 6.42849 3.06407 6.13945 3.20685C5.85042 3.34962 5.60018 3.56015 5.41005 3.8205L4.55005 5.0005H2.00005V7.0005H3.10005L2.33005 8.0605C2.11312 8.3485 1.99714 8.69996 2.00005 9.0605V14.0005C2.00005 14.5309 2.21077 15.0396 2.58584 15.4147C2.96091 15.7898 3.46962 16.0005 4.00005 16.0005H7.00005C7.26527 16.0005 7.51962 15.8951 7.70716 15.7076C7.8947 15.5201 8.00005 15.2657 8.00005 15.0005V14.0005H16.0001V15.0005C16.0001 15.2657 16.1054 15.5201 16.2929 15.7076C16.4805 15.8951 16.7348 16.0005 17.0001 16.0005H20.0001C20.5305 16.0005 21.0392 15.7898 21.4143 15.4147C21.7893 15.0396 22.0001 14.5309 22.0001 14.0005V9.0605C22.003 8.69996 21.887 8.3485 21.6701 8.0605L20.9001 7.0005ZM4.00005 10.0005H8.00005V12.0005H4.00005V10.0005ZM17.3001 5.4505L19.0001 8.0005H5.00005L6.70005 5.4505C6.79157 5.31153 6.91633 5.19759 7.063 5.11901C7.20968 5.04043 7.37365 4.9997 7.54005 5.0005H16.4601C16.6265 4.9997 16.7904 5.04043 16.9371 5.11901C17.0838 5.19759 17.2085 5.31153 17.3001 5.4505ZM16.0001 10.0005H20.0001V12.0005H16.0001V10.0005Z" fill="#0F1621"/>
<path d="M2 20.5V22H22V20.5884L19 19L16 20.5L12 18L8 20.5L5 19L2 20.5Z" fill="#0F1621"/>
</svg>
