<svg width="24" height="24" viewBox="0 0 24 24" fill="none" xmlns="http://www.w3.org/2000/svg">
<path d="M20 15V20H8.25L6.25 22H22V15H20ZM2 17.75L4 15.75V15H2V17.75ZM16.36 11.89L13 15.25V18H17.65C17.8834 17.3591 18.0018 16.682 18 16C18.0052 14.4695 17.4174 12.9965 16.36 11.89ZM13 6.73997V5.99997H11V8.06997C9.2827 8.27911 7.68111 9.04478 6.44 10.25C6.14483 9.5368 5.99523 8.7718 6 7.99997C6 6.40867 6.63214 4.88255 7.75736 3.75733C8.88258 2.63211 10.4087 1.99997 12 1.99997C13.5305 1.99481 15.0035 2.58258 16.11 3.63997L13 6.73997ZM3.43 22L2 20.57L20.57 1.99997L22 3.42997L3.43 22Z" fill="#0F1621"/>
</svg>
