<svg width="24" height="24" viewBox="0 0 24 24" fill="none" xmlns="http://www.w3.org/2000/svg">
<path d="M15 3.5C15 3.5 15 4.4 15 4.5C15 5.3 14.3 6 13.5 6C12.7 6 12 5.3 12 4.5C12 4.4 12 3.5 12 3.5C12 2.7 12.7 2 13.5 2C14.3 2 15 2.7 15 3.5ZM22 19V22H11L14.8 18.2L8.3 11.7L5.4 8.8L2.1 5.6L3.5 4.2L4.9 2.8C5.9 1.8 7.7 1.8 8.7 2.8L12.8 6.3C13.6 7.1 14 8.1 14 9.2V14.7L16.2 16.9L18 15C18 15 20.8 17.9 22 19ZM6.8 7.4L8.8 5.4L7.4 4.3C7 3.9 6.6 4 6.3 4.2L5 5.6L6.8 7.4ZM9.7 10.3L12 12.6V9.2C12 8.9 11.9 8.6 11.8 8.3L9.7 10.3ZM7.2 12.8L4.3 9.9L4.2 10C3.4 10.8 3 11.8 3 12.9V16.4L2 22H4L4.9 17.1C5 16.8 5 16.6 5 16.4V13.4L9 17.4V22H11V17.4C11 16.9 10.8 16.4 10.4 16L7.2 12.8Z" fill="#0F1621"/>
</svg>
