<svg width="24" height="24" viewBox="0 0 24 24" fill="none" xmlns="http://www.w3.org/2000/svg">
<path d="M18.1 12.1C18.1 11.4 18 10.6 17.7 10L13 14.7V16.1H11.6L10 17.7C10.7 17.9 11.4 18.1 12.1 18.1C15.4 18.1 18.1 15.4 18.1 12.1ZM19.9 10.8C20.6 9.9 21 8.8 21 7.6C21 7.3 21 7 20.9 6.7L19.1 8.5C19.5 9.2 19.8 10 19.9 10.8ZM20 16.1H18V18.1H20V20.1H7.6L5.6 22.1H20C21.1 22.1 22 21.2 22 20.1V18.1C22 17 21.1 16.1 20 16.1ZM4 16.1C2.9 16.1 2 17 2 18.1V18.5L4.4 16.1H4ZM10.4 10.1H10L11 8.1H12.4L14 6.5C13.4 6.3 12.7 6.1 12 6.1C8.7 6.1 6 8.8 6 12.1C6 12.8 6.1 13.5 6.4 14.1L10.4 10.1ZM15.6 4.9L17.9 2.6C17.2 2.2 16.4 2 15.5 2C13.8 2 12.2 2.8 11.2 4C11.5 4 11.8 4 12 4C13.3 4.1 14.5 4.4 15.6 4.9ZM3.4 22.1L2 20.7L20.6 2.1L22 3.5L3.4 22.1Z" fill="#0F1621"/>
</svg>
