<svg width="16" height="16" viewBox="0 0 16 16" fill="none" xmlns="http://www.w3.org/2000/svg">
<path d="M11.4 8.4C11.4 8 11.3 7.7 11.2 7.4L8.4 10.2V11.1H7.5L6.3 12.3C6.7 12.3 7 12.4 7.4 12.4C9.6 12.4 11.4 10.6 11.4 8.4ZM2.8 10.4C1.8 10.5 1 11.4 1 12.4V12.6L2.9 10.7C2.9 10.6 2.8 10.5 2.8 10.4ZM6.2 7.4H5.7L7 5.7H7.9L8.9 4.7C8.4 4.5 7.9 4.4 7.4 4.4C5.2 4.4 3.4 6.2 3.4 8.4C3.4 8.9 3.5 9.5 3.7 9.9L6.2 7.4ZM12.4 10.4H12C11.8 10.9 11.5 11.3 11.1 11.7H13.1V13.7H4.8L3.5 15H12.4C13.5 15 14.4 14.1 14.4 13V12.4C14.4 11.3 13.5 10.4 12.4 10.4ZM12.3 7.4C12.7 6.9 13 6.2 13 5.5L12 6.5C12.1 6.8 12.2 7.1 12.3 7.4ZM9.7 4L11.3 2.4C10.8 2.2 10.3 2 9.8 2C8.7 2 7.7 2.6 7.1 3.4C7.2 3.4 7.4 3.4 7.5 3.4C8.2 3.4 9 3.6 9.7 4ZM13.8 3.3L2.6 14.5L1.5 13.4L12.7 2.2L13.8 3.3ZM12.8 2.3L13.9 3.4L2.6 14.5L1.5 13.4L12.8 2.3Z" fill="#0F1621"/>
</svg>
