<svg width="24" height="24" viewBox="0 0 24 24" fill="none" xmlns="http://www.w3.org/2000/svg">
<path d="M2 21.9116V20.9116L5 19.4116L8 20.9116L12 18.4116L16 20.9116L19 19.4116L22 21V22L2 21.9116Z" fill="#0E1520"/>
<path fill-rule="evenodd" clip-rule="evenodd" d="M13 3H16.7208L18.0541 7H21V9H18.7208L19.0695 10.0461C20.7316 10.3181 22 11.7609 22 13.5C22 15.433 20.433 17 18.5 17C16.567 17 15 15.433 15 13.5C15 12.0841 15.8408 10.8645 17.0504 10.3134L16.6126 9H16.0744L12.5744 15H9.5L8.92348 14.2313C8.5872 15.8133 7.18219 17 5.5 17C3.567 17 2 15.433 2 13.5C2 11.567 3.567 10 5.5 10C5.58642 10 5.67211 10.0031 5.75697 10.0093L5 9H2V7H6L7.125 8.5H10.1667L12.1667 7H15.9459L15.2792 5H13V3ZM7.25 13.5C7.25 14.4665 6.4665 15.25 5.5 15.25C4.5335 15.25 3.75 14.4665 3.75 13.5C3.75 12.5335 4.5335 11.75 5.5 11.75C6.4665 11.75 7.25 12.5335 7.25 13.5ZM20 13.5C20 14.3284 19.3284 15 18.5 15C17.6716 15 17 14.3284 17 13.5C17 12.6716 17.6716 12 18.5 12C19.3284 12 20 12.6716 20 13.5ZM11.4256 13H10.5L8.625 10.5H10.8333L12.8333 9H13.759L11.4256 13Z" fill="#0F1621"/>
</svg>
