<svg width="24" height="24" viewBox="0 0 24 24" fill="none" xmlns="http://www.w3.org/2000/svg">
<path d="M5.68488 4.49998C4.65152 5.00399 3.99709 6.05424 4 7.20395L4.01376 12.6439L5.82768 16.363L5.82869 16.3625L6.22686 17.1788C6.46897 17.6752 7.06764 17.8814 7.56403 17.6393L10.0223 16.4403C10.5187 16.1982 10.7248 15.5995 10.4827 15.1031L10.0845 14.2867L15.1916 11.7959L15.5898 12.6123C15.8319 13.1086 16.4305 13.3148 16.9269 13.0727L19.3852 11.8737C19.8816 11.6316 20.0877 11.0329 19.8456 10.5365L17.6344 6.00066L13.3561 2.64067C12.4519 1.93054 11.2214 1.79964 10.188 2.30364L5.68488 4.49998ZM5.99999 7.19889C5.99903 6.81565 6.21717 6.46557 6.56162 6.29757L11.0648 4.10123C11.4092 3.93323 11.8194 3.97686 12.1208 4.21357L14.143 5.80171L6.0065 9.77012L5.99999 7.19889ZM8.37124 10.7739L9.22119 12.5166L6.66767 13.762L5.81772 12.0194L8.37124 10.7739ZM16.0318 7.03766L16.8817 8.78031L14.3282 10.0257L13.4783 8.28309L16.0318 7.03766Z" fill="#0F1621"/>
<path d="M13.4721 18.9998C13.3169 18.9998 13.1638 19.0359 13.0249 19.1054L7.8695 21.6831C7.45294 21.8914 6.9936 21.9998 6.52786 21.9998H6.23607C5.09975 21.9998 4.06096 21.3578 3.55279 20.3414L3.38197 19.9998H2V17.9998H3.38197C4.13951 17.9998 4.83204 18.4278 5.17082 19.1054L5.34164 19.447C5.51103 19.7858 5.8573 19.9998 6.23607 19.9998H6.52786C6.68311 19.9998 6.83622 19.9636 6.97508 19.8942L12.1305 17.3165C12.5471 17.1082 13.0064 16.9998 13.4721 16.9998H22V18.9998H13.4721Z" fill="#0F1621"/>
</svg>
