<svg width="24" height="24" viewBox="0 0 24 24" fill="none" xmlns="http://www.w3.org/2000/svg">
<path d="M13 14.7L12.6 15.1H13V14.7ZM10.6 10L11.5 9.1H11L10.6 10ZM4 16.1C2.9 16.1 2 17 2 18.1V18.5L4.4 16.1H4ZM20 16.1H19V18.1H20V20.1H7.6L5.6 22.1H20C21.1 22.1 22 21.2 22 20.1V18.1C22 17 21.1 16.1 20 16.1ZM20 8.1C20 9.2 19.6 10.1 18.9 10.9C18.8 10.3 18.6 9.8 18.4 9.3L16.8 10.9C16.9 11.3 17 11.7 17 12.2C17 15 14.8 17.2 12 17.2C11.6 17.2 11.1 17.1 10.7 17L9.1 18.6C10 18.9 11 19.1 12 19.1C15.4 19.1 18.3 16.6 18.9 13.4C20.8 12.4 22 10.4 22 8.1C22 7.4 21.9 6.7 21.6 6L19.9 7.7C20 7.8 20 8 20 8.1ZM7.2 13.4C7.1 13 7 12.5 7 12.1C7 9.3 9.2 7.1 12 7.1C12.4 7.1 12.9 7.2 13.3 7.3L14.9 5.7C14.4 5.5 13.9 5.3 13.3 5.2C14 4.5 15 4.1 16.1 4.1C16.2 4.1 16.4 4.1 16.5 4.1L18.2 2.4C17.6 2.2 16.9 2 16.1 2C13.8 2 11.9 3.3 10.9 5.1C7.5 5.8 5 8.7 5 12.1C5 13.1 5.2 14.1 5.6 14.9L7.2 13.4ZM22 3.5L20.6 2.1L2 20.7L3.4 22.1L22 3.5Z" fill="#0F1621"/>
</svg>
