<svg width="24" height="24" viewBox="0 0 24 24" fill="none" xmlns="http://www.w3.org/2000/svg">
<path d="M18.1 12C18.1 15.3 15.4 18 12.1 18C8.8 18 6.1 15.3 6.1 12C6.1 8.7 8.8 6 12.1 6C15.4 6 18.1 8.7 18.1 12ZM10 10H11V16H13V8H11L10 10ZM12.1 4C16.1 4 19.4 6.9 20 10.7C20.7 9.8 21.1 8.7 21.1 7.5C21.1 4.5 18.6 2 15.6 2C13.9 2 12.3 2.8 11.3 4C11.5 4 11.8 4 12.1 4ZM20 16H18V18H20V20H4V18H6V16H4C2.9 16 2 16.9 2 18V20C2 21.1 2.9 22 4 22H20C21.1 22 22 21.1 22 20V18C22 16.9 21.1 16 20 16Z" fill="#0F1621"/>
</svg>
