<svg width="24" height="24" viewBox="0 0 24 24" fill="none" xmlns="http://www.w3.org/2000/svg">
<path d="M15 1.88184L9.37544 4.69411L9.84055 6.69763L15 4.1179L20 6.61791L20.0001 19.9998L16.5 19.9999L16.5 16H18V12C18 11.1716 17.3284 10.5 16.5 10.5H13.5C12.6716 10.5 12 11.1716 12 12V16H13.5V19.9999L7 19.9999V16H8.74127C9.38489 16 9.86091 15.4008 9.71537 14.7739L6.9196 2.73057C6.8203 2.3028 6.43915 2 6 2C5.56086 2 5.17971 2.30281 5.08041 2.73057L2.28464 14.7739C2.1391 15.4008 2.61512 16 3.25874 16H5V21.9999L22.0001 21.9998L22 5.38183L15 1.88184Z" fill="#0F1621"/>
<path d="M14.0001 6.99999C14.0001 6.44771 14.4478 6 15.0001 6C15.5523 6 16 6.44771 16 6.99999V8.00001C16 8.55229 15.5523 9 15.0001 9C14.4478 9 14.0001 8.55229 14.0001 8.00001V6.99999Z" fill="#0F1621"/>
</svg>
