<svg width="16" height="16" viewBox="0 0 16 16" fill="none" xmlns="http://www.w3.org/2000/svg">
<path d="M13.2945 1.01919L14.7088 2.4334L2.41423 14.7279L1.00002 13.3137L13.2945 1.01919Z" fill="#0F1621"/>
<path d="M11.1708 1.00731C11.1141 1.00245 11.0571 1 11 1H5C4.68951 1 4.38328 1.07229 4.10557 1.21115C3.82786 1.35 3.58629 1.55161 3.4 1.8L1.4 4.47C1.14036 4.81619 1 5.23726 1 5.67V10C1 10.2652 1.10536 10.5196 1.29289 10.7071C1.32283 10.737 1.35447 10.7649 1.38758 10.7905L6.17812 6H2.75L4.75 3.4C4.83796 3.28233 4.95076 3.18548 5.08039 3.11635C5.21001 3.04721 5.35328 3.00749 5.5 3H9.17813L11.1708 1.00731Z" fill="#0F1621"/>
<path d="M8.29945 6L5.29945 9H8.14816L11.1482 6H8.29945Z" fill="#0F1621"/>
<path d="M5 9.29945L3.29945 11H4C4.26522 11 4.51957 10.8946 4.70711 10.7071C4.89464 10.5196 5 10.2652 5 10V9.29945Z" fill="#0F1621"/>
<path d="M11.0997 3.19976L12.556 1.74346C12.571 1.76202 12.5857 1.78087 12.6 1.8L13.7769 3.37122L12.3492 4.79895L11.3 3.4C11.2429 3.32385 11.1754 3.25649 11.0997 3.19976Z" fill="#0F1621"/>
<path d="M10.2695 9L14.6818 4.58765C14.889 4.90957 15 5.28517 15 5.67V10C15 10.2652 14.8946 10.5196 14.7071 10.7071C14.5196 10.8946 14.2652 11 14 11H12C11.7348 11 11.4804 10.8946 11.2929 10.7071C11.1054 10.5196 11 10.2652 11 10V9H10.2695Z" fill="#0F1621"/>
<path d="M2.76584 14.3823L4.97815 12.17C4.666 12.0623 4.33568 12.0061 4 12.0061C3.26207 12.0061 2.55002 12.278 2 12.77C1.86454 12.6473 1.87246 12.7728 1.88229 12.9285C1.89357 13.1071 1.90736 13.3256 1.71 13.2547L2 13.5C3.5 12.31 3.35335 13.2353 2.38413 14.1527C2.47273 14.1914 2.63753 14.1758 2.77262 14.163C2.82449 14.1581 2.87199 14.1536 2.9091 14.1527L2.76584 14.3823Z" fill="#0F1621"/>
<path d="M7.13643 12.133L4.82648 14.443C4.84978 14.4772 4.87101 14.5129 4.89 14.55C4.97396 14.6915 5.09432 14.8078 5.23854 14.887C5.38277 14.9661 5.54557 15.0052 5.71 15H6.29C6.45443 15.0052 6.61723 14.9661 6.76146 14.887C6.90568 14.8078 7.02604 14.6915 7.11 14.55C7.19392 14.3862 7.32141 14.2487 7.47845 14.1527C7.63548 14.0568 7.81595 14.006 8 14.006C8.18405 14.006 8.36452 14.0568 8.52155 14.1527C8.67859 14.2487 8.80608 14.3862 8.89 14.55C8.97396 14.6915 9.09432 14.8078 9.23854 14.887C9.38277 14.9661 9.54557 15.0052 9.71 15H10.29C10.4544 15.0052 10.6172 14.9661 10.7615 14.887C10.9057 14.8078 11.026 14.6915 11.11 14.55C11.1939 14.3862 11.3214 14.2487 11.4784 14.1527C11.6355 14.0568 11.816 14.006 12 14.006C12.184 14.006 12.3645 14.0568 12.5216 14.1527C12.6786 14.2487 12.8061 14.3862 12.89 14.55C12.974 14.6915 13.0943 14.8078 13.2385 14.887C13.3828 14.9661 13.5456 15.0052 13.71 15H14.29C14.4238 15.0031 14.5566 14.9769 14.6792 14.9234C14.8018 14.8698 14.9113 14.7902 15 14.69V12.17C14.6306 12.3027 14.2909 12.5065 14 12.77C13.45 12.278 12.7379 12.0061 12 12.0061C11.2621 12.0061 10.55 12.278 10 12.77C9.44998 12.278 8.73793 12.0061 8 12.0061C7.70511 12.0061 7.41436 12.0495 7.13643 12.133Z" fill="#0F1621"/>
</svg>
