<svg width="24" height="24" viewBox="0 0 24 24" fill="none" xmlns="http://www.w3.org/2000/svg">
<path d="M6 12H7.8L6 13.8V12ZM3.8 16L5.8 14H4V9.2L5.8 10H9.8L11.8 8H6.2L5.2 7.5L5.6 7L7 5H14.7L16.7 3H7.1C6.4 3 5.8 3.3 5.4 3.8L4.5 5H2V7H3.1L2.3 8.1C2.1 8.4 2 8.7 2 9.1V14C2 15 2.8 15.9 3.8 16ZM20.6 2L2 20.6L3.4 22L22 3.4L20.6 2ZM21 7.2L19.6 8.6L20 9.1V14H18V12H16.3L14.3 14H16V15C16 15.5 16.5 16 17 16H20C20.5 16 21 15.8 21.4 15.4C21.8 15 22 14.5 22 14V9.1C22 8.7 21.9 8.4 21.7 8.1L21 7.2ZM18 18.8C17.5 18.3 16.8 18 16 18C15.2 18 14.5 18.3 14 18.8C13.5 18.3 12.8 18 12 18C11.2 18 10.5 18.3 10 18.8L8.6 20.2C8.7 20.3 8.8 20.4 8.9 20.6C9 20.8 9.4 21 9.7 21H10.3C10.6 21 11 20.8 11.1 20.5C11.3 20.2 11.6 20 12 20C12.4 20 12.7 20.2 12.9 20.5C13 20.8 13.4 21 13.7 21H14.3C14.6 21 15 20.8 15.1 20.5C15.3 20.2 15.6 20 16 20C16.4 20 16.7 20.2 16.9 20.5C17 20.8 17.4 21 17.7 21H18.3C18.6 21 19 20.8 19.1 20.5C19.3 20.2 19.6 20 20 20C20.4 20 20.7 20.2 20.9 20.5C21 20.8 21.4 21 21.7 21H22V18.8C21.5 18.3 20.8 18 20 18C19.2 18 18.5 18.3 18 18.8Z" fill="#0F1621"/>
</svg>
