<svg width="16" height="16" viewBox="0 0 16 16" fill="none" xmlns="http://www.w3.org/2000/svg">
<path d="M2.07903 4.83398C2.09084 4.13155 2.47034 3.48683 3.07875 3.13557L6.31356 1.26795C6.92196 0.916686 7.67006 0.910395 8.28428 1.25137L11.908 3.26301C12.2249 3.43895 12.488 3.69771 12.6693 4.01164L13.8923 6.12995C14.1684 6.60824 14.0046 7.21983 13.5263 7.49598L12.2577 8.22838C11.9682 8.39556 11.6142 8.40696 11.3145 8.25877L10.1782 7.69694L6.7141 9.69695L6.63252 10.9619C6.61101 11.2956 6.42416 11.5964 6.1346 11.7636L4.86603 12.496C4.38774 12.7721 3.77615 12.6083 3.50001 12.13L2.27698 10.0116C2.09574 9.69771 2.00322 9.34043 2.00932 8.978L2.07903 4.83398ZM5.59807 9.76394C6.07637 9.48779 6.24024 8.8762 5.9641 8.39791C5.68796 7.91962 5.07637 7.75574 4.59807 8.03189C4.11978 8.30803 3.95591 8.91962 4.23205 9.39791C4.50819 9.8762 5.11978 10.0401 5.59807 9.76394ZM11.1603 5.39791C10.8841 4.91962 10.2725 4.75574 9.79423 5.03189C9.31593 5.30803 9.15206 5.91962 9.4282 6.39791C9.70434 6.8762 10.3159 7.04008 10.7942 6.76394C11.2725 6.48779 11.4364 5.8762 11.1603 5.39791ZM7.43801 2.3508L3.54089 4.6008L3.49186 7.51586L9.98705 3.76586L7.43801 2.3508Z" fill="#0E1520"/>
<path d="M1 13H2.08579C2.351 13 2.60062 13.1103 2.80118 13.2839C3.16909 13.6022 3.75867 14 4.5 14C5.24133 14 5.83091 13.6022 6.19882 13.2839C6.39938 13.1103 6.649 13 6.91421 13H15V14H6.70711C6.5745 14 6.44853 14.0535 6.35228 14.1447C6.00829 14.4707 5.3551 15 4.5 15C3.6449 15 2.99171 14.4707 2.64772 14.1447C2.55147 14.0535 2.4255 14 2.29289 14H1V13Z" fill="#0E1520"/>
</svg>
