<svg width="16" height="16" viewBox="0 0 16 16" fill="none" xmlns="http://www.w3.org/2000/svg">
<path d="M2.96417 3.25019C2.35576 3.6014 2.00682 4.26219 1.995 4.9645V9.00152C1.98891 9.3639 2.08143 9.72128 2.26267 10.0352L3.25001 11.7453C3.52615 12.2236 4.13764 12.3876 4.61593 12.1114L6.16517 11.217C6.28215 11.1494 6.36676 11.0375 6.39986 10.9065L6.69969 9.72032L10.1638 7.72031L11.3409 8.05377C11.4709 8.09059 11.6102 8.07325 11.7272 8.00571L13.2763 7.11136C13.7546 6.83522 13.9185 6.22363 13.6423 5.74534L12.655 4.03516C12.4737 3.72128 12.2106 3.46244 11.8937 3.28653L8.24336 1.32348C7.62913 0.982551 7.03671 0.898886 6.4283 1.25009L2.96417 3.25019ZM7.15732 2.56133C7.30649 2.4752 7.48949 2.47193 7.64165 2.55265L9.97274 3.78938L3.47754 7.53938L3.49773 4.95897C3.49912 4.78173 3.59423 4.61848 3.74772 4.52986L7.15732 2.56133ZM4.91742 9.88326C4.49891 10.1248 3.96377 9.98142 3.72214 9.56298C3.48052 9.14454 3.62391 8.6093 4.04242 8.36771C4.46092 8.12612 4.99606 8.26954 5.23769 8.68798C5.47932 9.10642 5.33593 9.64167 4.91742 9.88326ZM11.455 5.09899C11.6966 5.51743 11.5532 6.05268 11.1347 6.29426C10.7162 6.53585 10.1811 6.39243 9.93944 5.97399C9.69781 5.55555 9.8412 5.0203 10.2597 4.77872C10.6782 4.53713 11.2134 4.68055 11.455 5.09899Z" fill="#0F1621"/>
<path d="M9.5239 12.7501C9.30923 12.7501 9.09818 12.8054 8.91108 12.9106L5.82432 14.6469C5.41269 14.8785 4.94837 15.0001 4.4761 15.0001H3.96125C3.12584 15.0001 2.33573 14.6203 1.81386 13.968L1.71459 13.8439C1.66715 13.7846 1.59532 13.7501 1.51938 13.7501H1V12.2501H1.51938C2.051 12.2501 2.55379 12.4917 2.8859 12.9069L2.98516 13.0309C3.22238 13.3275 3.58152 13.5001 3.96125 13.5001H4.4761C4.69077 13.5001 4.90182 13.4448 5.08892 13.3395L8.17568 11.6032C8.58731 11.3717 9.05163 11.2501 9.5239 11.2501H15V12.7501H9.5239Z" fill="#0F1621"/>
</svg>
