<svg width="24" height="24" viewBox="0 0 24 24" fill="none" xmlns="http://www.w3.org/2000/svg">
<path d="M6.17637 17.1172L3.97876 12.6114L4.00233 7.17728C4.00728 6.03501 4.6605 4.99466 5.68719 4.49391L10.283 2.25237C11.3097 1.75162 12.5317 1.87738 13.4349 2.57673L17.7315 5.90375L19.9291 10.4095C20.1712 10.9059 19.9204 11.5264 19.424 11.7685L16.9519 12.9742C16.4555 13.2163 15.8569 13.0102 15.6148 12.5138L15.2246 11.714L10.101 14.2129L10.4911 15.0127C10.7332 15.5091 10.5271 16.1078 10.0307 16.3499L7.5586 17.5556C7.06221 17.7977 6.41847 17.6136 6.17637 17.1172ZM6.56393 6.2915C6.2217 6.45842 6.00396 6.8052 6.00231 7.18596L5.99121 9.74542L14.2341 5.7251L12.2104 4.15808C11.9093 3.92496 11.502 3.88304 11.1598 4.04996L6.56393 6.2915ZM16.0811 6.96785L5.8338 11.966L7.52298 15.4293L8.37692 15.0127L7.51634 13.2484L16.0558 9.08339L16.9164 10.8478L17.7703 10.4313L16.0811 6.96785Z" fill="#0F1621"/>
<path d="M13.4721 19C13.3169 19 13.1638 19.0361 13.0249 19.1056L7.8695 21.6833C7.45294 21.8916 6.9936 22 6.52786 22H6.23607C5.09975 22 4.06096 21.358 3.55279 20.3416L3.38197 20H2V18H3.38197C4.13951 18 4.83204 18.428 5.17082 19.1056L5.34164 19.4472C5.51103 19.786 5.8573 20 6.23607 20H6.52786C6.68311 20 6.83622 19.9639 6.97508 19.8944L12.1305 17.3167C12.5471 17.1084 13.0064 17 13.4721 17H22V19H13.4721Z" fill="#0F1621"/>
</svg>
