<svg width="16" height="16" viewBox="0 0 16 16" fill="none" xmlns="http://www.w3.org/2000/svg">
<path d="M1 15V14L3 13.25L5.5 14L8 12.5L10.5 14L12.5 13.25L15 14V15H1Z" fill="#0E1520"/>
<path d="M8.5 1H11.5795L12.3621 4H14V5.5H12.7534L13.1683 7.09031C14.2245 7.3826 15 8.35074 15 9.5C15 10.8807 13.8807 12 12.5 12C11.1193 12 10 10.8807 10 9.5C10 8.42349 10.6804 7.5059 11.6346 7.15382L11.2032 5.5H10.9956C10.9956 5.5 9.65212 6.20054 9 7.5C8.34788 8.79946 8.5 10.5 8.5 10.5H6.49217L5.98857 9.7406C5.86751 11.0084 4.79955 12 3.5 12C2.11929 12 1 10.8807 1 9.5C1 8.11929 2.11929 7 3.5 7C3.75992 7 4.01057 7.03967 4.24624 7.11327L3.17638 5.5H1V4H3.98151L4.64467 5H7.23474L8.47158 4H10.8119L10.4206 2.5H8.5V1ZM4.5 9.5C4.5 8.94772 4.05228 8.5 3.5 8.5C2.94772 8.5 2.5 8.94772 2.5 9.5C2.5 10.0523 2.94772 10.5 3.5 10.5C4.05228 10.5 4.5 10.0523 4.5 9.5ZM13.5 9.5C13.5 8.94772 13.0523 8.5 12.5 8.5C11.9477 8.5 11.5 8.94772 11.5 9.5C11.5 10.0523 11.9477 10.5 12.5 10.5C13.0523 10.5 13.5 10.0523 13.5 9.5Z" fill="#0E1520"/>
</svg>
