<svg width="16" height="16" viewBox="0 0 16 16" fill="none" xmlns="http://www.w3.org/2000/svg">
<path d="M7.4 11.4C9.6 11.4 11.4 9.6 11.4 7.4C11.4 5.2 9.6 3.4 7.4 3.4C5.2 3.4 3.4 5.2 3.4 7.4C3.4 9.6 5.2 11.4 7.4 11.4ZM7 4.7H8.3V10H7V6.4H5.7L7 4.7ZM14.4 11.4V12.1C14.4 13.2 13.5 14.1 12.4 14.1H3C1.9 14.1 1 13.2 1 12.1V11.4C1 10.4 1.8 9.5 2.8 9.4C3 9.9 3.3 10.3 3.7 10.7H2.4V12.7H13.1V10.7H11.1C11.5 10.3 11.7 9.9 12 9.4H12.4C13.5 9.4 14.4 10.3 14.4 11.4ZM7.4 2.4C7.2 2.4 7.1 2.4 7 2.4C7.6 1.6 8.6 1 9.7 1C11.5 1 13 2.5 13 4.3C13 5.1 12.7 5.8 12.2 6.4C11.8 4.1 9.8 2.4 7.4 2.4Z" fill="#0F1621"/>
</svg>
