<svg width="16" height="16" viewBox="0 0 16 16" fill="none" xmlns="http://www.w3.org/2000/svg">
<path d="M15 5.28L11 9.28V10C11 10.2652 11.1054 10.5196 11.2929 10.7071C11.4805 10.8946 11.7348 11 12 11H14C14.2652 11 14.5196 10.8946 14.7071 10.7071C14.8947 10.5196 15 10.2652 15 10V5.67C15.0148 5.54042 15.0148 5.40958 15 5.28ZM3.40003 1.8L1.40003 4.47C1.14038 4.81619 1.00003 5.23726 1.00003 5.67V10C0.998454 10.2073 1.06136 10.41 1.18003 10.58L5.76003 6H2.76003L4.76003 3.4C4.84692 3.28358 4.95813 3.18748 5.08592 3.11841C5.21372 3.04933 5.35503 3.00892 5.50003 3H8.76003L10.76 1H5.00003C4.68954 1 4.38331 1.07229 4.1056 1.21115C3.82789 1.35 3.58632 1.55161 3.40003 1.8ZM14 12.8C13.45 12.308 12.738 12.0361 12 12.0361C11.2621 12.0361 10.5501 12.308 10 12.8C9.51507 12.3444 8.89242 12.063 8.23003 12L5.32003 14.92C5.44335 14.9725 5.57598 14.9997 5.71003 15H6.29003C6.45446 15.0052 6.61726 14.9661 6.76148 14.887C6.90571 14.8078 7.02607 14.6915 7.11003 14.55C7.19395 14.3862 7.32144 14.2487 7.47847 14.1527C7.63551 14.0568 7.81598 14.006 8.00003 14.006C8.18408 14.006 8.36455 14.0568 8.52158 14.1527C8.67862 14.2487 8.80611 14.3862 8.89003 14.55C8.97399 14.6915 9.09435 14.8078 9.23857 14.887C9.38279 14.9661 9.5456 15.0052 9.71003 15H10.29C10.4545 15.0052 10.6173 14.9661 10.7615 14.887C10.9057 14.8078 11.0261 14.6915 11.11 14.55C11.1939 14.3862 11.3214 14.2487 11.4785 14.1527C11.6355 14.0568 11.816 14.006 12 14.006C12.1841 14.006 12.3646 14.0568 12.5216 14.1527C12.6786 14.2487 12.8061 14.3862 12.89 14.55C12.974 14.6915 13.0944 14.8078 13.2386 14.887C13.3828 14.9661 13.5456 15.0052 13.71 15H14.29C14.4238 15.0031 14.5566 14.9769 14.6793 14.9234C14.8019 14.8698 14.9113 14.7902 15 14.69V12.17C14.6307 12.3027 14.2909 12.5065 14 12.77V12.8ZM2.41003 15L1.00003 13.59L13.59 1L15 2.42L2.41003 15Z" fill="#0F1621"/>
</svg>
