<svg width="16" height="16" viewBox="0 0 16 16" fill="none" xmlns="http://www.w3.org/2000/svg">
<path d="M13 11V13H3V11H1V15H15V11H13ZM12 10C12.003 10.3377 11.9593 10.6743 11.87 11H9V9H7V11H4.13C4.04073 10.6743 3.99699 10.3377 4 10C4 8.93913 4.42143 7.92172 5.17157 7.17157C5.92172 6.42143 6.93913 6 8 6C9.06087 6 10.0783 6.42143 10.8284 7.17157C11.5786 7.92172 12 8.93913 12 10ZM12 5C12.01 5.16985 12.01 5.34015 12 5.51C10.9 4.52609 9.47586 3.98214 8 3.98214C6.52414 3.98214 5.10004 4.52609 4 5.51C3.99005 5.34015 3.99005 5.16985 4 5C4 3.93913 4.42143 2.92172 5.17157 2.17157C5.92172 1.42143 6.93913 1 8 1C9.06087 1 10.0783 1.42143 10.8284 2.17157C11.5786 2.92172 12 3.93913 12 5Z" fill="#0F1621"/>
</svg>
