<svg width="24" height="24" viewBox="0 0 24 24" fill="none" xmlns="http://www.w3.org/2000/svg">
<path d="M22 5C22 5.59334 21.8241 6.17336 21.4944 6.66671C21.1648 7.16006 20.6962 7.54458 20.1481 7.77164C19.5999 7.9987 18.9967 8.05811 18.4147 7.94236C17.8328 7.8266 17.2982 7.54088 16.8787 7.12132C16.4591 6.70176 16.1734 6.16721 16.0576 5.58527C15.9419 5.00333 16.0013 4.40013 16.2284 3.85195C16.4554 3.30377 16.8399 2.83524 17.3333 2.50559C17.8266 2.17595 18.4067 2 19 2C19.7957 2 20.5587 2.31607 21.1213 2.87868C21.6839 3.44129 22 4.20435 22 5ZM8 19C8 19.5933 7.82405 20.1734 7.49441 20.6667C7.16477 21.1601 6.69623 21.5446 6.14805 21.7716C5.59987 21.9987 4.99667 22.0581 4.41473 21.9424C3.83279 21.8266 3.29824 21.5409 2.87868 21.1213C2.45912 20.7018 2.1734 20.1672 2.05765 19.5853C1.94189 19.0033 2.0013 18.4001 2.22836 17.8519C2.45543 17.3038 2.83994 16.8352 3.33329 16.5056C3.82664 16.1759 4.40666 16 5 16C5.79565 16 6.55871 16.3161 7.12132 16.8787C7.68393 17.4413 8 18.2044 8 19ZM6 19C6 18.8022 5.94135 18.6089 5.83147 18.4444C5.72159 18.28 5.56541 18.1518 5.38268 18.0761C5.19996 18.0004 4.99889 17.9806 4.80491 18.0192C4.61093 18.0578 4.43275 18.153 4.29289 18.2929C4.15304 18.4327 4.0578 18.6109 4.01922 18.8049C3.98063 18.9989 4.00043 19.2 4.07612 19.3827C4.15181 19.5654 4.27998 19.7216 4.44443 19.8315C4.60888 19.9414 4.80222 20 5 20C5.26522 20 5.51957 19.8946 5.70711 19.7071C5.89464 19.5196 6 19.2652 6 19ZM17 11H7C6.46957 11 5.96086 10.7893 5.58579 10.4142C5.21072 10.0391 5 9.53043 5 9V8C5 7.46957 5.21072 6.96086 5.58579 6.58579C5.96086 6.21071 6.46957 6 7 6H14V4H7C5.93914 4 4.92172 4.42143 4.17157 5.17157C3.42143 5.92172 3 6.93913 3 8V9C3 10.0609 3.42143 11.0783 4.17157 11.8284C4.92172 12.5786 5.93914 13 7 13H17C17.5304 13 18.0391 13.2107 18.4142 13.5858C18.7893 13.9609 19 14.4696 19 15V16C19 16.5304 18.7893 17.0391 18.4142 17.4142C18.0391 17.7893 17.5304 18 17 18H10V20H17C18.0609 20 19.0783 19.5786 19.8284 18.8284C20.5786 18.0783 21 17.0609 21 16V15C21 13.9391 20.5786 12.9217 19.8284 12.1716C19.0783 11.4214 18.0609 11 17 11Z" fill="#0F1621"/>
</svg>
