<svg width="16" height="16" viewBox="0 0 16 16" fill="none" xmlns="http://www.w3.org/2000/svg">
<path d="M1 12H3V14H1V12ZM13 5C13.3956 5 13.7822 4.8827 14.1111 4.66294C14.44 4.44318 14.6964 4.13082 14.8478 3.76537C14.9991 3.39992 15.0387 2.99778 14.9616 2.60982C14.8844 2.22186 14.6939 1.86549 14.4142 1.58579C14.1345 1.30608 13.7781 1.1156 13.3902 1.03843C13.0022 0.96126 12.6001 1.00087 12.2346 1.15224C11.8692 1.30362 11.5568 1.55996 11.3371 1.88886C11.1173 2.21776 11 2.60444 11 3C11 3.53043 11.2107 4.03914 11.5858 4.41421C11.9609 4.78929 12.4696 5 13 5ZM15 10.5C15 11.4283 14.6313 12.3185 13.9749 12.9749C13.3185 13.6313 12.4283 14 11.5 14H5V12H11.5C11.8978 12 12.2794 11.842 12.5607 11.5607C12.842 11.2794 13 10.8978 13 10.5C13 10.1022 12.842 9.72064 12.5607 9.43934C12.2794 9.15804 11.8978 9 11.5 9H4.5C3.57174 9 2.6815 8.63125 2.02513 7.97487C1.36875 7.3185 1 6.42826 1 5.5C1 4.57174 1.36875 3.6815 2.02513 3.02513C2.6815 2.36875 3.57174 2 4.5 2H9V4H4.5C4.10218 4 3.72064 4.15804 3.43934 4.43934C3.15804 4.72065 3 5.10218 3 5.5C3 5.89783 3.15804 6.27936 3.43934 6.56066C3.72064 6.84197 4.10218 7 4.5 7H11.5C12.4283 7 13.3185 7.36875 13.9749 8.02513C14.6313 8.6815 15 9.57174 15 10.5Z" fill="#0E1520"/>
</svg>
