<svg width="16" height="16" viewBox="0 0 16 16" fill="none" xmlns="http://www.w3.org/2000/svg">
<g clip-path="url(#clip0)">
<path d="M1 11H3V13H1V11ZM13 4C13.3956 4 13.7822 3.8827 14.1111 3.66294C14.44 3.44318 14.6964 3.13082 14.8478 2.76537C14.9991 2.39992 15.0387 1.99778 14.9616 1.60982C14.8844 1.22186 14.6939 0.865492 14.4142 0.585787C14.1345 0.306082 13.7781 0.115601 13.3902 0.0384303C13.0022 -0.0387401 12.6001 0.000866562 12.2346 0.152242C11.8692 0.303617 11.5568 0.559962 11.3371 0.88886C11.1173 1.21776 11 1.60444 11 2C11 2.53043 11.2107 3.03914 11.5858 3.41421C11.9609 3.78929 12.4696 4 13 4ZM15 9.5C15 10.4283 14.6313 11.3185 13.9749 11.9749C13.3185 12.6313 12.4283 13 11.5 13H5V11H11.5C11.8978 11 12.2794 10.842 12.5607 10.5607C12.842 10.2794 13 9.89783 13 9.5C13 9.10218 12.842 8.72064 12.5607 8.43934C12.2794 8.15804 11.8978 8 11.5 8H4.5C3.57174 8 2.6815 7.63125 2.02513 6.97487C1.36875 6.3185 1 5.42826 1 4.5C1 3.57174 1.36875 2.6815 2.02513 2.02513C2.6815 1.36875 3.57174 1 4.5 1H9V3H4.5C4.10218 3 3.72064 3.15804 3.43934 3.43934C3.15804 3.72065 3 4.10218 3 4.5C3 4.89783 3.15804 5.27936 3.43934 5.56066C3.72064 5.84197 4.10218 6 4.5 6H11.5C12.4283 6 13.3185 6.36875 13.9749 7.02513C14.6313 7.6815 15 8.57174 15 9.5Z" fill="#0F1621"/>
</g>
<defs>
<clipPath id="clip0">
<rect width="16" height="16" fill="white"/>
</clipPath>
</defs>
</svg>
