<svg width="24" height="24" viewBox="0 0 24 24" fill="none" xmlns="http://www.w3.org/2000/svg">
<path d="M17.4066 3C16.8699 3 16.3983 3.35574 16.2509 3.87172L15.9377 4.96789C15.7183 5.7357 16.2948 6.5 17.0934 6.5C17.63 6.5 18.1016 6.14426 18.249 5.62828L18.5622 4.53211C18.7816 3.7643 18.2051 3 17.4066 3Z" fill="#0F1621"/>
<path d="M10.5792 8.10556C10.9179 7.42799 11.6105 6.99999 12.368 6.99999H16.6492C17.1033 6.99999 17.544 7.15455 17.8986 7.43825L19.8508 8.99999H22V11H19.8508C19.3966 11 18.956 10.8454 18.6014 10.5617L17.1825 9.42661L15.7388 12.675L18.5 14.7282V19H16.5V15.7333L14.09 13.9413L13.1398 16H8V14H11.8602L14.1679 8.99999H12.368L11.3944 10.9472L9.60554 10.0528L10.5792 8.10556Z" fill="#0F1621"/>
<path d="M2 9.25H6V7.75H2V9.25Z" fill="#0F1621"/>
<path d="M5 15.75H2V14.25H5V15.75Z" fill="#0F1621"/>
<path d="M4 12.5H7V11H4V12.5Z" fill="#0F1621"/>
</svg>
