<svg width="24" height="24" viewBox="0 0 24 24" fill="none" xmlns="http://www.w3.org/2000/svg">
<path d="M10.6691 4.16728V5.33456C10.6691 5.97923 11.1917 6.50183 11.8364 6.50183C12.4811 6.50183 13.0037 5.97923 13.0037 5.33456V4.16728C13.0037 3.52261 12.4811 3 11.8364 3C11.1917 3 10.6691 3.52261 10.6691 4.16728Z" fill="#0F1621"/>
<path d="M8 7.5H13L15 9.5H18V11.25H14.875C14.3172 11.25 13.7877 11.0141 13.3915 10.6214C13.1609 10.3929 12.9072 10.1541 12.7118 10.0037V12.7723L16.7971 17.4023L15.0466 18.9469L11.446 14.8662L11.1057 15.887L7.99268 19L6.3419 17.3492L9.06525 14.6259L9.50185 13.3161V10.0037H7.75092V12.5H6V10.4872C6 9.9454 6.11691 9.38309 6.5 9L8 7.5Z" fill="#0F1621"/>
</svg>
