<svg width="16" height="16" viewBox="0 0 16 16" fill="none" xmlns="http://www.w3.org/2000/svg">
<path d="M11.7934 1C11.4191 1 11.0868 1.23953 10.9684 1.59464L10.7149 2.35536C10.5272 2.91848 10.9463 3.5 11.5399 3.5C11.9142 3.5 12.2465 3.26047 12.3649 2.90536L12.6185 2.14464C12.8062 1.58152 12.387 1 11.7934 1Z" fill="#0F1621"/>
<path d="M7.93524 5.74998L7.15118 7.12208L5.84881 6.37787L6.65687 4.96378C6.9091 4.52238 7.3785 4.24997 7.88688 4.24998L11.7238 4.24998C12.0996 4.24998 12.4599 4.39923 12.7256 4.66491L13.644 5.58331H15V7.08331H13.6095C13.2337 7.08331 12.8734 6.93406 12.6077 6.66838L11.6893 5.74998H11.4939L10.448 8.18133L12.75 9.56252V13H11.25V10.4118L9.18766 9.1744L8.4874 10.75H5V9.24998H7.5126L9.06815 5.74998L7.93524 5.74998Z" fill="#0F1621"/>
<path d="M1 5.62499H3V4.37499H1V5.62499Z" fill="#0F1621"/>
<path d="M3 9.37499V10.625H1V9.37499H3Z" fill="#0F1621"/>
<path d="M2 6.87499V8.12499H4V6.87499H2Z" fill="#0F1621"/>
</svg>
