<svg width="16" height="16" viewBox="0 0 16 16" fill="none" xmlns="http://www.w3.org/2000/svg">
<path d="M4.09571 1.95729C4.04446 1.44475 4.44695 1 4.96205 1C5.40935 1 5.78388 1.33894 5.82839 1.78402L5.90426 2.54271C5.95551 3.05525 5.55302 3.5 5.03792 3.5C4.59062 3.5 4.21609 3.16106 4.17158 2.71598L4.09571 1.95729Z" fill="#1C232E"/>
<path d="M4.12848 6.697L3.14796 8.3779C2.93925 8.73569 2.48001 8.85654 2.12222 8.64783C1.76443 8.43912 1.64358 7.97989 1.85229 7.6221L3.45758 4.87016C3.6816 4.48614 4.09272 4.25 4.53731 4.25H5.53017C5.88055 4.25 6.21485 4.39706 6.45161 4.65534L8.61875 7.0195L9.33213 6.54391C9.6196 6.35227 9.95736 6.25 10.3029 6.25H12.1567L12.7098 10.3985C12.7132 10.4023 12.7167 10.406 12.7203 10.4096L14.0304 11.7197C14.3233 12.0126 14.3233 12.4874 14.0304 12.7803C13.7375 13.0732 13.2626 13.0732 12.9697 12.7803L11.6597 11.4703C11.4829 11.2935 11.3466 11.0815 11.2591 10.8488L11.2567 10.8491L11.2552 10.8385C11.2381 10.7921 11.223 10.7449 11.2098 10.697L10.4425 12.5385C10.2832 12.9209 9.84409 13.1017 9.46173 12.9424C9.07938 12.7831 8.89857 12.3439 9.05789 11.9616L10.2334 9.14038L10.0891 7.84202L8.92698 8.61679C8.86467 8.66003 8.79744 8.69267 8.72772 8.71482C8.62161 8.74867 8.5108 8.75777 8.4033 8.74374C8.30318 8.73076 8.20535 8.69763 8.1164 8.64464C8.05083 8.60567 7.99051 8.55623 7.93814 8.49685L6.25798 6.66394L6.71485 9.70975C6.71929 9.73935 6.72901 9.76791 6.74354 9.79408L7.90562 11.8858C8.10678 12.2479 7.97632 12.7045 7.61424 12.9057C7.25215 13.1068 6.79555 12.9764 6.59439 12.6143L5.43231 10.5225C5.33056 10.3394 5.26252 10.1395 5.23144 9.93226L5.17747 9.57246L3.67098 12.5854C3.48574 12.9559 3.03524 13.1061 2.66475 12.9208C2.29427 12.7356 2.1441 12.2851 2.32934 11.9146L4.23644 8.10042L4.12848 6.697Z" fill="#1C232E"/>
<path d="M10.342 3.82773C10.293 3.38617 10.6386 3 11.0829 3C11.4627 3 11.7818 3.28559 11.8238 3.6631L11.9081 4.42227C11.9572 4.86383 11.6115 5.25 11.1673 5.25C10.7874 5.25 10.4683 4.96441 10.4264 4.5869L10.342 3.82773Z" fill="#1C232E"/>
<path d="M13.9172 9C14.2236 9 14.4639 8.72647 14.434 8.4215C14.3819 7.89171 14.3229 7.17401 14.2861 6.71143C14.2653 6.45083 14.048 6.25 13.7866 6.25H13L13.2087 8.54527C13.2321 8.80281 13.448 9 13.7066 9H13.9172Z" fill="#1C232E"/>
</svg>
