<svg width="24" height="24" viewBox="0 0 24 24" fill="none" xmlns="http://www.w3.org/2000/svg">
<path d="M6.33994 5.0793C6.29152 4.4983 6.75003 4 7.33305 4C7.85134 4 8.28311 4.39729 8.32615 4.91379L8.41006 5.9207C8.45848 6.5017 7.99997 7 7.41695 7C6.89866 7 6.46689 6.60271 6.42385 6.08621L6.33994 5.0793Z" fill="#1C232E"/>
<path d="M6.2011 11.3651L4.84801 13.53C4.5553 13.9983 3.93835 14.1407 3.47001 13.848C3.00168 13.5553 2.8593 12.9383 3.15201 12.47L5.50514 8.705C5.77925 8.26643 6.25995 8 6.77714 8H8.27313C8.70567 8 9.11716 8.18672 9.40199 8.51224L12.2438 11.7601L14.4472 10.6584C14.6555 10.5542 14.8852 10.5 15.1181 10.5H17.4132L17.9632 16.5489L19.7071 18.2929C20.0977 18.6834 20.0977 19.3166 19.7071 19.7071C19.3166 20.0976 18.6834 20.0976 18.2929 19.7071L16.5355 17.9497C16.3092 17.7234 16.1418 17.4473 16.0451 17.1459L14.8945 19.4472C14.6475 19.9412 14.0468 20.1414 13.5528 19.8944C13.0588 19.6474 12.8586 19.0468 13.1056 18.5528L14.9702 14.8236L14.7125 12.7618L12.4659 13.8851C12.3959 13.922 12.3227 13.95 12.2478 13.969C11.8759 14.0645 11.4798 13.9365 11.234 13.6431L9.31107 11.4455L9.95477 15.6295L11.8321 18.4455C12.1384 18.905 12.0143 19.5259 11.5547 19.8323C11.0952 20.1386 10.4743 20.0144 10.168 19.5549L8.29067 16.7389C8.12904 16.4965 8.02233 16.2216 7.97803 15.9336L7.90115 15.4339L5.89446 19.4473C5.64747 19.9413 5.0468 20.1415 4.55282 19.8945C4.05884 19.6475 3.85862 19.0468 4.10561 18.5529L6.47354 13.817L6.2011 11.3651Z" fill="#1C232E"/>
<path d="M20.3241 11.1672L20.6575 14.1672C20.7068 14.6115 20.3591 15 19.9121 15H19.6713C19.2891 15 18.9681 14.7126 18.9259 14.3328L18.5 10.5H19.5787C19.9609 10.5 20.2819 10.7874 20.3241 11.1672Z" fill="#1C232E"/>
<path d="M15.7121 7C15.197 7 14.7945 7.44474 14.8457 7.95728L14.9216 8.716C14.9661 9.16107 15.3406 9.5 15.7879 9.5C16.303 9.5 16.7055 9.05528 16.6542 8.54276L16.5784 7.78404C16.5339 7.33895 16.1594 7 15.7121 7Z" fill="#1C232E"/>
</svg>
