<svg width="16" height="16" viewBox="0 0 16 16" fill="none" xmlns="http://www.w3.org/2000/svg">
<path d="M12.5302 9.65L11.2502 3.59C11.156 3.1401 10.9097 2.73639 10.5527 2.4468C10.1957 2.15722 9.74989 1.99943 9.29022 2H8.00022V4H9.29022L10.5302 9.86C10.1157 10.1311 9.80268 10.532 9.64022 11H6.36022C6.18883 10.5259 5.86255 10.1236 5.43415 9.85791C5.00574 9.59226 4.50026 9.47888 3.99943 9.53609C3.4986 9.59331 3.03171 9.81778 2.67426 10.1732C2.31681 10.5286 2.08969 10.9942 2.02963 11.4947C1.96957 11.9952 2.08008 12.5013 2.3433 12.9313C2.60651 13.3612 3.00703 13.6897 3.48011 13.8638C3.95318 14.0379 4.47114 14.0473 4.95023 13.8906C5.42932 13.7338 5.84154 13.42 6.12022 13H9.88022C10.0759 13.2977 10.3394 13.5446 10.6491 13.7206C10.9588 13.8965 11.3059 13.9964 11.6617 14.0121C12.0176 14.0277 12.3721 13.9586 12.696 13.8105C13.02 13.6624 13.3041 13.4395 13.5251 13.1601C13.7461 12.8808 13.8976 12.5529 13.9672 12.2036C14.0367 11.8543 14.0223 11.4934 13.9252 11.1507C13.8281 10.808 13.651 10.4932 13.4084 10.2323C13.1659 9.97145 12.8649 9.77186 12.5302 9.65Z" fill="#0F1621"/>
</svg>
