<svg width="24" height="24" viewBox="0 0 24 24" fill="none" xmlns="http://www.w3.org/2000/svg">
<path d="M19.46 16.05L18.81 12.58L17 2.82001C16.9574 2.58705 16.8335 2.37677 16.6504 2.22661C16.4673 2.07645 16.2368 1.99615 16 2.00001H12V4.00001H15.17L16.69 12.11L12.49 18H7.82C7.58411 17.3328 7.11994 16.7705 6.50952 16.4124C5.89911 16.0543 5.18177 15.9235 4.48427 16.0432C3.78678 16.1629 3.15404 16.5253 2.6979 17.0664C2.24176 17.6074 1.99158 18.2923 1.99158 19C1.99158 19.7077 2.24176 20.3926 2.6979 20.9337C3.15404 21.4747 3.78678 21.8371 4.48427 21.9568C5.18177 22.0765 5.89911 21.9457 6.50952 21.5876C7.11994 21.2296 7.58411 20.6672 7.82 20H13.51L17.2 14.84L17.5 16.42C16.8903 16.7762 16.4258 17.3361 16.1883 18.0011C15.9507 18.6661 15.9554 19.3936 16.2014 20.0555C16.4474 20.7174 16.919 21.2713 17.5332 21.6197C18.1474 21.9681 18.8648 22.0887 19.5592 21.9602C20.2535 21.8318 20.8803 21.4625 21.3292 20.9174C21.7781 20.3723 22.0203 19.6864 22.0133 18.9803C22.0062 18.2742 21.7503 17.5932 21.2906 17.0572C20.8309 16.5212 20.1968 16.1645 19.5 16.05H19.46ZM5 20C4.80222 20 4.60888 19.9414 4.44443 19.8315C4.27998 19.7216 4.15181 19.5654 4.07612 19.3827C4.00044 19.2 3.98063 18.9989 4.01922 18.8049C4.0578 18.6109 4.15305 18.4328 4.2929 18.2929C4.43275 18.1531 4.61093 18.0578 4.80491 18.0192C4.99889 17.9806 5.19996 18.0004 5.38269 18.0761C5.56541 18.1518 5.72159 18.28 5.83147 18.4444C5.94136 18.6089 6 18.8022 6 19C6 19.2652 5.89465 19.5196 5.70711 19.7071C5.51957 19.8947 5.26522 20 5 20ZM19 20C18.8022 20 18.6089 19.9414 18.4444 19.8315C18.28 19.7216 18.1518 19.5654 18.0761 19.3827C18.0004 19.2 17.9806 18.9989 18.0192 18.8049C18.0578 18.6109 18.153 18.4328 18.2929 18.2929C18.4327 18.1531 18.6109 18.0578 18.8049 18.0192C18.9989 17.9806 19.2 18.0004 19.3827 18.0761C19.5654 18.1518 19.7216 18.28 19.8315 18.4444C19.9414 18.6089 20 18.8022 20 19C20 19.2652 19.8946 19.5196 19.7071 19.7071C19.5196 19.8947 19.2652 20 19 20Z" fill="#0F1621"/>
</svg>
