<svg width="24" height="24" viewBox="0 0 24 24" fill="none" xmlns="http://www.w3.org/2000/svg">
<path d="M19.4596 16.05L18.8096 12.58L16.9996 2.82001C16.957 2.58705 16.8332 2.37677 16.65 2.22661C16.4669 2.07645 16.2364 1.99615 15.9996 2.00001H11.9996V4.00001H15.1696L16.6896 12.11L12.4896 18H7.81964C7.58374 17.3328 7.11957 16.7705 6.50916 16.4124C5.89875 16.0543 5.1814 15.9235 4.4839 16.0432C3.78641 16.1629 3.15367 16.5253 2.69753 17.0664C2.24139 17.6074 1.99121 18.2923 1.99121 19C1.99121 19.7077 2.24139 20.3926 2.69753 20.9337C3.15367 21.4747 3.78641 21.8371 4.4839 21.9568C5.1814 22.0765 5.89875 21.9457 6.50916 21.5876C7.11957 21.2296 7.58374 20.6672 7.81964 20H13.5096L17.1996 14.84L17.4996 16.42C16.8899 16.7762 16.4254 17.3361 16.1879 18.0011C15.9504 18.6661 15.955 19.3936 16.201 20.0555C16.447 20.7174 16.9186 21.2713 17.5328 21.6197C18.147 21.9681 18.8644 22.0887 19.5588 21.9602C20.2532 21.8318 20.88 21.4625 21.3288 20.9174C21.7777 20.3723 22.02 19.6864 22.0129 18.9803C22.0058 18.2742 21.7499 17.5932 21.2902 17.0572C20.8305 16.5212 20.1964 16.1645 19.4996 16.05H19.4596ZM4.99964 20C4.80186 20 4.60852 19.9414 4.44407 19.8315C4.27962 19.7216 4.15145 19.5654 4.07576 19.3827C4.00007 19.2 3.98027 18.9989 4.01885 18.8049C4.05744 18.6109 4.15268 18.4328 4.29253 18.2929C4.43238 18.1531 4.61057 18.0578 4.80455 18.0192C4.99853 17.9806 5.1996 18.0004 5.38232 18.0761C5.56505 18.1518 5.72123 18.28 5.83111 18.4444C5.94099 18.6089 5.99964 18.8022 5.99964 19C5.99964 19.2652 5.89428 19.5196 5.70674 19.7071C5.51921 19.8947 5.26485 20 4.99964 20ZM18.9996 20C18.8019 20 18.6085 19.9414 18.4441 19.8315C18.2796 19.7216 18.1514 19.5654 18.0758 19.3827C18.0001 19.2 17.9803 18.9989 18.0189 18.8049C18.0574 18.6109 18.1527 18.4328 18.2925 18.2929C18.4324 18.1531 18.6106 18.0578 18.8045 18.0192C18.9985 17.9806 19.1996 18.0004 19.3823 18.0761C19.565 18.1518 19.7212 18.28 19.8311 18.4444C19.941 18.6089 19.9996 18.8022 19.9996 19C19.9996 19.2652 19.8943 19.5196 19.7067 19.7071C19.5192 19.8947 19.2649 20 18.9996 20Z" fill="#0F1621"/>
</svg>
