<svg width="24" height="24" viewBox="0 0 24 24" fill="none" xmlns="http://www.w3.org/2000/svg">
<path d="M19.88 11.1199L13.51 4.75995C12.7601 4.0119 11.7442 3.5918 10.685 3.5918C9.62579 3.5918 8.60984 4.0119 7.85998 4.75995L6.43998 6.16995C6.06807 6.54144 5.77303 6.98259 5.57174 7.46819C5.37044 7.95378 5.26683 8.47428 5.26683 8.99995C5.26683 9.52561 5.37044 10.0461 5.57174 10.5317C5.77303 11.0173 6.06807 11.4585 6.43998 11.8299L9.14998 14.5399L5.68998 17.9999H2.09998V19.9999H5.68998C6.21955 19.9977 6.72663 19.7855 7.09998 19.4099L10.56 15.9999L12.81 18.2399L19.88 11.1199ZM7.26998 8.99995C7.27221 8.47037 7.48439 7.9633 7.85998 7.58995L9.26998 6.16995C9.45572 5.98399 9.6763 5.83648 9.91909 5.73583C10.1619 5.63518 10.4221 5.58337 10.685 5.58337C10.9478 5.58337 11.2081 5.63518 11.4509 5.73583C11.6937 5.83648 11.9142 5.98399 12.1 6.16995L17.1 11.1199L12.86 15.3599L7.85998 10.4099C7.48439 10.0366 7.27221 9.52952 7.26998 8.99995ZM17.76 20.3099L17.05 19.6099C16.864 19.4242 16.7165 19.2036 16.6159 18.9608C16.5152 18.718 16.4634 18.4578 16.4634 18.1949C16.4634 17.9321 16.5152 17.6719 16.6159 17.4291C16.7165 17.1863 16.864 16.9657 17.05 16.7799L18.46 15.3599C18.6457 15.174 18.8663 15.0265 19.1091 14.9258C19.3519 14.8252 19.6121 14.7734 19.875 14.7734C20.1378 14.7734 20.3981 14.8252 20.6409 14.9258C20.8837 15.0265 21.1042 15.174 21.29 15.3599L22 16.0699L17.76 20.3099Z" fill="#0F1621"/>
</svg>
