<svg width="24" height="24" viewBox="0 0 24 24" fill="none" xmlns="http://www.w3.org/2000/svg">
<path d="M19.8796 11.12L13.5096 4.76001C12.7597 4.01196 11.7438 3.59186 10.6846 3.59186C9.62542 3.59186 8.60947 4.01196 7.85961 4.76001L6.43961 6.17001C6.0677 6.5415 5.77267 6.98265 5.57137 7.46825C5.37007 7.95384 5.26646 8.47435 5.26646 9.00001C5.26646 9.52567 5.37007 10.0462 5.57137 10.5318C5.77267 11.0174 6.0677 11.4585 6.43961 11.83L9.14961 14.54L5.68961 18H2.09961V20H5.68961C6.21919 19.9978 6.72626 19.7856 7.09961 19.41L10.5596 16L12.8096 18.24L19.8796 11.12ZM7.26961 9.00001C7.27184 8.47043 7.48402 7.96336 7.85961 7.59001L9.26961 6.17001C9.45536 5.98406 9.67593 5.83654 9.91873 5.73589C10.1615 5.63524 10.4218 5.58343 10.6846 5.58343C10.9474 5.58343 11.2077 5.63524 11.4505 5.73589C11.6933 5.83654 11.9139 5.98406 12.0996 6.17001L17.0996 11.12L12.8596 15.36L7.85961 10.41C7.48402 10.0367 7.27184 9.52958 7.26961 9.00001ZM17.7596 20.31L17.0496 19.61C16.8637 19.4243 16.7161 19.2037 16.6155 18.9609C16.5148 18.7181 16.463 18.4578 16.463 18.195C16.463 17.9322 16.5148 17.6719 16.6155 17.4291C16.7161 17.1863 16.8637 16.9658 17.0496 16.78L18.4596 15.36C18.6454 15.1741 18.8659 15.0265 19.1087 14.9259C19.3515 14.8252 19.6118 14.7734 19.8746 14.7734C20.1374 14.7734 20.3977 14.8252 20.6405 14.9259C20.8833 15.0265 21.1039 15.1741 21.2896 15.36L21.9996 16.07L17.7596 20.31Z" fill="#0F1621"/>
</svg>
