<svg width="16" height="16" viewBox="0 0 16 16" fill="none" xmlns="http://www.w3.org/2000/svg">
<path d="M8.63 10.86L7.63 9.85998L5 12.41C4.62665 12.7856 4.11958 12.9977 3.59 13H1V11H3.59L6.18 8.40998L4.74 6.99998C4.4117 6.67562 4.15049 6.28976 3.97131 5.86445C3.79212 5.43914 3.69846 4.9827 3.69568 4.52119C3.69289 4.05969 3.78104 3.60215 3.95507 3.17471C4.12911 2.74726 4.38563 2.35829 4.71 2.02998C5.03437 1.70168 5.42022 1.44047 5.84553 1.26129C6.27084 1.0821 6.72728 0.988445 7.18879 0.98566C7.65029 0.982874 8.10783 1.07102 8.53527 1.24505C8.96272 1.41909 9.3517 1.67562 9.68 1.99998L13.58 5.88998L8.63 10.86ZM13.63 7.32998L10.09 10.86L11.5 12.28L15 8.73998L13.63 7.32998Z" fill="#0F1621"/>
</svg>
