<svg width="24" height="24" viewBox="0 0 24 24" fill="none" xmlns="http://www.w3.org/2000/svg">
<path d="M17.66 20.31L16.95 19.61C16.764 19.4243 16.6165 19.2037 16.5159 18.9609C16.4152 18.7181 16.3634 18.4578 16.3634 18.195C16.3634 17.9322 16.4152 17.6719 16.5159 17.4291C16.6165 17.1863 16.764 16.9658 16.95 16.78L18.36 15.36C18.5457 15.1741 18.7663 15.0265 19.0091 14.9259C19.2519 14.8252 19.5122 14.7734 19.775 14.7734C20.0378 14.7734 20.2981 14.8252 20.5409 14.9259C20.7837 15.0265 21.0043 15.1741 21.19 15.36L21.9 16.07L17.66 20.31ZM19.78 11.12L13.41 4.76001C12.6601 4.01196 11.6442 3.59186 10.585 3.59186C9.52581 3.59186 8.50987 4.01196 7.76 4.76001L6.34 6.17001C5.96809 6.5415 5.67306 6.98265 5.47176 7.46825C5.27046 7.95384 5.16685 8.47435 5.16685 9.00001C5.16685 9.52567 5.27046 10.0462 5.47176 10.5318C5.67306 11.0174 5.96809 11.4585 6.34 11.83L9.05 14.54L5.59 18H2V20H5.59C6.11958 19.9978 6.62665 19.7856 7 19.41L10.46 16L12.71 18.24L19.78 11.12Z" fill="#0F1621"/>
</svg>
