<svg width="24" height="24" viewBox="0 0 24 24" fill="none" xmlns="http://www.w3.org/2000/svg">
<path d="M20 11V10C20 8.9 19.1 8 18 8H15V6H13V16H12V8C12 6.9 11.1 6 10 6H4C2.9 6 2 6.9 2 8V17.4C2 18.6 2.8 19.8 4.1 20C5.5 20.2 6.7 19.3 7 18H7.1C7.3 19.1 8.3 20 9.5 20C10.7 20 11.7 19.1 11.9 18H15C15.2 19.1 16.2 20 17.4 20C18.6 20 19.6 19.1 19.8 18H22V13C22 11.9 21.1 11 20 11ZM4.5 18.5C3.9 18.5 3.5 18.1 3.5 17.5C3.5 16.9 3.9 16.5 4.5 16.5C5.1 16.5 5.5 16.9 5.5 17.5C5.5 18.1 5.1 18.5 4.5 18.5ZM7.5 16H6.5C6 15.4 5.3 15 4.5 15C4.3 15 4.2 15 4 15.1V8H10V15.1C9.8 15.1 9.7 15 9.5 15C8.7 15 8 15.4 7.5 16ZM9.5 18.5C8.9 18.5 8.5 18.1 8.5 17.5C8.5 16.9 8.9 16.5 9.5 16.5C10.1 16.5 10.5 16.9 10.5 17.5C10.5 18.1 10.1 18.5 9.5 18.5ZM17.5 18.5C16.9 18.5 16.5 18.1 16.5 17.5C16.5 16.9 16.9 16.5 17.5 16.5C18.1 16.5 18.5 16.9 18.5 17.5C18.5 18.1 18.1 18.5 17.5 18.5ZM20 16H19.5C19 15.4 18.3 15 17.5 15C16.7 15 16 15.4 15.5 16H15V10H18V13H20V16Z" fill="#0F1621"/>
</svg>
