<svg width="24" height="24" viewBox="0 0 24 24" fill="none" xmlns="http://www.w3.org/2000/svg">
<path d="M20 10V9C20 8.46957 19.7893 7.96086 19.4142 7.58579C19.0392 7.21071 18.5305 7 18 7H15V5H13V14H12V9C12 8.46957 11.7893 7.96086 11.4142 7.58579C11.0392 7.21071 10.5305 7 10 7H4.00003C3.46959 7 2.96088 7.21071 2.58581 7.58579C2.21074 7.96086 2.00003 8.46957 2.00003 9V15.5C1.93372 16.163 2.13353 16.8253 2.55548 17.341C2.97744 17.8567 3.58698 18.1837 4.25003 18.25C4.91307 18.3163 5.57529 18.1165 6.09102 17.6945C6.60674 17.2726 6.93372 16.663 7.00003 16H7.10003C7.21478 16.5651 7.52139 17.0732 7.9679 17.4382C8.4144 17.8031 8.97335 18.0025 9.55003 18.0025C10.1267 18.0025 10.6856 17.8031 11.1322 17.4382C11.5787 17.0732 11.8853 16.5651 12 16H15.1C15.2148 16.5651 15.5214 17.0732 15.9679 17.4382C16.4144 17.8031 16.9733 18.0025 17.55 18.0025C18.1267 18.0025 18.6856 17.8031 19.1322 17.4382C19.5787 17.0732 19.8853 16.5651 20 16H22V10H20ZM4.50003 16.5C4.30224 16.5 4.1089 16.4414 3.94446 16.3315C3.78001 16.2216 3.65183 16.0654 3.57615 15.8827C3.50046 15.7 3.48065 15.4989 3.51924 15.3049C3.55783 15.1109 3.65307 14.9327 3.79292 14.7929C3.93277 14.653 4.11095 14.5578 4.30494 14.5192C4.49892 14.4806 4.69998 14.5004 4.88271 14.5761C5.06543 14.6518 5.22161 14.78 5.3315 14.9444C5.44138 15.1089 5.50003 15.3022 5.50003 15.5C5.50003 15.7652 5.39467 16.0196 5.20713 16.2071C5.0196 16.3946 4.76524 16.5 4.50003 16.5ZM7.50003 14H6.50003C6.26716 13.6895 5.9652 13.4375 5.61806 13.2639C5.27092 13.0904 4.88814 13 4.50003 13C4.33218 13.0013 4.1648 13.018 4.00003 13.05V9H10V13.05C9.83525 13.018 9.66788 13.0013 9.50003 13C9.1136 13.0015 8.7328 13.0927 8.38752 13.2662C8.04224 13.4397 7.74188 13.6909 7.51003 14H7.50003ZM9.50003 16.5C9.30224 16.5 9.1089 16.4414 8.94446 16.3315C8.78001 16.2216 8.65183 16.0654 8.57615 15.8827C8.50046 15.7 8.48066 15.4989 8.51924 15.3049C8.55783 15.1109 8.65307 14.9327 8.79292 14.7929C8.93277 14.653 9.11095 14.5578 9.30494 14.5192C9.49892 14.4806 9.69998 14.5004 9.88271 14.5761C10.0654 14.6518 10.2216 14.78 10.3315 14.9444C10.4414 15.1089 10.5 15.3022 10.5 15.5C10.5 15.7652 10.3947 16.0196 10.2071 16.2071C10.0196 16.3946 9.76524 16.5 9.50003 16.5ZM17.5 16.5C17.3022 16.5 17.1089 16.4414 16.9445 16.3315C16.78 16.2216 16.6518 16.0654 16.5761 15.8827C16.5005 15.7 16.4807 15.4989 16.5192 15.3049C16.5578 15.1109 16.6531 14.9327 16.7929 14.7929C16.9328 14.653 17.111 14.5578 17.3049 14.5192C17.4989 14.4806 17.7 14.5004 17.8827 14.5761C18.0654 14.6518 18.2216 14.78 18.3315 14.9444C18.4414 15.1089 18.5 15.3022 18.5 15.5C18.5 15.7652 18.3947 16.0196 18.2071 16.2071C18.0196 16.3946 17.7652 16.5 17.5 16.5ZM20 14H19.49C19.2597 13.6858 18.9586 13.4304 18.6111 13.2543C18.2636 13.0782 17.8796 12.9864 17.49 12.9864C17.1005 12.9864 16.7164 13.0782 16.3689 13.2543C16.0215 13.4304 15.7204 13.6858 15.49 14H15V9H18V12H20V14Z" fill="#0F1621"/>
</svg>
