<svg width="16" height="16" viewBox="0 0 16 16" fill="none" xmlns="http://www.w3.org/2000/svg">
<path d="M15 15H1V13H15V15ZM10 4.33V3C10 2.46957 9.78929 1.96086 9.41421 1.58579C9.03914 1.21071 8.53043 1 8 1C7.46957 1 6.96086 1.21071 6.58579 1.58579C6.21071 1.96086 6 2.46957 6 3V4.33C6 4.86043 6.21071 5.36914 6.58579 5.74421C6.96086 6.11929 7.46957 6.33 8 6.33C8.53043 6.33 9.03914 6.11929 9.41421 5.74421C9.78929 5.36914 10 4.86043 10 4.33ZM13 8C13 7.73478 12.8946 7.48043 12.7071 7.29289C12.5196 7.10536 12.2652 7 12 7H10L8 9L6 7H4C3.73478 7 3.48043 7.10536 3.29289 7.29289C3.10536 7.48043 3 7.73478 3 8V11H13V8Z" fill="#0F1621"/>
</svg>
