<svg width="24" height="24" viewBox="0 0 24 24" fill="none" xmlns="http://www.w3.org/2000/svg">
<path d="M22 22H2V20H22V22ZM12 4C11.7348 4 11.4804 4.10536 11.2929 4.29289C11.1054 4.48043 11 4.73478 11 5V7C11 7.26522 11.1054 7.51957 11.2929 7.70711C11.4804 7.89464 11.7348 8 12 8C12.2652 8 12.5196 7.89464 12.7071 7.70711C12.8946 7.51957 13 7.26522 13 7V5C13 4.73478 12.8946 4.48043 12.7071 4.29289C12.5196 4.10536 12.2652 4 12 4ZM12 2C12.7956 2 13.5587 2.31607 14.1213 2.87868C14.6839 3.44129 15 4.20435 15 5V7C15 7.79565 14.6839 8.55871 14.1213 9.12132C13.5587 9.68393 12.7956 10 12 10C11.2044 10 10.4413 9.68393 9.87868 9.12132C9.31607 8.55871 9 7.79565 9 7V5C9 4.20435 9.31607 3.44129 9.87868 2.87868C10.4413 2.31607 11.2044 2 12 2ZM19 13V18H17V13H15.61L13.11 14.66L12 15.4L10.89 14.66L8.39 13H7V18H5V13C5 12.4696 5.21071 11.9609 5.58579 11.5858C5.96086 11.2107 6.46957 11 7 11H9L12 13L15 11H17C17.5304 11 18.0391 11.2107 18.4142 11.5858C18.7893 11.9609 19 12.4696 19 13Z" fill="#0F1621"/>
</svg>
