<svg width="24" height="24" viewBox="0 0 24 24" fill="none" xmlns="http://www.w3.org/2000/svg">
<path d="M16 18V7C16.5304 7 17.0391 7.21071 17.4142 7.58579C17.7893 7.96086 18 8.46957 18 9V16C18 16.5304 17.7893 17.0391 17.4142 17.4142C17.0391 17.7893 16.5304 18 16 18ZM12 3H4C3.46957 3 2.96086 3.21071 2.58579 3.58579C2.21071 3.96086 2 4.46957 2 5V19C2 19.5304 2.21071 20.0391 2.58579 20.4142C2.96086 20.7893 3.46957 21 4 21H12C12.5304 21 13.0391 20.7893 13.4142 20.4142C13.7893 20.0391 14 19.5304 14 19V5C14 4.46957 13.7893 3.96086 13.4142 3.58579C13.0391 3.21071 12.5304 3 12 3ZM7.5 19C6.80777 19 6.13108 18.7947 5.5555 18.4101C4.97993 18.0256 4.53133 17.4789 4.26642 16.8394C4.00152 16.1999 3.9322 15.4961 4.06725 14.8172C4.2023 14.1383 4.53564 13.5146 5.02513 13.0251C5.51461 12.5356 6.13825 12.2023 6.81718 12.0673C7.49612 11.9322 8.19985 12.0015 8.83939 12.2664C9.47893 12.5313 10.0256 12.9799 10.4101 13.5555C10.7947 14.1311 11 14.8078 11 15.5C11 16.4283 10.6313 17.3185 9.97487 17.9749C9.3185 18.6313 8.42826 19 7.5 19ZM10 9C9.60444 9 9.21776 8.8827 8.88886 8.66294C8.55996 8.44318 8.30362 8.13082 8.15224 7.76537C8.00087 7.39991 7.96126 6.99778 8.03843 6.60982C8.1156 6.22186 8.30608 5.86549 8.58579 5.58579C8.86549 5.30608 9.22186 5.1156 9.60982 5.03843C9.99778 4.96126 10.3999 5.00087 10.7654 5.15224C11.1308 5.30362 11.4432 5.55996 11.6629 5.88886C11.8827 6.21776 12 6.60444 12 7C12 7.53043 11.7893 8.03914 11.4142 8.41421C11.0391 8.78929 10.5304 9 10 9ZM22 16C21.4696 16 20.9609 15.7893 20.5858 15.4142C20.2107 15.0391 20 14.5304 20 14V11C20 10.4696 20.2107 9.96086 20.5858 9.58579C20.9609 9.21071 21.4696 9 22 9V16ZM7.5 14C7.79667 14 8.08668 14.088 8.33335 14.2528C8.58003 14.4176 8.77229 14.6519 8.88582 14.926C8.99935 15.2001 9.02906 15.5017 8.97118 15.7926C8.9133 16.0836 8.77044 16.3509 8.56066 16.5607C8.35088 16.7704 8.08361 16.9133 7.79264 16.9712C7.50166 17.0291 7.20006 16.9993 6.92597 16.8858C6.65189 16.7723 6.41762 16.58 6.2528 16.3334C6.08797 16.0867 6 15.7967 6 15.5C6 15.1022 6.15804 14.7206 6.43934 14.4393C6.72064 14.158 7.10218 14 7.5 14Z" fill="#0F1621"/>
</svg>
