<svg width="24" height="24" viewBox="0 0 24 24" fill="none" xmlns="http://www.w3.org/2000/svg">
<path d="M17 11L13 13.28C12.6971 13.1002 12.3522 13.0037 12 13C11.6044 13 11.2178 13.1173 10.8889 13.3371C10.56 13.5568 10.3036 13.8692 10.1522 14.2346C10.0009 14.6001 9.96126 15.0022 10.0384 15.3902C10.1156 15.7781 10.3061 16.1345 10.5858 16.4142C10.8655 16.6939 11.2219 16.8844 11.6098 16.9616C11.9978 17.0387 12.3999 16.9991 12.7654 16.8478C13.1308 16.6964 13.4432 16.44 13.6629 16.1111C13.8827 15.7822 14 15.3956 14 15L18 12.71L17 11ZM12 5C10.6227 4.99813 9.26021 5.28425 8 5.84V8.08C9.21369 7.37099 10.5944 6.9982 12 7C14.1217 7 16.1566 7.84285 17.6569 9.34315C19.1571 10.8434 20 12.8783 20 15C20.0001 15.5714 19.9397 16.1413 19.82 16.7L15.88 15.94C15.7216 16.6334 15.3757 17.2699 14.88 17.78L21.17 19C21.8343 17.4778 22.1091 15.8141 21.9694 14.1592C21.8298 12.5042 21.2801 10.9101 20.3701 9.52075C19.4601 8.13141 18.2184 6.9906 16.7571 6.20133C15.2957 5.41207 13.6608 4.99919 12 5ZM6 15H2V3H6V15ZM6 21H2V17H6V21Z" fill="#0F1621"/>
</svg>
