<svg width="16" height="16" viewBox="0 0 16 16" fill="none" xmlns="http://www.w3.org/2000/svg">
<path d="M8 6C8.24538 6 8.48941 6.01721 8.73047 6.05078C8.97158 6.08435 9.20989 6.13377 9.44336 6.2002C9.9101 6.33303 10.3581 6.53125 10.7744 6.79102C11.0819 6.98293 11.3671 7.15448 11.6543 7.30371C11.9233 7.44347 12.1948 7.56274 12.4893 7.66211C13.1388 7.88131 13.9006 8 15 8V10H1V8C2.86347 8 3.75817 7.66244 4.77734 7.06348L5.22559 6.79102C5.32981 6.72598 5.43593 6.66464 5.54395 6.60742C5.86733 6.4361 6.20676 6.29977 6.55664 6.2002C6.79011 6.13377 7.02842 6.08435 7.26953 6.05078C7.51059 6.0172 7.75461 6 8 6Z" fill="#092732"/>
</svg>
