<svg width="24" height="24" viewBox="0 0 24 24" fill="none" xmlns="http://www.w3.org/2000/svg">
<path d="M19.67 8.59L18.25 10C19.3842 11.4196 20.0014 13.183 20 15C20.0001 15.5714 19.9397 16.1413 19.82 16.7L15.88 15.94C15.7216 16.6334 15.3757 17.2699 14.88 17.78L21.17 19C21.7168 17.7373 21.9993 16.376 22 15C22.0053 12.6551 21.1799 10.3841 19.67 8.59ZM8 5.84V8.08C9.21369 7.37099 10.5944 6.9982 12 7C12.24 7 12.49 7 12.72 7L14.44 5.28C13.6425 5.08013 12.8221 4.98599 12 5C10.6227 4.99813 9.26021 5.28425 8 5.84ZM17.1 11.16L11.37 16.89C11.5723 16.962 11.7853 16.9992 12 17C12.5304 17 13.0391 16.7893 13.4142 16.4142C13.7893 16.0391 14 15.5304 14 15L18 12.71L17.1 11.16ZM6 3V13.75L4.75 15H2V3H6ZM3.43 22L2 20.57L20.57 2L22 3.43L3.43 22Z" fill="#0F1621"/>
</svg>
