<svg width="16" height="16" viewBox="0 0 16 16" fill="none" xmlns="http://www.w3.org/2000/svg">
<path d="M13.94 6.3L7.3 12.94C7.53112 12.9805 7.76536 13.0006 8 13C8.53499 13.0005 9.06464 12.8937 9.55761 12.6858C10.0506 12.478 10.4968 12.1734 10.87 11.79L14.33 13C14.8314 11.9399 15.0584 10.7709 14.9903 9.60021C14.9222 8.42953 14.561 7.29473 13.94 6.3ZM8 3C6.96134 2.99595 5.9354 3.2285 5 3.68V6.76L8.72 3C8.48023 2.98506 8.23977 2.98506 8 3ZM3 2V8.76L1.76 10H1V2H3ZM2.41 15L1 13.59L13.59 1L15 2.41L2.41 15Z" fill="#0F1621"/>
</svg>
