<svg width="24" height="24" viewBox="0 0 24 24" fill="none" xmlns="http://www.w3.org/2000/svg">
<path d="M16 12.4143L18 10.4143V16.0001C18 16.5305 17.7893 17.0392 17.4142 17.4143C17.0391 17.7894 16.5304 18.0001 16 18.0001V12.4143Z" fill="#0F1621"/>
<path d="M14 5.58586V5.00008C14 4.46964 13.7893 3.96093 13.4142 3.58586C13.0391 3.21079 12.5304 3.00008 12 3.00008H4C3.46957 3.00008 2.96086 3.21079 2.58579 3.58586C2.21071 3.96093 2 4.46964 2 5.00008V17.5859L4.00103 15.5848C3.99482 15.3286 4.01674 15.0712 4.06725 14.8173C4.2023 14.1383 4.53564 13.5147 5.02513 13.0252C5.51461 12.5357 6.13825 12.2024 6.81718 12.0673C7.07113 12.0168 7.32854 11.9949 7.58476 12.0011L10.7198 8.86605C10.4923 8.95381 10.2485 9.00008 10 9.00008C9.60444 9.00008 9.21776 8.88278 8.88886 8.66301C8.55996 8.44325 8.30362 8.1309 8.15224 7.76544C8.00087 7.39999 7.96126 6.99786 8.03843 6.60989C8.1156 6.22193 8.30608 5.86557 8.58579 5.58586C8.86549 5.30616 9.22186 5.11568 9.60982 5.0385C9.99778 4.96133 10.3999 5.00094 10.7654 5.15232C11.1308 5.30369 11.4432 5.56004 11.6629 5.88894C11.8827 6.21783 12 6.60451 12 7.00008C12 7.24862 11.9537 7.49239 11.866 7.71988L14 5.58586Z" fill="#0F1621"/>
<path d="M7.41421 21.0001L14 14.4143V19.0001C14 19.5305 13.7893 20.0392 13.4142 20.4143C13.0391 20.7894 12.5304 21.0001 12 21.0001H7.41421Z" fill="#0F1621"/>
<path d="M20.5858 15.4143C20.9609 15.7894 21.4696 16.0001 22 16.0001V9.00008C21.4696 9.00008 20.9609 9.21079 20.5858 9.58586C20.2107 9.96093 20 10.4696 20 11.0001V14.0001C20 14.5305 20.2107 15.0392 20.5858 15.4143Z" fill="#0F1621"/>
<path fill-rule="evenodd" clip-rule="evenodd" d="M21.7071 3.70718L3.70711 21.7072L2.29289 20.293L20.2929 2.29297L21.7071 3.70718Z" fill="#0F1621"/>
</svg>
