<svg width="24" height="24" viewBox="0 0 24 24" fill="none" xmlns="http://www.w3.org/2000/svg">
<path d="M12 5C10.6227 4.99813 9.26021 5.28425 8 5.84V18L9.13 17.78C9.50284 18.164 9.94896 18.4694 10.4419 18.6778C10.9349 18.8863 11.4647 18.9938 12 18.9938C12.5353 18.9938 13.0651 18.8863 13.5581 18.6778C14.051 18.4694 14.4972 18.164 14.87 17.78L21.17 19C21.8343 17.4778 22.1091 15.8141 21.9694 14.1592C21.8298 12.5042 21.2801 10.9101 20.3701 9.52075C19.4601 8.13141 18.2184 6.9906 16.7571 6.20133C15.2957 5.41207 13.6608 4.99919 12 5ZM14 15C14 15.3956 13.8827 15.7822 13.6629 16.1111C13.4432 16.44 13.1308 16.6964 12.7654 16.8478C12.3999 16.9991 11.9978 17.0387 11.6098 16.9616C11.2219 16.8844 10.8655 16.6939 10.5858 16.4142C10.3061 16.1345 10.1156 15.7781 10.0384 15.3902C9.96126 15.0022 10.0009 14.6001 10.1522 14.2346C10.3036 13.8692 10.56 13.5568 10.8889 13.3371C11.2178 13.1173 11.6044 13 12 13C12.3522 13.0037 12.6971 13.1002 13 13.28L17 11L18 12.73L14 15ZM6 15H2V3H6V15ZM6 21H2V17H6V21Z" fill="#0F1621"/>
</svg>
