<svg width="24" height="24" viewBox="0 0 24 24" fill="none" xmlns="http://www.w3.org/2000/svg">
<path d="M19.67 8.59L17.09 11.16L18 12.73L14 15C14 15.5304 13.7893 16.0391 13.4142 16.4142C13.0391 16.7893 12.5304 17 12 17C11.7821 16.9984 11.5659 16.9613 11.36 16.89L9.87 18.38C10.5053 18.788 11.245 19.0033 12 19C12.5357 18.9992 13.0658 18.8908 13.5588 18.6812C14.0518 18.4716 14.4977 18.1652 14.87 17.78L21.17 19C21.7168 17.7373 21.9993 16.376 22 15C22.0053 12.6551 21.1799 10.3841 19.67 8.59ZM12 5C10.6227 4.99813 9.26021 5.28425 8 5.84V11.75L14.44 5.3C13.6424 5.09819 12.8227 4.9974 12 5ZM6 3V13.75L4.75 15H2V3H6ZM3.43 22L2 20.57L20.57 2L22 3.43L3.43 22Z" fill="#0F1621"/>
</svg>
