<svg width="24" height="24" viewBox="0 0 24 24" fill="none" xmlns="http://www.w3.org/2000/svg">
<path fill-rule="evenodd" clip-rule="evenodd" d="M22 5H17.1C16.4 5 15.8 5.3 15.4 5.8L14.5 7L12 7V9L13.1 9L12.3 10.1C12.1 10.4 12 10.7 12 11.1V17C12 17.5 12.2 18 12.6 18.4C13 18.8 13.5 19 14 19L17 19C17.6 19 18 18.6 18 18V17H22V10L15 10L16.8 7.5C17 7.2 17.3 7 17.6 7L22 7V5ZM18 14L14 14V12H18V14Z" fill="#0F1621"/>
<path d="M7.76415 17.7056C10.7735 14.5052 10.7688 9.50326 7.75 6.3086L6.51192 7.54668C8.84817 10.0569 8.85286 13.9516 6.52596 16.4674L7.76415 17.7056Z" fill="#0F1621"/>
<path d="M5.50848 15.4499C7.27529 13.497 7.27066 10.5114 5.4946 8.56399L4.25514 9.80346C5.3506 11.0642 5.3551 12.9442 4.26864 14.21L5.50848 15.4499Z" fill="#0F1621"/>
<path d="M3.3806 13.322C3.98423 12.5504 3.97994 11.4579 3.36772 10.6909L2.05859 12L3.3806 13.322Z" fill="#0F1621"/>
</svg>
