<svg width="24" height="24" viewBox="0 0 24 24" fill="none" xmlns="http://www.w3.org/2000/svg">
<path d="M8 13C8.39556 13 8.78224 13.1173 9.11114 13.3371C9.44004 13.5568 9.69638 13.8692 9.84776 14.2346C9.99913 14.6001 10.0387 15.0022 9.96157 15.3902C9.8844 15.7781 9.69392 16.1345 9.41421 16.4142C9.13451 16.6939 8.77814 16.8844 8.39018 16.9616C8.00222 17.0387 7.60009 16.9991 7.23463 16.8478C6.86918 16.6964 6.55682 16.44 6.33706 16.1111C6.1173 15.7822 6 15.3956 6 15C6 14.4696 6.21071 13.9609 6.58579 13.5858C6.96086 13.2107 7.46957 13 8 13ZM12 5V19H4V5H12ZM12 3H4C3.46957 3 2.96086 3.21071 2.58579 3.58579C2.21071 3.96086 2 4.46957 2 5V19C2 19.5304 2.21071 20.0391 2.58579 20.4142C2.96086 20.7893 3.46957 21 4 21H12C12.5304 21 13.0391 20.7893 13.4142 20.4142C13.7893 20.0391 14 19.5304 14 19V5C14 4.46957 13.7893 3.96086 13.4142 3.58579C13.0391 3.21071 12.5304 3 12 3ZM9.5 9C9.20333 9 8.91332 8.91203 8.66665 8.7472C8.41997 8.58238 8.22771 8.34811 8.11418 8.07403C8.00065 7.79994 7.97094 7.49834 8.02882 7.20736C8.0867 6.91639 8.22956 6.64912 8.43934 6.43934C8.64912 6.22956 8.91639 6.0867 9.20736 6.02882C9.49834 5.97094 9.79994 6.00065 10.074 6.11418C10.3481 6.22771 10.5824 6.41997 10.7472 6.66664C10.912 6.91332 11 7.20333 11 7.5C11 7.89782 10.842 8.27936 10.5607 8.56066C10.2794 8.84196 9.89782 9 9.5 9ZM16 18V7C16.5304 7 17.0391 7.21071 17.4142 7.58579C17.7893 7.96086 18 8.46957 18 9V16C18 16.5304 17.7893 17.0391 17.4142 17.4142C17.0391 17.7893 16.5304 18 16 18ZM22 16C21.4696 16 20.9609 15.7893 20.5858 15.4142C20.2107 15.0391 20 14.5304 20 14V11C20 10.4696 20.2107 9.96086 20.5858 9.58579C20.9609 9.21071 21.4696 9 22 9V16Z" fill="#0F1621"/>
</svg>
