<svg width="24" height="24" viewBox="0 0 24 24" fill="none" xmlns="http://www.w3.org/2000/svg">
<path d="M16 12.4143L18 10.4143V16.0001C18 16.5305 17.7893 17.0392 17.4142 17.4143C17.0391 17.7894 16.5304 18.0001 16 18.0001V12.4143Z" fill="#0F1621"/>
<path d="M14 5.58586V5.00008C14 4.46964 13.7893 3.96093 13.4142 3.58586C13.0391 3.21079 12.5304 3.00008 12 3.00008H4C3.46957 3.00008 2.96086 3.21079 2.58579 3.58586C2.21071 3.96093 2 4.46964 2 5.00008V17.5859L4 15.5859V5.00008H12V7.58586L14 5.58586Z" fill="#0F1621"/>
<path d="M12 16.4143L14 14.4143V19.0001C14 19.5305 13.7893 20.0392 13.4142 20.4143C13.0391 20.7894 12.5304 21.0001 12 21.0001H7.41421L9.41421 19.0001H12V16.4143Z" fill="#0F1621"/>
<path d="M8.66665 8.74728C8.91332 8.9121 9.20333 9.00008 9.5 9.00008C9.89782 9.00008 10.2794 8.84204 10.5607 8.56074C10.842 8.27943 11 7.8979 11 7.50008C11 7.2034 10.912 6.91339 10.7472 6.66672C10.5824 6.42005 10.3481 6.22779 10.074 6.11426C9.79994 6.00072 9.49834 5.97102 9.20736 6.0289C8.91639 6.08678 8.64912 6.22964 8.43934 6.43941C8.22956 6.64919 8.0867 6.91647 8.02882 7.20744C7.97094 7.49841 8.00065 7.80001 8.11418 8.0741C8.22771 8.34819 8.41997 8.58246 8.66665 8.74728Z" fill="#0F1621"/>
<path d="M20.5858 15.4143C20.9609 15.7894 21.4696 16.0001 22 16.0001V9.00008C21.4696 9.00008 20.9609 9.21079 20.5858 9.58586C20.2107 9.96093 20 10.4696 20 11.0001V14.0001C20 14.5305 20.2107 15.0392 20.5858 15.4143Z" fill="#0F1621"/>
<path fill-rule="evenodd" clip-rule="evenodd" d="M21.7071 3.70718L3.70711 21.7072L2.29289 20.293L20.2929 2.29297L21.7071 3.70718Z" fill="#0F1621"/>
</svg>
