<svg width="16" height="16" viewBox="0 0 16 16" fill="none" xmlns="http://www.w3.org/2000/svg">
<path d="M12.3112 1.50244L13.7254 2.91665L2.41422 14.2278L1 12.8136L12.3112 1.50244Z" fill="#0F1621"/>
<path d="M8.64857 3.02947C8.43347 3.00962 8.21706 2.9997 8 2.99987C6.96134 2.99581 5.9354 3.22836 5 3.67987V6.67804L8.64857 3.02947Z" fill="#0F1621"/>
<path d="M3 8.67804L1.67817 9.99987H1V1.99987H3V8.67804Z" fill="#0F1621"/>
<path d="M5 8.79936L10.3833 3.4161C10.7252 3.53959 11.0582 3.68995 11.3789 3.86635C11.6765 4.03003 11.9608 4.2146 12.2298 4.41824L8.72278 7.92529L8.45 8.07987C8.30709 8.02255 8.1539 7.99532 8 7.99987C7.71671 8.00032 7.43935 8.08098 7.2 8.23251C6.96065 8.38405 6.7691 8.60027 6.64753 8.85614C6.52596 9.11202 6.47933 9.39709 6.51304 9.67836C6.52811 9.8041 6.55896 9.92678 6.60442 10.0436L5 11.6481V8.79936Z" fill="#0F1621"/>
<path d="M6.44195 12.6877C6.3585 12.6524 6.2764 12.6144 6.19578 12.5736L7.78532 10.9841C7.97416 11.0117 8.16739 11.0031 8.35452 10.9579C8.62989 10.8914 8.8808 10.7483 9.07821 10.5451C9.27562 10.342 9.41145 10.087 9.47 9.80987L12.45 8.11987L11.7929 6.9765L13.3225 5.44692C13.5401 5.70108 13.7399 5.97134 13.9201 6.25591C14.5519 7.2541 14.9209 8.39597 14.9925 9.57515C15.0642 10.7543 14.8363 11.9325 14.33 12.9999L10.87 11.7899C10.4972 12.1739 10.051 12.4792 9.55805 12.6877C9.06507 12.8962 8.53526 13.0036 8 13.0036C7.46474 13.0036 6.93493 12.8962 6.44195 12.6877Z" fill="#0F1621"/>
</svg>
