<svg width="16" height="16" viewBox="0 0 16 16" fill="none" xmlns="http://www.w3.org/2000/svg">
<path d="M9.00001 10.0001L4.00001 15.0001H7.00001C7.53045 15.0001 8.03915 14.7894 8.41423 14.4143C8.7893 14.0392 9.00001 13.5305 9.00001 13.0001V10.0001Z" fill="#0F1621"/>
<path d="M9.00001 3.00008C9.00001 2.46964 8.7893 1.96093 8.41423 1.58586C8.03915 1.21079 7.53045 1.00008 7.00001 1.00008H3.00001C2.46958 1.00008 1.96087 1.21079 1.5858 1.58586C1.21073 1.96093 1.00001 2.46964 1.00001 3.00008V11.0001L6.00001 6.00008C5.80223 6.00008 5.60889 5.94143 5.44444 5.83154C5.27999 5.72166 5.15182 5.56548 5.07613 5.38276C5.00045 5.20003 4.98064 4.99897 5.01923 4.80499C5.05781 4.611 5.15306 4.43282 5.29291 4.29297C5.43276 4.15312 5.61094 4.05788 5.80492 4.01929C5.99891 3.98071 6.19997 4.00051 6.3827 4.0762C6.56542 4.15188 6.7216 4.28006 6.83148 4.44451C6.94137 4.60895 7.00001 4.80229 7.00001 5.00008L9.00001 3.00008Z" fill="#0F1621"/>
<path d="M10 9.00008L12 7.00008V12.0001H10V9.00008Z" fill="#0F1621"/>
<path d="M13 9.00008V7.00008C13 6.46964 13.2107 5.96093 13.5858 5.58586C13.9609 5.21079 14.4696 5.00008 15 5.00008V11.0001C14.4696 11.0001 13.9609 10.7894 13.5858 10.4143C13.2107 10.0392 13 9.53051 13 9.00008Z" fill="#0F1621"/>
<path fill-rule="evenodd" clip-rule="evenodd" d="M0.792908 13.293L13.2929 0.792969L14.7071 2.20718L2.20712 14.7072L0.792908 13.293Z" fill="#0F1621"/>
</svg>
