<svg width="16" height="16" viewBox="0 0 16 16" fill="none" xmlns="http://www.w3.org/2000/svg">
<path fill-rule="evenodd" clip-rule="evenodd" d="M9.78554 4.42369L7.99982 4.42369V5.85226H8.78554L8.21411 6.63798C8.07125 6.85226 7.99982 7.06655 7.99982 7.35226V11.5665C7.99982 11.9237 8.14268 12.2808 8.42839 12.5665C8.71411 12.8523 9.07125 12.9951 9.42839 12.9951H11.5713C11.9998 12.9951 12.2855 12.7094 12.2855 12.2808V11.5665H14.9998V6.56655L10.1427 6.56655L11.4284 4.78083C11.5713 4.56655 11.7855 4.42369 11.9998 4.42369L14.9998 4.42369V2.99512H11.6427C11.1427 2.99512 10.7141 3.2094 10.4284 3.56655L9.78554 4.42369ZM12.2855 9.42369H9.42839V7.99512H12.2855V9.42369Z" fill="#0F1621"/>
<path d="M5.00966 12.0614C5.05046 12.023 5.09082 11.9838 5.13072 11.9439C7.28837 9.78628 7.28837 6.28804 5.13072 4.1304C5.08699 4.08667 5.04271 4.04383 4.99791 4.00187L4.11339 4.88639C4.15856 4.92787 4.20306 4.9705 4.24683 5.01428C5.91633 6.68377 5.91633 9.39055 4.24683 11.06C4.20689 11.1 4.16635 11.139 4.12525 11.177L5.00966 12.0614Z" fill="#0F1621"/>
<path d="M3.52363 10.5754C3.56506 10.5378 3.60579 10.499 3.64578 10.459C4.98333 9.12146 4.98333 6.95286 3.64578 5.61532C3.60195 5.57148 3.55722 5.52909 3.51166 5.48812L2.62577 6.37401C2.67246 6.41346 2.71789 6.45519 2.7619 6.4992C3.61129 7.34859 3.61129 8.72573 2.7619 9.57512C2.72176 9.61525 2.68045 9.65349 2.63807 9.68983L3.52363 10.5754Z" fill="#0F1621"/>
<path d="M2.00008 6.99982L1.00012 7.99966L2.00002 8.99988C2.00002 8.99988 2.5001 8.69737 2.50014 7.99952C2.50018 7.30167 2.00008 6.99982 2.00008 6.99982Z" fill="#0F1621"/>
</svg>
