<svg width="24" height="24" viewBox="0 0 24 24" fill="none" xmlns="http://www.w3.org/2000/svg">
<path d="M19 3L20.4142 4.41421L3.44365 21.3848L2.02944 19.9706L19 3Z" fill="#0F1621"/>
<path d="M18.3101 6.50187C17.933 6.1832 17.447 6 16.9 6H15.994L13.994 8H16.4C16.5127 8 16.6253 8.0282 16.7327 8.07931L18.3101 6.50187Z" fill="#0F1621"/>
<path fill-rule="evenodd" clip-rule="evenodd" d="M16.6404 11H19L18.0123 9.62814L19.6404 8H22V10H20.9L21.7 11.1C21.9 11.4 22 11.7 22 12.1V18C22 18.5 21.8 19 21.4 19.4C21 19.8 20.5 20 20 20H17C16.4 20 16 19.6 16 19V18H9.64041L16.6404 11ZM20 15H16V13H20V15Z" fill="#0F1621"/>
<path d="M13.812 11H10.994L8 13.994V15H6.99405L2.58453 19.4095C2.94726 19.7738 3.44849 20 4 20H4.81198L13.812 11Z" fill="#0F1621"/>
<path d="M15 4V4.16562L11.1656 8H7.5C7.2 8 6.9 8.2 6.7 8.5L5 11H8.16562L6.16562 13H4V15H4.16562L2 17.1656V12.1C2 11.7 2.1 11.3 2.3 11.1L3.1 10H2V8H4.5L5.4 6.8C5.8 6.3 6.4 6 7.1 6H9V4C9 3.4 9.4 3 10 3H14C14.6 3 15 3.4 15 4Z" fill="#0F1621"/>
</svg>
