<svg width="16" height="16" viewBox="0 0 16 16" fill="none" xmlns="http://www.w3.org/2000/svg">
<path d="M13.11 5.21C12.8167 4.61176 12.3786 4.09626 11.8355 3.71032C11.2924 3.32437 10.6614 3.08021 10 3V2C10 1.73478 9.89464 1.48043 9.70711 1.29289C9.51957 1.10536 9.26522 1 9 1H7C6.73478 1 6.48043 1.10536 6.29289 1.29289C6.10536 1.48043 6 1.73478 6 2V3C5.33857 3.08021 4.70765 3.32437 4.16453 3.71032C3.62142 4.09626 3.18331 4.61176 2.89 5.21L1 9V13C1 13.5304 1.21071 14.0391 1.58579 14.4142C1.96086 14.7893 2.46957 15 3 15H4L5 14L6 13H10L11 14L12 15H13C13.5304 15 14.0391 14.7893 14.4142 14.4142C14.7893 14.0391 15 13.5304 15 13V9L13.11 5.21ZM12 12C11.8022 12 11.6089 11.9414 11.4444 11.8315C11.28 11.7216 11.1518 11.5654 11.0761 11.3827C11.0004 11.2 10.9806 10.9989 11.0192 10.8049C11.0578 10.6109 11.153 10.4327 11.2929 10.2929C11.4327 10.153 11.6109 10.0578 11.8049 10.0192C11.9989 9.98063 12.2 10.0004 12.3827 10.0761C12.5654 10.1518 12.7216 10.28 12.8315 10.4444C12.9414 10.6089 13 10.8022 13 11C13 11.2652 12.8946 11.5196 12.7071 11.7071C12.5196 11.8946 12.2652 12 12 12ZM6.47 5H9.53C9.90208 5.0002 10.2667 5.10419 10.583 5.30028C10.8992 5.49637 11.1544 5.77679 11.32 6.11L12.27 8H3.73L4.68 6.1C4.84696 5.76865 5.10281 5.49029 5.41893 5.29603C5.73504 5.10177 6.09897 4.99927 6.47 5ZM4 12C3.73478 12 3.48043 11.8946 3.29289 11.7071C3.10536 11.5196 3 11.2652 3 11C3 10.8022 3.05865 10.6089 3.16853 10.4444C3.27841 10.28 3.43459 10.1518 3.61732 10.0761C3.80004 10.0004 4.00111 9.98063 4.19509 10.0192C4.38907 10.0578 4.56725 10.153 4.70711 10.2929C4.84696 10.4327 4.9422 10.6109 4.98079 10.8049C5.01937 10.9989 4.99957 11.2 4.92388 11.3827C4.84819 11.5654 4.72002 11.7216 4.55557 11.8315C4.39112 11.9414 4.19778 12 4 12Z" fill="#0F1621"/>
</svg>
