<svg width="24" height="24" viewBox="0 0 24 24" fill="none" xmlns="http://www.w3.org/2000/svg">
<path d="M22 9H19.5L18.6 7.8C18.2 7.3 17.6 7 16.9 7H15V5C15 4.4 14.6 4 14 4H10C9.4 4 9 4.4 9 5V7H7.1C6.4 7 5.8 7.3 5.4 7.8L4.5 9H2V11H3.1L2.3 12.1C2.1 12.4 2 12.7 2 13.1V19C2 20.1 2.9 21 4 21H7C7.6 21 8 20.6 8 20V19H16V20C16 20.6 16.4 21 17 21H20C20.5 21 21 20.8 21.4 20.4C21.8 20 22 19.5 22 19V13.1C22 12.7 21.9 12.4 21.7 12.1L20.9 11H22V9ZM7 9C7 9 7.1 9 7 9H16.9L18.7 11.5L17.7 12H6.2L5.2 11.5L7 9ZM20 19H18V17H16H8H6V19H4V13.2L5.7 14.1H18.2L19.9 13.2V19H20Z" fill="#0F1621"/>
</svg>
