<svg width="16" height="16" viewBox="0 0 16 16" fill="none" xmlns="http://www.w3.org/2000/svg">
<path d="M12.3112 2.00256L13.7254 3.41678L2.41422 14.7279L1 13.3137L12.3112 2.00256Z" fill="#0F1621"/>
<path d="M9.5722 2.60599C9.45134 2.25391 9.16799 2 8.8 2H6.3C5.9 2 5.6 2.3 5.5 2.7L5.2 4.6H4.8C4.1 4.6 3.4 5 3.1 5.7L2.4 7.2H1.3C0.9 7.6 0.9 8.1 1.3 8.5H1.6V10.5782L4.27819 7.9H3.6L4.3 6.2C4.4 6 4.6 5.9 4.8 5.9H6.27819L9.5722 2.60599Z" fill="#0F1621"/>
<path d="M6.39951 7.9L4.99951 9.3L5 10.6H3.69951L1.62099 12.6785C1.69567 12.986 1.96217 13.2 2.3 13.2H3.94819L5 12.1482V11.9H5.24819L9.24819 7.9H6.39951Z" fill="#0F1621"/>
<path d="M8.39951 5.9L9.87266 4.42685L9.9 4.6H10.4C10.95 4.6 11.5 4.84692 11.8559 5.29226L10.9141 6.23414L10.9 6.2C10.8 6 10.6 5.9 10.4 5.9H8.39951Z" fill="#0F1621"/>
<path fill-rule="evenodd" clip-rule="evenodd" d="M13.9 7.2H12.8L12.5676 6.70194L11.5328 7.73674L11.6 7.9H11.3695L7.36951 11.9H10.3V12.6C10.3 13 10.6 13.3 11 13.3H13C13.4 13.3 13.7 13 13.7 12.6V8.6H14C14.4 8.1 14.4 7.7 13.9 7.2ZM11.9 10.6H10.2V9.3H11.9C12.4 9.7 12.4 10.1 11.9 10.6Z" fill="#0F1621"/>
</svg>
