<svg width="16" height="16" viewBox="0 0 16 16" fill="none" xmlns="http://www.w3.org/2000/svg">
<path d="M13.9 7.2H12.8L12.1 5.7C11.8 5 11.1 4.6 10.4 4.6H9.9L9.6 2.7C9.5 2.3 9.2 2 8.8 2H6.3C5.9 2 5.6 2.3 5.5 2.7L5.2 4.6H4.8C4.1 4.6 3.4 5 3.1 5.7L2.4 7.2H1.3C0.9 7.6 0.9 8.1 1.3 8.5H1.6V12.5C1.6 12.9 1.9 13.2 2.3 13.2H4.3C4.7 13.2 5 12.9 5 12.5V11.9H10.3V12.6C10.3 13 10.6 13.3 11 13.3H13C13.4 13.3 13.7 13 13.7 12.6V8.6H14C14.4 8.1 14.4 7.7 13.9 7.2ZM4.9 10.6H3.3C2.9 10.2 2.9 9.7 3.3 9.3H5V10.6H4.9ZM3.6 7.9L4.3 6.2C4.4 6 4.6 5.9 4.8 5.9H10.4C10.6 5.9 10.8 6 10.9 6.2L11.6 7.9H3.6ZM11.9 10.6H10.2V9.3H11.9C12.4 9.7 12.4 10.1 11.9 10.6Z" fill="#0F1621"/>
</svg>
