<svg width="24" height="25" viewBox="0 0 24 25" fill="none" xmlns="http://www.w3.org/2000/svg">
<path d="M15 4.66562V4.5C15 3.9 14.6 3.5 14 3.5H10C9.4 3.5 9 3.9 9 4.5V6.5H7.1C6.4 6.5 5.8 6.8 5.4 7.3L4.5 8.5H2V10.5H3.1L2.3 11.6C2.1 11.9 2 12.2 2 12.6V17.6656L4 15.6656V12.7L5.7 13.6H6.06562L8.16562 11.5H6.2L5.2 11L7 8.5H11.1656L15 4.66562Z" fill="#0E1520"/>
<path d="M17.7 11.5H16.6404L14.5404 13.6H18.2L19.9 12.7V18.5H18V16.5H11.6404L9.64041 18.5H16V19.5C16 20.1 16.4 20.5 17 20.5H20C20.5 20.5 21 20.3 21.4 19.9C21.8 19.5 22 19 22 18.5V12.6C22 12.2 21.9 11.9 21.7 11.6L20.9 10.5H22V8.5H19.6404L18.0471 10.0933L18.7 11L17.7 11.5Z" fill="#0E1520"/>
<path d="M19 3.5L20.4142 4.91421L3.44363 21.8848L2.02942 20.4706L19 3.5Z" fill="#0E1520"/>
</svg>
