<svg width="24" height="25" viewBox="0 0 24 25" fill="none" xmlns="http://www.w3.org/2000/svg">
<path d="M19 3.5L20.4142 4.91421L3.44365 21.8848L2.02944 20.4706L19 3.5Z" fill="#0E1520"/>
<path d="M16.6404 11.5H19L18.0123 10.1281L19.6404 8.5H22V10.5H20.9L21.7 11.6C21.9 11.9 22 12.2 22 12.6V18.5C22 19 21.8 19.5 21.4 19.9C21 20.3 20.5 20.5 20 20.5H17C16.4 20.5 16 20.1 16 19.5V18.5H9.64041L16.6404 11.5ZM20 15.5V13.5H16V15.5H20Z" fill="#0E1520"/>
<path d="M15 4.5V4.66562L11.1656 8.5H7.5C7.2 8.5 6.9 8.7 6.7 9L5 11.5H8.16562L6.16562 13.5H4V15.5H4.16562L2 17.6656V12.6C2 12.2 2.1 11.8 2.3 11.6L3.1 10.5H2V8.5H4.5L5.4 7.3C5.8 6.8 6.4 6.5 7.1 6.5H9V4.5C9 3.9 9.4 3.5 10 3.5H14C14.6 3.5 15 3.9 15 4.5Z" fill="#0E1520"/>
</svg>
