<svg width="16" height="17" viewBox="0 0 16 17" fill="none" xmlns="http://www.w3.org/2000/svg">
<path d="M9.5722 3.10599C9.45134 2.75391 9.16799 2.5 8.8 2.5H6.3C5.9 2.5 5.6 2.8 5.5 3.2L5.2 5.1H4.8C4.1 5.1 3.4 5.5 3.1 6.2L2.4 7.7H1.3C0.9 8.1 0.9 8.6 1.3 9H1.6V11.0782L4.27819 8.4H3.6L4.3 6.7C4.4 6.5 4.6 6.4 4.8 6.4H6.27819L9.5722 3.10599Z" fill="#0E1520"/>
<path d="M12.3112 2.50256L13.7254 3.91678L2.41422 15.2279L1 13.8137L12.3112 2.50256Z" fill="#0E1520"/>
<path d="M13.9 7.70021H12.8L12.5676 7.20215L7.36951 12.4002H10.3V13.1002C10.3 13.5002 10.6 13.8002 11 13.8002H13C13.4 13.8002 13.7 13.5002 13.7 13.1002V9.1002H14C14.4 8.6002 14.4 8.20021 13.9 7.70021ZM10.2 11.0998V9.7998H11.9C12.4 10.1998 12.4 10.5998 11.9 11.0998H10.2Z" fill="#0E1520"/>
</svg>
