<svg width="24" height="24" viewBox="0 0 24 24" fill="none" xmlns="http://www.w3.org/2000/svg">
<path d="M15 2C15 2.79565 14.6839 3.55871 14.1213 4.12132C13.5587 4.68393 12.7956 5 12 5C11.2044 5 10.4413 4.68393 9.87868 4.12132C9.31607 3.55871 9 2.79565 9 2H4V20C4 20.5304 4.21071 21.0391 4.58579 21.4142C4.96086 21.7893 5.46957 22 6 22H9C9 21.2044 9.31607 20.4413 9.87868 19.8787C10.4413 19.3161 11.2044 19 12 19C12.7956 19 13.5587 19.3161 14.1213 19.8787C14.6839 20.4413 15 21.2044 15 22H18C18.5304 22 19.0391 21.7893 19.4142 21.4142C19.7893 21.0391 20 20.5304 20 20V2H15ZM16 15H8V13H16V15ZM16 11H8V9H16V11Z" fill="#0F1621"/>
</svg>
