<svg width="16" height="16" viewBox="0 0 16 16" fill="none" xmlns="http://www.w3.org/2000/svg">
<path d="M10 1C10 1.53043 9.78929 2.03914 9.41421 2.41421C9.03914 2.78929 8.53043 3 8 3C7.46957 3 6.96086 2.78929 6.58579 2.41421C6.21071 2.03914 6 1.53043 6 1H2V14C2 14.2652 2.10536 14.5196 2.29289 14.7071C2.48043 14.8946 2.73478 15 3 15H6C6 14.4696 6.21071 13.9609 6.58579 13.5858C6.96086 13.2107 7.46957 13 8 13C8.53043 13 9.03914 13.2107 9.41421 13.5858C9.78929 13.9609 10 14.4696 10 15H13C13.2652 15 13.5196 14.8946 13.7071 14.7071C13.8946 14.5196 14 14.2652 14 14V1H10ZM11 9H5V7H11V9Z" fill="#0F1621"/>
</svg>
