<svg width="24" height="24" viewBox="0 0 24 24" fill="none" xmlns="http://www.w3.org/2000/svg">
<path d="M12.0002 12C12.0442 11.9982 12.0881 12.0053 12.1293 12.0207C12.1705 12.0362 12.2082 12.0597 12.2402 12.09L15.9402 15.79C15.9992 15.856 16.0319 15.9414 16.0319 16.03C16.0319 16.1186 15.9992 16.204 15.9402 16.27L12.2402 19.97C12.1742 20.029 12.0887 20.0617 12.0002 20.0617C11.9116 20.0617 11.8262 20.029 11.7602 19.97L8.0602 16.27C8.00116 16.204 7.96852 16.1186 7.96852 16.03C7.96852 15.9414 8.00116 15.856 8.0602 15.79L11.7602 12.09C11.7922 12.0597 11.8299 12.0362 11.8711 12.0207C11.9123 12.0053 11.9562 11.9982 12.0002 12ZM12.0002 10C11.6938 9.99826 11.3901 10.0575 11.1069 10.1742C10.8236 10.291 10.5664 10.4629 10.3502 10.68L6.6502 14.38C6.21419 14.8185 5.96944 15.4117 5.96944 16.03C5.96944 16.6483 6.21419 17.2415 6.6502 17.68L10.3502 21.38C10.7886 21.816 11.3819 22.0608 12.0002 22.0608C12.6185 22.0608 13.2117 21.816 13.6502 21.38L17.3502 17.68C17.7862 17.2415 18.0309 16.6483 18.0309 16.03C18.0309 15.4117 17.7862 14.8185 17.3502 14.38L13.6502 10.68C13.434 10.4629 13.1768 10.291 12.8935 10.1742C12.6102 10.0575 12.3066 9.99826 12.0002 10ZM12.0002 17.53C11.7048 17.5299 11.416 17.4427 11.17 17.2791C10.9241 17.1156 10.7318 16.8831 10.6175 16.6107C10.5031 16.3384 10.4717 16.0383 10.5272 15.7482C10.5827 15.4581 10.7226 15.1908 10.9294 14.9799C11.1362 14.769 11.4006 14.6238 11.6896 14.5626C11.9786 14.5014 12.2792 14.5268 12.5537 14.6358C12.8283 14.7447 13.0646 14.9323 13.2329 15.175C13.4013 15.4177 13.4943 15.7047 13.5002 16C13.4976 16.397 13.3387 16.777 13.058 17.0578C12.7772 17.3385 12.3972 17.4974 12.0002 17.5V17.53ZM12.0002 6C11.0931 6.00083 10.198 6.20733 9.38215 6.60398C8.56635 7.00062 7.8511 7.57708 7.2902 8.29L8.7202 9.72C9.08882 9.19188 9.57952 8.76059 10.1506 8.46278C10.7216 8.16497 11.3562 8.00945 12.0002 8.00945C12.6442 8.00945 13.2788 8.16497 13.8498 8.46278C14.4209 8.76059 14.9116 9.19188 15.2802 9.72L16.7102 8.29C16.1493 7.57708 15.434 7.00062 14.6182 6.60398C13.8024 6.20733 12.9073 6.00083 12.0002 6ZM12.0002 2C10.5681 2.0009 9.15287 2.30939 7.85031 2.9046C6.54775 3.49981 5.38823 4.36786 4.4502 5.45L5.8702 6.87C6.62108 5.97454 7.55904 5.25447 8.61809 4.76042C9.67714 4.26637 10.8316 4.01034 12.0002 4.01034C13.1688 4.01034 14.3232 4.26637 15.3823 4.76042C16.4414 5.25447 17.3793 5.97454 18.1302 6.87L19.5502 5.45C18.6122 4.36786 17.4526 3.49981 16.1501 2.9046C14.8475 2.30939 13.4323 2.0009 12.0002 2Z" fill="#0F1621"/>
</svg>
