<svg width="24" height="24" viewBox="0 0 24 24" fill="none" xmlns="http://www.w3.org/2000/svg">
<path d="M17.35 14.35L13.65 10.65C13.2115 10.2139 12.6183 9.9692 12 9.9692C11.3816 9.9692 10.7884 10.2139 10.35 10.65L6.64995 14.35C6.21394 14.7884 5.9692 15.3816 5.9692 16C5.9692 16.6183 6.21394 17.2115 6.64995 17.65L10.35 21.35C10.7884 21.786 11.3816 22.0307 12 22.0307C12.6183 22.0307 13.2115 21.786 13.65 21.35L17.35 17.65C17.786 17.2115 18.0307 16.6183 18.0307 16C18.0307 15.3816 17.786 14.7884 17.35 14.35ZM12 17.5C11.7033 17.5 11.4133 17.412 11.1666 17.2472C10.9199 17.0823 10.7277 16.8481 10.6141 16.574C10.5006 16.2999 10.4709 15.9983 10.5288 15.7073C10.5867 15.4163 10.7295 15.1491 10.9393 14.9393C11.1491 14.7295 11.4163 14.5867 11.7073 14.5288C11.9983 14.4709 12.2999 14.5006 12.574 14.6141C12.8481 14.7277 13.0823 14.9199 13.2472 15.1666C13.412 15.4133 13.5 15.7033 13.5 16C13.4973 16.397 13.3385 16.777 13.0577 17.0577C12.777 17.3385 12.397 17.4973 12 17.5ZM16.71 8.28995L15.28 9.71995C14.9113 9.19184 14.4206 8.76054 13.8496 8.46273C13.2785 8.16492 12.644 8.00941 12 8.00941C11.3559 8.00941 10.7214 8.16492 10.1503 8.46273C9.57928 8.76054 9.08858 9.19184 8.71995 9.71995L7.28995 8.28995C7.85155 7.57831 8.56711 7.00319 9.38288 6.60777C10.1986 6.21235 11.0934 6.00693 12 6.00693C12.9065 6.00693 13.8013 6.21235 14.617 6.60777C15.4328 7.00319 16.1483 7.57831 16.71 8.28995ZM19.55 5.44995L18.13 6.86995C17.3791 5.9745 16.4411 5.25442 15.3821 4.76037C14.323 4.26632 13.1686 4.01029 12 4.01029C10.8313 4.01029 9.6769 4.26632 8.61785 4.76037C7.55879 5.25442 6.62084 5.9745 5.86995 6.86995L4.44995 5.44995C5.38866 4.36913 6.54848 3.50245 7.851 2.90851C9.15353 2.31456 10.5684 2.0072 12 2.0072C13.4315 2.0072 14.8464 2.31456 16.1489 2.90851C17.4514 3.50245 18.6112 4.36913 19.55 5.44995Z" fill="#0F1621"/>
</svg>
