<svg width="16" height="16" viewBox="0 0 16 16" fill="none" xmlns="http://www.w3.org/2000/svg">
<path d="M10.8296 5.17002C10.4581 4.79811 10.017 4.50308 9.53137 4.30178C9.04578 4.10048 8.52527 3.99687 7.99961 3.99687C7.47395 3.99687 6.95344 4.10048 6.46785 4.30178C5.98226 4.50308 5.5411 4.79811 5.16961 5.17002L5.87961 5.88002C6.44211 5.31821 7.20461 5.00266 7.99961 5.00266C8.79461 5.00266 9.55711 5.31821 10.1196 5.88002L10.8296 5.17002ZM12.9996 3.05002C12.3496 2.39993 11.5779 1.88425 10.7286 1.53242C9.87923 1.1806 8.96892 0.999512 8.04961 0.999512C7.1303 0.999512 6.21999 1.1806 5.37066 1.53242C4.52133 1.88425 3.74963 2.39993 3.09961 3.05002L3.80961 3.76002C4.93461 2.63641 6.4596 2.0053 8.04961 2.0053C9.63962 2.0053 11.1646 2.63641 12.2896 3.76002L12.9996 3.05002ZM11.7596 10.29L8.75961 7.29002C8.66665 7.19629 8.55605 7.12189 8.43419 7.07113C8.31233 7.02036 8.18162 6.99422 8.04961 6.99422C7.9176 6.99422 7.78689 7.02036 7.66503 7.07113C7.54317 7.12189 7.43257 7.19629 7.33961 7.29002L4.33961 10.29C4.24588 10.383 4.17149 10.4936 4.12072 10.6154C4.06995 10.7373 4.04381 10.868 4.04381 11C4.04381 11.132 4.06995 11.2627 4.12072 11.3846C4.17149 11.5065 4.24588 11.6171 4.33961 11.71L7.33961 14.71C7.43257 14.8037 7.54317 14.8781 7.66503 14.9289C7.78689 14.9797 7.9176 15.0058 8.04961 15.0058C8.18162 15.0058 8.31233 14.9797 8.43419 14.9289C8.55605 14.8781 8.66665 14.8037 8.75961 14.71L11.7596 11.71C11.8501 11.6138 11.9207 11.5006 11.9672 11.3769C12.0138 11.2533 12.0353 11.1216 12.0307 10.9896C12.026 10.8576 11.9953 10.7278 11.9401 10.6077C11.885 10.4876 11.8067 10.3796 11.7096 10.29H11.7596ZM7.99961 12C7.80183 12 7.60849 11.9414 7.44404 11.8315C7.27959 11.7216 7.15142 11.5654 7.07573 11.3827C7.00004 11.2 6.98024 10.9989 7.01882 10.8049C7.05741 10.6109 7.15265 10.4328 7.2925 10.2929C7.43236 10.1531 7.61054 10.0578 7.80452 10.0192C7.9985 9.98065 8.19957 10.0005 8.38229 10.0761C8.56502 10.1518 8.7212 10.28 8.83108 10.4444C8.94096 10.6089 8.99961 10.8022 8.99961 11C8.99961 11.2652 8.89425 11.5196 8.70672 11.7071C8.51918 11.8947 8.26483 12 7.99961 12Z" fill="#0F1621"/>
</svg>
