<svg width="24" height="24" viewBox="0 0 24 24" fill="none" xmlns="http://www.w3.org/2000/svg">
<path d="M12 12C12.0439 11.9982 12.0878 12.0053 12.129 12.0207C12.1703 12.0362 12.208 12.0597 12.24 12.09L15.94 15.79C15.999 15.856 16.0316 15.9414 16.0316 16.03C16.0316 16.1186 15.999 16.204 15.94 16.27L12.24 19.97C12.1739 20.029 12.0885 20.0617 12 20.0617C11.9114 20.0617 11.826 20.029 11.76 19.97L8.05995 16.27C8.00092 16.204 7.96828 16.1186 7.96828 16.03C7.96828 15.9414 8.00092 15.856 8.05995 15.79L11.76 12.09C11.7919 12.0597 11.8296 12.0362 11.8709 12.0207C11.9121 12.0053 11.956 11.9982 12 12ZM12 10C11.6936 9.99826 11.3899 10.0575 11.1066 10.1742C10.8234 10.291 10.5661 10.4629 10.35 10.68L6.64995 14.38C6.21394 14.8185 5.9692 15.4117 5.9692 16.03C5.9692 16.6483 6.21394 17.2415 6.64995 17.68L10.35 21.38C10.7884 21.816 11.3816 22.0608 12 22.0608C12.6183 22.0608 13.2115 21.816 13.65 21.38L17.35 17.68C17.786 17.2415 18.0307 16.6483 18.0307 16.03C18.0307 15.4117 17.786 14.8185 17.35 14.38L13.65 10.68C13.4338 10.4629 13.1765 10.291 12.8933 10.1742C12.61 10.0575 12.3063 9.99826 12 10ZM12 17.53C11.7046 17.5299 11.4158 17.4427 11.1698 17.2791C10.9238 17.1156 10.7316 16.8831 10.6172 16.6107C10.5029 16.3384 10.4715 16.0383 10.527 15.7482C10.5824 15.4581 10.7224 15.1908 10.9291 14.9799C11.1359 14.769 11.4004 14.6238 11.6894 14.5626C11.9783 14.5014 12.2789 14.5268 12.5535 14.6358C12.828 14.7447 13.0643 14.9323 13.2327 15.175C13.4011 15.4177 13.494 15.7047 13.5 16C13.4973 16.397 13.3385 16.777 13.0577 17.0578C12.777 17.3385 12.397 17.4974 12 17.5V17.53ZM12 6C11.0928 6.00083 10.1977 6.20733 9.38191 6.60398C8.5661 7.00062 7.85085 7.57708 7.28995 8.29L8.71995 9.72C9.08858 9.19188 9.57928 8.76059 10.1503 8.46278C10.7214 8.16497 11.3559 8.00945 12 8.00945C12.644 8.00945 13.2785 8.16497 13.8496 8.46278C14.4206 8.76059 14.9113 9.19188 15.28 9.72L16.71 8.29C16.149 7.57708 15.4338 7.00062 14.618 6.60398C13.8022 6.20733 12.9071 6.00083 12 6ZM12 2C10.5678 2.0009 9.15263 2.30939 7.85007 2.9046C6.54751 3.49981 5.38798 4.36786 4.44995 5.45L5.86995 6.87C6.62084 5.97454 7.55879 5.25447 8.61785 4.76042C9.6769 4.26637 10.8313 4.01034 12 4.01034C13.1686 4.01034 14.323 4.26637 15.3821 4.76042C16.4411 5.25447 17.3791 5.97454 18.13 6.87L19.55 5.45C18.6119 4.36786 17.4524 3.49981 16.1498 2.9046C14.8473 2.30939 13.4321 2.0009 12 2Z" fill="#0F1621"/>
</svg>
