<svg width="24" height="24" viewBox="0 0 24 24" fill="none" xmlns="http://www.w3.org/2000/svg">
<path d="M17.3502 14.35L13.6502 10.65C13.2117 10.214 12.6185 9.96926 12.0002 9.96926C11.3819 9.96926 10.7886 10.214 10.3502 10.65L6.6502 14.35C6.21419 14.7885 5.96944 15.3817 5.96944 16C5.96944 16.6184 6.21419 17.2116 6.6502 17.65L10.3502 21.35C10.7886 21.786 11.3819 22.0308 12.0002 22.0308C12.6185 22.0308 13.2117 21.786 13.6502 21.35L17.3502 17.65C17.7862 17.2116 18.0309 16.6184 18.0309 16C18.0309 15.3817 17.7862 14.7885 17.3502 14.35ZM12.0002 17.5C11.7035 17.5 11.4135 17.412 11.1668 17.2472C10.9202 17.0824 10.7279 16.8481 10.6144 16.574C10.5008 16.3 10.4711 15.9984 10.529 15.7074C10.5869 15.4164 10.7298 15.1491 10.9395 14.9394C11.1493 14.7296 11.4166 14.5867 11.7076 14.5288C11.9985 14.471 12.3001 14.5007 12.5742 14.6142C12.8483 14.7277 13.0826 14.92 13.2474 15.1667C13.4122 15.4133 13.5002 15.7033 13.5002 16C13.4976 16.397 13.3387 16.777 13.058 17.0578C12.7772 17.3385 12.3972 17.4974 12.0002 17.5ZM16.7102 8.29002L15.2802 9.72002C14.9116 9.1919 14.4209 8.7606 13.8498 8.46279C13.2788 8.16498 12.6442 8.00947 12.0002 8.00947C11.3562 8.00947 10.7216 8.16498 10.1506 8.46279C9.57952 8.7606 9.08882 9.1919 8.7202 9.72002L7.2902 8.29002C7.8518 7.57838 8.56736 7.00325 9.38312 6.60783C10.1989 6.21241 11.0936 6.00699 12.0002 6.00699C12.9067 6.00699 13.8015 6.21241 14.6173 6.60783C15.433 7.00325 16.1486 7.57838 16.7102 8.29002ZM19.5502 5.45002L18.1302 6.87002C17.3793 5.97456 16.4414 5.25448 15.3823 4.76043C14.3232 4.26638 13.1688 4.01036 12.0002 4.01036C10.8316 4.01036 9.67714 4.26638 8.61809 4.76043C7.55904 5.25448 6.62108 5.97456 5.8702 6.87002L4.4502 5.45002C5.3889 4.36919 6.54872 3.50251 7.85125 2.90857C9.15378 2.31463 10.5686 2.00726 12.0002 2.00726C13.4317 2.00726 14.8466 2.31463 16.1491 2.90857C17.4517 3.50251 18.6115 4.36919 19.5502 5.45002Z" fill="#0F1621"/>
</svg>
