<svg width="24" height="24" viewBox="0 0 24 24" fill="none" xmlns="http://www.w3.org/2000/svg">
<path d="M19 4L20.4142 5.41421L3.7972 22.0312L2.38299 20.617L19 4Z" fill="#0E1520"/>
<path d="M15.7219 4.44375L15.4 3.8C15 2.7 13.9 2 12.7 2H7.3C6.1 2 5 2.7 4.6 3.8L2 9V14C2 14.6 2.4 15 3 15H4.3L5.3 13H4V9H7.3C8.2 7.8 9.7 7 11.3 7H5.3L6.4 4.6C6.5 4.2 6.9 4 7.3 4H12.7C13.1 4 13.5 4.2 13.6 4.6L14.2178 5.94785L15.7219 4.44375Z" fill="#0E1520"/>
<path d="M11.1626 9.00307C10.0167 9.05422 8.98467 9.74214 8.6 10.8L7.83438 12.3312L11.1626 9.00307Z" fill="#0E1520"/>
<path d="M14.6404 14H18.7L17.6 11.6C17.5643 11.4573 17.4905 11.3401 17.3921 11.2483L18.7924 9.84797C19.0574 10.1139 19.2673 10.4349 19.4 10.8L22 16V21C22 21.6 21.6 22 21 22H17C16.4 22 16 21.6 16 21V20H12V21C12 21.6 11.6 22 11 22H7C6.88639 22 6.77995 21.9857 6.68204 21.9583L8.64038 20H10V18H18V20H20V16H12.6404L14.6404 14Z" fill="#0E1520"/>
</svg>
