<svg width="24" height="24" viewBox="0 0 24 24" fill="none" xmlns="http://www.w3.org/2000/svg">
<path d="M20.7 4.7L4.7 20.7L3.3 19.3L19.3 3.3L20.7 4.7ZM19.4 10.8C19.1 10.2 18.7 9.7 18.1 9.4L16.5 11H16.7C17.1 11 17.5 11.2 17.6 11.6L18.7 14H13.6L11.6 16H20V20H18V18H10V20H8V19.5L6.1 21.4C6.3 21.7 6.6 22 7 22H11C11.6 22 12 21.6 12 21V20H16V21C16 21.6 16.4 22 17 22H21C21.6 22 22 21.6 22 21V16L19.4 10.8ZM5.2 13H4V9H7.3C8.2 7.8 9.7 7 11.3 7H5.3L6.4 4.6C6.6 4.2 6.9 4 7.3 4H12.7C13.1 4 13.5 4.2 13.6 4.6L14.3 6.2L15.8 4.7L15.4 3.9C15 2.7 13.9 2 12.7 2H7.3C6.1 2 5 2.7 4.6 3.8L2 9V14C2 14.6 2.4 15 3 15H4.3L5.2 13ZM8.6 10.8L7.5 13L11.5 9H11.3C10.1 9 9 9.7 8.6 10.8Z" fill="#0F1621"/>
</svg>
