<svg width="17" height="16" viewBox="0 0 17 16" fill="none" xmlns="http://www.w3.org/2000/svg">
<path d="M12.4626 1.30255L13.8769 2.71676L2.56571 14.0279L1.15149 12.6137L12.4626 1.30255Z" fill="#0E1520"/>
<path d="M10.121 1.50866C9.7691 1.19167 9.28455 1 8.8 1H5.1C4.4 1 3.8 1.4 3.4 2L1.3 5.6C1.1 5.9 1 6.2 1 6.6V8.9C1 9.386 1.26244 9.8064 1.68104 9.9486L3.65184 7.9778L3.7 7.9C3.3 7.8 3 7.4 3 7C3 6.4 3.4 6 4 6C4.3 6 4.5 6.1 4.7 6.3C5 5.9 5.5 5.5 6 5.3V5H3.3L4.8 2.5H9.1L9.11111 2.51852L10.121 1.50866Z" fill="#0E1520"/>
<path d="M12.1682 6.55276L11.2079 7.51312L12.7 10H8.72099L6.97423 11.7468C6.99119 11.8263 7 11.911 7 12C7 12.6 6.6 13 6 13C5.91097 13 5.82633 12.9912 5.74676 12.9742L3.75149 14.9695C3.82969 14.9894 3.91273 15 4 15H6L7 13.6H11L12 15.1H14C14.6 15.1 15 14.6 15 14V11.6C15 11.2 14.9 10.8 14.6 10.6L12.5 7C12.4171 6.83425 12.3037 6.68376 12.1682 6.55276ZM13 12C13 12.6 12.6 13 12 13C11.4 13 11 12.6 11 12C11 11.4 11.4 11 12 11C12.6 11 13 11.4 13 12Z" fill="#0E1520"/>
</svg>
