<svg width="16" height="16" viewBox="0 0 16 16" fill="none" xmlns="http://www.w3.org/2000/svg">
<path d="M7.99813 6.00016C8.73451 6.00016 9.33146 5.40321 9.33146 4.66683C9.33146 3.93045 8.73451 3.3335 7.99813 3.3335C7.26175 3.3335 6.66479 3.93045 6.66479 4.66683C6.66479 5.40321 7.26175 6.00016 7.99813 6.00016Z" fill="#0E1520"/>
<path d="M7.99813 9.33341C8.73451 9.33341 9.33146 8.73646 9.33146 8.00008C9.33146 7.2637 8.73451 6.66675 7.99813 6.66675C7.26175 6.66675 6.66479 7.2637 6.66479 8.00008C6.66479 8.73646 7.26175 9.33341 7.99813 9.33341Z" fill="#0E1520"/>
<path d="M9.33146 11.3333C9.33146 12.0697 8.73451 12.6667 7.99813 12.6667C7.26175 12.6667 6.66479 12.0697 6.66479 11.3333C6.66479 10.597 7.26175 10 7.99813 10C8.73451 10 9.33146 10.597 9.33146 11.3333Z" fill="#0E1520"/>
<path d="M4.5 1.875C4.5 1.39175 4.89175 1 5.375 1H10.625C11.1082 1 11.5 1.39175 11.5 1.875V14.125C11.5 14.6082 11.1082 15 10.625 15H5.375C4.89175 15 4.5 14.6082 4.5 14.125V1.875ZM5.83333 2.33333V13.6667H10.1667V2.33333H5.83333Z" fill="#0E1520"/>
</svg>
