<svg width="16" height="16" viewBox="0 0 16 16" fill="none" xmlns="http://www.w3.org/2000/svg">
<path d="M2.84863 7C2.84863 6.4 3.24863 6 3.84863 6C4.14863 6 4.34863 6.1 4.54863 6.3C4.84863 5.8 5.34863 5.5 5.84863 5.3V5H3.14863L4.64863 2.5H8.94863L9.64863 3.7L10.7486 2.6L10.4486 2C10.0486 1.4 9.44863 1 8.74863 1H4.94863C4.24863 1 3.54863 1.4 3.24863 2L1.14863 5.6C0.948633 5.9 0.848633 6.3 0.848633 6.6V9C0.848633 9.5 1.24863 10 1.84863 10H2.24863L3.44863 7.9C3.14863 7.8 2.84863 7.4 2.84863 7ZM5.24863 7L3.54863 9.8L7.34863 6H6.94863C6.24863 6 5.64863 6.4 5.24863 7ZM14.5486 10.5L12.4486 7C12.3486 6.8 12.1486 6.6 11.9486 6.4L10.8486 7.5H11.0486L12.5486 10H8.34863L6.74863 11.6C6.84863 11.7 6.84863 11.8 6.84863 12C6.84863 12.6 6.44863 13 5.84863 13C5.64863 13 5.54863 13 5.44863 12.9L3.54863 14.8L3.44863 14.9C3.54863 15 3.64863 15 3.84863 15H5.84863L6.84863 13.5H10.8486L11.8486 15H13.8486C14.4486 15 14.8486 14.5 14.8486 13.9V11.5C14.8486 11.2 14.7486 10.8 14.5486 10.5ZM11.8486 13C11.2486 13 10.8486 12.6 10.8486 12C10.8486 11.4 11.2486 11 11.8486 11C12.4486 11 12.8486 11.4 12.8486 12C12.8486 12.6 12.4486 13 11.8486 13ZM13.9486 2.9L2.74863 14.1L1.64863 13L12.8486 1.8L13.9486 2.9Z" fill="#0F1621"/>
</svg>
