<svg width="16" height="16" viewBox="0 0 16 16" fill="none" xmlns="http://www.w3.org/2000/svg">
<path d="M12.3112 1.30255L13.7254 2.71676L2.41422 14.0279L1 12.6137L12.3112 1.30255Z" fill="#0F1621"/>
<path d="M9.96949 1.50866C9.61761 1.19167 9.13306 1 8.64851 1H4.94851C4.24851 1 3.64851 1.4 3.24851 2L1.14851 5.6C0.948511 5.9 0.848511 6.2 0.848511 6.6V8.9C0.848511 9.386 1.11095 9.8064 1.52955 9.9486L3.50035 7.9778L3.54851 7.9C3.14851 7.8 2.84851 7.4 2.84851 7C2.84851 6.4 3.24851 6 3.84851 6C4.14851 6 4.34851 6.1 4.54851 6.3C4.84851 5.9 5.34851 5.5 5.84851 5.3V5H3.14851L4.64851 2.5H8.94851L8.95963 2.51852L9.96949 1.50866Z" fill="#0F1621"/>
<path d="M3.22207 10.3774L7.59947 6H10.4482L8.94818 7.5H6.64851L5.14851 10H6.44818L5.32185 11.1263C5.17429 11.2077 5.05617 11.3258 4.97484 11.4733L2.84851 13.5997V11.5C2.84851 11.1 2.94851 10.8 3.14851 10.5L3.22207 10.3774Z" fill="#0F1621"/>
<path d="M9.75512 3.84435L10.8336 2.76589L11.9382 4.51L11.4482 5H10.4485L9.75512 3.84435Z" fill="#0F1621"/>
<path fill-rule="evenodd" clip-rule="evenodd" d="M12.0167 6.55276L11.0564 7.51312L12.5485 10H8.5695L6.82274 11.7468C6.8397 11.8263 6.84851 11.911 6.84851 12C6.84851 12.6 6.44851 13 5.84851 13C5.75948 13 5.67485 12.9912 5.59527 12.9742L3.60001 14.9695C3.6782 14.9894 3.76124 15 3.84851 15H5.84851L6.84851 13.6H10.8485L11.8485 15.1H13.8485C14.4485 15.1 14.8485 14.6 14.8485 14V11.6C14.8485 11.2 14.7485 10.8 14.4485 10.6L12.3485 7C12.2656 6.83425 12.1522 6.68376 12.0167 6.55276ZM12.8485 12C12.8485 11.4 12.4485 11 11.8485 11C11.2485 11 10.8485 11.4 10.8485 12C10.8485 12.6 11.2485 13 11.8485 13C12.4485 13 12.8485 12.6 12.8485 12Z" fill="#0F1621"/>
</svg>
