<svg width="24" height="24" viewBox="0 0 24 24" fill="none" xmlns="http://www.w3.org/2000/svg">
<path d="M19.4 10.8C19 9.7 17.9 9 16.7 9H11.3C10.1 9 9 9.7 8.6 10.8L6 16V21C6 21.6 6.4 22 7 22H11C11.6 22 12 21.6 12 21V20H16V21C16 21.6 16.4 22 17 22H21C21.6 22 22 21.6 22 21V16L19.4 10.8ZM10.4 11.6C10.6 11.2 10.9 11 11.3 11H16.7C17.1 11 17.5 11.2 17.6 11.6L18.7 14H9.3L10.4 11.6ZM20 20H18V18H10V20H8V16H20V20ZM15.4 3.8C15 2.7 13.9 2 12.7 2H7.3C6.1 2 5 2.7 4.6 3.8L2 9V14C2 14.6 2.4 15 3 15H4.3L5.3 13H4V9H7.3C8.2 7.8 9.7 7 11.3 7H5.3L6.4 4.6C6.5 4.2 6.9 4 7.3 4H12.7C13.1 4 13.5 4.2 13.6 4.6L14.7 7H16.7C16.8 7 16.9 7 17 7L15.4 3.8Z" fill="#0F1621"/>
</svg>
