<svg width="16" height="16" viewBox="0 0 16 16" fill="none" xmlns="http://www.w3.org/2000/svg">
<path d="M12.2486 5H10.4486L8.94863 2.5H4.64863L3.14863 5H5.84863V5.3C5.34863 5.5 4.84863 5.9 4.54863 6.3C4.34863 6.1 4.14863 6 3.84863 6C3.24863 6 2.84863 6.4 2.84863 7C2.84863 7.4 3.14863 7.8 3.54863 7.9L2.24863 10H1.84863C1.24863 10 0.848633 9.5 0.848633 8.9V6.6C0.848633 6.2 0.948633 5.9 1.14863 5.6L3.24863 2C3.64863 1.4 4.24863 1 4.94863 1H8.64863C9.34863 1 10.0486 1.4 10.3486 2L12.2486 5ZM14.8486 11.6V14C14.8486 14.6 14.4486 15.1 13.8486 15.1H11.8486L10.8486 13.6H6.84863L5.84863 15H3.84863C3.24863 15 2.84863 14.5 2.84863 13.9V11.5C2.84863 11.1 2.94863 10.8 3.14863 10.5L5.24863 7C5.64863 6.4 6.24863 6 6.94863 6H10.6486C11.3486 6 12.0486 6.4 12.3486 7L14.4486 10.6C14.7486 10.8 14.8486 11.2 14.8486 11.6ZM6.84863 12C6.84863 11.4 6.44863 11 5.84863 11C5.24863 11 4.84863 11.4 4.84863 12C4.84863 12.6 5.24863 13 5.84863 13C6.44863 13 6.84863 12.6 6.84863 12ZM12.5486 10L11.0486 7.5H6.64863L5.14863 10H12.5486ZM12.8486 12C12.8486 11.4 12.4486 11 11.8486 11C11.2486 11 10.8486 11.4 10.8486 12C10.8486 12.6 11.2486 13 11.8486 13C12.4486 13 12.8486 12.6 12.8486 12Z" fill="#0F1621"/>
</svg>
