<svg width="24" height="24" viewBox="0 0 24 24" fill="none" xmlns="http://www.w3.org/2000/svg">
<path d="M20.7 4.7L4.7 20.7L3.3 19.3L19.3 3.3L20.7 4.7ZM8.6 10.8L7.5 13L11.5 9H11.3C10.1 9 9 9.7 8.6 10.8ZM6.2 11H4V9H7V9.5C7.8 8.1 9.3 7.2 11 7.1H5.3L6.4 4.7C6.5 4.2 6.9 4 7.3 4H12.7C13.1 4 13.5 4.2 13.6 4.6L14.3 6.2L15.8 4.7L15.4 3.9C15 2.7 13.9 2 12.7 2H7.3C6.1 2 5 2.7 4.6 3.8L2 9V14C2 14.6 2.4 15 3 15H4.3L6.2 11ZM22 16V21C22 21.6 21.6 22 21 22H18C17.4 22 17 21.6 17 21V20H11V21C11 21.6 10.6 22 10 22H7C6.6 22 6.3 21.8 6.1 21.4L9.5 18H11V16.5L13.5 14H18.6L17.5 11.6C17.3 11.2 17 11 16.6 11H16.4L18 9.4C18.6 9.7 19 10.2 19.3 10.8L22 16ZM20 16H17V18H20V16Z" fill="#0F1621"/>
</svg>
