<svg width="24" height="24" viewBox="0 0 24 24" fill="none" xmlns="http://www.w3.org/2000/svg">
<path d="M19.4 10.8C19 9.7 17.9 9 16.7 9H11.3C10.1 9 9 9.7 8.6 10.8L6 16V21C6 21.6 6.4 22 7 22H10C10.6 22 11 21.6 11 21V20H17V21C17 21.6 17.4 22 18 22H21C21.6 22 22 21.6 22 21V16L19.4 10.8ZM11 18H8V16H11V18ZM9.3 14L10.4 11.6C10.6 11.2 10.9 11 11.3 11H16.7C17.1 11 17.5 11.2 17.6 11.6L18.7 14H9.3ZM20 18H17V16H20V18ZM4.3 15H3C2.4 15 2 14.6 2 14V9L4.6 3.8C5 2.7 6.1 2 7.3 2H12.7C13.9 2 15 2.7 15.4 3.8L17 7C16.9 7 14.7 7 14.7 7L13.6 4.6C13.5 4.2 13.1 4 12.7 4H7.3C6.9 4 6.5 4.2 6.4 4.6L5.3 7H11C9.3 7.1 7.8 8 7 9.5V9H4V11H6.2L4.3 15Z" fill="#0F1621"/>
</svg>
