<svg width="16" height="16" viewBox="0 0 16 16" fill="none" xmlns="http://www.w3.org/2000/svg">
<path d="M6 1C5.44772 1 5 1.44772 5 2V14C5 14.5523 5.44772 15 6 15H10C10.5523 15 11 14.5523 11 14V2C11 1.44772 10.5523 1 10 1H6ZM9.5 4.00244C9.5 4.83087 8.82843 5.50244 8 5.50244C7.17157 5.50244 6.5 4.83087 6.5 4.00244C6.5 3.17401 7.17157 2.50244 8 2.50244C8.82843 2.50244 9.5 3.17401 9.5 4.00244ZM9.5 8C9.5 8.82843 8.82843 9.5 8 9.5C7.17157 9.5 6.5 8.82843 6.5 8C6.5 7.17157 7.17157 6.5 8 6.5C8.82843 6.5 9.5 7.17157 9.5 8ZM9.5 12C9.5 12.8284 8.82843 13.5 8 13.5C7.17157 13.5 6.5 12.8284 6.5 12C6.5 11.1716 7.17157 10.5 8 10.5C8.82843 10.5 9.5 11.1716 9.5 12Z" fill="#0E1520"/>
</svg>
