<svg width="24" height="24" viewBox="0 0 24 24" fill="none" xmlns="http://www.w3.org/2000/svg">
<path d="M19 4L20.4142 5.41421L3.7972 22.0312L2.38299 20.617L19 4Z" fill="#0E1520"/>
<path d="M15.4 3.8L15.7219 4.44374L14.2178 5.94785L13.6 4.6C13.5 4.2 13.1 4 12.7 4H7.3C6.9 4 6.5 4.2 6.4 4.6L5.3 7H11C9.3 7.1 7.8 8 7 9.5V9H4V11H6.2L4.3 15H3C2.4 15 2 14.6 2 14V9L4.6 3.8C5 2.7 6.1 2 7.3 2H12.7C13.9 2 15 2.7 15.4 3.8Z" fill="#0E1520"/>
<path d="M8.6 10.8C8.98468 9.74214 10.0167 9.05422 11.1626 9.00307L7.83438 12.3312L8.6 10.8Z" fill="#0E1520"/>
<path d="M6.68204 21.9583C6.77995 21.9857 6.88639 22 7 22H10C10.6 22 11 21.6 11 21V20H17V21C17 21.6 17.4 22 18 22H21C21.6 22 22 21.6 22 21V16L19.4 10.8C19.2673 10.4349 19.0574 10.1139 18.7924 9.84797L17.3921 11.2483C17.4905 11.3401 17.5643 11.4573 17.6 11.6L18.7 14H14.6404L6.68204 21.9583ZM20 18H17V16H20V18Z" fill="#0E1520"/>
</svg>
