<svg width="16" height="16" viewBox="0 0 16 16" fill="none" xmlns="http://www.w3.org/2000/svg">
<path d="M10.9 11.2998C12.1 11.2998 13 10.2998 12.9 9.1998L12.5 3.1998C12.4 2.0998 11.6 1.2998 10.5 1.2998H5.5C4.4 1.2998 3.6 2.0998 3.5 3.1998L3.1 9.1998C3 10.2998 3.9 11.2998 5.1 11.2998H5.3L2 14.6998H4L7 11.3998H9L12 14.6998H14L10.7 11.3998H10.9V11.2998ZM6.3 9.6998H5.1C4.7 9.6998 4.4 9.3998 4.4 8.9998V8.6998C4.4 8.2998 4.7 8.09981 5.1 8.09981H6.3V9.6998ZM4.7 6.2998L4.9 3.2998C4.9 2.8998 5.2 2.59981 5.6 2.59981H10.5C10.9 2.59981 11.2 2.8998 11.2 3.2998L11.4 6.2998H4.7ZM9.7 9.6998V7.9998H10.9C11.3 7.9998 11.5 8.29981 11.6 8.59981V8.8998C11.6 9.2998 11.3 9.59981 10.9 9.59981H9.7V9.6998Z" fill="#0F1621"/>
</svg>
