<svg width="16" height="16" viewBox="0 0 16 16" fill="none" xmlns="http://www.w3.org/2000/svg">
<path d="M12 15H3.99998V13H12V15ZM13.17 7.87L12.78 5.92C12.6284 5.16122 12.2968 4.44996 11.813 3.84609C11.3292 3.24222 10.7074 2.76342 9.99998 2.45V1H5.99998V2.45C5.29254 2.76342 4.67075 3.24222 4.18696 3.84609C3.70316 4.44996 3.37153 5.16122 3.21998 5.92L2.82998 7.92C2.73753 8.41775 2.75577 8.92975 2.88338 9.41966C3.011 9.90958 3.24487 10.3654 3.56841 10.7548C3.89195 11.1442 4.29722 11.4576 4.75547 11.6728C5.21372 11.888 5.71372 11.9997 6.21998 12H9.77998C10.2914 12.0011 10.7966 11.8886 11.2591 11.6705C11.7217 11.4524 12.1299 11.1342 12.4544 10.7389C12.7788 10.3436 13.0113 9.88117 13.1351 9.385C13.2589 8.88883 13.2708 8.37134 13.17 7.87ZM6.99998 10H4.99998V9H6.99998V10ZM11 10H8.99998V9H11V10ZM4.52998 7L4.68998 6.22C4.83725 5.45003 5.24835 4.75548 5.8525 4.25593C6.45665 3.75639 7.21605 3.48309 7.99998 3.48309C8.78391 3.48309 9.54332 3.75639 10.1475 4.25593C10.7516 4.75548 11.1627 5.45003 11.31 6.22L11.47 7H4.52998Z" fill="#0F1621"/>
</svg>
