<svg width="16" height="16" viewBox="0 0 16 16" fill="none" xmlns="http://www.w3.org/2000/svg">
<path d="M12.0005 15H4.00047V13H12.0005V15ZM13.1705 7.87L12.7805 5.92C12.6289 5.16122 12.2973 4.44996 11.8135 3.84609C11.3297 3.24222 10.7079 2.76342 10.0005 2.45V1H6.00047V2.45C5.29303 2.76342 4.67124 3.24222 4.18744 3.84609C3.70365 4.44996 3.37202 5.16122 3.22047 5.92L2.83047 7.92C2.73802 8.41775 2.75625 8.92975 2.88387 9.41966C3.01149 9.90958 3.24536 10.3654 3.5689 10.7548C3.89244 11.1442 4.29771 11.4576 4.75596 11.6728C5.21421 11.888 5.71421 11.9997 6.22047 12H9.78047C10.2918 12.0011 10.7971 11.8886 11.2596 11.6705C11.7221 11.4524 12.1304 11.1342 12.4548 10.7389C12.7793 10.3436 13.0118 9.88117 13.1356 9.385C13.2593 8.88883 13.2713 8.37134 13.1705 7.87ZM7.00047 10H5.00047V9H7.00047V10ZM11.0005 10H9.00047V9H11.0005V10ZM4.53047 7L4.69047 6.22C4.83774 5.45003 5.24883 4.75548 5.85298 4.25593C6.45713 3.75639 7.21654 3.48309 8.00047 3.48309C8.7844 3.48309 9.54381 3.75639 10.148 4.25593C10.7521 4.75548 11.1632 5.45003 11.3105 6.22L11.4705 7H4.53047Z" fill="#0F1621"/>
</svg>
