<svg width="16" height="16" viewBox="0 0 16 16" fill="none" xmlns="http://www.w3.org/2000/svg">
<path d="M2 4C1.44772 4 1 4.44772 1 5V11C1 11.5523 1.44772 12 2 12H3.5C4.05228 12 4.5 11.5523 4.5 11V9H6.2L6.20583 9.02913C6.37688 9.88438 7.12781 10.5 8 10.5C8.87219 10.5 9.62312 9.88438 9.79417 9.02913L9.8 9H11.5V11C11.5 11.5523 11.9477 12 12.5 12H14C14.5523 12 15 11.5523 15 11V5C15 4.44772 14.5523 4 14 4H12.5C11.9477 4 11.5 4.44772 11.5 5V7H9.8L9.79417 6.97087C9.62312 6.11562 8.87219 5.5 8 5.5C7.12781 5.5 6.37688 6.11562 6.20583 6.97087L6.2 7H4.5V5C4.5 4.44772 4.05228 4 3.5 4H2Z" fill="#0F1621"/>
</svg>
