<svg width="24" height="24" viewBox="0 0 24 24" fill="none" xmlns="http://www.w3.org/2000/svg">
<path d="M4 6C2.89543 6 2 6.89543 2 8V16C2 17.1046 2.89543 18 4 18H5C6.10457 18 7 17.1046 7 16V14H9.5L9.82918 14.6584C10.2403 15.4806 11.0807 16 12 16C12.9193 16 13.7597 15.4806 14.1708 14.6584L14.5 14H17V16C17 17.1046 17.8954 18 19 18H20C21.1046 18 22 17.1046 22 16V8C22 6.89543 21.1046 6 20 6H19C17.8954 6 17 6.89543 17 8V10H14.5L14.1708 9.34164C13.7597 8.51939 12.9193 8 12 8C11.0807 8 10.2403 8.51939 9.82918 9.34164L9.5 10H7V8C7 6.89543 6.10457 6 5 6H4Z" fill="#0F1621"/>
</svg>
