<svg width="24" height="24" viewBox="0 0 24 24" fill="none" xmlns="http://www.w3.org/2000/svg">
<path d="M8 9H9.17071C9.58254 7.83481 10.6938 7 12 7C13.3062 7 14.4175 7.83481 14.8293 9H16V8C16 6.89543 16.8954 6 18 6H20C21.1046 6 22 6.89543 22 8V16C22 17.1046 21.1046 18 20 18H18C16.8954 18 16 17.1046 16 16V15H14.8293C14.4175 16.1652 13.3062 17 12 17C10.6938 17 9.58254 16.1652 9.17071 15H8V16C8 17.1046 7.10457 18 6 18H4C2.89543 18 2 17.1046 2 16V8C2 6.89543 2.89543 6 4 6H6C7.10457 6 8 6.89543 8 8V9ZM6 8H4L4 16H6V13H11V15H13V13H18V16H20V8H18V11H13V9H11V11H6V8Z" fill="#0F1621"/>
</svg>
