<svg width="16" height="16" viewBox="0 0 16 16" fill="none" xmlns="http://www.w3.org/2000/svg">
<path d="M14 7V3C14 2.46957 13.7893 1.96086 13.4142 1.58579C13.0391 1.21071 12.5304 1 12 1H4C3.46957 1 2.96086 1.21071 2.58579 1.58579C2.21071 1.96086 2 2.46957 2 3V7H1V9H2V13C2 13.5304 2.21071 14.0391 2.58579 14.4142C2.96086 14.7893 3.46957 15 4 15H6L7 13H9L10 15H12C12.5304 15 13.0391 14.7893 13.4142 14.4142C13.7893 14.0391 14 13.5304 14 13V9H15V7H14ZM5 13C4.80222 13 4.60888 12.9414 4.44443 12.8315C4.27998 12.7216 4.15181 12.5654 4.07612 12.3827C4.00043 12.2 3.98063 11.9989 4.01921 11.8049C4.0578 11.6109 4.15304 11.4327 4.29289 11.2929C4.43275 11.153 4.61093 11.0578 4.80491 11.0192C4.99889 10.9806 5.19996 11.0004 5.38268 11.0761C5.56541 11.1518 5.72159 11.28 5.83147 11.4444C5.94135 11.6089 6 11.8022 6 12C6 12.2652 5.89464 12.5196 5.70711 12.7071C5.51957 12.8946 5.26522 13 5 13ZM11 13C10.8022 13 10.6089 12.9414 10.4444 12.8315C10.28 12.7216 10.1518 12.5654 10.0761 12.3827C10.0004 12.2 9.98063 11.9989 10.0192 11.8049C10.0578 11.6109 10.153 11.4327 10.2929 11.2929C10.4327 11.153 10.6109 11.0578 10.8049 11.0192C10.9989 10.9806 11.2 11.0004 11.3827 11.0761C11.5654 11.1518 11.7216 11.28 11.8315 11.4444C11.9414 11.6089 12 11.8022 12 12C12 12.2652 11.8946 12.5196 11.7071 12.7071C11.5196 12.8946 11.2652 13 11 13ZM4 9L4.62 6.51C4.7291 6.07825 4.97918 5.69526 5.3306 5.42173C5.68202 5.14821 6.11468 4.99979 6.56 5H9.44C9.88532 4.99979 10.318 5.14821 10.6694 5.42173C11.0208 5.69526 11.2709 6.07825 11.38 6.51L12 9H4Z" fill="#0F1621"/>
</svg>
