<svg width="16" height="16" viewBox="0 0 16 16" fill="none" xmlns="http://www.w3.org/2000/svg">
<path d="M1 15V14L3 13L5.5 14L8 12.5L10.5 14L13 13L15 14V15H1Z" fill="#0E1520"/>
<path d="M8.75003 6.25L8.75001 8.5L11.75 11.75L10.5 13L8.00001 10.25L7.50001 11L5.5 13L4.25 11.75L6.25002 9.75L6.75004 8.75L6.50002 8L6.50003 6.25L5.99999 6.24997L5.49999 6.99997V8.49997H3.99999L4 6.8333C4 6.61693 4.07018 6.4064 4.2 6.2333L5.2 4.89998C5.38885 4.64817 5.68525 4.49997 6.00001 4.49997L9.00003 4.5L10.5 6H12.5V7.51L10.4251 7.50142C10.1535 7.50051 9.68704 7.19698 9.50003 7C9.2364 6.72231 9.05222 6.58029 8.75003 6.25Z" fill="#0E1520"/>
<path d="M7 2C7 1.44772 7.44772 1 8 1C8.55228 1 9 1.44772 9 2V2.75C9 3.30228 8.55228 3.75 8 3.75C7.44772 3.75 7 3.30228 7 2.75V2Z" fill="#0E1520"/>
</svg>
