<svg width="16" height="16" viewBox="0 0 16 16" fill="none" xmlns="http://www.w3.org/2000/svg">
<path d="M1 15V14L3 13.25L5.5 14L8 12.75L10.5 14L12.5 13.25L15 14V15H1Z" fill="#0E1520"/>
<path d="M1 2.25C1 1.55964 1.55964 1 2.25 1H9C9.69036 1 10.25 1.55964 10.25 2.25V3H11.7317C12.5246 3 13.2183 3.53302 13.4226 4.29909L14.0358 6.59853C14.5996 6.81422 15 7.36035 15 8V10.5H14C14 11.3284 13.3284 12 12.5 12C11.6716 12 11 11.3284 11 10.5H8.5C8.5 11.3284 7.82843 12 7 12C6.17157 12 5.5 11.3284 5.5 10.5H5C5 11.3284 4.32843 12 3.5 12C2.67157 12 2 11.3284 2 10.5L1 10.5V2.25ZM12.4571 6.5L11.9733 4.68558C11.9441 4.57615 11.845 4.5 11.7317 4.5H10.25V6.5H12.4571ZM2 8H8.75V2.5H2V8Z" fill="#0F1621"/>
</svg>
