<svg width="24" height="24" viewBox="0 0 24 24" fill="none" xmlns="http://www.w3.org/2000/svg">
<path d="M2 21.9116V20.9116L5 19.4116L8 20.9116L12 18.5L16 20.9116L19 19.4116L22 21V22L2 21.9116Z" fill="#0E1520"/>
<path d="M7.94999 15H8.05001C8.28164 16.1411 9.29052 17 10.5 17C11.7095 17 12.7184 16.1411 12.95 15H16.05C16.2816 16.1411 17.2905 17 18.5 17C19.7095 17 20.7184 16.1411 20.95 15H22L22.0002 11.5354C22.0002 10.8666 21.666 10.242 21.1095 9.87102L20.3764 9.38236L19.6595 6.51493C19.4369 5.62459 18.637 5 17.7192 5H15V4C15 2.90082 14.1141 2 13.0041 2H3.5C2.67157 2 2 2.67157 2 3.5V15H3.05001C3.28164 16.1411 4.29052 17 5.5 17C6.70948 17 7.71836 16.1411 7.94999 15ZM3.5 12V4H13V12H3.5ZM15 10V7H17.7192L18.4692 10H15Z" fill="#0F1621"/>
</svg>
