<svg width="24" height="24" viewBox="0 0 24 24" fill="none" xmlns="http://www.w3.org/2000/svg">
<path d="M2 21.9116V20.9116L5 19.4116L8 20.9116L12 18.5L16 20.9116L19 19.4116L22 21V22L2 21.9116Z" fill="#0E1520"/>
<path d="M2 3.5C2 2.67157 2.67157 2 3.5 2H13.0041C14.1141 2 15 2.90082 15 4V5H17.7457C18.6387 5 19.4235 5.59201 19.6687 6.45066L20.3603 8.87182L21.1093 9.37105C21.6658 9.74197 22 10.3665 22 11.0352L22 15H20.95C20.7184 16.1411 19.7095 17 18.5 17C17.2905 17 16.2816 16.1411 16.05 15H12.95C12.7184 16.1411 11.7095 17 10.5 17C9.29052 17 8.28164 16.1411 8.05001 15H7.94999C7.71836 16.1411 6.70948 17 5.5 17C4.29052 17 3.28164 16.1411 3.05001 15H2V3.5ZM16.4998 13C16.9559 12.3928 17.6821 12 18.5 12C19.0628 12 19.5822 12.186 20 12.4998L20 11.0352L18.6392 10.1282L17.7457 7H15V13H16.4998ZM13 13V4H3.5V12.9998C3.95611 12.3927 4.6822 12 5.5 12C6.31791 12 7.04408 12.3928 7.50018 13H8.49982C8.95592 12.3928 9.68209 12 10.5 12C11.3179 12 12.0441 12.3928 12.5002 13H13ZM6.5 14.5C6.5 13.9477 6.05228 13.5 5.5 13.5C4.94772 13.5 4.5 13.9477 4.5 14.5C4.5 15.0523 4.94772 15.5 5.5 15.5C6.05228 15.5 6.5 15.0523 6.5 14.5ZM10.5 15.5C11.0523 15.5 11.5 15.0523 11.5 14.5C11.5 13.9477 11.0523 13.5 10.5 13.5C9.94772 13.5 9.5 13.9477 9.5 14.5C9.5 15.0523 9.94772 15.5 10.5 15.5ZM19.5 14.5C19.5 13.9477 19.0523 13.5 18.5 13.5C17.9477 13.5 17.5 13.9477 17.5 14.5C17.5 15.0523 17.9477 15.5 18.5 15.5C19.0523 15.5 19.5 15.0523 19.5 14.5Z" fill="#0F1621"/>
</svg>
