<svg width="24" height="24" viewBox="0 0 24 24" fill="none" xmlns="http://www.w3.org/2000/svg">
<path d="M2 22V21L5 19.5L8 21L12 18.5L15.9999 21L19 19.5L22 21V22H2Z" fill="#0E1520"/>
<path d="M12.9999 9.25V13L17.7499 18L15.9999 19.75L11.9999 15.25L11.4999 16.5L7.99989 19.75L6.49989 18L9.74989 15L10.2499 13L9.74989 12V9.25H8.99994L7.99989 10.75L7.99983 13H5.99989V10.7027C5.99989 10.4075 6.08652 10.1194 6.251 9.87424C6.60122 9.35215 7.25565 8.38383 7.80895 7.60619C8.08267 7.2215 8.52776 7 8.99989 7H13.4999L15.75 9H17.9999V11H15.5635C15.2002 11 14.8492 10.8681 14.5757 10.6289L12.9999 9.25Z" fill="#0E1520"/>
<path d="M10.4999 3.5C10.4999 2.67157 11.1715 2 11.9999 2C12.8284 2 13.4999 2.67157 13.4999 3.5V4.5C13.4999 5.32843 12.8284 6 11.9999 6C11.1715 6 10.4999 5.32843 10.4999 4.5V3.5Z" fill="#0E1520"/>
</svg>
