<svg width="24" height="24" viewBox="0 0 24 24" fill="none" xmlns="http://www.w3.org/2000/svg">
<path d="M10 4.47V3.53C9.99733 3.12858 10.1536 2.74241 10.4346 2.45576C10.7156 2.16911 11.0986 2.00527 11.5 2C11.6979 1.9998 11.8938 2.03956 12.0759 2.11688C12.258 2.19421 12.4227 2.30751 12.56 2.45C12.8417 2.739 12.9995 3.12645 13 3.53V4.47C13 4.86783 12.842 5.24936 12.5607 5.53066C12.2794 5.81197 11.8978 5.97 11.5 5.97C11.1022 5.97 10.7206 5.81197 10.4393 5.53066C10.158 5.24936 10 4.86783 10 4.47ZM13 9H10V12H13V9ZM13.22 7C13.7206 7.03093 14.1887 7.25855 14.5221 7.63321C14.8556 8.00788 15.0274 8.49919 15 9V14H13V22H10V14H8V9C7.97353 8.74935 7.9997 8.49593 8.07683 8.25598C8.15396 8.01603 8.28036 7.79483 8.44793 7.60655C8.61549 7.41828 8.82053 7.26707 9.04992 7.16262C9.2793 7.05817 9.52797 7.00278 9.78 7H13.22Z" fill="#0F1621"/>
</svg>
