<svg width="16" height="16" viewBox="0 0 16 16" fill="none" xmlns="http://www.w3.org/2000/svg">
<path d="M7 3.00002V2.00002C7.00083 1.80225 7.06028 1.60916 7.17085 1.44518C7.28141 1.28119 7.43812 1.15368 7.62115 1.07875C7.80418 1.00383 8.00532 0.984856 8.19913 1.02424C8.39295 1.06363 8.57073 1.1596 8.71 1.30002C8.89474 1.48628 8.9989 1.73768 9 2.00002V3.00002C9 3.26524 8.89464 3.51959 8.70711 3.70713C8.51957 3.89466 8.26522 4.00002 8 4.00002C7.73478 4.00002 7.48043 3.89466 7.29289 3.70713C7.10536 3.51959 7 3.26524 7 3.00002ZM5 7.00002V10H7V15H9V10H11V7.00002C11 6.46959 10.7893 5.96088 10.4142 5.58581C10.0391 5.21073 9.53043 5.00002 9 5.00002H7C6.46957 5.00002 5.96086 5.21073 5.58579 5.58581C5.21071 5.96088 5 6.46959 5 7.00002Z" fill="#0F1621"/>
</svg>
