<svg width="16" height="16" viewBox="0 0 16 16" fill="none" xmlns="http://www.w3.org/2000/svg">
<path d="M9 3C9 3.12744 8.97567 3.25237 8.92959 3.36859L8.36859 3.92959C8.25237 3.97567 8.12744 4 8 4C7.73478 4 7.48043 3.89464 7.29289 3.70711C7.10536 3.51957 7 3.26522 7 3V2C7 1.73478 7.10536 1.48043 7.29289 1.29289C7.48043 1.10536 7.73478 1 8 1C8.26522 1 8.51957 1.10536 8.70711 1.29289C8.89464 1.48043 9 1.73478 9 2V3Z" fill="#0E1520"/>
<path d="M4.5 5H7.29818L5.29818 7H4.5V7.79818L3.29818 9H3V7C3.04099 6.61739 3.2185 6.26236 3.5 6L4.5 5Z" fill="#0E1520"/>
<path d="M7.95442 11.415L9.29214 10.0773L12 13.33L10.67 14.67L7.95442 11.415Z" fill="#0E1520"/>
<path d="M12.8795 6.49L11.3695 8H13V6.49H12.8795Z" fill="#0E1520"/>
<path d="M12.6654 1.74805L14.0796 3.16226L2.41421 14.8277L1 13.4135L12.6654 1.74805Z" fill="#0E1520"/>
</svg>
