<svg width="24" height="24" viewBox="0 0 24 24" fill="none" xmlns="http://www.w3.org/2000/svg">
<path d="M18.4543 2.04564L19.8686 3.45985L3.44363 19.8848L2.02942 18.4706L18.4543 2.04564Z" fill="#0F1621"/>
<path d="M14.656 8.65598L13.247 7.24702L9 11.494V13L9.54022 13.7717L13 10.312V10L13.156 10.156L14.656 8.65598Z" fill="#0F1621"/>
<path d="M13 13.1404L5.57019 20.5702L7 22L11 18L11.6 16.8L16 22L18 20L13 14V13.1404Z" fill="#0F1621"/>
<path d="M14.5794 11.5609L16.1404 10H19V12H15.8C15.3723 12 14.9446 11.8536 14.5794 11.5609Z" fill="#0F1621"/>
<path d="M13 4.5C13 4.55965 12.9961 4.61875 12.9886 4.67705L11.677 5.98857C11.6188 5.99611 11.5597 6 11.5 6C10.7 6 10 5.3 10 4.5V3.5C10 2.7 10.7 2 11.5 2C12.3 2 13 2.7 13 3.5V4.5Z" fill="#0F1621"/>
<path d="M8.8 7H10.6656L5 12.6656V10.8C5 10.3 5.2 9.8 5.6 9.4L7.4 7.6C7.8 7.2 8.3 7 8.8 7Z" fill="#0F1621"/>
</svg>
