<svg width="16" height="16" viewBox="0 0 16 16" fill="none" xmlns="http://www.w3.org/2000/svg">
<path d="M12.6654 1.74817L14.0796 3.16238L2.41421 14.8278L1 13.4136L12.6654 1.74817Z" fill="#0F1621"/>
<path d="M8.92958 3.36859C8.97566 3.25237 8.99999 3.12744 8.99999 3V2C8.99999 1.73478 8.89463 1.48043 8.70709 1.29289C8.51956 1.10536 8.2652 1 7.99999 1C7.73477 1 7.48042 1.10536 7.29288 1.29289C7.10534 1.48043 6.99999 1.73478 6.99999 2V3C6.99999 3.26522 7.10534 3.51957 7.29288 3.70711C7.48042 3.89464 7.73477 4 7.99999 4C8.12743 4 8.25236 3.97567 8.36858 3.92959L8.92958 3.36859Z" fill="#0F1621"/>
<path d="M7.29817 5H4.49999L3.49999 6C3.21849 6.26236 3.04098 6.61739 2.99999 7V9H3.29817L4.49999 7.79818V7H5.29817L7.29817 5Z" fill="#0F1621"/>
<path d="M5.99999 8.4195V10.58L3.24999 13.25L3.62405 13.6241L8.66999 8.57813V6.67L9.60999 7.61L9.62415 7.62397L10.7581 6.49H10.5L9.21044 5.20905L5.99999 8.4195Z" fill="#0F1621"/>
<path d="M7.95441 11.415L9.29213 10.0773L12 13.33L10.67 14.67L7.95441 11.415Z" fill="#0F1621"/>
<path d="M11.3694 8L12.8794 6.49H13V8H11.3694Z" fill="#0F1621"/>
</svg>
