<svg width="24" height="24" viewBox="0 0 24 24" fill="none" xmlns="http://www.w3.org/2000/svg">
<path d="M12.197 13.9435L5.57023 20.5702L7.00004 22L11 18L11.5 16.4L16 22L17.5 20.5L12.197 13.9435Z" fill="#0E1520"/>
<path d="M14.5795 11.5609L16.1404 10H19V12H15.8C15.3723 12 14.9446 11.8536 14.5795 11.5609Z" fill="#0E1520"/>
<path d="M13 4.5C13 4.55965 12.9961 4.61875 12.9886 4.67705L11.6771 5.98857C11.6188 5.99611 11.5597 6 11.5 6C10.7 6 10 5.3 10 4.5V3.5C10 2.7 10.7 2 11.5 2C12.3 2 13 2.7 13 3.5V4.5Z" fill="#0E1520"/>
<path d="M10.6657 7L5.00004 12.6656V10.8C5.00004 10.3 5.20004 9.79999 5.60004 9.39999L7.40004 7.60001C7.80004 7.20001 8.30004 7 8.80004 7H10.6657Z" fill="#0E1520"/>
<path d="M18.4557 2.04433L19.8699 3.45854L3.44369 19.8848L2.02948 18.4706L18.4557 2.04433Z" fill="#0E1520"/>
</svg>
