<svg width="24" height="24" viewBox="0 0 24 24" fill="none" xmlns="http://www.w3.org/2000/svg">
<path fill-rule="evenodd" clip-rule="evenodd" d="M16 14C16 14.3956 15.8827 14.7822 15.6629 15.1111C15.4432 15.44 15.1308 15.6964 14.7654 15.8478C14.3999 15.9991 13.9978 16.0387 13.6098 15.9616C13.2219 15.8844 12.8655 15.6939 12.5858 15.4142C12.3061 15.1345 12.1156 14.7781 12.0384 14.3902C11.9613 14.0022 12.0009 13.6001 12.1522 13.2346C12.3036 12.8692 12.56 12.5568 12.8889 12.3371C13.2178 12.1173 13.6044 12 14 12C14.5304 12 15.0391 12.2107 15.4142 12.5858C15.7893 12.9609 16 13.4696 16 14ZM18 14C18 13.2089 17.7654 12.4355 17.3259 11.7777C16.8864 11.1199 16.2616 10.6072 15.5307 10.3045C14.7998 10.0017 13.9956 9.92252 13.2196 10.0769C12.4437 10.2312 11.731 10.6122 11.1716 11.1716C10.6122 11.731 10.2312 12.4437 10.0769 13.2196C9.92252 13.9956 10.0017 14.7998 10.3045 15.5307C10.6072 16.2616 11.1199 16.8864 11.7777 17.3259C12.4355 17.7654 13.2089 18 14 18C15.0609 18 16.0783 17.5786 16.8284 16.8284C17.5786 16.0783 18 15.0609 18 14ZM6 12H9V10H6V12ZM11 6H22V18C22 18.7956 21.6839 19.5587 21.1213 20.1213C20.5587 20.6839 19.7956 21 19 21H5C4.20435 21 3.44129 20.6839 2.87868 20.1213C2.31607 19.5587 2 18.7956 2 18V6H4V4H11V6Z" fill="#0F1621"/>
</svg>
