<svg width="24" height="24" viewBox="0 0 24 24" fill="none" xmlns="http://www.w3.org/2000/svg">
<path d="M11 6V4H4V6H2V18C2 18.7956 2.31607 19.5587 2.87868 20.1213C3.44129 20.6839 4.20435 21 5 21H19C19.7956 21 20.5587 20.6839 21.1213 20.1213C21.6839 19.5587 22 18.7956 22 18V6H11ZM20 18C20 18.2652 19.8946 18.5196 19.7071 18.7071C19.5196 18.8946 19.2652 19 19 19H5C4.73478 19 4.48043 18.8946 4.29289 18.7071C4.10536 18.5196 4 18.2652 4 18V8H6V6H9V8H20V18ZM6 12V10H9V12H6ZM14 10C13.2089 10 12.4355 10.2346 11.7777 10.6741C11.1199 11.1136 10.6072 11.7384 10.3045 12.4693C10.0017 13.2002 9.92252 14.0044 10.0769 14.7804C10.2312 15.5563 10.6122 16.269 11.1716 16.8284C11.731 17.3878 12.4437 17.7688 13.2196 17.9231C13.9956 18.0775 14.7998 17.9983 15.5307 17.6955C16.2616 17.3928 16.8864 16.8801 17.3259 16.2223C17.7654 15.5645 18 14.7911 18 14C18 12.9391 17.5786 11.9217 16.8284 11.1716C16.0783 10.4214 15.0609 10 14 10ZM14 16C13.6044 16 13.2178 15.8827 12.8889 15.6629C12.56 15.4432 12.3036 15.1308 12.1522 14.7654C12.0009 14.3999 11.9613 13.9978 12.0384 13.6098C12.1156 13.2219 12.3061 12.8655 12.5858 12.5858C12.8655 12.3061 13.2219 12.1156 13.6098 12.0384C13.9978 11.9613 14.3999 12.0009 14.7654 12.1522C15.1308 12.3036 15.4432 12.56 15.6629 12.8889C15.8827 13.2178 16 13.6044 16 14C16 14.5304 15.7893 15.0391 15.4142 15.4142C15.0391 15.7893 14.5304 16 14 16Z" fill="#0F1621"/>
</svg>
