<svg width="16" height="16" viewBox="0 0 16 16" fill="none" xmlns="http://www.w3.org/2000/svg">
<path d="M6 4V3H2V12C2 12.2652 2.10536 12.5196 2.29289 12.7071C2.48043 12.8946 2.73478 13 3 13H13C13.2652 13 13.5196 12.8946 13.7071 12.7071C13.8946 12.5196 14 12.2652 14 12V4H6ZM5 6H3V5H5V6ZM10 11.5C9.40666 11.5 8.82664 11.3241 8.33329 10.9944C7.83994 10.6648 7.45542 10.1962 7.22836 9.64805C7.0013 9.09987 6.94189 8.49667 7.05764 7.91473C7.1734 7.33279 7.45912 6.79824 7.87868 6.37868C8.29824 5.95912 8.83279 5.6734 9.41473 5.55764C9.99667 5.44189 10.5999 5.5013 11.1481 5.72836C11.6962 5.95542 12.1648 6.33994 12.4944 6.83329C12.8241 7.32664 13 7.90666 13 8.5C13 9.29565 12.6839 10.0587 12.1213 10.6213C11.5587 11.1839 10.7956 11.5 10 11.5ZM10 7C9.70333 7 9.41332 7.08797 9.16665 7.2528C8.91997 7.41762 8.72771 7.65189 8.61418 7.92597C8.50065 8.20006 8.47094 8.50166 8.52882 8.79264C8.5867 9.08361 8.72956 9.35088 8.93934 9.56066C9.14912 9.77044 9.41639 9.9133 9.70736 9.97118C9.99834 10.0291 10.2999 9.99935 10.574 9.88582C10.8481 9.77229 11.0824 9.58003 11.2472 9.33335C11.412 9.08668 11.5 8.79667 11.5 8.5C11.5 8.10218 11.342 7.72064 11.0607 7.43934C10.7794 7.15804 10.3978 7 10 7Z" fill="#0F1621"/>
</svg>
