<svg width="24" height="24" viewBox="0 0 24 24" fill="none" xmlns="http://www.w3.org/2000/svg">
<path d="M4 2H16C16.5304 2 17.0391 2.21071 17.4142 2.58579C17.7893 2.96086 18 3.46957 18 4V12.67C17.9974 13.0219 17.8564 13.3587 17.6076 13.6076C17.3587 13.8564 17.0219 13.9974 16.67 14H11.33L6 18V14H3.33C2.97807 13.9974 2.6413 13.8564 2.39244 13.6076C2.14358 13.3587 2.00262 13.0219 2 12.67V4C2 3.46957 2.21071 2.96086 2.58579 2.58579C2.96086 2.21071 3.46957 2 4 2ZM18 18H20C20.5304 18 21.0391 17.7893 21.4142 17.4142C21.7893 17.0391 22 16.5304 22 16V8C22 6.89543 21.1046 6 20 6V16H16V18L13.33 16H11V18H12.67L18 22V18Z" fill="#0F1621"/>
</svg>
