<svg width="16" height="16" viewBox="0 0 16 16" fill="none" xmlns="http://www.w3.org/2000/svg">
<path d="M3 1H10C10.5304 1 11.0391 1.21071 11.4142 1.58579C11.7893 1.96086 12 2.46957 12 3V7C12 7.53043 11.7893 8.03914 11.4142 8.41421C11.0391 8.78929 10.5304 9 10 9H7.5L4 12.5V9H3C2.46957 9 1.96086 8.78929 1.58579 8.41421C1.21071 8.03914 1 7.53043 1 7V3C1 2.46957 1.21071 1.96086 1.58579 1.58579C1.96086 1.21071 2.46957 1 3 1ZM12 12H13C13.5304 12 14.0391 11.7893 14.4142 11.4142C14.7893 11.0391 15 10.5304 15 10V4H13.5V10.5H10.5V12L8.5 10.5H7V12H8L12 15V12Z" fill="#0F1621"/>
</svg>
