<svg width="16" height="16" viewBox="0 0 16 16" fill="none" xmlns="http://www.w3.org/2000/svg">
<path d="M7.20002 1.81L8.00002 2.59L8.80002 1.81C9.47746 1.29729 10.3005 1.01358 11.15 1C11.6781 1.01926 12.1971 1.14295 12.677 1.36393C13.157 1.5849 13.5884 1.89878 13.9464 2.28744C14.3043 2.67609 14.5818 3.13182 14.7626 3.6283C14.9435 4.12477 15.0242 4.65216 15 5.18C14.9971 5.94984 14.8193 6.70896 14.48 7.4C13.864 8.58298 13.0716 9.66537 12.13 10.61C11.72 11.05 9.28002 13.61 8.50002 14.46L8.00002 15L7.50002 14.46C6.72002 13.6 4.28002 11.05 3.87002 10.61C2.92843 9.66537 2.13603 8.58298 1.52002 7.4C1.18071 6.70896 1.0029 5.94984 1.00002 5.18C0.975894 4.65216 1.05658 4.12477 1.23743 3.6283C1.41828 3.13182 1.6957 2.67609 2.05367 2.28744C2.41164 1.89878 2.84307 1.5849 3.32303 1.36393C3.803 1.14295 4.32198 1.01926 4.85002 1C5.6995 1.01358 6.52259 1.29729 7.20002 1.81Z" fill="#0F1621"/>
</svg>
