<svg width="24" height="24" viewBox="0 0 24 24" fill="none" xmlns="http://www.w3.org/2000/svg">
<path d="M10.86 4L12 5L13.14 4C14.139 3.34722 15.3066 2.99972 16.5 3C17.2168 2.97989 17.9303 3.10407 18.5981 3.36517C19.2659 3.62628 19.8745 4.01896 20.3875 4.5199C20.9006 5.02084 21.3077 5.61981 21.5847 6.28121C21.8617 6.94261 22.0029 7.65294 22 8.37C21.9914 9.36639 21.7372 10.3453 21.26 11.22C20.3648 12.771 19.227 14.1687 17.89 15.36C17.31 15.93 13.83 19.2 12.71 20.3L12 21L11.29 20.3C10.17 19.2 6.68998 15.93 6.10998 15.36C4.77293 14.1687 3.63521 12.771 2.73998 11.22C2.26276 10.3453 2.00859 9.36639 1.99998 8.37C1.99702 7.65294 2.13824 6.94261 2.41523 6.28121C2.69223 5.61981 3.09936 5.02084 3.61243 4.5199C4.12549 4.01896 4.73403 3.62628 5.40186 3.36517C6.0697 3.10407 6.78321 2.97989 7.49998 3C8.69337 2.99972 9.86096 3.34722 10.86 4Z" fill="#0F1621"/>
</svg>
