<svg width="24" height="24" viewBox="0 0 24 24" fill="none" xmlns="http://www.w3.org/2000/svg">
<path d="M20 4V20H4V4H20ZM22 2H2V20C2 20.5304 2.21071 21.0391 2.58579 21.4142C2.96086 21.7893 3.46957 22 4 22H20C20.5304 22 21.0391 21.7893 21.4142 21.4142C21.7893 21.0391 22 20.5304 22 20V2ZM11 7.5C11 7.79667 10.912 8.08668 10.7472 8.33335C10.5824 8.58003 10.3481 8.77229 10.074 8.88582C9.79994 8.99935 9.49834 9.02906 9.20736 8.97118C8.91639 8.9133 8.64912 8.77044 8.43934 8.56066C8.22956 8.35088 8.0867 8.08361 8.02882 7.79264C7.97094 7.50166 8.00065 7.20006 8.11418 6.92597C8.22771 6.65189 8.41997 6.41762 8.66665 6.2528C8.91332 6.08797 9.20333 6 9.5 6C9.89782 6 10.2794 6.15804 10.5607 6.43934C10.842 6.72064 11 7.10218 11 7.5ZM15.89 9.55C15.8061 9.3862 15.6786 9.24873 15.5216 9.15274C15.3645 9.05675 15.184 9.00596 15 9.00596C14.816 9.00596 14.6355 9.05675 14.4784 9.15274C14.3214 9.24873 14.1939 9.3862 14.11 9.55L12 14L10.63 12.59C10.4278 12.3896 10.1852 12.2347 9.91827 12.1356C9.65138 12.0365 9.36642 11.9955 9.08243 12.0154C8.79843 12.0352 8.52196 12.1155 8.27148 12.2508C8.02101 12.3862 7.80231 12.5734 7.63 12.8L6 15V17H8V15.64L9.19 14L10.56 15.41C10.7484 15.5996 10.9729 15.7495 11.2203 15.8508C11.4676 15.9521 11.7327 16.0029 12 16C12.3798 15.9999 12.7516 15.8917 13.0722 15.6881C13.3927 15.4844 13.6486 15.1937 13.81 14.85L15 12.34L16 14.45V17H18V14L15.89 9.55Z" fill="#0F1621"/>
</svg>
