<svg width="24" height="24" viewBox="0 0 24 24" fill="none" xmlns="http://www.w3.org/2000/svg">
<path d="M14 12C14 12.3956 13.8827 12.7822 13.6629 13.1111C13.4432 13.44 13.1308 13.6964 12.7654 13.8478C12.3999 13.9991 11.9978 14.0387 11.6098 13.9616C11.2219 13.8844 10.8655 13.6939 10.5858 13.4142C10.3061 13.1345 10.1156 12.7781 10.0384 12.3902C9.96126 12.0022 10.0009 11.6001 10.1522 11.2346C10.3036 10.8692 10.56 10.5568 10.8889 10.3371C11.2178 10.1173 11.6044 9.99999 12 9.99999C12.5304 9.99999 13.0391 10.2107 13.4142 10.5858C13.7893 10.9609 14 11.4696 14 12ZM18 12C18.0026 12.7882 17.8483 13.569 17.5462 14.2969C17.244 15.0248 16.8 15.6854 16.24 16.24L14.83 14.83C15.2019 14.4585 15.4969 14.0173 15.6982 13.5318C15.8995 13.0462 16.0031 12.5257 16.0031 12C16.0031 11.4743 15.8995 10.9538 15.6982 10.4682C15.4969 9.98264 15.2019 9.54149 14.83 9.16999L16.24 7.75999C16.8 8.31462 17.244 8.97515 17.5462 9.70309C17.8483 10.431 18.0026 11.2118 18 12ZM9.17 9.16999C8.7981 9.54149 8.50306 9.98264 8.30176 10.4682C8.10046 10.9538 7.99685 11.4743 7.99685 12C7.99685 12.5257 8.10046 13.0462 8.30176 13.5318C8.50306 14.0173 8.7981 14.4585 9.17 14.83L7.76 16.24C6.6364 15.115 6.00528 13.59 6.00528 12C6.00528 10.41 6.6364 8.885 7.76 7.75999L9.17 9.16999ZM22 12C21.9994 14.6519 20.9455 17.1951 19.07 19.07L17.65 17.65C19.1461 16.1503 19.9863 14.1184 19.9863 12C19.9863 9.88162 19.1461 7.84972 17.65 6.34999L19.07 4.92999C20.9455 6.80492 21.9994 9.34804 22 12ZM6.35 6.34999C4.8539 7.84972 4.0137 9.88162 4.0137 12C4.0137 14.1184 4.8539 16.1503 6.35 17.65L4.93 19.07C3.05529 17.1947 2.00214 14.6516 2.00214 12C2.00214 9.34835 3.05529 6.80527 4.93 4.92999L6.35 6.34999Z" fill="#0F1621"/>
</svg>
