<svg width="16" height="16" viewBox="0 0 16 16" fill="none" xmlns="http://www.w3.org/2000/svg">
<path fill-rule="evenodd" clip-rule="evenodd" d="M7.29 6.66L2.64 2H13.36L8.71 6.66C8.61704 6.75373 8.50644 6.82812 8.38458 6.87889C8.26272 6.92966 8.13201 6.9558 8 6.9558C7.86799 6.9558 7.73728 6.92966 7.61542 6.87889C7.49356 6.82812 7.38296 6.75373 7.29 6.66ZM9.41 8.78C9.03527 9.1525 8.52837 9.36159 8 9.36159C7.47163 9.36159 6.96473 9.1525 6.59 8.78L1 3.19V13C1 13.2652 1.10536 13.5196 1.29289 13.7071C1.48043 13.8946 1.73478 14 2 14H14C14.2652 14 14.5196 13.8946 14.7071 13.7071C14.8946 13.5196 15 13.2652 15 13V3.19L9.41 8.78Z" fill="#0F1621"/>
</svg>
