<svg width="24" height="24" viewBox="0 0 24 24" fill="none" xmlns="http://www.w3.org/2000/svg">
<path d="M20 2H4C3.46957 2 2.96086 2.21071 2.58579 2.58579C2.21071 2.96086 2 3.46957 2 4V20C2 20.5304 2.21071 21.0391 2.58579 21.4142C2.96086 21.7893 3.46957 22 4 22H20C20.5304 22 21.0391 21.7893 21.4142 21.4142C21.7893 21.0391 22 20.5304 22 20V4C22 3.46957 21.7893 2.96086 21.4142 2.58579C21.0391 2.21071 20.5304 2 20 2ZM12 17C11.0111 17 10.0444 16.7068 9.22215 16.1573C8.3999 15.6079 7.75904 14.827 7.3806 13.9134C7.00216 12.9998 6.90315 11.9945 7.09607 11.0245C7.289 10.0546 7.7652 9.16373 8.46447 8.46447C9.16373 7.7652 10.0546 7.289 11.0245 7.09607C11.9945 6.90315 12.9998 7.00216 13.9134 7.3806C14.827 7.75904 15.6079 8.3999 16.1573 9.22215C16.7068 10.0444 17 11.0111 17 12C17 13.3261 16.4732 14.5979 15.5355 15.5355C14.5979 16.4732 13.3261 17 12 17Z" fill="#0F1621"/>
</svg>
