<svg width="16" height="16" viewBox="0 0 16 16" fill="none" xmlns="http://www.w3.org/2000/svg">
<path d="M5.90999 5.89001L7.16999 1.61001C7.20538 1.46829 7.27628 1.33793 7.376 1.2312C7.47573 1.12448 7.601 1.04491 7.73999 1.00001C7.96012 0.931117 8.1986 0.952461 8.403 1.05935C8.60739 1.16623 8.76098 1.34992 8.82999 1.57001L10.09 5.85001H14.09C14.2307 5.85037 14.3693 5.8841 14.4945 5.94841C14.6196 6.01273 14.7278 6.10581 14.81 6.22001C14.877 6.31366 14.9248 6.41968 14.9505 6.53192C14.9762 6.64416 14.9794 6.7604 14.9599 6.87388C14.9403 6.98737 14.8985 7.09585 14.8367 7.19303C14.7749 7.29021 14.6945 7.37416 14.6 7.44001L11.48 9.39001L12.76 13.86C12.8299 14.0381 12.8392 14.2342 12.7864 14.4181C12.7337 14.6019 12.6218 14.7633 12.4681 14.8771C12.3143 14.991 12.1274 15.051 11.9361 15.0479C11.7448 15.0448 11.5599 14.9788 11.41 14.86L7.99999 12.2L4.56999 14.83C4.42004 14.9488 4.23513 15.0148 4.04386 15.0179C3.85259 15.021 3.66564 14.961 3.51192 14.8471C3.35821 14.7333 3.24631 14.5719 3.19353 14.3881C3.14076 14.2042 3.15006 14.0081 3.21999 13.83L4.51999 9.36001L1.36999 7.48001C1.25066 7.40536 1.15344 7.30018 1.08838 7.17535C1.02333 7.05053 0.992817 6.91059 0.999989 6.77001C0.998666 6.65492 1.02019 6.54071 1.06332 6.434C1.10645 6.32729 1.17032 6.2302 1.25124 6.14835C1.33216 6.0665 1.42852 6.00152 1.53473 5.95718C1.64094 5.91283 1.75489 5.89 1.86999 5.89001H5.90999Z" fill="#0F1621"/>
</svg>
