<svg width="16" height="16" viewBox="0 0 16 16" fill="none" xmlns="http://www.w3.org/2000/svg">
<path d="M13.48 11L10.48 14L7.48 11C7.16521 10.6727 6.99266 10.2341 7 9.78C6.99602 9.54767 7.03834 9.31688 7.1245 9.10109C7.21066 8.88529 7.33893 8.68882 7.50183 8.52312C7.66474 8.35743 7.859 8.22584 8.0733 8.13602C8.2876 8.04621 8.51764 7.99997 8.75 8C9.12807 7.99698 9.49809 8.10926 9.81074 8.32186C10.1234 8.53446 10.3638 8.83729 10.5 9.19C10.6325 8.83482 10.8721 8.52955 11.1855 8.31638C11.499 8.10321 11.871 7.99266 12.25 8C12.4824 7.99997 12.7124 8.04621 12.9267 8.13602C13.141 8.22584 13.3353 8.35743 13.4982 8.52312C13.6611 8.68882 13.7893 8.88529 13.8755 9.10109C13.9617 9.31688 14.004 9.54767 14 9.78C13.9984 10.0076 13.9516 10.2327 13.8623 10.4421C13.773 10.6516 13.6431 10.8412 13.48 11ZM6.48 12.07C6.02987 11.6168 5.72328 11.0409 5.59854 10.4145C5.4738 9.78798 5.53644 9.13863 5.77863 8.54755C6.02083 7.95647 6.43183 7.44987 6.9603 7.09104C7.48877 6.73221 8.11126 6.53707 8.75 6.53C9.36115 6.53161 9.96116 6.69369 10.49 7C11.0245 6.68984 11.632 6.52761 12.25 6.53C12.9987 6.53004 13.7239 6.7918 14.3 7.27L15 6.56L9 1H1V10L6.58 15L8 13.59L6.48 12.07ZM4 5C3.80222 5 3.60888 4.94135 3.44443 4.83147C3.27998 4.72159 3.15181 4.56541 3.07612 4.38268C3.00043 4.19996 2.98063 3.99889 3.01921 3.80491C3.0578 3.61093 3.15304 3.43275 3.29289 3.29289C3.43275 3.15304 3.61093 3.0578 3.80491 3.01921C3.99889 2.98063 4.19996 3.00043 4.38268 3.07612C4.56541 3.15181 4.72159 3.27998 4.83147 3.44443C4.94135 3.60888 5 3.80222 5 4C5 4.26522 4.89464 4.51957 4.70711 4.70711C4.51957 4.89464 4.26522 5 4 5Z" fill="#0F1621"/>
</svg>
