<svg width="16" height="16" viewBox="0 0 16 16" fill="none" xmlns="http://www.w3.org/2000/svg">
<path d="M14.4914 9.03444C14.7683 7.92661 14.063 6.81259 12.9432 6.58865L10 6L10.789 2.05513C10.8981 1.50928 10.4806 1 9.92397 1C9.656 1 9.40255 1.12181 9.23515 1.33107L5.5 6V14C6.32365 14.2353 7.70455 14.6299 8.4622 14.8463C8.81956 14.9484 9.18855 15 9.56022 15H11.4384C12.3562 15 13.1559 14.3766 13.3784 13.4863C13.6859 12.2563 14.1269 10.4926 14.4914 9.03444Z" fill="#0E1520"/>
<path d="M4 14H1V6H4V14Z" fill="#0E1520"/>
</svg>
