<svg width="24" height="24" viewBox="0 0 24 24" fill="none" xmlns="http://www.w3.org/2000/svg">
<path d="M14.7572 20C14.5742 20 14.4006 19.9187 14.2835 19.7782L10 14.6379V5.193L12.672 4.19101C13.0088 4.0647 13.3656 4 13.7253 4H17.0119C17.4535 4 17.8429 4.28967 17.9698 4.71265L19.9715 11.3851C20.1294 11.9115 19.833 12.4667 19.3078 12.6283L13.7276 14.3452L15.3421 19.1885C15.4751 19.5877 15.178 20 14.7572 20ZM12.7471 21.0585C13.2442 21.6551 13.9806 22 14.7572 22C16.5431 22 17.8042 20.2503 17.2394 18.556L16.2724 15.6548L19.8959 14.5398C21.4716 14.055 22.3609 12.3895 21.8872 10.8104L19.8854 4.13796C19.5047 2.869 18.3368 2 17.0119 2H13.7253C13.1258 2 12.5311 2.10783 11.9697 2.31835L8 3.807V15.3621L12.7471 21.0585Z" fill="#0E1520"/>
<path d="M6 4H2V15H6V4Z" fill="#0E1520"/>
</svg>
