<svg width="16" height="16" viewBox="0 0 16 16" fill="none" xmlns="http://www.w3.org/2000/svg">
<path d="M14.4914 6.96556C14.7683 8.07339 14.063 9.18741 12.9432 9.41135L10 10L10.789 13.9449C10.8981 14.4907 10.4806 15 9.92397 15C9.656 15 9.40255 14.8782 9.23515 14.6689L5.5 10V2C6.32365 1.76467 7.70455 1.37013 8.4622 1.15366C8.81956 1.05155 9.18855 1 9.56022 1H11.4384C12.3562 1 13.1559 1.6234 13.3784 2.51374C13.6859 3.74368 14.1269 5.5074 14.4914 6.96556Z" fill="#0E1520"/>
<path d="M4 2H1V10H4V2Z" fill="#0E1520"/>
</svg>
