<svg width="24" height="24" viewBox="0 0 24 24" fill="none" xmlns="http://www.w3.org/2000/svg">
<path d="M14.7572 4C14.5742 4 14.4006 4.08128 14.2835 4.22185L10 9.36205V18.807L12.672 19.809C13.0088 19.9353 13.3656 20 13.7253 20H17.0119C17.4535 20 17.8429 19.7103 17.9698 19.2873L19.9715 12.6149C20.1294 12.0885 19.833 11.5333 19.3078 11.3717L13.7276 9.65477L15.3421 4.81152C15.4751 4.41229 15.178 4 14.7572 4ZM12.7471 2.94148C13.2442 2.34492 13.9806 2 14.7572 2C16.5431 2 17.8042 3.74968 17.2394 5.44398L16.2724 8.34523L19.8959 9.46018C21.4716 9.94501 22.3609 11.6105 21.8872 13.1896L19.8854 19.862C19.5047 21.131 18.3368 22 17.0119 22H13.7253C13.1258 22 12.5311 21.8922 11.9697 21.6816L8 20.193V8.63795L12.7471 2.94148Z" fill="#0E1520"/>
<path d="M6 20H2V9H6V20Z" fill="#0E1520"/>
</svg>
