<svg width="24" height="24" viewBox="0 0 24 24" fill="none" xmlns="http://www.w3.org/2000/svg">
<path d="M21.5861 16.5309L21.0392 16.4626C19.2095 16.234 17.7685 14.7917 17.54 12.9614L17.4718 12.4142C17.4426 12.1776 17.2413 12 17.003 12C16.7646 12 16.5639 12.1776 16.5342 12.4142M21.5861 16.5309L21.5274 16.9986L21.4932 16.7249L21.4926 16.7249M21.5861 16.5309C21.8225 16.5606 22 16.7615 22 17C22 17.2385 21.8225 17.4394 21.5861 17.4691M21.5861 16.5309L21.5275 17L21.5861 17.4691M21.4926 16.7249L20.9987 16.7866L20.9987 16.7866L20.9463 16.7931C20.6301 16.8326 20.3239 16.9025 20.0305 16.9999M21.4926 16.7249L21.5272 17L21.4926 17.2751M21.4926 16.7249C21.3543 16.7423 21.25 16.86 21.25 17C21.25 17.14 21.3543 17.2577 21.4926 17.2751M20.0305 16.9999C18.6023 16.5253 17.4774 15.3996 17.003 13.9714M20.0305 16.9999C20.3239 17.0974 20.6301 17.1674 20.9462 17.2069L20.9463 17.2069L20.9987 17.2134L21.4926 17.2751M20.0305 16.9999C18.6016 17.4739 17.4774 18.5987 17.0031 20.0279M17.003 13.9714C17.1006 13.6775 17.1707 13.3708 17.2102 13.0543L17.2102 13.0542L17.2167 13.0018L17.2167 13.0017L17.2784 12.5075M17.003 13.9714C16.9054 13.6775 16.8353 13.3708 16.7958 13.0543L16.7958 13.0542L16.7893 13.0017L16.7892 13.0017L16.7276 12.507C16.7453 12.6466 16.8637 12.75 17.003 12.75C17.1438 12.75 17.2611 12.6451 17.2784 12.5075M17.003 13.9714C16.5285 15.3999 15.4033 16.5254 13.9751 16.9999M17.2784 12.5075L17.2784 12.507L17.003 12.4726L17.0005 12.4723L16.5342 12.4142M17.2784 12.5075L17.003 12.473L17.0016 12.4728L16.9991 12.4725L16.5342 12.4142M16.5342 12.4142L13.0068 16.7865L13.0599 16.7932C13.3758 16.8327 13.6819 16.9026 13.9751 16.9999M13.9751 16.9999C15.4043 17.474 16.5288 18.5987 17.0031 20.0279M13.9751 16.9999C13.6817 17.0973 13.3754 17.1674 13.0594 17.2068C13.0594 17.2068 13.0593 17.2069 13.0593 17.2069L21.5274 17.0014M21.5861 17.4691L21.5274 17.0014M21.5861 17.4691L21.5274 17.0014M21.5274 17.0014L21.4932 17.2751L21.4926 17.2751M17.0031 20.0279C16.9055 20.3219 16.8354 20.6288 16.7958 20.9456L16.7958 20.9458L16.7892 20.9983L16.7276 21.4924C16.7449 21.3549 16.8622 21.25 17.003 21.25C17.1438 21.25 17.2611 21.3549 17.2784 21.4925M17.0031 20.0279C17.1006 20.322 17.1707 20.629 17.2102 20.9458L17.2167 20.9982L17.2167 20.9983L17.2784 21.4925M17.2784 21.4925L17.2784 21.493L17.0044 21.5272L17.003 21.527L17.2784 21.4925ZM9.01182 14.5611L9.0118 14.5612L9.00419 14.6223L8.99657 14.5612C8.99657 14.5612 8.99657 14.5612 8.99657 14.5612C8.63428 11.6557 6.3516 9.37144 3.44662 9.0081L3.38152 8.99996L3.44583 8.99191C3.44586 8.99191 3.44589 8.99191 3.44593 8.9919C6.34813 8.62926 8.63424 6.34228 8.99656 3.43884L8.99657 3.43877L9.00419 3.37771L9.0118 3.43877L9.01181 3.43886C9.37412 6.34142 11.6594 8.62928 14.5619 8.99191L14.5619 8.99192L14.6266 9L14.5619 9.00808C14.5619 9.00808 14.5619 9.00808 14.5619 9.00808C11.6573 9.37069 9.37485 11.6551 9.01182 14.5611Z" stroke="#0F1621" stroke-width="1.5"/>
</svg>
