<?xml version="1.0" encoding="iso-8859-1"?>
<!-- Generator: Adobe Illustrator 24.1.2, SVG Export Plug-In . SVG Version: 6.00 Build 0)  -->
<svg version="1.1" id="amusement-layer" xmlns="http://www.w3.org/2000/svg" xmlns:xlink="http://www.w3.org/1999/xlink" x="0px"
	 y="0px" viewBox="0 0 24 24" style="enable-background:new 0 0 24 24;" xml:space="preserve">
<g id="amusement">
	<rect style="fill:none;" width="24" height="24"/>
	<g>
		<path d="M21,11c0,0.62,0,1-0.83,1.55l-0.53,0.34c-0.29,0.15-0.62,0.14-0.9,0c-0.14,0.54-0.36,1.06-0.63,1.54
			c0.29,0.1,0.53,0.33,0.64,0.64l0.12,0.61c0.2,0.98-0.06,1.24-0.51,1.68c-0.24,0.24-0.43,0.43-0.71,0.53l-0.7-1.94l-0.37-1.05
			l-0.41-1.14C16.69,12.97,17,12.02,17,11c0-2.76-2.24-5-5-5s-5,2.24-5,5c0,1.02,0.31,1.97,0.83,2.76L7.42,14.9l-0.37,1.04
			l-0.7,1.95c-0.28-0.1-0.47-0.29-0.71-0.53c-0.34-0.34-0.58-0.57-0.58-1.1c0-0.16,0.02-0.35,0.07-0.58l0.12-0.61
			c0.11-0.31,0.35-0.54,0.64-0.64c-0.27-0.48-0.49-1-0.63-1.54c-0.28,0.14-0.61,0.15-0.9,0l-0.53-0.34C3,12,3,11.62,3,11
			s0-1,0.83-1.55l0.53-0.34c0.29-0.15,0.62-0.14,0.9,0c0.15-0.54,0.36-1.06,0.63-1.54C5.6,7.47,5.36,7.24,5.25,6.93L5.13,6.32
			c-0.2-0.98,0.06-1.24,0.51-1.68c0.34-0.34,0.57-0.58,1.1-0.58c0.16,0,0.35,0.02,0.58,0.07l0.61,0.12C8.24,4.36,8.47,4.6,8.57,4.89
			c0.48-0.27,1-0.48,1.54-0.63c-0.14-0.28-0.15-0.61,0-0.9l0.34-0.53C11,2,11.38,2,12,2s1,0,1.55,0.83l0.34,0.53
			c0.15,0.29,0.14,0.62,0,0.9c0.54,0.15,1.06,0.36,1.54,0.63c0.1-0.29,0.33-0.53,0.64-0.64l0.61-0.12c0.98-0.2,1.24,0.06,1.68,0.51
			c0.34,0.34,0.58,0.57,0.58,1.1c0,0.16-0.02,0.35-0.07,0.58l-0.12,0.61c-0.11,0.31-0.35,0.54-0.64,0.64c0.27,0.48,0.48,1,0.63,1.54
			c0.28-0.14,0.61-0.15,0.9,0l0.53,0.34C21,10,21,10.38,21,11z M12.94,10.66c-0.31-0.88-1.57-0.88-1.88,0L7,22h10L12.94,10.66z"/>
	</g>
</g>
</svg>
