<?xml version="1.0" encoding="iso-8859-1"?>
<!-- Generator: Adobe Illustrator 24.1.2, SVG Export Plug-In . SVG Version: 6.00 Build 0)  -->
<svg version="1.1" id="bowling-center-layer" xmlns="http://www.w3.org/2000/svg" xmlns:xlink="http://www.w3.org/1999/xlink"
	 x="0px" y="0px" viewBox="0 0 24 24" style="enable-background:new 0 0 24 24;" xml:space="preserve">
<g id="bowling-center">
	<rect style="fill:none;" width="24" height="24"/>
	<path d="M14.5,7c-0.99,0-1.94,0.19-2.81,0.55c-0.11,0.42-0.24,0.83-0.36,1.22c-0.08,0.29-0.21,0.68-0.28,0.96
		c0.13,0.22,0.31,0.45,0.51,0.71C12.17,11.22,13,12.28,13,14c0,0.56-0.1,1.25-0.27,2.04C12.81,16.01,12.91,16,13,16
		c0.55,0,1,0.45,1,1s-0.45,1-1,1c-0.26,0-0.5-0.1-0.68-0.27c-0.22,0.8-0.48,1.67-0.76,2.6c-0.1,0.33-0.19,0.65-0.28,0.93
		C12.25,21.74,13.35,22,14.5,22c4.14,0,7.5-3.36,7.5-7.5S18.64,7,14.5,7z M15,14c-0.55,0-1-0.45-1-1s0.45-1,1-1s1,0.45,1,1
		S15.55,14,15,14z M17,17c-0.55,0-1-0.45-1-1s0.45-1,1-1s1,0.45,1,1S17.55,17,17,17z M11,14c0,0.08,0,0.17-0.01,0.26
		s-0.01,0.18-0.03,0.27c0,0.05-0.01,0.11-0.02,0.17c-0.01,0.1-0.03,0.2-0.04,0.3c-0.04,0.2-0.08,0.41-0.13,0.64
		c-0.05,0.24-0.11,0.49-0.17,0.75c-0.14,0.54-0.29,1.11-0.46,1.67c-0.04,0.18-0.09,0.35-0.15,0.52c-0.15,0.54-0.31,1.06-0.45,1.53
		c-0.04,0.13-0.08,0.26-0.11,0.38c-0.05,0.15-0.09,0.28-0.12,0.41c-0.04,0.13-0.08,0.26-0.11,0.37C9.08,21.7,8.69,22,8.24,22H4.76
		c-0.45,0-0.84-0.3-0.96-0.73C3.29,19.43,2,15.6,2,14c0-1.79,1.49-2.38,2-4c0-1-1-3-1-4.5C3,3.57,4.57,2,6.5,2S10,3.57,10,5.5
		c0,0.15-0.01,0.31-0.03,0.47S9.93,6.29,9.89,6.46c-0.07,0.38-0.18,0.78-0.3,1.17C9.53,7.84,9.47,8.04,9.41,8.24
		C9.29,8.62,9.18,8.99,9.1,9.31c0,0.01,0,0.02-0.01,0.03C9.08,9.4,9.07,9.46,9.06,9.51C9.04,9.57,9.03,9.63,9.03,9.68
		C9.01,9.8,9,9.9,9,10C9.51,11.62,11,12.21,11,14z"/>
</g>
</svg>
