<?xml version="1.0" encoding="iso-8859-1"?>
<!-- Generator: Adobe Illustrator 24.1.2, SVG Export Plug-In . SVG Version: 6.00 Build 0)  -->
<svg version="1.1" id="ev-charging-station-layer" xmlns="http://www.w3.org/2000/svg" xmlns:xlink="http://www.w3.org/1999/xlink"
	 x="0px" y="0px" viewBox="0 0 24 24" style="enable-background:new 0 0 24 24;" xml:space="preserve">
<g id="ev-charging-station">
	<rect style="fill:none;" width="24" height="24"/>
	<path d="M22,10.998h-2.55l-0.86-1.18c-0.36-0.49-0.95-0.8-1.59-0.82v2.16c0.12,0.07,0.22,0.17,0.3,0.29l1.7,2.55H5l1.7-2.55
		c0.08-0.12,0.18-0.22,0.3-0.29v-2.16c-0.64,0.02-1.23,0.33-1.59,0.82l-0.86,1.18H2v2h1.1l-0.77,1.06c-0.22,0.29-0.33,0.64-0.33,1
		v4.94c0,1.1,0.9,2,2,2h3c0.55,0,1-0.45,1-1v-1h8v1c0,0.55,0.45,1,1,1h3c0.55,0,1.05-0.22,1.41-0.59c0.37-0.36,0.59-0.86,0.59-1.41
		v-4.94c0-0.36-0.11-0.71-0.33-1l-0.77-1.06H22V10.998z M8,17.998H4v-2h4V17.998z M20,17.998h-4v-2h4V17.998z M13,9.998L13,9.998
		l0,2h-2v-2h0c-1.105,0-2-0.895-2-2v-2h6v2C15,9.103,14.105,9.998,13,9.998z M15,3.998h-2v-2h2V3.998z M11,3.998H9v-2h2V3.998z"/>
</g>
</svg>
