<?xml version="1.0" encoding="iso-8859-1"?>
<!-- Generator: Adobe Illustrator 24.1.2, SVG Export Plug-In . SVG Version: 6.00 Build 0)  -->
<svg version="1.1" id="fast-food-layer" xmlns="http://www.w3.org/2000/svg" xmlns:xlink="http://www.w3.org/1999/xlink" x="0px"
	 y="0px" viewBox="0 0 24 24" style="enable-background:new 0 0 24 24;" xml:space="preserve">
<g id="fast-food">
	<rect style="fill:none;" width="24" height="24"/>
	<path d="M15,19c0,1.657-1.343,3-3,3H6c-1.657,0-3-1.343-3-3v0L15,19L15,19z M15,15H3c-0.552,0-1,0.448-1,1v0c0,0.552,0.448,1,1,1
		h12c0.552,0,1-0.448,1-1v0C16,15.448,15.552,15,15,15z M12,10H6c-1.657,0-3,1.343-3,3v0h12v0C15,11.343,13.657,10,12,10z M17,6V4h4
		V2h-4c-1.1,0-2,0.9-2,2v2h-4v2h1c1.33,0,2.59,0.52,3.53,1.47C16.48,10.41,17,11.67,17,13v0.77c0.61,0.55,1,1.35,1,2.23
		s-0.39,1.68-1,2.23V19c0,1.13-0.37,2.17-1,3h4l2-14V6H17z"/>
</g>
</svg>
