<?xml version="1.0" encoding="iso-8859-1"?>
<!-- Generator: Adobe Illustrator 24.1.2, SVG Export Plug-In . SVG Version: 6.00 Build 0)  -->
<svg version="1.1" id="ferry-layer" xmlns="http://www.w3.org/2000/svg" xmlns:xlink="http://www.w3.org/1999/xlink" x="0px"
	 y="0px" viewBox="0 0 24 24" style="enable-background:new 0 0 24 24;" xml:space="preserve">
<g id="ferry">
	<rect style="fill:none;" width="24" height="24"/>
	<path d="M19,6v5.38L17.1,11L12,9.98L6.9,11L5,11.38V6c0-1.1,0.9-2,2-2h6V2h2v2h2C18.1,4,19,4.9,19,6z M12,12l-9,2l2,8
		c0,0,1-2,3.5-2s3.5,2,3.5,2s1-2,3.5-2s3.5,2,3.5,2l2-8L12,12z"/>
</g>
</svg>
