<?xml version="1.0" encoding="iso-8859-1"?>
<!-- Generator: Adobe Illustrator 24.1.2, SVG Export Plug-In . SVG Version: 6.00 Build 0)  -->
<svg version="1.1" id="landmark-attraction-layer" xmlns="http://www.w3.org/2000/svg" xmlns:xlink="http://www.w3.org/1999/xlink"
	 x="0px" y="0px" viewBox="0 0 24 24" style="enable-background:new 0 0 24 24;" xml:space="preserve">
<g id="landmark-attraction">
	<rect style="fill:none;" width="24" height="24"/>
	<path style="fill-rule:evenodd;clip-rule:evenodd;" d="M16,14c0,1.102-0.898,2-2,2s-2-0.898-2-2s0.898-2,2-2S16,12.898,16,14z
		 M18,14c0-2.205-1.795-4-4-4c-2.205,0-4,1.795-4,4s1.795,4,4,4C16.205,18,18,16.205,18,14z M6,12h3v-2H6V12z M11,5.995L22,6v12
		c0,1.654-1.346,3-3,3H5c-1.654,0-3-1.346-3-3V6h2V4h7V5.995z"/>
</g>
</svg>
