<?xml version="1.0" encoding="iso-8859-1"?>
<!-- Generator: Adobe Illustrator 24.1.2, SVG Export Plug-In . SVG Version: 6.00 Build 0)  -->
<svg version="1.1" id="laundry-layer" xmlns="http://www.w3.org/2000/svg" xmlns:xlink="http://www.w3.org/1999/xlink" x="0px"
	 y="0px" viewBox="0 0 24 24" style="enable-background:new 0 0 24 24;" xml:space="preserve">
<g id="laundry">
	<rect style="fill:none;" width="24" height="24"/>
	<path d="M4,8v14h16V8H4z M8.54,16C8.2,15.41,8,14.73,8,14c0-2.21,1.79-4,4-4s4,1.79,4,4c0,0.73-0.2,1.41-0.54,2
		c-0.69,1.2-1.98,2-3.46,2S9.23,17.2,8.54,16z M18,2H6C4.9,2,4,2.9,4,4v2h6V4h2v2h2V4h2v2h4V4C20,2.9,19.1,2,18,2z M14,14
		c0,1.1-0.9,2-2,2s-2-0.9-2-2c1.1,0,2-0.9,2-2C13.1,12,14,12.9,14,14z"/>
</g>
</svg>
