<?xml version="1.0" encoding="iso-8859-1"?>
<!-- Generator: Adobe Illustrator 24.1.2, SVG Export Plug-In . SVG Version: 6.00 Build 0)  -->
<svg version="1.1" id="night-club-layer" xmlns="http://www.w3.org/2000/svg" xmlns:xlink="http://www.w3.org/1999/xlink" x="0px"
	 y="0px" viewBox="0 0 24 24" style="enable-background:new 0 0 24 24;" xml:space="preserve">
<g id="night-club">
	<rect style="fill:none;" width="24" height="24"/>
	<path style="fill-rule:evenodd;clip-rule:evenodd;" d="M12,2C6.48,2,2,6.48,2,12s4.48,10,10,10c0.68,0,1.34-0.07,1.98-0.2
		l-1.39-1.39L11.17,19l1.42-1.41l3-3L17,13.17l0.71,0.71L18,13.59V4.01C16.33,2.75,14.25,2,12,2z M12,14c-1.1,0-2-0.9-2-2s0.9-2,2-2
		s2,0.9,2,2S13.1,14,12,14z M22,2v12c0,0.8-0.31,1.55-0.88,2.12l-2,2L20,19l-3,3l-3-3l3-3l0.71,0.71l2-2C19.89,14.52,20,14.26,20,14
		V2H22z"/>
</g>
</svg>
