<?xml version="1.0" encoding="iso-8859-1"?>
<!-- Generator: Adobe Illustrator 24.1.2, SVG Export Plug-In . SVG Version: 6.00 Build 0)  -->
<svg version="1.1" id="police-fire-emergency-layer"
	 xmlns="http://www.w3.org/2000/svg" xmlns:xlink="http://www.w3.org/1999/xlink" x="0px" y="0px" viewBox="0 0 24 24"
	 style="enable-background:new 0 0 24 24;" xml:space="preserve">
<g id="police-fire-emergency">
	<rect style="fill:none;" width="24" height="24"/>
	<path d="M12,2L2,9l4,3h2.54C8.2,11.41,8,10.73,8,10V7l1-1h6l1,1v3c0,0.73-0.2,1.41-0.54,2H18l4-3L12,2z M18,14v2c0,3.31-2.69,6-6,6
		s-6-2.69-6-6v-2H18z M12,12L12,12c-1.105,0-2-0.895-2-2V8h4v2C14,11.105,13.105,12,12,12z"/>
</g>
</svg>
