<?xml version="1.0" encoding="iso-8859-1"?>
<!-- Generator: Adobe Illustrator 24.1.2, SVG Export Plug-In . SVG Version: 6.00 Build 0)  -->
<svg version="1.1" id="religious-place-layer" xmlns="http://www.w3.org/2000/svg" xmlns:xlink="http://www.w3.org/1999/xlink"
	 x="0px" y="0px" viewBox="0 0 24 24" style="enable-background:new 0 0 24 24;" xml:space="preserve">
<g id="religious-place">
	<rect style="fill:none;" width="24" height="24"/>
	<path d="M18,2l-4,13v5h-3v-9H3v11h19v-7L18,2z M6,20v-6c0-0.552,0.448-1,1-1h0c0.552,0,1,0.448,1,1v6H6z M17,20v-4
		c0-0.552,0.448-1,1-1h0c0.552,0,1,0.448,1,1v4H17z M12,7c0,0.85-0.36,1.52-1.01,2H3.01C2.36,8.52,2,7.85,2,7c0-2,5-5,5-5S12,5,12,7
		z"/>
</g>
</svg>
