<?xml version="1.0" encoding="iso-8859-1"?>
<!-- Generator: Adobe Illustrator 24.1.2, SVG Export Plug-In . SVG Version: 6.00 Build 0)  -->
<svg version="1.1" id="scenic-overlook-rest-area-layer"
	 xmlns="http://www.w3.org/2000/svg" xmlns:xlink="http://www.w3.org/1999/xlink" x="0px" y="0px" viewBox="0 0 24 24"
	 style="enable-background:new 0 0 24 24;" xml:space="preserve">
<g id="scenic-overlook-rest-area">
	<rect style="opacity:0.11;fill:none;" width="24" height="24"/>
	<path d="M10,4H6V2h4V4z M2,22h6v-2H2V22z M16,22h6v-2h-6V22z M18,2h-4v2h4V2z M21.962,18h-5.925C16.017,18,16,16,16,16H8v2H2
		l0-5.394c0-0.395,0.117-0.781,0.336-1.109L6,6h12c0.011,0,2.711,4.06,3.668,5.501C21.886,11.829,22,12.21,22,12.604
		C22,12.604,21.983,18,21.962,18z M13,9H11v4H13V9z"/>
</g>
</svg>
