<?xml version="1.0" encoding="iso-8859-1"?>
<!-- Generator: Adobe Illustrator 24.1.2, SVG Export Plug-In . SVG Version: 6.00 Build 0)  -->
<svg version="1.1" id="swimming-pool-layer" xmlns="http://www.w3.org/2000/svg" xmlns:xlink="http://www.w3.org/1999/xlink"
	 x="0px" y="0px" viewBox="0 0 24 24" style="enable-background:new 0 0 24 24;" xml:space="preserve">
<g id="swimming-pool">
	<rect style="fill:none;" width="24" height="24"/>
	<path d="M20,19.892c-1.06-0.96-2.46-1.54-4-1.54s-2.94,0.58-4,1.54c-1.06-0.96-2.46-1.54-4-1.54s-2.94,0.58-4,1.54
		c-0.58-0.52-1.25-0.93-2-1.19v2.19c0.27,0.16,0.52,0.35,0.75,0.56c0.77,0.73,1.73,0.73,2.5,0c0.72-0.68,1.69-1.1,2.75-1.1
		s2.03,0.42,2.75,1.1c0.77,0.73,1.73,0.73,2.5,0c0.72-0.68,1.69-1.1,2.75-1.1s2.03,0.42,2.75,1.1c0.77,0.73,1.73,0.73,2.5,0
		c0.23-0.21,0.48-0.4,0.75-0.56v-2.19C21.25,18.962,20.58,19.372,20,19.892z M9,8v1.51L6.56,13H6c-1.1,0-2-0.9-2-2V8
		c0-1.1,0.9-2,2-2h1C8.1,6,9,6.9,9,8z M6.21,16.56L15,4H7V2h10c0.78,0,1.26,0.85,0.86,1.51l-3.07,5.15
		c-0.46,0.79-0.34,1.79,0.31,2.44l5.87,5.87c-0.34,0.12-0.66,0.28-0.97,0.46c-1.2-0.7-2.58-1.08-4-1.08s-2.79,0.38-4,1.08
		c-1.21-0.7-2.58-1.08-4-1.08C7.39,16.35,6.79,16.42,6.21,16.56z"/>
</g>
</svg>
