<?xml version="1.0" encoding="iso-8859-1"?>
<!-- Generator: Adobe Illustrator 24.1.2, SVG Export Plug-In . SVG Version: 6.00 Build 0)  -->
<svg version="1.1" id="theatre-music-culture-layer"
	 xmlns="http://www.w3.org/2000/svg" xmlns:xlink="http://www.w3.org/1999/xlink" x="0px" y="0px" viewBox="0 0 24 24"
	 style="enable-background:new 0 0 24 24;" xml:space="preserve">
<g id="theatre-music-culture">
	<rect style="fill:none;" width="24" height="24"/>
	<g>
		<path d="M2,2v11c0,4.97,4.03,9,9,9h2c2.48,0,4.74-1.01,6.36-2.64C20.99,17.74,22,15.48,22,13V2H2z M8,7c1.1,0,2,0.94,2,2.09
			c0,2.09-0.9-0.08-2-0.08s-2,2.17-2,0.08C6,7.94,6.9,7,8,7z M12,18c-3.31,0-6-1.69-6-5h12C18,16.31,15.31,18,12,18z M16,9.01
			c-1.1,0-2,2.17-2,0.08C14,7.94,14.9,7,16,7s2,0.94,2,2.09C18,11.18,17.1,9.01,16,9.01z"/>
	</g>
</g>
</svg>
