<?xml version="1.0" encoding="iso-8859-1"?>
<!-- Generator: Adobe Illustrator 24.1.2, SVG Export Plug-In . SVG Version: 6.00 Build 0)  -->
<svg version="1.1" id="tollbooth-layer" xmlns="http://www.w3.org/2000/svg" xmlns:xlink="http://www.w3.org/1999/xlink" x="0px"
	 y="0px" viewBox="0 0 24 24" style="enable-background:new 0 0 24 24;" xml:space="preserve">
<g id="tollbooth">
	<g>
		<rect style="fill:none;" width="24" height="24"/>
	</g>
	<path d="M18.055,12c0,3.314-2.686,6-6,6c-3.314,0-6-2.686-6-6c0-3.312,2.686-6,6-6C15.369,6,18.055,8.688,18.055,12z M10,10h1v6h2
		V8h-2L10,10z M12.055,4c3.978,0,7.278,2.922,7.889,6.73C20.605,9.823,21,8.709,21,7.5C21,4.464,18.538,2,15.5,2
		c-1.728,0-3.267,0.798-4.275,2.043C11.498,4.015,11.775,4,12.055,4z M20,16h-2v2h2v2H4v-2h2v-2H4c-1.105,0-2,0.895-2,2v2
		c0,1.105,0.895,2,2,2h16c1.105,0,2-0.895,2-2v-2C22,16.895,21.105,16,20,16z"/>
</g>
</svg>
