<?xml version="1.0" encoding="iso-8859-1"?>
<!-- Generator: Adobe Illustrator 24.1.2, SVG Export Plug-In . SVG Version: 6.00 Build 0)  -->
<svg version="1.1" id="video-arcade-game-room-layer"
	 xmlns="http://www.w3.org/2000/svg" xmlns:xlink="http://www.w3.org/1999/xlink" x="0px" y="0px" viewBox="0 0 24 24"
	 style="enable-background:new 0 0 24 24;" xml:space="preserve">
<g id="video-arcade-game-room">
	<rect style="fill:none;" width="24" height="24"/>
	<path d="M4,22H2v-2h2V22z M8,20H6v2h2V20z M6,18H4v2h2V18z M20,18h-2v2h2V18z M22,10v4h-2v2h-2v2h-2v-2h-2v2h-4v-2H8v2H6v-2H4v-2H2
		v-4h2V8h2V6h2V4h2V2h4v2h2v2h2v2h2v2H22z M10,12v-2H8v2H10z M16,12v-2h-2v2H16z M22,20h-2v2h2V20z M18,20h-2v2h2V20z M10,18H8v2h2
		V18z M16,18h-2v2h2V18z"/>
</g>
</svg>
