<?xml version="1.0" encoding="iso-8859-1"?>
<!-- Generator: Adobe Illustrator 24.1.2, SVG Export Plug-In . SVG Version: 6.00 Build 0)  -->
<svg version="1.1" id="zoo-layer" xmlns="http://www.w3.org/2000/svg" xmlns:xlink="http://www.w3.org/1999/xlink" x="0px" y="0px"
	 viewBox="0 0 24 24" style="enable-background:new 0 0 24 24;" xml:space="preserve">
<g id="zoo">
	<rect style="fill:none;" width="24" height="24"/>
	<g>
		<path d="M14,2h-0.54C14.42,3.06,15,4.46,15,6v4h-2V6c0-2.21-1.79-4-4-4C5.13,2,2,5.13,2,9v1.18c0,0.93,0.41,1.76,1.03,2.44
			C3.63,13.27,4,14.11,4,15v2c0,0.55-0.45,1-1,1H2v2h2c1.1,0,2-0.9,2-2v-1.75c0-0.09,0-0.17-0.01-0.25H8v4c0,1.1,0.9,2,2,2h4v-5h2v3
			c0,1.1,0.9,2,2,2h4V10C22,5.58,18.42,2,14,2z M7,10c-0.55,0-1-0.45-1-1s0.45-1,1-1s1,0.45,1,1S7.55,10,7,10z"/>
	</g>
</g>
</svg>
