<?xml version="1.0" encoding="iso-8859-1"?>
<!-- Generator: Adobe Illustrator 24.1.2, SVG Export Plug-In . SVG Version: 6.00 Build 0)  -->
<svg version="1.1" id="_x31_00-1000-0000_x5F_restaurant-layer"
	 xmlns="http://www.w3.org/2000/svg" xmlns:xlink="http://www.w3.org/1999/xlink" x="0px" y="0px" viewBox="0 0 24 24"
	 style="enable-background:new 0 0 24 24;" xml:space="preserve">
<g id="_x31_00-1000-0000_x5F_restaurant_3_">
	<rect style="fill:none;" width="24" height="24"/>
	<path d="M9,1.992v7H7v-7H9z M11,1.992v7.992c0,0.551-0.449,1-1,1H6c-0.551,0-1-0.449-1-1V1.992H3v7.992c0,1.654,1.346,3,3,3h1
		v8.008v1h2v-1v-8.008h1c1.654,0,3-1.346,3-3V1.992H11z M21,1.992v12v0.983V22h-2v-7.025h-4V7.992C15,4.678,17.686,1.992,21,1.992z"
		/>
</g>
</svg>
