<?xml version="1.0" encoding="iso-8859-1"?>
<!-- Generator: Adobe Illustrator 24.1.2, SVG Export Plug-In . SVG Version: 6.00 Build 0)  -->
<svg version="1.1" id="_x35_00-5000-0000_x5F_hotel-motel-layer"
	 xmlns="http://www.w3.org/2000/svg" xmlns:xlink="http://www.w3.org/1999/xlink" x="0px" y="0px" viewBox="0 0 24 24"
	 style="enable-background:new 0 0 24 24;" xml:space="preserve">
<g id="_x35_00-5000-0000_x5F_hotel-motel_1_">
	<rect style="fill:none;" width="24" height="24"/>
	<path d="M20,14v2H4v-2H20 M2,4v16h2v-2h16v2h2v-8H4V6c0-0.55-0.22-1.05-0.59-1.41C3.05,4.22,2.55,4,2,4L2,4z M19,7h-6
		c-0.552,0-1,0.448-1,1v2h8V8C20,7.448,19.552,7,19,7z M8,7L8,7C7.45,7,6.95,7.22,6.59,7.59C6.22,7.95,6,8.45,6,9
		c0,0.36,0.1,0.71,0.27,1h3.46C9.9,9.71,10,9.36,10,9C10,7.9,9.1,7,8,7z"/>
</g>
</svg>
