<?xml version="1.0" encoding="iso-8859-1"?>
<!-- Generator: Adobe Illustrator 24.1.2, SVG Export Plug-In . SVG Version: 6.00 Build 0)  -->
<svg version="1.1" id="_x33_00-3000-0000_x5F_landmark-attraction-layer"
	 xmlns="http://www.w3.org/2000/svg" xmlns:xlink="http://www.w3.org/1999/xlink" x="0px" y="0px" viewBox="0 0 24 24"
	 style="enable-background:new 0 0 24 24;" xml:space="preserve">
<g id="_x33_00-3000-0000_x5F_landmark-attraction_1_">
	<rect style="fill:none;" width="24" height="24"/>
	<path d="M11,5.995L22,6v12c0,1.654-1.346,3-3,3H5c-1.654,0-3-1.346-3-3V6h2V4h7V5.995z M20,18V8L9,7.994V6H6v2H4v10
		c0,0.552,0.449,1,1,1h14C19.551,19,20,18.552,20,18z M6,12v-2h3v2H6z M18,14c0,2.205-1.795,4-4,4s-4-1.795-4-4s1.795-4,4-4
		S18,11.795,18,14z M16,14c0-1.102-0.898-2-2-2s-2,0.898-2,2s0.898,2,2,2S16,15.102,16,14z"/>
</g>
</svg>
