<?xml version="1.0" encoding="iso-8859-1"?>
<!-- Generator: Adobe Illustrator 24.1.2, SVG Export Plug-In . SVG Version: 6.00 Build 0)  -->
<svg version="1.1" id="_x33_00-3200-0000_x5F_religious-place-layer"
	 xmlns="http://www.w3.org/2000/svg" xmlns:xlink="http://www.w3.org/1999/xlink" x="0px" y="0px" viewBox="0 0 24 24"
	 style="enable-background:new 0 0 24 24;" xml:space="preserve">
<g id="_x33_00-3200-0000_x5F_religious-place">
	<rect style="fill:none;" width="24" height="24"/>
	<path d="M7,4.379C8.383,5.331,9.606,6.41,9.946,7H4.054C4.394,6.41,5.617,5.331,7,4.379 M7,2c0,0-5,3-5,5c0,0.85,0.36,1.52,1.01,2
		h7.98C11.64,8.52,12,7.85,12,7C12,5,7,2,7,2L7,2z M18,2l-4,13v5h-3v-9H3v11h19v-7L18,2z M8,20H6v-6c0-0.552,0.448-1,1-1h0
		c0.552,0,1,0.448,1,1V20z M18,8.8l1.29,4.2h-2.58L18,8.8z M19,20h-2v-4c0-0.552,0.448-1,1-1h0c0.552,0,1,0.448,1,1V20z"/>
</g>
</svg>
