<svg xmlns="http://www.w3.org/2000/svg" width="24" height="24" viewBox="0 0 24 24"><rect width="24" height="24" style="fill:none"/><path d="M21.37,17.89l-8.86,3.89a1.35,1.35,0,0,1-1,0L2.63,17.89a.94.94,0,0,1,0-1.78l1.17-.52,6.89,3a3.31,3.31,0,0,0,2.62,0l6.89-3,1.17.52A.94.94,0,0,1,21.37,17.89Zm0-6.78-1.17-.52-6.89,3a3.31,3.31,0,0,1-2.62,0l-6.89-3-1.17.52a.94.94,0,0,0,0,1.78l8.86,3.89a1.35,1.35,0,0,0,1,0l8.86-3.89A.94.94,0,0,0,21.37,11.11ZM2.63,7.89l8.86,3.89a1.35,1.35,0,0,0,1,0l8.86-3.89a.94.94,0,0,0,0-1.78L12.51,2.22a1.35,1.35,0,0,0-1,0L2.63,6.11A.94.94,0,0,0,2.63,7.89Z"/></svg>