<svg xmlns="http://www.w3.org/2000/svg" width="24" height="24" viewBox="0 0 24 24"><rect width="24" height="24" style="fill:none"/><path d="M21,5.67a1.47,1.47,0,0,1,0,2.78l-8.46,3.44a1.48,1.48,0,0,1-1.12,0L3,8.45A1.48,1.48,0,0,1,3,5.67l8.46-3.44a1.48,1.48,0,0,1,1.12,0Zm0,10-.08,0L13.3,18.75A3.67,3.67,0,0,1,12,19a3.59,3.59,0,0,1-1.31-.25L3.05,15.64l-.07,0a1.48,1.48,0,0,0,0,2.78l8.46,3.44a1.48,1.48,0,0,0,1.12,0L21,18.45A1.47,1.47,0,0,0,21,15.67ZM3,13.45l8.46,3.44A1.55,1.55,0,0,0,12,17a1.46,1.46,0,0,0,.55-.11L21,13.45a1.48,1.48,0,0,0,0-2.78l-.07,0-7.63,3.11A3.59,3.59,0,0,1,12,14a3.67,3.67,0,0,1-1.31-.25L3.05,10.64l-.08,0A1.47,1.47,0,0,0,3,13.45Z"/></svg>