<svg width="24" height="24" viewBox="0 0 24 24" fill="none" xmlns="http://www.w3.org/2000/svg">
<path d="M22 6H2V4H22V6ZM6 10H2V12H6V10ZM6 16H2V18H6V16ZM20.59 22L17.47 18.89C16.4585 19.6149 15.2445 20.0033 14 20C12.6551 20.0011 11.3488 19.5503 10.2908 18.7199C9.23281 17.8895 8.48448 16.7278 8.16593 15.4211C7.84737 14.1145 7.97706 12.7387 8.53418 11.5146C9.0913 10.2905 10.0435 9.28903 11.2381 8.671C12.4326 8.05298 13.8001 7.85421 15.1211 8.1066C16.4422 8.35898 17.6401 9.04789 18.5227 10.0627C19.4052 11.0776 19.9212 12.3595 19.9878 13.7028C20.0544 15.0461 19.6678 16.3728 18.89 17.47L22 20.59L20.59 22ZM14 18C14.7911 18 15.5645 17.7654 16.2223 17.3259C16.8801 16.8864 17.3928 16.2616 17.6955 15.5307C17.9983 14.7998 18.0775 13.9956 17.9231 13.2196C17.7688 12.4437 17.3878 11.731 16.8284 11.1716C16.269 10.6122 15.5563 10.2312 14.7804 10.0769C14.0044 9.92252 13.2002 10.0017 12.4693 10.3045C11.7384 10.6072 11.1136 11.1199 10.6741 11.7777C10.2346 12.4355 10 13.2089 10 14C10 15.0609 10.4214 16.0783 11.1716 16.8284C11.9217 17.5786 12.9391 18 14 18Z" fill="#0F1621"/>
</svg>
