<svg xmlns="http://www.w3.org/2000/svg" width="24" height="24" viewBox="0 0 24 24"><rect width="24" height="24" style="fill:none"/><path d="M22,5.78a1.35,1.35,0,0,0,0-.28C22,3.57,17.52,2,12,2S2,3.57,2,5.5a1.35,1.35,0,0,0,0,.28,1.69,1.69,0,0,0,.3.62l6.15,8A2,2,0,0,1,9,15.76V22h6V15.76a2,2,0,0,1,.51-1.33s6.11-8,6.22-8.14A1.64,1.64,0,0,0,22,5.78ZM19.72,5.5C18.74,6.14,16.05,7,12,7S5.26,6.14,4.28,5.5C5.26,4.86,8,4,12,4S18.74,4.86,19.72,5.5ZM14,13.17A4,4,0,0,0,13,15.76V20H11V15.76a4,4,0,0,0-.95-2.59L6.45,8.41A24.79,24.79,0,0,0,12,9a24.79,24.79,0,0,0,5.55-.59Z"/></svg>