<svg xmlns="http://www.w3.org/2000/svg" width="24" height="24" viewBox="0 0 24 24"><rect width="24" height="24" style="fill:none"/><path d="M12,2,11,2h0C6,2.19,2,3.69,2,5.5a1.08,1.08,0,0,0,.11.5A9.65,9.65,0,0,0,2.9,7c1.59,1.91,6.59,7.43,6.59,7.43A2,2,0,0,1,10,15.76V22h4V15.76a2,2,0,0,1,.51-1.33s5-5.52,6.59-7.43a9.65,9.65,0,0,0,.79-1A1.08,1.08,0,0,0,22,5.5C22,3.57,17.52,2,12,2Zm0,5c-.35,0-.67,0-1,0h0A14.88,14.88,0,0,1,4.28,5.5,14.88,14.88,0,0,1,11,4h0c.33,0,.65,0,1,0,4.05,0,6.74.86,7.72,1.5C18.74,6.14,16.05,7,12,7Z"/></svg>