<svg width="16" height="16" viewBox="0 0 16 16" fill="none" xmlns="http://www.w3.org/2000/svg">
<path d="M13.13 1H2.87003C2.3758 0.999993 1.90167 1.19564 1.55126 1.54417C1.20085 1.8927 1.00267 2.36578 1.00003 2.86V13.12C0.998709 13.3664 1.04611 13.6107 1.13949 13.8387C1.23288 14.0667 1.37041 14.2741 1.54419 14.4488C1.71797 14.6235 1.92456 14.7621 2.15209 14.8567C2.37962 14.9513 2.62361 15 2.87003 15H13.13C13.3764 15 13.6204 14.9513 13.848 14.8567C14.0755 14.7621 14.2821 14.6235 14.4559 14.4488C14.6296 14.2741 14.7672 14.0667 14.8606 13.8387C14.9539 13.6107 15.0013 13.3664 15 13.12V2.86C14.9974 2.36578 14.7992 1.8927 14.4488 1.54417C14.0984 1.19564 13.6243 0.999993 13.13 1ZM7.50003 6.49H6.00003V5.49H4.50003V6.49L7.05003 7.76C7.1836 7.82752 7.29615 7.9303 7.37547 8.05722C7.45479 8.18414 7.49787 8.33035 7.50003 8.48V11.19C7.50003 11.4022 7.41574 11.6057 7.26571 11.7557C7.11568 11.9057 6.9122 11.99 6.70003 11.99H3.80003C3.58785 11.99 3.38437 11.9057 3.23434 11.7557C3.08431 11.6057 3.00003 11.4022 3.00003 11.19V9.49H4.50003V10.49H6.00003V9L3.45003 7.67C3.32361 7.60661 3.21574 7.5116 3.13689 7.3942C3.05804 7.2768 3.01089 7.141 3.00003 7V4.79C3.00266 4.57956 3.0881 4.37864 3.23785 4.23077C3.38759 4.0829 3.58957 3.99998 3.80003 4H6.70003C6.9122 4 7.11568 4.08429 7.26571 4.23431C7.41574 4.38434 7.50003 4.58783 7.50003 4.8V6.49ZM13 5.49H11.5V12H10V5.49H8.50003V4H13V5.49Z" fill="#0F1621"/>
</svg>
