<svg xmlns="http://www.w3.org/2000/svg" width="24" height="24" viewBox="0 0 24 24">
  <g fill="none" fill-rule="evenodd">
    <rect width="24" height="24" opacity=".11"/>
    <path fill="#0F1621" fill-opacity=".95" d="M14.0000001,18.8680001 L14.0000001,22.012 L11,22.012 L11,19.1240001 C9.19800004,18.9470001 7.80300003,18.2370001 6.80100003,17.2520001 L8.18500003,15.7050001 C9.22300004,16.5800001 10.342,17.1090001 11.807,17.1090001 C13.3130001,17.1090001 14.3910001,16.3770001 14.3910001,15.0130001 C14.3910001,13.8330001 13.801,13.3030001 11.603,12.6320001 C8.65300004,11.716 7.37000003,10.536 7.37000003,8.39900003 C7.37000003,6.40400003 8.85200004,5.01500002 10.999,4.64200002 L10.999,2.01200001 L11.499,2.01200001 L13.4990001,2.01200001 L14.0000001,2.01200001 L14.0000001,4.75200002 C15.0920001,5.01500002 15.9870001,5.50400002 16.7920001,6.24300003 L15.4690001,7.76900003 C14.4520001,6.93500003 13.4750001,6.56900003 12.3150001,6.56900003 C11.054,6.56900003 10.138,7.13900003 10.138,8.23800003 C10.138,9.25500004 10.687,9.70300004 13.0270001,10.435 C15.4890001,11.208 17.1990001,12.2260001 17.1990001,14.8710001 C17.1990001,16.7920001 16.0300001,18.2650001 14.0000001,18.8680001 Z"/>
  </g>
</svg>
