<svg xmlns="http://www.w3.org/2000/svg" width="24" height="24" viewBox="0 0 24 24">
  <g fill="none" fill-rule="evenodd">
    <rect width="24" height="24"/>
    <path fill="#0F1621" fill-opacity=".95" d="M22,9.49999999 L22,18.143 C22,18.5796154 21.6728048,18.9403964 21.2504397,18.9933177 L21.143,19 L2.85699996,19 C2.42038458,19 2.05960351,18.6728048 2.00668225,18.2504397 L1.99999996,18.143 L1.99999996,9.49999999 L10.91,15.292 C11.5256429,15.6922143 12.3059745,15.720801 12.9451443,15.3777602 L13.09,15.292 L22,9.49999999 Z M22,6.00199998 L22,6.95799998 C22,7.29399998 21.824,7.60499998 21.536,7.77799998 L12.515,13.396 C12.198,13.586 11.803,13.586 11.486,13.396 L2.46399996,7.77899998 C2.17599996,7.60599998 1.99999996,7.29399998 1.99999996,6.95799998 L1.99999996,6.00199998 L22,6.00199998 Z"/>
  </g>
</svg>
