<svg xmlns="http://www.w3.org/2000/svg" width="24" height="24" viewBox="0 0 24 24">
  <g fill="none" fill-rule="evenodd">
    <rect width="24" height="24"/>
    <path fill="#0F1621" fill-opacity=".95" d="M16.235,8.99999999 C17.297,8.99999999 18.28,9.66699999 18.739,10.699 L19.761,13 L21.5,13 C22.167,13.667 22.167,14.333 21.5,15 L21,15 L21,21 C21,21.552 20.552,22 20,22 L17,22 C16.448,22 16,21.552 16,21 L16,20 L7.99999998,20 L7.99999998,21 C7.99999998,21.552 7.55199998,22 6.99999998,22 L3.99999997,22 C3.44799996,22 2.99999996,21.552 2.99999996,21 L2.99999996,15 L2.49999996,15 C1.83299996,14.333 1.83299996,13.667 2.49999996,13 L4.23899997,13 L5.26199997,10.699 C5.72099997,9.66699999 6.70399998,8.99999999 7.76599998,8.99999999 L16.235,8.99999999 Z M7.99999998,16 L5.49999997,16 C4.83299997,16.667 4.83299997,17.333 5.49999997,18 L7.99999998,18 L7.99999998,16 Z M18.5,16 L16,16 L16,18 L18.5,18 C19.167,17.333 19.167,16.667 18.5,16 Z M16.234,11 L7.76599998,11 C7.48899998,11 7.22999998,11.196 7.08899998,11.512 L5.98299997,14 L18.017,14 L16.911,11.512 C16.771,11.196 16.511,11 16.234,11 Z M13.466,1.99999996 L16.759,2.00799996 C17.702,2.00999996 18.466,2.77499996 18.466,3.71899997 L18.466,3.99999996 L15,3.99999996 L15,5.99999996 L18.466,5.99999996 L18.466,6.28899998 C18.466,7.23399998 17.7,7.99999996 16.755,7.99999996 L13.466,7.99999996 L12.716,6.49999996 L5.49999997,6.49999996 C4.71339997,5.71814997 4.66955747,4.47060997 5.37361672,3.63704672 L5.49999997,3.49999996 L12.716,3.49999996 L13.466,1.99999996 Z"/>
  </g>
</svg>
