<svg xmlns="http://www.w3.org/2000/svg" width="24" height="24" viewBox="0 0 24 24">
  <g fill="none" fill-rule="evenodd">
    <rect width="24" height="24"/>
    <path fill="#0F1621" fill-opacity=".95" d="M19,1.99999996 C20.654,1.99999996 22,3.34599996 22,4.99999996 L22,6.99999996 C22,8.65399999 20.654,9.99999996 19,9.99999996 L18,9.99999996 L18,22 L5.99999996,22 L5.99999996,9.99999996 L4.99999996,9.99999996 C3.34599996,9.99999996 1.99999996,8.65399999 1.99999996,6.99999996 L1.99999996,4.99999996 C1.99999996,3.34599996 3.34599996,1.99999996 4.99999996,1.99999996 L19,1.99999996 Z M16,16 L7.99999998,16 L7.99999998,17 L9.99999998,19 L11,19 L11,18 L16,18 L16,16 Z M15,7.99999998 L8.99999998,7.99999998 C8.44799999,7.99999998 7.99999998,8.44799999 7.99999998,8.99999998 L7.99999998,12 C7.99999998,12.552 8.44799999,13 8.99999998,13 L15,13 C15.552,13 16,12.552 16,12 L16,8.99999998 C16,8.44799999 15.552,7.99999998 15,7.99999998 Z M14.25,9.74999999 L14.25,11.25 L9.74999999,11.25 L9.74999999,9.74999999 L14.25,9.74999999 Z M20,3.99999997 L3.99999997,3.99999997 L3.99999997,7.99999997 L5.99999997,7.99999997 L5.99999997,5.99999997 L18,5.99999997 L18,7.99999997 L20,7.99999997 L20,3.99999997 Z"/>
  </g>
</svg>
