<svg xmlns="http://www.w3.org/2000/svg" width="24" height="24" viewBox="0 0 24 24">
  <g fill="none" fill-rule="evenodd">
    <rect width="24" height="24"/>
    <path fill="#0F1621" fill-opacity=".95" d="M16.235,8.99999999 C17.297,8.99999999 18.28,9.66699999 18.739,10.699 L19.761,13 L21.5,13 C22.167,13.667 22.167,14.333 21.5,15 L21,15 L21,21 C21,21.552 20.552,22 20,22 L17,22 C16.448,22 16,21.552 16,21 L16,20 L7.99999998,20 L7.99999998,21 C7.99999998,21.552 7.55199998,22 6.99999998,22 L3.99999997,22 C3.44799996,22 2.99999996,21.552 2.99999996,21 L2.99999996,15 L2.49999996,15 C1.83299996,14.333 1.83299996,13.667 2.49999996,13 L4.23899997,13 L5.26199997,10.699 C5.72099997,9.66699999 6.70399998,8.99999999 7.76599998,8.99999999 L16.235,8.99999999 Z M7.99999998,16 L5.49799997,16 C4.83099997,16.667 4.83099997,17.333 5.49799997,18 L7.99999998,18 L7.99999998,16 Z M18.498,16 L16,16 L16,18 L18.498,18 C19.201,17.38 19.15,16.71 18.498,16 Z M16.234,11 L7.76599998,11 C7.48899998,11 7.22999998,11.196 7.08899998,11.512 L5.98299997,14 L18.017,14 L16.911,11.512 C16.771,11.196 16.511,11 16.234,11 Z M21,5.99999997 C21.305,5.99999997 21.59125,6.07361109 21.8489121,6.19710646 L22,6.27699998 L22,9.72299999 C21.705,9.89399999 21.366,9.99999997 21,9.99999997 C19.895,9.99999997 19,9.10399999 19,7.99999997 C19,6.89499998 19.895,5.99999997 21,5.99999997 Z M2.99999996,5.99999997 C4.10499997,5.99999997 4.99999996,6.89499998 4.99999996,7.99999997 C4.99999996,9.10399999 4.10499997,9.99999997 2.99999996,9.99999997 C2.69499996,9.99999997 2.40874996,9.92638888 2.15108792,9.80289351 L1.99999996,9.72299999 L1.99999996,6.27699998 C2.29499996,6.10599998 2.63399996,5.99999997 2.99999996,5.99999997 Z M17.5,1.99999996 C18.605,1.99999996 19.5,2.89499996 19.5,3.99999996 C19.5,5.10399997 18.605,5.99999996 17.5,5.99999996 C16.395,5.99999996 15.5,5.10399997 15.5,3.99999996 C15.5,2.89499996 16.395,1.99999996 17.5,1.99999996 Z M12,1.99999996 C13.105,1.99999996 14,2.89499996 14,3.99999996 C14,5.10399997 13.105,5.99999996 12,5.99999996 C10.895,5.99999996 9.99999999,5.10399997 9.99999999,3.99999996 C9.99999999,2.89499996 10.895,1.99999996 12,1.99999996 Z M6.49999997,1.99999996 C7.60499998,1.99999996 8.49999997,2.89499996 8.49999997,3.99999996 C8.49999997,5.10399997 7.60499998,5.99999996 6.49999997,5.99999996 C5.39499997,5.99999996 4.49999997,5.10399997 4.49999997,3.99999996 C4.49999997,2.89499996 5.39499997,1.99999996 6.49999997,1.99999996 Z"/>
  </g>
</svg>
