<svg width="24" height="24" viewBox="0 0 24 24" fill="none" xmlns="http://www.w3.org/2000/svg">
<path fill-rule="evenodd" clip-rule="evenodd" d="M16 18L12 22L8 18L9.24 16.76L11 18.5V11H13V18.5L14.76 16.76L16 18ZM19 7H17C17 5.67392 16.4732 4.40215 15.5355 3.46447C14.5979 2.52678 13.3261 2 12 2H10C8.67392 2 7.40215 2.52678 6.46447 3.46447C5.52678 4.40215 5 5.67392 5 7V7C4.20435 7 3.44129 7.31607 2.87868 7.87868C2.31607 8.44129 2 9.20435 2 10V12C2 12.7956 2.31607 13.5587 2.87868 14.1213C3.44129 14.6839 4.20435 15 5 15H6V13H5C4.73478 13 4.48043 12.8946 4.29289 12.7071C4.10536 12.5196 4 12.2652 4 12V10C4 9.73478 4.10536 9.48043 4.29289 9.29289C4.48043 9.10536 4.73478 9 5 9H7V7C7 6.20435 7.31607 5.44129 7.87868 4.87868C8.44129 4.31607 9.20435 4 10 4H12C12.7956 4 13.5587 4.31607 14.1213 4.87868C14.6839 5.44129 15 6.20435 15 7V9H19C19.2652 9 19.5196 9.10536 19.7071 9.29289C19.8946 9.48043 20 9.73478 20 10V12C20 12.2652 19.8946 12.5196 19.7071 12.7071C19.5196 12.8946 19.2652 13 19 13H18V15H19C19.7956 15 20.5587 14.6839 21.1213 14.1213C21.6839 13.5587 22 12.7956 22 12V10C22 9.20435 21.6839 8.44129 21.1213 7.87868C20.5587 7.31607 19.7956 7 19 7Z" fill="#0F1621"/>
</svg>
