<svg width="24" height="24" viewBox="0 0 24 24" fill="none" xmlns="http://www.w3.org/2000/svg">
<path d="M13.2562 5.09959C12.8414 5.03647 12.4216 5.0031 12 5.00014C5.84 5.00014 2 12.0001 2 12.0001C2.52815 12.9014 3.1327 13.7542 3.80637 14.5494L7.04817 11.3076C7.19783 10.2374 7.69156 9.23751 8.46447 8.46461C9.23737 7.69171 10.2373 7.19798 11.3075 7.04832L13.2562 5.09959Z" fill="#0F1621"/>
<path d="M2.11703 19.0672L3.52 20.4701L9.89 14.1101C10.4536 14.6737 11.218 14.9903 12.015 14.9903C12.812 14.9903 13.5764 14.6737 14.14 14.1101C14.7036 13.5466 15.0202 12.7822 15.0202 11.9851C15.0202 11.1881 14.7036 10.4237 14.14 9.86014L20.49 3.50014L19.087 2.09717L2.11703 19.0672Z" fill="#0F1621"/>
<path d="M16.8911 12.9995C17.091 12.0506 17.0107 11.0642 16.66 10.1601L18.82 8.00014C20.0711 9.16971 21.1426 10.5176 22 12.0001C22 12.0001 18.08 19.0001 12 19.0001C10.8173 18.998 9.6484 18.7458 8.57 18.2601L10.19 16.6301C11.094 16.9809 12.0805 17.0612 13.0293 16.8613C13.9782 16.6614 14.8484 16.1899 15.5341 15.5042C16.2197 14.8186 16.6912 13.9483 16.8911 12.9995Z" fill="#0F1621"/>
</svg>
