<svg width="24" height="24" viewBox="0 0 24 24" fill="none" xmlns="http://www.w3.org/2000/svg">
<path d="M13.0879 5.07479C12.7322 5.02876 12.3735 5.0037 12.0135 5C5.84349 5 2.01349 12 2.01349 12C2.42383 12.9259 2.95721 13.7887 3.59688 14.5658L5.0166 13.1461C4.75713 12.817 4.51886 12.471 4.30349 12.11C5.34767 10.6078 7.8181 7.57037 11.0923 7.07039L13.0879 5.07479Z" fill="#0E1520"/>
<path d="M11.9911 9.00008C11.9985 9.00003 12.006 9 12.0135 9L13.7935 7.24C13.7824 7.23698 13.7712 7.23399 13.7601 7.23103L16.2654 4.72576L19.0135 2L20.3835 3.41L14.0135 9.79C14.4569 10.197 14.7676 10.7279 14.9053 11.3138C15.043 11.8997 15.0013 12.5134 14.7856 13.0753C14.5699 13.6371 14.1902 14.1211 13.6958 14.4644C13.2015 14.8076 12.6153 14.9943 12.0135 15C11.5958 14.9964 11.1835 14.9055 10.8029 14.7333C10.4223 14.5611 10.0819 14.3114 9.80349 14L3.42349 20.41L2.01349 19L5.01349 16C5.00945 15.9966 5.00541 15.9932 5.00138 15.9898L7.06975 13.9214L9.01349 12C9.01349 11.9925 9.01352 11.985 9.01357 11.9776L11.9911 9.00008ZM11.5704 12.8877C11.7074 12.9589 11.8591 12.9973 12.0135 13C12.2787 13 12.5331 12.8946 12.7206 12.7071C12.9081 12.5196 13.0135 12.2652 13.0135 12C13.0108 11.8456 12.9724 11.6939 12.9012 11.5569C12.8301 11.4198 12.7282 11.3011 12.6035 11.21L11.2235 12.59C11.3146 12.7147 11.4333 12.8166 11.5704 12.8877Z" fill="#0E1520"/>
<path d="M17.3735 9.22L18.8035 7.79C20.1821 8.92864 21.2804 10.3691 22.0135 12C22.0135 12 18.0735 19 11.9535 19C10.7209 18.9934 9.5038 18.7241 8.38349 18.21L9.88349 16.71C10.563 16.8676 11.2563 16.958 11.9535 16.98H12.4435C15.8935 16.69 18.5835 13.46 19.7035 11.88C19.4402 11.4349 19.1391 11.0134 18.8035 10.62C18.3669 10.1141 17.8885 9.64579 17.3735 9.22Z" fill="#0E1520"/>
</svg>
