<svg width="24" height="24" viewBox="0 0 24 24" fill="none" xmlns="http://www.w3.org/2000/svg">
<path d="M13.2697 5.09947C12.8548 5.03635 12.4351 5.00298 12.0135 5.00002C5.85349 5.00002 2.01349 12 2.01349 12C2.54164 12.9013 3.14619 13.7541 3.81986 14.5493L7.06166 11.3075C7.21132 10.2373 7.70505 9.23739 8.47795 8.46449C9.25086 7.69158 10.2507 7.19785 11.3209 7.04819L13.2697 5.09947Z" fill="#0E1520"/>
<path d="M2.13052 19.067L3.53349 20.47L9.90349 14.11C10.4671 14.6736 11.2315 14.9902 12.0285 14.9902C12.8255 14.9902 13.5899 14.6736 14.1535 14.11C14.7171 13.5464 15.0337 12.782 15.0337 11.985C15.0337 11.188 14.7171 10.4236 14.1535 9.86002L20.5035 3.50002L19.1005 2.09705L2.13052 19.067Z" fill="#0E1520"/>
<path d="M16.9046 12.9994C17.1045 12.0505 17.0242 11.064 16.6735 10.16L18.8335 8.00002C20.0846 9.16959 21.1561 10.5175 22.0135 12C22.0135 12 18.0935 19 12.0135 19C10.8308 18.9979 9.66188 18.7457 8.58349 18.26L10.2035 16.63C11.1075 16.9808 12.094 17.0611 13.0428 16.8612C13.9917 16.6612 14.8619 16.1898 15.5476 15.5041C16.2332 14.8184 16.7047 13.9482 16.9046 12.9994Z" fill="#0E1520"/>
</svg>
