<svg width="16" height="16" viewBox="0 0 16 16" fill="none" xmlns="http://www.w3.org/2000/svg">
<path d="M12.3272 1L13.7414 2.41421L2.42771 13.7279L1.0135 12.3137L12.3272 1Z" fill="#0E1520"/>
<path d="M8.22334 3.00387C8.15384 3.0013 8.08389 3 8.01349 3C3.69349 3 1.01349 8 1.01349 8C1.01349 8 1.32007 8.57412 1.89393 9.33327L8.22334 3.00387Z" fill="#0E1520"/>
<path d="M8.01349 11C7.7899 11 7.5682 10.975 7.35231 10.9262L5.74574 12.5328C6.43798 12.8219 7.19616 13 8.01349 13C12.3435 13 15.0135 8 15.0135 8C15.0135 8 14.2862 6.62265 12.9648 5.31376L10.9397 7.33882C10.9885 7.55471 11.0135 7.77641 11.0135 8C11.0135 8.79565 10.6974 9.55871 10.1348 10.1213C9.5722 10.6839 8.80914 11 8.01349 11Z" fill="#0E1520"/>
</svg>
