<svg width="16" height="16" viewBox="0 0 16 16" fill="none" xmlns="http://www.w3.org/2000/svg">
<path d="M12.3137 1L13.7279 2.41421L2.41423 13.7279L1.00001 12.3137L12.3137 1Z" fill="#0F1621"/>
<path d="M8.20985 3.00387C8.14035 3.0013 8.0704 3 8 3C3.68 3 1 8 1 8C1 8 1.30658 8.57412 1.88045 9.33327L8.20985 3.00387Z" fill="#0F1621"/>
<path d="M2.85602 10.479C3.29058 10.9307 3.7959 11.3832 4.36601 11.7777L5.95177 10.192C5.64025 9.90088 5.39294 9.54539 5.22836 9.14805C5.11795 8.88149 5.04718 8.60193 5.01692 8.31813L2.85602 10.479Z" fill="#0F1621"/>
<path d="M8.31813 5.01692C8.60193 5.04718 8.88149 5.11795 9.14805 5.22836C9.54539 5.39294 9.90088 5.64025 10.192 5.95177L11.8077 4.33601C11.2614 3.93927 10.6513 3.59287 9.98277 3.35227L8.31813 5.01692Z" fill="#0F1621"/>
<path d="M8 11C7.77641 11 7.55471 10.975 7.33882 10.9262L5.73225 12.5328C6.42449 12.8219 7.18267 13 8 13C12.33 13 15 8 15 8C15 8 14.2728 6.62265 12.9513 5.31376L10.9262 7.33882C10.975 7.55471 11 7.77641 11 8C11 8.79565 10.6839 9.55871 10.1213 10.1213C9.55871 10.6839 8.79565 11 8 11Z" fill="#0F1621"/>
<path d="M9.06066 6.93934C9.08471 6.96339 9.10787 6.98818 9.13009 7.01364L7.01365 9.13009C6.98816 9.10784 6.96337 9.08469 6.93934 9.06066C6.72956 8.85088 6.5867 8.58361 6.52882 8.29264C6.47094 8.00166 6.50065 7.70006 6.61418 7.42597C6.72771 7.15189 6.91997 6.91762 7.16664 6.7528C7.41332 6.58797 7.70333 6.5 8 6.5C8.39782 6.5 8.77936 6.65804 9.06066 6.93934Z" fill="#0F1621"/>
</svg>
