<svg width="24" height="24" viewBox="0 0 24 24" fill="none" xmlns="http://www.w3.org/2000/svg">
<path d="M13.29 9.29L20.58 2L22 3.42L14.71 10.71L13.29 9.29ZM6.2 13.55C6.07246 13.2318 6.00466 12.8928 6 12.55C5.99933 12.1875 6.07058 11.8286 6.20961 11.4938C6.34865 11.1591 6.55272 10.8553 6.81 10.6L10.56 6.85C10.812 6.58548 11.1143 6.37402 11.4491 6.22804C11.784 6.08207 12.1447 6.00453 12.51 6C12.8528 6.00466 13.1918 6.07246 13.51 6.2L15 4.73C14.0903 4.15682 13.0128 3.90993 11.9444 4.02986C10.8759 4.14979 9.87995 4.62941 9.12 5.39L5.39 9.15C4.63981 9.90978 4.16686 10.8997 4.04716 11.9607C3.92745 13.0217 4.16795 14.0922 4.73 15L6.2 13.55ZM17.8 10.45C17.9275 10.7682 17.9953 11.1072 18 11.45C18.0007 11.8125 17.9294 12.1714 17.7904 12.5062C17.6513 12.8409 17.4473 13.1447 17.19 13.4L13.44 17.15C13.1847 17.4073 12.8809 17.6113 12.5462 17.7504C12.2114 17.8894 11.8525 17.9607 11.49 17.96C11.1472 17.9553 10.8082 17.8875 10.49 17.76L9 19.27C9.90966 19.8432 10.9872 20.0901 12.0556 19.9701C13.1241 19.8502 14.1201 19.3706 14.88 18.61L18.64 14.85C19.3855 14.0866 19.8529 13.0949 19.9671 12.034C20.0814 10.9731 19.8359 9.90461 19.27 9L17.8 10.45ZM9.29 13.29L2 20.58L3.42 22L10.71 14.71L9.29 13.29Z" fill="#0F1621"/>
</svg>
