<svg width="24" height="24" viewBox="0 0 24 24" fill="none" xmlns="http://www.w3.org/2000/svg">
<path d="M4.5 17C4.79667 17 5.08668 17.088 5.33336 17.2528C5.58003 17.4176 5.77229 17.6519 5.88582 17.926C5.99935 18.2001 6.02906 18.5017 5.97118 18.7926C5.9133 19.0836 5.77044 19.3509 5.56066 19.5607C5.35088 19.7704 5.08361 19.9133 4.79264 19.9712C4.50166 20.0291 4.20006 19.9994 3.92598 19.8858C3.65189 19.7723 3.41762 19.58 3.2528 19.3334C3.08797 19.0867 3 18.7967 3 18.5C3.00262 18.103 3.1615 17.723 3.44224 17.4422C3.72298 17.1615 4.10299 17.0026 4.5 17ZM3 12.5C3 12.7967 3.08797 13.0867 3.2528 13.3334C3.41762 13.58 3.65189 13.7723 3.92598 13.8858C4.20006 13.9994 4.50166 14.0291 4.79264 13.9712C5.08361 13.9133 5.35088 13.7704 5.56066 13.5607C5.77044 13.3509 5.9133 13.0836 5.97118 12.7926C6.02906 12.5017 5.99935 12.2001 5.88582 11.926C5.77229 11.6519 5.58003 11.4176 5.33336 11.2528C5.08668 11.088 4.79667 11 4.5 11C4.10218 11 3.72065 11.158 3.43934 11.4393C3.15804 11.7206 3 12.1022 3 12.5V12.5ZM6 6.5C6 6.20333 5.91203 5.91332 5.7472 5.66665C5.58238 5.41997 5.34811 5.22771 5.07403 5.11418C4.79994 5.00065 4.49834 4.97094 4.20737 5.02882C3.91639 5.0867 3.64912 5.22956 3.43934 5.43934C3.22956 5.64912 3.0867 5.91639 3.02882 6.20737C2.97094 6.49834 3.00065 6.79994 3.11418 7.07403C3.22771 7.34812 3.41997 7.58238 3.66665 7.74721C3.91332 7.91203 4.20333 8 4.5 8C4.89783 8 5.27936 7.84197 5.56066 7.56066C5.84197 7.27936 6 6.89783 6 6.5ZM9 20H15V17H9V20ZM9 14H21V11H9V14ZM9 8H21V5H9V8Z" fill="#0F1621"/>
</svg>
