<svg width="16" height="16" viewBox="0 0 16 16" fill="none" xmlns="http://www.w3.org/2000/svg">
<path d="M7 12.5C7.01267 13.0136 7.11417 13.5211 7.3 14L5 15V3L10 1V8.28C9.12628 8.58889 8.36923 9.16001 7.83228 9.91532C7.29533 10.6706 7.00467 11.5733 7 12.5V12.5ZM14.24 1.81L11 1V8.05C11.1722 8.02296 11.3458 8.00626 11.52 8C12.1877 8.00208 12.8466 8.15306 13.4486 8.44196C14.0506 8.73085 14.5806 9.15039 15 9.67V2.78C14.9998 2.55667 14.9249 2.33982 14.7872 2.16403C14.6494 1.98823 14.4568 1.8636 14.24 1.81V1.81ZM1 3.39V13.28C0.98862 13.4981 1.04893 13.7139 1.17172 13.8944C1.2945 14.075 1.47302 14.2104 1.68 14.28L4 15V3L2.32 2.44C2.16936 2.38912 2.00875 2.37489 1.8515 2.3985C1.69426 2.42211 1.54491 2.48288 1.41586 2.57577C1.2868 2.66865 1.18175 2.79097 1.10943 2.93257C1.0371 3.07418 0.999591 3.23099 1 3.39ZM12 10H11V13.5L9 11.5V13L11 15H12L14 13V11.5L12 13.5V10Z" fill="#0F1621"/>
</svg>
