<svg width="16" height="16" viewBox="0 0 16 16" fill="none" xmlns="http://www.w3.org/2000/svg">
<path d="M11.5 10C11.0055 10 10.5222 10.1466 10.1111 10.4213C9.69995 10.696 9.37952 11.0865 9.1903 11.5433C9.00108 12.0001 8.95158 12.5028 9.04804 12.9877C9.1445 13.4727 9.3826 13.9181 9.73223 14.2678C10.0819 14.6174 10.5273 14.8555 11.0123 14.952C11.4972 15.0484 11.9999 14.9989 12.4567 14.8097C12.9135 14.6205 13.304 14.3 13.5787 13.8889C13.8534 13.4778 14 12.9945 14 12.5C14 11.837 13.7366 11.2011 13.2678 10.7322C12.7989 10.2634 12.163 10 11.5 10V10ZM11 8.55V1L14.24 1.81C14.4619 1.86475 14.6583 1.99385 14.7966 2.17579C14.9349 2.35774 15.0067 2.58157 15 2.81V10.6C14.6589 9.96799 14.1539 9.43949 13.538 9.06998C12.9222 8.70047 12.2182 8.50359 11.5 8.5C11.3325 8.50674 11.1655 8.52344 11 8.55V8.55ZM7.74 13.82L5 15V3L10 1V8.8C9.26264 9.09827 8.63095 9.60961 8.18564 10.2687C7.74032 10.9277 7.50161 11.7046 7.5 12.5C7.50643 12.9502 7.58753 13.3963 7.74 13.82V13.82ZM2.32 2.44L4 3V15L1.68 14.23C1.47302 14.1604 1.2945 14.025 1.17172 13.8444C1.04893 13.6639 0.98862 13.4481 1 13.23V3.39C0.999591 3.23099 1.0371 3.07418 1.10943 2.93257C1.18175 2.79097 1.2868 2.66865 1.41586 2.57577C1.54491 2.48288 1.69426 2.42211 1.8515 2.3985C2.00875 2.37489 2.16936 2.38912 2.32 2.44V2.44Z" fill="#0F1621"/>
</svg>
