<svg width="24" height="24" viewBox="0 0 24 24" fill="none" xmlns="http://www.w3.org/2000/svg">
<path d="M20.45 4.99999L5 20.45L3.55 19L19 3.54999L20.45 4.99999ZM14.45 6.71999C13.7107 6.26898 12.8657 6.02065 12 5.99999H10C8.67392 5.99999 7.40215 6.52677 6.46447 7.46445C5.52678 8.40214 5 9.67391 5 11C4.20435 11 3.44129 11.3161 2.87868 11.8787C2.31607 12.4413 2 13.2043 2 14V15C2.00389 15.5346 2.15056 16.0584 2.42483 16.5173C2.6991 16.9761 3.09101 17.3534 3.56 17.61L14.45 6.71999ZM19 11H17C17.0002 10.6433 16.9599 10.2877 16.88 9.93999L8.83 18H19C19.7956 18 20.5587 17.6839 21.1213 17.1213C21.6839 16.5587 22 15.7956 22 15V14C22 13.2043 21.6839 12.4413 21.1213 11.8787C20.5587 11.3161 19.7956 11 19 11V11Z" fill="#0F1621"/>
</svg>
