<svg width="24" height="24" viewBox="0 0 24 24" fill="none" xmlns="http://www.w3.org/2000/svg">
<path d="M13.4466 6.24887C12.9857 6.09617 12.5029 6.01173 12.0135 6.00005H10.0135C8.68741 6.00005 7.41564 6.52683 6.47795 7.46451C5.54027 8.4022 5.01349 9.67397 5.01349 11C4.21784 11 3.45478 11.3161 2.89217 11.8787C2.32956 12.4413 2.01349 13.2044 2.01349 14V15C2.01738 15.5346 2.16405 16.0585 2.43832 16.5173C2.52945 16.6698 2.63356 16.8132 2.74918 16.9463L13.4466 6.24887Z" fill="#0F1621"/>
<path d="M20.4635 5.00005L5.01349 20.4501L3.56349 19L19.0135 3.55005L20.4635 5.00005Z" fill="#0F1621"/>
<path d="M19.0135 11H17.3239L10.3239 18H19.0135C19.8091 18 20.5722 17.684 21.1348 17.1214C21.6974 16.5588 22.0135 15.7957 22.0135 15V14C22.0135 13.2044 21.6974 12.4413 21.1348 11.8787C20.5722 11.3161 19.8091 11 19.0135 11Z" fill="#0F1621"/>
</svg>
