<svg width="16" height="16" viewBox="0 0 16 16" fill="none" xmlns="http://www.w3.org/2000/svg">
<path d="M12.9637 1.76367L14.3779 3.17789L3.0658 14.49L1.65159 13.0757L12.9637 1.76367Z" fill="#0F1621"/>
<path d="M9.2956 3.29608C8.8979 3.10495 8.46031 3.00265 8.01348 3.00006H7.01348C6.21783 3.00006 5.45476 3.31613 4.89216 3.87874C4.32955 4.44135 4.01348 5.20441 4.01348 6.00006V7.00006H3.51348C2.98619 6.99722 2.47151 7.16117 2.04302 7.46847C1.61453 7.77577 1.29418 8.21069 1.12777 8.71103C0.961355 9.21138 0.957406 9.75153 1.11649 10.2542C1.2086 10.5453 1.35264 10.8153 1.53989 11.0518L9.2956 3.29608Z" fill="#0F1621"/>
<path d="M12.5135 12.0001H7.68303L12.6776 7.00545C13.2807 7.04511 13.8512 7.30229 14.2812 7.73229C14.7501 8.20113 15.0135 8.83702 15.0135 9.50006C15.0135 10.1631 14.7501 10.799 14.2812 11.2678C13.8124 11.7367 13.1765 12.0001 12.5135 12.0001Z" fill="#0F1621"/>
</svg>
