<svg width="24" height="24" viewBox="0 0 24 24" fill="none" xmlns="http://www.w3.org/2000/svg">
<path d="M14.1827 5.51275C13.5115 5.18282 12.7705 5.00558 12.0135 5.00005H10.0135C8.68741 5.00005 7.41564 5.52683 6.47795 6.46451C5.54027 7.4022 5.01349 8.67397 5.01349 10C4.21784 10 3.45478 10.3161 2.89217 10.8787C2.32956 11.4413 2.01349 12.2044 2.01349 13V15C2.01738 15.5346 2.16405 16.0585 2.43832 16.5173C2.52945 16.6698 2.63356 16.8132 2.74918 16.9463L4.01349 15.6819V12H7.01349V10C7.01349 9.2044 7.32956 8.44134 7.89217 7.87873C8.45478 7.31612 9.21784 7.00005 10.0135 7.00005H12.0135C12.2219 7.00028 12.4287 7.02221 12.6305 7.06489L14.1827 5.51275Z" fill="#0F1621"/>
<path d="M19.0135 3.55005L20.4635 5.00005L5.01349 20.4501L3.56349 19L19.0135 3.55005Z" fill="#0F1621"/>
<path d="M19.0135 10H18.3239L16.3239 12H20.0135V16H12.3239L10.3239 18H19.0135C19.8091 18 20.5722 17.684 21.1348 17.1214C21.6974 16.5588 22.0135 15.7957 22.0135 15V13C22.0135 12.2044 21.6974 11.4413 21.1348 10.8787C20.5722 10.3161 19.8091 10 19.0135 10Z" fill="#0F1621"/>
</svg>
