<svg width="16" height="16" viewBox="0 0 16 16" fill="none" xmlns="http://www.w3.org/2000/svg">
<path d="M15 13.59L11.89 10.47C12.6149 9.45847 13.0033 8.24449 13 7C13 5.81331 12.6481 4.65328 11.9888 3.66658C11.3295 2.67989 10.3925 1.91085 9.2961 1.45673C8.19975 1.0026 6.99335 0.88378 5.82946 1.11529C4.66558 1.3468 3.59648 1.91825 2.75736 2.75736C1.91825 3.59648 1.3468 4.66558 1.11529 5.82946C0.88378 6.99335 1.0026 8.19975 1.45673 9.2961C1.91085 10.3925 2.67989 11.3295 3.66658 11.9888C4.65328 12.6481 5.81331 13 7 13C8.24449 13.0033 9.45847 12.6149 10.47 11.89L13.59 15L15 13.59ZM7 11C6.20888 11 5.43552 10.7654 4.77772 10.3259C4.11993 9.88636 3.60724 9.26164 3.30448 8.53074C3.00173 7.79983 2.92252 6.99557 3.07686 6.21964C3.2312 5.44372 3.61217 4.73099 4.17158 4.17158C4.73099 3.61217 5.44372 3.2312 6.21964 3.07686C6.99557 2.92252 7.79983 3.00173 8.53074 3.30448C9.26164 3.60724 9.88636 4.11993 10.3259 4.77772C10.7654 5.43552 11 6.20888 11 7C11 8.06087 10.5786 9.07828 9.82843 9.82843C9.07828 10.5786 8.06087 11 7 11V11Z" fill="#0F1621"/>
</svg>
