<svg width="16" height="16" viewBox="0 0 16 16" fill="none" xmlns="http://www.w3.org/2000/svg">
<path d="M12 14.75H4C3.27065 14.75 2.57118 14.4603 2.05546 13.9445C1.53973 13.4288 1.25 12.7293 1.25 12V8H2.75V12C2.75 12.3315 2.8817 12.6495 3.11612 12.8839C3.35054 13.1183 3.66848 13.25 4 13.25H12C12.3315 13.25 12.6495 13.1183 12.8839 12.8839C13.1183 12.6495 13.25 12.3315 13.25 12V8H14.75V12C14.75 12.7293 14.4603 13.4288 13.9445 13.9445C13.4288 14.4603 12.7293 14.75 12 14.75ZM8.75 3.75V9H7.25V3.75L5 6L4 5L8 1L12 5L11 6L8.75 3.75Z" fill="#0F1621"/>
</svg>
