<svg width="16" height="16" viewBox="0 0 16 16" fill="none" xmlns="http://www.w3.org/2000/svg">
<path d="M13 12C13 12.5304 12.7893 13.0391 12.4142 13.4142C12.0391 13.7893 11.5304 14 11 14C10.4696 14 9.96086 13.7893 9.58579 13.4142C9.21072 13.0391 9 12.5304 9 12C8.99453 11.9134 8.99453 11.8266 9 11.74L5.23 9.56999C4.93515 9.80267 4.58074 9.94762 4.20734 9.98825C3.83394 10.0289 3.45665 9.96354 3.11865 9.79971C2.78066 9.63587 2.49564 9.38018 2.29621 9.06189C2.09678 8.7436 1.99101 8.37559 1.99101 7.99999C1.99101 7.62438 2.09678 7.25637 2.29621 6.93808C2.49564 6.61979 2.78066 6.3641 3.11865 6.20027C3.45665 6.03644 3.83394 5.97109 4.20734 6.01172C4.58074 6.05235 4.93515 6.1973 5.23 6.42999L9 4.25999C8.99453 4.17341 8.99453 4.08657 9 3.99999C8.99841 3.54753 9.15027 3.1079 9.4308 2.7529C9.71133 2.3979 10.1039 2.14852 10.5445 2.04548C10.9851 1.94243 11.4476 1.99183 11.8565 2.18558C12.2653 2.37934 12.5964 2.70601 12.7957 3.11225C12.9949 3.51848 13.0505 3.98026 12.9534 4.42218C12.8563 4.8641 12.6122 5.26003 12.261 5.5453C11.9098 5.83058 11.4722 5.98834 11.0198 5.99282C10.5674 5.99731 10.1268 5.84825 9.77 5.56999L6 7.73999C6.00548 7.82657 6.00548 7.91341 6 7.99999C6.00548 8.08657 6.00548 8.17341 6 8.25999L9.8 10.43C10.0951 10.2086 10.4457 10.0731 10.813 10.0386C11.1803 10.0041 11.55 10.0718 11.8812 10.2343C12.2124 10.3968 12.4922 10.6477 12.6896 10.9593C12.8871 11.271 12.9945 11.6311 13 12V12Z" fill="#0F1621"/>
</svg>
