<svg width="24" height="24" viewBox="0 0 24 24" fill="none" xmlns="http://www.w3.org/2000/svg">
<path d="M20 19C20 19.7957 19.6839 20.5587 19.1213 21.1213C18.5587 21.6839 17.7956 22 17 22C16.2044 22 15.4413 21.6839 14.8787 21.1213C14.3161 20.5587 14 19.7957 14 19C14.0024 18.7534 14.036 18.5081 14.1 18.27L7.82 14.87C7.29906 15.2743 6.65942 15.4957 6 15.5C5.20435 15.5 4.44129 15.1839 3.87868 14.6213C3.31607 14.0587 3 13.2957 3 12.5C3 11.7044 3.31607 10.9413 3.87868 10.3787C4.44129 9.81607 5.20435 9.5 6 9.5C6.58996 9.50316 7.16644 9.6768 7.66 10L14.16 5.94C14.0607 5.63624 14.0068 5.3195 14 5C13.9983 4.33427 14.2181 3.68688 14.6247 3.15978C15.0314 2.63268 15.6018 2.25581 16.2462 2.08853C16.8905 1.92125 17.5723 1.97306 18.184 2.23579C18.7956 2.49852 19.3026 2.95726 19.6249 3.53976C19.9472 4.12226 20.0667 4.79542 19.9644 5.45325C19.8621 6.11108 19.5439 6.71619 19.0599 7.17331C18.5759 7.63042 17.9536 7.91356 17.291 7.97813C16.6284 8.04271 15.9631 7.88506 15.4 7.53L8.85 11.62C8.94591 11.9036 8.99654 12.2006 9 12.5C9.00088 12.7297 8.97061 12.9584 8.91 13.18L15.22 16.6C15.6657 16.2714 16.1937 16.0726 16.7455 16.0257C17.2973 15.9787 17.8513 16.0853 18.3462 16.3338C18.841 16.5823 19.2575 16.9629 19.5494 17.4335C19.8413 17.9041 19.9973 18.4462 20 19V19Z" fill="#0F1621"/>
</svg>
