<svg width="16" height="16" viewBox="0 0 16 16" fill="none" xmlns="http://www.w3.org/2000/svg">
<path fill-rule="evenodd" clip-rule="evenodd" d="M8 6.5C7.70333 6.5 7.41332 6.58797 7.16664 6.7528C6.91997 6.91762 6.72771 7.15189 6.61418 7.42597C6.50065 7.70006 6.47094 8.00166 6.52882 8.29264C6.5867 8.58361 6.72956 8.85088 6.93934 9.06066C7.14912 9.27044 7.41639 9.4133 7.70736 9.47118C7.99834 9.52906 8.29994 9.49935 8.57403 9.38582C8.84811 9.27229 9.08238 9.08003 9.2472 8.83335C9.41203 8.58668 9.5 8.29667 9.5 8C9.5 7.60218 9.34196 7.22064 9.06066 6.93934C8.77936 6.65804 8.39782 6.5 8 6.5ZM8 3C3.68 3 1 8 1 8C1 8 3.67 13 8 13C12.33 13 15 8 15 8C15 8 12.36 3 8 3ZM8 11C7.40666 11 6.82664 10.8241 6.33329 10.4944C5.83994 10.1648 5.45542 9.69623 5.22836 9.14805C5.0013 8.59987 4.94189 7.99667 5.05764 7.41473C5.1734 6.83279 5.45912 6.29824 5.87868 5.87868C6.29824 5.45912 6.83279 5.1734 7.41473 5.05764C7.99667 4.94189 8.59987 5.0013 9.14805 5.22836C9.69623 5.45542 10.1648 5.83994 10.4944 6.33329C10.8241 6.82664 11 7.40666 11 8C11 8.79565 10.6839 9.55871 10.1213 10.1213C9.55871 10.6839 8.79565 11 8 11Z" fill="#0F1621"/>
</svg>
