<svg width="16" height="16" viewBox="0 0 16 16" fill="none" xmlns="http://www.w3.org/2000/svg">
<path d="M5 10L6 11L7 10V15H9V10L10 11L11 10L8 7L5 10ZM13 5H12C12 3.93913 11.5786 2.92172 10.8284 2.17157C10.0783 1.42143 9.06087 1 8 1H7C5.93913 1 4.92172 1.42143 4.17157 2.17157C3.42143 2.92172 3 3.93913 3 5C2.46957 5 1.96086 5.21071 1.58579 5.58579C1.21071 5.96086 1 6.46957 1 7V8C1 8.53043 1.21071 9.03914 1.58579 9.41421C1.96086 9.78929 2.46957 10 3 10V7H5V5C5 4.46957 5.21071 3.96086 5.58579 3.58579C5.96086 3.21071 6.46957 3 7 3H8C8.53043 3 9.03914 3.21071 9.41421 3.58579C9.78929 3.96086 10 4.46957 10 5V7H13V10C13.5304 10 14.0391 9.78929 14.4142 9.41421C14.7893 9.03914 15 8.53043 15 8V7C15 6.46957 14.7893 5.96086 14.4142 5.58579C14.0391 5.21071 13.5304 5 13 5V5Z" fill="#0F1621"/>
</svg>
