<svg xmlns="http://www.w3.org/2000/svg" width="24" height="24" viewBox="0 0 24 24">
  <g fill="none" fill-rule="evenodd">
    <polygon points="24 24 0 24 0 0 24 0"/>
    <path fill="#0F1621" fill-opacity=".95" d="M12.759,17 C13.224,17 13.632,17.308 13.76,17.755 L14.541,21.988 L14.531,22 L9.55699999,22 L9.54799999,21.989 L9.54799999,21.989 L10.329,17.755 C10.456,17.308 10.865,17 11.33,17 L12.759,17 Z M16.096,1.99999996 C17.6271111,1.99999996 18.8985789,3.14984907 19.0710272,4.64588932 L19.086,4.81999997 L19.971,12.306 C20.04275,12.992875 19.9713282,13.685875 19.7620938,14.3414551 L19.664,14.62 L18.082,18.1 C17.77825,18.8903125 17.0473516,19.4292578 16.2123028,19.4935388 L16.044,19.5 L15.476,16.522 C15.2661177,15.6796471 14.5415779,15.074692 13.6883867,15.0064355 L13.527,15 L10.613,15 C9.74523528,15 8.98288234,15.5554049 8.70944615,16.3669139 L8.66399999,16.522 L8.04399998,19.5 C7.19743748,19.5 6.43173435,19.0104492 6.07236057,18.2546448 L4.47499997,14.62 C4.22737497,13.975125 4.11603122,13.287375 4.14699801,12.6002949 L4.16899997,12.306 L5.05399997,4.81999997 C5.14066664,3.29851848 6.35863646,2.0923182 7.86853334,2.00505711 L8.04399998,1.99999996 L16.096,1.99999996 Z M9.06999999,11 L7.13899998,11 C6.73108331,11 6.38870831,11.2915764 6.31291143,11.6813953 L6.29899998,11.79 L6.25099998,12.61 C6.22499998,13.0585 6.55424488,13.4414694 6.98812935,13.493891 L7.08999998,13.5 L9.06999999,13.5 L9.06999999,11 Z M17.001,11 L15.07,11 L15.07,13.5 L17.05,13.5 C17.4985,13.5 17.8616378,13.1490663 17.8880073,12.7130168 L17.8880073,12.611 L17.84,11.791 C17.81525,11.384 17.5048056,11.0585069 17.1104734,11.0070845 L17.001,11 Z M16.188,3.99999997 L7.96699998,3.99999997 C7.39766665,3.99999997 6.90063553,4.4338133 6.80762576,4.98516856 L6.79184584,5.14034316 C6.7791746,5.34904915 6.71290665,6.45166461 6.65467162,7.63337471 L6.59399998,8.99999997 L17.516,8.99999997 L17.361,5.10499997 L17.361,5.10499997 C17.3274,4.53846664 16.8652134,4.06688441 16.3085982,4.00652471 L16.188,3.99999997 Z"/>
  </g>
</svg>
