<svg xmlns="http://www.w3.org/2000/svg" width="24" height="24" viewBox="0 0 24 24">
  <g fill="none" fill-rule="evenodd">
    <rect width="24" height="23.998" opacity="0"/>
    <path fill="#0F1621" fill-opacity=".95" d="M18.389,8.54699999 L19.32,19.69 L17.01,22 L13.998,12.756 C12.112,14.428 10.195,15.98 8.65199999,17.057 L9.58099999,20.2 L8.64899999,21.14 L6.71599998,18.246 C6.12799998,18.532 5.70599997,18.632 5.53799997,18.464 C5.36999997,18.296 5.46899997,17.874 5.75499997,17.288 L2.86799996,15.36 L3.80799997,14.428 L6.68699998,15.726 C7.75899998,14.134 9.41499999,12.069 11.216,10.035 L1.99899996,6.99099998 L4.30799997,4.68199997 L15.493,5.57099997 C19.218,2.03999996 20.944,1.55099996 21.696,2.30199996 C22.45,3.05499996 21.955,4.79199997 18.389,8.54699999 Z"/>
  </g>
</svg>
