<svg xmlns="http://www.w3.org/2000/svg" width="24" height="24" viewBox="0 0 24 24">
  <g fill="none" fill-rule="evenodd">
    <rect width="24" height="24" opacity="0"/>
    <path fill="#0F1621" fill-opacity=".95" d="M12,12.681 L21.934,15.842 L19.389,21.798 C18.648,20.554 17.303,19.711 15.749,19.711 C14.113,19.711 12.709,20.646 11.999,22.001 C11.289,20.646 9.88499999,19.711 8.24899998,19.711 C6.77269998,19.711 5.48502247,20.470905 4.72463059,21.6143274 L4.60899997,21.798 L2.06399996,15.842 L12,12.681 Z M13,1.99999996 L13,4.99999996 L17.448,4.99999996 C18.1876875,4.99999996 18.8183907,5.51591794 18.9750887,6.22557981 L19,6.36999998 L19.511,12.39 L12,9.99999996 L4.48899997,12.39 L4.99999997,6.36999998 C5.09187497,5.63593747 5.68208982,5.07414059 6.40562376,5.00678341 L6.55199998,4.99999996 L11,4.99999996 L11,1.99999996 L13,1.99999996 Z"/>
  </g>
</svg>
