<svg xmlns="http://www.w3.org/2000/svg" width="24" height="24" viewBox="0 0 24 24">
  <g fill="none" fill-rule="evenodd">
    <polygon points="24 24 0 24 0 0 24 0"/>
    <path fill="#0F1621" fill-opacity=".95" d="M15.68,1.99999996 C17.2014815,1.99999996 18.4725926,3.14984907 18.6539572,4.64588932 L18.67,4.81999997 L19.31,13.82 C19.4065518,15.4806897 18.1327349,16.8990012 16.4876358,16.9948411 L16.31,17 L16,17 L21,22 L18,22 L13.5,17 L10.5,17 L5.99999996,22 L2.99999996,22 L7.99999996,17 L7.68999998,17 C6.01965515,17 4.68491079,15.6389536 4.68485339,13.9969544 L4.68999997,13.82 L5.32999997,4.81999997 C5.42629627,3.29851848 6.64462275,2.0923182 8.1456033,2.00505711 L8.31999998,1.99999996 L15.68,1.99999996 Z M9.49999999,12 L7.74599998,12 C7.25664284,12 6.84488773,12.3535204 6.76214065,12.825969 L6.74899998,12.937 L6.71699998,13.437 C6.68246664,13.9746 7.07913331,14.4346711 7.60129806,14.4936246 L7.71499998,14.5 L9.49999999,14.5 L9.49999999,12 Z M16.254,12 L14.5,12 L14.5,14.5 L16.286,14.5 C16.8245334,14.5 17.2585334,14.0757689 17.2847372,13.5508954 L17.284,13.437 L17.252,12.937 C17.2213572,12.4476429 16.8423674,12.0591684 16.365636,12.0061687 L16.254,12 Z M15.663,3.99999997 L8.33699998,3.99999997 C7.81792855,3.99999997 7.38766835,4.37938772 7.30162862,4.87394676 L7.28799998,4.98999997 L6.99999998,9.49999997 L17,9.49999997 L16.712,4.98999997 C16.6804286,4.47928568 16.2841276,4.06341833 15.7809082,4.0066144 L15.663,3.99999997 Z"/>
  </g>
</svg>
