<svg xmlns="http://www.w3.org/2000/svg" width="24" height="24" viewBox="0 0 24 24">
  <g fill="none" fill-rule="evenodd">
    <rect width="24" height="24" opacity=".11"/>
    <path fill="#0F1621" fill-opacity=".95" d="M7.99999996,20 L7.99999996,22 L1.99999996,22 L1.99999996,20 L7.99999996,20 Z M22,20 L22,22 L16,22 L16,20 L22,20 Z M9.99999996,4.99999997 L9.99999996,5.99999997 L14,5.99999997 L14,4.99999997 L18.478,4.99999997 L21.522,10.612 L21.522,10.612 C21.836,11.195 22,11.847 22,12.509 L22,18.963 C22,18.983 21.983,19 21.962,19 L16.037,19 C16.017,19 16,18.983 16,18.962 L16,14 L7.99999996,14 L7.99999996,19 L1.99999996,19 L1.99999996,12.509 C1.99999996,11.847 2.16399996,11.195 2.47799996,10.613 L5.49999996,4.99999997 L9.99999996,4.99999997 Z M9.99999997,1.99999996 L9.99999997,3.99999996 L5.99999997,3.99999996 L5.99999997,1.99999996 L9.99999997,1.99999996 Z M18,1.99999996 L18,3.99999996 L14,3.99999996 L14,1.99999996 L18,1.99999996 Z M13,7.99999998 L11,7.99999998 L11,12 L13,12 L13,7.99999998 Z"/>
  </g>
</svg>
