<svg xmlns="http://www.w3.org/2000/svg" width="24" height="24" viewBox="0 0 24 24">
  <g fill="none" fill-rule="evenodd">
    <polygon points="0 0 0 24 24 24 24 0" opacity="0"/>
    <path fill="#0F1621" fill-opacity=".95" d="M22,1.99999996 L22,3.99999996 L13,5.12599997 L13,8.99999996 L20.281,8.99999996 C21.1800527,8.99999996 21.9184515,9.69108032 21.9936872,10.5707316 L22,10.719 L22,18.041 C22,20.1596563 20.3370196,21.8888447 18.244774,21.99485 L18.041,22 L5.95899997,22 C3.84034372,22 2.11115523,20.3370196 2.00514995,18.244774 L1.99999996,18.041 L1.99999996,10.716 C1.99999996,9.81789473 2.68928528,9.08134068 3.56789733,9.0062965 L3.71599997,8.99999996 L11,8.99999996 L11,5.37499997 L1.99999996,6.49999996 L1.99999996,4.49999996 L22,1.99999996 Z M11,11 L4.99999997,11 L4.99999997,16.5 L11,16.5 L11,11 Z M19,11 L13,11 L13,16.5 L19,16.5 L19,11 Z"/>
  </g>
</svg>
