<svg width="16" height="16" viewBox="0 0 16 16" fill="none" xmlns="http://www.w3.org/2000/svg">
<path d="M13.34 10.18C13.4745 10.1384 13.6181 10.1366 13.7536 10.1748C13.8891 10.213 14.0107 10.2895 14.1037 10.3952C14.1967 10.5009 14.2571 10.6312 14.2778 10.7704C14.2984 10.9097 14.2784 11.0519 14.22 11.18C13.6452 12.3079 12.7753 13.2588 11.7028 13.9315C10.6304 14.6042 9.39566 14.9735 8.13 15C6.29097 15.0093 4.52007 14.3047 3.19016 13.0345C1.86025 11.7642 1.0751 10.0275 1 8.19002C0.959665 6.68287 1.40701 5.20298 2.27548 3.97055C3.14395 2.73811 4.38712 1.81902 5.82 1.35002C5.95315 1.31168 6.09453 1.31256 6.22718 1.35257C6.35984 1.39258 6.47813 1.47002 6.56786 1.57559C6.6576 1.68116 6.71497 1.81038 6.73308 1.94775C6.7512 2.08512 6.7293 2.22479 6.67 2.35002C6.13294 3.32723 5.90617 4.44482 6.01987 5.55408C6.13358 6.66334 6.58237 7.71168 7.30653 8.55961C8.03069 9.40754 8.99588 10.0149 10.0737 10.3007C11.1515 10.5866 12.2908 10.5376 13.34 10.16V10.18ZM11 3.00002H10V2.00002H9V3.00002H8V4.00002H9V5.00002H10V4.00002H11V3.00002ZM13 7.00002H12V6.00002H11V7.00002H10V8.00002H11V9.00002H12V8.00002H13V7.00002Z" fill="#0F1621"/>
</svg>
