<svg width="24" height="24" viewBox="0 0 24 24" fill="none" xmlns="http://www.w3.org/2000/svg">
<path d="M14.5 15H14.14C13.9331 14.4148 13.5498 13.9083 13.043 13.5501C12.5361 13.1919 11.9307 12.9997 11.31 13H9C9 12.2044 8.68393 11.4413 8.12132 10.8787C7.55871 10.3161 6.79565 10 6 10H4C3.46957 10 2.96086 10.2107 2.58579 10.5858C2.21071 10.9609 2 11.4696 2 12V22H14.5C15.4283 22 16.3185 21.6313 16.9749 20.9749C17.6313 20.3185 18 19.4283 18 18.5C17.9948 17.5734 17.6243 16.6862 16.9691 16.0309C16.3138 15.3757 15.4266 15.0052 14.5 15ZM22.25 11C21.9034 11.7912 21.4018 12.5049 20.775 13.0992C20.1481 13.6934 19.4086 14.1561 18.6 14.46C17.6964 13.6207 16.5386 13.1069 15.31 13C14.8443 12.379 14.2403 11.875 13.5461 11.5279C12.8518 11.1807 12.0862 11 11.31 11H10.89C10.5617 10.2121 10.0345 9.52298 9.36 9C9.25364 7.98248 9.37825 6.95409 9.72453 5.99142C10.0708 5.02874 10.6299 4.15662 11.36 3.44C11.9368 2.86177 12.6147 2.39406 13.36 2.06C13.4329 2.02641 13.5116 2.00752 13.5918 2.00442C13.672 2.00132 13.752 2.01407 13.8272 2.04194C13.9025 2.06981 13.9715 2.11225 14.0303 2.16682C14.0891 2.2214 14.1366 2.28705 14.17 2.36C14.219 2.4488 14.2447 2.54857 14.2447 2.65C14.2447 2.75143 14.219 2.8512 14.17 2.94C13.879 3.33166 13.6698 3.77782 13.5547 4.25196C13.4396 4.72609 13.421 5.21853 13.5 5.7C14.5 10.12 18.5 11.62 21.5 10.22C21.5755 10.193 21.6556 10.1812 21.7357 10.1852C21.8158 10.1892 21.8943 10.2089 21.9667 10.2433C22.0392 10.2777 22.1041 10.326 22.1579 10.3855C22.2116 10.4449 22.2531 10.5145 22.28 10.59C22.3204 10.7257 22.3097 10.8716 22.25 11Z" fill="#0F1621"/>
</svg>
