<svg width="24" height="24" viewBox="0 0 24 24" fill="none" xmlns="http://www.w3.org/2000/svg">
<path d="M13 2.69995V3.75995C12.3357 3.67992 11.6643 3.67992 11 3.75995V2.69995C11 2.43473 11.1054 2.18038 11.2929 1.99284C11.4804 1.80531 11.7348 1.69995 12 1.69995C12.2652 1.69995 12.5196 1.80531 12.7071 1.99284C12.8946 2.18038 13 2.43473 13 2.69995ZM7.34 3.62995C7.15374 3.44521 6.90234 3.34106 6.64 3.33995C6.50839 3.33919 6.37793 3.36442 6.25609 3.41418C6.13426 3.46394 6.02344 3.53727 5.93 3.62995C5.75563 3.81541 5.65854 4.06039 5.65854 4.31495C5.65854 4.56951 5.75563 4.81449 5.93 4.99995L6.65 5.71995C7.15166 5.27522 7.70981 4.89864 8.31 4.59995L7.34 3.62995ZM21 11H19.94C20.02 11.6642 20.02 12.3357 19.94 13H21C21.2652 13 21.5196 12.8946 21.7071 12.7071C21.8946 12.5195 22 12.2652 22 12C22 11.7347 21.8946 11.4804 21.7071 11.2928C21.5196 11.1053 21.2652 11 21 11ZM19.07 4.62995C18.8826 4.4437 18.6292 4.33916 18.365 4.33916C18.1008 4.33916 17.8474 4.4437 17.66 4.62995L16.91 5.37995C17.4404 5.78537 17.9146 6.25952 18.32 6.78995L19.07 5.99995C19.2547 5.81369 19.3589 5.56229 19.36 5.29995C19.3512 5.04805 19.2477 4.80876 19.07 4.62995ZM18 18.5C17.9948 19.4266 17.6243 20.3138 16.9691 20.969C16.3138 21.6243 15.4266 21.9947 14.5 22H2V20H14.5C14.8978 20 15.2794 19.8419 15.5607 19.5606C15.842 19.2793 16 18.8978 16 18.5C16 18.1021 15.842 17.7206 15.5607 17.4393C15.2794 17.158 14.8978 17 14.5 17H12V16C12 15.7347 11.8946 15.4804 11.7071 15.2928C11.5196 15.1053 11.2652 15 11 15H7V13C7 12.7347 6.89464 12.4804 6.70711 12.2928C6.51957 12.1053 6.26522 12 6 12H2V9.99995H6C6.79565 9.99995 7.55871 10.316 8.12132 10.8786C8.68393 11.4412 9 12.2043 9 13H11C11.6207 12.9996 12.2261 13.1918 12.733 13.55C13.2398 13.9082 13.6231 14.4148 13.83 15H14.5C15.4266 15.0052 16.3138 15.3756 16.9691 16.0309C17.6243 16.6861 17.9948 17.5733 18 18.5ZM12 5.99995C11.1128 5.99922 10.2364 6.19526 9.4341 6.57396C8.63176 6.95265 7.92338 7.50456 7.36 8.18995C8.07102 8.39128 8.72858 8.7477 9.28535 9.23359C9.84213 9.71947 10.2843 10.3227 10.58 11H11C11.7762 11 12.5418 11.1807 13.2361 11.5278C13.9303 11.875 14.5343 12.379 15 13C15.9492 13.0969 16.8562 13.4417 17.63 14C17.872 13.3608 17.9974 12.6834 18 12C18 10.4087 17.3679 8.88253 16.2426 7.75731C15.1174 6.63209 13.5913 5.99995 12 5.99995Z" fill="#0F1621"/>
</svg>
