<svg width="16" height="16" viewBox="0 0 16 16" fill="none" xmlns="http://www.w3.org/2000/svg">
<path d="M14 13C14 13.5304 13.7893 14.0391 13.4142 14.4142C13.0391 14.7893 12.5304 15 12 15H3C2.46957 15 1.96086 14.7893 1.58579 14.4142C1.21071 14.0391 1 13.5304 1 13C1 12.4695 1.21071 11.9608 1.58579 11.5858C1.96086 11.2107 2.46957 11 3 11H4V9.99997C4 9.46954 4.21071 8.96083 4.58579 8.58576C4.96086 8.21069 5.46957 7.99997 6 7.99997C6.53043 7.99997 7.03914 8.21069 7.41421 8.58576C7.78929 8.96083 8 9.46954 8 9.99997H9.5C9.80982 9.99937 10.1121 10.0954 10.3648 10.2746C10.6176 10.4538 10.8081 10.7074 10.91 11H12C12.5304 11 13.0391 11.2107 13.4142 11.5858C13.7893 11.9608 14 12.4695 14 13ZM6.15 6.55997C6.78391 6.59189 7.3974 6.79462 7.92551 7.1467C8.45363 7.49878 8.87672 7.9871 9.15 8.55997H9.48C9.90107 8.56083 10.3172 8.65031 10.7014 8.8226C11.0857 8.99489 11.4293 9.24613 11.71 9.55997H12.42C13.137 9.224 13.7529 8.70519 14.2058 8.05569C14.6587 7.40619 14.9326 6.64891 15 5.85997C15.0058 5.80481 14.9961 5.74912 14.9721 5.69911C14.9481 5.6491 14.9108 5.60671 14.8641 5.57667C14.8175 5.54662 14.7635 5.53009 14.708 5.52891C14.6526 5.52772 14.5979 5.54194 14.55 5.56997C14.1412 5.81409 13.6802 5.9574 13.205 5.98806C12.7299 6.01871 12.2543 5.93584 11.8175 5.74628C11.3807 5.55671 10.9953 5.26591 10.6932 4.89792C10.3911 4.52992 10.1809 4.09529 10.08 3.62997C9.9153 2.88523 10.0404 2.10572 10.43 1.44997C10.458 1.40211 10.4722 1.34741 10.4711 1.29196C10.4699 1.23651 10.4534 1.18247 10.4233 1.13584C10.3933 1.08922 10.3509 1.05184 10.3009 1.02785C10.2509 1.00387 10.1952 0.994216 10.14 0.999972C9.50918 1.06017 8.89806 1.25235 8.34631 1.56402C7.79456 1.87569 7.31451 2.29989 6.93732 2.8091C6.56013 3.31831 6.29423 3.90114 6.15687 4.51976C6.01951 5.13839 6.01376 5.77898 6.14 6.39997C6.14761 6.45295 6.15095 6.50646 6.15 6.55997Z" fill="#0F1621"/>
</svg>
