<svg width="16" height="16" viewBox="0 0 16 16" fill="none" xmlns="http://www.w3.org/2000/svg">
<path d="M14 13C14 13.5304 13.7893 14.0391 13.4142 14.4142C13.0391 14.7893 12.5304 15 12 15H3C2.46957 15 1.96086 14.7893 1.58579 14.4142C1.21071 14.0391 1 13.5304 1 13C1 12.4696 1.21071 11.9609 1.58579 11.5858C1.96086 11.2107 2.46957 11 3 11H4V10C4 9.46957 4.21071 8.96086 4.58579 8.58579C4.96086 8.21071 5.46957 8 6 8C6.53043 8 7.03914 8.21071 7.41421 8.58579C7.78929 8.96086 8 9.46957 8 10H9.5C9.80913 10.0023 10.1101 10.0994 10.3623 10.2783C10.6144 10.4571 10.8056 10.709 10.91 11H12C12.5304 11 13.0391 11.2107 13.4142 11.5858C13.7893 11.9609 14 12.4696 14 13ZM5.06 6.64C5 6.43 5 6.22 5 6C5 4.67392 5.52678 3.40215 6.46447 2.46447C7.40215 1.52678 8.67392 1 10 1C11.3261 1 12.5979 1.52678 13.5355 2.46447C14.4732 3.40215 15 4.67392 15 6C15.0008 6.68699 14.8579 7.36656 14.5807 7.99512C14.3034 8.62368 13.8979 9.18736 13.39 9.65C13.1029 9.55402 12.8027 9.50341 12.5 9.5H11.73C11.4493 9.18615 11.1057 8.93491 10.7214 8.76262C10.3372 8.59033 9.92107 8.50085 9.5 8.5H9.16C8.87631 7.90193 8.42884 7.39657 7.86951 7.04257C7.31019 6.68856 6.66194 6.50043 6 6.5C5.68188 6.50516 5.36582 6.55223 5.06 6.64Z" fill="#0F1621"/>
</svg>
