<svg width="24" height="24" viewBox="0 0 24 24" fill="none" xmlns="http://www.w3.org/2000/svg">
<path d="M22.23 11C21.8041 11.9583 21.1562 12.8015 20.34 13.46C19.809 13.8829 19.2151 14.2203 18.58 14.46C17.6764 13.6207 16.5186 13.1069 15.29 13C14.8243 12.379 14.2203 11.875 13.5261 11.5279C12.8318 11.1807 12.0662 11 11.29 11H10.87C10.539 10.2137 10.0123 9.52522 9.34 9C9.22726 7.98633 9.34398 6.96028 9.68153 5.99783C10.0191 5.03538 10.5688 4.16119 11.29 3.44C11.8632 2.85744 12.5419 2.38914 13.29 2.06C13.3629 2.02641 13.4416 2.00752 13.5218 2.00442C13.602 2.00132 13.682 2.01407 13.7572 2.04194C13.8325 2.06981 13.9015 2.11225 13.9603 2.16682C14.0191 2.2214 14.0666 2.28705 14.1 2.36C14.1509 2.44817 14.1777 2.54819 14.1777 2.65C14.1777 2.75181 14.1509 2.85183 14.1 2.94C13.8058 3.33049 13.5924 3.77567 13.4722 4.24955C13.3521 4.72344 13.3275 5.21652 13.4 5.7C14.4 10.12 18.4 11.62 21.4 10.22C21.4755 10.193 21.5556 10.1812 21.6357 10.1852C21.7158 10.1892 21.7943 10.2089 21.8667 10.2433C21.9392 10.2777 22.0041 10.326 22.0579 10.3855C22.1116 10.4449 22.1531 10.5145 22.18 10.59C22.2464 10.7159 22.2642 10.8618 22.23 11ZM14.5 15H14.12C13.9131 14.4148 13.5298 13.9083 13.023 13.5501C12.5161 13.1919 11.9107 12.9997 11.29 13H9.29C9.29 12.2044 8.97393 11.4413 8.41132 10.8787C7.84871 10.3161 7.08565 10 6.29 10H2V12H6C6.26522 12 6.51957 12.1054 6.70711 12.2929C6.89464 12.4804 7 12.7348 7 13V15H11C11.2652 15 11.5196 15.1054 11.7071 15.2929C11.8946 15.4804 12 15.7348 12 16V17H14.5C14.8978 17 15.2794 17.158 15.5607 17.4393C15.842 17.7206 16 18.1022 16 18.5C16 18.8978 15.842 19.2794 15.5607 19.5607C15.2794 19.842 14.8978 20 14.5 20H2V22H14.33C15.1692 22.0188 15.9888 21.7445 16.6476 21.2243C17.3065 20.7042 17.7635 19.9707 17.94 19.15C18.0356 18.6442 18.0184 18.1235 17.8898 17.6251C17.7611 17.1266 17.524 16.6627 17.1955 16.2664C16.867 15.8701 16.4551 15.5511 15.9892 15.3322C15.5232 15.1133 15.0148 14.9999 14.5 15Z" fill="#0F1621"/>
</svg>
