<svg width="16" height="16" viewBox="0 0 16 16" fill="none" xmlns="http://www.w3.org/2000/svg">
<path d="M15 6C15 6.26522 14.8946 6.51957 14.7071 6.70711C14.5196 6.89464 14.2652 7 14 7H9C8.73478 7 8.48043 6.89464 8.29289 6.70711C8.10536 6.51957 8 6.26522 8 6C8 5.73478 8.10536 5.48043 8.29289 5.29289C8.48043 5.10536 8.73478 5 9 5H14C14.2652 5 14.5196 5.10536 14.7071 5.29289C14.8946 5.48043 15 5.73478 15 6ZM13 9H12.9H7.14H7C6.73478 9 6.48043 9.10536 6.29289 9.29289C6.10536 9.48043 6 9.73478 6 10C6 10.2652 6.10536 10.5196 6.29289 10.7071C6.48043 10.8946 6.73478 11 7 11H7.1H12.82H12.92C13.1852 11 13.4396 10.8946 13.6271 10.7071C13.8146 10.5196 13.92 10.2652 13.92 10C13.92 9.73478 13.8146 9.48043 13.6271 9.29289C13.4396 9.10536 13.1852 9 12.92 9H13ZM12 13C11.8022 13 11.6089 13.0586 11.4444 13.1685C11.28 13.2784 11.1518 13.4346 11.0761 13.6173C11.0004 13.8 10.9806 14.0011 11.0192 14.1951C11.0578 14.3891 11.153 14.5673 11.2929 14.7071C11.4327 14.847 11.6109 14.9422 11.8049 14.9808C11.9989 15.0194 12.2 14.9996 12.3827 14.9239C12.5654 14.8482 12.7216 14.72 12.8315 14.5556C12.9414 14.3911 13 14.1978 13 14C13 13.7348 12.8946 13.4804 12.7071 13.2929C12.5196 13.1054 12.2652 13 12 13ZM8 13H5C4.73478 13 4.48043 13.1054 4.29289 13.2929C4.10536 13.4804 4 13.7348 4 14C4 14.2652 4.10536 14.5196 4.29289 14.7071C4.48043 14.8946 4.73478 15 5 15H8C8.26522 15 8.51957 14.8946 8.70711 14.7071C8.89464 14.5196 9 14.2652 9 14C9 13.7348 8.89464 13.4804 8.70711 13.2929C8.51957 13.1054 8.26522 13 8 13ZM3 9C2.80222 9 2.60888 9.05865 2.44443 9.16853C2.27998 9.27841 2.15181 9.43459 2.07612 9.61732C2.00043 9.80004 1.98063 10.0011 2.01921 10.1951C2.0578 10.3891 2.15304 10.5673 2.29289 10.7071C2.43275 10.847 2.61093 10.9422 2.80491 10.9808C2.99889 11.0194 3.19996 10.9996 3.38268 10.9239C3.56541 10.8482 3.72159 10.72 3.83147 10.5556C3.94135 10.3911 4 10.1978 4 10C4 9.73478 3.89464 9.48043 3.70711 9.29289C3.51957 9.10536 3.26522 9 3 9ZM12 3C12.1978 3 12.3911 2.94135 12.5556 2.83147C12.72 2.72159 12.8482 2.56541 12.9239 2.38268C12.9996 2.19996 13.0194 1.99889 12.9808 1.80491C12.9422 1.61093 12.847 1.43275 12.7071 1.29289C12.5673 1.15304 12.3891 1.0578 12.1951 1.01922C12.0011 0.98063 11.8 1.00043 11.6173 1.07612C11.4346 1.15181 11.2784 1.27998 11.1685 1.44443C11.0586 1.60888 11 1.80222 11 2C11 2.26522 11.1054 2.51957 11.2929 2.70711C11.4804 2.89464 11.7348 3 12 3ZM4 3H8C8.26522 3 8.51957 2.89464 8.70711 2.70711C8.89464 2.51957 9 2.26522 9 2C9 1.73478 8.89464 1.48043 8.70711 1.29289C8.51957 1.10536 8.26522 1 8 1H4C3.73478 1 3.48043 1.10536 3.29289 1.29289C3.10536 1.48043 3 1.73478 3 2C3 2.26522 3.10536 2.51957 3.29289 2.70711C3.48043 2.89464 3.73478 3 4 3ZM5 7C5.26522 7 5.51957 6.89464 5.70711 6.70711C5.89464 6.51957 6 6.26522 6 6C6 5.73478 5.89464 5.48043 5.70711 5.29289C5.51957 5.10536 5.26522 5 5 5H2C1.73478 5 1.48043 5.10536 1.29289 5.29289C1.10536 5.48043 1 5.73478 1 6C1 6.26522 1.10536 6.51957 1.29289 6.70711C1.48043 6.89464 1.73478 7 2 7H5Z" fill="#0F1621"/>
</svg>
