<svg width="24" height="24" viewBox="0 0 24 24" fill="none" xmlns="http://www.w3.org/2000/svg">
<path d="M17.34 21H5.34003C5.07481 21 4.82046 20.8946 4.63292 20.7071C4.44538 20.5196 4.34003 20.2652 4.34003 20C4.34003 19.7348 4.44538 19.4804 4.63292 19.2929C4.82046 19.1054 5.07481 19 5.34003 19H17.34C17.6052 19 17.8596 19.1054 18.0471 19.2929C18.2347 19.4804 18.34 19.7348 18.34 20C18.34 20.2652 18.2347 20.5196 18.0471 20.7071C17.8596 20.8946 17.6052 21 17.34 21ZM9.34003 16C9.34003 15.7348 9.23467 15.4804 9.04713 15.2929C8.8596 15.1054 8.60524 15 8.34003 15H3.34003C3.07481 15 2.82046 15.1054 2.63292 15.2929C2.44538 15.4804 2.34003 15.7348 2.34003 16C2.34003 16.2652 2.44538 16.5196 2.63292 16.7071C2.82046 16.8946 3.07481 17 3.34003 17H8.34003C8.60524 17 8.8596 16.8946 9.04713 16.7071C9.23467 16.5196 9.34003 16.2652 9.34003 16ZM7.34003 12C7.34003 11.7348 7.23467 11.4804 7.04713 11.2929C6.8596 11.1054 6.60524 11 6.34003 11H4.34003C4.07481 11 3.82046 11.1054 3.63292 11.2929C3.44538 11.4804 3.34003 11.7348 3.34003 12C3.34003 12.2652 3.44538 12.5196 3.63292 12.7071C3.82046 12.8946 4.07481 13 4.34003 13H6.34003C6.60524 13 6.8596 12.8946 7.04713 12.7071C7.23467 12.5196 7.34003 12.2652 7.34003 12ZM22.34 16C22.34 15.7348 22.2347 15.4804 22.0471 15.2929C21.8596 15.1054 21.6052 15 21.34 15H12.34C12.0748 15 11.8205 15.1054 11.6329 15.2929C11.4454 15.4804 11.34 15.7348 11.34 16C11.34 16.2652 11.4454 16.5196 11.6329 16.7071C11.8205 16.8946 12.0748 17 12.34 17H21.34C21.6052 17 21.8596 16.8946 22.0471 16.7071C22.2347 16.5196 22.34 16.2652 22.34 16ZM16.34 12C16.34 11.7348 16.2347 11.4804 16.0471 11.2929C15.8596 11.1054 15.6052 11 15.34 11H10.34C10.0748 11 9.82046 11.1054 9.63292 11.2929C9.44538 11.4804 9.34003 11.7348 9.34003 12C9.34003 12.2652 9.44538 12.5196 9.63292 12.7071C9.82046 12.8946 10.0748 13 10.34 13H15.34C15.6052 13 15.8596 12.8946 16.0471 12.7071C16.2347 12.5196 16.34 12.2652 16.34 12ZM20.34 8C20.34 7.73478 20.2347 7.48043 20.0471 7.29289C19.8596 7.10536 19.6052 7 19.34 7H13.34C13.0748 7 12.8205 7.10536 12.6329 7.29289C12.4454 7.48043 12.34 7.73478 12.34 8C12.34 8.26522 12.4454 8.51957 12.6329 8.70711C12.8205 8.89464 13.0748 9 13.34 9H19.34C19.6052 9 19.8596 8.89464 20.0471 8.70711C20.2347 8.51957 20.34 8.26522 20.34 8ZM22.34 12C22.34 11.7348 22.2347 11.4804 22.0471 11.2929C21.8596 11.1054 21.6052 11 21.34 11H19.34C19.0748 11 18.8205 11.1054 18.6329 11.2929C18.4454 11.4804 18.34 11.7348 18.34 12C18.34 12.2652 18.4454 12.5196 18.6329 12.7071C18.8205 12.8946 19.0748 13 19.34 13H21.34C21.6052 13 21.8596 12.8946 22.0471 12.7071C22.2347 12.5196 22.34 12.2652 22.34 12ZM21.34 4C21.34 3.73478 21.2347 3.48043 21.0471 3.29289C20.8596 3.10536 20.6052 3 20.34 3H18.34C18.0748 3 17.8205 3.10536 17.6329 3.29289C17.4454 3.48043 17.34 3.73478 17.34 4C17.34 4.26522 17.4454 4.51957 17.6329 4.70711C17.8205 4.89464 18.0748 5 18.34 5H20.34C20.6052 5 20.8596 4.89464 21.0471 4.70711C21.2347 4.51957 21.34 4.26522 21.34 4ZM10.34 8C10.34 7.73478 10.2347 7.48043 10.0471 7.29289C9.8596 7.10536 9.60524 7 9.34003 7H3.34003C3.07481 7 2.82046 7.10536 2.63292 7.29289C2.44538 7.48043 2.34003 7.73478 2.34003 8C2.34003 8.26522 2.44538 8.51957 2.63292 8.70711C2.82046 8.89464 3.07481 9 3.34003 9H9.34003C9.60524 9 9.8596 8.89464 10.0471 8.70711C10.2347 8.51957 10.34 8.26522 10.34 8ZM15.34 4C15.34 3.73478 15.2347 3.48043 15.0471 3.29289C14.8596 3.10536 14.6052 3 14.34 3H5.34003C5.07481 3 4.82046 3.10536 4.63292 3.29289C4.44538 3.48043 4.34003 3.73478 4.34003 4C4.34003 4.26522 4.44538 4.51957 4.63292 4.70711C4.82046 4.89464 5.07481 5 5.34003 5H14.34C14.6052 5 14.8596 4.89464 15.0471 4.70711C15.2347 4.51957 15.34 4.26522 15.34 4Z" fill="#0F1621"/>
</svg>
