<svg width="24" height="24" viewBox="0 0 24 24" fill="none" xmlns="http://www.w3.org/2000/svg">
<path d="M21 16.5C20.4459 16.95 19.7743 17.2316 19.0649 17.3113C18.3555 17.3909 17.6382 17.2654 16.9981 16.9495C16.3579 16.6337 15.8218 16.1408 15.4535 15.5293C15.0851 14.9179 14.9 14.2136 14.92 13.5V13.44L16.41 11.96C16.5963 11.7726 16.7008 11.5192 16.7008 11.255C16.7008 10.9908 16.5963 10.7374 16.41 10.55C16.2226 10.3637 15.9692 10.2592 15.705 10.2592C15.4408 10.2592 15.1874 10.3637 15 10.55L13.53 12H13.4C12.8421 12.0127 12.2885 11.8988 11.781 11.6667C11.2735 11.4346 10.8253 11.0904 10.47 10.66C9.92204 9.98205 9.62312 9.13671 9.62312 8.265C9.62312 7.39329 9.92204 6.54795 10.47 5.87L9 7.22C8.15126 8.06897 7.54583 9.13009 7.24681 10.2927C6.9478 11.4553 6.96617 12.6769 7.3 13.83L8.3 17.2L5.65 19.83C5.4617 20.0183 5.2063 20.1241 4.94 20.1241C4.6737 20.1241 4.41831 20.0183 4.23 19.83C4.0417 19.6417 3.93591 19.3863 3.93591 19.12C3.93591 18.8537 4.0417 18.5983 4.23 18.41L4.94 17.71C5.13444 17.5307 5.24992 17.2816 5.26117 17.0174C5.27241 16.7531 5.17851 16.4952 5 16.3C4.81264 16.1137 4.55919 16.0092 4.295 16.0092C4.03082 16.0092 3.77736 16.1137 3.59 16.3L2.82 17C2.29008 17.5687 2.00159 18.3209 2.0153 19.0981C2.02902 19.8753 2.34386 20.6168 2.89352 21.1665C3.44317 21.7161 4.18471 22.031 4.96191 22.0447C5.73912 22.0584 6.4913 21.7699 7.06 21.24L9.69 18.62L13.06 19.62C13.6641 19.7965 14.2907 19.8841 14.92 19.88C15.8044 19.8756 16.6792 19.6967 17.4944 19.3535C18.3095 19.0103 19.0488 18.5095 19.67 17.88L21 16.51V16.5ZM9.22 13.16C9.09715 12.7844 9.0232 12.3945 9 12C9.06 12.08 9.14 12.15 9.21 12.23C9.88979 12.9193 10.7378 13.4191 11.67 13.68L9.94 15.47L9.22 13.16ZM13.61 17.55L11.3 16.88L13.13 15.06C13.4012 15.9879 13.8995 16.8334 14.58 17.52L14.81 17.73C14.404 17.7206 14.0009 17.6601 13.61 17.55ZM18.82 8H12.94C12.6748 8 12.4204 7.89464 12.2329 7.70711C12.0454 7.51957 11.94 7.26522 11.94 7C11.94 6.73478 12.0454 6.48043 12.2329 6.29289C12.4204 6.10536 12.6748 6 12.94 6H18.94C19.2052 6 19.4596 5.89464 19.6471 5.70711C19.8346 5.51957 19.94 5.26522 19.94 5C19.94 4.73478 19.8346 4.48043 19.6471 4.29289C19.4596 4.10536 19.2052 4 18.94 4H17.94C17.6748 4 17.4204 3.89464 17.2329 3.70711C17.0454 3.51957 16.94 3.26522 16.94 3C16.94 2.73478 17.0454 2.48043 17.2329 2.29289C17.4204 2.10536 17.6748 2 17.94 2H18.94C19.7357 2 20.4987 2.31607 21.0613 2.87868C21.6239 3.44129 21.94 4.20435 21.94 5C21.9399 5.20149 21.9198 5.40247 21.88 5.6C21.7237 6.29092 21.3341 6.90685 20.7767 7.34402C20.2193 7.78118 19.5283 8.01285 18.82 8ZM2.94 12C2.67479 12 2.42043 11.8946 2.2329 11.7071C2.04536 11.5196 1.94 11.2652 1.94 11C1.94 10.7348 2.04536 10.4804 2.2329 10.2929C2.42043 10.1054 2.67479 10 2.94 10C3.20522 10 3.45957 10.1054 3.64711 10.2929C3.83465 10.4804 3.94 10.7348 3.94 11C3.94 11.2652 3.83465 11.5196 3.64711 11.7071C3.45957 11.8946 3.20522 12 2.94 12ZM4.94 8H3.94C3.67479 8 3.42043 7.89464 3.2329 7.70711C3.04536 7.51957 2.94 7.26522 2.94 7C2.94 6.73478 3.04536 6.48043 3.2329 6.29289C3.42043 6.10536 3.67479 6 3.94 6H4.94C5.20522 6 5.45957 6.10536 5.64711 6.29289C5.83465 6.48043 5.94 6.73478 5.94 7C5.94 7.26522 5.83465 7.51957 5.64711 7.70711C5.45957 7.89464 5.20522 8 4.94 8ZM12.94 4H4.94C4.67479 4 4.42043 3.89464 4.2329 3.70711C4.04536 3.51957 3.94 3.26522 3.94 3C3.94 2.73478 4.04536 2.48043 4.2329 2.29289C4.42043 2.10536 4.67479 2 4.94 2H12.94C13.2052 2 13.4596 2.10536 13.6471 2.29289C13.8346 2.48043 13.94 2.73478 13.94 3C13.94 3.26522 13.8346 3.51957 13.6471 3.70711C13.4596 3.89464 13.2052 4 12.94 4ZM20.94 12H19.94C19.6748 12 19.4204 11.8946 19.2329 11.7071C19.0454 11.5196 18.94 11.2652 18.94 11C18.94 10.7348 19.0454 10.4804 19.2329 10.2929C19.4204 10.1054 19.6748 10 19.94 10H20.94C21.2052 10 21.4596 10.1054 21.6471 10.2929C21.8346 10.4804 21.94 10.7348 21.94 11C21.94 11.2652 21.8346 11.5196 21.6471 11.7071C21.4596 11.8946 21.2052 12 20.94 12Z" fill="#0F1621"/>
</svg>
