<svg width="24" height="24" viewBox="0 0 24 24" fill="none" xmlns="http://www.w3.org/2000/svg">
<path d="M18 10H17.3C17.0931 9.41484 16.7098 8.90826 16.203 8.55006C15.6961 8.19186 15.0907 7.99967 14.47 8H12.87C12.6484 7.14187 12.1481 6.38163 11.4477 5.83864C10.7472 5.29565 9.88627 5.00066 9 5H8C6.93913 5 5.92172 5.42143 5.17157 6.17157C4.42143 6.92172 4 7.93913 4 9V10.17C3.41484 10.3769 2.90826 10.7602 2.55006 11.267C2.19186 11.7739 1.99968 12.3793 2 13V14C2 15.0609 2.42143 16.0783 3.17157 16.8284C3.92172 17.5786 4.93913 18 6 18H17.85C18.7884 18.0157 19.7039 17.7098 20.4443 17.1331C21.1847 16.5564 21.7055 15.7437 21.92 14.83C22.0437 14.2467 22.0355 13.643 21.8958 13.0633C21.7562 12.4835 21.4887 11.9423 21.1129 11.4793C20.7371 11.0163 20.2625 10.6432 19.7239 10.3872C19.1853 10.1312 18.5963 9.99895 18 10ZM18 16H6C5.46957 16 4.96086 15.7893 4.58579 15.4142C4.21071 15.0391 4 14.5304 4 14V13C4 12.7348 4.10536 12.4804 4.29289 12.2929C4.48043 12.1054 4.73478 12 5 12H10C10 11.4696 9.78929 10.9609 9.41421 10.5858C9.03914 10.2107 8.53043 10 8 10H6V9C6 8.46957 6.21071 7.96086 6.58579 7.58579C6.96086 7.21071 7.46957 7 8 7H9C9.53043 7 10.0391 7.21071 10.4142 7.58579C10.7893 7.96086 11 8.46957 11 9V10H14C14.2652 10 14.5196 10.1054 14.7071 10.2929C14.8946 10.4804 15 10.7348 15 11V12H17.92C18.3549 11.9766 18.7855 12.0957 19.1465 12.3394C19.5075 12.5831 19.7791 12.9379 19.92 13.35C20.0243 13.6535 20.0541 13.9776 20.0068 14.295C19.9595 14.6124 19.8365 14.9138 19.6482 15.1736C19.4599 15.4335 19.2119 15.6443 18.925 15.7881C18.6381 15.9319 18.3209 16.0046 18 16Z" fill="#0F1621"/>
</svg>
