<svg width="16" height="16" viewBox="0 0 16 16" fill="none" xmlns="http://www.w3.org/2000/svg">
<path d="M14 11C13.7348 11 13.4804 11.1054 13.2929 11.2929C13.1054 11.4804 13 11.7348 13 12V14C13 14.2652 13.1054 14.5196 13.2929 14.7071C13.4804 14.8946 13.7348 15 14 15C14.2652 15 14.5196 14.8946 14.7071 14.7071C14.8946 14.5196 15 14.2652 15 14V12C15 11.7348 14.8946 11.4804 14.7071 11.2929C14.5196 11.1054 14.2652 11 14 11Z" fill="#0F1621"/>
<path d="M10 11C9.73478 11 9.48043 11.1054 9.29289 11.2929C9.10536 11.4804 9 11.7348 9 12V14C9 14.2652 9.10536 14.5196 9.29289 14.7071C9.48043 14.8946 9.73478 15 10 15C10.2652 15 10.5196 14.8946 10.7071 14.7071C10.8946 14.5196 11 14.2652 11 14V12C11 11.7348 10.8946 11.4804 10.7071 11.2929C10.5196 11.1054 10.2652 11 10 11Z" fill="#0F1621"/>
<path d="M6 11C5.73478 11 5.48043 11.1054 5.29289 11.2929C5.10536 11.4804 5 11.7348 5 12V14C5 14.2652 5.10536 14.5196 5.29289 14.7071C5.48043 14.8946 5.73478 15 6 15C6.26522 15 6.51957 14.8946 6.70711 14.7071C6.89464 14.5196 7 14.2652 7 14V12C7 11.7348 6.89464 11.4804 6.70711 11.2929C6.51957 11.1054 6.26522 11 6 11Z" fill="#0F1621"/>
<path d="M2 11C1.73478 11 1.48043 11.1054 1.29289 11.2929C1.10536 11.4804 1 11.7348 1 12V14C1 14.2652 1.10536 14.5196 1.29289 14.7071C1.48043 14.8946 1.73478 15 2 15C2.26522 15 2.51957 14.8946 2.70711 14.7071C2.89464 14.5196 3 14.2652 3 14V12C3 11.7348 2.89464 11.4804 2.70711 11.2929C2.51957 11.1054 2.26522 11 2 11Z" fill="#0F1621"/>
<path d="M15 8.00002C15 7.46959 14.7893 6.96088 14.4142 6.58581C14.0391 6.21073 13.5304 6.00002 13 6.00002H12C12 5.20437 11.6839 4.44131 11.1213 3.8787C10.5587 3.31609 9.79565 3.00002 9 3.00002H8.83C8.5949 2.33169 8.13085 1.76813 7.52005 1.40915C6.90924 1.05018 6.1911 0.918958 5.49282 1.03873C4.79454 1.15851 4.16118 1.52154 3.70492 2.06355C3.24866 2.60555 2.99894 3.29154 3 4.00002V5.00002C2.33696 5.00002 1.70107 5.26341 1.23223 5.73225C0.763392 6.20109 0.5 6.83698 0.5 7.50002C0.5 8.16306 0.763392 8.79895 1.23223 9.26779C1.70107 9.73663 2.33696 10 3 10H4H13C13.5304 10 14.0391 9.78931 14.4142 9.41423C14.7893 9.03916 15 8.53045 15 8.00002Z" fill="#0F1621"/>
</svg>
