<svg width="24" height="24" viewBox="0 0 24 24" fill="none" xmlns="http://www.w3.org/2000/svg">
<path d="M19 14H5C4.20435 14 3.44129 13.6839 2.87868 13.1213C2.31607 12.5587 2 11.7956 2 11V10C1.99968 9.37935 2.19186 8.77387 2.55006 8.26702C2.90826 7.76016 3.41484 7.37688 4 7.17V6C4 4.93913 4.42143 3.92172 5.17157 3.17157C5.92172 2.42143 6.93913 2 8 2H9C9.88627 2.00066 10.7472 2.29565 11.4477 2.83864C12.1481 3.38163 12.6484 4.14187 12.87 5H13.87C14.4907 4.99967 15.0961 5.19186 15.603 5.55006C16.1098 5.90826 16.4931 6.41484 16.7 7H19C19.7956 7 20.5587 7.31607 21.1213 7.87868C21.6839 8.44129 22 9.20435 22 10V11C22 11.7956 21.6839 12.5587 21.1213 13.1213C20.5587 13.6839 19.7956 14 19 14ZM17.88 22L19.88 16H15.88L17.88 22ZM11.88 21L13.88 16H9.88L11.88 21ZM5.88 19L7.88 16H3.88L5.88 19Z" fill="#0F1621"/>
</svg>
