<svg width="24" height="24" viewBox="0 0 24 24" fill="none" xmlns="http://www.w3.org/2000/svg">
<path d="M8 21C7.73478 21 7.48043 20.8946 7.29289 20.7071C7.10536 20.5196 7 20.2652 7 20V17C7 16.7348 7.10536 16.4804 7.29289 16.2929C7.48043 16.1054 7.73478 16 8 16C8.26522 16 8.51957 16.1054 8.70711 16.2929C8.89464 16.4804 9 16.7348 9 17V20C9 20.2652 8.89464 20.5196 8.70711 20.7071C8.51957 20.8946 8.26522 21 8 21ZM5 21V17C5 16.7348 4.89464 16.4804 4.70711 16.2929C4.51957 16.1054 4.26522 16 4 16C3.73478 16 3.48043 16.1054 3.29289 16.2929C3.10536 16.4804 3 16.7348 3 17V21C3 21.2652 3.10536 21.5196 3.29289 21.7071C3.48043 21.8946 3.73478 22 4 22C4.26522 22 4.51957 21.8946 4.70711 21.7071C4.89464 21.5196 5 21.2652 5 21ZM13 18V17C13 16.7348 12.8946 16.4804 12.7071 16.2929C12.5196 16.1054 12.2652 16 12 16C11.7348 16 11.4804 16.1054 11.2929 16.2929C11.1054 16.4804 11 16.7348 11 17V18C11 18.2652 11.1054 18.5196 11.2929 18.7071C11.4804 18.8946 11.7348 19 12 19C12.2652 19 12.5196 18.8946 12.7071 18.7071C12.8946 18.5196 13 18.2652 13 18ZM22 11V10C22 9.20435 21.6839 8.44129 21.1213 7.87868C20.5587 7.31607 19.7956 7 19 7H16.83C16.6231 6.41484 16.2398 5.90826 15.733 5.55006C15.2261 5.19186 14.6207 4.99967 14 5H12.87C12.6484 4.14187 12.1481 3.38163 11.4477 2.83864C10.7472 2.29565 9.88627 2.00066 9 2H8C6.93913 2 5.92172 2.42143 5.17157 3.17157C4.42143 3.92172 4 4.93913 4 6V7.17C3.41484 7.37688 2.90826 7.76016 2.55006 8.26702C2.19186 8.77387 1.99968 9.37935 2 10V11C2 11.7956 2.31607 12.5587 2.87868 13.1213C3.44129 13.6839 4.20435 14 5 14H19C19.7956 14 20.5587 13.6839 21.1213 13.1213C21.6839 12.5587 22 11.7956 22 11ZM18.19 20C17.9922 20 17.7989 20.0586 17.6344 20.1685C17.47 20.2784 17.3418 20.4346 17.2661 20.6173C17.1904 20.8 17.1706 21.0011 17.2092 21.1951C17.2478 21.3891 17.343 21.5673 17.4829 21.7071C17.6227 21.847 17.8009 21.9422 17.9949 21.9808C18.1889 22.0194 18.39 21.9996 18.5727 21.9239C18.7554 21.8482 18.9116 21.72 19.0215 21.5556C19.1314 21.3911 19.19 21.1978 19.19 21C19.19 20.7348 19.0846 20.4804 18.8971 20.2929C18.7096 20.1054 18.4552 20 18.19 20ZM14.19 20C13.9922 20 13.7989 20.0586 13.6344 20.1685C13.47 20.2784 13.3418 20.4346 13.2661 20.6173C13.1904 20.8 13.1706 21.0011 13.2092 21.1951C13.2478 21.3891 13.343 21.5673 13.4829 21.7071C13.6227 21.847 13.8009 21.9422 13.9949 21.9808C14.1889 22.0194 14.39 21.9996 14.5727 21.9239C14.7554 21.8482 14.9116 21.72 15.0215 21.5556C15.1314 21.3911 15.19 21.1978 15.19 21C15.19 20.8687 15.1641 20.7386 15.1139 20.6173C15.0636 20.496 14.99 20.3858 14.8971 20.2929C14.8042 20.2 14.694 20.1264 14.5727 20.0761C14.4514 20.0259 14.3213 20 14.19 20ZM16.19 16C15.9922 16 15.7989 16.0586 15.6344 16.1685C15.47 16.2784 15.3418 16.4346 15.2661 16.6173C15.1904 16.8 15.1706 17.0011 15.2092 17.1951C15.2478 17.3891 15.343 17.5673 15.4829 17.7071C15.6227 17.847 15.8009 17.9422 15.9949 17.9808C16.1889 18.0194 16.39 17.9996 16.5727 17.9239C16.7554 17.8482 16.9116 17.72 17.0215 17.5556C17.1314 17.3911 17.19 17.1978 17.19 17C17.19 16.7348 17.0846 16.4804 16.8971 16.2929C16.7096 16.1054 16.4552 16 16.19 16ZM20.19 16C19.9922 16 19.7989 16.0586 19.6344 16.1685C19.47 16.2784 19.3418 16.4346 19.2661 16.6173C19.1904 16.8 19.1706 17.0011 19.2092 17.1951C19.2478 17.3891 19.343 17.5673 19.4829 17.7071C19.6227 17.847 19.8009 17.9422 19.9949 17.9808C20.1889 18.0194 20.39 17.9996 20.5727 17.9239C20.7554 17.8482 20.9116 17.72 21.0215 17.5556C21.1314 17.3911 21.19 17.1978 21.19 17C21.19 16.7348 21.0846 16.4804 20.8971 16.2929C20.7096 16.1054 20.4552 16 20.19 16Z" fill="#0F1621"/>
</svg>
