<svg width="16" height="16" viewBox="0 0 16 16" fill="none" xmlns="http://www.w3.org/2000/svg">
<path d="M15 12C15 12.1978 14.9414 12.3911 14.8315 12.5556C14.7216 12.72 14.5654 12.8482 14.3827 12.9239C14.2 12.9996 13.9989 13.0194 13.8049 12.9808C13.6109 12.9422 13.4327 12.847 13.2929 12.7071C13.153 12.5673 13.0578 12.3891 13.0192 12.1951C12.9806 12.0011 13.0004 11.8001 13.0761 11.6173C13.1518 11.4346 13.28 11.2784 13.4444 11.1686C13.6089 11.0587 13.8022 11 14 11C14.2652 11 14.5196 11.1054 14.7071 11.2929C14.8946 11.4804 15 11.7348 15 12ZM10 11C9.80222 11 9.60888 11.0587 9.44443 11.1686C9.27998 11.2784 9.15181 11.4346 9.07612 11.6173C9.00043 11.8001 8.98063 12.0011 9.01921 12.1951C9.0578 12.3891 9.15304 12.5673 9.29289 12.7071C9.43275 12.847 9.61093 12.9422 9.80491 12.9808C9.99889 13.0194 10.2 12.9996 10.3827 12.9239C10.5654 12.8482 10.7216 12.72 10.8315 12.5556C10.9414 12.3911 11 12.1978 11 12C11 11.7348 10.8946 11.4804 10.7071 11.2929C10.5196 11.1054 10.2652 11 10 11ZM6 11C5.73478 11 5.48043 11.1054 5.29289 11.2929C5.10536 11.4804 5 11.7348 5 12V14C5 14.2652 5.10536 14.5196 5.29289 14.7071C5.48043 14.8947 5.73478 15 6 15C6.26522 15 6.51957 14.8947 6.70711 14.7071C6.89464 14.5196 7 14.2652 7 14V12C7 11.7348 6.89464 11.4804 6.70711 11.2929C6.51957 11.1054 6.26522 11 6 11ZM2 11C1.73478 11 1.48043 11.1054 1.29289 11.2929C1.10536 11.4804 1 11.7348 1 12V14C1 14.2652 1.10536 14.5196 1.29289 14.7071C1.48043 14.8947 1.73478 15 2 15C2.26522 15 2.51957 14.8947 2.70711 14.7071C2.89464 14.5196 3 14.2652 3 14V12C3 11.7348 2.89464 11.4804 2.70711 11.2929C2.51957 11.1054 2.26522 11 2 11ZM15 8.00002C15 7.46959 14.7893 6.96088 14.4142 6.58581C14.0391 6.21073 13.5304 6.00002 13 6.00002H12C12 5.20437 11.6839 4.44131 11.1213 3.8787C10.5587 3.31609 9.79565 3.00002 9 3.00002H8.83C8.5949 2.33169 8.13085 1.76813 7.52005 1.40915C6.90924 1.05018 6.1911 0.918958 5.49282 1.03873C4.79454 1.15851 4.16118 1.52154 3.70492 2.06355C3.24866 2.60555 2.99894 3.29154 3 4.00002V5.00002C2.33696 5.00002 1.70107 5.26341 1.23223 5.73225C0.763392 6.20109 0.5 6.83698 0.5 7.50002C0.5 8.16306 0.763392 8.79895 1.23223 9.26779C1.70107 9.73663 2.33696 10 3 10H4H13C13.5304 10 14.0391 9.78931 14.4142 9.41423C14.7893 9.03916 15 8.53045 15 8.00002Z" fill="#0F1621"/>
</svg>
