<svg width="24" height="24" viewBox="0 0 24 24" fill="none" xmlns="http://www.w3.org/2000/svg">
<path d="M19 7H16.76C16.5531 6.41484 16.1698 5.90826 15.663 5.55006C15.1561 5.19186 14.5507 4.99967 13.93 5H12.87C12.6484 4.14187 12.1481 3.38163 11.4477 2.83864C10.7472 2.29565 9.88627 2.00066 9 2H8C6.93913 2 5.92172 2.42143 5.17157 3.17157C4.42143 3.92172 4 4.93913 4 6V7.17C3.41484 7.37688 2.90826 7.76016 2.55006 8.26702C2.19186 8.77387 1.99968 9.37935 2 10V11C2 11.7956 2.31607 12.5587 2.87868 13.1213C3.44129 13.6839 4.20435 14 5 14H19C19.7956 14 20.5587 13.6839 21.1213 13.1213C21.6839 12.5587 22 11.7956 22 11V10C22 9.20435 21.6839 8.44129 21.1213 7.87868C20.5587 7.31607 19.7956 7 19 7ZM20 11C20 11.2652 19.8946 11.5196 19.7071 11.7071C19.5196 11.8946 19.2652 12 19 12H5C4.73478 12 4.48043 11.8946 4.29289 11.7071C4.10536 11.5196 4 11.2652 4 11V10C4 9.73478 4.10536 9.48043 4.29289 9.29289C4.48043 9.10536 4.73478 9 5 9H10C10 8.46957 9.78929 7.96086 9.41421 7.58579C9.03914 7.21071 8.53043 7 8 7H6V6C6 5.46957 6.21071 4.96086 6.58579 4.58579C6.96086 4.21071 7.46957 4 8 4H9C9.53043 4 10.0391 4.21071 10.4142 4.58579C10.7893 4.96086 11 5.46957 11 6V7H14C14.2652 7 14.5196 7.10536 14.7071 7.29289C14.8946 7.48043 15 7.73478 15 8V9H19C19.2652 9 19.5196 9.10536 19.7071 9.29289C19.8946 9.48043 20 9.73478 20 10V11ZM15.93 16H19.93L17.93 22L15.93 16ZM9.93 16H13.93L11.93 21L9.93 16ZM3.93 16H7.93L5.93 19L3.93 16Z" fill="#0F1621"/>
</svg>
