<svg width="16" height="16" viewBox="0 0 16 16" fill="none" xmlns="http://www.w3.org/2000/svg">
<path d="M12 12V14C12 14.2652 11.8946 14.5195 11.7071 14.7071C11.5196 14.8946 11.2652 15 11 15C10.7348 15 10.4804 14.8946 10.2929 14.7071C10.1054 14.5195 10 14.2652 10 14V12C10 11.7348 10.1054 11.4804 10.2929 11.2929C10.4804 11.1053 10.7348 11 11 11C11.2652 11 11.5196 11.1053 11.7071 11.2929C11.8946 11.4804 12 11.7348 12 12ZM7 11C6.73478 11 6.48043 11.1053 6.29289 11.2929C6.10536 11.4804 6 11.7348 6 12V14C6 14.2652 6.10536 14.5195 6.29289 14.7071C6.48043 14.8946 6.73478 15 7 15C7.26522 15 7.51957 14.8946 7.70711 14.7071C7.89464 14.5195 8 14.2652 8 14V12C8 11.7348 7.89464 11.4804 7.70711 11.2929C7.51957 11.1053 7.26522 11 7 11ZM3 11C2.73478 11 2.48043 11.1053 2.29289 11.2929C2.10536 11.4804 2 11.7348 2 12V14C2 14.2652 2.10536 14.5195 2.29289 14.7071C2.48043 14.8946 2.73478 15 3 15C3.26522 15 3.51957 14.8946 3.70711 14.7071C3.89464 14.5195 4 14.2652 4 14V12C4 11.7348 3.89464 11.4804 3.70711 11.2929C3.51957 11.1053 3.26522 11 3 11ZM11.5 5.99997H10.91C10.8056 5.709 10.6144 5.45708 10.3623 5.27825C10.1101 5.09941 9.80913 5.00228 9.5 4.99997H8C8 4.46954 7.78929 3.96083 7.41421 3.58576C7.03914 3.21069 6.53043 2.99997 6 2.99997C5.46957 2.99997 4.96086 3.21069 4.58579 3.58576C4.21071 3.96083 4 4.46954 4 4.99997V5.99997H2.5C2.10218 5.99997 1.72064 6.15801 1.43934 6.43931C1.15804 6.72062 1 7.10215 1 7.49997C1 7.8978 1.15804 8.27933 1.43934 8.56063C1.72064 8.84194 2.10218 8.99997 2.5 8.99997H11.5C11.8978 8.99997 12.2794 8.84194 12.5607 8.56063C12.842 8.27933 13 7.8978 13 7.49997C13 7.10215 12.842 6.72062 12.5607 6.43931C12.2794 6.15801 11.8978 5.99997 11.5 5.99997ZM9.16 3.49997H9.5C9.92275 3.49942 10.3408 3.58822 10.7269 3.76056C11.1129 3.93289 11.4582 4.18487 11.74 4.49997C12.319 4.5468 12.8719 4.76072 13.3317 5.11575C13.7915 5.47077 14.1383 5.95164 14.33 6.49997C14.7572 5.91991 14.9916 5.22035 15 4.49997C15.0033 3.74239 14.76 3.0043 14.3068 2.39718C13.8537 1.79006 13.2153 1.34688 12.488 1.13458C11.7608 0.922285 10.9842 0.952391 10.2756 1.22036C9.56698 1.48832 8.9648 1.97959 8.56 2.61997C8.80578 2.87932 9.00836 3.17643 9.16 3.49997Z" fill="#0F1621"/>
</svg>
