<svg width="24" height="24" viewBox="0 0 24 24" fill="none" xmlns="http://www.w3.org/2000/svg">
<path d="M3 21C2.73478 21 2.48043 20.8946 2.29289 20.7071C2.10536 20.5195 2 20.2652 2 20V18C2 17.7348 2.10536 17.4804 2.29289 17.2929C2.48043 17.1053 2.73478 17 3 17C3.26522 17 3.51957 17.1053 3.70711 17.2929C3.89464 17.4804 4 17.7348 4 18V20C4 20.2652 3.89464 20.5195 3.70711 20.7071C3.51957 20.8946 3.26522 21 3 21ZM8 21V18C8 17.7348 7.89464 17.4804 7.70711 17.2929C7.51957 17.1053 7.26522 17 7 17C6.73478 17 6.48043 17.1053 6.29289 17.2929C6.10536 17.4804 6 17.7348 6 18V21C6 21.2652 6.10536 21.5195 6.29289 21.7071C6.48043 21.8946 6.73478 22 7 22C7.26522 22 7.51957 21.8946 7.70711 21.7071C7.89464 21.5195 8 21.2652 8 21ZM12 20V18C12 17.7348 11.8946 17.4804 11.7071 17.2929C11.5196 17.1053 11.2652 17 11 17C10.7348 17 10.4804 17.1053 10.2929 17.2929C10.1054 17.4804 10 17.7348 10 18V20C10 20.2652 10.1054 20.5195 10.2929 20.7071C10.4804 20.8946 10.7348 21 11 21C11.2652 21 11.5196 20.8946 11.7071 20.7071C11.8946 20.5195 12 20.2652 12 20ZM11 8.99997H9C9 8.46954 8.78929 7.96083 8.41421 7.58576C8.03914 7.21069 7.53043 6.99997 7 6.99997H6C6 6.46954 5.78929 5.96083 5.41421 5.58576C5.03914 5.21069 4.53043 4.99997 4 4.99997H2V6.99997H3C3.26522 6.99997 3.51957 7.10533 3.70711 7.29287C3.89464 7.4804 4 7.73476 4 7.99997V8.99997H6C6.26522 8.99997 6.51957 9.10533 6.70711 9.29287C6.89464 9.4804 7 9.73476 7 9.99997V11H11C11.2652 11 11.5196 11.1053 11.7071 11.2929C11.8946 11.4804 12 11.7348 12 12C12 12.2652 11.8946 12.5195 11.7071 12.7071C11.5196 12.8946 11.2652 13 11 13H2V15H11C11.7956 15 12.5587 14.6839 13.1213 14.1213C13.6839 13.5587 14 12.7956 14 12C14 11.2043 13.6839 10.4413 13.1213 9.87865C12.5587 9.31604 11.7956 8.99997 11 8.99997ZM21.28 8.29997C20.4879 8.66266 19.6037 8.77436 18.7463 8.62009C17.8888 8.46582 17.0991 8.05296 16.4831 7.43692C15.867 6.82087 15.4541 6.03113 15.2999 5.17368C15.1456 4.31623 15.2573 3.43211 15.62 2.63997C15.6875 2.53963 15.7138 2.41712 15.6933 2.29792C15.6728 2.17872 15.6072 2.072 15.51 1.99997C15.4336 1.95205 15.3452 1.92664 15.255 1.92664C15.1648 1.92664 15.0764 1.95205 15 1.99997C14.4482 2.28057 13.9478 2.65248 13.52 3.09997C12.9947 3.61879 12.5872 4.24448 12.3249 4.93463C12.0626 5.62478 11.9518 6.36325 12 7.09997C13.1046 7.32491 14.1007 7.9165 14.8268 8.77873C15.5529 9.64096 15.9663 10.7232 16 11.85C17.1752 12.1317 18.4115 12.0026 19.5031 11.4841C20.5947 10.9656 21.4759 10.0889 22 8.99997C22.0888 8.91112 22.1388 8.79062 22.1388 8.66497C22.1388 8.53932 22.0888 8.41882 22 8.32997C21.9112 8.24112 21.7906 8.19121 21.665 8.19121C21.5394 8.19121 21.4188 8.24112 21.33 8.32997L21.28 8.29997Z" fill="#0F1621"/>
</svg>
