<svg width="16" height="16" viewBox="0 0 16 16" fill="none" xmlns="http://www.w3.org/2000/svg">
<path d="M13 7.00002H12C12 6.20437 11.6839 5.44131 11.1213 4.8787C10.5587 4.31609 9.79565 4.00002 9 4.00002H8.83C8.5949 3.33169 8.13085 2.76813 7.52005 2.40915C6.90924 2.05018 6.1911 1.91896 5.49282 2.03873C4.79454 2.15851 4.16118 2.52154 3.70492 3.06355C3.24866 3.60555 2.99894 4.29154 3 5.00002V6.00002C2.33696 6.00002 1.70107 6.26341 1.23223 6.73225C0.763392 7.20109 0.5 7.83698 0.5 8.50002C0.5 9.16306 0.763392 9.79895 1.23223 10.2678C1.70107 10.7366 2.33696 11 3 11H4H13C13.5304 11 14.0391 10.7893 14.4142 10.4142C14.7893 10.0392 15 9.53045 15 9.00002C15 8.46959 14.7893 7.96088 14.4142 7.58581C14.0391 7.21073 13.5304 7.00002 13 7.00002ZM6 13H2V12H6V13ZM8 15H1V14H8V15ZM14 15H10V14H14V15ZM10 13H8V12H10V13ZM15 13H12V12H15V13Z" fill="#0F1621"/>
</svg>
