<svg width="24" height="24" viewBox="0 0 24 24" fill="none" xmlns="http://www.w3.org/2000/svg">
<path d="M19 14H5C4.20435 14 3.44129 13.6839 2.87868 13.1213C2.31607 12.5587 2 11.7956 2 11V10C1.99968 9.37935 2.19186 8.77387 2.55006 8.26702C2.90826 7.76016 3.41484 7.37688 4 7.17V6C4 4.93913 4.42143 3.92172 5.17157 3.17157C5.92172 2.42143 6.93913 2 8 2H9C9.88627 2.00066 10.7472 2.29565 11.4477 2.83864C12.1481 3.38163 12.6484 4.14187 12.87 5H14.41C15.0307 4.99967 15.6361 5.19186 16.143 5.55006C16.6498 5.90826 17.0331 6.41484 17.24 7H19C19.7956 7 20.5587 7.31607 21.1213 7.87868C21.6839 8.44129 22 9.20435 22 10V11C22 11.7956 21.6839 12.5587 21.1213 13.1213C20.5587 13.6839 19.7956 14 19 14ZM6.41 20C6.21222 20 6.01888 20.0586 5.85443 20.1685C5.68998 20.2784 5.56181 20.4346 5.48612 20.6173C5.41043 20.8 5.39063 21.0011 5.42922 21.1951C5.4678 21.3891 5.56304 21.5673 5.70289 21.7071C5.84275 21.847 6.02093 21.9422 6.21491 21.9808C6.40889 22.0194 6.60996 21.9996 6.79268 21.9239C6.97541 21.8482 7.13159 21.72 7.24147 21.5556C7.35135 21.3911 7.41 21.1978 7.41 21C7.41 20.7348 7.30464 20.4804 7.11711 20.2929C6.92957 20.1054 6.67522 20 6.41 20ZM10.41 20C10.2122 20 10.0189 20.0586 9.85443 20.1685C9.68998 20.2784 9.56181 20.4346 9.48612 20.6173C9.41043 20.8 9.39063 21.0011 9.42921 21.1951C9.4678 21.3891 9.56304 21.5673 9.70289 21.7071C9.84275 21.847 10.0209 21.9422 10.2149 21.9808C10.4089 22.0194 10.61 21.9996 10.7927 21.9239C10.9754 21.8482 11.1316 21.72 11.2415 21.5556C11.3514 21.3911 11.41 21.1978 11.41 21C11.41 20.7348 11.3046 20.4804 11.1171 20.2929C10.9296 20.1054 10.6752 20 10.41 20ZM18.41 20C18.2122 20 18.0189 20.0586 17.8544 20.1685C17.69 20.2784 17.5618 20.4346 17.4861 20.6173C17.4104 20.8 17.3906 21.0011 17.4292 21.1951C17.4678 21.3891 17.563 21.5673 17.7029 21.7071C17.8427 21.847 18.0209 21.9422 18.2149 21.9808C18.4089 22.0194 18.61 21.9996 18.7927 21.9239C18.9754 21.8482 19.1316 21.72 19.2415 21.5556C19.3514 21.3911 19.41 21.1978 19.41 21C19.41 20.7348 19.3046 20.4804 19.1171 20.2929C18.9296 20.1054 18.6752 20 18.41 20ZM14.41 20C14.2122 20 14.0189 20.0586 13.8544 20.1685C13.69 20.2784 13.5618 20.4346 13.4861 20.6173C13.4104 20.8 13.3906 21.0011 13.4292 21.1951C13.4678 21.3891 13.563 21.5673 13.7029 21.7071C13.8427 21.847 14.0209 21.9422 14.2149 21.9808C14.4089 22.0194 14.61 21.9996 14.7927 21.9239C14.9754 21.8482 15.1316 21.72 15.2415 21.5556C15.3514 21.3911 15.41 21.1978 15.41 21C15.41 20.7348 15.3046 20.4804 15.1171 20.2929C14.9296 20.1054 14.6752 20 14.41 20ZM4.41 16C4.21222 16 4.01888 16.0586 3.85443 16.1685C3.68998 16.2784 3.56181 16.4346 3.48612 16.6173C3.41043 16.8 3.39063 17.0011 3.42922 17.1951C3.4678 17.3891 3.56304 17.5673 3.70289 17.7071C3.84275 17.847 4.02093 17.9422 4.21491 17.9808C4.40889 18.0194 4.60996 17.9996 4.79268 17.9239C4.97541 17.8482 5.13159 17.72 5.24147 17.5556C5.35135 17.3911 5.41 17.1978 5.41 17C5.41 16.7348 5.30464 16.4804 5.11711 16.2929C4.92957 16.1054 4.67522 16 4.41 16ZM8.41 16C8.21222 16 8.01888 16.0586 7.85443 16.1685C7.68998 16.2784 7.56181 16.4346 7.48612 16.6173C7.41043 16.8 7.39063 17.0011 7.42922 17.1951C7.4678 17.3891 7.56304 17.5673 7.70289 17.7071C7.84275 17.847 8.02093 17.9422 8.21491 17.9808C8.40889 18.0194 8.60996 17.9996 8.79268 17.9239C8.97541 17.8482 9.13159 17.72 9.24147 17.5556C9.35135 17.3911 9.41 17.1978 9.41 17C9.41 16.7348 9.30464 16.4804 9.11711 16.2929C8.92957 16.1054 8.67522 16 8.41 16ZM12.41 16C12.2122 16 12.0189 16.0586 11.8544 16.1685C11.69 16.2784 11.5618 16.4346 11.4861 16.6173C11.4104 16.8 11.3906 17.0011 11.4292 17.1951C11.4678 17.3891 11.563 17.5673 11.7029 17.7071C11.8427 17.847 12.0209 17.9422 12.2149 17.9808C12.4089 18.0194 12.61 17.9996 12.7927 17.9239C12.9754 17.8482 13.1316 17.72 13.2415 17.5556C13.3514 17.3911 13.41 17.1978 13.41 17C13.41 16.7348 13.3046 16.4804 13.1171 16.2929C12.9296 16.1054 12.6752 16 12.41 16ZM16.41 16C16.2122 16 16.0189 16.0586 15.8544 16.1685C15.69 16.2784 15.5618 16.4346 15.4861 16.6173C15.4104 16.8 15.3906 17.0011 15.4292 17.1951C15.4678 17.3891 15.563 17.5673 15.7029 17.7071C15.8427 17.847 16.0209 17.9422 16.2149 17.9808C16.4089 18.0194 16.61 17.9996 16.7927 17.9239C16.9754 17.8482 17.1316 17.72 17.2415 17.5556C17.3514 17.3911 17.41 17.1978 17.41 17C17.41 16.7348 17.3046 16.4804 17.1171 16.2929C16.9296 16.1054 16.6752 16 16.41 16ZM20.41 16C20.2122 16 20.0189 16.0586 19.8544 16.1685C19.69 16.2784 19.5618 16.4346 19.4861 16.6173C19.4104 16.8 19.3906 17.0011 19.4292 17.1951C19.4678 17.3891 19.563 17.5673 19.7029 17.7071C19.8427 17.847 20.0209 17.9422 20.2149 17.9808C20.4089 18.0194 20.61 17.9996 20.7927 17.9239C20.9754 17.8482 21.1316 17.72 21.2415 17.5556C21.3514 17.3911 21.41 17.1978 21.41 17C21.41 16.7348 21.3046 16.4804 21.1171 16.2929C20.9296 16.1054 20.6752 16 20.41 16Z" fill="#0F1621"/>
</svg>
