<svg width="16" height="16" viewBox="0 0 16 16" fill="none" xmlns="http://www.w3.org/2000/svg">
<path d="M2 12C2 11.4477 2.44772 11 3 11C3.55228 11 4 11.4477 4 12V14C4 14.5523 3.55228 15 3 15C2.44772 15 2 14.5523 2 14V12Z" fill="#0E1520"/>
<path d="M12 12C12 11.4477 12.4477 11 13 11C13.5523 11 14 11.4477 14 12V14C14 14.5523 13.5523 15 13 15C12.4477 15 12 14.5523 12 14V12Z" fill="#0E1520"/>
<path d="M6 1C4.34315 1 3 2.34315 3 4V5.05001C1.85888 5.28164 1 6.29052 1 7.5C1 8.88071 2.11929 10 3.5 10H4.78786L5.55665 7.23236C5.67688 6.79954 6.07096 6.5 6.52017 6.5H9.72515C9.97527 6.5 10.1917 6.58661 10.3607 6.727L10.3733 6.73747L10.3855 6.74825C10.6771 7.00675 10.8072 7.41615 10.6738 7.81623L9.94591 10H12.5C13.8807 10 15 8.88071 15 7.5C15 6.11929 13.8807 5 12.5 5H11.8292C11.4174 3.8347 10.3062 3 9 3H8.82929C8.41746 1.83481 7.30622 1 6 1Z" fill="#0E1520"/>
<path d="M9 8H6.75L5.5 12H7.5L6.5 15L10.5 11H8L9 8Z" fill="#0E1520"/>
</svg>
