<svg width="16" height="16" viewBox="0 0 16 16" fill="none" xmlns="http://www.w3.org/2000/svg">
<path d="M13 9C13 9.26522 12.8946 9.51957 12.7071 9.70711C12.5196 9.89464 12.2652 10 12 10H5.99998V7H0.99998V5.5C0.940306 4.83696 1.14647 4.17737 1.57311 3.66633C1.99976 3.1553 2.61194 2.83467 3.27498 2.775C3.93802 2.71533 4.59761 2.92149 5.10865 3.34813C5.61968 3.77478 5.94031 4.38696 5.99998 5.05C6.48956 5.13908 6.94143 5.37223 7.29772 5.71962C7.65402 6.06701 7.89854 6.51283 7.99998 7H8.63998C8.94048 7.01229 9.23047 7.11404 9.47277 7.29221C9.71507 7.47037 9.89865 7.71683 9.99998 8H12C12.2652 8 12.5196 8.10536 12.7071 8.29289C12.8946 8.48043 13 8.73478 13 9ZM8.99998 5.53C9.71352 5.63149 10.3667 5.98647 10.84 6.53H12C12.596 6.53035 13.1717 6.74712 13.62 7.14L13.75 7C14.1196 6.68999 14.4214 6.30711 14.6365 5.87524C14.8516 5.44338 14.9753 4.97182 15 4.49C14.9989 4.43357 14.9809 4.37877 14.9481 4.33278C14.9154 4.2868 14.8696 4.25178 14.8166 4.23232C14.7636 4.21286 14.706 4.20986 14.6513 4.22372C14.5965 4.23759 14.5473 4.26766 14.51 4.31C14.3307 4.51936 14.1101 4.6894 13.8619 4.80945C13.6138 4.9295 13.3435 4.99696 13.0681 5.0076C12.7926 5.01824 12.518 4.97182 12.2613 4.87127C12.0047 4.77073 11.7716 4.61821 11.5767 4.4233C11.3818 4.22839 11.2293 3.9953 11.1287 3.73865C11.0282 3.482 10.9817 3.20733 10.9924 2.93189C11.003 2.65646 11.0705 2.38619 11.1905 2.13806C11.3106 1.88993 11.4806 1.66929 11.69 1.49C11.7323 1.45268 11.7624 1.40343 11.7763 1.34872C11.7901 1.29401 11.7871 1.23638 11.7677 1.1834C11.7482 1.13042 11.7132 1.08456 11.6672 1.05183C11.6212 1.01911 11.5664 1.00104 11.51 1C11.0279 1.02347 10.556 1.14668 10.1239 1.36183C9.69189 1.57699 9.30918 1.87941 8.99998 2.25C8.41192 2.82221 8.05582 3.59139 7.99998 4.41C8.40376 4.71389 8.74359 5.0945 8.99998 5.53ZM5.99998 12V11H3.99998L4.99998 8H2.99998L1.99998 11V12H2.99998V15L5.99998 12Z" fill="#0F1621"/>
</svg>
