<svg width="24" height="24" viewBox="0 0 24 24" fill="none" xmlns="http://www.w3.org/2000/svg">
<path d="M14 12C14 12.7956 13.6839 13.5587 13.1213 14.1213C12.5587 14.6839 11.7956 15 11 15H10.77L10.9 14.63L11.77 12H4.56L4.1 13.37L3.56 15H2V4.99998H4C4.53043 4.99998 5.03914 5.21069 5.41421 5.58576C5.78929 5.96083 6 6.46954 6 6.99998H7C7.53043 6.99998 8.03914 7.21069 8.41421 7.58576C8.78929 7.96083 9 8.46954 9 8.99998H11C11.7956 8.99998 12.5587 9.31605 13.1213 9.87865C13.6839 10.4413 14 11.2043 14 12ZM7 19V22L11 19V17H8L9 14H6L5 17V19H7ZM22 8.99998C21.6602 9.73087 21.1614 10.3766 20.54 10.89C19.9161 11.3929 19.1845 11.7448 18.4021 11.9183C17.6198 12.0918 16.808 12.0821 16.03 11.89C16.0038 10.7521 15.5901 9.65723 14.8573 8.78629C14.1246 7.91535 13.1166 7.32048 12 7.09998C11.9499 6.36393 12.0588 5.62573 12.3194 4.93552C12.5799 4.24532 12.986 3.61929 13.51 3.09998C13.9393 2.64993 14.4435 2.27775 15 1.99998C15.117 1.95244 15.2478 1.9519 15.3652 1.99848C15.4826 2.04506 15.5774 2.13515 15.63 2.24998C15.68 2.37171 15.68 2.50824 15.63 2.62998C15.2692 3.42108 15.1585 4.30347 15.3127 5.15918C15.467 6.01489 15.8787 6.80312 16.493 7.41849C17.1073 8.03386 17.8948 8.44703 18.7502 8.60277C19.6057 8.7585 20.4883 8.64937 21.28 8.28998C21.3238 8.23202 21.3794 8.18409 21.4432 8.14937C21.507 8.11466 21.5775 8.09397 21.6499 8.08869C21.7223 8.08341 21.795 8.09366 21.8632 8.11876C21.9313 8.14385 21.9934 8.18321 22.0451 8.23421C22.0968 8.2852 22.137 8.34665 22.163 8.41444C22.1891 8.48223 22.2004 8.55481 22.1961 8.6273C22.1918 8.6998 22.1721 8.77055 22.1383 8.83482C22.1045 8.89909 22.0573 8.9554 22 8.99998Z" fill="#0F1621"/>
</svg>
