<svg width="16" height="16" viewBox="0 0 16 16" fill="none" xmlns="http://www.w3.org/2000/svg">
<path d="M11.5 1.00002C10.9131 1.00023 10.3358 1.14886 9.82176 1.4321C9.30773 1.71534 8.87368 2.12398 8.56 2.62002C8.80578 2.87937 9.00836 3.17648 9.16 3.50002H9.5C9.92106 3.50087 10.3372 3.59035 10.7214 3.76264C11.1057 3.93493 11.4493 4.18617 11.73 4.50002H12C12.5269 4.50144 13.0466 4.62284 13.5196 4.85502C13.9926 5.08719 14.4066 5.42405 14.73 5.84002C14.9529 5.30863 15.0408 4.73032 14.9857 4.1567C14.9307 3.58309 14.7345 3.03203 14.4146 2.55271C14.0947 2.0734 13.6612 1.68075 13.1526 1.40981C12.644 1.13888 12.0762 0.99809 11.5 1.00002Z" fill="#0F1621"/>
<path d="M7.67 9H5.67L5 11V12H6V15L9 12V11H7L7.67 9Z" fill="#0F1621"/>
<path d="M12 6H10.91C10.8056 5.70903 10.6144 5.45711 10.3623 5.27828C10.1101 5.09944 9.80913 5.00231 9.5 5H8C8 4.46957 7.78929 3.96086 7.41421 3.58579C7.03914 3.21071 6.53043 3 6 3C5.46957 3 4.96086 3.21071 4.58579 3.58579C4.21071 3.96086 4 4.46957 4 5V6H3C2.46957 6 1.96086 6.21071 1.58579 6.58579C1.21071 6.96086 1 7.46957 1 8C1 8.53043 1.21071 9.03914 1.58579 9.41421C1.96086 9.78929 2.46957 10 3 10H3.75L4.42 8H9.58L9 10H12C12.5304 10 13.0391 9.78929 13.4142 9.41421C13.7893 9.03914 14 8.53043 14 8C14 7.46957 13.7893 6.96086 13.4142 6.58579C13.0391 6.21071 12.5304 6 12 6Z" fill="#0F1621"/>
</svg>
