<svg width="24" height="24" viewBox="0 0 24 24" fill="none" xmlns="http://www.w3.org/2000/svg">
<path d="M15 2C15.5523 2 16 2.44772 16 3V4H14V3C14 2.44772 14.4477 2 15 2Z" fill="#0E1520"/>
<path d="M20.2071 3.79289C20.5976 4.18342 20.5976 4.81658 20.2071 5.20711L19.2071 6.20711L17.7929 4.79289L18.7929 3.79289C19.1834 3.40237 19.8166 3.40237 20.2071 3.79289Z" fill="#0E1520"/>
<path d="M18.7929 15.2071C19.1834 15.5976 19.8166 15.5976 20.2071 15.2071C20.5976 14.8166 20.5976 14.1834 20.2071 13.7929L19.2071 12.7929L17.7929 14.2071L18.7929 15.2071Z" fill="#0E1520"/>
<path d="M21 10C21.5523 10 22 9.55228 22 9C22 8.44771 21.5523 8 21 8H20V10H21Z" fill="#0E1520"/>
<path d="M2 3H4.00001C5.65686 3 7 4.34314 7 5.99999H8C9.10457 5.99999 10 6.89543 10 8H11.5C12.8807 8 14 9.11929 14 10.5C14 11.8807 12.8807 13 11.5 13H8L8.84429 10.2983C9.04552 9.65434 8.56445 9 7.88981 9H2V3Z" fill="#0E1520"/>
<path d="M14.8145 12.9861C15.5441 12.3019 16 11.3292 16 10.25C16 8.31746 14.5381 6.72635 12.6599 6.52215C13.1945 6.1911 13.8249 6 14.5 6C16.433 6 18 7.567 18 9.5C18 11.327 16.6001 12.827 14.8145 12.9861Z" fill="#0E1520"/>
<path d="M3.5 11H6.25L5 15H8.5L3.5 22L4.5 17H2L3.5 11Z" fill="#0E1520"/>
</svg>
