<svg width="24" height="24" viewBox="0 0 24 24" fill="none" xmlns="http://www.w3.org/2000/svg">
<path d="M16 22C15.7348 22 15.4804 21.8946 15.2929 21.7071C15.1054 21.5196 15 21.2652 15 21V17C15 16.7348 15.1054 16.4804 15.2929 16.2929C15.4804 16.1054 15.7348 16 16 16C16.2652 16 16.5196 16.1054 16.7071 16.2929C16.8946 16.4804 17 16.7348 17 17V21C17 21.2652 16.8946 21.5196 16.7071 21.7071C16.5196 21.8946 16.2652 22 16 22ZM21 19V17C21 16.7348 20.8946 16.4804 20.7071 16.2929C20.5196 16.1054 20.2652 16 20 16C19.7348 16 19.4804 16.1054 19.2929 16.2929C19.1054 16.4804 19 16.7348 19 17V19C19 19.2652 19.1054 19.5196 19.2929 19.7071C19.4804 19.8946 19.7348 20 20 20C20.2652 20 20.5196 19.8946 20.7071 19.7071C20.8946 19.5196 21 19.2652 21 19ZM5 19V17C5 16.7348 4.89464 16.4804 4.70711 16.2929C4.51957 16.1054 4.26522 16 4 16C3.73478 16 3.48043 16.1054 3.29289 16.2929C3.10536 16.4804 3 16.7348 3 17V19C3 19.2652 3.10536 19.5196 3.29289 19.7071C3.48043 19.8946 3.73478 20 4 20C4.26522 20 4.51957 19.8946 4.70711 19.7071C4.89464 19.5196 5 19.2652 5 19ZM9 18V22L13 18V16H10L11 12H8L7 16V18H9ZM19 7H16.83C16.6231 6.41484 16.2398 5.90826 15.733 5.55006C15.2261 5.19186 14.6207 4.99967 14 5H12.87C12.6484 4.14187 12.1481 3.38163 11.4477 2.83864C10.7472 2.29565 9.88627 2.00066 9 2H8C6.93913 2 5.92172 2.42143 5.17157 3.17157C4.42143 3.92172 4 4.93913 4 6V7.17C3.41484 7.37688 2.90826 7.76016 2.55006 8.26702C2.19186 8.77387 1.99968 9.37935 2 10V11.45C2 12.1263 2.26866 12.7749 2.74688 13.2531C3.2251 13.7313 3.8737 14 4.55 14H5.44L5.94 12H4.85C4.62457 12 4.40837 11.9104 4.24896 11.751C4.08955 11.5916 4 11.3754 4 11.15V10C4 9.73478 4.10536 9.48043 4.29289 9.29289C4.48043 9.10536 4.73478 9 5 9H10C10 8.46957 9.78929 7.96086 9.41421 7.58579C9.03914 7.21071 8.53043 7 8 7H6V6C6 5.46957 6.21071 4.96086 6.58579 4.58579C6.96086 4.21071 7.46957 4 8 4H9C9.53043 4 10.0391 4.21071 10.4142 4.58579C10.7893 4.96086 11 5.46957 11 6V7H14C14.2652 7 14.5196 7.10536 14.7071 7.29289C14.8946 7.48043 15 7.73478 15 8V9H19C19.2652 9 19.5196 9.10536 19.7071 9.29289C19.8946 9.48043 20 9.73478 20 10V11.46C20 11.6032 19.9431 11.7406 19.8418 11.8418C19.7406 11.9431 19.6032 12 19.46 12H13.06L12.56 14H20.39C20.817 14 21.2265 13.8304 21.5284 13.5284C21.8304 13.2265 22 12.817 22 12.39V10C22 9.20435 21.6839 8.44129 21.1213 7.87868C20.5587 7.31607 19.7956 7 19 7Z" fill="#0F1621"/>
</svg>
