<svg width="24" height="24" viewBox="0 0 24 24" fill="none" xmlns="http://www.w3.org/2000/svg">
<path d="M8 15H11.5L6.5 22L7.5 17H5L6.5 11H9L8 15Z" fill="#0F1621"/>
<path d="M20.207 13.793C20.5975 14.1835 20.5975 14.8165 20.207 15.207C19.8165 15.5976 19.1835 15.5976 18.793 15.207L17.793 14.207L19.207 12.793L20.207 13.793Z" fill="#0F1621"/>
<path d="M4 13H2V11H4V13Z" fill="#0F1621"/>
<path d="M3 2C4.86384 2 6.42998 3.27477 6.87402 5H7C8.48647 5 9.71993 6.08118 9.95801 7.5H11.25C12.7688 7.5 14 8.73123 14 10.25C14 11.7688 12.7688 13 11.25 13H10.75V11H11.25C11.6642 11 12 10.6642 12 10.25C12 9.8358 11.6642 9.5 11.25 9.5H8V8C8 7.44772 7.55228 7 7 7H5V6C5 4.89543 4.10457 4 3 4H2V2H3Z" fill="#0F1621"/>
<path d="M14.5 6C16.4329 6.00013 18 7.56708 18 9.5C18 11.3273 16.5995 12.8257 14.8135 12.9844C15.543 12.3002 16 11.329 16 10.25C16 8.31755 14.5382 6.72679 12.6602 6.52246C13.1947 6.19146 13.8251 6.00004 14.5 6Z" fill="#0F1621"/>
<path d="M21 8C21.5523 8 22 8.44773 22 9C22 9.55229 21.5523 10 21 10H20V8H21Z" fill="#0F1621"/>
<path d="M18.793 3.79297C19.1835 3.40245 19.8165 3.40245 20.207 3.79297C20.5976 4.18349 20.5975 4.8165 20.207 5.20703L19.207 6.20703L17.793 4.79297L18.793 3.79297Z" fill="#0F1621"/>
<path d="M15 2C15.5523 2 16 2.44771 16 3V4H14V3C14 2.44771 14.4477 2 15 2Z" fill="#0F1621"/>
</svg>
