<svg width="16" height="16" viewBox="0 0 16 16" fill="none" xmlns="http://www.w3.org/2000/svg">
<path d="M7.5 8L6.5 11H9L5 15L6 12H4L5.25 8H7.5Z" fill="#0F1621"/>
<path d="M5 2C6.10457 2 7 2.89543 7 4H8.5C9.32843 4 10 4.67157 10 5.5H11.25C12.2165 5.5 13 6.2835 13 7.25C13 8.2165 12.2165 9 11.25 9H8.5L8.86426 7.78711C9.05644 7.1457 8.57585 6.50018 7.90625 6.5H4.99414C4.55253 6.5 4.16303 6.78991 4.03613 7.21289L3.5 9H3C1.89543 9 1 8.10457 1 7C1 5.89543 1.89543 5 3 5V4C3 2.89543 3.89543 2 5 2Z" fill="#0F1621"/>
<path d="M11.5 1C13.4329 1.00016 15 2.56711 15 4.5C15 5.26252 14.7548 5.9671 14.3408 6.54199C13.9408 5.35552 12.8214 4.50013 11.5 4.5H11.1631C10.6825 3.48848 9.73086 2.74483 8.5918 2.55078C9.22001 1.61535 10.2885 1.0001 11.5 1Z" fill="#0F1621"/>
</svg>
