<svg width="24" height="24" viewBox="0 0 24 24" fill="none" xmlns="http://www.w3.org/2000/svg">
<path d="M6.25 11L5 15H8.5L3.5 22L4.5 17H2L3.5 11H6.25Z" fill="#0F1621"/>
<path d="M20.207 13.793C20.5976 14.1835 20.5976 14.8165 20.207 15.207C19.8165 15.5976 19.1835 15.5976 18.793 15.207L17.793 14.207L19.207 12.793L20.207 13.793Z" fill="#0F1621"/>
<path d="M4 3C5.65685 3 7 4.34315 7 6H8C9.10457 6 10 6.89543 10 8H11.5C12.8807 8 14 9.11929 14 10.5C14 11.8807 12.8807 13 11.5 13H8L8.84473 10.2979C9.04554 9.65409 8.56411 9 7.88965 9H2V3H4Z" fill="#0F1621"/>
<path d="M14.5 6C16.4329 6.00013 18 7.56708 18 9.5C18 11.3273 16.5995 12.8257 14.8135 12.9844C15.543 12.3002 16 11.329 16 10.25C16 8.31755 14.5382 6.72679 12.6602 6.52246C13.1947 6.19146 13.8251 6.00004 14.5 6Z" fill="#0F1621"/>
<path d="M21 8C21.5523 8 22 8.44772 22 9C22 9.55228 21.5523 10 21 10H20V8H21Z" fill="#0F1621"/>
<path d="M18.793 3.79297C19.1835 3.40244 19.8165 3.40244 20.207 3.79297C20.5976 4.18349 20.5976 4.81651 20.207 5.20703L19.207 6.20703L17.793 4.79297L18.793 3.79297Z" fill="#0F1621"/>
<path d="M15 2C15.5523 2 16 2.44772 16 3V4H14V3C14 2.44772 14.4477 2 15 2Z" fill="#0F1621"/>
</svg>
