<svg width="24" height="24" viewBox="0 0 24 24" fill="none" xmlns="http://www.w3.org/2000/svg">
<path d="M4.00001 2L2 2V13H4L4.81063 9.75746C4.92193 9.3123 5.32191 9 5.78078 9H10.6398C11.3144 9 11.7955 9.65434 11.5943 10.2983L10.75 13H12C13.6569 13 15 11.6569 15 10C15 8.34314 13.6568 6.99999 12 6.99999L10 7C10 5.89543 9.10457 5 8 5H7C7 3.34315 5.65686 2.00001 4.00001 2Z" fill="#0E1520"/>
<path d="M20.0002 8.5C20.7064 8.5 21.3637 8.29085 21.9137 7.93111C21.4774 10.2476 19.4434 12 17.0002 12C16.7497 12 16.5034 11.9816 16.2628 11.946C16.2895 11.8311 16.3098 11.7135 16.3231 11.5934L16.448 10.4694C16.7341 7.89419 14.7841 5.63277 12.2273 5.50563C12.8627 3.47417 14.7593 2 17.0002 2C17.3534 2 17.6981 2.03663 18.0307 2.10631C17.1068 2.73636 16.5002 3.79734 16.5002 5C16.5002 6.933 18.0672 8.5 20.0002 8.5Z" fill="#0E1520"/>
<path d="M6.5 11H9.25L8 15H11.5L6.5 22L7.5 17H5L6.5 11Z" fill="#0E1520"/>
</svg>
