<svg width="24" height="24" viewBox="0 0 24 24" fill="none" xmlns="http://www.w3.org/2000/svg">
<path d="M11.25 10H8.5L7.5 16H10L9 22L14 14H10.5L11.25 10Z" fill="#0E1520"/>
<path d="M3 17C3 16.4477 3.44772 16 4 16C4.55228 16 5 16.4477 5 17V19C5 19.5523 4.55228 20 4 20C3.44772 20 3 19.5523 3 19V17Z" fill="#0E1520"/>
<path d="M15 17C15 16.4477 15.4477 16 16 16C16.5523 16 17 16.4477 17 17V21C17 21.5523 16.5523 22 16 22C15.4477 22 15 21.5523 15 21V17Z" fill="#0E1520"/>
<path d="M19 17C19 16.4477 19.4477 16 20 16C20.5523 16 21 16.4477 21 17V19C21 19.5523 20.5523 20 20 20C19.4477 20 19 19.5523 19 19V17Z" fill="#0E1520"/>
<path d="M8 2C5.79086 2 4 3.79086 4 6V7.17071C2.83481 7.58254 2 8.69378 2 10V11C2 12.6569 3.34315 14 5 14H6.01015L6.74464 8.85858C6.81502 8.36593 7.23694 8 7.73459 8H12.3401C12.9663 8 13.4384 8.56887 13.323 9.18429L12.7951 12H15.2639C15.8366 12 16.2663 12.4685 16.2665 13.0004L16.2669 14H19C20.6569 14 22 12.6569 22 11V10C22 8.34315 20.6569 7 19 7H16.8293C16.4175 5.83481 15.3062 5 14 5H12.874C12.4299 3.27477 10.8638 2 9 2H8Z" fill="#0E1520"/>
</svg>
