<svg width="16" height="16" viewBox="0 0 16 16" fill="none" xmlns="http://www.w3.org/2000/svg">
<path d="M8.59306 2.55004C9.7317 2.74439 10.6828 3.48874 11.1632 4.5H11.5C12.8215 4.5 13.9435 5.35452 14.3435 6.54117C14.7567 5.96661 15 5.26172 15 4.5C15 2.567 13.433 1 11.5 1C10.2889 1 9.22143 1.61515 8.59306 2.55004Z" fill="#0E1520"/>
<path d="M3 4V5C1.89543 5 1 5.89543 1 7C1 8.10457 1.89543 9 3 9H3.5L4.0362 7.21265C4.1631 6.78967 4.55242 6.5 4.99403 6.5H7.99903C8.6689 6.5 9.14934 7.14574 8.95686 7.78735L8.59306 9H11.25C12.2165 9 13 8.2165 13 7.25C13 6.2835 12.2165 5.5 11.25 5.5H10C10 4.67157 9.32843 4 8.5 4H7C7 2.89543 6.10457 2 5 2C3.89543 2 3 2.89543 3 4Z" fill="#0E1520"/>
<path d="M5.25 8H7.5L6.5 11H9L5 15L6 12H4L5.25 8Z" fill="#0E1520"/>
</svg>
