<svg width="16" height="16" viewBox="0 0 16 16" fill="none" xmlns="http://www.w3.org/2000/svg">
<path d="M15 4.5C15 5.58495 14.5063 6.55459 13.7314 7.19658C13.2821 6.76517 12.672 6.5 12 6.5H11.0002C10.5751 5.93412 9.91555 5.55448 9.16574 5.50541C8.90646 4.95719 8.50898 4.48711 8.01826 4.14017C8.1984 2.37622 9.68848 1 11.5 1C11.7956 1 12.0827 1.03665 12.3569 1.10565C11.5678 1.37345 11 2.12042 11 3C11 4.10457 11.8954 5 13 5C13.8796 5 14.6265 4.4322 14.8943 3.64313C14.9633 3.91733 15 4.20439 15 4.5Z" fill="#0E1520"/>
<path d="M12 8H10C10 7.44772 9.55229 7 9 7H8C8 5.89543 7.10457 5 6 5C6 3.61929 4.88071 2.5 3.5 2.5C2.11929 2.5 1 3.61929 1 5V6.5H5.83713C6.16932 6.5 6.40916 6.81795 6.3179 7.13736L5.5 10H12C12.5523 10 13 9.55228 13 9C13 8.44772 12.5523 8 12 8Z" fill="#0E1520"/>
<path d="M2.25 8H4.5L3.5 11H6L2 15L3 12H1L2.25 8Z" fill="#0E1520"/>
</svg>
