<svg width="24" height="24" viewBox="0 0 24 24" fill="none" xmlns="http://www.w3.org/2000/svg">
<path d="M2 13H4.22L4.1 13.37L3.56 15H2V13ZM11.47 8.99998H9.47C9.47 8.46954 9.25929 7.96083 8.88421 7.58576C8.50914 7.21069 8.00043 6.99998 7.47 6.99998H6C6 6.46954 5.78929 5.96083 5.41421 5.58576C5.03914 5.21069 4.53043 4.99998 4 4.99998H2V6.99998H3C3.26522 6.99998 3.51957 7.10533 3.70711 7.29287C3.89464 7.4804 4 7.73476 4 7.99998V8.99998H6C6.26522 8.99998 6.51957 9.10533 6.70711 9.29287C6.89464 9.4804 7 9.73476 7 9.99998V11H11C11.2652 11 11.5196 11.1053 11.7071 11.2929C11.8946 11.4804 12 11.7348 12 12C11.9987 12.1782 11.9498 12.3528 11.8584 12.5057C11.767 12.6587 11.6363 12.7844 11.48 12.87L10.9 14.63L10.77 15H11.32C12.0396 15.0164 12.7426 14.7819 13.3082 14.3367C13.8739 13.8915 14.2669 13.2633 14.42 12.56C14.5024 12.1261 14.4881 11.6793 14.3779 11.2517C14.2677 10.824 14.0645 10.4259 13.7827 10.0858C13.5009 9.74574 13.1475 9.47209 12.7477 9.28439C12.3479 9.09669 11.9117 8.99957 11.47 8.99998ZM7 19V22L11 19V17H8L9 14H6L5 17V19H7ZM22.47 8.99998C22.1273 9.73186 21.625 10.3777 21 10.89C20.3761 11.3929 19.6445 11.7448 18.8621 11.9183C18.0798 12.0918 17.268 12.0821 16.49 11.89C16.4652 10.7563 16.0558 9.66471 15.329 8.79434C14.6022 7.92396 13.6011 7.32649 12.49 7.09998C12.4379 6.36375 12.5459 5.62497 12.8065 4.93446C13.0672 4.24395 13.4744 3.6181 14 3.09998C14.4234 2.65179 14.9206 2.27971 15.47 1.99998C15.587 1.95244 15.7178 1.9519 15.8352 1.99848C15.9526 2.04506 16.0474 2.13515 16.1 2.24998C16.15 2.37171 16.15 2.50824 16.1 2.62998C15.7392 3.42108 15.6285 4.30347 15.7827 5.15918C15.937 6.01489 16.3487 6.80312 16.963 7.41849C17.5773 8.03386 18.3648 8.44703 19.2202 8.60277C20.0757 8.7585 20.9583 8.64937 21.75 8.28998C21.7965 8.24311 21.8518 8.20591 21.9127 8.18053C21.9736 8.15515 22.039 8.14208 22.105 8.14208C22.171 8.14208 22.2364 8.15515 22.2973 8.18053C22.3582 8.20591 22.4135 8.24311 22.46 8.28998C22.5075 8.33579 22.5455 8.39057 22.5718 8.45114C22.598 8.51171 22.612 8.57688 22.6129 8.64289C22.6138 8.7089 22.6017 8.77444 22.5772 8.83573C22.5526 8.89701 22.5162 8.95284 22.47 8.99998Z" fill="#0F1621"/>
</svg>
