<svg width="24" height="24" viewBox="0 0 24 24" fill="none" xmlns="http://www.w3.org/2000/svg">
<path fill-rule="evenodd" clip-rule="evenodd" d="M8 4C6.89543 4 6 4.89543 6 6V7H8C9.10457 7 10 7.89543 10 9H5C4.44772 9 4 9.44772 4 10V11C4 11.5523 4.44772 12 5 12H7V14H5C3.34315 14 2 12.6569 2 11V10C2 8.69378 2.83481 7.58254 4 7.17071V6C4 3.79086 5.79086 2 8 2H9C10.8638 2 12.4299 3.27477 12.874 5H14C15.3062 5 16.4175 5.83481 16.8293 7H19C20.6569 7 22 8.34315 22 10V11C22 12.6569 20.6569 14 19 14H17V12H19C19.5523 12 20 11.5523 20 11V10C20 9.44772 19.5523 9 19 9H15V8C15 7.44772 14.5523 7 14 7H11V6C11 4.89543 10.1046 4 9 4H8Z" fill="#0E1520"/>
<path d="M3 17C3 16.4477 3.44772 16 4 16C4.55228 16 5 16.4477 5 17V19C5 19.5523 4.55228 20 4 20C3.44772 20 3 19.5523 3 19V17Z" fill="#0E1520"/>
<path d="M15 17C15 16.4477 15.4477 16 16 16C16.5523 16 17 16.4477 17 17V21C17 21.5523 16.5523 22 16 22C15.4477 22 15 21.5523 15 21V17Z" fill="#0E1520"/>
<path d="M19 17C19 16.4477 19.4477 16 20 16C20.5523 16 21 16.4477 21 17V19C21 19.5523 20.5523 20 20 20C19.4477 20 19 19.5523 19 19V17Z" fill="#0E1520"/>
<path d="M12.5 10H10L8.5 16H11L9.5 22L14.5 14H11.5L12.5 10Z" fill="#0E1520"/>
</svg>
