<svg width="24" height="24" viewBox="0 0 24 24" fill="none" xmlns="http://www.w3.org/2000/svg">
<path d="M16.88 8.00003H9C8.73478 8.00003 8.48043 7.89467 8.29289 7.70713C8.10536 7.5196 8 7.26524 8 7.00003C8 6.73481 8.10536 6.48046 8.29289 6.29292C8.48043 6.10538 8.73478 6.00003 9 6.00003H17C17.2652 6.00003 17.5196 5.89467 17.7071 5.70713C17.8946 5.5196 18 5.26524 18 5.00003C18 4.73481 17.8946 4.48046 17.7071 4.29292C17.5196 4.10538 17.2652 4.00003 17 4.00003H16C15.7348 4.00003 15.4804 3.89467 15.2929 3.70713C15.1054 3.5196 15 3.26524 15 3.00003C15 2.73481 15.1054 2.48046 15.2929 2.29292C15.4804 2.10538 15.7348 2.00003 16 2.00003H16.9C17.3236 1.98989 17.7447 2.06725 18.137 2.22727C18.5293 2.38729 18.8844 2.62653 19.18 2.93003C19.5124 3.28093 19.7551 3.70695 19.8874 4.17183C20.0197 4.63671 20.0378 5.12668 19.94 5.60003C19.7837 6.29095 19.3941 6.90688 18.8367 7.34404C18.2793 7.78121 17.5883 8.01288 16.88 8.00003ZM15.88 16H3C2.73478 16 2.48043 16.1054 2.29289 16.2929C2.10536 16.4805 2 16.7348 2 17C2 17.2652 2.10536 17.5196 2.29289 17.7071C2.48043 17.8947 2.73478 18 3 18H16C16.2652 18 16.5196 18.1054 16.7071 18.2929C16.8946 18.4805 17 18.7348 17 19C17 19.2652 16.8946 19.5196 16.7071 19.7071C16.5196 19.8947 16.2652 20 16 20H15C14.7348 20 14.4804 20.1054 14.2929 20.2929C14.1054 20.4805 14 20.7348 14 21C14 21.2652 14.1054 21.5196 14.2929 21.7071C14.4804 21.8947 14.7348 22 15 22H15.9C16.3236 22.0102 16.7447 21.9328 17.137 21.7728C17.5293 21.6128 17.8844 21.3735 18.18 21.07C18.5124 20.7191 18.7551 20.2931 18.8874 19.8282C19.0197 19.3633 19.0378 18.8734 18.94 18.4C18.7837 17.7091 18.3941 17.0932 17.8367 16.656C17.2793 16.2188 16.5883 15.9872 15.88 16ZM22 12C22 11.7348 21.8946 11.4805 21.7071 11.2929C21.5196 11.1054 21.2652 11 21 11H12C11.7348 11 11.4804 11.1054 11.2929 11.2929C11.1054 11.4805 11 11.7348 11 12C11 12.2652 11.1054 12.5196 11.2929 12.7071C11.4804 12.8947 11.7348 13 12 13H21C21.2652 13 21.5196 12.8947 21.7071 12.7071C21.8946 12.5196 22 12.2652 22 12ZM6 7.00003C6 6.73481 5.89464 6.48046 5.70711 6.29292C5.51957 6.10538 5.26522 6.00003 5 6.00003H3C2.73478 6.00003 2.48043 6.10538 2.29289 6.29292C2.10536 6.48046 2 6.73481 2 7.00003C2 7.26524 2.10536 7.5196 2.29289 7.70713C2.48043 7.89467 2.73478 8.00003 3 8.00003H5C5.26522 8.00003 5.51957 7.89467 5.70711 7.70713C5.89464 7.5196 6 7.26524 6 7.00003ZM9 12C9 11.7348 8.89464 11.4805 8.70711 11.2929C8.51957 11.1054 8.26522 11 8 11H3C2.73478 11 2.48043 11.1054 2.29289 11.2929C2.10536 11.4805 2 11.7348 2 12C2 12.2652 2.10536 12.5196 2.29289 12.7071C2.48043 12.8947 2.73478 13 3 13H8C8.26522 13 8.51957 12.8947 8.70711 12.7071C8.89464 12.5196 9 12.2652 9 12Z" fill="#0F1621"/>
</svg>
