<svg xmlns="http://www.w3.org/2000/svg" width="24" height="24" viewBox="0 0 24 24"><rect width="24" height="24" style="fill:none"/><path d="M12,5A10,10,0,0,0,2,15a9.88,9.88,0,0,0,.84,4L9,17.65A4,4,0,0,0,12,19a4,4,0,0,0,3-1.34L21.15,19A9.82,9.82,0,0,0,22,15,10,10,0,0,0,12,5Zm-.58,11.9a.29.29,0,0,0,.1,0A.17.17,0,0,1,11.42,16.9Zm8.4-.22-4.42-1-1.14-.25-.63.7A2,2,0,0,0,14,15a2.09,2.09,0,0,0-.07-.51l2.43-2.44L15,10.64l-2.44,2.43A2.09,2.09,0,0,0,12,13a2,2,0,0,0-1.65,3.13l-.61-.68-1.14.24-4.43,1A8.35,8.35,0,0,1,4,15a8,8,0,0,1,16,0A7.86,7.86,0,0,1,19.82,16.68Z"/></svg>