<svg width="24" height="24" viewBox="0 0 24 24" fill="none" xmlns="http://www.w3.org/2000/svg">
<path d="M22 11H13V2H14C16.1217 2 18.1566 2.84285 19.6569 4.34315C21.1572 5.84344 22 7.87827 22 10V11ZM15 9H19.92C19.7129 7.77034 19.1278 6.63576 18.246 5.754C17.3642 4.87225 16.2297 4.28713 15 4.08V9ZM9 7.34V15H16.66C16.3215 15.9549 15.7467 16.8085 14.9892 17.4813C14.2317 18.154 13.3162 18.624 12.328 18.8474C11.3398 19.0708 10.3112 19.0404 9.33795 18.7589C8.36472 18.4775 7.47861 17.9541 6.76223 17.2378C6.04585 16.5214 5.52254 15.6353 5.24107 14.6621C4.95961 13.6888 4.92917 12.6602 5.15258 11.672C5.376 10.6838 5.84599 9.76831 6.51875 9.01082C7.19151 8.25333 8.04512 7.67853 9 7.34ZM11 5C9.41775 5 7.87103 5.46919 6.55544 6.34824C5.23985 7.22729 4.21447 8.47672 3.60897 9.93853C3.00347 11.4003 2.84504 13.0089 3.15372 14.5607C3.4624 16.1126 4.22433 17.538 5.34315 18.6569C6.46197 19.7757 7.88743 20.5376 9.43928 20.8463C10.9911 21.155 12.5997 20.9965 14.0615 20.391C15.5233 19.7855 16.7727 18.7602 17.6518 17.4446C18.5308 16.129 19 14.5823 19 13H11V5Z" fill="#0F1621"/>
</svg>
