<svg xmlns="http://www.w3.org/2000/svg" viewBox="0 0 24 24"><title>LUI-icon-pd-projector-outline-24</title><g id="Layer_2" data-name="Layer 2"><g id="LUI-icon-pd-projector-outline-24"><g id="LUI-icon-pd-projector-outline-24-2" data-name="LUI-icon-pd-projector-outline-24"><rect width="24" height="24" fill="none"/><path d="M22,5V15a2,2,0,0,1-2,2v2H17V17H15.6a7.16,7.16,0,0,0,2.14-2H20V7H17.74A7.16,7.16,0,0,0,15.6,5ZM12,8a3,3,0,1,0,3,3,3,3,0,0,0-3-3m0-2a5,5,0,1,1-5,5,5,5,0,0,1,5-5ZM6.26,15H4V7H6.26A7.16,7.16,0,0,1,8.4,5H2V15a2,2,0,0,0,2,2v2H7V17H8.4A7.16,7.16,0,0,1,6.26,15Z"/></g></g></g></svg>