<svg xmlns="http://www.w3.org/2000/svg" viewBox="0 0 24 24"><title>LUI-icon-pd-lock_break-solid-24</title><g id="Layer_2" data-name="Layer 2"><g id="LUI-icon-pd-lock_break-solid-24"><g id="LUI-icon-pd-lock_break-solid-24-2" data-name="LUI-icon-pd-lock_break-solid-24"><rect width="24" height="24" fill="none"/><path d="M12,16l-2-4,1-3H9V6.82a2.7,2.7,0,0,1,1-2.09V2.4A4.82,4.82,0,0,0,7,6.82V9H4V20a2,2,0,0,0,2,2h5l-1-3Zm5-7V7a4.86,4.86,0,0,0-3-4.6V4.72A2.94,2.94,0,0,1,15,7V9H13l-1,3,2,4-2,3,1,3h5a2,2,0,0,0,2-2V9Z"/></g></g></g></svg>