<svg xmlns="http://www.w3.org/2000/svg" viewBox="0 0 24 24"><title>LUI-icon-pd-sensor-temperature-outline-24</title><g id="Layer_2" data-name="Layer 2"><g id="LUI-icon-pd-sensor-temperature-outline-24"><g id="LUI-icon-pd-sensor-temperature-outline-24-2" data-name="LUI-icon-pd-sensor-temperature-outline-24"><rect width="24" height="24" fill="none"/><path d="M18,7V5H14A3,3,0,0,0,8,5v8a5,5,0,1,0,6,0V11h4V9H14V7Zm-6,7.05.81.6a3,3,0,1,1-3.62,0l.81-.6V5a1,1,0,0,1,2,0ZM12,17a1,1,0,1,1-1-1A1,1,0,0,1,12,17Z"/></g></g></g></svg>