<svg xmlns="http://www.w3.org/2000/svg" viewBox="0 0 24 24"><title>LUI-icon-pd-rideshare-outline-24</title><g id="Layer_2" data-name="Layer 2"><g id="LUI-icon-pd-rideshare-outline-24"><g id="LUI-icon-pd-rideshare-outline-24-2" data-name="LUI-icon-pd-rideshare-outline-24"><rect width="24" height="24" fill="none"/><path d="M15,11v1H9V11a1,1,0,0,1,1-1h4A1,1,0,0,1,15,11ZM13.5,7.66V6.34A1.34,1.34,0,0,0,12.16,5h-.32A1.34,1.34,0,0,0,10.5,6.34V7.66A1.34,1.34,0,0,0,11.84,9h.32A1.34,1.34,0,0,0,13.5,7.66ZM18,2a1,1,0,1,0,1,1A1,1,0,0,0,18,2Zm2,4a1,1,0,0,0-1-1H17a1,1,0,0,0-1,1V7h4ZM6,2A1,1,0,1,0,7,3,1,1,0,0,0,6,2ZM8,6A1,1,0,0,0,7,5H5A1,1,0,0,0,4,6V7H8ZM18,16H6l1.5-2h9Zm0,0H6l1.5-2h9Zm4-3H20.9l.77,1.06a1.64,1.64,0,0,1,.33,1V20a2,2,0,0,1-2,2H17a1,1,0,0,1-1-1V20H8v1a1,1,0,0,1-1,1H4a2,2,0,0,1-2-2V15.06a1.64,1.64,0,0,1,.33-1L3.1,13H2V11H4.55l.86-1.18A2.06,2.06,0,0,1,7,9v2.05L4.71,14.18l-.71,1V20H6V18H18v2h2V15.16l-.71-1L17,11.05V9a2.06,2.06,0,0,1,1.59.82L19.45,11H22ZM6,16l1.5-2h9L18,16Z"/></g></g></g></svg>