<svg xmlns="http://www.w3.org/2000/svg" viewBox="0 0 24 24"><title>LUI-icon-pd-sensor-airpressure-outline-24</title><g id="Layer_2" data-name="Layer 2"><g id="LUI-icon-pd-sensor-airpressure-outline-24"><g id="LUI-icon-pd-sensor-airpressure-outline-24-2" data-name="LUI-icon-pd-sensor-airpressure-outline-24"><rect width="24" height="24" fill="none"/><path d="M14,11a2,2,0,0,1-4,0,1.77,1.77,0,0,1,.07-.52L7.59,8,9,6.59l2.48,2.48A1.77,1.77,0,0,1,12,9,2,2,0,0,1,14,11Zm7,0a9,9,0,0,1-6,8.48V20a2,2,0,0,1-2,2H11a2,2,0,0,1-2-2v-.52A9,9,0,1,1,21,11Zm-2,0a7,7,0,1,0-7,7A7,7,0,0,0,19,11Z"/></g></g></g></svg>