<svg xmlns="http://www.w3.org/2000/svg" viewBox="0 0 24 24"><title>LUI-icon-pd-logic-outline-24</title><g id="Layer_2" data-name="Layer 2"><g id="LUI-icon-pd-logic-outline-24"><g id="LUI-icon-pd-logic-outline-24-2" data-name="LUI-icon-pd-logic-outline-24"><rect width="24" height="24" transform="translate(24) rotate(90)" fill="none"/><path d="M6,20a2,2,0,1,1-2-2A2,2,0,0,1,6,20Zm15-9v5H19V11H16l-4,4L8,11H5v5H3V11A2,2,0,0,1,5,9H8l3-3V2h2V6l3,3h3A2,2,0,0,1,21,11Zm-7.33-1L12,8.33,10.33,10,12,11.67ZM22,18H18v4h4Z"/></g></g></g></svg>