<svg xmlns="http://www.w3.org/2000/svg" viewBox="0 0 24 24"><title>LUI-icon-pd-sensor-airpressure-solid-24</title><g id="Layer_2" data-name="Layer 2"><g id="LUI-icon-pd-sensor-airpressure-solid-24"><g id="LUI-icon-pd-sensor-airpressure-solid-24-2" data-name="LUI-icon-pd-sensor-airpressure-solid-24"><rect width="24" height="24" fill="none"/><path d="M12,2A9,9,0,0,0,9,19.48V20a2,2,0,0,0,2,2h2a2,2,0,0,0,2-2v-.52A9,9,0,0,0,12,2ZM7.59,8,9,6.59l2.48,2.48A1.77,1.77,0,0,1,12,9a2,2,0,1,1-2,2,1.77,1.77,0,0,1,.07-.52Z"/></g></g></g></svg>