<svg xmlns="http://www.w3.org/2000/svg" viewBox="0 0 24 24"><defs><style>.cls-1{fill:none;}</style></defs><g id="Layer_2" data-name="Layer 2"><g id="System_UI_Outline" data-name="System UI Outline"><g id="brightness-on"><rect class="cls-1" width="24" height="24"/><path d="M12,6a6,6,0,1,0,6,6A6,6,0,0,0,12,6Zm0,10a4,4,0,1,1,4-4A4,4,0,0,1,12,16ZM7.41,6l-2-2L4,5.41,6,7.46A8.26,8.26,0,0,1,7.41,6ZM4.47,12a8.26,8.26,0,0,1,.06-1H2v2H4.53A8.26,8.26,0,0,1,4.47,12ZM13,4.53V2H11V4.53a8.36,8.36,0,0,1,2,0Zm5,2.88,2-2L18.63,4l-2,2A8.55,8.55,0,0,1,18,7.41ZM11,19.47V22h2V19.47a8.36,8.36,0,0,1-2,0ZM19.47,11a8.36,8.36,0,0,1,0,2H22V11ZM6,16.59l-2,2L5.38,20l2-2A8.55,8.55,0,0,1,6,16.59ZM16.59,18l2.06,2.06,1.41-1.41L18,16.59A8.55,8.55,0,0,1,16.59,18Z"/></g></g></g></svg>