<svg width="24" height="24" viewBox="0 0 24 24" fill="none" xmlns="http://www.w3.org/2000/svg">
<path d="M12 2C12 2 4 10 4 15C4 20 7.58 22 12 22C16.42 22 20 20 20 15C20 10 12 2 12 2ZM9.5 17C9.20333 17 8.91332 16.912 8.66665 16.7472C8.41997 16.5824 8.22771 16.3481 8.11418 16.074C8.00065 15.7999 7.97094 15.4983 8.02882 15.2074C8.0867 14.9164 8.22956 14.6491 8.43934 14.4393C8.64912 14.2296 8.91639 14.0867 9.20736 14.0288C9.49834 13.9709 9.79994 14.0006 10.074 14.1142C10.3481 14.2277 10.5824 14.42 10.7472 14.6666C10.912 14.9133 11 15.2033 11 15.5C11 15.8978 10.842 16.2794 10.5607 16.5607C10.2794 16.842 9.89782 17 9.5 17Z" fill="#0F1621"/>
</svg>
