<svg xmlns="http://www.w3.org/2000/svg" viewBox="0 0 24 24"><defs><style>.cls-1{opacity:0;}.cls-2{fill:none;}</style></defs><g id="Layer_2" data-name="Layer 2"><g id="System_UI_Outline" data-name="System UI Outline"><g id="color-full"><g class="cls-1"><rect class="cls-2" width="24" height="24"/></g><path d="M12,4.91C14.74,8,18,12.43,18,15c0,3.32-2,5-6,5s-6-1.68-6-5c0-2.57,3.26-7,6-10.09M12,2S4,10,4,15s3.58,7,8,7,8-2,8-7S12,2,12,2ZM9.5,14A1.5,1.5,0,1,0,11,15.5,1.5,1.5,0,0,0,9.5,14Z"/></g></g></g></svg>