<svg width="16" height="16" viewBox="0 0 16 16" fill="none" xmlns="http://www.w3.org/2000/svg">
<path d="M10.5 3C10.5 3 9.63 4.07 8.65 5.48C7.70057 3.91842 6.64825 2.42178 5.5 1C5.5 1 1 6.5 1 9C1 11.5 3 13 5.5 13C5.83496 13.0007 6.16941 12.9739 6.5 12.92C6.92108 13.5915 7.51387 14.1384 8.21709 14.5041C8.92031 14.8697 9.70844 15.0409 10.5 15C13 15 15 13.5 15 11C15 8.5 10.5 3 10.5 3ZM3 9C3 8.29 4.06 6.35 5.5 4.31C6.20074 5.29205 6.83867 6.31743 7.41 7.38C6.67468 8.46577 6.1928 9.70292 6 11C5.83353 11.0115 5.66647 11.0115 5.5 11C5.08 11 3 10.9 3 9Z" fill="#0F1621"/>
</svg>
