<svg width="24" height="24" viewBox="0 0 24 24" fill="none" xmlns="http://www.w3.org/2000/svg">
<path d="M12 4.91C14.74 8 18 12.43 18 15C18 18.32 16 20 12 20C8 20 6 18.32 6 15C6 12.43 9.26 8 12 4.91ZM12 2C12 2 4 10 4 15C4 20 7.58 22 12 22C16.42 22 20 20 20 15C20 10 12 2 12 2ZM9.5 14C9.20333 14 8.91332 14.088 8.66665 14.2528C8.41997 14.4176 8.22771 14.6519 8.11418 14.926C8.00065 15.2001 7.97094 15.5017 8.02882 15.7926C8.0867 16.0836 8.22956 16.3509 8.43934 16.5607C8.64912 16.7704 8.91639 16.9133 9.20736 16.9712C9.49834 17.0291 9.79994 16.9993 10.074 16.8858C10.3481 16.7723 10.5824 16.58 10.7472 16.3334C10.912 16.0867 11 15.7967 11 15.5C11 15.1022 10.842 14.7206 10.5607 14.4393C10.2794 14.158 9.89782 14 9.5 14Z" fill="#0F1621"/>
</svg>
