<svg xmlns="http://www.w3.org/2000/svg" viewBox="0 0 24 24"><defs><style>.cls-1{opacity:0;}.cls-2{fill:none;}</style></defs><g id="Layer_2" data-name="Layer 2"><g id="System_UI_Solid" data-name="System UI Solid"><g id="color-override"><g id="_Rectangle_" data-name="&lt;Rectangle&gt;" class="cls-1"><rect class="cls-2" width="24" height="24"/></g><path d="M15,2S8,10.5,8,15c0,4,2,7,7,7s7-3,7-7C22,10.5,15,2,15,2ZM13.5,17A1.5,1.5,0,1,1,15,15.5,1.5,1.5,0,0,1,13.5,17ZM10.77,4.31C9.76,2.92,9,2,9,2S2,10.5,2,15C2,19,4,21.92,8.8,22A8.8,8.8,0,0,1,6,15c0-2.29,1.25-5.33,3.82-9.28C10.14,5.23,10.46,4.76,10.77,4.31Z"/></g></g></g></svg>