<svg xmlns="http://www.w3.org/2000/svg" viewBox="0 0 24 24"><defs><style>.cls-1{fill:none;}</style></defs><g id="Layer_2" data-name="Layer 2"><g id="UI_Solid" data-name="UI Solid"><g id="opacity-off"><rect class="cls-1" width="24" height="24"/><path d="M22,3h0V6H20V4H18V2h3A1,1,0,0,1,22,3ZM20,16h2V13H20Zm0-5h2V8H20Zm0,9H18v2h3a1,1,0,0,0,1-1V18H20ZM4,13H2v3H4ZM4,8H2v3H4ZM4,18H2v3a1,1,0,0,0,1,1H6V20H4Zm4,4h3V20H8Zm5,0h3V20H13ZM8,4h3V2H8Zm5,0h3V2H13ZM3.5,2H3A1,1,0,0,0,2,3V6H4V4H6V2H3.5Z"/></g></g></g></svg>