<svg xmlns="http://www.w3.org/2000/svg" viewBox="0 0 24 24"><defs><style>.cls-1{fill:none;}</style></defs><g id="Layer_2" data-name="Layer 2"><g id="System_UI_Outline" data-name="System UI Outline"><g id="opacity-on"><rect class="cls-1" width="24" height="24"/><path d="M21,2H3A1,1,0,0,0,2,3V21a1,1,0,0,0,1,1H21a1,1,0,0,0,1-1V3A1,1,0,0,0,21,2ZM20,8H18v2h2v2H18v2h2v2H18v2h2v2H18V18H16v2H14V18H12v2H10V18H8v2H6V18H4V16H6V14H4V12H6V10H4V8H6V6H4V4H6V6H8V4h2V6h2V4h2V6h2V4h2V6h2ZM6,16v2H8V16Zm2-2v2h2V14Zm2-2v2h2V12Zm2,0h2V10H12Zm2-2h2V8H14Zm2-4V8h2V6ZM10,16v2h2V16Zm2-2v2h2V14Zm2,0h2V12H14Zm2-2h2V10H16Zm-2,4v2h2V16Zm2,0h2V14H16ZM8,12H6v2H8Zm2-2H8v2h2Zm2,0V8H10v2Zm2-2V6H12V8ZM8,8H6v2H8Zm2,0V6H8V8Z"/></g></g></g></svg>