<svg width="24" height="24" viewBox="0 0 24 24" fill="none" xmlns="http://www.w3.org/2000/svg">
<path d="M21 2H3C2.73478 2 2.48043 2.10536 2.29289 2.29289C2.10536 2.48043 2 2.73478 2 3V21C2 21.2652 2.10536 21.5196 2.29289 21.7071C2.48043 21.8946 2.73478 22 3 22H21C21.2652 22 21.5196 21.8946 21.7071 21.7071C21.8946 21.5196 22 21.2652 22 21V3C22 2.73478 21.8946 2.48043 21.7071 2.29289C21.5196 2.10536 21.2652 2 21 2ZM20 8H18V10H20V12H18V14H20V16H18V18H20V20H18V18H16V20H14V18H12V20H10V18H8V20H6V18H4V16H6V14H4V12H6V10H4V8H6V6H4V4H6V6H8V4H10V6H12V4H14V6H16V4H18V6H20V8ZM6 16V18H8V16H6ZM8 14V16H10V14H8ZM10 12V14H12V12H10ZM12 12H14V10H12V12ZM14 10H16V8H14V10ZM16 6V8H18V6H16ZM10 16V18H12V16H10ZM12 14V16H14V14H12ZM14 14H16V12H14V14ZM16 12H18V10H16V12ZM14 16V18H16V16H14ZM16 16H18V14H16V16ZM8 12H6V14H8V12ZM10 10H8V12H10V10ZM12 10V8H10V10H12ZM14 8V6H12V8H14ZM8 8H6V10H8V8ZM10 8V6H8V8H10Z" fill="#0F1621"/>
</svg>
