<svg width="16" height="16" viewBox="0 0 16 16" fill="none" xmlns="http://www.w3.org/2000/svg">
<path d="M13 0.999978V4.04998C12.2794 2.88005 11.2061 1.96903 9.93458 1.44811C8.66311 0.927186 7.25911 0.823251 5.9248 1.15127C4.59048 1.47929 3.3947 2.22234 2.50967 3.2734C1.62465 4.32446 1.09604 5.62929 1 6.99998H3C3.12136 5.89427 3.64882 4.87296 4.48021 4.13396C5.31159 3.39495 6.38769 2.99086 7.5 2.99998C8.23399 3.00154 8.95614 3.18505 9.60184 3.53407C10.2475 3.8831 10.7966 4.38676 11.2 4.99998H9V6.99998H15V0.999978H13ZM1 15H3V8.99998H1V15ZM13 15H15V8.99998H13V15ZM5 15H11V8.99998H5V15ZM7 11H9V13H7V11Z" fill="#0F1621"/>
</svg>
