<svg xmlns="http://www.w3.org/2000/svg" viewBox="0 0 80 80"><path d="M53.74,15.5,49.5,11.26,44,16.76A23,23,0,0,0,33,12.2V6H27v6.2a23,23,0,0,0-10.42,4.14L11.5,11.26,7.26,15.5l4.94,4.95A22.87,22.87,0,0,0,7.2,32H1v6H7.2a22.86,22.86,0,0,0,5.47,12.09L7.76,55,12,59.24l5.17-5.16A23,23,0,0,0,48.24,21ZM30,52A17,17,0,1,1,47,35,17,17,0,0,1,30,52Z" style="fill:#d1def4;opacity:0.35000000000000003"/><path d="M36.78,38.56c0,3.92-2.63,6.89-6.63,6.89-4.93,0-7-3.7-7-9.13,0-6.36,3-10.56,8-10.56A7.38,7.38,0,0,1,35.33,27L33.87,29.4a5.12,5.12,0,0,0-2.66-.75c-2.27,0-3.72,2.07-3.92,5.65a5.34,5.34,0,0,1,4.12-1.93C34.43,32.37,36.78,34.56,36.78,38.56Zm-4,.06c0-2.58-.9-3.45-2.41-3.45a4,4,0,0,0-3.08,1.74c.06,4,.87,5.63,2.89,5.63C31.94,42.54,32.78,41,32.78,38.62ZM62,19l-4,4.5L67,32H57a5.06,5.06,0,0,1-4.91-3.51A23,23,0,0,0,28.77,12,23.22,23.22,0,0,0,7,33.77a23,23,0,0,0,16.46,23.3A5.06,5.06,0,0,1,27,62V80h6V62a11.09,11.09,0,0,0-7.81-10.67A17,17,0,0,1,13,34.08,17.16,17.16,0,0,1,29.08,18,17,17,0,0,1,46.31,30.19,11.09,11.09,0,0,0,57,38H67l-9,8.5L62,51,78,35Z" style="fill:#fff"/></svg>