<svg xmlns="http://www.w3.org/2000/svg" viewBox="0 0 80 80"><path d="M57.66,21.82l-3-5.2-6.79,3.92a23.23,23.23,0,0,0-4.1-3.95l3.61-6.25-5.2-3-3.64,6.31A22.82,22.82,0,0,0,33,12.2V6H27v6.2a22.47,22.47,0,0,0-5.48,1.45L17.88,7.34l-5.2,3,3.63,6.25a25.59,25.59,0,0,0-4.66,4.64L5.4,17.62l-3,5.19,6.26,3.62A22.82,22.82,0,0,0,7.21,32H1.06v6H7.2a23,23,0,0,0,1.44,5.55L2.4,47.12l3,5.2,6.17-3.57a23,23,0,0,0,4,4.13L11.68,59.6l5.2,3L20.68,56A23,23,0,0,0,51,25.66ZM30,52A16.78,16.78,0,0,1,13,35,17,17,0,0,1,30,18,16.71,16.71,0,0,1,47,35,17,17,0,0,1,30,52Z" style="fill:#d1def4;opacity:0.35000000000000003"/><path d="M37.45,33.07c0,7.73-3.53,11-11.34,12.69l-.84-2.83C30,41.75,32.58,40,33.19,36.46a4.77,4.77,0,0,1-4,1.93c-2.94,0-5.35-2.35-5.35-6.19s3-6.44,6.77-6.44C35.15,25.76,37.45,28.76,37.45,33.07Zm-4.06.67c0-3.75-.76-5.09-2.75-5.09-1.7,0-2.8,1.17-2.8,3.44,0,2.55,1.12,3.45,2.52,3.45A3.66,3.66,0,0,0,33.39,33.74ZM62,19l-4,4.5L67,32H57a5.06,5.06,0,0,1-4.91-3.51A23,23,0,0,0,28.77,12,23.22,23.22,0,0,0,7,33.77a23,23,0,0,0,16.46,23.3A5.06,5.06,0,0,1,27,62V80h6V62a11.09,11.09,0,0,0-7.81-10.67A17,17,0,0,1,13,34.08,17.16,17.16,0,0,1,29.08,18,17,17,0,0,1,46.31,30.19,11.09,11.09,0,0,0,57,38H67l-9,8.5L62,51,78,35Z" style="fill:#fff"/></svg>