<svg xmlns="http://www.w3.org/2000/svg" viewBox="0 0 80 80"><path d="M53.65,22.23a25.51,25.51,0,0,0-2.5-4.33l-4.81,2.78a20.69,20.69,0,0,0-4-4l2.78-4.81a25.51,25.51,0,0,0-4.33-2.5L38,14.13a20.36,20.36,0,0,0-5.51-1.46V7.12C31.68,7,30.84,7,30,7s-1.68,0-2.5.12v5.55A20.36,20.36,0,0,0,22,14.13L19.23,9.35a25.51,25.51,0,0,0-4.33,2.5l2.78,4.81a20.69,20.69,0,0,0-4,4L8.85,17.9a25.51,25.51,0,0,0-2.5,4.33L11.13,25A20.36,20.36,0,0,0,9.67,30.5H4.12C4,31.32,4,32.16,4,33s0,1.68.12,2.5H9.67A20.36,20.36,0,0,0,11.13,41L6.35,43.77a25.51,25.51,0,0,0,2.5,4.33l4.81-2.78a20.69,20.69,0,0,0,4,4L14.9,54.15a25.51,25.51,0,0,0,4.33,2.5L22,51.87A20.5,20.5,0,0,0,48.87,25ZM30,48.5A15.5,15.5,0,1,1,45.5,33,15.51,15.51,0,0,1,30,48.5Z" style="fill:#d1def4;opacity:0.35000000000000003"/><path d="M35.84,30.92c0,7.18-3.28,10.17-10.53,11.78l-.78-2.62c4.42-1.1,6.78-2.68,7.35-6a4.43,4.43,0,0,1-3.69,1.79c-2.73,0-5-2.18-5-5.74s2.78-6,6.29-6C33.7,24.14,35.84,26.92,35.84,30.92Zm-3.77.63c0-3.49-.71-4.73-2.55-4.73-1.59,0-2.6,1.09-2.6,3.19,0,2.37,1,3.2,2.34,3.2A3.4,3.4,0,0,0,32.07,31.55ZM60.9,16.74l-4.06,4.57L66,30V30H54.74A5,5,0,0,1,50,26.55,21,21,0,1,0,23.55,53,5,5,0,0,1,27,57.74V80h6V57.74a11,11,0,0,0-7.61-10.46A15,15,0,1,1,44.28,28.39,11,11,0,0,0,54.74,36H66v0l-9.14,8.64,4.06,4.57L77.16,33Z" style="fill:#fff"/></svg>