<svg xmlns="http://www.w3.org/2000/svg" viewBox="0 0 80 80"><path d="M70,27H62.73A22.93,22.93,0,0,0,61,20.76l6.8-3.93-3-5.2-6.91,4a22.88,22.88,0,0,0-4-3.94l3.67-6.35-5.2-3L48.61,8.71a22.36,22.36,0,0,0-5.49-1.48V1h-6V7.2a21.63,21.63,0,0,0-5.5,1.49L28,2.34l-5.19,3,3.65,6.33a24.41,24.41,0,0,0-4.65,4.6l-6.3-3.64-3,5.2,6.26,3.61A22.23,22.23,0,0,0,17.15,27h-6v6h6a22.92,22.92,0,0,0,1.48,5.62l-6.15,3.55,3,5.2,6.11-3.53a23.63,23.63,0,0,0,4,4.14l-3.85,6.68,5.19,3,3.8-6.58A23,23,0,0,0,62.73,33H70ZM39.93,47a17,17,0,0,1-17-17,15.75,15.75,0,0,1,1.84-7.34l.77-1.34A17.31,17.31,0,0,1,39.93,13a17,17,0,1,1,0,34Z" style="fill:#d1def4;opacity:0.35000000000000003"/><path d="M37.17,40H33.28V25.05L29.14,27.6,27.4,24.91l6.27-3.78h3.5Zm12.77,0H46.05V25.05L41.91,27.6l-1.74-2.69,6.27-3.78h3.5Zm21-3.27.35,12.21-7.89-6a5,5,0,0,1-1.69-5.56A23.42,23.42,0,0,0,62.93,30,23,23,0,0,0,38.69,7C27.06,7.64,17.1,18,16.93,29.66A23.08,23.08,0,0,0,33.42,52.07,5.15,5.15,0,0,1,37,57V80h6V57a11.18,11.18,0,0,0-7.88-10.69A17.06,17.06,0,0,1,22.93,29.75C23.05,21.28,30.56,13.47,39,13A17,17,0,0,1,56.93,30a17.83,17.83,0,0,1-.87,5.47A11,11,0,0,0,59.8,47.65l7.35,5.64-.05.05L54.73,53l-.36,6H77V36.37Z" style="fill:#fff"/></svg>