<svg xmlns="http://www.w3.org/2000/svg" viewBox="0 0 80 80"><path d="M50,58A23,23,0,1,1,73,35,23,23,0,0,1,50,58Zm0-40A17,17,0,1,0,67,35,17,17,0,0,0,50,18Z" style="fill:#d1def4;opacity:0.35000000000000003"/><path d="M53.89,45H50V30.05L45.86,32.6l-1.74-2.69,6.27-3.78h3.5Zm-8.72,6.31A17.2,17.2,0,0,1,33.69,39.83,11.14,11.14,0,0,0,23,32H13l9-8.5L18,19,2,35,18,51l4-4.5L13,38H23a5.11,5.11,0,0,1,5,3.53A22.89,22.89,0,0,0,43.47,57.06,5.11,5.11,0,0,1,47,62V80h6V62A11.14,11.14,0,0,0,45.17,51.31Z" style="fill:#fff"/></svg>