<svg xmlns="http://www.w3.org/2000/svg" viewBox="0 0 80 80"><path d="M42.5,12.67V7.12C41.68,7,40.84,7,40,7s-1.68,0-2.5.12v5.55a20.42,20.42,0,0,0-10.1,4.19l-3.92-3.92a25.75,25.75,0,0,0-3.54,3.54l3.92,3.92a20.42,20.42,0,0,0-4.19,10.1H14.12C14,31.32,14,32.16,14,33s0,1.68.12,2.5h5.55a20.42,20.42,0,0,0,4.19,10.1l-3.92,3.92a25.75,25.75,0,0,0,3.54,3.54l3.92-3.92A20.48,20.48,0,1,0,42.5,12.67ZM40,48.5A15.5,15.5,0,1,1,55.5,33,15.51,15.51,0,0,1,40,48.5Z" style="fill:#d1def4;opacity:0.35000000000000003"/><path d="M45.05,27.15H38.58v4a6.28,6.28,0,0,1,2.65-.59c2.89,0,5,2.08,5,5.66s-2.65,6.17-6.71,6.17a7.22,7.22,0,0,1-5.67-2.55L36,37.92a4.44,4.44,0,0,0,3.49,1.66c1.87,0,3-1.17,3-3.33s-1.12-3.09-2.65-3.09a4.22,4.22,0,0,0-2.18.62H35v-9.3H45.49ZM49,1l.36,6.11,12.58-.36,0,0-6.6,6.6a4.93,4.93,0,0,1-5.7,1A21,21,0,1,0,33.55,53,5,5,0,0,1,37,57.74V80h6V57.74a11,11,0,0,0-7.61-10.46A15,15,0,1,1,46.9,19.68a10.84,10.84,0,0,0,12.71-2.05l6.6-6.6,0,0-.36,12.58L72,24V1Z" style="fill:#fff"/></svg>