<svg xmlns="http://www.w3.org/2000/svg" viewBox="0 0 80 80"><path d="M46.14,20.4l3.92-3.92a25.75,25.75,0,0,0-3.54-3.54L42.6,16.86a20.42,20.42,0,0,0-10.1-4.19V7.12C31.68,7,30.84,7,30,7s-1.68,0-2.5.12v5.55a20.42,20.42,0,0,0-10.1,4.19l-3.92-3.92a25.75,25.75,0,0,0-3.54,3.54l3.92,3.92A20.42,20.42,0,0,0,9.67,30.5H4.12C4,31.32,4,32.16,4,33s0,1.68.12,2.5H9.67a20.42,20.42,0,0,0,4.19,10.1L9.94,49.52a25.75,25.75,0,0,0,3.54,3.54l3.92-3.92A20.47,20.47,0,0,0,46.14,20.4ZM30,48.5A15.5,15.5,0,1,1,45.5,33,15.51,15.51,0,0,1,30,48.5Z" style="fill:#d1def4;opacity:0.35000000000000003"/><path d="M36.15,36A6,6,0,0,1,30,42.42c-4.58,0-6.48-3.44-6.48-8.48,0-5.9,2.81-9.8,7.39-9.8a6.92,6.92,0,0,1,3.9,1.11l-1.36,2.27a4.71,4.71,0,0,0-2.47-.7c-2.1,0-3.45,1.92-3.64,5.25a5,5,0,0,1,3.83-1.8C34,30.27,36.15,32.3,36.15,36Zm-3.72,0c0-2.39-.83-3.2-2.24-3.2a3.73,3.73,0,0,0-2.86,1.62c.06,3.71.81,5.22,2.68,5.22C31.65,39.71,32.43,38.28,32.43,36.07ZM60.9,16.74l-4.06,4.57L66,30V30H54.74A5,5,0,0,1,50,26.55,21,21,0,1,0,23.55,53,5,5,0,0,1,27,57.74V80h6V57.74a11,11,0,0,0-7.61-10.46A15,15,0,1,1,44.28,28.39,11,11,0,0,0,54.74,36H66v0l-9.14,8.64,4.06,4.57L77.16,33Z" style="fill:#fff"/></svg>