<svg xmlns="http://www.w3.org/2000/svg" viewBox="0 0 80 80"><path d="M66,27c0-.84,0-1.68-.12-2.5H60.33a20.42,20.42,0,0,0-4.19-10.1l3.92-3.92a25.75,25.75,0,0,0-3.54-3.54L52.6,10.86A20.42,20.42,0,0,0,42.5,6.67V1.12C41.68,1,40.84,1,40,1s-1.68,0-2.5.12V6.67a20.42,20.42,0,0,0-10.1,4.19L23.48,6.94a25.75,25.75,0,0,0-3.54,3.54l3.92,3.92a20.42,20.42,0,0,0-4.19,10.1H14.12C14,25.32,14,26.16,14,27s0,1.68.12,2.5h5.55a20.42,20.42,0,0,0,4.19,10.1l-3.92,3.92a25.75,25.75,0,0,0,3.54,3.54l3.92-3.92A20.45,20.45,0,0,0,60.33,29.5h5.55C66,28.68,66,27.84,66,27ZM40,42.5A15.5,15.5,0,1,1,55.5,27,15.51,15.51,0,0,1,40,42.5Z" style="fill:#d1def4;opacity:0.35000000000000003"/><path d="M45.92,21,39.47,36.39l-3.35-1.12,6-14H34.87v-2.8H45.92Zm21,12.34.36,12.58-.23.23-6.29-6.29a4.9,4.9,0,0,1-1.17-5.22A21,21,0,1,0,33.55,47,5,5,0,0,1,37,51.74V80h6V51.74a11,11,0,0,0-7.61-10.46,15,15,0,0,1,2.89-29.19A15,15,0,0,1,54,32.47a10.89,10.89,0,0,0,2.52,11.65l6.12,6.12-12.25-.35L50,56H73V33Z" style="fill:#fff"/></svg>