<svg xmlns="http://www.w3.org/2000/svg" viewBox="0 0 80 80"><path d="M43,12.2V6H37v6.2a22.69,22.69,0,0,0-9.95,3.9l-6-4.82L17.28,16l5.25,4.21A22.81,22.81,0,0,0,17.2,32H11v6h6.2a22.86,22.86,0,0,0,5.47,12.09L17.76,55,22,59.24l5.17-5.16A23,23,0,1,0,43,12.2ZM40,52A17,17,0,1,1,57,35,17,17,0,0,1,40,52Z" style="fill:#d1def4;opacity:0.35000000000000003"/><path d="M45,29H38v4.34a6.72,6.72,0,0,1,2.86-.64c3.11,0,5.4,2.24,5.4,6.1s-2.85,6.64-7.22,6.64A7.76,7.76,0,0,1,33,42.7l2.24-2.1a4.73,4.73,0,0,0,3.75,1.8c2,0,3.25-1.26,3.25-3.59S41,35.48,39.33,35.48a4.64,4.64,0,0,0-2.35.67H34.21v-10H45.46ZM54,3l.36,6.11,12.58-.36,0,0-7.12,7.12a5,5,0,0,1-6.47.38A23,23,0,0,0,39.94,12,23.29,23.29,0,0,0,17,33.74,23,23,0,0,0,33.49,57.07,5.05,5.05,0,0,1,37,62V80h6V62a11.09,11.09,0,0,0-7.81-10.67A16.94,16.94,0,0,1,23,34.06,17.19,17.19,0,0,1,40,18h0a16.93,16.93,0,0,1,9.89,3.17,11,11,0,0,0,14.2-1L71.21,13l0,0-.36,12.58L77,26V3Z" style="fill:#fff"/></svg>