<svg xmlns="http://www.w3.org/2000/svg" viewBox="0 0 80 80"><path d="M39,12A23,23,0,0,0,21.67,50.09L16.76,55,21,59.24l5.17-5.16A23,23,0,1,0,39,12Zm0,40A17,17,0,1,1,56,35,17,17,0,0,1,39,52Z" style="fill:#d1def4;opacity:0.35000000000000003"/><path d="M44.41,31.11c0,3-1.65,5.32-7.51,10.81h7.93L44.38,45h-12V42.12c6.41-6.42,8-8.15,8-10.67a2.42,2.42,0,0,0-2.58-2.61c-1.42,0-2.4.62-3.55,2l-2.38-1.9a7.57,7.57,0,0,1,6.3-3.17C42.14,25.76,44.41,28.17,44.41,31.11ZM34,51.26A17,17,0,0,1,22,34.08a16.38,16.38,0,0,1,1.26-5.5,10.91,10.91,0,0,0-2.4-11.94L13,8.79l0,0,12.58.36L26,3H3V26l6.11-.36L8.75,13.06l0,0,7.85,7.85a5,5,0,0,1,1.1,5.39A22.62,22.62,0,0,0,16,33.77,23,23,0,0,0,32.27,57,5.09,5.09,0,0,1,36,61.8V80h6V61.8A11.06,11.06,0,0,0,34,51.26Z" style="fill:#fff"/></svg>