<svg xmlns="http://www.w3.org/2000/svg" viewBox="0 0 80 80"><path d="M69.81,27H62.73a22.8,22.8,0,0,0-5-11.55l5-4.95L58.43,6.26l-5.08,5.08A22.87,22.87,0,0,0,41.93,7.09V1h-6V7.39a23.15,23.15,0,0,0-9.84,4.53L20.43,6.26,16.19,10.5l5.66,5.66A22.94,22.94,0,0,0,17.15,27H9.93v6h7.2a22.87,22.87,0,0,0,5,11.55L16.69,50l4.24,4.24,5.58-5.58A23,23,0,0,0,62.73,33h7.08ZM39.93,47a17,17,0,1,1,17-17A17,17,0,0,1,39.93,47Z" style="fill:#d1def4;opacity:0.35000000000000003"/><path d="M46.31,23.87l-7,16.55-3.61-1.2,6.44-15.07H34.41v-3h11.9ZM71,36.73l.35,12.21-7.89-6a5,5,0,0,1-1.69-5.56A23.42,23.42,0,0,0,62.93,30,23,23,0,0,0,38.69,7C27.06,7.64,17.1,18,16.93,29.66A23.08,23.08,0,0,0,33.42,52.07,5.15,5.15,0,0,1,37,57V80h6V57a11.18,11.18,0,0,0-7.88-10.69A17.06,17.06,0,0,1,22.93,29.75C23.05,21.28,30.56,13.47,39,13A17,17,0,0,1,56.93,30a17.83,17.83,0,0,1-.87,5.47A11,11,0,0,0,59.8,47.65l7.35,5.64-.05.05L54.73,53l-.36,6H77V36.37Z" style="fill:#fff"/></svg>