<svg xmlns="http://www.w3.org/2000/svg" viewBox="0 0 80 80"><path d="M40,12a22.83,22.83,0,0,0-13.42,4.34L21.5,11.26,17.26,15.5l4.94,4.95a22.94,22.94,0,0,0,.47,29.64L17.76,55,22,59.24l5.17-5.16A23,23,0,1,0,40,12Zm0,40A17,17,0,1,1,57,35,17,17,0,0,1,40,52Z" style="fill:#d1def4;opacity:0.35000000000000003"/><path d="M45.21,30.55c0,2.33-1.43,3.84-3.69,4.45,2.35.26,4.31,1.68,4.31,4.65,0,3.19-2.52,5.8-7,5.8a7.69,7.69,0,0,1-6.27-2.8l2.15-2.07a5.21,5.21,0,0,0,3.9,1.79,2.85,2.85,0,0,0,3.16-3c0-2.1-1.18-2.86-3.25-2.86H37l.48-2.8h1a2.58,2.58,0,0,0,2.89-2.66c0-1.45-1-2.32-2.66-2.32A5.16,5.16,0,0,0,35,30.38l-2-2.15a8.51,8.51,0,0,1,6.1-2.47C43.08,25.76,45.21,27.92,45.21,30.55ZM54,3l.36,6.11,12.58-.36,0,0-7.12,7.12a5,5,0,0,1-6.47.38A23,23,0,0,0,39.94,12,23.29,23.29,0,0,0,17,33.74,23,23,0,0,0,33.49,57.07,5.05,5.05,0,0,1,37,62V80h6V62a11.09,11.09,0,0,0-7.81-10.67A16.94,16.94,0,0,1,23,34.06,17.19,17.19,0,0,1,40,18h0a16.93,16.93,0,0,1,9.89,3.17,11,11,0,0,0,14.2-1L71.21,13l0,0-.36,12.58L77,26V3Z" style="fill:#fff"/></svg>