<svg xmlns="http://www.w3.org/2000/svg" viewBox="0 0 80 80"><path d="M43,12.2V6H37v6.2A23,23,0,0,0,20,23.63l-6.81-2.47-2.05,5.63,6.58,2.4A23.19,23.19,0,0,0,17,35a22.86,22.86,0,0,0,5.67,15.09L17.76,55,22,59.24l5.17-5.16A23,23,0,1,0,43,12.2ZM40,52A17,17,0,1,1,57,35,17,17,0,0,1,40,52Z" style="fill:#d1def4;opacity:0.35000000000000003"/><path d="M47.45,40.8H45.24V45H41.37l0-4.2h-8V38.11l5.43-12.4L42.16,27,37.48,37.78H41.4l.42-4.62h3.42v4.62h2.21ZM54,3l.36,6.11,12.58-.36,0,0-7.12,7.12a5,5,0,0,1-6.47.38A23,23,0,0,0,39.94,12,23.29,23.29,0,0,0,17,33.74,23,23,0,0,0,33.49,57.07,5.05,5.05,0,0,1,37,62V80h6V62a11.09,11.09,0,0,0-7.81-10.67A16.94,16.94,0,0,1,23,34.06,17.19,17.19,0,0,1,40,18h0a16.93,16.93,0,0,1,9.89,3.17,11,11,0,0,0,14.2-1L71.21,13l0,0-.36,12.58L77,26V3Z" style="fill:#fff"/></svg>