<svg xmlns="http://www.w3.org/2000/svg" viewBox="0 0 80 80"><path d="M47.66,13.32,49.33,7.1l-5.8-1.55-1.74,6.53C41.2,12,40.6,12,40,12a22.52,22.52,0,0,0-4,.35l-1.82-6.8L28.43,7.1l1.89,7.05a23,23,0,0,0-5,3.16l-4.55-4.55L16.52,17l4.72,4.72A22.68,22.68,0,0,0,18.3,27.4l-6.44-1.73-1.55,5.8,6.76,1.81C17,33.85,17,34.42,17,35a24.5,24.5,0,0,0,.18,2.85l-6.75,1.81L12,45.45l6.71-1.8a23.36,23.36,0,0,0,2.65,4.77l-4.82,4.82,4.24,4.24,4.69-4.68a23.25,23.25,0,0,0,3.8,2.53l-1.82,6.81,5.79,1.55,1.68-6.27A22.59,22.59,0,0,0,40,58a23,23,0,0,0,7.66-44.68ZM40,52A17,17,0,1,1,57,35,17,17,0,0,1,40,52Z" style="fill:#d1def4;opacity:0.35000000000000003"/><path d="M47.62,39.9c0,3.08-2.69,5.55-7.17,5.55s-7-2.44-7-5.46c0-2.3,1.35-3.78,3.56-4.76a4.86,4.86,0,0,1-2.8-4.45c0-3.08,2.8-5,6.35-5s6.36,1.71,6.36,4.85c0,1.68-1,3.13-3.08,4.25C46.39,36.07,47.62,37.69,47.62,39.9Zm-4,0c0-1.66-.86-2.41-3.19-3.25l-.89-.31a3.71,3.71,0,0,0-2.1,3.5c0,1.68,1.2,2.72,3.13,2.72S43.61,41.42,43.61,39.88ZM38,30.83c0,1.46.9,2.16,2.58,2.83l.56.2A3.32,3.32,0,0,0,43,30.8a2.2,2.2,0,0,0-2.47-2.32A2.23,2.23,0,0,0,38,30.83ZM54,3l.36,6.11,12.58-.36,0,0-7.12,7.12a5,5,0,0,1-6.47.38A23,23,0,0,0,39.94,12,23.29,23.29,0,0,0,17,33.74,23,23,0,0,0,33.49,57.07,5.05,5.05,0,0,1,37,62V80h6V62a11.09,11.09,0,0,0-7.81-10.67A16.94,16.94,0,0,1,23,34.06,17.19,17.19,0,0,1,40,18h0a16.93,16.93,0,0,1,9.89,3.17,11,11,0,0,0,14.2-1L71.21,13l0,0-.36,12.58L77,26V3Z" style="fill:#fff"/></svg>