<svg xmlns="http://www.w3.org/2000/svg" viewBox="0 0 80 80"><path d="M78.94,38V32H72.79a22.38,22.38,0,0,0-1.49-5.59l6.28-3.51-2.92-5.24-6.35,3.55A25.63,25.63,0,0,0,63.7,16.6l3.62-6.26-5.2-3-3.63,6.29A23,23,0,0,0,53,12.2V6H47v6.2a22.82,22.82,0,0,0-5.54,1.45L37.82,7.34l-5.2,3,3.61,6.25a23.23,23.23,0,0,0-4.1,3.95l-6.79-3.92-3,5.2L29,25.66A23,23,0,0,0,59.32,56l3.8,6.58,5.2-3-3.88-6.72a23.3,23.3,0,0,0,4-4.13l6.17,3.57,3-5.2-6.24-3.6A23,23,0,0,0,72.8,38ZM33,35a16.83,16.83,0,0,1,8.71-14.85l.23-.14a17,17,0,0,1,15.74-.16l1.7,1A17,17,0,1,1,33,35Z" style="fill:#d1def4;opacity:0.35000000000000003"/><path d="M56.45,33.07c0,7.73-3.53,11-11.34,12.69l-.84-2.83C49,41.75,51.58,40,52.19,36.46a4.77,4.77,0,0,1-4,1.93c-2.94,0-5.35-2.35-5.35-6.19s3-6.44,6.77-6.44C54.15,25.76,56.45,28.76,56.45,33.07Zm-4.06.67c0-3.75-.76-5.09-2.75-5.09-1.7,0-2.8,1.17-2.8,3.44,0,2.55,1.12,3.45,2.52,3.45A3.66,3.66,0,0,0,52.39,33.74Zm20.58,0A23.22,23.22,0,0,0,51.23,12a22.93,22.93,0,0,0-23.3,16.46A5.06,5.06,0,0,1,23,32H13l9-8.5L18,19,2,35,18,51l4-4.5L13,38H23a11.09,11.09,0,0,0,10.67-7.81A17,17,0,0,1,50.92,18,17.16,17.16,0,0,1,67,34.08,17,17,0,0,1,54.81,51.31,11.09,11.09,0,0,0,47,62V80h6V62a5.06,5.06,0,0,1,3.51-4.91A23,23,0,0,0,73,33.77Z" style="fill:#fff"/></svg>