<svg xmlns="http://www.w3.org/2000/svg" viewBox="0 0 80 80"><path d="M79,38V32H72.8a22.87,22.87,0,0,0-5-11.53l5-5L68.5,11.26l-5.11,5.11A22.89,22.89,0,0,0,53,12.2V6H47v6.2a23,23,0,0,0-11,4.56l-5.51-5.5L26.26,15.5,31.76,21A23,23,0,0,0,62.83,54.08L68,59.24,72.24,55l-4.91-4.91A22.86,22.86,0,0,0,72.8,38ZM33,35A17,17,0,1,1,50,52,17,17,0,0,1,33,35Z" style="fill:#d1def4;opacity:0.35000000000000003"/><path d="M56.78,38.56c0,3.92-2.63,6.89-6.63,6.89-4.93,0-7-3.7-7-9.13,0-6.36,3-10.56,8-10.56A7.38,7.38,0,0,1,55.33,27L53.87,29.4a5.12,5.12,0,0,0-2.66-.75c-2.27,0-3.72,2.07-3.92,5.65a5.34,5.34,0,0,1,4.12-1.93C54.43,32.37,56.78,34.56,56.78,38.56Zm-4,.06c0-2.58-.9-3.45-2.41-3.45a4,4,0,0,0-3.08,1.74c.06,4,.87,5.63,2.89,5.63C51.94,42.54,52.78,41,52.78,38.62ZM73,33.77A23.22,23.22,0,0,0,51.23,12a22.92,22.92,0,0,0-23.3,16.46A5.06,5.06,0,0,1,23,32H13l9-8.5L18,19,2,35,18,51l4-4.5L13,38H23a11.09,11.09,0,0,0,10.67-7.81A17,17,0,0,1,50.92,18,17.16,17.16,0,0,1,67,34.08,17,17,0,0,1,54.81,51.31,11.09,11.09,0,0,0,47,62V80h6V62a5.05,5.05,0,0,1,3.51-4.91A23,23,0,0,0,73,33.77Z" style="fill:#fff"/></svg>