<svg xmlns="http://www.w3.org/2000/svg" viewBox="0 0 80 80"><path d="M70.07,33V27H62.8a22.71,22.71,0,0,0-4.63-10.85l5.64-5.65L59.57,6.26,53.93,11.9a22.53,22.53,0,0,0-9.86-4.53V1h-6V7.09a22.79,22.79,0,0,0-11.43,4.23L21.57,6.26,17.33,10.5l4.94,4.94a22.75,22.75,0,0,0-5,11.56H10.19v6h7.07a22.92,22.92,0,0,0,36.2,15.63l5.61,5.61L63.31,50l-5.48-5.49A23,23,0,0,0,62.8,33ZM23,30A17,17,0,1,1,40,47,17,17,0,0,1,23,30Z" style="fill:#d1def4;opacity:0.35000000000000003"/><path d="M46.45,23.87,39.51,40.42l-3.61-1.2,6.43-15.07H34.55v-3h11.9ZM41.31,7A23,23,0,0,0,17.07,30a23.42,23.42,0,0,0,1.17,7.33,5,5,0,0,1-1.69,5.56l-7.89,6L9,36.73l-6-.36V59H25.63l-.36-6-12.37.35-.05-.05,7.35-5.64a11,11,0,0,0,3.74-12.18A17.83,17.83,0,0,1,23.07,30,17,17,0,0,1,41,13c8.45.45,16,8.26,16.08,16.73A17.06,17.06,0,0,1,44.88,46.31,11.09,11.09,0,0,0,37.07,57V80h6V57a5.05,5.05,0,0,1,3.51-4.91A23.08,23.08,0,0,0,63.07,29.66C62.9,18,52.94,7.64,41.31,7Z" style="fill:#fff"/></svg>