<svg xmlns="http://www.w3.org/2000/svg" viewBox="0 0 80 80"><path d="M63,35c0-.58,0-1.15-.07-1.72l6.76-1.81-1.55-5.8L61.68,27.4a24.43,24.43,0,0,0-3-5.63L63.48,17l-4.24-4.24-4.62,4.62a24.87,24.87,0,0,0-4.95-3.18l1.9-7.1L45.78,5.55,44,12.35A25.56,25.56,0,0,0,40,12c-.6,0-1.2,0-1.79.08L36.47,5.55,30.67,7.1l1.67,6.22A23,23,0,0,0,40,58a22.59,22.59,0,0,0,5.1-.58l1.68,6.27,5.79-1.55-1.82-6.81a23.25,23.25,0,0,0,3.8-2.53l4.69,4.68,4.24-4.24-4.82-4.82a23.36,23.36,0,0,0,2.65-4.77L68,45.45l1.55-5.79-6.75-1.81A24.5,24.5,0,0,0,63,35ZM23,35A17,17,0,1,1,40,52,17,17,0,0,1,23,35Z" style="fill:#d1def4;opacity:0.35000000000000003"/><path d="M47.62,39.9c0,3.08-2.69,5.55-7.17,5.55s-7-2.44-7-5.46c0-2.3,1.35-3.78,3.56-4.76a4.86,4.86,0,0,1-2.8-4.45c0-3.08,2.8-5,6.36-5s6.35,1.71,6.35,4.85c0,1.68-1,3.13-3.08,4.25C46.39,36.07,47.62,37.69,47.62,39.9Zm-4,0c0-1.66-.87-2.41-3.2-3.25l-.89-.31a3.71,3.71,0,0,0-2.1,3.5c0,1.68,1.2,2.72,3.13,2.72S43.62,41.42,43.62,39.88ZM38,30.83c0,1.46.9,2.16,2.58,2.83l.56.2A3.32,3.32,0,0,0,43,30.8a2.2,2.2,0,0,0-2.47-2.32A2.23,2.23,0,0,0,38,30.83ZM63,33.74A23.29,23.29,0,0,0,40.06,12H40a22.83,22.83,0,0,0-13.38,4.29,5,5,0,0,1-6.47-.38L13,8.79l0,0,12.58.36L26,3H3V26l6.11-.36L8.75,13.06l0,0,7.12,7.12a11,11,0,0,0,14.2,1A16.93,16.93,0,0,1,40,18h0A17.19,17.19,0,0,1,57,34.06,16.94,16.94,0,0,1,44.81,51.31,11.09,11.09,0,0,0,37,62V80h6V62a5.05,5.05,0,0,1,3.51-4.91A23,23,0,0,0,63,33.74Z" style="fill:#fff"/></svg>