<svg xmlns="http://www.w3.org/2000/svg" viewBox="0 0 80 80"><path d="M30,53.5A20.5,20.5,0,1,1,50.5,33,20.53,20.53,0,0,1,30,53.5Zm0-36A15.5,15.5,0,1,0,45.5,33,15.51,15.51,0,0,0,30,17.5Z" style="fill:#d1def4;opacity:0.35000000000000003"/><path d="M33.09,42H29.47V28.12l-3.85,2.36L24,28l5.83-3.51h3.25ZM61.9,16.74l-4.06,4.57L67,30V30H54.74a11,11,0,0,0-10.46,7.6,15,15,0,0,1-9.68,9.68A11,11,0,0,0,27,57.74V80h6V57.74A5,5,0,0,1,36.44,53,21,21,0,0,0,50,39.44,5,5,0,0,1,54.74,36H67v0l-9.14,8.64,4.06,4.57L78.16,33Z" style="fill:#fff"/></svg>