<svg xmlns="http://www.w3.org/2000/svg" viewBox="0 0 80 80"><path d="M68.88,33V27h-6a22.23,22.23,0,0,0-1.57-5.56l6.26-3.61-3-5.2-6.3,3.64a24.41,24.41,0,0,0-4.65-4.6l3.65-6.33-5.19-3L48.39,8.69A21.82,21.82,0,0,0,42.88,7.2V1h-6V7.23a22.36,22.36,0,0,0-5.49,1.48L27.71,2.34l-5.2,3,3.67,6.35a22.88,22.88,0,0,0-4.05,3.94l-6.91-4-3,5.2L19,20.76A22.93,22.93,0,0,0,17.27,27H10v6h7.27a23,23,0,0,0,32,18.08l3.8,6.58,5.19-3L54.39,48a23.63,23.63,0,0,0,4-4.14l6.11,3.53,3-5.2-6.15-3.55A23,23,0,0,0,62.87,33ZM23.07,30a16.78,16.78,0,0,1,17-17,17.23,17.23,0,0,1,17,17,17,17,0,0,1-34,0Z" style="fill:#d1def4;opacity:0.35000000000000003"/><path d="M63.07,29.66A23.08,23.08,0,0,1,46.58,52.07,5.05,5.05,0,0,0,43.07,57V80h-6V57a11.09,11.09,0,0,1,7.81-10.67A17.06,17.06,0,0,0,57.07,29.75C57,21.28,49.44,13.47,41,13A17,17,0,0,0,23.07,30a17.83,17.83,0,0,0,.87,5.47A11,11,0,0,1,20.2,47.65l-7.35,5.64.05.05L25.27,53l.36,6H3V36.37l6,.36L8.66,48.94l7.89-6a5,5,0,0,0,1.69-5.56A23.42,23.42,0,0,1,17.07,30,23,23,0,0,1,41.31,7C52.94,7.64,62.9,18,63.07,29.66ZM36.38,21.13h-3.5l-6.27,3.78,1.73,2.69,4.15-2.55V40h3.89ZM47,20.76c-4.53,0-6.91,3.5-6.91,9.83s2.38,9.86,6.91,9.86,6.95-3.56,6.95-9.86S51.53,20.76,47,20.76Zm0,3c2,0,2.86,1.63,2.86,6.86s-.9,6.86-2.86,6.86-2.83-1.73-2.83-6.86S45,23.73,47,23.73Z" style="fill:#fff"/></svg>