<svg xmlns="http://www.w3.org/2000/svg" viewBox="0 0 80 80"><path d="M68.88,33V27h-6a22.23,22.23,0,0,0-1.57-5.56l6.26-3.61-3-5.2-6.3,3.64a24.41,24.41,0,0,0-4.65-4.6l3.65-6.33-5.19-3L48.39,8.69A21.82,21.82,0,0,0,42.88,7.2V1h-6V7.23a22.36,22.36,0,0,0-5.49,1.48L27.71,2.34l-5.2,3,3.67,6.35a22.88,22.88,0,0,0-4.05,3.94l-6.91-4-3,5.2L19,20.76A22.93,22.93,0,0,0,17.27,27H10v6h7.27a23,23,0,0,0,32,18.08l3.8,6.58,5.19-3L54.39,48a23.63,23.63,0,0,0,4-4.14l6.11,3.53,3-5.2-6.15-3.55A23,23,0,0,0,62.87,33ZM23.07,30a16.78,16.78,0,0,1,17-17,17.23,17.23,0,0,1,17,17,17,17,0,0,1-34,0Z" style="fill:#d1def4;opacity:0.35000000000000003"/><path d="M37.38,40H33.49V25.05L29.34,27.6l-1.73-2.69,6.27-3.78h3.5Zm12.77,0h-3.9V25.05L42.11,27.6l-1.73-2.69,6.27-3.78h3.5ZM41.31,7A23,23,0,0,0,17.07,30a23.42,23.42,0,0,0,1.17,7.33,5,5,0,0,1-1.69,5.56l-7.89,6L9,36.73l-6-.36V59H25.63l-.36-6-12.37.35-.05-.05,7.35-5.64a11,11,0,0,0,3.74-12.18A17.83,17.83,0,0,1,23.07,30,17,17,0,0,1,41,13c8.45.45,16,8.26,16.08,16.73A17.06,17.06,0,0,1,44.88,46.31,11.09,11.09,0,0,0,37.07,57V80h6V57a5.05,5.05,0,0,1,3.51-4.91A23.08,23.08,0,0,0,63.07,29.66C62.9,18,52.94,7.64,41.31,7Z" style="fill:#fff"/></svg>