<svg xmlns="http://www.w3.org/2000/svg" viewBox="0 0 80 80"><path d="M60.5,33a20.38,20.38,0,0,0-4.31-12.53l3.94-3.91A25.68,25.68,0,0,0,56.61,13l-3.94,3.9a20.5,20.5,0,1,0-.14,32.28l3.9,3.93A25.67,25.67,0,0,0,60,49.6l-3.9-3.93A20.37,20.37,0,0,0,60.5,33ZM40,48.5A15.5,15.5,0,1,1,55.5,33,15.51,15.51,0,0,1,40,48.5Z" style="fill:#d1def4;opacity:0.35000000000000003"/><path d="M45.35,28.58a4.15,4.15,0,0,1-3.43,4.14,4.1,4.1,0,0,1,4,4.31c0,3-2.34,5.39-6.52,5.39a7.16,7.16,0,0,1-5.83-2.6l2-1.93a4.84,4.84,0,0,0,3.62,1.67,2.64,2.64,0,0,0,2.93-2.76c0-1.95-1.09-2.65-3-2.65H37.68l.44-2.6h1a2.4,2.4,0,0,0,2.68-2.47c0-1.35-1-2.16-2.47-2.16a4.76,4.76,0,0,0-3.46,1.51l-1.84-2a7.93,7.93,0,0,1,5.67-2.29C43.37,24.14,45.35,26.14,45.35,28.58Zm15.52,2A21,21,0,0,0,30.33,14.35a4.93,4.93,0,0,1-5.7-1L18,6.79l0,0,12.58.36L31,1H8V24l6.11-.36-.36-12.58,0,0,6.6,6.6A10.86,10.86,0,0,0,33.1,19.68a15,15,0,1,1,11.51,27.6A11,11,0,0,0,37,57.74V80h6V57.74A5,5,0,0,1,46.45,53,21.12,21.12,0,0,0,60.87,30.59Z" style="fill:#fff"/></svg>