<svg xmlns="http://www.w3.org/2000/svg" viewBox="0 0 80 80"><path d="M64,35A23,23,0,1,0,53.83,54.08L59,59.24,63.24,55l-4.91-4.91A22.86,22.86,0,0,0,64,35ZM24,35A17,17,0,1,1,41,52,17,17,0,0,1,24,35Z" style="fill:#d1def4;opacity:0.35000000000000003"/><path d="M47.41,31.11c0,3-1.65,5.32-7.51,10.81h7.93L47.38,45h-12V42.12c6.41-6.42,8-8.15,8-10.67a2.42,2.42,0,0,0-2.58-2.61c-1.42,0-2.4.62-3.55,2l-2.38-1.9a7.57,7.57,0,0,1,6.3-3.17C45.14,25.76,47.41,28.17,47.41,31.11ZM54,3l.36,6.11,12.58-.36,0,0-7.85,7.85a10.91,10.91,0,0,0-2.4,11.94A16.38,16.38,0,0,1,58,34.08,17,17,0,0,1,46,51.26,11.06,11.06,0,0,0,38,61.8V80h6V61.8A5.09,5.09,0,0,1,47.73,57,23,23,0,0,0,64,33.77a22.62,22.62,0,0,0-1.71-7.5,5,5,0,0,1,1.1-5.39L71.21,13l0,0-.36,12.58L77,26V3Z" style="fill:#fff"/></svg>