<svg xmlns="http://www.w3.org/2000/svg" viewBox="0 0 80 80"><path d="M69,38V32H62.8a23,23,0,0,0-5.28-11.88L62.72,16,59,11.28l-6,4.77A22.86,22.86,0,0,0,43,12.2V6H37v6.2A23,23,0,1,0,52.83,54.08L58,59.24,62.24,55l-4.91-4.91A22.86,22.86,0,0,0,62.8,38ZM23,35A17,17,0,1,1,40,52,17,17,0,0,1,23,35Z" style="fill:#d1def4;opacity:0.35000000000000003"/><path d="M46,29H39v4.34a6.65,6.65,0,0,1,2.85-.64c3.11,0,5.41,2.24,5.41,6.1s-2.86,6.64-7.23,6.64A7.76,7.76,0,0,1,34,42.7l2.24-2.1a4.75,4.75,0,0,0,3.75,1.8c2,0,3.25-1.26,3.25-3.59S42,35.48,40.33,35.48a4.64,4.64,0,0,0-2.35.67H35.21v-10H46.46Zm17,4.73A23.29,23.29,0,0,0,40.06,12H40a22.83,22.83,0,0,0-13.38,4.29,5,5,0,0,1-6.47-.38L13,8.79l0,0,12.58.36L26,3H3V26l6.11-.36L8.75,13.06l0,0,7.12,7.12a11,11,0,0,0,14.2,1A16.93,16.93,0,0,1,40,18h0A17.19,17.19,0,0,1,57,34.06,16.94,16.94,0,0,1,44.81,51.31,11.09,11.09,0,0,0,37,62V80h6V62a5.05,5.05,0,0,1,3.51-4.91A23,23,0,0,0,63,33.74Z" style="fill:#fff"/></svg>