<svg xmlns="http://www.w3.org/2000/svg" viewBox="0 0 80 80"><path d="M63,35a22.86,22.86,0,0,0-5.2-14.55l4.94-4.95L58.5,11.26l-5.08,5.08a23,23,0,1,0-.59,37.74L58,59.24,62.24,55l-4.91-4.91A22.86,22.86,0,0,0,63,35ZM23,35A17,17,0,1,1,40,52,17,17,0,0,1,23,35Z" style="fill:#d1def4;opacity:0.35000000000000003"/><path d="M46.21,30.55c0,2.33-1.43,3.84-3.69,4.45,2.35.26,4.31,1.68,4.31,4.65,0,3.19-2.52,5.8-7,5.8a7.69,7.69,0,0,1-6.27-2.8l2.15-2.07a5.21,5.21,0,0,0,3.9,1.79,2.85,2.85,0,0,0,3.16-3c0-2.1-1.18-2.86-3.25-2.86H38l.48-2.8h1a2.58,2.58,0,0,0,2.89-2.66c0-1.45-1-2.32-2.66-2.32A5.16,5.16,0,0,0,36,30.38l-2-2.15a8.51,8.51,0,0,1,6.1-2.47C44.08,25.76,46.21,27.92,46.21,30.55ZM63,33.74A23.29,23.29,0,0,0,40.06,12H40a22.83,22.83,0,0,0-13.38,4.29,5,5,0,0,1-6.47-.38L13,8.79l0,0,12.58.36L26,3H3V26l6.11-.36L8.75,13.06l0,0,7.12,7.12a11,11,0,0,0,14.2,1A16.93,16.93,0,0,1,40,18h0A17.19,17.19,0,0,1,57,34.06,16.94,16.94,0,0,1,44.81,51.31,11.09,11.09,0,0,0,37,62V80h6V62a5.05,5.05,0,0,1,3.51-4.91A23,23,0,0,0,63,33.74Z" style="fill:#fff"/></svg>