<svg xmlns="http://www.w3.org/2000/svg" viewBox="0 0 80 80"><path d="M62.26,29.19l6.58-2.4-2-5.63L60,23.63A23,23,0,0,0,43,12.2V6H37v6.2A23,23,0,1,0,52.83,54.08L58,59.24,62.24,55l-4.91-4.91A22.86,22.86,0,0,0,63,35,23.19,23.19,0,0,0,62.26,29.19ZM23,35A17,17,0,1,1,40,52,17,17,0,0,1,23,35Z" style="fill:#d1def4;opacity:0.35000000000000003"/><path d="M47.45,40.8H45.24V45H41.38l0-4.2h-8V38.11l5.43-12.4L42.16,27,37.48,37.78H41.4l.42-4.62h3.42v4.62h2.21ZM63,33.74A23.29,23.29,0,0,0,40.06,12H40a22.83,22.83,0,0,0-13.38,4.29,5,5,0,0,1-6.47-.38L13,8.79l0,0,12.58.36L26,3H3V26l6.11-.36L8.75,13.06l0,0,7.12,7.12a11,11,0,0,0,14.2,1A16.93,16.93,0,0,1,40,18h0A17.19,17.19,0,0,1,57,34.06,16.94,16.94,0,0,1,44.81,51.31,11.09,11.09,0,0,0,37,62V80h6V62a5.05,5.05,0,0,1,3.51-4.91A23,23,0,0,0,63,33.74Z" style="fill:#fff"/></svg>