<svg xmlns="http://www.w3.org/2000/svg" viewBox="0 0 80 80"><path d="M75.88,35.5c.08-.82.12-1.66.12-2.5s0-1.68-.12-2.5H70.33a20.42,20.42,0,0,0-4.19-10.1l3.92-3.92a25.75,25.75,0,0,0-3.54-3.54L62.6,16.86a20.42,20.42,0,0,0-10.1-4.19V7.12C51.68,7,50.84,7,50,7s-1.68,0-2.5.12v5.55a20.42,20.42,0,0,0-10.1,4.19l-3.92-3.92a25.75,25.75,0,0,0-3.54,3.54l3.92,3.92A20.47,20.47,0,0,0,62.6,49.14l3.92,3.92a25.75,25.75,0,0,0,3.54-3.54L66.14,45.6a20.42,20.42,0,0,0,4.19-10.1ZM50,48.5A15.5,15.5,0,1,1,65.5,33,15.51,15.51,0,0,1,50,48.5Z" style="fill:#d1def4;opacity:0.35000000000000003"/><path d="M56.31,36a6,6,0,0,1-6.16,6.4c-4.58,0-6.48-3.44-6.48-8.48,0-5.9,2.81-9.8,7.39-9.8A6.92,6.92,0,0,1,55,25.25L53.6,27.52a4.71,4.71,0,0,0-2.47-.7c-2.1,0-3.45,1.92-3.64,5.25a5,5,0,0,1,3.83-1.8C54.12,30.27,56.31,32.3,56.31,36Zm-3.72,0c0-2.39-.83-3.2-2.24-3.2a3.73,3.73,0,0,0-2.86,1.62c.06,3.71.81,5.22,2.68,5.22C51.81,39.71,52.59,38.28,52.59,36.07Zm18.28-5.45A21,21,0,0,0,30,26.55,5,5,0,0,1,25.26,30H14V30l9.14-8.64L19.1,16.74,2.84,33,19.1,49.26l4.06-4.57L14,36.05v0H25.26a11,11,0,0,0,10.46-7.61A15,15,0,1,1,54.61,47.28,11,11,0,0,0,47,57.74V80h6V57.74A5,5,0,0,1,56.45,53,21.13,21.13,0,0,0,70.87,30.62Z" style="fill:#fff"/></svg>