<svg xmlns="http://www.w3.org/2000/svg" viewBox="0 0 80 80"><path d="M30,58A23,23,0,1,1,53,35,23,23,0,0,1,30,58Zm0-40A17,17,0,1,0,47,35,17,17,0,0,0,30,18Z" style="fill:#d1def4;opacity:0.35000000000000003"/><path d="M33.89,45H30V30.05L25.86,32.6l-1.74-2.69,6.27-3.78h3.5ZM62,19l-4,4.5L67,32H57a11.14,11.14,0,0,0-10.7,7.83A17.2,17.2,0,0,1,34.83,51.31,11.14,11.14,0,0,0,27,62V80h6V62a5.11,5.11,0,0,1,3.53-4.95A22.89,22.89,0,0,0,52.06,41.53,5.11,5.11,0,0,1,57,38H67l-9,8.5L62,51,78,35Z" style="fill:#fff"/></svg>