<svg xmlns="http://www.w3.org/2000/svg" viewBox="0 0 80 80"><path d="M75.88,35.5c.08-.82.12-1.66.12-2.5s0-1.68-.12-2.5H70.33A20.36,20.36,0,0,0,68.87,25l4.78-2.76a25.51,25.51,0,0,0-2.5-4.33l-4.81,2.78a20.69,20.69,0,0,0-4-4l2.78-4.81a25.51,25.51,0,0,0-4.33-2.5L58,14.13a20.36,20.36,0,0,0-5.51-1.46V7.12C51.68,7,50.84,7,50,7s-1.68,0-2.5.12v5.55A20.36,20.36,0,0,0,42,14.13L39.23,9.35a25.51,25.51,0,0,0-4.33,2.5l2.78,4.81a20.69,20.69,0,0,0-4,4L28.85,17.9a25.51,25.51,0,0,0-2.5,4.33L31.13,25A20.5,20.5,0,0,0,58,51.87l2.76,4.78a25.51,25.51,0,0,0,4.33-2.5l-2.78-4.81a20.69,20.69,0,0,0,4-4l4.81,2.78a25.51,25.51,0,0,0,2.5-4.33L68.87,41a20.36,20.36,0,0,0,1.46-5.51ZM50,48.5A15.5,15.5,0,1,1,65.5,33,15.51,15.51,0,0,1,50,48.5Z" style="fill:#d1def4;opacity:0.35000000000000003"/><path d="M57,30.92c0,7.18-3.28,10.17-10.53,11.78l-.78-2.62c4.42-1.1,6.78-2.68,7.35-6a4.43,4.43,0,0,1-3.69,1.79c-2.73,0-5-2.18-5-5.74s2.78-6,6.29-6C54.86,24.14,57,26.92,57,30.92Zm-3.77.63c.05-3.49-.71-4.73-2.55-4.73-1.59,0-2.6,1.09-2.6,3.19,0,2.37,1,3.2,2.34,3.2A3.4,3.4,0,0,0,53.23,31.55Zm17.64-.93A21,21,0,0,0,30,26.55,5,5,0,0,1,25.26,30H14V30l9.14-8.64L19.1,16.74,2.84,33,19.1,49.26l4.06-4.57L14,36.05v0H25.26a11,11,0,0,0,10.46-7.61A15,15,0,1,1,54.61,47.28,11,11,0,0,0,47,57.74V80h6V57.74A5,5,0,0,1,56.45,53,21.13,21.13,0,0,0,70.87,30.62Z" style="fill:#fff"/></svg>