<svg xmlns="http://www.w3.org/2000/svg" viewBox="0 0 80 80"><path d="M40,1A20.44,20.44,0,0,0,19.5,21.34c0,5.61,3,13.25,9.76,20L40,52,50.74,41.29c6.8-6.7,9.76-14.34,9.76-19.95A20.44,20.44,0,0,0,40,1Z" style="fill:#d1def4;fill-rule:evenodd;opacity:0.35000000000000003"/><path d="M45.31,21.55A5.31,5.31,0,1,1,40,16.22,5.31,5.31,0,0,1,45.31,21.55Zm15.19-.21c0,5.52-2.87,13-9.42,19.61L40,52,29.26,41.29C22.46,34.59,19.5,27,19.5,21.34a20.5,20.5,0,0,1,41,0Zm-3,0a17.46,17.46,0,0,0-34.92,0c0,5.26,3,11.88,8.55,17.48L40,47.71l8.61-8.59c5.63-5.55,8.74-12.17,8.85-17.49Z" style="fill:#fff"/></svg>