<svg xmlns="http://www.w3.org/2000/svg" width="24" height="24" viewBox="0 0 24 24">
  <g fill="none" fill-rule="evenodd">
    <rect width="24" height="24"/>
    <path fill="#0F1621" fill-opacity=".95" d="M21,14 L21,21 L19,21 L16.003,19 L16.003,20.997 C16.003,21.551 15.554,22 15,22 L6.00299998,22 C5.44899997,22 4.99999997,21.551 4.99999997,20.997 L4.99999997,14.003 C4.99999997,13.449 5.44899997,13 6.00299998,13 L15,13 C15.554,13 16.003,13.449 16.003,14.003 L16.003,16 L19,14 L21,14 Z M14.25,1.99999996 C16.735,1.99999996 18.75,4.01499997 18.75,6.49999996 C18.75,8.98499999 16.735,11 14.25,11 L14.25,11 L6.74999998,11 C4.67899997,11 2.99999996,9.32099999 2.99999996,7.24999998 C2.99999996,5.17899997 4.67899997,3.49999996 6.74999998,3.49999996 C8.09299998,3.49999996 9.26199999,4.21099997 9.92399999,5.27199997 C10.459,3.38499996 12.191,1.99999996 14.25,1.99999996 Z M6.74999997,5.74999997 C5.92199997,5.74999997 5.24999997,6.42199998 5.24999997,7.24999997 C5.24999997,8.07799998 5.92199997,8.74999997 6.74999997,8.74999997 C7.57799998,8.74999997 8.24999997,8.07799998 8.24999997,7.24999997 C8.24999997,6.42199998 7.57799998,5.74999997 6.74999997,5.74999997 Z M14.25,4.99999997 C13.422,4.99999997 12.75,5.67199997 12.75,6.49999997 C12.75,7.32799998 13.422,7.99999997 14.25,7.99999997 C15.078,7.99999997 15.75,7.32799998 15.75,6.49999997 C15.75,5.67199997 15.078,4.99999997 14.25,4.99999997 Z"/>
  </g>
</svg>
