<svg xmlns="http://www.w3.org/2000/svg" width="24" height="24" viewBox="0 0 24 24">
  <g fill="none" fill-rule="evenodd">
    <rect width="24" height="24"/>
    <path fill="#0F1621" fill-opacity=".95" d="M19.5,2.99999996 C20.328,2.99999996 21,3.67199997 21,4.49999996 L21,4.49999996 L21,19.5 C21,20.328 20.328,21 19.5,21 L19.5,21 L4.49999996,21 C3.67199997,21 2.99999996,20.328 2.99999996,19.5 L2.99999996,19.5 L2.99999996,4.49999996 C2.99999996,3.67199997 3.67199997,2.99999996 4.49999996,2.99999996 L4.49999996,2.99999996 Z M6.99999997,14.5 C5.61899997,14.5 4.49999997,15.619 4.49999997,17 C4.49999997,18.381 5.61899997,19.5 6.99999997,19.5 C8.38099998,19.5 9.49999997,18.381 9.49999997,17 C9.49999997,15.619 8.38099998,14.5 6.99999997,14.5 Z M12,9.49999999 C10.619,9.49999999 9.49999999,10.619 9.49999999,12 C9.49999999,13.381 10.619,14.5 12,14.5 C13.381,14.5 14.5,13.381 14.5,12 C14.5,10.619 13.381,9.49999999 12,9.49999999 Z M17,4.49999997 C15.619,4.49999997 14.5,5.61899997 14.5,6.99999997 C14.5,8.38099998 15.619,9.49999997 17,9.49999997 C18.381,9.49999997 19.5,8.38099998 19.5,6.99999997 C19.5,5.61899997 18.381,4.49999997 17,4.49999997 Z"/>
  </g>
</svg>
