<svg xmlns="http://www.w3.org/2000/svg" width="24" height="24" viewBox="0 0 24 24">
  <g fill="none" fill-rule="evenodd">
    <rect width="24" height="24.002"/>
    <path fill="#0F1621" fill-opacity=".95" d="M5.48599997,2.04399996 L9.44799999,5.99999997 L20.9650171,5.99999997 L13.541,13.932 L13.541,13.932 C13.193,14.302 12.999,14.79 13,15.298 L13,20.003 L15.014,20.002 C16.0611364,20.0010455 16.9187521,20.8246881 16.9945536,21.8536723 L17,22.002 L6.99999998,22.002 C6.99999998,20.9500909 7.81821899,20.0831467 8.8510569,20.0073767 L8.99999999,20.002 L11.001,20.002 L11.001,15.328 L11.001,15.328 C11.001,14.8613333 10.8374444,14.4112593 10.5419383,14.0550343 L10.425,13.926 L2.59799996,6.02599998 L6.97999998,5.99999997 L4.27299997,3.25599996 L5.48599997,2.04399996 Z M13.045,8.00199998 C12.175,8.00199998 11.332,8.51999999 11.073,9.36099999 C10.6641429,10.6888214 11.5831071,11.9115701 12.811312,11.9972157 L13.001,12.002 C14.415,12.002 15.482,10.497 14.724,8.98199999 C14.411,8.35699998 13.736,8.00199998 13.045,8.00199998 Z"/>
  </g>
</svg>
