<?xml version="1.0" encoding="iso-8859-1"?>
<!-- Generator: Adobe Illustrator 24.1.2, SVG Export Plug-In . SVG Version: 6.00 Build 0)  -->
<svg version="1.1" id="_x37_00-7600-0322_x5F_ev-charging-station-layer"
	 xmlns="http://www.w3.org/2000/svg" xmlns:xlink="http://www.w3.org/1999/xlink" x="0px" y="0px" viewBox="0 0 24 24"
	 style="enable-background:new 0 0 24 24;" xml:space="preserve">
<g id="_x37_00-7600-0322_x5F_ev-charging-station_1_">
	<rect style="fill:none;" width="24" height="24"/>
	<path d="M22,11h-2.55l-0.86-1.18C18.23,9.33,17.64,9.02,17,9v2.05l2.29,3.13L20,15.16V20h-2v-2H6v2H4v-4.84l0.71-0.98L7,11.05V9
		C6.36,9.02,5.77,9.33,5.41,9.82L4.55,11H2v2h1.1l-0.77,1.06C2.11,14.35,2,14.7,2,15.06V20c0,1.1,0.9,2,2,2h3c0.55,0,1-0.45,1-1v-1
		h8v1c0,0.55,0.45,1,1,1h3c0.55,0,1.05-0.22,1.41-0.59C21.78,21.05,22,20.55,22,20v-4.94c0-0.36-0.11-0.71-0.33-1L20.9,13H22V11z
		 M18,16H6l1.5-2h9L18,16z M13,10L13,10l0,2h-2v-2h0c-1.105,0-2-0.895-2-2V6h6v2C15,9.105,14.105,10,13,10z M15,4h-2V2h2V4z M11,4H9
		V2h2V4z"/>
</g>
</svg>
