<?xml version="1.0" encoding="iso-8859-1"?>
<!-- Generator: Adobe Illustrator 24.1.2, SVG Export Plug-In . SVG Version: 6.00 Build 0)  -->
<svg version="1.1" id="_x34_00-4300-0308_x5F_scenic-overlook-rest-area-layer"
	 xmlns="http://www.w3.org/2000/svg" xmlns:xlink="http://www.w3.org/1999/xlink" x="0px" y="0px" viewBox="0 0 24 24"
	 style="enable-background:new 0 0 24 24;" xml:space="preserve">
<g id="_x34_00-4300-0308_x5F_scenic-overlook-rest-area_1_">
	<rect style="opacity:0.11;fill:none;" width="24" height="24"/>
	<path d="M10,4H6V2h4V4z M2,22h6v-2H2V22z M16,22h6v-2h-6V22z M18,2h-4v2h4V2z M16.936,8c0.689,1.031,1.898,2.848,3.066,4.603
		c0.004,1.344,0.006,2.506,0.007,3.397H18l0.021-2H16H8H6v2H4v-3.395L7.07,8H16.936 M18,6H6l-3.664,5.496
		C2.117,11.825,2,12.211,2,12.605V18h6v-2h8c0,0-0.021,2,0,2h6c0.017,0,0.006-3.886,0.002-5.404
		c-0.001-0.392-0.115-0.767-0.332-1.093C20.714,10.065,18.011,6,18,6L18,6z M13,10H11v2H13V10z"/>
</g>
</svg>
