<?xml version="1.0" encoding="iso-8859-1"?>
<!-- Generator: Adobe Illustrator 24.1.2, SVG Export Plug-In . SVG Version: 6.00 Build 0)  -->
<svg version="1.1" id="_x34_00-4100-0340_x5F_aerial-tramway-layer"
	 xmlns="http://www.w3.org/2000/svg" xmlns:xlink="http://www.w3.org/1999/xlink" x="0px" y="0px" viewBox="0 0 24 24"
	 style="enable-background:new 0 0 24 24;" xml:space="preserve">
<g id="_x34_00-4100-0340_x5F_aerial-tramway_1_">
	<rect style="fill:none;" width="24" height="24"/>
	<path d="M22,4V2L2,8v2l9-2.7V11H6c-1.1,0-2,0.9-2,2v5c0,2.2,1.8,4,4,4h8c2.2,0,4-1.8,4-4v-5c0-1.1-0.9-2-2-2h-5V6.7L22,4z M18,13v5
		c0,1.105-0.895,2-2,2H8c-1.105,0-2-0.895-2-2v-5H18z M15,18H9v-2h6V18z"/>
</g>
</svg>
