<svg xmlns="http://www.w3.org/2000/svg" width="24" height="24" viewBox="0 0 24 24">
  <g fill="none" fill-rule="evenodd">
    <rect width="24" height="24"/>
    <path fill="#0F1621" fill-opacity=".95" d="M19,1.99999996 C19.5125715,1.99999996 19.9354694,2.38628567 19.9932682,2.88343145 L20,2.99999996 L20,22 L3.99999997,22 L3.99999997,2.99999996 C3.99999997,2.48742853 4.38628568,2.06453057 4.88343145,2.00673174 L4.99999997,1.99999996 L19,1.99999996 Z M12.054,7.99999998 L11.948,7.99999998 C8.65499999,8.02899998 5.99999997,10.699 5.99999997,13.999 C5.99999997,17.316 8.68299999,20 12.001,20 C15.319,20 18.002,17.317 18.002,13.999 C18.002,10.774 15.4663104,8.15068903 12.2775104,8.00604611 L12.054,7.99999998 Z M14.999,14 C14.999,14.767 14.708,15.534 14.122,16.12 C12.95,17.292 11.054,17.292 9.88099999,16.12 C9.29499999,15.534 9.00199999,14.767 9.00199999,14 L14.999,14 Z M18,3.99999997 L14,3.99999997 L14,5.99999997 L18,5.99999997 L18,3.99999997 Z"/>
  </g>
</svg>
