<svg xmlns="http://www.w3.org/2000/svg" width="24" height="24" viewBox="0 0 24 24">
  <g fill="none" fill-rule="evenodd">
    <rect width="24" height="24" opacity="0"/>
    <path fill="#0F1621" fill-opacity=".95" d="M18,12.5 L18,13.5 C18,18.194 15.314,22 12,22 C8.75227999,22 6.10769118,18.3447176 6.00320671,13.7805511 L5.99999997,13.5 L5.99999997,12.5 L6.07645702,12.6498464 C6.38660025,13.1892259 7.74468083,15 12,15 C16.5744681,15 17.8008148,12.9074242 17.9764214,12.5512411 L18,12.5 Z M12,1.99999996 L21.5,6.99999996 L18,9.99399999 L18,11 C18,11 17.0430056,11.9569943 12.3204467,11.9986027 L12,12 C7.22886954,12 6.09551603,11.0850661 6.0059827,11.0055067 L5.99999996,11 L5.99999996,9.99999996 L2.49999996,6.99999996 L12,1.99999996 Z M12,4.85699997 L9.42899999,5.71399997 L9.42899999,6.57099998 C9.42899999,9.14299999 12,9.99999999 12,9.99999999 L12.1249316,9.95225955 C12.6200871,9.74910399 14.4245482,8.8713651 14.5626205,6.82251509 L14.571,6.57099998 L14.571,5.71399997 L12,4.85699997 Z"/>
  </g>
</svg>
