<svg xmlns="http://www.w3.org/2000/svg" width="24" height="24" viewBox="0 0 24 24">
  <g fill="none" fill-rule="evenodd">
    <rect width="24" height="24"/>
    <path fill="#0F1621" fill-opacity=".95" d="M16.251,8.99999999 C17.2505294,8.99999999 18.1800796,9.59083736 18.6686512,10.5207327 L18.755,10.699 L19.778,13 L21.5,13 C22.1277647,13.6277647 22.1646921,14.2546436 21.610782,14.8823041 L21.5,15 L21,15 L21,21 C21,21.5125715 20.6283725,21.9354694 20.1333207,21.9932682 L20.017,22 L17.017,22 C16.5018,22 16.0623867,21.6097423 16.006088,21.1089114 L16,21 L16,20 L7.99999998,20 L7.99999998,21 C7.99999998,21.5125715 7.61371427,21.9354694 7.11656849,21.9932682 L6.99999998,22 L3.99999997,22 C3.48742854,22 3.06453058,21.6137143 3.00673174,21.1165685 L2.99999996,21 L2.99999996,15 L2.49999996,15 C1.87223525,14.3722353 1.83530792,13.7453564 2.38921795,13.1176959 L2.49999996,13 L4.25599997,13 L5.27899997,10.699 C5.71099997,9.72770587 6.60628025,9.07973355 7.59550884,9.00686239 L7.78199998,8.99999999 L16.251,8.99999999 Z M7.99999998,16 L5.49999997,16 C4.87223526,16.6277647 4.83530793,17.2546436 5.38921797,17.8823041 L5.49999997,18 L7.99999998,18 L7.99999998,16 Z M18.5,16 L16,16 L16,18 L18.5,18 C19.1277647,17.3722353 19.1646921,16.7453564 18.610782,16.1176959 L18.5,16 Z M16.251,11 L7.78199998,11 C7.54049998,11 7.31124998,11.1500625 7.16392185,11.3992734 L7.10599998,11.512 L5.99999998,14 L18.034,14 L16.928,11.512 C16.804625,11.2355 16.5909063,11.050875 16.353836,11.0090391 L16.251,11 Z M9.99999997,1.99999996 L10.75,3.49999996 L17.966,3.49999996 L19.466,4.99099997 L17.966,6.49999996 L15.5,6.49999996 L14.5,5.49999996 L13.5,6.49999996 L10.75,6.49999996 L9.99999997,7.99999996 L5.70599997,7.99199998 C4.81263155,7.99010525 4.08081437,7.30341272 4.00625569,6.4293302 L3.99999997,6.28199998 L3.99999997,3.71099997 C3.99999997,2.8157368 4.68749027,2.08112738 5.56336256,2.00628003 L5.71099997,1.99999996 L9.99999997,1.99999996 Z M8.99999998,3.99999997 L5.99999998,3.99999997 L5.99999998,5.99999997 L8.99999998,5.99999997 L8.99999998,3.99999997 Z"/>
  </g>
</svg>
