<svg xmlns="http://www.w3.org/2000/svg" width="24" height="24" viewBox="0 0 24 24">
  <g fill="none" fill-rule="evenodd">
    <rect width="24" height="24"/>
    <path fill="#0F1621" fill-opacity=".95" d="M16.5,9.01999999 C17.3971875,9.11562499 18.21,9.6770703 18.6541663,10.5255334 L18.738,10.699 L19.761,13 L21.5,13 C22.1277647,13.6277647 22.1646921,14.2546436 21.610782,14.8823041 L21.5,15 L21,15 L21,21 C21,21.5125715 20.6137143,21.9354694 20.1165685,21.9932683 L20,22 L17,22 C16.4874286,22 16.0645306,21.6137143 16.0067318,21.1165686 L16,21 L16,20 L7.99999998,20 L7.99999998,21 C7.99999998,21.5125715 7.61371427,21.9354694 7.11656849,21.9932683 L6.99999998,22 L3.99999997,22 C3.48742854,22 3.06453058,21.6137143 3.00673174,21.1165686 L2.99999996,21 L2.99999996,15 L2.49999996,15 C1.87223525,14.3722353 1.83530792,13.7453564 2.38921795,13.1176959 L2.49999996,13 L4.23899997,13 L5.26199997,10.7 C5.65574997,9.81312499 6.43709763,9.20222655 7.32177171,9.04610717 L7.49999998,9.02099999 L7.49999998,11.07 C7.36479998,11.1356 7.24303998,11.24472 7.15161598,11.393264 L7.08899998,11.512 L5.98299997,14 L18.017,14 L16.911,11.511 C16.8366,11.343 16.72636,11.2134 16.598712,11.126296 L16.5,11.069 L16.5,9.01999999 Z M7.99999998,16 L5.49999997,16 C4.87223526,16.6277647 4.83530793,17.2546436 5.38921797,17.8823041 L5.49999997,18 L7.99999998,18 L7.99999998,16 Z M18.5,16 L16,16 L16,18 L18.5,18 C19.1277647,17.3722353 19.1646921,16.7453564 18.610782,16.1176959 L18.5,16 Z M12.998,1.99999996 L12.998,3.05799996 C13.6424445,3.17977774 14.1952346,3.43824688 14.7083429,3.86009599 L14.899,4.02599997 L15.078,4.19099997 L14.006,5.42799997 L13.818,5.27399997 C13.288,4.83899997 12.782,4.64599997 12.178,4.64599997 L12.0399633,4.65080471 L11.8753594,4.66993123 C11.55868,4.72244441 11.186,4.88279997 11.186,5.34699997 L11.191225,5.45795897 C11.221905,5.74195097 11.409065,5.93883897 12.292865,6.24267098 L12.658,6.36199998 C14.191,6.84399998 15.212,7.49899998 15.212,9.12999999 C15.212,10.3566667 14.4482812,11.3012472 13.1903609,11.668309 L12.998,11.719 L12.998,13 L11,13 L11,11.739 C10.2386,11.5986 9.56467999,11.28567 9.03072799,10.824996 L8.85799999,10.666 L8.68799999,10.498 L9.79799999,9.25799999 L9.98399999,9.41399999 C10.5321,9.87569999 11.06238,10.10736 11.679087,10.149075 L11.888,10.156 C12.175,10.156 13.111,10.088 13.111,9.21099999 L13.1051881,9.06966976 C13.0711026,8.70897812 12.8636135,8.4695123 11.8897293,8.15241418 L11.698,8.09199998 C9.85799999,7.52199998 9.10799999,6.75299998 9.10799999,5.43999997 C9.10799999,4.39827775 9.75111419,3.56349379 10.8090465,3.19090171 L11,3.12999996 L11,1.99999996 L12.998,1.99999996 Z"/>
  </g>
</svg>
