<svg xmlns="http://www.w3.org/2000/svg" width="24" height="24" viewBox="0 0 24 24">
  <g fill="none" fill-rule="evenodd">
    <rect width="24" height="24"/>
    <path fill="#0F1621" fill-opacity=".95" d="M19.7447501,12.9990017 L18.7217501,10.6980017 C18.2627501,9.6660017 17.2797501,8.9990017 16.2177501,8.9990017 L7.74975002,8.9990017 C6.68775002,8.9990017 5.70475002,9.6660017 5.24575001,10.6980017 L4.22275001,12.9990017 L2.48375,12.9990017 C1.83875,13.6660017 1.83875,14.3320017 2.48375,14.9990017 L2.98375,14.9990017 L2.98375,20.9990017 C2.98375,21.5510018 3.43175001,21.9990017 3.98375001,21.9990017 L6.98375002,21.9990017 C7.53575002,21.9990017 7.98375002,21.5510018 7.98375002,20.9990017 L7.98375002,19.9990017 L15.9837501,19.9990017 L15.9837501,20.9990017 C15.9837501,21.5510018 16.4317501,21.9990017 16.9837501,21.9990017 L19.9837501,21.9990017 C20.5357501,21.9990017 20.9837501,21.5510018 20.9837501,20.9990017 L20.9837501,14.9990017 L21.4837501,14.9990017 C22.1477501,14.3290017 22.1477501,13.6620017 21.4837501,12.9990017 L19.7447501,12.9990017 Z M7.07275002,11.5110017 C7.21275002,11.1950017 7.47275002,10.9990017 7.74975002,10.9990017 L16.2187501,10.9990017 C16.4957501,10.9990017 16.7547501,11.1950017 16.8957501,11.5110017 L18.0007501,13.9990017 L5.96675002,13.9990017 L7.07275002,11.5110017 Z M7.98375002,17.9990017 L5.48375001,17.9990017 C4.81675001,17.3320017 4.81675001,16.6660017 5.48375001,15.9990017 L7.98375002,15.9990017 L7.98375002,17.9990017 Z M18.4837501,17.9990017 L15.9827501,17.9990017 L15.9837501,15.9990017 L18.4837501,15.9990017 C19.1507501,16.6660017 19.1507501,17.3320017 18.4837501,17.9990017 Z M15.9837501,5.99900169 L18.9837501,5.99900169 L18.9837501,6.49900169 C18.9837501,7.05100169 18.5357501,7.49900169 17.9837501,7.49900169 L15.9837501,7.49900169 L15.9837501,5.99900169 Z M14.9837501,7.9990017 L10.98375,7.9990017 C9.87875003,7.9990017 8.98375003,7.10400169 8.98375003,5.99900169 L8.98375003,5.99900169 L4.98375001,5.99900169 C4.31175001,5.33300168 4.31175001,4.66600168 4.98375001,3.99900168 L8.98375003,3.99900168 L8.98375003,3.99900168 C8.98375003,2.89500167 9.87975003,1.99900167 10.98375,2.00000083 L14.9837501,2.00200167 L14.9837501,3.99900168 L14.9837501,5.99900169 L14.9837501,7.9990017 Z M17.9847501,2.50600167 C18.5367501,2.50600167 18.9837501,2.95400168 18.9837501,3.50600168 L18.9837501,3.99900168 L15.9837501,3.99900168 L15.9837501,2.50300167 L17.9847501,2.50600167 Z"/>
  </g>
</svg>
