<svg xmlns="http://www.w3.org/2000/svg" width="24" height="24" viewBox="0 0 24 24">
  <g fill="none" fill-rule="evenodd">
    <rect width="24" height="24"/>
    <path fill="#0F1621" fill-opacity=".95" d="M12.182,1.99999996 C13.1381905,1.99999996 13.9220453,2.81179134 13.9945299,3.84364535 L14,3.99999996 L14,20 L18,20 C19.0528637,20 19.9180289,19.1826922 19.9945049,18.1490673 L20,18 L20,13 L19,12 L19,7.11799998 L16.97,5.08699997 L18.03,4.02599997 L21.999,7.99799998 L22.005,7.99999996 L22,7.99999996 L22,18 C22,20.1420606 20.3159009,21.8910707 18.1996284,21.9951043 L18,22 L1.99999996,22 L1.99999996,20 L3.99999996,20 L3.99999996,3.99999996 C3.99999996,2.94761901 4.73832196,2.08571424 5.6759313,2.00601443 L5.81799997,1.99999996 L12.182,1.99999996 Z M12,3.99999997 L5.99999997,3.99999997 L5.99999997,11 L12,11 L12,3.99999997 Z"/>
  </g>
</svg>
