<svg xmlns="http://www.w3.org/2000/svg" viewBox="0 0 24 24"><title>LUI-icon-pd-unlink-outline-24</title><g id="Layer_2" data-name="Layer 2"><g id="LUI-icon-pd-unlink-outline-24"><g id="LUI-icon-pd-unlink-outline-24-2" data-name="LUI-icon-pd-unlink-outline-24"><rect width="24" height="24" fill="none"/><path d="M20.15,12.78,18,15v3H16V14l1.56-1.46,1.17-1.17a4.32,4.32,0,0,0-6.1-6.11L11.05,6.85,9.63,5.44l1.59-1.59a6.31,6.31,0,0,1,8.93,8.93Zm-7.21,4.38-1.57,1.57a4.32,4.32,0,0,1-6.11-6.1l1.15-1.15L8,10V6H6V9L3.85,11.22a6.31,6.31,0,1,0,8.93,8.93l1.57-1.57Z"/></g></g></g></svg>