<svg xmlns="http://www.w3.org/2000/svg" viewBox="0 0 24 24"><title>LUI-icon-pd-selector_polygon-solid-24</title><g id="Layer_2" data-name="Layer 2"><g id="LUI-icon-pd-selector_polygon-solid-24"><g id="LUI-icon-pd-selector_polygon-solid-24-2" data-name="LUI-icon-pd-selector_polygon-solid-24"><rect width="24" height="24" fill="none"/><path d="M22,4a2,2,0,1,1-2-2A2,2,0,0,1,22,4ZM4,2A2,2,0,1,0,6,4,2,2,0,0,0,4,2ZM4,18a2,2,0,1,0,2,2A2,2,0,0,0,4,18Zm16,0a2,2,0,1,0,2,2A2,2,0,0,0,20,18Zm-9,1v2H8V19ZM21,8v3H19V8ZM11,3V5H8V3ZM3,7H5v3H3ZM16,3V5H13V3Zm5,10v3H19V13ZM5,13v3H3V13Zm11,6v2H13V19Z"/></g></g></g></svg>