<svg xmlns="http://www.w3.org/2000/svg" viewBox="0 0 24 24"><title>LUI-icon-pd-key-outline-24</title><g id="Layer_2" data-name="Layer 2"><g id="LUI-icon-pd-key-outline-24"><g id="LUI-icon-pd-key-outline-24-2" data-name="LUI-icon-pd-key-outline-24"><rect width="24" height="24" fill="none"/><path d="M14.34,11.34h0A6.5,6.5,0,1,0,8.5,15a6.27,6.27,0,0,0,2.13-.37L12,16h3v3h3v3h2a2,2,0,0,0,2-2V19ZM8.5,13A4.5,4.5,0,1,1,13,8.5,4.51,4.51,0,0,1,8.5,13Zm-1-7A1.5,1.5,0,1,0,9,7.5,1.5,1.5,0,0,0,7.5,6Z"/></g></g></g></svg>