<svg xmlns="http://www.w3.org/2000/svg" viewBox="0 0 24 24"><title>LUI-icon-pd-camera-outline-24</title><g id="Layer_2" data-name="Layer 2"><g id="LUI-icon-pd-camera-outline-24"><g id="LUI-icon-pd-camera-outline-24-2" data-name="LUI-icon-pd-camera-outline-24"><rect width="24" height="24" fill="none"/><path d="M11,6H22V18a3,3,0,0,1-3,3H5a3,3,0,0,1-3-3V6H4V4h7Zm9,12V8H9V6H6V8H4V18a1,1,0,0,0,1,1H19A1,1,0,0,0,20,18ZM6,12V10H9v2Zm12,2a4,4,0,1,1-4-4A4,4,0,0,1,18,14Zm-2,0a2,2,0,1,0-2,2A2,2,0,0,0,16,14Z"/></g></g></g></svg>