<svg xmlns="http://www.w3.org/2000/svg" viewBox="0 0 24 24"><title>LUI-icon-pd-heart-solid-24</title><g id="Layer_2" data-name="Layer 2"><g id="LUI-icon-pd-heart-solid-24"><g id="LUI-icon-pd-heart-solid-24-2" data-name="LUI-icon-pd-heart-solid-24"><rect width="24" height="24" fill="none"/><path d="M10.86,4,12,5l1.14-1A6.14,6.14,0,0,1,16.5,3,5.35,5.35,0,0,1,22,8.37a6.06,6.06,0,0,1-.74,2.85,16.78,16.78,0,0,1-3.37,4.14c-.58.57-4.06,3.84-5.18,4.94L12,21l-.71-.7c-1.12-1.1-4.6-4.37-5.18-4.94a16.78,16.78,0,0,1-3.37-4.14A6.06,6.06,0,0,1,2,8.37,5.35,5.35,0,0,1,7.5,3,6.14,6.14,0,0,1,10.86,4Z"/></g></g></g></svg>