<svg xmlns="http://www.w3.org/2000/svg" viewBox="0 0 24 24"><title>LUI-icon-pd-weather-storm-outline-24</title><g id="Layer_2" data-name="Layer 2"><g id="LUI-icon-pd-weather-storm-outline-24"><g id="LUI-icon-pd-weather-storm-outline-24-2" data-name="LUI-icon-pd-weather-storm-outline-24"><rect width="24" height="24" transform="translate(0 24) rotate(-90)" fill="none"/><path d="M16,22h0a1,1,0,0,1-1-1V17a1,1,0,0,1,1-1h0a1,1,0,0,1,1,1v4A1,1,0,0,1,16,22Zm5-3V17a1,1,0,0,0-1-1h0a1,1,0,0,0-1,1v2a1,1,0,0,0,1,1h0A1,1,0,0,0,21,19ZM5,19V17a1,1,0,0,0-1-1H4a1,1,0,0,0-1,1v2a1,1,0,0,0,1,1H4A1,1,0,0,0,5,19Zm4-1v4l4-4V16H10l1-4H8L7,16v2ZM19,7H16.83A3,3,0,0,0,14,5H12.87A4,4,0,0,0,9,2H8A4,4,0,0,0,4,6V7.17A3,3,0,0,0,2,10v1a3,3,0,0,0,3,3h.44l.5-2H5a1,1,0,0,1-1-1V10A1,1,0,0,1,5,9h5A2,2,0,0,0,8,7H6V6A2,2,0,0,1,8,4H9a2,2,0,0,1,2,2V7h3a1,1,0,0,1,1,1V9h4a1,1,0,0,1,1,1v1a1,1,0,0,1-1,1H13.06l-.5,2H19a3,3,0,0,0,3-3V10A3,3,0,0,0,19,7Z"/></g></g></g></svg>