<svg xmlns="http://www.w3.org/2000/svg" viewBox="0 0 24 24"><title>LUI-icon-pd-group_smart-filter-outline-24</title><g id="Layer_2" data-name="Layer 2"><g id="LUI-icon-pd-group_smart-filter-outline-24"><g id="LUI-icon-pd-group_smart-filter-outline-24-2" data-name="LUI-icon-pd-group_smart-filter-outline-24"><rect width="24" height="24" fill="none"/><path d="M20,11v9H4V4H14.22l.67-2H4A2,2,0,0,0,2,4V20a2,2,0,0,0,2,2H20a2,2,0,0,0,2-2V9.5Zm-9,0H7V7h4Zm6,6H13V13h4Zm-6,0H7V13h4ZM16,7V5l1-3h3L19,5h3V7l-4,3V7Zm-1,4H13V8h2Z"/></g></g></g></svg>