<svg xmlns="http://www.w3.org/2000/svg" viewBox="0 0 24 24"><title>LUI-icon-pd-weather-shower_night-solid-24</title><g id="Layer_2" data-name="Layer 2"><g id="LUI-icon-pd-weather-shower_night-solid-24"><g id="LUI-icon-pd-weather-shower_night-solid-24-2" data-name="LUI-icon-pd-weather-shower_night-solid-24"><rect width="24" height="24" transform="translate(0 24) rotate(-90)" fill="none"/><path d="M3,21H3a1,1,0,0,1-1-1V18a1,1,0,0,1,1-1H3a1,1,0,0,1,1,1v2A1,1,0,0,1,3,21Zm5,0V18a1,1,0,0,0-1-1H7a1,1,0,0,0-1,1v3a1,1,0,0,0,1,1H7A1,1,0,0,0,8,21Zm4-1V18a1,1,0,0,0-1-1h0a1,1,0,0,0-1,1v2a1,1,0,0,0,1,1h0A1,1,0,0,0,12,20ZM11,9H9A2,2,0,0,0,7,7H6A2,2,0,0,0,4,5H2V15h9a3,3,0,0,0,3-3h0A3,3,0,0,0,11,9Zm10.33-.67a4.27,4.27,0,0,1-5.66-5.66A.48.48,0,0,0,15,2,5.41,5.41,0,0,0,13.52,3.1,5.13,5.13,0,0,0,12,7.1a5,5,0,0,1,4,4.75,5.22,5.22,0,0,0,4.52-1A5.27,5.27,0,0,0,22,9,.47.47,0,0,0,21.33,8.33Z"/></g></g></g></svg>