<svg xmlns="http://www.w3.org/2000/svg" viewBox="0 0 24 24"><title>LUI-icon-pd-monorail-outline-24</title><g id="Layer_2" data-name="Layer 2"><g id="LUI-icon-pd-monorail-outline-24"><g id="LUI-icon-pd-monorail-outline-24-2" data-name="LUI-icon-pd-monorail-outline-24"><rect width="24" height="24" fill="none"/><path d="M17.34,4h0L19,13.84l-.87,2.58-2.67-2.8L14.87,13H9.13l-.59.62L5.87,16.43,5,13.84,6.66,4H17.34m0-2H6.66a2,2,0,0,0-2,1.67L3,13.51a2,2,0,0,0,.07,1l1.4,4.16A2,2,0,0,0,6.41,20H7V18.17L10,15h4l3,3.17V20h.56a2,2,0,0,0,1.91-1.37l1.4-4.16a2,2,0,0,0,.07-1L19.32,3.67a2,2,0,0,0-2-1.67ZM15,19v3H13V20l-1-1-1,1v2H9V19l2-2h2Zm1-9H8V8h8Z"/></g></g></g></svg>