<svg xmlns="http://www.w3.org/2000/svg" viewBox="0 0 24 24"><title>LUI-icon-pd-weather-rain_freezing-outline-24</title><g id="Layer_2" data-name="Layer 2"><g id="LUI-icon-pd-weather-rain_freezing-outline-24"><g id="LUI-icon-pd-weather-rain_freezing-outline-24-2" data-name="LUI-icon-pd-weather-rain_freezing-outline-24"><rect width="24" height="24" transform="translate(0 24) rotate(-90)" fill="none"/><path d="M19,7H16.83A3,3,0,0,0,14,5H12.87A4,4,0,0,0,9,2H8A4,4,0,0,0,4,6V7.17A3,3,0,0,0,2,10v1a3,3,0,0,0,3,3H19a3,3,0,0,0,3-3V10A3,3,0,0,0,19,7Zm1,4a1,1,0,0,1-1,1H5a1,1,0,0,1-1-1V10A1,1,0,0,1,5,9h5A2,2,0,0,0,8,7H6V6A2,2,0,0,1,8,4H9a2,2,0,0,1,2,2V7h3a1,1,0,0,1,1,1V9h4a1,1,0,0,1,1,1Zm-4,5h4l-2,6Zm-6,0h4l-2,5ZM4,16H8L6,19Z"/></g></g></g></svg>