<svg xmlns="http://www.w3.org/2000/svg" viewBox="0 0 24 24"><title>LUI-icon-pd-camera_view-outline-24</title><g id="Layer_2" data-name="Layer 2"><g id="LUI-icon-pd-camera_view-outline-24"><g id="LUI-icon-pd-camera_view-outline-24-2" data-name="LUI-icon-pd-camera_view-outline-24"><rect width="24" height="24" fill="none"/><path d="M4,2A2,2,0,0,0,2,4V20a2,2,0,0,0,2,2h9V2Zm7,18H4V4h7ZM20,6.56V17.44L17,15V9l3-2.4M22,4H20L15,8v8l5,4h2V4ZM9,12a1.5,1.5,0,1,1-1.5-1.5A1.5,1.5,0,0,1,9,12Z"/></g></g></g></svg>