<svg xmlns="http://www.w3.org/2000/svg" viewBox="0 0 24 24"><title>LUI-icon-pd-rail_intercity-solid-24</title><g id="Layer_2" data-name="Layer 2"><g id="LUI-icon-pd-rail_intercity-solid-24"><g id="LUI-icon-pd-rail_intercity-solid-24-2" data-name="LUI-icon-pd-rail_intercity-solid-24"><rect width="24" height="24" fill="none"/><path d="M18,22H6V20H18ZM20,6V16a2,2,0,0,1-2,2H6a2,2,0,0,1-2-2V6A4,4,0,0,1,8,2h8A4,4,0,0,1,20,6ZM10,12H6v2h4Zm8,0H14v2h4Zm0-6a2,2,0,0,0-2-2H8A2,2,0,0,0,6,6V8H18Z"/></g></g></g></svg>