<svg xmlns="http://www.w3.org/2000/svg" viewBox="0 0 24 24"><title>LUI-icon-pd-weather-overcast-outline-24</title><g id="Layer_2" data-name="Layer 2"><g id="LUI-icon-pd-weather-overcast-outline-24"><g id="LUI-icon-pd-weather-overcast-outline-24-2" data-name="LUI-icon-pd-weather-overcast-outline-24"><rect width="24" height="24" transform="translate(0 24) rotate(-90)" fill="none"/><path d="M18,10H16.83A3,3,0,0,0,14,8H12.87A4,4,0,0,0,9,5H8A4,4,0,0,0,4,9v1.17A3,3,0,0,0,2,13v1a4,4,0,0,0,4,4H18a4,4,0,0,0,0-8Zm0,6H6a2,2,0,0,1-2-2V13a1,1,0,0,1,1-1h5a2,2,0,0,0-2-2H6V9A2,2,0,0,1,8,7H9a2,2,0,0,1,2,2v1h3a1,1,0,0,1,1,1v1h3a2,2,0,0,1,0,4Z"/></g></g></g></svg>