<svg xmlns="http://www.w3.org/2000/svg" viewBox="0 0 24 24"><title>LUI-icon-pd-star-outline-24</title><g id="Layer_2" data-name="Layer 2"><g id="LUI-icon-pd-star-outline-24"><g id="LUI-icon-pd-star-outline-24-2" data-name="LUI-icon-pd-star-outline-24"><rect width="24" height="24" fill="none"/><path d="M12,5.93l1.07,3.63L13.49,11h4.57l-2.13,1.29-1.31.79L15,14.55l1.22,4.21-3-2.34L12,15.48l-1.22.93-3,2.35L9,14.56l.43-1.47-1.31-.8L5.94,11h4.57l.42-1.44L12,5.93M12,2a1.31,1.31,0,0,0-.38.06,1.22,1.22,0,0,0-.81.81L9,9H3.25A1.25,1.25,0,0,0,2,10.25a1.12,1.12,0,0,0,.53,1L7,14,5.18,20.37A1.24,1.24,0,0,0,6,21.94a1.32,1.32,0,0,0,.39.06,1.21,1.21,0,0,0,.73-.24L12,18l4.88,3.76a1.25,1.25,0,0,0,1.74-.27,1.21,1.21,0,0,0,.18-1.12L17,14l4.5-2.73a1.25,1.25,0,0,0,.3-1.75,1.29,1.29,0,0,0-1-.52H15l-1.8-6.11A1.25,1.25,0,0,0,12,2Z"/></g></g></g></svg>