<svg xmlns="http://www.w3.org/2000/svg" viewBox="0 0 24 24"><title>LUI-icon-pd-dataset-solid-24</title><g id="Layer_2" data-name="Layer 2"><g id="LUI-icon-pd-dataset-solid-24"><g id="LUI-icon-pd-dataset-solid-24-2" data-name="LUI-icon-pd-dataset-solid-24"><g opacity="0"><rect width="24" height="24" fill="none"/></g><path d="M20,2H4A2,2,0,0,0,2,4V20a2,2,0,0,0,2,2H20a2,2,0,0,0,2-2V4A2,2,0,0,0,20,2ZM7,20H4V18H7Zm0-4H4V13H7Zm0-5H4V8H7Zm5,9H9V18h3Zm0-4H9V13h3Zm0-5H9V8h3Zm8,9H14V18h6Zm0-4H14V13h6Zm0-5H14V8h6Z"/></g></g></g></svg>