<svg xmlns="http://www.w3.org/2000/svg" viewBox="0 0 24 24"><title>LUI-icon-pd-profile-outline-24</title><g id="Layer_2" data-name="Layer 2"><g id="LUI-icon-pd-profile-outline-24"><g id="LUI-icon-pd-profile-outline-24-2" data-name="LUI-icon-pd-profile-outline-24"><rect width="24" height="24" fill="none"/><path d="M20,18.07C20,15,18.39,13,16,13H8c-2.5,0-4,1.9-4,5.07V22H6V18.07C6,16,6.67,15,8,15h8c1.47,0,2,1.65,2,3.07V22h2ZM12,11H12A3.48,3.48,0,0,0,15.5,7.53V5.47A3.48,3.48,0,0,0,12,2H12A3.48,3.48,0,0,0,8.5,5.47V7.53A3.48,3.48,0,0,0,12,11ZM10.5,5.47A1.47,1.47,0,0,1,12,4H12A1.47,1.47,0,0,1,13.5,5.47V7.53A1.47,1.47,0,0,1,12,9H12A1.47,1.47,0,0,1,10.5,7.53Z"/></g></g></g></svg>