<svg xmlns="http://www.w3.org/2000/svg" viewBox="0 0 24 24"><title>LUI-icon-pd-navigation-outline-24</title><g id="Layer_2" data-name="Layer 2"><g id="LUI-icon-pd-navigation-outline-24"><g id="LUI-icon-pd-navigation-outline-24-2" data-name="LUI-icon-pd-navigation-outline-24"><rect width="24" height="24" fill="none"/><path d="M20.79,19.1,12.89,2.54a1,1,0,0,0-1.78,0L3.21,19.1A2,2,0,0,0,5,22a2,2,0,0,0,.58-.09l5.9-2.5a2.1,2.1,0,0,1,.56-.08,2.24,2.24,0,0,1,.57.08l5.89,2.5a2,2,0,0,0,2.33-2.81Zm-7.44-1.53-.1,0-.1,0A4.05,4.05,0,0,0,12,17.33a4.11,4.11,0,0,0-1.15.17l-.1,0-.09,0L5,20,12,5l7,15ZM12,15l3,1L12,8Z"/></g></g></g></svg>