<svg xmlns="http://www.w3.org/2000/svg" viewBox="0 0 24 24"><title>LUI-icon-pd-selector_freeform-solid-24</title><g id="Layer_2" data-name="Layer 2"><g id="LUI-icon-pd-selector_freeform-solid-24"><g id="LUI-icon-pd-selector_freeform-solid-24-2" data-name="LUI-icon-pd-selector_freeform-solid-24"><rect width="24" height="24" fill="none"/><path d="M4,8H2v3H4ZM2,5V6H4V5A1,1,0,0,1,5,4H6V2H5A3,3,0,0,0,2,5ZM4,19V18H2v1a3,3,0,0,0,3,3H6V20H5A1,1,0,0,1,4,19ZM11,2H8V4h3Zm2,2h3V2H13Zm6-2H18V4h1a1,1,0,0,1,1,1V6h2V5A3,3,0,0,0,19,2Zm1,9h2V8H20ZM4,13H2v3H4Zm16,3h2V13H20Zm0,3a1,1,0,0,1-1,1H18v2h1a3,3,0,0,0,3-3V18H20Zm-4,3V20H13.9a4.92,4.92,0,0,1-.9,2Zm-3-7a2,2,0,0,1-1,1.73V19a3,3,0,0,1-3,3H8V20H9a1,1,0,0,0,1-1V16.73A2,2,0,1,1,13,15Z"/></g></g></g></svg>