<svg xmlns="http://www.w3.org/2000/svg" viewBox="0 0 24 24"><title>LUI-icon-pd-sensor-humidity-solid-24</title><g id="Layer_2" data-name="Layer 2"><g id="LUI-icon-pd-sensor-humidity-solid-24"><g id="LUI-icon-pd-sensor-humidity-solid-24-2" data-name="LUI-icon-pd-sensor-humidity-solid-24"><rect width="24" height="24" transform="translate(24) rotate(90)" fill="none"/><path d="M12,2S5,10.5,5,15c0,4,2,7,7,7s7-3,7-7C19,10.5,12,2,12,2ZM10.5,17A1.5,1.5,0,1,1,12,15.5,1.5,1.5,0,0,1,10.5,17ZM19,3a1,1,0,1,1-1-1A1,1,0,0,1,19,3ZM8,3.5A1.5,1.5,0,1,1,6.5,2,1.5,1.5,0,0,1,8,3.5Zm14,4A1.5,1.5,0,1,1,20.5,6,1.5,1.5,0,0,1,22,7.5ZM4,8A1,1,0,1,1,3,7,1,1,0,0,1,4,8Z"/></g></g></g></svg>