<svg xmlns="http://www.w3.org/2000/svg" viewBox="0 0 24 24"><title>LUI-icon-pd-walking-solid-24</title><g id="Layer_2" data-name="Layer 2"><g id="LUI-icon-pd-walking-solid-24"><g id="LUI-icon-pd-walking-solid-24-2" data-name="LUI-icon-pd-walking-solid-24"><rect width="24" height="24" fill="none"/><path d="M11.5,6A1.5,1.5,0,0,0,13,4.5v-1a1.5,1.5,0,0,0-3,0v1A1.5,1.5,0,0,0,11.5,6Zm2.91,5.41a2,2,0,0,0,1.42.59H19V10H16L13,7H9v6l.67,1L9,16,5,20l2,2,4-4,.62-1.25L16,22l2-2-5-6V10ZM7,7,5.59,8.41A2,2,0,0,0,5,9.83V13H7Z"/></g></g></g></svg>