<svg xmlns="http://www.w3.org/2000/svg" viewBox="0 0 24 24"><title>LUI-icon-pd-star-solid-24</title><g id="Layer_2" data-name="Layer 2"><g id="LUI-icon-pd-star-solid-24"><g id="LUI-icon-pd-star-solid-24-2" data-name="LUI-icon-pd-star-solid-24"><rect width="24" height="24" fill="none"/><path d="M9,9l1.8-6.11a1.22,1.22,0,0,1,.81-.81,1.25,1.25,0,0,1,1.57.81L15,9h5.76a1.27,1.27,0,0,1,1,.53,1.24,1.24,0,0,1-.3,1.74L17,14l1.83,6.37a1.22,1.22,0,0,1-.18,1.12,1.24,1.24,0,0,1-1.74.27L12,18,7.1,21.76a1.25,1.25,0,0,1-1.92-1.39L7,14l-4.5-2.73a1.12,1.12,0,0,1-.53-1A1.25,1.25,0,0,1,3.25,9Z"/></g></g></g></svg>