<svg xmlns="http://www.w3.org/2000/svg" viewBox="0 0 24 24"><title>LUI-icon-pd-color_palette-outline-24</title><g id="Layer_2" data-name="Layer 2"><g id="LUI-icon-pd-color_palette-outline-24"><g id="LUI-icon-pd-color_palette-outline-24-2" data-name="LUI-icon-pd-color_palette-outline-24"><g opacity="0"><rect width="24" height="24" fill="none"/></g><path d="M21.71,9.57a10,10,0,0,0-8-7.43A10.93,10.93,0,0,0,12,2,10,10,0,0,0,2,12.74,10.18,10.18,0,0,0,12.28,22a1.72,1.72,0,0,0,1.63-2.27l-.8-2.39A2,2,0,0,1,15,14.7a2.28,2.28,0,0,1,.44.05l4,.86a1.58,1.58,0,0,0,.43.05,2,2,0,0,0,1.94-1.53A10.2,10.2,0,0,0,21.71,9.57Zm-1.88,4.09h0l-4-.86a3.55,3.55,0,0,0-.86-.1,4,4,0,0,0-3.24,1.67,4,4,0,0,0-.55,3.6l.68,2A8.16,8.16,0,0,1,4,12.59,8,8,0,0,1,12,4a9.17,9.17,0,0,1,1.38.11,8,8,0,0,1,6.45,9.55ZM9,10.5A1.5,1.5,0,1,1,7.5,9,1.5,1.5,0,0,1,9,10.5ZM9,15a1,1,0,1,1-1-1A1,1,0,0,1,9,15Zm3.5-7.5A1.5,1.5,0,1,1,11,6,1.5,1.5,0,0,1,12.5,7.5Zm4.5,2A1.5,1.5,0,1,1,15.5,8,1.5,1.5,0,0,1,17,9.5Z"/></g></g></g></svg>