<svg xmlns="http://www.w3.org/2000/svg" viewBox="0 0 24 24"><title>LUI-icon-pd-weather-cloudy_day-outline-24</title><g id="Layer_2" data-name="Layer 2"><g id="LUI-icon-pd-weather-cloudy_day-outline-24"><g id="LUI-icon-pd-weather-cloudy_day-outline-24-2" data-name="LUI-icon-pd-weather-cloudy_day-outline-24"><rect width="24" height="24" transform="translate(0 24) rotate(-90)" fill="none"/><path d="M13,3V4.06a8.36,8.36,0,0,0-2,0V3a1,1,0,0,1,2,0Zm-5.66.93a1,1,0,0,0-.7-.29,1,1,0,0,0-.71.29,1,1,0,0,0,0,1.41l.72.72A7.72,7.72,0,0,1,8.31,4.9ZM21,11H19.94a8.36,8.36,0,0,1,0,2H21a1,1,0,0,0,0-2ZM19.07,4.93a1,1,0,0,0-1.41,0l-.75.75a7.84,7.84,0,0,1,1.41,1.41l.75-.75a1,1,0,0,0,.29-.7A1,1,0,0,0,19.07,4.93ZM18,18.5A3.51,3.51,0,0,1,14.5,22H2V20H14.5a1.5,1.5,0,0,0,0-3H12V16a1,1,0,0,0-1-1H7V13a1,1,0,0,0-1-1H2V10H6a3,3,0,0,1,3,3h2a3,3,0,0,1,2.83,2h.67A3.51,3.51,0,0,1,18,18.5ZM12,6A6,6,0,0,0,7.36,8.19,5,5,0,0,1,10.58,11H11a5,5,0,0,1,4,2,5.41,5.41,0,0,1,2.63,1A5.82,5.82,0,0,0,18,12,6,6,0,0,0,12,6Z"/></g></g></g></svg>