<svg xmlns="http://www.w3.org/2000/svg" viewBox="0 0 24 24"><title>LUI-icon-pd-weather-flood-solid-24</title><g id="Layer_2" data-name="Layer 2"><g id="LUI-icon-pd-weather-flood-solid-24"><g id="LUI-icon-pd-weather-flood-solid-24-2" data-name="LUI-icon-pd-weather-flood-solid-24"><rect width="24" height="24" fill="none"/><path d="M20,10H18v3.18a7.84,7.84,0,0,0-2-.26A8,8,0,0,0,12,14a8,8,0,0,0-4-1.08,7.84,7.84,0,0,0-2,.26V10H4l7.29-7.71a1,1,0,0,1,1.42,0L16,5.77V4h2V7.88Zm0,9.89a6,6,0,0,0-8,0,6,6,0,0,0-8,0A5.87,5.87,0,0,0,2,18.7v2.19a4.58,4.58,0,0,1,.75.56,1.7,1.7,0,0,0,2.5,0,4,4,0,0,1,5.5,0,1.7,1.7,0,0,0,2.5,0,4,4,0,0,1,5.5,0,1.7,1.7,0,0,0,2.5,0,4.58,4.58,0,0,1,.75-.56V18.7A5.87,5.87,0,0,0,20,19.89Zm0-4a6,6,0,0,0-8,0,6,6,0,0,0-8,0A5.87,5.87,0,0,0,2,14.7v2.19a4.58,4.58,0,0,1,.75.56,1.7,1.7,0,0,0,2.5,0,4,4,0,0,1,5.5,0,1.7,1.7,0,0,0,2.5,0,4,4,0,0,1,5.5,0,1.7,1.7,0,0,0,2.5,0,4.58,4.58,0,0,1,.75-.56V14.7A5.87,5.87,0,0,0,20,15.89Z"/></g></g></g></svg>