<svg xmlns="http://www.w3.org/2000/svg" viewBox="0 0 24 24"><title>LUI-icon-pd-weather-shower_day-outline-24</title><g id="Layer_2" data-name="Layer 2"><g id="LUI-icon-pd-weather-shower_day-outline-24"><g id="LUI-icon-pd-weather-shower_day-outline-24-2" data-name="LUI-icon-pd-weather-shower_day-outline-24"><rect width="24" height="24" transform="translate(0 24) rotate(-90)" fill="none"/><path d="M3,21H3a1,1,0,0,1-1-1V18a1,1,0,0,1,1-1H3a1,1,0,0,1,1,1v2A1,1,0,0,1,3,21Zm5,0V18a1,1,0,0,0-1-1H7a1,1,0,0,0-1,1v3a1,1,0,0,0,1,1H7A1,1,0,0,0,8,21Zm4-1V18a1,1,0,0,0-1-1h0a1,1,0,0,0-1,1v2a1,1,0,0,0,1,1h0A1,1,0,0,0,12,20ZM11,9H9A2,2,0,0,0,7,7H6A2,2,0,0,0,4,5H2V7H3A1,1,0,0,1,4,8V9H6a1,1,0,0,1,1,1v1h4a1,1,0,0,1,1,1h0a1,1,0,0,1-1,1H2v2h9a3,3,0,0,0,3-3h0A3,3,0,0,0,11,9Zm3-7a1,1,0,0,0-1,1V4.12a5.6,5.6,0,0,1,2,0V3A1,1,0,0,0,14,2Zm5.68,2.35a1,1,0,0,0-1.42,0l-.79.79a6,6,0,0,1,1.42,1.42l.79-.79A1,1,0,0,0,19.68,4.35ZM21.12,9H20a5.6,5.6,0,0,1,0,2h1.12a1,1,0,0,0,0-2Zm-1.44,5.54-.79-.79a6,6,0,0,1-1.42,1.42l.79.79a1,1,0,0,0,1.42-1.42ZM13.8,6A4.13,4.13,0,0,0,11,7.09a5.31,5.31,0,0,1,4.9,5.33v1.07a4.36,4.36,0,0,1,0,.51A4.3,4.3,0,0,0,18,10.28,4.24,4.24,0,0,0,13.8,6Z"/></g></g></g></svg>