<svg xmlns="http://www.w3.org/2000/svg" viewBox="0 0 24 24"><title>LUI-icon-pd-calendar_add-solid-24</title><g id="Layer_2" data-name="Layer 2"><g id="LUI-icon-pd-calendar_add-solid-24"><g id="LUI-icon-pd-calendar_add-solid-24-2" data-name="LUI-icon-pd-calendar_add-solid-24"><rect width="24" height="24" fill="none"/><path d="M20,16H18V14H16v2H14v2h2v2h2V18h2ZM18,4V2H16V4H8V2H6V4H2V20a2,2,0,0,0,2,2H14V20H12V14h2V12h6v2h2V4ZM9,18H6V16H9Zm0-4H6V12H9Zm0-4H6V8H9Zm5,0H11V8h3Zm4,0H16V8h2Zm2,12a2,2,0,0,0,2-2H20Z"/></g></g></g></svg>