<svg xmlns="http://www.w3.org/2000/svg" viewBox="0 0 24 24"><title>LUI-icon-pd-people-outline-24</title><g id="Layer_2" data-name="Layer 2"><g id="LUI-icon-pd-people-outline-24"><g id="LUI-icon-pd-people-outline-24-2" data-name="LUI-icon-pd-people-outline-24"><rect width="24" height="24" fill="none"/><path d="M14,8a2,2,0,0,1-4,0V7a2,2,0,0,1,4,0Zm6-4a2,2,0,0,0-4,0V5a2,2,0,0,0,4,0ZM8,4A2,2,0,0,0,4,4V5A2,2,0,0,0,8,5ZM4,11a1,1,0,0,1,1-1H7V8H5a3,3,0,0,0-3,3v7H4Zm18,0a3,3,0,0,0-3-3H17v2h2a1,1,0,0,1,1,1v7h2Zm-5,3.5V22H15V14.5a1,1,0,0,0-1-1H10a1,1,0,0,0-1,1V22H7V14.5a3,3,0,0,1,3-3h4A3,3,0,0,1,17,14.5Z" fill-rule="evenodd"/></g></g></g></svg>