<svg xmlns="http://www.w3.org/2000/svg" viewBox="0 0 24 24"><title>LUI-icon-pd-3D-solid-24</title><g id="Layer_2" data-name="Layer 2"><g id="LUI-icon-pd-3D-solid-24"><g id="LUI-icon-pd-3D-solid-24-2" data-name="LUI-icon-pd-3D-solid-24"><rect width="24" height="24" fill="none"/><path d="M11,7v3.59a1,1,0,0,1-.28.71L10,12l.7.69a1,1,0,0,1,.3.71V17a2,2,0,0,1-2,2H2V16H8V13H4V11H8V8H2V5H9A2,2,0,0,1,11,7Zm8-2a3,3,0,0,1,3,3v8a3,3,0,0,1-3,3H13V5Zm0,10V9a1,1,0,0,0-1-1H16v8h2A1,1,0,0,0,19,15Z"/></g></g></g></svg>