<svg xmlns="http://www.w3.org/2000/svg" viewBox="0 0 24 24"><title>LUI-icon-pd-weather-hurricane-outline-24</title><g id="Layer_2" data-name="Layer 2"><g id="LUI-icon-pd-weather-hurricane-outline-24"><g id="LUI-icon-pd-weather-hurricane-outline-24-2" data-name="LUI-icon-pd-weather-hurricane-outline-24"><rect width="24" height="24" transform="translate(0 24) rotate(-90)" fill="none"/><path d="M21.08,16.38a3.8,3.8,0,0,1-2.36.83A3.79,3.79,0,0,1,15,13.29l1.49-1.48a1,1,0,0,0,0-1.42,1,1,0,0,0-1.42,0l-1.48,1.49h-.15a3.77,3.77,0,0,1-2.94-6.13l0,0L9.06,7.1a6.71,6.71,0,0,0-1.7,6.61l1,3.37L5.71,19.71a1,1,0,0,1-1.42-1.42l.71-.7a1,1,0,0,0,0-1.42,1,1,0,0,0-1.41,0l-.71.71a3,3,0,0,0,4.24,4.24L9.75,18.5l3.37,1a6.58,6.58,0,0,0,1.86.26,6.71,6.71,0,0,0,4.75-2l1.36-1.37ZM9.28,13.16A5,5,0,0,1,9.1,12c.06.08.14.15.21.23a5.63,5.63,0,0,0,2.46,1.45L10,15.47Zm4.39,4.39-2.31-.67,1.83-1.82a5.8,5.8,0,0,0,1.45,2.46l.23.21A4.84,4.84,0,0,1,13.67,17.55ZM18.88,8H13a1,1,0,0,1-1-1h0a1,1,0,0,1,1-1h6a1,1,0,0,0,0-2H18a1,1,0,0,1-1-1h0a1,1,0,0,1,1-1h1a3,3,0,0,1,2.94,3.6A3.08,3.08,0,0,1,18.88,8ZM3,12H3a1,1,0,0,1-1-1H2a1,1,0,0,1,1-1H3a1,1,0,0,1,1,1H4A1,1,0,0,1,3,12ZM5,8H4A1,1,0,0,1,3,7H3A1,1,0,0,1,4,6H5A1,1,0,0,1,6,7H6A1,1,0,0,1,5,8Zm8-4H5A1,1,0,0,1,4,3H4A1,1,0,0,1,5,2h8a1,1,0,0,1,1,1h0A1,1,0,0,1,13,4Zm8,8H20a1,1,0,0,1-1-1h0a1,1,0,0,1,1-1h1a1,1,0,0,1,1,1h0A1,1,0,0,1,21,12Z"/></g></g></g></svg>