<svg xmlns="http://www.w3.org/2000/svg" viewBox="0 0 24 24"><title>LUI-icon-pd-rail_highspeed-solid-24</title><g id="Layer_2" data-name="Layer 2"><g id="LUI-icon-pd-rail_highspeed-solid-24"><g id="LUI-icon-pd-rail_highspeed-solid-24-2" data-name="LUI-icon-pd-rail_highspeed-solid-24"><rect width="24" height="24" fill="none"/><path d="M18,20v2H6V20Zm3-9v3a4,4,0,0,1-4,4H7a4,4,0,0,1-4-4V11.31A9.21,9.21,0,0,1,11.4,2,9,9,0,0,1,21,11ZM10,13H6v2h4Zm2-3c1,0,6-1,6-2,0-2-2.69-4-6-4S6,6,6,8C6,9,11,10,12,10Zm6,3H14v2h4Z"/></g></g></g></svg>