<svg xmlns="http://www.w3.org/2000/svg" viewBox="0 0 24 24"><title>LUI-icon-pd-weather-cloudy_night-outline-24</title><g id="Layer_2" data-name="Layer 2"><g id="LUI-icon-pd-weather-cloudy_night-outline-24"><g id="LUI-icon-pd-weather-cloudy_night-outline-24-2" data-name="LUI-icon-pd-weather-cloudy_night-outline-24"><rect width="24" height="24" transform="translate(0 24) rotate(-90)" fill="none"/><path d="M21.94,11a6.65,6.65,0,0,1-1.89,2.46,6.4,6.4,0,0,1-1.76,1A5.55,5.55,0,0,0,15,13a5,5,0,0,0-4-2h-.42A5,5,0,0,0,9.05,9,6.76,6.76,0,0,1,11,3.44a6.44,6.44,0,0,1,2-1.38.61.61,0,0,1,.81.81,5.54,5.54,0,0,0,7.35,7.35A.61.61,0,0,1,21.94,11ZM14.5,15h-.67A3,3,0,0,0,11,13H9a3,3,0,0,0-3-3H2v2H6a1,1,0,0,1,1,1v2h4a1,1,0,0,1,1,1v1h2.5a1.5,1.5,0,0,1,0,3H2v2H14.5a3.5,3.5,0,0,0,0-7Z"/></g></g></g></svg>