<svg xmlns="http://www.w3.org/2000/svg" viewBox="0 0 24 24"><title>LUI-icon-pd-bus_local-solid-24</title><g id="Layer_2" data-name="Layer 2"><g id="LUI-icon-pd-bus_local-solid-24"><g id="LUI-icon-pd-bus_local-solid-24-2" data-name="LUI-icon-pd-bus_local-solid-24"><rect width="24" height="24" fill="none"/><path d="M20,6V4a2,2,0,0,0-2-2H6A2,2,0,0,0,4,4V6H2v4H4V20a2,2,0,0,0,2,2H9a1,1,0,0,0,1-1V20h4v1a1,1,0,0,0,1,1h3a2,2,0,0,0,2-2V10h2V6ZM10,18H6V16h4Zm8,0H14V16h4Zm0-4H6V8H18Zm0-8H6V4H18Z"/></g></g></g></svg>