<svg xmlns="http://www.w3.org/2000/svg" viewBox="0 0 24 24"><title>LUI-icon-pd-compass-outline-24</title><g id="Layer_2" data-name="Layer 2"><g id="LUI-icon-pd-compass-outline-24"><g id="LUI-icon-pd-compass-outline-24-2" data-name="LUI-icon-pd-compass-outline-24"><rect width="24" height="24" fill="none"/><path d="M12.71,12.71a1,1,0,1,1,0-1.42A1,1,0,0,1,12.71,12.71ZM9.88,9.88,7.76,16.24l6.36-2.12,2.12-6.36Zm9.19-5L15.54,15.54,4.93,19.07,8.46,8.46,19.07,4.93Zm0,14.14A10,10,0,0,1,6.82,20.55l2.78-.93a8,8,0,0,0,10-10l.93-2.78A10,10,0,0,1,19.07,19.07ZM6.34,6.34a8,8,0,0,0-2,8.06l-.93,2.78A10,10,0,0,1,17.18,3.45l-2.78.93A8,8,0,0,0,6.34,6.34Z" fill-rule="evenodd"/></g></g></g></svg>