<svg xmlns="http://www.w3.org/2000/svg" viewBox="0 0 24 24"><title>LUI-icon-pd-weather-stormy_night-solid-24</title><g id="Layer_2" data-name="Layer 2"><g id="LUI-icon-pd-weather-stormy_night-solid-24"><g id="LUI-icon-pd-weather-stormy_night-solid-24-2" data-name="LUI-icon-pd-weather-stormy_night-solid-24"><rect width="24" height="24" transform="translate(0 24) rotate(-90)" fill="none"/><path d="M14,12a3,3,0,0,1-3,3h-.23l.13-.37L11.77,12H4.56L4.1,13.37,3.56,15H2V5H4A2,2,0,0,1,6,7H7A2,2,0,0,1,9,9h2A3,3,0,0,1,14,12ZM7,19v3l4-3V17H8l1-3H6L5,17v2ZM22,9a5.27,5.27,0,0,1-1.46,1.89,5.21,5.21,0,0,1-4.51,1A5,5,0,0,0,12,7.1a5.13,5.13,0,0,1,1.51-4A5.41,5.41,0,0,1,15,2a.48.48,0,0,1,.63.63,4.27,4.27,0,0,0,5.65,5.66A.47.47,0,0,1,22,9Z"/></g></g></g></svg>