<svg xmlns="http://www.w3.org/2000/svg" viewBox="0 0 24 24"><title>LUI-icon-pd-north-solid-24</title><g id="Layer_2" data-name="Layer 2"><g id="LUI-icon-pd-north-solid-24"><g id="LUI-icon-pd-north-solid-24-2" data-name="LUI-icon-pd-north-solid-24"><rect width="24" height="24" fill="none"/><path d="M9,12l3,6,3-6ZM12,2l5,10L12,22,7,12,12,2ZM22,12a10,10,0,0,1-7.62,9.71l1.31-2.62a8,8,0,0,0,0-14.18L14.38,2.29A10,10,0,0,1,22,12ZM4,12a8,8,0,0,0,4.31,7.09l1.31,2.62a10,10,0,0,1,0-19.42L8.31,4.91A8,8,0,0,0,4,12Z" fill-rule="evenodd"/></g></g></g></svg>