<svg xmlns="http://www.w3.org/2000/svg" viewBox="0 0 24 24"><title>LUI-icon-pd-weather-rain_freezing-solid-24</title><g id="Layer_2" data-name="Layer 2"><g id="LUI-icon-pd-weather-rain_freezing-solid-24"><g id="LUI-icon-pd-weather-rain_freezing-solid-24-2" data-name="LUI-icon-pd-weather-rain_freezing-solid-24"><rect width="24" height="24" transform="translate(0 24) rotate(-90)" fill="none"/><path d="M19,14H5a3,3,0,0,1-3-3V10A3,3,0,0,1,4,7.17V6A4,4,0,0,1,8,2H9a4,4,0,0,1,3.87,3H14a3,3,0,0,1,2.83,2H19a3,3,0,0,1,3,3v1A3,3,0,0,1,19,14Zm-1,8,2-6H16Zm-6-1,2-5H10ZM6,19l2-3H4Z"/></g></g></g></svg>