<svg xmlns="http://www.w3.org/2000/svg" viewBox="0 0 24 24"><title>LUI-icon-pd-weather-clear_night-outline-24</title><g id="Layer_2" data-name="Layer 2"><g id="LUI-icon-pd-weather-clear_night-outline-24"><g id="LUI-icon-pd-weather-clear_night-outline-24-2" data-name="LUI-icon-pd-weather-clear_night-outline-24"><rect width="24" height="24" fill="none"/><path d="M15,4,14,5l.5,1.5L13,5.5l-1.5,1L12,5,11,4h1.5L13,2.5,13.5,4Zm6,8.5-.75-2.75L22,8H19.5l-1-2.5L17.5,8H15l1.75,1.75L16,12.5,18.5,11ZM6.7,5.41a10.55,10.55,0,0,0,3,8.93,10.44,10.44,0,0,0,7.44,3.09,10.53,10.53,0,0,0,1.48-.11,8.14,8.14,0,0,1-.85.81A8.43,8.43,0,0,1,6.47,5.62l.23-.21M8.5,2a1,1,0,0,0-.4.09A10.43,10.43,0,1,0,21.91,15.9a1,1,0,0,0-.86-1.34.92.92,0,0,0-.39.09,8.45,8.45,0,0,1-3.55.78A8.53,8.53,0,0,1,9.36,3.34,1,1,0,0,0,8.5,2Z"/></g></g></g></svg>