<svg xmlns="http://www.w3.org/2000/svg" viewBox="0 0 24 24"><title>LUI-icon-pd-weather-clear_night-solid-24</title><g id="Layer_2" data-name="Layer 2"><g id="LUI-icon-pd-weather-clear_night-solid-24"><g id="LUI-icon-pd-weather-clear_night-solid-24-2" data-name="LUI-icon-pd-weather-clear_night-solid-24"><rect width="24" height="24" fill="none"/><path d="M15,4,14,5l.5,1.5L13,5.5l-1.5,1L12,5,11,4h1.5L13,2.5,13.5,4Zm6,8.47-.75-2.75L22,8H19.5l-1-2.5L17.5,8H15l1.75,1.75L16,12.47,18.5,11Zm-.34,2.18A8.53,8.53,0,0,1,9.36,3.34,1,1,0,0,0,8.1,2.09,10.43,10.43,0,1,0,21.91,15.9,1,1,0,0,0,20.66,14.65Z"/></g></g></g></svg>