<svg xmlns="http://www.w3.org/2000/svg" viewBox="0 0 24 24"><title>LUI-icon-pd-driving-outline-24</title><g id="Layer_2" data-name="Layer 2"><g id="LUI-icon-pd-driving-outline-24"><g id="LUI-icon-pd-driving-outline-24-2" data-name="LUI-icon-pd-driving-outline-24"><rect width="24" height="24" fill="none"/><path d="M22,8H19.45l-.86-1.18A2,2,0,0,0,16.93,6H7.07a2,2,0,0,0-1.66.82L4.55,8H2v2H3.1l-.77,1.06a1.64,1.64,0,0,0-.33,1V17a2,2,0,0,0,2,2H7a1,1,0,0,0,1-1V17h8v1a1,1,0,0,0,1,1h3a2,2,0,0,0,2-2V12.06a1.64,1.64,0,0,0-.33-1L20.9,10H22Zm-2,9H18V15H6v2H4V12.16l.71-1L7,8H17l2.33,3.18.71,1ZM7.5,11,6,13H18l-1.5-2Z"/></g></g></g></svg>