<svg xmlns="http://www.w3.org/2000/svg" viewBox="0 0 24 24"><title>LUI-icon-pd-weather-clear_day-outline-24</title><g id="Layer_2" data-name="Layer 2"><g id="LUI-icon-pd-weather-clear_day-outline-24"><g id="LUI-icon-pd-weather-clear_day-outline-24-2" data-name="LUI-icon-pd-weather-clear_day-outline-24"><rect width="24" height="24" fill="none"/><path d="M13,3V6.09a5.6,5.6,0,0,0-2,0V3a1,1,0,0,1,2,0ZM11,17.91V21a1,1,0,0,0,2,0V17.91a5.6,5.6,0,0,1-2,0ZM3,11a1,1,0,0,0,0,2H6.09a5.6,5.6,0,0,1,0-2Zm18,0H17.91a5.6,5.6,0,0,1,0,2H21a1,1,0,0,0,0-2ZM4.93,4.93a1,1,0,0,0,0,1.41L7.12,8.53A5.56,5.56,0,0,1,8.53,7.12L6.34,4.93A1,1,0,0,0,4.93,4.93ZM19.07,17.66l-2.18-2.18a6.29,6.29,0,0,1-1.41,1.41l2.18,2.18a1,1,0,0,0,.7.29,1,1,0,0,0,.71-.29A1,1,0,0,0,19.07,17.66ZM7.12,15.48,4.93,17.66a1,1,0,0,0-.29.7,1,1,0,0,0,.29.71,1,1,0,0,0,1.41,0l2.19-2.18A5.56,5.56,0,0,1,7.12,15.48Zm12-10.55a1,1,0,0,0-1.41,0L15.48,7.12a5.56,5.56,0,0,1,1.41,1.41l2.18-2.19A1,1,0,0,0,19.07,4.93ZM12,10a2,2,0,1,0,2,2,2,2,0,0,0-2-2m0-2a4,4,0,1,1-4,4,4,4,0,0,1,4-4Z"/></g></g></g></svg>