<svg xmlns="http://www.w3.org/2000/svg" viewBox="0 0 24 24"><title>LUI-icon-pd-voicecommand-outline-24</title><g id="Layer_2" data-name="Layer 2"><g id="LUI-icon-pd-voicecommand-outline-24"><g id="LUI-icon-pd-voicecommand-outline-24-2" data-name="LUI-icon-pd-voicecommand-outline-24"><rect width="24" height="24" fill="none"/><path d="M18,9.55a6,6,0,0,0-2.29-4.71L14.28,6.27a4,4,0,0,1,0,6.56l1.43,1.43A6,6,0,0,0,18,9.55Zm4,0A10,10,0,0,0,18.55,2L17.13,3.42a8,8,0,0,1,0,12.26l1.42,1.42A10,10,0,0,0,22,9.55ZM6,5A2,2,0,0,1,8,7v3a2,2,0,0,1-4,0V7A2,2,0,0,1,6,5M6,3A4,4,0,0,0,2,7v3a4,4,0,0,0,8,0V7A4,4,0,0,0,6,3Zm5,13H2v2h9a1,1,0,0,1,1,1v3h2V19A3,3,0,0,0,11,16Z"/></g></g></g></svg>