<svg xmlns="http://www.w3.org/2000/svg" viewBox="0 0 24 24"><title>LUI-icon-pd-settings-solid-24</title><g id="Layer_2" data-name="Layer 2"><g id="LUI-icon-pd-settings-solid-24"><g id="LUI-icon-pd-settings-solid-24-2" data-name="LUI-icon-pd-settings-solid-24"><rect width="24" height="24" fill="none"/><path d="M14,2H10L9.39,4.44A8.16,8.16,0,0,0,6.74,6L4.33,5.3l-2,3.46,1.81,1.75a7.89,7.89,0,0,0,0,3.06L2.35,15.32l2,3.46,2.46-.7a8,8,0,0,0,2.61,1.49L10,22h4l.63-2.51A7.87,7.87,0,0,0,17.24,18l2.47.71,2-3.47-1.85-1.79A8.1,8.1,0,0,0,20,12a7.41,7.41,0,0,0-.15-1.5l1.84-1.78-2-3.46L17.24,6a8.12,8.12,0,0,0-2.63-1.52L14,2ZM12,16a4,4,0,1,1,4-4,4,4,0,0,1-4,4Z"/></g></g></g></svg>