<svg xmlns="http://www.w3.org/2000/svg" viewBox="0 0 24 24"><title>LUI-icon-pd-microphone-outline-24</title><g id="Layer_2" data-name="Layer 2"><g id="LUI-icon-pd-microphone-outline-24"><g id="LUI-icon-pd-microphone-outline-24-2" data-name="LUI-icon-pd-microphone-outline-24"><rect width="24" height="24" fill="none"/><path d="M15,2H9A2,2,0,0,0,7,4v9a3,3,0,0,0,3,3h4a3,3,0,0,0,3-3V4A2,2,0,0,0,15,2Zm0,11a1,1,0,0,1-1,1H10a1,1,0,0,1-1-1V10h6ZM9,8V4h6V8Zm12,5a7,7,0,0,1-7,7v2H10V20a7,7,0,0,1-7-7H5a5,5,0,0,0,5,5h4a5,5,0,0,0,5-5Z"/></g></g></g></svg>