<svg xmlns="http://www.w3.org/2000/svg" viewBox="0 0 24 24"><title>LUI-icon-pd-report-outline-24</title><g id="Layer_2" data-name="Layer 2"><g id="LUI-icon-pd-report-outline-24"><g id="LUI-icon-pd-report-outline-24-2" data-name="LUI-icon-pd-report-outline-24"><rect width="24" height="24" fill="none"/><path d="M9,8v8.32l.1.31L10.23,20H8.35L6.86,16.26,6.35,15H4V8H9m2-2H4A2,2,0,0,0,2,8v7a2,2,0,0,0,2,2H5l2,5h6l-2-6V6Zm9-1.06V17.06a15,15,0,0,0-5-2.79V7.73a15,15,0,0,0,5-2.79M21,2a1,1,0,0,0-.47.12C18.92,3,16.16,6,13,6V16c3.16,0,5.92,3,7.53,3.88A1,1,0,0,0,22,19V3a1,1,0,0,0-1-1Z"/></g></g></g></svg>