<svg xmlns="http://www.w3.org/2000/svg" viewBox="0 0 24 24"><title>LUI-icon-pd-compass-solid-24</title><g id="Layer_2" data-name="Layer 2"><g id="LUI-icon-pd-compass-solid-24"><g id="LUI-icon-pd-compass-solid-24-2" data-name="LUI-icon-pd-compass-solid-24"><rect width="24" height="24" fill="none"/><path d="M19.07,4.93,8.46,8.46,4.93,19.07l10.61-3.53Zm-7.78,7.78a1,1,0,1,1,1.42,0A1,1,0,0,1,11.29,12.71Zm9.26-5.89L19.62,9.6a8,8,0,0,1-10,10l-2.78.93A10,10,0,0,0,20.55,6.82ZM14.4,4.38l2.78-.93A10,10,0,0,0,3.45,17.18l.93-2.78a8,8,0,0,1,10-10Z"/></g></g></g></svg>