<svg xmlns="http://www.w3.org/2000/svg" viewBox="0 0 24 24"><title>LUI-icon-pd-camera_orbit-outline-24</title><g id="Layer_2" data-name="Layer 2"><g id="LUI-icon-pd-camera_orbit-outline-24"><g id="LUI-icon-pd-camera_orbit-outline-24-2" data-name="LUI-icon-pd-camera_orbit-outline-24"><rect width="24" height="24" fill="none"/><path d="M17,17v4a1,1,0,0,1-1,1H8a1,1,0,0,1-1-1V17h4L9,15V13h6v2l-2,2ZM12,5a2,2,0,1,0,2,2A2,2,0,0,0,12,5ZM22,7a10,10,0,0,1-2.93,7.07l-1.42-1.42A8,8,0,0,0,19,3.12l1.75-1A10,10,0,0,1,22,7ZM4,7a8,8,0,0,0,2.35,5.65L4.93,14.07A10,10,0,0,1,3.26,2.14L5,3.12A8,8,0,0,0,4,7Z"/></g></g></g></svg>