<svg xmlns="http://www.w3.org/2000/svg" viewBox="0 0 24 24"><title>LUI-icon-pd-image-outline-24</title><g id="Layer_2" data-name="Layer 2"><g id="LUI-icon-pd-image-outline-24"><g id="LUI-icon-pd-image-outline-24-2" data-name="LUI-icon-pd-image-outline-24"><rect width="24" height="24" fill="none"/><path d="M20,4V20H4V4H20m2-2H2V20a2,2,0,0,0,2,2H20a2,2,0,0,0,2-2V2ZM11,7.5A1.5,1.5,0,1,1,9.5,6,1.5,1.5,0,0,1,11,7.5Zm4.89,2.05a1,1,0,0,0-1.78,0L12,14l-1.37-1.41a2,2,0,0,0-3,.21L6,15v2H8V15.64L9.19,14l1.37,1.41A2,2,0,0,0,12,16h0a2,2,0,0,0,1.81-1.15L15,12.34l1,2.11V17h2V14Z"/></g></g></g></svg>