<svg xmlns="http://www.w3.org/2000/svg" viewBox="0 0 24 24"><title>LUI-icon-pd-color_invert_A-solid-24</title><g id="Layer_2" data-name="Layer 2"><g id="LUI-icon-pd-color_invert_A-solid-24"><g id="LUI-icon-pd-color_invert_A-solid-24-2" data-name="LUI-icon-pd-color_invert_A-solid-24"><rect width="24" height="24" fill="none"/><path d="M15.5,5s-1.13,1.22-2.45,2.94A45,45,0,0,0,8.5,2S2,9,2,13.05,5,19,8.5,19a9,9,0,0,0,1.17-.08A6.28,6.28,0,0,0,15.5,22C19,22,22,20,22,16.05S15.5,5,15.5,5Zm0,15a4.77,4.77,0,0,1-3.84-1.63A3.88,3.88,0,0,1,11,16.05c0-1.44,1.43-3.9,3.1-6.19.45-.63.93-1.24,1.4-1.81,2.19,2.67,4.5,6.17,4.5,8C20,19.72,16.56,20,15.5,20Zm.5-3.5A1.5,1.5,0,1,1,14.5,15,1.5,1.5,0,0,1,16,16.5Z"/></g></g></g></svg>