<svg xmlns="http://www.w3.org/2000/svg" viewBox="0 0 24 24"><title>LUI-icon-pd-traffic_off-outline-24</title><g id="Layer_2" data-name="Layer 2"><g id="LUI-icon-pd-traffic_off-outline-24"><g id="LUI-icon-pd-traffic_off-outline-24-2" data-name="LUI-icon-pd-traffic_off-outline-24"><rect width="24" height="24" fill="none"/><path d="M2,14v2H3.75l2-2Zm8,4.25V20H8.25L6.43,21.82A1,1,0,0,0,7,22h3a2,2,0,0,0,2-2V16.25ZM7.72,12l1.43-1.44-.56-.77A2,2,0,0,0,6.93,9H2v2H7ZM2,14v2H3.75l2-2Zm0,0v2H3.75l2-2Zm14.5-2h-.24l-2,2H18ZM22,9H19.45l-.08-.11-1.44,1.44,1.36,1.85.71,1V18H18V16H14v2h2v1a1,1,0,0,0,1,1h3a2,2,0,0,0,2-2V13.06a1.64,1.64,0,0,0-.33-1L20.9,11H22Zm-5.5,3h-.24l-2,2H18Zm0,0h-.24l-2,2H18Zm-1-7.73L14.74,5H13.49l-.37-.55A1,1,0,0,0,12.28,4H5.72a1,1,0,0,0-.84.45L4.51,5H2L3.59,2.82A2,2,0,0,1,5.25,2h7.5a2,2,0,0,1,1.66.82L15.27,4ZM3.43,22,2,20.57,20.57,2,22,3.43ZM11,9l2-2H9Z"/></g></g></g></svg>