<svg xmlns="http://www.w3.org/2000/svg" viewBox="0 0 24 24"><title>LUI-icon-pd-view_center-outline-24</title><g id="Layer_2" data-name="Layer 2"><g id="LUI-icon-pd-view_center-outline-24"><g id="LUI-icon-pd-view_center-outline-24-2" data-name="LUI-icon-pd-view_center-outline-24"><rect width="24" height="24" fill="none"/><path d="M12,2A10,10,0,1,0,22,12,10,10,0,0,0,12,2Zm1,17.93V16H11v3.93A8,8,0,0,1,4.07,13H8V11H4.07A8,8,0,0,1,11,4.07V8h2V4.07A8,8,0,0,1,19.93,11H16v2h3.93A8,8,0,0,1,13,19.93ZM12,10a2,2,0,1,0,2,2A2,2,0,0,0,12,10Z"/></g></g></g></svg>