<svg xmlns="http://www.w3.org/2000/svg" viewBox="0 0 24 24"><title>LUI-icon-pd-tracker-outline-24</title><g id="Layer_2" data-name="Layer 2"><g id="LUI-icon-pd-tracker-outline-24"><g id="LUI-icon-pd-tracker-outline-24-2" data-name="LUI-icon-pd-tracker-outline-24"><rect width="24" height="24" fill="none"/><path d="M12,12a.33.33,0,0,1,.24.09l3.7,3.7a.36.36,0,0,1,0,.48l-3.7,3.7a.36.36,0,0,1-.48,0l-3.7-3.7a.36.36,0,0,1,0-.48l3.7-3.7A.33.33,0,0,1,12,12m0-2a2.31,2.31,0,0,0-1.65.68l-3.7,3.7a2.34,2.34,0,0,0,0,3.3l3.7,3.7a2.34,2.34,0,0,0,3.3,0l3.7-3.7a2.34,2.34,0,0,0,0-3.3l-3.7-3.7A2.31,2.31,0,0,0,12,10Zm0,7.53A1.5,1.5,0,1,1,13.5,16,1.51,1.51,0,0,1,12,17.5ZM12,6A6,6,0,0,0,7.29,8.29L8.72,9.72a4,4,0,0,1,6.56,0l1.43-1.43A6,6,0,0,0,12,6Zm0-4A10,10,0,0,0,4.45,5.45L5.87,6.87a8,8,0,0,1,12.26,0l1.42-1.42A10,10,0,0,0,12,2Z"/></g></g></g></svg>