<svg xmlns="http://www.w3.org/2000/svg" viewBox="0 0 24 24"><title>LUI-icon-pd-select_section-outline-24</title><g id="Layer_2" data-name="Layer 2"><g id="LUI-icon-pd-select_section-outline-24"><g id="LUI-icon-pd-select_section-outline-24-2" data-name="LUI-icon-pd-select_section-outline-24"><rect width="24" height="24" transform="translate(24 24) rotate(180)" fill="none"/><path d="M20,2H13v9h9V4A2,2,0,0,0,20,2Zm0,7H15V4h5ZM13,22h7a2,2,0,0,0,2-2V13H13Zm2-7h5v5H15ZM2,20a2,2,0,0,0,2,2h7V13H2Zm2-5H9v5H4ZM7.66,2,2,7.68v2.84L10.49,2ZM4,2A2,2,0,0,0,2,4v.83L4.83,2Zm7,9V10l-1,1ZM7.18,11,11,7.16V4.32L4.35,11Z"/></g></g></g></svg>