<svg xmlns="http://www.w3.org/2000/svg" viewBox="0 0 24 24"><title>LUI-icon-pd-east-solid-24</title><g id="Layer_2" data-name="Layer 2"><g id="LUI-icon-pd-east-solid-24"><g id="LUI-icon-pd-east-solid-24-2" data-name="LUI-icon-pd-east-solid-24"><rect width="24" height="24" fill="none"/><path d="M12,9,6,12l6,3Zm10,3L12,17,2,12,12,7l10,5ZM12,22a10,10,0,0,1-9.71-7.62l2.62,1.31a8,8,0,0,0,14.18,0l2.62-1.31A10,10,0,0,1,12,22ZM12,4A8,8,0,0,0,4.91,8.31L2.29,9.62a10,10,0,0,1,19.42,0L19.09,8.31A8,8,0,0,0,12,4Z" fill-rule="evenodd"/></g></g></g></svg>