<svg xmlns="http://www.w3.org/2000/svg" viewBox="0 0 24 24"><title>LUI-icon-pd-weather-hurricane-solid-24</title><g id="Layer_2" data-name="Layer 2"><g id="LUI-icon-pd-weather-hurricane-solid-24"><g id="LUI-icon-pd-weather-hurricane-solid-24-2" data-name="LUI-icon-pd-weather-hurricane-solid-24"><rect width="24" height="24" transform="translate(0 24) rotate(-90)" fill="none"/><path d="M21.94,5.6A3,3,0,0,0,19,2H18a1,1,0,0,0-1,1h0a1,1,0,0,0,1,1h1a1,1,0,0,1,0,2H13a1,1,0,0,0-1,1h0a1,1,0,0,0,1,1h5.88A3.08,3.08,0,0,0,21.94,5.6ZM4,11H4a1,1,0,0,0-1-1H3a1,1,0,0,0-1,1H2a1,1,0,0,0,1,1H3A1,1,0,0,0,4,11ZM6,7H6A1,1,0,0,0,5,6H4A1,1,0,0,0,3,7H3A1,1,0,0,0,4,8H5A1,1,0,0,0,6,7Zm8-4h0a1,1,0,0,0-1-1H5A1,1,0,0,0,4,3H4A1,1,0,0,0,5,4h8A1,1,0,0,0,14,3Zm8,8h0a1,1,0,0,0-1-1H20a1,1,0,0,0-1,1h0a1,1,0,0,0,1,1h1A1,1,0,0,0,22,11Zm-.92,5.38a3.8,3.8,0,0,1-2.36.83A3.79,3.79,0,0,1,15,13.29l1.49-1.48a1,1,0,0,0,0-1.42,1,1,0,0,0-1.42,0l-1.48,1.49h-.15a3.77,3.77,0,0,1-2.94-6.13l0,0L9.06,7.1a6.71,6.71,0,0,0-1.7,6.61l1,3.37L5.71,19.71a1,1,0,0,1-1.42-1.42l.71-.7a1,1,0,0,0,0-1.42,1,1,0,0,0-1.41,0l-.71.71a3,3,0,0,0,4.24,4.24L9.75,18.5l3.37,1a6.58,6.58,0,0,0,1.86.26,6.71,6.71,0,0,0,4.75-2l1.36-1.37Z"/></g></g></g></svg>