<svg xmlns="http://www.w3.org/2000/svg" viewBox="0 0 24 24"><title>LUI-icon-pd-weather-stormy_night-outline-24</title><g id="Layer_2" data-name="Layer 2"><g id="LUI-icon-pd-weather-stormy_night-outline-24"><g id="LUI-icon-pd-weather-stormy_night-outline-24-2" data-name="LUI-icon-pd-weather-stormy_night-outline-24"><rect width="24" height="24" transform="translate(0 24) rotate(-90)" fill="none"/><path d="M2,13H4.22l-.12.37L3.56,15H2Zm9-4H9A2,2,0,0,0,7,7H6A2,2,0,0,0,4,5H2V7H3A1,1,0,0,1,4,8V9H6a1,1,0,0,1,1,1v1h4a1,1,0,0,1,1,1,1,1,0,0,1-.52.87l-.58,1.76-.13.37H11a3,3,0,0,0,0-6ZM7,19v3l4-3V17H8l1-3H6L5,17v2ZM22,9a5.27,5.27,0,0,1-1.46,1.89,5.21,5.21,0,0,1-4.51,1A5,5,0,0,0,12,7.1a5.13,5.13,0,0,1,1.51-4A5.41,5.41,0,0,1,15,2a.48.48,0,0,1,.63.63,4.27,4.27,0,0,0,5.65,5.66A.47.47,0,0,1,22,9Z"/></g></g></g></svg>