<svg xmlns="http://www.w3.org/2000/svg" viewBox="0 0 24 24"><title>LUI-icon-pd-south-outline-24</title><g id="Layer_2" data-name="Layer 2"><g id="LUI-icon-pd-south-outline-24"><g id="LUI-icon-pd-south-outline-24-2" data-name="LUI-icon-pd-south-outline-24"><rect width="24" height="24" fill="none"/><path d="M15,12,12,6,9,12ZM12,22,7,12,12,2l5,10L12,22ZM2,12A10,10,0,0,1,9.62,2.29L8.31,4.91a8,8,0,0,0,0,14.18l1.31,2.62A10,10,0,0,1,2,12Zm18,0a8,8,0,0,0-4.31-7.09L14.38,2.29a10,10,0,0,1,0,19.42l1.31-2.62A8,8,0,0,0,20,12Z" fill-rule="evenodd"/></g></g></g></svg>