<svg xmlns="http://www.w3.org/2000/svg" viewBox="0 0 24 24"><title>LUI-icon-pd-west-outline-24</title><g id="Layer_2" data-name="Layer 2"><g id="LUI-icon-pd-west-outline-24"><g id="LUI-icon-pd-west-outline-24-2" data-name="LUI-icon-pd-west-outline-24"><rect width="24" height="24" fill="none"/><path d="M12,15l6-3L12,9ZM2,12,12,7l10,5L12,17,2,12ZM12,2a10,10,0,0,1,9.71,7.62L19.09,8.31a8,8,0,0,0-14.18,0L2.29,9.62A10,10,0,0,1,12,2Zm0,18a8,8,0,0,0,7.09-4.31l2.62-1.31a10,10,0,0,1-19.42,0l2.62,1.31A8,8,0,0,0,12,20Z" fill-rule="evenodd"/></g></g></g></svg>