<svg xmlns="http://www.w3.org/2000/svg" viewBox="0 0 24 24"><title>LUI-icon-pd-resize-outline-24</title><g id="Layer_2" data-name="Layer 2"><g id="LUI-icon-pd-resize-outline-24"><g id="LUI-icon-pd-resize-outline-24-2" data-name="LUI-icon-pd-resize-outline-24"><rect width="24" height="24" fill="none"/><path d="M18,6v6H16V9.39L11.7,13.7l-1.42-1.41L14.57,8H12V6Zm3-4H3A1,1,0,0,0,2,3V4H20V22h1a1,1,0,0,0,1-1V3A1,1,0,0,0,21,2ZM8,16H4v4H8V16m1-2a1,1,0,0,1,1,1v6a1,1,0,0,1-1,1H3a1,1,0,0,1-1-1V15a1,1,0,0,1,1-1Zm1-6H3A1,1,0,0,0,2,9v1h8Zm6,13V14H14v8h1A1,1,0,0,0,16,21Z"/></g></g></g></svg>