<svg xmlns="http://www.w3.org/2000/svg" viewBox="0 0 24 24"><title>LUI-icon-pd-elevator-outline-24</title><g id="Layer_2" data-name="Layer 2"><g id="LUI-icon-pd-elevator-outline-24"><g id="LUI-icon-pd-elevator-outline-24-2" data-name="LUI-icon-pd-elevator-outline-24"><rect width="24" height="24" fill="none"/><path d="M9,10V20H4V10H9m2-2H4a2,2,0,0,0-2,2V20a2,2,0,0,0,2,2h7V8Zm9,2V20H15V10h5m0-2H13V22h7a2,2,0,0,0,2-2V10a2,2,0,0,0-2-2ZM5,5,6,6,8,4l2,2,1-1L8,2ZM19,3,18,2,16,4,14,2,13,3l3,3Z"/></g></g></g></svg>