<svg xmlns="http://www.w3.org/2000/svg" viewBox="0 0 24 24"><title>LUI-icon-pd-device_group_smart-filter-solid-24</title><g id="Layer_2" data-name="Layer 2"><g id="LUI-icon-pd-device_group_smart-filter-solid-24"><g id="LUI-icon-pd-device_group_smart-filter-solid-24-2" data-name="LUI-icon-pd-device_group_smart-filter-solid-24"><rect width="24" height="24" fill="none"/><path d="M2,12v3a2,2,0,0,0,2,2V14h7V12Zm16,0-.8.6L15.33,14H20v3a2,2,0,0,0,2-2V12ZM6,16v4a2,2,0,0,0,2,2h8a2,2,0,0,0,2-2V16ZM7.29,8.29,8.72,9.72A4,4,0,0,1,12,8V6A6,6,0,0,0,7.29,8.29ZM12,2A10,10,0,0,0,4.45,5.45L5.87,6.87A8,8,0,0,1,12,4l.55,0,.55-1.65.1-.3A9.44,9.44,0,0,0,12,2Zm2,6V6l1-3h3L17,6h3V8l-4,3V8Z"/></g></g></g></svg>