<svg xmlns="http://www.w3.org/2000/svg" viewBox="0 0 24 24"><title>LUI-icon-pd-color_invert_B-outline-24</title><g id="Layer_2" data-name="Layer 2"><g id="LUI-icon-pd-color_invert_B-outline-24"><g id="LUI-icon-pd-color_invert_B-outline-24-2" data-name="LUI-icon-pd-color_invert_B-outline-24"><rect width="24" height="24" fill="none"/><path d="M15.5,5s-1.13,1.22-2.45,2.94A45,45,0,0,0,8.5,2S2,9,2,13.05,5,19,8.5,19a9,9,0,0,0,1.17-.08A6.28,6.28,0,0,0,15.5,22C19,22,22,20,22,16.05S15.5,5,15.5,5ZM9,16.05a6.77,6.77,0,0,0,.06.92L8.5,17C7.44,17,4,16.72,4,13.05c0-1.83,2.31-5.32,4.5-8a36.92,36.92,0,0,1,3.27,4.64C10.32,11.8,9,14.22,9,16.05ZM14.5,18A1.5,1.5,0,1,1,16,16.5,1.51,1.51,0,0,1,14.5,18Z"/></g></g></g></svg>