<svg xmlns="http://www.w3.org/2000/svg" viewBox="0 0 24 24"><title>LUI-icon-pd-weather-stormy_day-outline-24</title><g id="Layer_2" data-name="Layer 2"><g id="LUI-icon-pd-weather-stormy_day-outline-24"><g id="LUI-icon-pd-weather-stormy_day-outline-24-2" data-name="LUI-icon-pd-weather-stormy_day-outline-24"><rect width="24" height="24" transform="translate(0 24) rotate(-90)" fill="none"/><path d="M2,13H4.22l-.12.37L3.56,15H2Zm9-4H9A2,2,0,0,0,7,7H6A2,2,0,0,0,4,5H2V7H3A1,1,0,0,1,4,8V9H6a1,1,0,0,1,1,1v1h4a1,1,0,0,1,1,1,1,1,0,0,1-.52.87l-.58,1.76-.13.37H11a3,3,0,0,0,0-6ZM7,19v3l4-3V17H8l1-3H6L5,17v2ZM15,3V4.12a5.6,5.6,0,0,0-2,0V3a1,1,0,0,1,2,0Zm4.68,2.77-.79.79a6,6,0,0,0-1.42-1.42l.79-.79a1,1,0,0,1,1.42,1.42ZM22.12,10a1,1,0,0,1-1,1H20a5.6,5.6,0,0,0,0-2h1.12A1,1,0,0,1,22.12,10Zm-2.44,6a1,1,0,0,1-1.42,0l-.79-.79a6,6,0,0,0,1.42-1.42l.79.79A1,1,0,0,1,19.68,16ZM18,10.28A4.3,4.3,0,0,1,15.87,14a4.36,4.36,0,0,0,0-.51V12.42A5.31,5.31,0,0,0,11,7.09,4.13,4.13,0,0,1,13.8,6,4.24,4.24,0,0,1,18,10.28Z"/></g></g></g></svg>