<svg xmlns="http://www.w3.org/2000/svg" viewBox="0 0 24 24"><title>LUI-icon-pd-hard_drive-outline-24</title><g id="Layer_2" data-name="Layer 2"><g id="LUI-icon-pd-hard_drive-outline-24"><g id="LUI-icon-pd-hard_drive-outline-24-2" data-name="LUI-icon-pd-hard_drive-outline-24"><rect width="24" height="24" fill="none"/><path d="M20,2H4A2,2,0,0,0,2,4V20a2,2,0,0,0,2,2H20a2,2,0,0,0,2-2V4A2,2,0,0,0,20,2Zm0,18H18V19a1,1,0,0,0-2,0v1H14V18H10v2H8V19a1,1,0,0,0-2,0v1H4V4H20ZM13,10a1,1,0,1,1-1-1A1,1,0,0,1,13,10Zm3.18,2.76A5.09,5.09,0,0,0,17,10a5,5,0,1,0-5,5,5.09,5.09,0,0,0,2.76-.82l1.53,1.53,1.42-1.42ZM12,13a3,3,0,1,1,3-3A3,3,0,0,1,12,13Z"/></g></g></g></svg>