<svg xmlns="http://www.w3.org/2000/svg" viewBox="0 0 24 24"><title>LUI-icon-pd-tram-solid-24</title><g id="Layer_2" data-name="Layer 2"><g id="LUI-icon-pd-tram-solid-24"><g id="LUI-icon-pd-tram-solid-24-2" data-name="LUI-icon-pd-tram-solid-24"><rect width="24" height="24" fill="none"/><path d="M18.49,5.3A2,2,0,0,0,16.61,4H14V2H10V4H7.39A2,2,0,0,0,5.51,5.3L4,14v2a2,2,0,0,0,2,2H18a2.07,2.07,0,0,0,2-2V14ZM7.28,6.83a1,1,0,0,1,1-.83h7.48a1,1,0,0,1,1,.83l.9,5.17H6.38ZM10,16H6V14h4Zm8,0H14V14h4Zm0,6H6V20H18Z"/></g></g></g></svg>