<svg xmlns="http://www.w3.org/2000/svg" viewBox="0 0 24 24"><title>LUI-icon-pd-directions-solid-24</title><g id="Layer_2" data-name="Layer 2"><g id="LUI-icon-pd-directions-solid-24"><g id="LUI-icon-pd-directions-solid-24-2" data-name="LUI-icon-pd-directions-solid-24"><rect width="24" height="24" fill="none"/><path d="M21.63,15.65l-5.86,4.13a1.18,1.18,0,0,1-.69.22A1,1,0,0,1,14,19.14V18H13a3,3,0,0,0-3,3v1H4V10H2.86A1,1,0,0,1,2,8.92a1.18,1.18,0,0,1,.22-.69L6.35,2.37a.76.76,0,0,1,1.3,0l4.13,5.86a1.18,1.18,0,0,1,.22.69A1,1,0,0,1,11.14,10H10v2.52A8.8,8.8,0,0,1,13,12h1V10.86A1,1,0,0,1,15.08,10a1.18,1.18,0,0,1,.69.22l5.86,4.13A.76.76,0,0,1,21.63,15.65Z"/></g></g></g></svg>