<svg xmlns="http://www.w3.org/2000/svg" viewBox="0 0 24 24"><title>LUI-icon-pd-escalator_down-outline-24</title><g id="Layer_2" data-name="Layer 2"><g id="LUI-icon-pd-escalator_down-outline-24"><g id="LUI-icon-pd-escalator_down-outline-24-2" data-name="LUI-icon-pd-escalator_down-outline-24"><rect width="24" height="24" fill="none"/><path d="M9.66,8,6.5,11.55V9a1,1,0,0,1,1-1ZM11,5.66V4.34A1.34,1.34,0,0,0,9.66,3H9.34A1.34,1.34,0,0,0,8,4.34V5.66A1.34,1.34,0,0,0,9.34,7h.32A1.34,1.34,0,0,0,11,5.66Zm11,9.75L20.59,14,16,18.61V17H14v5h5V20H17.39ZM19,7H15.9L8.49,15.33,7.9,16H5a1,1,0,0,0,0,2H8.1l7.41-8.33L16.1,9H19a1,1,0,0,0,0-2m0-2a3,3,0,0,1,0,6H17L9.6,19.33A2,2,0,0,1,8.1,20H5a3,3,0,0,1,0-6H7l7.4-8.33A2,2,0,0,1,15.9,5Z"/></g></g></g></svg>