<svg xmlns="http://www.w3.org/2000/svg" viewBox="0 0 24 24"><title>LUI-icon-sensor-shock-solid-24</title><g id="Layer_2" data-name="Layer 2"><g id="LUI-icon-pd-sensor-shock-solid-24"><g id="LUI-icon-sensor-shock-solid-24"><rect width="24" height="24" transform="translate(24) rotate(90)" fill="none"/><path d="M18.21,7.09l-4.3-4.3a2.71,2.71,0,0,0-3.82,0l-4.3,4.3a2.71,2.71,0,0,0,0,3.82l4.3,4.3a2.71,2.71,0,0,0,3.82,0l4.3-4.3A2.71,2.71,0,0,0,18.21,7.09ZM12,11a2,2,0,1,1,2-2A2,2,0,0,1,12,11Zm7,5,3-3H18.94l-3.62,3.62a4.68,4.68,0,0,1-6.64,0L5.06,13H2l3,3L3,19H7L6,22l6-2,6,2-1-3h4Z"/></g></g></g></svg>