<svg xmlns="http://www.w3.org/2000/svg" viewBox="0 0 24 24"><title>LUI-icon-pd-notifications-outline-24</title><g id="Layer_2" data-name="Layer 2"><g id="LUI-icon-pd-notifications-outline-24"><g id="LUI-icon-pd-notifications-outline-24-2" data-name="LUI-icon-pd-notifications-outline-24"><rect width="24" height="24" fill="none"/><path d="M12,20a1,1,0,0,1-1-1H9a3,3,0,0,0,6,0H13A1,1,0,0,1,12,20Zm7-5V12a8,8,0,0,0-5.09-7.45A2,2,0,0,0,14,4a2,2,0,0,0-4,0,2,2,0,0,0,.09.55A8,8,0,0,0,5,12v3H3v2H21V15Zm-2,0H7V12a6,6,0,0,1,3.82-5.58L12,6l1.18.47A6,6,0,0,1,17,12Z"/></g></g></g></svg>