<svg xmlns="http://www.w3.org/2000/svg" viewBox="0 0 24 24"><title>LUI-icon-pd-car_wifi_on-solid-24</title><g id="Layer_2" data-name="Layer 2"><g id="LUI-icon-pd-car_wifi_on-solid-24"><g id="LUI-icon-pd-car_wifi_on-solid-24-2" data-name="LUI-icon-pd-car_wifi_on-solid-24"><rect width="24" height="24" fill="none"/><path d="M22,11H19.45l-.86-1.18A2.06,2.06,0,0,0,17,9l-2,2h1.46a1,1,0,0,1,.84.45L19,14H5l1.7-2.55A1,1,0,0,1,7.54,11H9L7,9a2.06,2.06,0,0,0-1.59.82L4.55,11H2v2H3.1l-.77,1.06a1.64,1.64,0,0,0-.33,1V20a2,2,0,0,0,2,2H7a1,1,0,0,0,1-1V20h8v1a1,1,0,0,0,1,1h3a2,2,0,0,0,2-2V15.06a1.64,1.64,0,0,0-.33-1L20.9,13H22ZM8,18H4V16H8Zm12,0H16V16h4ZM7.76,7.76,9.17,9.17a4,4,0,0,1,5.66,0l1.41-1.41a6,6,0,0,0-8.48,0ZM4.93,4.93,6.35,6.35a8,8,0,0,1,11.3,0l1.42-1.42a10,10,0,0,0-14.14,0Z"/></g></g></g></svg>