<svg xmlns="http://www.w3.org/2000/svg" viewBox="0 0 24 24"><title>LUI-icon-pd-masking-outline-24</title><g id="Layer_2" data-name="Layer 2"><g id="LUI-icon-pd-masking-outline-24"><g id="LUI-icon-pd-masking-outline-24-2" data-name="LUI-icon-pd-masking-outline-24"><g opacity="0"><rect width="24" height="24" fill="none"/></g><path d="M20,4V20H4V4H20M12,19a7,7,0,1,0-7-7,7,7,0,0,0,7,7M20,2H4A2,2,0,0,0,2,4V20a2,2,0,0,0,2,2H20a2,2,0,0,0,2-2V4a2,2,0,0,0-2-2ZM12,17a5,5,0,1,1,5-5,5,5,0,0,1-5,5Z"/></g></g></g></svg>