<?xml version="1.0" encoding="iso-8859-1"?>
<!-- Generator: Adobe Illustrator 24.1.3, SVG Export Plug-In . SVG Version: 6.00 Build 0)  -->
<svg version="1.1" id="accommodation_x5F_hotel-layer"
	 xmlns="http://www.w3.org/2000/svg" xmlns:xlink="http://www.w3.org/1999/xlink" x="0px" y="0px" viewBox="0 0 24 24"
	 style="enable-background:new 0 0 24 24;" xml:space="preserve">
<g id="accommodation_x5F_hotel_8_">
	<path style="fill:none;" d="M0,0l24,0v24H0L0,0z"/>
	<path style="fill:#494849;" d="M20,14h-7v-4h5c1.105,0,2,0.895,2,2V14z M7,14v-2c0,0,0-2,2-2c2,0,2,2,2,2l0,2H7z M21,16.75
		c0-0.414-0.336-0.75-0.75-0.75H5v-6H3v12h2v-2h14v2h2V16.75z M22,8.422L12,4.843L2,8.422V5.559L12,2l10,3.559V8.422z"/>
</g>
</svg>
