<?xml version="1.0" encoding="iso-8859-1"?>
<!-- Generator: Adobe Illustrator 24.1.3, SVG Export Plug-In . SVG Version: 6.00 Build 0)  -->
<svg version="1.1" id="automotive_x5F_wash_x5F_car-layer"
	 xmlns="http://www.w3.org/2000/svg" xmlns:xlink="http://www.w3.org/1999/xlink" x="0px" y="0px" viewBox="0 0 24 24"
	 style="enable-background:new 0 0 24 24;" xml:space="preserve">
<g id="automotive_x5F_wash_x5F_car_9_">
	<rect style="fill:none;" width="24" height="24"/>
	<path style="fill:#494849;" d="M15.5,4c0-1.105,0.895-2,2-2s2,0.895,2,2c0,1.104-0.895,2-2,2S15.5,5.104,15.5,4z M12,6
		c1.105,0,2-0.896,2-2c0-1.105-0.895-2-2-2s-2,0.895-2,2C10,5.104,10.895,6,12,6z M21,10c0.366,0,0.705-0.106,1-0.277V6.277
		C21.705,6.106,21.366,6,21,6c-1.105,0-2,0.895-2,2C19,9.104,19.895,10,21,10z M2,9.723C2.295,9.894,2.634,10,3,10
		c1.105,0,2-0.896,2-2c0-1.105-0.895-2-2-2C2.634,6,2.295,6.106,2,6.277V9.723z M19.761,13H21.5c0.667,0.667,0.667,1.333,0,2H21v6
		c0,0.552-0.448,1-1,1h-3c-0.552,0-1-0.448-1-1v-1H8v1c0,0.552-0.448,1-1,1H4c-0.552,0-1-0.448-1-1v-6H2.5
		c-0.667-0.667-0.667-1.333,0-2h1.739l1.023-2.301C5.721,9.667,6.704,9,7.766,9h8.469c1.062,0,2.045,0.667,2.504,1.699L19.761,13z
		 M8,16H5.5c-0.667,0.667-0.667,1.333,0,2H8V16z M18.017,14l-1.106-2.488C16.771,11.196,16.511,11,16.234,11H7.766
		c-0.277,0-0.536,0.196-0.677,0.512L5.983,14H18.017z M18.508,16H16v2h2.508C19.21,17.38,19.159,16.71,18.508,16z M6.5,6
		c1.105,0,2-0.896,2-2c0-1.105-0.895-2-2-2s-2,0.895-2,2C4.5,5.104,5.395,6,6.5,6z"/>
</g>
</svg>
