<?xml version="1.0" encoding="iso-8859-1"?>
<!-- Generator: Adobe Illustrator 24.1.3, SVG Export Plug-In . SVG Version: 6.00 Build 0)  -->
<svg version="1.1" id="automotive_x5F_repair_x5F_car-layer"
	 xmlns="http://www.w3.org/2000/svg" xmlns:xlink="http://www.w3.org/1999/xlink" x="0px" y="0px" viewBox="0 0 24 24"
	 style="enable-background:new 0 0 24 24;" xml:space="preserve">
<g id="automotive_x5F_repair_x5F_car_8_">
	<rect style="fill:none;" width="24" height="24"/>
	<path style="fill:#494849;" d="M18.466,3.719V4H15v2h3.466v0.289C18.466,7.234,17.7,8,16.755,8h-3.289l-0.75-1.5H5.5l0,0
		C4.672,5.677,4.667,4.338,5.491,3.509L5.5,3.5h7.216l0.75-1.5l3.293,0.008C17.702,2.01,18.466,2.775,18.466,3.719z M21.5,13
		c0.667,0.667,0.667,1.333,0,2H21v6c0,0.552-0.448,1-1,1h-3c-0.552,0-1-0.448-1-1v-1H8v1c0,0.552-0.448,1-1,1H4
		c-0.552,0-1-0.448-1-1v-6H2.5c-0.667-0.667-0.667-1.333,0-2h1.739l1.023-2.301C5.721,9.667,6.704,9,7.766,9h8.469
		c1.062,0,2.045,0.667,2.504,1.699L19.761,13H21.5z M5.983,14h12.034l-1.106-2.488C16.771,11.196,16.511,11,16.234,11H7.766
		c-0.277,0-0.536,0.196-0.677,0.512L5.983,14z M8,16H5.5c-0.667,0.667-0.667,1.333,0,2H8V16z M18.5,16H16v2h2.5
		C19.167,17.333,19.167,16.667,18.5,16z"/>
</g>
</svg>
