<?xml version="1.0" encoding="iso-8859-1"?>
<!-- Generator: Adobe Illustrator 24.1.3, SVG Export Plug-In . SVG Version: 6.00 Build 0)  -->
<svg version="1.1" id="automotive_x5F_carrental-layer"
	 xmlns="http://www.w3.org/2000/svg" xmlns:xlink="http://www.w3.org/1999/xlink" x="0px" y="0px" viewBox="0 0 24 24"
	 style="enable-background:new 0 0 24 24;" xml:space="preserve">
<g id="automotive_x5F_carrental_8_">
	<rect style="fill:none;" width="24" height="24"/>
	<path style="fill:#494849;" d="M5.706,7.992L10,8l0.75-1.5h2.75l1-1l1,1h2.466l1.5-1.509l-1.5-1.491H10.75L10,2H5.711
		C4.766,2,4,2.766,4,3.711v2.571C4,7.225,4.763,7.99,5.706,7.992z M6,4h3v2H6V4z M19.778,13l-1.023-2.301
		C18.296,9.667,17.313,9,16.251,9H7.782C6.72,9,5.738,9.667,5.279,10.699L4.256,13H2.5c-0.667,0.667-0.667,1.333,0,2H3v6
		c0,0.552,0.448,1,1,1h3c0.552,0,1-0.448,1-1v-1h8v1c0,0.552,0.465,1,1.017,1h3C20.569,22,21,21.552,21,21v-6h0.5
		c0.667-0.667,0.667-1.333,0-2H19.778z M7.106,11.512C7.246,11.196,7.506,11,7.782,11h8.469c0.277,0,0.536,0.196,0.677,0.512
		L18.034,14H6L7.106,11.512z M8,18H5.5c-0.667-0.667-0.667-1.333,0-2H8V18z M18.5,18H16v-2h2.5C19.167,16.667,19.167,17.333,18.5,18
		z"/>
</g>
</svg>
