<?xml version="1.0" encoding="iso-8859-1"?>
<!-- Generator: Adobe Illustrator 24.1.3, SVG Export Plug-In . SVG Version: 6.00 Build 0)  -->
<svg version="1.1" id="automotive_x5F_charging-layer"
	 xmlns="http://www.w3.org/2000/svg" xmlns:xlink="http://www.w3.org/1999/xlink" x="0px" y="0px" viewBox="0 0 24 24"
	 style="enable-background:new 0 0 24 24;" xml:space="preserve">
<g id="automotive_x5F_charging_8_">
	<rect style="fill:none;" width="24" height="24"/>
	<path style="fill:#494849;" d="M19.761,13l-1.023-2.301C18.279,9.667,17.296,9,16.234,9H7.766c-1.062,0-2.045,0.667-2.504,1.699
		L4.239,13H2.5c-0.645,0.667-0.645,1.333,0,2H3v6c0,0.552,0.448,1,1,1h3c0.552,0,1-0.448,1-1v-1h8v1c0,0.552,0.448,1,1,1h3
		c0.552,0,1-0.448,1-1v-6h0.5c0.664-0.67,0.664-1.337,0-2H19.761z M7.089,11.512C7.229,11.196,7.489,11,7.766,11h8.469
		c0.277,0,0.536,0.196,0.677,0.512L18.017,14H5.983L7.089,11.512z M8,18H5.5c-0.667-0.667-0.667-1.333,0-2H8V18z M18.5,18h-2.501
		L16,16h2.5C19.167,16.667,19.167,17.333,18.5,18z M16,6h3v0.5c0,0.552-0.448,1-1,1h-2V6z M15,8h-4C9.895,8,9,7.105,9,6v0H5
		C4.328,5.334,4.328,4.667,5,4h4v0c0-1.104,0.896-2,2-1.999l4,0.002V4v2V8z M18.001,2.507C18.553,2.507,19,2.955,19,3.507V4h-3
		V2.504L18.001,2.507z"/>
</g>
</svg>
