<?xml version="1.0" encoding="iso-8859-1"?>
<!-- Generator: Adobe Illustrator 24.1.3, SVG Export Plug-In . SVG Version: 6.00 Build 0)  -->
<svg version="1.1" id="automotive_x5F_dealership_x5F_car-layer"
	 xmlns="http://www.w3.org/2000/svg" xmlns:xlink="http://www.w3.org/1999/xlink" x="0px" y="0px" viewBox="0 0 24 24"
	 style="enable-background:new 0 0 24 24;" xml:space="preserve">
<g id="automotive_x5F_dealership_x5F_car_8_">
	<rect style="fill:none;" width="24" height="24"/>
	<path style="fill:#494849;" d="M19.761,13l-1.023-2.301c-0.42-0.945-1.281-1.577-2.238-1.679v2.049
		c0.169,0.082,0.318,0.232,0.411,0.442L18.017,14H5.983l1.106-2.488c0.094-0.21,0.242-0.36,0.411-0.442V9.021
		c-0.957,0.101-1.818,0.733-2.238,1.679L4.239,13H2.5c-0.667,0.667-0.667,1.333,0,2H3v6c0,0.552,0.448,1,1,1h3c0.552,0,1-0.448,1-1
		v-1h8v1c0,0.552,0.448,1,1,1h3c0.552,0,1-0.448,1-1v-6h0.5c0.667-0.667,0.667-1.333,0-2H19.761z M8,18H5.5
		c-0.667-0.667-0.667-1.333,0-2H8V18z M18.5,18H16v-2h2.5C19.167,16.667,19.167,17.333,18.5,18z M11.888,10.156
		c-0.708,0-1.295-0.229-1.904-0.742L9.798,9.258l-1.11,1.24l0.17,0.168c0.558,0.548,1.296,0.917,2.142,1.073V13h1.998v-1.281
		c1.372-0.324,2.214-1.301,2.214-2.589c0-1.631-1.021-2.286-2.554-2.768c-1.333-0.417-1.472-0.629-1.472-1.015
		c0-0.633,0.693-0.701,0.992-0.701c0.604,0,1.11,0.193,1.64,0.628l0.188,0.154l1.072-1.237l-0.179-0.165
		c-0.567-0.521-1.176-0.831-1.901-0.968V2H11v1.13C9.829,3.466,9.108,4.337,9.108,5.44c0,1.313,0.75,2.082,2.59,2.652
		c1.273,0.389,1.413,0.651,1.413,1.119C13.111,10.088,12.175,10.156,11.888,10.156z"/>
</g>
</svg>
