<?xml version="1.0" encoding="iso-8859-1"?>
<!-- Generator: Adobe Illustrator 24.1.3, SVG Export Plug-In . SVG Version: 6.00 Build 0)  -->
<svg version="1.1" id="business_x5F_atm-layer" xmlns="http://www.w3.org/2000/svg" xmlns:xlink="http://www.w3.org/1999/xlink"
	 x="0px" y="0px" viewBox="0 0 24 24" style="enable-background:new 0 0 24 24;" xml:space="preserve">
<g id="business_x5F_atm_8_">
	<rect style="fill:none;" width="24" height="24"/>
	<path style="fill:#494849;" d="M9.75,9.75h4.5v1.5h-4.5V9.75z M22,5v2c0,1.654-1.346,3-3,3h-1v12H6V10H5c-1.654,0-3-1.346-3-3V5
		c0-1.654,1.346-3,3-3h14C20.654,2,22,3.346,22,5z M16,16H8v1l2,2h1v-1h5V16z M16,9c0-0.552-0.448-1-1-1H9C8.448,8,8,8.448,8,9v3
		c0,0.552,0.448,1,1,1h6c0.552,0,1-0.448,1-1V9z M20,4H4v4h2V6h12v2h2V4z"/>
</g>
</svg>
