<?xml version="1.0" encoding="iso-8859-1"?>
<!-- Generator: Adobe Illustrator 24.1.3, SVG Export Plug-In . SVG Version: 6.00 Build 0)  -->
<svg version="1.1" id="business_x5F_laundry-layer" xmlns="http://www.w3.org/2000/svg" xmlns:xlink="http://www.w3.org/1999/xlink"
	 x="0px" y="0px" viewBox="0 0 24 24" style="enable-background:new 0 0 24 24;" xml:space="preserve">
<g id="business_x5F_laundry_7_">
	<rect id="bounding.box_15_" style="fill:none;" width="24" height="24"/>
	<path style="fill:#494849;" d="M19,2H5C4.448,2,4,2.448,4,3v19h16V3C20,2.448,19.552,2,19,2z M18.002,13.999
		c0,3.318-2.683,6.001-6.001,6.001S6,17.316,6,13.999c0-3.3,2.655-5.97,5.948-5.999h0.106C15.347,8.029,18.002,10.699,18.002,13.999
		z M14,4h4v2h-4V4z M14.999,14c0,0.767-0.291,1.534-0.877,2.12c-1.172,1.172-3.068,1.172-4.241,0
		C9.295,15.534,9.002,14.767,9.002,14H14.999z"/>
</g>
</svg>
