<?xml version="1.0" encoding="iso-8859-1"?>
<!-- Generator: Adobe Illustrator 24.1.3, SVG Export Plug-In . SVG Version: 6.00 Build 0)  -->
<svg version="1.1" id="business_x5F_main-layer" xmlns="http://www.w3.org/2000/svg" xmlns:xlink="http://www.w3.org/1999/xlink"
	 x="0px" y="0px" viewBox="0 0 24 24" style="enable-background:new 0 0 24 24;" xml:space="preserve">
<g id="business_x5F_main_8_">
	<rect style="fill:none;" width="24" height="24"/>
	<path style="fill:#494849;" d="M2,7h4v3H4v3h2v3H4v3h2v3H2V7z M22,4v18h-6v-5h-2v5H8V4H22z M12,17h-2v3h2V17z M12,12h-2v3h2V12z
		 M12,7h-2v3h2V7z M16,12h-2v3h2V12z M16,7h-2v3h2V7z M20,17h-2v3h2V17z M20,12h-2v3h2V12z M20,7h-2v3h2V7z"/>
</g>
</svg>
