<?xml version="1.0" encoding="iso-8859-1"?>
<!-- Generator: Adobe Illustrator 24.1.3, SVG Export Plug-In . SVG Version: 6.00 Build 0)  -->
<svg version="1.1" id="connector_x5F_underpath-layer"
	 xmlns="http://www.w3.org/2000/svg" xmlns:xlink="http://www.w3.org/1999/xlink" x="0px" y="0px" viewBox="0 0 24 24"
	 style="enable-background:new 0 0 24 24;" xml:space="preserve">
<g id="connector_x5F_underpath_2_">
	<rect style="fill:none;" width="24" height="24"/>
	<path style="fill:#494849;" d="M4.067,22H2l0.025-11.6C2.025,5.181,6.491,2,12,2s9.975,3.181,9.975,8.4L22,22h-2.067L19,21.177
		v-10.6c0-3.719-3.516-5.385-7-5.385c-3.484,0-7,1.665-7,5.385v10.6L4.067,22z M12,9c-2.209,0-4,1.346-4,3.555v5.974l2-1.765v-4.209
		C10,11.075,11.666,11,12,11s2,0.075,2,1.555v4.209l2,1.765v-5.974C16,10.346,14.209,9,12,9z"/>
</g>
</svg>
