<?xml version="1.0" encoding="iso-8859-1"?>
<!-- Generator: Adobe Illustrator 24.1.3, SVG Export Plug-In . SVG Version: 6.00 Build 0)  -->
<svg version="1.1" id="connector_x5F_entrance_x5F_access-layer"
	 xmlns="http://www.w3.org/2000/svg" xmlns:xlink="http://www.w3.org/1999/xlink" x="0px" y="0px" viewBox="0 0 24 24"
	 style="enable-background:new 0 0 24 24;" xml:space="preserve">
<g id="connector_x5F_entrance_x5F_access_8_">
	<rect style="fill:none;" width="24" height="24"/>
	<path style="fill:#494849;" d="M20,5h-5.992C14.003,5,14,4.997,14,4.992V3.354c0-0.675-0.651-1.159-1.297-0.965L5.425,4.572
		C4.579,4.826,4,5.605,4,6.488v11.024c0,0.883,0.579,1.662,1.425,1.916l7.278,2.183C13.349,21.805,14,21.321,14,20.646V7.008
		C14,7.003,14.003,7,14.008,7H18v11.992C18,18.997,18.003,19,18.008,19h1.985C19.997,19,20,18.997,20,18.992V5z M11,13
		c0,0-2-0.003-2-0.008v-2.985c0-0.004,2-0.004,2,0C11,10.008,11.004,13,11,13z"/>
</g>
</svg>
