<?xml version="1.0" encoding="iso-8859-1"?>
<!-- Generator: Adobe Illustrator 24.1.3, SVG Export Plug-In . SVG Version: 6.00 Build 0)  -->
<svg version="1.1" id="connector_x5F_escalator-layer"
	 xmlns="http://www.w3.org/2000/svg" xmlns:xlink="http://www.w3.org/1999/xlink" x="0px" y="0px" viewBox="0 0 24 24"
	 style="enable-background:new 0 0 24 24;" xml:space="preserve">
<g id="connector_x5F_escalator_8_">
	<rect style="opacity:0;fill:none;" width="24" height="24"/>
	<path style="fill:#494849;" d="M5.929,14H5.25l0.641-5.124C5.953,8.376,6.378,8,6.883,8H8.5C9.328,8,10,8.672,10,9.5v0.429
		L5.929,14z M9,5V3c0-0.552-0.448-1-1-1H7C6.448,2,6,2.448,6,3v3h2C8.552,6,9,5.552,9,5z M20,7h-4.243l-9,9H4c-1.657,0-2,1.343-2,3
		s0.343,3,2,3h5.243l9-9H20c1.657,0,2-1.343,2-3S21.657,7,20,7z"/>
</g>
</svg>
