<?xml version="1.0" encoding="iso-8859-1"?>
<!-- Generator: Adobe Illustrator 24.1.3, SVG Export Plug-In . SVG Version: 6.00 Build 0)  -->
<svg version="1.1" id="connector_x5F_elevator-layer"
	 xmlns="http://www.w3.org/2000/svg" xmlns:xlink="http://www.w3.org/1999/xlink" x="0px" y="0px" viewBox="0 0 24 24"
	 style="enable-background:new 0 0 24 24;" xml:space="preserve">
<g id="connector_x5F_elevator_8_">
	<rect style="fill:none;" width="24" height="24"/>
	<path id="elevator_8_" style="fill:#494849;" d="M11.999,2H4C2.895,2,2,2.896,2,4v16c0,1.104,0.895,2,2,2h7.991
		c1.104,0,2-0.895,2-1.999l0.008-16C14,2.896,13.104,2,11.999,2z M7,4.5C7,4.224,7.224,4,7.5,4h1C8.776,4,9,4.224,9,4.5v2
		C9,6.776,8.776,7,8.5,7h-1C7.224,7,7,6.776,7,6.5V4.5z M9.5,14.5L9,19H7l-0.5-4.5L5,14c0,0,0.266-3.665,0.41-5.104
		C5.461,8.385,5.891,8,6.405,8C6.992,8,7.268,8.5,8,8.5C8.773,8.5,9.009,8,9.595,8c0.514,0,0.944,0.389,0.995,0.9L11,14L9.5,14.5z
		 M22,10h-6l3-5L22,10z M16,14l6,0.045L19,19L16,14z"/>
</g>
</svg>
