<?xml version="1.0" encoding="iso-8859-1"?>
<!-- Generator: Adobe Illustrator 24.1.3, SVG Export Plug-In . SVG Version: 6.00 Build 0)  -->
<svg version="1.1" id="connector_x5F_airport_x5F_access-layer"
	 xmlns="http://www.w3.org/2000/svg" xmlns:xlink="http://www.w3.org/1999/xlink" x="0px" y="0px" viewBox="0 0 24 23.997"
	 style="enable-background:new 0 0 24 23.997;" xml:space="preserve">
<g id="connector_x5F_airport_x5F_access_8_">
	<rect style="opacity:0;fill:none;" width="24" height="23.997"/>
	<path style="fill:#494849;" d="M4,18.13h16v3H4V18.13z M21.947,7.249c-0.251-0.461-1.301-0.379-1.699-0.496
		c-0.504-0.148-1.1-0.594-1.733-0.249l-4.172,2.277L7.313,4.916C7.027,4.755,6.679,4.753,6.391,4.91L5.185,5.568l5.821,5.035
		l-4.172,2.276l-2.683-1.817c-0.296-0.206-0.682-0.226-0.998-0.054L2,11.637l2.656,2.882l4.076,0.591
		c0.407,0.059,0.822-0.016,1.183-0.213l10.29-5.615l0.834-0.455C21.5,8.576,22.198,7.71,21.947,7.249z"/>
</g>
</svg>
