<?xml version="1.0" encoding="iso-8859-1"?>
<!-- Generator: Adobe Illustrator 24.1.3, SVG Export Plug-In . SVG Version: 6.00 Build 0)  -->
<svg version="1.1" id="eatdrink_x5F_pub-layer" xmlns="http://www.w3.org/2000/svg" xmlns:xlink="http://www.w3.org/1999/xlink"
	 x="0px" y="0px" viewBox="0 0 24 24" style="enable-background:new 0 0 24 24;" xml:space="preserve">
<g id="eatdrink_x5F_pub_9_">
	<rect style="fill:none;" width="24" height="24"/>
	<path style="fill:#494849;" d="M20.113,10.011H4V20l-0.5,2h15L18,20v-1l2.392-0.378C21.327,18.435,22,17.614,22,16.66V12
		C22,10.934,21.164,10.071,20.113,10.011z M10,19H8v-7h2V19z M14,19h-2v-7h2V19z M20,16.19c0,0.238-0.169,0.444-0.402,0.49L18,17v-5
		h1.5c0.276,0,0.5,0.224,0.5,0.5V16.19z M5.092,8H3.05C3.027,7.835,3,7.671,3,7.5C3,5.567,4.567,4,6.5,4c0.301,0,0.682,0,1.055,0
		C8.248,2.809,9.523,2,11,2s2.752,0.809,3.445,2c0.456,0,0.886,0,1.055,0C17.433,4,19,5.567,19,7.5c0,0.171-0.027,0.335-0.05,0.5
		h-2.036C16.969,7.843,17,7.675,17,7.5C17,6.673,16.327,6,15.5,6H15h-0.376H13c0-1.103-0.897-2-2-2S9,4.897,9,6H8H7H6.5
		C5.673,6,5,6.673,5,7.5C5,7.676,5.036,7.843,5.092,8z"/>
</g>
</svg>
