<?xml version="1.0" encoding="iso-8859-1"?>
<!-- Generator: Adobe Illustrator 24.1.3, SVG Export Plug-In . SVG Version: 6.00 Build 0)  -->
<svg version="1.1" id="eatdrink_x5F_main-layer" xmlns="http://www.w3.org/2000/svg" xmlns:xlink="http://www.w3.org/1999/xlink"
	 x="0px" y="0px" viewBox="0 0 24 24" style="enable-background:new 0 0 24 24;" xml:space="preserve">
<g id="eatdrink_x5F_main_8_">
	<rect style="fill:none;" width="24" height="24"/>
	<path style="fill:#494849;" d="M20,2v20h-3v-8h-2c0,0,0-4.968,0-5C15,4,20,2,20,2z M10,2v5H8.5V2h-2v5H5V2H3v5.306
		C3,8.073,3.294,8.81,3.821,9.367L5.699,11c0.197,0.193,0.306,0.459,0.3,0.736L6,22h3l0-10.259C8.994,11.462,9.105,11.194,9.306,11
		l1.814-1.551c0.561-0.562,0.877-1.323,0.877-2.118L12,2H10z"/>
</g>
</svg>
