<?xml version="1.0" encoding="iso-8859-1"?>
<!-- Generator: Adobe Illustrator 24.1.3, SVG Export Plug-In . SVG Version: 6.00 Build 0)  -->
<svg version="1.1" id="eatdrink_x5F_coffee-layer" xmlns="http://www.w3.org/2000/svg" xmlns:xlink="http://www.w3.org/1999/xlink"
	 x="0px" y="0px" viewBox="0 0 24 24" style="enable-background:new 0 0 24 24;" xml:space="preserve">
<g id="eatdrink_x5F_coffee_8_">
	<rect style="fill:none;" width="24" height="24"/>
	<path style="fill:#494849;" d="M6.368,18h8.764c1.053,0,1.926-0.813,2.001-1.863c0,0,0.298-4.137,0.301-4.137l0.41,0
		c1.926,0,3.698-1.289,4.074-3.178C22.429,6.253,20.478,4,18,4H3.507C3.503,4,3.5,4.003,3.5,4.007l0.866,12.13
		C4.442,17.187,5.316,18,6.368,18z M17.981,6c1.315,0,2.333,1.268,1.898,2.648C19.616,9.484,18.769,10,17.892,10h-0.321l0.286-4
		C17.899,6,17.938,6,17.981,6z M2,20h19l-0.447,0.894C20.214,21.572,19.521,22,18.764,22H4.236c-0.758,0-1.45-0.428-1.789-1.106
		L2,20z"/>
</g>
</svg>
