<?xml version="1.0" encoding="iso-8859-1"?>
<!-- Generator: Adobe Illustrator 24.1.3, SVG Export Plug-In . SVG Version: 6.00 Build 0)  -->
<svg version="1.1" id="eatdrink_x5F_cocktail-layer"
	 xmlns="http://www.w3.org/2000/svg" xmlns:xlink="http://www.w3.org/1999/xlink" x="0px" y="0px" viewBox="0 0 24 24.002"
	 style="enable-background:new 0 0 24 24.002;" xml:space="preserve">
<g id="eatdrink_x5F_cocktail_8_">
	<rect style="fill:none;" width="24" height="24.002"/>
	<path style="fill:#494849;" d="M15.014,20.002L13,20.003c-0.009-0.001,0.001-3.47,0-4.705c-0.001-0.508,0.193-0.996,0.541-1.366
		c0,0,7.437-7.932,7.424-7.932H9.448L5.486,2.044L4.273,3.256L6.98,6L2.598,6.026l7.827,7.9c0.369,0.373,0.576,0.877,0.576,1.402
		c-0.001,1.24,0.009,4.673,0,4.674H9c-1.102-0.001-2,0.898-2,2h10C17,20.905,16.111,20.001,15.014,20.002z M12.949,12.002
		c-1.296,0-2.3-1.264-1.876-2.641c0.259-0.841,1.102-1.359,1.972-1.359c0.691,0,1.366,0.355,1.679,0.98
		c0.758,1.515-0.309,3.02-1.723,3.02H12.949z"/>
</g>
</svg>
