<?xml version="1.0" encoding="iso-8859-1"?>
<!-- Generator: Adobe Illustrator 24.1.3, SVG Export Plug-In . SVG Version: 6.00 Build 0)  -->
<svg version="1.1" id="eatdrink_x5F_fastfood-layer"
	 xmlns="http://www.w3.org/2000/svg" xmlns:xlink="http://www.w3.org/1999/xlink" x="0px" y="0px" viewBox="0 0 24 24"
	 style="enable-background:new 0 0 24 24;" xml:space="preserve">
<g id="eatdrink_x5F_fastfood_9_">
	<rect style="fill:none;" width="24" height="24"/>
	<path style="fill:#494849;" d="M22,6l-1,16h-4.851c0.219-0.456,0.351-0.961,0.351-1.5v-2.763C16.814,17.249,17,16.654,17,16
		s-0.186-1.249-0.5-1.737V12c0-2.757-2.243-5-5-5h-0.406L11,6h4.5V3.985c0-0.357,0.252-0.665,0.603-0.735l4-1.25L20.5,3.5l-3,1V6H22
		z M2.5,20.472C2.484,21.311,3.161,22,4,22h9c0.828,0,1.5-0.672,1.5-1.5V19H2.51L2.5,20.472z M14.5,12.5c0-1.657-1.343-3.5-3-3.5h-6
		c-1.657,0-3,1.843-3,3.5V13h12V12.5z M14.25,15H2.75C2.336,15,2,15.448,2,16s0.336,1,0.75,1h11.5c0.414,0,0.75-0.448,0.75-1
		S14.664,15,14.25,15z"/>
</g>
</svg>
