<?xml version="1.0" encoding="iso-8859-1"?>
<!-- Generator: Adobe Illustrator 24.1.3, SVG Export Plug-In . SVG Version: 6.00 Build 0)  -->
<svg version="1.1" id="emergency_x5F_police-layer" xmlns="http://www.w3.org/2000/svg" xmlns:xlink="http://www.w3.org/1999/xlink"
	 x="0px" y="0px" viewBox="0 0 24 24" style="enable-background:new 0 0 24 24;" xml:space="preserve">
<g id="emergency_x5F_police_8_">
	<rect style="opacity:0;fill:none;" width="24" height="24"/>
	<path style="fill:#494849;" d="M14.571,6.571C14.571,9.143,12,10,12,10S9.429,9.143,9.429,6.571V5.714L12,4.857l2.571,0.857V6.571z
		 M21.5,7L12,2L2.5,7L6,10v1c0,0,1.012,1,6,1c5,0,6-1,6-1V9.994L21.5,7z M18,12.5c0,0-1,2.5-6,2.5s-6-2.5-6-2.5v1
		c0,4.694,2.686,8.5,6,8.5s6-3.806,6-8.5L18,12.5z"/>
</g>
</svg>
