<?xml version="1.0" encoding="iso-8859-1"?>
<!-- Generator: Adobe Illustrator 24.1.3, SVG Export Plug-In . SVG Version: 6.00 Build 0)  -->
<svg version="1.1" id="facilities_x5F_frontiercrossing-layer"
	 xmlns="http://www.w3.org/2000/svg" xmlns:xlink="http://www.w3.org/1999/xlink" x="0px" y="0px" viewBox="0 0 24 24"
	 style="enable-background:new 0 0 24 24;" xml:space="preserve">
<g id="facilities_x5F_frontiercrossing_9_">
	<rect style="fill:none;" width="24" height="24"/>
	<path style="fill:#494849;" d="M7,2v3L4,6v1h12V4.767c0-1.009-0.752-1.861-1.754-1.985L7,2z M20.585,19.63L20.94,22h-8.885
		l6.234-5.964C19.494,16.868,20.361,18.132,20.585,19.63z M8.342,22H3l0.354-2.368C3.75,16.974,6.13,15,8.936,15h6.067
		c0.205,0,0.401,0.032,0.601,0.053L8.342,22z M16,8.5v0.06c0,2.121-1,2.439-1,4.44H8.5c0-1.611-1.5-1.909-1.5-3.5
		c0-0.436,0-0.761,0-1H16z"/>
</g>
</svg>
