<?xml version="1.0" encoding="iso-8859-1"?>
<!-- Generator: Adobe Illustrator 24.1.3, SVG Export Plug-In . SVG Version: 6.00 Build 0)  -->
<svg version="1.1" id="facilities_x5F_parking_x5F_bicycle-layer"
	 xmlns="http://www.w3.org/2000/svg" xmlns:xlink="http://www.w3.org/1999/xlink" x="0px" y="0px" viewBox="0 0 24 24"
	 style="enable-background:new 0 0 24 24;" xml:space="preserve">
<g id="facilities_x5F_parking_x5F_bicycle_5_">
	<rect style="fill:none;" width="24" height="24"/>
	<path style="fill:#494849;" d="M11.5,7h1.007C13.881,7,15,5.876,15,4.5C15,3.126,13.881,2,12.507,2H10v7h1.5V7z M11.5,3.5h1
		c0.551,0,1,0.449,1,1c0,0.552-0.449,1-1,1h-1V3.5z M18,14c-0.265,0-0.522,0.029-0.773,0.078l-1.222-3.032
		C16.005,11.031,16,11.016,16,11h1.5V9.5H16c-0.676,0-1.768,0.524-1.421,2h-5.94l0,0L9,10.5v-1H6v2h1.055l0.684,2.01l-0.455,0.709
		C6.881,14.08,6.451,14,6,14c-2.209,0-4,1.791-4,4c0,2.209,1.791,4,4,4c2.038,0,3.701-1.53,3.95-3.5H11l4.465-4.782l0.373,0.925
		C14.734,15.355,14,16.589,14,18c0,2.209,1.791,4,4,4c2.209,0,4-1.791,4-4C22,15.791,20.209,14,18,14z M6,20.5
		c-1.378,0-2.5-1.122-2.5-2.5c0-1.379,1.122-2.5,2.5-2.5c0.149,0,0.295,0.015,0.437,0.041l-0.913,1.424
		C5.098,17.628,5.575,18.5,6.363,18.5h2.086C8.217,19.64,7.207,20.5,6,20.5z M7.283,17l1.074-1.675L8.927,17H7.283z M10.464,16.859
		L9.15,13h4.929L10.464,16.859z M18,20.5c-1.378,0-2.5-1.122-2.5-2.5c0-0.775,0.362-1.46,0.918-1.919l0.975,2.419h1.617
		l-1.202-2.981C17.873,15.514,17.934,15.5,18,15.5c1.378,0,2.5,1.121,2.5,2.5C20.5,19.378,19.378,20.5,18,20.5z"/>
</g>
</svg>
