<?xml version="1.0" encoding="iso-8859-1"?>
<!-- Generator: Adobe Illustrator 24.1.3, SVG Export Plug-In . SVG Version: 6.00 Build 0)  -->
<svg version="1.1" id="facilities_x5F_publictoilet-layer"
	 xmlns="http://www.w3.org/2000/svg" xmlns:xlink="http://www.w3.org/1999/xlink" x="0px" y="0px" viewBox="0 0 24 24"
	 style="enable-background:new 0 0 24 24;" xml:space="preserve">
<g id="facilities_x5F_publictoilet_8_">
	<rect id="bounding.box_18_" style="fill:none;" width="24" height="24"/>
	<path style="fill:#494849;" d="M21,14.985L20.199,15l0.311,7.003H18.5L18,14.988h-1l-0.5,7.015h-1.991l0.292-7.018H14
		c0,0,0-4.501,0-6.485c0-1,0.563-1.5,1.316-1.5h4.37C20.438,7,21,7.5,21,8.5C21,10.335,21,14.985,21,14.985z M10,8.5
		C10,7.672,9.328,7,8.5,7h0C7.72,7,7.566,7.5,6.513,7.5C5.461,7.5,5.251,7,4.5,7h0C3.672,7,3,7.672,3,8.5v1l1.999,1L2,19h3l0.5,3h2
		L8,19h3l-3-8.5l2-1V8.5z M17,6h1c0.552,0,1-0.448,1-1V3c0-0.552-0.448-1-1-1h-1c-0.552,0-1,0.448-1,1v2C16,5.552,16.448,6,17,6z
		 M6,6h1c0.552,0,1-0.448,1-1V3c0-0.552-0.448-1-1-1H6C5.448,2,5,2.448,5,3v2C5,5.552,5.448,6,6,6z"/>
</g>
</svg>
