<?xml version="1.0" encoding="iso-8859-1"?>
<!-- Generator: Adobe Illustrator 24.1.3, SVG Export Plug-In . SVG Version: 6.00 Build 0)  -->
<svg version="1.1" id="facilities_x5F_exhibition_x5F_center-layer"
	 xmlns="http://www.w3.org/2000/svg" xmlns:xlink="http://www.w3.org/1999/xlink" x="0px" y="0px" viewBox="0 0 24 24"
	 style="enable-background:new 0 0 24 24;" xml:space="preserve">
<g id="facilities_x5F_exhibition_x5F_center_9_">
	<rect style="fill:none;" width="24" height="24"/>
	<path style="fill:#494849;" d="M2,10v11h7v-3h6v3h7V10H2z M6.5,16H4v-4h2.5V16z M11,16H8.5v-4H11V16z M15.5,16H13v-4h2.5V16z
		 M20,16h-2.5v-4H20V16z M2.21,8C4.032,4.441,7.727,2,12,2s7.968,2.441,9.79,6h-2.311C17.862,5.59,15.114,4,12,4
		C8.886,4,6.138,5.59,4.522,8H2.21z"/>
</g>
</svg>
