<?xml version="1.0" encoding="iso-8859-1"?>
<!-- Generator: Adobe Illustrator 24.1.3, SVG Export Plug-In . SVG Version: 6.00 Build 0)  -->
<svg version="1.1" id="facilities_x5F_parknride-layer"
	 xmlns="http://www.w3.org/2000/svg" xmlns:xlink="http://www.w3.org/1999/xlink" x="0px" y="0px" viewBox="0 0 24 24"
	 style="enable-background:new 0 0 24 24;" xml:space="preserve">
<g id="facilities_x5F_parknride_8_">
	<rect style="fill:none;" width="24" height="24"/>
	<path style="fill:#494849;" d="M21.968,5H1.996V4c0,0,0-2,2-2h15.972c2,0,2,2,2.028,2L21.968,5z M1.996,20c0.028,0,0.028,2,2.028,2
		h15.972c2,0,2-2,2-2v-1h-20V20z M4.362,17H1.996V7h3.232c2.583,0,4.17,1.067,4.17,3.261c0,2.323-1.645,3.405-3.954,3.405H4.362V17z
		 M4.362,11.964h0.881c1.068,0,1.717-0.447,1.717-1.702c0-1.068-0.592-1.573-1.761-1.573H4.362V11.964z M9.996,11.494
		c0,0.845,0.639,1.506,1.494,1.506c0.856,0,1.495-0.639,1.495-1.494c0-0.856-0.639-1.506-1.495-1.506
		C10.635,10,9.996,10.639,9.996,11.494z M19.465,12.743L22.005,17h-2.67l-2.049-3.824h-0.924V17h-2.366V7h3.275
		c2.713,0,4.113,0.966,4.113,3.044C21.384,11.358,20.764,12.151,19.465,12.743z M18.945,10.044c0-0.966-0.563-1.385-1.732-1.385
		h-0.852v2.887h0.996C18.397,11.546,18.945,11.098,18.945,10.044z"/>
</g>
</svg>
