<?xml version="1.0" encoding="iso-8859-1"?>
<!-- Generator: Adobe Illustrator 24.1.3, SVG Export Plug-In . SVG Version: 6.00 Build 0)  -->
<svg version="1.1" id="facilities_x5F_harbor-layer"
	 xmlns="http://www.w3.org/2000/svg" xmlns:xlink="http://www.w3.org/1999/xlink" x="0px" y="0px" viewBox="0 0 24 24"
	 style="enable-background:new 0 0 24 24;" xml:space="preserve">
<g id="facilities_x5F_harbor_9_">
	<rect style="fill:none;" width="24" height="24"/>
	<path style="fill:#494849;" d="M22,13.5l-2.5-4l-2.5,4h1.5c0,3.209-2.077,4.676-5.089,5.004L13.16,12H16v-2h-2.912l-0.06-1.682
		c1.287-0.433,2.222-1.636,2.222-3.068C15.25,3.457,13.792,2,12,2S8.75,3.457,8.75,5.25c0,1.432,0.936,2.635,2.222,3.068L10.912,10
		H8v2h2.84l-0.251,6.504C7.577,18.176,5.5,16.709,5.5,13.5H7l-2.5-4l-2.5,4h1.5V14c0,3.419,2.092,4.869,5.086,6.16
		C9.631,20.611,12,22,12,22s2.366-1.389,3.41-1.838C18.407,18.871,20.5,17.42,20.5,14v-0.5H22z M10.25,5.25
		c0-0.965,0.785-1.75,1.75-1.75c0.965,0,1.75,0.785,1.75,1.75S12.965,7,12,7C11.035,7,10.25,6.215,10.25,5.25z"/>
</g>
</svg>
