<?xml version="1.0" encoding="iso-8859-1"?>
<!-- Generator: Adobe Illustrator 24.1.3, SVG Export Plug-In . SVG Version: 6.00 Build 0)  -->
<svg version="1.1" id="facilities_x5F_main-layer" xmlns="http://www.w3.org/2000/svg" xmlns:xlink="http://www.w3.org/1999/xlink"
	 x="0px" y="0px" viewBox="0 0 24 24" style="enable-background:new 0 0 24 24;" xml:space="preserve">
<g id="facilities_x5F_main_5_">
	<rect style="fill:none;" width="24" height="24"/>
	<path style="fill:#494849;" d="M11.991,2L4,6.417V22h6.745v-5h2.496v5h6.75V6.417L11.991,2z M9,10H6.5V7H9V10z M13.241,10h-2.496V7
		h2.496V10z M17.5,10h-2.517V7H17.5V10z M9,15H6.5v-3H9V15z M13.241,15h-2.496v-3h2.496V15z M17.5,15h-2.509l-0.009-3H17.5V15z
		 M9,20H6.5v-3H9V20z M17.5,20h-2.509v-3H17.5V20z"/>
</g>
</svg>
