<?xml version="1.0" encoding="iso-8859-1"?>
<!-- Generator: Adobe Illustrator 24.1.3, SVG Export Plug-In . SVG Version: 6.00 Build 0)  -->
<svg version="1.1" id="facilities_x5F_bank-layer" xmlns="http://www.w3.org/2000/svg" xmlns:xlink="http://www.w3.org/1999/xlink"
	 x="0px" y="0px" viewBox="0 0 24 24" style="enable-background:new 0 0 24 24;" xml:space="preserve">
<g id="facilities_x5F_bank_9_">
	<rect style="opacity:0.11;fill:none;" width="24" height="24"/>
	<path style="fill:#494849;" d="M14,18.868v3.144h-3v-2.888c-1.802-0.177-3.197-0.887-4.199-1.872l1.384-1.547
		c1.038,0.875,2.157,1.404,3.622,1.404c1.506,0,2.584-0.732,2.584-2.096c0-1.18-0.59-1.71-2.788-2.381
		c-2.95-0.916-4.233-2.096-4.233-4.233c0-1.995,1.482-3.384,3.629-3.757V2.012h0.5h2H14v2.74c1.092,0.263,1.987,0.752,2.792,1.491
		l-1.323,1.526c-1.017-0.834-1.994-1.2-3.154-1.2c-1.261,0-2.177,0.57-2.177,1.669c0,1.017,0.549,1.465,2.889,2.197
		c2.462,0.773,4.172,1.791,4.172,4.436C17.199,16.792,16.03,18.265,14,18.868z"/>
</g>
</svg>
