<?xml version="1.0" encoding="iso-8859-1"?>
<!-- Generator: Adobe Illustrator 24.1.3, SVG Export Plug-In . SVG Version: 6.00 Build 0)  -->
<svg version="1.1" id="goingout_x5F_main-layer" xmlns="http://www.w3.org/2000/svg" xmlns:xlink="http://www.w3.org/1999/xlink"
	 x="0px" y="0px" viewBox="0 0 24 24" style="enable-background:new 0 0 24 24;" xml:space="preserve">
<g id="goingout_x5F_main_9_">
	<rect style="opacity:0;fill:none;" width="24" height="24"/>
	<path style="fill:#494849;" d="M3,2v11.439C3.24,18.235,7.198,22,12,22c4.802,0,8.76-3.765,9-8.561V2H3z M6,8.747
		c0-1.381,1.119-2.5,2.5-2.5c1.381,0,2.5,1.119,2.5,2.5c0,1.381-1.119,1.25-2.5,1.25C7.119,9.997,6,10.127,6,8.747z M16.676,15.775
		C15.96,17.66,14.136,19,12,19s-3.96-1.34-4.676-3.225c-0.275-0.725,0.363-1.478,1.124-1.327c2.027,0.403,5.076,0.403,7.103,0
		C16.312,14.297,16.951,15.05,16.676,15.775z M15.5,9.997c-1.381,0-2.5,0.131-2.5-1.25c0-1.381,1.119-2.5,2.5-2.5
		c1.381,0,2.5,1.119,2.5,2.5C18,10.127,16.881,9.997,15.5,9.997z"/>
</g>
</svg>
