<?xml version="1.0" encoding="iso-8859-1"?>
<!-- Generator: Adobe Illustrator 24.1.3, SVG Export Plug-In . SVG Version: 6.00 Build 0)  -->
<svg version="1.1" id="goingout_x5F_karaoke-layer" xmlns="http://www.w3.org/2000/svg" xmlns:xlink="http://www.w3.org/1999/xlink"
	 x="0px" y="0px" viewBox="0 0 24 24" style="enable-background:new 0 0 24 24;" xml:space="preserve">
<g id="goingout_x5F_karaoke_8_">
	<rect x="0" y="0" style="fill:none;" width="24" height="24"/>
	<path style="fill:#494849;" d="M14.737,13.323l-7.326,6.31c-0.631,0.547-1.51,0.624-2.217,0.262l-1.841,1.842l-1.061-1.061
		l1.841-1.841c-0.362-0.708-0.284-1.587,0.262-2.217l6.311-7.325L14.737,13.323z M16.77,2c-2.899,0-5.25,2.35-5.25,5.25
		c0,0.01,0.001,0.019,0.002,0.029l5.22,5.22c0.01,0,0.019,0.002,0.029,0.002c2.9,0,5.25-2.351,5.25-5.25
		C22.02,4.35,19.669,2,16.77,2z"/>
</g>
</svg>
