<?xml version="1.0" encoding="iso-8859-1"?>
<!-- Generator: Adobe Illustrator 24.1.3, SVG Export Plug-In . SVG Version: 6.00 Build 0)  -->
<svg version="1.1" id="goingout_x5F_nightclub-layer"
	 xmlns="http://www.w3.org/2000/svg" xmlns:xlink="http://www.w3.org/1999/xlink" x="0px" y="0px" viewBox="0 0 24 24"
	 style="enable-background:new 0 0 24 24;" xml:space="preserve">
<g id="goingout_x5F_nightclub_9_">
	<rect style="fill:none;" width="24" height="24"/>
	<path style="fill:#494849;" d="M11,11c0,0.827-0.673,1.5-1.5,1.5C8.673,12.5,8,11.827,8,11c0-0.827,0.673-1.5,1.499-1.5
		C10.327,9.5,11,10.173,11,11z M8.03,18.361c-2.952-0.559-5.331-2.94-5.891-5.892c-1.002-5.285,3.54-9.831,8.826-8.831
		C13.918,4.198,16.3,6.578,16.86,9.53C17.863,14.816,13.315,19.362,8.03,18.361z M8.546,7.623C7.377,7.93,6.431,8.872,6.118,10.039
		c-0.715,2.665,1.663,5.046,4.327,4.333c1.166-0.312,2.109-1.256,2.418-2.424C13.566,9.294,11.203,6.926,8.546,7.623z M18,2v3.999
		l1,0v7.556c0,0.463-0.109,0.928-0.316,1.342l-1.078,2.155l-0.448-0.224l-1.635,3.27l0.447,0.224l1.789,0.895l0.447,0.224
		l1.635-3.27l-0.447-0.224l1.078-2.156C20.817,15.1,21,14.327,21,13.555V6l1,0V2H18z"/>
</g>
</svg>
