<?xml version="1.0" encoding="iso-8859-1"?>
<!-- Generator: Adobe Illustrator 24.1.3, SVG Export Plug-In . SVG Version: 6.00 Build 0)  -->
<svg version="1.1" id="goingout_x5F_pool-layer" xmlns="http://www.w3.org/2000/svg" xmlns:xlink="http://www.w3.org/1999/xlink"
	 x="0px" y="0px" viewBox="0 0 24 24" style="enable-background:new 0 0 24 24;" xml:space="preserve">
<g id="goingout_x5F_pool_9_">
	<rect style="fill:none;" width="24" height="24"/>
	<path style="fill:#494849;" d="M12.001,2C6.487,2,2,6.485,2,12c0,5.513,4.487,10,10.001,10C17.514,22,22,17.512,22,12
		C22,6.485,17.514,2,12.001,2z M12.001,17.888c-3.253,0-5.89-2.636-5.89-5.889c0-3.252,2.638-5.889,5.89-5.889
		c3.252,0,5.89,2.636,5.89,5.889C17.891,15.252,15.252,17.888,12.001,17.888z M13.199,11.714c0.836-0.429,1.221-0.99,1.221-1.672
		c0-1.232-1.111-1.893-2.42-1.893c-1.32,0-2.42,0.737-2.42,1.947c0,0.727,0.319,1.32,1.111,1.749
		c-0.88,0.374-1.408,0.969-1.408,1.87c0,1.199,1.023,2.135,2.684,2.135c1.684,0,2.75-0.946,2.75-2.156
		C14.717,12.814,14.211,12.165,13.199,11.714z M12,9.14c0.693,0,1.056,0.385,1.056,0.968c0,0.528-0.209,0.892-0.792,1.255
		l-0.209-0.077c-0.715-0.265-1.111-0.539-1.111-1.166C10.944,9.47,11.362,9.14,12,9.14z M12,14.806c-0.792,0-1.298-0.43-1.298-1.134
		c0-0.671,0.297-1.144,0.891-1.463l0.341,0.121c0.99,0.363,1.353,0.671,1.353,1.364C13.287,14.332,12.825,14.806,12,14.806z"/>
</g>
</svg>
