<?xml version="1.0" encoding="iso-8859-1"?>
<!-- Generator: Adobe Illustrator 24.1.3, SVG Export Plug-In . SVG Version: 6.00 Build 0)  -->
<svg version="1.1" id="goingout_x5F_casino-layer" xmlns="http://www.w3.org/2000/svg" xmlns:xlink="http://www.w3.org/1999/xlink"
	 x="0px" y="0px" viewBox="0 0 24 24" style="enable-background:new 0 0 24 24;" xml:space="preserve">
<g id="goingout_x5F_casino_8_">
	<rect style="fill:none;" width="24" height="24"/>
	<path style="fill:#494849;" d="M19.5,3h-15C3.672,3,3,3.672,3,4.5v15C3,20.328,3.672,21,4.5,21h15c0.828,0,1.5-0.672,1.5-1.5v-15
		C21,3.672,20.328,3,19.5,3z M7,19.5c-1.381,0-2.5-1.119-2.5-2.5s1.119-2.5,2.5-2.5s2.5,1.119,2.5,2.5S8.381,19.5,7,19.5z M12,14.5
		c-1.381,0-2.5-1.119-2.5-2.5s1.119-2.5,2.5-2.5s2.5,1.119,2.5,2.5S13.381,14.5,12,14.5z M17,9.5c-1.381,0-2.5-1.119-2.5-2.5
		s1.119-2.5,2.5-2.5s2.5,1.119,2.5,2.5S18.381,9.5,17,9.5z"/>
</g>
</svg>
