<?xml version="1.0" encoding="iso-8859-1"?>
<!-- Generator: Adobe Illustrator 24.1.3, SVG Export Plug-In . SVG Version: 6.00 Build 0)  -->
<svg version="1.1" id="goingout_x5F_arcadegame-layer"
	 xmlns="http://www.w3.org/2000/svg" xmlns:xlink="http://www.w3.org/1999/xlink" x="0px" y="0px" viewBox="0 0 24 24"
	 style="enable-background:new 0 0 24 24;" xml:space="preserve">
<g id="goingout_x5F_arcadegame_8_">
	<rect style="fill:none;" width="24" height="24"/>
	<path style="fill:#494849;" d="M6,20H4v-2h2V20z M4,20H2v2h2V20z M20,18h-2v2h2V18z M22,20h-2v2h2V20z M22,11v3h-4v4h-2v-4h-3v2h1
		v4h-4v-4h1v-2H8v4H6v-4H2v-3h2V8h2V5h2V2h8v3h2v3h1.988L20,11H22z M10,11V8H7v3H10z M17,8h-3v3h3v-1V9.333V8z"/>
</g>
</svg>
