<?xml version="1.0" encoding="iso-8859-1"?>
<!-- Generator: Adobe Illustrator 24.1.3, SVG Export Plug-In . SVG Version: 6.00 Build 0)  -->
<svg version="1.1" id="goingout_x5F_cinema-layer" xmlns="http://www.w3.org/2000/svg" xmlns:xlink="http://www.w3.org/1999/xlink"
	 x="0px" y="0px" viewBox="0 0 24 24" style="enable-background:new 0 0 24 24;" xml:space="preserve">
<g id="goingout_x5F_cinema_8_">
	<rect style="fill:none;" width="24" height="24"/>
	<path style="fill:#494849;" d="M14.25,11c2.485,0,4.5-2.015,4.5-4.5S16.735,2,14.25,2c-2.059,0-3.791,1.385-4.326,3.272
		C9.262,4.211,8.093,3.5,6.75,3.5C4.679,3.5,3,5.179,3,7.25S4.679,11,6.75,11C8.359,11,12.508,11,14.25,11z M14.25,5
		c0.828,0,1.5,0.672,1.5,1.5c0,0.828-0.672,1.5-1.5,1.5c-0.828,0-1.5-0.672-1.5-1.5C12.75,5.672,13.422,5,14.25,5z M5.25,7.25
		c0-0.828,0.672-1.5,1.5-1.5c0.828,0,1.5,0.672,1.5,1.5c0,0.828-0.672,1.5-1.5,1.5C5.922,8.75,5.25,8.078,5.25,7.25z M21,14v7h-2
		l-2.997-2v1.997C16.003,21.551,15.554,22,15,22H6.003C5.449,22,5,21.551,5,20.997v-6.994C5,13.449,5.449,13,6.003,13H15
		c0.554,0,1.003,0.449,1.003,1.003V16L19,14H21z"/>
</g>
</svg>
