<?xml version="1.0" encoding="iso-8859-1"?>
<!-- Generator: Adobe Illustrator 24.1.3, SVG Export Plug-In . SVG Version: 6.00 Build 0)  -->
<svg version="1.1" id="leisure_x5F_zoo-layer" xmlns="http://www.w3.org/2000/svg" xmlns:xlink="http://www.w3.org/1999/xlink"
	 x="0px" y="0px" viewBox="0 0 24 24" style="enable-background:new 0 0 24 24;" xml:space="preserve">
<g id="leisure_x5F_zoo_8_">
	<rect style="opacity:0;fill:none;" width="24" height="24"/>
	<g>
		<path style="fill:#494849;" d="M22,7.75C22,4.574,19.426,2,16.25,2C16.166,2,16.083,1.996,16,2c0,0-2.381-0.001-2.38,0
			C15.081,3.369,16,5.312,16,7.467V12c0,0-2,0-2,0c-0.001,0,0-4.533,0-4.533C14,4.629,12,2,9.089,2H7.5v0.001
			C4.469,2.009,2.015,4.467,2.015,7.5C2.015,8.276,2,16.466,2,16.466C2,19.504,4.463,22,7.501,22C7.501,22,8,22,8,22v-3
			c-1.138-0.015-2.191-0.81-2.443-1.97c-0.293-1.349,0.564-2.681,1.913-2.973C7.951,13.952,10,13.5,10,13.5V22
			c0.001,0,4-0.001,4-0.001v-5.03c0.001,0,3.999,0.531,3.999,0.531c0,0,0.002,4.5,0.003,4.5c0,0,3.498-0.001,3.499-0.001L22,8
			C22,8,22,7.835,22,7.75z M6.5,10C5.672,10,5,9.328,5,8.5S5.672,7,6.5,7S8,7.671,8,8.5S7.328,10,6.5,10z"/>
	</g>
</g>
</svg>
