<?xml version="1.0" encoding="iso-8859-1"?>
<!-- Generator: Adobe Illustrator 24.1.3, SVG Export Plug-In . SVG Version: 6.00 Build 0)  -->
<svg version="1.1" id="leisure_x5F_playground-layer"
	 xmlns="http://www.w3.org/2000/svg" xmlns:xlink="http://www.w3.org/1999/xlink" x="0px" y="0px" viewBox="0 0 24 24"
	 style="enable-background:new 0 0 24 24;" xml:space="preserve">
<g id="leisure_x5F_playground_8_">
	<rect style="opacity:0;fill:none;" width="24" height="24"/>
	<path style="fill:#494849;" d="M20.537,2H3.463C2.649,2,2.02,2.649,2,3.462V22h2V4h2.501L6.5,16c0,1.105,0.895,2,2,2H9v3.428
		l1.527-0.621C10.817,20.663,11,20.367,11,20.043V18h2v2.042c0,0.324,0.183,0.621,0.473,0.765L15,21.428c0,0,0.002-3.428,0-3.428
		h0.5c1.105,0,2-0.895,2-2l0-12H20v18h2V3.462C21.98,2.649,21.351,2,20.537,2z M16,16h-0.5l-1.257-3.351
		C14.097,12.259,13.724,12,13.307,12h-2.614c-0.417,0-0.79,0.259-0.936,0.649L8.5,16H8V4h8V16z M10,8.5v-1C10,6.672,10.672,6,11.5,6
		h1C13.328,6,14,6.672,14,7.5v1c0,0.828-0.672,1.5-1.5,1.5h-1C10.672,10,10,9.328,10,8.5z"/>
</g>
</svg>
