<?xml version="1.0" encoding="iso-8859-1"?>
<!-- Generator: Adobe Illustrator 24.1.3, SVG Export Plug-In . SVG Version: 6.00 Build 0)  -->
<svg version="1.1" id="leisure_x5F_main-layer" xmlns="http://www.w3.org/2000/svg" xmlns:xlink="http://www.w3.org/1999/xlink"
	 x="0px" y="0px" viewBox="0 0 24 24" style="enable-background:new 0 0 24 24;" xml:space="preserve">
<g id="leisure_x5F_main_8_">
	<rect style="opacity:0;fill:none;" width="24" height="24"/>
	<path style="fill:#494849;" d="M22,9.385C22,10.277,21.311,11,20.462,11h-2.44c-0.408,0-0.799-0.17-1.088-0.473l-1.088-1.143
		l-1.088,1.142C14.47,10.83,14.078,11,13.67,11H10.33c-0.408,0-0.799-0.17-1.088-0.473L8.154,9.385l-1.088,1.142
		C6.777,10.83,6.386,11,5.978,11h-2.44C2.689,11,2,10.277,2,9.385C4.087,6.308,6.286,4,11.048,4h0.421l0.055-1.5h0.952L12.531,4
		h0.421C17.714,4,19.913,6.308,22,9.385z M11.227,13L11,21h2l-0.227-8H11.227z"/>
</g>
</svg>
