<?xml version="1.0" encoding="iso-8859-1"?>
<!-- Generator: Adobe Illustrator 24.1.3, SVG Export Plug-In . SVG Version: 6.00 Build 0)  -->
<svg version="1.1" id="leisure_x5F_amusement-layer"
	 xmlns="http://www.w3.org/2000/svg" xmlns:xlink="http://www.w3.org/1999/xlink" x="0px" y="0px" viewBox="0 0 24 24"
	 style="enable-background:new 0 0 24 24;" xml:space="preserve">
<g id="leisure_x5F_amusement_8_">
	<rect style="opacity:0;fill:none;" width="24" height="24"/>
	<path style="fill:#494849;" d="M18.5,11.5C18.5,7.91,15.59,5,12,5s-6.5,2.91-6.5,6.5c0,2.802,1.776,5.183,4.262,6.096L8,22h8
		l-1.762-4.404C16.724,16.683,18.5,14.302,18.5,11.5z M13.491,15.727l-1.12-2.801C12.738,12.778,13,12.421,13,12
		c0-0.552-0.448-1-1-1c-0.552,0-1,0.448-1,1c0,0.421,0.262,0.778,0.63,0.925l-1.12,2.801C8.762,15.108,7.5,13.456,7.5,11.5
		C7.5,9.019,9.519,7,12,7s4.5,2.019,4.5,4.5C16.5,13.456,15.238,15.108,13.491,15.727z M4.001,6.005L3.996,6V4.998H7v1.001l0,0
		c0,0,0,0,0,0.001c0,0.552-0.448,1-1,1c0,0-0.001,0-0.001,0l0,0H4.997L4.997,6.999C4.448,6.998,4.004,6.554,4.001,6.005z
		 M10.503,3.005L10.498,3V1.998h3.004v1.001l0,0c0,0,0,0,0,0.001c0,0.552-0.448,1-1,1c0,0-0.001,0-0.001,0l0,0h-1.001l-0.001-0.001
		C10.95,3.998,10.506,3.554,10.503,3.005z M17.001,6.005L16.996,6V4.998H20v1.001l0,0c0,0,0,0,0,0.001c0,0.552-0.448,1-1,1
		c0,0-0.001,0-0.001,0l0,0h-1.001l-0.001-0.001C17.448,6.998,17.004,6.554,17.001,6.005z M3.999,13H2.997l-0.001-0.001
		c-0.549-0.002-0.993-0.446-0.996-0.994L1.996,12v-1.002H5v1.001l0,0c0,0,0,0,0,0.001c0,0.552-0.448,1-1,1C4,13,3.999,13,3.999,13
		L3.999,13z M22,11.999L22,11.999c0,0,0,0.001,0,0.001c0,0.552-0.448,1-1,1c0,0-0.001,0-0.001,0l0,0h-1.001l-0.001-0.001
		c-0.549-0.002-0.993-0.446-0.996-0.994L18.996,12v-1.002H22V11.999z M3.996,16.998H7v1.001l0,0c0,0,0,0,0,0.001
		c0,0.552-0.448,1-1,1c0,0-0.001,0-0.001,0l0,0H4.997l-0.001-0.001c-0.549-0.002-0.993-0.446-0.996-0.994L3.996,18V16.998z
		 M16.996,16.998H20v1.001l0,0c0,0,0,0,0,0.001c0,0.552-0.448,1-1,1c0,0-0.001,0-0.001,0l0,0h-1.001l-0.001-0.001
		c-0.549-0.002-0.993-0.446-0.996-0.994L16.996,18V16.998z"/>
</g>
</svg>
