<?xml version="1.0" encoding="iso-8859-1"?>
<!-- Generator: Adobe Illustrator 24.1.3, SVG Export Plug-In . SVG Version: 6.00 Build 0)  -->
<svg version="1.1" id="nature_x5F_main-layer" xmlns="http://www.w3.org/2000/svg" xmlns:xlink="http://www.w3.org/1999/xlink"
	 x="0px" y="0px" viewBox="0 0 24 24" style="enable-background:new 0 0 24 24;" xml:space="preserve">
<g id="nature_x5F_main_15_">
	<rect style="opacity:0;fill:none;" width="24" height="24"/>
	<path id="nature_x5F_main_16_" style="fill:#494849;" d="M10.09,18.058l-3.334,3.94l-1.818-1.818l3.94-3.334
		c-0.547-1.257-1.37-4.691,1.212-7.273C13.27,6.393,21,5.936,21,5.936s-0.457,7.73-3.637,10.91
		C14.782,19.428,11.347,18.605,10.09,18.058z M5.851,17.162l1.038-0.878c-0.546-2.169-0.522-5.412,1.99-7.924
		c0.704-0.704,1.574-1.286,2.516-1.773C9.927,4.016,8.143,2,8.143,2S3,7.789,3,12.286C3,14.698,4.479,16.243,5.851,17.162z"/>
</g>
</svg>
