<?xml version="1.0" encoding="iso-8859-1"?>
<!-- Generator: Adobe Illustrator 24.1.3, SVG Export Plug-In . SVG Version: 6.00 Build 0)  -->
<svg version="1.1" id="nature_x5F_overlook-layer" xmlns="http://www.w3.org/2000/svg" xmlns:xlink="http://www.w3.org/1999/xlink"
	 x="0px" y="0px" viewBox="0 0 24 24" style="enable-background:new 0 0 24 24;" xml:space="preserve">
<g id="nature_x5F_overlook_8_">
	<rect style="opacity:0.11;fill:none;" width="24" height="24"/>
	<path style="fill:#494849;" d="M10,4H6V2h4V4z M2,22h6v-2H2V22z M16,22h6v-2h-6V22z M18,2h-4v2h4V2z M22,12.509v6.454
		C22,18.983,21.983,19,21.962,19h-5.925C16.017,19,16,18.983,16,18.962V14H8v5H2v-6.491c0-0.662,0.164-1.314,0.478-1.896L5.5,5H10v1
		h4V5h4.478c0.014,0,3.044,5.612,3.044,5.612C21.836,11.195,22,11.847,22,12.509z M13,8H11v4H13V8z"/>
</g>
</svg>
