<?xml version="1.0" encoding="iso-8859-1"?>
<!-- Generator: Adobe Illustrator 24.1.3, SVG Export Plug-In . SVG Version: 6.00 Build 0)  -->
<svg version="1.1" id="religious_x5F_main-layer" xmlns="http://www.w3.org/2000/svg" xmlns:xlink="http://www.w3.org/1999/xlink"
	 x="0px" y="0px" viewBox="0 0 24 24" style="enable-background:new 0 0 24 24;" xml:space="preserve">
<g id="religious_x5F_main_8_">
	<rect style="fill:none;" width="24" height="24"/>
	<path style="fill:#494849;" d="M18,2l-4,10v7h-3v-8H3v11h19V12L18,2z M6,19v-6c0.667-0.667,1.333-0.667,2,0v6H6z M17,19v-6
		c0.667-0.667,1.333-0.667,2,0v6H17z M12,7c0.02,0.792-0.355,1.541-1,2H3C2.355,8.541,1.98,7.792,2,7c0-2,5-5,5-5S12,5,12,7z"/>
</g>
</svg>
