<?xml version="1.0" encoding="iso-8859-1"?>
<!-- Generator: Adobe Illustrator 24.1.3, SVG Export Plug-In . SVG Version: 6.00 Build 0)  -->
<svg version="1.1" id="shopping_x5F_main-layer" xmlns="http://www.w3.org/2000/svg" xmlns:xlink="http://www.w3.org/1999/xlink"
	 x="0px" y="0px" viewBox="0 0 24 24" style="enable-background:new 0 0 24 24;" xml:space="preserve">
<g id="shopping_x5F_main_8_">
	<rect style="fill:none;" width="24" height="24"/>
	<path style="fill:#494849;" d="M16.949,8l-0.247-2.044C16.499,4.267,15.112,3,13.469,3h-2.937c-1.644,0-3.03,1.267-3.234,2.956
		L7.051,8H3.333l0.57,11.102C3.957,20.166,4.835,21,5.9,21h12.2c1.065,0,1.943-0.834,1.997-1.898L20.667,8H16.949z M9.283,6.196
		C9.365,5.514,9.902,5,10.531,5h2.937c0.63,0,1.166,0.514,1.249,1.196L14.889,7.9C14.948,8.489,14.486,9,13.894,9h-3.788
		C9.514,9,9.052,8.489,9.111,7.9L9.283,6.196z"/>
</g>
</svg>
