<?xml version="1.0" encoding="iso-8859-1"?>
<!-- Generator: Adobe Illustrator 24.1.3, SVG Export Plug-In . SVG Version: 6.00 Build 0)  -->
<svg version="1.1" id="sights_x5F_attraction-layer"
	 xmlns="http://www.w3.org/2000/svg" xmlns:xlink="http://www.w3.org/1999/xlink" x="0px" y="0px" viewBox="0 0 24 24"
	 style="enable-background:new 0 0 24 24;" xml:space="preserve">
<g id="sights_x5F_attraction_8_">
	<polyline style="fill:none;" points="24,0 24,24 0,24 0,0 24,0 	"/>
	<path style="fill:#494849;" d="M18,12.5c0,1.378-1.121,2.5-2.5,2.5c-1.378,0-2.5-1.122-2.5-2.5s1.122-2.5,2.5-2.5
		C16.879,10,18,11.121,18,12.5z M22,6v11c0,1.104-0.895,2-2,2H4c-1.105,0-2-0.896-2-2V6h3V4h4v2H22z M9,8H5v2h4V8z M20,12.5
		c0-2.485-2.015-4.5-4.5-4.5S11,10.015,11,12.5c0,2.485,2.015,4.5,4.5,4.5S20,14.985,20,12.5z"/>
</g>
</svg>
