<?xml version="1.0" encoding="iso-8859-1"?>
<!-- Generator: Adobe Illustrator 24.1.3, SVG Export Plug-In . SVG Version: 6.00 Build 0)  -->
<svg version="1.1" id="sport_x5F_swimming-layer" xmlns="http://www.w3.org/2000/svg" xmlns:xlink="http://www.w3.org/1999/xlink"
	 x="0px" y="0px" viewBox="0 0 24 24" style="enable-background:new 0 0 24 24;" xml:space="preserve">
<g id="sport_x5F_swimming_8_">
	<rect style="fill:none;" width="24" height="24"/>
	<path style="fill:#494849;" d="M14.805,4L7.148,16.227c0.59-0.184,1.324-0.326,2.296-0.326c1.778,0,2.778,0.47,3.508,0.814
		c0.546,0.257,0.82,0.386,1.592,0.386c0.773,0,1.048-0.129,1.594-0.386c0.73-0.344,1.731-0.814,3.509-0.814
		c0.313,0,0.595,0.019,0.863,0.045l-5.06-5.46c-0.273-0.294-0.343-0.723-0.179-1.089l2.046-4.564C17.922,3.507,16.954,2,15.498,2
		H7.112l0.707,2H14.805z M19.647,18.8c-1.443,0-2.202,0.357-2.871,0.671C16.173,19.755,15.652,20,14.543,20
		c-1.107,0-1.628-0.245-2.231-0.529c-0.669-0.314-1.427-0.671-2.869-0.671c-1.442,0-2.199,0.357-2.867,0.672
		C5.974,19.755,5.454,20,4.348,20c-1.107,0-1.627-0.245-2.229-0.528C2.082,19.455,2.038,19.437,2,19.42v2.143
		C2.564,21.797,3.261,22,4.348,22c1.442,0,2.199-0.357,2.867-0.672C7.818,21.045,8.338,20.8,9.443,20.8
		c1.107,0,1.628,0.245,2.231,0.529C12.343,21.643,13.101,22,14.543,22c1.443,0,2.202-0.357,2.871-0.671
		c0.604-0.284,1.124-0.529,2.233-0.529c1.108,0,1.629,0.245,2.232,0.529c0.038,0.018,0.082,0.035,0.121,0.053v-2.144
		C21.435,19.004,20.737,18.8,19.647,18.8z M6.782,13H4.965c-1.105,0-2-0.896-2-2V9c0-1.104,0.895-2,2-2h1.5
		c0.828,0,1.5,0.672,1.5,1.5l0.343,2.061L6.782,13z"/>
</g>
</svg>
