<?xml version="1.0" encoding="iso-8859-1"?>
<!-- Generator: Adobe Illustrator 24.1.3, SVG Export Plug-In . SVG Version: 6.00 Build 0)  -->
<svg version="1.1" id="sport_x5F_bowling-layer" xmlns="http://www.w3.org/2000/svg" xmlns:xlink="http://www.w3.org/1999/xlink"
	 x="0px" y="0px" viewBox="0 0 24 24" style="enable-background:new 0 0 24 24;" xml:space="preserve">
<g id="sport_x5F_bowling_8_">
	<rect style="opacity:0;fill:none;" width="24" height="24"/>
	<g>
		<path style="fill:#494849;" d="M14.693,7.385c-1.985,0-3.772,0.802-5.087,2.087c0.158,0.339,0.38,0.703,0.627,1.099
			c0.65,1.042,1.459,2.338,1.459,4.022c0,0.913-0.388,2.964-1.148,6.081C11.725,21.496,13.144,22,14.693,22
			C18.729,22,22,18.729,22,14.692C22,10.655,18.729,7.385,14.693,7.385z M15.132,12.394c0-0.631,0.512-1.163,1.144-1.163
			c0.632,0,1.144,0.532,1.144,1.163c0,0.632-0.512,1.145-1.144,1.145C15.644,13.539,15.132,13.026,15.132,12.394z M17.046,16.615
			c-0.632,0-1.144-0.512-1.144-1.144c0-0.632,0.512-1.164,1.144-1.164c0.632,0,1.144,0.532,1.144,1.164
			C18.19,16.103,17.678,16.615,17.046,16.615z M19.372,14.308c-0.632,0-1.144-0.512-1.144-1.144c0-0.632,0.512-1.163,1.144-1.163
			c0.632,0,1.144,0.532,1.144,1.163C20.517,13.795,20.005,14.308,19.372,14.308z M7.381,8.667c0,2.222,2.311,3.704,2.311,5.926
			c0,1.152-0.932,4.994-1.346,6.644C8.233,21.686,7.816,22,7.335,22H4.357c-0.481,0-0.898-0.314-1.011-0.764
			C2.932,19.587,2,15.745,2,14.593c0-2.222,2.311-3.704,2.311-5.926c0,0-0.021-0.62-0.062-0.985L3.591,4.684l0.001,0
			C3.559,4.534,3.541,4.38,3.541,4.222C3.541,2.995,4.575,2,5.852,2s2.311,0.995,2.311,2.222c0,0.193-0.034,0.377-0.082,0.556
			L7.444,7.681C7.402,8.046,7.381,8.667,7.381,8.667z"/>
	</g>
</g>
</svg>
