<?xml version="1.0" encoding="iso-8859-1"?>
<!-- Generator: Adobe Illustrator 24.1.3, SVG Export Plug-In . SVG Version: 6.00 Build 0)  -->
<svg version="1.1" id="sport_x5F_ski_x5F_run-layer"
	 xmlns="http://www.w3.org/2000/svg" xmlns:xlink="http://www.w3.org/1999/xlink" x="0px" y="0px" viewBox="0 0 24 24"
	 style="enable-background:new 0 0 24 24;" xml:space="preserve">
<g id="sport_x5F_ski_x5F_run_8_">
	<path style="opacity:0.05;fill:none;" d="M0,0l24,0v24H0L0,0z"/>
	<path style="fill:#494849;" d="M20.369,6.086l0.993-1.736c0.274-0.479,0.108-1.09-0.372-1.364l-0.868-0.496
		c-0.479-0.274-1.09-0.108-1.364,0.372l-1.489,2.605l0.868,0.496l0.868,0.496C19.484,6.732,20.095,6.565,20.369,6.086z
		 M19.375,19.916c-0.857,0.487-1.232,0.457-1.799,0.124l-6.077-3.474l3.473-2.046l-0.93-3.411L9.701,8.627l2.232,4.155l-2.605,2.542
		L3.685,12.1l-1.178,1.054l14.31,8.172c0.921,0.524,2.067,0.392,2.846-0.345L19.375,19.916z M20.492,11.916l-2.605-1.489L17.8,7.505
		l-3.37-1.926c-0.329-0.188-0.736-0.174-1.051,0.036L11.81,6.953L6.601,3.976L5.857,5.278l13.891,7.94L20.492,11.916z"/>
</g>
</svg>
