<?xml version="1.0" encoding="iso-8859-1"?>
<!-- Generator: Adobe Illustrator 24.1.3, SVG Export Plug-In . SVG Version: 6.00 Build 0)  -->
<svg version="1.1" id="sport_x5F_main-layer" xmlns="http://www.w3.org/2000/svg" xmlns:xlink="http://www.w3.org/1999/xlink"
	 x="0px" y="0px" viewBox="0 0 24 24" style="enable-background:new 0 0 24 24;" xml:space="preserve">
<g id="sport_x5F_main_8_">
	<rect style="opacity:0;fill:none;" width="24" height="24"/>
	<path style="fill:#494849;" d="M14,22c0,0,0-1.969,0-2.5c0-1.25-1-1.875-1.999-1.875c-1,0-2,0.625-2,1.875V22H5.366
		c-1.603,0-2.923-1.261-2.997-2.863L2,11.091l4.5,4.192C7.003,15.744,7.661,16,8.343,16h6.969c0.682,0,1.34-0.256,1.843-0.717
		L22,11.091l-0.369,8.047C21.558,20.739,20.238,22,18.634,22H14z M7.852,13.809C7.986,13.932,8.16,14,8.343,14h6.969
		c0.182,0,0.357-0.068,0.491-0.191l0.021-0.02l0.022-0.019L17.893,12H5.91L7.852,13.809z M22,2.896L18,2.04V8h-6V4.295l2-0.579
		v-0.86L10,2v6H3.997L3.984,4.31L6,3.716v-0.86L2,2v6.357L3.763,10h16.441L22,8.446V8h-2l-0.001-3.649L22,3.756V2.896z"/>
</g>
</svg>
