<?xml version="1.0" encoding="iso-8859-1"?>
<!-- Generator: Adobe Illustrator 24.1.3, SVG Export Plug-In . SVG Version: 6.00 Build 0)  -->
<svg version="1.1" id="sport_x5F_fitness-layer" xmlns="http://www.w3.org/2000/svg" xmlns:xlink="http://www.w3.org/1999/xlink"
	 x="0px" y="0px" viewBox="0 0 24 24" style="enable-background:new 0 0 24 24;" xml:space="preserve">
<g id="sport_x5F_fitness_8_">
	<rect style="fill:none;" width="24" height="24"/>
	<path style="fill:#494849;" d="M21.723,11.013l-1.414-1.414l1.768-1.768l-2.121-2.121l1.061-1.061l-1.414-1.414l-1.061,1.061
		l-2.121-2.121l-1.768,1.768l-1.414-1.414c-0.389-0.389-1.025-0.389-1.414,0l-1.768,1.768c-0.389,0.389-0.389,1.025,0,1.414
		l3.536,3.536l-4.596,4.596l-3.536-3.536c-0.391-0.391-1.024-0.391-1.414,0L2.631,11.72c-0.39,0.391-0.39,1.024,0,1.414l1.414,1.414
		l-1.768,1.768l2.121,2.121l-1.414,1.414l1.414,1.414l1.414-1.414l2.121,2.121l1.768-1.768l1.414,1.414
		c0.391,0.391,1.024,0.391,1.414,0l1.414-1.414c0.391-0.391,0.391-1.024,0-1.414l-3.536-3.536l4.596-4.596l3.536,3.536
		c0.391,0.391,1.024,0.391,1.414,0l1.768-1.768C22.112,12.038,22.112,11.402,21.723,11.013z"/>
</g>
</svg>
