<?xml version="1.0" encoding="iso-8859-1"?>
<!-- Generator: Adobe Illustrator 24.1.3, SVG Export Plug-In . SVG Version: 6.00 Build 0)  -->
<svg version="1.1" id="toll_x5F_booth-layer" xmlns="http://www.w3.org/2000/svg" xmlns:xlink="http://www.w3.org/1999/xlink"
	 x="0px" y="0px" viewBox="0 0 24 24" style="enable-background:new 0 0 24 24;" xml:space="preserve">
<g id="toll_x5F_booth_8_">
	<g>
		<rect style="fill:none;" width="24" height="24"/>
	</g>
	<path style="fill:#494849;" d="M11.5,18c3.314,0,6-2.686,6-6c0-3.312-2.686-6-6-6c-3.315,0-6,2.688-6,6
		C5.5,15.314,8.185,18,11.5,18z M11,8h2v8h-2v-5.5H9L11,8z M22,18v1c0,1.654-1.346,3-3,3H5c-1.654,0-3-1.346-3-3v-1
		c0-1.534,1.161-2.788,2.648-2.964C4.969,15.759,5.404,16.418,5.926,17H4v3h16v-3h-2.926c0.531-0.591,0.972-1.263,1.295-2H19
		C20.654,15,22,16.346,22,18z M11.5,4.5c-0.197,0-0.391,0.015-0.584,0.03C11.819,3.24,13.305,2.389,15,2.389c2.761,0,5,2.24,5,5
		c0,1.198-0.444,2.279-1.147,3.138C18.167,7.095,15.131,4.5,11.5,4.5z"/>
</g>
</svg>
