<?xml version="1.0" encoding="iso-8859-1"?>
<!-- Generator: Adobe Illustrator 24.1.3, SVG Export Plug-In . SVG Version: 6.00 Build 0)  -->
<svg version="1.1" id="transport_x5F_inclined-layer"
	 xmlns="http://www.w3.org/2000/svg" xmlns:xlink="http://www.w3.org/1999/xlink" x="0px" y="0px" viewBox="0 0 24 24"
	 style="enable-background:new 0 0 24 24;" xml:space="preserve">
<g id="transport_x5F_inclined_8_">
	<rect id="_x3C_Path_x3E__97_" style="fill:none;" width="24" height="24"/>
	<path style="fill:#494849;" d="M19.51,2c-0.2,0-0.39,0.02-0.59,0.07L5.31,5.29C3.96,5.61,3,6.82,3,8.21V18l19-4.5v-9
		C22,3.09,20.85,2,19.51,2z M11.75,10.971L5,12.581V8.32c0-0.58,0.4-1.08,0.96-1.21l5.79-1.38V10.971z M20,9l-6.75,1.611V5.37
		l5.83-1.391c0.06-0.01,0.12-0.02,0.18-0.02c0.35,0,0.74,0.29,0.74,0.75V9z M2,21.881l20-4.743v-1.5L2,20.381V21.881z"/>
</g>
</svg>
