<?xml version="1.0" encoding="iso-8859-1"?>
<!-- Generator: Adobe Illustrator 24.1.3, SVG Export Plug-In . SVG Version: 6.00 Build 0)  -->
<svg version="1.1" id="transport_x5F_airport-layer"
	 xmlns="http://www.w3.org/2000/svg" xmlns:xlink="http://www.w3.org/1999/xlink" x="0px" y="0px" viewBox="0 0 24 23.998"
	 style="enable-background:new 0 0 24 23.998;" xml:space="preserve">
<g id="transport_x5F_airport_8_">
	<rect style="opacity:0;fill:none;" width="24" height="23.998"/>
	<path style="fill:#494849;" d="M18.389,8.547l0.931,11.143L17.01,22l-3.012-9.244c-1.886,1.672-3.803,3.224-5.346,4.301
		l0.929,3.143l-0.932,0.94l-1.933-2.894c-0.588,0.286-1.01,0.386-1.178,0.218c-0.168-0.168-0.069-0.59,0.217-1.176l-2.887-1.928
		l0.94-0.932l2.879,1.298c1.072-1.592,2.728-3.657,4.529-5.691L1.999,6.991l2.309-2.309l11.185,0.889
		c3.725-3.531,5.451-4.02,6.203-3.269C22.45,3.055,21.955,4.792,18.389,8.547z"/>
</g>
</svg>
