<?xml version="1.0" encoding="iso-8859-1"?>
<!-- Generator: Adobe Illustrator 24.1.3, SVG Export Plug-In . SVG Version: 6.00 Build 0)  -->
<svg version="1.1" id="transport_x5F_train-layer" xmlns="http://www.w3.org/2000/svg" xmlns:xlink="http://www.w3.org/1999/xlink"
	 x="0px" y="0px" viewBox="0 0 24 24" style="enable-background:new 0 0 24 24;" xml:space="preserve">
<g id="transport_x5F_train_8_">
	<path id="_x3C_Path_x3E__96_" style="fill:none;" d="M24,24H0V0h24V24z"/>
	<path style="fill:#494849;" d="M16.31,17c1.73,0,3.1-1.46,3-3.18l-0.64-9C18.57,3.24,17.26,2,15.68,2H8.32
		C6.74,2,5.43,3.24,5.33,4.82l-0.64,9c-0.1,1.72,1.27,3.18,3,3.18H8l-5,5h3l4.5-5h3l4.5,5h3l-5-5H16.31z M9.5,14.5H7.715
		c-0.577,0-1.035-0.487-0.998-1.063l0.032-0.5C6.782,12.41,7.219,12,7.746,12H9.5V14.5z M7,9.5l0.288-4.51
		C7.322,4.44,7.778,4,8.337,4h7.326c0.558,0,1.015,0.44,1.049,0.99L17,9.5H7z M14.5,14.5V12h1.754c0.528,0,0.965,0.41,0.998,0.937
		l0.032,0.5c0.036,0.576-0.421,1.063-0.998,1.063H14.5z"/>
</g>
</svg>
