<?xml version="1.0" encoding="iso-8859-1"?>
<!-- Generator: Adobe Illustrator 24.1.3, SVG Export Plug-In . SVG Version: 6.00 Build 0)  -->
<svg version="1.1" id="transport_x5F_rail_x5F_regional-layer"
	 xmlns="http://www.w3.org/2000/svg" xmlns:xlink="http://www.w3.org/1999/xlink" x="0px" y="0px" viewBox="0 0 24 24"
	 style="enable-background:new 0 0 24 24;" xml:space="preserve">
<g id="transport_x5F_rail_x5F_regional_8_">
	<rect id="_x3C_Path_x3E__95_" style="fill:none;" width="24" height="24"/>
	<path style="fill:#494849;" d="M20,3.5C20,2.67,19.33,2,18.5,2h-13C4.67,2,4,2.67,4,3.5V17h4l-5,5h3l4.5-5h3l4.5,5h3l-5-5h4V3.5z
		 M6,4h5v7H6V4z M7.5,15.5L7.5,15.5C6.672,15.5,6,14.828,6,14v0c0-0.828,0.672-1.5,1.5-1.5h0C8.328,12.5,9,13.172,9,14v0
		C9,14.828,8.328,15.5,7.5,15.5z M18,14L18,14c0,0.828-0.672,1.5-1.5,1.5h0c-0.828,0-1.5-0.672-1.5-1.5v0c0-0.828,0.672-1.5,1.5-1.5
		h0C17.328,12.5,18,13.172,18,14z M18,11h-5V4h5V11z"/>
</g>
</svg>
