<?xml version="1.0" encoding="iso-8859-1"?>
<!-- Generator: Adobe Illustrator 24.1.3, SVG Export Plug-In . SVG Version: 6.00 Build 0)  -->
<svg version="1.1" id="transport_x5F_monorail-layer"
	 xmlns="http://www.w3.org/2000/svg" xmlns:xlink="http://www.w3.org/1999/xlink" x="0px" y="0px" viewBox="0 0 24 24"
	 style="enable-background:new 0 0 24 24;" xml:space="preserve">
<g id="transport_x5F_monorail_10_">
	<path id="_x3C_Path_x3E__91_" style="fill:none;" d="M24,24H0V0h24V24z"/>
	<path style="fill:#494849;" d="M19.901,12.306L19.016,4.82c-0.09-1.58-1.4-2.82-2.99-2.82H7.974c-1.59,0-2.9,1.24-2.99,2.82
		l-0.885,7.486c-0.082,0.784,0.023,1.577,0.306,2.314l1.531,3.48c0.324,0.843,1.135,1.4,2.038,1.4l0.62-2.978
		C8.817,15.627,9.621,15,10.543,15h2.914c0.922,0,1.726,0.627,1.949,1.522l0.568,2.978c0.904,0,1.714-0.557,2.038-1.4l1.582-3.48
		C19.878,13.884,19.983,13.091,19.901,12.306z M7.896,4h8.221c0.609,0,1.137,0.498,1.173,1.105c0,0,0.103,2.214,0.155,3.895H6.524
		c0.064-1.68,0.2-3.895,0.2-3.895C6.759,4.498,7.287,4,7.896,4z M9,13.5H7.02c-0.483,0-0.867-0.407-0.839-0.89l0.048-0.82
		C6.256,11.347,6.624,11,7.069,11H9c0,0,0,0,0,0V13.5z M16.98,13.5H15V11h1.931c0.445,0,0.812,0.347,0.839,0.791l0.048,0.82
		C17.847,13.093,17.463,13.5,16.98,13.5z M13.69,17.755l0.781,4.233c-0.004,0.005-0.006,0.007-0.01,0.012H9.487
		c-0.004-0.004-0.005-0.007-0.009-0.011l0.781-4.234C10.386,17.308,10.795,17,11.26,17h1.429C13.154,17,13.562,17.308,13.69,17.755z
		"/>
</g>
</svg>
