<?xml version="1.0" encoding="iso-8859-1"?>
<!-- Generator: Adobe Illustrator 24.1.3, SVG Export Plug-In . SVG Version: 6.00 Build 0)  -->
<svg version="1.1" id="transport_x5F_rail_x5F_light-layer"
	 xmlns="http://www.w3.org/2000/svg" xmlns:xlink="http://www.w3.org/1999/xlink" x="0px" y="0px" viewBox="0 0 24 24"
	 style="enable-background:new 0 0 24 24;" xml:space="preserve">
<g id="transport_x5F_rail_x5F_light_8_">
	<path id="_x3C_Path_x3E__94_" style="fill:none;" d="M24,24H0V0h24V24z"/>
	<path style="fill:#494849;" d="M16,17h2.5v-4.95c0-0.7-0.04-1.4-0.11-2.09l-0.61-5.27C17.62,3.16,16.33,2,14.8,2H9.2
		C7.67,2,6.38,3.16,6.22,4.69L5.61,9.96c-0.07,0.69-0.11,1.39-0.11,2.09V17H8l-5,5h3l4.5-5h3l5.5,5h3L16,17z M8.26,5.365
		c0.06-0.64,0.6-1.37,1.24-1.37h5c0.64,0,1.18,0.73,1.24,1.37l0.611,4.775c0.032,0.283,0.055,0.571,0.071,0.86H7.58
		c0.016-0.289,0.038-0.577,0.071-0.86L8.26,5.365z M12,15.5c-0.828,0-1.5-0.672-1.5-1.5s0.672-1.5,1.5-1.5s1.5,0.672,1.5,1.5
		S12.828,15.5,12,15.5z"/>
</g>
</svg>
