<?xml version="1.0" encoding="iso-8859-1"?>
<!-- Generator: Adobe Illustrator 24.1.3, SVG Export Plug-In . SVG Version: 6.00 Build 0)  -->
<svg version="1.1" id="transport_x5F_aerial-layer" xmlns="http://www.w3.org/2000/svg" xmlns:xlink="http://www.w3.org/1999/xlink"
	 x="0px" y="0px" viewBox="0 0 24 24" style="enable-background:new 0 0 24 24;" xml:space="preserve">
<g id="transport_x5F_aerial_8_">
	<path style="opacity:0;fill:none;" d="M0,0v24h24V0H0z"/>
	<path style="fill:#494849;" d="M22,4V2L2,4.5v2l9-1.125V9H3.716C2.768,9,2,9.768,2,10.716v7.325C2,20.228,3.772,22,5.959,22h12.082
		C20.228,22,22,20.228,22,18.041v-7.322C22,9.77,21.23,9,20.281,9H13V5.126L22,4z M11,16.5H5V11h6V16.5z M13,11h6v5.5h-6V11z"/>
</g>
</svg>
