<?xml version="1.0" encoding="iso-8859-1"?>
<!-- Generator: Adobe Illustrator 24.1.3, SVG Export Plug-In . SVG Version: 6.00 Build 0)  -->
<svg version="1.1" id="transport_x5F_taxi-layer" xmlns="http://www.w3.org/2000/svg" xmlns:xlink="http://www.w3.org/1999/xlink"
	 x="0px" y="0px" viewBox="0 0 24 24" style="enable-background:new 0 0 24 24;" xml:space="preserve">
<g id="transport_x5F_taxi_8_">
	<rect style="fill:none;" width="24" height="24"/>
	<path style="fill:#494849;" d="M21.5,11h-1.722l-1.023-2.301C18.296,7.667,17.313,7,16.251,7h-0.816L15.06,4.104
		C14.978,3.47,14.485,3,13.905,3h-3.81C9.515,3,9.022,3.47,8.94,4.104L8.565,7H7.782C6.72,7,5.738,7.667,5.279,8.699L4.256,11H2.5
		c-0.667,0.667-0.667,1.333,0,2h0.517v6c0,0.552,0.448,1,1,1H7c0.552,0,1-0.448,1-1v-1h8v1c0,0.552,0.448,1,1,1h3
		c0.552,0,1-0.448,1-1v-6h0.5C22.167,12.333,22.167,11.667,21.5,11z M8,16H5.5c-0.667-0.667-0.667-1.333,0-2H8V16z M6,12
		l1.106-2.488C7.246,9.196,7.506,9,7.782,9h8.469c0.277,0,0.536,0.196,0.677,0.512L18.034,12H6z M18.5,16H16v-2h2.5
		C19.167,14.667,19.167,15.333,18.5,16z"/>
</g>
</svg>
