<?xml version="1.0" encoding="iso-8859-1"?>
<!-- Generator: Adobe Illustrator 24.1.3, SVG Export Plug-In . SVG Version: 6.00 Build 0)  -->
<svg version="1.1" id="underground-train-subway-layer"
	 xmlns="http://www.w3.org/2000/svg" xmlns:xlink="http://www.w3.org/1999/xlink" x="0px" y="0px" viewBox="0 0 24 24"
	 style="enable-background:new 0 0 24 24;" xml:space="preserve">
<g id="underground-train-subway_6_">
	<g id="_x3C_Path_x3E__93_">
	</g>
	<path style="fill:#494849;" d="M9.994,5.765c-1.356,0-3.498,0.355-3.498,2.733v1.831h7V8.498
		C13.496,6.119,11.349,5.765,9.994,5.765z M9.214,16.5L6.991,20h6.006l-2.254-3.5H9.214z M12.991,15L12.991,15
		c0.69,0,1.25-0.56,1.25-1.25l0,0c0-0.69-0.56-1.25-1.25-1.25l0,0c-0.69,0-1.25,0.56-1.25,1.25l0,0
		C11.741,14.44,12.301,15,12.991,15z M6.991,15L6.991,15c0.69,0,1.25-0.56,1.25-1.25l0,0c0-0.69-0.56-1.25-1.25-1.25l0,0
		c-0.69,0-1.25,0.56-1.25,1.25l0,0C5.741,14.44,6.301,15,6.991,15z M9.991,0C3.642,0,0,3.082,0,8.456V20h3.991l2.586-3.5H4.991
		c-0.55,0-1-0.45-1-1V8.369c0-3.004,2.301-4.869,6.003-4.869s6.003,1.865,6.003,4.869V15.5c0,0.552-0.448,1-1,1h-1.656l2.657,3.5
		h3.985V8.456C19.982,3.082,16.34,0,9.991,0z"/>
</g>
</svg>
