<?xml version="1.0" encoding="iso-8859-1"?>
<!-- Generator: Adobe Illustrator 24.1.3, SVG Export Plug-In . SVG Version: 6.00 Build 0)  -->
<svg version="1.1" id="venue_x5F_icon-layer" xmlns="http://www.w3.org/2000/svg" xmlns:xlink="http://www.w3.org/1999/xlink"
	 x="0px" y="0px" viewBox="0 0 24 24" style="enable-background:new 0 0 24 24;" xml:space="preserve">
<g id="venue_x5F_icon_8_">
	<rect style="fill:none;" width="24" height="24"/>
	<path style="fill:#494849;" d="M5,6l7,4.5v2L5,17l1-4H2v-3h4L5,6z M22,6.386v11.228c0,0.834-0.517,1.58-1.298,1.873l-5.351,2.007
		C14.697,21.739,14,21.255,14,20.557V3.443c0-0.698,0.697-1.181,1.351-0.936l5.351,2.007C21.483,4.806,22,5.552,22,6.386z
		 M18.004,10.008c0-0.004-0.003-0.008-0.006-0.008H16c-0.003,0,0,3,0,3c0,0.004,1.998,0,1.998,0c0.003,0,0.006-0.003,0.006-0.008
		V10.008z"/>
</g>
</svg>
