<svg xmlns="http://www.w3.org/2000/svg" width="24" height="24" viewBox="0 0 24 24">
  <g fill="none" fill-rule="evenodd">
    <polygon points="0 0 24 0 24 24 0 24" opacity="0"/>
    <path fill="#0F1621" fill-opacity=".95" d="M21.998,1.99999996 L21.998,19 L19.998,19 L19.998,3.99999996 L8.37299998,3.99999996 C6.14855553,5.32599997 5.36976815,6.34042796 5.09992981,6.93345065 L5.07099997,6.99999996 L16.998,6.99999996 L16.998,22 L3.99799996,22 C3.48542854,22 3.06253057,21.6137143 3.00473174,21.1165685 L2.99799996,21 L2.99799996,6.99999996 C3.26570367,5.39474071 4.77134976,3.79040874 7.51315235,2.18521817 L7.83499998,1.99999996 L21.998,1.99999996 Z M13.998,12 L5.99799997,12 L5.99799997,14 L13.998,14 L13.998,12 Z"/>
  </g>
</svg>
