<svg xmlns="http://www.w3.org/2000/svg" width="24" height="24" viewBox="0 0 24 24">
  <g fill="none" fill-rule="evenodd">
    <rect width="24" height="24" opacity="0"/>
    <path fill="#0F1621" fill-opacity=".95" d="M18,6.99999998 C19.105,6.99999998 20,7.89499998 20,8.99999998 L20,22 L3.99999997,22.036 L3.99999997,8.99999998 C3.99999997,7.89499998 4.89499997,6.99999998 5.99999997,6.99999998 L18,6.99999998 Z M15.295,1.99999996 C16.236,1.99999996 17,2.76399996 17,3.70599997 L17,4.99999996 L6.99999998,4.99999996 L6.99999998,3.70599997 C6.99999998,2.76399996 7.76399998,1.99999996 8.70599999,1.99999996 L15.295,1.99999996 Z M17.5,13 L13.5,13 L13.5,8.99999999 L10.5,8.99999999 L10.5,13 L6.49999998,13 L6.49999998,16 L10.5,16 L10.5,20 L13.5,20 L13.5,16 L17.5,16 L17.5,13 Z"/>
  </g>
</svg>
