<?xml version="1.0" encoding="iso-8859-1"?>
<!-- Generator: Adobe Illustrator 24.1.2, SVG Export Plug-In . SVG Version: 6.00 Build 0)  -->
<svg version="1.1" id="_x39_00-9200-0219_x5F_marina-layer"
	 xmlns="http://www.w3.org/2000/svg" xmlns:xlink="http://www.w3.org/1999/xlink" x="0px" y="0px" viewBox="0 0 24 24"
	 style="enable-background:new 0 0 24 24;" xml:space="preserve">
<g id="_x39_00-9200-0219_x5F_marina_1_">
	<rect style="fill:none;" width="24" height="24"/>
	<path d="M19,10l-3,5h2c0,2.76-2.24,5-5,5v-9h3v0c0-1.105-0.895-2-2-2h-1V7.82c1.346-0.46,2.243-1.861,1.942-3.425
		c-0.226-1.175-1.194-2.128-2.37-2.343C10.658,1.702,9,3.153,9,5c0,1.31,0.83,2.42,2,2.82V9h-1c-1.105,0-2,0.895-2,2v0h3v9
		c-2.76,0-5-2.24-5-5h2l-3-5l-3,5h2c0,3.87,3.13,7,7,7h2c3.87,0,7-3.13,7-7h2L19,10z M12,4c0.55,0,1,0.45,1,1s-0.45,1-1,1
		s-1-0.45-1-1S11.45,4,12,4z"/>
</g>
</svg>
