<svg width="24" height="24" viewBox="0 0 24 24" fill="none" xmlns="http://www.w3.org/2000/svg">
<path d="M21.0164 11H12.0164V7H19.0164C19.5468 7 20.0555 7.21071 20.4306 7.58579C20.8056 7.96086 21.0164 8.46957 21.0164 9V11ZM6.01636 11V9C6.01636 8.46957 6.22707 7.96086 6.60214 7.58579C6.97722 7.21071 7.48592 7 8.01636 7C8.54679 7 9.0555 7.21071 9.43057 7.58579C9.80564 7.96086 10.0164 8.46957 10.0164 9V11H6.01636ZM22.0164 13.75C22.0138 13.5519 21.9339 13.3626 21.7938 13.2225C21.6537 13.0824 21.4645 13.0026 21.2664 13H4.01636V5H2.01636V20H4.01636V17H20.0164V20H22.0164V13.75Z" fill="#0F1621"/>
</svg>
