<svg width="24" height="24" viewBox="0 0 24 24" fill="none" xmlns="http://www.w3.org/2000/svg">
<path d="M20 14V16H4V14H20ZM2 4V20H4V18H20V20H22V12H4V6C3.99777 5.47042 3.78559 4.96335 3.41 4.59C3.03665 4.21441 2.52958 4.00223 2 4V4ZM19 7H13C12.7348 7 12.4804 7.10536 12.2929 7.29289C12.1054 7.48043 12 7.73478 12 8V10H20V8C20 7.73478 19.8946 7.48043 19.7071 7.29289C19.5196 7.10536 19.2652 7 19 7ZM8 7C7.46957 7 6.96086 7.21071 6.58579 7.58579C6.21071 7.96086 6 8.46957 6 9C6.00062 9.35126 6.09375 9.69616 6.27 10H9.73C9.90545 9.69611 9.99786 9.35141 9.99795 9.00051C9.99804 8.64961 9.90581 8.30486 9.73051 8.00089C9.55522 7.69691 9.30303 7.4444 8.99928 7.26872C8.69553 7.09303 8.3509 7.00036 8 7V7Z" fill="#0F1621"/>
</svg>
