<svg width="24" height="24" viewBox="0 0 24 24" fill="none" xmlns="http://www.w3.org/2000/svg">
<path d="M12 22H2V20H12V22ZM20.8 2.00002L17.56 2.65002C17.1803 2.73233 16.8328 2.92345 16.56 3.20002L14 6.00002L8 5.00002L6 7.00002L10 10L7.07 13H4L2 15L8 17L21.7 3.71002C21.8619 3.56061 21.9699 3.36192 22.0073 3.14481C22.0447 2.92769 22.0094 2.70431 21.9068 2.50935C21.8042 2.3144 21.64 2.15878 21.4399 2.06668C21.2398 1.97458 21.0148 1.95114 20.8 2.00002ZM18 10L15 13L17 16L18 15V10Z" fill="#0F1621"/>
</svg>
