<svg width="16" height="16" viewBox="0 0 16 16" fill="none" xmlns="http://www.w3.org/2000/svg">
<path d="M3.7335 12.2858C3.60016 12.1525 3.60016 11.9525 3.80016 11.5525L1.86683 10.4191L2.46683 9.81913L4.60016 10.2858C5.3335 9.2858 6.3335 7.95246 7.46683 6.75246L1.3335 4.6858L2.86683 3.15246L10.2668 3.75246C12.8002 1.35246 13.9335 1.01913 14.4002 1.55246C14.9335 2.0858 14.6002 3.21913 12.2002 5.6858L12.8002 13.0858L11.3335 14.6858L9.3335 8.55246C8.06683 9.6858 6.80016 10.6858 5.80016 11.4191L6.26683 13.5525L5.66683 14.1525L4.5335 12.2191C4.06683 12.3525 3.86683 12.4191 3.7335 12.2858Z" fill="#0F1621"/>
</svg>
