<svg width="16" height="16" viewBox="0 0 16 16" fill="none" xmlns="http://www.w3.org/2000/svg">
<path d="M2.66683 12.0867H13.3335V14.0867H2.66683V12.0867ZM14.6668 4.83333C14.5002 4.52666 13.8002 4.57999 13.5335 4.49999C13.2668 4.41999 12.8002 4.10666 12.3802 4.33999L9.56016 5.85332L4.8935 3.27999C4.79983 3.22743 4.69423 3.19983 4.58683 3.19983C4.47943 3.19983 4.37383 3.22743 4.28016 3.27999L3.4735 3.71999L7.36016 7.05333L4.5535 8.58666L2.76683 7.37333C2.66844 7.30967 2.55501 7.27307 2.43797 7.26721C2.32093 7.26136 2.20441 7.28646 2.10016 7.33999L1.3335 7.75999L3.10683 9.67999L5.82016 10.0733C6.0906 10.1113 6.36611 10.0623 6.60683 9.93332L13.4735 6.18666L14.0002 5.88666C14.3335 5.71999 14.8002 5.13999 14.6668 4.83333Z" fill="#0F1621"/>
</svg>
