<svg width="24" height="24" viewBox="0 0 24 24" fill="none" xmlns="http://www.w3.org/2000/svg">
<path d="M6.47 5.57002L8.87 6.33002L8.11 7.14002L6.47 5.57002ZM5 3.00002L3 5.00002L8.18 10L12.5 5.40002L5 3.00002ZM20.41 3.87002C20.3229 4.83305 20.0333 5.7668 19.56 6.61002L17.56 8.67002L16.81 9.44002L17.05 10.5L18.46 16.8L15.63 12.8L14.44 11.13L12.8 12.4L8.8 15.4H8.73V15.25H8.58C11.78 11.65 16.74 6.09002 17.44 5.39002C18.3456 4.71057 19.36 4.18983 20.44 3.85002L20.41 3.87002ZM21.17 1.71002C19.266 1.97351 17.4745 2.76704 16 4.00002C15 5.00002 7 14 7 14L3.41 14.59L2 16L7 17L8 22L9.41 20.59L10 17L14 14L19 21L21 19L19 10.06L21 8.00002C22 7.00002 23 3.00002 22 2.00002C21.7598 1.80073 21.451 1.70377 21.14 1.73002L21.17 1.71002Z" fill="#0F1621"/>
</svg>
