<svg width="24" height="24" viewBox="0 0 24 24" fill="none" xmlns="http://www.w3.org/2000/svg">
<path d="M21 11C21.0472 11.3133 20.9918 11.6335 20.8423 11.9128C20.6927 12.1921 20.4569 12.4156 20.17 12.55L19.64 12.89C19.5004 12.9604 19.3463 12.997 19.19 12.997C19.0337 12.997 18.8796 12.9604 18.74 12.89C18.597 13.4283 18.3853 13.9459 18.11 14.43C18.2595 14.4789 18.3953 14.5623 18.5065 14.6735C18.6177 14.7847 18.7012 14.9205 18.75 15.07L18.87 15.68C18.9821 15.9771 18.9929 16.3029 18.9006 16.6067C18.8084 16.9106 18.6183 17.1754 18.36 17.36C18.1674 17.5891 17.9244 17.7705 17.65 17.89L17 16L16.63 15L16.22 13.86C16.7185 13.1065 17.0035 12.232 17.0448 11.3294C17.086 10.4269 16.8819 9.52999 16.4542 8.73415C16.0265 7.93831 15.3911 7.27323 14.6156 6.80962C13.8401 6.34602 12.9535 6.1012 12.05 6.1012C11.1465 6.1012 10.2599 6.34602 9.48438 6.80962C8.70889 7.27323 8.07351 7.93831 7.64579 8.73415C7.21806 9.52999 7.01397 10.4269 7.05521 11.3294C7.09645 12.232 7.38147 13.1065 7.87999 13.86L7.41999 14.9L7.04999 15.9L6.34999 17.9C6.07561 17.7805 5.83261 17.5991 5.63999 17.37C5.46511 17.2437 5.32177 17.0788 5.22116 16.888C5.12055 16.6971 5.06539 16.4857 5.05999 16.27C5.06259 16.0747 5.08606 15.8803 5.12999 15.69L5.24999 15.08C5.29883 14.9305 5.38224 14.7947 5.49344 14.6835C5.60465 14.5723 5.74051 14.4889 5.88999 14.44C5.61469 13.9559 5.40294 13.4383 5.25999 12.9C5.12042 12.9704 4.96629 13.007 4.80999 13.007C4.6537 13.007 4.49957 12.9704 4.35999 12.9L3.82999 12.56C3.54123 12.4251 3.30413 12.2 3.15443 11.9187C3.00473 11.6373 2.95053 11.3149 2.99999 11C2.95283 10.6867 3.00815 10.3666 3.15771 10.0873C3.30728 9.80795 3.54308 9.58443 3.82999 9.45002L4.35999 9.11002C4.49957 9.03969 4.6537 9.00305 4.80999 9.00305C4.96629 9.00305 5.12042 9.03969 5.25999 9.11002C5.40729 8.57322 5.61882 8.05615 5.88999 7.57002C5.74051 7.52119 5.60465 7.43778 5.49344 7.32658C5.38224 7.21537 5.29883 7.07951 5.24999 6.93002L5.12999 6.32002C5.01789 6.02295 5.00711 5.69715 5.09935 5.39331C5.19158 5.08947 5.38166 4.82464 5.63999 4.64002C5.76627 4.46514 5.93125 4.3218 6.12206 4.22119C6.31287 4.12058 6.52435 4.06542 6.73999 4.06002C6.93527 4.06262 7.12971 4.08609 7.31999 4.13002L7.92999 4.25002C8.07948 4.29886 8.21534 4.38227 8.32655 4.49347C8.43775 4.60468 8.52116 4.74054 8.56999 4.89002C9.05612 4.61885 9.57319 4.40732 10.11 4.26002C10.0397 4.12045 10.003 3.96632 10.003 3.81002C10.003 3.65373 10.0397 3.4996 10.11 3.36002L10.45 2.83002C10.5844 2.54311 10.8079 2.30731 11.0872 2.15774C11.3665 2.00818 11.6867 1.95286 12 2.00002C12.3133 1.95286 12.6335 2.00818 12.9128 2.15774C13.1921 2.30731 13.4156 2.54311 13.55 2.83002L13.89 3.36002C13.9603 3.4996 13.997 3.65373 13.997 3.81002C13.997 3.96632 13.9603 4.12045 13.89 4.26002C14.4268 4.40732 14.9439 4.61885 15.43 4.89002C15.4788 4.74054 15.5622 4.60468 15.6734 4.49347C15.7846 4.38227 15.9205 4.29886 16.07 4.25002L16.68 4.13002C16.9771 4.01792 17.3029 4.00714 17.6067 4.09938C17.9105 4.19161 18.1754 4.38169 18.36 4.64002C18.5349 4.7663 18.6782 4.93128 18.7788 5.12209C18.8794 5.3129 18.9346 5.52438 18.94 5.74002C18.9374 5.9353 18.9139 6.12974 18.87 6.32002L18.75 6.93002C18.7012 7.07951 18.6177 7.21537 18.5065 7.32658C18.3953 7.43778 18.2595 7.52119 18.11 7.57002C18.3812 8.05615 18.5927 8.57322 18.74 9.11002C18.8796 9.03969 19.0337 9.00305 19.19 9.00305C19.3463 9.00305 19.5004 9.03969 19.64 9.11002L20.17 9.45002C20.4569 9.58443 20.6927 9.80795 20.8423 10.0873C20.9918 10.3666 21.0472 10.6867 21 11V11ZM12 14L14.16 20H9.83999L12 14ZM12 10C11.7945 10.0001 11.594 10.0635 11.4258 10.1816C11.2576 10.2997 11.1299 10.4668 11.06 10.66L6.99999 22H17L12.94 10.66C12.8701 10.4668 12.7424 10.2997 12.5742 10.1816C12.406 10.0635 12.2055 10.0001 12 10V10Z" fill="#0F1621"/>
</svg>
