<svg width="16" height="16" viewBox="0 0 16 16" fill="none" xmlns="http://www.w3.org/2000/svg">
<path d="M12.3335 7.66665C12.3337 6.87436 12.1167 6.09718 11.7061 5.4196C11.2955 4.74202 10.707 4.18999 10.0045 3.82352C9.30211 3.45705 8.51264 3.29017 7.72199 3.34103C6.93134 3.39189 6.16977 3.65854 5.52007 4.11198C4.87038 4.56543 4.35744 5.18832 4.03702 5.91292C3.7166 6.63752 3.60097 7.4361 3.7027 8.22183C3.80443 9.00755 4.11963 9.75035 4.61402 10.3695C5.10841 10.9886 5.76308 11.4603 6.50683 11.7333L5.3335 14.6666H10.6668L9.4935 11.7333C10.3251 11.426 11.0429 10.8717 11.5505 10.1448C12.0581 9.41796 12.3313 8.55323 12.3335 7.66665ZM9.00016 10.4866L8.2535 8.61998C8.39752 8.56262 8.51704 8.45687 8.59152 8.32091C8.666 8.18495 8.69076 8.02729 8.66156 7.87504C8.63236 7.7228 8.55102 7.58549 8.43152 7.48674C8.31203 7.38798 8.16185 7.33396 8.00683 7.33396C7.85181 7.33396 7.70163 7.38798 7.58214 7.48674C7.46264 7.58549 7.3813 7.7228 7.3521 7.87504C7.3229 8.02729 7.34766 8.18495 7.42214 8.32091C7.49662 8.45687 7.61614 8.56262 7.76016 8.61998L7.0135 10.4866C6.34628 10.2508 5.78394 9.78658 5.42586 9.17617C5.06779 8.56576 4.93703 7.84841 5.0567 7.15091C5.17637 6.45342 5.53877 5.82068 6.07984 5.36454C6.6209 4.9084 7.30581 4.65822 8.0135 4.65822C8.72118 4.65822 9.40609 4.9084 9.94716 5.36454C10.4882 5.82068 10.8506 6.45342 10.9703 7.15091C11.09 7.84841 10.9592 8.56576 10.6011 9.17617C10.2431 9.78658 9.68071 10.2508 9.0135 10.4866H9.00016ZM2.66683 3.99998V3.33331H4.66683V3.99998C4.66683 4.17679 4.59659 4.34636 4.47157 4.47138C4.34654 4.59641 4.17697 4.66665 4.00016 4.66665H3.3335C3.15669 4.66665 2.98712 4.59641 2.86209 4.47138C2.73707 4.34636 2.66683 4.17679 2.66683 3.99998ZM7.00016 1.99998V1.33331H9.00016V1.99998C9.00016 2.17679 8.92992 2.34636 8.8049 2.47138C8.67988 2.59641 8.51031 2.66665 8.3335 2.66665H7.66683C7.49002 2.66665 7.32045 2.59641 7.19543 2.47138C7.0704 2.34636 7.00016 2.17679 7.00016 1.99998ZM11.3335 3.99998V3.33331H13.3335V3.99998C13.3335 4.17679 13.2633 4.34636 13.1382 4.47138C13.0132 4.59641 12.8436 4.66665 12.6668 4.66665H12.0002C11.8234 4.66665 11.6538 4.59641 11.5288 4.47138C11.4037 4.34636 11.3335 4.17679 11.3335 3.99998ZM2.66683 8.66665H2.00016C1.82335 8.66665 1.65378 8.59641 1.52876 8.47138C1.40373 8.34636 1.3335 8.17679 1.3335 7.99998V7.33331H3.3335V7.99998C3.3335 8.17679 3.26326 8.34636 3.13823 8.47138C3.01321 8.59641 2.84364 8.66665 2.66683 8.66665ZM14.6668 7.99998C14.6668 8.17679 14.5966 8.34636 14.4716 8.47138C14.3465 8.59641 14.177 8.66665 14.0002 8.66665H13.3335C13.1567 8.66665 12.9871 8.59641 12.8621 8.47138C12.7371 8.34636 12.6668 8.17679 12.6668 7.99998V7.33331H14.6668V7.99998ZM2.66683 11.3333H4.66683V12C4.66683 12.1768 4.59659 12.3464 4.47157 12.4714C4.34654 12.5964 4.17697 12.6666 4.00016 12.6666H3.3335C3.15669 12.6666 2.98712 12.5964 2.86209 12.4714C2.73707 12.3464 2.66683 12.1768 2.66683 12V11.3333ZM11.3335 11.3333H13.3335V12C13.3335 12.1768 13.2633 12.3464 13.1382 12.4714C13.0132 12.5964 12.8436 12.6666 12.6668 12.6666H12.0002C11.8234 12.6666 11.6538 12.5964 11.5288 12.4714C11.4037 12.3464 11.3335 12.1768 11.3335 12V11.3333Z" fill="#0F1621"/>
</svg>
