<svg xmlns="http://www.w3.org/2000/svg" width="24" height="24" viewBox="0 0 24 24"><rect width="24" height="24" style="fill:none"/><path d="M21,11a1.47,1.47,0,0,1-.83,1.55l-.53.34a1,1,0,0,1-.9,0,6.48,6.48,0,0,1-.63,1.54,1,1,0,0,1,.64.64l.12.61a1.44,1.44,0,0,1-.51,1.68,1.94,1.94,0,0,1-.71.53L17,16l-.37-1-.41-1.14a5,5,0,1,0-8.34,0L7.42,14.9l-.37,1-.7,2a1.94,1.94,0,0,1-.71-.53,1.4,1.4,0,0,1-.58-1.1,2.74,2.74,0,0,1,.07-.58l.12-.61a1,1,0,0,1,.64-.64,6.48,6.48,0,0,1-.63-1.54,1,1,0,0,1-.9,0l-.53-.34A1.47,1.47,0,0,1,3,11a1.47,1.47,0,0,1,.83-1.55l.53-.34a1,1,0,0,1,.9,0,6.92,6.92,0,0,1,.63-1.54,1,1,0,0,1-.64-.64l-.12-.61a1.44,1.44,0,0,1,.51-1.68,1.4,1.4,0,0,1,1.1-.58,2.74,2.74,0,0,1,.58.07l.61.12a1,1,0,0,1,.64.64,6.92,6.92,0,0,1,1.54-.63,1,1,0,0,1,0-.9l.34-.53A1.47,1.47,0,0,1,12,2a1.47,1.47,0,0,1,1.55.83l.34.53a1,1,0,0,1,0,.9,6.92,6.92,0,0,1,1.54.63,1,1,0,0,1,.64-.64l.61-.12a1.44,1.44,0,0,1,1.68.51,1.4,1.4,0,0,1,.58,1.1,2.74,2.74,0,0,1-.07.58l-.12.61a1,1,0,0,1-.64.64,6.92,6.92,0,0,1,.63,1.54,1,1,0,0,1,.9,0l.53.34A1.47,1.47,0,0,1,21,11Zm-8.06-.34a1,1,0,0,0-1.88,0L7,22H17Z"/></svg>