<svg width="24" height="24" viewBox="0 0 24 24" fill="none" xmlns="http://www.w3.org/2000/svg">
<path d="M21.0002 11C21.0474 11.3133 20.9921 11.6335 20.8425 11.9128C20.693 12.1921 20.4571 12.4156 20.1702 12.55L19.6402 12.89C19.5007 12.9604 19.3465 12.997 19.1902 12.997C19.0339 12.997 18.8798 12.9604 18.7402 12.89C18.5973 13.4283 18.3855 13.9459 18.1102 14.43C18.2597 14.4789 18.3956 14.5623 18.5068 14.6735C18.618 14.7847 18.7014 14.9205 18.7502 15.07L18.8702 15.68C18.9823 15.9771 18.9931 16.3029 18.9009 16.6067C18.8087 16.9106 18.6186 17.1754 18.3602 17.36C18.1676 17.5891 17.9246 17.7705 17.6502 17.89L17.0002 16L16.6302 15L16.2202 13.86C16.7188 13.1065 17.0038 12.232 17.045 11.3294C17.0863 10.4269 16.8822 9.52999 16.4544 8.73415C16.0267 7.93831 15.3913 7.27323 14.6159 6.80962C13.8404 6.34602 12.9537 6.1012 12.0502 6.1012C11.1467 6.1012 10.2601 6.34602 9.48463 6.80962C8.70914 7.27323 8.07376 7.93831 7.64603 8.73415C7.2183 9.52999 7.01421 10.4269 7.05545 11.3294C7.09669 12.232 7.38172 13.1065 7.88024 13.86L7.42024 14.9L7.05024 15.9L6.35024 17.9C6.07586 17.7805 5.83285 17.5991 5.64024 17.37C5.46535 17.2437 5.32201 17.0788 5.2214 16.888C5.12079 16.6971 5.06564 16.4857 5.06024 16.27C5.06284 16.0747 5.0863 15.8803 5.13024 15.69L5.25024 15.08C5.29908 14.9305 5.38249 14.7947 5.49369 14.6835C5.60489 14.5723 5.74075 14.4889 5.89024 14.44C5.61493 13.9559 5.40319 13.4383 5.26024 12.9C5.12066 12.9704 4.96654 13.007 4.81024 13.007C4.65394 13.007 4.49982 12.9704 4.36024 12.9L3.83024 12.56C3.54148 12.4251 3.30438 12.2 3.15467 11.9187C3.00497 11.6373 2.95077 11.3149 3.00024 11C2.95307 10.6867 3.00839 10.3666 3.15796 10.0873C3.30752 9.80795 3.54333 9.58443 3.83024 9.45002L4.36024 9.11002C4.49982 9.03969 4.65394 9.00305 4.81024 9.00305C4.96654 9.00305 5.12066 9.03969 5.26024 9.11002C5.40754 8.57322 5.61906 8.05615 5.89024 7.57002C5.74075 7.52119 5.60489 7.43778 5.49369 7.32658C5.38249 7.21537 5.29908 7.07951 5.25024 6.93002L5.13024 6.32002C5.01813 6.02295 5.00735 5.69715 5.09959 5.39331C5.19183 5.08947 5.3819 4.82464 5.64024 4.64002C5.76652 4.46514 5.9315 4.3218 6.12231 4.22119C6.31312 4.12058 6.5246 4.06542 6.74024 4.06002C6.93551 4.06262 7.12995 4.08609 7.32024 4.13002L7.93024 4.25002C8.07973 4.29886 8.21559 4.38227 8.32679 4.49347C8.43799 4.60468 8.5214 4.74054 8.57024 4.89002C9.05637 4.61885 9.57343 4.40732 10.1102 4.26002C10.0399 4.12045 10.0033 3.96632 10.0033 3.81002C10.0033 3.65373 10.0399 3.4996 10.1102 3.36002L10.4502 2.83002C10.5846 2.54311 10.8082 2.30731 11.0875 2.15774C11.3668 2.00818 11.6869 1.95286 12.0002 2.00002C12.3135 1.95286 12.6337 2.00818 12.913 2.15774C13.1923 2.30731 13.4158 2.54311 13.5502 2.83002L13.8902 3.36002C13.9606 3.4996 13.9972 3.65373 13.9972 3.81002C13.9972 3.96632 13.9606 4.12045 13.8902 4.26002C14.427 4.40732 14.9441 4.61885 15.4302 4.89002C15.4791 4.74054 15.5625 4.60468 15.6737 4.49347C15.7849 4.38227 15.9208 4.29886 16.0702 4.25002L16.6802 4.13002C16.9773 4.01792 17.3031 4.00714 17.607 4.09938C17.9108 4.19161 18.1756 4.38169 18.3602 4.64002C18.5351 4.7663 18.6785 4.93128 18.7791 5.12209C18.8797 5.3129 18.9348 5.52438 18.9402 5.74002C18.9376 5.9353 18.9142 6.12974 18.8702 6.32002L18.7502 6.93002C18.7014 7.07951 18.618 7.21537 18.5068 7.32658C18.3956 7.43778 18.2597 7.52119 18.1102 7.57002C18.3814 8.05615 18.5929 8.57322 18.7402 9.11002C18.8798 9.03969 19.0339 9.00305 19.1902 9.00305C19.3465 9.00305 19.5007 9.03969 19.6402 9.11002L20.1702 9.45002C20.4571 9.58443 20.693 9.80795 20.8425 10.0873C20.9921 10.3666 21.0474 10.6867 21.0002 11ZM12.9402 10.66C12.8702 10.467 12.7424 10.3002 12.5742 10.1823C12.406 10.0644 12.2056 10.0012 12.0002 10.0012C11.7949 10.0012 11.5945 10.0644 11.4263 10.1823C11.2581 10.3002 11.1303 10.467 11.0602 10.66L7.00024 22H17.0002L12.9402 10.66Z" fill="#0F1621"/>
</svg>
