<svg xmlns="http://www.w3.org/2000/svg" viewBox="0 0 24 24"><defs><style>.cls-1{fill:none;}</style></defs><g id="Layer_2" data-name="Layer 2"><g id="System_POI_Outline" data-name="System POI Outline"><g id="goingout-arcadegame"><rect class="cls-1" width="24" height="24"/><path d="M4,22H2V20H4Zm4-2H6v2H8ZM6,18H4v2H6Zm14,0H18v2h2Zm-2-2H16v2h2ZM8,16H6v2H8ZM4,10H2v4H4Zm2,6V14H4v2Zm4,0V14H8v2Zm6,0V14H14v2Zm4,0V14H18v2Zm2-6H20v4h2ZM6,8H4v2H6ZM8,6H6V8H8Zm2-2H8V6h2Zm6,0H14V6h2Zm2,2H16V8h2Zm2,2H18v2h2ZM14,2H10V4h4Zm8,18H20v2h2Zm-4,0H16v2h2Zm-8-2H8v2h2Zm4-2H10v2h4Zm2,2H14v2h2Zm-6-8H8v2h2Zm6,0H14v2h2Z"/></g></g></g></svg>