<svg width="24" height="24" viewBox="0 0 24 24" fill="none" xmlns="http://www.w3.org/2000/svg">
<path d="M11 6H22V18C22 18.7956 21.6839 19.5587 21.1213 20.1213C20.5587 20.6839 19.7956 21 19 21H5C4.20435 21 3.44129 20.6839 2.87868 20.1213C2.31607 19.5587 2 18.7956 2 18V6H4V4H11V6ZM20 18V8H9V6H6V8H4V18C4 18.2652 4.10536 18.5196 4.29289 18.7071C4.48043 18.8946 4.73478 19 5 19H19C19.2652 19 19.5196 18.8946 19.7071 18.7071C19.8946 18.5196 20 18.2652 20 18ZM6 12V10H9V12H6ZM18 14C18 14.7911 17.7654 15.5645 17.3259 16.2223C16.8864 16.8801 16.2616 17.3928 15.5307 17.6955C14.7998 17.9983 13.9956 18.0775 13.2196 17.9231C12.4437 17.7688 11.731 17.3878 11.1716 16.8284C10.6122 16.269 10.2312 15.5563 10.0769 14.7804C9.92252 14.0044 10.0017 13.2002 10.3045 12.4693C10.6072 11.7384 11.1199 11.1136 11.7777 10.6741C12.4355 10.2346 13.2089 10 14 10C15.0609 10 16.0783 10.4214 16.8284 11.1716C17.5786 11.9217 18 12.9391 18 14ZM16 14C16 13.6044 15.8827 13.2178 15.6629 12.8889C15.4432 12.56 15.1308 12.3036 14.7654 12.1522C14.3999 12.0009 13.9978 11.9613 13.6098 12.0384C13.2219 12.1156 12.8655 12.3061 12.5858 12.5858C12.3061 12.8655 12.1156 13.2219 12.0384 13.6098C11.9613 13.9978 12.0009 14.3999 12.1522 14.7654C12.3036 15.1308 12.56 15.4432 12.8889 15.6629C13.2178 15.8827 13.6044 16 14 16C14.5304 16 15.0391 15.7893 15.4142 15.4142C15.7893 15.0391 16 14.5304 16 14Z" fill="#0F1621"/>
</svg>
