<svg xmlns="http://www.w3.org/2000/svg" viewBox="0 0 24 24"><g id="Layer_2" data-name="Layer 2"><g id="UI_POI_Solid" data-name="UI POI Solid"><g id="automotive-dealership-car"><rect width="24" height="24" style="fill:none"/><path d="M22,11H19.45l-.86-1.18A2.06,2.06,0,0,0,17,9v2.16a.92.92,0,0,1,.3.29L19,14H5l1.7-2.55a.92.92,0,0,1,.3-.29V9a2.06,2.06,0,0,0-1.59.82L4.55,11H2v2H3.1l-.77,1.06a1.64,1.64,0,0,0-.33,1V20a2,2,0,0,0,2,2H7a1,1,0,0,0,1-1V20h8v1a1,1,0,0,0,1,1h3a2,2,0,0,0,2-2V15.06a1.64,1.64,0,0,0-.33-1L20.9,13H22ZM8,18H4V16H8Zm12,0H16V16h4ZM15,8.66a2.26,2.26,0,0,1-.57,1.57,2.63,2.63,0,0,1-1,.63V12h-2v-.89A3.85,3.85,0,0,1,9,10l.82-.91a2.93,2.93,0,0,0,2,.83A1.73,1.73,0,0,0,13,9.63a1,1,0,0,0,.4-.88,1.13,1.13,0,0,0-.13-.58,1.35,1.35,0,0,0-.48-.42,5.54,5.54,0,0,0-1-.37,4.45,4.45,0,0,1-1.86-1A2,2,0,0,1,9.33,5a1.94,1.94,0,0,1,.61-1.47,2.62,2.62,0,0,1,1.49-.69V2h2v.93a2.27,2.27,0,0,1,.39.16,3.66,3.66,0,0,1,.9.63l-.78.89a2.74,2.74,0,0,0-.84-.53,2.38,2.38,0,0,0-.94-.17,1.54,1.54,0,0,0-.9.24.82.82,0,0,0-.34.71.87.87,0,0,0,.13.5,1.34,1.34,0,0,0,.49.38,8.85,8.85,0,0,0,1,.38,4.59,4.59,0,0,1,1.79.93A2.12,2.12,0,0,1,15,8.66Z"/></g></g></g></svg>