<svg xmlns="http://www.w3.org/2000/svg" viewBox="0 0 24 24"><g id="Layer_2" data-name="Layer 2"><g id="UI_POI_Solid" data-name="UI POI Solid"><g id="automotive-carrental"><rect width="24" height="24" style="fill:none"/><path d="M19,4.5,17,6H14L13,5,12,6H10L9,7H5A1,1,0,0,1,4,6V3A1,1,0,0,1,5,2H9l1,1h7ZM22,13H20.9l.77,1.06a1.64,1.64,0,0,1,.33,1V20a2,2,0,0,1-2,2H17a1,1,0,0,1-1-1V20H8v1a1,1,0,0,1-1,1H4a2,2,0,0,1-2-2V15.06a1.64,1.64,0,0,1,.33-1L3.1,13H2V11H4.55l.86-1.18A2,2,0,0,1,7.07,9h9.86a2,2,0,0,1,1.66.82L19.45,11H22ZM8,16H4v2H8Zm4-2h7l-1.7-2.55a1,1,0,0,0-.84-.45H7.54a1,1,0,0,0-.84.45L5,14Zm8,2H16v2h4Z"/></g></g></g></svg>