<svg xmlns="http://www.w3.org/2000/svg" viewBox="0 0 24 24"><g id="Layer_2" data-name="Layer 2"><g id="UI_POI_Outline" data-name="UI POI Outline"><g id="automotive-wash-car"><rect width="24" height="24" style="fill:none"/><path d="M22,4H18V7H16V4H13V7H11V4H8V7H6V4H2A2,2,0,0,1,4,2H20A2,2,0,0,1,22,4ZM4,6H2V8H4ZM22,6H20V8h2Zm0,7H20.9l.77,1.06a1.64,1.64,0,0,1,.33,1V20a2,2,0,0,1-2,2H17a1,1,0,0,1-1-1V20H8v1a1,1,0,0,1-1,1H4a2,2,0,0,1-2-2V15.06a1.64,1.64,0,0,1,.33-1L3.1,13H2V11H4.55l.86-1.18A2,2,0,0,1,7.07,9h9.86a2,2,0,0,1,1.66.82L19.45,11H22Zm-2,2.16-.71-1L17,11H7L4.71,14.18l-.71,1V20H6V18H18v2h2ZM16.5,14h-9L6,16H18Z"/></g></g></g></svg>