<svg width="16" height="16" viewBox="0 0 16 16" fill="none" xmlns="http://www.w3.org/2000/svg">
<path d="M14.6667 6.25329C14.6702 6.39163 14.6465 6.52931 14.5968 6.65847C14.5471 6.78762 14.4725 6.90572 14.3771 7.00602C14.2818 7.10632 14.1676 7.18684 14.0411 7.243C13.9147 7.29915 13.7784 7.32983 13.64 7.33329H12C11.864 7.33286 11.7295 7.30488 11.6046 7.25102C11.4797 7.19717 11.367 7.11857 11.2734 7.01996L10.5667 6.25329L9.84002 7.01996C9.74635 7.11857 9.63366 7.19717 9.50877 7.25102C9.38387 7.30488 9.24936 7.33286 9.11335 7.33329H6.88669C6.75068 7.33286 6.61617 7.30488 6.49127 7.25102C6.36638 7.19717 6.2537 7.11857 6.16002 7.01996L5.43335 6.25329L4.71335 7.01996C4.62124 7.11696 4.51071 7.19463 4.38823 7.24843C4.26575 7.30223 4.13378 7.33108 4.00002 7.33329H2.36002C2.22168 7.32983 2.08538 7.29915 1.9589 7.243C1.83243 7.18684 1.71825 7.10632 1.62291 7.00602C1.52757 6.90572 1.45292 6.78762 1.40324 6.65847C1.35355 6.52931 1.32981 6.39163 1.33335 6.25329C2.72669 4.20663 4.19335 2.66663 7.36669 2.66663H7.64669V1.66663H8.31335V2.66663H8.66669C11.8067 2.66663 13.2734 4.20663 14.6667 6.25329ZM7.48669 8.66663L7.33335 14H8.66669L8.51335 8.66663H7.48669Z" fill="#0F1621"/>
</svg>
