<svg xmlns="http://www.w3.org/2000/svg" width="16" height="16" viewBox="0 0 16 16"><rect width="16" height="16" style="fill:none"/><path d="M12.34,9l-.66-3.57A1.71,1.71,0,0,0,10,4H8.27V5.42H10a.28.28,0,0,1,.27.24L10.52,7H4.34l.6,2h0l0,.18A3,3,0,0,0,4,9a3,3,0,1,0,2.83,3.94,2,2,0,0,0,.46.18h.06a2.3,2.3,0,0,0,.45,0,2.09,2.09,0,0,0,1.3-.45A3,3,0,1,0,12.34,9ZM4,13.58A1.58,1.58,0,1,1,5.58,12,1.58,1.58,0,0,1,4,13.58Zm4.36-2.1a.72.72,0,0,1-.71.26h0a.72.72,0,0,1-.56-.53L6.25,8.42h4.54v0ZM12,13.58A1.58,1.58,0,1,1,13.58,12,1.58,1.58,0,0,1,12,13.58ZM5.17,1H1V8.5H2.67V6h2.5A.83.83,0,0,0,6,5.17V1.83A.83.83,0,0,0,5.17,1ZM4.33,4.33H2.67V2.67H4.33Z"/></svg>