<svg xmlns="http://www.w3.org/2000/svg" viewBox="0 0 24 24"><g id="Layer_2" data-name="Layer 2"><g id="UI_POI_Solid" data-name="UI POI Solid"><g id="bicycle"><rect width="24" height="24" style="fill:none"/><path d="M2,2v9H4V8H7A1,1,0,0,0,8,7V3A1,1,0,0,0,7,2ZM6,6H4V4H6Zm12.4,8L16.86,4H13V6h2.14l.47,3.05-5.42.77L9.52,8.64,7.91,9.85l.28.5L6.6,14.05A3.94,3.94,0,0,0,6,14a4,4,0,1,0,4,4,4,4,0,0,0-1.56-3.16l1-2.31,1.05,1.83a2,2,0,0,0,1.47,1l.27,0a2,2,0,0,0,1.41-.59l2.48-2.47.31,2a4,4,0,1,0,2-.31ZM6,20a2,2,0,0,1-.24-4A1,1,0,0,1,6,16a2,2,0,0,1,2,2A2,2,0,0,1,6,20Zm6.22-6.63-1-1.68,3.07-.44ZM18,20a2,2,0,0,1-2-2,2,2,0,0,1,.75-1.55A1.92,1.92,0,0,1,18,16a2,2,0,0,1,.73.14A2,2,0,0,1,18,20ZM21,9H20a1,1,0,0,1-1-1h0a1,1,0,0,1,1-1h1Z"/></g></g></g></svg>