<svg width="16" height="16" viewBox="0 0 16 16" fill="none" xmlns="http://www.w3.org/2000/svg">
<path d="M9.7935 4.91995C8.52569 4.92291 7.30966 5.4232 6.40683 6.31328C6.53023 6.56556 6.66824 6.81042 6.82016 7.04661C7.39611 7.82243 7.73425 8.74886 7.7935 9.71328C7.65902 11.0845 7.40244 12.441 7.02683 13.7666C7.83333 14.3464 8.80023 14.6609 9.7935 14.6666C11.086 14.6666 12.3255 14.1532 13.2395 13.2392C14.1534 12.3253 14.6668 11.0858 14.6668 9.79328C14.6668 8.50079 14.1534 7.26124 13.2395 6.34731C12.3255 5.43339 11.086 4.91995 9.7935 4.91995ZM10.0868 8.25328C10.0769 8.14704 10.0892 8.0399 10.1231 7.93871C10.1569 7.83752 10.2115 7.7445 10.2834 7.66562C10.3552 7.58673 10.4427 7.52371 10.5403 7.48059C10.6379 7.43747 10.7435 7.4152 10.8502 7.4152C10.9569 7.4152 11.0624 7.43747 11.16 7.48059C11.2576 7.52371 11.3451 7.58673 11.417 7.66562C11.4888 7.7445 11.5434 7.83752 11.5772 7.93871C11.6111 8.0399 11.6234 8.14704 11.6135 8.25328C11.6234 8.35952 11.6111 8.46666 11.5772 8.56785C11.5434 8.66904 11.4888 8.76206 11.417 8.84094C11.3451 8.91983 11.2576 8.98285 11.16 9.02597C11.0624 9.06909 10.9569 9.09136 10.8502 9.09136C10.7435 9.09136 10.6379 9.06909 10.5403 9.02597C10.4427 8.98285 10.3552 8.91983 10.2834 8.84094C10.2115 8.76206 10.1569 8.66904 10.1231 8.56785C10.0892 8.46666 10.0769 8.35952 10.0868 8.25328ZM11.3668 11.0733C11.2131 11.0759 11.062 11.0327 10.9329 10.949C10.8039 10.8654 10.7027 10.7451 10.6423 10.6037C10.5819 10.4622 10.5651 10.306 10.5939 10.1549C10.6228 10.0039 10.696 9.86485 10.8043 9.75562C10.9126 9.6464 11.051 9.57194 11.2018 9.54176C11.3526 9.51158 11.509 9.52706 11.6509 9.5862C11.7929 9.64535 11.914 9.74548 11.9988 9.87381C12.0836 10.0021 12.1281 10.1528 12.1268 10.3066C12.1277 10.4073 12.1087 10.5072 12.071 10.6005C12.0333 10.6939 11.9776 10.7789 11.907 10.8507C11.8364 10.9225 11.7524 10.9797 11.6597 11.019C11.567 11.0584 11.4675 11.0791 11.3668 11.0799V11.0733ZM12.9135 9.53328C12.8131 9.53328 12.7138 9.51341 12.6211 9.4748C12.5285 9.43619 12.4444 9.37961 12.3737 9.30833C12.3031 9.23705 12.2472 9.15248 12.2094 9.0595C12.1716 8.96652 12.1526 8.86698 12.1535 8.76661C12.1535 8.6147 12.1986 8.46621 12.2832 8.33999C12.3677 8.21377 12.4879 8.11552 12.6283 8.05769C12.7688 7.99986 12.9233 7.98508 13.0722 8.0152C13.2211 8.04533 13.3577 8.11901 13.4646 8.2269C13.5716 8.33479 13.6441 8.47202 13.6729 8.62117C13.7017 8.77033 13.6856 8.92468 13.6265 9.06465C13.5675 9.20462 13.4682 9.32389 13.3412 9.40733C13.2143 9.49076 13.0654 9.5346 12.9135 9.53328ZM4.9135 5.77328C4.9135 7.25328 6.4535 8.23995 6.4535 9.71995C6.25552 11.2161 5.95707 12.6972 5.56016 14.1533C5.52366 14.3012 5.4376 14.4321 5.3163 14.5243C5.195 14.6165 5.04579 14.6644 4.8935 14.6599H2.8935C2.74121 14.6644 2.59199 14.6165 2.47069 14.5243C2.34939 14.4321 2.26333 14.3012 2.22683 14.1533C1.82729 12.7001 1.5288 11.221 1.3335 9.72661C1.3335 8.24661 2.8735 7.25995 2.8735 5.77995C2.8735 5.77995 2.8735 5.36661 2.8335 5.11328L2.3935 3.11328C2.38329 3.01131 2.38329 2.90858 2.3935 2.80661C2.40389 2.41338 2.567 2.03964 2.84825 1.76461C3.1295 1.48958 3.50679 1.33488 3.90016 1.33328C4.30041 1.32613 4.68718 1.47786 4.97581 1.75524C5.26444 2.03262 5.43141 2.41307 5.44016 2.81328C5.44016 2.93962 5.42221 3.06532 5.38683 3.18661L4.96016 5.11995C4.9335 5.36661 4.92016 5.77995 4.92016 5.77995L4.9135 5.77328Z" fill="#0F1621"/>
</svg>
