<svg xmlns="http://www.w3.org/2000/svg" viewBox="0 0 24 24"><g id="Layer_2" data-name="Layer 2"><g id="UI_POI_Solid" data-name="UI POI Solid"><g id="bowling"><rect width="24" height="24" style="fill:none"/><path d="M14.5,7a7.33,7.33,0,0,0-2.81.55c-.11.42-.24.83-.36,1.22s-.21.68-.28,1a7.58,7.58,0,0,0,.51.71A5.45,5.45,0,0,1,13,14a10.14,10.14,0,0,1-.27,2A.8.8,0,0,1,13,16a1,1,0,0,1,0,2,1,1,0,0,1-.68-.27c-.22.8-.48,1.67-.76,2.6-.1.33-.19.65-.28.93A7.25,7.25,0,0,0,14.5,22a7.5,7.5,0,0,0,0-15Zm.5,7a1,1,0,1,1,1-1A1,1,0,0,1,15,14Zm2,3a1,1,0,1,1,1-1A1,1,0,0,1,17,17Zm-6-3a2.35,2.35,0,0,1,0,.26,2.48,2.48,0,0,1,0,.27,1.11,1.11,0,0,1,0,.17c0,.1,0,.2,0,.3s-.08.41-.13.64-.11.49-.17.75c-.14.54-.29,1.11-.46,1.67a4.44,4.44,0,0,1-.15.52c-.15.54-.31,1.06-.45,1.53,0,.13-.08.26-.11.38s-.09.28-.12.41l-.11.37a1,1,0,0,1-1,.73H4.76a1,1,0,0,1-1-.73C3.29,19.43,2,15.6,2,14c0-1.79,1.49-2.38,2-4C4,9,3,7,3,5.5a3.5,3.5,0,0,1,7,0A3.83,3.83,0,0,1,10,6a4.53,4.53,0,0,1-.08.49,10.59,10.59,0,0,1-.3,1.17l-.18.61c-.12.38-.23.75-.31,1.07a0,0,0,0,1,0,0l0,.17a.55.55,0,0,0,0,.17A1.91,1.91,0,0,0,9,10C9.51,11.62,11,12.21,11,14Z"/></g></g></g></svg>