<svg xmlns="http://www.w3.org/2000/svg" viewBox="0 0 24 24"><defs><style>.cls-1{fill:none;}</style></defs><g id="Layer_2" data-name="Layer 2"><g id="System_POI_Outline" data-name="System POI Outline"><g id="sport-bowling"><rect class="cls-1" width="24" height="24"/><path d="M9,10c0-1,1-3,1-4.5a3.5,3.5,0,0,0-7,0C3,7,4,9,4,10c-.51,1.62-2,2.21-2,4,0,1.6,1.29,5.43,1.8,7.27a1,1,0,0,0,1,.73H8.24a1,1,0,0,0,1-.73C9.71,19.43,11,15.6,11,14,11,12.21,9.51,11.62,9,10ZM6.5,4A1.5,1.5,0,0,1,8,5.5a8.85,8.85,0,0,1-.49,2.09c-.15.49-.29,1-.39,1.41H5.88c-.1-.45-.24-.92-.39-1.41A8.85,8.85,0,0,1,5,5.5,1.5,1.5,0,0,1,6.5,4ZM7.73,19.18,7.48,20h-2l-.25-.82A31.14,31.14,0,0,1,4,14c0-.31.12-.49.59-1.09A8.08,8.08,0,0,0,5.77,11H7.23a8.08,8.08,0,0,0,1.18,1.91c.47.6.59.78.59,1.09A31.14,31.14,0,0,1,7.73,19.18ZM14.5,7a7.33,7.33,0,0,0-2.81.55c-.11.42-.24.83-.36,1.22s-.21.68-.28,1a3.15,3.15,0,0,0,.22.33A5.41,5.41,0,0,1,14.5,9a5.5,5.5,0,0,1,0,11,5.34,5.34,0,0,1-2.63-.68c-.1.33-.21.66-.31,1s-.19.65-.28.93A7.25,7.25,0,0,0,14.5,22a7.5,7.5,0,0,0,0-15ZM16,13a1,1,0,1,1-1-1A1,1,0,0,1,16,13Zm2,3a1,1,0,1,1-1-1A1,1,0,0,1,18,16Zm-4,1a1,1,0,1,1-1-1A1,1,0,0,1,14,17Z"/></g></g></g></svg>