<svg xmlns="http://www.w3.org/2000/svg" width="24" height="24" viewBox="0 0 24 24"><rect width="24" height="24" style="fill:none"/><path d="M22,11H19.45l-.86-1.18A2.06,2.06,0,0,0,17,9v2.05l2.29,3.13.71,1V20H18V18H6v2H4V15.16l.71-1L7,11.05V9a2.06,2.06,0,0,0-1.59.82L4.55,11H2v2H3.1l-.77,1.06a1.64,1.64,0,0,0-.33,1V20a2,2,0,0,0,2,2H7a1,1,0,0,0,1-1V20h8v1a1,1,0,0,0,1,1h3a2,2,0,0,0,2-2V15.06a1.64,1.64,0,0,0-.33-1L20.9,13H22Zm-4,5H6l1.5-2h9Zm-5-6h0v2H11V10h0A2,2,0,0,1,9,8V6h6V8A2,2,0,0,1,13,10Zm2-6H13V2h2ZM11,4H9V2h2Z"/></svg>