<svg width="16" height="16" viewBox="0 0 16 16" fill="none" xmlns="http://www.w3.org/2000/svg">
<path d="M12.3135 2.48001V2.66668H10.0002V4.00001H12.3135V4.19334C12.3117 4.4963 12.1901 4.78625 11.9753 4.99985C11.7604 5.21346 11.4698 5.33335 11.1668 5.33334H8.98016L8.48016 4.33334H3.66683C3.5354 4.20208 3.43114 4.0462 3.36 3.87461C3.28887 3.70302 3.25225 3.51909 3.25225 3.33334C3.25225 3.14759 3.28887 2.96367 3.36 2.79208C3.43114 2.62049 3.5354 2.46461 3.66683 2.33334H8.48683L8.98016 1.33334H11.1735C11.4765 1.3351 11.7664 1.45669 11.98 1.67154C12.1936 1.88639 12.3135 2.17705 12.3135 2.48001ZM14.3135 8.66668C14.417 8.7443 14.501 8.84495 14.5589 8.96067C14.6167 9.07638 14.6468 9.20397 14.6468 9.33334C14.6468 9.46271 14.6167 9.59031 14.5589 9.70602C14.501 9.82173 14.417 9.92239 14.3135 10H14.0002V14C14.0002 14.1768 13.9299 14.3464 13.8049 14.4714C13.6799 14.5964 13.5103 14.6667 13.3335 14.6667H11.3335C11.1567 14.6667 10.9871 14.5964 10.8621 14.4714C10.7371 14.3464 10.6668 14.1768 10.6668 14V13.3333H5.3335V14C5.3335 14.1768 5.26326 14.3464 5.13823 14.4714C5.01321 14.5964 4.84364 14.6667 4.66683 14.6667H2.66683C2.49002 14.6667 2.32045 14.5964 2.19542 14.4714C2.0704 14.3464 2.00016 14.1768 2.00016 14V10H1.66683C1.56333 9.92239 1.47933 9.82173 1.42147 9.70602C1.36362 9.59031 1.3335 9.46271 1.3335 9.33334C1.3335 9.20397 1.36362 9.07638 1.42147 8.96067C1.47933 8.84495 1.56333 8.7443 1.66683 8.66668H2.82683L3.4935 7.13334C3.63442 6.8012 3.86891 6.51721 4.16838 6.31599C4.46786 6.11476 4.81939 6.00497 5.18016 6.00001H10.8202C11.1786 6.00753 11.5273 6.11851 11.8242 6.31958C12.1211 6.52065 12.3535 6.80325 12.4935 7.13334L13.1602 8.66668H14.3135ZM4.00016 9.33334H12.0002L11.2602 7.67334C11.2249 7.57936 11.1634 7.49742 11.0831 7.43718C11.0028 7.37694 10.9069 7.34091 10.8068 7.33334H5.18016C5.08005 7.34091 4.98419 7.37694 4.90387 7.43718C4.82355 7.49742 4.76213 7.57936 4.72683 7.67334L4.00016 9.33334ZM5.3335 10.6667H3.66683C3.56333 10.7443 3.47933 10.845 3.42147 10.9607C3.36362 11.0764 3.3335 11.204 3.3335 11.3333C3.3335 11.4627 3.36362 11.5903 3.42147 11.706C3.47933 11.8217 3.56333 11.9224 3.66683 12H5.3335V10.6667ZM12.3335 10.6667H10.6668V12H12.3335C12.437 11.9224 12.521 11.8217 12.5789 11.706C12.6367 11.5903 12.6668 11.4627 12.6668 11.3333C12.6668 11.204 12.6367 11.0764 12.5789 10.9607C12.521 10.845 12.437 10.7443 12.3335 10.6667Z" fill="#0F1621"/>
</svg>
