<svg xmlns="http://www.w3.org/2000/svg" viewBox="0 0 24 24"><defs><style>.cls-1{fill:none;}</style></defs><g id="Layer_2" data-name="Layer 2"><g id="System_POI_Outline" data-name="System POI Outline"><g id="automotive-carrental"><rect class="cls-1" width="24" height="24"/><path d="M19,4.5,17,6H14L13,5,12,6H10L9,7H5A1,1,0,0,1,4,6V3A1,1,0,0,1,5,2H9l1,1h7ZM16.93,11H7L4.71,14.18l-.71,1V20H6V18H18v2h2V15.16l-.71-1L17,11h0m0-2a2,2,0,0,1,1.66.82L19.45,11H22v2H20.9l.77,1.06a1.64,1.64,0,0,1,.33,1V20a2,2,0,0,1-2,2H17a1,1,0,0,1-1-1V20H8v1a1,1,0,0,1-1,1H4a2,2,0,0,1-2-2V15.06a1.64,1.64,0,0,1,.33-1L3.1,13H2V11H4.55l.86-1.18A2,2,0,0,1,7.07,9Zm-.43,5h-9L6,16H18Z"/></g></g></g></svg>