<svg width="16" height="16" viewBox="0 0 16 16" fill="none" xmlns="http://www.w3.org/2000/svg">
<path d="M13 2H3C2.73478 2 2.48043 2.10536 2.29289 2.29289C2.10536 2.48043 2 2.73478 2 3V13C2 13.2652 2.10536 13.5196 2.29289 13.7071C2.48043 13.8946 2.73478 14 3 14H13C13.2652 14 13.5196 13.8946 13.7071 13.7071C13.8946 13.5196 14 13.2652 14 13V3C14 2.73478 13.8946 2.48043 13.7071 2.29289C13.5196 2.10536 13.2652 2 13 2ZM4.66667 13C4.33703 13 4.0148 12.9023 3.74072 12.7191C3.46663 12.536 3.25301 12.2757 3.12687 11.9711C3.00072 11.6666 2.96772 11.3315 3.03202 11.0082C3.09633 10.6849 3.25507 10.3879 3.48816 10.1548C3.72124 9.92173 4.01821 9.763 4.34152 9.69869C4.66482 9.63438 4.99993 9.66739 5.30447 9.79353C5.60902 9.91968 5.86931 10.1333 6.05245 10.4074C6.23559 10.6815 6.33333 11.0037 6.33333 11.3333C6.33333 11.7754 6.15774 12.1993 5.84518 12.5118C5.53262 12.8244 5.10869 13 4.66667 13ZM8 9.66667C7.67036 9.66667 7.34813 9.56892 7.07405 9.38578C6.79997 9.20265 6.58635 8.94235 6.4602 8.63781C6.33405 8.33326 6.30105 7.99815 6.36536 7.67485C6.42967 7.35155 6.5884 7.05458 6.82149 6.82149C7.05458 6.5884 7.35155 6.42967 7.67485 6.36536C7.99815 6.30105 8.33326 6.33405 8.63781 6.4602C8.94235 6.58635 9.20265 6.79997 9.38578 7.07405C9.56892 7.34813 9.66667 7.67036 9.66667 8C9.66667 8.44203 9.49107 8.86595 9.17851 9.17851C8.86595 9.49107 8.44203 9.66667 8 9.66667ZM11.3333 6.33333C11.0037 6.33333 10.6815 6.23559 10.4074 6.05245C10.1333 5.86931 9.91968 5.60902 9.79353 5.30447C9.66739 4.99993 9.63438 4.66482 9.69869 4.34152C9.763 4.01821 9.92173 3.72124 10.1548 3.48816C10.3879 3.25507 10.6849 3.09633 11.0082 3.03202C11.3315 2.96772 11.6666 3.00072 11.9711 3.12687C12.2757 3.25301 12.536 3.46663 12.7191 3.74072C12.9023 4.0148 13 4.33703 13 4.66667C13 5.10869 12.8244 5.53262 12.5118 5.84518C12.1993 6.15774 11.7754 6.33333 11.3333 6.33333Z" fill="#0F1621"/>
</svg>
