<svg width="24" height="24" viewBox="0 0 24 24" fill="none" xmlns="http://www.w3.org/2000/svg">
<path d="M20 4V20H4V4H20ZM20 2H4C3.46957 2 2.96086 2.21071 2.58579 2.58579C2.21071 2.96086 2 3.46957 2 4V20C2 20.5304 2.21071 21.0391 2.58579 21.4142C2.96086 21.7893 3.46957 22 4 22H20C20.5304 22 21.0391 21.7893 21.4142 21.4142C21.7893 21.0391 22 20.5304 22 20V4C22 3.46957 21.7893 2.96086 21.4142 2.58579C21.0391 2.21071 20.5304 2 20 2ZM12 10C11.6044 10 11.2178 10.1173 10.8889 10.3371C10.56 10.5568 10.3036 10.8692 10.1522 11.2346C10.0009 11.6001 9.96126 12.0022 10.0384 12.3902C10.1156 12.7781 10.3061 13.1345 10.5858 13.4142C10.8655 13.6939 11.2219 13.8844 11.6098 13.9616C11.9978 14.0387 12.3999 13.9991 12.7654 13.8478C13.1308 13.6964 13.4432 13.44 13.6629 13.1111C13.8827 12.7822 14 12.3956 14 12C14 11.4696 13.7893 10.9609 13.4142 10.5858C13.0391 10.2107 12.5304 10 12 10ZM8 14C7.60444 14 7.21776 14.1173 6.88886 14.3371C6.55996 14.5568 6.30362 14.8692 6.15224 15.2346C6.00087 15.6001 5.96126 16.0022 6.03843 16.3902C6.1156 16.7781 6.30608 17.1345 6.58579 17.4142C6.86549 17.6939 7.22186 17.8844 7.60982 17.9616C7.99778 18.0387 8.39991 17.9991 8.76537 17.8478C9.13082 17.6964 9.44318 17.44 9.66294 17.1111C9.8827 16.7822 10 16.3956 10 16C10 15.4696 9.78929 14.9609 9.41421 14.5858C9.03914 14.2107 8.53043 14 8 14ZM16 6C15.6044 6 15.2178 6.1173 14.8889 6.33706C14.56 6.55682 14.3036 6.86918 14.1522 7.23463C14.0009 7.60009 13.9613 8.00222 14.0384 8.39018C14.1156 8.77814 14.3061 9.13451 14.5858 9.41421C14.8655 9.69392 15.2219 9.8844 15.6098 9.96157C15.9978 10.0387 16.3999 9.99913 16.7654 9.84776C17.1308 9.69638 17.4432 9.44004 17.6629 9.11114C17.8827 8.78224 18 8.39556 18 8C18 7.46957 17.7893 6.96086 17.4142 6.58579C17.0391 6.21071 16.5304 6 16 6Z" fill="#0F1621"/>
</svg>
