<svg width="24" height="24" viewBox="0 0 24 24" fill="none" xmlns="http://www.w3.org/2000/svg">
<path d="M20 2H4C3.46957 2 2.96086 2.21071 2.58579 2.58579C2.21071 2.96086 2 3.46957 2 4V20C2 20.5304 2.21071 21.0391 2.58579 21.4142C2.96086 21.7893 3.46957 22 4 22H20C20.5304 22 21.0391 21.7893 21.4142 21.4142C21.7893 21.0391 22 20.5304 22 20V4C22 3.46957 21.7893 2.96086 21.4142 2.58579C21.0391 2.21071 20.5304 2 20 2ZM8 18C7.60444 18 7.21776 17.8827 6.88886 17.6629C6.55996 17.4432 6.30362 17.1308 6.15224 16.7654C6.00087 16.3999 5.96126 15.9978 6.03843 15.6098C6.1156 15.2219 6.30608 14.8655 6.58579 14.5858C6.86549 14.3061 7.22186 14.1156 7.60982 14.0384C7.99778 13.9613 8.39991 14.0009 8.76537 14.1522C9.13082 14.3036 9.44318 14.56 9.66294 14.8889C9.8827 15.2178 10 15.6044 10 16C10 16.5304 9.78929 17.0391 9.41421 17.4142C9.03914 17.7893 8.53043 18 8 18ZM12 14C11.6044 14 11.2178 13.8827 10.8889 13.6629C10.56 13.4432 10.3036 13.1308 10.1522 12.7654C10.0009 12.3999 9.96126 11.9978 10.0384 11.6098C10.1156 11.2219 10.3061 10.8655 10.5858 10.5858C10.8655 10.3061 11.2219 10.1156 11.6098 10.0384C11.9978 9.96126 12.3999 10.0009 12.7654 10.1522C13.1308 10.3036 13.4432 10.56 13.6629 10.8889C13.8827 11.2178 14 11.6044 14 12C14 12.5304 13.7893 13.0391 13.4142 13.4142C13.0391 13.7893 12.5304 14 12 14ZM16 10C15.6044 10 15.2178 9.8827 14.8889 9.66294C14.56 9.44318 14.3036 9.13082 14.1522 8.76537C14.0009 8.39991 13.9613 7.99778 14.0384 7.60982C14.1156 7.22186 14.3061 6.86549 14.5858 6.58579C14.8655 6.30608 15.2219 6.1156 15.6098 6.03843C15.9978 5.96126 16.3999 6.00087 16.7654 6.15224C17.1308 6.30362 17.4432 6.55996 17.6629 6.88886C17.8827 7.21776 18 7.60444 18 8C18 8.53043 17.7893 9.03914 17.4142 9.41421C17.0391 9.78929 16.5304 10 16 10Z" fill="#0F1621"/>
</svg>
