<svg xmlns="http://www.w3.org/2000/svg" viewBox="0 0 24 24"><defs><style>.cls-1{fill:none;}</style></defs><g id="Layer_2" data-name="Layer 2"><g id="System_POI_Solid" data-name="System POI Solid"><g id="goingout-cinema"><rect class="cls-1" width="24" height="24"/><path d="M22,14v7H19l-2-1.33V22H5a2,2,0,0,1-2-2V15a2,2,0,0,1,2-2H17v2.33L19,14ZM18.5,6.5A4.49,4.49,0,0,1,14,11H5A3,3,0,1,1,8,8a2.77,2.77,0,0,1-.18,1h2.44A4.5,4.5,0,1,1,18.5,6.5ZM5,9A1,1,0,1,0,4,8,1,1,0,0,0,5,9ZM16.5,6.5A2.5,2.5,0,1,0,14,9,2.5,2.5,0,0,0,16.5,6.5Z"/></g></g></g></svg>