<svg width="24" height="24" viewBox="0 0 24 24" fill="none" xmlns="http://www.w3.org/2000/svg">
<path d="M22 14V21H19L17 19.67V22H5C4.46957 22 3.96086 21.7893 3.58579 21.4142C3.21072 21.0392 3 20.5305 3 20V15C3 14.4696 3.21072 13.9609 3.58579 13.5858C3.96086 13.2108 4.46957 13 5 13H17V15.33L19 14H22ZM18.5 6.50004C18.5013 7.09136 18.3858 7.67711 18.1601 8.22367C17.9345 8.77023 17.603 9.26683 17.1849 9.68496C16.7668 10.1031 16.2702 10.4345 15.7236 10.6602C15.1771 10.8859 14.5913 11.0014 14 11H5C4.40666 11 3.82664 10.8241 3.33329 10.4944C2.83994 10.1648 2.45543 9.69627 2.22836 9.14809C2.0013 8.59991 1.94189 7.99671 2.05765 7.41477C2.1734 6.83282 2.45912 6.29827 2.87868 5.87872C3.29824 5.45916 3.83279 5.17344 4.41473 5.05768C4.99667 4.94193 5.59987 5.00134 6.14805 5.2284C6.69623 5.45546 7.16477 5.83998 7.49441 6.33333C7.82405 6.82667 8 7.40669 8 8.00004C8.00217 8.34162 7.94115 8.68065 7.82 9.00004H10.26C9.86911 8.41584 9.62051 7.7482 9.53412 7.05062C9.44773 6.35304 9.52596 5.64492 9.76253 4.98302C9.9991 4.32112 10.3874 3.72384 10.8964 3.23906C11.4054 2.75427 12.0209 2.39546 12.6935 2.19139C13.3661 1.98731 14.0772 1.94365 14.7698 2.06389C15.4623 2.18413 16.1171 2.46494 16.6816 2.8838C17.246 3.30266 17.7045 3.84794 18.0203 4.47592C18.3361 5.1039 18.5004 5.79713 18.5 6.50004ZM5 9.00004C5.19778 9.00004 5.39112 8.94139 5.55557 8.83151C5.72002 8.72162 5.84819 8.56545 5.92388 8.38272C5.99957 8.19999 6.01937 7.99893 5.98079 7.80495C5.9422 7.61097 5.84696 7.43278 5.70711 7.29293C5.56726 7.15308 5.38907 7.05784 5.19509 7.01925C5.00111 6.98067 4.80004 7.00047 4.61732 7.07616C4.43459 7.15184 4.27841 7.28002 4.16853 7.44447C4.05865 7.60892 4 7.80226 4 8.00004C4 8.26525 4.10536 8.51961 4.29289 8.70714C4.48043 8.89468 4.73478 9.00004 5 9.00004ZM16.5 6.50004C16.5 6.00558 16.3534 5.52223 16.0787 5.11111C15.804 4.69999 15.4135 4.37956 14.9567 4.19034C14.4999 4.00112 13.9972 3.95161 13.5123 4.04807C13.0273 4.14454 12.5819 4.38264 12.2322 4.73227C11.8826 5.0819 11.6445 5.52736 11.548 6.01231C11.4516 6.49726 11.5011 6.99993 11.6903 7.45675C11.8795 7.91356 12.2 8.30401 12.6111 8.57871C13.0222 8.85341 13.5055 9.00004 14 9.00004C14.663 9.00004 15.2989 8.73664 15.7678 8.2678C16.2366 7.79896 16.5 7.16308 16.5 6.50004Z" fill="#0F1621"/>
</svg>
