<svg width="16" height="16" viewBox="0 0 16 16" fill="none" xmlns="http://www.w3.org/2000/svg">
<path d="M4.24634 12H10.0863C10.4244 12.0009 10.7501 11.8733 10.9976 11.6431C11.2452 11.4129 11.396 11.0972 11.4197 10.76L11.6197 8.00002H11.893C12.5206 8.0117 13.1332 7.80751 13.6284 7.42161C14.1235 7.03571 14.4711 6.49151 14.613 5.88002C14.6944 5.49159 14.688 5.0899 14.5944 4.70425C14.5007 4.31859 14.3222 3.95869 14.0718 3.6508C13.8214 3.34291 13.5055 3.0948 13.147 2.92454C12.7885 2.75429 12.3965 2.6662 11.9997 2.66669H2.33301L2.91301 10.7534C2.93505 11.0917 3.0852 11.409 3.3329 11.6406C3.5806 11.8722 3.90723 12.0007 4.24634 12ZM11.9997 4.00002C12.2125 3.99911 12.4224 4.04914 12.6119 4.14594C12.8014 4.24274 12.965 4.38349 13.089 4.55643C13.213 4.72937 13.2938 4.92947 13.3246 5.14002C13.3555 5.35057 13.3355 5.56544 13.2663 5.76669C13.167 6.03784 12.9846 6.27077 12.7452 6.43234C12.5059 6.59392 12.2217 6.67592 11.933 6.66669H11.7197L11.913 4.00002H11.9997ZM1.33301 13.3334H13.9997L13.6997 13.9267C13.5893 14.1488 13.4191 14.3358 13.2083 14.4665C12.9975 14.5972 12.7544 14.6666 12.5063 14.6667H2.82634C2.57828 14.6666 2.33518 14.5972 2.12437 14.4665C1.91356 14.3358 1.74339 14.1488 1.63301 13.9267L1.33301 13.3334Z" fill="#0F1621"/>
</svg>
