<svg xmlns="http://www.w3.org/2000/svg" viewBox="0 0 24 24"><g id="Layer_2" data-name="Layer 2"><g id="UI_POI_Outline" data-name="UI POI Outline"><g id="eatdrink-pub"><rect width="24" height="24" style="fill:none"/><path d="M10,12v6h2V12ZM6,18H8V12H6ZM19,8H2V20a2,2,0,0,0,2,2H14a2,2,0,0,0,2-2V18h3a2,2,0,0,0,2-2V10A2,2,0,0,0,19,8ZM14,20H4V10H14Zm5-4H16V10h3Zm-7-4H10v6h2ZM8,12H6v6H8Zm2,0v6h2V12Zm4-8H13a2,2,0,0,0-2-2H6A2,2,0,0,0,4,4,2,2,0,0,0,2,6H6V5A1,1,0,0,1,7,4h3a1,1,0,0,1,1,1V6h5A2,2,0,0,0,14,4Z"/></g></g></g></svg>