<svg width="24" height="24" viewBox="0 0 24 24" fill="none" xmlns="http://www.w3.org/2000/svg">
<path d="M20 4.99993H14V3.34993C14.0075 3.18907 13.976 3.02879 13.9082 2.88271C13.8405 2.73664 13.7384 2.60909 13.6108 2.5109C13.4832 2.41272 13.3337 2.34682 13.1751 2.31879C13.0166 2.29076 12.8536 2.30145 12.7 2.34993L5.43 4.56993C5.01643 4.69289 4.65372 4.94631 4.396 5.29234C4.13828 5.63837 3.99937 6.05847 4 6.48993V17.4899C3.99937 17.9214 4.13828 18.3415 4.396 18.6875C4.65372 19.0336 5.01643 19.287 5.43 19.4099L12.7 21.5899C12.8536 21.6384 13.0166 21.6491 13.1751 21.6211C13.3337 21.593 13.4832 21.5271 13.6108 21.429C13.7384 21.3308 13.8405 21.2032 13.9082 21.0571C13.976 20.9111 14.0075 20.7508 14 20.5899V6.99993H18V18.9999H20V4.99993ZM11 12.9999H9V9.99993H11V12.9999Z" fill="#0F1621"/>
</svg>
