<svg width="16" height="16" viewBox="0 0 16 16" fill="none" xmlns="http://www.w3.org/2000/svg">
<path d="M1.3335 6.66664V14H6.00016V12H10.0002V14H14.6668V6.66664H1.3335ZM4.3335 10.6666H2.66683V7.99998H4.3335V10.6666ZM7.3335 10.6666H5.66683V7.99998H7.3335V10.6666ZM10.3335 10.6666H8.66683V7.99998H10.3335V10.6666ZM13.3335 10.6666H11.6668V7.99998H13.3335V10.6666ZM1.4735 5.33331C2.08889 4.1321 3.02386 3.12402 4.17543 2.42009C5.32699 1.71616 6.65049 1.34369 8.00016 1.34369C9.34984 1.34369 10.6733 1.71616 11.8249 2.42009C12.9765 3.12402 13.9114 4.1321 14.5268 5.33331H12.9868C12.4395 4.50821 11.6965 3.83138 10.8241 3.36317C9.95168 2.89497 8.97695 2.64994 7.98683 2.64994C6.99671 2.64994 6.02198 2.89497 5.14956 3.36317C4.27713 3.83138 3.53414 4.50821 2.98683 5.33331H1.4735Z" fill="#0F1621"/>
</svg>
