<svg width="16" height="16" viewBox="0 0 16 16" fill="none" xmlns="http://www.w3.org/2000/svg">
<path d="M8.00017 2.66665C9.055 2.66665 10.0861 2.97944 10.9632 3.56548C11.8403 4.15151 12.5239 4.98446 12.9275 5.959C13.3312 6.93354 13.4368 8.0059 13.231 9.04046C13.0252 10.075 12.5173 11.0253 11.7714 11.7712C11.0255 12.5171 10.0752 13.025 9.04065 13.2308C8.00608 13.4366 6.93373 13.331 5.95919 12.9273C4.98465 12.5237 4.1517 11.8401 3.56566 10.963C2.97963 10.086 2.66683 9.05481 2.66683 7.99998C2.66683 6.58549 3.22874 5.22894 4.22893 4.22874C5.22912 3.22855 6.58568 2.66665 8.00017 2.66665ZM8.00017 1.33331C6.68162 1.33331 5.39269 1.72431 4.29636 2.45685C3.20004 3.18939 2.34555 4.23058 1.84097 5.44876C1.33638 6.66693 1.20436 8.00738 1.4616 9.30058C1.71883 10.5938 2.35377 11.7817 3.28612 12.714C4.21847 13.6464 5.40636 14.2813 6.69956 14.5385C7.99277 14.7958 9.33321 14.6638 10.5514 14.1592C11.7696 13.6546 12.8108 12.8001 13.5433 11.7038C14.2758 10.6075 14.6668 9.31852 14.6668 7.99998C14.6668 7.1245 14.4944 6.25759 14.1594 5.44876C13.8243 4.63992 13.3333 3.90499 12.7142 3.28593C12.0952 2.66688 11.3602 2.17581 10.5514 1.84078C9.74255 1.50575 8.87564 1.33331 8.00017 1.33331ZM8.00017 5.33331C8.52758 5.33331 9.04315 5.48971 9.48169 5.78273C9.92022 6.07574 10.262 6.49222 10.4638 6.97949C10.6657 7.46676 10.7185 8.00294 10.6156 8.52022C10.5127 9.0375 10.2587 9.51266 9.88578 9.8856C9.51284 10.2585 9.03769 10.5125 8.52041 10.6154C8.00312 10.7183 7.46695 10.6655 6.97968 10.4637C6.49241 10.2618 6.07593 9.92003 5.78291 9.4815C5.4899 9.04297 5.3335 8.5274 5.3335 7.99998C5.3335 7.29274 5.61445 6.61446 6.11455 6.11436C6.61464 5.61426 7.29292 5.33331 8.00017 5.33331ZM8.00017 3.99998C7.20904 3.99998 6.43568 4.23458 5.77788 4.6741C5.12009 5.11363 4.6074 5.73834 4.30465 6.46925C4.0019 7.20015 3.92268 8.00442 4.07702 8.78034C4.23137 9.55626 4.61233 10.269 5.17174 10.8284C5.73115 11.3878 6.44388 11.7688 7.2198 11.9231C7.99573 12.0775 8.79999 11.9982 9.5309 11.6955C10.2618 11.3927 10.8865 10.8801 11.326 10.2223C11.7656 9.56446 12.0002 8.79111 12.0002 7.99998C12.0002 6.93911 11.5787 5.9217 10.8286 5.17155C10.0784 4.42141 9.06103 3.99998 8.00017 3.99998Z" fill="#0F1621"/>
</svg>
