<svg xmlns="http://www.w3.org/2000/svg" viewBox="0 0 24 24"><g id="Layer_2" data-name="Layer 2"><g id="UI_POI_Solid" data-name="UI POI Solid"><g id="facilities-parknride"><rect width="24" height="24" style="fill:none"/><path d="M7,7H2V17H4V13H7a1,1,0,0,0,1-1V8A1,1,0,0,0,7,7ZM6,11H4V9H6Zm8.5,0v2H13v1.5H11V13H9.5V11H11V9.5h2V11ZM22,5H2V4A2,2,0,0,1,4,2H20a2,2,0,0,1,2,2ZM2,19H22v1a2,2,0,0,1-2,2H4a2,2,0,0,1-2-2ZM22,8a1,1,0,0,0-1-1H16V17h2V13l1,1,1,1v2h2V14.41a1,1,0,0,0-.29-.7L21,13l.71-.71a1,1,0,0,0,.29-.7ZM18,9h2v2H18Z"/></g></g></g></svg>