<svg xmlns="http://www.w3.org/2000/svg" viewBox="0 0 24 24"><defs><style>.cls-1{fill:none;}</style></defs><g id="Layer_2" data-name="Layer 2"><g id="System_POI_Outline" data-name="System POI Outline"><g id="facilities-parknride"><rect class="cls-1" width="24" height="24"/><path d="M7,7H2V17H4V13H7a1,1,0,0,0,1-1V8A1,1,0,0,0,7,7ZM6,11H4V9H6Zm8.5,0v2H13v1.5H11V13H9.5V11H11V9.5h2V11ZM20,19v1H4V19H2v1a2,2,0,0,0,2,2H20a2,2,0,0,0,2-2V19ZM4,5V4H20V5h2V4a2,2,0,0,0-2-2H4A2,2,0,0,0,2,4V5ZM22,8a1,1,0,0,0-1-1H16V17h2V13l1,1,1,1v2h2V14.41a1,1,0,0,0-.29-.7L21,13l.71-.71a1,1,0,0,0,.29-.7ZM18,9h2v2H18Z"/></g></g></g></svg>