<svg width="16" height="16" viewBox="0 0 16 16" fill="none" xmlns="http://www.w3.org/2000/svg">
<path d="M8.00016 3.99999C10.9402 3.99999 13.3335 5.79332 13.3335 7.99999C13.3335 10.2067 10.9402 12 8.00016 12C5.06016 12 2.66683 10.2067 2.66683 7.99999C2.66683 5.79332 5.06016 3.99999 8.00016 3.99999ZM8.00016 2.66666C4.32016 2.66666 1.3335 5.05332 1.3335 7.99999C1.3335 10.9467 4.32016 13.3333 8.00016 13.3333C11.6802 13.3333 14.6668 10.9467 14.6668 7.99999C14.6668 5.05332 11.6802 2.66666 8.00016 2.66666ZM8.00016 6.66666C9.62683 6.66666 10.6668 7.45332 10.6668 7.99999C10.6668 8.54666 9.62683 9.33332 8.00016 9.33332C6.3735 9.33332 5.3335 8.54666 5.3335 7.99999C5.3335 7.45332 6.3735 6.66666 8.00016 6.66666ZM8.00016 5.33332C5.7935 5.33332 4.00016 6.52666 4.00016 7.99999C4.00016 9.47332 5.7935 10.6667 8.00016 10.6667C10.2068 10.6667 12.0002 9.47332 12.0002 7.99999C12.0002 6.52666 10.2068 5.33332 8.00016 5.33332Z" fill="#0F1621"/>
</svg>
