<svg width="24" height="24" viewBox="0 0 24 24" fill="none" xmlns="http://www.w3.org/2000/svg">
<path d="M13 19C13 19.2652 12.8946 19.5196 12.7071 19.7071C12.5196 19.8946 12.2652 20 12 20H6C5.73478 20 5.48043 19.8946 5.29289 19.7071C5.10536 19.5196 5 19.2652 5 19H3C3 19.7957 3.31607 20.5587 3.87868 21.1213C4.44129 21.6839 5.20435 22 6 22H12C12.7957 22 13.5587 21.6839 14.1213 21.1213C14.6839 20.5587 15 19.7957 15 19H13ZM5 13C5 12.7348 5.10536 12.4804 5.29289 12.2929C5.48043 12.1054 5.73478 12 6 12H12C12.2652 12 12.5196 12.1054 12.7071 12.2929C12.8946 12.4804 13 12.7348 13 13H15C15 12.2044 14.6839 11.4413 14.1213 10.8787C13.5587 10.3161 12.7957 10 12 10H6C5.20435 10 4.44129 10.3161 3.87868 10.8787C3.31607 11.4413 3 12.2044 3 13H5ZM16 16C16 16.2652 15.8946 16.5196 15.7071 16.7071C15.5196 16.8946 15.2652 17 15 17H3C2.73478 17 2.48043 16.8946 2.29289 16.7071C2.10536 16.5196 2 16.2652 2 16C2 15.7348 2.10536 15.4804 2.29289 15.2929C2.48043 15.1054 2.73478 15 3 15H15C15.2652 15 15.5196 15.1054 15.7071 15.2929C15.8946 15.4804 16 15.7348 16 16ZM22 6V8L20 22H17V20H18.29L20 8H11V6H15V4C15 3.46957 15.2107 2.96086 15.5858 2.58579C15.9609 2.21071 16.4696 2 17 2H21V4H17V6H22Z" fill="#0F1621"/>
</svg>
