<svg xmlns="http://www.w3.org/2000/svg" viewBox="0 0 24 24"><g id="Layer_2" data-name="Layer 2"><g id="UI_POI_Outline" data-name="UI POI Outline"><g id="fastfood"><rect width="24" height="24" style="fill:none"/><path d="M13,19a1,1,0,0,1-1,1H6a1,1,0,0,1-1-1H3a3,3,0,0,0,3,3h6a3,3,0,0,0,3-3ZM5,13a1,1,0,0,1,1-1h6a1,1,0,0,1,1,1h2a3,3,0,0,0-3-3H6a3,3,0,0,0-3,3Zm11,3h0a1,1,0,0,1-1,1H3a1,1,0,0,1-1-1H2a1,1,0,0,1,1-1H15A1,1,0,0,1,16,16ZM22,6V8L20,22H17V20h1.29L20,8H11V6h4V4a2,2,0,0,1,2-2h4V4H17V6Z"/></g></g></g></svg>