<svg width="16" height="16" viewBox="0 0 16 16" fill="none" xmlns="http://www.w3.org/2000/svg">
<path d="M13.0069 8.25998L12.6669 4.25998C12.6376 4.00596 12.5163 3.77145 12.3259 3.60073C12.1355 3.43001 11.8892 3.33488 11.6335 3.33331H8.66687V1.33331H7.33354V3.33331H4.36687C4.1132 3.33448 3.86858 3.42773 3.67851 3.59573C3.48844 3.76373 3.36585 3.99504 3.33354 4.24665L2.99354 8.24665L8.0002 6.66665L13.0069 8.25998ZM8.0002 8.45331L1.37354 10.56L3.07354 14.56C3.32597 14.1245 3.6906 13.7648 4.12942 13.5182C4.56823 13.2717 5.06516 13.1474 5.56837 13.1583C6.07159 13.1692 6.56266 13.3148 6.9904 13.5802C7.41813 13.8455 7.76685 14.2207 8.0002 14.6666C8.23108 14.2193 8.57778 13.842 9.00414 13.5743C9.43049 13.3066 9.92088 13.1581 10.4241 13.1445C10.9274 13.1309 11.4251 13.2526 11.8653 13.4969C12.3055 13.7411 12.6721 14.0991 12.9269 14.5333L14.6269 10.5333L8.0002 8.45331Z" fill="#0F1621"/>
</svg>
