<svg width="24" height="24" viewBox="0 0 24 24" fill="none" xmlns="http://www.w3.org/2000/svg">
<path d="M12 10C13.1 10 14 10.9 14 12V14H10V12C10 10.9 10.9 10 12 10ZM21 12C21 13.1 20.1 14 19 14V12H17V9C17 7.3 15.6 6 14 6H13.2L12.6 5.4L12 4.8L11.4 5.4L10.8 6H10C8.3 6 7 7.3 7 9V12H5V14C3.9 14 3 13.1 3 12C3 10.9 3.9 10 5 10V9C5 6.2 7.2 4 10 4L12 2L14 4C16.8 4 19 6.2 19 9V10C20.1 10 21 10.9 21 12ZM18 16C18 19.3 15.3 22 12 22C8.7 22 6 19.3 6 16H8C8 18.2 9.8 20 12 20C14.2 20 16 18.2 16 16H18Z" fill="#0F1621"/>
</svg>
