<svg width="24" height="24" viewBox="0 0 24 24" fill="none" xmlns="http://www.w3.org/2000/svg">
<path d="M21.7101 10.15L20.0001 8.48L20.7101 7.77C20.8038 7.67704 20.8782 7.56644 20.929 7.44458C20.9797 7.32272 21.0059 7.19201 21.0059 7.06C21.0059 6.92799 20.9797 6.79728 20.929 6.67542C20.8782 6.55356 20.8038 6.44296 20.7101 6.35L19.8701 5.51L21.4101 4L20.0001 2.59L18.4801 4.1L17.6501 3.27C17.4627 3.08375 17.2093 2.97921 16.9451 2.97921C16.6809 2.97921 16.4275 3.08375 16.2401 3.27L15.5301 4L13.8501 2.29C13.7571 2.19627 13.6465 2.12188 13.5247 2.07111C13.4028 2.02034 13.2721 1.9942 13.1401 1.9942C13.0081 1.9942 12.8774 2.02034 12.7555 2.07111C12.6337 2.12188 12.5231 2.19627 12.4301 2.29L8.90009 5.83L12.8301 9.76L9.78009 12.81L5.85009 8.88L2.32009 12.42C2.13384 12.6074 2.0293 12.8608 2.0293 13.125C2.0293 13.3892 2.13384 13.6426 2.32009 13.83L4.00009 15.51L3.30009 16.21C3.20636 16.303 3.13197 16.4136 3.0812 16.5354C3.03043 16.6573 3.00429 16.788 3.00429 16.92C3.00429 17.052 3.03043 17.1827 3.0812 17.3046C3.13197 17.4264 3.20636 17.537 3.30009 17.63L4.13009 18.46L2.58009 20L4.00009 21.42L5.54009 19.88L6.37009 20.71C6.4627 20.8045 6.57315 20.8797 6.69502 20.9312C6.8169 20.9827 6.94778 21.0095 7.08009 21.01C7.2124 21.0095 7.34328 20.9827 7.46516 20.9312C7.58703 20.8797 7.69747 20.8045 7.79009 20.71L8.49009 20.01L10.1801 21.69C10.3664 21.8747 10.6178 21.9789 10.8801 21.98C11.0117 21.9808 11.1422 21.9555 11.264 21.9058C11.3858 21.856 11.4966 21.7827 11.5901 21.69L15.1301 18.15L11.1901 14.22L14.2401 11.17L18.1701 15.1L21.7101 11.57C21.8038 11.477 21.8782 11.3664 21.929 11.2446C21.9797 11.1227 22.0059 10.992 22.0059 10.86C22.0059 10.728 21.9797 10.5973 21.929 10.4754C21.8782 10.3536 21.8038 10.243 21.7101 10.15ZM12.3001 18.15L10.8801 19.57L9.88009 18.57L8.49009 17.18L7.08009 18.59L5.41009 16.92L6.82009 15.51L5.41009 14.09L4.41009 13.09L5.82009 11.68L12.3001 18.15ZM18.1701 12.27L11.7301 5.83L13.1401 4.41L14.1401 5.41L15.5301 6.8L16.9401 5.39L18.6201 7.06L17.2001 8.48L18.6201 9.89L19.6201 10.89L18.1701 12.27Z" fill="#0F1621"/>
</svg>
