<svg width="24" height="24" viewBox="0 0 24 24" fill="none" xmlns="http://www.w3.org/2000/svg">
<path d="M4 22H2V20H4V22ZM8 20H6V22H8V20ZM6 18H4V20H6V18ZM20 18H18V20H20V18ZM18 16H16V18H18V16ZM8 16H6V18H8V16ZM4 10H2V14H4V10ZM6 16V14H4V16H6ZM10 16V14H8V16H10ZM16 16V14H14V16H16ZM20 16V14H18V16H20ZM22 10H20V14H22V10ZM6 8H4V10H6V8ZM8 6H6V8H8V6ZM10 4H8V6H10V4ZM16 4H14V6H16V4ZM18 6H16V8H18V6ZM20 8H18V10H20V8ZM14 2H10V4H14V2ZM22 20H20V22H22V20ZM18 20H16V22H18V20ZM10 18H8V20H10V18ZM14 16H10V18H14V16ZM16 18H14V20H16V18ZM10 10H8V12H10V10ZM16 10H14V12H16V10Z" fill="#0F1621"/>
</svg>
