<svg width="24" height="24" viewBox="0 0 24 24" fill="none" xmlns="http://www.w3.org/2000/svg">
<path d="M12 10C12.3956 10 12.7822 10.1173 13.1111 10.3371C13.44 10.5568 13.6964 10.8692 13.8478 11.2346C13.9991 11.6001 14.0387 12.0022 13.9616 12.3902C13.8844 12.7781 13.6939 13.1345 13.4142 13.4142C13.1345 13.6939 12.7781 13.8844 12.3902 13.9616C12.0022 14.0387 11.6001 13.9991 11.2346 13.8478C10.8692 13.6964 10.5568 13.44 10.3371 13.1111C10.1173 12.7822 10 12.3956 10 12C10 11.4696 10.2107 10.9609 10.5858 10.5858C10.9609 10.2107 11.4696 10 12 10ZM12 8C11.2089 8 10.4355 8.2346 9.77772 8.67412C9.11993 9.11365 8.60723 9.73836 8.30448 10.4693C8.00173 11.2002 7.92252 12.0044 8.07686 12.7804C8.2312 13.5563 8.61216 14.269 9.17157 14.8284C9.73098 15.3878 10.4437 15.7688 11.2196 15.9231C11.9956 16.0775 12.7998 15.9983 13.5307 15.6955C14.2616 15.3928 14.8864 14.8801 15.3259 14.2223C15.7654 13.5645 16 12.7911 16 12C16 10.9391 15.5786 9.92172 14.8284 9.17157C14.0783 8.42143 13.0609 8 12 8Z" fill="#0F1621"/>
</svg>
