<svg xmlns="http://www.w3.org/2000/svg" viewBox="0 0 24 24"><g id="Layer_2" data-name="Layer 2"><g id="UI_POI_Outline" data-name="UI POI Outline"><g id="goingout"><rect width="24" height="24" style="fill:none"/><path d="M20,4v9a7,7,0,0,1-7,7H11a7,7,0,0,1-7-7V4H20m2-2H2V13a9,9,0,0,0,9,9h2a9,9,0,0,0,9-9V2ZM16,7a2.05,2.05,0,0,0-2,2.09c0,2.09.9-.08,2-.08s2,2.17,2,.08A2.05,2.05,0,0,0,16,7ZM8,7A2.05,2.05,0,0,0,6,9.09C6,11.18,6.9,9,8,9s2,2.17,2,.08A2.05,2.05,0,0,0,8,7ZM6,13c0,3.31,2.69,5,6,5s6-1.69,6-5Z"/></g></g></g></svg>