<svg xmlns="http://www.w3.org/2000/svg" viewBox="0 0 24 24"><g id="Layer_2" data-name="Layer 2"><g id="UI_POI_Outline" data-name="UI POI Outline"><g id="goingout-cinema"><rect width="24" height="24" style="fill:none"/><path d="M14,2a4.5,4.5,0,0,0-3.74,7H7.82A2.77,2.77,0,0,0,8,8a3,3,0,1,0-3,3h9a4.5,4.5,0,0,0,0-9ZM4,8A1,1,0,1,1,5,9,1,1,0,0,1,4,8ZM14,9a2.5,2.5,0,1,1,2.5-2.5A2.5,2.5,0,0,1,14,9Zm1,6v5H5V15H15m5,1v3h-.4l-1.49-1-.76-.5.76-.5,1.49-1H20m-3-3H5a2,2,0,0,0-2,2v5a2,2,0,0,0,2,2H17V19.67L19,21h3V14H19l-2,1.33V13Z"/></g></g></g></svg>