<svg width="16" height="16" viewBox="0 0 16 16" fill="none" xmlns="http://www.w3.org/2000/svg">
<path d="M14.6668 9.00005L13.0002 6.33338L11.3335 9.00005H12.3335C12.3335 11.1401 10.9468 12.1201 8.94016 12.3334L8.7735 8.00005H10.6668V6.66672H8.72683L8.66683 5.54672C9.15466 5.38371 9.56858 5.05248 9.83458 4.61226C10.1006 4.17205 10.2013 3.65156 10.1187 3.14389C10.0362 2.63623 9.77567 2.17449 9.38387 1.84127C8.99207 1.50805 8.4945 1.32507 7.98016 1.32507C7.46582 1.32507 6.96826 1.50805 6.57646 1.84127C6.18466 2.17449 5.92417 2.63623 5.8416 3.14389C5.75903 3.65156 5.85975 4.17205 6.12574 4.61226C6.39174 5.05248 6.80567 5.38371 7.2935 5.54672L7.2735 6.66672H5.3335V8.00005H7.22683L7.06016 12.3334C5.06016 12.1201 3.66683 11.1401 3.66683 9.00005H4.66683L3.00016 6.33338L1.3335 9.00005H2.3335V9.33338C2.3335 11.6134 3.72683 12.5801 5.72683 13.4401C6.42016 13.7401 8.00016 14.6667 8.00016 14.6667C8.00016 14.6667 9.58016 13.7401 10.2735 13.4401C12.2735 12.5801 13.6668 11.6134 13.6668 9.33338V9.00005H14.6668ZM6.8335 3.50005C6.8335 3.26931 6.90192 3.04374 7.03012 2.85189C7.15831 2.66003 7.34052 2.51049 7.5537 2.42219C7.76688 2.33389 8.00146 2.31079 8.22777 2.3558C8.45408 2.40082 8.66196 2.51193 8.82512 2.67509C8.98828 2.83825 9.0994 3.04613 9.14441 3.27245C9.18943 3.49876 9.16632 3.73333 9.07802 3.94651C8.98972 4.1597 8.84019 4.3419 8.64833 4.4701C8.45647 4.59829 8.23091 4.66672 8.00016 4.66672C7.69128 4.66497 7.39555 4.54149 7.17714 4.32308C6.95872 4.10466 6.83525 3.80893 6.8335 3.50005Z" fill="#0F1621"/>
</svg>
