<svg width="24" height="24" viewBox="0 0 24 24" fill="none" xmlns="http://www.w3.org/2000/svg">
<path d="M22.0001 16C22.0001 17.5913 21.368 19.1174 20.2428 20.2426C19.1176 21.3679 17.5914 22 16.0001 22H8.00013C6.68128 21.9977 5.39995 21.5609 4.35429 20.7571C3.30864 19.9534 2.55692 18.8276 2.2154 17.5537C1.87389 16.2799 1.96159 14.929 2.46497 13.71C2.96834 12.4909 3.85932 11.4718 5.00013 10.81V13.38C4.49906 13.958 4.17424 14.6676 4.0642 15.4246C3.95415 16.1817 4.06349 16.9544 4.37924 17.6511C4.695 18.3479 5.20393 18.9395 5.8457 19.3558C6.48747 19.7721 7.23516 19.9957 8.00013 20H16.0001C16.7651 19.9957 17.5128 19.7721 18.1546 19.3558C18.7963 18.9395 19.3053 18.3479 19.621 17.6511C19.9368 16.9544 20.0461 16.1817 19.9361 15.4246C19.826 14.6676 19.5012 13.958 19.0001 13.38V10.81C19.9113 11.3361 20.6682 12.0925 21.1947 13.0035C21.7213 13.9144 21.9991 14.9478 22.0001 16ZM12.9401 2.78C11.9401 2.93 10.1201 4.22 10.5701 7.18L11.5701 14.11C11.7839 15.1777 11.5913 16.2868 11.0301 17.22C12.0301 17.07 13.8401 15.78 13.3901 12.82L12.3901 5.9C12.1728 4.82786 12.3693 3.71318 12.9401 2.78ZM9.13013 3.78C8.13013 3.93 6.32013 5.21 6.77013 8.18L7.50013 13.13C7.7292 14.1894 7.55068 15.2963 7.00013 16.23C8.00013 16.08 9.82013 14.8 9.37013 11.83L8.59013 6.88C8.37636 5.81226 8.56894 4.70318 9.13013 3.77V3.78ZM17.0401 3.78C16.0401 3.93 14.2301 5.21 14.6801 8.18L15.4101 13.13C15.6299 14.1977 15.4369 15.3089 14.8701 16.24C15.8701 16.09 17.6901 14.81 17.2401 11.84L16.5001 6.88C16.2744 5.81722 16.4526 4.70846 17.0001 3.77L17.0401 3.78Z" fill="#0F1621"/>
</svg>
