<svg width="16" height="16" viewBox="0 0 16 16" fill="none" xmlns="http://www.w3.org/2000/svg">
<path d="M14.6666 10.6667C14.6666 11.7275 14.2452 12.7449 13.495 13.4951C12.7449 14.2452 11.7275 14.6667 10.6666 14.6667H5.33326C4.45403 14.6651 3.5998 14.3739 2.9027 13.8381C2.2056 13.3023 1.70445 12.5517 1.47677 11.7025C1.24909 10.8532 1.30757 9.95264 1.64315 9.13997C1.97873 8.3273 2.57272 7.64784 3.33326 7.20667V8.92C2.99921 9.30535 2.78267 9.77841 2.7093 10.2831C2.63594 10.7878 2.70883 11.3029 2.91933 11.7674C3.12984 12.2319 3.46912 12.6263 3.89697 12.9039C4.32482 13.1814 4.82328 13.3305 5.33326 13.3333H10.6666C11.1766 13.3305 11.675 13.1814 12.1029 12.9039C12.5307 12.6263 12.87 12.2319 13.0805 11.7674C13.291 11.3029 13.3639 10.7878 13.2905 10.2831C13.2172 9.77841 13.0006 9.30535 12.6666 8.92V7.20667C13.2741 7.55739 13.7786 8.0617 14.1297 8.66899C14.4807 9.27629 14.6659 9.96521 14.6666 10.6667ZM8.62659 1.85333C7.95992 1.95333 6.74659 2.81333 7.04659 4.78667L7.71326 9.40667C7.85577 10.1185 7.72738 10.8579 7.35326 11.48C8.01992 11.38 9.22659 10.52 8.92659 8.54667L8.25992 3.93333C8.11501 3.21857 8.24601 2.47545 8.62659 1.85333ZM6.08659 2.52C5.41992 2.62 4.21326 3.47333 4.51326 5.45333L4.99992 8.75333C5.15264 9.45963 5.03362 10.1975 4.66659 10.82C5.33326 10.72 6.54659 9.86667 6.24659 7.88667L5.72659 4.58667C5.58408 3.87484 5.71246 3.13545 6.08659 2.51333V2.52ZM11.3599 2.52C10.6933 2.62 9.48659 3.47333 9.78659 5.45333L10.2733 8.75333C10.4198 9.4651 10.2911 10.2059 9.91326 10.8267C10.5799 10.7267 11.7933 9.87333 11.4933 7.89333L10.9999 4.58667C10.8494 3.87815 10.9683 3.13898 11.3333 2.51333L11.3599 2.52Z" fill="#0F1621"/>
</svg>
