<svg width="24" height="24" viewBox="0 0 24 24" fill="none" xmlns="http://www.w3.org/2000/svg">
<path d="M20 16V18H4V16H20ZM2 8V22H4V20H20V22H22V14H4V10C3.99777 9.47042 3.78559 8.96335 3.41 8.59C3.03665 8.21441 2.52958 8.00223 2 8V8ZM19 9H13C12.7348 9 12.4804 9.10536 12.2929 9.29289C12.1054 9.48043 12 9.73478 12 10V12H20V10C20 9.73478 19.8946 9.48043 19.7071 9.29289C19.5196 9.10536 19.2652 9 19 9ZM8 9C7.46957 9 6.96086 9.21071 6.58579 9.58579C6.21071 9.96086 6 10.4696 6 11C6.00062 11.3513 6.09375 11.6962 6.27 12H9.73C9.90545 11.6961 9.99786 11.3514 9.99795 11.0005C9.99804 10.6496 9.90581 10.3049 9.73051 10.0009C9.55522 9.69691 9.30303 9.4444 8.99928 9.26872C8.69553 9.09303 8.3509 9.00036 8 9V9ZM12 2L2 4V6L12 4L22 6V4L12 2Z" fill="#0F1621"/>
</svg>
