<svg width="24" height="24" viewBox="0 0 24 24" fill="none" xmlns="http://www.w3.org/2000/svg">
<path d="M21.9998 16L1.99979 22V20L21.9998 14V16ZM19.9998 4L4.04979 8.79C4.01671 8.85504 3.99957 8.92702 3.99979 9V15.31L19.9998 10.51V4ZM19.9998 2C20.5302 2 21.0389 2.21071 21.414 2.58579C21.7891 2.96086 21.9998 3.46957 21.9998 4V12L1.99979 18V9C1.97876 8.54113 2.10663 8.08775 2.36434 7.70749C2.62205 7.32724 2.99578 7.04048 3.42979 6.89L19.4298 2.09C19.6144 2.0326 19.8064 2.00229 19.9998 2ZM5.99979 11.2V13.2L10.9998 11.7V9.7L5.99979 11.2ZM12.9998 9.09V11.09L17.9998 9.59V7.59L12.9998 9.09Z" fill="#0F1621"/>
</svg>
