<svg width="24" height="24" viewBox="0 0 24 24" fill="none" xmlns="http://www.w3.org/2000/svg">
<path d="M11.3399 8.41002L4.26992 15.48C4.08397 15.6658 3.93645 15.8863 3.8358 16.1291C3.73515 16.3719 3.68335 16.6322 3.68335 16.895C3.68335 17.1578 3.73515 17.4181 3.8358 17.6609C3.93645 17.9037 4.08397 18.1243 4.26992 18.31L2.26992 20.31C2.17619 20.403 2.1018 20.5136 2.05103 20.6354C2.00026 20.7573 1.97412 20.888 1.97412 21.02C1.97412 21.152 2.00026 21.2827 2.05103 21.4046C2.1018 21.5265 2.17619 21.6371 2.26992 21.73C2.36288 21.8237 2.47348 21.8981 2.59534 21.9489C2.7172 21.9997 2.84791 22.0258 2.97992 22.0258C3.11193 22.0258 3.24264 21.9997 3.3645 21.9489C3.48636 21.8981 3.59696 21.8237 3.68992 21.73L5.68992 19.73C6.0649 20.1019 6.57177 20.3104 7.09992 20.31C7.36313 20.3115 7.62406 20.2611 7.86773 20.1616C8.11141 20.062 8.33304 19.9154 8.51992 19.73L15.5899 12.66L11.3399 8.41002ZM10.6399 14.78C10.4997 14.919 10.3215 15.0135 10.1278 15.0514C9.93403 15.0893 9.73339 15.069 9.55114 14.9931C9.36889 14.9172 9.2132 14.789 9.10368 14.6247C8.99416 14.4605 8.93572 14.2674 8.93572 14.07C8.93572 13.8726 8.99416 13.6796 9.10368 13.5153C9.2132 13.351 9.36889 13.2229 9.55114 13.1469C9.73339 13.071 9.93403 13.0507 10.1278 13.0886C10.3215 13.1266 10.4997 13.221 10.6399 13.36C10.7336 13.453 10.808 13.5636 10.8588 13.6854C10.9096 13.8073 10.9357 13.938 10.9357 14.07C10.9357 14.202 10.9096 14.3327 10.8588 14.4546C10.808 14.5765 10.7336 14.6871 10.6399 14.78ZM20.5399 10.53C19.7823 11.3158 18.7884 11.832 17.7099 12L12.0499 6.29002C12.2042 5.21776 12.7025 4.22461 13.4699 3.46002C14.4129 2.54923 15.6759 2.04525 16.9869 2.05665C18.2979 2.06804 19.552 2.59388 20.479 3.52092C21.4061 4.44796 21.9319 5.70203 21.9433 7.01301C21.9547 8.32399 21.4507 9.58701 20.5399 10.53Z" fill="#0F1621"/>
</svg>
