<svg width="24" height="24" viewBox="0 0 24 24" fill="none" xmlns="http://www.w3.org/2000/svg">
<path d="M11.3399 11.24L12.7599 12.66L7.09992 18.31L6.22992 17.44L5.68992 16.9L11.3399 11.24V11.24ZM11.3399 8.41L4.26992 15.48C4.08397 15.6657 3.93645 15.8863 3.8358 16.1291C3.73515 16.3719 3.68335 16.6322 3.68335 16.895C3.68335 17.1578 3.73515 17.4181 3.8358 17.6609C3.93645 17.9037 4.08397 18.1243 4.26992 18.31L2.26992 20.31C2.17619 20.403 2.1018 20.5136 2.05103 20.6354C2.00026 20.7573 1.97412 20.888 1.97412 21.02C1.97412 21.152 2.00026 21.2827 2.05103 21.4046C2.1018 21.5264 2.17619 21.637 2.26992 21.73C2.36288 21.8237 2.47348 21.8981 2.59534 21.9489C2.7172 21.9997 2.84791 22.0258 2.97992 22.0258C3.11193 22.0258 3.24264 21.9997 3.3645 21.9489C3.48636 21.8981 3.59696 21.8237 3.68992 21.73L5.68992 19.73C6.0649 20.1019 6.57177 20.3104 7.09992 20.31C7.36313 20.3115 7.62406 20.2611 7.86773 20.1615C8.11141 20.062 8.33304 19.9154 8.51992 19.73L15.5899 12.66L11.3399 8.41ZM16.9999 4C17.5929 4.00053 18.1724 4.17675 18.6652 4.50643C19.1581 4.83611 19.5422 5.30446 19.7691 5.85231C19.9959 6.40016 20.0553 7.00295 19.9398 7.58455C19.8242 8.16614 19.5389 8.70046 19.1199 9.12C18.8819 9.36161 18.6046 9.5611 18.2999 9.71L14.2999 5.71C14.5431 5.19949 14.9255 4.76809 15.4033 4.46553C15.881 4.16298 16.4345 4.0016 16.9999 4V4ZM16.9999 2C15.7967 1.99984 14.6338 2.43355 13.7246 3.22156C12.8154 4.00956 12.2208 5.09901 12.0499 6.29L17.7099 12C18.7822 11.8457 19.7753 11.3474 20.5399 10.58C21.2549 9.88296 21.7449 8.98778 21.9466 8.0098C22.1483 7.03182 22.0526 6.01584 21.6717 5.09276C21.2909 4.16967 20.6423 3.38177 19.8097 2.83055C18.9771 2.27934 17.9984 1.99007 16.9999 2V2ZM10.6399 13.36C10.4997 13.221 10.3215 13.1265 10.1278 13.0886C9.93403 13.0507 9.73339 13.071 9.55114 13.1469C9.36889 13.2228 9.2132 13.351 9.10368 13.5153C8.99416 13.6796 8.93572 13.8726 8.93572 14.07C8.93572 14.2674 8.99416 14.4605 9.10368 14.6247C9.2132 14.789 9.36889 14.9172 9.55114 14.9931C9.73339 15.069 9.93403 15.0893 10.1278 15.0514C10.3215 15.0135 10.4997 14.919 10.6399 14.78C10.7336 14.687 10.808 14.5764 10.8588 14.4546C10.9096 14.3327 10.9357 14.202 10.9357 14.07C10.9357 13.938 10.9096 13.8073 10.8588 13.6854C10.808 13.5636 10.7336 13.453 10.6399 13.36Z" fill="#0F1621"/>
</svg>
