<svg width="24" height="24" viewBox="0 0 24 24" fill="none" xmlns="http://www.w3.org/2000/svg">
<path d="M11.3404 11.24L12.7604 12.66L7.10041 18.31L6.23041 17.44L5.69041 16.9L11.3404 11.24ZM11.3404 8.41L4.27041 15.48C4.08445 15.6657 3.93694 15.8863 3.83629 16.1291C3.73564 16.3719 3.68383 16.6322 3.68383 16.895C3.68383 17.1578 3.73564 17.4181 3.83629 17.6609C3.93694 17.9037 4.08445 18.1243 4.27041 18.31L2.27041 20.31C2.17668 20.403 2.10228 20.5136 2.05152 20.6354C2.00075 20.7573 1.97461 20.888 1.97461 21.02C1.97461 21.152 2.00075 21.2827 2.05152 21.4046C2.10228 21.5264 2.17668 21.637 2.27041 21.73C2.36337 21.8237 2.47397 21.8981 2.59583 21.9489C2.71769 21.9997 2.8484 22.0258 2.98041 22.0258C3.11242 22.0258 3.24312 21.9997 3.36498 21.9489C3.48684 21.8981 3.59744 21.8237 3.69041 21.73L5.69041 19.73C6.06539 20.1019 6.57226 20.3104 7.10041 20.31C7.36362 20.3115 7.62455 20.2611 7.86822 20.1615C8.1119 20.062 8.33353 19.9154 8.52041 19.73L15.5904 12.66L11.3404 8.41ZM17.0004 4C17.5934 4.00053 18.1729 4.17675 18.6657 4.50643C19.1586 4.83611 19.5427 5.30446 19.7696 5.85231C19.9964 6.40016 20.0558 7.00295 19.9403 7.58455C19.8247 8.16614 19.5394 8.70046 19.1204 9.12C18.8824 9.36161 18.6051 9.5611 18.3004 9.71L14.3004 5.71C14.5436 5.19949 14.926 4.76809 15.4037 4.46553C15.8815 4.16298 16.4349 4.0016 17.0004 4ZM17.0004 2C15.7972 1.99984 14.6343 2.43355 13.7251 3.22156C12.8159 4.00956 12.2213 5.09901 12.0504 6.29L17.7104 12C18.7827 11.8457 19.7758 11.3474 20.5404 10.58C21.2554 9.88296 21.7454 8.98778 21.9471 8.0098C22.1488 7.03182 22.0531 6.01584 21.6722 5.09276C21.2914 4.16967 20.6428 3.38177 19.8102 2.83055C18.9775 2.27934 17.9989 1.99007 17.0004 2ZM10.6404 13.36C10.5002 13.221 10.322 13.1265 10.1283 13.0886C9.93452 13.0507 9.73388 13.071 9.55163 13.1469C9.36938 13.2228 9.21369 13.351 9.10417 13.5153C8.99465 13.6796 8.93621 13.8726 8.93621 14.07C8.93621 14.2674 8.99465 14.4605 9.10417 14.6247C9.21369 14.789 9.36938 14.9172 9.55163 14.9931C9.73388 15.069 9.93452 15.0893 10.1283 15.0514C10.322 15.0135 10.5002 14.919 10.6404 14.78C10.7341 14.687 10.8085 14.5764 10.8593 14.4546C10.9101 14.3327 10.9362 14.202 10.9362 14.07C10.9362 13.938 10.9101 13.8073 10.8593 13.6854C10.8085 13.5636 10.7341 13.453 10.6404 13.36Z" fill="#0F1621"/>
</svg>
