<svg width="24" height="24" viewBox="0 0 24 24" fill="none" xmlns="http://www.w3.org/2000/svg">
<path d="M18 2H6C5.46957 2 4.96086 2.21071 4.58579 2.58579C4.21071 2.96086 4 3.46957 4 4V22H20V4C20 3.46957 19.7893 2.96086 19.4142 2.58579C19.0391 2.21071 18.5304 2 18 2ZM12 4H14V6H12V4ZM6 4H10V6H6V4ZM18 20H6V8H18V20ZM18 6H16V4H18V6ZM12 10C11.2089 10 10.4355 10.2346 9.77772 10.6741C9.11992 11.1136 8.60723 11.7384 8.30448 12.4693C8.00173 13.2002 7.92252 14.0044 8.07686 14.7804C8.2312 15.5563 8.61216 16.269 9.17157 16.8284C9.73098 17.3878 10.4437 17.7688 11.2196 17.9231C11.9956 18.0775 12.7998 17.9983 13.5307 17.6955C14.2616 17.3928 14.8864 16.8801 15.3259 16.2223C15.7654 15.5645 16 14.7911 16 14C16 12.9391 15.5786 11.9217 14.8284 11.1716C14.0783 10.4214 13.0609 10 12 10ZM12 16C11.4696 16 10.9609 15.7893 10.5858 15.4142C10.2107 15.0391 10 14.5304 10 14C10.5304 14 11.0391 13.7893 11.4142 13.4142C11.7893 13.0391 12 12.5304 12 12C12.5304 12 13.0391 12.2107 13.4142 12.5858C13.7893 12.9609 14 13.4696 14 14C14 14.5304 13.7893 15.0391 13.4142 15.4142C13.0391 15.7893 12.5304 16 12 16Z" fill="#0F1621"/>
</svg>
