<svg xmlns="http://www.w3.org/2000/svg" viewBox="0 0 24 24"><g id="Layer_2" data-name="Layer 2"><g id="UI_POI_Outline" data-name="UI POI Outline"><g id="leisure-main"><rect width="24" height="24" style="fill:none"/><path d="M13,22H11V16h2Zm9-10-1,2H17l-1-2H14l-1,2H11l-1-2H8L7,14H3L2,12v-.12A9,9,0,0,1,11,4H11V2h2V4h.05A9,9,0,0,1,22,11.88Zm-2.07-.33A7,7,0,0,0,13.05,6H11a7,7,0,0,0-6.88,5.67l.17.33H5.76l.45-.89L6.76,10h4.48l.55,1.11.21.42.21-.42L12.76,10h4.48l.55,1.11.45.89h1.52Z"/></g></g></g></svg>