<svg width="24" height="24" viewBox="0 0 24 24" fill="none" xmlns="http://www.w3.org/2000/svg">
<path d="M17.34 4L19 13.87L18.13 16.45L15.46 13.65L14.87 13H9.12998L8.53998 13.62L5.86998 16.46L4.99998 13.87L6.65998 4H17.34ZM17.34 2H6.65998C6.18206 1.99346 5.7176 2.15829 5.35072 2.46463C4.98384 2.77098 4.7388 3.19858 4.65998 3.67L2.99998 13.54C2.93805 13.8739 2.96214 14.218 3.06998 14.54L4.46998 18.7C4.61641 19.0926 4.88245 19.4293 5.23054 19.6626C5.57863 19.8958 5.99119 20.0139 6.40998 20H6.99998V18.2L9.99998 15H14L17 18.17V20H17.56C17.9822 20.0025 18.3944 19.8713 18.7375 19.6252C19.0806 19.3791 19.337 19.0307 19.47 18.63L20.87 14.47C20.9778 14.148 21.0019 13.8039 20.94 13.47L19.32 3.7C19.2412 3.22858 18.9961 2.80098 18.6292 2.49463C18.2624 2.18829 17.7979 2.02346 17.32 2.03L17.34 2ZM15 19V22H13V20L12 19L11 20V22H8.99998V19L11 17H13L15 19ZM16 10H7.99998V8H16V10Z" fill="#0F1621"/>
</svg>
