<svg width="24" height="24" viewBox="0 0 24 24" fill="none" xmlns="http://www.w3.org/2000/svg">
<path d="M17.3399 4L18.9999 13.87L18.1299 16.45L15.4599 13.65L14.8699 13H9.12986L8.53986 13.62L5.86986 16.46L4.99986 13.87L6.65986 4H17.3399ZM17.3399 2H6.65986C6.18194 1.99346 5.71748 2.15829 5.3506 2.46463C4.98372 2.77098 4.73868 3.19858 4.65986 3.67L2.99986 13.54C2.93792 13.8739 2.96201 14.218 3.06986 14.54L4.46986 18.7C4.61629 19.0926 4.88233 19.4293 5.23042 19.6626C5.57851 19.8958 5.99107 20.0139 6.40986 20H6.99986V18.2L9.99986 15H13.9999L16.9999 18.17V20H17.5599C17.9821 20.0025 18.3943 19.8713 18.7374 19.6252C19.0805 19.3791 19.3369 19.0307 19.4699 18.63L20.8699 14.47C20.9777 14.148 21.0018 13.8039 20.9399 13.47L19.3199 3.7C19.241 3.22858 18.996 2.80098 18.6291 2.49463C18.2622 2.18829 17.7978 2.02346 17.3199 2.03L17.3399 2ZM14.9999 19V22H12.9999V20L11.9999 19L10.9999 20V22H8.99986V19L10.9999 17H12.9999L14.9999 19ZM15.9999 10H7.99986V8H15.9999V10Z" fill="#0F1621"/>
</svg>
