<svg width="16" height="16" viewBox="0 0 16 16" fill="none" xmlns="http://www.w3.org/2000/svg">
<path d="M15 14H1L6.77 2.34995C6.82201 2.24451 6.9025 2.15572 7.00235 2.09364C7.10219 2.03156 7.21742 1.99866 7.335 1.99866C7.45258 1.99866 7.56781 2.03156 7.66765 2.09364C7.7675 2.15572 7.84799 2.24451 7.9 2.34995L10 6.58995L10.28 5.99995C10.3156 5.92832 10.3705 5.86805 10.4386 5.82592C10.5066 5.78378 10.585 5.76146 10.665 5.76146C10.745 5.76146 10.8234 5.78378 10.8914 5.82592C10.9595 5.86805 11.0144 5.92832 11.05 5.99995L15 14Z" fill="#0F1621"/>
</svg>
