<svg width="24" height="24" viewBox="0 0 24 24" fill="none" xmlns="http://www.w3.org/2000/svg">
<path d="M22 20.9999H2L10.24 3.52995C10.3075 3.37097 10.4203 3.23537 10.5643 3.14005C10.7084 3.04472 10.8773 2.9939 11.05 2.9939C11.2227 2.9939 11.3916 3.04472 11.5357 3.14005C11.6797 3.23537 11.7925 3.37097 11.86 3.52995L14.86 9.88995L15.26 9.04995C15.3067 8.9429 15.3836 8.85179 15.4813 8.78781C15.579 8.72382 15.6932 8.68974 15.81 8.68974C15.9268 8.68974 16.041 8.72382 16.1387 8.78781C16.2364 8.85179 16.3133 8.9429 16.36 9.04995L22 20.9999Z" fill="#0F1621"/>
</svg>
