<svg width="24" height="24" viewBox="0 0 24 24" fill="none" xmlns="http://www.w3.org/2000/svg">
<path d="M22 21H2L10.24 3.53001C10.3075 3.37103 10.4203 3.23543 10.5643 3.14011C10.7084 3.04479 10.8773 2.99396 11.05 2.99396C11.2227 2.99396 11.3916 3.04479 11.5357 3.14011C11.6797 3.23543 11.7925 3.37103 11.86 3.53001L14.86 9.89001L15.26 9.05001C15.3067 8.94296 15.3836 8.85185 15.4813 8.78787C15.579 8.72388 15.6932 8.6898 15.81 8.6898C15.9268 8.6898 16.041 8.72388 16.1387 8.78787C16.2364 8.85185 16.3133 8.94296 16.36 9.05001L22 21Z" fill="#0F1621"/>
</svg>
