<svg xmlns="http://www.w3.org/2000/svg" viewBox="0 0 24 24"><g id="Layer_2" data-name="Layer 2"><g id="UI_POI_Outline" data-name="UI POI Outline"><g id="nature-overlook"><rect width="24" height="24" style="fill:none;opacity:0.11"/><path d="M10,4H6V2h4ZM2,22H8V20H2Zm14,0h6V20H16ZM18,2H14V4h4ZM16.94,8,20,12.6c0,1.35,0,2.51,0,3.4H18l0-2H6v2H4V12.61L7.07,8h9.87M18,6H6L2.34,11.5A2,2,0,0,0,2,12.61V18H8V16h8s0,2,0,2h6s0-3.89,0-5.4a2,2,0,0,0-.33-1.1C20.71,10.07,18,6,18,6Zm-5,4H11v2h2Z"/></g></g></g></svg>