<svg xmlns="http://www.w3.org/2000/svg" viewBox="0 0 24 24"><defs><style>.cls-1{fill:none;}</style></defs><g id="Layer_2" data-name="Layer 2"><g id="System_POI_Outline" data-name="System POI Outline"><g id="nature-main"><rect class="cls-1" width="24" height="24"/><path d="M20,6V8a9,9,0,0,1-9,9H9V15a9,9,0,0,1,9-9h2m2-2H18A11,11,0,0,0,7,15v2.58l-3,3L5.41,22l3-3H11A11,11,0,0,0,22,8V4ZM8.05,2,5.22,4.83A11,11,0,0,0,3.54,18.22l0,0L5,16.75l-.76-2.06A9,9,0,0,1,6.63,6.24L8.05,4.83l.87.87a12.68,12.68,0,0,1,1.54-1.29Z"/></g></g></g></svg>