<svg width="24" height="24" viewBox="0 0 24 24" fill="none" xmlns="http://www.w3.org/2000/svg">
<path d="M20.0002 6V8C20.0002 9.1819 19.7674 10.3522 19.3151 11.4442C18.8628 12.5361 18.1999 13.5282 17.3641 14.364C16.5284 15.1997 15.5363 15.8626 14.4443 16.3149C13.3524 16.7672 12.1821 17 11.0002 17H9.00017V15C9.00017 12.6131 9.94838 10.3239 11.6362 8.63604C13.324 6.94821 15.6132 6 18.0002 6H20.0002ZM22.0002 4H18.0002C15.0828 4 12.2849 5.15893 10.222 7.22183C8.1591 9.28473 7.00017 12.0826 7.00017 15V17.58L4.00017 20.58L5.41017 22L8.41017 19H11.0002C13.9176 19 16.7154 17.8411 18.7783 15.7782C20.8412 13.7153 22.0002 10.9174 22.0002 8V4ZM8.05017 2L5.22017 4.83C3.49266 6.55825 2.38979 8.81252 2.08559 11.2371C1.78138 13.6617 2.29316 16.1185 3.54017 18.22L5.00017 16.75L4.24017 14.69C3.88374 13.1947 3.91626 11.6329 4.33464 10.1537C4.75302 8.67451 5.54331 7.32712 6.63017 6.24L8.05017 4.83L8.92017 5.7C9.39858 5.22995 9.91353 4.7986 10.4602 4.41L8.05017 2Z" fill="#0F1621"/>
</svg>
