<svg width="24" height="24" viewBox="0 0 24 24" fill="none" xmlns="http://www.w3.org/2000/svg">
<path d="M21.9999 4V8C21.9999 10.9174 20.841 13.7153 18.7781 15.7782C16.7152 17.8411 13.9173 19 10.9999 19H8.41993L5.41993 22L3.99993 20.59L6.99993 17.59V15C6.99993 12.0826 8.15885 9.28473 10.2218 7.22183C12.2847 5.15893 15.0825 4 17.9999 4H21.9999ZM4.99993 15C4.99993 12.9274 5.49549 10.8848 6.44528 9.04266C7.39507 7.20049 8.77155 5.61211 10.4599 4.41L8.04993 2L5.21993 4.83C3.49242 6.55825 2.38955 8.81252 2.08534 11.2371C1.78114 13.6617 2.29292 16.1185 3.53993 18.22L4.99993 16.75V15Z" fill="#0F1621"/>
</svg>
