<svg width="16" height="16" viewBox="0 0 16 16" fill="none" xmlns="http://www.w3.org/2000/svg">
<path d="M7.33334 7.33337C7.33334 7.53116 7.27469 7.72449 7.16481 7.88894C7.05492 8.05339 6.89875 8.18157 6.71602 8.25725C6.53329 8.33294 6.33223 8.35275 6.13825 8.31416C5.94426 8.27557 5.76608 8.18033 5.62623 8.04048C5.48638 7.90063 5.39114 7.72245 5.35255 7.52846C5.31397 7.33448 5.33377 7.13342 5.40946 6.95069C5.48514 6.76796 5.61332 6.61179 5.77777 6.5019C5.94221 6.39202 6.13555 6.33337 6.33334 6.33337C6.59855 6.33337 6.85291 6.43873 7.04044 6.62627C7.22798 6.8138 7.33334 7.06816 7.33334 7.33337ZM5.33334 12.24C4.44402 12.0633 3.61941 11.6483 2.94752 11.0395C2.27563 10.4306 1.78169 9.65078 1.51842 8.78313C1.25516 7.91549 1.23245 6.99263 1.45274 6.11309C1.67302 5.23354 2.12801 4.43033 2.76915 3.78919C3.41029 3.14805 4.21351 2.69305 5.09305 2.47277C5.97259 2.25249 6.89545 2.2752 7.76309 2.53846C8.63074 2.80172 9.41061 3.29567 10.0194 3.96756C10.6283 4.63945 11.0432 5.46406 11.22 6.35337C11.3857 7.16159 11.3483 7.9983 11.1111 8.7885C10.874 9.57871 10.4445 10.2977 9.86107 10.8811C9.27769 11.4645 8.55867 11.894 7.76846 12.1312C6.97826 12.3684 6.14155 12.4058 5.33334 12.24ZM5.7 5.08004C5.31591 5.18202 4.96479 5.38179 4.68088 5.65986C4.39697 5.93793 4.18995 6.28482 4.08 6.66671C3.96788 7.06625 3.96403 7.48842 4.06883 7.88994C4.17364 8.29147 4.38334 8.65789 4.67643 8.95166C4.96952 9.24544 5.33547 9.45598 5.73674 9.56172C6.13802 9.66745 6.5602 9.66457 6.96 9.55337C7.33927 9.45397 7.68673 9.25898 7.96917 8.98704C8.25162 8.71509 8.45963 8.37528 8.57334 8.00004C8.69247 7.59908 8.70195 7.17352 8.60079 6.76766C8.49963 6.36179 8.29154 5.99046 7.99816 5.69232C7.70478 5.39418 7.33685 5.18012 6.93267 5.07244C6.52848 4.96476 6.10283 4.96738 5.7 5.08004ZM12 1.33337V4.00004H12.6667V9.04004C12.6658 9.35034 12.5928 9.65618 12.4533 9.93337L11.74 11.3667L11.44 11.22L10.3467 13.4L10.6467 13.5467L11.84 14.1467L12.14 14.2934L13.2267 12.1134L12.9267 12L13.6467 10.56C13.8831 10.0885 14.0042 9.56753 14 9.04004V4.00004H14.6667V1.33337H12Z" fill="#0F1621"/>
</svg>
