<svg xmlns="http://www.w3.org/2000/svg" viewBox="0 0 24 24"><defs><style>.cls-1{fill:none;}.cls-2{fill-rule:evenodd;}</style></defs><g id="Layer_2" data-name="Layer 2"><g id="System_POI_Solid" data-name="System POI Solid"><g id="goingout-nightclub"><rect class="cls-1" width="24" height="24"/><path class="cls-2" d="M12,2a10,10,0,1,0,2,19.8l-1.39-1.39L11.17,19l1.42-1.41,3-3L17,13.17l.71.71.29-.29V4A9.93,9.93,0,0,0,12,2Zm0,12a2,2,0,1,1,2-2A2,2,0,0,1,12,14ZM22,2V14a3,3,0,0,1-.88,2.12l-2,2L20,19l-3,3-3-3,3-3,.71.71,2-2A1.05,1.05,0,0,0,20,14V2Z"/></g></g></g></svg>