<svg width="24" height="24" viewBox="0 0 24 24" fill="none" xmlns="http://www.w3.org/2000/svg">
<path d="M17.88 13L17.27 8.5C17.1528 7.79195 16.7857 7.14937 16.2353 6.68884C15.6849 6.22832 14.9876 5.98037 14.27 5.99H12V8H14.31C14.5454 7.99572 14.7747 8.07461 14.9576 8.22277C15.1405 8.37094 15.2653 8.57888 15.31 8.81L15.58 11H10V10H6V11H7V13H6.5C5.68029 12.9974 4.87543 13.2187 4.17231 13.6401C3.46919 14.0615 2.89454 14.6669 2.51037 15.391C2.12621 16.1152 1.94714 16.9305 1.99249 17.7489C2.03784 18.5674 2.30589 19.3579 2.7677 20.0352C3.22951 20.7124 3.86754 21.2507 4.61291 21.5918C5.35828 21.9329 6.18266 22.064 6.99707 21.9708C7.81148 21.8776 8.58496 21.5638 9.23403 21.0631C9.88309 20.5625 10.3831 19.8941 10.68 19.13C10.8236 19.1857 10.9706 19.2325 11.12 19.27C11.2531 19.2799 11.3869 19.2799 11.52 19.27C12.1282 19.2668 12.7145 19.043 13.17 18.64C13.3834 19.4338 13.8106 20.1538 14.405 20.7215C14.9995 21.2892 15.7384 21.6829 16.5412 21.8595C17.344 22.0361 18.1798 21.989 18.9577 21.7233C19.7355 21.4575 20.4255 20.9834 20.9524 20.3524C21.4793 19.7215 21.8228 18.9581 21.9457 18.1453C22.0685 17.3325 21.9658 16.5017 21.6489 15.7432C21.332 14.9848 20.8129 14.3279 20.1483 13.8442C19.4838 13.3605 18.6991 13.0685 17.88 13ZM6.5 20C6.06373 20.0016 5.63463 19.889 5.25534 19.6735C4.87606 19.4579 4.55979 19.1468 4.33797 18.7711C4.11615 18.3954 3.99651 17.9683 3.99092 17.532C3.98534 17.0958 4.09401 16.6657 4.30613 16.2845C4.51826 15.9032 4.82646 15.5841 5.2001 15.3589C5.57375 15.1337 5.99982 15.0102 6.43599 15.0006C6.87216 14.9911 7.30324 15.0958 7.68638 15.3045C8.06952 15.5131 8.39139 15.8184 8.62 16.19L9 17.1C9.01035 17.2331 9.01035 17.3669 9 17.5C9 18.163 8.73661 18.7989 8.26777 19.2678C7.79893 19.7366 7.16304 20 6.5 20ZM11.93 17.09C11.8769 17.1677 11.8022 17.2281 11.7151 17.2636C11.6279 17.2992 11.5323 17.3084 11.44 17.29C11.3433 17.2742 11.2533 17.2309 11.1806 17.1653C11.1079 17.0997 11.0556 17.0145 11.03 16.92L10.91 16.61C10.8188 16.1903 10.6672 15.7861 10.46 15.41L9.56 13H14.77L11.93 17.09ZM17.5 20C17.0055 20 16.5222 19.8534 16.1111 19.5787C15.7 19.304 15.3795 18.9135 15.1903 18.4567C15.0011 17.9999 14.9516 17.4972 15.048 17.0123C15.1445 16.5273 15.3826 16.0819 15.7322 15.7322C16.0819 15.3826 16.5273 15.1445 17.0123 15.048C17.4972 14.9516 17.9999 15.0011 18.4567 15.1903C18.9135 15.3795 19.304 15.7 19.5787 16.1111C19.8534 16.5222 20 17.0055 20 17.5C20 18.163 19.7366 18.7989 19.2678 19.2678C18.7989 19.7366 18.163 20 17.5 20ZM4 8H7C7.26522 8 7.51957 7.89464 7.70711 7.70711C7.89464 7.51957 8 7.26522 8 7V3C8 2.73478 7.89464 2.48043 7.70711 2.29289C7.51957 2.10536 7.26522 2 7 2H2V11H4V8ZM4 4H6V6H4V4Z" fill="#0F1621"/>
</svg>
