<svg width="16" height="16" viewBox="0 0 16 16" fill="none" xmlns="http://www.w3.org/2000/svg">
<path d="M14.6668 3.33331H1.3335V2.66665C1.3335 2.31302 1.47397 1.97389 1.72402 1.72384C1.97407 1.47379 2.31321 1.33331 2.66683 1.33331H13.3335C13.6871 1.33331 14.0263 1.47379 14.2763 1.72384C14.5264 1.97389 14.6668 2.31302 14.6668 2.66665V3.33331ZM1.3335 13.3333C1.3335 13.6869 1.47397 14.0261 1.72402 14.2761C1.97407 14.5262 2.31321 14.6666 2.66683 14.6666H13.3335C13.6871 14.6666 14.0263 14.5262 14.2763 14.2761C14.5264 14.0261 14.6668 13.6869 14.6668 13.3333V12.6666H1.3335V13.3333ZM2.90683 11.3333H1.3335V4.66665H3.48683C5.20683 4.66665 6.26683 5.37998 6.26683 6.83998C6.26683 8.29998 5.16683 9.11331 3.60016 9.11331H2.90683V11.3333ZM2.90683 7.99998H3.4935C4.20683 7.99998 4.66683 7.67998 4.66683 6.83998C4.66683 6.12665 4.24683 5.79331 3.46683 5.79331H2.90683V7.99998ZM6.66683 7.65998C6.66551 7.85832 6.72321 8.05258 6.83258 8.21804C6.94195 8.38351 7.09806 8.51271 7.28106 8.58923C7.46405 8.66574 7.66567 8.68611 7.86027 8.64773C8.05487 8.60936 8.23366 8.51398 8.37391 8.37373C8.51417 8.23348 8.60954 8.05469 8.64792 7.86009C8.68629 7.66549 8.66592 7.46387 8.58941 7.28087C8.5129 7.09788 8.38369 6.94177 8.21823 6.8324C8.05276 6.72302 7.85851 6.66533 7.66016 6.66665C7.52872 6.66297 7.3979 6.68615 7.27572 6.73476C7.15354 6.78338 7.04256 6.85642 6.94958 6.9494C6.8566 7.04238 6.78356 7.15336 6.73495 7.27554C6.68633 7.39772 6.66315 7.52853 6.66683 7.65998ZM12.9802 8.49331L14.6668 11.3333H12.8935L11.5268 8.78665H10.9068V11.3333H9.3335V4.66665H11.5135C13.3202 4.66665 14.2535 5.33331 14.2535 6.66665C14.2711 7.06866 14.156 7.46532 13.9259 7.79543C13.6958 8.12555 13.3635 8.37078 12.9802 8.49331ZM12.6668 6.66665C12.6668 5.99998 12.2868 5.74665 11.5068 5.74665H10.9402V7.67331H11.6068C12.2668 7.69998 12.6668 7.39998 12.6668 6.66665Z" fill="#0F1621"/>
</svg>
