<svg width="16" height="16" viewBox="0 0 16 16" fill="none" xmlns="http://www.w3.org/2000/svg">
<path d="M12.3589 9L11.6989 5.43C11.6328 5.03166 11.4279 4.66956 11.1204 4.40784C10.8129 4.14611 10.4227 4.00163 10.0189 4H8.28891V5.42H10.0189C10.085 5.42169 10.1484 5.44671 10.1978 5.49063C10.2472 5.53456 10.2795 5.59456 10.2889 5.66L10.5389 7H4.35891L4.95891 9V9.18C4.65723 9.07008 4.33986 9.00931 4.01891 9C3.46543 8.99651 2.92178 9.14621 2.4481 9.43253C1.97442 9.71885 1.58919 10.1306 1.33502 10.6223C1.08085 11.114 0.967659 11.6664 1.00797 12.2184C1.04827 12.7704 1.24051 13.3005 1.56341 13.7501C1.8863 14.1996 2.32727 14.5511 2.83751 14.7656C3.34776 14.98 3.90739 15.0492 4.45449 14.9653C5.00159 14.8815 5.51483 14.6479 5.93742 14.2904C6.36001 13.933 6.67547 13.4656 6.84891 12.94C6.99422 13.0188 7.14873 13.0792 7.30891 13.12H7.36891C7.51855 13.1347 7.66927 13.1347 7.81891 13.12C8.29061 13.121 8.74878 12.9624 9.11891 12.67C9.24493 13.2056 9.51584 13.6963 9.90199 14.0883C10.2881 14.4803 10.7747 14.7585 11.3083 14.8925C11.842 15.0266 12.4023 15.0113 12.9278 14.8483C13.4534 14.6853 13.924 14.3809 14.2881 13.9684C14.6523 13.5559 14.896 13.0512 14.9926 12.5095C15.0892 11.9678 15.0349 11.4099 14.8357 10.897C14.6366 10.3841 14.3002 9.93579 13.8633 9.60121C13.4265 9.26663 12.906 9.05865 12.3589 9V9ZM4.01891 13.58C3.70642 13.58 3.40094 13.4873 3.14111 13.3137C2.88128 13.1401 2.67877 12.8933 2.55918 12.6046C2.43959 12.3159 2.40831 11.9982 2.46927 11.6918C2.53024 11.3853 2.68072 11.1037 2.90168 10.8828C3.12265 10.6618 3.40418 10.5113 3.71067 10.4504C4.01716 10.3894 4.33484 10.4207 4.62355 10.5403C4.91226 10.6599 5.15902 10.8624 5.33263 11.1222C5.50625 11.382 5.59891 11.6875 5.59891 12C5.59891 12.419 5.43245 12.8209 5.13614 13.1172C4.83983 13.4135 4.43795 13.58 4.01891 13.58V13.58ZM8.37891 11.48C8.29631 11.5849 8.18617 11.6648 8.06079 11.7107C7.93541 11.7566 7.79973 11.7668 7.66891 11.74V11.74C7.53492 11.7138 7.41114 11.6501 7.31199 11.5563C7.21284 11.4624 7.14241 11.3423 7.10891 11.21L6.26891 8.42H10.8089L8.37891 11.48ZM12.0189 13.58C11.7064 13.58 11.4009 13.4873 11.1411 13.3137C10.8813 13.1401 10.6788 12.8933 10.5592 12.6046C10.4396 12.3159 10.4083 11.9982 10.4693 11.6918C10.5302 11.3853 10.6807 11.1037 10.9017 10.8828C11.1226 10.6618 11.4042 10.5113 11.7107 10.4504C12.0172 10.3894 12.3348 10.4207 12.6236 10.5403C12.9123 10.6599 13.159 10.8624 13.3326 11.1222C13.5062 11.382 13.5989 11.6875 13.5989 12C13.5989 12.419 13.4324 12.8209 13.1361 13.1172C12.8398 13.4135 12.438 13.58 12.0189 13.58V13.58ZM5.18891 1H1.01891V8.5H2.68891V6H5.18891C5.29791 6 5.40584 5.97853 5.50654 5.93682C5.60724 5.89511 5.69874 5.83397 5.77581 5.7569C5.85288 5.67983 5.91402 5.58833 5.95573 5.48763C5.99744 5.38693 6.01891 5.279 6.01891 5.17V1.83C6.01891 1.721 5.99744 1.61307 5.95573 1.51237C5.91402 1.41167 5.85288 1.32017 5.77581 1.2431C5.69874 1.16603 5.60724 1.10489 5.50654 1.06318C5.40584 1.02147 5.29791 1 5.18891 1V1ZM4.34891 4.33H2.68891V2.67H4.34891V4.33Z" fill="#0F1621"/>
</svg>
