<svg xmlns="http://www.w3.org/2000/svg" width="24" height="24" viewBox="0 0 24 24"><rect width="24" height="24" style="fill:none"/><path d="M17.88,13l-.61-4.5v0a3,3,0,0,0-3-2.51H12V8h2.31a1,1,0,0,1,1,.81L15.58,11H10V10H6v1H7v2H6.5a4.5,4.5,0,1,0,4.18,6.13,3.73,3.73,0,0,0,.44.14,2.69,2.69,0,0,0,.4,0,2.51,2.51,0,0,0,1.65-.63A4.49,4.49,0,1,0,17.88,13ZM6.5,20a2.5,2.5,0,1,1,2.12-3.81L9,17.1a2.58,2.58,0,0,1,0,.4A2.5,2.5,0,0,1,6.5,20Zm5.43-2.91a.48.48,0,0,1-.49.2.51.51,0,0,1-.41-.37l-.12-.31a4.44,4.44,0,0,0-.45-1.2L9.56,13h5.21ZM17.5,20A2.5,2.5,0,1,1,20,17.5,2.5,2.5,0,0,1,17.5,20ZM4,8H7A1,1,0,0,0,8,7V3A1,1,0,0,0,7,2H2v9H4ZM4,4H6V6H4Z"/></svg>