<svg width="24" height="24" viewBox="0 0 24 24" fill="none" xmlns="http://www.w3.org/2000/svg">
<path d="M16 4H8V2H16V4ZM20 10V20C20 20.5304 19.7893 21.0391 19.4142 21.4142C19.0391 21.7893 18.5304 22 18 22H6C5.46957 22 4.96086 21.7893 4.58579 21.4142C4.21071 21.0391 4 20.5304 4 20V10C4 8.93913 4.42143 7.92172 5.17157 7.17157C5.92172 6.42143 6.93913 6 8 6H16C17.0609 6 18.0783 6.42143 18.8284 7.17157C19.5786 7.92172 20 8.93913 20 10ZM16 13H13V10H11V13H8V15H11V18H13V15H16V13Z" fill="#0F1621"/>
</svg>
