<svg width="16" height="16" viewBox="0 0 16 16" fill="none" xmlns="http://www.w3.org/2000/svg">
<path d="M11.3332 3.33333H4.6665V2.47333C4.66562 2.32338 4.6945 2.17474 4.75148 2.03603C4.80846 1.89732 4.89239 1.77129 4.99843 1.66526C5.10447 1.55922 5.23049 1.47528 5.3692 1.41831C5.50791 1.36133 5.65655 1.33245 5.8065 1.33333H10.1932C10.3431 1.33245 10.4918 1.36133 10.6305 1.41831C10.7692 1.47528 10.8952 1.55922 11.0012 1.66526C11.1073 1.77129 11.1912 1.89732 11.2482 2.03603C11.3052 2.17474 11.3341 2.32338 11.3332 2.47333V3.33333ZM13.3332 6V14.6667H2.6665V6C2.6665 5.64638 2.80698 5.30724 3.05703 5.05719C3.30708 4.80714 3.64622 4.66667 3.99984 4.66667H11.9998C12.3535 4.66667 12.6926 4.80714 12.9426 5.05719C13.1927 5.30724 13.3332 5.64638 13.3332 6ZM11.6665 8.66667H8.99984V6H6.99984V8.66667H4.33317V10.6667H6.99984V13.3333H8.99984V10.6667H11.6665V8.66667Z" fill="#0F1621"/>
</svg>
