<svg width="16" height="16" viewBox="0 0 16 16" fill="none" xmlns="http://www.w3.org/2000/svg">
<path d="M7.99968 1.33331C6.68114 1.33331 5.3922 1.72431 4.29588 2.45685C3.19955 3.18939 2.34506 4.23058 1.84048 5.44876C1.3359 6.66693 1.20387 8.00738 1.46111 9.30058C1.71834 10.5938 2.35328 11.7817 3.28563 12.714C4.21798 13.6464 5.40587 14.2813 6.69908 14.5385C7.99228 14.7958 9.33273 14.6638 10.5509 14.1592C11.7691 13.6546 12.8103 12.8001 13.5428 11.7038C14.2753 10.6075 14.6663 9.31852 14.6663 7.99998C14.6663 7.1245 14.4939 6.25759 14.1589 5.44876C13.8238 4.63992 13.3328 3.90499 12.7137 3.28593C12.0947 2.66688 11.3597 2.17581 10.5509 1.84078C9.74206 1.50575 8.87516 1.33331 7.99968 1.33331ZM7.99968 11.9266C7.22306 11.9266 6.46388 11.6964 5.81814 11.2649C5.1724 10.8334 4.66911 10.2202 4.37191 9.50265C4.07471 8.78515 3.99695 7.99562 4.14846 7.23392C4.29997 6.47223 4.67395 5.77256 5.2231 5.22341C5.77226 4.67425 6.47192 4.30027 7.23362 4.14876C7.99532 3.99725 8.78484 4.07501 9.50235 4.37221C10.2199 4.66941 10.8331 5.1727 11.2646 5.81844C11.696 6.46418 11.9263 7.22336 11.9263 7.99998C11.9263 8.51564 11.8248 9.02625 11.6274 9.50265C11.4301 9.97906 11.1409 10.4119 10.7762 10.7766C10.4116 11.1412 9.97875 11.4304 9.50235 11.6277C9.02594 11.8251 8.51533 11.9266 7.99968 11.9266ZM8.79968 7.80665C9.03433 7.72071 9.23754 7.56588 9.38268 7.36245C9.52781 7.15902 9.6081 6.91649 9.61301 6.66665C9.61301 5.84665 8.87301 5.40665 7.99968 5.40665C7.12634 5.40665 6.38634 5.89998 6.38634 6.70665C6.38266 6.95205 6.45073 7.19319 6.58219 7.40044C6.71365 7.6077 6.90278 7.77205 7.12634 7.87331C6.85851 7.95594 6.62353 8.12087 6.45478 8.34467C6.28603 8.56847 6.19211 8.83975 6.18634 9.11998C6.18634 9.91998 6.85301 10.54 7.97968 10.54C9.10634 10.54 9.81301 9.90665 9.81301 9.09998C9.79707 8.80652 9.69131 8.52505 9.51005 8.29371C9.32879 8.06236 9.0808 7.89233 8.79968 7.80665ZM7.99968 6.09331C8.09213 6.07991 8.18642 6.08758 8.27549 6.11573C8.36456 6.14389 8.44613 6.19181 8.51408 6.25592C8.58203 6.32002 8.63462 6.39865 8.66791 6.48594C8.7012 6.57322 8.71434 6.6669 8.70634 6.75998C8.70857 6.9358 8.65924 7.10841 8.56446 7.25651C8.46968 7.4046 8.33359 7.52169 8.17301 7.59331L8.03968 7.54665C7.55968 7.36665 7.29301 7.18665 7.29301 6.76665C7.28393 6.67304 7.29627 6.5786 7.32909 6.49047C7.3619 6.40233 7.41434 6.32282 7.48242 6.25795C7.55051 6.19307 7.63246 6.14454 7.72208 6.11601C7.81169 6.08749 7.90662 6.07973 7.99968 6.09331ZM7.99968 9.87331C7.47301 9.87331 7.13301 9.58665 7.13301 9.11331C7.12555 8.91077 7.17782 8.71049 7.28332 8.53743C7.38882 8.36437 7.54289 8.22615 7.72634 8.13998L7.95301 8.21998C8.61968 8.45998 8.85968 8.66665 8.85968 9.12665C8.85981 9.23467 8.83671 9.34145 8.79194 9.43976C8.74718 9.53807 8.6818 9.6256 8.60023 9.69642C8.51866 9.76724 8.42282 9.81968 8.3192 9.85021C8.21558 9.88073 8.10661 9.88861 7.99968 9.87331Z" fill="#0F1621"/>
</svg>
