<svg xmlns="http://www.w3.org/2000/svg" viewBox="0 0 24 24"><g id="Layer_2" data-name="Layer 2"><g id="UI_POI_Solid" data-name="UI POI Solid"><g id="publictoilet"><rect width="24" height="24" style="fill:none"/><path d="M11,11l-1,1,1,2v4H9v4H6V18H4V14l1-2L4,11V9A1.81,1.81,0,0,1,5.78,7H9.22A1.9,1.9,0,0,1,11,9ZM9,4.47V3.53A1.52,1.52,0,0,0,7.5,2h0A1.52,1.52,0,0,0,6,3.53v.94A1.52,1.52,0,0,0,7.5,6h0A1.52,1.52,0,0,0,9,4.47ZM18.5,6A1.52,1.52,0,0,0,20,4.47V3.53a1.55,1.55,0,0,0-.44-1.08A1.47,1.47,0,0,0,18.5,2,1.52,1.52,0,0,0,17,3.53v.94A1.52,1.52,0,0,0,18.5,6ZM22,9v5H20v8H17V14H15V9a1.81,1.81,0,0,1,1.78-2h3.44A1.9,1.9,0,0,1,22,9Z"/></g></g></g></svg>