<svg width="24" height="24" viewBox="0 0 24 24" fill="none" xmlns="http://www.w3.org/2000/svg">
<path d="M11 11L10 12L11 14V18H9V22H6V18H4V14L5 12L4 11V9C3.97353 8.74935 3.9997 8.49593 4.07683 8.25598C4.15396 8.01603 4.28036 7.79483 4.44793 7.60655C4.61549 7.41828 4.82053 7.26707 5.04992 7.16262C5.2793 7.05817 5.52797 7.00278 5.78 7H9.22C9.72061 7.03093 10.1887 7.25855 10.5221 7.63321C10.8556 8.00788 11.0274 8.49919 11 9V11ZM9 4.47V3.53C9.00268 3.12858 8.84645 2.74241 8.56543 2.45576C8.2844 2.16911 7.90139 2.00527 7.5 2C7.09861 2.00527 6.7156 2.16911 6.43458 2.45576C6.15355 2.74241 5.99733 3.12858 6 3.53V4.47C5.99733 4.87142 6.15355 5.25759 6.43458 5.54424C6.7156 5.83089 7.09861 5.99473 7.5 6C7.90139 5.99473 8.2844 5.83089 8.56543 5.54424C8.84645 5.25759 9.00268 4.87142 9 4.47ZM18.5 6C18.9014 5.99473 19.2844 5.83089 19.5654 5.54424C19.8465 5.25759 20.0027 4.87142 20 4.47V3.53C19.9995 3.12645 19.8417 2.739 19.56 2.45C19.4227 2.30751 19.258 2.19421 19.0759 2.11688C18.8938 2.03956 18.6979 1.9998 18.5 2C18.0986 2.00527 17.7156 2.16911 17.4346 2.45576C17.1536 2.74241 16.9973 3.12858 17 3.53V4.47C16.9973 4.87142 17.1536 5.25759 17.4346 5.54424C17.7156 5.83089 18.0986 5.99473 18.5 6ZM22 9V14H20V22H17V14H15V9C14.9735 8.74935 14.9997 8.49593 15.0768 8.25598C15.154 8.01603 15.2804 7.79483 15.4479 7.60655C15.6155 7.41828 15.8205 7.26707 16.0499 7.16262C16.2793 7.05817 16.528 7.00278 16.78 7H20.22C20.7206 7.03093 21.1887 7.25855 21.5221 7.63321C21.8556 8.00788 22.0274 8.49919 22 9Z" fill="#0F1621"/>
</svg>
