<svg xmlns="http://www.w3.org/2000/svg" viewBox="0 0 24 24"><defs><style>.cls-1{fill:none;}</style></defs><g id="Layer_2" data-name="Layer 2"><g id="System_POI_Outline" data-name="System POI Outline"><g id="facilities-publictoilet"><rect class="cls-1" width="24" height="24"/><path d="M11,9A1.9,1.9,0,0,0,9.22,7H5.78A1.81,1.81,0,0,0,4,9v2l1,1L4,14v4H6v4H9V18h2V14l-1-2,1-1ZM9,16H6V14.47L6.74,13H8.27L9,14.47Zm0-5.83L8.18,11H6.82L6,10.17V9H9ZM7.5,6h0A1.52,1.52,0,0,1,6,4.47V3.53A1.52,1.52,0,0,1,7.5,2h0A1.52,1.52,0,0,1,9,3.53v.94A1.52,1.52,0,0,1,7.5,6ZM20,9v3H17V9h3M18.5,2A1.52,1.52,0,0,0,17,3.53v.94a1.5,1.5,0,1,0,3,0V3.53a1.55,1.55,0,0,0-.44-1.08A1.47,1.47,0,0,0,18.5,2Zm1.72,5H16.78A1.81,1.81,0,0,0,15,9v5h2v8h3V14h2V9a1.9,1.9,0,0,0-1.78-2Z"/></g></g></g></svg>