<svg width="24" height="24" viewBox="0 0 24 24" fill="none" xmlns="http://www.w3.org/2000/svg">
<path d="M11.7802 13.9651L12.9892 16.4289V18.9526H3.99666V16.4289L5.25561 13.9651H11.7802ZM10.9908 9.97505H5.995V11.9701H5.25561C4.88384 11.9703 4.51949 12.074 4.20353 12.2696C3.88758 12.4652 3.63254 12.7449 3.4671 13.0773L2.12822 15.7506C2.05689 15.8896 2.01925 16.0433 2.01831 16.1995V20.9476C2.01831 21.2122 2.12358 21.4659 2.31096 21.653C2.49834 21.84 2.75248 21.9451 3.01748 21.9451H3.99666C4.26166 21.9451 4.5158 21.84 4.70318 21.653C4.89056 21.4659 4.99583 21.2122 4.99583 20.9476H11.99C11.99 21.2122 12.0953 21.4659 12.2826 21.653C12.47 21.84 12.7242 21.9451 12.9892 21.9451H13.9883C14.2533 21.9451 14.5075 21.84 14.6949 21.653C14.8822 21.4659 14.9875 21.2122 14.9875 20.9476V16.1995C14.9897 16.0441 14.9555 15.8904 14.8876 15.7506L13.5487 13.0773C13.3848 12.7479 13.1329 12.4702 12.8208 12.2748C12.5087 12.0794 12.1485 11.9739 11.7802 11.9701H10.9908V9.97505ZM10.9908 17.9551H5.995L6.99416 15.9601H9.99167L10.9908 17.9551ZM19.9833 1.995H9.99167C9.46167 1.995 8.95339 2.20518 8.57863 2.57932C8.20387 2.95346 7.99333 3.4609 7.99333 3.99001V7.98003H19.9833V17.9551H16.9858V19.9501H17.985V20.9476C17.985 21.2122 18.0903 21.4659 18.2777 21.653C18.465 21.84 18.7192 21.9451 18.9842 21.9451H20.9825C21.2475 21.9451 21.5016 21.84 21.689 21.653C21.8764 21.4659 21.9817 21.2122 21.9817 20.9476V3.99001C21.9817 3.4609 21.7711 2.95346 21.3964 2.57932C21.0216 2.20518 20.5133 1.995 19.9833 1.995ZM19.9833 5.98502H9.99167V3.99001H19.9833V5.98502Z" fill="#0F1621"/>
</svg>
