<svg xmlns="http://www.w3.org/2000/svg" width="24.02" height="24.06" viewBox="0 0 24.02 24.06"><polygon points="24.02 24 0 24.06 0 0.06 24.02 0 24.02 24" style="fill:none;opacity:0.05"/><path d="M11.79,14,13,16.47V19H4V16.47L5.26,14ZM11,10H6v2H5.26a2,2,0,0,0-1.79,1.11L2.13,15.79a1,1,0,0,0-.11.45V21a1,1,0,0,0,1,1H4a1,1,0,0,0,1-1h7a1,1,0,0,0,1,1h1a1,1,0,0,0,1-1V16.24a1,1,0,0,0-.1-.45l-1.34-2.68A2,2,0,0,0,11.79,12H11V10Zm0,8H6l1-2h3ZM20,2,10,2A2,2,0,0,0,8,4V8H20V18H17v2h1v1a1,1,0,0,0,1,1h2a1,1,0,0,0,1-1V4A2,2,0,0,0,20,2Zm0,4H10V4H20Z"/></svg>