<svg width="24" height="25" viewBox="0 0 24 25" fill="none" xmlns="http://www.w3.org/2000/svg">
<path d="M18 22.0601H6V20.0601H18V22.0601ZM16.58 6.06007H7.42L6 14.0601V16.0601H18V14.0601L16.58 6.06007ZM16.58 4.06007C16.9886 4.05874 17.3879 4.18262 17.724 4.41504C18.0601 4.64746 18.317 4.97727 18.46 5.36007L20 14.0601V16.0601C19.9825 16.585 19.7662 17.0836 19.3949 17.4549C19.0235 17.8263 18.5249 18.0426 18 18.0601H6C5.46957 18.0601 4.96086 17.8494 4.58579 17.4743C4.21071 17.0992 4 16.5905 4 16.0601V14.0601L5.51 5.36007C5.65302 4.97727 5.90988 4.64746 6.24599 4.41504C6.58211 4.18262 6.98135 4.05874 7.39 4.06007H16.58ZM15.58 12.0601H8.38L8 14.0601H16L15.58 12.0601Z" fill="#0F1621"/>
</svg>
