<svg width="16" height="16" viewBox="0 0 16 16" fill="none" xmlns="http://www.w3.org/2000/svg">
<path d="M12.0003 1.33331L9.33361 7.99998V12.6666H7.33361V7.33331H2.00028V14.6666H14.6669V7.99998L12.0003 1.33331ZM4.00028 12.6666V8.66665C4.0779 8.56315 4.17855 8.47915 4.29427 8.42129C4.40998 8.36343 4.53757 8.33331 4.66694 8.33331C4.79631 8.33331 4.92391 8.36343 5.03962 8.42129C5.15533 8.47915 5.25599 8.56315 5.33361 8.66665V12.6666H4.00028ZM11.3336 12.6666V8.66665C11.4112 8.56315 11.5119 8.47915 11.6276 8.42129C11.7433 8.36343 11.8709 8.33331 12.0003 8.33331C12.1296 8.33331 12.2572 8.36343 12.373 8.42129C12.4887 8.47915 12.5893 8.56315 12.6669 8.66665V12.6666H11.3336ZM8.00028 4.66665C8.00746 4.92659 7.95037 5.18429 7.83407 5.41688C7.71778 5.64947 7.54588 5.84976 7.33361 5.99998H2.00028C1.78801 5.84976 1.61611 5.64947 1.49981 5.41688C1.38352 5.18429 1.32643 4.92659 1.33361 4.66665C1.33361 3.33331 4.66694 1.33331 4.66694 1.33331C4.66694 1.33331 8.00028 3.33331 8.00028 4.66665Z" fill="#0F1621"/>
</svg>
