<svg width="24" height="25" viewBox="0 0 24 25" fill="none" xmlns="http://www.w3.org/2000/svg">
<path d="M7.00003 4.44006C8.13967 5.13926 9.15378 6.02492 10 7.06006H4.05003C4.88127 6.02918 5.87821 5.14376 7.00003 4.44006V4.44006ZM7.00003 2.06006C7.00003 2.06006 2.00003 5.06006 2.00003 7.06006C1.99014 7.44983 2.07616 7.83607 2.25053 8.18481C2.4249 8.53355 2.68228 8.83411 3.00003 9.06006H11C11.3178 8.83411 11.5752 8.53355 11.7495 8.18481C11.9239 7.83607 12.0099 7.44983 12 7.06006C12 5.06006 7.00003 2.06006 7.00003 2.06006ZM18 2.06006L14 15.0601V20.0601H11V11.0601H3.00003V22.0601H22V15.0601L18 2.06006ZM8.00003 20.0601H6.00003V14.0601C6.00003 13.7948 6.10539 13.5405 6.29293 13.353C6.48046 13.1654 6.73482 13.0601 7.00003 13.0601C7.26525 13.0601 7.5196 13.1654 7.70714 13.353C7.89468 13.5405 8.00003 13.7948 8.00003 14.0601V20.0601ZM18 8.86006L19.29 13.0601H16.71L18 8.86006ZM19 20.0601H17V16.0601C17 15.7948 17.1054 15.5405 17.2929 15.353C17.4805 15.1654 17.7348 15.0601 18 15.0601C18.2653 15.0601 18.5196 15.1654 18.7071 15.353C18.8947 15.5405 19 15.7948 19 16.0601V20.0601Z" fill="#0F1621"/>
</svg>
