<svg width="24" height="25" viewBox="0 0 24 25" fill="none" xmlns="http://www.w3.org/2000/svg">
<path d="M6.99979 4.44006C8.13943 5.13926 9.15354 6.02492 9.99979 7.06006H4.04979C4.88103 6.02918 5.87797 5.14376 6.99979 4.44006ZM6.99979 2.06006C6.99979 2.06006 1.99979 5.06006 1.99979 7.06006C1.9899 7.44983 2.07592 7.83607 2.25029 8.18481C2.42466 8.53355 2.68203 8.83411 2.99979 9.06006H10.9998C11.3175 8.83411 11.5749 8.53355 11.7493 8.18481C11.9237 7.83607 12.0097 7.44983 11.9998 7.06006C11.9998 5.06006 6.99979 2.06006 6.99979 2.06006ZM17.9998 2.06006L13.9998 15.0601V20.0601H10.9998V11.0601H2.99979V22.0601H21.9998V15.0601L17.9998 2.06006ZM7.99979 20.0601H5.99979V14.0601C5.99979 13.7948 6.10515 13.5405 6.29268 13.353C6.48022 13.1654 6.73457 13.0601 6.99979 13.0601C7.26501 13.0601 7.51936 13.1654 7.7069 13.353C7.89443 13.5405 7.99979 13.7948 7.99979 14.0601V20.0601ZM17.9998 8.86006L19.2898 13.0601H16.7098L17.9998 8.86006ZM18.9998 20.0601H16.9998V16.0601C16.9998 15.7948 17.1051 15.5405 17.2927 15.353C17.4802 15.1654 17.7346 15.0601 17.9998 15.0601C18.265 15.0601 18.5194 15.1654 18.7069 15.353C18.8944 15.5405 18.9998 15.7948 18.9998 16.0601V20.0601Z" fill="#0F1621"/>
</svg>
