<svg xmlns="http://www.w3.org/2000/svg" viewBox="0 0 24 24"><g id="Layer_2" data-name="Layer 2"><g id="UI_POI_Outline" data-name="UI POI Outline"><g id="religious"><rect width="24" height="24" style="fill:none"/><path d="M7,4.38A11.94,11.94,0,0,1,10,7H4.05A11.94,11.94,0,0,1,7,4.38M7,2S2,5,2,7A2.38,2.38,0,0,0,3,9h8a2.38,2.38,0,0,0,1-2c0-2-5-5-5-5ZM18,2,14,15v5H11V11H3V22H22V15ZM8,20H6V14a1,1,0,0,1,1-1H7a1,1,0,0,1,1,1ZM18,8.8,19.29,13H16.71ZM19,20H17V16a1,1,0,0,1,1-1h0a1,1,0,0,1,1,1Z"/></g></g></g></svg>