<svg width="24" height="24" viewBox="0 0 24 24" fill="none" xmlns="http://www.w3.org/2000/svg">
<path d="M18 2L14 15V20H11V11H3.00003V22H22V15L18 2ZM6.00003 20V14C6.00003 13.7348 6.10539 13.4804 6.29293 13.2929C6.48046 13.1054 6.73482 13 7.00003 13C7.26525 13 7.5196 13.1054 7.70714 13.2929C7.89468 13.4804 8.00003 13.7348 8.00003 14V20H6.00003ZM17 20V16C17 15.7348 17.1054 15.4804 17.2929 15.2929C17.4805 15.1054 17.7348 15 18 15C18.2653 15 18.5196 15.1054 18.7071 15.2929C18.8947 15.4804 19 15.7348 19 16V20H17ZM12 7C12.0099 7.38978 11.9239 7.77601 11.7495 8.12475C11.5752 8.47349 11.3178 8.77405 11 9H3.00003C2.68228 8.77405 2.4249 8.47349 2.25053 8.12475C2.07616 7.77601 1.99014 7.38978 2.00003 7C2.00003 5 7.00003 2 7.00003 2C7.00003 2 12 5 12 7Z" fill="#0F1621"/>
</svg>
