<svg width="24" height="24" viewBox="0 0 24 24" fill="none" xmlns="http://www.w3.org/2000/svg">
<path d="M9 2V9H7V2H9ZM11 2V10C11 10.2652 10.8946 10.5196 10.7071 10.7071C10.5196 10.8946 10.2652 11 10 11H6C5.73478 11 5.48043 10.8946 5.29289 10.7071C5.10536 10.5196 5 10.2652 5 10V2H3V10C3 10.7956 3.31607 11.5587 3.87868 12.1213C4.44129 12.6839 5.20435 13 6 13H7V22H9V13H10C10.7956 13 11.5587 12.6839 12.1213 12.1213C12.6839 11.5587 13 10.7956 13 10V2H11ZM21 2V22H19V15H15V8C15 6.4087 15.6321 4.88258 16.7574 3.75736C17.8826 2.63214 19.4087 2 21 2Z" fill="#0F1621"/>
</svg>
