<svg width="16" height="16" viewBox="0 0 16 16" fill="none" xmlns="http://www.w3.org/2000/svg">
<path d="M13.3333 1.33331V14.6666H11.3333V9.33331H10V5.99998C10 2.66665 13.3333 1.33331 13.3333 1.33331ZM6.66667 1.33331V4.66665H5.66667V1.33331H4.33333V4.66665H3.33333V1.33331H2V4.87331C2.00017 5.3841 2.19576 5.87547 2.54667 6.24665L3.8 7.33331C3.86544 7.3974 3.91697 7.47427 3.95138 7.55915C3.98579 7.64403 4.00234 7.73509 4 7.82665V14.6666H6V7.82665C5.99852 7.7346 6.01612 7.64325 6.05169 7.55834C6.08726 7.47344 6.14003 7.39682 6.20667 7.33331L7.41333 6.29998C7.78851 5.92527 7.99953 5.4169 8 4.88665V1.33331H6.66667Z" fill="#0F1621"/>
</svg>
