<svg width="25" height="25" viewBox="0 0 25 25" fill="none" xmlns="http://www.w3.org/2000/svg">
<path d="M20.6772 10.0601L19.9377 20.0601H5.06266L4.32308 10.0601H20.6772ZM22.9168 8.06006H2.0835L2.98975 20.2001C3.02672 20.7059 3.26243 21.1793 3.64919 21.5246C4.03596 21.8699 4.54491 22.0613 5.07308 22.0601H19.9377C20.4658 22.0613 20.9748 21.8699 21.3616 21.5246C21.7483 21.1793 21.984 20.7059 22.021 20.2001L22.9168 8.06006ZM14.5835 2.06006H10.4168C9.58803 2.06006 8.79317 2.37613 8.20712 2.93874C7.62107 3.50135 7.29183 4.26441 7.29183 5.06006V6.06006H9.37516V5.06006C9.37516 4.79484 9.48491 4.54049 9.68026 4.35295C9.87561 4.16542 10.1406 4.06006 10.4168 4.06006H14.5835C14.8598 4.06006 15.1247 4.16542 15.3201 4.35295C15.5154 4.54049 15.6252 4.79484 15.6252 5.06006V6.06006H17.7085V5.06006C17.7085 4.26441 17.3793 3.50135 16.7932 2.93874C16.2072 2.37613 15.4123 2.06006 14.5835 2.06006Z" fill="#0F1621"/>
</svg>
