<svg width="24" height="24" viewBox="0 0 24 24" fill="none" xmlns="http://www.w3.org/2000/svg">
<path d="M19.14 22H4.86C4.35296 22.0012 3.86436 21.8099 3.49307 21.4646C3.12177 21.1192 2.89549 20.6458 2.86 20.14L2 8H22L21.13 20.14C21.0946 20.6441 20.8698 21.1161 20.5006 21.4611C20.1314 21.8062 19.6453 21.9987 19.14 22ZM17 5V6H15V5C15 4.73478 14.8946 4.48043 14.7071 4.29289C14.5196 4.10536 14.2652 4 14 4H10C9.73478 4 9.48043 4.10536 9.29289 4.29289C9.10536 4.48043 9 4.73478 9 5V6H7V5C7 4.20435 7.31607 3.44129 7.87868 2.87868C8.44129 2.31607 9.20435 2 10 2H14C14.7956 2 15.5587 2.31607 16.1213 2.87868C16.6839 3.44129 17 4.20435 17 5Z" fill="#0F1621"/>
</svg>
