<svg width="25" height="25" viewBox="0 0 25 25" fill="none" xmlns="http://www.w3.org/2000/svg">
<path d="M20.6771 10.0601L19.9375 20.0601H5.06254L4.32296 10.0601H20.6771ZM22.9167 8.06006H2.08337L2.98962 20.2001C3.02659 20.7059 3.2623 21.1793 3.64907 21.5246C4.03584 21.8699 4.54479 22.0613 5.07296 22.0601H19.9375C20.4657 22.0613 20.9747 21.8699 21.3614 21.5246C21.7482 21.1793 21.9839 20.7059 22.0209 20.2001L22.9167 8.06006ZM14.5834 2.06006H10.4167C9.58791 2.06006 8.79305 2.37613 8.207 2.93874C7.62095 3.50135 7.29171 4.26441 7.29171 5.06006V6.06006H9.37504V5.06006C9.37504 4.79484 9.48479 4.54049 9.68014 4.35295C9.87549 4.16542 10.1404 4.06006 10.4167 4.06006H14.5834C14.8596 4.06006 15.1246 4.16542 15.3199 4.35295C15.5153 4.54049 15.625 4.79484 15.625 5.06006V6.06006H17.7084V5.06006C17.7084 4.26441 17.3791 3.50135 16.7931 2.93874C16.207 2.37613 15.4122 2.06006 14.5834 2.06006V2.06006Z" fill="#0F1621"/>
</svg>
