<svg xmlns="http://www.w3.org/2000/svg" viewBox="0 0 24 24"><defs><style>.cls-1{fill:none;}</style></defs><g id="Layer_2" data-name="Layer 2"><g id="System_POI_Solid" data-name="System POI Solid"><g id="sport-ski-run"><rect class="cls-1" width="24" height="24"/><path d="M20.62,6.84l1-1.75a2,2,0,1,0-3.51-1.93l-1,1.76ZM18.36,19.28a1,1,0,0,1-1.36.4l-5.26-2.89,2.17-1.13A2,2,0,0,0,15,14l0-1.08-4.38-2.41,1.67,3.2-3.2,1.67L3,12,2,13.73l14,7.7a2.93,2.93,0,0,0,4.07-1.18Zm2.09-8L17,9.38l1-1.75L14.4,5.71l-2.71.79L6.43,3.61l-1,1.75,14,7.7Z"/></g></g></g></svg>