<svg xmlns="http://www.w3.org/2000/svg" viewBox="0 0 24 24"><g id="Layer_2" data-name="Layer 2"><g id="UI_POI_Solid" data-name="UI POI Solid"><g id="sport-fitness"><rect width="24" height="24" style="fill:none"/><path d="M21.71,11.57,18.17,15.1l-3.93-3.93-3.05,3.05,3.94,3.93-3.54,3.54a1,1,0,0,1-1.41,0L8.49,20l-.7.7a1,1,0,0,1-1.42,0l-.83-.83L4,21.42,2.58,20l1.54-1.54-.83-.83a1,1,0,0,1,0-1.42l.7-.7L2.32,13.83a1,1,0,0,1,0-1.41L5.85,8.88l3.93,3.93,3.05-3.05L8.9,5.83l3.53-3.54a1,1,0,0,1,1.42,0L15.53,4l.71-.71a1,1,0,0,1,1.41,0l.83.83L20,2.59,21.41,4,19.9,5.51l.84.84a1,1,0,0,1,0,1.42L20,8.48l1.68,1.67A1,1,0,0,1,21.71,11.57Z"/></g></g></g></svg>