<svg width="24" height="24" viewBox="0 0 24 24" fill="none" xmlns="http://www.w3.org/2000/svg">
<path d="M22 8V20C22 20.5304 21.7893 21.0391 21.4142 21.4142C21.0391 21.7893 20.5304 22 20 22H14V20C14 19.4696 13.7893 18.9609 13.4142 18.5858C13.0391 18.2107 12.5304 18 12 18C11.4696 18 10.9609 18.2107 10.5858 18.5858C10.2107 18.9609 10 19.4696 10 20V22H4C3.46957 22 2.96086 21.7893 2.58579 21.4142C2.21071 21.0391 2 20.5304 2 20V8L8 14H16L22 8ZM20 4L22 3L20 2H18V6H13V4L15 3L13 2H11V6H6V4L8 3L6 2H4V6H2L4 8H20L22 6H20V4ZM6 10L8 12H15.88L18 10H6Z" fill="#0F1621"/>
</svg>
