<svg width="24" height="25" viewBox="0 0 24 25" fill="none" xmlns="http://www.w3.org/2000/svg">
<path d="M16 14.0601H8L2 8.06006V20.0601C2 20.5905 2.21071 21.0992 2.58579 21.4743C2.96086 21.8493 3.46957 22.0601 4 22.0601H8V20.0601H4V12.8901L6.59 15.4701L7.17 16.0601H16.83L17.41 15.4701L20 12.8901V20.0601H16V22.0601H20C20.5304 22.0601 21.0391 21.8493 21.4142 21.4743C21.7893 21.0992 22 20.5905 22 20.0601V8.06006L16 14.0601ZM20 6.06006H22L20 8.06006H4L2 6.06006H4V2.06006H6L8 3.06006L6 4.06006V6.06006H11V2.06006H13L15 3.06006L13 4.06006V6.06006H18V2.06006H20L22 3.06006L20 4.06006V6.06006ZM14 22.0601H10V20.0601C10 19.5296 10.2107 19.0209 10.5858 18.6458C10.9609 18.2708 11.4696 18.0601 12 18.0601C12.5304 18.0601 13.0391 18.2708 13.4142 18.6458C13.7893 19.0209 14 19.5296 14 20.0601V22.0601ZM18 10.0601L15.88 12.0601H8L6 10.0601H18Z" fill="#0F1621"/>
</svg>
