<svg xmlns="http://www.w3.org/2000/svg" viewBox="0 0 24 24"><g id="Layer_2" data-name="Layer 2"><g id="UI_POI_Outline" data-name="UI POI Outline"><g id="swimming"><rect width="24" height="24" style="fill:none"/><path d="M20,19.89a6,6,0,0,0-8,0,6,6,0,0,0-8,0A5.87,5.87,0,0,0,2,18.7v2.19a4.58,4.58,0,0,1,.75.56,1.7,1.7,0,0,0,2.5,0,4,4,0,0,1,5.5,0,1.7,1.7,0,0,0,2.5,0,4,4,0,0,1,5.5,0,1.7,1.7,0,0,0,2.5,0,4.58,4.58,0,0,1,.75-.56V18.7A5.87,5.87,0,0,0,20,19.89ZM9,8V9.51L6.56,13H6a2,2,0,0,1-2-2V8A2,2,0,0,1,6,6H7A2,2,0,0,1,9,8Zm6.1,3.1a2,2,0,0,1-.31-2.44l3.07-5.15A1,1,0,0,0,17,2H7V4h8L6.21,16.56A7.62,7.62,0,0,1,8,16.35a6.34,6.34,0,0,1,.76,0l3.91-5.58a4,4,0,0,0,1,1.7l4,4a7.71,7.71,0,0,1,2.28.88A5.74,5.74,0,0,1,21,17Z"/></g></g></g></svg>