<svg width="24" height="25" viewBox="0 0 24 25" fill="none" xmlns="http://www.w3.org/2000/svg">
<path d="M20 4.06006V13.0601C20 14.9166 19.2625 16.6971 17.9497 18.0098C16.637 19.3226 14.8565 20.0601 13 20.0601H11C9.14348 20.0601 7.36301 19.3226 6.05025 18.0098C4.7375 16.6971 4 14.9166 4 13.0601V4.06006H20ZM22 2.06006H2V13.0601C2 15.447 2.94821 17.7362 4.63604 19.424C6.32387 21.1118 8.61305 22.0601 11 22.0601H13C15.3869 22.0601 17.6761 21.1118 19.364 19.424C21.0518 17.7362 22 15.447 22 13.0601V2.06006ZM16 7.06006C15.458 7.07318 14.9433 7.30044 14.5685 7.69213C14.1937 8.08382 13.9893 8.60803 14 9.15006C14 11.2401 14.9 9.07006 16 9.07006C17.1 9.07006 18 11.2401 18 9.15006C18.0107 8.60803 17.8063 8.08382 17.4315 7.69213C17.0567 7.30044 16.542 7.07318 16 7.06006V7.06006ZM8 7.06006C7.45802 7.07318 6.94331 7.30044 6.56849 7.69213C6.19367 8.08382 5.98926 8.60803 6 9.15006C6 11.2401 6.9 9.06006 8 9.06006C9.1 9.06006 10 11.2301 10 9.14006C10.0081 8.59975 9.80247 8.0781 9.42794 7.68858C9.0534 7.29906 8.54021 7.07318 8 7.06006V7.06006ZM6 13.0601C6 16.3701 8.69 18.0601 12 18.0601C15.31 18.0601 18 16.3701 18 13.0601H6Z" fill="#0F1621"/>
</svg>
