<svg xmlns="http://www.w3.org/2000/svg" viewBox="0 0 24 24"><defs><style>.cls-1{fill:none;}</style></defs><g id="Layer_2" data-name="Layer 2"><g id="System_POI_Outline" data-name="System POI Outline"><g id="toll-booth"><rect class="cls-1" width="24" height="24"/><path d="M22,18v2a2,2,0,0,1-2,2H4a2,2,0,0,1-2-2V18a2,2,0,0,1,2-2H5v2H4v2H20V18H19V16h1A2,2,0,0,1,22,18ZM5,12a7,7,0,0,1,5.76-6.88,6,6,0,1,1,8.13,8.14h0A7,7,0,0,1,5,12Zm8.24-6.88a7,7,0,0,1,5.64,5.63A3.94,3.94,0,0,0,20,8a4,4,0,0,0-6.76-2.88ZM7,12a5,5,0,1,0,5-5A5,5,0,0,0,7,12Zm4,3h2V9H11l-1,2h1Z"/></g></g></g></svg>