<svg xmlns="http://www.w3.org/2000/svg" viewBox="0 0 24 24"><g id="Layer_2" data-name="Layer 2"><g id="UI_POI_Outline" data-name="UI POI Outline"><g id="transport-ferry"><rect width="24" height="24" style="fill:none"/><path d="M17,6V8.94L12.39,8,12,7.94,11.61,8,7,8.94V6H17M15,2H13V4H7A2,2,0,0,0,5,6v5.38L6.9,11,12,10l5.1,1,1.9.38V6a2,2,0,0,0-2-2H15V2ZM12,14.06l6.51,1.48-.62,2.94A6.09,6.09,0,0,0,15.5,18,6,6,0,0,0,12,19.1,6,6,0,0,0,8.5,18a6.09,6.09,0,0,0-2.39.48l-.62-2.94L12,14.06M12,12,3,14l2,8a4,4,0,0,1,3.5-2A4,4,0,0,1,12,22a4.06,4.06,0,0,1,7,0l2-8Z"/></g></g></g></svg>