<svg xmlns="http://www.w3.org/2000/svg" viewBox="0 0 24 24"><defs><style>.cls-1{fill:none;}</style></defs><g id="Layer_2" data-name="Layer 2"><g id="System_POI_Outline" data-name="System POI Outline"><g id="transport-taxi"><rect class="cls-1" width="24" height="24"/><path d="M16.93,10h0l2.33,3.18.71,1V19H18V17H6v2H4V14.16l.71-1L7,10h9.89m0-2H7.07a2,2,0,0,0-1.66.82L4.55,10H2v2H3.1l-.77,1.06a1.64,1.64,0,0,0-.33,1V19a2,2,0,0,0,2,2H7a1,1,0,0,0,1-1V19h8v1a1,1,0,0,0,1,1h3a2,2,0,0,0,2-2V14.06a1.64,1.64,0,0,0-.33-1L20.9,12H22V10H19.45l-.86-1.18A2,2,0,0,0,16.93,8Zm-.43,5h-9L6,15H18ZM15,4H9V6h6Z"/></g></g></g></svg>