<svg width="16" height="16" viewBox="0 0 16 16" fill="none" xmlns="http://www.w3.org/2000/svg">
<path d="M2.7135 14.6666H1.3335V6.93331C1.3335 3.45331 4.32683 1.33331 8.00016 1.33331C11.6735 1.33331 14.6668 3.45331 14.6668 6.93331V14.6666H13.2868L12.6668 14.12V7.05331C12.6668 4.57331 10.3202 3.45998 8.00016 3.45998C5.68016 3.45998 3.3335 4.57331 3.3335 7.05331V14.12L2.7135 14.6666ZM8.00016 5.99998C6.52683 5.99998 5.3335 6.89998 5.3335 8.37331V12.3733L6.66683 11.1933V8.39331C6.66683 7.37998 7.78016 7.33331 8.00016 7.33331C8.22016 7.33331 9.3335 7.37998 9.3335 8.37331V11.1733L10.6668 12.3533V8.35331C10.6668 6.89998 9.4735 5.99998 8.00016 5.99998Z" fill="#0F1621"/>
</svg>
