<svg xmlns="http://www.w3.org/2000/svg" viewBox="0 0 24 24"><g id="Layer_2" data-name="Layer 2"><g id="UI_POI_Solid" data-name="UI POI Solid"><g id="underground-train-subway"><rect width="24" height="24" style="fill:none"/><path d="M16,22H8V20h8Zm2-10v4a2.07,2.07,0,0,1-2,2H8a2,2,0,0,1-2-2V12a6,6,0,0,1,12,0ZM8,12h8a4,4,0,0,0-8,0Zm2,2H8v2h2Zm6,0H14v2h2Zm6-2a9.72,9.72,0,0,1-.3,2.42l-1.94-.48A7.75,7.75,0,0,0,20,12,8,8,0,0,0,4,12a7.75,7.75,0,0,0,.24,1.94l-1.94.48A9.72,9.72,0,0,1,2,12a10,10,0,0,1,20,0Z"/></g></g></g></svg>