<svg width="24" height="24" viewBox="0 0 24 24" fill="none" xmlns="http://www.w3.org/2000/svg">
<path d="M4.07 22.0001H2V10.4001C2 5.18006 6.49 2.00006 12 2.00006C17.51 2.00006 22 5.18006 22 10.4001V22.0001H19.93L19 21.1801V10.5801C19 6.86006 15.48 5.19006 12 5.19006C8.52 5.19006 5 6.86006 5 10.5801V21.1801L4.07 22.0001ZM12 9.00006C9.79 9.00006 8 10.3501 8 12.5601V18.5601L10 16.7901V12.5901C10 11.0701 11.67 11.0001 12 11.0001C12.33 11.0001 14 11.0701 14 12.5601V16.7601L16 18.5301V12.5301C16 10.3501 14.21 9.00006 12 9.00006Z" fill="#0F1621"/>
</svg>
