<svg xmlns="http://www.w3.org/2000/svg" viewBox="0 0 24 24"><defs><style>.cls-1{fill:none;}</style></defs><g id="Layer_2" data-name="Layer 2"><g id="System_POI_Solid" data-name="System POI Solid"><g id="automotive-wash-car"><rect class="cls-1" width="24" height="24"/><path d="M22,4H18V7H16V4H13V7H11V4H8V7H6V4H2A2,2,0,0,1,4,2H20A2,2,0,0,1,22,4ZM4,6H2V8H4ZM22,6H20V8h2Zm0,7H20.9l.77,1.06a1.64,1.64,0,0,1,.33,1V20a2,2,0,0,1-2,2H17a1,1,0,0,1-1-1V20H8v1a1,1,0,0,1-1,1H4a2,2,0,0,1-2-2V15.06a1.64,1.64,0,0,1,.33-1L3.1,13H2V11H4.55l.86-1.18A2,2,0,0,1,7.07,9h9.86a2,2,0,0,1,1.66.82L19.45,11H22ZM8,16H4v2H8Zm11-2-1.7-2.55a1,1,0,0,0-.84-.45H7.54a1,1,0,0,0-.84.45L5,14Zm1,2H16v2h4Z"/></g></g></g></svg>