<svg xmlns="http://www.w3.org/2000/svg" width="24" height="24" viewBox="0 0 24 24"><rect width="24" height="24" style="fill:none"/><path d="M21.11,18.93c.37-.36.52-.48.89-.48v2.37a4.94,4.94,0,0,1-6.34,0A4.81,4.81,0,0,1,12.49,22a4.75,4.75,0,0,1-3.16-1.15A4.81,4.81,0,0,1,6.16,22,4.8,4.8,0,0,1,3,20.82V18.45c.37,0,.52.12.89.48a3,3,0,0,0,4.55,0c.37-.36.52-.48.89-.48s.51.12.89.48a3,3,0,0,0,4.55,0c.37-.36.52-.48.89-.48s.52.12.89.48a3,3,0,0,0,2.28,1A3.09,3.09,0,0,0,21.11,18.93ZM22,13.45v2c-.37,0-.52.12-.89.48a3.09,3.09,0,0,1-2.28,1,3,3,0,0,1-2.28-1c-.37-.36-.52-.48-.89-.48s-.52.12-.89.48a3,3,0,0,1-4.55,0c-.38-.36-.52-.48-.89-.48s-.52.12-.89.48a3,3,0,0,1-4.55,0c-.37-.36-.52-.48-.89-.48v-2a3.08,3.08,0,0,1,2.27,1c.38.36.52.48.89.48s.52-.12.89-.48a4.14,4.14,0,0,1,1-.73V6A2,2,0,0,0,6,4H5V2l8,0a4,4,0,0,1,4,4v7.77a4.17,4.17,0,0,1,.93.72c.38.36.53.48.9.48s.52-.12.89-.48A3.08,3.08,0,0,1,22,13.45ZM15,6a2,2,0,0,0-2-2H9l.41.41A2,2,0,0,1,10,5.83v7.93l.22.2a3,3,0,0,0,4.55,0l.23-.21Z"/></svg>