<svg width="24" height="24" viewBox="0 0 24 24" fill="none" xmlns="http://www.w3.org/2000/svg">
<path d="M21.11 18.93C21.48 18.57 21.63 18.45 22 18.45V20.82C21.1111 21.5637 19.989 21.9712 18.83 21.9712C17.671 21.9712 16.5489 21.5637 15.66 20.82C14.781 21.5842 13.6547 22.0034 12.49 22C11.3317 22.0148 10.2079 21.6058 9.33 20.85C8.44673 21.6033 7.32082 22.0118 6.16 22C4.9986 22.0019 3.87589 21.5827 3 20.82V18.45C3.37 18.45 3.52 18.57 3.89 18.93C4.17164 19.2576 4.52072 19.5206 4.91336 19.7008C5.30601 19.8811 5.73296 19.9744 6.165 19.9744C6.59704 19.9744 7.02399 19.8811 7.41664 19.7008C7.80928 19.5206 8.15836 19.2576 8.44 18.93C8.81 18.57 8.96 18.45 9.33 18.45C9.7 18.45 9.84 18.57 10.22 18.93C10.5016 19.2576 10.8507 19.5206 11.2434 19.7008C11.636 19.8811 12.063 19.9744 12.495 19.9744C12.927 19.9744 13.354 19.8811 13.7466 19.7008C14.1393 19.5206 14.4884 19.2576 14.77 18.93C15.14 18.57 15.29 18.45 15.66 18.45C16.03 18.45 16.18 18.57 16.55 18.93C16.8363 19.2502 17.188 19.5052 17.5814 19.6777C17.9747 19.8502 18.4005 19.9362 18.83 19.93C19.2586 19.9306 19.6827 19.8419 20.0752 19.6698C20.4677 19.4976 20.8201 19.2457 21.11 18.93ZM22 13.45V15.45C21.63 15.45 21.48 15.57 21.11 15.93C20.8201 16.2457 20.4677 16.4976 20.0752 16.6698C19.6827 16.8419 19.2586 16.9306 18.83 16.93C18.4005 16.9362 17.9747 16.8502 17.5814 16.6777C17.188 16.5052 16.8363 16.2502 16.55 15.93C16.18 15.57 16.03 15.45 15.66 15.45C15.29 15.45 15.14 15.57 14.77 15.93C14.4884 16.2576 14.1393 16.5206 13.7466 16.7008C13.354 16.8811 12.927 16.9744 12.495 16.9744C12.063 16.9744 11.636 16.8811 11.2434 16.7008C10.8507 16.5206 10.5016 16.2576 10.22 15.93C9.84 15.57 9.7 15.45 9.33 15.45C8.96 15.45 8.81 15.57 8.44 15.93C8.15836 16.2576 7.80928 16.5206 7.41664 16.7008C7.02399 16.8811 6.59704 16.9744 6.165 16.9744C5.73296 16.9744 5.30601 16.8811 4.91336 16.7008C4.52072 16.5206 4.17164 16.2576 3.89 15.93C3.52 15.57 3.37 15.45 3 15.45V13.45C3.42702 13.4502 3.84934 13.5392 4.24012 13.7114C4.6309 13.8835 4.98162 14.1351 5.27 14.45C5.65 14.81 5.79 14.93 6.16 14.93C6.53 14.93 6.68 14.81 7.05 14.45C7.34486 14.1579 7.68196 13.9118 8.05 13.72V6C8.05008 5.7331 7.99674 5.46887 7.89312 5.22291C7.7895 4.97694 7.63769 4.7542 7.44665 4.56781C7.2556 4.38143 7.02918 4.23516 6.78073 4.13765C6.53228 4.04013 6.26682 3.99333 6 4H5V2H13C14.0609 2 15.0783 2.42143 15.8284 3.17157C16.5786 3.92172 17 4.93913 17 6V13.77C17.3425 13.9649 17.6556 14.2073 17.93 14.49C18.31 14.85 18.46 14.97 18.83 14.97C19.2 14.97 19.35 14.85 19.72 14.49C20.0059 14.1665 20.3567 13.9068 20.7494 13.7276C21.1422 13.5485 21.5683 13.4539 22 13.45ZM15 6C15 5.46957 14.7893 4.96086 14.4142 4.58579C14.0391 4.21071 13.5304 4 13 4H9L9.41 4.41C9.59717 4.59606 9.74566 4.81732 9.84692 5.06103C9.94818 5.30474 10.0002 5.56609 10 5.83V13.76L10.22 13.96C10.5016 14.2876 10.8507 14.5506 11.2434 14.7308C11.636 14.9111 12.063 15.0044 12.495 15.0044C12.927 15.0044 13.354 14.9111 13.7466 14.7308C14.1393 14.5506 14.4884 14.2876 14.77 13.96L15 13.75V6Z" fill="#0F1621"/>
</svg>
