<svg xmlns="http://www.w3.org/2000/svg" width="16" height="16" viewBox="0 0 16 16"><rect width="16" height="16" style="fill:none"/><path d="M15,8.41V9.88c-.27,0-.38.09-.66.36a2.29,2.29,0,0,1-1.68.76A2.25,2.25,0,0,1,11,10.24c-.28-.27-.39-.36-.66-.36s-.38.09-.66.35a2.22,2.22,0,0,1-3.35,0C6,10,5.93,9.88,5.66,9.88s-.38.09-.65.35A2.26,2.26,0,0,1,3.33,11a2.26,2.26,0,0,1-1.68-.77C1.38,10,1.27,9.88,1,9.88V8.41a2.29,2.29,0,0,1,1.68.76c.27.27.38.36.65.36s.38-.09.66-.36a2.72,2.72,0,0,1,1-.66V3A1,1,0,0,0,4,2H3V1H8a4,4,0,0,1,4,4V9.17h0c.28.26.39.36.66.36s.39-.09.66-.36A2.29,2.29,0,0,1,15,8.41Zm0,5.06V12c-.27,0-.38.09-.66.36a2.29,2.29,0,0,1-1.68.76A2.25,2.25,0,0,1,11,12.36c-.28-.27-.39-.36-.66-.36s-.38.09-.66.35A2.26,2.26,0,0,1,8,13.12a2.22,2.22,0,0,1-1.67-.77C6,12.09,5.93,12,5.66,12s-.38.09-.65.35a2.26,2.26,0,0,1-1.68.77,2.26,2.26,0,0,1-1.68-.77C1.38,12.09,1.27,12,1,12v1.75a3.52,3.52,0,0,0,2.33.84,3.52,3.52,0,0,0,2.33-.84A3.54,3.54,0,0,0,8,14.59a3.61,3.61,0,0,0,2.34-.84,3.58,3.58,0,0,0,2.33.84A3.53,3.53,0,0,0,15,13.74Z"/></svg>