<svg width="16" height="16" viewBox="0 0 16 16" fill="none" xmlns="http://www.w3.org/2000/svg">
<path d="M14.6668 5.16665C14.6677 4.663 14.5692 4.16414 14.3768 3.69866C14.1845 3.23318 13.9022 2.81025 13.546 2.45412C13.1899 2.09798 12.767 1.81566 12.3015 1.62333C11.836 1.43099 11.3371 1.33244 10.8335 1.33332H9.08016C9.58065 1.7998 9.97979 2.36428 10.2528 2.99164C10.5257 3.619 10.6667 4.29581 10.6668 4.97999V7.99999H9.3335V4.97999C9.3335 3.08665 8.00016 1.33332 6.06016 1.33332H5.00016C4.02824 1.33508 3.09664 1.72196 2.40938 2.40921C1.72213 3.09646 1.33526 4.02807 1.3335 4.99999C1.3335 5.51999 1.3335 11 1.3335 11C1.33875 11.9708 1.72674 12.9004 2.41324 13.5869C3.09974 14.2734 4.02932 14.6614 5.00016 14.6667H5.3335V12.6667C4.95142 12.6615 4.5824 12.5268 4.28688 12.2846C3.99136 12.0424 3.78684 11.707 3.70683 11.3333C3.65683 11.1183 3.65023 10.8954 3.68742 10.6778C3.72461 10.4601 3.80484 10.2521 3.92341 10.0659C4.04199 9.87962 4.19653 9.7189 4.37798 9.59312C4.55943 9.46733 4.76416 9.37901 4.98016 9.33332L6.66683 8.99999V14.6667H9.3335V11.3333L12.0002 11.6867V14.6667H14.3335L14.6668 5.33332V5.16665ZM4.3335 6.66665C4.13571 6.66665 3.94237 6.608 3.77793 6.49812C3.61348 6.38824 3.4853 6.23206 3.40962 6.04934C3.33393 5.86661 3.31413 5.66554 3.35271 5.47156C3.3913 5.27758 3.48654 5.0994 3.62639 4.95955C3.76624 4.81969 3.94442 4.72445 4.13841 4.68587C4.33239 4.64728 4.53345 4.66708 4.71618 4.74277C4.89891 4.81846 5.05508 4.94663 5.16497 5.11108C5.27485 5.27553 5.3335 5.46887 5.3335 5.66665C5.3335 5.93187 5.22814 6.18622 5.0406 6.37376C4.85307 6.5613 4.59871 6.66665 4.3335 6.66665Z" fill="#0F1621"/>
</svg>
