<svg width="24" height="25" viewBox="0 0 24 25" fill="none" xmlns="http://www.w3.org/2000/svg">
<path d="M8 9.06006C8 9.25784 7.94135 9.45118 7.83147 9.61563C7.72159 9.78008 7.56541 9.90825 7.38268 9.98394C7.19996 10.0596 6.99889 10.0794 6.80491 10.0408C6.61093 10.0023 6.43275 9.90702 6.29289 9.76717C6.15304 9.62731 6.0578 9.44913 6.01921 9.25515C5.98063 9.06117 6.00043 8.8601 6.07612 8.67737C6.15181 8.49465 6.27998 8.33847 6.44443 8.22859C6.60888 8.11871 6.80222 8.06006 7 8.06006C7.26522 8.06006 7.51957 8.16542 7.70711 8.35295C7.89464 8.54049 8 8.79484 8 9.06006ZM14 2.06006H9C7.14348 2.06006 5.36301 2.79756 4.05025 4.11031C2.7375 5.42307 2 7.20354 2 9.06006V10.2401C2.01471 11.1502 2.37175 12.0214 3 12.6801C3.62187 13.3187 3.97912 14.1689 4 15.0601V17.0601C4 17.3253 3.89464 17.5796 3.70711 17.7672C3.51957 17.9547 3.26522 18.0601 3 18.0601H2V20.0601H4C4.53043 20.0601 5.03914 19.8493 5.41421 19.4743C5.78929 19.0992 6 18.5905 6 18.0601V14.9001C5.95516 13.5261 5.39464 12.2194 4.43 11.2401C4.16568 10.9729 4.01209 10.6157 4 10.2401V9.06006C4 7.73398 4.52678 6.46221 5.46447 5.52452C6.40215 4.58684 7.67392 4.06006 9 4.06006H12.46C12.8125 4.66774 12.9988 5.35754 13 6.06006V10.0601H15V6.06006C15.0042 5.3795 14.8926 4.70318 14.67 4.06006C16.1425 4.22549 17.5017 4.92996 18.4858 6.03776C19.4699 7.14555 20.0093 8.57831 20 10.0601V20.0601H18V15.0601H12V20.0601H10V15.0601H8V20.0601C8 20.5905 8.21071 21.0992 8.58579 21.4743C8.96086 21.8493 9.46957 22.0601 10 22.0601H14V17.0601H16V20.0601C16 20.5905 16.2107 21.0992 16.5858 21.4743C16.9609 21.8493 17.4696 22.0601 18 22.0601H22V10.0601C22 7.93833 21.1571 5.9035 19.6569 4.4032C18.1566 2.90291 16.1217 2.06006 14 2.06006Z" fill="#0F1621"/>
</svg>
