<svg xmlns="http://www.w3.org/2000/svg" width="96" height="96" viewBox="0 0 96 96">
  <g fill="none" fill-rule="evenodd" transform="translate(6 6)">
    <path fill="#FFF" d="M42,0 C65.1959595,0 84,18.8040405 84,42 C84,65.1959595 65.1959595,84 42,84 C18.8040405,84 0,65.1959595 0,42 C0,18.8040405 18.8040405,0 42,0 Z"/>
    <path fill="#0F1621" d="M42,2 C47.3968493,2 52.5440671,3.06879984 57.2415333,5.00627959 L57.8263597,5.25297445 C58.0824442,5.36341383 58.3371452,5.47645176 58.5904294,5.59205504 L59.2560135,5.90329469 L59.2560135,5.90329469 L60.0207276,6.27963575 L60.0207276,6.27963575 L60.6948551,6.62849672 L60.6948551,6.62849672 C61.8678958,7.24972677 63.0072685,7.92822588 64.1083207,8.65981166 L64.6047266,8.99501927 L64.6047266,8.99501927 L65.1914223,9.40536332 L65.1914223,9.40536332 L65.7284178,9.79486293 L65.7284178,9.79486293 L65.9428623,9.95423217 C66.1952583,10.1431179 66.444941,10.3345954 66.6922762,10.5289256 C67.5341405,11.1903672 68.3489148,11.8849624 69.1345502,12.6106824 L69.7182812,13.1607767 L70.2720413,13.7035041 L70.2720413,13.7035041 L70.8995728,14.3446296 L70.8995728,14.3446296 L71.3847655,14.8605229 L71.3847655,14.8605229 L71.8022442,15.3193635 L71.8022442,15.3193635 C72.8467564,16.4852907 73.8238514,17.7128688 74.7273997,18.9959684 L75.2381883,19.7389277 L75.2381883,19.7389277 L75.650792,20.3664031 L75.650792,20.3664031 C76.3852713,21.5065425 77.0632678,22.6861726 77.6809689,23.9015487 L78.0684822,24.6851774 C78.1719358,24.9002897 78.2735217,25.11647 78.3732188,25.3336972 L78.0442428,24.6348666 L78.2424476,25.0516742 L78.2424476,25.0516742 L78.5544829,25.734477 L78.5544829,25.734477 L78.7699347,26.2268683 L78.7699347,26.2268683 C80.8487079,31.0664012 82,36.3987512 82,42 C82,64.09139 64.09139,82 42,82 C37.1111294,82 32.4271088,81.1229328 28.0967013,79.5175614 L27.5927354,79.3268316 C27.303253,79.2150236 27.0153975,79.0999452 26.7292141,78.9816415 L25.9989323,78.671184 L25.9989323,78.671184 L25.3335085,78.3731322 L25.3335085,78.3731322 L25.0086206,78.2222483 L25.0086206,78.2222483 L24.6348666,78.0442428 L24.6348666,78.0442428 C23.5473427,77.5193491 22.48704,76.9465911 21.4568503,76.3287741 L20.967538,76.0305409 L20.9814828,76.0391738 C20.7304538,75.8838386 20.4812713,75.7258041 20.2339757,75.5651108 L19.6418406,75.1728302 L19.6418406,75.1728302 L19.0351068,74.7549257 L19.0351068,74.7549257 C17.9541375,73.9956523 16.9123452,73.1841232 15.9134924,72.3240695 L15.3193635,71.8022442 L15.0080467,71.5204046 L15.0080467,71.5204046 L14.5217022,71.0680414 L14.5217022,71.0680414 L14.1842811,70.7452339 L14.1842811,70.7452339 L13.7035213,70.272058 L13.7035213,70.272058 L13.1607767,69.7182812 L13.1607767,69.7182812 C12.4196211,68.9473433 11.709083,68.1467543 11.0311184,67.3184701 L10.5289256,66.6922762 C10.3438126,66.4566723 10.1612882,66.2189383 9.9813953,65.979117 L9.56297861,65.4109781 L9.56297861,65.4109781 L9.10191581,64.7597249 L9.10191581,64.7597249 L8.65981166,64.1083207 C8.07454303,63.2274789 7.52324988,62.3221121 7.00780264,61.3940906 L6.62849672,60.6948551 C6.49170347,60.4365723 6.35765635,60.1766115 6.22639425,59.9150117 L5.90332287,59.2560718 L5.90332287,59.2560718 L5.53312078,58.4606912 L5.53312078,58.4606912 L5.25297445,57.8263597 L5.25297445,57.8263597 C3.15972205,52.9725685 2,47.6217181 2,42 C2,19.90861 19.90861,2 42,2 Z M76.9873039,29.9320963 L29.9320963,76.9873039 C33.7144556,78.2916819 37.7745095,79 42,79 C62.4345357,79 79,62.4345357 79,42 C79,37.7745095 78.2916819,33.7144556 76.9873039,29.9320963 Z M73.8544339,23.1658723 L23.1658723,73.8544339 C24.3665972,74.5659018 25.611012,75.2114125 26.8941262,75.7859757 L75.7859757,26.8941262 C75.2114125,25.611012 74.5659018,24.3665972 73.8544339,23.1658723 Z M69.6772821,17.4439798 L17.4439798,69.6772821 C18.4467957,70.5676586 19.4983377,71.4043637 20.5941021,72.1828937 L72.1828937,20.5941021 C71.4043637,19.4983377 70.5676586,18.4467957 69.6772821,17.4439798 Z M64.5539895,12.6665117 L12.6665117,64.5539895 C13.4835473,65.6150387 14.3568639,66.6305109 15.2819933,67.595938 L67.595938,15.2819933 C66.8235964,14.5418898 66.0192258,13.8349465 65.1851141,13.1634511 L64.5539895,12.6665117 Z M58.4663381,8.85691451 L8.85691451,58.4663381 C9.47524209,59.7084956 10.1613451,60.9109833 10.9103829,62.0689603 L62.0689603,10.9103829 C61.1425787,10.3111527 60.1877103,9.75220069 59.2068335,9.23600539 L58.4663381,8.85691451 Z M42,5 C21.5654643,5 5,21.5654643 5,42 C5,46.7745274 5.90434645,51.3378333 7.55109074,55.5279692 L55.5279692,7.55109074 C51.3378333,5.90434645 46.7745274,5 42,5 Z"/>
  </g>
</svg>
