<svg xmlns="http://www.w3.org/2000/svg" width="96" height="96" viewBox="0 0 96 96">
  <g fill="none" fill-rule="evenodd" transform="translate(10 2)">
    <path fill="#FFF" d="M66,0 C71.4292399,0 75.8479317,4.32667079 75.9961582,9.72009516 L76,10 L76,82 C76,87.4292399 71.6733292,91.8479317 66.2799048,91.9961582 L66,92 L10,92 C4.57076009,92 0.152068282,87.6733292 0.00384179753,82.2799048 L0,82 L0,10 C0,4.57076009 4.32667079,0.152068282 9.72009516,0.00384179753 L10,0 L66,0 Z"/>
    <path fill="#0F1621" d="M66,2 C70.418278,2 74,5.581722 74,10 L74,82 C74,86.418278 70.418278,90 66,90 L10,90 C5.581722,90 2,86.418278 2,82 L2,10 C2,5.581722 5.581722,2 10,2 L66,2 Z M66,5 L10,5 C7.3112453,5 5.11818189,7.12230671 5.00461951,9.78311038 L5,10 L5,82 C5,84.6887547 7.12230671,86.8818181 9.78311038,86.9953805 L10,87 L66,87 C68.6887547,87 70.8818181,84.8776933 70.9953805,82.2168896 L71,82 L71,10 C71,7.3112453 68.8776933,5.11818189 66.2168896,5.00461951 L66,5 Z M16.077,21.192 L16.077,34.524 L22.303,34.524 L22.061,36.35 L13.987,36.35 L13.987,21.192 L16.077,21.192 Z M27.033,21.192 L27.033,36.35 L24.943,36.35 L24.943,21.192 L27.033,21.192 Z M34.667,21.192 L37.857,32.214 L40.893,21.192 L43.731,21.192 L44.985,36.35 L42.961,36.35 L42.433,29.508 L42.3428478,28.3751652 C42.1992336,26.4845091 42.0917033,24.6292153 42.0635578,23.5345718 L42.059,23.326 L38.781,34.634 L36.823,34.634 L33.369,23.304 L33.360037,24.2394074 C33.3364074,25.5414815 33.2671481,27.0456296 33.1652963,28.5432593 L33.083,29.662 L32.577,36.35 L30.597,36.35 L31.851,21.192 L34.667,21.192 Z M50.639,21.192 L50.639,36.35 L48.549,36.35 L48.549,21.192 L50.639,21.192 Z M63.993,21.192 L63.773,22.974 L59.571,22.974 L59.571,36.35 L57.481,36.35 L57.481,22.974 L53.169,22.974 L53.169,21.192 L63.993,21.192 Z"/>
  </g>
</svg>
