<svg xmlns="http://www.w3.org/2000/svg" width="24" height="24" viewBox="0 0 24 24">
  <g fill="none" fill-rule="evenodd">
    <rect width="24" height="24"/>
    <path fill="#0F1621" fill-opacity=".95" d="M18,1.99999996 L22,12 L22,22 L2.99999996,22 L2.99999996,11 L11,11 L11,19 L14,19 L14,12 L18,1.99999996 Z M6.11769588,12.889218 L5.99999997,13 L5.99999997,19 L7.99999997,19 L7.99999997,13 C7.37223527,12.3722353 6.74535638,12.335308 6.11769588,12.889218 Z M17.1176959,12.889218 L17,13 L17,19 L19,19 L19,13 C18.3722353,12.3722353 17.7453564,12.335308 17.1176959,12.889218 Z M6.99999998,1.99999996 L7.46357553,2.29142826 L7.87637308,2.56370147 C9.310281,3.52827008 12,5.53310692 12,6.99999996 C12.02,7.79199998 11.645,8.54099999 11,8.99999996 L2.99999996,8.99999996 C2.35499996,8.54099999 1.97999996,7.79199998 1.99999996,6.99999996 C1.99999996,4.99999996 6.99999998,1.99999996 6.99999998,1.99999996 Z"/>
  </g>
</svg>
