<?xml version="1.0" encoding="iso-8859-1"?>
<!-- Generator: Adobe Illustrator 24.1.2, SVG Export Plug-In . SVG Version: 6.00 Build 0)  -->
<svg version="1.1" id="_x32_00-2000-0019_x5F_beer-garden-layer"
	 xmlns="http://www.w3.org/2000/svg" xmlns:xlink="http://www.w3.org/1999/xlink" x="0px" y="0px" viewBox="0 0 24 24"
	 style="enable-background:new 0 0 24 24;" xml:space="preserve">
<g id="_x32_00-2000-0019_x5F_beer-garden_2_">
	<rect style="fill:none;" width="24" height="24"/>
	<path d="M19,8H2v12c0,1.1,0.9,2,2,2h10c1.1,0,2-0.9,2-2v-2h3c1.1,0,2-0.9,2-2v-6C21,8.9,20.1,8,19,8z M8,18H6v-6h2V18z M12,18h-2
		v-6h2V18z M19,16h-3v-6h3V16z M16,6L16,6L2,6v0c0-1.105,0.895-2,2-2h0v0c0-1.105,0.895-2,2-2h5c1.105,0,2,0.895,2,2v0h1
		C15.105,4,16,4.895,16,6z"/>
</g>
</svg>
