<?xml version="1.0" encoding="iso-8859-1"?>
<!-- Generator: Adobe Illustrator 24.1.2, SVG Export Plug-In . SVG Version: 6.00 Build 0)  -->
<svg version="1.1" id="_x32_00-2000-0014_x5F_karaoke-layer"
	 xmlns="http://www.w3.org/2000/svg" xmlns:xlink="http://www.w3.org/1999/xlink" x="0px" y="0px" viewBox="0 0 24 24"
	 style="enable-background:new 0 0 24 24;" xml:space="preserve">
<g id="_x32_00-2000-0014_x5F_karaoke_2_">
	<rect style="fill:none;" width="24" height="24"/>
	<path d="M11.34,8.41l-7.07,7.07c-0.78,0.79-0.78,2.05,0,2.83l-1.98,1.98c-0.39,0.39-0.39,1.03,0,1.42C2.49,21.9,2.74,22,3,22
		s0.51-0.1,0.71-0.29l1.98-1.98c0.39,0.39,0.9,0.58,1.41,0.58c0.51,0,1.02-0.19,1.42-0.58l7.07-7.07L11.34,8.41z M10.64,14.78
		c-0.39,0.39-1.03,0.39-1.42,0c-0.39-0.39-0.39-1.03,0-1.42s1.03-0.39,1.42,0C11.03,13.75,11.03,14.39,10.64,14.78z M20.536,10.535
		c-0.799,0.799-1.796,1.273-2.828,1.414l-5.657-5.657c0.142-1.032,0.615-2.029,1.414-2.828c1.951-1.951,5.119-1.952,7.071,0
		S22.488,8.583,20.536,10.535z"/>
</g>
</svg>
