<?xml version="1.0" encoding="iso-8859-1"?>
<!-- Generator: Adobe Illustrator 24.1.2, SVG Export Plug-In . SVG Version: 6.00 Build 0)  -->
<svg version="1.1" id="_x32_00-2300-0000_x5F_gambling-lottery-betting-layer"
	 xmlns="http://www.w3.org/2000/svg" xmlns:xlink="http://www.w3.org/1999/xlink" x="0px" y="0px" viewBox="0 0 24 24"
	 style="enable-background:new 0 0 24 24;" xml:space="preserve">
<g id="_x32_00-2300-0000_x5F_gambling-lottery-betting_2_">
	<rect style="fill:none;" width="24" height="24"/>
	<g>
		<path d="M20,2H4C2.9,2,2,2.9,2,4v16c0,1.1,0.9,2,2,2h16c1.1,0,2-0.9,2-2V4C22,2.9,21.1,2,20,2z M8,18c-1.1,0-2-0.9-2-2s0.9-2,2-2
			s2,0.9,2,2S9.1,18,8,18z M12,14c-1.1,0-2-0.9-2-2s0.9-2,2-2s2,0.9,2,2S13.1,14,12,14z M16,10c-1.1,0-2-0.9-2-2s0.9-2,2-2
			s2,0.9,2,2S17.1,10,16,10z"/>
	</g>
</g>
</svg>
