<?xml version="1.0" encoding="iso-8859-1"?>
<!-- Generator: Adobe Illustrator 24.1.2, SVG Export Plug-In . SVG Version: 6.00 Build 0)  -->
<svg version="1.1" id="_x32_00-2100-0019_x5F_cinema-layer"
	 xmlns="http://www.w3.org/2000/svg" xmlns:xlink="http://www.w3.org/1999/xlink" x="0px" y="0px" viewBox="0 0 24 24"
	 style="enable-background:new 0 0 24 24;" xml:space="preserve">
<g id="_x32_00-2100-0019_x5F_cinema_2_">
	<rect style="fill:none;" width="24" height="24"/>
	<path d="M22,14v7h-3l-2-1.33V22H5c-1.1,0-2-0.9-2-2v-5c0-1.1,0.9-2,2-2h12v2.33L19,14H22z M18.5,6.5c0,2.49-2.01,4.5-4.5,4.5H5
		c-1.66,0-3-1.34-3-3s1.34-3,3-3c1.66,0,3,1.34,3,3c0,0.35-0.06,0.69-0.18,1h2.44C9.78,8.28,9.5,7.42,9.5,6.5C9.5,4.01,11.51,2,14,2
		S18.5,4.01,18.5,6.5z M5,9c0.55,0,1-0.45,1-1S5.55,7,5,7S4,7.45,4,8S4.45,9,5,9z M16.5,6.5C16.5,5.12,15.38,4,14,4
		s-2.5,1.12-2.5,2.5S12.62,9,14,9S16.5,7.88,16.5,6.5z"/>
</g>
</svg>
