<svg width="16" height="16" viewBox="0 0 16 16" fill="none" xmlns="http://www.w3.org/2000/svg">
<path d="M15 3V11C15 11.2652 14.8946 11.5196 14.7071 11.7071C14.5196 11.8946 14.2652 12 14 12H9L4.8 14.9C4.72572 14.9557 4.63738 14.9896 4.5449 14.998C4.45242 15.0063 4.35945 14.9887 4.27639 14.9472C4.19334 14.9057 4.12349 14.8419 4.07467 14.7629C4.02586 14.6839 4 14.5929 4 14.5V12H2C1.73478 12 1.48043 11.8946 1.29289 11.7071C1.10536 11.5196 1 11.2652 1 11V3C1 2.73478 1.10536 2.48043 1.29289 2.29289C1.48043 2.10536 1.73478 2 2 2H14C14.2652 2 14.5196 2.10536 14.7071 2.29289C14.8946 2.48043 15 2.73478 15 3Z" fill="#0F1621"/>
</svg>
