<svg width="24" height="24" viewBox="0 0 24 24" fill="none" xmlns="http://www.w3.org/2000/svg">
<path d="M18 3H6C4.93913 3 3.92172 3.42143 3.17157 4.17157C2.42143 4.92172 2 5.93913 2 7V15C2 16.0609 2.42143 17.0783 3.17157 17.8284C3.92172 18.5786 4.93913 19 6 19H7V22.15C6.99866 22.2646 7.02025 22.3784 7.06349 22.4845C7.10674 22.5907 7.17077 22.6871 7.25183 22.7682C7.33288 22.8492 7.42933 22.9133 7.53549 22.9565C7.64164 22.9998 7.75538 23.0213 7.87 23.02C8.07123 23.0205 8.26612 22.9497 8.42 22.82L13 19H18C19.0609 19 20.0783 18.5786 20.8284 17.8284C21.5786 17.0783 22 16.0609 22 15V7C22 5.93913 21.5786 4.92172 20.8284 4.17157C20.0783 3.42143 19.0609 3 18 3ZM20 15C20 15.5304 19.7893 16.0391 19.4142 16.4142C19.0391 16.7893 18.5304 17 18 17H12.28L11.72 17.46L9 19.73V17H6C5.46957 17 4.96086 16.7893 4.58579 16.4142C4.21071 16.0391 4 15.5304 4 15V7C4 6.46957 4.21071 5.96086 4.58579 5.58579C4.96086 5.21071 5.46957 5 6 5H18C18.5304 5 19.0391 5.21071 19.4142 5.58579C19.7893 5.96086 20 6.46957 20 7V15ZM8 8H11L9 14H7L8 8ZM14 8H17L15 14H13L14 8Z" fill="#0F1621"/>
</svg>
