<svg width="24" height="24" viewBox="0 0 24 24" fill="none" xmlns="http://www.w3.org/2000/svg">
<path d="M12 19L7.81 21.89C7.70638 21.9718 7.57465 22.0092 7.44352 21.9942C7.31238 21.9793 7.1925 21.913 7.11 21.81C7.0401 21.7217 7.00142 21.6126 7 21.5V19H4C3.46957 19 2.96086 18.7893 2.58579 18.4142C2.21071 18.0391 2 17.5304 2 17V5C2 4.46957 2.21071 3.96086 2.58579 3.58579C2.96086 3.21071 3.46957 3 4 3H20C20.5304 3 21.0391 3.21071 21.4142 3.58579C21.7893 3.96086 22 4.46957 22 5V17C22 17.5304 21.7893 18.0391 21.4142 18.4142C21.0391 18.7893 20.5304 19 20 19H12ZM7 8L6 10H8L6 14H8L11 8H7ZM14 8L13 10H15L13 14H15L18 8H14Z" fill="#0F1621"/>
</svg>
