<svg width="24" height="24" viewBox="0 0 24 24" fill="none" xmlns="http://www.w3.org/2000/svg">
<path d="M18.9374 4.00098H4.93738C4.14173 4.00098 3.37867 4.31705 2.81606 4.87966C2.25345 5.44227 1.93738 6.20533 1.93738 7.00098V15.001C1.93738 15.7966 2.25345 16.5597 2.81606 17.1223C3.37867 17.6849 4.14173 18.001 4.93738 18.001H6.93738V21.101C6.93614 21.2707 6.98346 21.4373 7.07377 21.581C7.16408 21.7247 7.2936 21.8396 7.44707 21.9121C7.60053 21.9847 7.77154 22.0118 7.93992 21.9903C8.10829 21.9689 8.26702 21.8997 8.39738 21.791L12.9374 18.001H18.9374C19.733 18.001 20.4961 17.6849 21.0587 17.1223C21.6213 16.5597 21.9374 15.7966 21.9374 15.001V7.00098C21.9374 6.20533 21.6213 5.44227 21.0587 4.87966C20.4961 4.31705 19.733 4.00098 18.9374 4.00098ZM8.93738 14.001H6.93738L7.93738 8.00098H10.9374L8.93738 14.001ZM14.9374 14.001H12.9374L13.9374 8.00098H16.9374L14.9374 14.001Z" fill="#0F1621"/>
</svg>
