<svg xmlns="http://www.w3.org/2000/svg" viewBox="0 0 24 24"><defs><style>.cls-1{fill:none;}</style></defs><g id="Layer_2" data-name="Layer 2"><g id="System_UI_Outline" data-name="System UI Outline"><g id="comment"><rect class="cls-1" width="24" height="24"/><path d="M20,3H4A2,2,0,0,0,2,5V17a2,2,0,0,0,2,2H7v2.5a.51.51,0,0,0,.11.31A.49.49,0,0,0,7.5,22a.51.51,0,0,0,.31-.11L12,19h8a2,2,0,0,0,2-2V5A2,2,0,0,0,20,3Zm0,14H11.38l-.51.35L9,18.64V17H4V5H20ZM8,14l3-6H7L6,10H8L6,14Zm7,0,3-6H14l-1,2h2l-2,4Z"/></g></g></g></svg>