<svg width="16" height="16" viewBox="0 0 16 16" fill="none" xmlns="http://www.w3.org/2000/svg">
<path d="M8 1C6.61553 1 5.26216 1.41054 4.11101 2.17971C2.95987 2.94888 2.06266 4.04213 1.53285 5.32122C1.00303 6.6003 0.86441 8.00776 1.13451 9.36563C1.4046 10.7235 2.07129 11.9708 3.05026 12.9497C4.02922 13.9287 5.2765 14.5954 6.63437 14.8655C7.99224 15.1356 9.3997 14.997 10.6788 14.4672C11.9579 13.9373 13.0511 13.0401 13.8203 11.889C14.5895 10.7378 15 9.38447 15 8C15 6.14348 14.2625 4.36301 12.9497 3.05025C11.637 1.7375 9.85652 1 8 1ZM7.52 10.78C7.42704 10.8737 7.31644 10.9481 7.19458 10.9989C7.07272 11.0497 6.94202 11.0758 6.81 11.0758C6.67799 11.0758 6.54729 11.0497 6.42543 10.9989C6.30357 10.9481 6.19297 10.8737 6.1 10.78L4 8.68L5.41 7.27L6.81 8.66L10.47 5L11.88 6.42L7.52 10.78Z" fill="#0F1621"/>
</svg>
