<svg width="24" height="24" viewBox="0 0 24 24" fill="none" xmlns="http://www.w3.org/2000/svg">
<path d="M17.31 15.9C18.407 14.5025 19.0022 12.7767 19 11C19 9.41775 18.5308 7.87103 17.6518 6.55544C16.7727 5.23985 15.5233 4.21447 14.0615 3.60897C12.5997 3.00347 10.9911 2.84504 9.43928 3.15372C7.88743 3.4624 6.46197 4.22433 5.34315 5.34315C4.22433 6.46197 3.4624 7.88743 3.15372 9.43928C2.84504 10.9911 3.00347 12.5997 3.60897 14.0615C4.21447 15.5233 5.23985 16.7727 6.55544 17.6518C7.87103 18.5308 9.41775 19 11 19C12.7767 19.0022 14.5025 18.407 15.9 17.31L19.79 21.21L21.21 19.79L17.31 15.9ZM11 17C9.81332 17 8.65328 16.6481 7.66658 15.9888C6.67989 15.3295 5.91085 14.3925 5.45673 13.2961C5.0026 12.1997 4.88378 10.9933 5.11529 9.82946C5.3468 8.66558 5.91825 7.59648 6.75736 6.75736C7.59648 5.91825 8.66558 5.3468 9.82946 5.11529C10.9933 4.88378 12.1997 5.0026 13.2961 5.45673C14.3925 5.91085 15.3295 6.67989 15.9888 7.66658C16.6481 8.65328 17 9.81332 17 11C17 12.5913 16.3679 14.1174 15.2426 15.2426C14.1174 16.3679 12.5913 17 11 17ZM12 10H15V12H12V15H10V12H7V10H10V7H12V10Z" fill="#0F1621"/>
</svg>
