<svg width="16" height="16" viewBox="0 0 16 16" fill="none" xmlns="http://www.w3.org/2000/svg">
<path d="M7.99996 1.32999C6.68076 1.32999 5.39118 1.72118 4.29431 2.45408C3.19743 3.18699 2.34252 4.22871 1.83768 5.44749C1.33285 6.66627 1.20076 8.00739 1.45812 9.30124C1.71548 10.5951 2.35074 11.7836 3.28356 12.7164C4.21637 13.6492 5.40485 14.2845 6.69871 14.5418C7.99256 14.7992 9.33367 14.6671 10.5525 14.1623C11.7712 13.6574 12.813 12.8025 13.5459 11.7056C14.2788 10.6088 14.67 9.31919 14.67 7.99999C14.67 7.12407 14.4974 6.25673 14.1622 5.44749C13.827 4.63825 13.3357 3.90295 12.7164 3.28358C12.097 2.66422 11.3617 2.17291 10.5525 1.83771C9.74322 1.50251 8.87588 1.32999 7.99996 1.32999ZM7.99996 10.83L3.75996 6.58999L5.16996 5.16999L7.99996 7.99999L10.83 5.16999L12.24 6.58999L7.99996 10.83Z" fill="#0F1621"/>
</svg>
