<svg xmlns="http://www.w3.org/2000/svg" width="16" height="16" viewBox="0 0 16 16"><rect width="16" height="16" style="fill:none"/><path d="M8,1a7,7,0,1,0,7,7A7,7,0,0,0,8,1ZM9,12H7V10H9Zm1.73-5.34a1.73,1.73,0,0,1-.4.54,4.72,4.72,0,0,1-.59.45,6.45,6.45,0,0,0-.63.45A1,1,0,0,0,9,8.75V9H7V8.69a1.88,1.88,0,0,1,.16-.84,1.25,1.25,0,0,1,.38-.5,8.09,8.09,0,0,1,.77-.58,2.9,2.9,0,0,0,.45-.36.48.48,0,0,0,.13-.35.45.45,0,0,0-.17-.39.7.7,0,0,0-.49-.14c-.59,0-.87.31-1.26.73l-1.28-1A3.35,3.35,0,0,1,8.36,4a3.5,3.5,0,0,1,1.4.25,1.88,1.88,0,0,1,.84.68,1.69,1.69,0,0,1,.32.94A1.88,1.88,0,0,1,10.73,6.66Z"/></svg>