<svg xmlns="http://www.w3.org/2000/svg" width="24" height="24" viewBox="0 0 24 24"><rect width="24" height="24" style="fill:none"/><path d="M11,18h2V16H11ZM15.05,7.5A3,3,0,0,0,14,6.81a4.27,4.27,0,0,0-1.63-.27,4.59,4.59,0,0,0-1.2.15,4.72,4.72,0,0,0-1.8.86,4.32,4.32,0,0,0-.57.55l1,1.29a4.22,4.22,0,0,1,1.13-.78,3,3,0,0,1,1.32-.3,1.4,1.4,0,0,1,1,.36,1.12,1.12,0,0,1,0,1.62c-.24.23-.47.45-.71.64a8.7,8.7,0,0,0-.68.62,3,3,0,0,0-.49.65,3.24,3.24,0,0,0-.3.79,4.28,4.28,0,0,0-.1,1h2a2.4,2.4,0,0,1,.11-.74,2.57,2.57,0,0,1,.3-.57,2.86,2.86,0,0,1,.42-.43,4,4,0,0,1,.49-.35c.17-.13.34-.27.52-.43a4.41,4.41,0,0,0,.48-.56,3,3,0,0,0,.35-.67,2.22,2.22,0,0,0,.13-.77,3.09,3.09,0,0,0-.17-1A2.48,2.48,0,0,0,15.05,7.5ZM12,2A10,10,0,1,0,22,12,10,10,0,0,0,12,2Zm0,18a8,8,0,1,1,8-8A8,8,0,0,1,12,20Z"/></svg>