<svg xmlns="http://www.w3.org/2000/svg" viewBox="0 0 24 24"><defs><style>.cls-1{fill:none;}.cls-2{fill-rule:evenodd;}</style></defs><g id="Layer_2" data-name="Layer 2"><g id="UI_Solid" data-name="UI Solid"><g id="help"><rect class="cls-1" width="24" height="24"/><path class="cls-2" d="M12,2A10,10,0,1,0,22,12,10,10,0,0,0,12,2Zm1,16H11V16h2Zm2.66-7.76a3,3,0,0,1-.35.67,4.41,4.41,0,0,1-.48.56c-.18.16-.35.3-.52.43a4,4,0,0,0-.49.35,2.86,2.86,0,0,0-.42.43,2.57,2.57,0,0,0-.3.57A2.4,2.4,0,0,0,13,14H11a4.28,4.28,0,0,1,.1-1,3.24,3.24,0,0,1,.3-.79,3,3,0,0,1,.49-.65,8.7,8.7,0,0,1,.68-.62c.24-.19.47-.41.71-.64a1.12,1.12,0,0,0,0-1.62,1.4,1.4,0,0,0-1-.36,3,3,0,0,0-1.32.3,4.22,4.22,0,0,0-1.13.78l-1-1.29a4.32,4.32,0,0,1,.57-.55,4.72,4.72,0,0,1,1.8-.86,4.59,4.59,0,0,1,1.2-.15A4.27,4.27,0,0,1,14,6.81a3,3,0,0,1,1.06.69,2.48,2.48,0,0,1,.57.94,3.09,3.09,0,0,1,.17,1A2.22,2.22,0,0,1,15.66,10.24Z"/></g></g></g></svg>