<svg width="24" height="24" viewBox="0 0 24 24" fill="none" xmlns="http://www.w3.org/2000/svg">
<path d="M15.44 5.73C14.3545 5.25664 13.1842 5.0083 12 5C5.84 5 2 12 2 12C2.8655 13.477 3.93617 14.8238 5.18 16L2.11 19.06L3.52 20.47L9.89 14.11C10.4536 14.6736 11.218 14.9902 12.015 14.9902C12.812 14.9902 13.5764 14.6736 14.14 14.11C14.7036 13.5464 15.0202 12.782 15.0202 11.985C15.0202 11.188 14.7036 10.4236 14.14 9.86L20.49 3.5L19.08 2.09L15.44 5.73ZM12.16 9C11.7407 8.97711 11.3213 9.04251 10.9289 9.19194C10.5365 9.34137 10.1798 9.57152 9.88194 9.86749C9.58409 10.1635 9.35168 10.5187 9.19976 10.9101C9.04783 11.3016 8.97978 11.7206 9 12.14L7.36 13.8C7.13338 13.2263 7.01145 12.6167 7 12C7 10.6739 7.52678 9.40214 8.46447 8.46446C9.40215 7.52678 10.6739 7 12 7C12.6204 7.00665 13.2342 7.12873 13.81 7.36L12.16 9ZM16.66 10.16C17.0107 11.064 17.091 12.0505 16.8911 12.9993C16.6912 13.9482 16.2197 14.8184 15.5341 15.5041C14.8484 16.1897 13.9782 16.6612 13.0293 16.8611C12.0805 17.061 11.094 16.9807 10.19 16.63L8.57 18.26C9.6484 18.7457 10.8173 18.9978 12 19C18.08 19 22 12 22 12C21.1426 10.5174 20.0711 9.16957 18.82 8L16.66 10.16Z" fill="#0F1621"/>
</svg>
