<svg xmlns="http://www.w3.org/2000/svg" viewBox="0 0 24 24"><defs><style>.cls-1{fill:none;}</style></defs><g id="Layer_2" data-name="Layer 2"><g id="UI_Outline" data-name="UI Outline"><g id="hide"><rect class="cls-1" width="24" height="24"/><path d="M18.79,7.79,17.36,9.22a11.93,11.93,0,0,1,1.43,1.4,9,9,0,0,1,.9,1.26c-1.12,1.58-3.81,4.81-7.26,5.1h-.49a10.65,10.65,0,0,1-2.07-.27l-1.5,1.5a8.67,8.67,0,0,0,3.57.79C18.06,19,22,12,22,12A11.66,11.66,0,0,0,18.79,7.79ZM12,15a3,3,0,0,0,2-5.21l6.37-6.38L19,2,15.31,5.66A9.1,9.1,0,0,0,12,5C5.83,5,2,12,2,12a11.14,11.14,0,0,0,3,4L2,19l1.41,1.41L9.79,14A3,3,0,0,0,12,15Zm0-2a1,1,0,0,1-.79-.41l1.38-1.38A1,1,0,0,1,13,12,1,1,0,0,1,12,13ZM6.39,14.58l-.1-.09a9.7,9.7,0,0,1-2-2.38C5.43,10.47,8.27,7,12,7a6.87,6.87,0,0,1,1.78.24L12,9a3,3,0,0,0-3,3Z"/></g></g></g></svg>