<svg xmlns="http://www.w3.org/2000/svg" viewBox="0 0 16 16"><defs><style>.cls-1{fill:none;}</style></defs><g id="Layer_2" data-name="Layer 2"><g id="UI_System_16" data-name="UI System 16"><g id="hide"><rect class="cls-1" width="16" height="16"/><path d="M13.24,5.6,11,7.84A.78.78,0,0,1,11,8a3,3,0,0,1-3,3l-.16,0-1.7,1.7A5.7,5.7,0,0,0,8,13c4.29,0,7-5,7-5A12.49,12.49,0,0,0,13.24,5.6Zm-3.11.28,1.11-1.12,2.35-2.34L12.17,1,9.86,3.32A5.79,5.79,0,0,0,8,3C3.69,3,1,8,1,8a13.22,13.22,0,0,0,1.78,2.39L1,12.18,2.41,13.6l7.72-7.72ZM5,8.15A.77.77,0,0,1,5,8,3,3,0,0,1,8,5h.16Z"/></g></g></g></svg>