<svg width="16" height="16" viewBox="0 0 16 16" fill="none" xmlns="http://www.w3.org/2000/svg">
<path d="M9.41 2.00001C9.30952 1.70586 9.11956 1.4505 8.86672 1.26969C8.61389 1.08888 8.31084 0.991669 8 0.991669C7.68916 0.991669 7.38611 1.08888 7.13328 1.26969C6.88044 1.4505 6.69048 1.70586 6.59 2.00001H1V13C1 13.5304 1.21071 14.0391 1.58579 14.4142C1.96086 14.7893 2.46957 15 3 15H13C13.5304 15 14.0391 14.7893 14.4142 14.4142C14.7893 14.0391 15 13.5304 15 13V2.00001H9.41ZM9 13H7V11H9V13ZM9 10H7V5H9V10Z" fill="#0F1621"/>
</svg>
