<svg width="16" height="16" viewBox="0 0 16 16" fill="none" xmlns="http://www.w3.org/2000/svg">
<path fill-rule="evenodd" clip-rule="evenodd" d="M9.37004 1.1C7.89716 0.807052 6.36911 0.995542 5.01156 1.63763C3.65402 2.27972 2.53895 3.34138 1.83105 4.66579C1.12315 5.99021 0.859937 7.50718 1.08029 8.99266C1.30065 10.4781 1.99289 11.8534 3.05478 12.9153C4.11667 13.9772 5.4919 14.6694 6.97738 14.8898C8.46286 15.1101 9.97983 14.8469 11.3043 14.139C12.6287 13.4311 13.6903 12.316 14.3324 10.9585C14.9745 9.60094 15.163 8.07289 14.87 6.6C14.6 5.24209 13.9333 3.99477 12.9543 3.01577C11.9753 2.03678 10.728 1.37008 9.37004 1.1ZM10 12H6.00004V10H7.00004V7H6.00004V5H9.00004V10H10V12Z" fill="#0F1621"/>
</svg>
