<svg width="16" height="16" viewBox="0 0 16 16" fill="none" xmlns="http://www.w3.org/2000/svg">
<path d="M10.36 1.42L1.42003 10.36C1.13693 9.60562 0.994575 8.80573 1.00003 8C1.00003 6.14348 1.73753 4.36301 3.05028 3.05025C4.36304 1.7375 6.14351 0.999998 8.00003 0.999998C8.80576 0.994545 9.60565 1.1369 10.36 1.42ZM14.6 5.67L5.67003 14.6C6.41775 14.867 7.20608 15.0023 8.00003 15C9.85654 15 11.637 14.2625 12.9498 12.9497C14.2625 11.637 15 9.85651 15 8C15.0023 7.20605 14.867 6.41772 14.6 5.67ZM15 2.42L13.6 0.999998L1.00003 13.62L2.40003 15L15 2.42Z" fill="#0F1621"/>
</svg>
