<svg width="24" height="24" viewBox="0 0 24 24" fill="none" xmlns="http://www.w3.org/2000/svg">
<path d="M12 2C10.2827 2.00069 8.59445 2.44363 7.09799 3.28616C5.60153 4.12868 4.34727 5.3424 3.45603 6.81037C2.5648 8.27834 2.06663 9.9511 2.00953 11.6675C1.95243 13.3839 2.33831 15.086 3.13 16.61L16.61 3.13C15.1863 2.38882 13.6051 2.00124 12 2ZM20.87 7.39L7.39 20.87C9.27545 21.8472 11.4231 22.1989 13.5217 21.8739C15.6204 21.549 17.5611 20.5644 19.0627 19.0627C20.5644 17.5611 21.549 15.6204 21.8739 13.5217C22.1989 11.4231 21.8472 9.27545 20.87 7.39ZM3.44 22L2 20.56L20.58 2L22 3.42L3.44 22Z" fill="#0F1621"/>
</svg>
