<svg width="24" height="24" viewBox="0 0 24 24" fill="none" xmlns="http://www.w3.org/2000/svg">
<path d="M12 3C10.22 3 8.47991 3.52784 6.99987 4.51677C5.51983 5.50571 4.36628 6.91131 3.68509 8.55585C3.0039 10.2004 2.82567 12.01 3.17294 13.7558C3.5202 15.5016 4.37737 17.1053 5.63604 18.364C6.89472 19.6226 8.49836 20.4798 10.2442 20.8271C11.99 21.1743 13.7996 20.9961 15.4442 20.3149C17.0887 19.6337 18.4943 18.4802 19.4832 17.0001C20.4722 15.5201 21 13.78 21 12C21 9.61305 20.0518 7.32387 18.364 5.63604C16.6761 3.94821 14.387 3 12 3V3ZM5 12C5.00277 10.7034 5.3656 9.43306 6.04804 8.33059C6.73049 7.22813 7.70572 6.33687 8.86502 5.75618C10.0243 5.1755 11.3221 4.92821 12.6137 5.04189C13.9053 5.15557 15.14 5.62574 16.18 6.4L6.4 16.18C5.49534 14.9738 5.00432 13.5077 5 12V12ZM12 19C10.4923 18.9957 9.0262 18.5047 7.82 17.6L17.6 7.82C18.3743 8.86004 18.8444 10.0947 18.9581 11.3863C19.0718 12.6779 18.8245 13.9757 18.2438 15.135C17.6631 16.2943 16.7719 17.2695 15.6694 17.952C14.5669 18.6344 13.2966 18.9972 12 19Z" fill="#0F1621"/>
</svg>
