<svg xmlns="http://www.w3.org/2000/svg" viewBox="0 0 24 24"><g id="Layer_2" data-name="Layer 2"><g id="UI_Outline" data-name="UI Outline"><g id="invalid-outline_24px"><rect width="24" height="24" style="fill:none"/><path d="M12,2A10,10,0,0,0,3.13,16.61L4.64,15.1a7.69,7.69,0,0,1-.58-2.25h0v0A7.19,7.19,0,0,1,4,12a8.1,8.1,0,0,1,.25-2q.11-.39.24-.75A1.43,1.43,0,0,1,4.57,9,7.53,7.53,0,0,1,5,8.18a6.85,6.85,0,0,1,.62-1v0A8.07,8.07,0,0,1,8.89,4.63h0a8,8,0,0,1,6.22,0l1.49-1.49A10,10,0,0,0,12,2Zm8.87,5.39L19.38,8.88a8,8,0,0,1,0,6.22h0A8.07,8.07,0,0,1,16.8,18.4h0a6.85,6.85,0,0,1-1,.62,7.53,7.53,0,0,1-.86.4l-.22.08q-.36.14-.75.24A8.1,8.1,0,0,1,12,20a7.19,7.19,0,0,1-.81-.05h0a7.69,7.69,0,0,1-2.25-.58L7.39,20.87A10,10,0,0,0,20.87,7.39ZM3.44,22,2,20.56,20.58,2,22,3.42Z"/></g></g></g></svg>