<svg width="16" height="16" viewBox="0 0 16 16" fill="none" xmlns="http://www.w3.org/2000/svg">
<path d="M8 14.75V13.25C9.03835 13.25 10.0534 12.9421 10.9167 12.3652C11.7801 11.7883 12.453 10.9684 12.8504 10.0091C13.2477 9.04977 13.3517 7.99417 13.1491 6.97577C12.9466 5.95737 12.4465 5.02191 11.7123 4.28769C10.9781 3.55346 10.0426 3.05345 9.02422 2.85088C8.00582 2.6483 6.95022 2.75227 5.99091 3.14963C5.0316 3.54699 4.21166 4.2199 3.63478 5.08326C3.05791 5.94661 2.75 6.96165 2.75 8H1.25C1.25 6.66498 1.64588 5.35993 2.38758 4.2499C3.12928 3.13987 4.18349 2.2747 5.41689 1.76381C6.65029 1.25292 8.00749 1.11925 9.31686 1.3797C10.6262 1.64015 11.829 2.28302 12.773 3.22703C13.717 4.17103 14.3598 5.37377 14.6203 6.68314C14.8808 7.99251 14.7471 9.34971 14.2362 10.5831C13.7253 11.8165 12.8601 12.8707 11.7501 13.6124C10.6401 14.3541 9.33502 14.75 8 14.75Z" fill="#0F1621"/>
</svg>
