<svg xmlns="http://www.w3.org/2000/svg" viewBox="0 0 24 24"><g id="Layer_2" data-name="Layer 2"><g id="UI_Outline" data-name="UI Outline"><g id="lock-break"><rect width="24" height="24" style="fill:none"/><path d="M8.22,11l-.12.36-.26.78.37.74,1.48,3-1.35,2-.55.81.31.93.13.37H6V11H8.22M10,2.4A4.82,4.82,0,0,0,7,6.82V9H4V20a2,2,0,0,0,2,2h5l-1-3,2-3-2-4,1-3H9V6.82a2.7,2.7,0,0,1,1-2.09V2.4ZM18,11v9H14.44l-.23-.7,1.45-2.19.65-1-.52-1-1.63-3.26.28-.84H18M14,2.4V4.72A2.94,2.94,0,0,1,15,7V9H13l-1,3,2,4-2,3,1,3h5a2,2,0,0,0,2-2V9H17V7a4.86,4.86,0,0,0-3-4.6Z"/></g></g></g></svg>