<svg width="16" height="16" viewBox="0 0 16 16" fill="none" xmlns="http://www.w3.org/2000/svg">
<path d="M7 1.10999V3.24999C6.69331 3.42703 6.43913 3.68234 6.26343 3.9898C6.08774 4.29727 5.99683 4.64587 6 4.99999V6.99999H7L6 8.99999L7 11L6 13L7 15H4C3.73478 15 3.48043 14.8946 3.29289 14.7071C3.10536 14.5196 3 14.2652 3 14V6.99999H4V4.99999C3.99622 4.11029 4.28916 3.24473 4.8325 2.5402C5.37583 1.83568 6.13855 1.3324 7 1.10999ZM12 6.99999V4.99999C12.0038 4.11029 11.7108 3.24473 11.1675 2.5402C10.6242 1.83568 9.86145 1.3324 9 1.10999V3.24999C9.30669 3.42703 9.56087 3.68234 9.73657 3.9898C9.91226 4.29727 10.0032 4.64587 10 4.99999V6.99999H9L8 8.99999L9 11L8 13L9 15H12C12.2652 15 12.5196 14.8946 12.7071 14.7071C12.8946 14.5196 13 14.2652 13 14V6.99999H12Z" fill="#0F1621"/>
</svg>
