<svg xmlns="http://www.w3.org/2000/svg" viewBox="0 0 16 16"><defs><style>.cls-1{fill:none;}</style></defs><g id="Layer_2" data-name="Layer 2"><g id="UI_System_16" data-name="UI System 16"><g id="microphone-off"><rect class="cls-1" width="16" height="16"/><path d="M10.58,1.18,7.76,4H5V2A1,1,0,0,1,6,1h4A1,1,0,0,1,10.58,1.18ZM1,7a6,6,0,0,0,.79,3l1.5-1.5A3.78,3.78,0,0,1,3,7ZM13,7a2.09,2.09,0,0,1,0,.25A4,4,0,0,1,9.25,11L7,13.24V15H9V13a6,6,0,0,0,6-6Zm2-4.59L13.59,1,1,13.59,2.41,15Z"/></g></g></g></svg>