<svg xmlns="http://www.w3.org/2000/svg" viewBox="0 0 24 24"><g id="Layer_2" data-name="Layer 2"><g id="UI_Outline" data-name="UI Outline"><g id="microphone-off_outline_24px"><rect width="24" height="24" style="fill:none"/><path d="M14.94,13.32a1,1,0,0,1-.62.62L12.26,16H14a3,3,0,0,0,3-3V11.26ZM9,4h6v.74L16.73,3A2,2,0,0,0,15,2H9A2,2,0,0,0,7,4v8.75l2-2V10h.75l2-2H9ZM5,13a5.08,5.08,0,0,0,.23,1.52L3.7,16A6.89,6.89,0,0,1,3,13Zm16,0a7,7,0,0,1-7,7v2H10V20a6.66,6.66,0,0,1-1.56-.18L10.26,18H14a5,5,0,0,0,5-5ZM3.44,22,2,20.57,20.58,2,22,3.43Z"/></g></g></g></svg>