<svg width="16" height="16" viewBox="0 0 16 16" fill="none" xmlns="http://www.w3.org/2000/svg">
<path fill-rule="evenodd" clip-rule="evenodd" d="M13 12.5C13 12.7967 12.912 13.0867 12.7472 13.3334C12.5824 13.58 12.3481 13.7723 12.074 13.8858C11.7999 13.9994 11.4983 14.0291 11.2074 13.9712C10.9164 13.9133 10.6491 13.7704 10.4393 13.5607C10.2296 13.3509 10.0867 13.0836 10.0288 12.7926C9.97094 12.5017 10.0006 12.2001 10.1142 11.926C10.2277 11.6519 10.42 11.4176 10.6666 11.2528C10.9133 11.088 11.2033 11 11.5 11C11.8978 11 12.2794 11.158 12.5607 11.4393C12.842 11.7206 13 12.1022 13 12.5ZM11.5 6.5C11.2033 6.5 10.9133 6.58797 10.6666 6.7528C10.42 6.91762 10.2277 7.15189 10.1142 7.42598C10.0006 7.70006 9.97094 8.00167 10.0288 8.29264C10.0867 8.58361 10.2296 8.85088 10.4393 9.06066C10.6491 9.27044 10.9164 9.4133 11.2074 9.47118C11.4983 9.52906 11.7999 9.49935 12.074 9.38582C12.3481 9.27229 12.5824 9.08003 12.7472 8.83336C12.912 8.58668 13 8.29667 13 8C13 7.60218 12.842 7.22064 12.5607 6.93934C12.2794 6.65804 11.8978 6.5 11.5 6.5ZM11.5 5C11.7967 5 12.0867 4.91203 12.3334 4.7472C12.58 4.58238 12.7723 4.34811 12.8858 4.07403C12.9994 3.79994 13.0291 3.49834 12.9712 3.20737C12.9133 2.91639 12.7704 2.64912 12.5607 2.43934C12.3509 2.22956 12.0836 2.0867 11.7926 2.02882C11.5017 1.97094 11.2001 2.00065 10.926 2.11418C10.6519 2.22771 10.4176 2.41997 10.2528 2.66665C10.088 2.91332 10 3.20333 10 3.5C10 3.89783 10.158 4.27936 10.4393 4.56066C10.7206 4.84197 11.1022 5 11.5 5Z" fill="#0F1621"/>
</svg>
