<svg width="16" height="16" viewBox="0 0 16 16" fill="none" xmlns="http://www.w3.org/2000/svg">
<path fill-rule="evenodd" clip-rule="evenodd" d="M4 9C3.80222 9 3.60888 8.94135 3.44443 8.83147C3.27998 8.72159 3.15181 8.56541 3.07612 8.38268C3.00043 8.19996 2.98063 7.99889 3.01922 7.80491C3.0578 7.61093 3.15304 7.43275 3.29289 7.29289C3.43275 7.15304 3.61093 7.0578 3.80491 7.01922C3.99889 6.98063 4.19996 7.00043 4.38268 7.07612C4.56541 7.15181 4.72159 7.27998 4.83147 7.44443C4.94135 7.60888 5 7.80222 5 8C5 8.26522 4.89464 8.51957 4.70711 8.70711C4.51957 8.89464 4.26522 9 4 9ZM9 8C9 7.80222 8.94135 7.60888 8.83147 7.44443C8.72159 7.27998 8.56541 7.15181 8.38268 7.07612C8.19996 7.00043 7.99889 6.98063 7.80491 7.01922C7.61093 7.0578 7.43275 7.15304 7.29289 7.29289C7.15304 7.43275 7.0578 7.61093 7.01922 7.80491C6.98063 7.99889 7.00043 8.19996 7.07612 8.38268C7.15181 8.56541 7.27998 8.72159 7.44443 8.83147C7.60888 8.94135 7.80222 9 8 9C8.26522 9 8.51957 8.89464 8.70711 8.70711C8.89464 8.51957 9 8.26522 9 8ZM11 8C11 8.19778 11.0587 8.39112 11.1685 8.55557C11.2784 8.72002 11.4346 8.84819 11.6173 8.92388C11.8 8.99957 12.0011 9.01937 12.1951 8.98079C12.3891 8.9422 12.5673 8.84696 12.7071 8.70711C12.847 8.56725 12.9422 8.38907 12.9808 8.19509C13.0194 8.00111 12.9996 7.80004 12.9239 7.61732C12.8482 7.43459 12.72 7.27841 12.5556 7.16853C12.3911 7.05865 12.1978 7 12 7C11.7348 7 11.4804 7.10536 11.2929 7.29289C11.1054 7.48043 11 7.73478 11 8Z" fill="#0F1621"/>
</svg>
