<svg width="24" height="24" viewBox="0 0 24 24" fill="none" xmlns="http://www.w3.org/2000/svg">
<path fill-rule="evenodd" clip-rule="evenodd" d="M18 16C17.6044 16 17.2178 16.1173 16.8889 16.3371C16.56 16.5568 16.3036 16.8692 16.1522 17.2346C16.0009 17.6001 15.9613 18.0022 16.0384 18.3902C16.1156 18.7781 16.3061 19.1345 16.5858 19.4142C16.8655 19.6939 17.2219 19.8844 17.6098 19.9616C17.9978 20.0387 18.3999 19.9991 18.7654 19.8478C19.1308 19.6964 19.4432 19.44 19.6629 19.1111C19.8827 18.7822 20 18.3956 20 18C20 17.4696 19.7893 16.9609 19.4142 16.5858C19.0391 16.2107 18.5304 16 18 16ZM18 10C17.6044 10 17.2178 10.1173 16.8889 10.3371C16.56 10.5568 16.3036 10.8692 16.1522 11.2346C16.0009 11.6001 15.9613 12.0022 16.0384 12.3902C16.1156 12.7781 16.3061 13.1345 16.5858 13.4142C16.8655 13.6939 17.2219 13.8844 17.6098 13.9616C17.9978 14.0387 18.3999 13.9991 18.7654 13.8478C19.1308 13.6964 19.4432 13.44 19.6629 13.1111C19.8827 12.7822 20 12.3956 20 12C20 11.4696 19.7893 10.9609 19.4142 10.5858C19.0391 10.2107 18.5304 10 18 10ZM18 8C18.3956 8 18.7822 7.8827 19.1111 7.66294C19.44 7.44318 19.6964 7.13082 19.8478 6.76537C19.9991 6.39992 20.0387 5.99778 19.9616 5.60982C19.8844 5.22186 19.6939 4.86549 19.4142 4.58579C19.1345 4.30608 18.7781 4.1156 18.3902 4.03843C18.0022 3.96126 17.6001 4.00087 17.2346 4.15224C16.8692 4.30362 16.5568 4.55996 16.3371 4.88886C16.1173 5.21776 16 5.60444 16 6C16 6.53043 16.2107 7.03914 16.5858 7.41421C16.9609 7.78929 17.4696 8 18 8Z" fill="#0F1621"/>
</svg>
