<svg width="16" height="16" viewBox="0 0 16 16" fill="none" xmlns="http://www.w3.org/2000/svg">
<path fill-rule="evenodd" clip-rule="evenodd" d="M9 12C9 12.1978 8.94135 12.3911 8.83147 12.5556C8.72159 12.72 8.56541 12.8482 8.38268 12.9239C8.19996 12.9996 7.99889 13.0194 7.80491 12.9808C7.61093 12.9422 7.43275 12.847 7.29289 12.7071C7.15304 12.5673 7.0578 12.3891 7.01922 12.1951C6.98063 12.0011 7.00043 11.8 7.07612 11.6173C7.15181 11.4346 7.27998 11.2784 7.44443 11.1685C7.60888 11.0587 7.80222 11 8 11C8.26522 11 8.51957 11.1054 8.70711 11.2929C8.89464 11.4804 9 11.7348 9 12ZM8 7C7.80222 7 7.60888 7.05865 7.44443 7.16853C7.27998 7.27841 7.15181 7.43459 7.07612 7.61732C7.00043 7.80004 6.98063 8.00111 7.01922 8.19509C7.0578 8.38907 7.15304 8.56725 7.29289 8.70711C7.43275 8.84696 7.61093 8.9422 7.80491 8.98079C7.99889 9.01937 8.19996 8.99957 8.38268 8.92388C8.56541 8.84819 8.72159 8.72002 8.83147 8.55557C8.94135 8.39112 9 8.19778 9 8C9 7.73478 8.89464 7.48043 8.70711 7.29289C8.51957 7.10536 8.26522 7 8 7ZM8 5C8.19778 5 8.39112 4.94135 8.55557 4.83147C8.72002 4.72159 8.84819 4.56541 8.92388 4.38268C8.99957 4.19996 9.01937 3.99889 8.98079 3.80491C8.9422 3.61093 8.84696 3.43275 8.70711 3.29289C8.56725 3.15304 8.38907 3.0578 8.19509 3.01922C8.00111 2.98063 7.80004 3.00043 7.61732 3.07612C7.43459 3.15181 7.27841 3.27998 7.16853 3.44443C7.05865 3.60888 7 3.80222 7 4C7 4.26522 7.10536 4.51957 7.29289 4.70711C7.48043 4.89464 7.73478 5 8 5Z" fill="#0F1621"/>
</svg>
