<svg width="16" height="16" viewBox="0 0 16 16" fill="none" xmlns="http://www.w3.org/2000/svg">
<path fill-rule="evenodd" clip-rule="evenodd" d="M13 12C13 12.1978 12.9414 12.3911 12.8315 12.5556C12.7216 12.72 12.5654 12.8482 12.3827 12.9239C12.2 12.9996 11.9989 13.0194 11.8049 12.9808C11.6109 12.9422 11.4327 12.847 11.2929 12.7071C11.153 12.5673 11.0578 12.3891 11.0192 12.1951C10.9806 12.0011 11.0004 11.8 11.0761 11.6173C11.1518 11.4346 11.28 11.2784 11.4444 11.1685C11.6089 11.0587 11.8022 11 12 11C12.2652 11 12.5196 11.1054 12.7071 11.2929C12.8946 11.4804 13 11.7348 13 12ZM12 7C11.8022 7 11.6089 7.05865 11.4444 7.16853C11.28 7.27841 11.1518 7.43459 11.0761 7.61732C11.0004 7.80004 10.9806 8.00111 11.0192 8.19509C11.0578 8.38907 11.153 8.56725 11.2929 8.70711C11.4327 8.84696 11.6109 8.9422 11.8049 8.98079C11.9989 9.01937 12.2 8.99957 12.3827 8.92388C12.5654 8.84819 12.7216 8.72002 12.8315 8.55557C12.9414 8.39112 13 8.19778 13 8C13 7.73478 12.8946 7.48043 12.7071 7.29289C12.5196 7.10536 12.2652 7 12 7ZM12 5C12.1978 5 12.3911 4.94135 12.5556 4.83147C12.72 4.72159 12.8482 4.56541 12.9239 4.38268C12.9996 4.19996 13.0194 3.99889 12.9808 3.80491C12.9422 3.61093 12.847 3.43275 12.7071 3.29289C12.5673 3.15304 12.3891 3.0578 12.1951 3.01922C12.0011 2.98063 11.8 3.00043 11.6173 3.07612C11.4346 3.15181 11.2784 3.27998 11.1685 3.44443C11.0586 3.60888 11 3.80222 11 4C11 4.26522 11.1054 4.51957 11.2929 4.70711C11.4804 4.89464 11.7348 5 12 5Z" fill="#0F1621"/>
</svg>
