<svg width="16" height="16" viewBox="0 0 16 16" fill="none" xmlns="http://www.w3.org/2000/svg">
<path d="M10 8H6C5.20435 8 4.44129 8.31607 3.87868 8.87868C3.31607 9.44129 3 10.2044 3 11V15H13V11C13 10.2044 12.6839 9.44129 12.1213 8.87868C11.5587 8.31607 10.7956 8 10 8ZM8 7C8.3283 7 8.65339 6.93534 8.95671 6.8097C9.26002 6.68406 9.53562 6.49991 9.76777 6.26777C9.99991 6.03562 10.1841 5.76002 10.3097 5.45671C10.4353 5.15339 10.5 4.8283 10.5 4.5V3.5C10.5 2.83696 10.2366 2.20107 9.76777 1.73223C9.29893 1.26339 8.66304 1 8 1C7.33696 1 6.70107 1.26339 6.23223 1.73223C5.76339 2.20107 5.5 2.83696 5.5 3.5V4.5C5.5 5.16304 5.76339 5.79893 6.23223 6.26777C6.70107 6.73661 7.33696 7 8 7Z" fill="#0F1621"/>
</svg>
