<svg xmlns="http://www.w3.org/2000/svg" width="24" height="24" viewBox="0 0 24 24"><rect width="24" height="24" style="fill:none"/><path d="M13,17H11V15a3.84,3.84,0,0,1,.84-2.57,10.44,10.44,0,0,1,2-1.74,12.3,12.3,0,0,0,1.33-1,3.25,3.25,0,0,0,.68-.94,3.35,3.35,0,0,0,.26-1.39,3,3,0,0,0-.46-1.61,3.57,3.57,0,0,0-1.41-1.23A5.31,5.31,0,0,0,11.86,4a6.21,6.21,0,0,0-5,2.4L5.37,5.11A8.19,8.19,0,0,1,11.86,2a7.19,7.19,0,0,1,3.29.71,5.49,5.49,0,0,1,2.19,2,4.94,4.94,0,0,1,.77,2.67,5.14,5.14,0,0,1-.46,2.25,5,5,0,0,1-1.15,1.57A14.75,14.75,0,0,1,15,12.31a8.28,8.28,0,0,0-1.61,1.38A1.9,1.9,0,0,0,13,15Zm0,2H11v2h2Z"/></svg>