<svg width="16" height="16" viewBox="0 0 16 16" fill="none" xmlns="http://www.w3.org/2000/svg">
<path d="M9.46995 11H7.46995V10C7.44751 9.31134 7.62428 8.63084 7.97904 8.04016C8.3338 7.44948 8.85148 6.97373 9.46995 6.67C10.12 6.2 10.47 6 10.47 5C10.4581 4.49677 10.257 4.01651 9.90664 3.65506C9.55631 3.2936 9.08256 3.07755 8.57995 3.05C7.41995 2.85 5.97995 3.23 5.57995 4.34L3.69995 3.66C4.46995 1.51 6.90995 0.73 8.91995 1.08C9.88738 1.18944 10.7817 1.64796 11.4352 2.36961C12.0887 3.09126 12.4566 4.0265 12.47 5C12.4954 5.68185 12.3265 6.35689 11.9831 6.94646C11.6396 7.53603 11.1357 8.01585 10.53 8.33C9.82995 8.8 9.46995 9 9.46995 10V11ZM8.46995 12C8.17463 12.0059 7.88762 12.0989 7.64493 12.2672C7.40223 12.4356 7.21465 12.6719 7.10571 12.9465C6.99676 13.221 6.9713 13.5216 7.03252 13.8106C7.09374 14.0996 7.23892 14.364 7.44984 14.5708C7.66077 14.7776 7.92805 14.9175 8.21817 14.973C8.5083 15.0285 8.80835 14.9971 9.08069 14.8827C9.35304 14.7684 9.58556 14.5761 9.74909 14.3302C9.91262 14.0842 9.99989 13.7954 9.99995 13.5C9.99995 13.1022 9.84192 12.7206 9.56061 12.4393C9.27931 12.158 8.89778 12 8.49995 12H8.46995Z" fill="#0F1621"/>
</svg>
