<svg width="24" height="24" viewBox="0 0 24 24" fill="none" xmlns="http://www.w3.org/2000/svg">
<path d="M9 8V16.32L9.1 16.63L10.23 20H8.35L6.86 16.26L6.35 15H4V8H9ZM11 6H4C3.46957 6 2.96086 6.21071 2.58579 6.58579C2.21071 6.96086 2 7.46957 2 8V15C2 15.5304 2.21071 16.0391 2.58579 16.4142C2.96086 16.7893 3.46957 17 4 17H5L7 22H13L11 16V6ZM20 4.94V17.06C18.5279 15.8176 16.8304 14.8703 15 14.27V7.73C16.8304 7.12967 18.5279 6.18242 20 4.94ZM21 2C20.8359 2.00082 20.6744 2.04203 20.53 2.12C18.92 3 16.16 6 13 6V16C16.16 16 18.92 19 20.53 19.88C20.6822 19.961 20.8527 20.0013 21.0251 19.997C21.1974 19.9927 21.3657 19.9439 21.5136 19.8553C21.6616 19.7668 21.7841 19.6415 21.8693 19.4916C21.9545 19.3418 21.9995 19.1724 22 19V3C22 2.73478 21.8946 2.48043 21.7071 2.29289C21.5196 2.10536 21.2652 2 21 2Z" fill="#0F1621"/>
</svg>
