<svg xmlns="http://www.w3.org/2000/svg" viewBox="0 0 24 24"><defs><style>.cls-1{opacity:0;}.cls-2{fill:none;}</style></defs><g id="Layer_2" data-name="Layer 2"><g id="System_UI_Solid" data-name="System UI Solid"><g id="reset"><g class="cls-1"><rect class="cls-2" width="24" height="24"/></g><path d="M22,13.45C22,19,19,21,15,21H12V19h3c3,0,5-1,5-5.5S18,8,15,8H6l2.5,2.54L7,12,2,7,7,2l1.5,1.5L6,6h9C19,6,22,8,22,13.45ZM5.76,16.84,3.41,14.5,2,15.91l2.34,2.35L2,20.59,3.42,22l2.34-2.34L8.09,22,9.5,20.59,7.17,18.26l2.34-2.34L8.09,14.51Z"/></g></g></g></svg>