<svg width="16" height="16" viewBox="0 0 16 16" fill="none" xmlns="http://www.w3.org/2000/svg">
<path d="M14.9999 8.37C14.9999 12 12.9999 14 9.99994 14H8.99994V12H9.99994C11.9099 12 12.9999 11 12.9999 8.37C12.9999 6.06 11.9999 5 9.99994 5H3.99994L4.99994 6L3.99994 7L0.939941 4L3.99994 1L4.99994 2L3.99994 3H9.99994C12.9999 3 14.9999 5 14.9999 8.37ZM5.99994 11L4.99994 10L3.49994 11.5L1.99994 10L0.999941 11L2.49994 12.5L0.999941 14L1.99994 15L3.49994 13.5L4.99994 15L5.99994 14L4.49994 12.5L5.99994 11Z" fill="#0F1621"/>
</svg>
