<svg width="24" height="24" viewBox="0 0 24 24" fill="none" xmlns="http://www.w3.org/2000/svg">
<path d="M15 11H9C8.20435 11 7.44129 11.3161 6.87868 11.8787C6.31607 12.4413 6 13.2044 6 14V18H18V14C18 13.2044 17.6839 12.4413 17.1213 11.8787C16.5587 11.3161 15.7956 11 15 11ZM16 16H8V14C8 13.7348 8.10536 13.4804 8.29289 13.2929C8.48043 13.1054 8.73478 13 9 13H15C15.2652 13 15.5196 13.1054 15.7071 13.2929C15.8946 13.4804 16 13.7348 16 14V16ZM19.41 2.53C19.2371 2.33199 19.0178 2.17993 18.7717 2.08743C18.5257 1.99494 18.2605 1.9649 18 2H2V20C2 20.5304 2.21071 21.0391 2.58579 21.4142C2.96086 21.7893 3.46957 22 4 22H20C20.5304 22 21.0391 21.7893 21.4142 21.4142C21.7893 21.0391 22 20.5304 22 20V7L19.41 2.53ZM8 4H16V6H8V4ZM20 20H4V4H6V8H18V4.09L20 7.54V20Z" fill="#0F1621"/>
</svg>
