<svg xmlns="http://www.w3.org/2000/svg" width="24" height="24" viewBox="0 0 24 24"><rect width="24" height="24" style="fill:none"/><path d="M20.27,12a7,7,0,0,0-.06-.93L22.1,9.48l-3-5.15-2.25.85a8.41,8.41,0,0,0-1.56-.92L14.77,2H9.18L8.64,4.26a8.5,8.5,0,0,0-1.57.92L4.86,4.34l-3,5.14,1.84,1.57a7.06,7.06,0,0,0-.05.93,7.15,7.15,0,0,0,.05.93L1.9,14.48l3,5.14,2.22-.84a8.41,8.41,0,0,0,1.56.92L9.18,22h5.59l.55-2.28a8.75,8.75,0,0,0,1.56-.92l2.25.85,3-5.13-1.88-1.59A7.14,7.14,0,0,0,20.27,12Zm-2-.71c0,.23,0,.47,0,.71s0,.48,0,.71l-.12,1.06.82.69.59.51-1.27,2.21-.66-.25-1-.4-.88.66a6.12,6.12,0,0,1-1.18.7l-.9.4-.23,1-.18.75H10.76l-.18-.75-.22-1-.9-.4a6.12,6.12,0,0,1-1.18-.7l-.88-.66-1,.4-.63.23L4.46,14.92,5,14.44l.82-.69-.12-1.06a6.32,6.32,0,0,1,0-1.42l.12-1.06L5,9.52,4.46,9,5.74,6.82l.62.23,1,.39.88-.65a6.19,6.19,0,0,1,1.19-.7l.9-.41.22-1L10.76,4H13.2l.17.75.23,1,.9.4a6.71,6.71,0,0,1,1.19.69l.88.66,1-.39.66-.25L19.53,9l-.59.49-.83.69ZM12,7.48a4.5,4.5,0,1,0,4.5,4.5A4.51,4.51,0,0,0,12,7.48Zm0,7a2.5,2.5,0,1,1,2.5-2.5A2.5,2.5,0,0,1,12,14.48Z"/></svg>