<svg xmlns="http://www.w3.org/2000/svg" viewBox="0 0 16 16"><g id="Layer_2" data-name="Layer 2"><g id="UI_16" data-name="UI 16"><g id="settings"><rect width="16" height="16" style="fill:none"/><path d="M13.5,8a5.25,5.25,0,0,0-.09-1L15,5.5,13.61,3.08l-2.09.71a5.66,5.66,0,0,0-1.66-.94L9.4,1H6.61L6.15,2.85a5.44,5.44,0,0,0-1.69,1L2.4,3.08,1,5.5,2.59,7A5.25,5.25,0,0,0,2.5,8a5.49,5.49,0,0,0,.1,1L1,10.57,2.39,13l2.1-.74a5.44,5.44,0,0,0,1.69,1L6.64,15H9.43l.33-1.79a5.64,5.64,0,0,0,1.79-1l2,.7L15,10.5,13.41,9A4.91,4.91,0,0,0,13.5,8ZM8,11a3,3,0,1,1,3-3A3,3,0,0,1,8,11Z"/></g></g></g></svg>