<svg width="24" height="24" viewBox="0 0 24 24" fill="none" xmlns="http://www.w3.org/2000/svg">
<path d="M21.41 12.5L11 2H2V11L12.5 21.41C12.6857 21.596 12.9063 21.7435 13.1491 21.8441C13.3919 21.9448 13.6522 21.9966 13.915 21.9966C14.1778 21.9966 14.4381 21.9448 14.6809 21.8441C14.9237 21.7435 15.1443 21.596 15.33 21.41L21.41 15.33C21.596 15.1443 21.7435 14.9237 21.8441 14.6809C21.9448 14.4381 21.9966 14.1778 21.9966 13.915C21.9966 13.6522 21.9448 13.3919 21.8441 13.1491C21.7435 12.9063 21.596 12.6857 21.41 12.5ZM13.91 20L4 10.17V4H10.17L20 13.92L13.91 20ZM5.21 7.31L7.33 9.43L9.45 7.31L7.33 5.19L5.21 7.31Z" fill="#0F1621"/>
</svg>
