<svg xmlns="http://www.w3.org/2000/svg" viewBox="0 0 16 16"><defs><style>.cls-1{fill:none;}</style></defs><g id="Layer_2" data-name="Layer 2"><g id="UI_System_16" data-name="UI System 16"><g id="volume-off"><rect class="cls-1" width="16" height="16"/><path d="M9.24,4,7.87,5.44a3.13,3.13,0,0,1,.65.8L10,4.8h0A5.7,5.7,0,0,0,9.24,4Zm3.21,6.82a7.3,7.3,0,0,1-2,2.71L11.85,15A9.3,9.3,0,0,0,15,8.24Zm-.28-8.2L12.8,2a8.61,8.61,0,0,0-1-1L10.49,2.5a6.17,6.17,0,0,1,.87.9ZM6,3V8.76L3.46,11.3,3,11H1V5H3Zm.42,11L5,12.59,13.59,4,15,5.42Z"/></g></g></g></svg>