<svg xmlns="http://www.w3.org/2000/svg" viewBox="0 0 24 24"><defs><style>.cls-1{fill:none;}</style></defs><g id="Layer_2" data-name="Layer 2"><g id="UI_Outline" data-name="UI Outline"><g id="volume-off_outline_24px"><rect class="cls-1" width="24" height="24"/><path d="M12.24,8,10.83,9.33a3.78,3.78,0,0,1,1,1.6l1.51-1.51A5.42,5.42,0,0,0,12.24,8Zm1.41,9.59L15.07,19a9.74,9.74,0,0,0,2.83-5.66ZM16.29,6.47A9.52,9.52,0,0,0,15.07,5L13.65,6.41a7.54,7.54,0,0,1,1.19,1.51Zm5.48,3L20,11.27c0,.24,0,.48,0,.73a12.14,12.14,0,0,1-3.52,8.57L17.9,22A14.21,14.21,0,0,0,22,12,14.09,14.09,0,0,0,21.77,9.47ZM19.22,3.55h0A16.22,16.22,0,0,0,17.9,2L16.48,3.43A11.44,11.44,0,0,1,17.78,5ZM5,8H2v9H5l.51.25L7,15.76l-1.11-.55L5.47,15H4V10H5.67l.53-.4L7,9v6.76l2-2V5ZM20.59,5,22,6.41,7.42,21,6,19.58Z"/></g></g></g></svg>