<svg xmlns="http://www.w3.org/2000/svg" viewBox="0 0 24 24"><defs><style>.cls-1{fill:none;}</style></defs><g id="Layer_2" data-name="Layer 2"><g id="UI_Solid" data-name="UI Solid"><g id="volume-high_solid_24px"><rect class="cls-1" width="24" height="24"/><path d="M14,12a5.45,5.45,0,0,0-1.76-4L10.83,9.33a3.63,3.63,0,0,1,0,5.34L12.24,16A5.45,5.45,0,0,0,14,12Zm4,0a9.82,9.82,0,0,0-2.93-7L13.65,6.41a7.82,7.82,0,0,1,0,11.18L15.07,19A9.82,9.82,0,0,0,18,12Zm4,0A14.21,14.21,0,0,0,17.9,2L16.48,3.43a12.19,12.19,0,0,1,0,17.14L17.9,22A14.21,14.21,0,0,0,22,12ZM9,5V19L5,17H2V8H5Z"/></g></g></g></svg>