<svg width="16" height="16" viewBox="0 0 16 16" fill="none" xmlns="http://www.w3.org/2000/svg">
<path d="M11 8C10.9955 7.24839 10.837 6.50567 10.5343 5.81769C10.2316 5.12972 9.79111 4.51109 9.24 4L7.87 5.44C8.22666 5.76429 8.51162 6.15953 8.70662 6.60038C8.90161 7.04122 9.00234 7.51795 9.00234 8C9.00234 8.48205 8.90161 8.95878 8.70662 9.39962C8.51162 9.84047 8.22666 10.2357 7.87 10.56L9.24 12C9.79111 11.4889 10.2316 10.8703 10.5343 10.1823C10.837 9.49433 10.9955 8.75161 11 8ZM15 8C15.0047 6.67604 14.726 5.3664 14.1827 4.15904C13.6394 2.95168 12.844 1.87456 11.85 1L10.49 2.5C11.2781 3.18339 11.91 4.02815 12.3432 4.97707C12.7763 5.92599 13.0005 6.9569 13.0005 8C13.0005 9.0431 12.7763 10.074 12.3432 11.0229C11.91 11.9719 11.2781 12.8166 10.49 13.5L11.85 15C12.844 14.1254 13.6394 13.0483 14.1827 11.841C14.726 10.6336 15.0047 9.32396 15 8ZM6 3V13L3 11H1V5H3L6 3Z" fill="#0F1621"/>
</svg>
