<svg width="24" height="24" viewBox="0 0 24 24" fill="none" xmlns="http://www.w3.org/2000/svg">
<path d="M14 12C13.9985 11.2479 13.8414 10.5043 13.5385 9.81587C13.2356 9.12747 12.7935 8.50921 12.24 8L10.83 9.33C11.1991 9.66996 11.4937 10.0827 11.6952 10.5423C11.8967 11.0019 12.0007 11.4982 12.0007 12C12.0007 12.5018 11.8967 12.9981 11.6952 13.4577C11.4937 13.9173 11.1991 14.33 10.83 14.67L12.24 16C12.7935 15.4908 13.2356 14.8725 13.5385 14.1841C13.8414 13.4957 13.9985 12.7521 14 12ZM18 12C18.0004 10.6972 17.7415 9.40733 17.2385 8.20554C16.7354 7.00376 15.9983 5.91409 15.07 5L13.65 6.41C14.3944 7.13824 14.9859 8.00784 15.3897 8.96777C15.7935 9.92769 16.0015 10.9586 16.0015 12C16.0015 13.0414 15.7935 14.0723 15.3897 15.0322C14.9859 15.9922 14.3944 16.8618 13.65 17.59L15.07 19C15.9983 18.0859 16.7354 16.9962 17.2385 15.7945C17.7415 14.5927 18.0004 13.3028 18 12ZM7 9V15.76L5.89 15.21L5.47 15H4V10H5.67L6.2 9.6L7 9ZM9 5L5 8H2V17H5L9 19V5Z" fill="#0F1621"/>
</svg>
