<svg xmlns="http://www.w3.org/2000/svg" width="24" height="24" viewBox="0 0 24 24"><rect width="24" height="24" style="fill:none"/><path d="M12,16a2,2,0,1,1-2,2A2,2,0,0,1,12,16Zm4-2.24-1.33,1.41a3.75,3.75,0,0,0-1.59-1l1.5-1.51A5.42,5.42,0,0,1,16,13.76ZM10.67,8.1,6.43,12.33l0,0L5,10.93A9.77,9.77,0,0,1,10.67,8.1ZM19,10.93l-1.41,1.42a7.54,7.54,0,0,0-1.51-1.19l1.45-1.45A9.52,9.52,0,0,1,19,10.93Zm-4.46-6.7L12.74,6c-.24,0-.49,0-.74,0A12.14,12.14,0,0,0,3.43,9.52L2,8.1A14.23,14.23,0,0,1,14.54,4.23ZM22,8.1,20.57,9.52A11.92,11.92,0,0,0,19,8.23l1.44-1.45A16.22,16.22,0,0,1,22,8.1ZM5,16.58,6.42,18,21,3.41,19.6,2Z"/></svg>