<svg xmlns="http://www.w3.org/2000/svg" width="24" height="24" viewBox="0 0 24 24"><rect width="24" height="24" style="fill:none"/><path d="M12,16a2,2,0,1,1-2,2A2,2,0,0,1,12,16ZM21.19,4.22,19.78,2.81,4.29,18.29l1.42,1.42ZM11.13,10.05a7.89,7.89,0,0,0-4.82,2.29L4.89,10.93A9.93,9.93,0,0,1,12,8a10.57,10.57,0,0,1,1.14.07Zm6.16-.51A10.47,10.47,0,0,1,19,10.93l-1.42,1.41A8,8,0,0,0,15.83,11Zm-13.81,0L2.07,8.1A14,14,0,0,1,16.42,4.75L14.81,6.36A12,12,0,0,0,3.48,9.51ZM21.86,8.1,20.45,9.51A12.63,12.63,0,0,0,18.73,8.1l1.43-1.43A14.31,14.31,0,0,1,21.86,8.1Zm-7.52,4.39a6,6,0,0,1,1.87,1.27l-1.42,1.41a3.89,3.89,0,0,0-2.07-1.06Z"/></svg>