<svg xmlns="http://www.w3.org/2000/svg" width="16" height="16" viewBox="0 0 16 16"><rect width="16" height="16" style="fill:none"/><path d="M14.33,2.94,3.12,14.15,2.06,13.09,13.27,1.88ZM6.57,7.17A5.92,5.92,0,0,0,3.73,8.76l.63.62ZM8,5A5.85,5.85,0,0,1,8.7,5l1.72-1.73A10,10,0,0,0,.9,5.93L2.32,7.34A7.94,7.94,0,0,1,8,5Zm5.83-.12L12.37,6.32a7.61,7.61,0,0,1,1.26,1L15,5.93A9.56,9.56,0,0,0,13.8,4.88ZM9.39,9.29a3.86,3.86,0,0,1,1.41.88l1.42-1.41a6.19,6.19,0,0,0-1.31-1ZM8,11.5A1.5,1.5,0,1,0,9.47,13,1.5,1.5,0,0,0,8,11.5Z"/></svg>