<svg width="24" height="24" viewBox="0 0 24 24" fill="none" xmlns="http://www.w3.org/2000/svg">
<path d="M12 2C10.0222 2 8.08879 2.58649 6.4443 3.6853C4.79981 4.78412 3.51809 6.3459 2.76121 8.17317C2.00433 10.0004 1.8063 12.0111 2.19215 13.9509C2.578 15.8907 3.53041 17.6725 4.92894 19.0711C6.32746 20.4696 8.10929 21.422 10.0491 21.8079C11.9889 22.1937 13.9996 21.9957 15.8268 21.2388C17.6541 20.4819 19.2159 19.2002 20.3147 17.5557C21.4135 15.9112 22 13.9778 22 12C22 10.6868 21.7413 9.38642 21.2388 8.17317C20.7363 6.95991 19.9997 5.85752 19.0711 4.92893C18.1425 4.00035 17.0401 3.26375 15.8268 2.7612C14.6136 2.25866 13.3132 2 12 2ZM12 4C13.9473 4.00177 15.8271 4.71372 17.287 6.0024C18.7469 7.29107 19.6866 9.06798 19.93 11H16.5L14 14.31L9 7.24L6.46 11H4.07C4.31342 9.06798 5.25315 7.29107 6.71304 6.0024C8.17292 4.71372 10.0527 4.00177 12 4ZM12 20C10.0527 19.9982 8.17292 19.2863 6.71304 17.9976C5.25315 16.7089 4.31342 14.932 4.07 13H7.54L9 10.76L14 17.69L17.5 13H19.93C19.6866 14.932 18.7469 16.7089 17.287 17.9976C15.8271 19.2863 13.9473 19.9982 12 20Z" fill="#0F1621"/>
</svg>
