<svg width="24" height="24" viewBox="0 0 24 24" fill="none" xmlns="http://www.w3.org/2000/svg">
<path d="M12 5C10.6868 5 9.38642 5.25866 8.17317 5.7612C6.95991 6.26375 5.85752 7.00035 4.92893 7.92893C3.05357 9.8043 2 12.3478 2 15C1.99813 16.3773 2.28425 17.7398 2.84 19L9 17.65C9.37576 18.0749 9.83757 18.4149 10.3548 18.6477C10.872 18.8804 11.4328 19.0005 12 19C12.5664 19.0018 13.1268 18.8833 13.6439 18.6522C14.1611 18.4212 14.6233 18.083 15 17.66L21.15 19C21.7109 17.7411 22.0005 16.3782 22 15C22 12.3478 20.9464 9.8043 19.0711 7.92893C17.1957 6.05357 14.6522 5 12 5ZM13.93 14.49C13.9743 14.6565 13.9978 14.8278 14 15C14 15.3956 13.8827 15.7822 13.6629 16.1111C13.4432 16.44 13.1308 16.6964 12.7654 16.8478C12.3999 16.9991 11.9978 17.0387 11.6098 16.9616C11.2219 16.8844 10.8655 16.6939 10.5858 16.4142C10.3061 16.1345 10.1156 15.7781 10.0384 15.3902C9.96126 15.0022 10.0009 14.6001 10.1522 14.2346C10.3036 13.8692 10.56 13.5568 10.8889 13.3371C11.2178 13.1173 11.6044 13 12 13C12.1722 13.0022 12.3435 13.0257 12.51 13.07L15 10.64L16.41 12.05L13.93 14.49Z" fill="#0F1621"/>
</svg>
