<svg width="16" height="16" viewBox="0 0 16 16" fill="none" xmlns="http://www.w3.org/2000/svg">
<path d="M15 7H9V1C10.5913 1 12.1174 1.63214 13.2426 2.75736C14.3679 3.88258 15 5.4087 15 7ZM7 3C5.81331 3 4.65328 3.35189 3.66658 4.01118C2.67989 4.67047 1.91085 5.60754 1.45673 6.7039C1.0026 7.80026 0.88378 9.00666 1.11529 10.1705C1.3468 11.3344 1.91825 12.4035 2.75736 13.2426C3.59648 14.0818 4.66558 14.6532 5.82946 14.8847C6.99335 15.1162 8.19975 14.9974 9.2961 14.5433C10.3925 14.0892 11.3295 13.3201 11.9888 12.3334C12.6481 11.3467 13 10.1867 13 9H7V3Z" fill="#0F1621"/>
</svg>
