<svg width="24" height="24" viewBox="0 0 24 24" fill="none" xmlns="http://www.w3.org/2000/svg">
<path d="M21 10H14V3C15.8565 3 17.637 3.7375 18.9498 5.05025C20.2625 6.36301 21 8.14348 21 10ZM11 13V5C9.41775 5 7.87103 5.46919 6.55544 6.34824C5.23985 7.22729 4.21447 8.47672 3.60897 9.93853C3.00347 11.4003 2.84504 13.0089 3.15372 14.5607C3.4624 16.1126 4.22433 17.538 5.34315 18.6569C6.46197 19.7757 7.88743 20.5376 9.43928 20.8463C10.9911 21.155 12.5997 20.9965 14.0615 20.391C15.5233 19.7855 16.7727 18.7602 17.6518 17.4446C18.5308 16.129 19 14.5823 19 13H11Z" fill="#0F1621"/>
</svg>
