<svg width="16" height="16" viewBox="0 0 16 16" fill="none" xmlns="http://www.w3.org/2000/svg">
<path d="M14.0002 7.33337H8.00016V4.66671H12.6668C13.0205 4.66671 13.3596 4.80718 13.6096 5.05723C13.8597 5.30728 14.0002 5.64642 14.0002 6.00004V7.33337ZM4.00016 7.33337V6.00004C4.00016 5.64642 4.14064 5.30728 4.39069 5.05723C4.64074 4.80718 4.97987 4.66671 5.3335 4.66671C5.68712 4.66671 6.02626 4.80718 6.27631 5.05723C6.52635 5.30728 6.66683 5.64642 6.66683 6.00004V7.33337H4.00016ZM14.6668 9.16671C14.6651 9.03464 14.6119 8.90846 14.5185 8.81506C14.4251 8.72167 14.2989 8.66843 14.1668 8.66671H2.66683V3.33337H1.3335V13.3334H2.66683V11.3334H13.3335V13.3334H14.6668V9.16671Z" fill="#0F1621"/>
</svg>
