<svg width="24" height="24" viewBox="0 0 24 24" fill="none" xmlns="http://www.w3.org/2000/svg">
<path d="M21.0166 11H12.0166V7H19.0166C19.547 7 20.0557 7.21071 20.4308 7.58579C20.8059 7.96086 21.0166 8.46957 21.0166 9V11ZM6.0166 11V9C6.0166 8.46957 6.22731 7.96086 6.60239 7.58579C6.97746 7.21071 7.48617 7 8.0166 7C8.54703 7 9.05574 7.21071 9.43081 7.58579C9.80589 7.96086 10.0166 8.46957 10.0166 9V11H6.0166ZM22.0166 13.75C22.014 13.5519 21.9342 13.3626 21.7941 13.2225C21.654 13.0824 21.4647 13.0026 21.2666 13H4.0166V5H2.0166V20H4.0166V17H20.0166V20H22.0166V13.75Z" fill="#0F1621"/>
</svg>
