<svg width="24" height="24" viewBox="0 0 24 24" fill="none" xmlns="http://www.w3.org/2000/svg">
<path d="M5 3.29999L3 5.29999L8.20001 10.3L12.5 5.69998L5 3.29999ZM20.4 4.19998C20.3 5.19998 19.9 6.49999 19.6 6.89999L17.6 9L16.8 9.79999L17 10.9L18.4 17.2L15.6 13.2L14.4 11.5L12.8 12.7L8.79999 15.7L8.70001 15.8V15.6H8.5C11.7 12 16.7 6.39998 17.4 5.69998C17.8 5.29998 19.3 4.49998 20.4 4.19998ZM21.1 2C19.5 2 16.8 3.49999 16 4.29999C15 5.29999 7 14.3 7 14.3L3.39999 14.9L2 16.3L7 17.3L8 22.3L9.39999 20.9L10 17.3L14 14.3L19 21.3L21 19.3L19 10.4L21 8.29999C22 7.29999 23 3.29999 22 2.29999C21.8 2.09999 21.5 2 21.1 2Z" fill="#0F1621"/>
</svg>
