<svg width="24" height="24" viewBox="0 0 24 24" fill="none" xmlns="http://www.w3.org/2000/svg">
<path d="M21.3167 4.34164C21.7355 4.13226 22 3.70426 22 3.23607C22 2.55341 21.4466 2 20.7639 2H18.695C17.9119 2 17.1424 2.20437 16.4624 2.59291L14 4L5.5 2L3 3.5L9.5 7L7 8.5L3.5 8L2 9L7 11.5L21.3167 4.34164Z" fill="#0E1520"/>
<path d="M12.5 13H18V10H12.5V13Z" fill="#0E1520"/>
<path d="M5 18H18.9999L19 22H17L16.9999 20H7L7.00012 22H5.00012L5 18Z" fill="#0E1520"/>
<path d="M6 17H11.5V14H6V17Z" fill="#0E1520"/>
<path d="M18 17L18 14H12.5L12.5 17H18Z" fill="#0E1520"/>
</svg>
