<svg width="16" height="16" viewBox="0 0 16 16" fill="none" xmlns="http://www.w3.org/2000/svg">
<path d="M4 7.75L14.6228 2.55807C14.9049 2.42828 15.0889 2.14971 15.0977 1.83931C15.1106 1.37963 14.7415 1 14.2816 1H12.8137C12.3339 1 11.861 1.11509 11.4349 1.33562L9.25 2.5L3 1L1.5 2L6 4.5L4.5 5.5L2 5.25L1 6L4 7.75Z" fill="#0E1520"/>
<path d="M12 9V7H8.5V9H12Z" fill="#0E1520"/>
<path d="M13 15H11.5L11.5 14H4.5V15H3V13H13V15Z" fill="#0E1520"/>
<path d="M4 12H7.5V10H4V12Z" fill="#0E1520"/>
<path d="M12 12V10H8.5V12H12Z" fill="#0E1520"/>
</svg>
