<svg width="16" height="17" viewBox="0 0 16 17" fill="none" xmlns="http://www.w3.org/2000/svg">
<path fill-rule="evenodd" clip-rule="evenodd" d="M5.49998 14.5C6.50071 13.1657 6.59803 11.5956 6.41229 10.5586C7.19224 10.59 8.31804 10.544 9.50841 10.1918C9.5758 11.1019 10.0379 13.5 10.5 13.5C11.3775 13.5 12.64 10.805 12.9361 8.45549C11.8279 8.35807 10.8453 8.09606 10.0049 7.62329C8.89373 6.99827 8.07286 6.02842 7.53577 4.6857L8.46424 4.31431C8.92715 5.47159 9.60628 6.25174 10.4951 6.75172C11.2325 7.16648 12.1422 7.40405 13.2444 7.47624C13.9852 5.99773 13.9921 3.95702 13.997 2.49542C13.9976 2.32144 13.9982 2.15565 14 2H13V1C12.6822 1.00338 12.3545 0.99059 12.0181 0.977459C10.412 0.91477 8.60655 0.844303 6.72833 2.4881C6.70887 2.50625 6.68959 2.52448 6.6705 2.54277C5.30836 2.8378 1.99997 4.58631 1.99998 5.50001C1.99998 5.96279 4.13566 6.42557 4.85559 6.4919C4.76502 7.47142 4.86288 8.39135 4.99433 9.09749C3.95836 8.89886 2.35724 8.98209 1.00012 10C1.00006 10.2435 1.67803 10.3348 2.44767 10.4386C3.25862 10.5479 4.17136 10.6709 4.49996 11C4.82839 11.3289 4.9515 12.2409 5.06091 13.0515C5.16485 13.8215 5.25644 14.5 5.49998 14.5ZM11 3.75C11 4.16422 10.6642 4.5 10.25 4.5C9.83579 4.5 9.5 4.16422 9.5 3.75C9.5 3.33579 9.83579 3 10.25 3C10.6642 3 11 3.33579 11 3.75Z" fill="#0E1520"/>
</svg>
