<svg width="24" height="25" viewBox="0 0 24 25" fill="none" xmlns="http://www.w3.org/2000/svg">
<path fill-rule="evenodd" clip-rule="evenodd" d="M4.99955 6.99969C4.9998 5.63494 8.72614 4.26998 10.904 4.03531C13.0179 2.32305 16.0266 1.99994 18.9997 1.99994L18.9997 3.49994L20.6392 3.52657C20.6392 5.62283 20.4522 7.99439 19.6663 9.93875C18.951 9.82576 18.3021 9.61662 17.7105 9.31389C16.42 8.65349 15.3218 7.50665 14.3946 5.75484L13.0688 6.4565C14.0994 8.40378 15.3943 9.81361 17.0272 10.6492C17.6306 10.958 18.2692 11.1827 18.9429 11.3289C18.9337 11.3429 18.9244 11.3567 18.915 11.3706C18.578 13.5689 17.2889 17.9999 15.9998 17.9999C15.646 17.9999 14.7912 15.9963 14.3218 14.6479C12.7259 15.1912 11.191 15.2904 10.0332 15.2484C10.191 16.7634 9.88599 18.9282 7.99977 20.5C7.6465 20.5 7.62423 19.732 7.59758 18.8127C7.56734 17.7695 7.53146 16.5316 6.99988 16C6.51647 15.5166 5.44892 15.3837 4.4749 15.2625C3.43395 15.1329 2.49983 15.0166 2.49976 14.5C4.03587 12.964 6.13815 12.7492 7.64698 12.9279C7.54661 11.7761 7.56083 10.2608 7.98603 8.69005C6.78332 8.22332 4.99949 7.35663 4.99955 6.99969ZM17.2083 4.113C17.6181 4.52279 17.6181 5.18718 17.2083 5.59696C16.7985 6.00674 16.1341 6.00674 15.7243 5.59696C15.3145 5.18718 15.3145 4.52279 15.7243 4.113C16.1341 3.70322 16.7985 3.70322 17.2083 4.113Z" fill="#0E1520"/>
</svg>
