<svg width="24" height="25" viewBox="0 0 24 25" fill="none" xmlns="http://www.w3.org/2000/svg">
<path d="M4.99974 6.99968C4.99998 5.63493 8.72633 4.26998 10.9042 4.0353C13.0181 2.32305 16.0268 1.99994 18.9999 1.99994V3.49994L20.6394 3.52657C20.6394 5.678 20.4424 8.11941 19.6032 10.0914C18.7413 9.96179 17.9863 9.74947 17.3103 9.44222C16.0841 8.88487 15.0605 7.9888 14.124 6.58397L12.8759 7.41602C13.9394 9.01119 15.1658 10.1151 16.6896 10.8078C17.3745 11.1191 18.1075 11.3418 18.8959 11.4923C18.5314 13.7281 17.2656 17.9999 15.9999 17.9999C15.6461 17.9999 14.7913 15.9963 14.3219 14.6479C12.726 15.1913 11.1911 15.2904 10.0334 15.2484C10.1911 16.7634 9.88611 18.9282 7.99989 20.5C7.64662 20.5 7.62436 19.732 7.59771 18.8127C7.56747 17.7695 7.53158 16.5316 7 16C6.51659 15.5166 5.44904 15.3837 4.47502 15.2625C3.43407 15.1329 2.49995 15.0166 2.49988 14.5C4.03601 12.964 6.13833 12.7492 7.64716 12.9279C7.54679 11.7761 7.56102 10.2608 7.98621 8.69005C6.78351 8.22331 4.99967 7.35663 4.99974 6.99968ZM17.2085 4.113C16.7987 3.70322 16.1343 3.70322 15.7245 4.113C15.3147 4.52279 15.3147 5.18718 15.7245 5.59696C16.1343 6.00674 16.7987 6.00674 17.2085 5.59696C17.6182 5.18718 17.6183 4.52279 17.2085 4.113Z" fill="#0E1520"/>
</svg>
