<svg width="24" height="24" viewBox="0 0 24 24" fill="none" xmlns="http://www.w3.org/2000/svg">
<path d="M17 4C17.5523 4 18 3.55228 18 3C18 2.44772 17.5523 2 17 2C16.4477 2 16 2.44772 16 3C16 3.55228 16.4477 4 17 4Z" fill="#0E1520"/>
<path d="M20.4999 4C19.4999 5 18.4999 5.5 16.9999 5.5C14.9999 5.5 13.4363 4.64888 11.9999 3.5C12.4999 6 13.9999 8 16.9999 8C19.636 8 20.7278 6.84189 21.6324 5.88247C21.7572 5.75009 21.8787 5.62125 21.9999 5.5L20.4999 4Z" fill="#0E1520"/>
<path d="M5 9C6.5 7.5 7.5 7 8.5 7C9.96954 7 10.5 8.00944 10.5 9C10.5 9.99056 10 10.5 9.5 11C8.44613 11.8392 7.5 12 5.95173 11.9525L7 14C9.02069 14 10.5 15.0262 10.5 16.5C10.5 17.9738 9.60434 19 8 19C4.4726 19 2.40116 15.9199 2.00001 12.7861C1.9998 14.2792 1.99949 16.5583 2.72501 18.4004C3.10375 19.362 3.69916 20.2804 4.63974 20.954C5.58718 21.6325 6.42753 22 8 22C10.0969 22 11.3114 21.2165 12.1481 20.0772C12.9195 19.0269 13.1285 17.7337 12.9291 16.5262C12.7285 15.3117 11.8838 14.3696 10.6844 13.4915C14.4949 13.3944 15.4756 12.4808 16.2194 11.7877C16.6894 11.3498 17.0649 11 18.0001 11C19.5001 11 20.5001 12 20.5001 14.5C20.5001 17 19.5001 18 18.0001 18C16.0001 18 15.0001 17 14.0001 15C14.0001 18 15.0001 21 18.0001 21C21.0001 21 22.0001 18 21.9896 14.5C21.9792 11 20.5001 9 18 9C15.5 9 14.75 10 14.0001 11C13.2501 12 12.5001 13 10.0001 13H9.96957C11.5421 11.9762 12.5 10.5162 12.5 8.99999C12.5 6.94488 11.3463 5.59794 9.33872 5.10783C7.65415 4.69658 5 5.00001 3.5 6.5L5 9Z" fill="#0E1520"/>
</svg>
