<svg width="16" height="16" viewBox="0 0 16 16" fill="none" xmlns="http://www.w3.org/2000/svg">
<path d="M11.5001 2.5C11.9143 2.5 12.2501 2.16421 12.2501 1.75C12.2501 1.33579 11.9143 1 11.5001 1C11.0859 1 10.7501 1.33579 10.7501 1.75C10.7501 2.16421 11.0859 2.5 11.5001 2.5Z" fill="#0E1520"/>
<path d="M13.8162 2.19124C13.3639 2.67094 12.818 3.25 11.5 3.25C9.99994 3.25 8.50543 2.80422 7.49995 2C8.10683 3.61835 9.49994 5 11.4999 5C13.4487 5 14.4999 4 14.9999 3.5L13.9999 2C13.9393 2.0606 13.8786 2.12507 13.8162 2.19124Z" fill="#0E1520"/>
<path d="M3.1 5.90001C4.15 4.85001 4.85 4.50001 5.55 4.50001C6.57868 4.50001 6.95 5.20662 6.95 5.90001C6.95 6.5934 6.6 6.95001 6.25 7.3C5.51229 7.88744 4.85 8 3.76621 7.96673L4.5 9.4C5.91449 9.4 6.95 10.1183 6.95 11.15C6.95 12.1817 6.32304 12.9 5.2 12.9C2.73082 12.9 1.28081 10.744 1 8.55027C0.999862 9.59548 0.999643 11.1909 1.50751 12.4803C1.77262 13.1534 2.18941 13.7963 2.84782 14.2678C3.51103 14.7427 4.09927 15 5.2 15C6.66782 15 7.51795 14.4516 8.10366 13.6541C8.64362 12.9188 8.78996 12.0136 8.65035 11.1683C8.50605 10.2947 7.88557 9.62235 7.00877 8.99314C9.29432 8.92926 9.95798 8.43151 10.496 8.028C10.88 7.74 11.2 7.5 12 7.5C13.2703 7.5 14 8 14 10C14 11 13 12 12 12C11 12 10 11.5 9.5 10C9.5 12 10.5 14 12 14C14 14 15 12.5 15 10C15 7 13.5 6 12 6C10.6322 6 10.1129 6.56525 9.56827 7.1582C9.01072 7.76518 8.42652 8.40117 6.87811 8.48958C7.79986 7.79048 8.35 6.8614 8.35 5.9C8.35 4.46142 7.5424 3.51857 6.1371 3.17549C4.95791 2.88761 3.1 3.10002 2.05 4.15001L3.1 5.90001Z" fill="#0E1520"/>
</svg>
