<svg width="16" height="16" viewBox="0 0 16 16" fill="none" xmlns="http://www.w3.org/2000/svg">
<path d="M6.50016 6.49998H9.50016V7.49998H6.50016V6.49998ZM14.6668 3.33331V4.66665C14.6668 5.19708 14.4561 5.70579 14.081 6.08086C13.706 6.45593 13.1973 6.66665 12.6668 6.66665H12.0002V14.6666H4.00016V6.66665H3.3335C2.80306 6.66665 2.29436 6.45593 1.91928 6.08086C1.54421 5.70579 1.3335 5.19708 1.3335 4.66665V3.33331C1.3335 2.80288 1.54421 2.29417 1.91928 1.9191C2.29436 1.54403 2.80306 1.33331 3.3335 1.33331H12.6668C13.1973 1.33331 13.706 1.54403 14.081 1.9191C14.4561 2.29417 14.6668 2.80288 14.6668 3.33331ZM10.6668 10.6666H5.3335V11.3333L6.66683 12.6666H7.3335V12H10.6668V10.6666ZM10.6668 5.99998C10.6668 5.82317 10.5966 5.6536 10.4716 5.52858C10.3465 5.40355 10.177 5.33331 10.0002 5.33331H6.00016C5.82335 5.33331 5.65378 5.40355 5.52876 5.52858C5.40373 5.6536 5.3335 5.82317 5.3335 5.99998V7.99998C5.3335 8.17679 5.40373 8.34636 5.52876 8.47138C5.65378 8.59641 5.82335 8.66665 6.00016 8.66665H10.0002C10.177 8.66665 10.3465 8.59641 10.4716 8.47138C10.5966 8.34636 10.6668 8.17679 10.6668 7.99998V5.99998ZM13.3335 2.66665H2.66683V5.33331H4.00016V3.99998H12.0002V5.33331H13.3335V2.66665Z" fill="#0F1621"/>
</svg>
