<svg width="24" height="24" viewBox="0 0 24 24" fill="none" xmlns="http://www.w3.org/2000/svg">
<path d="M11 6H21.9V17C21.9 18.7 20.6 20 18.9 20H5C3.3 20 2 18.7 2 17V6H4V4H11V6ZM20 17V8H9V6H6V7.90002H4V16.9C4 17.5 4.4 17.9 5 17.9H19C19.6 18 20 17.6 20 17ZM6 12V10H9V11.9L6 12ZM17.9 11.9C18.7 14.9 16 17.6 13 16.8C11.7 16.4 10.6 15.4 10.2 14C9.4 11 12.1 8.29998 15.1 9.09998C16.4 9.49998 17.5 10.6 17.9 11.9ZM16 13C16 11.9 15.1 11 14 11C12.9 11 12 11.9 12 13C12 14.1 12.9 15 14 15C15.1 15 16 14.1 16 13Z" fill="#0F1621"/>
</svg>
