<svg width="16" height="16" viewBox="0 0 16 16" fill="none" xmlns="http://www.w3.org/2000/svg">
<path d="M11.9997 8.33329C11.9997 8.66293 11.9019 8.98516 11.7188 9.25924C11.5357 9.53333 11.2754 9.74695 10.9708 9.87309C10.6663 9.99924 10.3312 10.0322 10.0079 9.96794C9.68456 9.90363 9.38758 9.74489 9.1545 9.5118C8.92141 9.27872 8.76267 8.98175 8.69837 8.65844C8.63406 8.33514 8.66706 8.00003 8.79321 7.69549C8.91935 7.39094 9.13298 7.13065 9.40706 6.94751C9.68114 6.76437 10.0034 6.66663 10.333 6.66663C10.775 6.66663 11.199 6.84222 11.5115 7.15478C11.8241 7.46734 11.9997 7.89127 11.9997 8.33329ZM14.6663 3.99996V11.3333C14.6663 11.6869 14.5259 12.0261 14.2758 12.2761C14.0258 12.5261 13.6866 12.6666 13.333 12.6666H2.66634C2.31272 12.6666 1.97358 12.5261 1.72353 12.2761C1.47348 12.0261 1.33301 11.6869 1.33301 11.3333V3.99996H3.33301V2.66663H5.99967V3.99996H14.6663ZM5.99967 5.33329H3.33301V6.66663H5.99967V5.33329ZM13.333 8.33329C13.333 7.73995 13.1571 7.15993 12.8274 6.66658C12.4978 6.17323 12.0292 5.78872 11.4811 5.56165C10.9329 5.33459 10.3297 5.27518 9.74774 5.39094C9.16579 5.50669 8.63125 5.79242 8.21169 6.21197C7.79213 6.63153 7.50641 7.16608 7.39065 7.74802C7.2749 8.32996 7.33431 8.93316 7.56137 9.48134C7.78843 10.0295 8.17295 10.4981 8.6663 10.8277C9.15965 11.1573 9.73966 11.3333 10.333 11.3333C10.7272 11.3342 11.1177 11.2572 11.4821 11.1067C11.8465 10.9563 12.1775 10.7353 12.4563 10.4566C12.735 10.1778 12.956 9.84676 13.1064 9.48238C13.2569 9.11801 13.3339 8.72751 13.333 8.33329Z" fill="#0F1621"/>
</svg>
