<svg width="16" height="16" viewBox="0 0 16 16" fill="none" xmlns="http://www.w3.org/2000/svg">
<path d="M4.50014 10.5L10.0001 3.5H12.5001L12.5001 6L5.50008 11.5L4.50014 10.5Z" fill="#0F1621"/>
<path d="M3.49996 9.5L6.50011 1.5L8.50011 1L9.00011 3L4.20706 10.2071L3.49996 9.5Z" fill="#0F1621"/>
<path d="M5.79298 11.7929L13 7L14.9749 7.70711L14.5001 9.5L6.50008 12.5L5.79298 11.7929Z" fill="#0F1621"/>
<path d="M3.00003 10L6.00003 13L5.00003 14L2.00003 11L3.00003 10Z" fill="#0F1621"/>
<path d="M1.64481 14.35C2.64481 15.35 3.9377 15.0571 4.64481 14.35L1.64481 11.35C0.937702 12.0571 0.64481 13.35 1.64481 14.35Z" fill="#0F1621"/>
</svg>
