<svg width="16" height="16" viewBox="0 0 16 16" fill="none" xmlns="http://www.w3.org/2000/svg">
<path d="M5.5 9.50002L10 4H12V6L6.5 10.5L5.5 9.50002Z" fill="#0F1621"/>
<path d="M4.49999 8.5L6.49999 2L7.99999 1L8.99999 3L4.99999 9L4.49999 8.5Z" fill="#0F1621"/>
<path d="M6.99999 11L13 7.00002L15 8.00002L14 9.50002L7.49999 11.5L6.99999 11Z" fill="#0F1621"/>
<path d="M4.04365 9.09832L6.90188 11.9565L5.94914 12.9093L3.09091 10.0511L4.04365 9.09832Z" fill="#0F1621"/>
<path d="M2.61434 13.3857C3.56708 14.3384 4.79888 14.0594 5.47257 13.3857L2.61434 10.5274C1.94065 11.2011 1.66159 12.4329 2.61434 13.3857Z" fill="#0F1621"/>
</svg>
