<svg width="24" height="24" viewBox="0 0 24 24" fill="none" xmlns="http://www.w3.org/2000/svg">
<path d="M2.99999 20.9999C4.99998 22.9999 6.49998 21.4999 7.49998 20.4999L3.49999 16.4999C2.49999 17.4999 0.999985 18.9999 2.99999 20.9999Z" fill="#0F1621"/>
<path d="M4.99999 15L8.99998 19L7.99998 20L3.99999 16L4.99999 15Z" fill="#0F1621"/>
<path d="M6.99977 16.0001L14 6.00018L18 6.00015L18 10.0002L7.99977 17.0001L6.99977 16.0001Z" fill="#0F1621"/>
<path d="M8.49987 17.5001L19 11.0002L22 12.0002L21.5 14.0002L9.49987 18.5001L8.49987 17.5001Z" fill="#0F1621"/>
<path d="M5.49999 14.5L9.99999 2.5L12 2L13 5L6.49999 15.5L5.49999 14.5Z" fill="#0F1621"/>
</svg>
