<svg width="24" height="24" viewBox="0 0 24 24" fill="none" xmlns="http://www.w3.org/2000/svg">
<path d="M7.92747 20.0009L3.9279 16.0013L4.9278 15.0014L8.92737 19.001L7.92747 20.0009ZM18.2496 10.4342L21.8707 11.47L21.145 15.0974L9.56197 18.558L5.43603 14.432L8.90734 2.85425L12.5306 2.12988L13.565 5.74966L18.2496 5.75104V10.4342ZM17.6205 11.8146L10 17L19.8544 13.9035L20.1292 12.5321L17.6205 11.8146ZM13.4069 7.25019L8 15L9 16L16.7497 10.5917L16.7497 7.25088L13.4069 7.25019ZM10.093 4.14624L7 14L12.1846 6.37874L11.4685 3.87141L10.093 4.14624Z" fill="#0F1621"/>
<path d="M3 21C5 23 6.5 21.5 7.5 20.5L3.5 16.5C2.5 17.5 1 19 3 21Z" fill="#0F1621"/>
</svg>
