<svg width="16" height="16" viewBox="0 0 16 16" fill="none" xmlns="http://www.w3.org/2000/svg">
<path d="M5.15702 4.09068C5.06531 3.74678 5.23249 3.39251 5.57514 3.29623C6.06747 3.1579 6.87559 3 7.99951 3C9.12343 3 9.93155 3.1579 10.4239 3.29623C10.7665 3.39251 10.9337 3.74678 10.842 4.09068L9.14797 10.4432C9.06042 10.7716 8.76308 11 8.4233 11H7.57571C7.23593 11 6.93859 10.7716 6.85104 10.4432L5.15702 4.09068Z" fill="#0F1621"/>
<path d="M4.1413 4.92553C4.06059 4.68341 3.81151 4.5499 3.58212 4.66174C3.24858 4.82437 2.73978 5.13946 2.147 5.73227C1.64531 6.23397 1.36149 6.54469 1.20166 6.73285C1.07019 6.88763 1.09329 7.09383 1.23688 7.23743L4.74463 10.7452C4.89681 10.8974 5.12929 10.9351 5.32179 10.8388L5.61159 10.6939C5.83415 10.5827 5.94101 10.3247 5.86233 10.0886L4.1413 4.92553Z" fill="#0F1621"/>
<path d="M1.65939 9.14217C1.56733 9.06033 1.43259 9.06265 1.36697 9.1669C1.21886 9.4022 0.999512 9.91841 0.999512 10.912C0.999512 11.7806 1.16717 12.5111 1.30831 12.9722C1.37171 13.1793 1.64361 13.1859 1.74457 12.9943C1.93339 12.636 2.21033 12.174 2.49951 11.912C2.8132 11.6278 3.2035 11.3544 3.4637 11.1824C3.6042 11.0895 3.62175 10.8865 3.49586 10.7746L1.65939 9.14217Z" fill="#0F1621"/>
<path d="M11.8577 4.92552C11.9384 4.68341 12.1875 4.54989 12.4169 4.66174C12.7504 4.82437 13.2592 5.13945 13.852 5.73226C14.3537 6.23397 14.6375 6.54469 14.7973 6.73285C14.9288 6.88763 14.9057 7.09383 14.7621 7.23743L11.2543 10.7452C11.1022 10.8974 10.8697 10.9351 10.6772 10.8388L10.3874 10.6939C10.1648 10.5827 10.058 10.3247 10.1366 10.0886L11.8577 4.92552Z" fill="#0F1621"/>
<path d="M14.3396 9.14217C14.4316 9.06033 14.5664 9.06265 14.632 9.16689C14.7801 9.4022 14.9995 9.91841 14.9995 10.912C14.9995 11.7806 14.8318 12.5111 14.6907 12.9722C14.6273 13.1793 14.3554 13.1859 14.2544 12.9943C14.0656 12.636 13.7886 12.174 13.4995 11.912C13.1858 11.6278 12.7955 11.3544 12.5353 11.1824C12.3948 11.0895 12.3772 10.8865 12.5031 10.7746L14.3396 9.14217Z" fill="#0F1621"/>
</svg>
