<svg width="24" height="24" viewBox="0 0 24 24" fill="none" xmlns="http://www.w3.org/2000/svg">
<path d="M12.8677 17.4286C13.2087 17.4286 13.5319 17.3298 13.8056 17.156L15.8575 17.8398C16.2806 17.9808 16.7346 17.9241 17.103 17.7034C17.3656 17.8639 17.6343 18.0485 17.7929 18.2071C18.2865 18.7007 18.655 19.3848 18.8716 19.8706C19.0826 20.3437 19.5327 20.6033 19.9787 20.6199C20.4386 20.6369 20.9424 20.3916 21.1647 19.8658C21.4842 19.1102 22 17.6456 22 16C22 14.4778 21.56 13.4618 21.1734 12.8674L21.661 12.2714C21.8742 12.0108 22.0521 11.6035 21.9581 11.1291C21.8462 10.5642 21.4596 9.54537 20.2072 8.29295C19.1148 7.20058 18.0198 6.58553 17.3859 6.28775L17.3644 6.27784C17.34 5.68509 17.0133 5.09968 16.3764 4.82765C15.5826 4.48862 14.0777 4 12 4C9.9223 4 8.41741 4.48861 7.62359 4.82765C6.9866 5.0997 6.65993 5.68519 6.63553 6.27799L6.61435 6.28775C5.98046 6.58553 4.88551 7.20058 3.79314 8.29295C2.54072 9.54537 2.15407 10.5642 2.04214 11.1291C1.94815 11.6035 2.1261 12.0108 2.33926 12.2714L2.82675 12.8673C2.44016 13.4616 2 14.4776 2 16C2 17.6456 2.5158 19.1102 2.83531 19.8658C3.05766 20.3916 3.56146 20.6369 4.02137 20.6199C4.46738 20.6033 4.91744 20.3437 5.12841 19.8706C5.34503 19.3848 5.71355 18.7007 6.20711 18.2071C6.36578 18.0485 6.63456 17.8638 6.89722 17.7033C7.26561 17.9241 7.71966 17.9808 8.14281 17.8398L10.1945 17.156C10.4682 17.3299 10.7914 17.4286 11.1324 17.4286H12.8677ZM8.7043 6.54952C9.36878 6.30323 10.4927 6 12 6C13.5072 6 14.6312 6.30323 15.2957 6.54952L13.0161 14.2896L12.7095 15.2095C12.6853 15.2821 12.6669 15.3553 12.6542 15.4286H11.3461C11.3334 15.3553 11.315 15.2821 11.2908 15.2095L10.9823 14.2839L8.7043 6.54952ZM16.1629 15.8335L14.7819 15.3732L14.9247 14.8885L17.0906 8.39068C17.5695 8.66996 18.1806 9.09485 18.7929 9.70716C19.4911 10.4053 19.7873 10.9429 19.9119 11.2509L16.1629 15.8335ZM7.83735 15.8335L4.08842 11.2509C4.21304 10.9429 4.5092 10.4053 5.20735 9.70716C5.81967 9.09485 6.43075 8.66996 6.90969 8.39068L9.07374 14.8828L9.21819 15.3733L7.83735 15.8335ZM5.46645 16.2475C5.23029 16.4101 4.98938 16.5964 4.79289 16.7929C4.56301 17.0228 4.3577 17.2711 4.17621 17.5213C4.07223 17.0517 4 16.5332 4 16C4 15.4769 4.06982 15.0569 4.16405 14.728L5.46645 16.2475ZM18.5336 16.2475L19.836 14.728C19.9302 15.0569 20 15.4769 20 16C20 16.5332 19.9278 17.0517 19.8238 17.5213C19.6423 17.2711 19.437 17.0228 19.2072 16.7929C19.0107 16.5964 18.7698 16.4101 18.5336 16.2475Z" fill="#0F1621"/>
</svg>
