<svg width="24" height="24" viewBox="0 0 24 24" fill="none" xmlns="http://www.w3.org/2000/svg">
<path d="M8.17041 6.12485C8.07253 5.76594 8.25749 5.40043 8.61976 5.31583C9.23012 5.17328 10.318 5 12 5C13.682 5 14.7699 5.17328 15.3802 5.31583C15.7425 5.40043 15.9275 5.76594 15.8296 6.12486L13.1507 15.9473C13.0617 16.2736 12.7654 16.5 12.4272 16.5H11.5728C11.2346 16.5 10.9383 16.2736 10.8493 15.9473L8.17041 6.12485Z" fill="#0F1621"/>
<path d="M6.8642 7.34188C6.79614 7.13771 6.60386 7.01209 6.40353 7.09073C6.04585 7.23113 5.41142 7.58881 4.50023 8.5C3.47287 9.52736 2.91461 10.3202 2.66481 10.7178C2.55913 10.886 2.58241 11.0986 2.70959 11.2512L7.25834 16.7097C7.40147 16.8815 7.64122 16.9373 7.84552 16.8465L9.33542 16.1844C9.57071 16.0798 9.68812 15.8136 9.60669 15.5693L6.8642 7.34188Z" fill="#0F1621"/>
<path d="M2.84241 13.8796C2.92794 13.797 3.058 13.8128 3.13868 13.9002L5.77438 16.7556C5.88729 16.8779 5.85204 17.0757 5.70668 17.1568C5.37184 17.3436 4.8282 17.6718 4.5 18C3.87867 18.6213 3.45037 19.4357 3.21509 19.9633C3.12587 20.1634 2.84168 20.1781 2.75635 19.9763C2.46033 19.2762 2 17.9539 2 16.5C2 14.8954 2.56072 14.1519 2.84241 13.8796Z" fill="#0F1621"/>
<path d="M17.136 7.34188C17.2041 7.13771 17.3964 7.01209 17.5967 7.09073C17.9544 7.23113 18.5888 7.58881 19.5 8.5C20.5274 9.52736 21.0856 10.3202 21.3354 10.7178C21.4411 10.886 21.4178 11.0986 21.2907 11.2512L16.7419 16.7097C16.5988 16.8815 16.359 16.9373 16.1547 16.8465L14.6648 16.1844C14.4295 16.0798 14.3121 15.8136 14.3936 15.5693L17.136 7.34188Z" fill="#0F1621"/>
<path d="M21.1576 13.8796C21.0721 13.797 20.942 13.8128 20.8613 13.9002L18.2256 16.7556C18.1127 16.8779 18.148 17.0757 18.2933 17.1568C18.6282 17.3436 19.1718 17.6718 19.5 18C20.1213 18.6213 20.5496 19.4357 20.7849 19.9633C20.8741 20.1634 21.1583 20.1781 21.2437 19.9763C21.5397 19.2762 22 17.9539 22 16.5C22 14.8954 21.4393 14.1519 21.1576 13.8796Z" fill="#0F1621"/>
</svg>
