<svg width="16" height="16" viewBox="0 0 16 16" fill="none" xmlns="http://www.w3.org/2000/svg">
<path d="M9.3332 12.58V14.6667H7.3332V12.7467C6.28247 12.6727 5.29126 12.2314 4.5332 11.5L5.4532 10.4734C6.11588 11.0744 6.97859 11.4071 7.8732 11.4067C8.8732 11.4067 9.5932 10.92 9.5932 10.0067C9.5932 9.22004 9.19987 8.86671 7.7332 8.42004C5.76654 7.81337 4.9132 7.02671 4.9132 5.60004C4.9132 4.17337 5.89987 3.33337 7.3332 3.09337V1.33337H9.3332V3.16671C10.0292 3.33 10.6704 3.67243 11.1932 4.16004L10.3132 5.18004C9.73487 4.66507 8.98758 4.38039 8.2132 4.38004C7.36654 4.38004 6.75987 4.76004 6.75987 5.49337C6.75987 6.22671 7.12654 6.46671 8.68654 6.96004C10.2465 7.45337 11.4665 8.15337 11.4665 9.91337C11.469 10.5347 11.2586 11.1381 10.8705 11.6232C10.4824 12.1084 9.93988 12.446 9.3332 12.58Z" fill="#0F1621"/>
</svg>
