<svg width="24" height="24" viewBox="0 0 24 24" fill="none" xmlns="http://www.w3.org/2000/svg">
<path d="M6.18699 10.4039C5.04258 10.8583 3.91345 10.8497 3.0157 10.7001C2.67124 10.6427 2.36639 10.5644 2.11525 10.4881C2.53152 7.77961 4.05077 5.26586 6.48401 3.66052C5.81126 5.78016 5.69732 8.11575 6.18699 10.4039Z" fill="#0F1621"/>
<path d="M7.77491 9.40815C7.38736 6.9695 7.78557 4.53367 8.86073 2.50369C11.2647 1.70692 13.8361 1.8751 16.0698 2.86902C15.1209 2.97614 14.0937 3.22268 13.1044 3.71728C11.3781 4.58066 10.3893 6.02173 9.53015 7.24908C8.94945 8.07863 8.42318 8.81751 7.77491 9.40815Z" fill="#0F1621"/>
<path d="M8.85379 12.8042C8.60871 12.3026 8.40116 11.793 8.23105 11.2783C9.4566 10.4198 10.255 9.26487 10.9633 8.25292C11.854 6.98057 12.6149 5.91999 13.888 5.28338C15.2027 4.62604 16.6598 4.50422 17.8279 4.56256C18.1858 4.58047 18.5108 4.61632 18.7881 4.65543C19.3024 5.13118 19.7701 5.66895 20.1848 6.26217L8.85379 12.8042Z" fill="#0F1621"/>
<path d="M2.93503 16.2225C2.34063 14.9504 2.03494 13.6069 2 12.2709C2.22218 12.3273 2.46573 12.383 2.72819 12.4267C3.79495 12.6045 5.19906 12.6323 6.66038 12.0949C6.84928 12.6318 7.07388 13.1619 7.33317 13.6821L2.93503 16.2225Z" fill="#0F1621"/>
<path d="M19.0472 13.2507C17.9562 13.9053 16.4979 14.1961 14.8311 14.5166C13.5018 14.7722 12.0252 15.0498 10.7518 15.6325C10.3879 15.2245 10.0462 14.7863 9.73048 14.3187L21.0598 7.77771C21.3695 8.44015 21.6031 9.12105 21.7581 9.81138C21.661 10.0319 21.5446 10.2746 21.41 10.5288C20.8789 11.5319 20.0979 12.62 19.0472 13.2507Z" fill="#0F1621"/>
<path d="M6.82452 20.5589C5.66084 19.8569 4.62846 18.9088 3.81003 17.738L8.21204 15.1965C8.53741 15.6865 8.88839 16.1513 9.26333 16.5877C8.19289 17.5599 7.46561 18.9671 6.99912 20.1074C6.93655 20.2604 6.87979 20.4118 6.82452 20.5589Z" fill="#0F1621"/>
<path d="M16.4572 20.9503C13.8653 22.2449 10.9472 22.3084 8.40482 21.3312C8.47071 21.1498 8.54073 20.9605 8.61913 20.7688C9.08278 19.6356 9.71202 18.5213 10.4866 17.8413C12.2219 19.4098 14.2932 20.4795 16.4572 20.9503Z" fill="#0F1621"/>
<path d="M18.6591 19.4613C16.3653 19.3954 14.058 18.5242 12.1348 16.9597C13.0177 16.6522 14.0428 16.4498 15.1622 16.2345C16.7452 15.9301 18.5387 15.5968 19.9476 14.7516C20.7619 14.2629 21.4248 13.6027 21.9543 12.9187C21.724 15.3921 20.5794 17.7503 18.6591 19.4613Z" fill="#0F1621"/>
</svg>
