<svg width="16" height="16" viewBox="0 0 16 16" fill="none" xmlns="http://www.w3.org/2000/svg">
<path d="M6.3182 12.8789C7.54353 13.801 8.98942 14.3763 10.4947 14.5644C8.69663 15.2273 6.74529 15.1168 5.07396 14.3474C5.09647 14.3083 5.11903 14.2679 5.14384 14.2273C5.39751 13.8127 5.77479 13.3296 6.3182 12.8789Z" fill="#0F1621"/>
<path d="M7.45162 12.1437C8.36604 11.6872 9.31257 11.4796 10.3438 11.26C11.4769 11.0188 12.716 10.7588 13.9272 10.0648C14.3602 9.81654 14.712 9.50877 15 9.17265C14.7294 10.7483 13.9185 12.2214 12.6477 13.3047C10.8288 13.5676 8.97242 13.1481 7.45162 12.1437Z" fill="#0F1621"/>
<path d="M14.471 5.11295C14.664 5.53461 14.8112 5.96708 14.9146 6.40476C14.8976 6.49223 14.8795 6.58221 14.8572 6.67331C14.6437 7.54776 14.1973 8.4663 13.2975 8.98225C12.2823 9.56394 11.233 9.79241 10.0794 10.0381C8.94646 10.2793 7.70791 10.539 6.49681 11.2328C6.46182 11.2529 6.42771 11.275 6.39347 11.2954C6.05744 10.9709 5.74943 10.6107 5.47392 10.2166L14.471 5.11295Z" fill="#0F1621"/>
<path d="M4.37685 10.8385C4.67375 11.275 5.00295 11.6782 5.36312 12.0437C4.77586 12.5594 4.35735 13.1038 4.06731 13.5778C4.03757 13.6265 4.01016 13.6749 3.98301 13.722C3.33446 13.2688 2.75546 12.701 2.279 12.0271L4.37685 10.8385Z" fill="#0F1621"/>
<path d="M9.89668 3.06574C10.7197 2.59417 11.7711 2.66768 12.7158 2.92755C12.8113 2.95384 12.9041 2.9828 12.9942 3.01159C13.3067 3.31728 13.5933 3.65577 13.8498 4.02554L4.84505 9.13359C4.64177 8.70395 4.48414 8.26343 4.37 7.81696C4.53167 7.74287 4.69526 7.6599 4.85913 7.566C6.00529 6.90919 6.80531 6.00515 7.5344 5.18842C8.27922 4.35407 8.95365 3.60614 9.89668 3.06574Z" fill="#0F1621"/>
<path d="M1 8.27761C1.20495 8.31059 1.44906 8.33956 1.72416 8.34866C2.14362 8.3625 2.63743 8.33419 3.17272 8.21774C3.31247 8.73956 3.50441 9.25369 3.74883 9.75498L1.64928 10.9445C1.24671 10.0854 1.03525 9.17972 1 8.27761Z" fill="#0F1621"/>
<path d="M5.79558 1.36529C7.42136 0.819968 9.15851 0.898281 10.6919 1.51287C10.2101 1.57663 9.72529 1.7206 9.26696 1.98321C8.12071 2.64006 7.32032 3.54317 6.59119 4.35995C5.84636 5.19432 5.17244 5.94306 4.22941 6.48347C4.20632 6.4967 4.18293 6.50947 4.15989 6.52218C4.03069 4.67041 4.61124 2.81862 5.79558 1.36529Z" fill="#0F1621"/>
<path d="M3.60818 2.56008C3.00278 3.9424 2.7648 5.4713 2.93874 6.98738C2.50472 7.0854 2.10509 7.10997 1.76627 7.09879C1.4825 7.08941 1.24322 7.05278 1.06489 7.01807C1.31081 5.30472 2.19111 3.69613 3.60818 2.56008Z" fill="#0F1621"/>
</svg>
