<svg width="24" height="24" viewBox="0 0 24 24" fill="none" xmlns="http://www.w3.org/2000/svg">
<path d="M12 2C14.2334 2 16.2955 2.73238 17.96 3.96973C17.961 3.96992 17.9619 3.97051 17.9629 3.9707C18.0928 4.06706 18.2204 4.16723 18.3457 4.27051C18.3808 4.29939 18.4145 4.33003 18.4492 4.35938C18.5178 4.41749 18.587 4.47514 18.6543 4.53516L18.6533 4.53613C19.4378 5.23593 20.1098 6.05795 20.6426 6.97168C20.6482 6.98127 20.6546 6.99038 20.6602 7C20.6668 7.01143 20.6722 7.0237 20.6787 7.03516C21.2963 8.11248 21.7193 9.31452 21.8994 10.5957C21.9049 10.6341 21.909 10.6726 21.9141 10.7109C21.9302 10.8366 21.9446 10.9628 21.9561 11.0898C21.958 11.1107 21.9621 11.1314 21.9639 11.1523C21.9634 11.1534 21.9624 11.1542 21.9619 11.1553C21.9852 11.4338 22 11.7154 22 12C22 14.965 20.708 17.6268 18.6582 19.458L18.6611 19.459C18.6219 19.494 18.58 19.5261 18.54 19.5605C18.4627 19.6275 18.386 19.6952 18.3066 19.7598C18.2694 19.79 18.2311 19.8189 18.1934 19.8486C18.0984 19.9237 18.002 19.9967 17.9043 20.0684C17.865 20.0971 17.825 20.1251 17.7852 20.1533C17.6842 20.2251 17.5822 20.2952 17.4785 20.3633C17.451 20.3813 17.4233 20.3992 17.3955 20.417C17.2739 20.4951 17.1506 20.5706 17.0254 20.6436C17.0167 20.6486 17.0087 20.6551 17 20.6602C16.9836 20.6696 16.9667 20.6782 16.9502 20.6875C15.4903 21.5211 13.8015 22 12 22C10.0189 22 8.17375 21.4216 6.62012 20.4277C6.6144 20.4241 6.60825 20.4207 6.60254 20.417C5.27022 19.5608 4.15446 18.3975 3.35547 17.0264C3.35035 17.0176 3.34493 17.0088 3.33984 17C3.33168 16.9859 3.32448 16.9712 3.31641 16.957C2.53595 15.5928 2.06763 14.0284 2.00879 12.3584C2.0076 12.358 2.00607 12.3578 2.00488 12.3574C2.0016 12.2633 2.00152 12.1692 2.00098 12.0752C2.00079 12.0502 2 12.0251 2 12V11.9014C2.00114 11.8059 2.00586 11.7105 2.00977 11.6152C2.14083 8.15177 4.03056 5.13877 6.81445 3.44727L7 3.33984C7.01091 3.33354 7.02228 3.32754 7.0332 3.32129C7.16322 3.24672 7.29511 3.17526 7.42871 3.10645C7.44749 3.09677 7.46654 3.08767 7.48535 3.07812C7.61182 3.014 7.73965 2.95239 7.86914 2.89355C7.8998 2.8796 7.9302 2.86518 7.96094 2.85156C8.08434 2.797 8.209 2.74497 8.33496 2.69531C8.36489 2.68348 8.39481 2.67168 8.4248 2.66016C8.54356 2.61467 8.6633 2.57131 8.78418 2.53027C8.81129 2.52104 8.83808 2.51095 8.86523 2.50195L8.86328 2.50391C9.85001 2.17815 10.9041 2 12 2ZM10.3428 17.7041C9.81953 18.1713 9.37488 18.7802 9.00684 19.4189C9.93163 19.7924 10.9414 20 12 20C12.4926 20 12.9744 19.9534 13.4424 19.8682C12.3329 19.3071 11.2855 18.5814 10.3428 17.7041ZM19.6465 14.3574C19.2899 14.6813 18.892 14.9859 18.4502 15.251C17.011 16.1143 15.572 16.2466 14.3369 16.3701C13.4648 16.4573 12.6887 16.5413 11.9434 16.793C13.1362 17.8069 14.4872 18.5456 15.8955 18.9863C17.6748 17.9921 19.0359 16.3401 19.6465 14.3574ZM5.55078 16.7324C6.08041 17.453 6.72795 18.0807 7.46484 18.5889C7.88841 17.8463 8.43858 17.0688 9.13867 16.4336C8.81162 16.0418 8.50276 15.6289 8.21484 15.1953L5.55078 16.7324ZM9.73438 14.3184C10.0045 14.7184 10.2918 15.0985 10.5977 15.4551C11.851 14.853 13.0848 14.7377 14.1631 14.6299C15.4274 14.5034 16.4895 14.3861 17.5498 13.75C18.6301 13.1018 19.4149 12.1082 19.9375 11.2373C19.9454 11.2242 19.9522 11.2103 19.96 11.1973C19.875 10.3448 19.6545 9.53263 19.3232 8.78027L9.73438 14.3184ZM6.74707 12.3135C5.79496 12.6689 4.86469 12.763 4.0332 12.7236C4.11211 13.6037 4.33411 14.4421 4.6748 15.2168L7.33691 13.6816C7.11321 13.2328 6.91833 12.7751 6.74707 12.3135ZM16.5771 5.56152C15.554 5.50472 14.2162 5.62104 12.8916 6.2832C11.6411 6.90866 11.125 7.76509 10.5049 8.81934C9.99761 9.68171 9.4208 10.6725 8.30176 11.4824C8.45785 11.9279 8.64479 12.3685 8.85742 12.8037L18.4473 7.26562C17.9742 6.62252 17.4082 6.05239 16.7676 5.57617C16.7056 5.5713 16.642 5.56513 16.5771 5.56152ZM5.91211 6.81152C4.93052 7.96217 4.27003 9.39387 4.06738 10.9697C4.74718 11.0073 5.49247 10.931 6.24219 10.6309C5.9476 9.3602 5.84073 8.07188 5.91211 6.81152ZM12 4C10.5034 4 9.10322 4.41172 7.90527 5.12695C7.58586 6.55734 7.545 8.08224 7.81348 9.60449C8.29026 9.12251 8.62577 8.56285 8.99707 7.93164C9.62667 6.86131 10.3608 5.59116 12.1094 4.7168C12.5974 4.47286 13.085 4.2893 13.5605 4.15234C13.0558 4.05254 12.534 4 12 4Z" fill="#0F1621"/>
</svg>
