<svg width="24" height="24" viewBox="0 0 24 24" fill="none" xmlns="http://www.w3.org/2000/svg">
<path d="M13 4V2H11V4C5.9 4.3 2 8.9 2 12L2.40002 12.9C2.70002 13.6 3.40001 14 4.20001 14H7L8 12H9L10 14H11V22H13V14H14L15 12H16L17 14H19.8C20.6 14 21.2 13.6 21.6 12.9L22 12C22 8.9 18.1 4.3 13 4ZM19.8 12H18.3L17.9 11.1L17.3 10H16H15H13.8L13.2 11.1L12.8 12H11.3L10.9 11.1L10.3 10H9H8H6.79999L6.20001 11.1L5.79999 12H4.29999L4.09998 11.6C4.49998 9.60001 7.30001 6.3 11.2 6L12.1 5.89999L13 6C16.8 6.2 19.7 9.60001 20.1 11.6L19.8 12Z" fill="#0F1621"/>
</svg>
