<svg width="24" height="24" viewBox="0 0 24 24" fill="none" xmlns="http://www.w3.org/2000/svg">
<path d="M9 10C9 9 10 7 10 5.5C10 4.57174 9.63125 3.6815 8.97487 3.02513C8.3185 2.36875 7.42826 2 6.5 2C5.57174 2 4.6815 2.36875 4.02513 3.02513C3.36875 3.6815 3 4.57174 3 5.5C3 7 4 9 4 10C3.49 11.62 2 12.21 2 14C2 15.6 3.29 19.43 3.8 21.27C3.86049 21.4863 3.99203 21.6759 4.17344 21.8084C4.35485 21.9408 4.57555 22.0083 4.8 22H8.24C8.46445 22.0083 8.68515 21.9408 8.86656 21.8084C9.04797 21.6759 9.17951 21.4863 9.24 21.27C9.71 19.43 11 15.6 11 14C11 12.21 9.51 11.62 9 10ZM6.5 4C6.89782 4 7.27936 4.15804 7.56066 4.43934C7.84196 4.72064 8 5.10218 8 5.5C7.92208 6.21397 7.75753 6.9158 7.51 7.59C7.36 8.08 7.22 8.59 7.12 9H5.88C5.78 8.55 5.64 8.08 5.49 7.59C5.24247 6.9158 5.07792 6.21397 5 5.5C5 5.10218 5.15804 4.72064 5.43934 4.43934C5.72064 4.15804 6.10218 4 6.5 4ZM7.73 19.18L7.48 20H5.48L5.23 19.18C4.67288 17.4916 4.26137 15.7586 4 14C4 13.69 4.12 13.51 4.59 12.91C5.0703 12.3313 5.46747 11.6885 5.77 11H7.23C7.53253 11.6885 7.9297 12.3313 8.41 12.91C8.88 13.51 9 13.69 9 14C8.72558 15.7598 8.30069 17.4928 7.73 19.18ZM14.5 7C13.5363 6.99683 12.5814 7.18373 11.69 7.55C11.58 7.97 11.45 8.38 11.33 8.77C11.21 9.16 11.12 9.45 11.05 9.77C11.1163 9.88451 11.1898 9.99473 11.27 10.1C12.1998 9.39451 13.3329 9.00864 14.5 9C15.9587 9 17.3576 9.57946 18.3891 10.6109C19.4205 11.6424 20 13.0413 20 14.5C20 15.9587 19.4205 17.3576 18.3891 18.3891C17.3576 19.4205 15.9587 20 14.5 20C13.5794 20.0038 12.6734 19.7696 11.87 19.32C11.77 19.65 11.66 19.98 11.56 20.32C11.46 20.66 11.37 20.97 11.28 21.25C12.2812 21.7447 13.3832 22.0013 14.5 22C16.4891 22 18.3968 21.2098 19.8033 19.8033C21.2098 18.3968 22 16.4891 22 14.5C22 12.5109 21.2098 10.6032 19.8033 9.1967C18.3968 7.79018 16.4891 7 14.5 7ZM16 13C16 13.1978 15.9414 13.3911 15.8315 13.5556C15.7216 13.72 15.5654 13.8482 15.3827 13.9239C15.2 13.9996 14.9989 14.0194 14.8049 13.9808C14.6109 13.9422 14.4327 13.847 14.2929 13.7071C14.153 13.5673 14.0578 13.3891 14.0192 13.1951C13.9806 13.0011 14.0004 12.8 14.0761 12.6173C14.1518 12.4346 14.28 12.2784 14.4444 12.1685C14.6089 12.0586 14.8022 12 15 12C15.2652 12 15.5196 12.1054 15.7071 12.2929C15.8946 12.4804 16 12.7348 16 13ZM18 16C18 16.1978 17.9414 16.3911 17.8315 16.5556C17.7216 16.72 17.5654 16.8482 17.3827 16.9239C17.2 16.9996 16.9989 17.0194 16.8049 16.9808C16.6109 16.9422 16.4327 16.847 16.2929 16.7071C16.153 16.5673 16.0578 16.3891 16.0192 16.1951C15.9806 16.0011 16.0004 15.8 16.0761 15.6173C16.1518 15.4346 16.28 15.2784 16.4444 15.1685C16.6089 15.0586 16.8022 15 17 15C17.2652 15 17.5196 15.1054 17.7071 15.2929C17.8946 15.4804 18 15.7348 18 16ZM14 17C14 17.1978 13.9414 17.3911 13.8315 17.5556C13.7216 17.72 13.5654 17.8482 13.3827 17.9239C13.2 17.9996 12.9989 18.0194 12.8049 17.9808C12.6109 17.9422 12.4327 17.847 12.2929 17.7071C12.153 17.5673 12.0578 17.3891 12.0192 17.1951C11.9806 17.0011 12.0004 16.8 12.0761 16.6173C12.1518 16.4346 12.28 16.2784 12.4444 16.1685C12.6089 16.0586 12.8022 16 13 16C13.2652 16 13.5196 16.1054 13.7071 16.2929C13.8946 16.4804 14 16.7348 14 17Z" fill="#0F1621"/>
</svg>
