<svg width="24" height="24" viewBox="0 0 24 24" fill="none" xmlns="http://www.w3.org/2000/svg">
<path d="M2 3.99992V6H3V11H2V19.9999H2.98849C2.99674 20 3.00497 20 3.01319 19.9999H4V19.2263C4 19.1709 4.0083 19.1158 4.02608 19.0634V19.0634C4.07203 18.928 4.14755 18.7258 4.26062 18.4791C4.4875 17.9841 4.86055 17.3207 5.44006 16.6584C6.57622 15.3599 8.55831 13.9999 12 13.9999C15.4417 13.9999 17.4238 15.3599 18.5599 16.6584C19.1395 17.3207 19.5125 17.9841 19.7394 18.4791C19.8524 18.7258 19.928 18.928 19.9739 19.0634V19.0634C19.9917 19.1158 20 19.1709 20 19.2263V19.9999H20.9868C20.995 20 21.0033 20 21.0115 19.9999H22V11H21V6H22V3.99992H2ZM4 16V13L7.99999 13C6.99999 13 4.49999 14.5 4 16ZM20 16C19.5 14.5 17 13 16 13H20V16ZM7 6V11H5V6H7ZM9 6H11V11H9V6ZM15 6V11H13V6H15ZM17 6H19V11H17V6Z" fill="#0E1520"/>
</svg>
