<svg width="16" height="16" viewBox="0 0 16 16" fill="none" xmlns="http://www.w3.org/2000/svg">
<path d="M15 2H1V4H2V8H1V14H3V13.151C3 13.1466 3.0007 13.1422 3.00208 13.1381C3.02987 13.0541 3.07658 12.9256 3.14727 12.7676C3.28942 12.4497 3.5233 12.0236 3.88556 11.5993C4.58741 10.7771 5.81761 9.9 8 9.9C10.1824 9.9 11.4126 10.7771 12.1144 11.5993C12.4767 12.0236 12.7106 12.4497 12.8527 12.7676C12.9234 12.9256 12.9701 13.0541 12.9979 13.1381C12.9993 13.1422 13 13.1466 13 13.151V14H15V8H14V4H15V2ZM5.5 4V8H3.5V4H5.5ZM7 4H9V8H7V4ZM12.5 4V8H10.5V4H12.5Z" fill="#0E1520"/>
</svg>
