<svg width="24" height="24" viewBox="0 0 24 24" fill="none" xmlns="http://www.w3.org/2000/svg">
<path d="M2 19.9999V12H3V6H2V3.99992H22V6H21V12H22V19.9999H21.0115C21.0033 20 20.995 20 20.9868 19.9999H20C20 19.9999 20.0073 19.1657 20 19.1427C19.9927 19.1198 19.984 19.0932 19.9739 19.0634C19.928 18.928 19.8524 18.7258 19.7394 18.4791C19.5125 17.9841 19.1394 17.3207 18.5599 16.6584C17.4237 15.3599 15.4417 13.9999 12 13.9999C8.55834 13.9999 6.57625 15.3599 5.44008 16.6584C4.86056 17.3207 4.48751 17.9841 4.26063 18.4791C4.14755 18.7258 4.07203 18.928 4.02608 19.0634V19.0634C4.0083 19.1158 4 19.1709 4 19.2263V19.9999H3.01319C3.00497 20 2.99674 20 2.98849 19.9999H2ZM7 6H5V12H7V6ZM11 6H9V12H11V6ZM15 6H13V12H15V6ZM19 6H17V12H19V6Z" fill="#0E1520"/>
</svg>
