<svg width="16" height="16" viewBox="0 0 16 16" fill="none" xmlns="http://www.w3.org/2000/svg">
<path d="M1.3335 4.66669H4.00016V6.66669H2.66683V8.66669H4.00016V10.6667H2.66683V12.6667H4.00016V14.6667H1.3335V4.66669ZM14.6668 2.66669V14.6667H10.6668V11.3334H9.3335V14.6667H5.3335V2.66669H14.6668ZM8.00016 11.3334H6.66683V13.3334H8.00016V11.3334ZM8.00016 8.00002H6.66683V10H8.00016V8.00002ZM8.00016 4.66669H6.66683V6.66669H8.00016V4.66669ZM10.6668 8.00002H9.3335V10H10.6668V8.00002ZM10.6668 4.66669H9.3335V6.66669H10.6668V4.66669ZM13.3335 11.3334H12.0002V13.3334H13.3335V11.3334ZM13.3335 8.00002H12.0002V10H13.3335V8.00002ZM13.3335 4.66669H12.0002V6.66669H13.3335V4.66669Z" fill="#0F1621"/>
</svg>
