<svg width="24" height="24" viewBox="0 0 24 24" fill="none" xmlns="http://www.w3.org/2000/svg">
<path d="M18.8605 19.9069C18.4761 21.1204 17.3408 22 16 22C12.0236 22 8.47508 20.6488 5.91312 18.0868C3.35117 15.5249 2 11.9763 2 7.99997C2 6.65922 2.87953 5.5239 4.09309 5.13949L2.25911 2.3883C2.14836 2.22216 2.26747 1.99962 2.46714 1.99963L7.53291 1.99994C7.73257 1.99996 7.85166 2.22249 7.7409 2.38862L5.90697 5.13951C7.1205 5.52394 8 6.65925 8 7.99997C8 10.5984 8.86142 12.5499 10.1558 13.8442C11.4501 15.1385 13.4016 16 16 16C17.3407 16 18.476 16.8795 18.8605 18.093L21.6113 16.2591C21.7775 16.1483 22 16.2674 22 16.4671V21.5326C22 21.7322 21.7775 21.8513 21.6113 21.7406L18.8605 19.9069ZM17 19C17 18.4477 16.5523 18 16 18C12.9422 18 10.4584 16.9753 8.74155 15.2584C7.02467 13.5415 6 11.0577 6 7.99997C6 7.44769 5.55228 6.99997 5 6.99997C4.44771 6.99997 4 7.44769 4 7.99997C4 11.517 5.18792 14.5332 7.32734 16.6726C9.46675 18.8121 12.4829 20 16 20C16.5523 20 17 19.5523 17 19Z" fill="black"/>
</svg>
