<svg width="16" height="16" viewBox="0 0 16 16" fill="none" xmlns="http://www.w3.org/2000/svg">
<path d="M12.907 13.6043C12.6507 14.4133 11.8938 14.9996 11 14.9996C5.29306 14.9996 1 10.7066 1 4.99963C1 4.10582 1.58633 3.34894 2.39535 3.09266L1.25912 1.38831C1.14836 1.22217 1.26746 0.999634 1.46713 0.999634L4.53287 0.999634C4.73254 0.999634 4.85164 1.22217 4.74088 1.38831L3.60465 3.09266C4.41367 3.34894 5 4.10582 5 4.99963C5 8.49744 7.5022 10.9996 11 10.9996C11.8938 10.9996 12.6507 11.586 12.907 12.395L14.6113 11.2588C14.7775 11.148 15 11.2671 15 11.4668V14.5325C15 14.7322 14.7775 14.8513 14.6113 14.7405L12.907 13.6043Z" fill="black"/>
</svg>
