<svg width="16" height="16" viewBox="0 0 16 16" fill="none" xmlns="http://www.w3.org/2000/svg">
<path d="M14.6668 2.66668V1.33334L1.3335 3.00001V4.33334L7.3335 3.58001V6.00001H2.48016C2.17605 6.00001 1.88439 6.12082 1.66935 6.33586C1.45431 6.5509 1.3335 6.84256 1.3335 7.14668V12C1.3335 12.7073 1.61445 13.3855 2.11454 13.8856C2.61464 14.3857 3.29292 14.6667 4.00016 14.6667H12.0002C12.7074 14.6667 13.3857 14.3857 13.8858 13.8856C14.3859 13.3855 14.6668 12.7073 14.6668 12V7.14668C14.6668 6.84256 14.546 6.5509 14.331 6.33586C14.1159 6.12082 13.8243 6.00001 13.5202 6.00001H8.66683V3.42001L14.6668 2.66668ZM7.3335 11H3.3335V7.33334H7.3335V11ZM8.66683 7.33334H12.6668V11H8.66683V7.33334Z" fill="#0F1621"/>
</svg>
