<svg width="24" height="24" viewBox="0 0 24 24" fill="none" xmlns="http://www.w3.org/2000/svg">
<path d="M4 5V4C4 3.5 4.5 3 5 3H14.7C15.2 2.4 15.9 2 16.7 2C17.7 2 18.6 2.6 19 3.5H18C17.5 3.5 17 4 17 4.5C17 5 17.5 5.5 18 5.5H19C18.5 6.6 17.3 7.3 16 6.9C15.5 6.8 15 6.4 14.7 6H5C4.5 6 4 5.5 4 5ZM22 13H20.9L21.7 14.1C21.8 14.2 21.9 14.4 21.9 14.5C22 14.7 22 14.9 22 15.1V17V20C22 20.5 21.8 21 21.4 21.4C21 21.8 20.5 22 20 22H17C16.5 22 16 21.5 16 21V20H8V21C8 21.5 7.5 22 7 22H4C2.9 22 2 21.1 2 20V17V15.1C2 14.9 2 14.7 2.1 14.5C2.2 14.4 2.2 14.2 2.3 14.1L3.1 13H2V11H4.5L5.4 9.8C5.8 9.3 6.4 9 7.1 9H17C17.7 9 18.3 9.3 18.7 9.8L19.5 11H22V13ZM20 17V15.2L18.2 16H5.8L4 15.1V17V20H6V18H18V20H20V17ZM18.4 13L17 11H7L5.5 13L5.1 13.5L6.1 14H17.6L18.6 13.5L18.4 13Z" fill="#0F1621"/>
</svg>
