<svg width="16" height="16" viewBox="0 0 16 16" fill="none" xmlns="http://www.w3.org/2000/svg">
<path d="M10.3335 2.66665C10.3335 2.40294 10.4117 2.14515 10.5582 1.92589C10.7047 1.70662 10.9129 1.53572 11.1566 1.43481C11.4002 1.33389 11.6683 1.30749 11.927 1.35893C12.1856 1.41038 12.4232 1.53737 12.6096 1.72384C12.7961 1.91031 12.9231 2.14789 12.9745 2.40653C13.026 2.66517 12.9996 2.93326 12.8987 3.17689C12.7978 3.42053 12.6269 3.62876 12.4076 3.77527C12.1883 3.92178 11.9305 3.99998 11.6668 3.99998C11.3132 3.99998 10.9741 3.8595 10.724 3.60946C10.474 3.35941 10.3335 3.02027 10.3335 2.66665ZM8.00016 3.99998C8.26387 3.99998 8.52166 3.92178 8.74092 3.77527C8.96019 3.62876 9.13109 3.42053 9.232 3.17689C9.33292 2.93326 9.35932 2.66517 9.30788 2.40653C9.25643 2.14789 9.12944 1.91031 8.94297 1.72384C8.7565 1.53737 8.51892 1.41038 8.26028 1.35893C8.00164 1.30749 7.73355 1.33389 7.48992 1.43481C7.24628 1.53572 7.03805 1.70662 6.89154 1.92589C6.74503 2.14515 6.66683 2.40294 6.66683 2.66665C6.66683 3.02027 6.80731 3.35941 7.05735 3.60946C7.3074 3.8595 7.64654 3.99998 8.00016 3.99998ZM14.0002 6.66665C14.2349 6.66421 14.4649 6.59982 14.6668 6.47998V4.18665C14.4899 4.08167 14.291 4.01907 14.0858 4.00375C13.8806 3.98843 13.6747 4.02081 13.4841 4.09834C13.2935 4.17588 13.1235 4.29648 12.9872 4.45069C12.851 4.6049 12.7523 4.78855 12.6989 4.98725C12.6455 5.18595 12.6388 5.39432 12.6793 5.59605C12.7199 5.79777 12.8066 5.98738 12.9326 6.15003C13.0586 6.31267 13.2206 6.44395 13.4058 6.53358C13.591 6.6232 13.7944 6.66875 14.0002 6.66665ZM1.3335 6.47998C1.53594 6.6001 1.76657 6.66449 2.00196 6.66659C2.23735 6.6687 2.4691 6.60845 2.67366 6.49197C2.87821 6.37549 3.04829 6.20693 3.1666 6.00342C3.2849 5.79991 3.34722 5.56871 3.34722 5.33331C3.34722 5.09792 3.2849 4.86671 3.1666 4.66321C3.04829 4.4597 2.87821 4.29114 2.67366 4.17466C2.4691 4.05818 2.23735 3.99793 2.00196 4.00003C1.76657 4.00214 1.53594 4.06653 1.3335 4.18665V6.47998ZM13.1735 8.66665H14.3335C14.437 8.74427 14.521 8.84492 14.5789 8.96064C14.6367 9.07635 14.6668 9.20394 14.6668 9.33331C14.6668 9.46268 14.6367 9.59028 14.5789 9.70599C14.521 9.8217 14.437 9.92236 14.3335 9.99998H14.0002V14C14.0002 14.1768 13.9299 14.3464 13.8049 14.4714C13.6799 14.5964 13.5103 14.6666 13.3335 14.6666H11.3335C11.1567 14.6666 10.9871 14.5964 10.8621 14.4714C10.7371 14.3464 10.6668 14.1768 10.6668 14V13.3333H5.3335V14C5.3335 14.1768 5.26326 14.3464 5.13823 14.4714C5.01321 14.5964 4.84364 14.6666 4.66683 14.6666H2.66683C2.49002 14.6666 2.32045 14.5964 2.19542 14.4714C2.0704 14.3464 2.00016 14.1768 2.00016 14V9.99998H1.66683C1.56333 9.92236 1.47933 9.8217 1.42147 9.70599C1.36362 9.59028 1.3335 9.46268 1.3335 9.33331C1.3335 9.20394 1.36362 9.07635 1.42147 8.96064C1.47933 8.84492 1.56333 8.74427 1.66683 8.66665H2.82683L3.4935 7.13331C3.63442 6.80117 3.86891 6.51718 4.16838 6.31596C4.46786 6.11473 4.81939 6.00494 5.18016 5.99998H10.8202C11.1786 6.0075 11.5273 6.11848 11.8242 6.31955C12.1211 6.52062 12.3535 6.80322 12.4935 7.13331L13.1735 8.66665ZM5.3335 10.6666H3.66683C3.56333 10.7443 3.47933 10.8449 3.42147 10.9606C3.36362 11.0763 3.3335 11.2039 3.3335 11.3333C3.3335 11.4627 3.36362 11.5903 3.42147 11.706C3.47933 11.8217 3.56333 11.9224 3.66683 12H5.3335V10.6666ZM12.0002 9.33331L11.2602 7.67331C11.2249 7.57933 11.1634 7.49739 11.0831 7.43715C11.0028 7.37691 10.9069 7.34088 10.8068 7.33331H5.18016C5.08005 7.34088 4.98419 7.37691 4.90387 7.43715C4.82355 7.49739 4.76213 7.57933 4.72683 7.67331L4.00016 9.33331H12.0002ZM12.3268 10.6666H10.6668V12H12.3402C12.8068 11.5866 12.7735 11.14 12.3402 10.6666H12.3268ZM4.3335 3.99998C4.5972 3.99998 4.85499 3.92178 5.07426 3.77527C5.29352 3.62876 5.46442 3.42053 5.56534 3.17689C5.66625 2.93326 5.69266 2.66517 5.64121 2.40653C5.58976 2.14789 5.46278 1.91031 5.27631 1.72384C5.08984 1.53737 4.85226 1.41038 4.59362 1.35893C4.33498 1.30749 4.06689 1.33389 3.82325 1.43481C3.57962 1.53572 3.37138 1.70662 3.22487 1.92589C3.07836 2.14515 3.00016 2.40294 3.00016 2.66665C3.00016 3.02027 3.14064 3.35941 3.39069 3.60946C3.64074 3.8595 3.97987 3.99998 4.3335 3.99998Z" fill="#0F1621"/>
</svg>
