<svg width="16" height="16" viewBox="0 0 16 16" fill="none" xmlns="http://www.w3.org/2000/svg">
<path d="M13.1735 8.66665L12.5068 7.13331C12.3795 6.82729 12.1726 6.56086 11.9077 6.36161C11.6428 6.16235 11.3295 6.0375 11.0002 5.99998V7.36665C11.1244 7.42734 11.2217 7.53182 11.2735 7.65998L12.0002 9.33331H4.00016L4.74016 7.67331C4.79195 7.54515 4.88931 7.44067 5.0135 7.37998V5.99998C4.68416 6.0375 4.37082 6.16235 4.10593 6.36161C3.84103 6.56086 3.6342 6.82729 3.50683 7.13331L2.84016 8.66665H1.66683C1.56333 8.74427 1.47933 8.84492 1.42147 8.96064C1.36362 9.07635 1.3335 9.20394 1.3335 9.33331C1.3335 9.46268 1.36362 9.59028 1.42147 9.70599C1.47933 9.8217 1.56333 9.92236 1.66683 9.99998H2.00016V14C2.00016 14.1768 2.0704 14.3464 2.19542 14.4714C2.32045 14.5964 2.49002 14.6666 2.66683 14.6666H4.66683C4.84364 14.6666 5.01321 14.5964 5.13823 14.4714C5.26326 14.3464 5.3335 14.1768 5.3335 14V13.3333H10.6668V14C10.6668 14.1768 10.7371 14.3464 10.8621 14.4714C10.9871 14.5964 11.1567 14.6666 11.3335 14.6666H13.3335C13.5103 14.6666 13.6799 14.5964 13.8049 14.4714C13.9299 14.3464 14.0002 14.1768 14.0002 14V9.99998H14.3335C14.437 9.92236 14.521 9.8217 14.5789 9.70599C14.6367 9.59028 14.6668 9.46268 14.6668 9.33331C14.6668 9.20394 14.6367 9.07635 14.5789 8.96064C14.521 8.84492 14.437 8.74427 14.3335 8.66665H13.1735ZM5.3335 12H3.66683C3.56333 11.9224 3.47933 11.8217 3.42147 11.706C3.36362 11.5903 3.3335 11.4627 3.3335 11.3333C3.3335 11.2039 3.36362 11.0763 3.42147 10.9606C3.47933 10.8449 3.56333 10.7443 3.66683 10.6666H5.3335V12ZM12.3335 12H10.6668V10.6666H12.3335C12.437 10.7443 12.521 10.8449 12.5789 10.9606C12.6367 11.0763 12.6668 11.2039 12.6668 11.3333C12.6668 11.4627 12.6367 11.5903 12.5789 11.706C12.521 11.8217 12.437 11.9224 12.3335 12ZM7.92683 6.77331C7.45889 6.77108 7.00898 6.59254 6.66683 6.27331L6.5335 6.17331L5.7935 6.99998L5.90683 7.11331C6.30204 7.48599 6.79822 7.73408 7.3335 7.82665V8.66665H8.66683V7.81331C9.07726 7.74692 9.45074 7.53684 9.72061 7.22056C9.99048 6.90429 10.1392 6.50241 10.1402 6.08665C10.1402 4.99998 9.4735 4.55998 8.44016 4.23998C7.5535 3.96665 7.46016 3.81998 7.46016 3.57331C7.46016 3.14665 7.92016 3.10665 8.12683 3.10665C8.52944 3.10671 8.9182 3.25368 9.22016 3.51998L9.34683 3.62665L10.0602 2.79998L9.9335 2.66665C9.58391 2.32759 9.14423 2.09618 8.66683 1.99998V1.33331H7.3335V2.08665C6.98045 2.16338 6.66377 2.35734 6.43499 2.63696C6.20621 2.91658 6.0788 3.2654 6.0735 3.62665C6.0735 4.49998 6.5735 5.01331 7.80016 5.39331C8.64683 5.65331 8.74016 5.82665 8.74016 6.13998C8.74016 6.72665 8.1135 6.77331 7.92683 6.77331Z" fill="#0F1621"/>
</svg>
