<svg width="24" height="24" viewBox="0 0 24 24" fill="none" xmlns="http://www.w3.org/2000/svg">
<path d="M22.0001 4H18.0001V7H16.0001V4H13.0001V7H11.0001V4H8.00005V7H6.00005V4H2.00005C2.00005 3.46957 2.21077 2.96086 2.58584 2.58579C2.96091 2.21071 3.46962 2 4.00005 2H20.0001C20.5305 2 21.0392 2.21071 21.4143 2.58579C21.7893 2.96086 22.0001 3.46957 22.0001 4ZM4.00005 6H2.00005V8H4.00005V6ZM22.0001 6H20.0001V8H22.0001V6ZM22.0001 13H20.9001L21.6701 14.06C21.887 14.348 22.003 14.6995 22.0001 15.06V20C22.0001 20.5304 21.7893 21.0391 21.4143 21.4142C21.0392 21.7893 20.5305 22 20.0001 22H17.0001C16.7348 22 16.4805 21.8946 16.2929 21.7071C16.1054 21.5196 16.0001 21.2652 16.0001 21V20H8.00005V21C8.00005 21.2652 7.8947 21.5196 7.70716 21.7071C7.51962 21.8946 7.26527 22 7.00005 22H4.00005C3.46962 22 2.96091 21.7893 2.58584 21.4142C2.21077 21.0391 2.00005 20.5304 2.00005 20V15.06C1.99714 14.6995 2.11312 14.348 2.33005 14.06L3.10005 13H2.00005V11H4.55005L5.41005 9.82C5.60018 9.55965 5.85042 9.34912 6.13945 9.20634C6.42849 9.06357 6.74776 8.99277 7.07005 9H16.9301C17.2524 8.99277 17.5716 9.06357 17.8607 9.20634C18.1497 9.34912 18.3999 9.55965 18.5901 9.82L19.4501 11H22.0001V13ZM8.00005 16H4.00005V18H8.00005V16ZM19.0001 14L17.3001 11.45C17.2085 11.311 17.0838 11.1971 16.9371 11.1185C16.7904 11.0399 16.6265 10.9992 16.4601 11H7.54005C7.37365 10.9992 7.20968 11.0399 7.063 11.1185C6.91633 11.1971 6.79157 11.311 6.70005 11.45L5.00005 14H19.0001ZM20.0001 16H16.0001V18H20.0001V16Z" fill="#0F1621"/>
</svg>
