<svg width="24" height="24" viewBox="0 0 24 24" fill="none" xmlns="http://www.w3.org/2000/svg">
<path d="M14.57 4.9L14 8.72L13.69 11H18.42L13.42 19.1L14 15.28L14.31 13H9.58L14.58 4.9H14.57ZM17 2H14L6 15H12L11 22H14L22 9H16L17 2Z" fill="#0F1621"/>
<path d="M10.7692 4H4V7H8.92308L10.7692 4Z" fill="#0F1621"/>
<path d="M7.07692 10L5.23077 13H2V10H7.07692Z" fill="#0F1621"/>
<path d="M10.9231 7L11 6.875V7H10.9231Z" fill="#0F1621"/>
<path d="M9.71429 17H5V20H9.28571L9.71429 17Z" fill="#0F1621"/>
</svg>
