<svg width="24" height="24" viewBox="0 0 24 24" fill="none" xmlns="http://www.w3.org/2000/svg">
<path d="M18.0001 5.50001H19.0001C18.7567 6.05906 18.3175 6.50991 17.765 6.76774C17.2125 7.02557 16.5848 7.07261 16.0001 6.90001C15.4778 6.75475 15.0198 6.43767 14.7001 6.00001H5.00005C4.73484 6.00001 4.48048 5.89466 4.29295 5.70712C4.10541 5.51958 4.00005 5.26523 4.00005 5.00001V4.00001C4.00005 3.7348 4.10541 3.48044 4.29295 3.29291C4.48048 3.10537 4.73484 3.00001 5.00005 3.00001H14.7101C14.9724 2.65058 15.3218 2.37602 15.7234 2.2037C16.1249 2.03138 16.5646 1.96732 16.9987 2.01791C17.4327 2.06849 17.8459 2.23196 18.197 2.49201C18.5482 2.75206 18.8251 3.09961 19.0001 3.50001H18.0001C17.7348 3.50001 17.4805 3.60537 17.2929 3.79291C17.1054 3.98044 17.0001 4.2348 17.0001 4.50001C17.0001 4.76523 17.1054 5.01958 17.2929 5.20712C17.4805 5.39466 17.7348 5.50001 18.0001 5.50001ZM22.0001 13H20.9001L21.6701 14.06C21.887 14.348 22.003 14.6995 22.0001 15.06V20C22.0001 20.5304 21.7893 21.0392 21.4143 21.4142C21.0392 21.7893 20.5305 22 20.0001 22H17.0001C16.7348 22 16.4805 21.8947 16.2929 21.7071C16.1054 21.5196 16.0001 21.2652 16.0001 21V20H8.00005V21C8.00005 21.2652 7.8947 21.5196 7.70716 21.7071C7.51962 21.8947 7.26527 22 7.00005 22H4.00005C3.46962 22 2.96091 21.7893 2.58584 21.4142C2.21077 21.0392 2.00005 20.5304 2.00005 20V15.06C1.99714 14.6995 2.11312 14.348 2.33005 14.06L3.10005 13H2.00005V11H4.55005L5.41005 9.82001C5.60018 9.55967 5.85042 9.34914 6.13945 9.20636C6.42849 9.06358 6.74776 8.99279 7.07005 9.00001H16.9301C17.2524 8.99279 17.5716 9.06358 17.8607 9.20636C18.1497 9.34914 18.3999 9.55967 18.5901 9.82001L19.4501 11H22.0001V13ZM8.00005 16H4.00005V18H8.00005V16ZM19.0001 14L17.3001 11.45C17.2085 11.311 17.0838 11.1971 16.9371 11.1185C16.7904 11.0399 16.6265 10.9992 16.4601 11H7.54005C7.37365 10.9992 7.20968 11.0399 7.063 11.1185C6.91633 11.1971 6.79157 11.311 6.70005 11.45L5.00005 14H19.0001ZM20.0001 16H16.0001V18H20.0001V16Z" fill="#0F1621"/>
</svg>
