<svg width="24" height="24" viewBox="0 0 24 24" fill="none" xmlns="http://www.w3.org/2000/svg">
<path d="M22 11H19.5L18.6 9.79999C18.2 9.29999 17.6 9 16.9 9H7C6.3 9 5.69999 9.29999 5.29999 9.79999L4.40002 11H2V13H3.09998L2.29999 14.1C2.09999 14.4 2 14.7 2 15.1V17V20C2 21.1 2.9 22 4 22H7C7.6 22 8 21.6 8 21V20H16V21C16 21.6 16.4 22 17 22H20C20.5 22 21 21.8 21.4 21.4C21.8 21 22 20.5 22 20V17V15.1C22 14.7 21.9 14.4 21.7 14.1L20.9 13H22V11ZM20 20H18V18H16H8H6V20H4V17V15.2L5.70001 16.1H18H18.2L19.9 15.2V17V20H20ZM18.8 13.5L17.8 14H6.29999L5.29999 13.5L7.09998 11H17L18.8 13.5ZM4 6V3C4 2.5 4.5 2 5 2H9L10 3H17L19 4.5L17 6H14L13 5L12 6H10L9 7H5C4.5 7 4 6.5 4 6Z" fill="#0F1621"/>
</svg>
