<svg width="24" height="24" viewBox="0 0 24 24" fill="none" xmlns="http://www.w3.org/2000/svg">
<path d="M13 9.6C13.3 9.4 13.4 9.1 13.4 8.7C13.4 8.5 13.4 8.3 13.3 8.1C13.1 8 13 7.9 12.7 7.8C12.5 7.7 12.1 7.6 11.7 7.4C10.8 7.1 10.2 6.8 9.8 6.4C9.5 6 9.3 5.5 9.3 5C9.3 4.5 9.5 3.9 9.9 3.5C10.3 3.1 10.8 2.9 11.4 2.8V2H13.4V2.9C13.5 2.9 13.7 3 13.8 3.1C14.1 3.3 14.4 3.5 14.7 3.7L13.9 4.6C13.6 4.4 13.4 4.2 13.1 4.1C12.8 4 12.5 3.9 12.2 3.9C11.8 3.9 11.5 4 11.3 4.1C11 4.3 10.9 4.5 10.9 4.9C10.9 5.1 10.9 5.3 11 5.4C11.1 5.5 11.3 5.7 11.5 5.8C11.7 5.9 12.1 6 12.5 6.2C13.4 6.4 14 6.7 14.4 7C14.8 7.4 15 8 15 8.7C15 9.3 14.8 9.8 14.4 10.3C14.1 10.6 13.8 10.8 13.4 10.9V12H11.4V11.1C10.5 11 9.6 10.7 9 10L9.8 9.1C10.4 9.7 11.1 10 11.9 10C12.3 10 12.7 9.8 13 9.6ZM22 13H20.9L21.7 14.1C21.8 14.2 21.9 14.4 21.9 14.5C22 14.7 22 14.9 22 15.1V20C22 20.5 21.8 21 21.4 21.4C21 21.8 20.5 22 20 22H17C16.5 22 16 21.5 16 21V20H8V21C8 21.5 7.5 22 7 22H4C2.9 22 2 21.1 2 20V15.1C2 14.9 2 14.7 2.1 14.5C2.2 14.4 2.2 14.2 2.3 14.1L3.1 13H2V11H4.5L5.4 9.8C5.8 9.3 6.4 9 7 9V11L5.2 13.4L6.2 13.9H17.7L18.7 13.4L17 11V9C17.6 9 18.2 9.3 18.6 9.8L19.5 11H22V13ZM20 17V15.2L18.2 16H5.8L4 15.1V17V20H6V18H18V20H20V17Z" fill="#0F1621"/>
</svg>
