<svg width="16" height="16" viewBox="0 0 16 16" fill="none" xmlns="http://www.w3.org/2000/svg">
<path d="M3.80683 5.33334H6.66683L7.16683 4.33334H9.00016L9.66683 3.66668L10.3335 4.33334H12.0002L12.9802 3.33334L12.0002 2.33334H7.16683L6.66683 1.33334H3.80683C3.50502 1.33509 3.21607 1.45576 3.00266 1.66918C2.78925 1.88259 2.66858 2.17154 2.66683 2.47334V4.18668C2.66595 4.33694 2.69479 4.4859 2.75169 4.62498C2.80858 4.76407 2.89242 4.89053 2.99836 4.99709C3.10431 5.10366 3.23028 5.18823 3.36902 5.24593C3.50777 5.30364 3.65656 5.33335 3.80683 5.33334ZM4.00016 2.66668H6.00016V4.00001H4.00016V2.66668ZM13.1868 8.66668L12.5202 7.13334C12.3785 6.8017 12.1439 6.51818 11.8446 6.31705C11.5452 6.11593 11.1941 6.00581 10.8335 6.00001H5.18683C4.82929 6.00798 4.4817 6.11922 4.18597 6.32031C3.89024 6.52141 3.65901 6.80377 3.52016 7.13334L2.8535 8.66668H1.66683C1.56333 8.7443 1.47933 8.84495 1.42147 8.96067C1.36362 9.07638 1.3335 9.20397 1.3335 9.33334C1.3335 9.46271 1.36362 9.59031 1.42147 9.70602C1.47933 9.82173 1.56333 9.92239 1.66683 10H2.00016V14C2.00016 14.1768 2.0704 14.3464 2.19542 14.4714C2.32045 14.5964 2.49002 14.6667 2.66683 14.6667H4.66683C4.84364 14.6667 5.01321 14.5964 5.13823 14.4714C5.26326 14.3464 5.3335 14.1768 5.3335 14V13.3333H10.6668V14C10.6668 14.1768 10.7371 14.3464 10.8621 14.4714C10.9871 14.5964 11.1567 14.6667 11.3335 14.6667H13.3335C13.5103 14.6667 13.6799 14.5964 13.8049 14.4714C13.9299 14.3464 14.0002 14.1768 14.0002 14V10H14.3335C14.437 9.92239 14.521 9.82173 14.5789 9.70602C14.6367 9.59031 14.6668 9.46271 14.6668 9.33334C14.6668 9.20397 14.6367 9.07638 14.5789 8.96067C14.521 8.84495 14.437 8.7443 14.3335 8.66668H13.1868ZM4.74016 7.67334C4.77428 7.57988 4.8345 7.49816 4.91368 7.43789C4.99285 7.37763 5.08765 7.34134 5.18683 7.33334H10.8335C10.9336 7.34091 11.0295 7.37694 11.1098 7.43718C11.1901 7.49742 11.2515 7.57936 11.2868 7.67334L12.0002 9.33334H4.00016L4.74016 7.67334ZM5.3335 12H3.66683C3.56333 11.9224 3.47933 11.8217 3.42147 11.706C3.36362 11.5903 3.3335 11.4627 3.3335 11.3333C3.3335 11.204 3.36362 11.0764 3.42147 10.9607C3.47933 10.845 3.56333 10.7443 3.66683 10.6667H5.3335V12ZM12.3335 12H10.6668V10.6667H12.3335C12.437 10.7443 12.521 10.845 12.5789 10.9607C12.6367 11.0764 12.6668 11.204 12.6668 11.3333C12.6668 11.4627 12.6367 11.5903 12.5789 11.706C12.521 11.8217 12.437 11.9224 12.3335 12Z" fill="#0F1621"/>
</svg>
