<svg width="16" height="16" viewBox="0 0 16 16" fill="none" xmlns="http://www.w3.org/2000/svg">
<path d="M13.1732 8.66665L12.5065 7.13331C12.3656 6.80117 12.1311 6.51718 11.8317 6.31596C11.5322 6.11473 11.1806 6.00494 10.8199 5.99998H5.17988C4.8214 6.0075 4.47273 6.11848 4.17585 6.31955C3.87898 6.52062 3.64655 6.80322 3.50654 7.13331L2.83988 8.66665H1.66654C1.56538 8.74585 1.48357 8.84703 1.4273 8.96254C1.37104 9.07804 1.3418 9.20483 1.3418 9.33331C1.3418 9.46179 1.37104 9.58859 1.4273 9.70409C1.48357 9.8196 1.56538 9.92078 1.66654 9.99998H1.99988V14C1.99988 14.1768 2.07012 14.3464 2.19514 14.4714C2.32016 14.5964 2.48973 14.6666 2.66654 14.6666H4.66654C4.84336 14.6666 5.01292 14.5964 5.13795 14.4714C5.26297 14.3464 5.33321 14.1768 5.33321 14V13.3333H10.6665V14C10.6665 14.1768 10.7368 14.3464 10.8618 14.4714C10.9868 14.5964 11.1564 14.6666 11.3332 14.6666H13.3332C13.51 14.6666 13.6796 14.5964 13.8046 14.4714C13.9296 14.3464 13.9999 14.1768 13.9999 14V9.99998H14.3332C14.4355 9.92155 14.5184 9.82063 14.5755 9.70502C14.6325 9.58941 14.6622 9.46223 14.6622 9.33331C14.6622 9.2044 14.6325 9.07721 14.5755 8.96161C14.5184 8.846 14.4355 8.74508 14.3332 8.66665H13.1732ZM4.72654 7.67331C4.76184 7.57933 4.82327 7.49739 4.90359 7.43715C4.9839 7.37691 5.07977 7.34088 5.17988 7.33331H10.8199C10.92 7.34088 11.0159 7.37691 11.0962 7.43715C11.1765 7.49739 11.2379 7.57933 11.2732 7.67331L11.9999 9.33331H3.99988L4.72654 7.67331ZM5.33321 12H3.66654C3.56305 11.9224 3.47904 11.8217 3.42119 11.706C3.36333 11.5903 3.33321 11.4627 3.33321 11.3333C3.33321 11.2039 3.36333 11.0763 3.42119 10.9606C3.47904 10.8449 3.56305 10.7443 3.66654 10.6666H5.33321V12ZM12.3332 12H10.6665V10.6666H12.3332C12.4367 10.7443 12.5207 10.8449 12.5786 10.9606C12.6364 11.0763 12.6665 11.2039 12.6665 11.3333C12.6665 11.4627 12.6364 11.5903 12.5786 11.706C12.5207 11.8217 12.4367 11.9224 12.3332 12ZM10.6665 3.99998H12.6665V4.33331C12.6665 4.51012 12.5963 4.67969 12.4713 4.80472C12.3463 4.92974 12.1767 4.99998 11.9999 4.99998H10.6665V3.99998ZM9.99988 5.33331H7.33321C6.97959 5.33331 6.64045 5.19284 6.3904 4.94279C6.14035 4.69274 5.99988 4.3536 5.99988 3.99998H3.33321C3.22971 3.92236 3.14571 3.8217 3.08785 3.70599C3.03 3.59028 2.99988 3.46268 2.99988 3.33331C2.99988 3.20394 3.03 3.07635 3.08785 2.96063C3.14571 2.84492 3.22971 2.74427 3.33321 2.66665H5.99988C5.99988 2.31302 6.14035 1.97389 6.3904 1.72384C6.64045 1.47379 6.97959 1.33331 7.33321 1.33331H9.99988V5.33331ZM11.9999 1.67331C12.1767 1.67331 12.3463 1.74355 12.4713 1.86858C12.5963 1.9936 12.6665 2.16317 12.6665 2.33998V2.66665H10.6665V1.66665L11.9999 1.67331Z" fill="#0F1621"/>
</svg>
