<svg width="16" height="16" viewBox="0 0 16 16" fill="none" xmlns="http://www.w3.org/2000/svg">
<path d="M12.31 2.47667V2.66334H9.99668V3.99667H12.31V4.19C12.3083 4.49296 12.1867 4.78291 11.9718 4.99651C11.757 5.21011 11.4663 5.33001 11.1634 5.33H8.97668L8.47668 4.33H3.66335C3.53192 4.19874 3.42766 4.04286 3.35652 3.87127C3.28539 3.69968 3.24877 3.51575 3.24877 3.33C3.24877 3.14425 3.28539 2.96032 3.35652 2.78874C3.42766 2.61715 3.53192 2.46126 3.66335 2.33H8.48335L8.97668 1.33H11.17C11.473 1.33176 11.7629 1.45335 11.9765 1.6682C12.1901 1.88305 12.31 2.17371 12.31 2.47667ZM14.31 8.66334C14.4135 8.74096 14.4975 8.84161 14.5554 8.95732C14.6132 9.07304 14.6434 9.20063 14.6434 9.33C14.6434 9.45937 14.6132 9.58697 14.5554 9.70268C14.4975 9.81839 14.4135 9.91905 14.31 9.99667H13.9967V13.9967C13.9967 14.1735 13.9264 14.3431 13.8014 14.4681C13.6764 14.5931 13.5068 14.6633 13.33 14.6633H11.33C11.1532 14.6633 10.9836 14.5931 10.8586 14.4681C10.7336 14.3431 10.6634 14.1735 10.6634 13.9967V13.33H5.33002V13.9967C5.33002 14.1735 5.25978 14.3431 5.13475 14.4681C5.00973 14.5931 4.84016 14.6633 4.66335 14.6633H2.66335C2.48654 14.6633 2.31697 14.5931 2.19195 14.4681C2.06692 14.3431 1.99668 14.1735 1.99668 13.9967V9.99667H1.66335C1.55985 9.91905 1.47585 9.81839 1.41799 9.70268C1.36014 9.58697 1.33002 9.45937 1.33002 9.33C1.33002 9.20063 1.36014 9.07304 1.41799 8.95732C1.47585 8.84161 1.55985 8.74096 1.66335 8.66334H2.82335L3.49002 7.13C3.63094 6.79786 3.86543 6.51387 4.1649 6.31264C4.46438 6.11142 4.81592 6.00163 5.17668 5.99667H10.8167C11.1752 6.00419 11.5238 6.11517 11.8207 6.31624C12.1176 6.51731 12.35 6.7999 12.49 7.13L13.1567 8.66334H14.31ZM3.99668 9.33H11.9967L11.2567 7.67C11.2214 7.57601 11.16 7.49407 11.0796 7.43384C10.9993 7.3736 10.9035 7.33757 10.8034 7.33H5.17668C5.07657 7.33757 4.98071 7.3736 4.90039 7.43384C4.82008 7.49407 4.75865 7.57601 4.72335 7.67L3.99668 9.33ZM5.33002 10.6633H3.66335C3.55985 10.741 3.47585 10.8416 3.41799 10.9573C3.36014 11.073 3.33002 11.2006 3.33002 11.33C3.33002 11.4594 3.36014 11.587 3.41799 11.7027C3.47585 11.8184 3.55985 11.919 3.66335 11.9967H5.33002V10.6633ZM12.33 10.6633H10.6634V11.9967H12.33C12.4335 11.919 12.5175 11.8184 12.5754 11.7027C12.6332 11.587 12.6634 11.4594 12.6634 11.33C12.6634 11.2006 12.6332 11.073 12.5754 10.9573C12.5175 10.8416 12.4335 10.741 12.33 10.6633Z" fill="#0E1520"/>
</svg>
