<svg width="24" height="24" viewBox="0 0 24 24" fill="none" xmlns="http://www.w3.org/2000/svg">
<path d="M11 4H9V2H11V4ZM15 2H13V4H15V2ZM22 13H20.9L21.7 14.1C21.8 14.2 21.9 14.4 21.9 14.5C22 14.7 22 14.9 22 15.1V20C22 20.5 21.8 21 21.4 21.4C21 21.8 20.5 22 20 22H17C16.5 22 16 21.5 16 21V20H8V21C8 21.5 7.5 22 7 22H4C2.9 22 2 21.1 2 20V15.1C2 14.9 2 14.7 2.1 14.5C2.2 14.4 2.2 14.2 2.3 14.1L3.1 13H2V11H4.5L5.4 9.8C5.8 9.3 6.4 9 7 9V11L5.2 13.4L6.2 13.9H17.7L18.7 13.4L18.4 13L17 11V9C17.6 9 18.2 9.3 18.6 9.8L19.5 11H22V13ZM20 17V15.2L18.2 16H5.8L4 15.1V17V20H6V18H18V20H20V17ZM11 10V12H13V10C14.1 10 15 9.1 15 8V6H9V8C9 9.1 9.9 10 11 10Z" fill="#0F1621"/>
</svg>
