<svg width="24" height="24" viewBox="0 0 24 24" fill="none" xmlns="http://www.w3.org/2000/svg">
<path d="M5 12V18H7V12H5Z" fill="#0E1520"/>
<path d="M8 12V18H10V12H8Z" fill="#0E1520"/>
<path d="M11 18V12H13V18H11Z" fill="#0E1520"/>
<path d="M14 12V18H16V12H14Z" fill="#0E1520"/>
<path d="M17 18V12H19V18H17Z" fill="#0E1520"/>
<path fill-rule="evenodd" clip-rule="evenodd" d="M11 3.5V2H13V3.5L20.3334 9H22V22H18V20.9167H6V22H2V9H3.66669L11 3.5ZM13 6L17 9H7.00002L11 6V7H13V6ZM20 18.9167H4V11H20V18.9167Z" fill="#0E1520"/>
</svg>
