<svg width="16" height="16" viewBox="0 0 16 16" fill="none" xmlns="http://www.w3.org/2000/svg">
<path d="M5.09368 4.5H13.5V7.5C13.5 7.77614 13.2761 8 13 8H5.84368H5.25345L5.35048 8.5822L5.60733 10.1233C5.6676 10.4849 5.9805 10.75 6.34713 10.75H12.5V11.25H6.34713C5.73608 11.25 5.21459 10.8082 5.11413 10.2055L3.89267 2.8767C3.8324 2.51506 3.5195 2.25 3.15287 2.25H1.5V1.75H3.15287C3.76392 1.75 4.28541 2.19177 4.38587 2.7945L4.60048 4.0822L4.67011 4.5H5.09368ZM12.5 13.75C12.5 14.1642 12.1642 14.5 11.75 14.5C11.3358 14.5 11 14.1642 11 13.75C11 13.3358 11.3358 13 11.75 13C12.1642 13 12.5 13.3358 12.5 13.75ZM7 13.75C7 14.1642 6.66421 14.5 6.25 14.5C5.83579 14.5 5.5 14.1642 5.5 13.75C5.5 13.3358 5.83579 13 6.25 13C6.66421 13 7 13.3358 7 13.75Z" fill="#0F1621" stroke="#0F1621"/>
</svg>
