<svg width="24" height="24" viewBox="0 0 24 24" fill="none" xmlns="http://www.w3.org/2000/svg">
<path d="M6.16499 3.90558L6.08699 3.5H5.67398H2.5V2.5H5.67398C6.39319 2.5 7.01117 3.01047 7.14699 3.71673L7.41194 5.09442L7.48993 5.5H7.90294H19.4999L19.4999 11C19.4999 11.8284 18.8283 12.5 17.9999 12.5H9.4414H8.83608L8.9504 13.0944L9.33501 15.0944L9.41301 15.5H9.82602L18.5 15.5V16.5H9.82602C9.10681 16.5 8.48882 15.9895 8.35301 15.2833L6.16499 3.90558ZM18.5 20.25C18.5 20.9404 17.9404 21.5 17.25 21.5C16.5596 21.5 16 20.9404 16 20.25C16 19.5596 16.5596 19 17.25 19C17.9404 19 18.5 19.5596 18.5 20.25ZM11 20.25C11 20.9404 10.4404 21.5 9.75 21.5C9.05964 21.5 8.5 20.9404 8.5 20.25C8.5 19.5596 9.05964 19 9.75 19C10.4404 19 11 19.5596 11 20.25Z" fill="#0F1621" stroke="#0F1621"/>
</svg>
