<svg width="16" height="16" viewBox="0 0 16 16" fill="none" xmlns="http://www.w3.org/2000/svg">
<path d="M12.6668 2.66664C12.6668 2.48983 12.5966 2.32026 12.4716 2.19524C12.3465 2.07021 12.177 1.99998 12.0002 1.99998H10.3335V1.66664C8.81001 1.21996 7.19032 1.21996 5.66683 1.66664V1.99998H4.00016C3.82335 1.99998 3.65378 2.07021 3.52876 2.19524C3.40373 2.32026 3.3335 2.48983 3.3335 2.66664L3.00016 12H13.0002L12.6668 2.66664ZM10.6668 7.99998H5.3335V6.66664H10.6668V7.99998ZM10.6668 5.33331H5.3335V3.99998H10.6668V5.33331ZM14.6668 13.3333V14.6666H1.3335V13.3333H14.6668Z" fill="#0F1621"/>
</svg>
