<svg width="16" height="16" viewBox="0 0 16 16" fill="none" xmlns="http://www.w3.org/2000/svg">
<path d="M9.49987 7.33331C10.0579 7.33314 10.6047 7.17736 11.079 6.88348C11.5534 6.58959 11.9363 6.16925 12.1849 5.66969C12.4334 5.17013 12.5377 4.61114 12.4861 4.05556C12.4344 3.49997 12.2288 2.96981 11.8924 2.52464C11.556 2.07947 11.1021 1.73694 10.5818 1.53554C10.0614 1.33415 9.49518 1.28187 8.94673 1.38458C8.39829 1.48729 7.88935 1.74092 7.47713 2.11697C7.0649 2.49302 6.76572 2.97658 6.6132 3.51331C6.38248 3.14617 6.06 2.84555 5.6776 2.64113C5.29519 2.4367 4.86609 2.33553 4.43264 2.34762C3.99919 2.3597 3.57639 2.48462 3.20596 2.71003C2.83554 2.93545 2.53031 3.25357 2.32041 3.63299C2.1105 4.01242 2.00317 4.44002 2.00902 4.8736C2.01486 5.30718 2.13368 5.73174 2.35375 6.10536C2.57381 6.47899 2.88751 6.78876 3.26387 7.00411C3.64024 7.21945 4.06625 7.33292 4.49987 7.33331H9.49987ZM9.49987 3.33331C9.69765 3.33331 9.89099 3.39196 10.0554 3.50184C10.2199 3.61173 10.3481 3.7679 10.4237 3.95063C10.4994 4.13336 10.5192 4.33442 10.4807 4.5284C10.4421 4.72238 10.3468 4.90057 10.207 5.04042C10.0671 5.18027 9.88894 5.27551 9.69496 5.3141C9.50098 5.35268 9.29991 5.33288 9.11719 5.25719C8.93446 5.18151 8.77828 5.05333 8.6684 4.88888C8.55852 4.72443 8.49987 4.5311 8.49987 4.33331C8.49987 4.0681 8.60523 3.81374 8.79276 3.62621C8.9803 3.43867 9.23465 3.33331 9.49987 3.33331ZM3.49987 4.83331C3.49987 4.63553 3.55852 4.44219 3.6684 4.27774C3.77828 4.11329 3.93446 3.98512 4.11719 3.90943C4.29991 3.83375 4.50098 3.81394 4.69496 3.85253C4.88894 3.89111 5.06712 3.98635 5.20698 4.12621C5.34683 4.26606 5.44207 4.44424 5.48066 4.63822C5.51924 4.8322 5.49944 5.03327 5.42375 5.216C5.34806 5.39872 5.21989 5.5549 5.05544 5.66478C4.89099 5.77466 4.69765 5.83331 4.49987 5.83331C4.23465 5.83331 3.9803 5.72796 3.79276 5.54042C3.60523 5.35288 3.49987 5.09853 3.49987 4.83331ZM13.9999 9.33331V14H12.6665L10.6665 12.6666V14C10.6665 14.1768 10.5963 14.3464 10.4713 14.4714C10.3463 14.5964 10.1767 14.6666 9.99987 14.6666H3.99987C3.82306 14.6666 3.65349 14.5964 3.52847 14.4714C3.40344 14.3464 3.3332 14.1768 3.3332 14V9.33331C3.3332 9.1565 3.40344 8.98693 3.52847 8.86191C3.65349 8.73689 3.82306 8.66665 3.99987 8.66665H9.99987C10.1767 8.66665 10.3463 8.73689 10.4713 8.86191C10.5963 8.98693 10.6665 9.1565 10.6665 9.33331V10.6666L12.6665 9.33331H13.9999Z" fill="#0F1621"/>
</svg>
