<svg width="24" height="24" viewBox="0 0 24 24" fill="none" xmlns="http://www.w3.org/2000/svg">
<path d="M22 14V21H19L17 19.67V22H5C4.46957 22 3.96086 21.7893 3.58579 21.4142C3.21072 21.0391 3 20.5304 3 20V15C3 14.4695 3.21072 13.9608 3.58579 13.5858C3.96086 13.2107 4.46957 13 5 13H17V15.33L19 14H22ZM18.5 6.49998C18.5013 7.09129 18.3858 7.67705 18.1601 8.22361C17.9345 8.77017 17.603 9.26677 17.1849 9.6849C16.7668 10.103 16.2702 10.4344 15.7236 10.6601C15.1771 10.8858 14.5913 11.0013 14 11H5C4.40666 11 3.82664 10.824 3.33329 10.4944C2.83994 10.1647 2.45543 9.6962 2.22836 9.14803C2.0013 8.59985 1.94189 7.99665 2.05765 7.4147C2.1734 6.83276 2.45912 6.29821 2.87868 5.87866C3.29824 5.4591 3.83279 5.17338 4.41473 5.05762C4.99667 4.94186 5.59987 5.00127 6.14805 5.22834C6.69623 5.4554 7.16477 5.83992 7.49441 6.33326C7.82405 6.82661 8 7.40663 8 7.99998C8.00217 8.34156 7.94115 8.68059 7.82 8.99998H10.26C9.86911 8.41578 9.62051 7.74814 9.53412 7.05056C9.44773 6.35298 9.52596 5.64486 9.76253 4.98296C9.9991 4.32106 10.3874 3.72378 10.8964 3.239C11.4054 2.75421 12.0209 2.3954 12.6935 2.19133C13.3661 1.98725 14.0772 1.94359 14.7698 2.06383C15.4623 2.18407 16.1171 2.46487 16.6816 2.88374C17.246 3.3026 17.7045 3.84788 18.0203 4.47586C18.3361 5.10384 18.5004 5.79707 18.5 6.49998ZM5 8.99998C5.19778 8.99998 5.39112 8.94133 5.55557 8.83145C5.72002 8.72156 5.84819 8.56539 5.92388 8.38266C5.99957 8.19993 6.01937 7.99887 5.98079 7.80489C5.9422 7.6109 5.84696 7.43272 5.70711 7.29287C5.56726 7.15302 5.38907 7.05778 5.19509 7.01919C5.00111 6.98061 4.80004 7.00041 4.61732 7.0761C4.43459 7.15178 4.27841 7.27996 4.16853 7.44441C4.05865 7.60885 4 7.80219 4 7.99998C4 8.26519 4.10536 8.51955 4.29289 8.70708C4.48043 8.89462 4.73478 8.99998 5 8.99998ZM16.5 6.49998C16.5 6.00552 16.3534 5.52217 16.0787 5.11105C15.804 4.69993 15.4135 4.3795 14.9567 4.19028C14.4999 4.00106 13.9972 3.95155 13.5123 4.04801C13.0273 4.14448 12.5819 4.38258 12.2322 4.73221C11.8826 5.08184 11.6445 5.5273 11.548 6.01225C11.4516 6.4972 11.5011 6.99987 11.6903 7.45668C11.8795 7.9135 12.2 8.30395 12.6111 8.57865C13.0222 8.85335 13.5055 8.99998 14 8.99998C14.663 8.99998 15.2989 8.73658 15.7678 8.26774C16.2366 7.7989 16.5 7.16302 16.5 6.49998Z" fill="#0F1621"/>
</svg>
