<svg width="24" height="24" viewBox="0 0 24 24" fill="none" xmlns="http://www.w3.org/2000/svg">
<path d="M14 2C13.1853 2.0003 12.3859 2.22179 11.6871 2.64085C10.9884 3.05991 10.4166 3.6608 10.0326 4.37941C9.6487 5.09802 9.46705 5.90739 9.5071 6.72116C9.54714 7.53492 9.80736 8.32255 10.26 9H7.82C7.94115 8.68062 8.00217 8.34158 8 8C8 7.40666 7.82405 6.82664 7.49441 6.33329C7.16477 5.83994 6.69623 5.45542 6.14805 5.22836C5.59987 5.0013 4.99667 4.94189 4.41473 5.05764C3.83279 5.1734 3.29824 5.45912 2.87868 5.87868C2.45912 6.29824 2.1734 6.83279 2.05765 7.41473C1.94189 7.99667 2.0013 8.59987 2.22836 9.14805C2.45543 9.69623 2.83994 10.1648 3.33329 10.4944C3.82664 10.8241 4.40666 11 5 11H14C15.1935 11 16.3381 10.5259 17.182 9.68198C18.0259 8.83807 18.5 7.69347 18.5 6.5C18.5 5.30653 18.0259 4.16193 17.182 3.31802C16.3381 2.47411 15.1935 2 14 2ZM4 8C4 7.80222 4.05865 7.60888 4.16853 7.44443C4.27841 7.27998 4.43459 7.15181 4.61732 7.07612C4.80004 7.00043 5.00111 6.98063 5.19509 7.01921C5.38907 7.0578 5.56726 7.15304 5.70711 7.29289C5.84696 7.43275 5.9422 7.61093 5.98079 7.80491C6.01937 7.99889 5.99957 8.19996 5.92388 8.38268C5.84819 8.56541 5.72002 8.72159 5.55557 8.83147C5.39112 8.94135 5.19778 9 5 9C4.73478 9 4.48043 8.89464 4.29289 8.70711C4.10536 8.51957 4 8.26522 4 8ZM14 9C13.5055 9 13.0222 8.85338 12.6111 8.57867C12.2 8.30397 11.8795 7.91352 11.6903 7.45671C11.5011 6.99989 11.4516 6.49723 11.548 6.01227C11.6445 5.52732 11.8826 5.08186 12.2322 4.73223C12.5819 4.3826 13.0273 4.1445 13.5123 4.04804C13.9972 3.95157 14.4999 4.00108 14.9567 4.1903C15.4135 4.37952 15.804 4.69995 16.0787 5.11107C16.3534 5.5222 16.5 6.00555 16.5 6.5C16.5 7.16304 16.2366 7.79893 15.7678 8.26777C15.2989 8.73661 14.663 9 14 9ZM15 15V20H5V15H15ZM20 16V19H19.6L18.11 18L17.35 17.5L18.11 17L19.6 16H20ZM17 13H5C4.46957 13 3.96086 13.2107 3.58579 13.5858C3.21072 13.9609 3 14.4696 3 15V20C3 20.5304 3.21072 21.0391 3.58579 21.4142C3.96086 21.7893 4.46957 22 5 22H17V19.67L19 21H22V14H19L17 15.33V13Z" fill="#0F1621"/>
</svg>
