<svg width="24" height="24" viewBox="0 0 24 24" fill="none" xmlns="http://www.w3.org/2000/svg">
<path d="M7.66677 4C7.4504 4 7.23986 4.07018 7.06677 4.2L4.2375 6.32195L5.57268 9.32608L8.0001 8.71922V20H16.0001V8.71922L18.4275 9.32608L19.7627 6.32195L16.9334 4.2C16.7603 4.07018 16.5498 4 16.3334 4H15.8836C15.7355 4.62448 15.4441 5.22441 14.9975 5.72686C14.2985 6.5133 13.2715 7 12.0001 7C10.7287 7 9.70174 6.5133 9.00269 5.72686C8.55606 5.22441 8.26471 4.62448 8.11662 4H7.66677ZM5.86677 2.6C6.38606 2.21053 7.01766 2 7.66677 2H10.0001V3C10.0001 3.53693 10.1802 4.04117 10.4975 4.39814C10.7985 4.7367 11.2715 5 12.0001 5C12.7287 5 13.2017 4.7367 13.5027 4.39814C13.82 4.04117 14.0001 3.53693 14.0001 3V2H16.3334C16.9825 2 17.6141 2.21053 18.1334 2.6L22.2375 5.67805L19.5727 11.6739L18.0001 11.2808V22H6.0001V11.2808L4.42753 11.6739L1.7627 5.67805L5.86677 2.6Z" fill="#0F1621"/>
</svg>
