<svg width="24" height="24" viewBox="0 0 24 24" fill="none" xmlns="http://www.w3.org/2000/svg">
<path d="M11 5L8 2L6.59 3.41L8.18 5H4L11.29 12.71C11.383 12.8037 11.4936 12.8781 11.6154 12.9289C11.7373 12.9797 11.868 13.0058 12 13.0058C12.132 13.0058 12.2627 12.9797 12.3846 12.9289C12.5064 12.8781 12.617 12.8037 12.71 12.71L20 5H11ZM12 10.17L8.83 7H15.17L12 10.17ZM16 22H8C8 21.4696 8.21071 20.9609 8.58579 20.5858C8.96086 20.2107 9.46957 20 10 20H11V15C11.6451 15.2398 12.3549 15.2398 13 15V20H14C14.5304 20 15.0391 20.2107 15.4142 20.5858C15.7893 20.9609 16 21.4696 16 22Z" fill="#0F1621"/>
</svg>
