<svg width="16" height="16" viewBox="0 0 16 16" fill="none" xmlns="http://www.w3.org/2000/svg">
<path d="M10.0001 13.3333H8.66673C8.66673 13.3333 8.66673 11.02 8.66673 10.2C8.66621 9.86083 8.79494 9.53423 9.02673 9.28665L14.0001 3.99998H6.30007L3.6334 1.33331L2.84673 2.17331L4.66673 3.99998H1.7334L6.94673 9.26665C7.19306 9.51499 7.33193 9.85019 7.3334 10.2C7.3334 11.0466 7.3334 13.3333 7.3334 13.3333H6.00007C5.64644 13.3333 5.3073 13.4738 5.05726 13.7238C4.80721 13.9739 4.66673 14.313 4.66673 14.6666H11.3334C11.3334 14.313 11.1929 13.9739 10.9429 13.7238C10.6928 13.4738 10.3537 13.3333 10.0001 13.3333ZM8.66673 7.99998C8.45585 7.99842 8.24835 7.94686 8.06127 7.84953C7.87418 7.7522 7.71285 7.61189 7.59052 7.44011C7.46819 7.26833 7.38835 7.06998 7.35756 6.86136C7.32677 6.65273 7.34591 6.43977 7.4134 6.23998C7.50211 5.9773 7.6705 5.74881 7.89514 5.58631C8.11978 5.42381 8.38949 5.33537 8.66673 5.33331C8.8969 5.32952 9.12358 5.38988 9.32139 5.50762C9.5192 5.62537 9.68033 5.79585 9.78673 5.99998C9.9024 6.20014 9.96403 6.42693 9.96559 6.65809C9.96715 6.88926 9.90858 7.11686 9.79563 7.31856C9.68268 7.52026 9.51923 7.68913 9.32131 7.80859C9.1234 7.92805 8.89783 7.99401 8.66673 7.99998Z" fill="#0F1621"/>
</svg>
