<svg width="24" height="24" viewBox="0 0 24 24" fill="none" xmlns="http://www.w3.org/2000/svg">
<path d="M20 5L12.71 12.71C12.617 12.8037 12.5064 12.8781 12.3846 12.9289C12.2627 12.9797 12.132 13.0058 12 13.0058C11.868 13.0058 11.7373 12.9797 11.6154 12.9289C11.4936 12.8781 11.383 12.8037 11.29 12.71L4 5H8.18L6.59 3.41L8 2L11 5H20ZM14 20H13V15C12.3549 15.2398 11.6451 15.2398 11 15V20H10C9.46957 20 8.96086 20.2107 8.58579 20.5858C8.21071 20.9609 8 21.4696 8 22H16C16 21.4696 15.7893 20.9609 15.4142 20.5858C15.0391 20.2107 14.5304 20 14 20Z" fill="#0F1621"/>
</svg>
