<svg width="16" height="16" viewBox="0 0 16 16" fill="none" xmlns="http://www.w3.org/2000/svg">
<path d="M11.7215 2.05H12.75V3.45H11.7V12.2H9.6L9.41886 11.1623C8.94298 11.807 8.20614 12.3136 7.10088 12.3136C5.02851 12.3136 4 10.6864 4 8.18421C4 5.78947 5.32018 4.07017 7.33114 4.07017C8.12939 4.07017 8.78947 4.36184 9.26535 4.82237L9.25 3.45H7.15L7.1807 2.07149L9.25 2.05L9.26535 1L11.7 1.35L11.7215 2.05ZM7.85307 10.625C8.4364 10.625 8.88158 10.3333 9.26535 9.76535V6.40351C8.89693 6.00439 8.52851 5.75877 7.99123 5.75877C7.13158 5.75877 6.51754 6.44956 6.51754 8.18421C6.51754 10.1184 7.07018 10.625 7.85307 10.625Z" fill="#0F1621"/>
<path d="M5.75 13.25V15H10.475V13.25H5.75Z" fill="#0F1621"/>
</svg>
