<svg width="24" height="24" viewBox="0 0 24 24" fill="none" xmlns="http://www.w3.org/2000/svg">
<path d="M17.7751 9C19.2882 9 20.6441 9.48673 21.607 10.2655L20.4672 11.9982C19.6616 11.492 18.7969 11.2 17.893 11.2C17.048 11.2 16.6354 11.5115 16.6354 11.9788C16.6354 12.5239 16.9105 12.7575 18.7773 13.3027C20.8406 13.8867 22 14.7434 22 16.5929C22 18.7345 19.9563 20 17.3624 20C15.5546 20 14.0218 19.377 13 18.4619L14.5131 16.7876C15.2991 17.3911 16.262 17.8 17.2838 17.8C18.2271 17.8 18.7969 17.4496 18.7969 16.8265C18.7969 16.1257 18.4825 15.9115 16.5961 15.3858C14.5328 14.8018 13.5109 13.7504 13.5109 12.154C13.5109 10.3823 15.1419 9 17.7751 9Z" fill="#0F1621"/>
<path d="M10 20L6.8613 14.1256H5.49672V20H2V5H6.83997C10.8484 5 12.9166 6.42854 12.9166 9.49883C12.9166 11.4391 11.9998 12.6118 10.0808 13.4859L13.9445 20H10ZM5.49672 7.45197V11.7163H6.9679C8.50305 11.7163 9.31327 11.0553 9.31327 9.49883C9.31327 8.07029 8.48173 7.45197 6.75469 7.45197H5.49672Z" fill="#0F1621"/>
</svg>
