<svg width="16" height="16" viewBox="0 0 16 16" fill="none" xmlns="http://www.w3.org/2000/svg">
<path d="M12.1834 5.75C13.1921 5.75 14.0961 6.07751 14.738 6.60153L13.9782 7.76747C13.441 7.42686 12.8646 7.23035 12.262 7.23035C11.6987 7.23035 11.4236 7.43996 11.4236 7.75437C11.4236 8.12118 11.607 8.27838 12.8515 8.6452C14.2271 9.03821 15 9.61463 15 10.8592C15 12.3002 13.6376 13.1517 11.9083 13.1517C10.7031 13.1517 9.68122 12.7325 9 12.1168L10.0087 10.9902C10.5328 11.3963 11.1747 11.6714 11.8559 11.6714C12.4847 11.6714 12.8646 11.4356 12.8646 11.0164C12.8646 10.5448 12.655 10.4007 11.3974 10.0469C10.0218 9.65393 9.34061 8.94651 9.34061 7.87227C9.34061 6.68013 10.4279 5.75 12.1834 5.75Z" fill="#0F1621"/>
<path d="M6.83911 13L4.79004 9.17605H3.86652V13H1.5V3H4.77561C7.48846 3 8.88817 3.96681 8.88817 6.04473C8.88817 7.35786 8.26768 8.15151 6.96898 8.74315L9.50866 13H6.83911ZM3.86652 4.65945V7.54545H4.86219C5.90115 7.54545 6.44949 7.09812 6.44949 6.04473C6.44949 5.07792 5.88672 4.65945 4.71789 4.65945H3.86652Z" fill="#0F1621"/>
</svg>
