<svg width="24" height="24" viewBox="0 0 24 24" fill="none" xmlns="http://www.w3.org/2000/svg">
<path d="M18.8193 9.36365C21.0201 9.36365 22 11.0624 22 13.7429C22 16.2987 20.7149 18.9117 18.6104 18.9117C17.7751 18.9117 17.0302 18.6195 16.5 18.0429L16.5 21.687L14 22V9.5H16.25L16.5 10.5C17.2069 9.64286 17.9679 9.36365 18.8193 9.36365ZM17.8233 17.1039C18.7711 17.1039 19.3655 15.9091 19.3655 13.7741C19.3655 11.7169 18.8514 11.1715 18 11.1715C17.4217 11.1715 16.8695 11.3922 16.5 12V16.25C16.8535 16.7487 17.1022 17.0559 17.8233 17.1039Z" fill="#0F1621"/>
<path d="M10 20L6.78036 13.9834H5.43851V20H2V5H6.75939C10.7011 5 12.7348 6.40627 12.7348 9.42872C12.7348 11.3387 11.8333 12.4931 9.9463 13.3537L13.8788 20H10ZM5.43851 7.41376V11.6116H6.88519C8.39478 11.6116 9.19151 10.9609 9.19151 9.42872C9.19151 8.02244 8.37381 7.41376 6.67553 7.41376H5.43851Z" fill="#0F1621"/>
</svg>
