<svg width="16" height="16" viewBox="0 0 16 16" fill="none" xmlns="http://www.w3.org/2000/svg">
<path d="M4.96153 0.912842C5.3456 0.912842 5.68312 0.962685 5.97408 1.06237C6.26504 1.16206 6.50945 1.31782 6.7073 1.52966C6.94007 1.76642 7.12047 2.09664 7.24849 2.52031C7.37651 2.94398 7.44052 3.54211 7.44052 4.31469V5.46284H13V7.56284H7.44055V11.8474C7.44055 12.1963 7.4871 12.458 7.58021 12.6325C7.67332 12.7945 7.88281 12.8755 8.20868 12.8755C8.47637 12.8755 8.73823 12.8319 8.99428 12.7446C9.25033 12.6449 9.4831 12.5203 9.69259 12.3708C9.90208 12.2088 10.0708 12.0219 10.1989 11.8101C10.3269 11.5982 10.3909 11.3802 10.3909 11.1559C10.3909 11.0437 10.3443 10.9378 10.2512 10.8381C10.1581 10.7384 9.97773 10.6886 9.71005 10.6886C9.50055 10.6886 9.31434 10.7073 9.1514 10.7446L8.87208 8.83811C9.08157 8.7758 9.31434 8.73219 9.57038 8.70727C9.83807 8.68235 10.1116 8.66988 10.3909 8.66988C11.0776 8.66988 11.6304 8.83811 12.0494 9.17455C12.4684 9.511 12.6779 10.0344 12.6779 10.7446C12.6779 11.4175 12.5324 12.0157 12.2414 12.539C11.9504 13.0624 11.5664 13.4985 11.0892 13.8474C10.612 14.1963 10.0883 14.4642 9.51801 14.6512C8.95937 14.8256 8.41236 14.9128 7.87699 14.9128C7.38817 14.9128 6.97501 14.8505 6.63749 14.7259C6.31162 14.6013 6.04975 14.4393 5.8519 14.2399C5.72388 14.1029 5.60167 13.9471 5.48529 13.7727C5.38054 13.5982 5.29325 13.3552 5.22342 13.0437C5.16523 12.7322 5.13613 12.3147 5.13613 11.7914V7.56284H3.66969V5.46284H5.13611V4.40815C5.13611 4.09662 5.11283 3.83494 5.06628 3.62311C5.01973 3.41127 4.92662 3.25551 4.78696 3.15582C4.64729 3.04367 4.4378 2.9876 4.15848 2.9876C4.00718 2.9876 3.84424 3.00629 3.66966 3.04367C3.50673 3.08105 3.33797 3.13713 3.16339 3.21189L2.5 1.41751C2.9539 1.24306 3.36125 1.11845 3.72204 1.04368C4.08283 0.956455 4.49599 0.912842 4.96153 0.912842Z" fill="#0F1621"/>
</svg>
