<svg width="16" height="16" viewBox="0 0 16 16" fill="none" xmlns="http://www.w3.org/2000/svg">
<path fill-rule="evenodd" clip-rule="evenodd" d="M7.00003 1H9.10003V3.10296C10.8823 3.35435 11.9231 4.08889 11.9231 5.55411C11.9231 6.82395 10.9803 7.48773 10.0224 7.70418C11.1748 7.92063 12.3571 8.46898 12.3571 10.0851C12.3571 11.9774 11.0376 12.7365 9.10003 12.94V15H7.00003V13H4.5V3H7.00003V1ZM7.67279 4.67388H6.95442V6.99711H7.86735C8.88503 6.99711 9.42381 6.62193 9.42381 5.78499C9.42381 4.94805 8.8551 4.67388 7.67279 4.67388ZM7.85238 11.2828C9.00476 11.2828 9.82789 11.0519 9.82789 9.95527C9.82789 8.94517 9.09456 8.56999 8.03197 8.56999H6.95442V11.2828H7.85238Z" fill="#0F1621"/>
</svg>
