<svg width="24" height="24" viewBox="0 0 24 24" fill="none" xmlns="http://www.w3.org/2000/svg">
<path d="M10.4999 2H13.4999V4.60115C14.8852 4.82079 16.0637 5.38702 17.0588 6.19052L15.7628 8.20304C14.6222 7.4517 13.5335 7.04919 12.3152 7.04919C10.9932 7.04919 10.2414 7.6127 10.2414 8.47138C10.2414 9.41055 10.7858 9.83989 13.1187 10.5107C15.9183 11.2889 17.4995 12.4696 17.4995 14.9919C17.4995 17.3618 15.7951 18.8322 13.4999 19.3198V22H10.4999V19.4225C8.71817 19.1903 7.29183 18.4564 6.24951 17.4875L7.9085 15.5555C8.97129 16.3873 10.2414 16.9508 11.6412 16.9508C13.1188 16.9508 14.0779 16.3068 14.0779 15.2335C14.0779 14.0528 13.5335 13.6771 10.9673 12.9258C8.14179 12.1208 6.89755 10.7254 6.89755 8.63238C6.89755 6.71771 8.27798 5.19116 10.4999 4.68213V2Z" fill="#0E1520"/>
</svg>
