<svg width="24" height="24" viewBox="0 0 24 24" fill="none" xmlns="http://www.w3.org/2000/svg">
<path d="M4.5 21L3.76471 16H2V14H3.47059L3.17647 12H2V10H2.88235L2 4H6L6.64286 10H8.92857L10 4H14L15.0714 10H17.3571L18 4H22L21.1176 10H22V12H20.8235L20.5294 14H22V16H20.2353L19.5 21H14L13.2308 16H10.7692L10 21H4.5ZM17.1429 12H15.4286L15.7857 14H16.9286L17.1429 12ZM12.3077 10L12 8L11.6923 10H12.3077ZM11.3846 12L11.0769 14H12.9231L12.6154 12H11.3846ZM8.57143 12H6.85714L7.07143 14H8.21429L8.57143 12ZM7.5 18L7.85714 16H7.28571L7.5 18ZM16.5 18L16.7143 16H16.1429L16.5 18Z" fill="#0F1621"/>
</svg>
