<svg width="24" height="24" viewBox="0 0 24 24" fill="none" xmlns="http://www.w3.org/2000/svg">
<path d="M13.9999 5.01727C11.6794 5.01727 9.67927 6.36256 8.73959 8.75H17L16 11.2974H8.19104C8.17578 11.5262 8.16799 11.7605 8.16798 12.0001C8.16796 12.3445 8.18405 12.678 8.21526 13H15.5L14.75 15.5474H8.86436C9.84896 17.7488 11.7777 18.9827 13.9999 18.9827C14.9479 18.9827 15.8409 18.6627 16.5341 18.3031C16.8737 18.1269 17.1461 17.9512 17.3294 17.8228C17.4206 17.7589 17.4883 17.7078 17.5297 17.6755C17.5504 17.6594 17.5644 17.6481 17.5714 17.6424L17.5765 17.6383L17.575 17.6395L17.5733 17.641L17.5714 17.6424C17.5714 17.6424 17.5708 17.6431 18.5472 18.7931C19.5237 19.9431 19.523 19.9437 19.523 19.9437L19.5222 19.9444L19.5205 19.9458L19.5165 19.9492L19.5063 19.9577L19.4769 19.9819C19.4534 20.0011 19.4219 20.0263 19.3829 20.0566C19.305 20.1172 19.1966 20.1988 19.0604 20.2941C18.7891 20.4841 18.4023 20.733 17.9235 20.9814C16.9799 21.4709 15.5992 22 13.9999 22C9.90663 22 6.83003 19.3712 5.66278 15.5474H2L2.84914 13H5.18879C5.16352 12.6717 5.15069 12.3382 5.1507 11.9999C5.15071 11.7634 5.15701 11.5292 5.16944 11.2974H2L2.84914 8.75H5.57667C6.67262 4.76581 9.80106 2 13.9999 2C15.5992 2 16.9799 2.52909 17.9235 3.01861C18.4023 3.26701 18.7891 3.51586 19.0604 3.70588C19.1966 3.80123 19.305 3.88276 19.3829 3.94339C19.4219 3.97373 19.4534 3.99893 19.4769 4.01811L19.5063 4.04231L19.5165 4.05084L19.5205 4.05419L19.523 4.05628C19.523 4.05628 19.5237 4.0569 18.5472 5.20691C17.5708 6.35692 17.5715 6.3575 17.5715 6.3575L17.5733 6.35901L17.575 6.36051L17.5765 6.36176L17.5715 6.3575C17.5645 6.3518 17.5504 6.34058 17.5297 6.32449C17.4883 6.29224 17.4206 6.24109 17.3294 6.17723C17.1461 6.04882 16.8737 5.8731 16.5341 5.69694C15.8409 5.33732 14.9479 5.01727 13.9999 5.01727Z" fill="#0E1520"/>
</svg>
