<svg width="24" height="24" viewBox="0 0 24 24" fill="none" xmlns="http://www.w3.org/2000/svg">
<path d="M7.51648 1.91284C8.06515 1.91284 8.54731 1.98405 8.96297 2.12646C9.37863 2.26887 9.72778 2.49139 10.0104 2.79401C10.343 3.13224 10.6007 3.60398 10.7836 4.20922C10.9664 4.81447 11.0579 5.66894 11.0579 6.77263V8.00006H19V11.0001H11.0579V17.5337C11.0579 18.0321 11.1244 18.406 11.2574 18.6552C11.3905 18.8866 11.6897 19.0023 12.1553 19.0023C12.5377 19.0023 12.9118 18.94 13.2775 18.8154C13.6433 18.673 13.9759 18.495 14.2751 18.2814C14.5744 18.0499 14.8155 17.7829 14.9984 17.4803C15.1813 17.1777 15.2727 16.8661 15.2727 16.5457C15.2727 16.3855 15.2062 16.2342 15.0732 16.0918C14.9402 15.9494 14.6825 15.8782 14.3001 15.8782C14.0008 15.8782 13.7348 15.9049 13.502 15.9583L13.103 13.2347C13.4022 13.1456 13.7348 13.0833 14.1005 13.0477C14.483 13.0121 14.8737 12.9943 15.2727 12.9943C16.2537 12.9943 17.0434 13.2347 17.642 13.7153C18.2405 14.1959 18.5398 14.9436 18.5398 15.9583C18.5398 16.9195 18.332 17.774 17.9163 18.5217C17.5006 19.2693 16.952 19.8924 16.2703 20.3908C15.5886 20.8893 14.8404 21.272 14.0257 21.539C13.2277 21.7882 12.4462 21.9128 11.6814 21.9128C10.9831 21.9128 10.3929 21.8238 9.91071 21.6458C9.44517 21.4678 9.07107 21.2364 8.78843 20.9516C8.60554 20.7557 8.43096 20.5332 8.2647 20.284C8.11506 20.0348 7.99036 19.6877 7.8906 19.2426C7.80747 18.7976 7.7659 18.2012 7.7659 17.4536V11.0001H5.5V8.00006H7.76587V6.90614C7.76587 6.4611 7.73262 6.08727 7.66611 5.78465C7.59961 5.48202 7.4666 5.25951 7.26708 5.1171C7.06756 4.95688 6.76829 4.87678 6.36926 4.87678C6.15311 4.87678 5.92034 4.90348 5.67095 4.95688C5.43818 5.01029 5.1971 5.09039 4.9477 5.1972L4 2.6338C4.64843 2.38458 5.23035 2.20656 5.74577 2.09976C6.26119 1.97515 6.85142 1.91284 7.51648 1.91284Z" fill="#0F1621"/>
</svg>
