<svg width="16" height="16" viewBox="0 0 16 16" fill="none" xmlns="http://www.w3.org/2000/svg">
<path d="M9.0001 4C7.72957 4 6.61677 4.71135 6.0586 6H11L10.5 7.5H5.69798C5.68459 7.6617 5.67772 7.82842 5.67771 8.00004C5.6777 8.17164 5.68456 8.33833 5.69794 8.5H10.25L9.75 10H6.05851C6.61668 11.2886 7.7296 12 9.0001 12C9.53416 12 10.0419 11.8193 10.4409 11.6123C10.6357 11.5113 10.7919 11.4105 10.8966 11.3372C10.9486 11.3007 10.9869 11.2718 11.01 11.2538C11.0215 11.2449 11.0291 11.2387 11.0326 11.2359L11.0313 11.237C11.0313 11.237 11.0305 11.2377 11.6777 12C12.325 12.7623 12.3245 12.7627 12.3245 12.7627L12.3229 12.7641L12.3203 12.7662L12.3139 12.7716L12.2956 12.7866C12.2812 12.7984 12.262 12.8137 12.2384 12.8321C12.1911 12.8689 12.1258 12.918 12.0439 12.9753C11.8809 13.0895 11.649 13.2387 11.3618 13.3877C10.7969 13.6807 9.96592 14 9.0001 14C6.48756 14 4.61965 12.3565 3.94868 10H2L2.5 8.5H3.69364C3.68306 8.33534 3.6777 8.16858 3.67771 7.99996C3.67772 7.83136 3.68308 7.66463 3.69367 7.5H2L2.5 6H3.94878C4.61976 3.64361 6.48738 2 9.0001 2C9.96592 2 10.7969 2.31928 11.3618 2.61233C11.649 2.76128 11.8809 2.91051 12.0439 3.02468C12.1258 3.08199 12.1911 3.13113 12.2384 3.16787C12.262 3.18627 12.2812 3.20162 12.2956 3.21342L12.3139 3.22841L12.3203 3.23379L12.3229 3.23594L12.324 3.23688C12.324 3.23688 12.325 3.23772 11.6777 4C11.0305 4.76228 11.0309 4.76267 11.0309 4.76267L11.0321 4.76369C11.0286 4.76084 11.0215 4.75514 11.01 4.74619C10.9869 4.72825 10.9486 4.69926 10.8966 4.66282C10.7919 4.58949 10.6357 4.48872 10.4409 4.38767C10.0419 4.18072 9.53416 4 9.0001 4Z" fill="#0E1520"/>
<path d="M11.0321 4.76369L11.0334 4.76476L11.0347 4.76586L11.0321 4.76369Z" fill="#0E1520"/>
</svg>
