<svg width="16" height="16" viewBox="0 0 16 16" fill="none" xmlns="http://www.w3.org/2000/svg">
<path d="M12.8133 6C14.3263 6 15 7.16786 15 9.01071C15 10.7679 14.1165 12.5643 12.6697 12.5643C12.0954 12.5643 11.7145 12.3964 11.35 12V14.8179L9.50005 15V6.18214H11.15L11.35 6.81429C11.836 6.225 12.2279 6 12.8133 6ZM12.1285 11.3214C12.7801 11.3214 13.1888 10.5 13.1888 9.03214C13.1888 7.61786 12.8353 7.24286 12.25 7.24286C11.8524 7.24286 11.6041 7.48929 11.35 7.90714V10.8179C11.593 11.1607 11.7641 11.3214 12.1285 11.3214Z" fill="#0F1621"/>
<path d="M6.58333 13L4.53649 9.17605H3.61396V13H1.25V3H4.52207C7.23198 3 8.63018 3.96681 8.63018 6.04473C8.63018 7.35786 8.01036 8.15151 6.71306 8.74315L9.25 13H6.58333ZM3.61396 4.65945V7.54545H4.60856C5.6464 7.54545 6.19414 7.09812 6.19414 6.04473C6.19414 5.07792 5.63198 4.65945 4.46441 4.65945H3.61396Z" fill="#0F1621"/>
</svg>
