<svg width="16" height="16" viewBox="0 0 16 16" fill="none" xmlns="http://www.w3.org/2000/svg">
<path d="M7 1H9V2.55253C10.0978 2.69535 11.0253 3.12188 11.8027 3.73971L10.8371 5.21556C9.98744 4.66458 9.17638 4.36941 8.26876 4.36941C7.2839 4.36941 6.72389 4.78265 6.72389 5.41234C6.72389 6.10107 7.12942 6.41592 8.8674 6.90787C10.953 7.47853 12.131 8.34436 12.131 10.1941C12.131 11.9829 10.7858 13.0729 9 13.3974V15H7V13.4533C5.63363 13.2953 4.54273 12.7495 3.75 12.0241L4.9859 10.6073C5.77765 11.2174 6.72389 11.6306 7.76668 11.6306C8.8674 11.6306 9.58191 11.1583 9.58191 10.3712C9.58191 9.50537 9.17638 9.22987 7.26459 8.67889C5.1597 8.08855 4.23277 7.0653 4.23277 5.53041C4.23277 4.10284 5.29584 2.96948 7 2.61546V1Z" fill="#0E1520"/>
</svg>
