<svg width="24" height="24" viewBox="0 0 24 24" fill="none" xmlns="http://www.w3.org/2000/svg">
<path fill-rule="evenodd" clip-rule="evenodd" d="M10.5 2H13.5V5.15277C15.9585 5.51269 17.3924 6.54093 17.3924 8.57576C17.3924 10.3535 16.0724 11.2828 14.7314 11.5859C16.3448 11.8889 18 12.6566 18 14.9192C18 17.5488 16.1798 18.6153 13.5 18.9095V22H10.5V19H7V5H10.5V2ZM11.4419 7.34343H10.4362V10.596H11.7143C13.139 10.596 13.8933 10.0707 13.8933 8.89899C13.8933 7.72727 13.0971 7.34343 11.4419 7.34343ZM11.6933 16.596C13.3067 16.596 14.459 16.2727 14.459 14.7374C14.459 13.3232 13.4324 12.798 11.9448 12.798H10.4362V16.596H11.6933Z" fill="#0F1621"/>
</svg>
