<svg width="16" height="16" viewBox="0 0 16 16" fill="none" xmlns="http://www.w3.org/2000/svg">
<path d="M3.5 14L3.08333 11.5H1V9.99999H2.83333L2.58334 8.50001L1 8.50001V7.00001L2.33333 7.00001L1.5 2H4L4.52632 7.00001L5.71053 7.00001L6.5 2H9.5L10.2895 7L11.4737 7L12 2H14.5L13.6667 7L15 7V8.5L13.4167 8.5L13.1667 9.99999H15V11.5H12.9167L12.5 14H9.5L9.10526 11.5H6.89474L6.5 14H3.5ZM11.3158 8.5L10.5263 8.50001L10.7632 9.99999H11.1579L11.3158 8.5ZM8.39474 7L8 4.5L7.60526 7L8.39474 7ZM7.36842 8.50001L7.13158 9.99999H8.86842L8.63158 8.50001L7.36842 8.50001ZM5.47368 8.50001L4.68421 8.50001L4.8421 9.99999H5.23684L5.47368 8.50001Z" fill="#0F1621"/>
</svg>
