<svg width="16" height="16" viewBox="0 0 16 16" fill="none" xmlns="http://www.w3.org/2000/svg">
<path d="M9.0555 1.875C7.1145 1.875 5.37504 3.44058 5.37504 5.47487V7H4V9H5.37504V10.0504C5.37504 10.7914 4.93867 11.4628 4.26155 11.7638L4.0113 11.875H4.00004V11.8808C3.99574 11.8822 3.99121 11.8839 3.98706 11.8858L4.00004 11.8808V11.915V14.125H12V11.875H7.19961C7.4743 11.3183 7.62504 10.6963 7.62504 10.0504V9H10.25V7H7.62504V5.3C7.62504 4.5 8.30024 3.78 9.00024 3.78C9.65024 3.78 10.0002 3.95 10.2502 4.25L11.5204 2.92938C10.8754 2.28434 10.0502 1.875 9.0555 1.875Z" fill="#0E1520"/>
</svg>
