<svg width="24" height="24" viewBox="0 0 24 24" fill="none" xmlns="http://www.w3.org/2000/svg">
<path d="M17.0307 3.5H18.5V5.5H17V18H14L13.7412 16.5175C13.0614 17.4386 12.0088 18.1623 10.4298 18.1623C7.4693 18.1623 6 15.8377 6 12.2632C6 8.84211 7.88596 6.38596 10.7588 6.38596C11.8991 6.38596 12.8421 6.80263 13.5219 7.46053L13.5 5.5H10.5V3.5H13.5L13.5219 2L17 2.5L17.0307 3.5ZM11.5044 15.75C12.3377 15.75 12.9737 15.3333 13.5219 14.5219V9.7193C12.9956 9.14912 12.4693 8.79825 11.7018 8.79825C10.4737 8.79825 9.59649 9.78509 9.59649 12.2632C9.59649 15.0263 10.386 15.75 11.5044 15.75ZM8.5 22V19.5H15.5V22H8.5Z" fill="#0F1621"/>
</svg>
