<svg width="24" height="25" viewBox="0 0 24 25" fill="none" xmlns="http://www.w3.org/2000/svg">
<path fill-rule="evenodd" clip-rule="evenodd" d="M9.25631 5.36233L18.1794 2.81287L21.2438 13.2317L12.3207 15.7811L9.25631 5.36233ZM13.6794 13.3129L18.7563 11.8623L16.8207 5.28111L11.7438 6.73166L13.6794 13.3129ZM3.76825 2.90681L5.68856 5.21117C6.1656 5.78363 6.50866 6.45547 6.69265 7.17756L8.84801 15.6368C10.0615 15.7876 11.1387 16.5716 11.6344 17.7315L21.328 15.1341L21.8456 17.0659L11.861 19.7413C11.6244 21.0289 10.6718 22.1305 9.3232 22.4918C7.45607 22.9921 5.53689 21.8841 5.0366 20.017C4.59676 18.3755 5.40003 16.6937 6.86934 15.9713L4.75457 7.67138C4.64418 7.23812 4.43834 6.83501 4.15212 6.49154L2.23181 4.18718L3.76825 2.90681ZM6.96845 19.4993C6.75404 18.6991 7.22891 17.8766 8.02911 17.6622C8.82931 17.4478 9.65181 17.9227 9.86623 18.7229C10.0806 19.5231 9.60576 20.3456 8.80557 20.56C8.00537 20.7744 7.18286 20.2995 6.96845 19.4993Z" fill="#0E1520"/>
</svg>
