<svg width="16" height="17" viewBox="0 0 16 17" fill="none" xmlns="http://www.w3.org/2000/svg">
<path d="M11.9459 1.09378L6.54138 3.12049L9.05401 10.0303L14.4586 8.00354L11.9459 1.09378Z" fill="#0E1520"/>
<path d="M2.95041 2.7593L1.95002 2.00901L1.05002 3.20901L2.05041 3.9593C2.57927 4.35594 2.97459 4.90442 3.18363 5.53156L4.70176 10.0859C3.97626 10.581 3.5 11.4144 3.5 12.359C3.5 13.8778 4.73122 15.109 6.25 15.109C7.57403 15.109 8.67952 14.1733 8.94126 12.9271L14.9595 10.7642L14.4522 9.35256L8.81946 11.3769C8.4241 10.3431 7.42279 9.609 6.25 9.609C6.20806 9.609 6.16634 9.60994 6.12485 9.6118L4.60666 5.05722C4.30113 4.14063 3.72335 3.33901 2.95041 2.7593Z" fill="#0E1520"/>
</svg>
