<svg width="24" height="24" viewBox="0 0 24 24" fill="none" xmlns="http://www.w3.org/2000/svg">
<path d="M6.49945 2C8.78993 2 9.77751 2.99988 11.9995 3C14.2215 3 14.7092 2.00012 16.9995 2H18.3305C21.2845 2.00025 21.7629 7.08066 20.058 9.49316C18.5808 11.5837 18.9995 12.3726 18.9995 14.9326V15.5322C18.9994 16.5052 18.8691 17.4783 18.5034 18.3799C17.903 19.8598 16.8079 22 15.4995 22C13.1789 21.9994 13.013 16.8283 12.601 14.4873C12.55 14.1981 12.2932 14 11.9995 14C11.7058 14.0001 11.4499 14.1982 11.3989 14.4873C10.9869 16.8284 10.8204 22 8.49945 22C7.19136 21.9997 6.09697 19.8607 5.49652 18.3809C5.13058 17.4789 4.99943 16.5056 4.99945 15.5322V14.7881C4.99955 12.3199 5.23695 11.3278 3.82855 9.30078C2.14624 6.8796 2.86759 2 5.81586 2H6.49945Z" fill="#0F1621"/>
</svg>
