<svg width="24" height="24" viewBox="0 0 24 24" fill="none" xmlns="http://www.w3.org/2000/svg">
<path d="M4.50005 14.1611C4.50007 13.0114 4.55787 12.469 4.48736 11.8867C4.42956 11.4097 4.2774 10.9333 3.77935 10.1621C2.88357 8.77499 2.70493 6.826 3.08599 5.24414C3.45939 3.69438 4.53543 2 6.55181 2H7.00005C8.20776 2 9.09256 2.30038 9.84185 2.55273C10.5846 2.80287 11.1805 3 12.0001 3C12.8196 3 13.4156 2.80287 14.1583 2.55273C14.9075 2.30038 15.7923 2 17.0001 2H17.5352C19.6077 2 20.6137 3.79987 20.9239 5.37402C21.2433 6.99559 20.9981 8.97551 20.1016 10.3545C19.5874 11.1455 19.4758 11.5637 19.4454 11.9727C19.4275 12.2129 19.4361 12.4758 19.4551 12.8574C19.4736 13.2277 19.5001 13.6853 19.5001 14.2451V14.9453C19.5 16.4183 19.2236 17.961 18.4336 19.3301C18.1174 19.8782 17.7278 20.4853 17.3067 20.9678C17.0964 21.2086 16.8528 21.4485 16.5801 21.6348C16.3146 21.8161 15.9437 22 15.5001 22C14.6015 22 14.1189 21.2519 13.9053 20.8369C13.6482 20.3373 13.4611 19.7005 13.3165 19.0664C13.0238 17.7835 12.8437 16.2213 12.712 15.1006C12.6718 14.76 12.3959 14.5 12.0001 14.5C11.6042 14.5 11.3283 14.76 11.2881 15.1006C11.1564 16.2213 10.9763 17.7835 10.6836 19.0664C10.539 19.7005 10.3519 20.3373 10.0948 20.8369C9.88123 21.2519 9.39864 22 8.50005 22C8.05643 22 7.68551 21.8161 7.41998 21.6348C7.14718 21.4485 6.90275 21.2088 6.69244 20.9678C6.27131 20.4852 5.88173 19.8782 5.56548 19.3301C4.77562 17.9611 4.50005 16.4181 4.50005 14.9453V14.1611ZM6.50005 14.9453C6.50005 16.1826 6.73342 17.3516 7.2979 18.3301C7.58929 18.8351 7.90345 19.3133 8.19927 19.6523C8.25732 19.7189 8.31296 19.7737 8.36138 19.8213C8.4865 19.5454 8.6159 19.1407 8.73443 18.6211C8.99835 17.4639 9.16664 16.0174 9.30181 14.8672C9.46648 13.4672 10.6432 12.5 12.0001 12.5C13.3569 12.5 14.5336 13.4672 14.6983 14.8672C14.8335 16.0174 15.0018 17.4639 15.2657 18.6211C15.3842 19.1405 15.5127 19.5454 15.6377 19.8213C15.6863 19.7736 15.7426 19.719 15.8008 19.6523C16.0966 19.3134 16.4109 18.8359 16.7022 18.3311C17.2669 17.3524 17.5 16.1829 17.5001 14.9453V14.2451C17.5001 13.7447 17.4771 13.3395 17.4581 12.957C17.4396 12.5861 17.4229 12.2055 17.4512 11.8242C17.5133 10.9901 17.7835 10.2513 18.4249 9.26465C18.9803 8.41029 19.2022 6.98528 18.961 5.76074C18.7103 4.48867 18.1267 4 17.5352 4H17.0001C16.1464 4 15.5312 4.19964 14.796 4.44727C14.0541 4.69713 13.1805 5 12.0001 5C10.8196 5 9.94605 4.69713 9.20415 4.44727C8.46889 4.19964 7.85374 4 7.00005 4H6.55181C5.92819 4 5.32081 4.50727 5.03033 5.71289C4.74779 6.88617 4.92373 8.2468 5.46001 9.07715C6.08273 10.0414 6.37057 10.8031 6.47271 11.6465C6.5621 12.3846 6.50007 13.2453 6.50005 14.1611V14.9453Z" fill="#0F1621"/>
</svg>
