<svg width="16" height="16" viewBox="0 0 16 16" fill="none" xmlns="http://www.w3.org/2000/svg">
<path d="M3.99972 1C5.61158 1 6.43604 1.99993 7.99972 2C9.56346 2 10.3879 1.00006 11.9997 1H12.6198C14.5267 1 14.7582 4.51373 13.6638 6.0752C12.6088 7.58047 12.9997 7.99387 12.9997 9.83203V10.3916C12.9997 11.1261 12.8976 11.8603 12.6101 12.5361C12.171 13.5682 11.3999 15 10.4997 15C9.27191 14.9997 8.85177 11.1143 8.60129 9.52832C8.55145 9.214 8.27896 9 7.96066 9C7.68065 9.00002 7.4262 9.16568 7.35519 9.43652C6.91543 11.116 6.77751 15 5.49972 15C4.59963 14.9998 3.82845 13.5681 3.38937 12.5361C3.10182 11.8603 2.99972 11.1261 2.99972 10.3916V9.83203C2.99977 7.994 3.39137 7.58021 2.33664 6.0752C1.24219 4.51373 1.47376 1 3.38058 1H3.99972Z" fill="#0F1621"/>
</svg>
