<svg width="16" height="16" viewBox="0 0 16 16" fill="none" xmlns="http://www.w3.org/2000/svg">
<path d="M8 14C12 14 15 12.5 15 8C15 3.57895 11.866 2 8 2C4.13401 2 1 3.57895 1 8C1 12.5 4 14 8 14ZM2.50101 7.87415C2.68454 7.96166 2.8616 8.00008 3.00022 8.00008C3.44956 8.00005 3.5959 8.40405 3.75703 8.84891C3.95441 9.39385 4.17401 10.0001 5 10.0001C5.5 10.0001 5.625 9.87512 5.75 9.75012C5.875 9.62512 6 9.50012 6.5 9.50012C6.94948 9.50012 7.09591 9.80317 7.25713 10.1368C7.4546 10.5455 7.67425 11.0001 8.50007 11C9.25004 11.0001 9.50003 10.6251 9.75003 10.2501C10 9.87506 10.25 9.50004 11 9.50004C12.0718 9.50008 12.282 9.06932 12.4772 8.66948C12.6462 8.3232 12.8039 8.00012 13.5 8.00012C13.5 9.88406 12.8947 10.8914 12.1 11.4875C11.2241 12.1444 9.85576 12.5 8 12.5C6.14424 12.5 4.77591 12.1444 3.9 11.4875C3.10525 10.8914 2.5 9.88401 2.5 8C2.5 7.95762 2.50034 7.91567 2.50101 7.87415ZM9.97214 5.83311C9.62212 6.22745 8.87061 6.50012 8.00001 6.50012C7.12923 6.50012 6.37761 6.22735 6.02767 5.83288C6.18675 5.36015 7.00919 5 7.99987 5C8.99071 5 9.81326 5.36027 9.97214 5.83311Z" fill="#0F1621"/>
</svg>
