<svg width="24" height="24" viewBox="0 0 24 24" fill="none" xmlns="http://www.w3.org/2000/svg">
<path d="M12.0002 6.00012C10.9943 6.00012 10.0786 6.23109 9.38192 6.60491C9.03466 6.79124 8.71129 7.02966 8.46322 7.32313C8.21818 7.61301 8.00024 8.01539 8.00024 8.50012C8.00024 8.98485 8.21818 9.38724 8.46322 9.67712C8.71129 9.97059 9.03466 10.209 9.38192 10.3953C10.0786 10.7692 10.9943 11.0001 12.0002 11.0001C13.0062 11.0001 13.9219 10.7692 14.6186 10.3953C14.9658 10.209 15.2892 9.97059 15.5373 9.67712C15.7823 9.38724 16.0002 8.98485 16.0002 8.50012C16.0002 8.01539 15.7823 7.61301 15.5373 7.32313C15.2892 7.02966 14.9658 6.79124 14.6186 6.60491C13.9219 6.23108 13.0062 6.00012 12.0002 6.00012ZM10.3276 8.36723C10.7005 8.16709 11.2848 8.00012 12.0002 8.00012C12.7157 8.00012 13.2999 8.16709 13.6729 8.36723C13.7607 8.41435 13.8302 8.45969 13.8839 8.50012C13.8302 8.54055 13.7607 8.5859 13.6729 8.63302C13.2999 8.83316 12.7157 9.00012 12.0002 9.00012C11.2848 9.00012 10.7005 8.83316 10.3276 8.63302C10.2397 8.5859 10.1703 8.54055 10.1166 8.50012C10.1703 8.45969 10.2397 8.41435 10.3276 8.36723Z" fill="#0F1621"/>
<path d="M11.9976 3L12 3C17.5228 3 22 5.36842 22 12C22 18.6316 17.5228 21 12 21C6.47715 21 2 18.6316 2 12C2 11.1752 2.06926 10.4163 2.20118 9.71974C2.2148 9.57021 2.2399 9.42156 2.27567 9.27496C2.70682 7.28081 3.79506 5.67864 5.49263 4.59467C7.17064 3.52319 9.37524 3 11.9956 3L11.9976 3ZM19.9979 12.2302C19.7742 12.3197 19.5361 12.395 19.2875 12.4588C19.0445 12.5483 18.9616 12.6985 18.6709 13.2258C18.6375 13.2864 18.6013 13.352 18.5618 13.4231C18.3921 13.7286 18.1375 14.1495 17.7055 14.4768C17.2467 14.8244 16.6812 15 16.0001 15C15.6831 15 15.4898 15.0747 15.3445 15.1642C15.1771 15.2672 15.0259 15.4177 14.8152 15.6585C14.7854 15.6926 14.7531 15.7307 14.7183 15.7718C14.3467 16.2108 13.6787 17 12.5001 17C11.1716 17 10.5361 16.0444 10.2146 15.53C10.165 15.4507 10.1232 15.3827 10.0869 15.3237C9.99333 15.1715 9.93622 15.0787 9.87664 15.0041C9.70192 15.0169 9.61519 15.0603 9.4661 15.135L9.44729 15.1444C9.14069 15.2977 8.72666 15.5 8.00008 15.5C7.31954 15.5 6.75296 15.3247 6.29408 14.9754C5.86091 14.6457 5.6089 14.2221 5.44172 13.9117C5.39049 13.8166 5.34513 13.7314 5.30443 13.655C5.03325 13.1457 4.96928 13.0256 4.7561 12.9476C4.49374 12.8634 4.24673 12.7644 4.01721 12.6502C4.149 15.0766 5.02403 16.5186 6.16414 17.4139C7.48717 18.4528 9.47902 19 12 19C14.521 19 16.5128 18.4528 17.8359 17.4139C19.0403 16.4681 19.9489 14.9122 19.9979 12.2302ZM12.4813 5.00682C12.3231 5.00228 12.1626 5 12 5C9.47902 5 7.48717 5.5472 6.16414 6.58614C5.25872 7.29713 4.52048 8.35292 4.18891 9.97271C4.18742 10.1283 4.23057 10.2627 4.31121 10.384C4.44009 10.5779 4.73691 10.8433 5.37871 11.0469L5.39323 11.0515L5.4076 11.0565C6.43824 11.4184 6.88558 12.325 7.11918 12.7985C7.15053 12.862 7.17802 12.9177 7.20256 12.9633C7.33834 13.2154 7.4253 13.323 7.50536 13.384C7.55971 13.4253 7.68062 13.5 8.00008 13.5C8.26448 13.5 8.35358 13.4554 8.53405 13.365L8.55286 13.3556C8.85946 13.2023 9.2735 13 10.0001 13C10.6455 13 11.0844 13.3457 11.3542 13.654C11.5482 13.8757 11.7237 14.164 11.844 14.3615C11.8686 14.4019 11.8909 14.4385 11.9106 14.47C12.2141 14.9556 12.3286 15 12.5001 15C12.711 15 12.7826 14.9442 13.31 14.3415C13.5368 14.0823 13.8544 13.7328 14.2963 13.4608C14.7604 13.1753 15.3172 13 16.0001 13C16.319 13 16.4411 12.9256 16.4978 12.8826C16.5815 12.8192 16.6707 12.7089 16.8135 12.4519C16.839 12.4058 16.8672 12.3514 16.8987 12.2904C17.1495 11.8055 17.6137 10.908 18.6839 10.5513L18.7203 10.5392L18.7576 10.5299C19.6447 10.3081 19.7378 10.0598 19.7512 10.0241C19.7681 9.97909 19.7797 9.91467 19.7784 9.82062C19.4326 8.28644 18.7126 7.27463 17.8359 6.58614C16.5982 5.61423 14.7752 5.07265 12.4813 5.00682Z" fill="#0F1621"/>
</svg>
