<svg width="24" height="24" viewBox="0 0 24 24" fill="none" xmlns="http://www.w3.org/2000/svg">
<path d="M12 21C17.5228 21 22 18.6316 22 12C22 5.36842 17.5228 3 12 3C6.47715 3 2 5.36842 2 12C2 18.6316 6.47715 21 12 21ZM4.00177 12.212C4.3133 12.3934 4.5 12.5 5 12.5C5.5 12.5 5.70798 13.0599 5.93816 13.7082C6.22014 14.5022 6.53384 15.3856 7.71382 15.3857C8.4281 15.3857 8.60667 15.2035 8.78524 15.0214C8.96381 14.8392 9.14238 14.6571 9.85666 14.6571C10.4988 14.6571 10.708 15.0987 10.9383 15.5849C11.2204 16.1803 11.5341 16.8427 12.7139 16.8426C13.7852 16.8427 14.1424 16.2963 14.4995 15.7498C14.8566 15.2034 15.2138 14.657 16.2852 14.657C17.8163 14.657 18.1166 14.0293 18.3954 13.4467C18.6368 12.9421 18.8621 12.4714 19.8566 12.4714C19.9029 12.4714 19.9479 12.4692 19.9913 12.465C19.8949 15.0036 19.0047 16.496 17.8359 17.4139C16.5128 18.4528 14.521 19 12 19C9.47902 19 7.48717 18.4528 6.16414 17.4139C4.95701 16.4659 4.04703 14.9051 4.00177 12.212ZM14.8166 8.58672C14.3161 9.16058 13.2433 9.55725 12.0006 9.55725C10.7556 9.55725 9.68121 9.15916 9.18181 8.58364C9.41024 7.89553 10.5845 7.37149 11.9987 7.37149C13.4151 7.37149 14.5907 7.8971 14.8166 8.58672Z" fill="#0F1621"/>
</svg>
