<svg width="16" height="16" viewBox="0 0 16 16" fill="none" xmlns="http://www.w3.org/2000/svg">
<path d="M8.00016 1.33331H2.66683C2.31321 1.33331 1.97407 1.47379 1.72402 1.72384C1.47397 1.97389 1.3335 2.31302 1.3335 2.66665V13.3333C1.3335 13.6869 1.47397 14.0261 1.72402 14.2761C1.97407 14.5262 2.31321 14.6666 2.66683 14.6666H8.00016C8.35379 14.6666 8.69292 14.5262 8.94297 14.2761C9.19302 14.0261 9.3335 13.6869 9.3335 13.3333V2.66665C9.3335 2.31302 9.19302 1.97389 8.94297 1.72384C8.69292 1.47379 8.35379 1.33331 8.00016 1.33331ZM4.66683 2.99998C4.66683 2.91157 4.70195 2.82679 4.76446 2.76428C4.82697 2.70177 4.91176 2.66665 5.00016 2.66665H5.66683C5.75524 2.66665 5.84002 2.70177 5.90253 2.76428C5.96504 2.82679 6.00016 2.91157 6.00016 2.99998V4.33331C6.00016 4.42172 5.96504 4.5065 5.90253 4.56902C5.84002 4.63153 5.75524 4.66665 5.66683 4.66665H5.00016C4.91176 4.66665 4.82697 4.63153 4.76446 4.56902C4.70195 4.5065 4.66683 4.42172 4.66683 4.33331V2.99998ZM6.3335 9.66665L6.00016 12.6666H4.66683L4.3335 9.66665L3.3335 9.33331C3.3335 9.33331 3.5135 6.89331 3.60683 5.93331C3.62341 5.7683 3.70091 5.61539 3.82418 5.50444C3.94745 5.3935 4.10765 5.33248 4.2735 5.33331C4.66683 5.33331 4.8535 5.66665 5.34016 5.66665C5.82683 5.66665 6.00016 5.33331 6.3935 5.33331C6.55934 5.33248 6.71954 5.3935 6.84281 5.50444C6.96609 5.61539 7.04358 5.7683 7.06016 5.93331L7.3335 9.33331L6.3335 9.66665ZM14.6668 6.66665H10.6668L12.6668 3.33331L14.6668 6.66665ZM10.6668 9.33331L14.6668 9.36665L12.6668 12.6666L10.6668 9.33331Z" fill="#0F1621"/>
</svg>
