<svg width="24" height="24" viewBox="0 0 24 24" fill="none" xmlns="http://www.w3.org/2000/svg">
<path d="M12 4V20H4V4H12ZM12 2H4C2.9 2 2 2.9 2 4V20C2 21.1 2.9 22 4 22H12C13.1 22 14 21.1 14 20V4C14 2.9 13.1 2 12 2ZM7 5.5C7 5.2 7.2 5 7.5 5H8.5C8.8 5 9 5.2 9 5.5V7.5C9 7.8 8.8 8 8.5 8H7.5C7.2 8 7 7.8 7 7.5V5.5ZM9.5 14.5L9 19H7L6.5 14.5L5 14C5 14 5.3 11.4 5.4 10C5.5 9.5 5.9 9.1 6.4 9.1C7 9.1 7.3 9.6 8 9.6C8.8 9.6 9 9.1 9.6 9.1C10.1 9.1 10.5 9.5 10.6 10L11 14L9.5 14.5ZM22 10H16L19 5L22 10ZM16 14H22L19 19L16 14Z" fill="#0F1621"/>
</svg>
