<svg width="16" height="16" viewBox="0 0 16 16" fill="none" xmlns="http://www.w3.org/2000/svg">
<path fill-rule="evenodd" clip-rule="evenodd" d="M2 1C1.44772 1 1 1.44772 1 2V14C1 14.5523 1.44772 15 2 15H8C8.55228 15 9 14.5523 9 14V2C9 1.44772 8.55228 1 8 1H2ZM4 4C4 3.44772 4.44772 3 5 3C5.55228 3 6 3.44772 6 4V4.5C6 5.05228 5.55228 5.5 5 5.5C4.44772 5.5 4 5.05228 4 4.5V4ZM4 12.5C4 12.7761 4.22386 13 4.5 13H5.5C5.77614 13 6 12.7761 6 12.5V10H7V7C7 6.44772 6.55228 6 6 6H4C3.44772 6 3 6.44772 3 7V10H4V12.5Z" fill="#0E1520"/>
<path d="M10 7L12.5 3L15 7H10Z" fill="#0E1520"/>
<path d="M15 9L12.5 13L10 9H15Z" fill="#0E1520"/>
</svg>
