<svg width="24" height="24" viewBox="0 0 24 24" fill="none" xmlns="http://www.w3.org/2000/svg">
<path fill-rule="evenodd" clip-rule="evenodd" d="M4 2C2.89543 2 2 2.89543 2 4V20C2 21.1046 2.89543 22 4 22H12C13.1046 22 14 21.1046 14 20V4C14 2.89543 13.1046 2 12 2H4ZM8 4C7.44772 4 7 4.44772 7 5V6C7 6.55228 7.44772 7 8 7C8.55228 7 9 6.55228 9 6V5C9 4.44772 8.55228 4 8 4ZM6.5 19.5C6.5 19.7761 6.72386 20 7 20H9C9.27614 20 9.5 19.7761 9.5 19.5V15H11V9C11 8.44772 10.5523 8 10 8H6C5.44772 8 5 8.44772 5 9V15H6.5V19.5Z" fill="#0E1520"/>
<path d="M16 10L19 5L22 10H16Z" fill="#0E1520"/>
<path d="M22 14L19 19L16 14L22 14Z" fill="#0E1520"/>
</svg>
