<svg width="24" height="24" viewBox="0 0 24 24" fill="none" xmlns="http://www.w3.org/2000/svg">
<path d="M12 4V20H4L4 4H12ZM4 2C2.89543 2 2 2.89543 2 4V20C2 21.1046 2.89543 22 4 22H12C13.1046 22 14 21.1046 14 20V4C14 2.89543 13.1046 2 12 2H4Z" fill="#0E1520"/>
<path d="M7 6C7 5.44772 7.44772 5 8 5C8.55228 5 9 5.44772 9 6V7C9 7.55228 8.55228 8 8 8C7.44772 8 7 7.55228 7 7V6Z" fill="#0E1520"/>
<path d="M6.5 18.5C6.5 18.7761 6.72386 19 7 19H9C9.27614 19 9.5 18.7761 9.5 18.5V14.5H11V10.5C11 9.67157 10.3284 9 9.5 9H6.5C5.67157 9 5 9.67157 5 10.5V14.5H6.5V18.5Z" fill="#0E1520"/>
<path d="M16 10L19 5L22 10H16Z" fill="#0E1520"/>
<path d="M22 14L19 19L16 14L22 14Z" fill="#0E1520"/>
</svg>
