<svg width="16" height="16" viewBox="0 0 16 16" fill="none" xmlns="http://www.w3.org/2000/svg">
<path d="M8.00017 1.33331C6.68162 1.33331 5.39269 1.72431 4.29636 2.45685C3.20004 3.18939 2.34555 4.23058 1.84097 5.44876C1.33638 6.66693 1.20436 8.00738 1.4616 9.30058C1.71883 10.5938 2.35377 11.7817 3.28612 12.714C4.21847 13.6464 5.40636 14.2813 6.69956 14.5385C7.99277 14.7958 9.33321 14.6638 10.5514 14.1592C11.7696 13.6546 12.8108 12.8001 13.5433 11.7038C14.2758 10.6075 14.6668 9.31852 14.6668 7.99998C14.6668 7.1245 14.4944 6.25759 14.1594 5.44876C13.8243 4.63992 13.3333 3.90499 12.7142 3.28593C12.0952 2.66688 11.3602 2.17581 10.5514 1.84078C9.74255 1.50575 8.87564 1.33331 8.00017 1.33331ZM8.94017 7.99998L12.2068 4.73331C12.9367 5.66579 13.3332 6.81583 13.3332 7.99998C13.3332 9.18413 12.9367 10.3342 12.2068 11.2666L8.94017 7.99998ZM11.2668 3.79331L8.00017 7.05998L4.7335 3.79331C5.66598 3.06346 6.81602 2.66691 8.00017 2.66691C9.18431 2.66691 10.3344 3.06346 11.2668 3.79331ZM3.7935 4.73331L7.06017 7.99998L3.7935 11.2666C3.06365 10.3342 2.66709 9.18413 2.66709 7.99998C2.66709 6.81583 3.06365 5.66579 3.7935 4.73331ZM4.7335 12.2066L8.00017 8.93998L11.2668 12.2066C10.3344 12.9365 9.18431 13.3331 8.00017 13.3331C6.81602 13.3331 5.66598 12.9365 4.7335 12.2066Z" fill="#0F1621"/>
</svg>
