<svg width="24" height="24" viewBox="0 0 24 24" fill="none" xmlns="http://www.w3.org/2000/svg">
<path d="M12 2.00006C10.0222 2.00006 8.08879 2.58655 6.4443 3.68537C4.79981 4.78418 3.51809 6.34597 2.76121 8.17323C2.00433 10.0005 1.8063 12.0112 2.19215 13.951C2.578 15.8908 3.53041 17.6726 4.92894 19.0711C6.32746 20.4697 8.10929 21.4221 10.0491 21.8079C11.9889 22.1938 13.9996 21.9957 15.8268 21.2389C17.6541 20.482 19.2159 19.2003 20.3147 17.5558C21.4135 15.9113 22 13.9779 22 12.0001C22 10.6868 21.7413 9.38648 21.2388 8.17323C20.7362 6.95997 19.9997 5.85758 19.0711 4.92899C18.1425 4.00041 17.0401 3.26381 15.8268 2.76127C14.6136 2.25872 13.3132 2.00006 12 2.00006ZM13.41 12.0001L18.31 7.10006C19.4048 8.49878 19.9996 10.2238 19.9996 12.0001C19.9996 13.7763 19.4048 15.5013 18.31 16.9001L13.41 12.0001ZM16.9 5.69006L12 10.5901L7.1 5.69006C8.49872 4.59528 10.2238 4.00045 12 4.00045C13.7762 4.00045 15.5013 4.59528 16.9 5.69006ZM5.69 7.10006L10.59 12.0001L5.69 16.9001C4.59523 15.5013 4.0004 13.7763 4.0004 12.0001C4.0004 10.2238 4.59523 8.49878 5.69 7.10006ZM7.1 18.3101L12 13.4101L16.9 18.3101C15.5013 19.4048 13.7762 19.9997 12 19.9997C10.2238 19.9997 8.49872 19.4048 7.1 18.3101Z" fill="#0F1621"/>
</svg>
