<svg width="16" height="16" viewBox="0 0 16 16" fill="none" xmlns="http://www.w3.org/2000/svg">
<path d="M3.3335 4L8.00016 7V8.33334L3.3335 11.3333L4.00016 8.66667H1.3335V6.66667H4.00016L3.3335 4ZM14.6668 4.26V11.74C14.6677 12.0124 14.5851 12.2786 14.4302 12.5027C14.2752 12.7268 14.0554 12.898 13.8002 12.9933L10.2335 14.3267C10.133 14.3642 10.0249 14.377 9.91848 14.3638C9.81201 14.3507 9.71029 14.312 9.62194 14.2512C9.5336 14.1903 9.46125 14.109 9.41104 14.0143C9.36082 13.9195 9.33422 13.8139 9.3335 13.7067V2.29334C9.33422 2.18607 9.36082 2.08055 9.41104 1.98576C9.46125 1.89096 9.5336 1.80968 9.62194 1.74883C9.71029 1.68797 9.81201 1.64933 9.91848 1.63619C10.0249 1.62304 10.133 1.63579 10.2335 1.67334L13.8002 3.00667C14.0554 3.10202 14.2752 3.27326 14.4302 3.49733C14.5851 3.72141 14.6677 3.98757 14.6668 4.26ZM12.0002 6.66667H10.6668V8.66667H12.0002V6.66667Z" fill="#0F1621"/>
</svg>
