<svg width="24" height="24" viewBox="0 0 24 24" fill="none" xmlns="http://www.w3.org/2000/svg">
<path d="M5 6.0001L12 10.5001V12.5001L5 17.0001L6 13.0001H2V10.0001H6L5 6.0001ZM22 6.3901V17.6101C22.0013 18.0187 21.8774 18.418 21.645 18.7541C21.4126 19.0902 21.0828 19.3471 20.7 19.4901L15.35 21.4901C15.1993 21.5464 15.0372 21.5655 14.8775 21.5458C14.7178 21.5261 14.5652 21.4681 14.4327 21.3769C14.3002 21.2856 14.1916 21.1637 14.1163 21.0215C14.041 20.8793 14.0011 20.721 14 20.5601V3.4401C14.0011 3.27919 14.041 3.12092 14.1163 2.97873C14.1916 2.83653 14.3002 2.71462 14.4327 2.62333C14.5652 2.53204 14.7178 2.47408 14.8775 2.45437C15.0372 2.43466 15.1993 2.45377 15.35 2.5101L20.7 4.5101C21.0828 4.65312 21.4126 4.90998 21.645 5.24609C21.8774 5.58221 22.0013 5.98145 22 6.3901ZM18 10.0001H16V13.0001H18V10.0001Z" fill="#0F1621"/>
</svg>
