<svg width="16" height="16" viewBox="0 0 16 16" fill="none" xmlns="http://www.w3.org/2000/svg">
<path d="M13.3332 3.33331H9.33317V2.23331C9.33815 2.12607 9.31716 2.01921 9.27199 1.92183C9.22681 1.82445 9.15879 1.73941 9.0737 1.67396C8.98861 1.6085 8.88897 1.56456 8.78325 1.54588C8.67754 1.5272 8.56888 1.53432 8.46651 1.56664L3.61984 3.04664C3.34413 3.12862 3.10232 3.29756 2.9305 3.52825C2.75869 3.75893 2.66608 4.039 2.66651 4.32664V11.66C2.66608 11.9476 2.75869 12.2277 2.9305 12.4584C3.10232 12.6891 3.34413 12.858 3.61984 12.94L8.46651 14.3933C8.56888 14.4256 8.67754 14.4327 8.78325 14.4141C8.88897 14.3954 8.98861 14.3514 9.0737 14.286C9.15879 14.2205 9.22681 14.1355 9.27199 14.0381C9.31716 13.9407 9.33815 13.8339 9.33317 13.7266V4.66664H11.9998V12.6666H13.3332V3.33331ZM7.33317 8.66664H5.99984V6.66664H7.33317V8.66664Z" fill="#0F1621"/>
</svg>
