<svg width="16" height="16" viewBox="0 0 16 16" fill="none" xmlns="http://www.w3.org/2000/svg">
<path d="M3.9535 9.33331H3.50016L3.92683 5.91998C3.94648 5.75737 4.0253 5.60769 4.14826 5.49949C4.27122 5.39128 4.42971 5.33213 4.5935 5.33331H5.66683C5.79815 5.33331 5.92819 5.35918 6.04951 5.40943C6.17084 5.45969 6.28108 5.53335 6.37394 5.62621C6.46679 5.71906 6.54045 5.8293 6.59071 5.95063C6.64096 6.07196 6.66683 6.20199 6.66683 6.33331V6.61998L3.9535 9.33331ZM6.00016 3.33331V1.99998C6.00016 1.82317 5.92992 1.6536 5.8049 1.52858C5.67988 1.40355 5.51031 1.33331 5.3335 1.33331H4.66683C4.49002 1.33331 4.32045 1.40355 4.19543 1.52858C4.0704 1.6536 4.00016 1.82317 4.00016 1.99998V3.99998H5.3335C5.51031 3.99998 5.67988 3.92974 5.8049 3.80472C5.92992 3.67969 6.00016 3.51012 6.00016 3.33331ZM13.3335 4.66665H10.5068L4.50683 10.6666H2.66683C1.56016 10.6666 1.3335 11.56 1.3335 12.6666C1.3335 13.7733 1.56016 14.6666 2.66683 14.6666H6.16016L12.1602 8.66665H13.3335C14.4402 8.66665 14.6668 7.77331 14.6668 6.66665C14.6668 5.55998 14.4402 4.66665 13.3335 4.66665Z" fill="#0F1621"/>
</svg>
