<svg width="24" height="24" viewBox="0 0 24 24" fill="none" xmlns="http://www.w3.org/2000/svg">
<path d="M12 6.00015C16.41 6.00015 20 8.69015 20 12.0002C20 15.3102 16.41 18.0002 12 18.0002C7.59 18.0002 4 15.3102 4 12.0002C4 8.69015 7.59 6.00015 12 6.00015ZM12 4.00015C6.48 4.00015 2 7.58015 2 12.0002C2 16.4202 6.48 20.0002 12 20.0002C17.52 20.0002 22 16.4202 22 12.0002C22 7.58015 17.52 4.00015 12 4.00015ZM12 10.0002C14.44 10.0002 16 11.1802 16 12.0002C16 12.8202 14.44 14.0002 12 14.0002C9.56 14.0002 8 12.8202 8 12.0002C8 11.1802 9.56 10.0002 12 10.0002ZM12 8.00015C8.69 8.00015 6 9.79015 6 12.0002C6 14.2102 8.69 16.0002 12 16.0002C15.31 16.0002 18 14.2102 18 12.0002C18 9.79015 15.31 8.00015 12 8.00015Z" fill="#0F1621"/>
</svg>
