<svg width="24" height="24" viewBox="0 0 24 24" fill="none" xmlns="http://www.w3.org/2000/svg">
<path d="M12 3.99985C13.5823 3.99985 15.129 4.46904 16.4446 5.34809C17.7602 6.22714 18.7855 7.47657 19.391 8.93838C19.9965 10.4002 20.155 12.0087 19.8463 13.5606C19.5376 15.1124 18.7757 16.5379 17.6569 17.6567C16.538 18.7755 15.1126 19.5375 13.5607 19.8461C12.0089 20.1548 10.4003 19.9964 8.93854 19.3909C7.47673 18.7854 6.2273 17.76 5.34825 16.4444C4.4692 15.1288 4 13.5821 4 11.9998C4 9.87812 4.84286 7.84329 6.34315 6.34299C7.84344 4.8427 9.87827 3.99985 12 3.99985ZM12 1.99985C10.0222 1.99985 8.08879 2.58634 6.4443 3.68515C4.79981 4.78397 3.51809 6.34575 2.76121 8.17301C2.00433 10.0003 1.8063 12.0109 2.19215 13.9508C2.578 15.8906 3.53041 17.6724 4.92894 19.0709C6.32746 20.4694 8.10929 21.4219 10.0491 21.8077C11.9889 22.1936 13.9996 21.9955 15.8268 21.2386C17.6541 20.4818 19.2159 19.2 20.3147 17.5556C21.4135 15.9111 22 13.9777 22 11.9998C22 10.6866 21.7413 9.38627 21.2388 8.17301C20.7362 6.95976 19.9997 5.85737 19.0711 4.92878C18.1425 4.00019 17.0401 3.2636 15.8268 2.76105C14.6136 2.25851 13.3132 1.99985 12 1.99985ZM12 7.99985C11.2089 7.99985 10.4355 8.23444 9.77772 8.67397C9.11993 9.1135 8.60724 9.73821 8.30448 10.4691C8.00173 11.2 7.92252 12.0043 8.07686 12.7802C8.2312 13.5561 8.61217 14.2689 9.17158 14.8283C9.73099 15.3877 10.4437 15.7687 11.2196 15.923C11.9956 16.0773 12.7998 15.9981 13.5307 15.6954C14.2616 15.3926 14.8864 14.8799 15.3259 14.2221C15.7654 13.5643 16 12.791 16 11.9998C16 10.939 15.5786 9.92157 14.8284 9.17142C14.0783 8.42128 13.0609 7.99985 12 7.99985Z" fill="#0F1621"/>
</svg>
