<svg width="24" height="24" viewBox="0 0 24 24" fill="none" xmlns="http://www.w3.org/2000/svg">
<path d="M20.0001 5.99982C19.0686 4.75786 17.8607 3.74982 16.4722 3.05555C15.0836 2.36127 13.5525 1.99982 12.0001 1.99982C10.4476 1.99982 8.91647 2.36127 7.52792 3.05555C6.13937 3.74982 4.93153 4.75786 4.00006 5.99982C2.69529 7.72734 1.99276 9.83494 2.00006 11.9998C2.00006 14.652 3.05362 17.1955 4.92899 19.0709C6.80435 20.9462 9.34789 21.9998 12.0001 21.9998C14.6522 21.9998 17.1958 20.9462 19.0711 19.0709C20.9465 17.1955 22.0001 14.652 22.0001 11.9998C22.0073 9.83494 21.3048 7.72734 20.0001 5.99982ZM14.5901 7.99982L12.0001 10.5898L9.41006 7.99982H14.5901ZM13.0001 5.99982V4.06982C14.5876 4.27061 16.0785 4.9429 17.2801 5.99982H13.0001ZM11.0001 4.06982V5.99982H6.72006C7.92159 4.9429 9.41247 4.27061 11.0001 4.06982ZM5.08006 7.99982H6.59006L10.5901 11.9998L5.69006 16.8998C4.70988 15.6475 4.12781 14.13 4.01906 12.5434C3.91032 10.9569 4.27991 9.37415 5.08006 7.99982ZM7.08006 18.3098L11.9801 13.4098L16.8801 18.3098C15.4813 19.4046 13.7563 19.9994 11.9801 19.9994C10.2038 19.9994 8.47878 19.4046 7.08006 18.3098ZM18.3101 16.8998L13.4101 11.9998L17.4101 7.99982H18.9201C19.7202 9.37415 20.0898 10.9569 19.981 12.5434C19.8723 14.13 19.2902 15.6475 18.3101 16.8998Z" fill="#0F1621"/>
</svg>
