<svg width="16" height="16" viewBox="0 0 16 16" fill="none" xmlns="http://www.w3.org/2000/svg">
<path d="M8.00017 2.66668C9.055 2.66668 10.0861 2.97947 10.9632 3.56551C11.8403 4.15154 12.5239 4.98449 12.9275 5.95903C13.3312 6.93357 13.4368 8.00593 13.231 9.04049C13.0252 10.0751 12.5173 11.0254 11.7714 11.7712C11.0255 12.5171 10.0752 13.0251 9.04065 13.2309C8.00608 13.4367 6.93373 13.331 5.95919 12.9274C4.98465 12.5237 4.1517 11.8401 3.56566 10.9631C2.97963 10.086 2.66683 9.05484 2.66683 8.00001C2.66683 6.58552 3.22874 5.22897 4.22893 4.22877C5.22912 3.22858 6.58568 2.66668 8.00017 2.66668ZM8.00017 1.33334C6.68162 1.33334 5.39269 1.72434 4.29636 2.45688C3.20004 3.18942 2.34555 4.23061 1.84097 5.44879C1.33638 6.66696 1.20436 8.00741 1.4616 9.30061C1.71883 10.5938 2.35377 11.7817 3.28612 12.7141C4.21847 13.6464 5.40636 14.2813 6.69956 14.5386C7.99277 14.7958 9.33321 14.6638 10.5514 14.1592C11.7696 13.6546 12.8108 12.8001 13.5433 11.7038C14.2758 10.6075 14.6668 9.31855 14.6668 8.00001C14.6668 7.12453 14.4944 6.25762 14.1594 5.44879C13.8243 4.63995 13.3333 3.90502 12.7142 3.28596C12.0952 2.66691 11.3602 2.17584 10.5514 1.84081C9.74255 1.50578 8.87564 1.33334 8.00017 1.33334Z" fill="#0F1621"/>
</svg>
