<svg width="16" height="16" viewBox="0 0 16 16" fill="none" xmlns="http://www.w3.org/2000/svg">
<path d="M7.99984 1.33331L2.6665 4.27998V14.6666H7.15984V11.3333H8.8265V14.6666H13.3332V4.27998L7.99984 1.33331ZM5.99984 6.66665H4.33317V4.66665H5.99984V6.66665ZM8.8265 6.66665H7.15984V4.66665H8.8265V6.66665ZM11.6665 6.66665H9.99984V4.66665H11.6665V6.66665ZM5.99984 9.99998H4.33317V7.99998H5.99984V9.99998ZM8.8265 9.99998H7.15984V7.99998H8.8265V9.99998ZM11.6665 9.99998H9.99984V7.99998H11.6665V9.99998ZM5.99984 13.3333H4.33317V11.3333H5.99984V13.3333ZM11.6665 13.3333H9.99984V11.3333H11.6665V13.3333Z" fill="#0F1621"/>
</svg>
