<svg width="24" height="24" viewBox="0 0 24 24" fill="none" xmlns="http://www.w3.org/2000/svg">
<path d="M12 3.99982C13.5823 3.99982 15.129 4.46901 16.4446 5.34806C17.7602 6.22711 18.7855 7.47654 19.391 8.93835C19.9965 10.4002 20.155 12.0087 19.8463 13.5605C19.5376 15.1124 18.7757 16.5379 17.6569 17.6567C16.538 18.7755 15.1126 19.5374 13.5607 19.8461C12.0089 20.1548 10.4003 19.9964 8.93854 19.3909C7.47673 18.7854 6.2273 17.76 5.34825 16.4444C4.4692 15.1288 4 13.5821 4 11.9998C4 9.87809 4.84286 7.84325 6.34315 6.34296C7.84344 4.84267 9.87827 3.99982 12 3.99982ZM12 1.99982C10.0222 1.99982 8.08879 2.58631 6.4443 3.68512C4.79981 4.78394 3.51809 6.34572 2.76121 8.17298C2.00433 10.0002 1.8063 12.0109 2.19215 13.9507C2.578 15.8905 3.53041 17.6724 4.92894 19.0709C6.32746 20.4694 8.10929 21.4218 10.0491 21.8077C11.9889 22.1935 13.9996 21.9955 15.8268 21.2386C17.6541 20.4817 19.2159 19.2 20.3147 17.5555C21.4135 15.911 22 13.9776 22 11.9998C22 10.6866 21.7413 9.38624 21.2388 8.17298C20.7362 6.95973 19.9997 5.85734 19.0711 4.92875C18.1425 4.00016 17.0401 3.26357 15.8268 2.76102C14.6136 2.25847 13.3132 1.99982 12 1.99982ZM12 7.99982C12.7911 7.99982 13.5645 8.23441 14.2223 8.67394C14.8801 9.11347 15.3928 9.73818 15.6955 10.4691C15.9983 11.2 16.0775 12.0043 15.9231 12.7802C15.7688 13.5561 15.3878 14.2688 14.8284 14.8282C14.269 15.3877 13.5563 15.7686 12.7804 15.923C12.0044 16.0773 11.2002 15.9981 10.4693 15.6953C9.73837 15.3926 9.11365 14.8799 8.67413 14.2221C8.2346 13.5643 8 12.7909 8 11.9998C8 10.939 8.42143 9.92154 9.17158 9.17139C9.92172 8.42124 10.9391 7.99982 12 7.99982ZM12 5.99982C10.8133 5.99982 9.65328 6.35171 8.66658 7.011C7.67989 7.67029 6.91085 8.60736 6.45673 9.70372C6.0026 10.8001 5.88378 12.0065 6.11529 13.1704C6.3468 14.3342 6.91825 15.4033 7.75736 16.2425C8.59648 17.0816 9.66558 17.653 10.8295 17.8845C11.9933 18.116 13.1997 17.9972 14.2961 17.5431C15.3925 17.089 16.3295 16.3199 16.9888 15.3332C17.6481 14.3465 18 13.1865 18 11.9998C18 10.4085 17.3679 8.8824 16.2426 7.75718C15.1174 6.63196 13.5913 5.99982 12 5.99982Z" fill="#0F1621"/>
</svg>
