<svg width="16" height="16" viewBox="0 0 16 16" fill="none" xmlns="http://www.w3.org/2000/svg">
<path d="M13.3335 3.99998C12.7126 3.17201 11.9073 2.49998 10.9816 2.03713C10.0559 1.57428 9.03517 1.33331 8.0002 1.33331C6.96523 1.33331 5.94448 1.57428 5.01878 2.03713C4.09307 2.49998 3.28785 3.17201 2.66687 3.99998C1.79703 5.15166 1.32867 6.55673 1.33353 7.99998C1.33353 9.76809 2.03591 11.4638 3.28616 12.714C4.5364 13.9643 6.23209 14.6666 8.0002 14.6666C9.76831 14.6666 11.464 13.9643 12.7142 12.714C13.9645 11.4638 14.6669 9.76809 14.6669 7.99998C14.6717 6.55673 14.2034 5.15166 13.3335 3.99998ZM9.72687 5.33331L8.0002 7.05998L6.27353 5.33331H9.72687ZM8.66687 3.99998V2.71331C9.72526 2.84717 10.7192 3.29537 11.5202 3.99998H8.66687ZM7.33353 2.71331V3.99998H4.4802C5.28122 3.29537 6.27514 2.84717 7.33353 2.71331ZM3.38687 5.33331H4.39353L7.0602 7.99998L3.79353 11.2666C3.14008 10.4318 2.75203 9.42011 2.67954 8.3624C2.60704 7.30468 2.85343 6.24954 3.38687 5.33331ZM4.7202 12.2066L7.98687 8.93998L11.2535 12.2066C10.3211 12.9365 9.17101 13.3331 7.98687 13.3331C6.80272 13.3331 5.65268 12.9365 4.7202 12.2066ZM12.2069 11.2666L8.9402 7.99998L11.6069 5.33331H12.6135C13.147 6.24954 13.3934 7.30468 13.3209 8.3624C13.2484 9.42011 12.8603 10.4318 12.2069 11.2666Z" fill="#0F1621"/>
</svg>
