<svg width="16" height="16" viewBox="0 0 16 16" fill="none" xmlns="http://www.w3.org/2000/svg">
<path d="M14.6663 4.00004L13.9997 14.6667H10.7663C10.9185 14.3552 10.9983 14.0134 10.9997 13.6667V11.8267C11.2173 11.4789 11.3327 11.077 11.3327 10.6667C11.3327 10.2565 11.2173 9.85448 10.9997 9.50671V8.00004C10.9997 7.11599 10.6485 6.26814 10.0234 5.64302C9.39824 5.0179 8.5504 4.66671 7.66634 4.66671H7.39301L7.33301 4.00004H10.333V2.66671C10.3322 2.55087 10.3717 2.43835 10.4446 2.34837C10.5176 2.25839 10.6195 2.19654 10.733 2.17337L13.3997 1.33337L13.6663 2.33337L11.6663 3.00004V4.00004H14.6663ZM1.66634 13.6467C1.66368 13.7797 1.68758 13.9119 1.73664 14.0355C1.78571 14.1592 1.85894 14.2718 1.95207 14.3668C2.04519 14.4618 2.15633 14.5372 2.27898 14.5887C2.40163 14.6402 2.53332 14.6667 2.66634 14.6667H8.66634C8.93156 14.6667 9.18591 14.5614 9.37345 14.3738C9.56098 14.1863 9.66634 13.9319 9.66634 13.6667V12.6667H1.66634V13.6467ZM9.66634 8.31337C9.66634 7.20671 8.77301 5.98004 7.66634 5.98004H3.66634C2.55967 5.98004 1.66634 7.20671 1.66634 8.31337V8.66671H9.66634V8.31337ZM9.49967 10H1.83301C1.55967 10 1.33301 10.3 1.33301 10.6667C1.33301 11.0334 1.55967 11.3334 1.83301 11.3334H9.49967C9.77301 11.3334 9.99967 11.0334 9.99967 10.6667C9.99967 10.3 9.77301 10 9.49967 10Z" fill="#0F1621"/>
</svg>
