<svg width="24" height="24" viewBox="0 0 24 24" fill="none" xmlns="http://www.w3.org/2000/svg">
<path d="M15 19C15 19.7957 14.6839 20.5587 14.1213 21.1213C13.5587 21.6839 12.7957 22 12 22H6C5.20435 22 4.44129 21.6839 3.87868 21.1213C3.31607 20.5587 3 19.7957 3 19H15ZM15 15H3C2.73478 15 2.48043 15.1054 2.29289 15.2929C2.10536 15.4804 2 15.7348 2 16C2 16.2652 2.10536 16.5196 2.29289 16.7071C2.48043 16.8946 2.73478 17 3 17H15C15.2652 17 15.5196 16.8946 15.7071 16.7071C15.8946 16.5196 16 16.2652 16 16C16 15.7348 15.8946 15.4804 15.7071 15.2929C15.5196 15.1054 15.2652 15 15 15ZM12 10H6C5.20435 10 4.44129 10.3161 3.87868 10.8787C3.31607 11.4413 3 12.2044 3 13H15C15 12.2044 14.6839 11.4413 14.1213 10.8787C13.5587 10.3161 12.7957 10 12 10ZM17 6V4H21V2H17C16.4696 2 15.9609 2.21071 15.5858 2.58579C15.2107 2.96086 15 3.46957 15 4V6H11V8H12C13.3261 8 14.5979 8.52678 15.5355 9.46447C16.4732 10.4021 17 11.6739 17 13V13.77C17.3126 14.0513 17.5626 14.3952 17.7337 14.7794C17.9048 15.1636 17.9932 15.5794 17.9932 16C17.9932 16.4206 17.9048 16.8364 17.7337 17.2206C17.5626 17.6048 17.3126 17.9487 17 18.23V19C17.0044 20.0826 16.653 21.1366 16 22H20L22 8V6H17Z" fill="#0F1621"/>
</svg>
