<svg width="16" height="16" viewBox="0 0 16 16" fill="none" xmlns="http://www.w3.org/2000/svg">
<path d="M8 9.5C10.7 9.5 12 8.8 12 8.8V9C12 12.1 10.2 14.7 8 14.7C5.8 14.7 4 12.1 4 9V8.8C4 8.8 5.3 9.5 8 9.5ZM12.2 5.2C12.1 5.1 12 4.9 12 4.7C12 3.2 10.8 2 9.3 2H9C9 1.4 8.6 1 8 1C7.4 1 7 1.4 7 2H6.7C5.2 2 4 3.2 4 4.7C4 4.9 3.9 5.1 3.8 5.2C3.8 5.2 3 5.8 3 6.2C3 6.4 3 6.5 3 6.5C3 6.8 3.1 7.1 3.4 7.3C3.8 7.6 4.6 8 6 8.2V7C6 5.9 6.9 5 8 5C9.1 5 10 5.9 10 7V8.2C11.3 8 12.1 7.7 12.5 7.4C12.8 7.2 13 6.9 13 6.6C13 6.6 13 6.6 13 6.2C13 5.8 12.2 5.2 12.2 5.2Z" fill="#0F1621"/>
</svg>
