<svg width="16" height="16" viewBox="0 0 16 16" fill="none" xmlns="http://www.w3.org/2000/svg">
<path fill-rule="evenodd" clip-rule="evenodd" d="M3 1C1.89543 1 1 1.89543 1 3V13C1 14.1046 1.89543 15 3 15H13C14.1046 15 15 14.1046 15 13V3C15 1.89543 14.1046 1 13 1H3ZM7.57143 8C7.57143 5.72266 9.34769 3.86019 11.5904 3.72245C10.8349 3.26398 9.94827 3 9 3C6.23858 3 4 5.23858 4 8C4 10.7614 6.23858 13 9 13C9.94827 13 10.8349 12.736 11.5904 12.2775C9.34769 12.1398 7.57143 10.2773 7.57143 8Z" fill="#0E1520"/>
</svg>
