<svg width="24" height="24" viewBox="0 0 24 24" fill="none" xmlns="http://www.w3.org/2000/svg">
<path d="M4 2C2.89543 2 2 2.89543 2 4V20C2 21.1046 2.89543 22 4 22H20C21.1046 22 22 21.1046 22 20V4C22 2.89543 21.1046 2 20 2H4ZM11.2857 12C11.2857 14.7328 13.4172 16.9678 16.1084 17.1331C15.2019 17.6832 14.1379 18 13 18C9.68629 18 7 15.3137 7 12C7 8.68629 9.68629 6 13 6C14.1379 6 15.2019 6.31677 16.1084 6.86695C13.4172 7.03224 11.2857 9.2672 11.2857 12Z" fill="#0F1621"/>
<path d="M16.1697 7.86507L19.358 7.66925L16.6272 6.01206C15.5687 5.36965 14.326 5 13 5C9.13401 5 6 8.13401 6 12C6 15.866 9.13401 19 13 19C14.326 19 15.5687 18.6304 16.6272 17.9879L19.358 16.3307L16.1697 16.1349C14.0028 16.0018 12.2857 14.2011 12.2857 12C12.2857 9.79894 14.0028 7.99816 16.1697 7.86507ZM3 4C3 3.44772 3.44772 3 4 3H20C20.5523 3 21 3.44772 21 4V20C21 20.5523 20.5523 21 20 21H4C3.44772 21 3 20.5523 3 20V4Z" stroke="#0F1621" stroke-width="2"/>
</svg>
