<svg width="24" height="24" viewBox="0 0 24 24" fill="none" xmlns="http://www.w3.org/2000/svg">
<path d="M11.2857 12C11.2857 9.2672 13.4172 7.03224 16.1084 6.86695C15.2019 6.31677 14.1379 6 13 6C9.68629 6 7 8.68629 7 12C7 15.3137 9.68629 18 13 18C14.1379 18 15.2019 17.6832 16.1084 17.1331C13.4172 16.9678 11.2857 14.7328 11.2857 12Z" fill="#0E1520"/>
<path fill-rule="evenodd" clip-rule="evenodd" d="M2 4C2 2.89543 2.89543 2 4 2H20C21.1046 2 22 2.89543 22 4V20C22 21.1046 21.1046 22 20 22H4C2.89543 22 2 21.1046 2 20V4ZM4 4H20V20H4V4Z" fill="#0E1520"/>
</svg>
