<svg width="16" height="16" viewBox="0 0 16 16" fill="none" xmlns="http://www.w3.org/2000/svg">
<path d="M14 1.33337H1.99998C1.82317 1.33337 1.6536 1.40361 1.52858 1.52864C1.40355 1.65366 1.33331 1.82323 1.33331 2.00004V14C1.33331 14.1769 1.40355 14.3464 1.52858 14.4714C1.6536 14.5965 1.82317 14.6667 1.99998 14.6667H14C14.1768 14.6667 14.3464 14.5965 14.4714 14.4714C14.5964 14.3464 14.6666 14.1769 14.6666 14V2.00004C14.6666 1.82323 14.5964 1.65366 14.4714 1.52864C14.3464 1.40361 14.1768 1.33337 14 1.33337ZM13.3333 10H9.99998V13.3334H5.99998V10H2.66665V6.00004H5.99998V2.66671H9.99998V6.00004H13.3333V10Z" fill="#0F1621"/>
</svg>
