<svg width="16" height="16" viewBox="0 0 16 16" fill="none" xmlns="http://www.w3.org/2000/svg">
<path d="M14.0002 1.33331H2.00016C1.82335 1.33331 1.65378 1.40355 1.52876 1.52858C1.40373 1.6536 1.3335 1.82317 1.3335 1.99998V14C1.3335 14.1768 1.40373 14.3464 1.52876 14.4714C1.65378 14.5964 1.82335 14.6666 2.00016 14.6666H14.0002C14.177 14.6666 14.3465 14.5964 14.4716 14.4714C14.5966 14.3464 14.6668 14.1768 14.6668 14V1.99998C14.6668 1.82317 14.5966 1.6536 14.4716 1.52858C14.3465 1.40355 14.177 1.33331 14.0002 1.33331ZM13.3335 9.99998H10.0002V13.3333H6.00016V9.99998H2.66683V5.99998H6.00016V2.66665H10.0002V5.99998H13.3335V9.99998Z" fill="#0F1621"/>
</svg>
