<svg width="16" height="16" viewBox="0 0 16 16" fill="none" xmlns="http://www.w3.org/2000/svg">
<path d="M14.48 7.33335L13.54 6.40002L14.72 5.22002L13.3334 3.80669L14 3.10002L13.0667 2.15335L12.36 2.86669L10.9467 1.44669L9.76669 2.62669L8.82669 1.68669C8.76471 1.6242 8.69098 1.5746 8.60974 1.54076C8.5285 1.50691 8.44136 1.48949 8.35335 1.48949C8.26535 1.48949 8.17821 1.50691 8.09697 1.54076C8.01573 1.5746 7.942 1.6242 7.88002 1.68669L6.70669 2.86669C6.58252 2.99159 6.51282 3.16056 6.51282 3.33669C6.51282 3.51281 6.58252 3.68178 6.70669 3.80669L9.06002 6.16002L6.00002 9.22669L3.64002 6.87335C3.57804 6.81087 3.50431 6.76127 3.42307 6.72742C3.34183 6.69358 3.25469 6.67615 3.16669 6.67615C3.07868 6.67615 2.99154 6.69358 2.9103 6.72742C2.82906 6.76127 2.75533 6.81087 2.69335 6.87335L1.75335 7.81335C1.62919 7.93826 1.55949 8.10723 1.55949 8.28335C1.55949 8.45948 1.62919 8.62844 1.75335 8.75335L2.66669 9.70002L1.52002 10.88L2.93335 12.2934L2.00002 13.2334L2.93335 14.18L3.87335 13.2334L5.28669 14.6667L6.46669 13.4734L7.41335 14.4134C7.53826 14.5375 7.70723 14.6072 7.88335 14.6072C8.05948 14.6072 8.22844 14.5375 8.35335 14.4134L9.29335 13.4734C9.35584 13.4114 9.40544 13.3376 9.43928 13.2564C9.47313 13.1752 9.49055 13.088 9.49055 13C9.49055 12.912 9.47313 12.8249 9.43928 12.7436C9.40544 12.6624 9.35584 12.5887 9.29335 12.5267L6.94002 10.1734L10.0067 7.10669L12.36 9.46002C12.4849 9.58419 12.6539 9.65388 12.83 9.65388C13.0061 9.65388 13.1751 9.58419 13.3 9.46002L14.48 8.28669C14.5435 8.2246 14.594 8.15045 14.6284 8.06859C14.6629 7.98674 14.6806 7.89883 14.6806 7.81002C14.6806 7.72121 14.6629 7.6333 14.6284 7.55144C14.594 7.46959 14.5435 7.39544 14.48 7.33335Z" fill="#0F1621"/>
</svg>
