<svg width="24" height="24" viewBox="0 0 24 24" fill="none" xmlns="http://www.w3.org/2000/svg">
<path d="M21.7101 11.57L18.1701 15.1L14.2401 11.17L11.1901 14.22L15.1301 18.15L11.5901 21.69C11.4027 21.8763 11.1493 21.9808 10.8851 21.9808C10.6209 21.9808 10.3675 21.8763 10.1801 21.69L8.49009 20L7.79009 20.7C7.69713 20.7937 7.58653 20.8681 7.46467 20.9189C7.34281 20.9697 7.2121 20.9958 7.08009 20.9958C6.94808 20.9958 6.81737 20.9697 6.69551 20.9189C6.57365 20.8681 6.46305 20.7937 6.37009 20.7L5.54009 19.87L4.00009 21.42L2.58009 20L4.12009 18.46L3.29009 17.63C3.19636 17.537 3.12197 17.4264 3.0712 17.3046C3.02043 17.1827 2.99429 17.052 2.99429 16.92C2.99429 16.788 3.02043 16.6573 3.0712 16.5354C3.12197 16.4136 3.19636 16.303 3.29009 16.21L3.99009 15.51L2.32009 13.83C2.13384 13.6426 2.0293 13.3892 2.0293 13.125C2.0293 12.8608 2.13384 12.6074 2.32009 12.42L5.85009 8.88L9.78009 12.81L12.8301 9.76L8.90009 5.83L12.4301 2.29C12.5231 2.19627 12.6337 2.12188 12.7555 2.07111C12.8774 2.02034 13.0081 1.9942 13.1401 1.9942C13.2721 1.9942 13.4028 2.02034 13.5247 2.07111C13.6465 2.12188 13.7571 2.19627 13.8501 2.29L15.5301 4L16.2401 3.29C16.4275 3.10375 16.6809 2.99921 16.9451 2.99921C17.2093 2.99921 17.4627 3.10375 17.6501 3.29L18.4801 4.12L20.0001 2.59L21.4101 4L19.9001 5.51L20.7401 6.35C20.8338 6.44296 20.9082 6.55356 20.959 6.67542C21.0097 6.79728 21.0359 6.92799 21.0359 7.06C21.0359 7.19201 21.0097 7.32272 20.959 7.44458C20.9082 7.56644 20.8338 7.67704 20.7401 7.77L20.0001 8.48L21.6801 10.15C21.7758 10.241 21.8526 10.35 21.9059 10.4708C21.9593 10.5916 21.9882 10.7217 21.991 10.8537C21.9938 10.9858 21.9704 11.117 21.9222 11.24C21.874 11.3629 21.8019 11.4751 21.7101 11.57Z" fill="#0F1621"/>
</svg>
