<svg width="24" height="24" viewBox="0 0 24 24" fill="none" xmlns="http://www.w3.org/2000/svg">
<path fill-rule="evenodd" clip-rule="evenodd" d="M13.9996 2C15.2423 2 16.2496 3.00736 16.2496 4.25C16.2496 4.84223 16.0192 5.37948 15.6452 5.78125C15.7607 5.76294 15.879 5.75003 15.9996 5.75C17.2423 5.75 18.2496 6.75736 18.2496 8C18.2496 9.24264 17.2423 10.25 15.9996 10.25C15.9548 10.25 15.91 10.2467 15.8659 10.2441C16.1078 10.6029 16.2496 11.0347 16.2496 11.5C16.2496 12.7426 15.2423 13.75 13.9996 13.75C13.6399 13.7499 13.3009 13.664 12.9996 13.5137V22H10.9996V13.5137C10.6985 13.6638 10.3592 13.75 9.99964 13.75C8.7572 13.7498 7.74964 12.7425 7.74964 11.5C7.74964 11.035 7.89082 10.6028 8.13245 10.2441C8.08862 10.2467 8.04412 10.25 7.99964 10.25C6.7572 10.2498 5.74964 9.24249 5.74964 8C5.74965 6.75751 6.75721 5.75024 7.99964 5.75C8.11996 5.75 8.23795 5.76305 8.35316 5.78125C7.97951 5.37956 7.74964 4.84188 7.74964 4.25C7.74965 3.00751 8.75721 2.00024 9.99964 2C10.8717 2 11.6262 2.49725 11.9996 3.22266C12.373 2.49728 13.1277 2.00017 13.9996 2ZM11.9996 5.5C10.6191 5.50024 9.49965 6.61944 9.49964 8C9.49964 9.38057 10.6191 10.4998 11.9996 10.5C13.3804 10.5 14.4996 9.38071 14.4996 8C14.4996 6.61929 13.3804 5.5 11.9996 5.5Z" fill="#0F1621"/>
<path d="M6.24378 15.6445C6.95393 15.5245 8.29795 15.4703 9.29261 16.4648C10.2875 17.4597 10.233 18.8046 10.1129 19.5146C10.0603 19.8248 9.82451 20.0608 9.51429 20.1133C8.80419 20.2333 7.45927 20.2878 6.46449 19.293C5.4697 18.2981 5.5251 16.9532 5.64515 16.2432C5.69766 15.9329 5.93347 15.697 6.24378 15.6445Z" fill="#0F1621"/>
<path d="M14.7077 16.4648C15.7025 15.47 17.0474 15.5245 17.7575 15.6445C18.0676 15.6971 18.3036 15.9329 18.3561 16.2432C18.4761 16.9532 18.5306 18.2981 17.5358 19.293C16.5409 20.2878 15.196 20.2324 14.486 20.1123C14.1758 20.0598 13.94 19.8247 13.8873 19.5146C13.7673 18.8046 13.7128 17.4597 14.7077 16.4648Z" fill="#0F1621"/>
</svg>
