<svg width="16" height="16" viewBox="0 0 16 16" fill="none" xmlns="http://www.w3.org/2000/svg">
<path fill-rule="evenodd" clip-rule="evenodd" d="M9.43988 1.00061C10.3093 1.00082 11.0147 1.70547 11.0151 2.57483C11.0151 2.95172 10.8814 3.29788 10.6606 3.56897C10.7324 3.55976 10.8058 3.55237 10.8803 3.55237C11.7747 3.55254 12.5002 4.23886 12.5004 5.08459C12.5004 5.93054 11.7749 6.61665 10.8803 6.61682C10.8489 6.61682 10.8175 6.61459 10.7866 6.61292C10.9298 6.85012 11.015 7.12715 11.0151 7.42444C11.0151 8.29416 10.3096 8.99943 9.43988 8.99963C9.19209 8.99963 8.95792 8.94148 8.74945 8.83948V15.0006H7.24945V8.83948C7.04125 8.94145 6.80761 8.99959 6.56 8.99963C5.6902 8.99957 4.9848 8.29425 4.9848 7.42444C4.9849 7.12728 5.06921 6.85005 5.21234 6.61292C5.18203 6.61452 5.15128 6.61681 5.12055 6.61682C4.22584 6.61682 3.50043 5.93065 3.50043 5.08459C3.50069 4.23875 4.22601 3.55237 5.12055 3.55237C5.19439 3.55239 5.26709 3.5599 5.33832 3.56897C5.11768 3.29793 4.9848 2.95156 4.9848 2.57483C4.98522 1.70538 5.69046 1.00067 6.56 1.00061C7.20328 1.00072 7.75501 1.38727 7.99945 1.94006C8.24387 1.38706 8.79639 1.00061 9.43988 1.00061ZM8.00043 3.33557C7.03393 3.33557 6.25043 4.11907 6.25043 5.08557C6.25051 6.052 7.03398 6.83557 8.00043 6.83557C8.96658 6.83521 9.75035 6.05178 9.75043 5.08557C9.75043 4.11929 8.96663 3.33593 8.00043 3.33557Z" fill="#0F1621"/>
<path d="M10.02 11.0201C10.6519 10.3883 11.486 10.3612 12.0063 10.4244C12.3185 10.4625 12.557 10.7012 12.5952 11.0133C12.6585 11.5336 12.6315 12.3676 11.9995 12.9996C11.3674 13.6315 10.5334 13.6586 10.0131 13.5953C9.70106 13.557 9.46227 13.3186 9.42426 13.0065C9.36097 12.4862 9.38811 11.6522 10.02 11.0201Z" fill="#0F1621"/>
<path d="M3.98773 10.399C4.50788 10.3358 5.34203 10.3632 5.97406 10.9948C6.60611 11.6268 6.63304 12.4608 6.56976 12.9811C6.53173 13.2935 6.29327 13.5319 5.9809 13.5699C5.46063 13.6332 4.62646 13.6069 3.99457 12.9752C3.36285 12.3433 3.33564 11.5091 3.39887 10.9889C3.43684 10.6767 3.67569 10.4374 3.98773 10.399Z" fill="#0F1621"/>
</svg>
