<svg width="24" height="24" viewBox="0 0 24 24" fill="none" xmlns="http://www.w3.org/2000/svg">
<path d="M8.17 15L6 17.17V17C6 16.53 6.11 15 7.56 15H8.17ZM13 13H7.56C5.47 13 4 14.62 4 17V22L13 13ZM16.78 15.05C17.1593 15.21 17.48 15.4831 17.6984 15.8321C17.9167 16.1811 18.0221 16.5889 18 17V20H11.83L16.83 15.05H16.78ZM16.44 13H16L7 22H20V17C20.0521 15.999 19.7076 15.0179 19.0412 14.2691C18.3748 13.5204 17.4403 13.0644 16.44 13ZM12 11C12.8426 11.0014 13.6575 10.6988 14.295 10.1477C14.9324 9.59658 15.3496 8.834 15.47 8H8.53C8.65038 8.834 9.0676 9.59658 9.70504 10.1477C10.3425 10.6988 11.1574 11.0014 12 11ZM8 2V4L6 6H16V2H8Z" fill="#0F1621"/>
</svg>
