<svg width="16" height="16" viewBox="0 0 16 16" fill="none" xmlns="http://www.w3.org/2000/svg">
<path d="M4.66667 1.33331V3.33331L2.66667 3.99998V4.66665H10.6667V3.17998C10.6692 2.85343 10.5519 2.53729 10.3368 2.29152C10.1218 2.04576 9.824 1.88746 9.5 1.84665L4.66667 1.33331ZM13.7267 13.0866L13.96 14.6666H8.03333L12.1933 10.6666C12.602 10.9424 12.9493 11.2998 13.2131 11.7163C13.477 12.1327 13.6519 12.5993 13.7267 13.0866ZM5.56 14.6666H2L2.23333 13.0866C2.383 12.2116 2.84119 11.4192 3.52485 10.8529C4.20852 10.2867 5.07242 9.98408 5.96 9.99998H10C10.1338 10.0042 10.2673 10.0153 10.4 10.0333L5.56 14.6666ZM10.6667 5.66665V5.70665C10.6667 7.11998 10 7.33331 10 8.66665H5.66667C5.66667 7.59331 4.66667 7.39331 4.66667 6.33331V5.66665H10.6667Z" fill="#0F1621"/>
</svg>
