<svg width="16" height="16" viewBox="0 0 16 16" fill="none" xmlns="http://www.w3.org/2000/svg">
<path d="M3.99967 13.3333H2.66634V12H3.99967V13.3333ZM2.66634 13.3333H1.33301V14.6666H2.66634V13.3333ZM13.333 12H11.9997V13.3333H13.333V12ZM14.6663 13.3333H13.333V14.6666H14.6663V13.3333ZM14.6663 7.33331V9.33331H11.9997V12H10.6663V9.33331H8.66634V10.6666H9.33301V13.3333H6.66634V10.6666H7.33301V9.33331H5.33301V12H3.99967V9.33331H1.33301V7.33331H2.66634V5.33331H3.99967V3.33331H5.33301V1.33331H10.6663V3.33331H11.9997V5.33331H13.333V7.33331H14.6663ZM6.66634 7.33331V5.33331H4.66634V7.33331H6.66634ZM11.333 5.33331H9.33301V7.33331H11.333V5.33331Z" fill="#0F1621"/>
</svg>
