<svg width="16" height="16" viewBox="0 0 16 16" fill="none" xmlns="http://www.w3.org/2000/svg">
<path d="M8.00033 4.66663C8.6596 4.66663 9.30406 4.86212 9.85223 5.22839C10.4004 5.59467 10.8276 6.11526 11.0799 6.72435C11.3322 7.33344 11.3982 8.00366 11.2696 8.65026C11.141 9.29686 10.8235 9.89081 10.3573 10.357C9.89117 10.8232 9.29723 11.1406 8.65063 11.2692C8.00402 11.3979 7.3338 11.3319 6.72471 11.0796C6.11563 10.8273 5.59503 10.4 5.22876 9.85186C4.86249 9.3037 4.66699 8.65923 4.66699 7.99996C4.66699 7.1159 5.01818 6.26806 5.6433 5.64294C6.26842 5.01782 7.11627 4.66663 8.00033 4.66663Z" fill="#0F1621"/>
</svg>
