<svg width="24" height="24" viewBox="0 0 24 24" fill="none" xmlns="http://www.w3.org/2000/svg">
<path d="M8 12V16H12C12.7956 16 13.5587 16.3161 14.1213 16.8787C14.6839 17.4413 15 18.2044 15 19C15 19.7956 14.6839 20.5587 14.1213 21.1213C13.5587 21.6839 12.7956 22 12 22H5C4.20435 22 3.44129 21.6839 2.87868 21.1213C2.31607 20.5587 2 19.7956 2 19C2 18.2044 2.31607 17.4413 2.87868 16.8787C3.44129 16.3161 4.20435 16 5 16H6V2L16 6V8L8 12ZM19 12C18.4067 12 17.8266 12.1759 17.3333 12.5056C16.8399 12.8352 16.4554 13.3038 16.2284 13.8519C16.0013 14.4001 15.9419 15.0033 16.0576 15.5853C16.1734 16.1672 16.4591 16.7018 16.8787 17.1213C17.2982 17.5409 17.8328 17.8266 18.4147 17.9424C18.9967 18.0581 19.5999 17.9987 20.1481 17.7716C20.6962 17.5446 21.1648 17.1601 21.4944 16.6667C21.8241 16.1734 22 15.5933 22 15C22 14.2044 21.6839 13.4413 21.1213 12.8787C20.5587 12.3161 19.7956 12 19 12Z" fill="#0F1621"/>
</svg>
