<svg width="24" height="24" viewBox="0 0 24 24" fill="none" xmlns="http://www.w3.org/2000/svg">
<path d="M19 14C19.1978 14 19.3911 14.0586 19.5556 14.1685C19.72 14.2784 19.8482 14.4346 19.9239 14.6173C19.9996 14.8 20.0194 15.0011 19.9808 15.1951C19.9422 15.3891 19.847 15.5673 19.7071 15.7071C19.5673 15.847 19.3891 15.9422 19.1951 15.9808C19.0011 16.0194 18.8 15.9996 18.6173 15.9239C18.4346 15.8482 18.2784 15.72 18.1685 15.5556C18.0586 15.3911 18 15.1978 18 15C18 14.7348 18.1054 14.4804 18.2929 14.2929C18.4804 14.1054 18.7348 14 19 14ZM19 12C18.4067 12 17.8266 12.1759 17.3333 12.5056C16.8399 12.8352 16.4554 13.3038 16.2284 13.8519C16.0013 14.4001 15.9419 15.0033 16.0576 15.5853C16.1734 16.1672 16.4591 16.7018 16.8787 17.1213C17.2982 17.5409 17.8328 17.8266 18.4147 17.9424C18.9967 18.0581 19.5999 17.9987 20.1481 17.7716C20.6962 17.5446 21.1648 17.1601 21.4944 16.6667C21.8241 16.1734 22 15.5933 22 15C22 14.2044 21.6839 13.4413 21.1213 12.8787C20.5587 12.3161 19.7956 12 19 12ZM16 8V6L6 2V16H5C4.20435 16 3.44129 16.3161 2.87868 16.8787C2.31607 17.4413 2 18.2044 2 19C2 19.7956 2.31607 20.5587 2.87868 21.1213C3.44129 21.6839 4.20435 22 5 22H12C12.7956 22 13.5587 21.6839 14.1213 21.1213C14.6839 20.5587 15 19.7956 15 19C15 18.2044 14.6839 17.4413 14.1213 16.8787C13.5587 16.3161 12.7956 16 12 16H8V12L16 8ZM5 20C4.73478 20 4.48043 19.8946 4.29289 19.7071C4.10536 19.5196 4 19.2652 4 19C4 18.7348 4.10536 18.4804 4.29289 18.2929C4.48043 18.1054 4.73478 18 5 18H6V20H5ZM12 18C12.2652 18 12.5196 18.1054 12.7071 18.2929C12.8946 18.4804 13 18.7348 13 19C13 19.2652 12.8946 19.5196 12.7071 19.7071C12.5196 19.8946 12.2652 20 12 20H8V18H12ZM8 9.76V5L13.34 7.14L8 9.76Z" fill="#0F1621"/>
</svg>
