<svg width="16" height="16" viewBox="0 0 16 16" fill="none" xmlns="http://www.w3.org/2000/svg">
<path d="M10.6668 9.66668C10.6668 9.27111 10.7841 8.88443 11.0039 8.55554C11.2237 8.22664 11.536 7.97029 11.9015 7.81892C12.2669 7.66754 12.669 7.62794 13.057 7.70511C13.445 7.78228 13.8013 7.97276 14.081 8.25246C14.3607 8.53217 14.5512 8.88853 14.6284 9.2765C14.7056 9.66446 14.666 10.0666 14.5146 10.432C14.3632 10.7975 14.1069 11.1099 13.778 11.3296C13.4491 11.5494 13.0624 11.6667 12.6668 11.6667C12.1364 11.6667 11.6277 11.456 11.2526 11.0809C10.8775 10.7058 10.6668 10.1971 10.6668 9.66668ZM14.6668 12.6667H4.66683V6.80001L10.0002 4.00001L3.3335 1.33334V12.6667H1.3335V14H14.6668V12.6667Z" fill="#0F1621"/>
</svg>
