<svg width="24" height="24" viewBox="0 0 24 24" fill="none" xmlns="http://www.w3.org/2000/svg">
<path d="M4.4524 5.13999C4.62087 5.43179 4.81572 5.68363 5.02077 5.90014C4.74153 5.79438 4.41167 5.71731 4.04328 5.71731C2.86925 5.71731 2.08656 6.5 2.08656 6.5C2.08656 6.5 2.86925 7.28269 4.04328 7.28269C4.35789 7.28269 4.6444 7.22648 4.89527 7.1442C4.33093 7.95382 4 8.93826 4 10C4 10.7111 4.14845 11.3875 4.41604 12H2L3.83922 21.1961C3.93271 21.6635 4.34312 22 4.8198 22H19.1802C19.6569 22 20.0673 21.6635 20.1608 21.1961L22 12H19.9967C19.9516 9.9313 19.4485 7.89695 18.522 6.04396L18 5H14L13.478 6.04396C12.5515 7.89695 12.0484 9.9313 12.0033 12H10.0033C10.0484 9.9313 10.5515 7.89695 11.478 6.04396L11.6274 5.74517C10.8639 5.27271 9.96382 5 9 5C8.28787 5 7.61052 5.14888 6.99736 5.4172C6.92775 4.96208 6.77948 4.45779 6.49311 3.96178C5.60946 2.43125 4 2 4 2C4 2 3.56875 3.60946 4.4524 5.13999ZM6.5 14L7.5 20H5.5L4.5 14H6.5ZM10.75 14L11 20H9L8.5 14H10.75ZM15.5 14L15 20H13L13.25 14H15.5ZM19.5 14L18.5 20H16.5L17.5 14H19.5Z" fill="#0F1621"/>
<path d="M13 3C13 2.44772 13.4477 2 14 2H18C18.5523 2 19 2.44772 19 3C19 3.55228 18.5523 4 18 4H14C13.4477 4 13 3.55228 13 3Z" fill="#0F1621"/>
</svg>
