<svg width="24" height="24" viewBox="0 0 24 24" fill="none" xmlns="http://www.w3.org/2000/svg">
<path d="M14.0001 2C13.4478 2 13.0001 2.44772 13.0001 3C13.0001 3.55228 13.4478 4 14.0001 4H18.0001C18.5524 4 19.0001 3.55228 19.0001 3C19.0001 2.44772 18.5524 2 18.0001 2H14.0001Z" fill="#0F1621"/>
<path d="M18.1181 5H13.8821L13.5837 5.59675C12.5878 7.5886 12.0484 9.77604 12.0032 12H6.76401C6.28897 11.4692 6.00011 10.7684 6.00011 10C6.00011 8.34315 7.34326 7 9.00011 7C9.66008 7 10.2703 7.21311 10.7656 7.57426C10.9793 6.93132 11.2368 6.30191 11.5372 5.69058C10.7934 5.25176 9.92618 5 9.00011 5C8.28807 5 7.6108 5.14884 6.9977 5.4171C6.92808 4.96201 6.77981 4.45776 6.49347 3.9618C5.60982 2.43127 4.00036 2.00002 4.00036 2.00002C4.00036 2.00002 3.56911 3.60947 4.45276 5.14C4.62127 5.43187 4.81617 5.68375 5.02127 5.9003C4.74195 5.79446 4.41195 5.71733 4.04339 5.71733C2.86936 5.71733 2.08667 6.50002 2.08667 6.50002C2.08667 6.50002 2.86936 7.2827 4.04339 7.2827C4.358 7.2827 4.6445 7.2265 4.89537 7.14422C4.33104 7.95384 4.00011 8.93827 4.00011 10C4.00011 10.7111 4.14856 11.3875 4.41616 12H2.29528L3.94086 20.7764C4.07389 21.4859 4.69335 22 5.41517 22H18.5852C19.3071 22 19.9265 21.4859 20.0596 20.7764L21.7051 12H19.997C19.9518 9.77604 19.4125 7.5886 18.4165 5.59675L18.1181 5ZM17.9965 12H14.0037C14.0442 10.2742 14.428 8.57448 15.1318 7H16.8685C17.5722 8.57448 17.956 10.2742 17.9965 12ZM5.83013 20L4.70513 14H6.61742L7.36742 20H5.83013ZM9.38299 20L8.63299 14H11.0001V20H9.38299ZM14.5579 20H13.0001V14H15.3579L14.5579 20ZM16.5756 20L17.3756 14H19.2953L18.1703 20H16.5756Z" fill="#0F1621"/>
</svg>
