<svg width="16" height="16" viewBox="0 0 16 16" fill="none" xmlns="http://www.w3.org/2000/svg">
<path d="M8.99982 1.67403C8.99982 1.30177 9.30159 1 9.67385 1H12.3258C12.698 1 12.9998 1.30177 12.9998 1.67403C12.9998 2.04629 12.698 2.34806 12.3258 2.34806H9.67385C9.30159 2.34806 8.99982 2.04629 8.99982 1.67403Z" fill="#0F1621"/>
<path d="M14.0002 8.00001L14.0001 7.50002C14 5.87723 13.4737 4.29824 12.5 3.00002H9.5C8.52633 4.29824 8 5.87724 8 7.50002V8L6.24994 8L6.25 7.65753C6.25 6.35451 6.60971 5.08518 7.2783 3.98479C6.75715 3.67676 6.14922 3.5 5.5 3.5C5.05592 3.5 4.63116 3.5827 4.24027 3.73355C4.19558 3.41823 4.09551 3.06581 3.89551 2.7194C3.2999 1.68777 2.21508 1.39709 2.21508 1.39709C2.21508 1.39709 1.9244 2.48192 2.52001 3.51354C2.66508 3.76481 2.83918 3.97213 3.01955 4.14199C2.8349 4.0739 2.61831 4.02494 2.37724 4.02494C1.58591 4.02494 1.05835 4.5525 1.05835 4.5525C1.05835 4.5525 1.58591 5.08006 2.37724 5.08006C2.44722 5.08006 2.51514 5.07593 2.58082 5.06841C2.21378 5.62199 2 6.28603 2 7C2 7.34748 2.05064 7.68314 2.14494 7.99999L1 8L2.33059 14.2095C2.42939 14.6706 2.83686 15 3.3084 15H12.6742C13.1536 15 13.5655 14.6598 13.6561 14.1891L14.8481 8.00001L14.0002 8.00001ZM2.82595 9.45582H4.17401L5.00002 13.5H3.65196L2.82595 9.45582ZM7.25 9.5L7.5 13.5H6.25L5.75 9.5H7.25ZM10.25 9.50001L9.75 13.5L8.5 13.5L8.75 9.50001H10.25ZM11.6519 9.5H13.1519L12.348 13.5H11L11.6519 9.5Z" fill="#0F1621"/>
</svg>
