<svg width="24" height="24" viewBox="0 0 24 24" fill="none" xmlns="http://www.w3.org/2000/svg">
<path fill-rule="evenodd" clip-rule="evenodd" d="M6.99997 1.99994L5.44167 5.11654C3.27364 9.4526 5.0716 14.7242 9.43735 16.8318L11.2756 17.7192V16.3189L9.99999 16C10.1108 15.7783 10.2222 15.4686 10.3284 15.0903C7.92132 14.3716 6.16662 12.1407 6.16662 9.49999C6.16662 6.87606 7.89907 4.65677 10.2825 3.92358C10.178 3.5161 10.0792 3.19799 9.99999 3L12 2.00002L14 3C13.9208 3.19799 13.8219 3.51611 13.7175 3.92361C16.1009 4.65682 17.8333 6.87609 17.8333 9.49999C17.8333 12.1407 16.0786 14.3716 13.6716 15.0903C13.7777 15.4686 13.8891 15.7783 14 16L12.7243 16.3189V17.7193L14.6356 16.7966C18.9731 14.7027 20.7809 9.48101 18.6668 5.15333L17.1371 2.02192L18.741 3.50241C22.9948 7.42899 23.104 14.114 18.9806 18.1773L18.1458 19L16.4275 17.2335L13.6155 18.8488L16 19.9999L15 21.4999L12.7243 20.1647V22.0002H11.2756V20.1928L9.00001 21.5L8.00001 20L10.438 18.8231L7.69405 17.213L5.99997 18.9999L5.04863 18.0632C0.690115 13.7716 1.09439 6.62712 5.90922 2.85458L6.99997 1.99994ZM13.3203 13.4531C14.9743 12.9009 16.1666 11.3397 16.1666 9.49999C16.1666 7.67831 14.9976 6.12967 13.3688 5.56338C13.1635 6.73068 13 8.13201 13 9.5C13 10.899 13.1289 12.2907 13.3203 13.4531ZM11 9.5C11 8.132 10.8365 6.73066 10.6312 5.56335C9.00237 6.12962 7.83328 7.67828 7.83328 9.49999C7.83328 11.3397 9.0256 12.901 10.6797 13.4531C10.871 12.2908 11 10.899 11 9.5Z" fill="#0E1520"/>
</svg>
