<svg width="16" height="16" viewBox="0 0 16 16" fill="none" xmlns="http://www.w3.org/2000/svg">
<path d="M3.4685 3.13649L4.49991 1L3.70414 1.62525C0.404249 4.21804 0.111685 9.11173 3.07917 12.0792L3.99995 13L4.99991 11.5L6.9741 12.6845L5.49999 13.5L5.99999 14.5L7.49986 13.6001V15.0738H8.49986V13.5999L9.99999 14.5L10.5 13.5L9.0251 12.6849L11 11.5L12 13L12.8468 12.1517C15.6541 9.33973 15.5605 4.7576 12.6408 2.06252L11.4898 1.00002L12.5223 3.1388C13.9067 6.00641 12.8099 9.45603 10.0235 10.9975L8.49986 11.8404V10.8333L9.50001 10.5C9.37673 10.2534 9.21206 9.84735 9.05199 9.33914C10.471 8.89253 11.5 7.56644 11.5 6C11.5 4.44508 10.486 3.12699 9.08325 2.67086C9.25249 2.13121 9.41461 1.71347 9.50001 1.49996L7.99991 1L6.5 1.49997C6.5854 1.71347 6.74752 2.13121 6.91676 2.67086C5.51397 3.12699 4.5 4.44508 4.5 6C4.5 7.56644 5.52906 8.89254 6.94802 9.33914C6.78794 9.84736 6.62328 10.2534 6.5 10.5L7.49986 10.8333V11.842L5.96971 10.9964C3.18177 9.45575 2.08368 6.00504 3.4685 3.13649ZM8.78934 8.37283C8.62256 7.64814 8.50001 6.82464 8.50001 5.99999C8.50001 5.19191 8.63802 4.36459 8.81456 3.63571C9.79535 3.97355 10.5 4.90448 10.5 6C10.5 7.10488 9.78325 8.04236 8.78934 8.37283ZM7.18545 3.6357C7.35869 4.35096 7.49483 5.16102 7.49986 5.95467V6.04906C7.49512 6.85728 7.37414 7.66252 7.21067 8.37283C6.21676 8.04237 5.5 7.10489 5.5 6C5.5 4.90448 6.20466 3.97354 7.18545 3.6357Z" fill="#0E1520"/>
</svg>
