<svg width="24" height="24" viewBox="0 0 24 24" fill="none" xmlns="http://www.w3.org/2000/svg">
<path d="M19 10L16 15H18C18 16.3261 17.4732 17.5979 16.5355 18.5355C15.5979 19.4732 14.3261 20 13 20V11H16C16 10.4696 15.7893 9.96086 15.4142 9.58579C15.0391 9.21072 14.5304 9 14 9H13V7.82C13.6672 7.58411 14.2296 7.11994 14.5876 6.50952C14.9457 5.89911 15.0765 5.18177 14.9568 4.48427C14.8371 3.78678 14.4747 3.15404 13.9337 2.6979C13.3926 2.24176 12.7077 1.99158 12 1.99158C11.2923 1.99158 10.6074 2.24176 10.0663 2.6979C9.52527 3.15404 9.16288 3.78678 9.0432 4.48427C8.92353 5.18177 9.05429 5.89911 9.41237 6.50952C9.77045 7.11994 10.3328 7.58411 11 7.82V9H10C9.46957 9 8.96086 9.21072 8.58579 9.58579C8.21071 9.96086 8 10.4696 8 11H11V20C9.67392 20 8.40215 19.4732 7.46447 18.5355C6.52678 17.5979 6 16.3261 6 15H8L5 10L2 15H4C4 16.8565 4.7375 18.637 6.05025 19.9498C7.36301 21.2625 9.14348 22 11 22H13C14.8565 22 16.637 21.2625 17.9497 19.9498C19.2625 18.637 20 16.8565 20 15H22L19 10ZM12 4C12.1978 4 12.3911 4.05865 12.5556 4.16853C12.72 4.27842 12.8482 4.43459 12.9239 4.61732C12.9996 4.80005 13.0194 5.00111 12.9808 5.19509C12.9422 5.38908 12.847 5.56726 12.7071 5.70711C12.5673 5.84696 12.3891 5.9422 12.1951 5.98079C12.0011 6.01937 11.8 5.99957 11.6173 5.92388C11.4346 5.8482 11.2784 5.72002 11.1685 5.55557C11.0586 5.39113 11 5.19779 11 5C11 4.73479 11.1054 4.48043 11.2929 4.2929C11.4804 4.10536 11.7348 4 12 4Z" fill="#0F1621"/>
</svg>
