<svg width="16" height="16" viewBox="0 0 16 16" fill="none" xmlns="http://www.w3.org/2000/svg">
<path d="M7.99998 1.33331L1.33331 3.70665V5.61331L7.99998 3.22665L14.6666 5.61331V3.70665L7.99998 1.33331Z" fill="#0E1520"/>
<path d="M11.0822 7.7609C10.8428 7.69937 10.5918 7.66665 10.3332 7.66665C8.67638 7.66665 7.33323 9.00979 7.33323 10.6666C7.33323 12.3235 8.67638 13.6666 10.3332 13.6666C10.5918 13.6666 10.8428 13.6339 11.0822 13.5724C10.3655 14.2507 9.39795 14.6666 8.33327 14.6666C6.12413 14.6666 4.33327 12.8758 4.33327 10.6666C4.33327 8.4575 6.12413 6.66664 8.33327 6.66664C9.39797 6.66664 10.3655 7.08261 11.0822 7.7609Z" fill="#0E1520"/>
</svg>
