<svg width="16" height="16" viewBox="0 0 16 16" fill="none" xmlns="http://www.w3.org/2000/svg">
<path d="M13.3335 9.33331H8.66683V6.66665H12.0002C12.3538 6.66665 12.6929 6.80712 12.943 7.05717C13.193 7.30722 13.3335 7.64636 13.3335 7.99998V9.33331ZM4.66683 9.33331V7.99998C4.66683 7.64636 4.80731 7.30722 5.05735 7.05717C5.3074 6.80712 5.64654 6.66665 6.00016 6.66665C6.35379 6.66665 6.69292 6.80712 6.94297 7.05717C7.19302 7.30722 7.3335 7.64636 7.3335 7.99998V9.33331H4.66683ZM14.0002 11.1666C13.9984 11.0346 13.9452 10.9084 13.8518 10.815C13.7584 10.7216 13.6322 10.6684 13.5002 10.6666H3.3335V6.66665H2.00016V14.6666H3.3335V13.3333H12.6668V14.6666H14.0002V11.1666ZM14.6668 5.61331L8.00016 3.22665L1.3335 5.61331V3.70665L8.00016 1.33331L14.6668 3.70665V5.61331Z" fill="#0F1621"/>
</svg>
