<svg width="24" height="24" viewBox="0 0 24 24" fill="none" xmlns="http://www.w3.org/2000/svg">
<path d="M21.9998 16L1.99979 22V20L21.9998 14V16ZM21.9998 4V12L1.99979 18V9C1.97876 8.54112 2.10663 8.08775 2.36434 7.70749C2.62205 7.32723 2.99578 7.04048 3.42979 6.89L19.4298 2.09C19.7277 2.00143 20.0421 1.98349 20.3481 2.03762C20.6542 2.09174 20.9434 2.21644 21.1928 2.40182C21.4422 2.5872 21.645 2.82815 21.7851 3.10557C21.9252 3.38298 21.9987 3.68922 21.9998 4ZM10.9998 6.7L3.99979 8.8V11.8L10.9998 9.7V6.7ZM19.9998 4L12.9998 6.1V9.1L19.9998 7V4Z" fill="#0F1621"/>
</svg>
