<svg width="16" height="16" viewBox="0 0 16 16" fill="none" xmlns="http://www.w3.org/2000/svg">
<path d="M13.0068 1.33332C12.8743 1.33239 12.7421 1.34806 12.6135 1.37999L3.54016 3.52666C3.10174 3.63027 2.71114 3.87887 2.43164 4.23218C2.15213 4.58549 2.0001 5.02282 2.00016 5.47332V12L14.6668 8.99999V2.99999C14.6668 2.55911 14.4922 2.1362 14.181 1.82383C13.8699 1.51146 13.4477 1.33509 13.0068 1.33332ZM7.8335 7.33332L3.3335 8.38666V5.54666C3.3345 5.35593 3.40143 5.17142 3.52294 5.0244C3.64444 4.87738 3.81304 4.7769 4.00016 4.73999L7.86016 3.81999L7.8335 7.33332ZM13.3335 5.99999L8.8335 7.07332V3.57999L12.7202 2.66666H12.8402C12.9716 2.66841 13.0971 2.72186 13.1894 2.81544C13.2817 2.90902 13.3335 3.03519 13.3335 3.16666V5.99999ZM1.3335 14.5867L14.6668 11.4267V10.4267L1.3335 13.5867V14.5867Z" fill="#0F1621"/>
</svg>
