<svg width="24" height="24" viewBox="0 0 24 24" fill="none" xmlns="http://www.w3.org/2000/svg">
<path d="M21 17.2L3 20.9V18.9L21 15.2V17.2ZM18.8 3C18.7 3 18.5 3 18.4 3L4.39999 5.90002C3.49999 6.10002 3 6.90002 3 7.90002V10.9V12.9V16.9L21 13.2V9.20001V7.20001V5.20001C21 4.00001 20 3 18.8 3ZM5 7.90002C5 7.90002 5 7.80002 5 7.90002L11 6.60004V9.30005L5 10.5V7.90002ZM19 11.6L5 14.5V12.6L19 9.70001V11.6ZM13 8.90002V6.20001L18.8 5C18.9 5 19 5.10001 19 5.20001V7.60004L13 8.90002Z" fill="#0F1621"/>
</svg>
