<svg width="24" height="24" viewBox="0 0 24 24" fill="none" xmlns="http://www.w3.org/2000/svg">
<path d="M11.3404 8.41002L4.27041 15.48C4.08445 15.6658 3.93694 15.8863 3.83629 16.1291C3.73564 16.3719 3.68383 16.6322 3.68383 16.895C3.68383 17.1578 3.73564 17.4181 3.83629 17.6609C3.93694 17.9037 4.08445 18.1243 4.27041 18.31L2.27041 20.31C2.17668 20.403 2.10228 20.5136 2.05152 20.6354C2.00075 20.7573 1.97461 20.888 1.97461 21.02C1.97461 21.152 2.00075 21.2827 2.05152 21.4046C2.10228 21.5265 2.17668 21.6371 2.27041 21.73C2.36337 21.8237 2.47397 21.8981 2.59583 21.9489C2.71769 21.9997 2.8484 22.0258 2.98041 22.0258C3.11242 22.0258 3.24312 21.9997 3.36498 21.9489C3.48684 21.8981 3.59744 21.8237 3.69041 21.73L5.69041 19.73C6.06539 20.1019 6.57226 20.3104 7.10041 20.31C7.36362 20.3115 7.62455 20.2611 7.86822 20.1616C8.1119 20.062 8.33353 19.9154 8.52041 19.73L15.5904 12.66L11.3404 8.41002ZM10.6404 14.78C10.5002 14.919 10.322 15.0135 10.1283 15.0514C9.93452 15.0893 9.73388 15.069 9.55163 14.9931C9.36938 14.9172 9.21369 14.789 9.10417 14.6247C8.99465 14.4605 8.93621 14.2674 8.93621 14.07C8.93621 13.8726 8.99465 13.6796 9.10417 13.5153C9.21369 13.351 9.36938 13.2229 9.55163 13.1469C9.73388 13.071 9.93452 13.0507 10.1283 13.0886C10.322 13.1266 10.5002 13.221 10.6404 13.36C10.7341 13.453 10.8085 13.5636 10.8593 13.6854C10.9101 13.8073 10.9362 13.938 10.9362 14.07C10.9362 14.202 10.9101 14.3327 10.8593 14.4546C10.8085 14.5765 10.7341 14.6871 10.6404 14.78ZM20.5404 10.53C19.7828 11.3158 18.7889 11.832 17.7104 12L12.0504 6.29002C12.2047 5.21776 12.703 4.22461 13.4704 3.46002C14.4134 2.54923 15.6764 2.04525 16.9874 2.05665C18.2984 2.06804 19.5525 2.59388 20.4795 3.52092C21.4065 4.44796 21.9324 5.70203 21.9438 7.01301C21.9552 8.32399 21.4512 9.58701 20.5404 10.53Z" fill="#0F1621"/>
</svg>
