<svg width="16" height="16" viewBox="0 0 16 16" fill="none" xmlns="http://www.w3.org/2000/svg">
<path d="M12.6665 1.33331H3.33317C3.15636 1.33331 2.98679 1.40355 2.86177 1.52858C2.73674 1.6536 2.6665 1.82317 2.6665 1.99998V14.6666H13.3332V1.99998C13.3332 1.82317 13.2629 1.6536 13.1379 1.52858C13.0129 1.40355 12.8433 1.33331 12.6665 1.33331ZM11.9998 9.33331C11.9998 10.1244 11.7652 10.8978 11.3257 11.5556C10.8862 12.2134 10.2615 12.7261 9.53057 13.0288C8.79967 13.3316 7.9954 13.4108 7.21948 13.2565C6.44355 13.1021 5.73082 12.7212 5.17141 12.1617C4.612 11.6023 4.23104 10.8896 4.0767 10.1137C3.92236 9.33775 4.00157 8.53348 4.30432 7.80258C4.60707 7.07167 5.11976 6.44696 5.77756 6.00743C6.43535 5.56791 7.20871 5.33331 7.99984 5.33331H8.0665C9.11577 5.3508 10.1161 5.77994 10.8519 6.5282C11.5877 7.27646 12 8.2839 11.9998 9.33331ZM9.33317 2.66665H11.9998V3.99998H9.33317V2.66665ZM9.99984 9.33331C9.99949 9.72862 9.882 10.115 9.66222 10.4435C9.44243 10.7721 9.1302 11.0282 8.76497 11.1794C8.39973 11.3306 7.99787 11.3702 7.61014 11.2932C7.22241 11.2162 6.8662 11.026 6.5865 10.7466C6.21132 10.3719 6.0003 9.86357 5.99984 9.33331H9.99984Z" fill="#0F1621"/>
</svg>
