<svg width="24" height="24" viewBox="0 0 24 24" fill="none" xmlns="http://www.w3.org/2000/svg">
<path d="M4 8V22H20V8H4ZM8.54 16C8.09964 15.2373 7.92332 14.3505 8.03839 13.4774C8.15346 12.6042 8.55348 11.7934 9.1764 11.1708C9.79932 10.5483 10.6103 10.1486 11.4835 10.034C12.3567 9.9194 13.2434 10.0962 14.0059 10.5369C14.7684 10.9777 15.3641 11.6578 15.7006 12.4716C16.0371 13.2855 16.0956 14.1877 15.867 15.0383C15.6384 15.8888 15.1355 16.6401 14.4363 17.1756C13.7371 17.7111 12.8807 18.0009 12 18C11.2985 17.9993 10.6096 17.8141 10.0023 17.4631C9.39503 17.112 8.89073 16.6075 8.54 16ZM18 2H6C5.46957 2 4.96086 2.21071 4.58579 2.58579C4.21071 2.96086 4 3.46957 4 4V6H10V4H12V6H14V4H16V6H20V4C20 3.46957 19.7893 2.96086 19.4142 2.58579C19.0391 2.21071 18.5304 2 18 2ZM14 14C14 14.5304 13.7893 15.0391 13.4142 15.4142C13.0391 15.7893 12.5304 16 12 16C11.4696 16 10.9609 15.7893 10.5858 15.4142C10.2107 15.0391 10 14.5304 10 14C10.5304 14 11.0391 13.7893 11.4142 13.4142C11.7893 13.0391 12 12.5304 12 12C12.5304 12 13.0391 12.2107 13.4142 12.5858C13.7893 12.9609 14 13.4696 14 14Z" fill="#0F1621"/>
</svg>
