<svg width="16" height="16" viewBox="0 0 16 16" fill="none" xmlns="http://www.w3.org/2000/svg">
<path d="M14.6668 2.66669H12.2535C11.3023 2.66669 10.39 3.04457 9.71734 3.7172C9.04471 4.38983 8.66683 5.30211 8.66683 6.25335V14H9.3335C9.3335 13.6464 9.47397 13.3073 9.72402 13.0572C9.97407 12.8072 10.3132 12.6667 10.6668 12.6667H14.6668V2.66669ZM1.3335 2.66669H3.76683C4.23665 2.66756 4.70168 2.76107 5.13532 2.94188C5.56896 3.12268 5.96269 3.38722 6.29397 3.72036C6.62525 4.0535 6.88759 4.4487 7.06596 4.88334C7.24434 5.31799 7.33525 5.78354 7.3335 6.25335V14H6.66683C6.66683 13.6464 6.52635 13.3073 6.27631 13.0572C6.02626 12.8072 5.68712 12.6667 5.3335 12.6667H1.3335V2.66669Z" fill="#0F1621"/>
</svg>
