<svg width="24" height="24" viewBox="0 0 24 24" fill="none" xmlns="http://www.w3.org/2000/svg">
<path d="M19 2L19.0002 7.51318C19.0002 8.66272 19.5059 9.78887 19.9849 10.8557C20.0441 10.9876 20.103 11.1186 20.1604 11.2486C20.6015 12.2479 21 13.7681 21 16L21 22H13V16C13 13.7683 13.3985 12.2481 13.8397 11.2489C13.8971 11.1189 13.9559 10.9879 14.0152 10.856C14.4944 9.78896 15.0002 8.66254 15.0002 7.51273L15 2H19Z" fill="#0F1621"/>
<path d="M10.9998 8H3V12.5C3 14.2632 4.30385 15.7219 6 15.9646L6 20L5 20C3.89543 20 3 20.8954 3 22L11 22C11 20.8955 10.1046 20 9 20L8 20L8 15.9645C9.69613 15.7219 10.9999 14.2631 10.9999 12.4999L10.9998 8Z" fill="#0F1621"/>
</svg>
