<svg width="16" height="16" viewBox="0 0 16 16" fill="none" xmlns="http://www.w3.org/2000/svg">
<path d="M12.5 1V5.17159C12.5 5.70201 12.7158 6.20942 13.0057 6.65359C13.4412 7.32072 14 8.47409 14.0001 10C14.0003 12.5 14 15 14 15H9C9 15 9.00028 12.5 9.00011 10C9 8.47411 9.55879 7.32075 9.99426 6.65362C10.2842 6.20943 10.5 5.702 10.5 5.17155V1H12.5Z" fill="#0F1621"/>
<path d="M7 5H2V7.49997C2 8.61938 2.73572 9.56695 3.75 9.88552L3.75 14H3C2.44772 14 2 14.4477 2 15H7C7 14.4477 6.55228 14 6 14H5.25L5.25 9.88552C6.26428 9.56695 7 8.61938 7 7.49997V5Z" fill="#0F1621"/>
</svg>
