<svg width="24" height="24" viewBox="0 0 24 24" fill="none" xmlns="http://www.w3.org/2000/svg">
<path d="M19.9999 2H14.9999V8.0648C14.9999 8.75868 14.7482 9.48521 14.347 10.235C13.7334 11.3819 12.9997 13.2255 12.9999 15.5001L12.9998 22H21.9998L21.9999 15.4999C21.9997 13.2253 21.2661 11.3817 20.6526 10.2349C20.2515 9.48524 19.9999 8.75883 19.9999 8.06507V2ZM16.9999 8.0648V4H17.9999V8.06507C17.9999 9.22667 18.4149 10.2921 18.8891 11.1784C19.402 12.1371 19.9998 13.6536 19.9999 15.5001L20 20H15L14.9999 15.4999C14.9998 13.6537 15.5975 12.1373 16.1104 11.1786C16.5847 10.2922 16.9999 9.2266 16.9999 8.0648Z" fill="#0F1621"/>
<path d="M10.9999 7H2.00013L2 11.5C1.99994 13.6416 3.49597 15.4338 5.5 15.8885L5.5 20H4C2.89543 20 2 20.8954 2 22H11C11 20.8954 10.1046 20 9 20H7.5L7.5 15.8885C9.50383 15.4337 10.9997 13.6417 10.9998 11.5002L10.9999 7ZM4 11.5L4.00007 9H8.99987L8.99979 11.5002C8.99975 12.8808 7.88052 14 6.4999 14C5.11921 14 3.99996 12.8807 4 11.5Z" fill="#0F1621"/>
</svg>
