<svg width="24" height="24" viewBox="0 0 24 24" fill="none" xmlns="http://www.w3.org/2000/svg">
<path d="M7 9H2V5H7V9Z" fill="#0E1520"/>
<path fill-rule="evenodd" clip-rule="evenodd" d="M10 20H11.05C11.2816 21.1411 12.2905 22 13.5 22C14.7095 22 15.7184 21.1411 15.95 20H16.55C16.7816 21.1411 17.7905 22 19 22C20.2095 22 21.2184 21.1411 21.45 20H22V18H21.0002C20.5441 17.3928 19.8179 17 19 17C18.1821 17 17.4559 17.3928 16.9998 18H15.5002C15.0441 17.3928 14.3179 17 13.5 17C12.6822 17 11.9561 17.3927 11.5 17.9998V7H22V5H11.75C10.7835 5 10 5.7835 10 6.75V20ZM14.5 19.5C14.5 20.0523 14.0523 20.5 13.5 20.5C12.9477 20.5 12.5 20.0523 12.5 19.5C12.5 18.9477 12.9477 18.5 13.5 18.5C14.0523 18.5 14.5 18.9477 14.5 19.5ZM19 18.5C19.5523 18.5 20 18.9477 20 19.5C20 20.0523 19.5523 20.5 19 20.5C18.4477 20.5 18 20.0523 18 19.5C18 18.9477 18.4477 18.5 19 18.5Z" fill="#0E1520"/>
<path d="M2 15H7V11H2V15Z" fill="#0E1520"/>
<path d="M2 17H8V22H6V19H2V17Z" fill="#0E1520"/>
</svg>
