<svg width="24" height="24" viewBox="0 0 24 24" fill="none" xmlns="http://www.w3.org/2000/svg">
<path d="M11.875 4.875C10.8395 4.875 10 5.71447 10 6.75V20H11.05C11.2816 21.1411 12.2905 22 13.5 22C14.7095 22 15.7184 21.1411 15.95 20H16.55C16.7816 21.1411 17.7905 22 19 22C20.2095 22 21.2184 21.1411 21.45 20H22V16H11.5V7.125H22V4.875H11.875Z" fill="#0E1520"/>
<path d="M7 9H2V5H7V9Z" fill="#0E1520"/>
<path d="M7 15H2V11H7V15Z" fill="#0E1520"/>
<path d="M2 17H8V22H6V19H2V17Z" fill="#0E1520"/>
</svg>
