<svg width="16" height="16" viewBox="0 0 16 16" fill="none" xmlns="http://www.w3.org/2000/svg">
<path d="M8.00016 5.17998C7.10016 5.17998 5.66683 5.41331 5.66683 6.99998V8.21998H10.3335V6.99998C10.3335 5.41331 8.90683 5.17998 8.00016 5.17998ZM7.48016 12.3333L6.00016 14.6666H10.0002L8.4935 12.3333H7.48016ZM10.0002 11.3333C10.2212 11.3333 10.4331 11.2455 10.5894 11.0892C10.7457 10.933 10.8335 10.721 10.8335 10.5C10.8335 10.279 10.7457 10.067 10.5894 9.91072C10.4331 9.75444 10.2212 9.66665 10.0002 9.66665C9.77915 9.66665 9.56719 9.75444 9.41091 9.91072C9.25463 10.067 9.16683 10.279 9.16683 10.5C9.16683 10.721 9.25463 10.933 9.41091 11.0892C9.56719 11.2455 9.77915 11.3333 10.0002 11.3333ZM6.00016 11.3333C6.1096 11.3333 6.21796 11.3118 6.31907 11.2699C6.42017 11.228 6.51204 11.1666 6.58942 11.0892C6.6668 11.0119 6.72818 10.92 6.77006 10.8189C6.81194 10.7178 6.8335 10.6094 6.8335 10.5C6.8335 10.3905 6.81194 10.2822 6.77006 10.1811C6.72818 10.08 6.6668 9.98811 6.58942 9.91072C6.51204 9.83334 6.42017 9.77196 6.31907 9.73008C6.21796 9.6882 6.1096 9.66665 6.00016 9.66665C5.77915 9.66665 5.56719 9.75444 5.41091 9.91072C5.25463 10.067 5.16683 10.279 5.16683 10.5C5.16683 10.721 5.25463 10.933 5.41091 11.0892C5.56719 11.2455 5.77915 11.3333 6.00016 11.3333ZM8.00016 1.33331C3.76683 1.33331 1.3335 3.38665 1.3335 6.97331V14.6666H4.00016L5.72683 12.3333H4.66683C4.49002 12.3333 4.32045 12.2631 4.19543 12.1381C4.0704 12.013 4.00016 11.8435 4.00016 11.6666V6.91331C4.00016 4.91331 5.5335 3.66665 8.00016 3.66665C10.4668 3.66665 12.0002 4.90665 12.0002 6.91331V11.6666C12.0002 11.8435 11.9299 12.013 11.8049 12.1381C11.6799 12.2631 11.5103 12.3333 11.3335 12.3333H10.2335L12.0002 14.6666H14.6668V6.97331C14.6668 3.38665 12.2335 1.33331 8.00016 1.33331Z" fill="#0F1621"/>
</svg>
