<svg width="24" height="24" viewBox="0 0 24 24" fill="none" xmlns="http://www.w3.org/2000/svg">
<path d="M20.9998 13.51L19.3198 3.67C19.241 3.19858 18.996 2.77098 18.6291 2.46463C18.2622 2.15829 17.7977 1.99346 17.3198 2H6.65981C6.1819 1.99346 5.71744 2.15829 5.35055 2.46463C4.98367 2.77098 4.73863 3.19858 4.65981 3.67L2.99981 13.51C2.94109 13.8447 2.96862 14.1889 3.07981 14.51L4.45981 18.67C4.60173 19.0699 4.86715 19.4143 5.21769 19.6533C5.56823 19.8924 5.98573 20.0138 6.40981 20H6.99981V18.17L9.99981 15H13.9998L16.9998 18.17V20H17.5598C17.9837 20.0046 18.3982 19.8744 18.7433 19.6282C19.0884 19.3819 19.3463 19.0324 19.4798 18.63L20.8598 14.47C20.9846 14.1663 21.0326 13.8366 20.9998 13.51ZM7.99981 14H5.99981V12H7.99981V14ZM17.9998 14H15.9998V12H17.9998V14ZM5.99981 10L6.84981 4.8C6.89657 4.57073 7.02224 4.36511 7.20496 4.21893C7.38768 4.07276 7.61587 3.99529 7.84981 4H16.2698C16.5038 3.99529 16.732 4.07276 16.9147 4.21893C17.0974 4.36511 17.2231 4.57073 17.2698 4.8L17.9998 10H5.99981ZM14.9998 19V22H8.99981V19L10.9998 17H12.9998L14.9998 19Z" fill="#0F1621"/>
</svg>
