<svg width="24" height="24" viewBox="0 0 24 24" fill="none" xmlns="http://www.w3.org/2000/svg">
<path d="M13 17L15 19V22H13V20L12 19L11 20V22H9V19L11 17H13ZM20.9 14.5L19.5 18.7C19.2 19.5 18.5 20.1 17.6 20.1H17V18.3L14 15.1H10L7 18.3V20.1H6.39999C5.49999 20.1 4.8 19.5 4.5 18.7L3.10001 14.5C3.00001 14.2 3 13.9 3 13.5L4.60001 3.70001C4.80001 2.70001 5.60001 2 6.60001 2H17.3C18.3 2 19.1 2.70001 19.3 3.70001L20.9 13.5C21 13.9 21 14.2 20.9 14.5ZM6.70001 4L6 8H18L17.3 4H6.70001ZM19 13.9L18.4 10.1H5.70001L5.10001 13.9L6 16.5L8.70001 13.7L9.29999 13.1H10.2H14.2H15.1L15.7 13.7L18.4 16.5L19 13.9Z" fill="#0F1621"/>
</svg>
