<svg width="16" height="16" viewBox="0 0 16 16" fill="none" xmlns="http://www.w3.org/2000/svg">
<path d="M13.2667 8.20665L12.6667 3.21332C12.6361 2.70395 12.4119 2.22556 12.0401 1.87606C11.6683 1.52656 11.177 1.3324 10.6667 1.33332H5.33338C4.8231 1.3324 4.33177 1.52656 3.95996 1.87606C3.58815 2.22556 3.364 2.70395 3.33338 3.21332L2.73338 8.20665C2.67846 8.72912 2.74932 9.25715 2.94005 9.74665L3.96005 12.0667C4.06379 12.3375 4.2462 12.5711 4.48381 12.7375C4.72143 12.9038 5.00338 12.9952 5.29338 13L5.70672 11C5.7818 10.7089 5.95304 10.4517 6.19265 10.2702C6.43226 10.0887 6.72618 9.99346 7.02672 9.99998H8.97338C9.2723 9.99872 9.56297 10.0979 9.79872 10.2817C10.0345 10.4655 10.2016 10.7231 10.2734 11.0133L10.6467 13.0133C10.9367 13.0086 11.2187 12.9171 11.4563 12.7508C11.6939 12.5845 11.8763 12.3508 11.98 12.08L13.0334 9.75998C13.2353 9.2686 13.3154 8.73567 13.2667 8.20665ZM5.26672 2.66665H10.7467C10.9454 2.67106 11.1354 2.74929 11.2796 2.88608C11.4238 3.02288 11.5119 3.20845 11.5267 3.40665C11.5267 3.40665 11.5934 4.87998 11.6334 5.99998H4.34672C4.39338 4.87998 4.48005 3.40665 4.48005 3.40665C4.49502 3.20732 4.58407 3.02082 4.72966 2.88387C4.87526 2.74691 5.06685 2.66942 5.26672 2.66665ZM6.00005 8.99998H4.66672C4.59028 9.00012 4.51463 8.98461 4.44442 8.9544C4.37421 8.9242 4.31093 8.87994 4.25847 8.82436C4.20601 8.76877 4.16548 8.70304 4.13938 8.6312C4.11328 8.55937 4.10217 8.48295 4.10672 8.40665L4.14005 7.85998C4.14865 7.71498 4.21325 7.57899 4.32023 7.48073C4.4272 7.38246 4.56817 7.3296 4.71338 7.33332H6.00005V8.99998ZM11.3334 8.99998H10V7.33332H11.2867C11.4296 7.33306 11.5672 7.38747 11.6714 7.48538C11.7755 7.5833 11.8382 7.71731 11.8467 7.85998L11.88 8.40665C11.8846 8.48184 11.8738 8.55716 11.8486 8.62811C11.8233 8.69906 11.7839 8.76418 11.7329 8.81957C11.6819 8.87497 11.6202 8.91949 11.5515 8.95049C11.4829 8.98149 11.4087 8.99832 11.3334 8.99998ZM9.14005 11.84L9.64672 14.6667H6.31338L6.83338 11.8467C6.86988 11.6987 6.95595 11.5678 7.07725 11.4756C7.19854 11.3834 7.34776 11.3355 7.50005 11.34H8.45338C8.6059 11.3336 8.75597 11.3798 8.87852 11.4708C9.00107 11.5618 9.08869 11.6922 9.12672 11.84H9.14005Z" fill="#0F1621"/>
</svg>
