<svg width="24" height="24" viewBox="0 0 24 24" fill="none" xmlns="http://www.w3.org/2000/svg">
<path d="M17 4C17.373 4 17.74 4.02553 18.0994 4.07493C16.4114 2.77383 14.2961 2 12 2C6.47715 2 2 6.47715 2 12C2 17.5228 6.47715 22 12 22C14.2961 22 16.4114 21.2262 18.0994 19.9251C17.74 19.9745 17.373 20 17 20C12.5817 20 9 16.4183 9 12C9 7.58172 12.5817 4 17 4Z" fill="#0E1520"/>
<path d="M18.5667 10.9428L18.5442 7.25L16.4606 10.2989L13.0321 9.24208L15.1491 12.3408L13 15.3611L16.4879 13.9759L18.6049 17.0747L18.5121 13.369L22 11.9838L18.5667 10.9428Z" fill="#0E1520"/>
</svg>
