<svg width="16" height="16" viewBox="0 0 16 16" fill="none" xmlns="http://www.w3.org/2000/svg">
<path d="M11.5 2C11.5365 2 11.5729 2.00033 11.6092 2.00098C10.5553 1.36555 9.32034 1 8 1C4.13401 1 1 4.13401 1 8C1 11.866 4.13401 15 8 15C9.32034 15 10.5553 14.6344 11.6092 13.999C11.5729 13.9997 11.5365 14 11.5 14C8.18629 14 5.5 11.3137 5.5 8C5.5 4.68629 8.18629 2 11.5 2Z" fill="#0E1520"/>
<path d="M12.657 7.13406L12.687 4.5L11.1897 6.68545L8.80113 5.94905L10.2645 8.14555L8.75 10.3062L11.1915 9.3035L12.6549 11.5L12.6075 8.86186L15.049 7.85921L12.657 7.13406Z" fill="#0E1520"/>
</svg>
