<svg width="24" height="24" viewBox="0 0 24 24" fill="none" xmlns="http://www.w3.org/2000/svg">
<path d="M22 13L16 4L12.88 5L10 2L2 12.88V22H22V13ZM20 20H17C17.05 19.6 17.08 19.31 17.08 19.29C17.0387 18.6568 16.8119 18.0497 16.4277 17.5447C16.0436 17.0396 15.5192 16.6589 14.92 16.45L10 14.39C9.86115 14.3442 9.73925 14.2577 9.6501 14.1418C9.56095 14.026 9.50866 13.886 9.5 13.74C9.51908 13.5599 9.59871 13.3916 9.72587 13.2626C9.85302 13.1336 10.0202 13.0516 10.2 13.03L14.52 12.13L13.92 11.48L9.06 12C8.5189 12.0123 8.0011 12.2227 7.60481 12.5913C7.20852 12.9599 6.96129 13.4612 6.91 14C6.91728 14.2735 6.98681 14.5417 7.11331 14.7843C7.2398 15.0269 7.41993 15.2375 7.64 15.4L9.73 17.27C9.86123 17.3819 9.96535 17.5221 10.0345 17.6801C10.1037 17.8381 10.1362 18.0097 10.1294 18.182C10.1227 18.3543 10.077 18.5229 9.99564 18.675C9.91432 18.827 9.79956 18.9587 9.66 19.06L8.46 20H4V13.53L10.2 5.1L11.43 6.38L12.3 7.29L13.48 6.9L15.17 6.36L20 13.61V20Z" fill="#0F1621"/>
</svg>
