<svg width="24" height="24" viewBox="0 0 24 24" fill="none" xmlns="http://www.w3.org/2000/svg">
<path d="M22 13L16 4L13 5L10 2L2 13V22H22V13ZM12.4598 7.28825L15.1833 6.38043L20 13.6056V20H16L17.1539 17.6922C17.6286 16.7428 17.2789 15.588 16.3573 15.0613L12.3486 12.7707C11.8037 12.4593 11.8595 11.6562 12.4422 11.4231L16 10H14L8.86271 11.4678C8.08173 11.6909 7.87849 12.7028 8.51274 13.2102L10.3982 14.7185C11.1909 15.3527 11.1379 16.5748 10.2932 17.1379L6 20H4V13.6504L10.2408 5.06924L12.4598 7.28825Z" fill="#0E1520"/>
</svg>
