<svg width="16" height="16" viewBox="0 0 16 16" fill="none" xmlns="http://www.w3.org/2000/svg">
<path d="M15 14H1L6.77 2.35002C6.82201 2.24457 6.9025 2.15579 7.00235 2.0937C7.10219 2.03162 7.21742 1.99872 7.335 1.99872C7.45258 1.99872 7.56781 2.03162 7.66765 2.0937C7.7675 2.15579 7.84799 2.24457 7.9 2.35002L10 6.59002L10.28 6.00002C10.3156 5.92838 10.3705 5.86811 10.4386 5.82598C10.5066 5.78384 10.585 5.76152 10.665 5.76152C10.745 5.76152 10.8234 5.78384 10.8914 5.82598C10.9595 5.86811 11.0144 5.92838 11.05 6.00002L15 14Z" fill="#0F1621"/>
</svg>
