<svg width="16" height="16" viewBox="0 0 16 16" fill="none" xmlns="http://www.w3.org/2000/svg">
<path d="M10.8 2.4L8.6 3.1L6.6 1L1 8.6V15H3L6.57404 12.6173C7.06865 12.2876 7.16811 11.6017 6.78756 11.1451L5.40415 9.48498C5.19774 9.23729 5.27627 8.86187 5.56465 8.71767L9 7H11L7.89443 8.55279C7.5259 8.73705 7.5259 9.26295 7.89443 9.44721L11.759 11.3795C12.3695 11.6848 12.5016 12.4984 12.0189 12.9811L10 15H15V8.7L10.8 2.4ZM6.74 3.17L8.21 4.7L10.18 4.05L11.4377 6H4.72559L6.74 3.17Z" fill="#0E1520"/>
</svg>
