<svg width="24" height="24" viewBox="0 0 24 24" fill="none" xmlns="http://www.w3.org/2000/svg">
<path fill-rule="evenodd" clip-rule="evenodd" d="M7.00821 4.28436C7.57624 2.32206 10.3742 2.37352 10.8696 4.3554L11.9701 8.75747C12.1041 9.29327 11.7783 9.8362 11.2425 9.97015C10.7067 10.1041 10.1638 9.77834 10.0299 9.24254L8.92934 4.84047L4.83053 19H19.1984L16.4891 8.84037L14.4648 16.2631C14.3194 16.7959 13.7697 17.1101 13.2369 16.9648C12.7041 16.8195 12.3899 16.2697 12.5352 15.7369L14.5596 8.31413C15.0971 6.34335 17.8953 6.35126 18.4216 8.32504L21.1309 18.4847C21.4694 19.7544 20.5124 21 19.1984 21H4.83053C3.49888 21 2.53912 19.723 2.9094 18.4439L7.00821 4.28436Z" fill="#0F1621"/>
</svg>
