<svg width="24" height="24" viewBox="0 0 24 24" fill="none" xmlns="http://www.w3.org/2000/svg">
<path d="M9.50012 17.3375V17.4164C9.50012 17.7952 9.37726 18.1638 9.14997 18.4669L8.80012 18.9333C8.28083 19.6257 8.00012 20.4679 8.00012 21.3333V22H17.0001V13C17.0001 12.6852 17.1483 12.3889 17.4001 12.2L18.387 11.4598C18.7487 11.1885 18.8834 10.7083 18.7155 10.2884L18.2516 9.12861C18.0997 8.74895 17.732 8.5 17.3231 8.5H14.0608C13.475 8.5 13.0001 8.02513 13.0001 7.43934C13.0001 7.15804 13.1119 6.88825 13.3108 6.68934L13.5001 6.5C13.8203 6.17986 14.0001 5.74565 14.0001 5.29289V4.8541C14.0001 4.62123 13.9459 4.39156 13.8418 4.18328L13.4376 3.3749C13.1616 2.82288 12.6461 2.4292 12.0409 2.30817L11.6374 2.22746C10.9056 2.0811 10.1455 2.21276 9.50558 2.59672L8.97113 2.91739C8.36872 3.27884 8.00012 3.92985 8.00012 4.63238V5C8.00012 5.62951 8.29651 6.22229 8.80012 6.6L9.43737 7.07794C9.79163 7.34363 10.0001 7.76061 10.0001 8.20344C10.0001 8.69762 9.74083 9.15557 9.31708 9.40983L6.29931 11.2205C5.53097 11.6815 5.16301 12.5973 5.39877 13.4617L5.96952 15.5544C6.24402 16.5609 7.37071 17.0647 8.30383 16.5981C8.85345 16.3233 9.50012 16.723 9.50012 17.3375Z" fill="#0E1520"/>
</svg>
