<svg width="16" height="16" viewBox="0 0 16 16" fill="none" xmlns="http://www.w3.org/2000/svg">
<path d="M5.99992 11.309V11.3944C5.99992 11.7893 5.88305 12.1753 5.66402 12.5038L5.33582 12.9962C5.1168 13.3247 4.99992 13.7107 4.99992 14.1056V15H11.4999V9.03518C11.4999 8.70083 11.667 8.3886 11.9452 8.20313L12.4136 7.89091C12.7652 7.65648 12.9315 7.22632 12.829 6.81632L12.6893 6.25746C12.578 5.8123 12.178 5.5 11.7191 5.5H9.20703C8.81651 5.5 8.49992 5.18342 8.49992 4.79289C8.49992 4.60536 8.57442 4.4255 8.70703 4.29289L8.76848 4.23144C8.91815 4.08177 9.01143 3.88493 9.03249 3.67432L9.06596 3.33965C9.08827 3.11651 9.05644 2.89128 8.97315 2.68307L8.81011 2.27548C8.61339 1.78365 8.2101 1.40339 7.70757 1.23588C7.25447 1.08485 6.75993 1.11999 6.33275 1.33359L5.95866 1.52063C5.37111 1.8144 4.99992 2.41495 4.99992 3.07184V3.09861C4.99992 3.66175 5.28136 4.18763 5.74992 4.5L6.10073 4.73387C6.35012 4.90013 6.49992 5.18004 6.49992 5.47977C6.49992 5.80147 6.32755 6.0985 6.04823 6.25811L3.68072 7.61097C3.28097 7.8394 3.08885 8.31124 3.21533 8.75394L3.69278 10.425C3.85238 10.9836 4.48027 11.2598 4.99992 11L5.27632 10.8618C5.60877 10.6956 5.99992 10.9373 5.99992 11.309Z" fill="#0E1520"/>
</svg>
