<svg width="24" height="24" viewBox="0 0 24 24" fill="none" xmlns="http://www.w3.org/2000/svg">
<path fill-rule="evenodd" clip-rule="evenodd" d="M8.92278 2.57172C9.84938 2.01576 10.9499 1.82513 12.0095 2.03705L12.188 2.07273C13.0201 2.23916 13.7288 2.78046 14.1083 3.53949L14.4527 4.22831C14.6654 4.65363 14.7378 5.13539 14.6597 5.60444L14.5974 5.9782C14.4157 6.75 14.2876 7.03331 13.9577 7.4732L13.825 7.65C13.7764 7.71491 13.75 7.79386 13.75 7.875C13.75 8.08211 13.9179 8.25 14.125 8.25H17.323C18.0386 8.25 18.6821 8.68567 18.9479 9.35007L19.3547 10.3671C19.6927 11.2122 19.3265 12.1753 18.5125 12.5823L17.8882 12.8944C17.8035 12.9368 17.75 13.0233 17.75 13.118V22H7.25005V21.25C7.25005 20.2763 7.56585 19.3289 8.15005 18.55L8.70005 17.8167C8.7325 17.7734 8.75005 17.7208 8.75005 17.6667V17.618C8.75005 17.4322 8.55447 17.3113 8.38825 17.3944L7.89886 17.6391C6.92717 18.125 5.75222 17.6173 5.44004 16.5767L4.72855 14.2051C4.36712 13.0003 4.86915 11.7039 5.94771 11.0568L8.93113 9.26671C9.12899 9.148 9.25005 8.93418 9.25005 8.70344C9.25005 8.49668 9.1527 8.30199 8.9873 8.17794L8.29118 7.65585C7.63577 7.16429 7.25005 6.39285 7.25005 5.57359V5.52609C7.25005 4.31586 7.88502 3.19437 8.92278 2.57172ZM11.7154 3.50792C11.0217 3.36918 10.3012 3.49398 9.69453 3.85796C9.10858 4.20953 8.75005 4.84275 8.75005 5.52609V5.57359C8.75005 5.92071 8.91348 6.24758 9.19118 6.45585L9.8873 6.97794C10.4304 7.38527 10.75 8.02455 10.75 8.70344C10.75 9.46107 10.3525 10.1632 9.70287 10.5529L6.71945 12.343C6.2292 12.6372 6.001 13.2264 6.16529 13.7741L6.87678 16.1457C6.92138 16.2944 7.08923 16.3669 7.22804 16.2975L7.71742 16.0528C8.881 15.471 10.25 16.3171 10.25 17.618V17.6667C10.25 18.0453 10.1272 18.4137 9.90005 18.7167L9.35005 19.45C9.11334 19.7656 8.94273 20.1227 8.84531 20.5H16.25V13.118C16.25 12.4552 16.6246 11.8492 17.2174 11.5528L17.8416 11.2407C17.9579 11.1825 18.0103 11.0449 17.962 10.9242L17.5551 9.90715C17.5172 9.81224 17.4252 9.75 17.323 9.75H14.125C13.0895 9.75 12.25 8.91054 12.25 7.875C12.25 7.46931 12.3816 7.07456 12.625 6.75L12.7577 6.5732C12.9434 6.32557 13.0669 6.03693 13.1178 5.73161L13.1801 5.35784C13.2061 5.20149 13.182 5.0409 13.1111 4.89913L12.7667 4.21031C12.5942 3.8653 12.272 3.61925 11.8938 3.5436L11.7154 3.50792Z" fill="black"/>
</svg>
