<svg width="16" height="16" viewBox="0 0 16 16" fill="none" xmlns="http://www.w3.org/2000/svg">
<path d="M6.72667 12.04L4.50667 14.6667L3.29333 13.4534L5.92 11.2334C5.5628 10.4346 5.44882 9.54834 5.59228 8.6852C5.73574 7.82206 6.13029 7.0203 6.72667 6.38004C8.84667 4.26004 14 3.96004 14 3.96004C14 3.96004 13.6933 9.11337 11.5733 11.2334C10.9337 11.8284 10.1331 12.2222 9.27131 12.3656C8.40953 12.509 7.52459 12.3958 6.72667 12.04ZM3.9 11.44L4.56667 10.8534C4.30741 9.93357 4.2941 8.96183 4.52808 8.03528C4.76206 7.10872 5.23512 6.25981 5.9 5.57337C6.39328 5.09572 6.95779 4.69764 7.57333 4.39337C6.95338 3.30955 6.23478 2.28521 5.42667 1.33337C5.42667 1.33337 2 5.19337 2 8.19337C2.01539 8.85126 2.19785 9.49441 2.53022 10.0624C2.8626 10.6303 3.33397 11.1044 3.9 11.44Z" fill="#0F1621"/>
</svg>
