<svg width="24" height="24" viewBox="0 0 24 24" fill="none" xmlns="http://www.w3.org/2000/svg">
<path d="M22.0002 4V8C22.0002 10.9174 20.8412 13.7153 18.7783 15.7782C16.7154 17.8411 13.9176 19 11.0002 19H8.42017L5.42017 22L4.00017 20.59L7.00017 17.59V15C7.00017 12.0826 8.1591 9.28473 10.222 7.22183C12.2849 5.15893 15.0828 4 18.0002 4H22.0002ZM5.00017 15C5.00017 12.9274 5.49573 10.8848 6.44552 9.04266C7.39531 7.20049 8.77179 5.61211 10.4602 4.41L8.05017 2L5.22017 4.83C3.49266 6.55825 2.38979 8.81252 2.08559 11.2371C1.78138 13.6617 2.29316 16.1185 3.54017 18.22L5.00017 16.75V15Z" fill="#0F1621"/>
</svg>
