<svg width="16" height="16" viewBox="0 0 16 16" fill="none" xmlns="http://www.w3.org/2000/svg">
<path d="M6.66685 2.66668H4.00018V1.33334H6.66685V2.66668ZM1.33352 14.6667H5.33352V13.3333H1.33352V14.6667ZM10.6668 14.6667H14.6669V13.3333H10.6668V14.6667ZM12.0002 1.33334H9.33352V2.66668H12.0002V1.33334ZM14.6669 8.34001V12.6667H10.6668V9.33334H5.33352V12.6667H1.33352V8.34001C1.3318 7.89758 1.44187 7.46188 1.65352 7.07334L3.66685 3.33334H6.66685V4.00001H9.33352V3.33334H12.3202L14.3202 7.07334C14.5411 7.4594 14.6604 7.89525 14.6669 8.34001ZM8.66685 5.33334H7.33352V8.00001H8.66685V5.33334Z" fill="#0F1621"/>
</svg>
