<svg width="24" height="24" viewBox="0 0 24 24" fill="none" xmlns="http://www.w3.org/2000/svg">
<path d="M12 10C12.3956 10 12.7822 10.1173 13.1111 10.3371C13.44 10.5569 13.6964 10.8692 13.8478 11.2347C13.9991 11.6001 14.0387 12.0022 13.9616 12.3902C13.8844 12.7782 13.6939 13.1345 13.4142 13.4142C13.1345 13.6939 12.7781 13.8844 12.3902 13.9616C12.0022 14.0388 11.6001 13.9992 11.2346 13.8478C10.8692 13.6964 10.5568 13.4401 10.3371 13.1112C10.1173 12.7823 10 12.3956 10 12C10 11.4696 10.2107 10.9609 10.5858 10.5858C10.9609 10.2107 11.4696 10 12 10ZM12 8.00003C11.2089 8.00003 10.4355 8.23462 9.77772 8.67415C9.11992 9.11368 8.60723 9.73839 8.30448 10.4693C8.00173 11.2002 7.92252 12.0045 8.07686 12.7804C8.2312 13.5563 8.61216 14.269 9.17157 14.8285C9.73098 15.3879 10.4437 15.7688 11.2196 15.9232C11.9956 16.0775 12.7998 15.9983 13.5307 15.6955C14.2616 15.3928 14.8864 14.8801 15.3259 14.2223C15.7654 13.5645 16 12.7912 16 12C16 10.9392 15.5786 9.92175 14.8284 9.1716C14.0783 8.42146 13.0609 8.00003 12 8.00003ZM20 2.00003V14C19.9963 14.2648 19.8927 14.5184 19.71 14.71L17.71 16.71L17 16L14 19L17 22L20 19L19.12 18.12L21.12 16.12C21.6828 15.558 21.9993 14.7954 22 14V2.00003H20ZM12 2.00003C9.34784 2.00003 6.8043 3.0536 4.92893 4.92896C3.05357 6.80432 2 9.34786 2 12C2 14.6522 3.05357 17.1957 4.92893 19.0711C6.8043 20.9465 9.34784 22 12 22H12.69H13C13.22 22 13.44 21.95 13.65 21.91L14 21.8L12.61 20.41L12.17 20H12C10.6621 20.0017 9.34515 19.6679 8.16966 19.029C6.99416 18.3901 5.99766 17.4666 5.27136 16.343C4.54505 15.2194 4.11213 13.9316 4.01222 12.5975C3.91231 11.2633 4.14859 9.92539 4.69945 8.70616C5.2503 7.48693 6.09814 6.42533 7.16537 5.61849C8.2326 4.81165 9.48514 4.28536 10.8084 4.08776C12.1316 3.89017 13.4832 4.02759 14.7396 4.48745C15.996 4.94731 17.117 5.71491 18 6.72003V4.00003C16.2714 2.69724 14.1645 1.99494 12 2.00003ZM12 2.00003C9.34784 2.00003 6.8043 3.0536 4.92893 4.92896C3.05357 6.80432 2 9.34786 2 12C2 14.6522 3.05357 17.1957 4.92893 19.0711C6.8043 20.9465 9.34784 22 12 22H12.69H13C13.22 22 13.44 21.95 13.65 21.91L14 21.8L12.61 20.41L12.17 20H12C10.6621 20.0017 9.34515 19.6679 8.16966 19.029C6.99416 18.3901 5.99766 17.4666 5.27136 16.343C4.54505 15.2194 4.11213 13.9316 4.01222 12.5975C3.91231 11.2633 4.14859 9.92539 4.69945 8.70616C5.2503 7.48693 6.09814 6.42533 7.16537 5.61849C8.2326 4.81165 9.48514 4.28536 10.8084 4.08776C12.1316 3.89017 13.4832 4.02759 14.7396 4.48745C15.996 4.94731 17.117 5.71491 18 6.72003V4.00003C16.2714 2.69724 14.1645 1.99494 12 2.00003Z" fill="#0F1621"/>
</svg>
