<svg width="24" height="24" viewBox="0 0 24 24" fill="none" xmlns="http://www.w3.org/2000/svg">
<path fill-rule="evenodd" clip-rule="evenodd" d="M11.9997 2.00003C10.6026 2.00143 9.22126 2.29558 7.94477 2.86351C6.66828 3.43145 5.52496 4.26056 4.58852 5.29741C3.65208 6.33425 2.94329 7.55582 2.50785 8.88336C2.07241 10.2109 1.91998 11.615 2.06039 13.005C2.2008 14.3951 2.63094 15.7403 3.32306 16.9539C4.01518 18.1676 4.95394 19.2227 6.07882 20.0513C7.20369 20.88 8.48972 21.4637 9.854 21.7649C11.2183 22.0661 12.6305 22.0781 13.9997 21.8L12.6097 20.41L11.1697 19L12.5897 17.59L15.5897 14.59L16.9997 13.17L17.7097 13.88L17.9997 13.59V4.00003C16.2711 2.69724 14.1642 1.99494 11.9997 2.00003ZM11.9997 14C11.6042 14 11.2175 13.8827 10.8886 13.663C10.5597 13.4432 10.3033 13.1308 10.152 12.7654C10.0006 12.3999 9.96098 11.9978 10.0381 11.6098C10.1153 11.2219 10.3058 10.8655 10.5855 10.5858C10.8652 10.3061 11.2216 10.1156 11.6095 10.0385C11.9975 9.96129 12.3996 10.0009 12.7651 10.1523C13.1305 10.3036 13.4429 10.56 13.6627 10.8889C13.8824 11.2178 13.9997 11.6045 13.9997 12C13.9997 12.5305 13.789 13.0392 13.4139 13.4142C13.0389 13.7893 12.5301 14 11.9997 14ZM21.9997 2.00003V14C21.999 14.7954 21.6825 15.558 21.1197 16.12L19.1197 18.12L19.9997 19L16.9997 22L13.9997 19L16.9997 16L17.7097 16.71L19.7097 14.71C19.8924 14.5184 19.996 14.2648 19.9997 14V2.00003H21.9997Z" fill="#0F1621"/>
</svg>
