<svg width="16" height="16" viewBox="0 0 16 16" fill="none" xmlns="http://www.w3.org/2000/svg">
<path d="M10.0312 3.65119C11.1026 2.55714 12.9743 2.90232 13.5664 4.34943L14.9443 7.71564L15 7.85236V9.74982L14.9854 10.0906C14.9178 10.8732 14.6151 11.5702 14.0928 12.0926C13.4957 12.6896 12.6704 12.9998 11.75 12.9998C10.8296 12.9998 10.0043 12.6896 9.40723 12.0926C8.88492 11.5702 8.5822 10.8732 8.51465 10.0906L8.5 9.74982C8.49997 9.51445 8.49999 9.16834 8.5 8.86799C8.50002 8.62639 8.55219 8.38078 8.65527 8.15607C8.4694 8.11271 8.25122 8.08382 8 8.08381C7.74836 8.08381 7.52982 8.11259 7.34375 8.15607C7.44694 8.38088 7.49998 8.62624 7.5 8.86799V9.74982C7.5 10.6702 7.18981 11.4955 6.59277 12.0926C6.07021 12.6151 5.3728 12.9177 4.58984 12.9852L4.25 12.9998C3.32961 12.9998 2.5043 12.6897 1.90723 12.0926C1.3102 11.4955 1 10.6702 1 9.74982V7.85236L1.05566 7.71564L2.43359 4.34943C3.02571 2.90232 4.89739 2.55714 5.96875 3.65119L6.06934 3.76154L6.11621 3.82209C6.33339 4.13417 6.28301 4.56631 5.98828 4.81916C5.69347 5.07185 5.25869 5.05585 4.9834 4.79377L4.93066 4.7381L4.86719 4.67365C4.53642 4.37811 3.99618 4.48991 3.82129 4.91681L2.91992 7.11896C3.30488 7.04932 3.75297 6.99982 4.25 6.99982C4.86898 6.99983 5.41181 7.07768 5.85156 7.17463C5.94038 7.11734 6.04424 7.05585 6.16406 6.99591C6.58909 6.78338 7.20373 6.58381 8 6.58381C8.79591 6.58383 9.40993 6.7835 9.83496 6.99591C9.95465 7.05576 10.0585 7.11742 10.1475 7.17463C10.5874 7.07758 11.1306 6.99982 11.75 6.99982C12.2466 6.99983 12.6944 7.04941 13.0791 7.11896L12.1787 4.91681C12.0038 4.48991 11.4636 4.37811 11.1328 4.67365L11.0693 4.7381L11.0166 4.79377C10.7413 5.05585 10.3065 5.07185 10.0117 4.81916C9.71699 4.56631 9.66661 4.13417 9.88379 3.82209L9.93066 3.76154L10.0312 3.65119ZM4.25 8.49982C3.52435 8.49982 2.93125 8.6319 2.54688 8.74982C2.54088 8.7517 2.53434 8.75415 2.52539 8.7674C2.51393 8.78447 2.50002 8.81899 2.5 8.86799V9.74982C2.5 10.3293 2.68989 10.7541 2.96777 11.032C3.24568 11.3099 3.6705 11.4998 4.25 11.4998L4.45996 11.491C4.93335 11.4509 5.28905 11.2752 5.53223 11.032C5.8101 10.7541 6 10.3293 6 9.74982V8.86799C5.99998 8.81899 5.98607 8.78447 5.97461 8.7674C5.96537 8.75371 5.95833 8.75172 5.95215 8.74982C5.56777 8.63192 4.97547 8.49983 4.25 8.49982ZM11.75 8.49982C11.0243 8.49982 10.4312 8.6319 10.0469 8.74982C10.0409 8.7517 10.0344 8.75413 10.0254 8.7674C10.0139 8.78446 10 8.81901 10 8.86799C9.99999 9.16839 9.99997 9.51457 10 9.74982L10.0088 9.95978C10.0489 10.4332 10.2246 10.7889 10.4678 11.032C10.7457 11.3099 11.1705 11.4998 11.75 11.4998C12.3295 11.4998 12.7543 11.31 13.0322 11.032C13.2754 10.7888 13.4511 10.4331 13.4912 9.95978L13.5 9.74982C13.5 9.51445 13.5 9.16834 13.5 8.86799C13.5 8.81898 13.4861 8.78447 13.4746 8.7674C13.4654 8.75369 13.4583 8.75172 13.4521 8.74982C13.0678 8.63193 12.4755 8.49983 11.75 8.49982Z" fill="#0F1621"/>
</svg>
