<svg width="24" height="24" viewBox="0 0 24 24" fill="none" xmlns="http://www.w3.org/2000/svg">
<path d="M4.62891 5.73404C5.65318 3.17468 9.31557 3.51022 9.9375 6.09049L9.98828 6.34733L9.99902 6.44986C10.0249 6.95576 9.66376 7.40909 9.15234 7.48795C8.64047 7.5667 8.15937 7.24243 8.03223 6.75162L8.01172 6.65201L7.97754 6.50943C7.7537 5.83895 6.76858 5.77245 6.48633 6.47721L4.59668 11.1989C5.13009 11.0791 5.7618 10.9997 6.5 10.9997C7.48114 10.9997 8.27339 11.1421 8.89746 11.3317C9.01524 11.2582 9.15047 11.1813 9.30273 11.1051C9.92502 10.794 10.8273 10.4997 12 10.4997C13.1727 10.4997 14.075 10.794 14.6973 11.1051C14.8487 11.1809 14.9832 11.2576 15.1006 11.3307C15.7249 11.1409 16.5181 10.9997 17.5 10.9997C18.2385 10.9997 18.8698 11.0819 19.4033 11.2018L17.5137 6.47721C17.2126 5.72548 16.1117 5.85165 15.9883 6.65201C15.9042 7.19772 15.3934 7.57191 14.8477 7.48795C14.302 7.40378 13.9278 6.89305 14.0117 6.34733C14.445 3.53487 18.3137 3.09212 19.3711 5.73404L22 12.3073V12.9997C22 13.086 21.9874 13.1697 21.9668 13.2497C21.987 13.3766 22 13.5011 22 13.6208V15.4997C22 18.052 20.0523 19.9997 17.5 19.9997C14.9477 19.9997 13 18.052 13 15.4997V13.6208C13 13.3176 13.0606 12.9805 13.2051 12.6647C12.8786 12.5704 12.4778 12.4997 12 12.4997C11.5218 12.4997 11.1206 12.5702 10.7939 12.6647C10.9386 12.9806 11 13.3175 11 13.6208V15.4997C11 18.052 9.05228 19.9997 6.5 19.9997C3.94772 19.9997 2 18.052 2 15.4997V13.6208C2.00002 13.5011 2.01209 13.3766 2.03223 13.2497C2.01169 13.1698 2 13.0859 2 12.9997V12.3073L4.62891 5.73404Z" fill="#0F1621"/>
</svg>
