<svg width="24" height="24" viewBox="0 0 24 24" fill="none" xmlns="http://www.w3.org/2000/svg">
<path d="M19 5C19 5 18 6.5 16 6.5V7.5H8V6.5C6 6.5 5 5 5 5C5 5 10 4.5 12 2C14 4.5 19 5 19 5Z" fill="#0E1520"/>
<path d="M20.5 11C20.5 11 19 12 18 12V13H6V12C5 12 3.5 11 3.5 11C3.5 11 6.5 11 8 9H16C17.5 11 20.5 11 20.5 11Z" fill="#0E1520"/>
<path d="M2 17.0001C2 17.0001 3.40672 18.5212 4.85706 19.1428V21.9999L10 22V19C10 17.8955 10.8954 17 12 17C13.1046 17 14 17.8955 14 19V22L19.1428 22.0002V19.1429C20.5931 18.5214 22 17.0001 22 17.0001C22 17.0001 19 17.0001 18 15.0001H6C5 17.0001 2 17.0001 2 17.0001Z" fill="#0E1520"/>
</svg>
