<svg width="16" height="16" viewBox="0 0 16 16" fill="none" xmlns="http://www.w3.org/2000/svg">
<path d="M13 3C13 3 12 4 11 4V5H5V4C4 4 3 3 3 3C3 3 6 3 8 1C10 3 13 3 13 3Z" fill="#0E1520"/>
<path d="M14 7C14 7 13 8.00002 12 8.00002V9H4V8.00002C3 8.00004 2 7 2 7C2 7 4.5 7.00002 5 6L11 6C11.5 7 14 7 14 7Z" fill="#0E1520"/>
<path fill-rule="evenodd" clip-rule="evenodd" d="M1 11C1 11 1.98474 12.5649 3 13V14.9999L13 15.0002V13C14.0153 12.5649 15 11 15 11C15 11 13 11 12 10H4C3.00003 11 1 11 1 11ZM8 11.5C8.82843 11.5 9.5 12.1716 9.5 13V15H6.5V13C6.5 12.1716 7.17157 11.5 8 11.5Z" fill="#0E1520"/>
</svg>
