<svg width="24" height="24" viewBox="0 0 24 24" fill="none" xmlns="http://www.w3.org/2000/svg">
<path d="M17.8944 13L17.2844 8.5C17.1673 7.79195 16.8002 7.14937 16.2497 6.68884C15.6993 6.22832 15.002 5.98037 14.2844 5.99H12.0144V8H14.3244C14.5598 7.99572 14.7891 8.07461 14.972 8.22277C15.1549 8.37094 15.2797 8.57888 15.3244 8.81L15.5944 11H10.0144V10H6.01441V11H7.01441V13H6.51441C5.69469 12.9974 4.88983 13.2187 4.18671 13.6401C3.4836 14.0615 2.90894 14.6669 2.52478 15.391C2.14061 16.1152 1.96154 16.9305 2.00689 17.7489C2.05224 18.5674 2.32029 19.3579 2.78211 20.0352C3.24392 20.7124 3.88195 21.2507 4.62731 21.5918C5.37268 21.9329 6.19707 22.064 7.01147 21.9708C7.82588 21.8776 8.59937 21.5638 9.24843 21.0631C9.8975 20.5625 10.3975 19.8941 10.6944 19.13C10.838 19.1857 10.985 19.2325 11.1344 19.27C11.2676 19.2799 11.4013 19.2799 11.5344 19.27C12.1426 19.2668 12.7289 19.043 13.1844 18.64C13.3978 19.4338 13.825 20.1538 14.4194 20.7215C15.0139 21.2892 15.7528 21.6829 16.5556 21.8595C17.3584 22.0361 18.1942 21.989 18.9721 21.7233C19.7499 21.4575 20.4399 20.9834 20.9668 20.3524C21.4937 19.7215 21.8372 18.9581 21.9601 18.1453C22.0829 17.3325 21.9802 16.5017 21.6633 15.7432C21.3464 14.9848 20.8273 14.3279 20.1628 13.8442C19.4982 13.3605 18.7135 13.0685 17.8944 13ZM6.51441 20C6.07813 20.0016 5.64903 19.889 5.26975 19.6735C4.89046 19.4579 4.57419 19.1468 4.35238 18.7711C4.13056 18.3954 4.01091 17.9683 4.00533 17.532C3.99974 17.0958 4.10841 16.6657 4.32054 16.2845C4.53267 15.9032 4.84087 15.5841 5.21451 15.3589C5.58815 15.1337 6.01423 15.0102 6.4504 15.0006C6.88657 14.9911 7.31764 15.0958 7.70078 15.3045C8.08393 15.5131 8.40579 15.8184 8.63441 16.19L9.01441 17.1C9.02476 17.2331 9.02476 17.3669 9.01441 17.5C9.01441 18.163 8.75101 18.7989 8.28217 19.2678C7.81333 19.7366 7.17745 20 6.51441 20ZM11.9444 17.09C11.8913 17.1677 11.8166 17.2281 11.7295 17.2636C11.6423 17.2992 11.5467 17.3084 11.4544 17.29C11.3578 17.2742 11.2677 17.2309 11.195 17.1653C11.1223 17.0997 11.07 17.0145 11.0444 16.92L10.9244 16.61C10.8332 16.1903 10.6816 15.7861 10.4744 15.41L9.57441 13H14.7844L11.9444 17.09ZM17.5144 20C17.02 20 16.5366 19.8534 16.1255 19.5787C15.7144 19.304 15.3939 18.9135 15.2047 18.4567C15.0155 17.9999 14.966 17.4972 15.0624 17.0123C15.1589 16.5273 15.397 16.0819 15.7466 15.7322C16.0963 15.3826 16.5417 15.1445 17.0267 15.048C17.5116 14.9516 18.0143 15.0011 18.4711 15.1903C18.9279 15.3795 19.3184 15.7 19.5931 16.1111C19.8678 16.5222 20.0144 17.0055 20.0144 17.5C20.0144 18.163 19.751 18.7989 19.2822 19.2678C18.8133 19.7366 18.1774 20 17.5144 20ZM4.01441 8H7.01441C7.27962 8 7.53398 7.89464 7.72151 7.70711C7.90905 7.51957 8.01441 7.26522 8.01441 7V3C8.01441 2.73478 7.90905 2.48043 7.72151 2.29289C7.53398 2.10536 7.27962 2 7.01441 2H2.01441V11H4.01441V8ZM4.01441 4H6.01441V6H4.01441V4Z" fill="#0F1621"/>
</svg>
