<svg width="24" height="24" viewBox="0 0 24 24" fill="none" xmlns="http://www.w3.org/2000/svg">
<path d="M7 7H2V17H4V13H7C7.26522 13 7.51957 12.8946 7.70711 12.7071C7.89464 12.5196 8 12.2652 8 12V8C8 7.73478 7.89464 7.48043 7.70711 7.29289C7.51957 7.10536 7.26522 7 7 7ZM6 11H4V9H6V11ZM14.5 11V13H13V14.5H11V13H9.5V11H11V9.5H13V11H14.5ZM20 19V20H4V19H2V20C2 20.5304 2.21071 21.0391 2.58579 21.4142C2.96086 21.7893 3.46957 22 4 22H20C20.5304 22 21.0391 21.7893 21.4142 21.4142C21.7893 21.0391 22 20.5304 22 20V19H20ZM4 5V4H20V5H22V4C22 3.46957 21.7893 2.96086 21.4142 2.58579C21.0391 2.21071 20.5304 2 20 2H4C3.46957 2 2.96086 2.21071 2.58579 2.58579C2.21071 2.96086 2 3.46957 2 4V5H4ZM22 8C22 7.73478 21.8946 7.48043 21.7071 7.29289C21.5196 7.10536 21.2652 7 21 7H16V17H18V13L19 14L20 15V17H22V14.41C21.9989 14.1477 21.8947 13.8963 21.71 13.71L21 13L21.71 12.29C21.8947 12.1037 21.9989 11.8523 22 11.59V8ZM18 9H20V11H18V9Z" fill="#0F1621"/>
</svg>
