<svg width="16" height="16" viewBox="0 0 16 16" fill="none" xmlns="http://www.w3.org/2000/svg">
<path d="M7.6669 4.66668H8.33357C8.7756 4.66668 9.19952 4.49108 9.51208 4.17852C9.82464 3.86596 10.0002 3.44204 10.0002 3.00001C10.0002 2.55798 9.82464 2.13406 9.51208 1.8215C9.19952 1.50894 8.7756 1.33334 8.33357 1.33334H6.6669V6.00001H7.6669V4.66668ZM7.6669 2.33334H8.33357C8.51038 2.33334 8.67995 2.40358 8.80497 2.52861C8.93 2.65363 9.00023 2.8232 9.00023 3.00001C9.00023 3.17682 8.93 3.34639 8.80497 3.47141C8.67995 3.59644 8.51038 3.66668 8.33357 3.66668H7.6669V2.33334ZM12.0002 9.33334C11.8278 9.33423 11.6558 9.35209 11.4869 9.38668L10.6736 7.38668C10.6684 7.37892 10.6651 7.37006 10.6639 7.3608C10.6628 7.35154 10.6638 7.34214 10.6669 7.33334H11.6669V6.33334H10.6669C10.5055 6.32958 10.3457 6.36547 10.2014 6.43785C10.0571 6.51024 9.93283 6.61692 9.83938 6.74854C9.74593 6.88016 9.6862 7.03269 9.66543 7.19277C9.64466 7.35284 9.66348 7.51557 9.72023 7.66668H5.76023L6.00023 7.00001V6.33334H4.00023V7.66668H4.6669L5.1269 9.00001L4.82023 9.47334C4.55627 9.38263 4.27934 9.33535 4.00023 9.33334C3.48795 9.33736 2.98767 9.48886 2.55922 9.76972C2.13077 10.0506 1.79228 10.4489 1.58425 10.9171C1.37622 11.3852 1.30745 11.9034 1.38615 12.4096C1.46486 12.9158 1.68772 13.3887 2.02807 13.7716C2.36842 14.1545 2.81187 14.4312 3.30536 14.5687C3.79886 14.7062 4.32153 14.6987 4.81085 14.547C5.30017 14.3953 5.73544 14.1058 6.06459 13.7133C6.39374 13.3207 6.60285 12.8416 6.6669 12.3333H7.33357L10.3136 9.14668L10.5602 9.76001C10.0214 10.1081 9.62602 10.6388 9.44674 11.2547C9.26745 11.8707 9.31622 12.5307 9.58411 13.1136C9.852 13.6965 10.3211 14.1633 10.9053 14.4284C11.4894 14.6934 12.1496 14.739 12.7647 14.5568C13.3798 14.3745 13.9086 13.9767 14.2541 13.4361C14.5996 12.8956 14.7386 12.2486 14.6457 11.6138C14.5528 10.9791 14.2342 10.3991 13.7483 9.98021C13.2624 9.56134 12.6418 9.33168 12.0002 9.33334ZM4.00023 13.6667C3.55821 13.6667 3.13428 13.4911 2.82172 13.1785C2.50916 12.866 2.33357 12.442 2.33357 12C2.33357 11.558 2.50916 11.1341 2.82172 10.8215C3.13428 10.5089 3.55821 10.3333 4.00023 10.3333C4.0979 10.3268 4.1959 10.3268 4.29357 10.3333L3.68023 11.3333C3.61566 11.434 3.57935 11.5501 3.5751 11.6697C3.57085 11.7892 3.59882 11.9076 3.65608 12.0126C3.71334 12.1176 3.79778 12.2052 3.90056 12.2663C4.00333 12.3275 4.12066 12.3598 4.24023 12.36H5.63357C5.55138 12.7315 5.34453 13.0638 5.0474 13.3015C4.75027 13.5392 4.38075 13.668 4.00023 13.6667ZM4.85357 11.3333L5.57357 10.22L5.95357 11.3333H4.85357ZM6.97357 11.24L6.10023 8.66668H9.3869L6.97357 11.24ZM12.0002 13.6667C11.7814 13.6667 11.5646 13.6236 11.3624 13.5398C11.1602 13.4561 10.9765 13.3333 10.8217 13.1785C10.667 13.0238 10.5442 12.84 10.4604 12.6378C10.3767 12.4356 10.3336 12.2189 10.3336 12C10.3339 11.7544 10.3891 11.512 10.4952 11.2905C10.6014 11.0691 10.7557 10.8741 10.9469 10.72L11.6136 12.3333H12.6669L11.8669 10.3333H11.9936C12.4356 10.3333 12.8595 10.5089 13.1721 10.8215C13.4846 11.1341 13.6602 11.558 13.6602 12C13.6602 12.442 13.4846 12.866 13.1721 13.1785C12.8595 13.4911 12.4356 13.6667 11.9936 13.6667H12.0002Z" fill="#0F1621"/>
</svg>
