<svg width="24" height="24" viewBox="0 0 24 24" fill="none" xmlns="http://www.w3.org/2000/svg">
<path d="M17.8798 13L17.2698 8.5C17.1526 7.79195 16.7855 7.14937 16.2351 6.68884C15.6846 6.22832 14.9874 5.98037 14.2698 5.99H11.9998V8H14.3098C14.5451 7.99572 14.7744 8.07461 14.9574 8.22277C15.1403 8.37094 15.2651 8.57888 15.3098 8.81L15.5798 11H9.99976V10H5.99976V11H6.99976V13H6.49976C5.68004 12.9974 4.87518 13.2187 4.17207 13.6401C3.46895 14.0615 2.89429 14.6669 2.51013 15.391C2.12597 16.1152 1.94689 16.9305 1.99224 17.7489C2.0376 18.5674 2.30565 19.3579 2.76746 20.0352C3.22927 20.7124 3.8673 21.2507 4.61267 21.5918C5.35803 21.9329 6.18242 22.064 6.99682 21.9708C7.81123 21.8776 8.58472 21.5638 9.23378 21.0631C9.88285 20.5625 10.3828 19.8941 10.6798 19.13C10.8234 19.1857 10.9703 19.2325 11.1198 19.27C11.2529 19.2799 11.3866 19.2799 11.5198 19.27C12.1279 19.2668 12.7142 19.043 13.1698 18.64C13.3831 19.4338 13.8103 20.1538 14.4048 20.7215C14.9993 21.2892 15.7381 21.6829 16.5409 21.8595C17.3437 22.0361 18.1796 21.989 18.9574 21.7233C19.7353 21.4575 20.4252 20.9834 20.9521 20.3524C21.479 19.7215 21.8226 18.9581 21.9454 18.1453C22.0682 17.3325 21.9656 16.5017 21.6487 15.7432C21.3317 14.9848 20.8127 14.3279 20.1481 13.8442C19.4835 13.3605 18.6989 13.0685 17.8798 13ZM6.49976 20C6.06349 20.0016 5.63439 19.889 5.2551 19.6735C4.87581 19.4579 4.55955 19.1468 4.33773 18.7711C4.11591 18.3954 3.99626 17.9683 3.99068 17.532C3.98509 17.0958 4.09376 16.6657 4.30589 16.2845C4.51802 15.9032 4.82622 15.5841 5.19986 15.3589C5.5735 15.1337 5.99958 15.0102 6.43575 15.0006C6.87192 14.9911 7.30299 15.0958 7.68613 15.3045C8.06928 15.5131 8.39115 15.8184 8.61976 16.19L8.99976 17.1C9.01011 17.2331 9.01011 17.3669 8.99976 17.5C8.99976 18.163 8.73636 18.7989 8.26752 19.2678C7.79868 19.7366 7.1628 20 6.49976 20ZM11.9298 17.09C11.8767 17.1677 11.8019 17.2281 11.7148 17.2636C11.6277 17.2992 11.532 17.3084 11.4398 17.29C11.3431 17.2742 11.253 17.2309 11.1803 17.1653C11.1076 17.0997 11.0554 17.0145 11.0298 16.92L10.9098 16.61C10.8186 16.1903 10.667 15.7861 10.4598 15.41L9.55976 13H14.7698L11.9298 17.09ZM17.4998 20C17.0053 20 16.522 19.8534 16.1108 19.5787C15.6997 19.304 15.3793 18.9135 15.1901 18.4567C15.0008 17.9999 14.9513 17.4972 15.0478 17.0123C15.1443 16.5273 15.3824 16.0819 15.732 15.7322C16.0816 15.3826 16.5271 15.1445 17.012 15.048C17.497 14.9516 17.9996 15.0011 18.4565 15.1903C18.9133 15.3795 19.3037 15.7 19.5784 16.1111C19.8531 16.5222 19.9998 17.0055 19.9998 17.5C19.9998 18.163 19.7364 18.7989 19.2675 19.2678C18.7987 19.7366 18.1628 20 17.4998 20ZM3.99976 8H6.99976C7.26497 8 7.51933 7.89464 7.70686 7.70711C7.8944 7.51957 7.99976 7.26522 7.99976 7V3C7.99976 2.73478 7.8944 2.48043 7.70686 2.29289C7.51933 2.10536 7.26497 2 6.99976 2H1.99976V11H3.99976V8ZM3.99976 4H5.99976V6H3.99976V4Z" fill="#0F1621"/>
</svg>
