<svg width="16" height="16" viewBox="0 0 16 16" fill="none" xmlns="http://www.w3.org/2000/svg">
<path d="M10.55 7H9V6H11.7L12.45 8H14V9H12.7534L13.1683 10.0903C14.2245 10.3826 15 11.3507 15 12.5C15 13.8807 13.8807 15 12.5 15C11.1193 15 10 13.8807 10 12.5C10 11.4235 10.6804 10.5059 11.6346 10.1538L11.25 9C11.25 9 10 9 9 10.5C8 12 8.5 13.5 8.5 13.5H6.49217L5.98857 12.7406C5.86751 14.0084 4.79955 15 3.5 15C2.11929 15 1 13.8807 1 12.5C1 11.1193 2.11929 10 3.5 10C3.75992 10 4.01057 10.0397 4.24624 10.1133L3.5 9H1V7.75H4.25L5 9H7.5L8.5 8H10.9L10.55 7ZM4.5 12.5C4.5 11.9477 4.05228 11.5 3.5 11.5C2.94772 11.5 2.5 11.9477 2.5 12.5C2.5 13.0523 2.94772 13.5 3.5 13.5C4.05228 13.5 4.5 13.0523 4.5 12.5ZM13.5 12.5C13.5 11.9477 13.0523 11.5 12.5 11.5C11.9477 11.5 11.5 11.9477 11.5 12.5C11.5 13.0523 11.9477 13.5 12.5 13.5C13.0523 13.5 13.5 13.0523 13.5 12.5Z" fill="#0E1520"/>
<path d="M7.25 5C7.61988 5 8.81369 5 9.50069 5C9.77683 5 10 4.77614 10 4.5V1.5C10 1.22386 9.77736 1 9.50122 1C8.53825 1 6.47584 1 6 1L6.0001 7H7.25V5ZM7.25 2.25H8.75V3.75H7.25V2.25Z" fill="#0E1520"/>
</svg>
