<svg width="16" height="16" viewBox="0 0 16 16" fill="none" xmlns="http://www.w3.org/2000/svg">
<path d="M14.6668 5.61331L8.00016 3.22665L1.3335 5.61331V3.70665L8.00016 1.33331L14.6668 3.70665V5.61331ZM11.5735 9.04665C11.5735 11.2133 10.0402 12.22 7.88683 12.22H6.8735V14.6666H4.66683V5.99998H7.68683C10.0935 5.99998 11.5735 6.99998 11.5735 9.04665ZM9.30016 9.04665C9.30016 8.04665 8.74683 7.57331 7.6535 7.57331H6.8735V10.6666H7.70016C7.92273 10.7094 8.15236 10.6972 8.36916 10.6312C8.58595 10.5651 8.78337 10.4472 8.94427 10.2876C9.10519 10.128 9.22474 9.93157 9.29256 9.71533C9.36038 9.49908 9.37444 9.26955 9.3335 9.04665H9.30016Z" fill="#0F1621"/>
</svg>
