<svg width="24" height="24" viewBox="0 0 24 24" fill="none" xmlns="http://www.w3.org/2000/svg">
<path d="M11 8H14C14.2652 8 14.5196 7.89464 14.7071 7.70711C14.8946 7.51957 15 7.26522 15 7V3C15 2.73478 14.8946 2.48043 14.7071 2.29289C14.5196 2.10536 14.2652 2 14 2H9V11H11V8ZM11 4H13V6H11V4Z" fill="#0E1520"/>
<path d="M17 9H13V11H15.5L15.9459 12H12.0803L10 14H7.5L6 12H2V14H5L5.75697 15.0093C5.67211 15.0031 5.58642 15 5.5 15C3.567 15 2 16.567 2 18.5C2 20.433 3.567 22 5.5 22C7.18219 22 8.5872 20.8133 8.92348 19.2313L9.5 20H12.5803L16 14H16.6126L17.0504 15.3134C15.8408 15.8645 15 17.0841 15 18.5C15 20.433 16.567 22 18.5 22C20.433 22 22 20.433 22 18.5C22 16.7609 20.7316 15.3181 19.0695 15.0461L18.7208 14H21V12H18.0541L17 9ZM5.5 20C4.67157 20 4 19.3284 4 18.5C4 17.6716 4.67157 17 5.5 17C6.32843 17 7 17.6716 7 18.5C7 19.3284 6.32843 20 5.5 20ZM18.5 20C17.6716 20 17 19.3284 17 18.5C17 17.6716 17.6716 17 18.5 17C19.3284 17 20 17.6716 20 18.5C20 19.3284 19.3284 20 18.5 20ZM10.5 18.25L9 16H11L13 14H14L11.5 18.25H10.5Z" fill="#0E1520"/>
</svg>
