<svg width="24" height="24" viewBox="0 0 24 24" fill="none" xmlns="http://www.w3.org/2000/svg">
<path d="M11 8H14C14.2652 8 14.5196 7.89464 14.7071 7.70711C14.8946 7.51957 15 7.26522 15 7V3C15 2.73478 14.8946 2.48043 14.7071 2.29289C14.5196 2.10536 14.2652 2 14 2H9V11H11V8ZM11 4H13V6H11V4Z" fill="#0E1520"/>
<path d="M13 9H17L18.0541 12H21V14H18.7208L19.0695 15.0461C20.7316 15.3181 22 16.7609 22 18.5C22 20.433 20.433 22 18.5 22C16.567 22 15 20.433 15 18.5C15 17.0841 15.8408 15.8645 17.0504 15.3134L16.6126 14H16L12.5803 20H9.5L8.92348 19.2313C8.5872 20.8133 7.18219 22 5.5 22C3.567 22 2 20.433 2 18.5C2 16.567 3.567 15 5.5 15C5.58642 15 5.67211 15.0031 5.75697 15.0093L5 14H2V12H6L7.5 14H10L12.0803 12H15.9459L15.5 11H13V9ZM7 18.5C7 17.6716 6.32843 17 5.5 17C4.67157 17 4 17.6716 4 18.5C4 19.3284 4.67157 20 5.5 20C6.32843 20 7 19.3284 7 18.5ZM20 18.5C20 17.6716 19.3284 17 18.5 17C17.6716 17 17 17.6716 17 18.5C17 19.3284 17.6716 20 18.5 20C19.3284 20 20 19.3284 20 18.5Z" fill="#0E1520"/>
</svg>
