<svg width="24" height="24" viewBox="0 0 24 24" fill="none" xmlns="http://www.w3.org/2000/svg">
<path d="M11.9995 11.9246C13.2187 11.9246 14.5435 12.6351 15.5837 14.6523C15.975 15.4108 16.7638 15.8892 17.5344 16.2673C19.769 17.3639 19.8449 21 16.5412 21C14.5961 20.9999 14.6858 19.9937 12.075 19.9936C10.1298 19.9936 9.55305 20.9999 7.6079 21C4.31297 21 4.27239 17.3835 6.54705 16.2762C7.34856 15.8861 8.1577 15.3686 8.53454 14.5667C9.45162 12.615 10.6743 11.9247 11.9995 11.9246Z" fill="#0F1621"/>
<path d="M2.76992 10.2338C3.86331 9.15087 5.71717 9.23067 6.90995 10.412C8.10227 11.5933 8.18291 13.4287 7.0899 14.5115C5.99652 15.5945 4.14265 15.5147 2.94988 14.3333C1.75732 13.152 1.67683 11.3167 2.76992 10.2338Z" fill="#0F1621"/>
<path d="M17.091 10.412C18.2838 9.23073 20.1366 9.15089 21.23 10.2338C22.3232 11.3167 22.2427 13.152 21.0501 14.3333C19.8573 15.5146 18.0044 15.5943 16.911 14.5115C15.8176 13.4286 15.8982 11.5934 17.091 10.412Z" fill="#0F1621"/>
<path d="M8.45301 3.00481C8.4739 3.00602 8.4948 3.00707 8.51565 3.00875C8.51995 3.0091 8.52427 3.00937 8.52857 3.00974L8.65186 3.02352C8.65683 3.02418 8.6618 3.02482 8.66677 3.02549C8.6827 3.02767 8.69861 3.02994 8.7145 3.03239C8.75174 3.03812 8.78883 3.04485 8.82585 3.05208C8.83784 3.05443 8.84968 3.05746 8.86164 3.05996C8.89153 3.0662 8.92142 3.07246 8.95113 3.07966C9.03923 3.10101 9.12635 3.12687 9.21261 3.15647C9.22123 3.15942 9.22987 3.16229 9.23846 3.16533C9.32341 3.19533 9.40734 3.22905 9.49 3.26676C9.49862 3.27069 9.50727 3.27456 9.51585 3.27857C9.5881 3.31232 9.65848 3.35042 9.72862 3.38985C9.7819 3.41979 9.83379 3.45226 9.88571 3.48537C9.92188 3.50844 9.95864 3.53071 9.99408 3.55529C10.0426 3.5889 10.0892 3.62528 10.1363 3.66164C10.1717 3.68903 10.2081 3.71544 10.2426 3.74436C10.2896 3.78363 10.3346 3.82544 10.3799 3.86745C10.4151 3.90021 10.451 3.93252 10.4852 3.96691C10.5244 4.00633 10.5609 4.04851 10.5986 4.09C10.6332 4.12808 10.6688 4.16543 10.702 4.20522C10.7392 4.24977 10.774 4.29645 10.8094 4.34308C10.841 4.38475 10.8737 4.42585 10.9038 4.46913C10.9383 4.51861 10.9698 4.57024 11.0022 4.62176C11.029 4.66428 11.0575 4.70592 11.0828 4.74978C11.1142 4.80434 11.1412 4.86159 11.1703 4.91817C11.2979 5.16648 11.4058 5.43238 11.4825 5.71581L11.5262 5.8911C11.5268 5.89353 11.5267 5.89654 11.5272 5.89897C11.5502 6.00226 11.5682 6.10545 11.5829 6.20818C11.5843 6.21807 11.5865 6.22784 11.5879 6.23772C11.5999 6.32699 11.6057 6.41612 11.6117 6.50459C11.615 6.55336 11.6172 6.60187 11.6187 6.65033C11.6207 6.71538 11.6219 6.77996 11.6207 6.84433C11.6197 6.89617 11.6168 6.9476 11.6137 6.99893C11.6104 7.05444 11.6064 7.10954 11.6008 7.16437C11.5949 7.22163 11.5873 7.2783 11.5789 7.33473C11.5714 7.38461 11.5644 7.43427 11.555 7.48342C11.5444 7.53887 11.5313 7.59344 11.5183 7.64788C11.5067 7.69612 11.4959 7.74427 11.4825 7.79165C11.4671 7.84589 11.4495 7.89915 11.4318 7.95216C11.4143 8.00434 11.3959 8.05587 11.3761 8.10677C11.3573 8.15518 11.3363 8.20238 11.3154 8.24955C11.2948 8.29619 11.2754 8.34306 11.2528 8.3884C11.226 8.44228 11.1958 8.49403 11.1663 8.54596C11.1437 8.58571 11.1218 8.62559 11.0977 8.66413C11.0869 8.68134 11.076 8.69837 11.0649 8.71534C11.0193 8.78516 10.9714 8.85283 10.9207 8.91819C10.9128 8.92842 10.9049 8.93861 10.8969 8.94872C10.8419 9.0178 10.7843 9.08416 10.7239 9.14764C10.7086 9.1637 10.6938 9.1802 10.6781 9.19589C10.6621 9.21193 10.6458 9.22752 10.6294 9.24316C10.6066 9.26497 10.5833 9.28616 10.5598 9.30717C10.5451 9.32028 10.53 9.33278 10.5151 9.34557C10.4563 9.39596 10.3959 9.44407 10.3331 9.48934C10.2749 9.53137 10.2157 9.57213 10.1542 9.60948C10.1291 9.62468 10.1032 9.63841 10.0776 9.65281C10.0584 9.66363 10.0395 9.67495 10.0199 9.68531C10.0113 9.68988 10.0028 9.69461 9.99408 9.69909C9.90678 9.7442 9.81661 9.78466 9.72365 9.82022C9.63629 9.85363 9.54631 9.88342 9.45421 9.90786L9.3011 9.94331C9.2154 9.96074 9.12944 9.97284 9.04359 9.98172C9.03197 9.98292 9.02041 9.98461 9.00879 9.98565C8.92648 9.99308 8.84428 9.99568 8.76222 9.9955C8.7463 9.99547 8.7304 9.99582 8.7145 9.9955C8.62762 9.99378 8.54113 9.98772 8.455 9.97778C8.44671 9.97682 8.43842 9.97585 8.43014 9.97482C8.34506 9.96422 8.26053 9.94985 8.17661 9.93149C8.16429 9.9288 8.15212 9.92549 8.13982 9.92263C8.05693 9.90335 7.97457 9.88126 7.89325 9.85468C7.88459 9.85186 7.87604 9.84873 7.8674 9.84582C7.78344 9.81753 7.70066 9.78512 7.61884 9.74932C7.61287 9.7467 7.6069 9.74409 7.60094 9.74144C7.51752 9.70431 7.4351 9.66398 7.35437 9.61933C7.17896 9.52233 7.01059 9.40788 6.85129 9.27763C6.80478 9.23959 6.76096 9.19819 6.71607 9.15749C6.6838 9.12823 6.65001 9.10044 6.61863 9.06984C6.58831 9.04028 6.56059 9.00807 6.53114 8.97728C6.48409 8.92808 6.43665 8.87886 6.39195 8.82661C6.36974 8.80066 6.34892 8.77353 6.32732 8.74685C6.28198 8.69083 6.23762 8.63367 6.19509 8.57452C6.1701 8.53976 6.14648 8.50398 6.12251 8.46817C6.08514 8.41235 6.04792 8.3561 6.01314 8.29781C5.99214 8.26261 5.97251 8.22654 5.95249 8.19047C5.91621 8.12509 5.88101 8.05873 5.8481 7.99057C5.81529 7.92262 5.78194 7.85436 5.75265 7.78377C5.7466 7.76919 5.74164 7.75415 5.73575 7.73946C5.6766 7.59205 5.62435 7.43943 5.58164 7.28155C5.07231 5.39885 5.98062 3.52199 7.60989 3.0895C7.74786 3.05289 7.88683 3.02876 8.02549 3.01466C8.03779 3.01341 8.04997 3.01082 8.06227 3.00974C8.19285 2.99829 8.32333 2.99732 8.45301 3.00481Z" fill="#0F1621"/>
<path d="M15.3839 3.01959C15.5666 2.99806 15.7515 2.99357 15.9367 3.00974C15.949 3.01081 15.9611 3.01341 15.9735 3.01466C16.1124 3.02875 16.2518 3.05281 16.39 3.0895C18.0193 3.52203 18.9266 5.39887 18.4173 7.28155C18.3746 7.43947 18.3224 7.59202 18.2632 7.73946C18.2574 7.75387 18.2522 7.76848 18.2463 7.78279C18.2142 7.86029 18.1773 7.93497 18.1409 8.00928C18.1139 8.06444 18.0856 8.11844 18.0564 8.17176C18.0332 8.21404 18.0113 8.25671 17.9868 8.29781C17.9519 8.35626 17.9139 8.41221 17.8764 8.46817C17.8525 8.50398 17.8289 8.53975 17.8039 8.57452C17.7654 8.62806 17.7244 8.67914 17.6836 8.73011C17.6556 8.76504 17.629 8.8008 17.6 8.83449C17.5662 8.87376 17.5308 8.91118 17.4956 8.94872C17.4574 8.98962 17.4201 9.03105 17.3803 9.06984C17.3526 9.09682 17.3232 9.1217 17.2948 9.14764C17.244 9.19411 17.1936 9.24049 17.1407 9.28353C16.9834 9.41139 16.8174 9.52378 16.6446 9.61933C16.5638 9.66397 16.4814 9.70432 16.398 9.74144C16.392 9.74409 16.3861 9.74671 16.3801 9.74932C16.2992 9.78468 16.2175 9.81681 16.1345 9.84484C16.1243 9.84829 16.114 9.85134 16.1037 9.85468C16.0243 9.88057 15.944 9.90273 15.8631 9.92165C15.8482 9.92512 15.8333 9.92826 15.8184 9.93149C15.7337 9.94986 15.6487 9.96533 15.5628 9.97581C15.5595 9.97621 15.5562 9.9764 15.5529 9.97679C15.3668 9.99883 15.1787 10.0027 14.9902 9.98565C14.9785 9.9846 14.967 9.98292 14.9554 9.98172C14.8695 9.97281 14.7835 9.96077 14.6978 9.94331L14.5457 9.90786L14.3996 9.86453C14.3579 9.8509 14.3169 9.83576 14.2763 9.82022C14.2295 9.80234 14.1834 9.78343 14.1381 9.7631C14.1298 9.7594 14.1214 9.75605 14.1132 9.75227C14.0769 9.73551 14.0413 9.71739 14.0059 9.69909C13.9969 9.69448 13.9879 9.69002 13.979 9.68531C13.9595 9.67495 13.9406 9.66363 13.9213 9.65281C13.8954 9.63818 13.8692 9.62395 13.8438 9.6085C13.8287 9.5993 13.814 9.58943 13.799 9.57994C13.772 9.56277 13.7449 9.54584 13.7185 9.52775C13.7054 9.51877 13.6927 9.50938 13.6797 9.50018C13.6117 9.45174 13.5463 9.39998 13.4829 9.34557C13.4651 9.33035 13.4476 9.31496 13.4302 9.29929C13.4097 9.28084 13.3895 9.26222 13.3695 9.24316C13.3534 9.22768 13.3376 9.21176 13.3218 9.19589C13.306 9.18004 13.2905 9.16387 13.2751 9.14764C13.2146 9.08415 13.157 9.0178 13.1021 8.94872C13.094 8.93861 13.0861 8.92842 13.0782 8.91819C13.0242 8.8484 12.9724 8.77641 12.9241 8.70155C12.9184 8.69273 12.9128 8.68385 12.9072 8.67496C12.8782 8.62897 12.8525 8.58088 12.8257 8.53316C12.7989 8.48544 12.7717 8.43776 12.7471 8.3884C12.7245 8.34294 12.7042 8.29632 12.6835 8.24955C12.6627 8.20239 12.6417 8.15517 12.6229 8.10677C12.6031 8.05597 12.5856 8.00423 12.5682 7.95216C12.5504 7.89914 12.5328 7.84589 12.5175 7.79165C12.5059 7.75098 12.4958 7.70987 12.4857 7.66856C12.4703 7.60614 12.456 7.54325 12.4439 7.47949C12.4355 7.43517 12.4289 7.39046 12.422 7.34556C12.4129 7.28558 12.4044 7.2253 12.3982 7.16437C12.3925 7.10955 12.3885 7.05443 12.3852 6.99893C12.3822 6.94762 12.3793 6.89615 12.3783 6.84433C12.377 6.77997 12.3783 6.71536 12.3803 6.65033C12.3817 6.60188 12.3839 6.55335 12.3872 6.50459C12.3932 6.4161 12.4 6.32701 12.4121 6.23772C12.4134 6.22789 12.4147 6.21803 12.4161 6.20818C12.4394 6.04474 12.473 5.88031 12.5175 5.71581C12.5975 5.42006 12.7103 5.14304 12.8456 4.88567C12.8684 4.84226 12.889 4.79789 12.9132 4.75569C12.9435 4.70284 12.9782 4.65296 13.0106 4.60207C13.039 4.55759 13.0652 4.51207 13.0951 4.46913C13.1252 4.42586 13.158 4.38474 13.1896 4.34308C13.225 4.29646 13.2598 4.24976 13.297 4.20522C13.3302 4.16543 13.3658 4.12808 13.4004 4.09C13.438 4.04851 13.4745 4.00632 13.5137 3.96691C13.557 3.92333 13.6028 3.88281 13.6479 3.84185C13.6795 3.81316 13.71 3.78355 13.7424 3.75617C13.7867 3.71869 13.8328 3.6838 13.8786 3.64884C13.9206 3.61675 13.9627 3.58519 14.0059 3.55529C14.043 3.52951 14.0812 3.50555 14.1192 3.48143C14.1673 3.45091 14.2151 3.42061 14.2644 3.3928C14.3363 3.35213 14.4089 3.31326 14.4831 3.27857C14.4917 3.27456 14.5003 3.27069 14.5089 3.26676C14.6837 3.18701 14.864 3.12427 15.0478 3.07966C15.0647 3.07556 15.0816 3.07162 15.0985 3.06784C15.1303 3.06074 15.1621 3.05414 15.194 3.04814C15.2082 3.04548 15.2225 3.0437 15.2367 3.04125C15.2695 3.03561 15.3022 3.02996 15.3352 3.02549C15.3514 3.0233 15.3676 3.0215 15.3839 3.01959Z" fill="#0F1621"/>
</svg>
