<svg width="24" height="24" viewBox="0 0 24 24" fill="none" xmlns="http://www.w3.org/2000/svg">
<path d="M12.0004 11.4352C13.2427 11.4353 14.8279 12.1258 15.6201 14.0781C15.9427 14.8731 16.6356 15.4945 17.2727 16.0662L17.2756 16.0691C18.9131 17.5386 18.4884 20.9997 16.001 21L15.6377 20.9892C13.876 20.8787 12.9379 19.9934 12.0004 19.9932C11.0003 19.9932 10.4998 20.9999 7.99986 21L7.77229 20.9902C5.56119 20.7921 5.16245 17.702 6.57681 16.2127L6.72527 16.0691L6.7282 16.0662C7.32534 15.5304 7.97212 14.9509 8.31631 14.2256L8.38078 14.0781C9.17311 12.1258 10.7582 11.4352 12.0004 11.4352ZM12.0004 13.4488C11.5211 13.4488 10.7866 13.6853 10.3215 14.6395L10.2326 14.8401C9.83535 15.8189 9.1238 16.5842 8.55854 17.1162L8.05944 17.5695L8.05554 17.5725C7.96973 17.6495 7.86924 17.7927 7.8055 18.0159C7.74121 18.2412 7.7346 18.483 7.77522 18.6835C7.79579 18.785 7.82348 18.8555 7.8475 18.9018L7.89731 18.9745C7.90054 18.9757 7.9072 18.9785 7.91782 18.9804C7.93313 18.9832 7.96021 18.9863 7.99986 18.9863C8.9338 18.9863 9.40852 18.8098 9.75011 18.657C9.85778 18.6088 9.95727 18.5604 10.089 18.4967C10.2084 18.439 10.3698 18.3613 10.5403 18.2902C10.9026 18.1393 11.3932 17.9795 12.0004 17.9795L12.2134 17.9864C12.6999 18.016 13.1195 18.1407 13.4323 18.2519C13.7443 18.3628 14.1595 18.5422 14.3689 18.6265C14.8852 18.8343 15.364 18.9863 16.001 18.9863C16.0408 18.9863 16.0678 18.9833 16.083 18.9804C16.0938 18.9784 16.1005 18.9756 16.1035 18.9745L16.1534 18.9018C16.1774 18.8555 16.2051 18.7848 16.2256 18.6835C16.2662 18.483 16.2596 18.2411 16.1954 18.0159C16.1476 17.8487 16.0791 17.7264 16.0117 17.6433L15.9453 17.5725L15.9414 17.5695C15.4198 17.1015 14.4316 16.2588 13.8737 15.08L13.7683 14.8401C13.3131 13.7183 12.5117 13.4489 12.0004 13.4488Z" fill="#0F1621"/>
<path d="M2.85851 10.5896C3.87295 9.67547 5.46495 9.71332 6.59537 10.6574L6.82294 10.8659C7.99422 12.0454 8.07344 13.8779 6.99972 14.959L6.89619 15.0574C5.81176 16.0343 4.06776 15.9237 2.93274 14.7811L2.72666 14.552C1.75658 13.3748 1.74928 11.7016 2.75596 10.6879L2.85851 10.5896ZM5.4077 12.2896C4.89881 11.7774 4.34983 11.9308 4.17022 12.1116C3.99074 12.2927 3.83845 12.8453 4.347 13.3574C4.85571 13.8695 5.40462 13.716 5.58448 13.5353C5.76408 13.3545 5.91663 12.8019 5.4077 12.2896Z" fill="#0F1621"/>
<path d="M17.4035 10.6574C18.534 9.71314 20.1269 9.67536 21.1414 10.5896L21.2439 10.6879C22.2507 11.7016 22.2435 13.3758 21.2732 14.553L21.0671 14.7811C19.9321 15.9237 18.1881 16.0344 17.1037 15.0574L17.0011 14.959C15.9271 13.8778 16.0062 12.0454 17.1779 10.8659L17.4035 10.6574ZM19.8297 12.1116C19.6501 11.9308 19.1011 11.7774 18.5922 12.2896C18.0833 12.8019 18.2358 13.3545 18.4154 13.5353C18.5952 13.7161 19.1441 13.8695 19.6529 13.3574C20.1615 12.8452 20.0092 12.2926 19.8297 12.1116Z" fill="#0F1621"/>
<path d="M7.55253 3.05904C9.23742 2.70929 10.981 3.94646 11.5004 5.89762L11.5463 6.0864C11.9749 8.0359 11.0108 9.93886 9.33111 10.392L9.168 10.4303C7.53761 10.7687 5.85271 9.62103 5.27487 7.77853L5.22017 7.59172C4.6841 5.57762 5.65549 3.56515 7.38943 3.09738L7.55253 3.05904ZM9.56747 6.41873C9.24519 5.2084 8.32366 4.92985 7.90708 5.04221C7.49047 5.15466 6.8309 5.86016 7.15306 7.07061C7.47536 8.28086 8.39689 8.55851 8.81346 8.44614C9.23008 8.33355 9.88962 7.62904 9.56747 6.41873Z" fill="#0F1621"/>
<path d="M12.4995 5.89762C13.0189 3.94637 14.7625 2.70936 16.4473 3.05904L16.6105 3.09738C18.3444 3.56511 19.3158 5.57745 18.7797 7.59172L18.726 7.77853C18.1481 9.62128 16.4624 10.7688 14.8319 10.4303L14.6688 10.392C12.9891 9.9388 12.025 8.03597 12.4536 6.0864L12.4995 5.89762ZM16.0928 5.04221C15.6762 4.92985 14.7547 5.2083 14.4324 6.41873C14.1103 7.62902 14.7698 8.33344 15.1864 8.44614C15.603 8.55852 16.5245 8.28093 16.8468 7.07061C17.169 5.86 16.5095 5.1546 16.0928 5.04221Z" fill="#0F1621"/>
</svg>
