<svg width="16" height="16" viewBox="0 0 16 16" fill="none" xmlns="http://www.w3.org/2000/svg">
<path d="M4.08773 10.3835C2.5169 11.3677 2.82389 14 4.46587 14C6.51213 14 6.63589 13.5023 8.00008 13.5023C9.36424 13.5023 9.48796 14 11.5342 14C13.1762 14 13.4832 11.3677 11.9124 10.3835C11.1787 9.92382 10.3954 9.44094 9.97263 8.69212C9.56211 7.96494 9.00202 7.5293 8.00004 7.5293C6.99808 7.5293 6.438 7.96494 6.02748 8.69213C5.60475 9.44094 4.82138 9.92382 4.08773 10.3835Z" fill="#0F1621"/>
<path d="M4.05513 4.64342C3.73828 3.47765 4.29254 2.31839 5.29317 2.05406C6.29381 1.78973 7.36192 2.52042 7.67877 3.68619C7.99561 4.85196 7.44128 6.01127 6.44064 6.2756C5.44001 6.53993 4.37197 5.80919 4.05513 4.64342Z" fill="#0F1621"/>
<path d="M11.945 4.64372C12.2618 3.47788 11.7075 2.31846 10.7069 2.05413C9.70625 1.7898 8.63819 2.52065 8.32132 3.68649C8.00446 4.85233 8.55876 6.01176 9.5594 6.27609C10.56 6.54042 11.6281 5.80956 11.945 4.64372Z" fill="#0F1621"/>
<path d="M14.3223 8.6513C15.1214 7.86349 15.2293 6.69261 14.5634 6.0361C13.8975 5.37958 12.7098 5.48603 11.9107 6.27384C11.1116 7.06165 11.0036 8.23253 11.6696 8.88904C12.3355 9.54556 13.5232 9.43911 14.3223 8.6513Z" fill="#0F1621"/>
<path d="M1.67774 8.65127C0.878643 7.86346 0.770666 6.69259 1.43659 6.03607C2.10252 5.37955 3.29018 5.48601 4.08928 6.27382C4.88838 7.06162 4.99636 8.2325 4.33043 8.88901C3.6645 9.54553 2.47685 9.43908 1.67774 8.65127Z" fill="#0F1621"/>
</svg>
