<svg width="16" height="16" viewBox="0 0 16 16" fill="none" xmlns="http://www.w3.org/2000/svg">
<path d="M14.6668 5.33331L12.0002 2.66665L11.3335 3.39331L12.6668 4.72665V7.99998L13.3335 8.66665V12C13.3335 12.3536 13.193 12.6927 12.943 12.9428C12.6929 13.1928 12.3538 13.3333 12.0002 13.3333H9.3335V2.66665C9.34801 2.3293 9.22863 1.99988 9.00137 1.75014C8.77411 1.50041 8.45738 1.35059 8.12016 1.33331H3.88016C3.54294 1.35059 3.22621 1.50041 2.99895 1.75014C2.77169 1.99988 2.65232 2.3293 2.66683 2.66665V13.3333H1.3335V14.6666H12.0002C12.7074 14.6666 13.3857 14.3857 13.8858 13.8856C14.3859 13.3855 14.6668 12.7072 14.6668 12V5.33331ZM4.00016 2.66665H8.00016V7.33331H4.00016V2.66665Z" fill="#0F1621"/>
</svg>
