<svg width="16" height="16" viewBox="0 0 16 16" fill="none" xmlns="http://www.w3.org/2000/svg">
<path d="M11.3334 3.33327H4.66669V2.47327C4.6658 2.32332 4.69469 2.17468 4.75166 2.03597C4.80864 1.89726 4.89258 1.77123 4.99861 1.6652C5.10465 1.55916 5.23067 1.47522 5.36938 1.41825C5.50809 1.36127 5.65673 1.33239 5.80669 1.33327H10.1934C10.3433 1.33239 10.4919 1.36127 10.6307 1.41825C10.7694 1.47522 10.8954 1.55916 11.0014 1.6652C11.1075 1.77123 11.1914 1.89726 11.2484 2.03597C11.3054 2.17468 11.3342 2.32332 11.3334 2.47327V3.33327ZM13.3334 5.99994V14.6666H2.66669V5.99994C2.66669 5.64632 2.80716 5.30718 3.05721 5.05713C3.30726 4.80708 3.6464 4.6666 4.00002 4.6666H12C12.3536 4.6666 12.6928 4.80708 12.9428 5.05713C13.1929 5.30718 13.3334 5.64632 13.3334 5.99994ZM11.6667 8.6666H9.00002V5.99994H7.00002V8.6666H4.33335V10.6666H7.00002V13.3333H9.00002V10.6666H11.6667V8.6666Z" fill="#0F1621"/>
</svg>
