<svg width="16" height="16" viewBox="0 0 16 16" fill="none" xmlns="http://www.w3.org/2000/svg">
<path d="M4.66675 3.33327H11.3334V2.47327C11.3343 2.32332 11.3054 2.17468 11.2484 2.03597C11.1915 1.89726 11.1075 1.77123 11.0015 1.6652C10.8955 1.55916 10.7694 1.47522 10.6307 1.41825C10.492 1.36127 10.3434 1.33239 10.1934 1.33327H5.80675C5.65679 1.33239 5.50816 1.36127 5.36944 1.41825C5.23073 1.47522 5.10471 1.55916 4.99867 1.6652C4.89264 1.77123 4.8087 1.89726 4.75172 2.03597C4.69475 2.17468 4.66586 2.32332 4.66675 2.47327V3.33327Z" fill="#0E1520"/>
<path d="M13.3334 14.6666V5.99994C13.3334 5.64632 13.1929 5.30718 12.9429 5.05713C12.6928 4.80708 12.3537 4.6666 12.0001 4.6666H4.00008C3.64646 4.6666 3.30732 4.80708 3.05727 5.05713C2.80722 5.30718 2.66675 5.64632 2.66675 5.99994V14.6666H13.3334ZM7.60272 9.49994C7.60272 11.0001 8.7728 12.227 10.2501 12.3177C9.75246 12.6197 9.16842 12.7936 8.54377 12.7936C6.72473 12.7936 5.25011 11.319 5.25011 9.49994C5.25011 7.6809 6.72473 6.20629 8.54377 6.20629C9.16842 6.20629 9.75246 6.38018 10.2501 6.68219C8.7728 6.77292 7.60272 7.99979 7.60272 9.49994Z" fill="#0E1520"/>
</svg>
