<svg width="24" height="24" viewBox="0 0 24 24" fill="none" xmlns="http://www.w3.org/2000/svg">
<path d="M22 18.0001V20.0001H3.99999V22.0001H1.99999V18.0001H9.99999L9.56999 14.1801L7.63999 13.5401C7.63999 13.5401 7.98999 10.1101 8.16999 8.26008C8.20229 7.94361 8.35128 7.65051 8.58792 7.43791C8.82456 7.22531 9.13188 7.10844 9.44999 7.11008C10.2 7.11008 10.56 7.75008 11.5 7.75008C12.44 7.75008 12.8 7.11008 13.55 7.11008C13.8675 7.11067 14.1736 7.22831 14.4097 7.44049C14.6459 7.65267 14.7955 7.94448 14.83 8.26008L15.36 13.5401L13.43 14.1801L13 18.0001H22ZM11 6.00008H12C12.2652 6.00008 12.5196 5.89473 12.7071 5.70719C12.8946 5.51965 13 5.2653 13 5.00008V3.00008C13 2.73487 12.8946 2.48051 12.7071 2.29298C12.5196 2.10544 12.2652 2.00008 12 2.00008H11C10.7348 2.00008 10.4804 2.10544 10.2929 2.29298C10.1053 2.48051 9.99999 2.73487 9.99999 3.00008V5.00008C9.99999 5.2653 10.1053 5.51965 10.2929 5.70719C10.4804 5.89473 10.7348 6.00008 11 6.00008Z" fill="#0E1520"/>
</svg>
