<svg width="24" height="24" viewBox="0 0 24 24" fill="none" xmlns="http://www.w3.org/2000/svg">
<path d="M22 18.0001V20.0001H4V22.0001H2V18.0001H10L9.57 14.1801L7.64 13.5401C7.64 13.5401 7.99 10.1101 8.17 8.26012C8.2023 7.94365 8.35129 7.65055 8.58793 7.43795C8.82457 7.22535 9.13189 7.10848 9.45 7.11012C10.2 7.11012 10.56 7.75012 11.5 7.75012C12.44 7.75012 12.8 7.11012 13.55 7.11012C13.8675 7.11071 14.1736 7.22835 14.4098 7.44053C14.6459 7.6527 14.7955 7.94452 14.83 8.26012L15.36 13.5401L13.43 14.1801L13 18.0001H22ZM11 6.00012H12C12.2652 6.00012 12.5196 5.89477 12.7071 5.70723C12.8946 5.51969 13 5.26534 13 5.00012V3.00012C13 2.73491 12.8946 2.48055 12.7071 2.29302C12.5196 2.10548 12.2652 2.00012 12 2.00012H11C10.7348 2.00012 10.4804 2.10548 10.2929 2.29302C10.1054 2.48055 10 2.73491 10 3.00012V5.00012C10 5.26534 10.1054 5.51969 10.2929 5.70723C10.4804 5.89477 10.7348 6.00012 11 6.00012Z" fill="#0F1621"/>
</svg>
