<svg width="16" height="16" viewBox="0 0 16 16" fill="none" xmlns="http://www.w3.org/2000/svg">
<path d="M14.6668 12V13.3334H2.66683V14.6667H1.3335V12H6.66683L6.38016 9.45337L5.0935 9.02671C5.0935 9.02671 5.32683 6.74004 5.44683 5.50671C5.46837 5.29573 5.56769 5.10033 5.72545 4.95859C5.88321 4.81686 6.08809 4.73894 6.30016 4.74004C6.80016 4.74004 7.04016 5.16671 7.66683 5.16671C8.2935 5.16671 8.5335 4.74004 9.0335 4.74004C9.24515 4.74043 9.44922 4.81886 9.60667 4.96031C9.76411 5.10176 9.86386 5.29631 9.88683 5.50671L10.2402 9.02671L8.9535 9.45337L8.66683 12H14.6668ZM7.3335 4.00004H8.00016C8.17697 4.00004 8.34654 3.9298 8.47157 3.80478C8.59659 3.67975 8.66683 3.51019 8.66683 3.33337V2.00004C8.66683 1.82323 8.59659 1.65366 8.47157 1.52864C8.34654 1.40361 8.17697 1.33337 8.00016 1.33337H7.3335C7.15669 1.33337 6.98712 1.40361 6.86209 1.52864C6.73707 1.65366 6.66683 1.82323 6.66683 2.00004V3.33337C6.66683 3.51019 6.73707 3.67975 6.86209 3.80478C6.98712 3.9298 7.15669 4.00004 7.3335 4.00004Z" fill="#0F1621"/>
</svg>
