<svg width="16" height="16" viewBox="0 0 16 16" fill="none" xmlns="http://www.w3.org/2000/svg">
<path d="M14.6667 12V13.3333H2.66667V14.6667H1.33333V12H6.66667L6.38 9.45334L5.09333 9.02667C5.09333 9.02667 5.32667 6.74 5.44667 5.50667C5.4682 5.29569 5.56753 5.10029 5.72529 4.95855C5.88304 4.81682 6.08793 4.73891 6.3 4.74C6.8 4.74 7.04 5.16667 7.66667 5.16667C8.29333 5.16667 8.53333 4.74 9.03333 4.74C9.24498 4.74039 9.44906 4.81882 9.6065 4.96027C9.76394 5.10172 9.8637 5.29627 9.88667 5.50667L10.24 9.02667L8.95333 9.45334L8.66667 12H14.6667ZM7.33333 4H8C8.17681 4 8.34638 3.92976 8.4714 3.80474C8.59643 3.67972 8.66667 3.51015 8.66667 3.33334V2C8.66667 1.82319 8.59643 1.65362 8.4714 1.5286C8.34638 1.40357 8.17681 1.33334 8 1.33334H7.33333C7.15652 1.33334 6.98695 1.40357 6.86193 1.5286C6.7369 1.65362 6.66667 1.82319 6.66667 2V3.33334C6.66667 3.51015 6.7369 3.67972 6.86193 3.80474C6.98695 3.92976 7.15652 4 7.33333 4Z" fill="#0E1520"/>
</svg>
