<svg width="24" height="24" viewBox="0 0 24 24" fill="none" xmlns="http://www.w3.org/2000/svg">
<path d="M20 2H4C3.46957 2 2.96086 2.21071 2.58579 2.58579C2.21071 2.96086 2 3.46957 2 4V22H4V4H6V17H9V20H11V17H13V20H15V17H18V4H20V22H22V4C22 3.46957 21.7893 2.96086 21.4142 2.58579C21.0391 2.21071 20.5304 2 20 2ZM10 15V13.31C10 13.2278 10.0327 13.1489 10.0908 13.0908C10.1489 13.0327 10.2278 13 10.31 13H13.69C13.7722 13 13.8511 13.0327 13.9092 13.0908C13.9673 13.1489 14 13.2278 14 13.31V15H10ZM16 13.31C16.0013 13.0063 15.9425 12.7053 15.8269 12.4244C15.7112 12.1436 15.5411 11.8884 15.3264 11.6736C15.1116 11.4589 14.8564 11.2888 14.5756 11.1731C14.2947 11.0575 13.9937 10.9987 13.69 11H10.31C10.0063 10.9987 9.7053 11.0575 9.42444 11.1731C9.14358 11.2888 8.8884 11.4589 8.67363 11.6736C8.45887 11.8884 8.28876 12.1436 8.17314 12.4244C8.05752 12.7053 7.99868 13.0063 8 13.31V4H16V13.31ZM12 10C11.4696 10 10.9609 9.78929 10.5858 9.41421C10.2107 9.03914 10 8.53043 10 8C10 7.46957 10.2107 6.96086 10.5858 6.58579C10.9609 6.21071 11.4696 6 12 6C12.5304 6 13.0391 6.21071 13.4142 6.58579C13.7893 6.96086 14 7.46957 14 8C14 8.53043 13.7893 9.03914 13.4142 9.41421C13.0391 9.78929 12.5304 10 12 10Z" fill="#0F1621"/>
</svg>
