<svg width="16" height="16" viewBox="0 0 16 16" fill="none" xmlns="http://www.w3.org/2000/svg">
<path d="M13.6935 1.33331H2.30683C2.04922 1.33506 1.80267 1.43817 1.62051 1.62033C1.43835 1.80248 1.33524 2.04904 1.3335 2.30665V14.6666H2.66683V2.66665H4.3335V10.6666C4.3335 11.0203 4.47397 11.3594 4.72402 11.6095C4.97407 11.8595 5.31321 12 5.66683 12H6.00016V14.2866L7.02016 13.8733C7.11898 13.8232 7.20117 13.7455 7.25678 13.6497C7.31238 13.5539 7.33903 13.444 7.3335 13.3333V12H8.66683V13.3333C8.6664 13.4395 8.69546 13.5437 8.75079 13.6344C8.80611 13.725 8.88552 13.7985 8.98016 13.8466L10.0002 14.26V12H10.3335C10.6871 12 11.0263 11.8595 11.2763 11.6095C11.5264 11.3594 11.6668 11.0203 11.6668 10.6666V2.66665H13.3335V14.6666H14.6668V2.30665C14.6651 2.04904 14.562 1.80248 14.3798 1.62033C14.1977 1.43817 13.9511 1.33506 13.6935 1.33331ZM10.6668 10.6666H10.3335L9.4935 8.43331C9.44622 8.30678 9.36162 8.19758 9.2509 8.1202C9.14019 8.04282 9.00857 8.00089 8.8735 7.99998H7.12683C6.99175 8.00089 6.86014 8.04282 6.74942 8.1202C6.6387 8.19758 6.5541 8.30678 6.50683 8.43331L5.66683 10.6666H5.3335V2.66665H10.6668V10.6666ZM6.66683 5.66665V4.99998C6.66683 4.73476 6.77219 4.48041 6.95972 4.29287C7.14726 4.10534 7.40161 3.99998 7.66683 3.99998H8.3335C8.59871 3.99998 8.85307 4.10534 9.0406 4.29287C9.22814 4.48041 9.3335 4.73476 9.3335 4.99998V5.66665C9.3335 5.93186 9.22814 6.18622 9.0406 6.37375C8.85307 6.56129 8.59871 6.66665 8.3335 6.66665H7.66683C7.40161 6.66665 7.14726 6.56129 6.95972 6.37375C6.77219 6.18622 6.66683 5.93186 6.66683 5.66665Z" fill="#0F1621"/>
</svg>
