<svg width="16" height="16" viewBox="0 0 16 16" fill="none" xmlns="http://www.w3.org/2000/svg">
<path d="M7.99996 4.66666C8.65923 4.66666 9.3037 4.86215 9.85186 5.22842C10.4 5.5947 10.8273 6.11529 11.0796 6.72438C11.3319 7.33347 11.3979 8.00369 11.2692 8.65029C11.1406 9.29689 10.8232 9.89084 10.357 10.357C9.89081 10.8232 9.29686 11.1407 8.65026 11.2693C8.00366 11.3979 7.33344 11.3319 6.72435 11.0796C6.11526 10.8273 5.59467 10.4001 5.22839 9.85189C4.86212 9.30373 4.66663 8.65926 4.66663 7.99999C4.66663 7.11594 5.01782 6.26809 5.64294 5.64297C6.26806 5.01785 7.1159 4.66666 7.99996 4.66666Z" fill="#0E1520"/>
</svg>
