<svg width="16" height="16" viewBox="0 0 16 16" fill="none" xmlns="http://www.w3.org/2000/svg">
<path d="M9.71317 4.37998C9.68812 4.88851 9.51161 5.37795 9.20631 5.78541C8.90101 6.19288 8.48086 6.49976 7.99984 6.66665C7.51881 6.49976 7.09866 6.19288 6.79336 5.78541C6.48806 5.37795 6.31155 4.88851 6.2865 4.37998V3.80665L7.99984 3.23998L9.71317 3.80665V4.37998ZM14.3332 4.66665L7.99984 1.33331L1.6665 4.66665L3.99984 6.66665V7.33331C3.99984 7.33331 4.6665 7.99998 7.99984 7.99998C11.3332 7.99998 11.9998 7.33331 11.9998 7.33331V6.66665L14.3332 4.66665ZM11.9998 8.33331C11.9998 8.33331 11.3332 9.99998 7.99984 9.99998C4.6665 9.99998 3.99984 8.33331 3.99984 8.33331V8.99998C3.99984 12.1266 5.79317 14.6666 7.99984 14.6666C10.2065 14.6666 11.9998 12.1266 11.9998 8.99998V8.33331Z" fill="#0F1621"/>
</svg>
