<svg width="24" height="24" viewBox="0 0 24 24" fill="none" xmlns="http://www.w3.org/2000/svg">
<path d="M12 5C13.3845 5 14.7379 5.41054 15.889 6.17971C17.0401 6.94888 17.9373 8.04213 18.4672 9.32122C18.997 10.6003 19.1356 12.0078 18.8655 13.3656C18.5954 14.7235 17.9287 15.9708 16.9498 16.9497C15.9708 17.9287 14.7235 18.5954 13.3656 18.8655C12.0078 19.1356 10.6003 18.997 9.32122 18.4672C8.04214 17.9373 6.94889 17.0401 6.17972 15.889C5.41055 14.7378 5 13.3845 5 12C5 10.1435 5.7375 8.36301 7.05026 7.05025C8.36301 5.7375 10.1435 5 12 5ZM12 2C10.0222 2 8.08879 2.58649 6.4443 3.6853C4.79981 4.78412 3.51809 6.3459 2.76121 8.17317C2.00433 10.0004 1.8063 12.0111 2.19215 13.9509C2.578 15.8907 3.53041 17.6725 4.92894 19.0711C6.32746 20.4696 8.10929 21.422 10.0491 21.8079C11.9889 22.1937 13.9996 21.9957 15.8268 21.2388C17.6541 20.4819 19.2159 19.2002 20.3147 17.5557C21.4135 15.9112 22 13.9778 22 12C22 10.6868 21.7413 9.38642 21.2388 8.17317C20.7363 6.95991 19.9997 5.85752 19.0711 4.92893C18.1425 4.00035 17.0401 3.26375 15.8268 2.7612C14.6136 2.25866 13.3132 2 12 2ZM13 7H11C10.4696 7 9.96086 7.21071 9.58579 7.58579C9.21072 7.96086 9 8.46957 9 9V11L10 12L9 13V15C9 15.5304 9.21072 16.0391 9.58579 16.4142C9.96086 16.7893 10.4696 17 11 17H13C13.5304 17 14.0391 16.7893 14.4142 16.4142C14.7893 16.0391 15 15.5304 15 15V13L14 12L15 11V9C15 8.46957 14.7893 7.96086 14.4142 7.58579C14.0391 7.21071 13.5304 7 13 7ZM11 11V9H13V11H11ZM13 13V15H11V13H13Z" fill="#0F1621"/>
</svg>
