<svg width="16" height="16" viewBox="0 0 16 16" fill="none" xmlns="http://www.w3.org/2000/svg">
<path d="M1.33354 4.66667V4H14.6669V4.66667C14.6645 4.77594 14.6353 4.88296 14.5818 4.97829C14.5283 5.07362 14.4522 5.15434 14.3602 5.21333L8.3602 8.96C8.25886 9.01851 8.14389 9.04932 8.02687 9.04932C7.90984 9.04932 7.79488 9.01851 7.69354 8.96L1.69354 5.21333C1.59158 5.16086 1.50489 5.08299 1.44183 4.98722C1.37876 4.89146 1.34147 4.78105 1.33354 4.66667ZM14.6669 6.33333L8.72687 10.1933C8.51059 10.3339 8.25816 10.4088 8.0002 10.4088C7.74224 10.4088 7.48982 10.3339 7.27354 10.1933L1.33354 6.33333V12.0933C1.33264 12.1689 1.34686 12.2438 1.37536 12.3138C1.40385 12.3838 1.44605 12.4473 1.49947 12.5007C1.55289 12.5542 1.61645 12.5963 1.68641 12.6248C1.75637 12.6533 1.83133 12.6676 1.90687 12.6667H14.0935C14.1691 12.6676 14.244 12.6533 14.314 12.6248C14.384 12.5963 14.4475 12.5542 14.5009 12.5007C14.5544 12.4473 14.5966 12.3838 14.625 12.3138C14.6535 12.2438 14.6678 12.1689 14.6669 12.0933V6.33333Z" fill="#0F1621"/>
</svg>
