<svg width="24" height="24" viewBox="0 0 24 24" fill="none" xmlns="http://www.w3.org/2000/svg">
<path d="M2 4H22V18C22 18.5304 21.7893 19.0391 21.4142 19.4142C21.0391 19.7893 20.5304 20 20 20H4C3.46957 20 2.96086 19.7893 2.58579 19.4142C2.21071 19.0391 2 18.5304 2 18V4ZM20 7.45L14.14 13.45V13.5C13.5709 14.0552 12.8047 14.3618 12.0097 14.3524C11.2146 14.3431 10.4558 14.0185 9.9 13.45L4 7.45V17C4 17.2652 4.10536 17.5196 4.29289 17.7071C4.48043 17.8946 4.73478 18 5 18H19C19.2652 18 19.5196 17.8946 19.7071 17.7071C19.8946 17.5196 20 17.2652 20 17V7.45ZM5.38 6L11.29 12C11.4774 12.1863 11.7308 12.2908 11.995 12.2908C12.2592 12.2908 12.5126 12.1863 12.7 12C12.7 12 14.7 10 18.62 5.95L5.38 6Z" fill="#0F1621"/>
</svg>
