<svg width="24" height="24" viewBox="0 0 24 24" fill="none" xmlns="http://www.w3.org/2000/svg">
<path fill-rule="evenodd" clip-rule="evenodd" d="M22 5.43V18C22 18.5304 21.7893 19.0391 21.4142 19.4142C21.0391 19.7893 20.5304 20 20 20H4C3.46957 20 2.96086 19.7893 2.58579 19.4142C2.21071 19.0391 2 18.5304 2 18V5.43L9.86 13.43C10.4225 13.9918 11.185 14.3074 11.98 14.3074C12.775 14.3074 13.5375 13.9918 14.1 13.43L22 5.43ZM3.4 4H20.6C15.34 9.33333 12.7067 12.0167 12.7 12.05C12.5126 12.2363 12.2592 12.3408 11.995 12.3408C11.7308 12.3408 11.4774 12.2363 11.29 12.05L3.4 4Z" fill="#0F1621"/>
</svg>
