<svg width="24" height="24" viewBox="0 0 24 24" fill="none" xmlns="http://www.w3.org/2000/svg">
<path d="M19 8H2V20C2 20.5304 2.21071 21.0391 2.58579 21.4142C2.96086 21.7893 3.46957 22 4 22H14C14.5304 22 15.0391 21.7893 15.4142 21.4142C15.7893 21.0391 16 20.5304 16 20V18H19C19.5304 18 20.0391 17.7893 20.4142 17.4142C20.7893 17.0391 21 16.5304 21 16V10C21 9.46957 20.7893 8.96086 20.4142 8.58579C20.0391 8.21071 19.5304 8 19 8ZM8 18H6V12H8V18ZM12 18H10V12H12V18ZM19 16H16V10H19V16ZM16 6H2C2 5.46957 2.21071 4.96086 2.58579 4.58579C2.96086 4.21071 3.46957 4 4 4C4 3.46957 4.21071 2.96086 4.58579 2.58579C4.96086 2.21071 5.46957 2 6 2H11C11.5304 2 12.0391 2.21071 12.4142 2.58579C12.7893 2.96086 13 3.46957 13 4H14C14.5304 4 15.0391 4.21071 15.4142 4.58579C15.7893 4.96086 16 5.46957 16 6Z" fill="#0F1621"/>
</svg>
