<svg width="16" height="16" viewBox="0 0 16 16" fill="none" xmlns="http://www.w3.org/2000/svg">
<path d="M13.4066 6.66667H2.66657V13.3333L2.33323 14.6667H12.3332L11.9999 13.3333V12.6667L13.5932 12.4133C13.9002 12.3524 14.1759 12.1854 14.3721 11.9416C14.5683 11.6979 14.6726 11.3929 14.6666 11.08V8C14.6671 7.65873 14.5367 7.33024 14.3023 7.0822C14.0679 6.83416 13.7473 6.68544 13.4066 6.66667ZM6.66657 12.6667H5.33323V8H6.66657V12.6667ZM9.33323 12.6667H7.9999V8H9.33323V12.6667ZM13.3332 10.7933C13.3333 10.8702 13.3067 10.9447 13.2581 11.0042C13.2095 11.0637 13.1419 11.1046 13.0666 11.12L11.9999 11.3333V8H12.9999C13.0883 8 13.1731 8.03512 13.2356 8.09763C13.2981 8.16015 13.3332 8.24493 13.3332 8.33334V10.7933ZM3.39323 5.33334H2.0599C2.05295 5.22233 2.05295 5.111 2.0599 5C2.0597 4.39142 2.29728 3.80684 2.72197 3.37094C3.14666 2.93504 3.72485 2.68232 4.33323 2.66667H4.9999C5.23518 2.26567 5.57122 1.93315 5.97467 1.70209C6.37812 1.47104 6.83497 1.34949 7.2999 1.34949C7.76483 1.34949 8.22168 1.47104 8.62513 1.70209C9.02859 1.93315 9.36462 2.26567 9.5999 2.66667H10.3332C10.9521 2.66667 11.5456 2.9125 11.9832 3.35009C12.4207 3.78767 12.6666 4.38116 12.6666 5C12.6735 5.111 12.6735 5.22233 12.6666 5.33334H11.3332C11.3534 5.22314 11.3534 5.1102 11.3332 5C11.3332 4.73479 11.2279 4.48043 11.0403 4.2929C10.8528 4.10536 10.5985 4 10.3332 4H8.66657C8.66657 3.64638 8.52609 3.30724 8.27604 3.05719C8.02599 2.80714 7.68686 2.66667 7.33323 2.66667C6.97961 2.66667 6.64047 2.80714 6.39043 3.05719C6.14038 3.30724 5.9999 3.64638 5.9999 4H4.33323C4.06802 4 3.81366 4.10536 3.62613 4.2929C3.43859 4.48043 3.33323 4.73479 3.33323 5C3.3358 5.11356 3.35604 5.22602 3.39323 5.33334Z" fill="#0F1621"/>
</svg>
