<svg width="16" height="16" viewBox="0 0 16 16" fill="none" xmlns="http://www.w3.org/2000/svg">
<path d="M3.5 2C3.5 1.44772 3.94772 1 4.5 1C5.05228 1 5.5 1.44772 5.5 2V3C5.5 3.55228 5.05228 4 4.5 4C3.94772 4 3.5 3.55228 3.5 3V2Z" fill="#0E1520"/>
<path d="M6 12H8L6.41208 6.44229C6.16817 5.58858 5.38787 5 4.5 5C3.61213 5 2.83183 5.58858 2.58792 6.44229L1 12H3.00001V14.5C3.00001 14.7761 3.22387 15 3.50001 15H5.5C5.77615 15 6 14.7761 6 14.5V12Z" fill="#0E1520"/>
<path d="M11 2C11 1.44772 11.4477 1 12 1C12.5523 1 13 1.44772 13 2V3C13 3.55228 12.5523 4 12 4C11.4477 4 11 3.55228 11 3V2Z" fill="#0E1520"/>
<path d="M10.5 14.5C10.5 14.7761 10.7239 15 11 15H13C13.2761 15 13.5 14.7761 13.5 14.5V11H15V6C15 5.44772 14.5523 5 14 5H10C9.44772 5 9 5.44772 9 6V11H10.5V14.5Z" fill="#0E1520"/>
</svg>
