<svg width="24" height="24" viewBox="0 0 24 24" fill="none" xmlns="http://www.w3.org/2000/svg">
<path d="M5.50002 3.5C5.50002 2.67157 6.17159 2 7.00002 2C7.82844 2 8.50002 2.67157 8.50002 3.5V4.5C8.50002 5.32843 7.82844 6 7.00002 6C6.17159 6 5.50002 5.32843 5.50002 4.5V3.5Z" fill="#0E1520"/>
<path d="M4.47377 8.92953C4.78446 7.79032 5.81918 7 7 7C8.18082 7 9.21554 7.79032 9.52623 8.92953L12 18H9V21.5C9 21.7761 8.77614 22 8.5 22H5.5C5.22386 22 5 21.7761 5 21.5V18H2L4.47377 8.92953Z" fill="#0E1520"/>
<path d="M16.5 3.5C16.5 2.67157 17.1716 2 18 2C18.8284 2 19.5 2.67157 19.5 3.5V4.5C19.5 5.32843 18.8284 6 18 6C17.1716 6 16.5 5.32843 16.5 4.5V3.5Z" fill="#0E1520"/>
<path d="M16 21.5C16 21.7761 16.2239 22 16.5 22H19.5C19.7761 22 20 21.7761 20 21.5V16H22V9C22 7.89543 21.1046 7 20 7H16C14.8954 7 14 7.89543 14 9V16H16V21.5Z" fill="#0E1520"/>
</svg>
