<svg width="24" height="24" viewBox="0 0 24 24" fill="none" xmlns="http://www.w3.org/2000/svg">
<path d="M10.9998 11L9.99976 12L10.9998 14V18H8.99976V22H5.99976V18H3.99976V14L4.99976 12L3.99976 11V9C3.97328 8.74935 3.99945 8.49593 4.07659 8.25598C4.15372 8.01603 4.28012 7.79483 4.44768 7.60655C4.61525 7.41828 4.82029 7.26707 5.04967 7.16262C5.27906 7.05817 5.52773 7.00278 5.77976 7H9.21976C9.72036 7.03093 10.1884 7.25855 10.5219 7.63321C10.8553 8.00788 11.0271 8.49919 10.9998 9V11ZM8.99976 4.47V3.53C9.00243 3.12858 8.84621 2.74241 8.56518 2.45576C8.28416 2.16911 7.90115 2.00527 7.49976 2C7.09837 2.00527 6.71536 2.16911 6.43433 2.45576C6.15331 2.74241 5.99708 3.12858 5.99976 3.53V4.47C5.99708 4.87142 6.15331 5.25759 6.43433 5.54424C6.71536 5.83089 7.09837 5.99473 7.49976 6C7.90115 5.99473 8.28416 5.83089 8.56518 5.54424C8.84621 5.25759 9.00243 4.87142 8.99976 4.47ZM18.4998 6C18.9011 5.99473 19.2842 5.83089 19.5652 5.54424C19.8462 5.25759 20.0024 4.87142 19.9998 4.47V3.53C19.9993 3.12645 19.8414 2.739 19.5598 2.45C19.4225 2.30751 19.2578 2.19421 19.0757 2.11688C18.8935 2.03956 18.6976 1.9998 18.4998 2C18.0984 2.00527 17.7154 2.16911 17.4343 2.45576C17.1533 2.74241 16.9971 3.12858 16.9998 3.53V4.47C16.9971 4.87142 17.1533 5.25759 17.4343 5.54424C17.7154 5.83089 18.0984 5.99473 18.4998 6ZM21.9998 9V14H19.9998V22H16.9998V14H14.9998V9C14.9733 8.74935 14.9995 8.49593 15.0766 8.25598C15.1537 8.01603 15.2801 7.79483 15.4477 7.60655C15.6152 7.41828 15.8203 7.26707 16.0497 7.16262C16.2791 7.05817 16.5277 7.00278 16.7798 7H20.2198C20.7204 7.03093 21.1884 7.25855 21.5219 7.63321C21.8553 8.00788 22.0271 8.49919 21.9998 9Z" fill="#0F1621"/>
</svg>
