<svg width="16" height="16" viewBox="0 0 16 16" fill="none" xmlns="http://www.w3.org/2000/svg">
<path d="M14.0002 10H13.4668L13.6735 14.6667H12.3402L12.0002 10H11.3335L11.0002 14.6667H9.66683L9.86016 10H9.3335V5.66666C9.3335 4.99999 9.70683 4.66666 10.2135 4.66666H13.1268C13.6268 4.66666 14.0002 4.99999 14.0002 5.66666V10ZM6.66683 5.66666C6.66683 5.40145 6.56147 5.14709 6.37394 4.95955C6.1864 4.77202 5.93205 4.66666 5.66683 4.66666C5.14683 4.66666 5.04683 4.99999 4.3335 4.99999C3.62016 4.99999 3.50016 4.66666 3.00016 4.66666C2.73495 4.66666 2.48059 4.77202 2.29306 4.95955C2.10552 5.14709 2.00016 5.40145 2.00016 5.66666V6.33333L3.3335 7L1.3335 12.6667H3.3335L3.66683 14.6667H5.00016L5.3335 12.6667H7.3335L5.3335 7L6.66683 6.33333V5.66666ZM11.3335 3.99999H12.0002C12.177 3.99999 12.3465 3.92976 12.4716 3.80473C12.5966 3.67971 12.6668 3.51014 12.6668 3.33333V1.99999C12.6668 1.82318 12.5966 1.65361 12.4716 1.52859C12.3465 1.40357 12.177 1.33333 12.0002 1.33333H11.3335C11.1567 1.33333 10.9871 1.40357 10.8621 1.52859C10.7371 1.65361 10.6668 1.82318 10.6668 1.99999V3.33333C10.6668 3.51014 10.7371 3.67971 10.8621 3.80473C10.9871 3.92976 11.1567 3.99999 11.3335 3.99999ZM4.00016 3.99999H4.66683C4.84364 3.99999 5.01321 3.92976 5.13823 3.80473C5.26326 3.67971 5.3335 3.51014 5.3335 3.33333V1.99999C5.3335 1.82318 5.26326 1.65361 5.13823 1.52859C5.01321 1.40357 4.84364 1.33333 4.66683 1.33333H4.00016C3.82335 1.33333 3.65378 1.40357 3.52876 1.52859C3.40373 1.65361 3.3335 1.82318 3.3335 1.99999V3.33333C3.3335 3.51014 3.40373 3.67971 3.52876 3.80473C3.65378 3.92976 3.82335 3.99999 4.00016 3.99999Z" fill="#0F1621"/>
</svg>
