<svg width="24" height="24" viewBox="0 0 24 24" fill="none" xmlns="http://www.w3.org/2000/svg">
<path d="M11.7804 13.9651L12.9894 16.4289V18.9526H3.99691V16.4289L5.25586 13.9651H11.7804ZM10.9911 9.97505H5.99524V11.9701H5.25586C4.88408 11.9703 4.51973 12.074 4.20378 12.2696C3.88782 12.4652 3.63279 12.7449 3.46735 13.0773L2.12846 15.7506C2.05714 15.8896 2.01949 16.0433 2.01855 16.1995V20.9476C2.01855 21.2122 2.12382 21.4659 2.3112 21.653C2.49858 21.84 2.75273 21.9451 3.01772 21.9451H3.99691C4.2619 21.9451 4.51604 21.84 4.70342 21.653C4.8908 21.4659 4.99607 21.2122 4.99607 20.9476H11.9902C11.9902 21.2122 12.0955 21.4659 12.2829 21.653C12.4703 21.84 12.7244 21.9451 12.9894 21.9451H13.9886C14.2536 21.9451 14.5077 21.84 14.6951 21.653C14.8825 21.4659 14.9877 21.2122 14.9877 20.9476V16.1995C14.9899 16.0441 14.9557 15.8904 14.8878 15.7506L13.5489 13.0773C13.385 12.7479 13.1331 12.4702 12.821 12.2748C12.5089 12.0794 12.1488 11.9739 11.7804 11.9701H10.9911V9.97505ZM10.9911 17.9551H5.99524L6.99441 15.9601H9.99191L10.9911 17.9551ZM19.9836 1.995H9.99191C9.46192 1.995 8.95363 2.20518 8.57887 2.57932C8.20411 2.95346 7.99358 3.4609 7.99358 3.99001V7.98003H19.9836V17.9551H16.9861V19.9501H17.9852V20.9476C17.9852 21.2122 18.0905 21.4659 18.2779 21.653C18.4653 21.84 18.7194 21.9451 18.9844 21.9451H20.9827C21.2477 21.9451 21.5019 21.84 21.6893 21.653C21.8766 21.4659 21.9819 21.2122 21.9819 20.9476V3.99001C21.9819 3.4609 21.7714 2.95346 21.3966 2.57932C21.0219 2.20518 20.5136 1.995 19.9836 1.995ZM19.9836 5.98502H9.99191V3.99001H19.9836V5.98502Z" fill="#0F1621"/>
</svg>
