<svg width="24" height="24" viewBox="0 0 24 24" fill="none" xmlns="http://www.w3.org/2000/svg">
<path d="M11 10H9L11 18H9V22H6V18H4L6 10H4V9C4 7.8 4.70005 7 5.80005 7H9.19995C10.2 7 11 7.9 11 9V10ZM9 4.5V3.59998C9 2.79998 8.3 2.09998 7.5 2.09998C6.7 2.09998 6 2.79998 6 3.59998V4.5C6 5.3 6.7 6 7.5 6C8.3 6 9 5.3 9 4.5ZM16.5 6C17.3 6 18 5.3 18 4.5V3.59998C18 3.19998 17.8 2.8 17.6 2.5C17.3 2.2 17 2.09998 16.5 2.09998C15.7 2.09998 15 2.79998 15 3.59998V4.5C15 5.3 15.7 6 16.5 6ZM20 9V15H18V22H15V15H13V9C13 7.8 13.7 7 14.8 7H18.2C19.2 7 20 7.9 20 9Z" fill="#0F1621"/>
</svg>
