<svg width="16" height="16" viewBox="0 0 16 16" fill="none" xmlns="http://www.w3.org/2000/svg">
<path d="M13.3335 1.33337H6.66683C6.31321 1.33337 5.97407 1.47385 5.72402 1.7239C5.47397 1.97395 5.3335 2.31309 5.3335 2.66671V5.66671H6.66683V5.33337H13.3335V9.33337H11.0002V13.3334H12.0002V14C12.0002 14.1769 12.0704 14.3464 12.1954 14.4714C12.3204 14.5965 12.49 14.6667 12.6668 14.6667H14.0002C14.177 14.6667 14.3465 14.5965 14.4716 14.4714C14.5966 14.3464 14.6668 14.1769 14.6668 14V2.66671C14.6668 2.31309 14.5264 1.97395 14.2763 1.7239C14.0263 1.47385 13.6871 1.33337 13.3335 1.33337ZM13.0002 12H12.0002V10.6667H13.0002C13.1037 10.7443 13.1877 10.845 13.2455 10.9607C13.3034 11.0764 13.3335 11.204 13.3335 11.3334C13.3335 11.4627 13.3034 11.5903 13.2455 11.7061C13.1877 11.8218 13.1037 11.9224 13.0002 12ZM13.3335 4.00004H6.66683V2.66671H13.3335V4.00004ZM9.0335 8.74004C8.92311 8.5179 8.75295 8.33096 8.54213 8.20023C8.33132 8.0695 8.08822 8.00017 7.84016 8.00004H7.3335L7.00016 6.66671H4.3335L4.00016 8.00004H3.4935C3.24544 8.00017 3.00234 8.0695 2.79153 8.20023C2.58071 8.33096 2.41055 8.5179 2.30016 8.74004L1.40683 10.5267C1.35924 10.6196 1.33412 10.7223 1.3335 10.8267V14C1.3335 14.1769 1.40373 14.3464 1.52876 14.4714C1.65378 14.5965 1.82335 14.6667 2.00016 14.6667H2.66683C2.84364 14.6667 3.01321 14.5965 3.13823 14.4714C3.26326 14.3464 3.3335 14.1769 3.3335 14H8.00016C8.00016 14.1769 8.0704 14.3464 8.19543 14.4714C8.32045 14.5965 8.49002 14.6667 8.66683 14.6667H9.3335C9.51031 14.6667 9.67988 14.5965 9.8049 14.4714C9.92992 14.3464 10.0002 14.1769 10.0002 14V10.8267C9.99954 10.7223 9.97442 10.6196 9.92683 10.5267L9.0335 8.74004ZM3.50016 9.00004H7.8335L8.66683 10.6667H2.66683L3.50016 9.00004ZM4.00016 13H2.66683C2.58951 12.9416 2.52679 12.8661 2.4836 12.7793C2.44041 12.6925 2.41793 12.597 2.41793 12.5C2.41793 12.4031 2.44041 12.3075 2.4836 12.2208C2.52679 12.134 2.58951 12.0585 2.66683 12H4.00016V13ZM8.66683 13H7.3335V12H8.66683C8.74415 12.0585 8.80687 12.134 8.85006 12.2208C8.89325 12.3075 8.91573 12.4031 8.91573 12.5C8.91573 12.597 8.89325 12.6925 8.85006 12.7793C8.80687 12.8661 8.74415 12.9416 8.66683 13Z" fill="#0F1621"/>
</svg>
