<svg width="24" height="24" viewBox="0 0 24 24" fill="none" xmlns="http://www.w3.org/2000/svg">
<path d="M7 2C6.17157 2 5.5 2.67157 5.5 3.5V4.5C5.5 5.32843 6.17157 6 7 6C7.82843 6 8.5 5.32843 8.5 4.5V3.5C8.5 2.67157 7.82843 2 7 2Z" fill="#0E1520"/>
<path d="M9.52623 8.92953C9.21554 7.79032 8.18082 7 7 7C5.81918 7 4.78446 7.79032 4.47377 8.92953L2 18H4.99997L5 21.5C5 21.7761 5.22386 22 5.5 22H8.49997C8.77611 22 8.99997 21.7761 8.99997 21.5V18H12L9.52623 8.92953ZM9.3815 16H4.6185L6.40329 9.45576C6.47668 9.18668 6.72109 9 7 9C7.27891 9 7.52332 9.18668 7.59671 9.45576L9.3815 16Z" fill="#0E1520"/>
<path d="M16.5 3.5C16.5 2.67157 17.1716 2 18 2C18.8284 2 19.5 2.67157 19.5 3.5V4.5C19.5 5.32843 18.8284 6 18 6C17.1716 6 16.5 5.32843 16.5 4.5V3.5Z" fill="#0E1520"/>
<path d="M16 21.5C16 21.7761 16.2239 22 16.5 22H19.5C19.7761 22 20 21.7761 20 21.5V16H22V9C22 7.89543 21.1046 7 20 7H16C14.8954 7 14 7.89361 14 8.99818C14 11.6549 14 16 14 16H16V21.5ZM16 14V9H20V14H16Z" fill="#0E1520"/>
</svg>
