<svg width="24" height="24" viewBox="0 0 24 24" fill="none" xmlns="http://www.w3.org/2000/svg">
<path d="M10.9998 9C11.0271 8.49919 10.8553 8.00788 10.5219 7.63321C10.1884 7.25855 9.72036 7.03093 9.21976 7H5.77976C5.52773 7.00278 5.27906 7.05817 5.04967 7.16262C4.82029 7.26707 4.61525 7.41828 4.44768 7.60655C4.28012 7.79483 4.15372 8.01603 4.07659 8.25598C3.99945 8.49593 3.97328 8.74935 3.99976 9V11L4.99976 12L3.99976 14V18H5.99976V22H8.99976V18H10.9998V14L9.99976 12L10.9998 11V9ZM8.99976 16H5.99976V14.47L6.73976 13H8.26976L8.99976 14.47V16ZM8.99976 10.17L8.17976 11H6.81976L5.99976 10.17V9H8.99976V10.17ZM7.49976 6C7.09837 5.99473 6.71536 5.83089 6.43433 5.54424C6.15331 5.25759 5.99708 4.87142 5.99976 4.47V3.53C5.99708 3.12858 6.15331 2.74241 6.43433 2.45576C6.71536 2.16911 7.09837 2.00527 7.49976 2C7.90115 2.00527 8.28416 2.16911 8.56518 2.45576C8.84621 2.74241 9.00243 3.12858 8.99976 3.53V4.47C9.00243 4.87142 8.84621 5.25759 8.56518 5.54424C8.28416 5.83089 7.90115 5.99473 7.49976 6ZM19.9998 9V12H16.9998V9H19.9998ZM18.4998 2C18.0984 2.00527 17.7154 2.16911 17.4343 2.45576C17.1533 2.74241 16.9971 3.12858 16.9998 3.53V4.47C16.9998 4.86783 17.1578 5.24936 17.4391 5.53066C17.7204 5.81197 18.1019 5.97 18.4998 5.97C18.8976 5.97 19.2791 5.81197 19.5604 5.53066C19.8417 5.24936 19.9998 4.86783 19.9998 4.47V3.53C19.9993 3.12645 19.8414 2.739 19.5598 2.45C19.4225 2.30751 19.2578 2.19421 19.0757 2.11688C18.8935 2.03956 18.6976 1.9998 18.4998 2ZM20.2198 7H16.7798C16.5277 7.00278 16.2791 7.05817 16.0497 7.16262C15.8203 7.26707 15.6152 7.41828 15.4477 7.60655C15.2801 7.79483 15.1537 8.01603 15.0766 8.25598C14.9995 8.49593 14.9733 8.74935 14.9998 9V14H16.9998V22H19.9998V14H21.9998V9C22.0271 8.49919 21.8553 8.00788 21.5219 7.63321C21.1884 7.25855 20.7204 7.03093 20.2198 7Z" fill="#0F1621"/>
</svg>
