<svg width="24" height="24" viewBox="0 0 24 24" fill="none" xmlns="http://www.w3.org/2000/svg">
<path d="M11.8 14L13 16.5V19H12H5H4V16.5L5.20001 14H11.8ZM11 10H6V12H5.20001C4.40001 12 3.79999 12.4 3.39999 13.1L2.10001 15.8C2.00001 15.9 2 16.1 2 16.2V21C2 21.6 2.4 22 3 22H4C5 22 5 21 5 21H12C12 21 12 22 13 22H14C14.6 22 15 21.6 15 21V16.2C15 16 15 15.9 14.9 15.8L13.6 13.1C13.3 12.4 12.6 12 11.8 12H11V10ZM20 2H10C8.9 2 8 2.9 8 4V8H20V18H17V20H18V21C18 21.6 18.4 22 19 22H21C21.6 22 22 21.6 22 21V20V4C22 2.9 21.1 2 20 2ZM20 6H10V4H20V6Z" fill="#0F1621"/>
</svg>
