<svg width="24" height="24" viewBox="0 0 24 24" fill="none" xmlns="http://www.w3.org/2000/svg">
<path d="M9.19995 6.90002H5.80005C4.80005 6.90002 4 7.70002 4 8.90002V9.90002H6L4 17.9H6V21.9H9V17.9H11L9 9.90002H11V8.90002C11 7.80002 10.2 6.90002 9.19995 6.90002ZM6.59998 15.9L7.5 12.1L8.40002 15.9H6.59998ZM6 4.40002V3.5C6 2.7 6.7 2 7.5 2C8.3 2 9 2.7 9 3.5V4.40002C9 5.20002 8.3 5.90002 7.5 5.90002C6.7 5.90002 6 5.20002 6 4.40002ZM15 4.40002V3.5C15 2.7 15.7 2 16.5 2C16.9 2 17.3 2.20002 17.6 2.40002C17.9 2.70002 18 3.1 18 3.5V4.40002C18 5.20002 17.3 5.90002 16.5 5.90002C15.7 5.90002 15 5.20002 15 4.40002ZM20 8.90002C20 7.80002 19.2 6.90002 18.2 6.90002H14.8C13.8 6.90002 13 7.70002 13 8.90002V14.9H15V21.9H18V14.9H20V8.90002ZM18 12.9H15V8.90002H18V12.9Z" fill="#0F1621"/>
</svg>
