<svg width="24" height="24" viewBox="0 0 24 24" fill="none" xmlns="http://www.w3.org/2000/svg">
<path d="M15.5 2H8.5V4H11V6H9.44152C8.58066 6 7.81638 6.55086 7.54415 7.36754L6 12V16C6 17.1046 6.89543 18 8 18H16C17.1046 18 18 17.1046 18 16V12L16.4558 7.36754C16.1836 6.55086 15.4193 6 14.5585 6H13V4H15.5V2ZM12 13.5C12.8284 13.5 13.5 14.1716 13.5 15C13.5 15.8284 12.8284 16.5 12 16.5C11.1716 16.5 10.5 15.8284 10.5 15C10.5 14.1716 11.1716 13.5 12 13.5ZM9.26451 8.41718C9.40562 8.01737 9.78351 7.75 10.2075 7.75H13.7925C14.2164 7.75 14.5943 8.01737 14.7355 8.41718L16 12H7.99998L9.26451 8.41718Z" fill="#0F1621"/>
<path d="M17 20H7V22H17V20Z" fill="#0F1621"/>
</svg>
