<svg width="24" height="24" viewBox="0 0 24 24" fill="none" xmlns="http://www.w3.org/2000/svg">
<path d="M5 5V11H7V5H5Z" fill="#0E1520"/>
<path d="M8 5V11H10V5H8Z" fill="#0E1520"/>
<path d="M11 11V5H13V11H11Z" fill="#0E1520"/>
<path d="M14 5V11H16V5H14Z" fill="#0E1520"/>
<path d="M17 11V5H19V11H17Z" fill="#0E1520"/>
<path d="M2 2V15H6V14H18V15H22V2H2ZM4 4H20V12H4V4Z" fill="#0E1520"/>
<path d="M14.0003 19.125H9.99939C9.9998 19.1436 10 19.1624 10 19.1816C10 20.7382 8.65685 22 7 22C5.34315 22 4 20.7382 4 19.1816C4 19.1624 4.0002 19.1436 4.00061 19.125H2V16.875H22V19.125H19.9991C19.9997 19.1436 20 19.1624 20 19.1816C20 20.7382 18.6569 22 17 22C15.3431 22 14 20.7382 14 19.1816C14 19.1624 14.0001 19.1436 14.0003 19.125Z" fill="#0E1520"/>
</svg>
