<svg width="16" height="16" viewBox="0 0 16 16" fill="none" xmlns="http://www.w3.org/2000/svg">
<path d="M10.6667 11.3333H12.3333V8.03334C12.3315 7.57686 12.307 7.12074 12.26 6.66668L11.8533 3.15334C11.8085 2.65699 11.5799 2.19527 11.2125 1.85862C10.845 1.52196 10.365 1.33464 9.86667 1.33334H6.13333C5.63684 1.33068 5.1571 1.5128 4.78745 1.84426C4.41779 2.17572 4.18463 2.63283 4.13333 3.12668L3.74 6.66668C3.69212 7.12959 3.66765 7.59463 3.66667 8.06001V11.3333H5.33333L2 14.6667H4L7 11.3333H9L12.6667 14.6667H14.6667L10.6667 11.3333ZM5.50667 3.57334C5.54667 3.14668 5.90667 2.66667 6.33333 2.66667H9.66667C10.0933 2.66667 10.4533 3.15334 10.4933 3.58001L10.9 6.76667C10.9 6.95334 10.94 7.14668 10.9467 7.34001H5.05333C5.05333 7.14668 5.05333 6.95334 5.1 6.76667L5.50667 3.57334ZM8 10.3333C7.80222 10.3333 7.60888 10.2747 7.44443 10.1648C7.27998 10.0549 7.15181 9.89875 7.07612 9.71603C7.00043 9.5333 6.98063 9.33223 7.01921 9.13825C7.0578 8.94427 7.15304 8.76609 7.29289 8.62624C7.43275 8.48638 7.61093 8.39114 7.80491 8.35256C7.99889 8.31397 8.19996 8.33377 8.38268 8.40946C8.56541 8.48515 8.72159 8.61332 8.83147 8.77777C8.94135 8.94222 9 9.13556 9 9.33334C9 9.59856 8.89464 9.85291 8.70711 10.0404C8.51957 10.228 8.26522 10.3333 8 10.3333Z" fill="#0F1621"/>
</svg>
