<svg width="24" height="24" viewBox="0 0 24 24" fill="none" xmlns="http://www.w3.org/2000/svg">
<path d="M8.5 2H15.5V4H13V6H14.7771C15.6701 6 16.4548 6.59195 16.7002 7.45056L18 12V16C18 17.1046 17.1046 18 16 18H8C6.89543 18 6 17.1046 6 16V12L7.29984 7.45056C7.54516 6.59195 8.32993 6 9.22289 6H11V4H8.5V2ZM16 14H8V15C8 15.5523 8.44772 16 9 16H15C15.5523 16 16 15.5523 16 15V14ZM8.81061 8.75747L7.99998 12H16L15.1893 8.75747C15.0781 8.3123 14.6781 8 14.2192 8H9.78075C9.32188 8 8.9219 8.3123 8.81061 8.75747Z" fill="#0F1621"/>
<path d="M16 20H8V22H16V20Z" fill="#0F1621"/>
</svg>
