<svg width="16" height="16" viewBox="0 0 16 16" fill="none" xmlns="http://www.w3.org/2000/svg">
<path d="M13.3333 2.33331C13.3333 2.0681 13.228 1.81374 13.0404 1.62621C12.8529 1.43867 12.5985 1.33331 12.3333 1.33331H3.66667C3.40145 1.33331 3.1471 1.43867 2.95956 1.62621C2.77202 1.81374 2.66667 2.0681 2.66667 2.33331V11.3333H5.33333L2 14.6666H4L7 11.3333H9L12 14.6666H14L10.6667 11.3333H13.3333V2.33331ZM4 2.66665H7.33333V7.33331H4V2.66665ZM5 10.3333C4.73478 10.3333 4.48043 10.228 4.29289 10.0404C4.10536 9.85288 4 9.59853 4 9.33331C4 9.0681 4.10536 8.81374 4.29289 8.62621C4.48043 8.43867 4.73478 8.33331 5 8.33331C5.26522 8.33331 5.51957 8.43867 5.70711 8.62621C5.89464 8.81374 6 9.0681 6 9.33331C6 9.59853 5.89464 9.85288 5.70711 10.0404C5.51957 10.228 5.26522 10.3333 5 10.3333ZM12 9.33331C12 9.59853 11.8946 9.85288 11.7071 10.0404C11.5196 10.228 11.2652 10.3333 11 10.3333C10.7348 10.3333 10.4804 10.228 10.2929 10.0404C10.1054 9.85288 10 9.59853 10 9.33331C10 9.0681 10.1054 8.81374 10.2929 8.62621C10.4804 8.43867 10.7348 8.33331 11 8.33331C11.2652 8.33331 11.5196 8.43867 11.7071 8.62621C11.8946 8.81374 12 9.0681 12 9.33331ZM12 7.33331H8.66667V2.66665H12V7.33331Z" fill="#0F1621"/>
</svg>
