<svg width="24" height="24" viewBox="0 0 24 24" fill="none" xmlns="http://www.w3.org/2000/svg">
<path d="M17.9998 2L13.9998 15V20H10.9998V11H2.99979V22H21.9998V15L17.9998 2ZM5.99979 20V14C5.99979 13.7348 6.10515 13.4804 6.29268 13.2929C6.48022 13.1054 6.73457 13 6.99979 13C7.26501 13 7.51936 13.1054 7.7069 13.2929C7.89443 13.4804 7.99979 13.7348 7.99979 14V20H5.99979ZM16.9998 20V16C16.9998 15.7348 17.1051 15.4804 17.2927 15.2929C17.4802 15.1054 17.7346 15 17.9998 15C18.265 15 18.5194 15.1054 18.7069 15.2929C18.8944 15.4804 18.9998 15.7348 18.9998 16V20H16.9998ZM11.9998 7C12.0097 7.38978 11.9237 7.77601 11.7493 8.12475C11.5749 8.47349 11.3175 8.77405 10.9998 9H2.99979C2.68203 8.77405 2.42466 8.47349 2.25029 8.12475C2.07592 7.77601 1.9899 7.38978 1.99979 7C1.99979 5 6.99979 2 6.99979 2C6.99979 2 11.9998 5 11.9998 7Z" fill="#0F1621"/>
</svg>
