<svg width="24" height="25" viewBox="0 0 24 25" fill="none" xmlns="http://www.w3.org/2000/svg">
<path d="M7 4.46008C8.4 5.46008 9.6 6.46006 9.9 7.06006H4.1C4.4 6.46006 5.6 5.36008 7 4.46008ZM7 2.06006C7 2.06006 2 5.06006 2 7.06006C2 7.96006 2.4 8.56006 3 9.06006H11C11.6 8.56006 12 7.96006 12 7.06006C12 5.06006 7 2.06006 7 2.06006ZM18 2.06006L14 14.0601V19.0601H11V11.0601H3V21.0601H22V14.0601L18 2.06006ZM8 19.0601H6V14.0601C6 13.4601 6.4 13.0601 7 13.0601C7.6 13.0601 8 13.4601 8 14.0601V19.0601ZM18 8.86005L19.3 12.0601H16.7L18 8.86005ZM19 19.0601H17V15.0601C17 14.4601 17.4 14.0601 18 14.0601C18.6 14.0601 19 14.4601 19 15.0601V19.0601Z" fill="#0F1621"/>
</svg>
