<svg width="24" height="25" viewBox="0 0 24 25" fill="none" xmlns="http://www.w3.org/2000/svg">
<path d="M9 2.06006V9.06006H7V2.06006H9ZM11 2.06006V10.0601C11 10.3253 10.8946 10.5796 10.7071 10.7672C10.5196 10.9547 10.2652 11.0601 10 11.0601H6C5.73478 11.0601 5.48043 10.9547 5.29289 10.7672C5.10536 10.5796 5 10.3253 5 10.0601V2.06006H3V10.0601C3 10.8557 3.31607 11.6188 3.87868 12.1814C4.44129 12.744 5.20435 13.0601 6 13.0601H7V22.0601H9V13.0601H10C10.7956 13.0601 11.5587 12.744 12.1213 12.1814C12.6839 11.6188 13 10.8557 13 10.0601V2.06006H11ZM21 2.06006V22.0601H19V15.0601H15V8.06006C15 6.46876 15.6321 4.94264 16.7574 3.81742C17.8826 2.6922 19.4087 2.06006 21 2.06006ZM17 13.0601H19V4.59006C18.3911 4.94163 17.8855 5.44751 17.5344 6.05671C17.1833 6.66592 16.999 7.35691 17 8.06006V13.0601Z" fill="#0F1621"/>
</svg>
