<svg width="24" height="25" viewBox="0 0 24 25" fill="none" xmlns="http://www.w3.org/2000/svg">
<path d="M9 3.06006V9.06006H7V3.06006H9ZM11 3.06006V10.0601C11 10.6601 10.6 11.0601 10 11.0601H6C5.4 11.0601 5 10.6601 5 10.0601V3.06006H3V10.0601C3 11.7601 4.3 13.0601 6 13.0601H7V20.0601V21.0601H9V20.0601V13.0601H10C11.7 13.0601 13 11.7601 13 10.0601V3.06006H11ZM21 3.06006V14.0601V15.0601V21.0601H19V15.0601H15V9.06006C15 5.76006 17.7 3.06006 21 3.06006ZM17 13.0601H19V5.66006C17.8 6.36006 17 7.66006 17 9.16006V13.0601Z" fill="#0F1621"/>
</svg>
