<svg width="24" height="24" viewBox="0 0 24 24" fill="none" xmlns="http://www.w3.org/2000/svg">
<path d="M9.79354 9.79228C10.184 9.40242 10.8173 9.40218 11.2076 9.79228L14.2076 12.7933C14.5977 13.1837 14.5977 13.8169 14.2076 14.2073C13.8172 14.5975 13.184 14.5975 12.7935 14.2073L9.79354 11.2073C9.40302 10.8168 9.40303 10.1828 9.79354 9.79228Z" fill="#0F1621"/>
<path d="M6.00057 5.99931C11.0006 0.99985 19.5006 1.50034 21.0006 3.00028C22.5003 4.50114 22.9997 12.9996 18.0006 17.9993L17.7633 18.2308C12.7367 22.9838 4.47813 22.4765 3.00057 21.0003L2.93026 20.9251C1.5085 19.2628 1.09204 11.1849 5.7701 6.23759L6.00057 5.99931ZM18.4 4.10575C17.5095 3.95845 16.3319 3.91194 15.024 4.05106C12.3846 4.33192 9.49481 5.33433 7.41463 7.41435C5.33452 9.49463 4.33216 12.3852 4.05135 15.0247C3.9123 16.3323 3.95877 17.5094 4.10604 18.3997C4.1098 18.4224 4.1139 18.4449 4.11776 18.4671L8.08553 14.5003L7.29256 13.7073C6.90238 13.3169 6.90246 12.6837 7.29256 12.2933C7.68308 11.9027 8.31708 11.9027 8.7076 12.2933L11.7076 15.2933C12.0977 15.6837 12.0978 16.3169 11.7076 16.7073C11.3172 17.0976 10.684 17.0975 10.2935 16.7073L9.49959 15.9143L5.5328 19.8802C5.55528 19.8841 5.5781 19.89 5.60116 19.8938C6.49156 20.0411 7.66858 20.0886 8.97616 19.9495C11.6158 19.6687 14.5062 18.6655 16.5865 16.5852C18.6665 14.505 19.668 11.6153 19.9488 8.97587C20.088 7.66784 20.0424 6.49042 19.8951 5.59989C19.8913 5.57705 19.8853 5.55479 19.8814 5.53251L15.9146 9.50028L16.7076 10.2933C17.0978 10.6838 17.0979 11.3169 16.7076 11.7073C16.3172 12.0977 15.6841 12.0976 15.2935 11.7073L12.2935 8.70731C11.903 8.3168 11.903 7.68378 12.2935 7.29325C12.6841 6.90285 13.3171 6.90277 13.7076 7.29325L14.4996 8.08622L18.4664 4.11747C18.4446 4.11368 18.4223 4.10944 18.4 4.10575Z" fill="#0F1621"/>
</svg>
