<svg width="16" height="16" viewBox="0 0 16 16" fill="none" xmlns="http://www.w3.org/2000/svg">
<path d="M14.3952 2.66505C15.1878 4.58299 15.5246 9.47538 12.4997 12.5003C9.4749 15.5247 4.58389 15.187 2.6658 14.3945L5.41136 11.6489L5.88092 12.1185L5.94791 12.1785C6.29147 12.4586 6.79805 12.4384 7.11836 12.1185C7.43838 11.7981 7.4592 11.2909 7.17913 10.9473L7.11836 10.881L5.11858 8.88123L5.05159 8.82116C4.70801 8.5414 4.20132 8.5613 3.88114 8.88123C3.53974 9.22288 3.53976 9.77702 3.88114 10.1187L4.3507 10.5882L1.60514 13.3338C0.812762 11.4153 0.476135 6.52445 3.50065 3.4999C6.52539 0.475572 11.4163 0.811935 13.3345 1.60439L10.5883 4.35064L10.1187 3.88108C9.7771 3.53972 9.22294 3.53974 8.88129 3.88108C8.56133 4.20124 8.54151 4.70793 8.82122 5.05153L8.88129 5.11851L10.8811 7.1183L10.9481 7.17838C11.2917 7.45845 11.7982 7.4384 12.1185 7.1183C12.4385 6.79801 12.4586 6.29141 12.1786 5.94784L12.1185 5.88086L11.649 5.4113L14.3952 2.66505ZM7.61831 6.3815L7.55133 6.32142C7.20766 6.04166 6.70103 6.06135 6.38087 6.3815C6.03955 6.72314 6.03954 7.2773 6.38087 7.61894L8.38066 9.61872L8.44764 9.6788C8.79121 9.95886 9.29779 9.93873 9.61809 9.61872C9.93837 9.29844 9.95828 8.79194 9.67817 8.44827L9.61809 8.38129L7.61831 6.3815Z" fill="#0F1621"/>
<path d="M8.91187 1.86621C10.0277 1.74811 11.0755 1.82061 11.9011 1.97656L10.5847 3.29297C9.98799 2.75597 9.09055 2.73695 8.47437 3.23926L8.35132 3.35059H8.35034C7.75548 3.94589 7.72038 4.88709 8.23999 5.52539L8.25073 5.53906L8.26245 5.55273L8.323 5.61914L8.33667 5.63477L8.35132 5.64844L10.3503 7.64844L10.365 7.66309L10.3806 7.67676L10.447 7.73633L10.4744 7.75977C11.0732 8.24777 11.937 8.2459 12.533 7.75391L12.6492 7.64844C13.2437 7.05339 13.2802 6.11244 12.7595 5.47363L12.7488 5.45996L12.7371 5.44727L12.7068 5.41309L14.0222 4.09766C14.1784 4.92363 14.2517 5.97223 14.1335 7.08887C13.9622 8.70768 13.4023 10.3896 12.2156 11.7109L11.9695 11.9697C10.6134 13.3257 8.81507 13.9503 7.08862 14.1328C5.97232 14.2508 4.92425 14.1777 4.09839 14.0215L5.41382 12.707L5.44702 12.7373L5.46069 12.749L5.47437 12.7598C6.07334 13.2479 6.93709 13.2458 7.53296 12.7539L7.64819 12.6494L7.64917 12.6484C8.24269 12.0542 8.2818 11.1133 7.7605 10.4736L7.74683 10.457L7.73218 10.4404L7.67163 10.374L7.65991 10.3623L7.64917 10.3506L5.64917 8.35059L5.63452 8.33691L5.6189 8.32324L5.55249 8.2627L5.52515 8.23926L5.4021 8.14844C4.81259 7.7544 4.0229 7.78667 3.46655 8.24609L3.35132 8.35059L3.35034 8.35156C2.73708 8.96566 2.71883 9.94726 3.29272 10.585L1.97729 11.9004C1.8213 11.0746 1.7488 10.0261 1.86694 8.91016C2.03835 7.2917 2.5983 5.61016 3.78491 4.28906L4.03101 4.03027C5.38714 2.67434 7.18542 2.04902 8.91187 1.86621ZM7.9021 5.64844C7.31289 5.2546 6.52313 5.28649 5.96655 5.74609L5.85034 5.85156C5.25616 6.44635 5.21909 7.38728 5.73901 8.02539L5.85034 8.14941L7.85034 10.1494L7.87964 10.1768L7.94702 10.2373L7.95972 10.249L7.97339 10.2598C8.57243 10.7481 9.437 10.7462 10.033 10.2539L10.1482 10.1494C10.7435 9.55413 10.78 8.61328 10.2595 7.97461L10.2488 7.96094L10.2361 7.94727L10.1765 7.88086L10.1628 7.86523L10.1482 7.85059L8.14819 5.85156L8.13452 5.83691L8.1189 5.82324L8.05249 5.7627L8.03882 5.75098L8.02515 5.74023L7.9021 5.64844Z" stroke="#0F1621" stroke-width="1.5"/>
</svg>
