<svg width="16" height="16" viewBox="0 0 16 16" fill="none" xmlns="http://www.w3.org/2000/svg">
<path fill-rule="evenodd" clip-rule="evenodd" d="M14.3952 2.66511C15.1878 4.58306 15.5247 9.47544 12.4997 12.5004C9.47493 15.5248 4.58392 15.187 2.66583 14.3945L5.41139 11.649L5.88096 12.1185L5.94794 12.1786C6.2915 12.4587 6.79808 12.4385 7.11839 12.1185C7.43841 11.7982 7.45923 11.2909 7.17916 10.9474L7.11839 10.8811L5.11861 8.88129L5.05162 8.82122C4.70804 8.54146 4.20135 8.56136 3.88117 8.88129C3.53977 9.22294 3.53979 9.77708 3.88117 10.1187L4.35073 10.5883L1.60517 13.3339C0.812792 11.4154 0.476166 6.52451 3.50068 3.49996C6.52542 0.475633 11.4164 0.811996 13.3346 1.60445L10.5883 4.3507L10.1188 3.88114C9.77713 3.53978 9.22297 3.5398 8.88133 3.88114C8.56136 4.2013 8.54154 4.70799 8.82125 5.05159L8.88133 5.11857L10.8811 7.11836L10.9481 7.17844C11.2917 7.45852 11.7982 7.43846 12.1185 7.11836C12.4385 6.79807 12.4586 6.29147 12.1786 5.94791L12.1185 5.88092L11.649 5.41136L14.3952 2.66511ZM7.61834 6.38156L7.55136 6.32148C7.20769 6.04172 6.70106 6.06141 6.3809 6.38156C6.03958 6.7232 6.03957 7.27736 6.3809 7.619L8.38069 9.61878L8.44767 9.67886C8.79124 9.95892 9.29782 9.9388 9.61812 9.61878C9.9384 9.2985 9.95831 8.792 9.6782 8.44833L9.61812 8.38135L7.61834 6.38156Z" fill="#0F1621"/>
</svg>
