<svg width="24" height="24" viewBox="0 0 24 24" fill="none" xmlns="http://www.w3.org/2000/svg">
<path fill-rule="evenodd" clip-rule="evenodd" d="M5.99987 6.00017C10.3595 1.64039 17.3804 1.46327 20.1014 2.48357L14.4999 8.08611L13.7069 7.29314C13.3164 6.90276 12.6833 6.90272 12.2928 7.29314C11.9025 7.68363 11.9025 8.31672 12.2928 8.7072L15.2928 11.7072C15.6833 12.0974 16.3164 12.0975 16.7069 11.7072C17.0973 11.3168 17.0971 10.6837 16.7069 10.2931L15.9139 9.50017L21.5155 3.89763C22.5364 6.61739 22.3604 13.6395 17.9999 18.0002C13.639 22.3607 6.61683 22.5368 3.89733 21.5158L9.49987 15.9142L10.2928 16.7072C10.6833 17.0974 11.3164 17.0975 11.7069 16.7072C12.0973 16.3168 12.0971 15.6837 11.7069 15.2931L8.7069 12.2931C8.31638 11.9028 7.68332 11.9027 7.29283 12.2931C6.90253 12.6836 6.9025 13.3167 7.29283 13.7072L8.0858 14.5002L2.48326 20.1017C1.46283 17.3811 1.64008 10.3601 5.99987 6.00017ZM11.2069 9.79314C10.8164 9.40275 10.1833 9.40271 9.79283 9.79314C9.40252 10.1836 9.40249 10.8167 9.79283 11.2072L12.7928 14.2072C13.1833 14.5974 13.8165 14.5975 14.2069 14.2072C14.5973 13.8168 14.5971 13.1837 14.2069 12.7931L11.2069 9.79314Z" fill="#0F1621"/>
</svg>
