<svg width="24" height="24" viewBox="0 0 24 24" fill="none" xmlns="http://www.w3.org/2000/svg">
<path d="M9.79354 9.79221C10.184 9.40236 10.8173 9.40212 11.2076 9.79221L14.2076 12.7932C14.5977 13.1836 14.5977 13.8168 14.2076 14.2073C13.8172 14.5974 13.184 14.5974 12.7935 14.2073L9.79354 11.2073C9.40302 10.8167 9.40303 10.1827 9.79354 9.79221Z" fill="#0F1621"/>
<path fill-rule="evenodd" clip-rule="evenodd" d="M6.00057 5.99925C11.0006 0.999789 19.5006 1.50028 21.0006 3.00022C22.5003 4.50107 22.9997 12.9996 18.0006 17.9992L17.7633 18.2307C12.7367 22.9838 4.47813 22.4765 3.00057 21.0002L2.93026 20.925C1.5085 19.2627 1.09204 11.1848 5.7701 6.23753L6.00057 5.99925ZM18.4 4.10569C17.5095 3.95839 16.3319 3.91188 15.024 4.051C12.3846 4.33186 9.49481 5.33427 7.41463 7.41428C5.33452 9.49457 4.33216 12.3851 4.05135 15.0246C3.9123 16.3323 3.95877 17.5093 4.10604 18.3996C4.1098 18.4224 4.1139 18.4448 4.11776 18.467L8.08553 14.5002L7.29256 13.7073C6.90238 13.3168 6.90246 12.6837 7.29256 12.2932C7.68308 11.9027 8.31708 11.9027 8.7076 12.2932L11.7076 15.2932C12.0977 15.6837 12.0978 16.3168 11.7076 16.7073C11.3172 17.0975 10.684 17.0974 10.2935 16.7073L9.49959 15.9143L5.5328 19.8801C5.55528 19.884 5.5781 19.89 5.60116 19.8938C6.49156 20.041 7.66858 20.0885 8.97616 19.9494C11.6158 19.6686 14.5062 18.6655 16.5865 16.5852C18.6665 14.5049 19.668 11.6152 19.9488 8.97581C20.088 7.66778 20.0424 6.49036 19.8951 5.59983C19.8913 5.57699 19.8853 5.55473 19.8814 5.53245L15.9146 9.50022L16.7076 10.2932C17.0978 10.6837 17.0979 11.3168 16.7076 11.7073C16.3172 12.0977 15.6841 12.0975 15.2935 11.7073L12.2935 8.70725C11.903 8.31674 11.903 7.68372 12.2935 7.29319C12.6841 6.90279 13.3171 6.90271 13.7076 7.29319L14.4996 8.08616L18.4664 4.11741C18.4446 4.11362 18.4223 4.10938 18.4 4.10569Z" fill="#0F1621"/>
</svg>
