<svg width="24" height="24" viewBox="0 0 24 24" fill="none" xmlns="http://www.w3.org/2000/svg">
<path d="M5.99993 6.00011C10.3596 1.64033 17.3805 1.46321 20.1015 2.48351L14.4999 8.08605L13.707 7.29308C13.3164 6.9027 12.6834 6.90266 12.2929 7.29308C11.9026 7.68357 11.9026 8.31666 12.2929 8.70714L15.2929 11.7071C15.6834 12.0973 16.3165 12.0974 16.707 11.7071C17.0973 11.3167 17.0972 10.6836 16.707 10.2931L15.914 9.50011L21.5156 3.89757C22.5364 6.61732 22.3605 13.6395 17.9999 18.0001C13.639 22.3606 6.61689 22.5368 3.89739 21.5157L9.49993 15.9142L10.2929 16.7071C10.6834 17.0973 11.3165 17.0974 11.707 16.7071C12.0973 16.3167 12.0972 15.6836 11.707 15.2931L8.70696 12.2931C8.31644 11.9027 7.68338 11.9027 7.29289 12.2931C6.90259 12.6836 6.90256 13.3167 7.29289 13.7071L8.08586 14.5001L2.48332 20.1017C1.46289 17.381 1.64015 10.36 5.99993 6.00011ZM11.207 9.79308C10.8164 9.40269 10.1834 9.40265 9.79289 9.79308C9.40258 10.1836 9.40255 10.8167 9.79289 11.2071L12.7929 14.2071C13.1834 14.5973 13.8165 14.5974 14.207 14.2071C14.5973 13.8167 14.5972 13.1836 14.207 12.7931L11.207 9.79308Z" fill="#0F1621"/>
<path d="M20.9412 5.88477C21.0816 7.05454 21.0721 8.55093 20.7908 10.1611C20.3812 12.5048 19.4191 14.9679 17.656 16.9111L17.2927 17.293C15.2967 19.2888 12.6608 20.3541 10.1609 20.791C8.55064 21.0724 7.05424 21.0819 5.88452 20.9414L9.49878 17.3271L9.58569 17.4141C10.3178 18.1456 11.477 18.1923 12.2625 17.5518L12.4138 17.4141C12.9565 16.8713 13.1213 16.0947 12.9099 15.4092C13.5337 15.6013 14.2327 15.4837 14.7625 15.0518L14.9138 14.9141C15.4565 14.3713 15.6213 13.5947 15.4099 12.9092C16.0337 13.1013 16.7327 12.9837 17.2625 12.5518L17.4138 12.4141C18.146 11.6818 18.1915 10.5236 17.5515 9.73828L17.4148 9.58594H17.4138L17.3269 9.49902L20.9412 5.88477ZM13.8376 3.20898C15.4471 2.92756 16.9432 2.91653 18.113 3.05664L14.4988 6.6709L14.4138 6.58594C13.6818 5.85419 12.5236 5.80798 11.738 6.44824L11.5857 6.58594C11.0436 7.12828 10.8787 7.90451 11.0896 8.58984C10.4661 8.39798 9.76751 8.51667 9.23804 8.94824L9.08569 9.08594C8.54362 9.62828 8.37873 10.4045 8.5896 11.0898C7.96611 10.898 7.26751 11.0167 6.73804 11.4482L6.58569 11.5859C5.8539 12.3181 5.80751 13.4772 6.448 14.2627L6.58569 14.4141L6.67065 14.499L3.0564 18.1133C2.91628 16.9435 2.92728 15.4474 3.20874 13.8379C3.61855 11.4945 4.58075 9.03182 6.34351 7.08887L6.70679 6.70703C8.70221 4.71156 11.3379 3.64612 13.8376 3.20898Z" stroke="#0F1621" stroke-width="2"/>
</svg>
