<svg width="16" height="16" viewBox="0 0 16 16" fill="none" xmlns="http://www.w3.org/2000/svg">
<path d="M8.50001 2H7.50001V2.73241L2.59862 6H1V11.75C1.53223 11.75 1.95693 12.0016 2.20895 12.1508C2.23861 12.1684 2.26609 12.1847 2.29085 12.1988C2.55572 12.3502 2.7689 12.45 3.1 12.45C3.43388 12.45 3.64547 12.3512 3.98959 12.1792L4.00977 12.1691C4.36388 11.9919 4.84732 11.75 5.55 11.75C6.25268 11.75 6.73611 11.9919 7.09023 12.1691L7.11041 12.1792C7.45453 12.3512 7.66612 12.45 8 12.45C8.29868 12.45 8.50499 12.3552 8.87141 12.1762L8.87892 12.1725C9.24379 11.9942 9.74337 11.75 10.45 11.75C11.1527 11.75 11.6361 11.9919 11.9902 12.1691L12.0104 12.1792C12.3545 12.3512 12.5661 12.45 12.9 12.45C13.2311 12.45 13.4443 12.3502 13.7091 12.1988C13.734 12.1846 13.7613 12.1685 13.791 12.1509C14.043 12.0016 14.4678 11.75 15 11.75L15 12.5357V6H13.4014L8.50001 2.73241V2ZM11.5986 6H4.40139L7.50001 3.93426V5H8.50001V3.93426L11.5986 6ZM7.5 10.75V7.5H8.5V10.75H7.5ZM9.5 7.5H10.5V10.75H9.5V7.5ZM11.5 10.75V7.5H12.5V10.75H11.5ZM3.5 7.5H4.5V10.75H3.5V7.5ZM5.5 10.75V7.5H6.5V10.75H5.5Z" fill="#0E1520"/>
<path d="M1 14.25C1.10495 14.25 1.16931 14.2856 1.54665 14.5012C1.89428 14.6998 2.3811 14.95 3.1 14.95C3.80268 14.95 4.28611 14.7081 4.64023 14.5309L4.66041 14.5208C5.00453 14.3488 5.21612 14.25 5.55 14.25C5.88388 14.25 6.09547 14.3488 6.43959 14.5208L6.45977 14.5309C6.81388 14.7081 7.29732 14.95 8 14.95C8.6606 14.95 9.14264 14.7137 9.48971 14.5436L9.53002 14.5238C9.8807 14.3525 10.1115 14.25 10.45 14.25C10.7839 14.25 10.9955 14.3488 11.3396 14.5208L11.3598 14.5309C11.7139 14.7081 12.1973 14.95 12.9 14.95C13.6189 14.95 14.1057 14.6998 14.4534 14.5012C14.8307 14.2856 14.8951 14.25 15 14.25L15 12.75C14.4678 12.75 14.0431 13.0016 13.7911 13.1508C13.7614 13.1684 13.7339 13.1847 13.7091 13.1988C13.4443 13.3502 13.2311 13.45 12.9 13.45C12.5661 13.45 12.3545 13.3512 12.0104 13.1792L11.9902 13.1691C11.6361 12.9919 11.1527 12.75 10.45 12.75C9.74337 12.75 9.24379 12.9942 8.87892 13.1725L8.87141 13.1762C8.50499 13.3552 8.29868 13.45 8 13.45C7.66612 13.45 7.45453 13.3512 7.11041 13.1792L7.09023 13.1691C6.73611 12.9919 6.25268 12.75 5.55 12.75C4.84732 12.75 4.36388 12.9919 4.00977 13.1691L3.98959 13.1792C3.64547 13.3512 3.43388 13.45 3.1 13.45C2.7689 13.45 2.55572 13.3502 2.29085 13.1988C2.26603 13.1846 2.23869 13.1684 2.20895 13.1508C1.95693 13.0016 1.53223 12.75 1 12.75V14.25Z" fill="#0E1520"/>
</svg>
