<svg width="24" height="24" viewBox="0 0 24 24" fill="none" xmlns="http://www.w3.org/2000/svg">
<path d="M11 2V3.44575L3.7132 8H2V16.875C2.77621 16.875 3.39602 17.2425 3.75492 17.4554C3.79717 17.4804 3.8358 17.5033 3.87065 17.5232C4.24607 17.7377 4.54083 17.875 4.99998 17.875C5.46329 17.875 5.75567 17.7394 6.24685 17.4938L6.27671 17.4788C6.78326 17.2254 7.4834 16.875 8.49995 16.875C9.5165 16.875 10.2166 17.2254 10.7232 17.4788L10.7531 17.4938C11.2442 17.7394 11.5366 17.875 11.9999 17.875C12.4128 17.875 12.6972 17.7453 13.2213 17.4892L13.2332 17.4834C13.755 17.2284 14.478 16.875 15.4999 16.875C16.5165 16.875 17.2166 17.2254 17.7231 17.4788L17.753 17.4938C18.2442 17.7394 18.5366 17.875 18.9999 17.875C19.459 17.875 19.7538 17.7378 20.1292 17.5232C20.1641 17.5033 20.2027 17.4804 20.2449 17.4554C20.6038 17.2425 21.2236 16.875 21.9998 16.875L22 8H20.2868L13 3.44575V2H11ZM7.4868 8L11 5.80425V7H13V5.80425L16.5132 8H7.4868ZM5 10H7V15H5V10ZM11 10H13V15H11V10ZM14 10H16V15H14V10ZM17 15V10H19V15H17ZM8 15V10H10V15H8Z" fill="#0E1520"/>
<path d="M2 21C2.17194 21 2.28239 21.0631 2.80431 21.3614L2.81635 21.3682C3.30903 21.6498 3.99146 22 4.99998 22C5.98683 22 6.66476 21.6608 7.16976 21.4081L7.19718 21.3944C7.68934 21.1483 8.00479 21 8.49995 21C8.99512 21 9.31057 21.1483 9.80273 21.3944L9.83015 21.4081C10.3352 21.6608 11.0131 22 11.9999 22C12.9268 22 13.6025 21.6688 14.0982 21.4259L14.1543 21.3984C14.656 21.1533 14.9986 21 15.4999 21C15.9951 21 16.3105 21.1483 16.8027 21.3944L16.8301 21.4081C17.3351 21.6608 18.013 22 18.9999 22C20.0084 22 20.6908 21.6498 21.1835 21.3682L21.1956 21.3614C21.7175 21.0631 21.8279 21 21.9999 21L21.9998 19C21.2606 19 20.6714 19.3485 20.3099 19.5623C20.2671 19.5876 20.2275 19.611 20.1912 19.6318C19.8089 19.8502 19.4913 20 18.9999 20C18.5047 20 18.1893 19.8517 17.6971 19.6056L17.6697 19.5919C17.1647 19.3392 16.4868 19 15.4999 19C14.507 19 13.8057 19.3427 13.2852 19.5971L13.2762 19.6015C12.7535 19.857 12.4451 20 11.9999 20C11.5048 20 11.1893 19.8516 10.6972 19.6056L10.6697 19.5919C10.1647 19.3392 9.4868 19 8.49995 19C7.5131 19 6.83517 19.3392 6.33017 19.5919L6.30275 19.6056C5.81059 19.8516 5.49514 20 4.99998 20C4.50851 20 4.19095 19.8502 3.80863 19.6318C3.77236 19.611 3.73277 19.5876 3.68999 19.5623C3.32852 19.3485 2.73922 19 2 19V21Z" fill="#0E1520"/>
</svg>
