<svg width="24" height="24" viewBox="0 0 24 24" fill="none" xmlns="http://www.w3.org/2000/svg">
<path d="M11 2.81249V2H13V2.81251L19.9167 8H22L21.9999 21C21.8279 21 21.7175 21.0631 21.1956 21.3614L21.1835 21.3682C20.6908 21.6498 20.0084 22 18.9999 22C18.013 22 17.3351 21.6608 16.8301 21.4081L16.8027 21.3944C16.3105 21.1483 15.9951 21 15.4999 21C14.9986 21 14.656 21.1533 14.1543 21.3984L14.0982 21.4259C13.6025 21.6688 12.9268 22 11.9999 22C11.0131 22 10.3352 21.6608 9.83015 21.4081L9.80273 21.3944C9.31057 21.1483 8.99512 21 8.49995 21C8.00479 21 7.68934 21.1483 7.19718 21.3944L7.16976 21.4081C6.66476 21.6608 5.98683 22 4.99998 22C3.99146 22 3.30903 21.6498 2.81635 21.3682L2.80431 21.3614C2.28239 21.0631 2.17194 21 2 21V19C2.73922 19 3.32849 19.3485 3.68995 19.5623L3.69082 19.5628C3.73328 19.5879 3.77259 19.6112 3.80863 19.6318C4.19095 19.8502 4.50851 20 4.99998 20C5.49514 20 5.81059 19.8516 6.30275 19.6056L6.33017 19.5919C6.83517 19.3392 7.5131 19 8.49995 19C9.4868 19 10.1647 19.3392 10.6697 19.5919L10.6972 19.6056C11.1893 19.8516 11.5048 20 11.9999 20C12.4451 20 12.7535 19.857 13.2762 19.6015L13.2852 19.5971C13.8057 19.3427 14.507 19 15.4999 19C16.4868 19 17.1647 19.3392 17.6697 19.5919L17.6971 19.6056C18.1893 19.8517 18.5047 20 18.9999 20C19.4913 20 19.8089 19.8502 20.1912 19.6318C20.2275 19.611 20.2671 19.5876 20.3099 19.5623C20.6714 19.3485 21.2606 19 21.9998 19L21.9998 16.875C21.2236 16.875 20.6038 17.2425 20.2449 17.4554C20.2027 17.4804 20.1641 17.5033 20.1292 17.5232C20.0852 17.5484 20.0422 17.5725 20 17.5954V10H4V17.5955C3.95773 17.5726 3.91474 17.5484 3.87065 17.5232C3.8358 17.5033 3.79717 17.4804 3.75492 17.4554C3.39602 17.2425 2.77621 16.875 2 16.875V8H4.08332L11 2.81249ZM6.58332 8H17.4167L13 4.68751V6H11V4.68749L6.58332 8Z" fill="#0E1520"/>
<path d="M11 16V11H13V16H11Z" fill="#0E1520"/>
<path d="M14 11V16H16V11H14Z" fill="#0E1520"/>
<path d="M17 16V11H19V16H17Z" fill="#0E1520"/>
<path d="M5 11V16H7V11H5Z" fill="#0E1520"/>
<path d="M8 16V11H10V16H8Z" fill="#0E1520"/>
</svg>
