<svg width="24" height="24" viewBox="0 0 24 24" fill="none" xmlns="http://www.w3.org/2000/svg">
<path d="M11 2V2.81249L4.08332 8H2V16.875C2.77621 16.875 3.39602 17.2425 3.75492 17.4554C3.79717 17.4804 3.8358 17.5033 3.87065 17.5232C4.24607 17.7377 4.54083 17.875 4.99998 17.875C5.46329 17.875 5.75567 17.7394 6.24685 17.4938L6.27671 17.4788C6.78326 17.2254 7.4834 16.875 8.49995 16.875C9.5165 16.875 10.2166 17.2254 10.7232 17.4788L10.7531 17.4938C11.2442 17.7394 11.5366 17.875 11.9999 17.875C12.4128 17.875 12.6972 17.7453 13.2213 17.4892L13.2332 17.4834C13.755 17.2284 14.478 16.875 15.4999 16.875C16.5165 16.875 17.2166 17.2254 17.7231 17.4788L17.753 17.4938C18.2442 17.7394 18.5366 17.875 18.9999 17.875C19.459 17.875 19.7538 17.7378 20.1292 17.5232C20.1641 17.5033 20.2027 17.4804 20.2449 17.4554C20.6038 17.2425 21.2236 16.875 21.9998 16.875L21.9999 18L22 8H19.9167L13 2.81251V2H11ZM6.58332 8L11 4.68749V6H13V4.68751L17.4167 8H6.58332ZM5 10H7V15H5V10ZM11 10H13V15H11V10ZM14 10H16V15H14V10ZM17 15V10H19V15H17ZM8 15V10H10V15H8Z" fill="#0E1520"/>
<path d="M2.80431 21.3614C2.28239 21.0631 2.17194 21 2 21V19C2.73922 19 3.32849 19.3485 3.68995 19.5623C3.73273 19.5876 3.77236 19.611 3.80863 19.6318C4.19095 19.8502 4.50851 20 4.99998 20C5.49514 20 5.81059 19.8516 6.30275 19.6056L6.33017 19.5919C6.83517 19.3392 7.5131 19 8.49995 19C9.4868 19 10.1647 19.3392 10.6697 19.5919L10.6972 19.6056C11.1893 19.8516 11.5048 20 11.9999 20C12.4451 20 12.7535 19.857 13.2762 19.6015L13.2852 19.5971C13.8057 19.3427 14.507 19 15.4999 19C16.4868 19 17.1647 19.3392 17.6697 19.5919L17.6971 19.6056C18.1893 19.8517 18.5047 20 18.9999 20C19.4913 20 19.8089 19.8502 20.1912 19.6318C20.2275 19.611 20.2671 19.5876 20.3099 19.5623C20.6714 19.3485 21.2606 19 21.9998 19L21.9999 21C21.8279 21 21.7175 21.0631 21.1956 21.3614L21.1835 21.3682C20.6908 21.6498 20.0084 22 18.9999 22C18.013 22 17.3351 21.6608 16.8301 21.4081L16.8027 21.3944C16.3105 21.1483 15.9951 21 15.4999 21C14.9986 21 14.656 21.1533 14.1543 21.3984L14.0982 21.4259C13.6025 21.6688 12.9268 22 11.9999 22C11.0131 22 10.3352 21.6608 9.83015 21.4081L9.80273 21.3944C9.31057 21.1483 8.99512 21 8.49995 21C8.00479 21 7.68934 21.1483 7.19718 21.3944L7.16976 21.4081C6.66476 21.6608 5.98683 22 4.99998 22C3.99146 22 3.30903 21.6498 2.81635 21.3682L2.80431 21.3614Z" fill="#0E1520"/>
</svg>
