<svg width="16" height="16" viewBox="0 0 16 16" fill="none" xmlns="http://www.w3.org/2000/svg">
<path fill-rule="evenodd" clip-rule="evenodd" d="M8.50001 1H7.50001V1.73241L2.59862 5H1V10.75C1.53223 10.75 1.95693 11.0016 2.20895 11.1508C2.23861 11.1684 2.26609 11.1847 2.29085 11.1988C2.55572 11.3502 2.7689 11.45 3.1 11.45C3.43388 11.45 3.64547 11.3512 3.98959 11.1792L4.00977 11.1691C4.36388 10.9919 4.84732 10.75 5.55 10.75C6.25268 10.75 6.73611 10.9919 7.09023 11.1691L7.11041 11.1792C7.45453 11.3512 7.66612 11.45 8 11.45C8.29868 11.45 8.50499 11.3552 8.87141 11.1762L8.87892 11.1725C9.24379 10.9942 9.74337 10.75 10.45 10.75C11.1527 10.75 11.6361 10.9919 11.9902 11.1691L12.0104 11.1792C12.3545 11.3512 12.5661 11.45 12.9 11.45C13.2311 11.45 13.4443 11.3502 13.7091 11.1988C13.734 11.1846 13.7613 11.1685 13.791 11.1509C14.043 11.0016 14.4678 10.75 15 10.75L15 11.5357V5H13.4014L8.50001 1.73241V1ZM11.5986 5H4.40139L7.50001 2.93426V4H8.50001V2.93426L11.5986 5ZM7.5 9.75V6.5H8.5V9.75H7.5ZM9.5 6.5V9.75H10.5V6.5H9.5ZM11.5 9.75V6.5H12.5V9.75H11.5ZM3.5 6.5V9.75H4.5V6.5H3.5ZM5.5 9.75V6.5H6.5V9.75H5.5Z" fill="#0E1520"/>
<path d="M1 13.25C1.10495 13.25 1.16931 13.2856 1.54665 13.5012C1.89428 13.6998 2.3811 13.95 3.1 13.95C3.80268 13.95 4.28611 13.7081 4.64023 13.5309L4.66041 13.5208C5.00453 13.3488 5.21612 13.25 5.55 13.25C5.88388 13.25 6.09547 13.3488 6.43959 13.5208L6.45977 13.5309C6.81388 13.7081 7.29732 13.95 8 13.95C8.6606 13.95 9.14264 13.7137 9.48971 13.5436L9.53002 13.5238C9.8807 13.3525 10.1115 13.25 10.45 13.25C10.7839 13.25 10.9955 13.3488 11.3396 13.5208L11.3598 13.5309C11.7139 13.7081 12.1973 13.95 12.9 13.95C13.6189 13.95 14.1057 13.6998 14.4534 13.5012C14.8307 13.2856 14.8951 13.25 15 13.25L15 11.75C14.4678 11.75 14.0431 12.0016 13.7911 12.1508C13.7614 12.1684 13.7339 12.1847 13.7091 12.1988C13.4443 12.3502 13.2311 12.45 12.9 12.45C12.5661 12.45 12.3545 12.3512 12.0104 12.1792L11.9902 12.1691C11.6361 11.9919 11.1527 11.75 10.45 11.75C9.74337 11.75 9.24379 11.9942 8.87892 12.1725L8.87141 12.1762C8.50499 12.3552 8.29868 12.45 8 12.45C7.66612 12.45 7.45453 12.3512 7.11041 12.1792L7.09023 12.1691C6.73611 11.9919 6.25268 11.75 5.55 11.75C4.84732 11.75 4.36388 11.9919 4.00977 12.1691L3.98959 12.1792C3.64547 12.3512 3.43388 12.45 3.1 12.45C2.7689 12.45 2.55572 12.3502 2.29085 12.1988C2.26603 12.1846 2.23869 12.1684 2.20895 12.1508C1.95693 12.0016 1.53223 11.75 1 11.75V13.25Z" fill="#0E1520"/>
</svg>
