<svg width="16" height="16" viewBox="0 0 16 16" fill="none" xmlns="http://www.w3.org/2000/svg">
<path d="M1 11.5V5.56636C1 5.26561 1.2636 5.03292 1.56203 5.07023L3.04843 5.25605C4.08469 5.3856 5 4.57759 5 3.53326C5 2.85849 5.73613 2.4417 6.31474 2.78887L8.0871 3.85229L6.46967 5.46972C6.17678 5.76261 6.17678 6.23749 6.46967 6.53038C6.76257 6.82327 7.23744 6.82327 7.53033 6.53038L9.41293 4.64779L10.5871 5.35228L9.46967 6.4697C9.17678 6.76259 9.17678 7.23747 9.46967 7.53036C9.76256 7.82325 10.2374 7.82325 10.5303 7.53036L11.9129 6.14778L13.5435 7.12612C14.4471 7.66829 15 8.64481 15 9.6986V11.5001C15 12.3285 14.3284 13.0001 13.5 13.0001L2.49999 13C1.67157 13 1 12.3285 1 11.5ZM2 9.00006V11.0001H8L7.55279 10.1056C7.214 9.42807 6.52148 9.00006 5.76393 9.00006H2Z" fill="#0F1621"/>
</svg>
