<svg width="24" height="24" viewBox="0 0 24 24" fill="none" xmlns="http://www.w3.org/2000/svg">
<path d="M2 18.5001V8.64044C2 8.31515 2.30569 8.07647 2.62127 8.15536L5.51493 8.87878C6.77722 9.19435 8 8.23964 8 6.9385V5.83171C8 5.04055 8.87525 4.56271 9.54076 4.99054L12.6174 6.96837L10.2928 9.29293C9.90232 9.68345 9.90232 10.3166 10.2928 10.7071C10.6834 11.0977 11.3165 11.0977 11.7071 10.7071L14.339 8.07515L15.6609 8.9249L14.2929 10.2929C13.9024 10.6834 13.9024 11.3166 14.2929 11.7071C14.6834 12.0976 15.3166 12.0976 15.7071 11.7071L17.3825 10.0317L20.6223 12.1144C21.4809 12.6664 22 13.6171 22 14.6379V18.5001C22 19.3286 21.3284 20.0001 20.5 20.0001L3.49999 20.0001C2.67157 20.0001 2 19.3285 2 18.5001ZM3.5001 14.0001V17.0001H12.0001L10.5938 14.8907C10.2229 14.3343 9.59844 14.0001 8.92974 14.0001H3.5001Z" fill="#0F1621"/>
</svg>
