<svg width="24" height="24" viewBox="0 0 24 24" fill="none" xmlns="http://www.w3.org/2000/svg">
<path d="M22 14.1321C22 13.0804 21.4493 12.1055 20.5485 11.5627L9.51618 4.91375C8.84969 4.51207 8 4.99206 8 5.77023V6.63326C8 7.92224 6.79859 8.87463 5.54362 8.58049L2.6141 7.89389C2.30035 7.82036 2 8.05845 2 8.3807V18.4999C2 19.3283 2.67157 19.9999 3.49999 19.9999L20.5 20C21.3284 20 22 19.3284 22 18.5V14.1321ZM20 14.1321V16H12L10.5937 13.8906C10.2228 13.3342 9.59834 13 8.92963 13H4V10.2729L5.08724 10.5277C7.31102 11.0489 9.45072 9.61315 9.9097 7.48605L11.9001 8.68561L10.2929 10.2928C9.90237 10.6833 9.90237 11.3165 10.2929 11.707C10.6834 12.0975 11.3166 12.0975 11.7071 11.707L13.6649 9.74923L15.0199 10.5659L14.2929 11.2929C13.9024 11.6834 13.9024 12.3166 14.2929 12.7071C14.6834 13.0976 15.3166 13.0976 15.7071 12.7071L16.7848 11.6295L19.5162 13.2756C19.8164 13.4566 20 13.7816 20 14.1321Z" fill="#0F1621"/>
</svg>
