<svg width="24" height="25" viewBox="0 0 24 25" fill="none" xmlns="http://www.w3.org/2000/svg">
<g clip-path="url(#clip0)">
<path d="M17 8.06006V6.06006C17 4.36006 15.7 3.06006 14 3.06006H10C8.3 3.06006 7 4.36006 7 6.06006V8.06006H3L3.8 19.4601C3.8 20.3601 4.6 21.0601 5.6 21.0601H18.4C19.3 21.0601 20.1 20.3601 20.2 19.4601L21 8.06006H17ZM9 6.06006C9 5.56006 9.5 5.06006 10 5.06006H14C14.5 5.06006 15 5.56006 15 6.06006V8.06006H9V6.06006ZM18.2 19.0601H5.8L5.1 10.0601H18.8L18.2 19.0601Z" fill="#0F1621"/>
</g>
<defs>
<clipPath id="clip0">
<rect width="18" height="18" fill="white" transform="translate(3 3.06006)"/>
</clipPath>
</defs>
</svg>
