<svg width="16" height="16" viewBox="0 0 16 16" fill="none" xmlns="http://www.w3.org/2000/svg">
<path d="M11.3335 5.33333L11.1335 4C11.0843 3.45981 10.8373 2.95685 10.4398 2.58771C10.0424 2.21857 9.52256 2.00927 8.98021 2H7.02021C6.47787 2.00927 5.95806 2.21857 5.56062 2.58771C5.16317 2.95685 4.91611 3.45981 4.86688 4L4.70021 5.33333H2.22021L2.60021 12.7333C2.61733 13.0753 2.76533 13.3975 3.01355 13.6333C3.26177 13.8691 3.59118 14.0004 3.93355 14H12.0669C12.4093 14.0004 12.7387 13.8691 12.9869 13.6333C13.2351 13.3975 13.3831 13.0753 13.4002 12.7333L13.7802 5.33333H11.3335ZM6.18688 4.13333C6.20455 3.92138 6.29896 3.72316 6.45238 3.57587C6.60581 3.42858 6.80772 3.34234 7.02021 3.33333H8.98021C9.19271 3.34234 9.39462 3.42858 9.54804 3.57587C9.70147 3.72316 9.79588 3.92138 9.81355 4.13333L9.92688 5.26667C9.93623 5.35965 9.92592 5.45356 9.89663 5.5423C9.86734 5.63105 9.81971 5.71264 9.75685 5.78179C9.69399 5.85094 9.61729 5.9061 9.53173 5.94369C9.44617 5.98128 9.35367 6.00047 9.26021 6H6.74021C6.64676 6.00047 6.55426 5.98128 6.4687 5.94369C6.38314 5.9061 6.30644 5.85094 6.24358 5.78179C6.18072 5.71264 6.13309 5.63105 6.1038 5.5423C6.07451 5.45356 6.0642 5.35965 6.07355 5.26667L6.18688 4.13333Z" fill="#0F1621"/>
</svg>
