<svg width="16" height="16" viewBox="0 0 16 16" fill="none" xmlns="http://www.w3.org/2000/svg">
<path d="M8.81385 2.16876L8.00012 1.02953L7.18638 2.16876C6.06361 3.74064 4.59371 4.70795 3.38267 5.28464C2.77955 5.57184 2.24972 5.75772 1.87515 5.87079C1.68823 5.92722 1.54107 5.96519 1.4441 5.9884C1.39566 5.99999 1.35985 6.00787 1.338 6.01251L1.3159 6.01708C1.31622 6.01702 1.3158 6.01712 1.50009 7C1.68438 7.98287 1.68474 7.9828 1.68512 7.98273L1.68793 7.9822L1.69296 7.98123L1.70738 7.97839C1.71891 7.97609 1.73425 7.97296 1.75324 7.96893C1.79121 7.96087 1.84378 7.94922 1.90959 7.93347C2.04115 7.90199 2.22601 7.85402 2.45316 7.78545C2.90672 7.64853 3.53315 7.42816 4.24253 7.09036C5.39087 6.54353 6.78072 5.67723 8.00011 4.33821C9.2195 5.67723 10.6093 6.54353 11.7577 7.09036C12.4671 7.42816 13.0935 7.64853 13.547 7.78545C13.7742 7.85402 13.9591 7.90199 14.0906 7.93347C14.1564 7.94922 14.209 7.96087 14.247 7.96893C14.266 7.97296 14.2813 7.97609 14.2928 7.97839L14.3072 7.98123L14.3123 7.9822L14.3142 7.98257C14.3146 7.98264 14.3158 7.98287 14.5001 7C14.6844 6.01712 14.6847 6.01719 14.6851 6.01725L14.6622 6.01251C14.6404 6.00787 14.6045 5.99999 14.5561 5.9884C14.4591 5.96519 14.312 5.92722 14.1251 5.87079C13.7505 5.75772 13.2207 5.57184 12.6175 5.28464C11.4065 4.70795 9.93661 3.74065 8.81385 2.16876Z" fill="#0E1520"/>
<path d="M6.00005 9H4.00005V15H12V9H10V13H6.00005V9Z" fill="#0E1520"/>
</svg>
