<svg width="24" height="24" viewBox="0 0 24 24" fill="none" xmlns="http://www.w3.org/2000/svg">
<path fill-rule="evenodd" clip-rule="evenodd" d="M12.0283 2.23981L12.832 3.44531C14.118 5.37437 16.2994 6.77783 18.2566 7.71159C19.2216 8.17196 20.1022 8.50421 20.7405 8.72088C21.0591 8.82902 21.3158 8.90787 21.4906 8.9591C21.578 8.9847 21.6448 9.00337 21.6885 9.01532L21.7364 9.02823L21.7467 9.03094L21.7481 9.03129C21.7481 9.03129 21.7477 9.03119 21.4999 10C21.2522 10.9688 21.2516 10.9687 21.2516 10.9687L21.249 10.968L21.2435 10.9666L21.2252 10.9618C21.2165 10.9595 21.2058 10.9566 21.1931 10.9532C21.1835 10.9506 21.1728 10.9477 21.161 10.9445C21.1062 10.9295 21.0277 10.9076 20.9282 10.8784C20.7292 10.8201 20.4455 10.7328 20.0977 10.6147C19.4031 10.379 18.4468 10.0183 17.3954 9.51668C15.6496 8.68378 13.5548 7.42178 11.9909 5.62811C10.2011 7.70319 8.06952 9.00081 6.31727 9.79414C5.29933 10.255 4.39873 10.5507 3.74844 10.732C3.42289 10.8227 3.15888 10.8852 2.97281 10.9255C2.87973 10.9457 2.80605 10.9603 2.75378 10.9702C2.72765 10.9752 2.70686 10.979 2.69167 10.9817L2.67312 10.9849L2.66705 10.9859L2.66483 10.9863C2.66483 10.9863 2.66315 10.9866 2.49993 10C2.3367 9.01342 2.33607 9.01352 2.33607 9.01352L2.34232 9.01242L2.38063 9.00535C2.41674 8.9985 2.4736 8.98724 2.54921 8.97085C2.70052 8.93806 2.92649 8.88484 3.21133 8.80543C3.78183 8.64637 4.58368 8.38359 5.49237 7.97218C7.31552 7.14675 9.52619 5.74278 11.1862 3.41877L12.0283 2.23981Z" fill="#0E1520"/>
<path fill-rule="evenodd" clip-rule="evenodd" d="M5.99988 12H7.99988V20H15.9999V12H17.9999V22H5.99988V12Z" fill="#0E1520"/>
</svg>
