<svg width="24" height="24" viewBox="0 0 24 24" fill="none" xmlns="http://www.w3.org/2000/svg">
<path d="M20.62 6.84L21.62 5.09C21.7467 4.85953 21.8268 4.60636 21.8557 4.34494C21.8846 4.08352 21.8617 3.81896 21.7883 3.56639C21.715 3.31381 21.5926 3.07816 21.4282 2.87288C21.2637 2.66761 21.0605 2.49673 20.83 2.37C20.5995 2.24328 20.3464 2.16319 20.0849 2.1343C19.8235 2.10542 19.559 2.12831 19.3064 2.20167C19.0538 2.27503 18.8182 2.39742 18.6129 2.56185C18.4076 2.72628 18.2367 2.92953 18.11 3.16L17.11 4.92L20.62 6.84ZM18.36 19.28C18.2972 19.3958 18.2121 19.498 18.1097 19.5809C18.0073 19.6637 17.8895 19.7255 17.7631 19.7626C17.6368 19.7998 17.5043 19.8116 17.3733 19.7975C17.2424 19.7833 17.1155 19.7434 17 19.68L11.74 16.79L13.91 15.66C14.2205 15.5022 14.4844 15.266 14.6756 14.9748C14.8668 14.6837 14.9786 14.3477 15 14V12.92L10.62 10.51L12.29 13.71L9.09 15.38L3 12L2 13.73L16 21.43C16.3425 21.6289 16.7218 21.7563 17.115 21.8045C17.5081 21.8527 17.9069 21.8207 18.2874 21.7104C18.6678 21.6001 19.0219 21.4138 19.3283 21.1628C19.6347 20.9118 19.887 20.6013 20.07 20.25L18.36 19.28ZM20.45 11.28L17 9.38L18 7.63L14.4 5.71L11.69 6.5L6.43 3.61L5.43 5.36L19.43 13.06L20.45 11.28Z" fill="#0F1621"/>
</svg>
