<svg width="16" height="16" viewBox="0 0 16 16" fill="none" xmlns="http://www.w3.org/2000/svg">
<path d="M13.58 4.05998L14.2467 2.89998C14.3315 2.74752 14.3532 2.56788 14.3071 2.39962C14.2609 2.23136 14.1507 2.08788 14 1.99998L13.42 1.66664C13.2669 1.57973 13.0857 1.55688 12.9158 1.6031C12.746 1.64931 12.6013 1.76082 12.5133 1.91331L11.5133 3.64664L12.0933 3.97331L12.6667 4.30664C12.7428 4.35072 12.8268 4.37931 12.914 4.39077C13.0012 4.40222 13.0898 4.39632 13.1747 4.37339C13.2596 4.35046 13.3391 4.31097 13.4087 4.25718C13.4782 4.20339 13.5365 4.13637 13.58 4.05998ZM12.9133 13.28C12.3467 13.6 12.0933 13.58 11.72 13.36L7.66667 11.0466L10 9.67998L9.33334 7.40664L6.46667 5.75331L7.95334 8.51998L6.22001 10.22L2.46001 8.06664L1.67334 8.76664L11.2133 14.22C11.5105 14.3923 11.8553 14.464 12.1965 14.4243C12.5377 14.3847 12.857 14.2358 13.1067 14L12.9133 13.28ZM13.66 7.94664L11.9267 6.95331L11.8667 5.00664L9.62001 3.71998C9.51866 3.66146 9.4037 3.63066 9.28667 3.63066C9.16965 3.63066 9.05469 3.66146 8.95334 3.71998L7.87334 4.66664L4.40001 2.66664L3.90667 3.53331L13.1667 8.82664L13.66 7.94664Z" fill="#0F1621"/>
</svg>
