<svg width="16" height="16" viewBox="0 0 16 16" fill="none" xmlns="http://www.w3.org/2000/svg">
<path d="M4.4996 1.93781L4.81607 1.76525C4.92327 1.71039 5.03139 1.65855 5.14013 1.60973C5.17551 1.59385 5.21172 1.58003 5.24725 1.56479C5.32229 1.53259 5.39695 1.50016 5.47261 1.47076C5.50283 1.45904 5.53349 1.44857 5.56379 1.43729C5.64662 1.40643 5.72972 1.37723 5.81317 1.34969C5.83119 1.34375 5.84919 1.3378 5.86724 1.33201C5.96348 1.30113 6.06004 1.27244 6.15696 1.24593C6.17319 1.2415 6.18935 1.23682 6.20559 1.23251C6.30133 1.20707 6.39745 1.18438 6.49369 1.16315C6.5117 1.15919 6.52964 1.15498 6.54766 1.15116C6.64236 1.13107 6.73727 1.11339 6.83232 1.09733C6.85701 1.09316 6.88168 1.0889 6.90639 1.085C6.99165 1.07155 7.07701 1.0602 7.16242 1.04995C7.17707 1.04819 7.1916 1.04548 7.20625 1.04382C7.7382 0.983458 8.27224 0.985569 8.79765 1.0463C8.81168 1.04792 8.82641 1.05034 8.84043 1.05205C8.9266 1.06254 9.01247 1.07454 9.09811 1.08821C9.13397 1.09393 9.16976 1.09998 9.20551 1.10626C9.27966 1.11927 9.35358 1.13314 9.42725 1.14852C9.4656 1.15653 9.50386 1.16491 9.54207 1.17356C9.62474 1.19227 9.70703 1.21233 9.78895 1.234C9.80765 1.23895 9.82633 1.24391 9.84498 1.24901C9.93541 1.27373 10.0251 1.30078 10.1145 1.32909C10.1373 1.33633 10.1604 1.34287 10.1831 1.35034C10.2661 1.37755 10.348 1.40762 10.4299 1.43791C10.4546 1.44705 10.4796 1.45553 10.5042 1.46496C10.5882 1.49711 10.6716 1.53093 10.7544 1.56632C10.7757 1.57546 10.7973 1.58417 10.8186 1.59353C12.1357 2.17188 13.2874 3.15872 14.0618 4.49999L14.2343 4.81646C15.9212 8.11325 14.7431 12.1895 11.4996 14.0622L11.1831 14.2347C10.1244 14.7764 8.98523 15.0211 7.86446 14.9983L7.8641 14.9997C7.84712 14.9993 7.83018 14.9979 7.81321 14.9975C7.76479 14.9961 7.71642 14.9945 7.66808 14.9922C7.61105 14.9894 7.55413 14.9856 7.49724 14.9814C7.46869 14.9793 7.44009 14.9781 7.41158 14.9756C7.32374 14.9681 7.23611 14.9589 7.14872 14.9481L7.11479 14.944C7.07686 14.9391 7.03917 14.9327 7.00134 14.9272C6.96098 14.9213 6.92061 14.9156 6.88037 14.9091C6.27206 14.8102 5.67894 14.6309 5.1163 14.3771C5.10461 14.3718 5.09289 14.3666 5.08123 14.3612C3.90777 13.8241 2.87116 12.9606 2.12521 11.8077L1.93743 11.5C1.78231 11.2313 1.64909 10.9558 1.53319 10.6768C1.52323 10.6528 1.51274 10.6291 1.50307 10.6051C1.4681 10.5182 1.43504 10.4309 1.40379 10.3433C1.39555 10.3202 1.38749 10.297 1.3795 10.2739C1.34659 10.1784 1.31641 10.0824 1.28786 9.98623C1.28185 9.966 1.2756 9.94587 1.26978 9.92562C1.1478 9.50053 1.06719 9.0696 1.02796 8.63764C1.02533 8.60876 1.02198 8.57996 1.01971 8.55107C0.987494 8.13937 0.994119 7.72764 1.03421 7.32034C1.0557 7.10105 1.08789 6.88337 1.12978 6.66751C1.1833 6.39223 1.25004 6.11962 1.33595 5.85273C1.37257 5.73893 1.41279 5.62625 1.45521 5.51437L1.4569 5.51339C1.73178 4.78887 2.1258 4.10667 2.63295 3.50154C2.65343 3.4771 2.67562 3.45409 2.69646 3.42991C2.77871 3.33447 2.86438 3.24166 2.95225 3.15029C3.12957 2.96591 3.31812 2.79028 3.51788 2.62414C3.5519 2.59584 3.58483 2.56614 3.61949 2.53841C3.63537 2.52571 3.65201 2.51395 3.66802 2.50137C3.92799 2.2971 4.20494 2.10794 4.4996 1.93781ZM7.34262 11.4871L8.728 13.4511C9.42047 13.3588 10.107 13.1341 10.7496 12.7631C11.4517 12.3578 12.0289 11.8198 12.4715 11.2006L11.7575 9.2178L10.0828 8.60823L7.58116 10.0526L7.34262 11.4871ZM9.60182 5.39815L10.302 7.62465L11.9646 8.22883L13.462 7.35754C13.3774 6.63591 13.1491 5.91918 12.7627 5.24999C12.5417 4.8672 12.2804 4.5223 11.9892 4.21487L10.6044 4.22843L9.60182 5.39815ZM2.92257 10.1126C3.01277 10.3286 3.11631 10.5419 3.23646 10.75C3.55954 11.3096 3.96698 11.7899 4.43222 12.1863L6.36195 11.2944L6.6026 9.84398L4.97764 8.07243L3.76997 8.34005L2.92257 10.1126ZM4.06856 4.15215C3.38816 4.84652 2.91579 5.69946 2.67757 6.61399L3.46277 7.38414L4.82412 7.08192L5.73554 5.07851L5.26776 4.2683L4.06856 4.15215ZM6.16016 3.81397L6.58887 4.55652L8.82054 4.77346L9.7372 3.70296L9.3736 2.67474C8.50438 2.45043 7.58047 2.43761 6.68495 2.65849L6.16016 3.81397Z" fill="#0F1621"/>
</svg>
