<svg width="24" height="24" viewBox="0 0 24 24" fill="none" xmlns="http://www.w3.org/2000/svg">
<path d="M11.9995 1.99976C11.662 1.99977 11.3284 2.01689 10.9995 2.04956C10.7301 2.07632 10.4643 2.11607 10.2017 2.16382C10.1257 2.17762 10.0495 2.18933 9.97412 2.20483C9.90665 2.21873 9.83992 2.23548 9.77295 2.25073C9.67326 2.27341 9.57363 2.29541 9.4751 2.32104C9.4164 2.33633 9.35857 2.35453 9.30029 2.37085C9.19093 2.40145 9.08193 2.43236 8.97412 2.46655C8.9319 2.47996 8.89012 2.4946 8.84814 2.50854C8.73035 2.54764 8.61337 2.58828 8.49756 2.63159C8.44248 2.65222 8.38811 2.67448 8.3335 2.69604C8.23786 2.73376 8.14251 2.7717 8.04834 2.81226C7.98004 2.84171 7.91272 2.87313 7.84521 2.90405C7.7597 2.94318 7.67454 2.98272 7.59033 3.02417C7.53126 3.05328 7.47296 3.08377 7.41455 3.11401C7.31597 3.16499 7.21821 3.21712 7.12158 3.27124C7.08684 3.29072 7.05255 3.31093 7.01807 3.33081C6.90991 3.3931 6.80234 3.45604 6.69678 3.52222C6.65569 3.548 6.61539 3.57496 6.57471 3.60132C6.46849 3.67008 6.36365 3.74061 6.26025 3.81323C6.23697 3.82961 6.21406 3.84647 6.19092 3.86304C6.07144 3.94849 5.95386 4.03621 5.83838 4.12671C5.82742 4.13531 5.8161 4.14345 5.80518 4.1521C4.09306 5.50547 2.83497 7.40576 2.29443 9.59058C2.28429 9.63139 2.27576 9.67262 2.26611 9.71362C2.23967 9.82665 2.21349 9.93997 2.19092 10.0544C2.18237 10.0975 2.17645 10.1411 2.16846 10.1843C2.14747 10.2987 2.12595 10.4133 2.10889 10.5291C2.10392 10.5625 2.09985 10.5961 2.09521 10.6296C2.0776 10.7582 2.06102 10.8873 2.04834 11.0173C2.01651 11.3405 1.99952 11.6682 1.99951 11.9998C1.99952 12.2753 2.01369 12.5483 2.03564 12.8181C2.33463 16.5085 4.63599 19.6298 7.85303 21.0984C7.89449 21.1173 7.93626 21.1356 7.97803 21.1541C8.06181 21.1909 8.14599 21.2269 8.23096 21.2615C8.27342 21.2788 8.31614 21.2955 8.35889 21.3123C8.64019 21.4223 8.92718 21.5206 9.22021 21.6052C9.27608 21.6214 9.33192 21.6378 9.38818 21.6531C9.4656 21.674 9.54343 21.6936 9.62158 21.7126C9.6945 21.7305 9.76777 21.7472 9.84131 21.7634C9.90819 21.7781 9.9751 21.793 10.0425 21.8064C10.1786 21.8335 10.3156 21.8581 10.4536 21.8796C10.49 21.8853 10.5265 21.89 10.563 21.8953C10.685 21.9129 10.8077 21.928 10.9312 21.9412C10.9718 21.9455 11.0125 21.9491 11.0532 21.9529C11.1699 21.9639 11.287 21.9733 11.4048 21.9802C11.4448 21.9826 11.4848 21.9852 11.5249 21.9871C11.6816 21.9944 11.8391 21.9987 11.9976 21.9988L11.9995 21.9998L12.0005 21.9988C16.0606 21.9982 19.5537 19.5777 21.1196 16.1013C21.1327 16.0723 21.1468 16.0436 21.1597 16.0144C21.2004 15.9215 21.2388 15.8275 21.2769 15.7332C21.2946 15.6893 21.3125 15.6455 21.3296 15.6013C21.3662 15.5066 21.4013 15.4113 21.4351 15.3152C21.4488 15.2763 21.4619 15.2371 21.4751 15.198C21.5059 15.1066 21.5367 15.0151 21.5649 14.9226C21.6522 14.6375 21.7268 14.3469 21.7886 14.0515C21.7982 14.0055 21.806 13.9591 21.8149 13.9128C21.8352 13.8085 21.8546 13.7038 21.8716 13.5984C21.8818 13.5348 21.8909 13.471 21.8999 13.407C21.9127 13.3162 21.9247 13.2251 21.9351 13.1335C21.9419 13.0731 21.9489 13.0126 21.9546 12.9519C21.9681 12.8098 21.9784 12.6669 21.9858 12.5232C21.9862 12.5157 21.9874 12.5082 21.9878 12.5007C21.996 12.3349 22.0005 12.1676 22.0005 11.9998C22.0005 11.7219 21.9866 11.4467 21.9644 11.1746C21.7829 8.9532 20.8758 6.93866 19.48 5.36597C19.4567 5.33972 19.4352 5.31188 19.4116 5.28589C18.6533 4.44932 17.7552 3.74182 16.7544 3.19995C16.7119 3.17695 16.6683 3.15594 16.6255 3.13354C16.3782 3.00428 16.1256 2.88379 15.8667 2.77515C15.8286 2.75916 15.7898 2.74477 15.7515 2.72925C15.1778 2.4969 14.5783 2.31535 13.9575 2.19214C13.9202 2.18474 13.8827 2.17861 13.8452 2.17163C13.7151 2.14736 13.5844 2.12441 13.4526 2.10522C13.4471 2.10442 13.4415 2.10406 13.436 2.10327L13.022 2.05151C13.0008 2.04937 12.9797 2.04767 12.9585 2.04565C12.9475 2.0446 12.9363 2.04374 12.9253 2.04272L12.9263 2.0437C12.6212 2.01568 12.3119 1.99976 11.9995 1.99976ZM17.6265 13.8474L18.4048 16.7927C17.0427 18.6099 14.9259 19.826 12.519 19.9802L10.5708 17.6746L11.1431 14.6277L14.7886 12.5232L17.6265 13.8474ZM9.92041 14.366L9.35693 17.3669L7.35791 18.5125C6.04374 17.5741 5.02556 16.2496 4.47021 14.7029L5.66357 12.2048L7.58447 11.8201L9.92041 14.366ZM17.7769 6.46851C19.1223 7.87326 19.9598 9.76629 19.9966 11.8562L18.1646 12.7185L15.1948 11.3328L14.0894 7.82202L15.1763 6.49194L17.7769 6.46851ZM8.1499 6.4187L8.68604 7.27612L7.16162 10.6296L5.46143 10.9695L4.30029 9.82983C4.68838 8.44997 5.4365 7.22212 6.43799 6.25269L8.1499 6.4187ZM11.9995 3.99976C12.5759 3.99976 13.1383 4.06167 13.6802 4.17749L14.2153 5.69312L13.1108 7.04272L9.81494 6.72241L9.27002 5.85034L9.99756 4.25269C10.6374 4.08778 11.3082 3.9998 11.9995 3.99976Z" fill="#0F1621"/>
</svg>
