<svg width="24" height="25" viewBox="0 0 24 25" fill="none" xmlns="http://www.w3.org/2000/svg">
<path d="M20 7.06006H21V8.06006L20 9.06006H4L3 8.06006V7.06006H4V2.06006L8 3.06006V4.06006H6V7.06006H11V2.06006L15 3.06006V4.06006H13V7.06006H18V2.06006L22 3.06006V4.06006H20V7.06006ZM15.9 13.0601L18 11.0601H6L8 13.0601H15.9ZM16 15.0601H8L3 10.0601V19.0601C3 20.1601 3.9 21.0601 5 21.0601H8V19.0601H5V14.86L6.59998 16.4601L7.19995 17.0601H16.9L17.5 16.4601L19.1 14.86V19.0601H16.1V21.0601H19.1C20.2 21.0601 21.1 20.1601 21.1 19.0601V10.0601L16 15.0601ZM14 20.0601C14 18.9601 13.1 18.0601 12 18.0601C10.9 18.0601 10 18.9601 10 20.0601V21.0601H14V20.0601Z" fill="#0F1621"/>
</svg>
