<svg width="16" height="16" viewBox="0 0 16 16" fill="none" xmlns="http://www.w3.org/2000/svg">
<path d="M9.3335 14.6666V13C9.33483 12.8282 9.30063 12.6579 9.23304 12.4999C9.16545 12.3419 9.06593 12.1996 8.94072 12.0819C8.81552 11.9642 8.66734 11.8737 8.50548 11.816C8.34362 11.7583 8.17158 11.7347 8.00016 11.7466C7.82874 11.7347 7.65671 11.7583 7.49485 11.816C7.33299 11.8737 7.18481 11.9642 7.0596 12.0819C6.9344 12.1996 6.83488 12.3419 6.76729 12.4999C6.6997 12.6579 6.66549 12.8282 6.66683 13V14.6666H3.58016C3.06551 14.6672 2.57045 14.4694 2.19795 14.1142C1.82545 13.7591 1.60418 13.2741 1.58016 12.76L1.3335 7.42665L4.3335 10.22C4.67308 10.5154 5.11011 10.6746 5.56016 10.6666H10.2268C10.6813 10.6654 11.1189 10.4942 11.4535 10.1866L14.6668 7.39331L14.4202 12.76C14.3961 13.2741 14.1749 13.7591 13.8024 14.1142C13.4299 14.4694 12.9348 14.6672 12.4202 14.6666H9.3335ZM5.2335 9.20665C5.32354 9.28689 5.43956 9.33187 5.56016 9.33331H10.2268C10.3477 9.33311 10.4641 9.28796 10.5535 9.20665L11.8868 8.02665H3.88683L5.2335 9.20665ZM14.6668 1.93331L12.0002 1.33331V5.33331H8.00016V2.86665L9.3335 2.47998V1.90665L6.66683 1.33331V5.33331H2.66683V2.87331L4.00016 2.47998V1.90665L1.3335 1.33331V5.57331L2.50683 6.66665H13.4668L14.6668 5.63331V5.33331H13.3335V2.89998L14.6668 2.50665V1.93331Z" fill="#0F1621"/>
</svg>
