<svg width="24" height="24" viewBox="0 0 24 24" fill="none" xmlns="http://www.w3.org/2000/svg">
<path d="M15.7463 3.0289L15.3007 6.59423C14.3393 6.00583 13.2088 5.66668 11.9993 5.66668C8.50182 5.66668 5.66594 8.50221 5.66594 12C5.66594 13.2094 6.00499 14.3397 6.5932 15.3009L3.02902 15.7464C2.2033 15.8497 1.85753 16.8574 2.44595 17.4458L6.55439 21.5543C7.14281 22.1427 8.15056 21.7969 8.25378 20.9712L8.69934 17.4067C9.6604 17.9945 10.7903 18.3333 11.9993 18.3333C15.4967 18.3333 18.3326 15.4978 18.3326 12C18.3326 10.7907 17.9936 9.66053 17.4055 8.69935L20.9711 8.25366C21.7968 8.15044 22.1426 7.14269 21.5542 6.55427L17.4457 2.44583C16.8573 1.85741 15.8495 2.20318 15.7463 3.0289Z" fill="#0F1621"/>
</svg>
