<svg width="16" height="16" viewBox="0 0 16 16" fill="none" xmlns="http://www.w3.org/2000/svg">
<path d="M10.8293 1.43886L10.3358 4.153C9.65484 3.73865 8.85524 3.5 7.99996 3.5C5.51493 3.5 3.49996 5.51472 3.49996 8C3.49996 8.85534 3.73863 9.65494 4.15298 10.3359L1.43886 10.8293C1.04203 10.9015 0.889546 11.3896 1.17474 11.6748L4.32518 14.8253C4.61038 15.1105 5.09852 14.958 5.17067 14.5611L5.66415 11.847C6.34509 12.2613 7.14468 12.5 7.99996 12.5C10.485 12.5 12.5 10.4853 12.5 8C12.5 7.14466 12.2613 6.34506 11.8469 5.66415L14.5611 5.17067C14.9579 5.09852 15.1104 4.61038 14.8252 4.32518L11.6747 1.17474C11.3895 0.889546 10.9014 1.04203 10.8293 1.43886Z" fill="#0F1621"/>
</svg>
