<svg width="24" height="24" viewBox="0 0 24 24" fill="none" xmlns="http://www.w3.org/2000/svg">
<path d="M16.5237 4.2392C16.0503 3.76585 15.2397 4.03893 15.1493 4.70222L14.6469 8.38591L13.48 7.95838C13.0198 7.78977 12.5218 7.6973 11.9999 7.6973C9.62382 7.6973 7.69715 9.62375 7.69715 12.0001C7.69715 12.5219 7.78962 13.02 7.95822 13.4802L8.38575 14.6471L4.7021 15.1494C4.03881 15.2399 3.76572 16.0505 4.23908 16.5239L7.47614 19.7609C7.9495 20.2343 8.76015 19.9612 8.85059 19.2979L9.35291 15.6142L10.5198 16.0418C10.98 16.2104 11.4781 16.3028 11.9999 16.3028C14.376 16.3028 16.3027 14.3764 16.3027 12.0001C16.3027 11.4782 16.2102 10.9801 16.0416 10.52L15.6141 9.35303L19.2977 8.85072C19.961 8.76027 20.2341 7.94962 19.7608 7.47626L16.5237 4.2392ZM17.9379 2.82499L21.175 6.06205C22.8179 7.70494 21.8701 10.5185 19.568 10.8324L18.2261 11.0154C18.2765 11.3366 18.3027 11.6655 18.3027 12.0001C18.3027 15.481 15.4805 18.3028 11.9999 18.3028C11.6653 18.3028 11.3364 18.2767 11.0152 18.2262L10.8323 19.5681C10.5183 21.8702 7.70482 22.818 6.06193 21.1751L2.82487 17.9381C1.18198 16.2952 2.12978 13.4817 4.43187 13.1677L5.77377 12.9848C5.72331 12.6636 5.69715 12.3347 5.69715 12.0001C5.69715 8.51911 8.51932 5.6973 11.9999 5.6973C12.3345 5.6973 12.6634 5.72346 12.9846 5.77392L13.1676 4.432C13.4815 2.12991 16.295 1.1821 17.9379 2.82499Z" fill="#0F1621"/>
</svg>
