<svg width="24" height="25" viewBox="0 0 24 25" fill="none" xmlns="http://www.w3.org/2000/svg">
<path d="M20 19.9501C18.9 18.9661 17.4759 18.4222 16 18.4222C14.5241 18.4222 13.1 18.9661 12 19.9501C10.9 18.9661 9.47586 18.4222 8 18.4222C6.52414 18.4222 5.10004 18.9661 4 19.9501C3.41944 19.4239 2.73941 19.0193 2 18.7601V20.9501C2.26847 21.1106 2.51978 21.2983 2.75 21.5101C2.9092 21.6828 3.10247 21.8206 3.31761 21.9149C3.53275 22.0092 3.7651 22.0579 4 22.0579C4.2349 22.0579 4.46725 22.0092 4.68239 21.9149C4.89753 21.8206 5.0908 21.6828 5.25 21.5101C5.99288 20.8067 6.977 20.4148 8 20.4148C9.023 20.4148 10.0071 20.8067 10.75 21.5101C10.9092 21.6828 11.1025 21.8206 11.3176 21.9149C11.5328 22.0092 11.7651 22.0579 12 22.0579C12.2349 22.0579 12.4672 22.0092 12.6824 21.9149C12.8975 21.8206 13.0908 21.6828 13.25 21.5101C13.9929 20.8067 14.977 20.4148 16 20.4148C17.023 20.4148 18.0071 20.8067 18.75 21.5101C18.9092 21.6828 19.1025 21.8206 19.3176 21.9149C19.5328 22.0092 19.7651 22.0579 20 22.0579C20.2349 22.0579 20.4672 22.0092 20.6824 21.9149C20.8975 21.8206 21.0908 21.6828 21.25 21.5101C21.4802 21.2983 21.7315 21.1106 22 20.9501V18.7601C21.2606 19.0193 20.5806 19.4239 20 19.9501ZM9 8.06006V9.57006L6.56 13.0601H6C5.46957 13.0601 4.96086 12.8493 4.58579 12.4743C4.21071 12.0992 4 11.5905 4 11.0601V8.06006C4 7.52963 4.21071 7.02092 4.58579 6.64584C4.96086 6.27077 5.46957 6.06006 6 6.06006H7C7.53043 6.06006 8.03914 6.27077 8.41421 6.64584C8.78929 7.02092 9 7.52963 9 8.06006ZM15.1 11.1601C14.7839 10.846 14.5817 10.4354 14.5256 9.99335C14.4694 9.55131 14.5625 9.10318 14.79 8.72006L17.86 3.57006C17.95 3.41823 17.9982 3.24529 17.9998 3.06879C18.0013 2.89229 17.9561 2.71853 17.8688 2.56516C17.7814 2.41179 17.655 2.28427 17.5024 2.19555C17.3499 2.10684 17.1765 2.06009 17 2.06006H7V4.06006H15L6.21 16.6201C6.79626 16.4795 7.39713 16.409 8 16.4101C8.25311 16.3949 8.5069 16.3949 8.76 16.4101L12.67 10.8301C12.8562 11.4713 13.2 12.0557 13.67 12.5301L17.67 16.5301C18.472 16.7003 19.2416 16.9974 19.95 17.4101C20.2879 17.2598 20.6395 17.1426 21 17.0601L15.1 11.1601Z" fill="#0F1621"/>
</svg>
