<svg width="24" height="24" viewBox="0 0 24 24" fill="none" xmlns="http://www.w3.org/2000/svg">
<path d="M20 19.89C18.9 18.9061 17.4759 18.3621 16 18.3621C14.5241 18.3621 13.1 18.9061 12 19.89C10.9 18.9061 9.47586 18.3621 8 18.3621C6.52414 18.3621 5.10004 18.9061 4 19.89C3.41944 19.3638 2.73941 18.9592 2 18.7V20.89C2.26847 21.0506 2.51978 21.2382 2.75 21.45C2.9092 21.6227 3.10247 21.7606 3.31761 21.8549C3.53275 21.9491 3.7651 21.9978 4 21.9978C4.2349 21.9978 4.46725 21.9491 4.68239 21.8549C4.89753 21.7606 5.0908 21.6227 5.25 21.45C5.99288 20.7467 6.977 20.3547 8 20.3547C9.023 20.3547 10.0071 20.7467 10.75 21.45C10.9092 21.6227 11.1025 21.7606 11.3176 21.8549C11.5328 21.9491 11.7651 21.9978 12 21.9978C12.2349 21.9978 12.4672 21.9491 12.6824 21.8549C12.8975 21.7606 13.0908 21.6227 13.25 21.45C13.9929 20.7467 14.977 20.3547 16 20.3547C17.023 20.3547 18.0071 20.7467 18.75 21.45C18.9092 21.6227 19.1025 21.7606 19.3176 21.8549C19.5328 21.9491 19.7651 21.9978 20 21.9978C20.2349 21.9978 20.4672 21.9491 20.6824 21.8549C20.8975 21.7606 21.0908 21.6227 21.25 21.45C21.4802 21.2382 21.7315 21.0506 22 20.89V18.7C21.2606 18.9592 20.5806 19.3638 20 19.89ZM9 8V9.51L6.56 13H6C5.46957 13 4.96086 12.7893 4.58579 12.4142C4.21071 12.0391 4 11.5304 4 11V8C4 7.46957 4.21071 6.96086 4.58579 6.58579C4.96086 6.21071 5.46957 6 6 6H7C7.53043 6 8.03914 6.21071 8.41421 6.58579C8.78929 6.96086 9 7.46957 9 8ZM6.21 16.56L15 4H7V2H17C17.1765 2.00003 17.3499 2.04678 17.5024 2.13549C17.655 2.22421 17.7814 2.35173 17.8688 2.5051C17.9561 2.65847 18.0013 2.83224 17.9998 3.00873C17.9982 3.18523 17.95 3.35818 17.86 3.51L14.79 8.66C14.5625 9.04312 14.4694 9.49125 14.5256 9.93329C14.5817 10.3753 14.7839 10.7859 15.1 11.1L21 17C20.6527 17.1209 20.3178 17.275 20 17.46C18.7855 16.7529 17.4053 16.3804 16 16.3804C14.5947 16.3804 13.2145 16.7529 12 17.46C10.7846 16.755 9.40504 16.3825 8 16.38C7.39832 16.3691 6.79747 16.4295 6.21 16.56Z" fill="#0F1621"/>
</svg>
