<svg width="16" height="16" viewBox="0 0 16 16" fill="none" xmlns="http://www.w3.org/2000/svg">
<path d="M9.86683 2.66668L4.76683 10.82C5.26084 10.6662 5.77616 10.5919 6.2935 10.6C7.10595 10.5856 7.90951 10.771 8.6335 11.14C8.95589 11.3233 9.32289 11.4133 9.6935 11.4C10.0663 11.4145 10.4358 11.3245 10.7602 11.14C11.4842 10.771 12.2877 10.5856 13.1002 10.6C13.3068 10.6 13.4935 10.6 13.6735 10.6L10.3002 6.96668C10.211 6.87074 10.152 6.75065 10.1307 6.62142C10.1094 6.49218 10.1266 6.35953 10.1802 6.24001L11.5468 3.19334C11.6337 2.99142 11.6692 2.77116 11.6504 2.55217C11.6315 2.33317 11.5588 2.12224 11.4387 1.93815C11.3186 1.75405 11.1548 1.6025 10.962 1.49698C10.7692 1.39146 10.5533 1.33525 10.3335 1.33334H4.74016L5.2135 2.66668H9.86683ZM13.1002 12.5333C12.4352 12.5208 11.7776 12.6744 11.1868 12.98C10.7288 13.227 10.2137 13.3489 9.6935 13.3333C9.17552 13.348 8.66281 13.2262 8.20683 12.98C7.61611 12.6744 6.95849 12.5208 6.2935 12.5333C5.63048 12.5194 4.97467 12.673 4.38683 12.98C3.93085 13.2262 3.41813 13.348 2.90016 13.3333C2.382 13.3499 1.86879 13.228 1.4135 12.98H1.3335V14.4067C1.83131 14.6037 2.3654 14.6923 2.90016 14.6667C3.56516 14.6792 4.22277 14.5257 4.8135 14.22C5.2667 13.9729 5.77754 13.8509 6.2935 13.8667C6.81166 13.8501 7.32487 13.9721 7.78016 14.22C8.37089 14.5257 9.0285 14.6792 9.6935 14.6667C10.3585 14.6792 11.0161 14.5257 11.6068 14.22C12.0649 13.973 12.58 13.8511 13.1002 13.8667C13.6183 13.8501 14.1315 13.9721 14.5868 14.22L14.6668 14.2533V12.8267C14.1713 12.6191 13.6373 12.5191 13.1002 12.5333ZM4.52016 8.66668H3.3335C2.97987 8.66668 2.64074 8.5262 2.39069 8.27615C2.14064 8.0261 2.00016 7.68697 2.00016 7.33334V6.00001C2.00016 5.64639 2.14064 5.30725 2.39069 5.0572C2.64074 4.80715 2.97987 4.66668 3.3335 4.66668H4.3335C4.59871 4.66668 4.85307 4.77203 5.0406 4.95957C5.22814 5.14711 5.3335 5.40146 5.3335 5.66668L5.56683 7.04001L4.52016 8.66668Z" fill="#0F1621"/>
</svg>
