<svg width="24" height="24" viewBox="0 0 24 24" fill="none" xmlns="http://www.w3.org/2000/svg">
<path fill-rule="evenodd" clip-rule="evenodd" d="M8.99988 17H3L5.99996 12.0001L2.99988 7H9.00009L12.0001 2L15.0001 7H20.9999L18 11.9999L21 17H14.9999L11.9999 22L8.99988 17ZM8.09988 15.5H5.64931L6.8746 13.4579L8.09988 15.5ZM10.7492 17L11.9999 19.0845L13.2506 17H10.7492ZM14.1506 15.5H9.84917L7.74925 12.0001L9.84937 8.5L14.1508 8.5L16.2507 11.9999L14.1506 15.5ZM15.8999 15.5H18.3507L17.1253 13.4576L15.8999 15.5ZM17.1253 10.5421L18.3506 8.5H15.9001L17.1253 10.5421ZM13.2508 7L12.0001 4.91548L10.7494 7L13.2508 7ZM8.10007 8.5H5.64916L6.87461 10.5424L8.10007 8.5Z" fill="#0E1520"/>
</svg>
