<svg width="24" height="24" viewBox="0 0 24 24" fill="none" xmlns="http://www.w3.org/2000/svg">
<path d="M8.99976 17H2.99988L5.99984 12.0001L2.99976 7H8.99996L12 2L15 7H20.9998L17.9998 11.9999L20.9999 17H14.9998L11.9998 22L8.99976 17ZM8.09976 15.5L6.87448 13.4579L5.64919 15.5H8.09976ZM10.749 17L11.9998 19.0845L13.2505 17H10.749ZM14.1505 15.5L16.2506 11.9999L14.1507 8.5L9.84924 8.5L7.74913 12.0001L9.84904 15.5H14.1505ZM15.8998 15.5H18.3506L17.1252 13.4576L15.8998 15.5ZM17.1252 10.5421L18.3505 8.5H15.9L17.1252 10.5421ZM13.2507 7L12 4.91548L10.7493 7L13.2507 7ZM8.09995 8.5H5.64904L6.87449 10.5424L8.09995 8.5Z" fill="#0E1520"/>
</svg>
