<svg width="16" height="16" viewBox="0 0 16 16" fill="none" xmlns="http://www.w3.org/2000/svg">
<path fill-rule="evenodd" clip-rule="evenodd" d="M10.1839 4.37501L8.00003 0.801422L5.81617 4.37501L1.38568 4.37501L3.60092 7.99996L1.38562 11.625H5.81623L8.00009 15.1986L10.184 11.625H14.6144L12.3992 8.00006L14.6145 4.37501L10.1839 4.37501ZM8.71896 4.37501L8.00003 3.19858L7.2811 4.37501L8.71896 4.37501ZM6.51721 5.62501H9.48285L10.9343 8.00006L9.48291 10.375H6.51727L5.06586 7.99996L6.51721 5.62501ZM5.05228 5.62501H3.6145L4.33339 6.80138L5.05228 5.62501ZM4.33339 9.19854L3.61444 10.375H5.05234L4.33339 9.19854ZM7.28116 11.625L8.00009 12.8014L8.71902 11.625H7.28116ZM10.9478 10.375H12.3856L11.6667 9.19864L10.9478 10.375ZM11.6667 6.80148L10.9478 5.62501H12.3857L11.6667 6.80148Z" fill="#0E1520"/>
</svg>
