<svg width="24" height="25" viewBox="0 0 24 25" fill="none" xmlns="http://www.w3.org/2000/svg">
<path d="M16.9301 10.0601L19.2601 13.2401L19.9701 14.2401V19.0601H18.0001V17.0601H6.00005V19.0601H4.00005V14.2201L4.71005 13.2201L7.00005 10.0601H16.8901H16.9301ZM16.8901 8.06006H7.07005C6.74776 8.05283 6.42849 8.12362 6.13945 8.2664C5.85042 8.40918 5.60018 8.61971 5.41005 8.88006L4.55005 10.0601H2.00005V12.0601H3.10005L2.33005 13.1201C2.11312 13.4081 1.99714 13.7595 2.00005 14.1201V19.0601C2.00005 19.5905 2.21077 20.0992 2.58584 20.4743C2.96091 20.8493 3.46962 21.0601 4.00005 21.0601H7.00005C7.26527 21.0601 7.51962 20.9547 7.70716 20.7672C7.8947 20.5796 8.00005 20.3253 8.00005 20.0601V19.0601H16.0001V20.0601C16.0001 20.3253 16.1054 20.5796 16.2929 20.7672C16.4805 20.9547 16.7348 21.0601 17.0001 21.0601H20.0001C20.5305 21.0601 21.0392 20.8493 21.4143 20.4743C21.7893 20.0992 22.0001 19.5905 22.0001 19.0601V14.1201C22.003 13.7595 21.887 13.4081 21.6701 13.1201L20.9001 12.0601H22.0001V10.0601H19.4501L18.5901 8.88006C18.3999 8.61971 18.1497 8.40918 17.8607 8.2664C17.5716 8.12362 17.2524 8.05283 16.9301 8.06006H16.8901ZM16.4601 13.0601H7.46005L6.00005 15.0601H18.0001L16.4601 13.0601ZM15.0001 4.06006H9.00005V6.06006H15.0001V4.06006Z" fill="#0F1621"/>
</svg>
