<svg width="24" height="25" viewBox="0 0 24 25" fill="none" xmlns="http://www.w3.org/2000/svg">
<path d="M22 8.06006H19.5L18.6 6.86005C18.2 6.36005 17.6 6.06006 16.9 6.06006H15V4.06006C15 3.46006 14.6 3.06006 14 3.06006H10C9.4 3.06006 9 3.46006 9 4.06006V6.06006H7.10001C6.40001 6.06006 5.79999 6.36005 5.39999 6.86005L4.5 8.06006H2V10.0601H3.10001L2.29999 11.16C2.09999 11.46 2 11.76 2 12.16V18.0601C2 19.1601 2.9 20.0601 4 20.0601H7C7.6 20.0601 8 19.6601 8 19.0601V18.0601H16V19.0601C16 19.6601 16.4 20.0601 17 20.0601H20C20.5 20.0601 21 19.8601 21.4 19.4601C21.8 19.0601 22 18.5601 22 18.0601V12.16C22 11.76 21.9 11.46 21.7 11.16L20.9 10.0601H22V8.06006ZM7 8.06006C7 8.06006 7.1 8.06006 7 8.06006H16.9L18.7 10.5601L17.7 11.0601H6.20001L5.20001 10.5601L7 8.06006ZM20 18.0601H18V16.0601H16H8H6V18.0601H4V12.2601L5.70001 13.16H18.2L19.9 12.2601V18.0601H20Z" fill="#0F1621"/>
</svg>
