<svg width="24" height="24" viewBox="0 0 24 24" fill="none" xmlns="http://www.w3.org/2000/svg">
<path d="M22 8H19.5L18.6 6.79999C18.2 6.29999 17.6 6 16.9 6H15V4C15 3.4 14.6 3 14 3H10C9.4 3 9 3.4 9 4V6H7.10001C6.40001 6 5.79999 6.29999 5.39999 6.79999L4.5 8H2V10H3.10001L2.29999 11.1C2.09999 11.4 2 11.7 2 12.1V18C2 19.1 2.9 20 4 20H7C7.6 20 8 19.6 8 19V18H16V19C16 19.6 16.4 20 17 20H20C20.5 20 21 19.8 21.4 19.4C21.8 19 22 18.5 22 18V12.1C22 11.7 21.9 11.4 21.7 11.1L20.9 10H22V8ZM8 15H4V13H8V15ZM12 11H5L6.70001 8.5C6.90001 8.2 7.2 8 7.5 8H16.4C16.7 8 17 8.2 17.2 8.5L18.9 11H12ZM20 15H16V13H20V15Z" fill="#0F1621"/>
</svg>
