<svg width="16" height="16" viewBox="0 0 16 16" fill="none" xmlns="http://www.w3.org/2000/svg">
<path d="M14.3335 7.33333H13.1868L12.5202 5.8C12.3785 5.46836 12.1439 5.18484 11.8446 4.98371C11.5452 4.78258 11.1941 4.67247 10.8335 4.66667H10.2935L10.0402 2.73333C10.0225 2.53797 9.93419 2.35575 9.79185 2.22077C9.64951 2.08579 9.46286 2.00731 9.26683 2H6.7335C6.53747 2.00731 6.35082 2.08579 6.20848 2.22077C6.06614 2.35575 5.97786 2.53797 5.96016 2.73333L5.70683 4.66667H5.18683C4.82929 4.67463 4.4817 4.78587 4.18597 4.98697C3.89024 5.18807 3.65901 5.47043 3.52016 5.8L2.8535 7.33333H1.66683C1.56333 7.41096 1.47933 7.51161 1.42147 7.62732C1.36362 7.74303 1.3335 7.87063 1.3335 8C1.3335 8.12937 1.36362 8.25696 1.42147 8.37268C1.47933 8.48839 1.56333 8.58904 1.66683 8.66667H2.00016V12.6667C2.00016 12.8435 2.0704 13.013 2.19542 13.1381C2.32045 13.2631 2.49002 13.3333 2.66683 13.3333H4.66683C4.84364 13.3333 5.01321 13.2631 5.13823 13.1381C5.26326 13.013 5.3335 12.8435 5.3335 12.6667V12H10.6668V12.6667C10.6668 12.8435 10.7371 13.013 10.8621 13.1381C10.9871 13.2631 11.1567 13.3333 11.3335 13.3333H13.3335C13.5103 13.3333 13.6799 13.2631 13.8049 13.1381C13.9299 13.013 14.0002 12.8435 14.0002 12.6667V8.66667H14.3335C14.437 8.58904 14.521 8.48839 14.5789 8.37268C14.6367 8.25696 14.6668 8.12937 14.6668 8C14.6668 7.87063 14.6367 7.74303 14.5789 7.62732C14.521 7.51161 14.437 7.41096 14.3335 7.33333ZM5.3335 10.6667H3.66683C3.56333 10.589 3.47933 10.4884 3.42147 10.3727C3.36362 10.257 3.3335 10.1294 3.3335 10C3.3335 9.87063 3.36362 9.74303 3.42147 9.62732C3.47933 9.51161 3.56333 9.41096 3.66683 9.33333H5.3335V10.6667ZM4.00016 8L4.74016 6.34C4.77428 6.24653 4.8345 6.16482 4.91368 6.10455C4.99285 6.04428 5.08765 6.008 5.18683 6H10.8335C10.9336 6.00757 11.0295 6.0436 11.1098 6.10383C11.1901 6.16407 11.2515 6.24601 11.2868 6.34L12.0002 8H4.00016ZM12.3335 10.6667H10.6668V9.33333H12.3335C12.437 9.41096 12.521 9.51161 12.5789 9.62732C12.6367 9.74303 12.6668 9.87063 12.6668 10C12.6668 10.1294 12.6367 10.257 12.5789 10.3727C12.521 10.4884 12.437 10.589 12.3335 10.6667Z" fill="#0F1621"/>
</svg>
