<svg width="24" height="24" viewBox="0 0 24 24" fill="none" xmlns="http://www.w3.org/2000/svg">
<path d="M21.8823 13.5439C21.2204 17.8171 17.8523 21.195 13.5849 21.8745C13.8761 18.9899 12.9172 16.0031 10.7074 13.7932C8.43596 11.5219 5.19023 10.3716 2.09578 10.6382C2.69163 6.26609 6.10987 2.7932 10.4568 2.11973C10.0537 5.18381 10.998 8.41171 13.2935 10.7072C15.5894 13.0029 18.8178 13.9476 21.8823 13.5439ZM21.9887 11.5041C19.4127 11.9591 16.638 11.223 14.7077 9.293C12.7777 7.363 12.0414 4.58843 12.4959 2.0127C17.6239 2.26306 21.7379 6.37616 21.9887 11.5041ZM11.5575 21.9892C6.46048 21.7671 2.35637 17.7313 2.02466 12.6635C4.57279 12.3582 7.33435 13.2487 9.29322 15.2074C11.1419 17.0563 11.8969 19.5853 11.5575 21.9892Z" fill="#0F1621"/>
</svg>
