<svg width="24" height="24" viewBox="0 0 24 24" fill="none" xmlns="http://www.w3.org/2000/svg">
<path fill-rule="evenodd" clip-rule="evenodd" d="M12.3701 2.01074C12.4117 2.01226 12.4535 2.01162 12.4951 2.01367C17.7883 2.27125 21.9999 6.64393 22 12.001C22 17.4889 17.5792 21.942 12.1045 21.998C12.0719 21.9984 12.0394 21.9999 12.0068 22C12.0046 22 12.0023 22.001 12 22.001C11.9364 22.001 11.8729 21.9973 11.8096 21.9961C11.7075 21.9942 11.6049 21.9943 11.5029 21.9893C6.37463 21.7382 2.26115 17.6238 2.01172 12.4951C2.00597 12.3783 2.00552 12.2624 2.00391 12.1455C2.00323 12.0975 2 12.0492 2 12.001C2.00013 6.47824 6.47723 2.00098 12 2.00098C12.1239 2.00098 12.2473 2.00627 12.3701 2.01074ZM4.00977 12.3818C4.20251 16.4965 7.50283 19.7974 11.6172 19.9912C11.5023 18.0492 10.7285 16.1445 9.29199 14.708C7.85557 13.2718 5.9515 12.497 4.00977 12.3818ZM10.3857 4.16406C7.26236 4.80402 4.80174 7.26419 4.16211 10.3877C6.56381 10.5376 8.91768 11.5058 10.7061 13.2939C12.4943 15.0822 13.4623 17.4363 13.6123 19.8379C16.7366 19.1985 19.1973 16.7385 19.8369 13.6143C17.4352 13.4642 15.0813 12.4963 13.293 10.708C11.5047 8.91966 10.5358 6.56573 10.3857 4.16406ZM12.3799 4.01074C12.4949 5.95279 13.2705 7.85729 14.707 9.29395C16.1435 10.7303 18.0475 11.504 19.9893 11.6191C19.7957 7.50421 16.4951 4.20314 12.3799 4.01074Z" fill="#0F1621"/>
</svg>
