<svg width="16" height="16" viewBox="0 0 16 16" fill="none" xmlns="http://www.w3.org/2000/svg">
<path d="M3.0281 3.02672C4.14467 1.91014 5.54478 1.25001 6.9966 1.04558C6.70061 3.1481 7.36075 5.35955 8.97774 6.97657L9.23876 7.22516C10.8278 8.6608 12.9167 9.23714 14.908 8.95702C14.7037 10.4091 14.0443 11.8095 12.9276 12.9262C11.8104 14.0433 10.4096 14.704 8.95702 14.908C9.23785 12.9162 8.66267 10.8269 7.22654 9.23738L6.97795 8.97636C5.36072 7.35914 3.14911 6.69971 1.04627 6.99591C1.25054 5.54378 1.91133 4.14352 3.0281 3.02672ZM1 8.52268C2.72709 8.19565 4.58061 8.70035 5.91729 10.037C7.25384 11.3736 7.75777 13.2267 7.43094 14.9536C5.82597 14.8285 4.25567 14.1538 3.0281 12.9262C1.80034 11.6984 1.12491 10.1279 1 8.52268ZM8.52406 1C10.1293 1.1249 11.6998 1.79894 12.9276 3.02672C14.1554 4.25449 14.8294 5.825 14.9543 7.43025C13.2277 7.75668 11.3747 7.25218 10.0384 5.91591C8.70213 4.57962 8.19761 2.72665 8.52406 1Z" fill="#0F1621"/>
</svg>
