<svg width="16" height="16" viewBox="0 0 16 16" fill="none" xmlns="http://www.w3.org/2000/svg">
<path d="M2 1.33331V8.95998C2 10.5513 2.63214 12.0774 3.75736 13.2026C4.88258 14.3278 6.4087 14.96 8 14.96C9.5913 14.96 11.1174 14.3278 12.2426 13.2026C13.3679 12.0774 14 10.5513 14 8.95998V1.33331H2ZM4 5.83331C4 5.39129 4.17559 4.96736 4.48816 4.6548C4.80072 4.34224 5.22464 4.16665 5.66667 4.16665C6.10869 4.16665 6.53262 4.34224 6.84518 4.6548C7.15774 4.96736 7.33333 5.39129 7.33333 5.83331C7.33333 6.75331 6.58667 6.66665 5.66667 6.66665C4.74667 6.66665 4 6.75331 4 5.83331ZM11.12 10.5C10.8813 11.1346 10.4548 11.6814 9.89737 12.0673C9.33991 12.4532 8.67802 12.66 8 12.66C7.32199 12.66 6.66009 12.4532 6.10263 12.0673C5.54517 11.6814 5.11866 11.1346 4.88 10.5C4.83866 10.3889 4.82769 10.2688 4.84821 10.152C4.86873 10.0353 4.92001 9.92615 4.99675 9.83582C5.0735 9.74549 5.17294 9.67725 5.28484 9.63814C5.39673 9.59903 5.51703 9.59046 5.63333 9.61331C7.19984 9.88003 8.80016 9.88003 10.3667 9.61331C10.4853 9.58839 10.6085 9.5963 10.723 9.63618C10.8375 9.67607 10.939 9.74644 11.0165 9.83969C11.094 9.93295 11.1446 10.0456 11.1628 10.1654C11.181 10.2853 11.1662 10.4079 11.12 10.52V10.5ZM10.3333 6.66665C9.41333 6.66665 8.66667 6.75331 8.66667 5.83331C8.66667 5.39129 8.84226 4.96736 9.15482 4.6548C9.46738 4.34224 9.89131 4.16665 10.3333 4.16665C10.7754 4.16665 11.1993 4.34224 11.5118 4.6548C11.8244 4.96736 12 5.39129 12 5.83331C12 6.75331 11.2533 6.66665 10.3333 6.66665Z" fill="#0F1621"/>
</svg>
