<svg width="24" height="25" viewBox="0 0 24 25" fill="none" xmlns="http://www.w3.org/2000/svg">
<path d="M19 5.06006V12.9601C19 14.5601 18.4 16.1601 17.2 17.2601C16.1 18.4601 14.5 19.0601 12.9 19.0601H11.1C7.7 19.0601 5 16.3601 5 12.9601V5.06006H19ZM21 3.06006H3V12.9601C3 17.4601 6.6 21.0601 11.1 21.0601H12.9C15.1 21.0601 17.2 20.16 18.6 18.66C20.1 17.16 21 15.1601 21 12.9601V3.06006ZM9 7.06006C10.1 7.06006 11 7.96003 11 9.16003C11 10.06 10.1 10.0601 9 10.0601C7.9 10.0601 7 10.06 7 9.16003C7 7.96003 7.9 7.06006 9 7.06006ZM12 17.0601C9.2 17.0601 7 15.6601 7 13.0601H17C17 15.6601 14.8 17.0601 12 17.0601ZM15 10.0601C13.9 10.0601 13 10.06 13 9.16003C13 7.96003 13.9 7.06006 15 7.06006C16.1 7.06006 17 7.96003 17 9.16003C17 10.06 16.1 10.0601 15 10.0601Z" fill="#0F1621"/>
</svg>
