<svg width="24" height="24" viewBox="0 0 24 24" fill="none" xmlns="http://www.w3.org/2000/svg">
<path d="M2 2V13C2 15.3869 2.94821 17.6761 4.63604 19.364C6.32387 21.0518 8.61305 22 11 22H13C15.3869 22 17.6761 21.0518 19.364 19.364C21.0518 17.6761 22 15.3869 22 13V2H2ZM8 7C8.54198 7.01312 9.05669 7.24038 9.43151 7.63207C9.80633 8.02376 10.0107 8.54797 10 9.09C10 11.18 9.1 9 8 9C6.9 9 6 11.17 6 9.08C5.99193 8.53969 6.19753 8.01804 6.57206 7.62852C6.9466 7.239 7.45979 7.01312 8 7ZM12 18C8.69 18 6 16.31 6 13H18C18 16.31 15.31 18 12 18ZM16 9C14.9 9 14 11.17 14 9.08C14 8.54957 14.2107 8.04086 14.5858 7.66579C14.9609 7.29071 15.4696 7.08 16 7.08C16.5304 7.08 17.0391 7.29071 17.4142 7.66579C17.7893 8.04086 18 8.54957 18 9.08C18 11.18 17.1 9 16 9Z" fill="#0F1621"/>
</svg>
