<svg width="24" height="25" viewBox="0 0 24 25" fill="none" xmlns="http://www.w3.org/2000/svg">
<path d="M22 18.06V20.06C22 20.5905 21.7893 21.0992 21.4142 21.4743C21.0391 21.8493 20.5304 22.06 20 22.06H4C3.46957 22.06 2.96086 21.8493 2.58579 21.4743C2.21071 21.0992 2 20.5905 2 20.06V18.06C2 17.5296 2.21071 17.0209 2.58579 16.6458C2.96086 16.2708 3.46957 16.06 4 16.06H5V18.06H4V20.06H20V18.06H19V16.06H20C20.5304 16.06 21.0391 16.2708 21.4142 16.6458C21.7893 17.0209 22 17.5296 22 18.06ZM5 12.06C5.00218 10.4202 5.58001 8.83316 6.63269 7.57579C7.68537 6.31842 9.14608 5.47053 10.76 5.18005C11.2058 4.35955 11.8369 3.65442 12.6031 3.12077C13.3694 2.58712 14.2496 2.23967 15.1738 2.10609C16.098 1.9725 17.0406 2.05646 17.9266 2.35129C18.8126 2.64611 19.6175 3.14366 20.2774 3.80434C20.9373 4.46502 21.4338 5.2706 21.7276 6.15697C22.0213 7.04334 22.1041 7.98603 21.9694 8.91003C21.8347 9.83403 21.4861 10.7138 20.9515 11.4794C20.417 12.245 19.711 12.8753 18.89 13.32C18.5808 15.0437 17.6368 16.5889 16.2442 17.6507C14.8516 18.7125 13.1116 19.2138 11.3676 19.0556C9.62352 18.8974 8.00212 18.0912 6.82332 16.7961C5.64453 15.5011 4.99396 13.8112 5 12.06ZM13.24 5.18005C14.6411 5.43349 15.9316 6.10819 16.9394 7.11412C17.9471 8.12005 18.6241 9.40937 18.88 10.81C19.5977 10.0745 19.9996 9.0877 20 8.06005C19.997 7.27836 19.7651 6.51468 19.3328 5.86337C18.9006 5.21207 18.287 4.70169 17.5678 4.39531C16.8487 4.08892 16.0555 3.99997 15.2864 4.13944C14.5172 4.2789 13.8058 4.64067 13.24 5.18005ZM7 12.06C7 13.049 7.29324 14.0157 7.84265 14.8379C8.39206 15.6601 9.17295 16.301 10.0866 16.6794C11.0002 17.0579 12.0055 17.1569 12.9755 16.964C13.9454 16.771 14.8363 16.2948 15.5355 15.5956C16.2348 14.8963 16.711 14.0054 16.9039 13.0355C17.0969 12.0656 16.9978 11.0603 16.6194 10.1466C16.241 9.233 15.6001 8.45211 14.7779 7.9027C13.9556 7.35329 12.9889 7.06005 12 7.06005C10.6739 7.06005 9.40215 7.58683 8.46447 8.52451C7.52678 9.46219 7 10.734 7 12.06ZM11 15.06H13V9.06005H11L10 11.06H11V15.06Z" fill="#0F1621"/>
</svg>
