<svg width="16" height="16" viewBox="0 0 16 16" fill="none" xmlns="http://www.w3.org/2000/svg">
<path d="M7.66688 12C8.458 12 9.23136 11.7654 9.88916 11.3259C10.547 10.8864 11.0596 10.2616 11.3624 9.53073C11.6651 8.79983 11.7444 7.99556 11.59 7.21964C11.4357 6.44371 11.0547 5.73098 10.4953 5.17157C9.93589 4.61216 9.22316 4.2312 8.44724 4.07686C7.67131 3.92252 6.86705 4.00173 6.13614 4.30448C5.40524 4.60723 4.78052 5.11992 4.341 5.77772C3.90147 6.43552 3.66688 7.20887 3.66688 8C3.66688 9.06087 4.0883 10.0783 4.83845 10.8284C5.58859 11.5786 6.60601 12 7.66688 12ZM7.33354 5.33333H8.66688V10.6667H7.33354V7H6.00021L7.33354 5.33333ZM14.6669 12V12.6667C14.6669 13.1971 14.4562 13.7058 14.0811 14.0809C13.706 14.456 13.1973 14.6667 12.6669 14.6667H3.33354C2.80311 14.6667 2.2944 14.456 1.91933 14.0809C1.54426 13.7058 1.33354 13.1971 1.33354 12.6667V12C1.33018 11.5076 1.50857 11.0313 1.83455 10.6623C2.16053 10.2932 2.61118 10.0574 3.10021 10C3.30987 10.4881 3.59814 10.9385 3.95354 11.3333H2.66688V13.3333H13.3335V11.3333H11.3802C11.7393 10.9387 12.032 10.4884 12.2469 10H12.6669C13.1973 10 13.706 10.2107 14.0811 10.5858C14.4562 10.9609 14.6669 11.4696 14.6669 12ZM7.66688 3C7.53808 2.99319 7.40901 2.99319 7.28021 3C7.68908 2.42282 8.27096 1.99067 8.94167 1.76605C9.61239 1.54143 10.3372 1.53599 11.0112 1.75051C11.6852 1.96504 12.2735 2.38841 12.691 2.95938C13.1085 3.53036 13.3335 4.21934 13.3335 4.92667C13.3314 5.69276 13.06 6.43371 12.5669 7.02C12.3404 5.88695 11.7285 4.86731 10.8352 4.13443C9.9419 3.40156 8.82234 3.0007 7.66688 3Z" fill="#0F1621"/>
</svg>
