<svg width="24" height="24" viewBox="0 0 24 24" fill="none" xmlns="http://www.w3.org/2000/svg">
<path d="M18.06 12C18.06 13.1867 17.7081 14.3467 17.0488 15.3334C16.3895 16.3201 15.4525 17.0892 14.3561 17.5433C13.2597 17.9974 12.0533 18.1162 10.8895 17.8847C9.72557 17.6532 8.65647 17.0818 7.81736 16.2426C6.97824 15.4035 6.4068 14.3344 6.17529 13.1705C5.94378 12.0067 6.0626 10.8003 6.51672 9.7039C6.97085 8.60755 7.73988 7.67047 8.72658 7.01119C9.71327 6.3519 10.8733 6 12.06 6C13.6513 6 15.1774 6.63214 16.3026 7.75736C17.4279 8.88258 18.06 10.4087 18.06 12ZM10 10H11V16H13V8H11L10 10ZM12.06 4C13.9584 4.00441 15.7934 4.68377 17.237 5.91668C18.6805 7.14958 19.6386 8.85566 19.94 10.73C20.6312 9.7952 21.0029 8.6626 21 7.5C21.0096 6.35842 20.6636 5.24215 20.0102 4.30601C19.3568 3.36987 18.4283 2.66026 17.3534 2.2756C16.2785 1.89093 15.1106 1.85027 14.0116 2.15926C12.9126 2.46825 11.9369 3.11157 11.22 4C11.5 4 11.77 4 12.06 4ZM20 16H18V18H20V20H4V18H6V16H4C3.46957 16 2.96086 16.2107 2.58579 16.5858C2.21071 16.9609 2 17.4696 2 18V20C2 20.5304 2.21071 21.0391 2.58579 21.4142C2.96086 21.7893 3.46957 22 4 22H20C20.5304 22 21.0391 21.7893 21.4142 21.4142C21.7893 21.0391 22 20.5304 22 20V18C22 17.4696 21.7893 16.9609 21.4142 16.5858C21.0391 16.2107 20.5304 16 20 16Z" fill="#0F1621"/>
</svg>
