<svg width="16" height="16" viewBox="0 0 16 16" fill="none" xmlns="http://www.w3.org/2000/svg">
<path d="M9.33333 12V5.99999H4.66667V8.66666H6.66667V12H4V14.6667H11.3333V12H9.33333ZM9.8 3.33333C9.8 3.68933 9.69443 4.03734 9.49665 4.33335C9.29886 4.62936 9.01774 4.86007 8.68883 4.99631C8.35992 5.13255 7.998 5.16819 7.64884 5.09874C7.29967 5.02929 6.97894 4.85785 6.72721 4.60612C6.47547 4.35438 6.30404 4.03365 6.23459 3.68449C6.16513 3.33532 6.20078 2.9734 6.33702 2.6445C6.47325 2.31559 6.70396 2.03447 6.99997 1.83668C7.29598 1.63889 7.64399 1.53333 8 1.53333C8.47739 1.53333 8.93523 1.72297 9.27279 2.06053C9.61036 2.3981 9.8 2.85594 9.8 3.33333Z" fill="#0F1621"/>
</svg>
