<svg width="16" height="16" viewBox="0 0 16 16" fill="none" xmlns="http://www.w3.org/2000/svg">
<path d="M10.8733 11.3333C11.1464 11.3338 11.4167 11.2784 11.6675 11.1705C11.9183 11.0625 12.1443 10.9044 12.3317 10.7058C12.5191 10.5071 12.6638 10.2723 12.757 10.0156C12.8501 9.75891 12.8897 9.48588 12.8733 9.21332L12.4467 3.21332C12.4161 2.70395 12.1919 2.22556 11.8201 1.87606C11.4483 1.52656 10.9569 1.3324 10.4467 1.33332H5.54667C5.03638 1.3324 4.54505 1.52656 4.17324 1.87606C3.80144 2.22556 3.57728 2.70395 3.54667 3.21332L3.12 9.21332C3.10362 9.48588 3.14322 9.75891 3.23637 10.0156C3.32951 10.2723 3.47423 10.5071 3.66161 10.7058C3.84898 10.9044 4.07505 11.0625 4.32586 11.1705C4.57668 11.2784 4.84695 11.3338 5.12 11.3333H5.33333L2 14.6667H4L7 11.3333H9L12 14.6667H14L10.6667 11.3333H10.8733ZM6.33333 9.66665H5.14C5.04898 9.66681 4.95889 9.64834 4.87529 9.61236C4.79168 9.57639 4.71633 9.52367 4.65387 9.45746C4.59141 9.39126 4.54317 9.31296 4.51212 9.22741C4.48107 9.14185 4.46787 9.05084 4.47333 8.95998V8.62665C4.48354 8.45686 4.55826 8.2974 4.68219 8.1809C4.80613 8.0644 4.96991 7.99968 5.14 7.99998H6.33333V9.66665ZM4.66667 6.33332L4.86 3.33332C4.86812 3.15912 4.94096 2.99423 5.06427 2.87092C5.18758 2.74761 5.35247 2.67476 5.52667 2.66665H10.4067C10.5867 2.66645 10.7599 2.7356 10.8902 2.85975C11.0206 2.9839 11.0981 3.1535 11.1067 3.33332L11.3333 6.33332H4.66667ZM9.66667 9.66665V7.99998H10.8333C11.0034 7.99968 11.1672 8.0644 11.2911 8.1809C11.4151 8.2974 11.4898 8.45686 11.5 8.62665V8.95998C11.5055 9.05084 11.4923 9.14185 11.4612 9.22741C11.4302 9.31296 11.3819 9.39126 11.3195 9.45746C11.257 9.52367 11.1817 9.57639 11.098 9.61236C11.0144 9.64834 10.9244 9.66681 10.8333 9.66665H9.66667Z" fill="#0F1621"/>
</svg>
