<svg width="24" height="25" viewBox="0 0 24 25" fill="none" xmlns="http://www.w3.org/2000/svg">
<path d="M6 20.0601H18V22.0601H6V20.0601ZM20 15.0601C20 16.7601 18.7 18.0601 17 18.0601H7C5.4 18.0601 4 16.6601 4 15.0601L5.70001 3.76007C5.80001 2.76007 6.70001 2.06006 7.70001 2.06006H16.3C17.3 2.06006 18.1 2.76007 18.3 3.76007L20 15.0601ZM7 8.66006C7.9 9.66006 10.2 11.0601 12 11.0601C13.7 11.0601 16 9.56006 17 8.56006L16.3 4.06006H7.70001L7 8.66006ZM18 15.1601L17.3 10.86C15.7 12.06 13.5 12.9601 12 12.9601C10.4 12.9601 8.30001 12.06 6.70001 10.86L6 15.0601C6.1 15.5601 6.5 15.9601 7 15.9601H17C17.5 16.0601 17.9 15.6601 18 15.1601Z" fill="#0F1621"/>
</svg>
