<svg width="24" height="25" viewBox="0 0 24 25" fill="none" xmlns="http://www.w3.org/2000/svg">
<path d="M18 22.0601H6V20.0601H18V22.0601ZM16.28 4.06006H7.72L6 15.1701C6.02719 15.4158 6.14443 15.6427 6.32911 15.8071C6.51378 15.9714 6.75279 16.0616 7 16.0601H17C17.2472 16.0616 17.4862 15.9714 17.6709 15.8071C17.8556 15.6427 17.9728 15.4158 18 15.1701L16.28 4.06006ZM16.28 2.06006C16.7623 2.05461 17.2304 2.22366 17.5979 2.53606C17.9654 2.84846 18.2077 3.28316 18.28 3.76006L20 15.0601C20 15.8557 19.6839 16.6188 19.1213 17.1814C18.5587 17.744 17.7956 18.0601 17 18.0601H7C6.20435 18.0601 5.44129 17.744 4.87868 17.1814C4.31607 16.6188 4 15.8557 4 15.0601L5.74 3.76006C5.81232 3.28316 6.05457 2.84846 6.42209 2.53606C6.78962 2.22366 7.25767 2.05461 7.74 2.06006H16.28ZM15 10.0601V12.0601C14.0773 12.5914 13.057 12.9315 12 13.0601C10.943 12.9315 9.92272 12.5914 9 12.0601V10.0601C9.89872 10.643 10.9312 10.9872 12 11.0601C13.0688 10.9872 14.1013 10.643 15 10.0601Z" fill="#0F1621"/>
</svg>
