<svg width="16" height="16" viewBox="0 0 16 16" fill="none" xmlns="http://www.w3.org/2000/svg">
<path d="M14.0868 4.52004C14.0497 4.01543 13.8227 3.54363 13.4516 3.19972C13.0805 2.85581 12.5928 2.66535 12.0868 2.66671H11.3335C11.023 2.25272 10.6204 1.91671 10.1575 1.68528C9.69469 1.45386 9.18431 1.33337 8.66683 1.33337H7.33349C6.81601 1.33337 6.30563 1.45386 5.84278 1.68528C5.37993 1.91671 4.97732 2.25272 4.66683 2.66671H3.90683C3.40085 2.66535 2.91317 2.85581 2.54204 3.19972C2.17091 3.54363 1.94393 4.01543 1.90683 4.52004L1.61349 8.42004C1.56355 9.18707 1.78022 9.94778 2.22683 10.5734L2.44683 12.3334C2.52845 12.9814 2.84505 13.5769 3.33658 14.007C3.8281 14.4371 4.46038 14.6718 5.11349 14.6667H10.9135C11.5666 14.6718 12.1989 14.4371 12.6904 14.007C13.1819 13.5769 13.4985 12.9814 13.5802 12.3334L13.8002 10.5734C14.2468 9.94778 14.4634 9.18707 14.4135 8.42004L14.0868 4.52004ZM12.2268 12.1667C12.186 12.4907 12.0277 12.7885 11.782 13.0035C11.5362 13.2186 11.22 13.3359 10.8935 13.3334H5.10016C4.7736 13.3359 4.45747 13.2186 4.2117 13.0035C3.96594 12.7885 3.80764 12.4907 3.76683 12.1667L3.72016 11.76C4.11088 11.9146 4.52668 11.9959 4.94683 12H11.0535C11.4714 11.9951 11.8849 11.9138 12.2735 11.76L12.2268 12.1667ZM12.5202 10C12.3353 10.2068 12.1094 10.3728 11.8569 10.4876C11.6044 10.6024 11.3308 10.6634 11.0535 10.6667H4.94683C4.67137 10.6674 4.39873 10.6113 4.146 10.5017C3.89327 10.3922 3.66589 10.2316 3.47812 10.0301C3.29035 9.82852 3.14624 9.59036 3.05481 9.33052C2.96339 9.07068 2.92662 8.79475 2.94683 8.52004L3.23349 4.62004C3.24532 4.45144 3.32075 4.29363 3.44452 4.17852C3.56828 4.06342 3.73114 3.99963 3.90016 4.00004H4.06683C4.02419 4.21975 4.00188 4.44291 4.00016 4.66671V5.33337H5.33349V4.66671C5.33349 4.13627 5.54421 3.62757 5.91928 3.25249C6.29435 2.87742 6.80306 2.66671 7.33349 2.66671H8.66683C9.19726 2.66671 9.70597 2.87742 10.081 3.25249C10.4561 3.62757 10.6668 4.13627 10.6668 4.66671V5.33337H12.0002V4.66671C11.9984 4.44291 11.9761 4.21975 11.9335 4.00004H12.0935C12.2625 3.99963 12.4254 4.06342 12.5491 4.17852C12.6729 4.29363 12.7483 4.45144 12.7602 4.62004L13.0468 8.52004C13.0635 8.78951 13.0254 9.05956 12.9349 9.31391C12.8444 9.56827 12.7033 9.80167 12.5202 10ZM7.33349 8.00004H5.33349V6.66671H7.33349V8.00004ZM10.6668 8.00004H8.66683V6.66671H10.6668V8.00004ZM9.33349 5.33337H6.66683V4.00004H9.33349V5.33337Z" fill="#0F1621"/>
</svg>
