<svg width="24" height="24" viewBox="0 0 24 24" fill="none" xmlns="http://www.w3.org/2000/svg">
<path d="M21.1297 6.78012C21.0741 6.0232 20.7336 5.31551 20.1769 4.79964C19.6202 4.28377 18.8887 3.99808 18.1297 4.00012H16.9998C16.534 3.37914 15.9301 2.87512 15.2358 2.52799C14.5415 2.18085 13.776 2.00012 12.9998 2.00012H10.9998C10.2235 2.00012 9.45796 2.18085 8.76368 2.52799C8.06941 2.87512 7.46549 3.37914 6.99975 4.00012H5.85975C5.10079 3.99808 4.36926 4.28377 3.81257 4.79964C3.25588 5.31551 2.9154 6.0232 2.85975 6.78012L2.41975 12.6301C2.34483 13.7807 2.66985 14.9217 3.33975 15.8601L3.66975 18.5001C3.79218 19.4721 4.26708 20.3654 5.00437 21.0106C5.74167 21.6557 6.69009 22.0078 7.66975 22.0001H16.3698C17.3494 22.0078 18.2978 21.6557 19.0351 21.0106C19.7724 20.3654 20.2473 19.4721 20.3698 18.5001L20.6998 15.8601C21.3697 14.9217 21.6947 13.7807 21.6198 12.6301L21.1297 6.78012ZM18.3398 18.2501C18.2785 18.7361 18.0411 19.1828 17.6724 19.5053C17.3038 19.8279 16.8296 20.004 16.3398 20.0001H7.64975C7.15992 20.004 6.68571 19.8279 6.31706 19.5053C5.94842 19.1828 5.71097 18.7361 5.64975 18.2501L5.57975 17.6401C6.16583 17.8719 6.78953 17.9939 7.41975 18.0001H16.5798C17.2066 17.9927 17.8268 17.8707 18.4097 17.6401L18.3398 18.2501ZM18.7798 15.0001C18.5024 15.3102 18.1636 15.5593 17.7849 15.7314C17.4062 15.9036 16.9957 15.9951 16.5798 16.0001H7.41975C7.00657 16.0012 6.59761 15.917 6.21851 15.7527C5.83941 15.5883 5.49835 15.3475 5.21669 15.0451C4.93504 14.7428 4.71887 14.3856 4.58173 13.9958C4.44459 13.6061 4.38945 13.1922 4.41975 12.7801L4.84975 6.93012C4.8675 6.67722 4.98064 6.4405 5.16628 6.26785C5.35193 6.09519 5.59623 5.9995 5.84975 6.00012H6.09975C6.0358 6.32968 6.00233 6.66443 5.99975 7.00012V8.00012H7.99975V7.00012C7.99975 6.20447 8.31582 5.44141 8.87843 4.8788C9.44104 4.31619 10.2041 4.00012 10.9998 4.00012H12.9998C13.7954 4.00012 14.5585 4.31619 15.1211 4.8788C15.6837 5.44141 15.9998 6.20447 15.9998 7.00012V8.00012H17.9998V7.00012C17.9972 6.66443 17.9637 6.32968 17.8997 6.00012H18.1397C18.3933 5.9995 18.6376 6.09519 18.8232 6.26785C19.0089 6.4405 19.122 6.67722 19.1397 6.93012L19.5697 12.7801C19.5947 13.1843 19.5376 13.5894 19.4018 13.9709C19.2661 14.3525 19.0545 14.7026 18.7798 15.0001ZM10.9998 12.0001H7.99975V10.0001H10.9998V12.0001ZM15.9998 12.0001H12.9998V10.0001H15.9998V12.0001ZM13.9998 8.00012H9.99975V6.00012H13.9998V8.00012Z" fill="#0F1621"/>
</svg>
