<svg width="16" height="16" viewBox="0 0 16 16" fill="none" xmlns="http://www.w3.org/2000/svg">
<path fill-rule="evenodd" clip-rule="evenodd" d="M2 3.25V10H8.75V3.25H9C9.69036 3.25 10.25 3.80964 10.25 4.5V5H11.7318C12.5246 5 13.2184 5.53302 13.4227 6.29909L14.0359 8.59855C14.5997 8.81425 15 9.36037 15 10V10.2384L15 10.25L15 12.5H14C14 13.3284 13.3284 14 12.5 14C11.6716 14 11 13.3284 11 12.5H8.5C8.5 13.3284 7.82843 14 7 14C6.17157 14 5.5 13.3284 5.5 12.5H5C5 13.3284 4.32843 14 3.5 14C2.67157 14 2 13.3284 2 12.5L1 12.5V4.25C1 3.69772 1.44772 3.25 2 3.25ZM11.9733 6.68559L12.4572 8.5H10.25V6.5H11.7318C11.845 6.5 11.9441 6.57615 11.9733 6.68559Z" fill="#0F1621"/>
<path fill-rule="evenodd" clip-rule="evenodd" d="M4.75 5H7.00069C7.27683 5 7.5 4.77614 7.5 4.5V1.5C7.5 1.22386 7.27736 1 7.00122 1H3.5L3.5001 7H4.75V5ZM4.75 2.25H6.25V3.75H4.75V2.25Z" fill="#0F1621"/>
</svg>
