<svg width="16" height="16" viewBox="0 0 16 16" fill="none" xmlns="http://www.w3.org/2000/svg">
<path d="M9.83193 1.82938C9.90889 1.79109 9.97677 1.7358 10.0308 1.66741L10.0246 1.6738C10.2156 1.42462 10.4678 1.23294 10.7549 1.11872C11.042 1.0045 11.3534 0.971915 11.6568 1.02436C11.9603 1.07681 12.2445 1.21238 12.48 1.41693C12.7155 1.62149 12.8936 1.88756 12.9958 2.18742L11.6597 2.18739L11.0865 2.77976L11.6597 3.37216L13 3.38072C12.8983 3.6812 12.7203 3.94793 12.4848 4.15306C12.2492 4.35819 11.9647 4.4942 11.6609 4.54688C11.3571 4.59956 11.0452 4.56698 10.7577 4.45255C10.4703 4.33811 10.2178 4.14601 10.0267 3.89631C9.97272 3.82792 9.90483 3.77262 9.82787 3.73433C9.75091 3.69603 9.66675 3.67567 9.58134 3.67469L3.88558 3.66988C3.68264 3.67394 3.48464 3.60494 3.32552 3.4747C3.16639 3.34446 3.05604 3.1611 3.01336 2.95601C2.99141 2.82771 2.99655 2.69603 3.02844 2.56998C3.06032 2.44393 3.11819 2.32649 3.19809 2.22571C3.27798 2.12493 3.37801 2.04319 3.49132 1.98608C3.60463 1.92898 3.72855 1.89786 3.85459 1.89485L9.5854 1.88901C9.67081 1.88803 9.75497 1.86768 9.83193 1.82938Z" fill="black"/>
<path d="M1 6.25C1 5.55964 1.55964 5 2.25 5H9C9.60474 5 10.1092 5.42944 10.225 6H11.7996C12.5355 6 13.1927 6.46037 13.4442 7.15195L14.0654 8.86021C14.6136 9.08345 15 9.6216 15 10.25V12.5H14C14 13.3284 13.3284 14 12.5 14C11.6716 14 11 13.3284 11 12.5H8.5C8.5 13.3284 7.82843 14 7 14C6.17157 14 5.5 13.3284 5.5 12.5H5C5 13.3284 4.32843 14 3.5 14C2.67157 14 2 13.3284 2 12.5H1V6.25ZM8.75 10.5V6.5H2V10.5H8.75ZM12.702 9.5L12.0345 7.66456C11.9986 7.56577 11.9047 7.5 11.7996 7.5H10.25V9.5H12.702Z" fill="black"/>
</svg>
