<svg width="24" height="24" viewBox="0 0 24 24" fill="none" xmlns="http://www.w3.org/2000/svg">
<path fill-rule="evenodd" clip-rule="evenodd" d="M13 6C14.1046 6 15 6.89543 15 8V10H17.7192C18.637 10 19.4369 10.6246 19.6595 11.5149L20.3764 14.3824L21.1095 14.871C21.666 15.242 22.0002 15.8666 22.0002 16.5354L22 20H20.95C20.7184 21.1411 19.7095 22 18.5 22C17.2905 22 16.2816 21.1411 16.05 20H12.95C12.7184 21.1411 11.7095 22 10.5 22C9.29052 22 8.28164 21.1411 8.05001 20H7.94999C7.71836 21.1411 6.70948 22 5.5 22C4.29052 22 3.28164 21.1411 3.05001 20H2V7.5C2 6.67157 2.67157 6 3.5 6V17H13V6ZM18.4692 15L17.7192 12H15V15H18.4692Z" fill="#0E1520"/>
<path d="M6.45552 8.73636C6.92781 9.17168 7.54885 9.41514 8.19479 9.41818C8.45245 9.41818 9.31749 9.35455 9.31749 8.55455C9.31749 8.12727 9.18865 7.89091 8.01994 7.53636C6.32669 7.01818 5.6365 6.31818 5.6365 5.12727C5.64383 4.63466 5.8197 4.159 6.1355 3.7777C6.4513 3.3964 6.88844 3.13191 7.37577 3.02727V2H9.21626V2.90909C9.87525 3.04027 10.4822 3.35583 10.9647 3.81818L11.1396 4L10.1549 5.12727L9.98006 4.98182C9.56324 4.61868 9.02662 4.41826 8.47086 4.41818C8.18558 4.41818 7.55061 4.47273 7.55061 5.05455C7.55061 5.39091 7.67945 5.59091 8.90337 5.96364C10.3298 6.4 11.25 7 11.25 8.48182C11.2486 9.04877 11.0434 9.59679 10.6709 10.0281C10.2983 10.4594 9.7828 10.7458 9.21626 10.8364V12H7.37577V10.8545C6.63689 10.7283 5.95198 10.39 5.40644 9.88182L5.25 9.72727L6.27147 8.6L6.45552 8.73636Z" fill="#0E1520"/>
</svg>
