<svg width="24" height="24" viewBox="0 0 24 24" fill="none" xmlns="http://www.w3.org/2000/svg">
<path d="M7.35297 2H5.00005L5 12H7.61436L7.61441 8.38788C10 8.38788 11.6667 7.31515 11.6667 5.12121C11.6667 3.0303 10.0327 2 7.35297 2ZM7.78434 6.64849H7.61441V3.74545H7.71898C8.83009 3.74545 9.35296 4.2303 9.35296 5.15152C9.3791 6.24242 8.78434 6.64849 7.78434 6.64849Z" fill="#0E1520"/>
<path d="M15 8C15 6.89543 14.1046 6 13 6V18H12.5002C12.0441 17.3928 11.3179 17 10.5 17C9.68209 17 8.95592 17.3928 8.49982 18H7.50018C7.04408 17.3928 6.31791 17 5.5 17C4.6822 17 3.95611 17.3927 3.5 17.9998V6C2.67157 6 2 6.67157 2 7.5V20H3.05001C3.28164 21.1411 4.29052 22 5.5 22C6.70948 22 7.71836 21.1411 7.94999 20H8.05001C8.28164 21.1411 9.29052 22 10.5 22C11.7095 22 12.7184 21.1411 12.95 20H16.05C16.2816 21.1411 17.2905 22 18.5 22C19.7095 22 20.7184 21.1411 20.95 20H22V16.0352C22 15.3665 21.6658 14.742 21.1093 14.371L20.3603 13.8718L19.6687 11.4507C19.4235 10.592 18.6387 10 17.7457 10H15V8ZM18.5 17C17.6821 17 16.9559 17.3928 16.4998 18H15V12H17.7457L18.6392 15.1282L20 16.0352V17.4998C19.5822 17.186 19.0628 17 18.5 17ZM5.5 20.5C4.94772 20.5 4.5 20.0523 4.5 19.5C4.5 18.9477 4.94772 18.5 5.5 18.5C6.05228 18.5 6.5 18.9477 6.5 19.5C6.5 20.0523 6.05228 20.5 5.5 20.5ZM10.5 20.5C9.94772 20.5 9.5 20.0523 9.5 19.5C9.5 18.9477 9.94772 18.5 10.5 18.5C11.0523 18.5 11.5 18.9477 11.5 19.5C11.5 20.0523 11.0523 20.5 10.5 20.5ZM19.5 19.5C19.5 20.0523 19.0523 20.5 18.5 20.5C17.9477 20.5 17.5 20.0523 17.5 19.5C17.5 18.9477 17.9477 18.5 18.5 18.5C19.0523 18.5 19.5 18.9477 19.5 19.5Z" fill="#0E1520"/>
</svg>
