<svg width="24" height="24" viewBox="0 0 24 24" fill="none" xmlns="http://www.w3.org/2000/svg">
<path fill-rule="evenodd" clip-rule="evenodd" d="M13 6C14.1046 6 15 6.89543 15 8V10H17.7192C18.637 10 19.4369 10.6246 19.6595 11.5149L20.3764 14.3824L21.1095 14.871C21.666 15.242 22.0002 15.8666 22.0002 16.5354L22 20H20.95C20.7184 21.1411 19.7095 22 18.5 22C17.2905 22 16.2816 21.1411 16.05 20H12.95C12.7184 21.1411 11.7095 22 10.5 22C9.29052 22 8.28164 21.1411 8.05001 20H7.94999C7.71836 21.1411 6.70948 22 5.5 22C4.29052 22 3.28164 21.1411 3.05001 20H2V7.5C2 6.67157 2.67157 6 3.5 6V17H13V6ZM18.4692 15L17.7192 12H15V15H18.4692Z" fill="#0F1621"/>
<path fill-rule="evenodd" clip-rule="evenodd" d="M7 8H10C10.2652 8 10.5196 7.89464 10.7071 7.70711C10.8946 7.51957 11 7.26522 11 7V3C11 2.73478 10.8946 2.48043 10.7071 2.29289C10.5196 2.10536 10.2652 2 10 2H5V11H7V8ZM7 4H9V6H7V4Z" fill="#0F1621"/>
</svg>
