<svg width="16" height="16" viewBox="0 0 16 16" fill="none" xmlns="http://www.w3.org/2000/svg">
<path fill-rule="evenodd" clip-rule="evenodd" d="M3.25003 1H4.83826C6.64707 1 7.75 1.72121 7.75 3.18485C7.75 4.72061 6.62501 5.47152 5.01473 5.47152L5.01469 8H3.25L3.25003 1ZM5.01473 4.25394H5.12943C5.80443 4.25394 6.20589 3.9697 6.18825 3.20606C6.18825 2.56121 5.83531 2.22182 5.08531 2.22182H5.01473V4.25394Z" fill="#0E1520"/>
<path fill-rule="evenodd" clip-rule="evenodd" d="M2 3.00394V10H8.75V3.00394H9C9.69036 3.00394 10.25 3.56358 10.25 4.25394V5H11.7318C12.5246 5 13.2184 5.53302 13.4227 6.29909L14.0359 8.59855C14.5997 8.81425 15 9.36037 15 10V10.2384L15 10.25L15 12.5H14C14 13.3284 13.3284 14 12.5 14C11.6716 14 11 13.3284 11 12.5H8.5C8.5 13.3284 7.82843 14 7 14C6.17157 14 5.5 13.3284 5.5 12.5H5C5 13.3284 4.32843 14 3.5 14C2.67157 14 2 13.3284 2 12.5L1 12.5V4.00394C1 3.45165 1.44772 3.00394 2 3.00394ZM11.9733 6.68559L12.4572 8.5H10.25V6.5H11.7318C11.845 6.5 11.9441 6.57615 11.9733 6.68559Z" fill="#0E1520"/>
</svg>
