<svg width="24" height="24" viewBox="0 0 24 24" fill="none" xmlns="http://www.w3.org/2000/svg">
<path d="M14.9314 3.32743C15.0546 3.26614 15.1632 3.17765 15.2496 3.06821L15.2397 3.07844C15.5454 2.6797 15.949 2.37294 16.4084 2.19011C16.8677 2.00728 17.3661 1.95507 17.8515 2.03891C18.337 2.12275 18.7918 2.33958 19.1685 2.66681C19.5453 2.99405 19.8302 3.41971 19.9936 3.89947L17.8558 3.89976L16.9385 4.84771L17.8556 5.79542L20 5.80876C19.8371 6.28956 19.5524 6.71638 19.1754 7.04466C18.7985 7.37293 18.3432 7.59062 17.8571 7.67499C17.371 7.75936 16.872 7.70731 16.4121 7.52428C15.9522 7.34126 15.5483 7.03396 15.2426 6.6345C15.1562 6.52508 15.0476 6.43662 14.9245 6.37536C14.8013 6.31411 14.6667 6.28156 14.53 6.28001L5.41672 6.27379C5.09201 6.28033 4.77523 6.16998 4.52066 5.96164C4.26608 5.7533 4.08956 5.45994 4.02134 5.13181C3.98625 4.92654 3.99451 4.71584 4.04556 4.51415C4.09661 4.31246 4.18923 4.12454 4.31709 3.96327C4.44494 3.802 4.60501 3.67119 4.78633 3.57979C4.96765 3.48839 5.16593 3.43856 5.36759 3.43373L14.537 3.42289C14.6736 3.4213 14.8083 3.38871 14.9314 3.32743Z" fill="#0E1520"/>
<path d="M2 11C2 9.89543 2.89543 9 4 9H13C13.7403 9 14.3866 9.4022 14.7324 10H17.7192C18.637 10 19.4369 10.6246 19.6595 11.5149L20.3764 14.3824L21.1095 14.871C21.666 15.242 22.0002 15.8665 22.0002 16.5353L22 20H20.95C20.7184 21.1411 19.7095 22 18.5 22C17.2905 22 16.2816 21.1411 16.05 20H12.95C12.7184 21.1411 11.7095 22 10.5 22C9.29052 22 8.28164 21.1411 8.05001 20H7.94999C7.71836 21.1411 6.70948 22 5.5 22C4.29052 22 3.28164 21.1411 3.05001 20H2V11ZM3.5 17H13V11H3.5V17ZM18.4692 15L17.7192 12H15V15H18.4692Z" fill="#0E1520"/>
</svg>
