<svg width="16" height="16" viewBox="0 0 16 16" fill="none" xmlns="http://www.w3.org/2000/svg">
<path d="M4 2.5C4.82843 2.5 5.5 1.82843 5.5 1H2.5C2.5 1.82843 3.17157 2.5 4 2.5Z" fill="#0E1520"/>
<path d="M2.5 4C2.5 4.82843 1.82843 5.5 1 5.5V2.5C1.82843 2.5 2.5 3.17157 2.5 4Z" fill="#0E1520"/>
<path d="M2.5 8C2.5 8.82843 1.82843 9.5 1 9.5V6.5C1.82843 6.5 2.5 7.17157 2.5 8Z" fill="#0E1520"/>
<path d="M13.5 4C13.5 4.82843 14.1716 5.5 15 5.5V2.5C14.1716 2.5 13.5 3.17157 13.5 4Z" fill="#0E1520"/>
<path d="M15 9.5C14.1716 9.5 13.5 8.82843 13.5 8C13.5 7.17157 14.1716 6.5 15 6.5V9.5Z" fill="#0E1520"/>
<path d="M1 13.5C1.82843 13.5 2.5 12.8284 2.5 12C2.5 11.1716 1.82843 10.5 1 10.5V13.5Z" fill="#0E1520"/>
<path d="M15 13.5C14.1716 13.5 13.5 12.8284 13.5 12C13.5 11.1716 14.1716 10.5 15 10.5V13.5Z" fill="#0E1520"/>
<path d="M9.5 1C9.5 1.82843 8.82843 2.5 8 2.5C7.17157 2.5 6.5 1.82843 6.5 1H9.5Z" fill="#0E1520"/>
<path d="M12 2.5C12.8284 2.5 13.5 1.82843 13.5 1H10.5C10.5 1.82843 11.1716 2.5 12 2.5Z" fill="#0E1520"/>
<path d="M4 5.5C4 5.22386 4.22386 5 4.5 5H5L5.16882 4.60608C5.3264 4.2384 5.68794 4 6.08797 4H9.91203C10.3121 4 10.6736 4.2384 10.8312 4.60608L11 5H11.5C11.7761 5 12 5.22386 12 5.5V14.5C12 14.7761 11.7761 15 11.5 15H11C10.7239 15 10.5 14.7761 10.5 14.5C10.5 14.7761 10.2761 15 10 15H9.5C9.22386 15 9 14.7761 9 14.5V13.5H7V14.5C7 14.7761 6.77614 15 6.5 15H6C5.72386 15 5.5 14.7761 5.5 14.5C5.5 14.7761 5.27614 15 5 15H4.5C4.22386 15 4 14.7761 4 14.5V5.5ZM5.75 12C6.16421 12 6.5 11.6642 6.5 11.25C6.5 10.8358 6.16421 10.5 5.75 10.5C5.33579 10.5 5 10.8358 5 11.25C5 11.6642 5.33579 12 5.75 12ZM10.25 12C10.6642 12 11 11.6642 11 11.25C11 10.8358 10.6642 10.5 10.25 10.5C9.83579 10.5 9.5 10.8358 9.5 11.25C9.5 11.6642 9.83579 12 10.25 12ZM5.5 9.5H10.5C10.7761 9.5 11 9.27614 11 9V6.5C11 6.22386 10.7761 6 10.5 6H5.5C5.22386 6 5 6.22386 5 6.5V9C5 9.27614 5.22386 9.5 5.5 9.5Z" fill="#0E1520"/>
</svg>
