<svg width="24" height="24" viewBox="0 0 24 24" fill="none" xmlns="http://www.w3.org/2000/svg">
<path d="M7.5 7.5L7.75323 6.90912C7.9896 6.3576 8.53191 6 9.13195 6H14.868C15.4681 6 16.0104 6.3576 16.2468 6.90912L16.5 7.5H17.25C17.6642 7.5 18 7.83579 18 8.25V9H18.5C19.0523 9 19.5 9.44772 19.5 10V13C19.5 13.5523 19.0523 14 18.5 14H18V21.5C18 21.7761 17.7761 22 17.5 22H16.5C16.2239 22 16 21.7761 16 21.5C16 21.7761 15.7761 22 15.5 22H14.5C14.2239 22 14 21.7761 14 21.5V20.25H10V21.5C10 21.7761 9.77614 22 9.5 22H8.5C8.22386 22 8 21.7761 8 21.5C8 21.7761 7.77614 22 7.5 22H6.5C6.22386 22 6 21.7761 6 21.5V14H5.5C4.94772 14 4.5 13.5523 4.5 13V10C4.5 9.44772 4.94772 9 5.5 9H6V8.25C6 7.83579 6.33579 7.5 6.75 7.5H7.5ZM7.5 13.5C7.5 13.9142 7.83579 14.25 8.25 14.25H15.75C16.1642 14.25 16.5 13.9142 16.5 13.5V9.75C16.5 9.33579 16.1642 9 15.75 9H8.25C7.83579 9 7.5 9.33579 7.5 9.75V13.5ZM7.5 16.875C7.5 17.4963 8.00368 18 8.625 18C9.24632 18 9.75 17.4963 9.75 16.875C9.75 16.2537 9.24632 15.75 8.625 15.75C8.00368 15.75 7.5 16.2537 7.5 16.875ZM15.375 18C15.9963 18 16.5 17.4963 16.5 16.875C16.5 16.2537 15.9963 15.75 15.375 15.75C14.7537 15.75 14.25 16.2537 14.25 16.875C14.25 17.4963 14.7537 18 15.375 18Z" fill="#0E1520"/>
<path d="M12.0001 2L2 4V6L12.0001 4L22 6V4L12.0001 2Z" fill="#0E1520"/>
</svg>
