<svg width="24" height="24" viewBox="0 0 24 24" fill="none" xmlns="http://www.w3.org/2000/svg">
<path d="M5.00005 2L5 12H7.61436L7.61441 8.38788C10 8.38788 11.6667 7.31515 11.6667 5.12121C11.6667 3.0303 10.0327 2 7.35297 2H5.00005ZM7.61441 6.64849V3.74545H7.71898C8.83009 3.74545 9.35296 4.2303 9.35296 5.15152C9.3791 6.24242 8.78434 6.64849 7.78434 6.64849H7.61441Z" fill="#0E1520"/>
<path d="M13 6C14.1046 6 15 6.89543 15 8V10H17.7192C18.637 10 19.4369 10.6246 19.6595 11.5149L20.3764 14.3824L21.1095 14.871C21.666 15.242 22.0002 15.8666 22.0002 16.5354L22 20H20.95C20.7184 21.1411 19.7095 22 18.5 22C17.2905 22 16.2816 21.1411 16.05 20H12.95C12.7184 21.1411 11.7095 22 10.5 22C9.29052 22 8.28164 21.1411 8.05001 20H7.94999C7.71836 21.1411 6.70948 22 5.5 22C4.29052 22 3.28164 21.1411 3.05001 20H2V7.5C2 6.67157 2.67157 6 3.5 6V17H13V6ZM18.4692 15L17.7192 12H15V15H18.4692Z" fill="#0E1520"/>
</svg>
