<svg width="24" height="24" viewBox="0 0 24 24" fill="none" xmlns="http://www.w3.org/2000/svg">
<path fill-rule="evenodd" clip-rule="evenodd" d="M13 6C14.1046 6 15 6.89543 15 8V10H17.7457C18.6387 10 19.4235 10.592 19.6687 11.4507L20.3603 13.8718L21.1093 14.371C21.6658 14.742 22 15.3665 22 16.0352V20H20.95C20.7184 21.1411 19.7095 22 18.5 22C17.2905 22 16.2816 21.1411 16.05 20H12.95C12.7184 21.1411 11.7095 22 10.5 22C9.29052 22 8.28164 21.1411 8.05001 20H7.94999C7.71836 21.1411 6.70948 22 5.5 22C4.29052 22 3.28164 21.1411 3.05001 20H2V7.5C2 6.67157 2.67157 6 3.5 6V17.9998C3.95611 17.3927 4.6822 17 5.5 17C6.31791 17 7.04408 17.3928 7.50018 18H8.49982C8.95592 17.3928 9.68209 17 10.5 17C11.3179 17 12.0441 17.3928 12.5002 18H13V6ZM16.4998 18C16.9559 17.3928 17.6821 17 18.5 17C19.0628 17 19.5822 17.186 20 17.4998V16.0352L18.6392 15.1282L17.7457 12H15V18H16.4998ZM4.5 19.5C4.5 20.0523 4.94772 20.5 5.5 20.5C6.05228 20.5 6.5 20.0523 6.5 19.5C6.5 18.9477 6.05228 18.5 5.5 18.5C4.94772 18.5 4.5 18.9477 4.5 19.5ZM9.5 19.5C9.5 20.0523 9.94772 20.5 10.5 20.5C11.0523 20.5 11.5 20.0523 11.5 19.5C11.5 18.9477 11.0523 18.5 10.5 18.5C9.94772 18.5 9.5 18.9477 9.5 19.5ZM18.5 20.5C19.0523 20.5 19.5 20.0523 19.5 19.5C19.5 18.9477 19.0523 18.5 18.5 18.5C17.9477 18.5 17.5 18.9477 17.5 19.5C17.5 20.0523 17.9477 20.5 18.5 20.5Z" fill="#0F1621"/>
<path fill-rule="evenodd" clip-rule="evenodd" d="M7 8H10C10.2652 8 10.5196 7.89464 10.7071 7.70711C10.8946 7.51957 11 7.26522 11 7V3C11 2.73478 10.8946 2.48043 10.7071 2.29289C10.5196 2.10536 10.2652 2 10 2H5V11H7V8ZM7 4H9V6H7V4Z" fill="#0F1621"/>
</svg>
