<svg width="24" height="24" viewBox="0 0 24 24" fill="none" xmlns="http://www.w3.org/2000/svg">
<path d="M5 2C5 3.10457 5.89543 4 7 4C8.10457 4 9 3.10457 9 2H5Z" fill="#0E1520"/>
<path d="M17 4C15.8954 4 15 3.10457 15 2H19C19 3.10457 18.1046 4 17 4Z" fill="#0E1520"/>
<path d="M12 4C10.8954 4 10 3.10457 10 2H14C14 3.10457 13.1046 4 12 4Z" fill="#0E1520"/>
<path d="M20 16C20 14.8954 20.8954 14 22 14V18C20.8954 18 20 17.1046 20 16Z" fill="#0E1520"/>
<path d="M22 4C20.8954 4 20 4.89543 20 6C20 7.10457 20.8954 8 22 8V4Z" fill="#0E1520"/>
<path d="M20 11C20 12.1046 20.8954 13 22 13L22 9C20.8954 9 20 9.89543 20 11Z" fill="#0E1520"/>
<path d="M2 8C3.10457 8 4 7.10457 4 6C4 4.89543 3.10457 4 2 4V8Z" fill="#0E1520"/>
<path d="M2 14C3.10457 14 4 14.8954 4 16C4 17.1046 3.10457 18 2 18V14Z" fill="#0E1520"/>
<path d="M4 11C4 12.1046 3.10457 13 2 13V9C3.10457 9 4 9.89543 4 11Z" fill="#0E1520"/>
<path d="M7.75323 6.90912L7.5 7.5H6.75C6.33579 7.5 6 7.83579 6 8.25V21.25C6 21.6642 6.33579 22 6.75 22H7.5C7.91421 22 8.25 21.6642 8.25 21.25C8.25 21.6642 8.58579 22 9 22H9.75C10.1642 22 10.5 21.6642 10.5 21.25V20.25H13.5V21.25C13.5 21.6642 13.8358 22 14.25 22H15C15.4142 22 15.75 21.6642 15.75 21.25C15.75 21.6642 16.0858 22 16.5 22H17.25C17.6642 22 18 21.6642 18 21.25V8.25C18 7.83579 17.6642 7.5 17.25 7.5H16.5L16.2468 6.90912C16.0104 6.3576 15.4681 6 14.868 6H9.13195C8.53191 6 7.9896 6.3576 7.75323 6.90912ZM7.5 13.5V9.75C7.5 9.33579 7.83579 9 8.25 9H15.75C16.1642 9 16.5 9.33579 16.5 9.75V13.5C16.5 13.9142 16.1642 14.25 15.75 14.25H8.25C7.83579 14.25 7.5 13.9142 7.5 13.5ZM7.5 16.875C7.5 16.2537 8.00368 15.75 8.625 15.75C9.24632 15.75 9.75 16.2537 9.75 16.875C9.75 17.4963 9.24632 18 8.625 18C8.00368 18 7.5 17.4963 7.5 16.875ZM15.375 18C14.7537 18 14.25 17.4963 14.25 16.875C14.25 16.2537 14.7537 15.75 15.375 15.75C15.9963 15.75 16.5 16.2537 16.5 16.875C16.5 17.4963 15.9963 18 15.375 18Z" fill="#0E1520"/>
</svg>
