<svg width="16" height="16" viewBox="0 0 16 16" fill="none" xmlns="http://www.w3.org/2000/svg">
<path d="M5.33589 6.19273C4.87835 6.19059 4.43845 6.02018 4.10391 5.71545L3.97354 5.62L3.25 6.40909L3.36081 6.51727C3.74724 6.87301 4.23238 7.10983 4.75575 7.19818V8H6.05943V7.18545C6.46073 7.12208 6.8259 6.92155 7.08977 6.61965C7.35364 6.31775 7.49903 5.93414 7.5 5.53727C7.5 4.5 6.84816 4.08 5.83781 3.77455C4.97086 3.51364 4.8796 3.37364 4.8796 3.13818C4.8796 2.73091 5.32937 2.69273 5.53144 2.69273C5.9251 2.69278 6.30521 2.83307 6.60046 3.08727L6.72431 3.18909L7.42178 2.4L7.29793 2.27273C6.95612 1.94908 6.52622 1.72819 6.05943 1.63636V1H4.75575V1.71909C4.41056 1.79234 4.10092 1.97748 3.87723 2.24439C3.65354 2.5113 3.52896 2.84426 3.52377 3.18909C3.52377 4.02273 4.01265 4.51273 5.21204 4.87545C6.03988 5.12364 6.13113 5.28909 6.13113 5.58818C6.13113 6.14818 5.5184 6.19273 5.33589 6.19273Z" fill="#0E1520"/>
<path d="M2 3V10H8.75V3H9C9.69036 3 10.25 3.55964 10.25 4.25V5H11.7318C12.5246 5 13.2184 5.53302 13.4227 6.29909L14.0359 8.59855C14.5997 8.81425 15 9.36037 15 10V10.2384L15 10.25L15 12.5H14C14 13.3284 13.3284 14 12.5 14C11.6716 14 11 13.3284 11 12.5L8.5 12.5C8.5 13.3284 7.82843 14 7 14C6.17157 14 5.5 13.3284 5.5 12.5H5C5 13.3284 4.32843 14 3.5 14C2.67157 14 2 13.3284 2 12.5L1 12.5V4C1 3.44772 1.44772 3 2 3ZM11.9733 6.68559C11.9441 6.57615 11.845 6.5 11.7318 6.5H10.25V8.5H12.4572L11.9733 6.68559Z" fill="#0E1520"/>
</svg>
