<svg width="24" height="24" viewBox="0 0 24 24" fill="none" xmlns="http://www.w3.org/2000/svg">
<path d="M14.9314 3.32743C15.0546 3.26614 15.1632 3.17765 15.2496 3.06821L15.2397 3.07844C15.5454 2.6797 15.949 2.37294 16.4084 2.19011C16.8677 2.00728 17.3661 1.95507 17.8515 2.03891C18.337 2.12275 18.7918 2.33958 19.1685 2.66681C19.5453 2.99405 19.8302 3.41971 19.9936 3.89947L17.8558 3.89976L16.9385 4.84771L17.8556 5.79542L20 5.80876C19.8371 6.28956 19.5524 6.71638 19.1754 7.04466C18.7985 7.37293 18.3432 7.59062 17.8571 7.67499C17.371 7.75936 16.872 7.70731 16.4121 7.52428C15.9522 7.34126 15.5483 7.03396 15.2426 6.6345C15.1562 6.52508 15.0476 6.43662 14.9245 6.37536C14.8013 6.31411 14.6667 6.28156 14.53 6.28001L5.41672 6.27379C5.09201 6.28033 4.77523 6.16998 4.52066 5.96164C4.26608 5.7533 4.08956 5.45994 4.02134 5.13181C3.98625 4.92654 3.99451 4.71584 4.04556 4.51415C4.09661 4.31246 4.18923 4.12454 4.31709 3.96327C4.44494 3.802 4.60501 3.67119 4.78633 3.57979C4.96765 3.48839 5.16593 3.43856 5.36759 3.43373L14.537 3.42289C14.6736 3.4213 14.8083 3.38871 14.9314 3.32743Z" fill="#0E1520"/>
<path d="M4 9C2.89543 9 2 9.89543 2 11V20H3.05001C3.28164 21.1411 4.29052 22 5.5 22C6.70948 22 7.71836 21.1411 7.94999 20H8.05001C8.28164 21.1411 9.29052 22 10.5 22C11.7095 22 12.7184 21.1411 12.95 20H16.05C16.2816 21.1411 17.2905 22 18.5 22C19.7095 22 20.7184 21.1411 20.95 20H21.9999L22.0002 16.0353C22.0002 15.3665 21.666 14.742 21.1095 14.371L20.3605 13.8718L19.6687 11.4506C19.4234 10.592 18.6387 10 17.7457 10H14.7324C14.3866 9.4022 13.7403 9 13 9H4ZM5.5 17C4.6822 17 3.95611 17.3927 3.5 17.9998V11L13 11V18H12.5002C12.0441 17.3928 11.3179 17 10.5 17C9.68209 17 8.95592 17.3928 8.49982 18H7.50018C7.04408 17.3928 6.31791 17 5.5 17ZM20 17.4998C19.5822 17.186 19.0628 17 18.5 17C17.6821 17 16.9559 17.3928 16.4998 18H15V12H17.7457L18.6395 15.1282L20.0002 16.0352L20 17.4998ZM10.5 20.5C9.94772 20.5 9.5 20.0523 9.5 19.5C9.5 18.9477 9.94772 18.5 10.5 18.5C11.0523 18.5 11.5 18.9477 11.5 19.5C11.5 20.0523 11.0523 20.5 10.5 20.5ZM19.5 19.5C19.5 20.0523 19.0523 20.5 18.5 20.5C17.9477 20.5 17.5 20.0523 17.5 19.5C17.5 18.9477 17.9477 18.5 18.5 18.5C19.0523 18.5 19.5 18.9477 19.5 19.5ZM5.5 20.5C4.94772 20.5 4.5 20.0523 4.5 19.5C4.5 18.9477 4.94772 18.5 5.5 18.5C6.05228 18.5 6.5 18.9477 6.5 19.5C6.5 20.0523 6.05228 20.5 5.5 20.5Z" fill="#0E1520"/>
</svg>
