<svg width="16" height="16" viewBox="0 0 16 16" fill="none" xmlns="http://www.w3.org/2000/svg">
<path d="M1 2.5L8 1L15 2.5V4L8 2.5L1 4V2.5Z" fill="#0E1520"/>
<path d="M5 5L5.16882 4.60608C5.3264 4.2384 5.68794 4 6.08797 4H9.91203C10.3121 4 10.6736 4.2384 10.8312 4.60608L11 5H11.5C11.7761 5 12 5.22386 12 5.5V6C12.5523 6 13 6.44772 13 7V8.5C13 9.05228 12.5523 9.5 12 9.5V14.5C12 14.7761 11.7761 15 11.5 15H11C10.7239 15 10.5 14.7761 10.5 14.5C10.5 14.7761 10.2761 15 10 15H9.5C9.22386 15 9 14.7761 9 14.5V13.5H7V14.5C7 14.7761 6.77614 15 6.5 15H6C5.72386 15 5.5 14.7761 5.5 14.5C5.5 14.7761 5.27614 15 5 15H4.5C4.22386 15 4 14.7761 4 14.5V9.5C3.44772 9.5 3 9.05228 3 8.5V7C3 6.44772 3.44772 6 4 6V5.5C4 5.22386 4.22386 5 4.5 5H5ZM5 9C5 9.27614 5.22386 9.5 5.5 9.5H10.5C10.7761 9.5 11 9.27614 11 9V6.5C11 6.22386 10.7761 6 10.5 6H5.5C5.22386 6 5 6.22386 5 6.5V9ZM5.75 12C6.16421 12 6.5 11.6642 6.5 11.25C6.5 10.8358 6.16421 10.5 5.75 10.5C5.33579 10.5 5 10.8358 5 11.25C5 11.6642 5.33579 12 5.75 12ZM10.25 12C10.6642 12 11 11.6642 11 11.25C11 10.8358 10.6642 10.5 10.25 10.5C9.83579 10.5 9.5 10.8358 9.5 11.25C9.5 11.6642 9.83579 12 10.25 12Z" fill="#0E1520"/>
</svg>
