<svg width="16" height="16" viewBox="0 0 16 16" fill="none" xmlns="http://www.w3.org/2000/svg">
<path d="M2.71337 14.6667H1.33337V6.93337C1.33337 3.45337 4.32671 1.33337 8.00004 1.33337C11.6734 1.33337 14.6667 3.45337 14.6667 6.93337V14.6667H13.2867L12.6667 14.12V7.05337C12.6667 4.57337 10.32 3.46004 8.00004 3.46004C5.68004 3.46004 3.33337 4.57337 3.33337 7.05337V14.12L2.71337 14.6667ZM8.00004 6.00004C6.52671 6.00004 5.33337 6.90004 5.33337 8.37337V12.3734L6.66671 11.1934V8.39337C6.66671 7.38004 7.78004 7.33337 8.00004 7.33337C8.22004 7.33337 9.33337 7.38004 9.33337 8.37337V11.1734L10.6667 12.3534V8.35337C10.6667 6.90004 9.47337 6.00004 8.00004 6.00004Z" fill="#0F1621"/>
</svg>
