<svg width="16" height="16" viewBox="0 0 16 16" fill="none" xmlns="http://www.w3.org/2000/svg">
<path d="M14.6667 8.96665V10.3C14.42 10.3 14.32 10.38 14.0733 10.62C13.8801 10.8304 13.6451 10.9984 13.3834 11.1132C13.1218 11.2279 12.8391 11.287 12.5533 11.2866C12.267 11.2908 11.9831 11.2334 11.7209 11.1184C11.4587 11.0034 11.2242 10.8334 11.0333 10.62C10.7867 10.38 10.6867 10.3 10.44 10.3C10.1933 10.3 10.0933 10.38 9.84667 10.62C9.65891 10.8384 9.42619 11.0137 9.16443 11.1339C8.90266 11.254 8.61803 11.3162 8.33 11.3162C8.04197 11.3162 7.75734 11.254 7.49557 11.1339C7.23381 11.0137 7.00109 10.8384 6.81333 10.62C6.56 10.38 6.46667 10.3 6.22 10.3C5.97333 10.3 5.87333 10.38 5.62667 10.62C5.43891 10.8384 5.20619 11.0137 4.94443 11.1339C4.68266 11.254 4.39803 11.3162 4.11 11.3162C3.82197 11.3162 3.53734 11.254 3.27557 11.1339C3.01381 11.0137 2.78109 10.8384 2.59333 10.62C2.34667 10.38 2.24667 10.3 2 10.3V8.96665C2.28468 8.96679 2.56622 9.02613 2.82675 9.1409C3.08727 9.25567 3.32108 9.42335 3.51333 9.63331C3.76667 9.87331 3.86 9.95331 4.10667 9.95331C4.35333 9.95331 4.45333 9.87331 4.7 9.63331C4.89657 9.43859 5.12131 9.27454 5.36667 9.14665V3.99998C5.36672 3.82204 5.33116 3.6459 5.26208 3.48192C5.193 3.31794 5.0918 3.16944 4.96443 3.04519C4.83707 2.92093 4.68612 2.82342 4.52049 2.75841C4.35485 2.6934 4.17788 2.6622 4 2.66665H3.33333V1.33331H8.66667C9.37391 1.33331 10.0522 1.61426 10.5523 2.11436C11.0524 2.61446 11.3333 3.29274 11.3333 3.99998V9.17998C11.5616 9.30989 11.7704 9.47149 11.9533 9.65998C12.2067 9.89998 12.3067 9.97998 12.5533 9.97998C12.8 9.97998 12.9 9.89998 13.1467 9.65998C13.3373 9.44434 13.5711 9.27118 13.833 9.15174C14.0948 9.03229 14.3789 8.96923 14.6667 8.96665ZM14.6667 13.6333V12.3C14.42 12.3 14.32 12.38 14.0733 12.62C13.8801 12.8304 13.6451 12.9984 13.3834 13.1132C13.1218 13.2279 12.8391 13.287 12.5533 13.2866C12.267 13.2908 11.9831 13.2334 11.7209 13.1184C11.4587 13.0034 11.2242 12.8334 11.0333 12.62C10.7867 12.38 10.6867 12.3 10.44 12.3C10.1933 12.3 10.0933 12.38 9.84667 12.62C9.65891 12.8384 9.42619 13.0137 9.16443 13.1339C8.90266 13.254 8.61803 13.3162 8.33 13.3162C8.04197 13.3162 7.75734 13.254 7.49557 13.1339C7.23381 13.0137 7.00109 12.8384 6.81333 12.62C6.56 12.38 6.46667 12.3 6.22 12.3C5.97333 12.3 5.87333 12.38 5.62667 12.62C5.43891 12.8384 5.20619 13.0137 4.94443 13.1339C4.68266 13.254 4.39803 13.3162 4.11 13.3162C3.82197 13.3162 3.53734 13.254 3.27557 13.1339C3.01381 13.0137 2.78109 12.8384 2.59333 12.62C2.34667 12.38 2.24667 12.3 2 12.3V13.88C2.58393 14.3884 3.3324 14.6679 4.10667 14.6666C4.88055 14.6745 5.63115 14.4022 6.22 13.9C6.80524 14.4039 7.55445 14.6765 8.32667 14.6666C9.10055 14.6745 9.85115 14.4022 10.44 13.9C11.0326 14.3958 11.7807 14.6675 12.5533 14.6675C13.326 14.6675 14.0741 14.3958 14.6667 13.9V13.6333Z" fill="#0F1621"/>
</svg>
