<svg width="24" height="24" viewBox="0 0 24 24" fill="none" xmlns="http://www.w3.org/2000/svg">
<path fill-rule="evenodd" clip-rule="evenodd" d="M4 2C2.89543 2 2 2.89543 2 4V13H3.05001C3.28164 14.1411 4.29052 15 5.5 15C6.70948 15 7.71836 14.1411 7.94999 13H8.05001C8.28164 14.1411 9.29052 15 10.5 15C11.7095 15 12.7184 14.1411 12.95 13H16.05C16.2816 14.1411 17.2905 15 18.5 15C19.7095 15 20.7184 14.1411 20.95 13L22 13L22.0002 9.53535C22.0002 8.86654 21.666 8.24197 21.1095 7.87102L20.3764 7.38236L19.6595 4.51493C19.4369 3.62459 18.637 3 17.7192 3H14.7324C14.3866 2.4022 13.7403 2 13 2H4ZM13 4V10H3.5V4H13ZM15 5V8H18.4692L17.7192 5H15Z" fill="#0E1520"/>
<path d="M2 16H22V18H17.5V19H20L16.5 22L13 19H15.5V18H8.5V19H11L7.5 22L4 19H6.5V18H2V16Z" fill="#0E1520"/>
</svg>
