<svg width="24" height="24" viewBox="0 0 24 24" fill="none" xmlns="http://www.w3.org/2000/svg">
<path d="M2 4C2 2.89543 2.89543 2 4 2H13C13.7403 2 14.3866 2.4022 14.7324 3H17.7192C18.637 3 19.4369 3.62459 19.6595 4.51493L20.3764 7.38236L21.1095 7.87102C21.666 8.24197 22.0002 8.86654 22.0002 9.53535L22 13L20.95 13C20.7184 14.1411 19.7095 15 18.5 15C17.2905 15 16.2816 14.1411 16.05 13H12.95C12.7184 14.1411 11.7095 15 10.5 15C9.29052 15 8.28164 14.1411 8.05001 13H7.94999C7.71836 14.1411 6.70948 15 5.5 15C4.29052 15 3.28164 14.1411 3.05001 13H2V4ZM13 10V4H3.5V10H13ZM17.7192 5H15V8H18.4692L17.7192 5Z" fill="#0E1520"/>
<path d="M22 16H2V18H6.5V19H4L7.5 22L11 19H8.5V18H15.5V19H13L16.5 22L20 19H17.5V18H22V16Z" fill="#0E1520"/>
</svg>
