<svg width="24" height="24" viewBox="0 0 24 24" fill="none" xmlns="http://www.w3.org/2000/svg">
<path d="M4 2C2.89543 2 2 2.89543 2 4V13H3.05001C3.28164 14.1411 4.29052 15 5.5 15C6.70948 15 7.71836 14.1411 7.94999 13H8.05001C8.28164 14.1411 9.29052 15 10.5 15C11.7095 15 12.7184 14.1411 12.95 13H16.05C16.2816 14.1411 17.2905 15 18.5 15C19.7095 15 20.7184 14.1411 20.95 13H21.9999L22.0002 9.03534C22.0002 8.36654 21.666 7.74197 21.1095 7.37103L20.3605 6.87181L19.6687 4.45056C19.4234 3.59196 18.6387 3 17.7457 3H14.7324C14.3866 2.4022 13.7403 2 13 2H4ZM5.5 10C4.6822 10 3.95611 10.3927 3.5 10.9998V4H13V11H12.5002C12.0441 10.3928 11.3179 10 10.5 10C9.68209 10 8.95592 10.3928 8.49982 11H7.50018C7.04408 10.3928 6.31791 10 5.5 10ZM20 10.4998C19.5822 10.186 19.0628 10 18.5 10C17.6821 10 16.9559 10.3928 16.4998 11H15V5H17.7457L18.6395 8.12819L20.0002 9.03521L20 10.4998ZM10.5 13.5C9.94772 13.5 9.5 13.0523 9.5 12.5C9.5 11.9477 9.94772 11.5 10.5 11.5C11.0523 11.5 11.5 11.9477 11.5 12.5C11.5 13.0523 11.0523 13.5 10.5 13.5ZM19.5 12.5C19.5 13.0523 19.0523 13.5 18.5 13.5C17.9477 13.5 17.5 13.0523 17.5 12.5C17.5 11.9477 17.9477 11.5 18.5 11.5C19.0523 11.5 19.5 11.9477 19.5 12.5ZM5.5 13.5C4.94772 13.5 4.5 13.0523 4.5 12.5C4.5 11.9477 4.94772 11.5 5.5 11.5C6.05228 11.5 6.5 11.9477 6.5 12.5C6.5 13.0523 6.05228 13.5 5.5 13.5Z" fill="#0E1520"/>
<path d="M2 16H22V18H17.5V19H20L16.5 22L13 19H15.5V18H8.5V19H11L7.5 22L4 19H6.5V18H2V16Z" fill="#0E1520"/>
</svg>
