<svg width="16" height="16" viewBox="0 0 16 16" fill="none" xmlns="http://www.w3.org/2000/svg">
<path d="M2.25 1C1.55964 1 1 1.55964 1 2.25V8.5H2C2 9.32843 2.67157 10 3.5 10C4.32843 10 5 9.32843 5 8.5H5.5C5.5 9.32843 6.17157 10 7 10C7.82843 10 8.5 9.32843 8.5 8.5H11C11 9.32843 11.6716 10 12.5 10C13.3284 10 14 9.32843 14 8.5H15V6.25C15 5.6216 14.6136 5.08345 14.0654 4.86021L13.4442 3.15195C13.1927 2.46037 12.5355 2 11.7996 2H10.225C10.1092 1.42944 9.60474 1 9 1H2.25ZM2 6.5V2.5H8.75V6.5H2ZM12.702 5.5H10.25V3.5H11.7996C11.9047 3.5 11.9986 3.56577 12.0345 3.66456L12.702 5.5Z" fill="black"/>
<path d="M15 11H1V12H3.75V13H2L4.5 15L7 13H5.25V12H10.75V13H9L11.5 15L14 13H12.25V12H15V11Z" fill="black"/>
</svg>
