<svg width="24" height="24" viewBox="0 0 24 24" fill="none" xmlns="http://www.w3.org/2000/svg">
<path d="M14 2H13.46C14.4541 3.09469 15.0033 4.52129 15 6V10H13V6C13 4.93913 12.5786 3.92172 11.8284 3.17157C11.0783 2.42143 10.0609 2 9 2C7.14348 2 5.36301 2.7375 4.05025 4.05025C2.7375 5.36301 2 7.14348 2 9V10.18C2.01471 11.0901 2.37175 11.9613 3 12.62C3.62187 13.2586 3.97912 14.1089 4 15V17C4 17.2652 3.89464 17.5196 3.70711 17.7071C3.51957 17.8946 3.26522 18 3 18H2V20H4C4.53043 20 5.03914 19.7893 5.41421 19.4142C5.78929 19.0391 6 18.5304 6 18V16.25C6.00521 16.1667 6.00521 16.0833 6 16H8V20C8 20.5304 8.21071 21.0391 8.58579 21.4142C8.96086 21.7893 9.46957 22 10 22H14V17H16V20C16 20.5304 16.2107 21.0391 16.5858 21.4142C16.9609 21.7893 17.4696 22 18 22H22V10C22 7.87827 21.1571 5.84344 19.6569 4.34315C18.1566 2.84285 16.1217 2 14 2ZM7 10C6.80222 10 6.60888 9.94135 6.44443 9.83147C6.27998 9.72159 6.15181 9.56541 6.07612 9.38268C6.00043 9.19996 5.98063 8.99889 6.01921 8.80491C6.0578 8.61093 6.15304 8.43275 6.29289 8.29289C6.43275 8.15304 6.61093 8.0578 6.80491 8.01921C6.99889 7.98063 7.19996 8.00043 7.38268 8.07612C7.56541 8.15181 7.72159 8.27998 7.83147 8.44443C7.94135 8.60888 8 8.80222 8 9C8 9.26522 7.89464 9.51957 7.70711 9.70711C7.51957 9.89464 7.26522 10 7 10Z" fill="#0F1621"/>
</svg>
