<svg width="24" height="25" viewBox="0 0 24 25" fill="none" xmlns="http://www.w3.org/2000/svg">
<path d="M9 10.0601C9 10.6601 8.6 11.0601 8 11.0601C7.4 11.0601 7 10.6601 7 10.0601C7 9.46006 7.4 9.06006 8 9.06006C8.6 9.06006 9 9.46006 9 10.0601ZM21 9.86006V21.0601H17C15.9 21.0601 15 20.1601 15 19.0601V16.0601H14V21.0601H11H10C8.9 21.0601 8 20.1601 8 19.0601V15.0601C8 15.0601 7.9 15.0601 7 15.0601C5.9 15.0601 5 15.9601 5 17.0601C5 18.1601 5.9 19.0601 7 19.0601V21.0601C4.8 21.0601 3 19.2601 3 17.0601C3 16.3601 3 15.6601 3 15.0601C3 14.3601 3 13.7601 3 13.3601V13.0601V12.0601V9.86006C3 8.46006 3.4 7.06006 4.1 5.96006C6 3.26006 8.8 3.06006 12 3.06006C15.2 3.06006 18 3.26006 19.9 5.96006C20.6 7.06006 21 8.46006 21 9.86006ZM19 9.86006C19 8.76006 18.7 7.86006 18.2 7.16006C17.2 5.76006 15.8 5.36006 13.6 5.16006C13.9 5.76006 14 6.36006 14 7.06006V10.0601H12V7.06006C12 6.36006 11.8 5.66006 11.4 5.06006C8.6 5.06006 6.9 5.46006 5.8 7.06006C5.3 7.86006 5 8.76006 5 9.86006V12.0601V13.0601V13.3601V13.5601C5.6 13.2601 6.3 13.0601 7 13.0601H8H10V15.0601V19.0601H11H12V14.0601H17V19.0601H19V9.86006Z" fill="#0F1621"/>
</svg>
