<svg xmlns="http://www.w3.org/2000/svg" width="24" height="24" viewBox="0 0 24 24">
  <g fill="none" fill-rule="evenodd">
    <polygon points="0 0 24 0 24 24 0 24" opacity=".05"/>
    <path fill="#0F1621" fill-opacity=".95" d="M9.70099999,8.62699999 L14.042,11.109 L14.972,14.52 L11.499,16.566 L17.576,20.04 C18.1052,20.3508 18.4671467,20.3976534 19.209827,20.0065701 L19.375,19.916 L19.663,20.981 C18.9298236,21.6746471 17.8715537,21.8323772 16.9817446,21.4116713 L16.817,21.326 L2.50699996,13.154 L3.68499997,12.1 L9.32799999,15.324 L11.933,12.782 L9.70099999,8.62699999 Z M6.60099998,3.97599997 L11.81,6.95299998 L13.379,5.61499997 C13.659,5.42833331 14.0116914,5.39653084 14.3176777,5.52380656 L14.43,5.57899997 L17.8,7.50499998 L17.887,10.427 L20.492,11.916 L19.748,13.218 L5.85699997,5.27799997 L6.60099998,3.97599997 Z M18.758,2.86199996 C19.0124286,2.41628567 19.5574337,2.24131629 20.0175077,2.43797445 L20.122,2.48999996 L20.99,2.98599996 C21.4357143,3.24042853 21.6106837,3.78543364 21.4140255,4.24550762 L21.362,4.34999997 L20.369,6.08599998 C20.1145715,6.53078569 19.5695664,6.706551 19.1094924,6.51081193 L19.005,6.45899998 L17.269,5.46699997 L18.758,2.86199996 Z"/>
  </g>
</svg>
