<svg xmlns="http://www.w3.org/2000/svg" width="24" height="24" viewBox="0 0 24 24">
  <g fill="none" fill-rule="evenodd">
    <rect width="24" height="24" opacity="0"/>
    <path fill="#0F1621" fill-opacity=".95" d="M13.62,1.99999996 L16.124625,1.99849996 L16.124625,1.99849996 L16.25,1.99999996 C19.3521396,1.99999996 21.8799535,4.45567114 21.9958484,7.52942013 L22,7.74999998 L22,7.99999998 L21.501,21.999 L18.002,22 L17.999,17.5 L14,16.969 L14,21.999 L9.99999996,22 L9.99999996,13.5 L7.46999998,14.057 L7.46999998,14.057 C6.12099998,14.349 5.26399997,15.681 5.55699997,17.03 C5.79639997,18.132 6.75870248,18.9045875 7.83002696,18.9919519 L7.99999996,19 L7.99999996,22 L7.50099998,22 C4.5353333,22 2.11761164,19.6214422 2.00416325,16.6820519 L2.0009363,15.9520216 C2.00421782,14.1450766 2.01499996,8.15791303 2.01499996,7.49999998 C2.01499996,4.54097558 4.3507525,2.12924446 7.27927645,2.00593052 L7.49999996,1.99999996 L9.08899999,1.99999996 C11.9253589,1.99999996 13.8968369,4.49590792 13.9960735,7.24914531 L14,12 L16,12 L16,7.46699998 C16,5.41461902 15.1664399,3.55452831 13.8249865,2.19943706 L13.62,1.99999996 Z M6.49999997,6.99999998 C5.67199997,6.99999998 4.99999997,7.67199998 4.99999997,8.49999998 C4.99999997,9.32799999 5.67199997,9.99999998 6.49999997,9.99999998 C7.32799998,9.99999998 7.99999997,9.32899999 7.99999997,8.49999998 C7.99999997,7.67099998 7.32799998,6.99999998 6.49999997,6.99999998 Z"/>
  </g>
</svg>
