<svg xmlns="http://www.w3.org/2000/svg" width="24" height="24" viewBox="0 0 24 24">
  <g fill="none" fill-rule="evenodd">
    <rect width="24" height="24" opacity="0"/>
    <path fill="#0F1621" fill-opacity=".95" d="M12,4.99999997 C15.59,4.99999997 18.5,7.90999998 18.5,11.5 C18.5,14.2144375 16.8332656,16.5337764 14.4689499,17.5061374 L14.238,17.596 L16,22 L7.99999997,22 L9.76199999,17.596 C7.27599998,16.683 5.49999997,14.302 5.49999997,11.5 C5.49999997,7.90999998 8.40999999,4.99999997 12,4.99999997 Z M3.99599997,16.998 L6.99999998,16.998 L6.99999998,18 C6.99999998,18.552 6.55199998,19 5.99999997,19 L4.99599997,18.999 C4.44699997,18.997 4.00299997,18.553 3.99999997,18.005 L3.99599997,18 L3.99599997,16.998 Z M16.996,16.998 L20,16.998 L20,18 C20,18.552 19.552,19 19,19 L17.997,18.999 C17.448,18.997 17.004,18.553 17.001,18.005 L16.996,18 L16.996,16.998 Z M12,6.99999998 C9.51899999,6.99999998 7.49999998,9.01899999 7.49999998,11.5 C7.49999998,13.3835556 8.67024964,14.9852126 10.3178172,15.6531153 L10.51,15.726 L11.63,12.925 C11.262,12.778 11,12.421 11,12 C11,11.448 11.448,11 12,11 C12.552,11 13,11.448 13,12 C13,12.3789 12.78778,12.70596 12.477793,12.875475 L12.371,12.926 L13.491,15.727 C15.238,15.108 16.5,13.456 16.5,11.5 C16.5,9.01899999 14.481,6.99999998 12,6.99999998 Z M1.99599996,10.998 L4.99999997,10.998 L4.99999997,12 C4.99999997,12.552 4.55199997,13 3.99999997,13 L2.99599996,12.999 C2.44699996,12.997 2.00299996,12.553 1.99999996,12.005 L1.99599996,12 L1.99599996,10.998 Z M18.996,10.998 L22,10.998 L22,12 C22,12.552 21.552,13 21,13 L19.997,12.999 C19.448,12.997 19.004,12.553 19.001,12.005 L18.996,12 L18.996,10.998 Z M3.99599997,4.99799997 L6.99999998,4.99799997 L6.99999998,5.99999998 C6.99999998,6.55199998 6.55199998,6.99999998 5.99999997,6.99999998 L4.99699997,6.99899998 C4.44799997,6.99799997 4.00399997,6.55399998 4.00099997,6.00499998 L3.99599997,5.99999998 L3.99599997,4.99799997 Z M16.996,4.99799997 L20,4.99799997 L20,5.99999998 C20,6.55199998 19.552,6.99999998 19,6.99999998 L17.997,6.99899998 C17.448,6.99799997 17.004,6.55399998 17.001,6.00499998 L16.996,5.99999998 L16.996,4.99799997 Z M10.498,1.99799996 L13.502,1.99799996 L13.502,2.99999996 C13.502,3.55199996 13.054,3.99999997 12.502,3.99999997 L11.499,3.99899997 C10.95,3.99799996 10.506,3.55399996 10.503,3.00499996 L10.498,2.99999996 L10.498,1.99799996 Z"/>
  </g>
</svg>
