<svg xmlns="http://www.w3.org/2000/svg" viewBox="0 0 80 80"><path d="M50.55,15.46l2.26-5.09a25.83,25.83,0,0,0-4.57-2L46,13.4a20.08,20.08,0,0,0-5.63-.88L39.78,7a26,26,0,0,0-5,.51L35.39,13a20.36,20.36,0,0,0-5.32,2l-3.26-4.49A23.6,23.6,0,0,0,24.71,12a24.78,24.78,0,0,0-1.95,1.57L26,18a20.59,20.59,0,0,0-3.58,4.42l-5.09-2.26a25.83,25.83,0,0,0-2,4.57l5,2.25a20.08,20.08,0,0,0-.88,5.63L14,33.22a26,26,0,0,0,.51,5L20,37.61a20.36,20.36,0,0,0,2,5.32l-4.49,3.26A23.6,23.6,0,0,0,19,48.29a24.78,24.78,0,0,0,1.57,2L25,47a20.59,20.59,0,0,0,4.42,3.58l-2.26,5.09a25.83,25.83,0,0,0,4.57,2l2.25-5A20.48,20.48,0,0,0,50.55,15.46ZM40,48.5A15.5,15.5,0,1,1,55.5,33,15.51,15.51,0,0,1,40,48.5Z" style="fill:#d1def4;opacity:0.35000000000000003"/><path d="M46.5,37.27c0,2.86-2.5,5.15-6.66,5.15s-6.53-2.27-6.53-5.07c0-2.14,1.25-3.51,3.31-4.42A4.51,4.51,0,0,1,34,28.79c0-2.86,2.6-4.65,5.9-4.65s5.9,1.58,5.9,4.5c0,1.56-.88,2.91-2.86,4C45.35,33.71,46.5,35.21,46.5,37.27Zm-3.72,0c0-1.53-.81-2.23-3-3L39,33.94A3.44,3.44,0,0,0,37,37.19c0,1.56,1.12,2.52,2.91,2.52S42.78,38.67,42.78,37.24Zm-5.18-8.4c0,1.36.84,2,2.4,2.63l.52.18a3.05,3.05,0,0,0,1.71-2.83,2,2,0,0,0-2.29-2.16A2.07,2.07,0,0,0,37.6,28.84ZM49,1l.36,6.11,12.58-.36,0,0-6.6,6.6a4.93,4.93,0,0,1-5.7,1A21,21,0,1,0,33.55,53,5,5,0,0,1,37,57.74V80h6V57.74a11,11,0,0,0-7.61-10.46A15,15,0,1,1,46.9,19.68a10.84,10.84,0,0,0,12.71-2.05l6.6-6.6,0,0-.36,12.58L72,24V1Z" style="fill:#fff"/></svg>