<svg xmlns="http://www.w3.org/2000/svg" viewBox="0 0 80 80"><path d="M65.88,35.5c.08-.82.12-1.66.12-2.5s0-1.68-.12-2.5H60.33a20.42,20.42,0,0,0-4.19-10.1l3.92-3.92a25.75,25.75,0,0,0-3.54-3.54L52.6,16.86a20.42,20.42,0,0,0-10.1-4.19V7.12C41.68,7,40.84,7,40,7s-1.68,0-2.5.12v5.55A20.49,20.49,0,1,0,52.6,49.14l3.92,3.92a25.75,25.75,0,0,0,3.54-3.54L56.14,45.6a20.42,20.42,0,0,0,4.19-10.1ZM40,48.5A15.5,15.5,0,1,1,55.5,33,15.51,15.51,0,0,1,40,48.5Z" style="fill:#d1def4;opacity:0.35000000000000003"/><path d="M45.14,27.15H38.67v4a6.28,6.28,0,0,1,2.65-.59c2.89,0,5,2.08,5,5.66s-2.65,6.17-6.71,6.17A7.22,7.22,0,0,1,34,39.87L36,37.92a4.44,4.44,0,0,0,3.49,1.66c1.87,0,3-1.17,3-3.33s-1.12-3.09-2.65-3.09a4.25,4.25,0,0,0-2.18.62H35.13v-9.3H45.58Zm15.73,3.44A21,21,0,0,0,30.33,14.35a4.93,4.93,0,0,1-5.7-1L18,6.79l0,0,12.58.36L31,1H8V24l6.11-.36-.36-12.58,0,0,6.6,6.6A10.86,10.86,0,0,0,33.1,19.68a15,15,0,1,1,11.51,27.6A11,11,0,0,0,37,57.74V80h6V57.74A5,5,0,0,1,46.45,53,21.12,21.12,0,0,0,60.87,30.59Z" style="fill:#fff"/></svg>