<svg xmlns="http://www.w3.org/2000/svg" viewBox="0 0 80 80"><path d="M65.48,38.19a26,26,0,0,0,.51-5l-5.51-.58A20.08,20.08,0,0,0,59.6,27l5.05-2.25a25.83,25.83,0,0,0-2-4.57l-5.09,2.26A20.59,20.59,0,0,0,54,18l3.28-4.5a24.78,24.78,0,0,0-2-1.57,23.6,23.6,0,0,0-2.1-1.37l-3.26,4.49a20.36,20.36,0,0,0-5.32-2l.58-5.52a26,26,0,0,0-5-.51l-.58,5.51A20.08,20.08,0,0,0,34,13.4L31.76,8.35a25.83,25.83,0,0,0-4.57,2l2.26,5.09A20.48,20.48,0,0,0,46,52.6l2.25,5a25.83,25.83,0,0,0,4.57-2l-2.26-5.09A20.59,20.59,0,0,0,55,47l4.5,3.28a24.78,24.78,0,0,0,1.57-2,23.6,23.6,0,0,0,1.37-2.1l-4.49-3.26a20.36,20.36,0,0,0,2-5.32ZM40,48.5A15.5,15.5,0,1,1,55.5,33,15.51,15.51,0,0,1,40,48.5Z" style="fill:#d1def4;opacity:0.35000000000000003"/><path d="M46.59,37.27c0,2.86-2.5,5.15-6.66,5.15s-6.53-2.27-6.53-5.07c0-2.14,1.25-3.51,3.31-4.42a4.51,4.51,0,0,1-2.6-4.14c0-2.86,2.6-4.65,5.9-4.65s5.9,1.58,5.9,4.5c0,1.56-.88,2.91-2.86,4C45.44,33.71,46.59,35.21,46.59,37.27Zm-3.72,0c0-1.53-.81-2.23-3-3l-.83-.29a3.44,3.44,0,0,0-2,3.25c0,1.56,1.12,2.52,2.91,2.52S42.87,38.67,42.87,37.24Zm-5.18-8.4c0,1.36.84,2,2.39,2.63l.53.18a3.05,3.05,0,0,0,1.71-2.83A2,2,0,0,0,40,26.66,2.07,2.07,0,0,0,37.69,28.84Zm23.18,1.75A21,21,0,0,0,30.33,14.35a4.93,4.93,0,0,1-5.7-1L18,6.79l0,0,12.58.36L31,1H8V24l6.11-.36-.36-12.58,0,0,6.6,6.6A10.86,10.86,0,0,0,33.1,19.68a15,15,0,1,1,11.51,27.6A11,11,0,0,0,37,57.74V80h6V57.74A5,5,0,0,1,46.45,53,21.12,21.12,0,0,0,60.87,30.59Z" style="fill:#fff"/></svg>