<svg xmlns="http://www.w3.org/2000/svg" viewBox="0 0 80 80"><path d="M60.5,33a20.56,20.56,0,1,0-7.9,16.14l3.92,3.92a25.75,25.75,0,0,0,3.54-3.54L56.14,45.6A20.4,20.4,0,0,0,60.5,33ZM40,48.5A15.5,15.5,0,1,1,55.5,33,15.51,15.51,0,0,1,40,48.5Z" style="fill:#d1def4;opacity:0.35000000000000003"/><path d="M45.53,29.1c0,2.84-1.53,4.94-7,10h7.36L45.51,42H34.35V39.32c6-6,7.39-7.56,7.39-9.9A2.25,2.25,0,0,0,39.34,27,4.07,4.07,0,0,0,36,28.84l-2.21-1.76a7,7,0,0,1,5.85-2.94C43.43,24.14,45.53,26.37,45.53,29.1ZM49,1l.36,6.11,12.58-.36,0,0-6.6,6.6a11.06,11.06,0,0,0-2,12.85A14.76,14.76,0,0,1,55,33,15,15,0,0,1,44.6,47.28,11,11,0,0,0,37,57.74V80h6V57.74A5,5,0,0,1,46.44,53,21,21,0,0,0,58.75,23.53a5.07,5.07,0,0,1,.86-5.9l6.6-6.6,0,0-.36,12.58L72,24V1Z" style="fill:#fff"/></svg>