<svg width="16" height="16" viewBox="0 0 16 16" fill="none" xmlns="http://www.w3.org/2000/svg">
<path d="M4.5 2C4.00555 2 3.5222 2.14662 3.11108 2.42133C2.69995 2.69603 2.37952 3.08648 2.1903 3.54329C2.00108 4.00011 1.95157 4.50277 2.04804 4.98773C2.1445 5.47268 2.3826 5.91814 2.73223 6.26777C3.08187 6.6174 3.52732 6.8555 4.01228 6.95196C4.49723 7.04843 4.99989 6.99892 5.45671 6.8097C5.91352 6.62048 6.30397 6.30005 6.57867 5.88893C6.85338 5.4778 7 4.99445 7 4.5C7 4.1717 6.93534 3.84661 6.8097 3.54329C6.68406 3.23998 6.49991 2.96438 6.26777 2.73223C6.03562 2.50009 5.76002 2.31594 5.45671 2.1903C5.1534 2.06467 4.82831 2 4.5 2ZM11.5 7C11.9945 7 12.4778 6.85338 12.8889 6.57867C13.3 6.30397 13.6205 5.91352 13.8097 5.45671C13.9989 4.99989 14.0484 4.49723 13.952 4.01228C13.8555 3.52732 13.6174 3.08187 13.2678 2.73223C12.9181 2.3826 12.4727 2.1445 11.9877 2.04804C11.5028 1.95157 11.0001 2.00108 10.5433 2.1903C10.0865 2.37952 9.69603 2.69995 9.42133 3.11108C9.14662 3.5222 9 4.00555 9 4.5C9 5.16304 9.26339 5.79893 9.73223 6.26777C10.2011 6.73661 10.837 7 11.5 7ZM4.5 9C4.00555 9 3.5222 9.14662 3.11108 9.42133C2.69995 9.69603 2.37952 10.0865 2.1903 10.5433C2.00108 11.0001 1.95157 11.5028 2.04804 11.9877C2.1445 12.4727 2.3826 12.9181 2.73223 13.2678C3.08187 13.6174 3.52732 13.8555 4.01228 13.952C4.49723 14.0484 4.99989 13.9989 5.45671 13.8097C5.91352 13.6205 6.30397 13.3 6.57867 12.8889C6.85338 12.4778 7 11.9945 7 11.5C7 11.1717 6.93534 10.8466 6.8097 10.5433C6.68406 10.24 6.49991 9.96438 6.26777 9.73223C6.03562 9.50009 5.76002 9.31594 5.45671 9.1903C5.1534 9.06467 4.82831 9 4.5 9ZM11.5 9C11.0055 9 10.5222 9.14662 10.1111 9.42133C9.69995 9.69603 9.37952 10.0865 9.1903 10.5433C9.00108 11.0001 8.95157 11.5028 9.04804 11.9877C9.1445 12.4727 9.3826 12.9181 9.73223 13.2678C10.0819 13.6174 10.5273 13.8555 11.0123 13.952C11.4972 14.0484 11.9999 13.9989 12.4567 13.8097C12.9135 13.6205 13.304 13.3 13.5787 12.8889C13.8534 12.4778 14 11.9945 14 11.5C14 10.837 13.7366 10.2011 13.2678 9.73223C12.7989 9.26339 12.163 9 11.5 9Z" fill="#0F1621"/>
</svg>
