<svg width="24" height="24" viewBox="0 0 24 24" fill="none" xmlns="http://www.w3.org/2000/svg">
<path d="M17 5C17.3956 5 17.7822 5.1173 18.1111 5.33706C18.44 5.55682 18.6964 5.86918 18.8478 6.23463C18.9991 6.60009 19.0387 7.00222 18.9616 7.39018C18.8844 7.77814 18.6939 8.13451 18.4142 8.41421C18.1345 8.69392 17.7781 8.8844 17.3902 8.96157C17.0022 9.03874 16.6001 8.99913 16.2346 8.84776C15.8692 8.69638 15.5568 8.44004 15.3371 8.11114C15.1173 7.78224 15 7.39556 15 7C15 6.46957 15.2107 5.96086 15.5858 5.58579C15.9609 5.21071 16.4696 5 17 5ZM7 5C7.39556 5 7.78224 5.1173 8.11114 5.33706C8.44004 5.55682 8.69639 5.86918 8.84776 6.23463C8.99914 6.60009 9.03874 7.00222 8.96157 7.39018C8.8844 7.77814 8.69392 8.13451 8.41422 8.41421C8.13451 8.69392 7.77814 8.8844 7.39018 8.96157C7.00222 9.03874 6.60009 8.99913 6.23463 8.84776C5.86918 8.69638 5.55683 8.44004 5.33706 8.11114C5.1173 7.78224 5 7.39556 5 7C5 6.46957 5.21072 5.96086 5.58579 5.58579C5.96086 5.21071 6.46957 5 7 5ZM17 15C17.3956 15 17.7822 15.1173 18.1111 15.3371C18.44 15.5568 18.6964 15.8692 18.8478 16.2346C18.9991 16.6001 19.0387 17.0022 18.9616 17.3902C18.8844 17.7781 18.6939 18.1345 18.4142 18.4142C18.1345 18.6939 17.7781 18.8844 17.3902 18.9616C17.0022 19.0387 16.6001 18.9991 16.2346 18.8478C15.8692 18.6964 15.5568 18.44 15.3371 18.1111C15.1173 17.7822 15 17.3956 15 17C15 16.4696 15.2107 15.9609 15.5858 15.5858C15.9609 15.2107 16.4696 15 17 15ZM7 15C7.39556 15 7.78224 15.1173 8.11114 15.3371C8.44004 15.5568 8.69639 15.8692 8.84776 16.2346C8.99914 16.6001 9.03874 17.0022 8.96157 17.3902C8.8844 17.7781 8.69392 18.1345 8.41422 18.4142C8.13451 18.6939 7.77814 18.8844 7.39018 18.9616C7.00222 19.0387 6.60009 18.9991 6.23463 18.8478C5.86918 18.6964 5.55683 18.44 5.33706 18.1111C5.1173 17.7822 5 17.3956 5 17C5 16.4696 5.21072 15.9609 5.58579 15.5858C5.96086 15.2107 6.46957 15 7 15ZM17 3C16.2089 3 15.4355 3.2346 14.7777 3.67412C14.1199 4.11365 13.6072 4.73836 13.3045 5.46927C13.0017 6.20017 12.9225 7.00444 13.0769 7.78036C13.2312 8.55629 13.6122 9.26902 14.1716 9.82843C14.731 10.3878 15.4437 10.7688 16.2196 10.9231C16.9956 11.0775 17.7998 10.9983 18.5307 10.6955C19.2616 10.3928 19.8864 9.88008 20.3259 9.22228C20.7654 8.56448 21 7.79113 21 7C21 5.93913 20.5786 4.92172 19.8284 4.17157C19.0783 3.42143 18.0609 3 17 3ZM7 3C6.20888 3 5.43552 3.2346 4.77772 3.67412C4.11992 4.11365 3.60723 4.73836 3.30448 5.46927C3.00173 6.20017 2.92252 7.00444 3.07686 7.78036C3.2312 8.55629 3.61216 9.26902 4.17157 9.82843C4.73098 10.3878 5.44372 10.7688 6.21964 10.9231C6.99556 11.0775 7.79983 10.9983 8.53074 10.6955C9.26164 10.3928 9.88635 9.88008 10.3259 9.22228C10.7654 8.56448 11 7.79113 11 7C11 5.93913 10.5786 4.92172 9.82843 4.17157C9.07828 3.42143 8.06087 3 7 3ZM17 13C16.2089 13 15.4355 13.2346 14.7777 13.6741C14.1199 14.1136 13.6072 14.7384 13.3045 15.4693C13.0017 16.2002 12.9225 17.0044 13.0769 17.7804C13.2312 18.5563 13.6122 19.269 14.1716 19.8284C14.731 20.3878 15.4437 20.7688 16.2196 20.9231C16.9956 21.0775 17.7998 20.9983 18.5307 20.6955C19.2616 20.3928 19.8864 19.8801 20.3259 19.2223C20.7654 18.5645 21 17.7911 21 17C21 15.9391 20.5786 14.9217 19.8284 14.1716C19.0783 13.4214 18.0609 13 17 13ZM7 13C6.20888 13 5.43552 13.2346 4.77772 13.6741C4.11992 14.1136 3.60723 14.7384 3.30448 15.4693C3.00173 16.2002 2.92252 17.0044 3.07686 17.7804C3.2312 18.5563 3.61216 19.269 4.17157 19.8284C4.73098 20.3878 5.44372 20.7688 6.21964 20.9231C6.99556 21.0775 7.79983 20.9983 8.53074 20.6955C9.26164 20.3928 9.88635 19.8801 10.3259 19.2223C10.7654 18.5645 11 17.7911 11 17C11 15.9391 10.5786 14.9217 9.82843 14.1716C9.07828 13.4214 8.06087 13 7 13Z" fill="#0F1621"/>
</svg>
