<svg width="24" height="24" viewBox="0 0 24 24" fill="none" xmlns="http://www.w3.org/2000/svg">
<path d="M21 7C21 7.79113 20.7654 8.56448 20.3259 9.22228C19.8864 9.88008 19.2616 10.3928 18.5307 10.6955C17.7998 10.9983 16.9956 11.0775 16.2196 10.9231C15.4437 10.7688 14.731 10.3878 14.1716 9.82843C13.6122 9.26902 13.2312 8.55629 13.0769 7.78036C12.9225 7.00444 13.0017 6.20017 13.3045 5.46927C13.6072 4.73836 14.1199 4.11365 14.7777 3.67412C15.4355 3.2346 16.2089 3 17 3C18.0609 3 19.0783 3.42143 19.8284 4.17157C20.5786 4.92172 21 5.93913 21 7ZM17 13C16.2089 13 15.4355 13.2346 14.7777 13.6741C14.1199 14.1136 13.6072 14.7384 13.3045 15.4693C13.0017 16.2002 12.9225 17.0044 13.0769 17.7804C13.2312 18.5563 13.6122 19.269 14.1716 19.8284C14.731 20.3878 15.4437 20.7688 16.2196 20.9231C16.9956 21.0775 17.7998 20.9983 18.5307 20.6955C19.2616 20.3928 19.8864 19.8801 20.3259 19.2223C20.7654 18.5645 21 17.7911 21 17C21 15.9391 20.5786 14.9217 19.8284 14.1716C19.0783 13.4214 18.0609 13 17 13ZM7 3C6.20888 3 5.43552 3.2346 4.77772 3.67412C4.11992 4.11365 3.60723 4.73836 3.30448 5.46927C3.00173 6.20017 2.92252 7.00444 3.07686 7.78036C3.2312 8.55629 3.61216 9.26902 4.17157 9.82843C4.73098 10.3878 5.44372 10.7688 6.21964 10.9231C6.99556 11.0775 7.79983 10.9983 8.53074 10.6955C9.26164 10.3928 9.88635 9.88008 10.3259 9.22228C10.7654 8.56448 11 7.79113 11 7C11 5.93913 10.5786 4.92172 9.82843 4.17157C9.07828 3.42143 8.06087 3 7 3ZM7 13C6.20888 13 5.43552 13.2346 4.77772 13.6741C4.11992 14.1136 3.60723 14.7384 3.30448 15.4693C3.00173 16.2002 2.92252 17.0044 3.07686 17.7804C3.2312 18.5563 3.61216 19.269 4.17157 19.8284C4.73098 20.3878 5.44372 20.7688 6.21964 20.9231C6.99556 21.0775 7.79983 20.9983 8.53074 20.6955C9.26164 20.3928 9.88635 19.8801 10.3259 19.2223C10.7654 18.5645 11 17.7911 11 17C11 15.9391 10.5786 14.9217 9.82843 14.1716C9.07828 13.4214 8.06087 13 7 13Z" fill="#0F1621"/>
</svg>
