<svg width="16" height="16" viewBox="0 0 16 16" fill="none" xmlns="http://www.w3.org/2000/svg">
<path d="M2.5 4.75L1.02979 4.75V3.25H2.5C3.74264 3.25 4.75 4.25736 4.75 5.5L4.75 10.5C4.75 10.9142 5.08578 11.25 5.5 11.25H7.1893L5.96965 10.0304L7.03031 8.96969L10.0606 12L7.03031 15.0304L5.96965 13.9697L7.18934 12.75L5.5 12.75C4.25736 12.75 3.25 11.7426 3.25 10.5L3.25 5.5C3.25 5.08579 2.91421 4.75 2.5 4.75Z" fill="#0F1621"/>
<path d="M5.99998 4.75002L15 4.75002V3.25002L5.99998 3.25002L5.99998 4.75002Z" fill="#0F1621"/>
<path d="M13 10C14.1046 10 15 10.8954 15 12C15 13.1046 14.1046 14 13 14C11.8954 14 11 13.1046 11 12C11 10.8954 11.8954 10 13 10Z" fill="#0F1621"/>
</svg>
