<svg width="24" height="24" viewBox="0 0 24 24" fill="none" xmlns="http://www.w3.org/2000/svg">
<path d="M3.97886 6.97867L1.99997 6.97867L1.99997 5.00001L3.97885 5C5.6532 5 7.01053 6.32882 7.01053 7.968L7.01053 16.0107C7.01053 16.5571 7.46297 17 8.02108 17L10.56 17L8.80043 15.2774L10.1996 13.8483L14.4295 17.9893L10.1996 22.1304L8.80043 20.7012L10.56 18.9787H8.02108C6.34674 18.9787 4.98942 17.6499 4.98942 16.0107L4.98942 7.968C4.98942 7.4216 4.53697 6.97866 3.97886 6.97867Z" fill="#0F1621"/>
<path d="M8.99999 6.97867L22.0297 6.97867V5L8.99999 5L8.99999 6.97867Z" fill="#0F1621"/>
<path d="M19 14.9893C20.6568 14.9893 22 16.3325 22 17.9893C22 19.6462 20.6568 20.9893 19 20.9893C17.3431 20.9893 16 19.6462 16 17.9893C16 16.3325 17.3431 14.9893 19 14.9893Z" fill="#0F1621"/>
</svg>
