<svg width="24" height="24" viewBox="0 0 24 24" fill="none" xmlns="http://www.w3.org/2000/svg">
<path d="M8.85506 6.5C8.51908 7.6289 7.62887 8.5191 6.49997 8.85507V16C6.49997 16.5523 6.94768 17 7.49997 17L11.0858 17L9.29287 15.2071L10.7071 13.7929L14.9172 18.003L10.6744 22.2101L9.26614 20.7899L11.0712 19L7.49997 19C5.84312 19 4.49997 17.6569 4.49997 16L4.49997 8.85505C3.05424 8.42477 2 7.0855 2 5.5C2 3.567 3.567 2 5.5 2C7.08551 2 8.42479 3.05426 8.85506 4.5L22 4.5V6.5L8.85506 6.5Z" fill="#0F1621"/>
<path d="M22 18C22 16.3431 20.6568 15 19 15C17.3431 15 16 16.3431 16 18C16 19.6569 17.3431 21 19 21C20.6568 21 22 19.6569 22 18Z" fill="#0F1621"/>
</svg>
