<svg width="24" height="24" viewBox="0 0 24 24" fill="none" xmlns="http://www.w3.org/2000/svg">
<path fill-rule="evenodd" clip-rule="evenodd" d="M6.52975 8.84606V16C6.52975 16.5523 6.97747 17 7.52976 17L11.0858 17L9.29294 15.2071L10.7072 13.7929L14.9143 18L10.7072 22.2071L9.29294 20.7929L11.0858 19H7.52976C5.8729 19 4.52975 17.6569 4.52975 16L4.52975 8.86377C3.06874 8.44312 2 7.09637 2 5.5C2 3.567 3.567 2 5.5 2C6.8962 2 8.10145 2.81753 8.66318 4L22.0298 4V6L8.96456 6C8.77125 7.3514 7.80597 8.45377 6.52975 8.84606ZM7 5.5C7 6.32843 6.32843 7 5.5 7C4.67157 7 4 6.32843 4 5.5C4 4.67157 4.67157 4 5.5 4C6.32843 4 7 4.67157 7 5.5Z" fill="#0F1621"/>
<path fill-rule="evenodd" clip-rule="evenodd" d="M19 15C20.6569 15 22 16.3431 22 18C22 19.6569 20.6569 21 19 21C17.3432 21 16 19.6569 16 18C16 16.3431 17.3432 15 19 15ZM19 17C19.5523 17 20 17.4477 20 18C20 18.5523 19.5523 19 19 19C18.4477 19 18 18.5523 18 18C18 17.4477 18.4477 17 19 17Z" fill="#0F1621"/>
</svg>
