<svg width="24" height="24" viewBox="0 0 24 24" fill="none" xmlns="http://www.w3.org/2000/svg">
<path d="M4 6.99997L2 6.99997V4.99997H4C5.65685 4.99997 7 6.34311 7 7.99997L7 16C7 16.5522 7.44771 17 8 17L10.5858 17L8.79292 15.2071L10.2071 13.7929L14.4142 18L10.2071 22.2071L8.79292 20.7929L10.5858 19L7.99999 19C6.34314 19 5 17.6568 5 16L5 7.99997C5 7.44769 4.55228 6.99997 4 6.99997Z" fill="#0F1621"/>
<path d="M9.00001 6.99999L22 6.99999V4.99999L9.00001 4.99999L9.00001 6.99999Z" fill="#0F1621"/>
<path fill-rule="evenodd" clip-rule="evenodd" d="M22 18C22 16.3431 20.6569 15 19 15C17.3432 15 16 16.3431 16 18C16 19.6568 17.3432 21 19 21C20.6569 21 22 19.6568 22 18ZM20 18C20 17.4477 19.5523 17 19 17C18.4477 17 18 17.4477 18 18C18 18.5523 18.4477 19 19 19C19.5523 19 20 18.5523 20 18Z" fill="#0F1621"/>
</svg>
