<svg width="16" height="16" viewBox="0 0 16 16" fill="none" xmlns="http://www.w3.org/2000/svg">
<path d="M5.88555 4.25C5.64134 5.02753 5.0275 5.64136 4.24997 5.88556L4.24997 10C4.24997 10.6904 4.80961 11.25 5.49997 11.25L7.1893 11.25L5.96964 10.0303L7.0303 8.96968L10.0606 12L7.0303 15.0303L5.96964 13.9697L7.18931 12.75L5.49997 12.75C3.98119 12.75 2.74997 11.5188 2.74997 10V5.88554C1.73571 5.56696 1 4.6194 1 3.5C1 2.11929 2.11929 1 3.5 1C4.61941 1 5.56698 1.73572 5.88555 2.75H15V4.25L5.88555 4.25Z" fill="#0F1621"/>
<path d="M15 12C15 10.8954 14.1045 10 13 10C11.8954 10 11 10.8954 11 12C11 13.1046 11.8954 14 13 14C14.1045 14 15 13.1046 15 12Z" fill="#0F1621"/>
</svg>
