<svg width="24" height="24" viewBox="0 0 24 24" fill="none" xmlns="http://www.w3.org/2000/svg">
<path fill-rule="evenodd" clip-rule="evenodd" d="M18.9905 16.1465L12.7878 18.8048C12.2847 19.0204 11.7152 19.0204 11.2121 18.8048L5.00763 16.1457L3.51923 16.8159C2.92972 17.0813 2.92981 17.9184 3.51937 18.1837L11.5896 21.8153C11.8506 21.9327 12.1493 21.9327 12.4103 21.8153L20.4796 18.1841C21.0693 17.9187 21.0693 17.0814 20.4795 16.8161L18.9905 16.1465Z" fill="#0F1621"/>
<path fill-rule="evenodd" clip-rule="evenodd" d="M18.6656 10.7508L12.4104 13.5657C12.1494 13.6831 11.8506 13.6831 11.5896 13.5657L5.33239 10.7499L3.51923 11.5663C2.92972 11.8318 2.92981 12.6689 3.51937 12.9342L11.5896 16.5657C11.8506 16.6832 12.1493 16.6832 12.4103 16.5657L20.4796 12.9346C21.0693 12.6692 21.0693 11.8318 20.4795 11.5666L18.6656 10.7508Z" fill="#0F1621"/>
<path fill-rule="evenodd" clip-rule="evenodd" d="M12.8207 2.36927C12.2988 2.1344 11.7012 2.1344 11.1793 2.36927L3.51987 5.816C2.93023 6.08134 2.93023 6.91855 3.51987 7.18389L11.5896 10.8153C11.8506 10.9327 12.1494 10.9327 12.4104 10.8153L20.4801 7.18389C21.0698 6.91855 21.0698 6.08134 20.4801 5.816L12.8207 2.36927ZM17.1263 6.49994L12 4.19312L6.87371 6.49994L12 8.80677L17.1263 6.49994Z" fill="#0F1621"/>
</svg>
