<svg width="16" height="16" viewBox="0 0 16 16" fill="none" xmlns="http://www.w3.org/2000/svg">
<path d="M12.6667 11L8.39391 12.8311C8.14236 12.939 7.85762 12.939 7.60607 12.8311L3.33333 11L2.07233 11.5404C1.66827 11.7136 1.66827 12.2864 2.07233 12.4595L7.60607 14.8311C7.85762 14.939 8.14236 14.939 8.39391 14.8311L13.9277 12.4595C14.3317 12.2864 14.3317 11.7136 13.9277 11.5404L12.6667 11Z" fill="#0F1621"/>
<path d="M12.6667 6.99997L8.39391 8.83115C8.14236 8.93895 7.85762 8.93895 7.60607 8.83115L3.33333 6.99997L2.07233 7.5404C1.66827 7.71356 1.66827 8.28637 2.07233 8.45954L7.60607 10.8311C7.85762 10.939 8.14236 10.939 8.39391 10.8311L13.9277 8.45954C14.3317 8.28637 14.3317 7.71356 13.9277 7.5404L12.6667 6.99997Z" fill="#0F1621"/>
<path d="M8.39391 6.83115L13.9277 4.45954C14.3317 4.28637 14.3317 3.71356 13.9277 3.5404L8.78783 1.33761C8.28473 1.122 7.71525 1.122 7.21215 1.33761L2.07233 3.5404C1.66827 3.71356 1.66827 4.28637 2.07233 4.45954L7.60607 6.83115C7.85762 6.93895 8.14236 6.93895 8.39391 6.83115Z" fill="#0F1621"/>
</svg>
