<svg width="24" height="24" viewBox="0 0 24 24" fill="none" xmlns="http://www.w3.org/2000/svg">
<path d="M18.2498 10.5L12.3712 12.8514C12.1328 12.9468 11.8669 12.9468 11.6285 12.8514L5.74985 10.5L3.74074 11.3036C3.11214 11.5551 3.11213 12.4449 3.74074 12.6964L11.6285 15.8514C11.8669 15.9468 12.1328 15.9468 12.3712 15.8514L20.259 12.6964C20.8876 12.4449 20.8876 11.5551 20.259 11.3036L18.2498 10.5Z" fill="#0F1621"/>
<path d="M18.2498 16.5L12.3712 18.8514C12.1328 18.9468 11.8669 18.9468 11.6285 18.8514L5.74985 16.5L3.74074 17.3036C3.11214 17.5551 3.11213 18.4449 3.74074 18.6964L11.6285 21.8514C11.8669 21.9468 12.1328 21.9468 12.3712 21.8514L20.259 18.6964C20.8876 18.4449 20.8876 17.5551 20.259 17.3036L18.2498 16.5Z" fill="#0F1621"/>
<path d="M12.3714 9.85144L20.2591 6.69636C20.8877 6.44491 20.8877 5.55509 20.2591 5.30364L12 2L3.74089 5.30364C3.11229 5.55509 3.11228 6.44491 3.74089 6.69636L11.6286 9.85144C11.867 9.94681 12.133 9.94681 12.3714 9.85144Z" fill="#0F1621"/>
</svg>
