<svg width="24" height="24" viewBox="0 0 24 24" fill="none" xmlns="http://www.w3.org/2000/svg">
<path d="M21.3699 16.11L20.1999 15.59L13.3099 18.59C12.8962 18.7683 12.4505 18.8603 11.9999 18.8603C11.5494 18.8603 11.1037 18.7683 10.6899 18.59L3.79994 15.59L2.62994 16.11C2.44404 16.1732 2.28259 16.293 2.16825 16.4526C2.05392 16.6123 1.99243 16.8037 1.99243 17C1.99243 17.1964 2.05392 17.3878 2.16825 17.5474C2.28259 17.707 2.44404 17.8268 2.62994 17.89L11.4899 21.78C11.811 21.908 12.1689 21.908 12.4899 21.78L21.3499 17.89C21.5366 17.829 21.6994 17.711 21.8156 17.5526C21.9317 17.3943 21.9954 17.2036 21.9976 17.0072C21.9998 16.8108 21.9404 16.6187 21.8279 16.4578C21.7153 16.2969 21.5552 16.1753 21.3699 16.11Z" fill="#0F1621"/>
<path d="M21.3699 11.11L20.1999 10.59L13.3099 13.59C12.8962 13.7683 12.4505 13.8603 11.9999 13.8603C11.5494 13.8603 11.1037 13.7683 10.6899 13.59L3.79994 10.59L2.62994 11.11C2.44404 11.1732 2.28259 11.293 2.16825 11.4526C2.05392 11.6123 1.99243 11.8037 1.99243 12C1.99243 12.1964 2.05392 12.3878 2.16825 12.5474C2.28259 12.707 2.44404 12.8268 2.62994 12.89L11.4899 16.78C11.811 16.908 12.1689 16.908 12.4899 16.78L21.3499 12.89C21.5366 12.829 21.6994 12.711 21.8156 12.5526C21.9317 12.3943 21.9954 12.2036 21.9976 12.0072C21.9998 11.8108 21.9404 11.6187 21.8279 11.4578C21.7153 11.2969 21.5552 11.1753 21.3699 11.11Z" fill="#0F1621"/>
<path d="M2.62994 7.89003L11.4899 11.78C11.811 11.908 12.1689 11.908 12.4899 11.78L21.3499 7.89003C21.5358 7.82685 21.6973 7.70704 21.8116 7.54741C21.926 7.38779 21.9875 7.19638 21.9875 7.00003C21.9875 6.80368 21.926 6.61227 21.8116 6.45264C21.6973 6.29302 21.5358 6.17321 21.3499 6.11003L12.5099 2.22003C12.1889 2.09202 11.831 2.09202 11.5099 2.22003L2.62994 6.11003C2.44404 6.17321 2.28259 6.29302 2.16825 6.45264C2.05392 6.61227 1.99243 6.80368 1.99243 7.00003C1.99243 7.19638 2.05392 7.38779 2.16825 7.54741C2.28259 7.70704 2.44404 7.82685 2.62994 7.89003ZM11.9999 4.18003L18.4299 7.00003L11.9999 9.82003L5.56994 7.00003L11.9999 4.18003Z" fill="#0F1621"/>
</svg>
