<svg width="24" height="24" viewBox="0 0 24 24" fill="none" xmlns="http://www.w3.org/2000/svg">
<path d="M20.4802 5.816C21.0698 6.08134 21.0698 6.91855 20.4802 7.18389L12.8208 10.6306C12.2988 10.8655 11.7013 10.8655 11.1793 10.6306L3.51993 7.18388C2.93029 6.91855 2.93029 6.08134 3.51993 5.816L11.1792 2.36928C11.7012 2.1344 12.2988 2.1344 12.8207 2.36927L20.4802 5.816ZM12.0001 8.5326L16.5171 6.49995L12 4.46726L7.48298 6.49993L12.0001 8.5326Z" fill="#0F1621"/>
<path d="M18.9445 10.6249L12.4103 13.5653C12.1494 13.6827 11.8506 13.6827 11.5896 13.5653L5.05549 10.6249L3.51986 11.316C2.93023 11.5813 2.93023 12.4185 3.51987 12.6839L11.1793 16.1306C11.7013 16.3654 12.2988 16.3654 12.8208 16.1306L20.4801 12.6839C21.0697 12.4185 21.0697 11.5813 20.4801 11.316L18.9445 10.6249Z" fill="#0F1621"/>
<path d="M18.9444 16.125L12.4104 19.0653C12.1494 19.1827 11.8506 19.1827 11.5896 19.0653L5.05555 16.1249L3.51986 16.816C2.93023 17.0813 2.93023 17.9186 3.51987 18.1839L11.1793 21.6306C11.7013 21.8655 12.2988 21.8655 12.8208 21.6306L20.4801 18.1839C21.0697 17.9186 21.0697 17.0813 20.4801 16.816L18.9444 16.125Z" fill="#0F1621"/>
</svg>
