<svg width="16" height="16" viewBox="0 0 16 16" fill="none" xmlns="http://www.w3.org/2000/svg">
<path fill-rule="evenodd" clip-rule="evenodd" d="M12.6671 11L8.39439 12.8312C8.14284 12.939 7.8581 12.939 7.60655 12.8312L3.3338 11L2.07281 11.5405C1.66875 11.7136 1.66875 12.2865 2.07281 12.4596L7.60655 14.8312C7.8581 14.939 8.14284 14.939 8.39439 14.8312L13.9281 12.4596C14.3322 12.2865 14.3322 11.7136 13.9281 11.5405L12.6671 11Z" fill="#0F1621"/>
<path fill-rule="evenodd" clip-rule="evenodd" d="M12.6671 7.00005L8.39439 8.83122C8.14284 8.93903 7.8581 8.93903 7.60655 8.83122L3.3338 7.00005L2.07281 7.54047C1.66875 7.71364 1.66875 8.28645 2.07281 8.45962L7.60655 10.8312C7.8581 10.939 8.14284 10.939 8.39439 10.8312L13.9281 8.45962C14.3322 8.28645 14.3322 7.71364 13.9281 7.54047L12.6671 7.00005Z" fill="#0F1621"/>
<path d="M8.39415 6.83122L13.9279 4.45962C14.332 4.28645 14.332 3.71364 13.9279 3.54047L8.39416 1.16887C8.14261 1.06106 7.85786 1.06106 7.60632 1.16887L2.07257 3.54047C1.66852 3.71364 1.66852 4.28645 2.07257 4.45962L7.60632 6.83122C7.85787 6.93903 8.14261 6.93903 8.39415 6.83122Z" fill="#0F1621"/>
</svg>
