<svg width="16" height="16" viewBox="0 0 16 16" fill="none" xmlns="http://www.w3.org/2000/svg">
<path d="M14.4 8.99999L8.4 11.81C8.26304 11.8771 8.11253 11.912 7.96 11.912C7.80748 11.912 7.65697 11.8771 7.52 11.81L1.6 8.99999C1.43785 8.9215 1.29838 8.80298 1.19475 8.65562C1.09113 8.50825 1.02677 8.33691 1.00775 8.15777C0.988738 7.97863 1.01569 7.79759 1.08607 7.63176C1.15646 7.46593 1.26794 7.32077 1.41 7.20999L8 10.3L14.59 7.18999C14.7368 7.29996 14.8525 7.44613 14.9258 7.6142C14.9992 7.78228 15.0277 7.96651 15.0085 8.14889C14.9894 8.33128 14.9233 8.50558 14.8166 8.65475C14.7099 8.80393 14.5664 8.92288 14.4 8.99999ZM14.59 10.31L8 13.41L1.41 10.29C1.26811 10.4019 1.15688 10.548 1.0867 10.7145C1.01651 10.8811 0.989645 11.0627 1.00862 11.2424C1.02759 11.4221 1.09177 11.5941 1.19519 11.7423C1.2986 11.8905 1.43787 12.0101 1.6 12.09L7.6 14.9C7.73697 14.9671 7.88748 15.002 8.04 15.002C8.19253 15.002 8.34304 14.9671 8.48 14.9L14.48 12.09C14.637 12.0027 14.7695 11.8772 14.8653 11.7252C14.9611 11.5732 15.017 11.3995 15.028 11.2201C15.039 11.0408 15.0046 10.8616 14.928 10.699C14.8515 10.5364 14.7352 10.3958 14.59 10.29V10.31ZM1.6 3.90999L7.6 1.09999C7.73697 1.03288 7.88748 0.997986 8.04 0.997986C8.19253 0.997986 8.34304 1.03288 8.48 1.09999L14.48 3.90999C14.6589 3.99988 14.8093 4.13773 14.9143 4.30813C15.0194 4.47853 15.0751 4.67479 15.0751 4.87499C15.0751 5.07518 15.0194 5.27144 14.9143 5.44185C14.8093 5.61225 14.6589 5.75009 14.48 5.83999L8.48 8.64999C8.34304 8.7171 8.19253 8.75199 8.04 8.75199C7.88748 8.75199 7.73697 8.7171 7.6 8.64999L1.6 5.83999C1.42112 5.75009 1.27075 5.61225 1.16567 5.44185C1.0606 5.27144 1.00495 5.07518 1.00495 4.87499C1.00495 4.67479 1.0606 4.47853 1.16567 4.30813C1.27075 4.13773 1.42112 3.99988 1.6 3.90999Z" fill="#0F1621"/>
</svg>
