<svg width="24" height="24" viewBox="0 0 24 24" fill="none" xmlns="http://www.w3.org/2000/svg">
<path d="M20.4801 7.18389L12.8207 10.6306C12.2988 10.8655 11.7012 10.8655 11.1793 10.6306L3.51986 7.18388C2.93023 6.91855 2.93023 6.08134 3.51986 5.816L11.1792 2.36928C11.7011 2.1344 12.2987 2.1344 12.8206 2.36927L20.4801 5.816C21.0697 6.08134 21.0697 6.91855 20.4801 7.18389Z" fill="#0F1621"/>
<path d="M18.6667 10.5L12.4103 13.3154C12.1494 13.4328 11.8506 13.4328 11.5896 13.3154L5.33328 10.5L3.51986 11.316C2.93023 11.5814 2.93023 12.4186 3.51987 12.6839L11.1793 16.1306C11.7013 16.3655 12.2988 16.3655 12.8208 16.1306L20.4801 12.6839C21.0697 12.4186 21.0697 11.5814 20.4801 11.316L18.6667 10.5Z" fill="#0F1621"/>
<path d="M18.6666 16L12.4103 18.8153C12.1494 18.9328 11.8506 18.9328 11.5896 18.8153L5.33332 16L3.51986 16.8161C2.93023 17.0814 2.93023 17.9186 3.51987 18.1839L11.1793 21.6307C11.7013 21.8655 12.2988 21.8655 12.8208 21.6306L20.4801 18.1839C21.0697 17.9186 21.0697 17.0814 20.4801 16.8161L18.6666 16Z" fill="#0F1621"/>
</svg>
