<svg width="16" height="16" viewBox="0 0 16 16" fill="none" xmlns="http://www.w3.org/2000/svg">
<path d="M3 2.75C2.86193 2.75 2.75 2.86193 2.75 3V4H1.25V3C1.25 2.0335 2.0335 1.25 3 1.25H13C13.9665 1.25 14.75 2.0335 14.75 3V4H13.25V3C13.25 2.86193 13.1381 2.75 13 2.75H3Z" fill="#0F1621"/>
<path d="M6.2724 11.8181L8.2724 3.81808L9.72761 4.18189L7.72761 12.1819L6.2724 11.8181Z" fill="#0F1621"/>
<path d="M3.06067 8L5.53034 5.53033L4.46968 4.46967L0.939346 8L4.46968 11.5303L5.53034 10.4697L3.06067 8Z" fill="#0F1621"/>
<path d="M10.4697 5.53033L12.9393 8L10.4697 10.4697L11.5303 11.5303L15.0607 8L11.5303 4.46967L10.4697 5.53033Z" fill="#0F1621"/>
<path d="M13.25 13C13.25 13.1381 13.1381 13.25 13 13.25L3 13.25C2.86193 13.25 2.75 13.1381 2.75 13L2.75 12H1.25L1.25 13C1.25 13.9665 2.0335 14.75 3 14.75L13 14.75C13.9665 14.75 14.75 13.9665 14.75 13V12H13.25V13Z" fill="#0F1621"/>
</svg>
