<svg width="24" height="24" viewBox="0 0 24 24" fill="none" xmlns="http://www.w3.org/2000/svg">
<path d="M4 5C4 3.34315 5.34315 2 7 2H9V4H7C6.44772 4 6 4.44772 6 5V10.3333L4.75 12L6 13.6667V19C6 19.5523 6.44772 20 7 20H9V22H7C5.34315 22 4 20.6569 4 19V14.3333L2.25 12L4 9.66667V5Z" fill="#0F1621"/>
<path d="M16 8.5H8V6.5H16V8.5Z" fill="#0F1621"/>
<path d="M12 11.5H8V9.5H12V11.5Z" fill="#0F1621"/>
<path d="M16 9.5V11.5H14V9.5H16Z" fill="#0F1621"/>
<path d="M8 14.5V12.5H10V14.5H8Z" fill="#0F1621"/>
<path d="M16 12.5V14.5H12V12.5H16Z" fill="#0F1621"/>
<path d="M16 15.5V17.5H8V15.5H16Z" fill="#0F1621"/>
<path d="M15 4H17C17.5523 4 18 4.44772 18 5V10.3333L19.25 12L18 13.6667V19C18 19.5523 17.5523 20 17 20H15V22H17C18.6569 22 20 20.6569 20 19V14.3333L21.75 12L20 9.66667V5C20 3.34315 18.6569 2 17 2H15V4Z" fill="#0F1621"/>
</svg>
