<svg width="24" height="24" viewBox="0 0 24 24" fill="none" xmlns="http://www.w3.org/2000/svg">
<path d="M2 4C2 2.89543 2.89543 2 4 2H20C21.1046 2 22 2.89543 22 4V6H20V4H4V6H2V4Z" fill="#0F1621"/>
<path d="M12.5299 5.75748L9.52986 17.7575L11.4701 18.2425L14.4701 6.24255L12.5299 5.75748Z" fill="#0F1621"/>
<path d="M8.24741 8.16436L4.83796 12L8.24741 15.8356L6.75259 17.1644L2.16205 12L6.75259 6.83563L8.24741 8.16436Z" fill="#0F1621"/>
<path d="M15.7526 8.16436L19.162 12L15.7526 15.8356L17.2474 17.1644L21.838 12L17.2474 6.83563L15.7526 8.16436Z" fill="#0F1621"/>
<path d="M20 22C21.1046 22 22 21.1046 22 20V18H20V20L4 20L4 18H2V20C2 21.1046 2.89543 22 4 22L20 22Z" fill="#0F1621"/>
</svg>
