<svg width="24" height="24" viewBox="0 0 24 24" fill="none" xmlns="http://www.w3.org/2000/svg">
<path d="M12 14L3.74087 17.3036C3.11226 17.5551 3.11226 18.4449 3.74087 18.6964L11.6286 21.8514C11.867 21.9468 12.133 21.9468 12.3714 21.8514L20.2591 18.6964C20.8877 18.4449 20.8877 17.5551 20.2591 17.3036L12 14ZM16.6148 18L12 19.8459L7.38514 18L12 16.1541L16.6148 18Z" fill="#0F1621"/>
<path d="M11 8.08581L8.70707 5.79285L7.29286 7.20706L12 11.9142L16.7071 7.20706L15.2929 5.79285L13 8.08566L13 2.00012L11 2.00012L11 8.08581Z" fill="#0F1621"/>
</svg>
