<svg width="24" height="24" viewBox="0 0 24 24" fill="none" xmlns="http://www.w3.org/2000/svg">
<path fill-rule="evenodd" clip-rule="evenodd" d="M12.0001 14L3.74099 17.3036C3.11238 17.5551 3.11238 18.4449 3.74099 18.6964L11.6287 21.8514C11.8671 21.9468 12.1331 21.9468 12.3715 21.8514L20.2592 18.6964C20.8878 18.4449 20.8878 17.5551 20.2592 17.3036L12.0001 14ZM16.6149 18L12.0001 16.1541L7.38526 18L12.0001 19.8459L16.6149 18Z" fill="#0F1621"/>
<path d="M11.0002 8.08581L8.7072 5.79285L7.29298 7.20706L12.0001 11.9142L16.7072 7.20706L15.293 5.79285L13.0002 8.08566L13.0002 2.00012L11.0002 2.00012L11.0002 8.08581Z" fill="#0F1621"/>
</svg>
