<svg width="24" height="24" viewBox="0 0 24 24" fill="none" xmlns="http://www.w3.org/2000/svg">
<path d="M10.9997 7.08581L8.70669 4.79285L7.29248 6.20706L11.9996 10.9142L16.7067 6.20706L15.2925 4.79285L12.9997 7.08566L12.9997 2L10.9997 2L10.9997 7.08581Z" fill="#0F1621"/>
<path d="M12.8206 13.3693C12.2987 13.1344 11.7011 13.1344 11.1792 13.3693L3.51986 16.816C2.93023 17.0813 2.93023 17.9185 3.51986 18.1839L11.1793 21.6306C11.7012 21.8655 12.2988 21.8655 12.8207 21.6306L20.4801 18.1839C21.0697 17.9186 21.0697 17.0813 20.4801 16.816L12.8206 13.3693ZM7.48292 17.4999L11.9999 15.4673L16.517 17.4999L12 19.5326L7.48292 17.4999Z" fill="#0F1621"/>
</svg>
