<svg width="16" height="16" viewBox="0 0 16 16" fill="none" xmlns="http://www.w3.org/2000/svg">
<path d="M2 10.64V12.25C2 13.77 4.69 15 8 15C11.31 15 14 13.77 14 12.25V10.64C12.2166 11.7887 10.1189 12.3516 8 12.25C5.8811 12.3516 3.7834 11.7887 2 10.64ZM2 6.39V8C2 9.52 4.69 10.75 8 10.75C11.31 10.75 14 9.52 14 8V6.39C12.2166 7.5387 10.1189 8.10159 8 8C5.8811 8.10159 3.7834 7.5387 2 6.39ZM14 3.5C13.7 2.1 11.13 1 8 1C4.87 1 2.32 2.09 2 3.49V3.74C2 5.27 4.69 6.5 8 6.5C11.31 6.5 14 5.27 14 3.75V3.5Z" fill="#0F1621"/>
</svg>
