<svg width="24" height="24" viewBox="0 0 24 24" fill="none" xmlns="http://www.w3.org/2000/svg">
<path fill-rule="evenodd" clip-rule="evenodd" d="M11.1438 2.40554L2.5 6.49998L13 11.5V22L20.3516 18.5404C21.0526 18.2106 21.5 17.5055 21.5 16.7308V6.5L12.8562 2.40554C12.3143 2.14884 11.6857 2.14884 11.1438 2.40554ZM14.03 9.77892L13.8772 9.70253L7.16189 6.50475L12 4.21301L18.9264 7.49394L14.03 9.77892ZM19.5 9.67373L15 11.7737V18.8484L19.5 16.7308L19.5 9.67373Z" fill="#0F1621"/>
<path d="M7.08591 15.0001H2V17.0001H7.08581L4.79297 19.293L6.20718 20.7072L10.9143 16.0001L6.20718 11.293L4.79297 12.7072L7.08591 15.0001Z" fill="#0F1621"/>
</svg>
