<svg width="24" height="24" viewBox="0 0 24 24" fill="none" xmlns="http://www.w3.org/2000/svg">
<path d="M7.08581 17.0002L4.79297 19.2931L6.20718 20.7073L10.9143 16.0002L6.20718 11.2931L4.79297 12.7073L7.08591 15.0002H2L2 17.0002H7.08581Z" fill="#0F1621"/>
<path d="M13 21V10.5L3 6.49996L11.2751 3.28186C11.7414 3.10054 12.2586 3.10054 12.7249 3.28186L21 6.49996V16.614C21 17.4476 20.4829 18.1939 19.7022 18.4866L13 21ZM15 10.6929V18.114L19 16.614L19 9.19295L15 10.6929ZM17.9381 7.45515L12 5.14587L8.45068 6.52617L14.2401 8.84192L17.9381 7.45515Z" fill="#0F1621"/>
</svg>
