<svg width="24" height="24" viewBox="0 0 24 24" fill="none" xmlns="http://www.w3.org/2000/svg">
<path d="M13 21.5499L20.4801 18.1839C21.0697 17.9186 21.0697 17.0813 20.4801 16.816L18.6666 15.9999L13 18.5499V21.5499Z" fill="#0F1621"/>
<path d="M13 16.0499L20.4801 12.6839C21.0697 12.4185 21.0697 11.5813 20.4801 11.316L18.6667 10.4999L13 13.0499V16.0499Z" fill="#0F1621"/>
<path d="M12.8208 10.6306L20.4802 7.18389C21.0698 6.91855 21.0698 6.08134 20.4802 5.816L12.8207 2.36927C12.2988 2.1344 11.7012 2.1344 11.1792 2.36928L3.51993 5.816C2.93029 6.08134 2.93029 6.91855 3.51993 7.18388L11.1793 10.6306C11.7013 10.8655 12.2988 10.8655 12.8208 10.6306Z" fill="#0F1621"/>
<path d="M7.08581 17L4.79297 19.2928L6.20718 20.7071L10.9143 15.9999L6.20718 11.2928L4.79297 12.7071L7.08591 15H2L2 17H7.08581Z" fill="#0F1621"/>
</svg>
