<svg width="24" height="24" viewBox="0 0 24 24" fill="none" xmlns="http://www.w3.org/2000/svg">
<path d="M11.1792 2.36928C11.7011 2.1344 12.2987 2.1344 12.8206 2.36927L20.4801 5.816C21.0697 6.08134 21.0697 6.91855 20.4801 7.18389L12.8207 10.6306C12.2988 10.8655 11.7012 10.8655 11.1793 10.6306L3.51986 7.18388C2.93023 6.91855 2.93023 6.08134 3.51986 5.816L11.1792 2.36928ZM12 8.5326L16.517 6.49995L11.9999 4.46726L7.48292 6.49993L12 8.5326Z" fill="#0F1621"/>
<path d="M20.4801 18.1839L13 21.55V18.55L18.6666 16L20.4801 16.8161C21.0697 17.0814 21.0697 17.9186 20.4801 18.1839Z" fill="#0F1621"/>
<path d="M20.4801 12.6839L13 16.05V13.05L18.6667 10.5L20.4801 11.316C21.0697 11.5814 21.0697 12.4186 20.4801 12.6839Z" fill="#0F1621"/>
<path d="M7.08591 15H2V17H7.08581L4.79297 19.2928L6.20718 20.7071L10.9143 16L6.20718 11.2928L4.79297 12.7071L7.08591 15Z" fill="#0F1621"/>
</svg>
