<svg width="16" height="16" viewBox="0 0 16 16" fill="none" xmlns="http://www.w3.org/2000/svg">
<path d="M8.99999 14.5715L13.9279 12.4596C14.3319 12.2864 14.3319 11.7136 13.9279 11.5404L12.6669 11L8.99999 12.5715V14.5715Z" fill="#0F1621"/>
<path d="M8.99999 10.5715L13.9279 8.45959C14.3319 8.28642 14.3319 7.71361 13.9279 7.54044L12.6669 7.00001L8.99999 8.57154V10.5715Z" fill="#0F1621"/>
<path d="M8.39391 6.83119L13.9277 4.45959C14.3317 4.28642 14.3317 3.71361 13.9277 3.54044L8.39391 1.16884C8.14236 1.06103 7.85762 1.06103 7.60607 1.16884L2.07233 3.54044C1.66827 3.71361 1.66827 4.28642 2.07233 4.45959L7.60607 6.83119C7.85762 6.939 8.14236 6.939 8.39391 6.83119Z" fill="#0F1621"/>
<path d="M5.18933 11.75L3.46967 13.4697L4.53033 14.5303L8.06066 11L4.53033 7.46967L3.46967 8.53033L5.18934 10.25L1 10.25L1 11.75H5.18933Z" fill="#0F1621"/>
</svg>
