<svg width="24" height="24" viewBox="0 0 24 24" fill="none" xmlns="http://www.w3.org/2000/svg">
<path d="M3.74099 5.30364L12.0001 2L20.2592 5.30364C20.8878 5.55509 20.8878 6.44491 20.2592 6.69636L12.3715 9.85144C12.1331 9.94681 11.8671 9.94681 11.6287 9.85144L3.74099 6.69636C3.11238 6.44491 3.11238 5.55509 3.74099 5.30364ZM12.0001 4.15407L7.38526 6L12.0001 7.84593L16.6149 6L12.0001 4.15407Z" fill="#0F1621"/>
<path d="M20.259 12.6964L13.0001 15.5999V12.5999L18.2499 10.5L20.259 11.3036C20.8877 11.5551 20.8877 12.4449 20.259 12.6964Z" fill="#0F1621"/>
<path d="M20.259 18.6964L13.0001 21.5999V18.5999L18.2499 16.5L20.259 17.3036C20.8877 17.5551 20.8877 18.4449 20.259 18.6964Z" fill="#0F1621"/>
<path d="M7.0858 15H2V17H7.08579L4.7929 19.2928L6.20712 20.7071L10.9142 16L6.20712 11.2928L4.7929 12.7071L7.0858 15Z" fill="#0F1621"/>
</svg>
