<svg width="24" height="24" viewBox="0 0 24 24" fill="none" xmlns="http://www.w3.org/2000/svg">
<path d="M13 21.5999L20.259 18.6964C20.8876 18.4449 20.8876 17.5551 20.259 17.3036L18.2498 16.5L13 18.5999V21.5999Z" fill="#0F1621"/>
<path d="M13 15.5999L20.259 12.6964C20.8876 12.4449 20.8876 11.5551 20.259 11.3036L18.2498 10.5L13 12.5999V15.5999Z" fill="#0F1621"/>
<path d="M12.3714 9.85144L20.2591 6.69636C20.8877 6.44491 20.8877 5.55509 20.2591 5.30364L12 2L3.74089 5.30364C3.11229 5.55509 3.11228 6.44491 3.74089 6.69636L11.6286 9.85144C11.867 9.94681 12.133 9.94681 12.3714 9.85144Z" fill="#0F1621"/>
<path d="M7.08581 17L4.79297 19.2929L6.20718 20.7071L10.9143 16L6.20718 11.2929L4.79297 12.7071L7.08591 15H2L2 17H7.08581Z" fill="#0F1621"/>
</svg>
