<svg width="16" height="16" viewBox="0 0 16 16" fill="none" xmlns="http://www.w3.org/2000/svg">
<path d="M13.9277 4.45957L8.39391 6.83118C8.14236 6.93898 7.85762 6.93898 7.60607 6.83118L2.07233 4.45957C1.66827 4.28641 1.66827 3.71359 2.07233 3.54043L7.99999 1L13.9277 3.54043C14.3317 3.71359 14.3317 4.28641 13.9277 4.45957Z" fill="#0F1621"/>
<path d="M12.6338 6.98596L9 8.50005V10.5715L13.9277 8.45962C14.3317 8.28645 14.3317 7.71364 13.9277 7.54047L12.6338 6.98596Z" fill="#0F1621"/>
<path d="M12.6448 10.9955L9 12.5142V14.5716L13.9251 12.4608C14.3296 12.2874 14.3291 11.7139 13.9244 11.5413L12.6448 10.9955Z" fill="#0F1621"/>
<path d="M5.18945 11.7499L3.46973 13.4697L4.53039 14.5303L8.06072 11L4.53039 7.46967L3.46973 8.53033L5.18934 10.2499L1 10.2499L1 11.7499H5.18945Z" fill="#0F1621"/>
</svg>
