<svg width="16" height="16" viewBox="0 0 16 16" fill="none" xmlns="http://www.w3.org/2000/svg">
<path d="M15 4H1V2.5H15V4ZM4 6.5H1V8H4V6.5ZM4 10.5H1V12H4V10.5ZM12.31 11.25C12.7604 10.5862 13.0008 9.80222 13 9C13 8.20887 12.7654 7.43552 12.3259 6.77772C11.8864 6.11992 11.2616 5.60723 10.5307 5.30448C9.79983 5.00173 8.99556 4.92252 8.21964 5.07686C7.44371 5.2312 6.73098 5.61216 6.17157 6.17157C5.61216 6.73098 5.2312 7.44371 5.07686 8.21964C4.92252 8.99556 5.00173 9.79983 5.30448 10.5307C5.60723 11.2616 6.11992 11.8864 6.77772 12.3259C7.43552 12.7654 8.20887 13 9 13C9.80222 13.0008 10.5862 12.7604 11.25 12.31L13.44 14.5L14.5 13.44L12.31 11.25ZM9 11.5C8.50555 11.5 8.0222 11.3534 7.61107 11.0787C7.19995 10.804 6.87952 10.4135 6.6903 9.95671C6.50108 9.49989 6.45157 8.99723 6.54804 8.51227C6.6445 8.02732 6.8826 7.58186 7.23223 7.23223C7.58186 6.8826 8.02732 6.6445 8.51227 6.54804C8.99723 6.45157 9.49989 6.50108 9.95671 6.6903C10.4135 6.87952 10.804 7.19995 11.0787 7.61107C11.3534 8.0222 11.5 8.50555 11.5 9C11.5 9.3283 11.4353 9.65339 11.3097 9.95671C11.1841 10.26 10.9999 10.5356 10.7678 10.7678C10.5356 10.9999 10.26 11.1841 9.95671 11.3097C9.65339 11.4353 9.3283 11.5 9 11.5Z" fill="#0F1621"/>
</svg>
