<svg width="16" height="16" viewBox="0 0 16 16" fill="none" xmlns="http://www.w3.org/2000/svg">
<path d="M2.25001 4C2.25001 2.48122 3.48122 1.25 5.00001 1.25H6.00001V2.75H5.00001C4.30965 2.75 3.75001 3.30964 3.75001 4V6.72708L2.90139 8L3.75001 9.27292V12C3.75001 12.6904 4.30965 13.25 5.00001 13.25H6.00001V14.75H5.00001C3.48122 14.75 2.25001 13.5188 2.25001 12V9.72708L1.09862 8L2.25001 6.27292V4Z" fill="#0F1621"/>
<path d="M13.75 4C13.75 2.48122 12.5188 1.25 11 1.25H9.99999V2.75H11C11.6904 2.75 12.25 3.30964 12.25 4V6.72708L13.0986 8L12.25 9.27292V12C12.25 12.6904 11.6904 13.25 11 13.25H9.99999V14.75H11C12.5188 14.75 13.75 13.5188 13.75 12V9.72708L14.9014 8L13.75 6.27292V4Z" fill="#0F1621"/>
<path d="M5 5.75H11V4.25H5V5.75Z" fill="#0F1621"/>
<path d="M8 8.75H5V7.25H8V8.75Z" fill="#0F1621"/>
<path d="M9 8.75H11V7.25H9V8.75Z" fill="#0F1621"/>
<path d="M11 11.75H8V10.25H11V11.75Z" fill="#0F1621"/>
<path d="M5 11.75H7V10.25H5V11.75Z" fill="#0F1621"/>
</svg>
