<svg width="24" height="24" viewBox="0 0 24 24" fill="none" xmlns="http://www.w3.org/2000/svg">
<path d="M19.2222 13.2499L12.8208 16.1305C12.2988 16.3654 11.7013 16.3654 11.1793 16.1305L4.7778 13.2498L3.51986 13.8159C2.93023 14.0812 2.93023 14.9184 3.51986 15.1838L11.1793 18.6305C11.7012 18.8654 12.2988 18.8654 12.8207 18.6305L20.4801 15.1838C21.0697 14.9185 21.0697 14.0812 20.4801 13.8159L19.2222 13.2499Z" fill="#0F1621"/>
<path d="M12.8207 5.36927C12.2988 5.1344 11.7012 5.1344 11.1793 5.36927L3.51987 8.816C2.93023 9.08134 2.93023 9.91855 3.51987 10.1839L11.1793 13.6306C11.7012 13.8655 12.2988 13.8655 12.8207 13.6306L20.4801 10.1839C21.0698 9.91855 21.0698 9.08134 20.4801 8.816L12.8207 5.36927ZM16.5171 9.49994L12 11.5326L7.48293 9.49994L12 7.46726L16.5171 9.49994Z" fill="#0F1621"/>
</svg>
