<svg width="24" height="24" viewBox="0 0 24 24" fill="none" xmlns="http://www.w3.org/2000/svg">
<path d="M2.62998 6.99998L11.49 3.11998C11.6475 3.05056 11.8178 3.01471 11.99 3.01471C12.1622 3.01471 12.3324 3.05056 12.49 3.11998L21.37 6.99998C21.5364 7.08292 21.6764 7.21061 21.7742 7.36871C21.8721 7.52681 21.9239 7.70905 21.9239 7.89498C21.9239 8.08091 21.8721 8.26316 21.7742 8.42126C21.6764 8.57936 21.5364 8.70705 21.37 8.78998L12.51 12.67C12.1889 12.798 11.831 12.798 11.51 12.67L2.62998 8.77998C2.46618 8.69607 2.32872 8.56857 2.23273 8.41154C2.13674 8.25451 2.08594 8.07403 2.08594 7.88998C2.08594 7.70594 2.13674 7.52546 2.23273 7.36843C2.32872 7.2114 2.46618 7.0839 2.62998 6.99998ZM21.37 15.23L16.64 13.16L13.31 14.62C12.8963 14.7983 12.4505 14.8902 12 14.8902C11.5495 14.8902 11.1037 14.7983 10.69 14.62L7.35998 13.15L2.62998 15.22C2.46358 15.3029 2.32359 15.4306 2.22574 15.5887C2.12789 15.7468 2.07605 15.9291 2.07605 16.115C2.07605 16.3009 2.12789 16.4832 2.22574 16.6413C2.32359 16.7994 2.46358 16.927 2.62998 17.01L11.49 20.89C11.6475 20.9594 11.8178 20.9953 11.99 20.9953C12.1622 20.9953 12.3324 20.9594 12.49 20.89L21.37 17C21.5338 16.9161 21.6712 16.7886 21.7672 16.6315C21.8632 16.4745 21.914 16.294 21.914 16.11C21.914 15.9259 21.8632 15.7455 21.7672 15.5884C21.6712 15.4314 21.5338 15.3039 21.37 15.22V15.23Z" fill="#0F1621"/>
</svg>
