<svg width="16" height="16" viewBox="0 0 16 16" fill="none" xmlns="http://www.w3.org/2000/svg">
<path d="M12.6669 9.00005L8.39416 10.8312C8.14261 10.939 7.85787 10.939 7.60633 10.8312L3.33358 9.00004L2.07257 9.54047C1.66852 9.71364 1.66852 10.2865 2.07257 10.4596L7.60632 12.8312C7.85787 12.939 8.14261 12.939 8.39415 12.8312L13.9279 10.4596C14.332 10.2865 14.332 9.71364 13.9279 9.54047L12.6669 9.00005Z" fill="#0F1621"/>
<path d="M8.39416 8.83122L13.9279 6.45962C14.332 6.28645 14.332 5.71364 13.9279 5.54047L8.39416 3.16887C8.14261 3.06106 7.85787 3.06106 7.60632 3.16887L2.07258 5.54047C1.66853 5.71364 1.66853 6.28645 2.07258 6.45962L7.60633 8.83122C7.85787 8.93903 8.14261 8.93903 8.39416 8.83122Z" fill="#0F1621"/>
</svg>
