<svg width="24" height="24" viewBox="0 0 24 24" fill="none" xmlns="http://www.w3.org/2000/svg">
<path d="M15.7498 13.5L12.3711 14.8514C12.1327 14.9468 11.8668 14.9468 11.6284 14.8514L8.24985 13.5L3.74074 15.3037C3.11214 15.5551 3.11213 16.445 3.74074 16.6964L11.6285 19.8515C11.8669 19.9468 12.1328 19.9468 12.3712 19.8515L20.259 16.6964C20.8876 16.445 20.8876 15.5551 20.259 15.3037L15.7498 13.5Z" fill="#0F1621"/>
<path d="M12.3714 11.8514L20.2591 8.69636C20.8877 8.44491 20.8877 7.55509 20.2591 7.30364L12 4L3.74089 7.30364C3.11229 7.55509 3.11228 8.44491 3.74089 8.69636L11.6286 11.8514C11.867 11.9468 12.133 11.9468 12.3714 11.8514Z" fill="#0F1621"/>
</svg>
