<svg width="16" height="16" viewBox="0 0 16 16" fill="none" xmlns="http://www.w3.org/2000/svg">
<path d="M1.43999 4.10002L7.63999 1.10002C7.75269 1.04733 7.87558 1.02002 7.99999 1.02002C8.1244 1.02002 8.24729 1.04733 8.35999 1.10002L14.56 4.10002C14.6913 4.16263 14.8021 4.26113 14.8797 4.38413C14.9573 4.50712 14.9985 4.64959 14.9985 4.79502C14.9985 4.94045 14.9573 5.08292 14.8797 5.20591C14.8021 5.32891 14.6913 5.42741 14.56 5.49002L8.35999 8.49002C8.24729 8.54271 8.1244 8.57002 7.99999 8.57002C7.87558 8.57002 7.75269 8.54271 7.63999 8.49002L1.43999 5.49002C1.30872 5.42741 1.19787 5.32891 1.12026 5.20591C1.04265 5.08292 1.00146 4.94045 1.00146 4.79502C1.00146 4.64959 1.04265 4.50712 1.12026 4.38413C1.19787 4.26113 1.30872 4.16263 1.43999 4.10002ZM14.56 10.51L11.25 8.90002L8.91999 10C8.633 10.1383 8.31854 10.21 7.99999 10.21C7.68144 10.21 7.36698 10.1383 7.07999 10L4.74999 8.90002L1.43999 10.51C1.30872 10.5726 1.19787 10.6711 1.12026 10.7941C1.04265 10.9171 1.00146 11.0596 1.00146 11.205C1.00146 11.3505 1.04265 11.4929 1.12026 11.6159C1.19787 11.7389 1.30872 11.8374 1.43999 11.9L7.63999 14.9C7.75269 14.9527 7.87558 14.98 7.99999 14.98C8.1244 14.98 8.24729 14.9527 8.35999 14.9L14.56 11.9C14.6913 11.8374 14.8021 11.7389 14.8797 11.6159C14.9573 11.4929 14.9985 11.3505 14.9985 11.205C14.9985 11.0596 14.9573 10.9171 14.8797 10.7941C14.8021 10.6711 14.6913 10.5726 14.56 10.51Z" fill="#0F1621"/>
</svg>
