<svg width="24" height="24" viewBox="0 0 24 24" fill="none" xmlns="http://www.w3.org/2000/svg">
<path d="M12.37 19.8519C12.1322 19.9467 11.8671 19.9467 11.6293 19.8518L3.74062 16.6964C3.11201 16.4449 3.11201 15.5551 3.74062 15.3036L8.24973 13.5L10.9423 14.577L7.38489 16L11.9997 17.8459L16.6146 16L13.0571 14.577L15.7497 13.5L20.2588 15.3036C20.8874 15.5551 20.8874 16.4449 20.2588 16.6964L12.37 19.8519Z" fill="black"/>
<path d="M12 4L3.74087 7.30364C3.11226 7.55509 3.11226 8.44491 3.74087 8.69636L11.6286 11.8514C11.867 11.9468 12.133 11.9468 12.3714 11.8514L20.2591 8.69636C20.8877 8.44491 20.8877 7.55509 20.2591 7.30364L12 4ZM16.6148 8L12 9.84593L7.38514 8L12 6.15407L16.6148 8Z" fill="#0F1621"/>
</svg>
