<svg width="16" height="16" viewBox="0 0 16 16" fill="none" xmlns="http://www.w3.org/2000/svg">
<path d="M10.3333 8.99997L8.39392 9.83115C8.14237 9.93895 7.85763 9.93895 7.60608 9.83115L5.66666 8.99997L2.07233 10.5404C1.66827 10.7136 1.66827 11.2864 2.07233 11.4595L7.60607 13.8311C7.85762 13.939 8.14236 13.939 8.39391 13.8311L13.9277 11.4595C14.3317 11.2864 14.3317 10.7136 13.9277 10.5404L10.3333 8.99997Z" fill="#0F1621"/>
<path d="M8.39391 7.83115L13.9277 5.45954C14.3317 5.28637 14.3317 4.71356 13.9277 4.5404L8.78783 2.33761C8.28473 2.122 7.71525 2.122 7.21215 2.33761L2.07233 4.5404C1.66827 4.71356 1.66827 5.28637 2.07233 5.45954L7.60607 7.83115C7.85762 7.93895 8.14236 7.93895 8.39391 7.83115Z" fill="#0F1621"/>
</svg>
