<svg width="24" height="24" viewBox="0 0 24 24" fill="none" xmlns="http://www.w3.org/2000/svg">
<path d="M2.62998 8.77997L11.49 12.66C11.811 12.788 12.1689 12.788 12.49 12.66L21.35 8.77997C21.5164 8.69704 21.6564 8.56935 21.7542 8.41125C21.8521 8.25315 21.9039 8.07091 21.9039 7.88498C21.9039 7.69905 21.8521 7.5168 21.7542 7.3587C21.6564 7.2006 21.5164 7.07291 21.35 6.98997L12.51 3.10997C12.3524 3.04055 12.1822 3.0047 12.01 3.0047C11.8378 3.0047 11.6675 3.04055 11.51 3.10997L2.62998 6.99997C2.46618 7.08389 2.32872 7.21139 2.23273 7.36842C2.13674 7.52545 2.08594 7.70593 2.08594 7.88997C2.08594 8.07402 2.13674 8.2545 2.23273 8.41153C2.32872 8.56856 2.46618 8.69606 2.62998 8.77997ZM12 5.06998L18.43 7.87998L12 10.7L5.56998 7.87998L12 5.06998ZM21.37 17L12.51 20.88C12.3524 20.9494 12.1822 20.9853 12.01 20.9853C11.8378 20.9853 11.6675 20.9494 11.51 20.88L2.62998 17C2.46358 16.917 2.32359 16.7894 2.22574 16.6313C2.12789 16.4732 2.07605 16.2909 2.07605 16.105C2.07605 15.919 2.12789 15.7368 2.22574 15.5787C2.32359 15.4206 2.46358 15.2929 2.62998 15.21L7.22998 13.21L9.71998 14.3L5.56998 16.12L12 18.93L18.43 16.12L14.28 14.3L16.77 13.21L21.37 15.21C21.5364 15.2929 21.6764 15.4206 21.7742 15.5787C21.8721 15.7368 21.9239 15.919 21.9239 16.105C21.9239 16.2909 21.8721 16.4732 21.7742 16.6313C21.6764 16.7894 21.5364 16.917 21.37 17Z" fill="#0F1621"/>
</svg>
