<svg width="24" height="24" viewBox="0 0 24 24" fill="none" xmlns="http://www.w3.org/2000/svg">
<path d="M12.3712 19.8516C12.1332 19.9466 11.8672 19.9469 11.6292 19.8519L3.7406 16.6965C3.11228 16.4449 3.11208 15.5551 3.7406 15.3037L8.24974 13.5001L10.9423 14.5771L7.3849 16.0001L11.9998 17.8461L16.6147 16.0001L13.0572 14.5771L15.7498 13.5001L20.259 15.3037C20.8876 15.5552 20.8876 16.445 20.259 16.6965L12.3712 19.8516ZM12 4L3.74084 7.30367C3.11223 7.55512 3.11223 8.44495 3.74084 8.6964L11.6286 11.8515C11.867 11.9469 12.133 11.9469 12.3714 11.8515L20.2592 8.6964C20.8878 8.44495 20.8878 7.55512 20.2592 7.30367L12 4ZM7.38515 8.00003L12 6.15408L16.6149 8.00003L12 9.84598L7.38515 8.00003Z" fill="#0F1621"/>
</svg>
