<svg width="24" height="24" viewBox="0 0 24 24" fill="none" xmlns="http://www.w3.org/2000/svg">
<path d="M16.2929 8.79291L18.0858 6.99999L14 6.99999C13.4477 6.99999 13 7.4477 13 7.99999L13 17C13 18.6568 11.6568 20 9.99999 20L7.8293 20C7.41747 21.1652 6.30623 22 5 22C3.34315 22 2 20.6569 2 19C2 17.3431 3.34315 16 5 16C6.30621 16 7.41745 16.8348 7.82929 18L9.99999 18C10.5523 18 11 17.5523 11 17L11 7.99999C11 6.34313 12.3431 4.99999 14 4.99999L18.0858 4.99999L16.2929 3.20712L17.7071 1.79291L21.9142 6.00001L17.7071 10.2071L16.2929 8.79291Z" fill="#0F1621"/>
<path d="M2 7H9V5L2 5V7Z" fill="#0F1621"/>
</svg>
