<svg width="24" height="24" viewBox="0 0 24 24" fill="none" xmlns="http://www.w3.org/2000/svg">
<path fill-rule="evenodd" clip-rule="evenodd" d="M14.0056 4.98883L18.0822 4.99641L16.2929 3.20712L17.7071 1.79291L21.9142 6.00001L17.7071 10.2071L16.2929 8.79291L18.0894 6.99643L14.0018 6.98883C13.4488 6.9878 13 7.43582 13 7.98883L13 17C13 18.6568 11.6569 20 10 20L7.8293 20C7.41747 21.1652 6.30622 22 5 22C3.34315 22 2 20.6569 2 19C2 17.3431 3.34315 16 5 16C6.30622 16 7.41745 16.8348 7.82929 18H10C10.5523 18 11 17.5523 11 17L11 7.98884C11 6.3298 12.3465 4.98575 14.0056 4.98883ZM6 19C6 18.4477 5.55229 18 5 18C4.44772 18 4 18.4477 4 19C4 19.5523 4.44772 20 5 20C5.55229 20 6 19.5523 6 19Z" fill="#0F1621"/>
<path d="M2 7L9 7V5H2V7Z" fill="#0F1621"/>
</svg>
