<svg width="16" height="16" viewBox="0 0 16 16" fill="none" xmlns="http://www.w3.org/2000/svg">
<path d="M10.9697 2.03033L12.1893 3.24998L9.49506 3.24997C8.25533 3.24997 7.24917 4.2528 7.24507 5.49253L7.22517 11.5025C7.22381 11.9157 6.88842 12.25 6.47518 12.25H4.85461C4.55791 11.517 3.83934 11 3 11C1.89543 11 1 11.8954 1 13C1 14.1046 1.89543 15 3 15C3.83935 15 4.55794 14.4829 4.85463 13.75H6.47518C7.71491 13.75 8.72106 12.7472 8.72517 11.5074L8.74506 5.49749C8.74643 5.08425 9.08181 4.74997 9.49506 4.74997L12.1894 4.74998L10.9697 5.96967L12.0303 7.03033L15.0607 4L12.0303 0.969666L10.9697 2.03033Z" fill="#0F1621"/>
<path d="M1 4.75L6 4.75V3.25L1 3.25V4.75Z" fill="#0F1621"/>
</svg>
