<svg width="16" height="16" viewBox="0 0 16 16" fill="none" xmlns="http://www.w3.org/2000/svg">
<path d="M15 3.5C15 2.12 11.87 1 8 1C4.13 1 1 2.12 1 3.5C1.01361 3.78511 1.13098 4.0554 1.33 4.26L5.49 8.94C5.81746 9.30572 5.99899 9.7791 6 10.27V13C6 13.5304 6.21071 14.0391 6.58579 14.4142C6.96086 14.7893 7.46957 15 8 15C8.53043 15 9.03914 14.7893 9.41421 14.4142C9.78929 14.0391 10 13.5304 10 13V10.27C10.001 9.7791 10.1825 9.30572 10.51 8.94L14.67 4.26C14.869 4.0554 14.9864 3.78511 15 3.5ZM8 4.5C6.19519 4.59164 4.39475 4.2487 2.75 3.5C4.39475 2.7513 6.19519 2.40836 8 2.5C9.80481 2.40836 11.6053 2.7513 13.25 3.5C11.6053 4.2487 9.80481 4.59164 8 4.5Z" fill="#0F1621"/>
</svg>
