<svg width="16" height="16" viewBox="0 0 16 16" fill="none" xmlns="http://www.w3.org/2000/svg">
<path d="M6.38555 4.25C6.06698 5.26428 5.11941 6 4 6C2.61929 6 1.5 4.88071 1.5 3.5C1.5 2.11929 2.61929 1 4 1C5.11941 1 6.06698 1.73572 6.38555 2.75L15 2.75V4.25L6.38555 4.25Z" fill="#0F1621"/>
<path d="M13 11C12.1607 11 11.4421 11.517 11.1454 12.25H6.01327C5.31968 12.25 4.75871 11.6853 4.76329 10.9917L4.77097 9.83164L5.96967 11.0303L7.03033 9.96967L4 6.93934L0.969666 9.96967L2.03033 11.0303L3.27121 9.78945L3.26333 10.9818C3.25324 12.5077 4.48738 13.75 6.01327 13.75H11.1454C11.4421 14.483 12.1607 15 13 15C14.1046 15 15 14.1046 15 13C15 11.8954 14.1046 11 13 11Z" fill="#0F1621"/>
</svg>
