<svg width="16" height="16" viewBox="0 0 16 16" fill="none" xmlns="http://www.w3.org/2000/svg">
<path d="M5 6C4.16065 6 3.44207 5.48296 3.14538 4.75H1V3.25H3.14538C3.44207 2.51704 4.16065 2 5 2C5.83934 2 6.55793 2.51704 6.85462 3.25L15 3.25V4.75L6.85462 4.75C6.55793 5.48296 5.83934 6 5 6Z" fill="#0F1621"/>
<path d="M11.1432 13.7446L6.49107 13.7261C5.25193 13.7212 4.25001 12.7153 4.25001 11.4761L4.25001 9.81065L3.03033 11.0303L1.96966 9.96967L4.99999 6.93934L8.03033 9.96967L6.96967 11.0303L5.75001 9.81068V11.4761C5.75001 11.8892 6.08398 12.2245 6.49703 12.2261L11.1476 12.2446C11.4456 11.5145 12.1627 11 13 11C14.1046 11 15 11.8954 15 13C15 14.1046 14.1046 15 13 15C12.1586 15 11.4385 14.4804 11.1432 13.7446Z" fill="#0F1621"/>
</svg>
