<svg width="24" height="24" viewBox="0 0 24 24" fill="none" xmlns="http://www.w3.org/2000/svg">
<path fill-rule="evenodd" clip-rule="evenodd" d="M10.8293 5.00006C10.4175 3.83487 9.30622 3.00006 8 3.00006C6.69378 3.00006 5.58254 3.83487 5.17071 5.00006L1.99988 5.00006V7.00006L5.17071 7.00006C5.58254 8.16525 6.69378 9.00006 8 9.00006C9.30622 9.00006 10.4175 8.16525 10.8293 7.00006L22 7.00006V5.00006L10.8293 5.00006ZM9 6.00006C9 5.44778 8.55229 5.00006 8 5.00006C7.44771 5.00006 7 5.44778 7 6.00006C7 6.55235 7.44771 7.00006 8 7.00006C8.55229 7.00006 9 6.55235 9 6.00006Z" fill="#0F1621"/>
<path fill-rule="evenodd" clip-rule="evenodd" d="M19 16.0001C17.6938 16.0001 16.5826 16.8348 16.1707 18L10 18C9.44774 18 9.00003 17.5523 9.00003 17L9.00002 14.4142L10.7929 16.2071L12.2071 14.7929L7.99998 10.5858L3.79288 14.7929L5.20709 16.2071L7.00002 14.4142L7.00003 17C7.00002 18.6568 8.34317 20 10 20L16.1707 20C16.5825 21.1652 17.6938 22.0001 19 22.0001C20.6569 22.0001 22 20.6569 22 19.0001C22 17.3432 20.6569 16.0001 19 16.0001ZM19 18.0001C19.5523 18.0001 20 18.4478 20 19.0001C20 19.5523 19.5523 20.0001 19 20.0001C18.4477 20.0001 18 19.5523 18 19.0001C18 18.4478 18.4477 18.0001 19 18.0001Z" fill="#0F1621"/>
</svg>
