<svg width="24" height="24" viewBox="0 0 24 24" fill="none" xmlns="http://www.w3.org/2000/svg">
<path d="M9.35506 6.5C8.92479 7.94574 7.58551 9 6 9C4.067 9 2.5 7.433 2.5 5.5C2.5 3.567 4.067 2 6 2C7.58551 2 8.92479 3.05426 9.35506 4.5L22.0297 4.5V6.5L9.35506 6.5Z" fill="#0F1621"/>
<path d="M19 16C17.6938 16 16.5825 16.8348 16.1707 18H8.00002C7.44773 18 7.00002 17.5523 7.00002 17L7.00001 13.9142L8.79291 15.7071L10.2071 14.2929L6.00001 10.0858L1.79291 14.2929L3.20712 15.7071L5.00001 13.9142L5.00002 17C5.00002 18.6569 6.34317 20 8.00002 20H16.1707C16.5825 21.1652 17.6938 22 19 22C20.6569 22 22 20.6569 22 19C22 17.3431 20.6569 16 19 16Z" fill="#0F1621"/>
</svg>
