<svg width="24" height="24" viewBox="0 0 24 24" fill="none" xmlns="http://www.w3.org/2000/svg">
<path d="M5.17599 7.01483C5.59199 8.17227 6.69933 9 8 9C9.30067 9 10.408 8.17227 10.824 7.01483H22.0297V5.01483L10.8345 5.01483C10.4269 3.8419 9.31175 3 8 3C6.68824 3 5.57313 3.8419 5.16551 5.01483H2V7.01483H5.17599Z" fill="#0F1621"/>
<path d="M19 16C17.6938 16 16.5825 16.8348 16.1707 18H10C9.44772 18 9 17.5523 9 17L9 14.4142L10.7929 16.2071L12.2071 14.7929L8.00001 10.5858L3.79291 14.7929L5.20712 16.2071L7 14.4142L7 17C7 18.6569 8.34315 20 10 20H16.1707C16.5825 21.1652 17.6938 22 19 22C20.6569 22 22 20.6569 22 19C22 17.3431 20.6569 16 19 16Z" fill="#0F1621"/>
</svg>
