<svg width="24" height="24" viewBox="0 0 24 24" fill="none" xmlns="http://www.w3.org/2000/svg">
<path fill-rule="evenodd" clip-rule="evenodd" d="M9.3506 6.51486C8.9156 7.95296 7.58007 9 6 9C4.067 9 2.5 7.433 2.5 5.5C2.5 3.567 4.067 2 6 2C7.59094 2 8.93395 3.06149 9.35945 4.51486H22.0297V6.51486L9.3506 6.51486ZM7.5 5.5C7.5 6.32843 6.82843 7 6 7C5.17157 7 4.5 6.32843 4.5 5.5C4.5 4.67157 5.17157 4 6 4C6.82843 4 7.5 4.67157 7.5 5.5Z" fill="#0F1621"/>
<path fill-rule="evenodd" clip-rule="evenodd" d="M19 16C17.6938 16 16.5825 16.8348 16.1707 18L8 18C7.44771 18 7 17.5523 7 17L7 13.9142L8.79291 15.7071L10.2071 14.2929L6.00001 10.0858L1.79291 14.2929L3.20712 15.7071L5 13.9142L5 17C5 18.6569 6.34315 20 8 20H16.1707C16.5825 21.1652 17.6938 22 19 22C20.6569 22 22 20.6569 22 19C22 17.3431 20.6569 16 19 16ZM19 18C19.5523 18 20 18.4477 20 19C20 19.5523 19.5523 20 19 20C18.4477 20 18 19.5523 18 19C18 18.4477 18.4477 18 19 18Z" fill="#0F1621"/>
</svg>
