<svg width="16" height="16" viewBox="0 0 16 16" fill="none" xmlns="http://www.w3.org/2000/svg">
<path d="M4.5 7.5H6V5.5H4.5V7.5ZM13 1H3C2.46957 1 1.96086 1.21071 1.58579 1.58579C1.21071 1.96086 1 2.46957 1 3V13C1 13.5304 1.21071 14.0391 1.58579 14.4142C1.96086 14.7893 2.46957 15 3 15H13C13.5304 15 14.0391 14.7893 14.4142 14.4142C14.7893 14.0391 15 13.5304 15 13V3C15 2.46957 14.7893 1.96086 14.4142 1.58579C14.0391 1.21071 13.5304 1 13 1ZM7.53 7.75C7.53132 7.84933 7.5129 7.94793 7.47581 8.04008C7.43871 8.13224 7.38367 8.2161 7.3139 8.28681C7.24412 8.35751 7.16099 8.41365 7.06934 8.45197C6.97769 8.49028 6.87934 8.51001 6.78 8.51H5.9L7.5 10.6V12H6V11.1L4.5 9.1V12H3V4H6.78C6.87934 3.99999 6.97769 4.01972 7.06934 4.05803C7.16099 4.09635 7.24412 4.15249 7.3139 4.22319C7.38367 4.2939 7.43871 4.37776 7.47581 4.46992C7.5129 4.56207 7.53132 4.66067 7.53 4.76V7.75ZM13 5.5H10.5V7H12.5V8.5H10.5V10.5H13V12H9V4H13V5.5Z" fill="#0F1621"/>
</svg>
