<svg width="24" height="24" viewBox="0 0 24 24" fill="none" xmlns="http://www.w3.org/2000/svg">
<path d="M20 4V20H4V4H20ZM20 2H4C3.46957 2 2.96086 2.21071 2.58579 2.58579C2.21071 2.96086 2 3.46957 2 4V20C2 20.5304 2.21071 21.0391 2.58579 21.4142C2.96086 21.7893 3.46957 22 4 22H20C20.5304 22 21.0391 21.7893 21.4142 21.4142C21.7893 21.0391 22 20.5304 22 20V4C22 3.46957 21.7893 2.96086 21.4142 2.58579C21.0391 2.21071 20.5304 2 20 2ZM18 7H13V17H18V15H15V13H17V11H15V9H18V7ZM12 12V8C12 7.73478 11.8946 7.48043 11.7071 7.29289C11.5196 7.10536 11.2652 7 11 7H6V17H8V13L10 15V17H12V14L11 13C11.2652 13 11.5196 12.8946 11.7071 12.7071C11.8946 12.5196 12 12.2652 12 12ZM10 11H8V9H10V11Z" fill="#0F1621"/>
</svg>
