<svg width="24" height="24" viewBox="0 0 24 24" fill="none" xmlns="http://www.w3.org/2000/svg">
<path d="M2 7.64997L10.41 11.39C10.5855 11.4688 10.7344 11.5966 10.8391 11.758C10.9437 11.9194 10.9996 12.1076 11 12.3V21.66L2.67 17.91C2.47472 17.8244 2.30793 17.6848 2.18924 17.5076C2.07056 17.3305 2.0049 17.1231 2 16.91V7.64997ZM13 12.3V21.66L21.33 17.91C21.5253 17.8244 21.6921 17.6848 21.8108 17.5076C21.9294 17.3305 21.9951 17.1231 22 16.91V7.64997L13.59 11.39C13.4145 11.4688 13.2656 11.5966 13.1609 11.758C13.0563 11.9194 13.0004 12.1076 13 12.3ZM12.45 2.09997C12.3086 2.03589 12.1552 2.00275 12 2.00275C11.8448 2.00275 11.6914 2.03589 11.55 2.09997L3 5.91997L11.55 9.71997C11.6789 9.77792 11.8187 9.80789 11.96 9.80789C12.1013 9.80789 12.2411 9.77792 12.37 9.71997L21 5.91997L12.45 2.09997Z" fill="#0F1621"/>
</svg>
