<svg width="16" height="16" viewBox="0 0 16 16" fill="none" xmlns="http://www.w3.org/2000/svg">
<path d="M7.06001 0.999987L1.79001 3.81999L8.00001 7.14999L14.21 3.81999L8.94 0.999987C8.65064 0.845907 8.32784 0.76532 8.00001 0.76532C7.67217 0.76532 7.34937 0.845907 7.06001 0.999987ZM2.06001 12.31L7.25001 15.1V8.44999L1.00001 5.09999V10.55C0.999158 10.9135 1.0974 11.2704 1.28416 11.5822C1.47092 11.8941 1.73915 12.1491 2.06001 12.32V12.31ZM8.75001 8.44999V15.1L13.94 12.32C14.2609 12.1491 14.5291 11.8941 14.7159 11.5822C14.9026 11.2704 15.0009 10.9135 15 10.55V5.09999L8.75001 8.44999Z" fill="#0F1621"/>
</svg>
