<svg width="24" height="24" viewBox="0 0 24 24" fill="none" xmlns="http://www.w3.org/2000/svg">
<path d="M22 7.00003C21.9924 6.80662 21.9288 6.61959 21.817 6.46161C21.7052 6.30363 21.5499 6.1815 21.37 6.11003L12.51 2.22003C12.189 2.09202 11.831 2.09202 11.51 2.22003L2.63 6.11003C2.45012 6.1815 2.29485 6.30363 2.18302 6.46161C2.07119 6.61959 2.00761 6.80662 2 7.00003V17.12C2.00761 17.3134 2.07119 17.5005 2.18302 17.6585C2.29485 17.8164 2.45012 17.9386 2.63 18.01L11.49 21.89C11.6476 21.9595 11.8178 21.9953 11.99 21.9953C12.1622 21.9953 12.3324 21.9595 12.49 21.89L21.37 18C21.5676 17.9219 21.7353 17.7829 21.8485 17.6031C21.9618 17.4233 22.0149 17.212 22 17V7.00003ZM12 4.18003L18.43 7.00003L12 9.82003L5.57 7.00003L12 4.18003ZM4 8.49003L11 11.56V19.5L4 16.43V8.49003ZM13 19.49V11.56L20 8.49003V16.43L13 19.49Z" fill="#0F1621"/>
</svg>
