<svg width="24" height="24" viewBox="0 0 24 24" fill="none" xmlns="http://www.w3.org/2000/svg">
<path fill-rule="evenodd" clip-rule="evenodd" d="M11 11.693L3.64888 8.93631L4.35112 7.06366L12 9.93198L19.6489 7.06366L20.3511 8.93631L13 11.693V19.5H11V11.693Z" fill="#0F1621"/>
<path fill-rule="evenodd" clip-rule="evenodd" d="M12 21.068L19.0534 18.423C20.2243 17.9839 21 16.8645 21 15.614V6.30698L13.0534 3.327C12.3742 3.07232 11.6258 3.07232 10.9466 3.327L3 6.30698V15.614C3 16.8645 3.77572 17.9839 4.94663 18.423L12 21.068ZM12 18.932L5.64888 16.5503C5.25857 16.4039 5 16.0308 5 15.614V7.69299L11.6489 5.19966C11.8753 5.11476 12.1247 5.11476 12.3511 5.19966L19 7.69299V15.614C19 16.0308 18.7414 16.4039 18.3511 16.5503L12 18.932Z" fill="#0F1621"/>
</svg>
