<svg width="24" height="24" viewBox="0 0 24 24" fill="none" xmlns="http://www.w3.org/2000/svg">
<path d="M13.2774 2.49587C12.4684 2.11515 11.5317 2.11515 10.7226 2.49587L2.5 6.36533V15.7307C2.5 16.8928 3.17113 17.9504 4.22261 18.4452L12 22.1051L19.7774 18.4452C20.8289 17.9504 21.5 16.8928 21.5 15.7307V6.36533L13.2774 2.49587ZM11.5742 4.30551C11.8439 4.1786 12.1561 4.1786 12.4258 4.30551L19.0672 7.43089L12 10.7566L4.93279 7.43088L11.5742 4.30551ZM4.5 9.7139L10.875 12.7139V19.3653L5.0742 16.6355C4.72371 16.4706 4.5 16.1181 4.5 15.7307V9.7139ZM13.125 19.3653V12.7139L19.5 9.71392V15.7307C19.5 16.1181 19.2763 16.4706 18.9258 16.6355L13.125 19.3653Z" fill="#0F1621"/>
</svg>
