<svg width="24" height="24" viewBox="0 0 24 24" fill="none" xmlns="http://www.w3.org/2000/svg">
<path d="M19.0534 18.423L12 21.068L4.94663 18.423C3.77572 17.9839 3 16.8645 3 15.614V6.30698L10.9466 3.327C11.6258 3.07232 12.3742 3.07232 13.0534 3.327L21 6.30698V15.614C21 16.8645 20.2243 17.9839 19.0534 18.423ZM13 18.557L18.3511 16.5503C18.7414 16.4039 19 16.0308 19 15.614V9.44294L13 11.6929V18.557ZM11 18.557V11.6929L5 9.4429V15.614C5 16.0308 5.25857 16.4039 5.64888 16.5503L11 18.557ZM5.51478 7.49994L12 9.93192L18.4853 7.49996L12.3511 5.19966C12.1247 5.11476 11.8753 5.11476 11.6489 5.19966L5.51478 7.49994Z" fill="#0F1621"/>
</svg>
