<svg width="24" height="24" viewBox="0 0 24 24" fill="none" xmlns="http://www.w3.org/2000/svg">
<path d="M2 6C2 7.30622 2.83481 8.41746 4 8.82929L4 16C4 17.6569 5.34315 19 7 19H10.1707C10.5825 20.1652 11.6938 21 13 21C14.6569 21 16 19.6569 16 18C16 16.3431 14.6569 15 13 15C11.6938 15 10.5825 15.8348 10.1707 17H7C6.44771 17 6 16.5523 6 16L6 8.82929C6.85241 8.52801 7.52801 7.85241 7.82929 7L16.1707 7C16.5825 8.16519 17.6938 9 19 9C20.6569 9 22 7.65685 22 6C22 4.34315 20.6569 3 19 3C17.6938 3 16.5825 3.83481 16.1707 5L7.82929 5C7.41746 3.83481 6.30622 3 5 3C3.34315 3 2 4.34315 2 6Z" fill="#0F1621"/>
</svg>
