<svg width="16" height="16" viewBox="0 0 16 16" fill="none" xmlns="http://www.w3.org/2000/svg">
<path d="M2.25 5.85462C1.51704 5.55793 1 4.83934 1 4C1 2.89543 1.89543 2 3 2C3.83934 2 4.55793 2.51704 4.85462 3.25L11.1454 3.25C11.4421 2.51704 12.1607 2 13 2C14.1046 2 15 2.89543 15 4C15 5.10457 14.1046 6 13 6C12.1607 6 11.4421 5.48296 11.1454 4.75L4.85462 4.75C4.65168 5.25135 4.25135 5.65168 3.75 5.85462L3.75 10C3.75 10.6904 4.30964 11.25 5 11.25H7.14538C7.44207 10.517 8.16066 10 9 10C10.1046 10 11 10.8954 11 12C11 13.1046 10.1046 14 9 14C8.16066 14 7.44207 13.483 7.14538 12.75H5C3.48122 12.75 2.25 11.5188 2.25 10V5.85462Z" fill="#0F1621"/>
</svg>
