<svg width="24" height="24" viewBox="0 0 24 24" fill="none" xmlns="http://www.w3.org/2000/svg">
<path fill-rule="evenodd" clip-rule="evenodd" d="M11.1056 11.5528C11.6686 11.8343 12.3314 11.8343 12.8944 11.5528L20.6584 7.67081C21.2111 7.39442 21.2111 6.60556 20.6584 6.32917L12.8944 2.44721C12.3314 2.16569 11.6686 2.16569 11.1056 2.44721L3.34164 6.32917C2.78885 6.60556 2.78886 7.39442 3.34164 7.67081L11.1056 11.5528ZM7.25476 6.99999L12 9.37261L16.7452 6.99999L12 4.62738L7.25476 6.99999Z" fill="black"/>
<path d="M12 22C17.5228 22 22 17.5228 22 12H20C20 16.4183 16.4183 20 12 20C9.03887 20 6.4535 18.3912 5.07026 16H10V14H2V22H4V18.001C5.82446 20.4293 8.7288 22 12 22Z" fill="#0F1621"/>
</svg>
