<svg width="24" height="24" viewBox="0 0 24 24" fill="none" xmlns="http://www.w3.org/2000/svg">
<path fill-rule="evenodd" clip-rule="evenodd" d="M12 22C17.5228 22 22 17.5228 22 12H20C20 16.4183 16.4183 20 12 20C9.03887 20 6.4535 18.3912 5.07026 16H10V14H4.25204H2.20004H2V22H4V18.001C5.82446 20.4293 8.7288 22 12 22ZM3.34163 6.32917L11.1056 2.44721C11.6686 2.16569 12.3314 2.16569 12.8944 2.44721L20.6583 6.32917C21.2111 6.60557 21.2111 7.39442 20.6583 7.67081L12.8944 11.5528C12.3314 11.8343 11.6686 11.8343 11.1056 11.5528L3.34163 7.67081C2.78885 7.39442 2.78884 6.60557 3.34163 6.32917Z" fill="#0F1621"/>
</svg>
