<svg width="16" height="17" viewBox="0 0 16 17" fill="none" xmlns="http://www.w3.org/2000/svg">
<path d="M7.32917 1.29905L1.89442 4.01643C1.5259 4.20069 1.5259 4.72659 1.89442 4.91086L7.32917 7.62823C7.75146 7.83938 8.24852 7.83938 8.67081 7.62823L14.1056 4.91086C14.4741 4.72659 14.4741 4.20069 14.1056 4.01643L8.67081 1.29905C8.24852 1.08791 7.75146 1.08791 7.32917 1.29905Z" fill="#0F1621"/>
<path d="M3.31066 11.5L3.66302 11.8524C5.92055 14.1099 9.58073 14.1099 11.8383 11.8524C12.9207 10.77 13.4838 9.3668 13.5285 7.94816L15.0278 7.99543C14.9715 9.78018 14.2616 11.5503 12.8989 12.913C10.0556 15.7563 5.44567 15.7563 2.60236 12.913L2.5 12.8107V15H1V11.3107L0.969666 11.2803L1 11.25V10H5.99998V11.5H3.31066Z" fill="#0F1621"/>
</svg>
