<svg width="24" height="24" viewBox="0 0 24 24" fill="none" xmlns="http://www.w3.org/2000/svg">
<path d="M19 5C19.7956 5 20.5587 5.31607 21.1213 5.87868C21.6839 6.44129 22 7.20435 22 8V16C22 16.7956 21.6839 17.5587 21.1213 18.1213C20.5587 18.6839 19.7956 19 19 19H13V5H19ZM20 15.74V8.26C20 7.57 19.25 7 18.33 7H15V17H18.32C19.25 17 20 16.43 20 15.74ZM7 14.36C9 13.18 11 12 11 10V8C11 7.20435 10.6839 6.44129 10.1213 5.87868C9.55871 5.31607 8.79565 5 8 5H5C4.20435 5 3.44129 5.31607 2.87868 5.87868C2.31607 6.44129 2 7.20435 2 8V10H4V8C4 7.73478 4.10536 7.48043 4.29289 7.29289C4.48043 7.10536 4.73478 7 5 7H8C8.26522 7 8.51957 7.10536 8.70711 7.29289C8.89464 7.48043 9 7.73478 9 8V10C9 10.83 7.33 11.83 6 12.64C4 13.82 2 15 2 17V19H11V17H4C4 16.17 5.67 15.16 7 14.36Z" fill="#0F1621"/>
</svg>
