<svg width="16" height="16" viewBox="0 0 16 16" fill="none" xmlns="http://www.w3.org/2000/svg">
<path d="M13 3.00003H9V13H13C13.5304 13 14.0391 12.7893 14.4142 12.4142C14.7893 12.0392 15 11.5305 15 11V5.00003C15 4.4696 14.7893 3.96089 14.4142 3.58582C14.0391 3.21074 13.5304 3.00003 13 3.00003ZM13 10C13 10.2652 12.8946 10.5196 12.7071 10.7071C12.5196 10.8947 12.2652 11 12 11H11V5.00003H12C12.2652 5.00003 12.5196 5.10539 12.7071 5.29292C12.8946 5.48046 13 5.73481 13 6.00003V10ZM4.6 9.30003C5.72 8.46003 7 7.50003 7 6.00003V4.76003C6.99472 4.28968 6.80349 3.84054 6.46808 3.51076C6.13268 3.18097 5.68037 2.99736 5.21 3.00003H2.76C2.29575 3.00262 1.8511 3.18752 1.52188 3.51486C1.19266 3.84221 1.00524 4.2858 1 4.75003V6.00003H3V5.00003H5V6.00003C5 6.50003 4.15 7.14003 3.4 7.70003C2.27 8.54003 1 9.50003 1 11V13H7V11H3C3 10.5 3.84 9.86003 4.59 9.30003H4.6Z" fill="#0F1621"/>
</svg>
