<svg xmlns="http://www.w3.org/2000/svg" viewBox="0 0 24 24"><defs><style>.cls-1{fill:none;}</style></defs><g id="Layer_2" data-name="Layer 2"><g id="UI_Outline" data-name="UI Outline"><g id="_3D-outline_24px" data-name="3D-outline_24px"><rect class="cls-1" width="24" height="24"/><path d="M11,7v3.59a1,1,0,0,1-.28.71L10,12l.7.69a1,1,0,0,1,.3.71V17a2,2,0,0,1-2,2H2V16H8V13H4V11H8V8H2V5H9A2,2,0,0,1,11,7Zm8-2a3,3,0,0,1,3,3v8a3,3,0,0,1-3,3H13V5Zm0,10V9a1,1,0,0,0-1-1H16v8h2A1,1,0,0,0,19,15Z"/></g></g></g></svg>