<svg width="24" height="24" viewBox="0 0 24 24" fill="none" xmlns="http://www.w3.org/2000/svg">
<path d="M11 7V10.59C11.0042 10.8544 10.9035 11.1097 10.72 11.3L10 12L10.7 12.69C10.7945 12.7826 10.8697 12.8931 10.9212 13.0149C10.9727 13.1368 10.9995 13.2677 11 13.4V17C11 17.5304 10.7893 18.0391 10.4142 18.4142C10.0391 18.7893 9.53043 19 9 19H2V17H9V13H4V11H9V7H2V5H9C9.53043 5 10.0391 5.21071 10.4142 5.58579C10.7893 5.96086 11 6.46957 11 7ZM18 19H13V5H18C19.0609 5 20.0783 5.42143 20.8284 6.17157C21.5786 6.92172 22 7.93913 22 9V15C22 16.0609 21.5786 17.0783 20.8284 17.8284C20.0783 18.5786 19.0609 19 18 19ZM15 17H18C18.5304 17 19.0391 16.7893 19.4142 16.4142C19.7893 16.0391 20 15.5304 20 15V9C20 8.46957 19.7893 7.96086 19.4142 7.58579C19.0391 7.21071 18.5304 7 18 7H15V17Z" fill="#0F1621"/>
</svg>
