<svg xmlns="http://www.w3.org/2000/svg" viewBox="0 0 16 16"><defs><style>.cls-1{fill:none;}</style></defs><g id="Layer_2" data-name="Layer 2"><g id="UI_16" data-name="UI 16"><g id="camera-orbit"><rect class="cls-1" width="16" height="16"/><path d="M12,11v3a1,1,0,0,1-1,1H5a1,1,0,0,1-1-1V11H7L6,9h4L9,11ZM8,2a2,2,0,1,0,2,2A2,2,0,0,0,8,2Zm7,2A7,7,0,0,1,13,9L11.54,7.54A5,5,0,0,0,12.6,2l1.84-.79A7.05,7.05,0,0,1,15,4ZM3,4A5,5,0,0,0,4.46,7.54L3.05,9A7,7,0,0,1,1,4a7.05,7.05,0,0,1,.56-2.76L3.4,2A5,5,0,0,0,3,4Z"/></g></g></g></svg>