<svg width="16" height="16" viewBox="0 0 16 16" fill="none" xmlns="http://www.w3.org/2000/svg">
<path d="M12 11V14C12 14.2652 11.8947 14.5196 11.7071 14.7071C11.5196 14.8946 11.2652 15 11 15H5.00001C4.73479 15 4.48044 14.8946 4.2929 14.7071C4.10536 14.5196 4.00001 14.2652 4.00001 14V11H7.00001L6.00001 9H10L9.00001 11H12ZM8.00001 1C6.63216 0.99973 5.29421 1.40021 4.15147 2.15197C3.00873 2.90373 2.11128 3.97381 1.57001 5.23L6.00001 7C6.23287 6.68951 6.53483 6.4375 6.88197 6.26393C7.22911 6.09036 7.61189 6 8.00001 6C8.38812 6 8.7709 6.09036 9.11804 6.26393C9.46518 6.4375 9.76714 6.68951 10 7L14.43 5.23C13.8887 3.97381 12.9913 2.90373 11.8485 2.15197C10.7058 1.40021 9.36785 0.99973 8.00001 1Z" fill="#0F1621"/>
</svg>
