<svg width="16" height="16" viewBox="0 0 16 16" fill="none" xmlns="http://www.w3.org/2000/svg">
<path d="M13 3.05002L5.88002 5.88002L3.05002 13L10.12 10.17L13 3.05002ZM7.29002 8.71002C7.15099 8.56984 7.05656 8.39165 7.01864 8.19789C6.98072 8.00414 7.001 7.80349 7.07693 7.62124C7.15285 7.43899 7.28103 7.2833 7.4453 7.17378C7.60957 7.06426 7.80259 7.00582 8.00002 7.00582C8.19745 7.00582 8.39047 7.06426 8.55474 7.17378C8.71901 7.2833 8.84719 7.43899 8.92311 7.62124C8.99904 7.80349 9.01932 8.00414 8.9814 8.19789C8.94348 8.39165 8.84905 8.56984 8.71002 8.71002C8.61706 8.80375 8.50646 8.87814 8.3846 8.92891C8.26274 8.97968 8.13203 9.00582 8.00002 9.00582C7.86801 9.00582 7.7373 8.97968 7.61544 8.92891C7.49358 8.87814 7.38298 8.80375 7.29002 8.71002ZM4.15002 4.83002C4.25002 4.70002 4.35002 4.58002 4.46002 4.46002L4.83002 4.15002C5.62364 3.47628 6.61157 3.0734 7.65002 3.00002L11 1.68002C9.69563 1.06348 8.23259 0.865045 6.8111 1.11187C5.38961 1.3587 4.07911 2.03874 3.05893 3.05893C2.03874 4.07911 1.3587 5.38961 1.11187 6.8111C0.865045 8.23259 1.06348 9.69563 1.68002 11L3.00002 7.65002C3.0734 6.61157 3.47628 5.62364 4.15002 4.83002ZM14.32 5.00002L13 8.35002C12.9295 9.38731 12.5301 10.3751 11.86 11.17C11.76 11.3 11.66 11.42 11.55 11.54L11.18 11.85C10.3837 12.5257 9.39195 12.9287 8.35002 13L5.00002 14.32C6.30441 14.9366 7.76745 15.135 9.18894 14.8882C10.6104 14.6413 11.9209 13.9613 12.9411 12.9411C13.9613 11.9209 14.6413 10.6104 14.8882 9.18894C15.135 7.76745 14.9366 6.30441 14.32 5.00002Z" fill="#0F1621"/>
</svg>
