<svg width="24" height="24" viewBox="0 0 24 24" fill="none" xmlns="http://www.w3.org/2000/svg">
<path fill-rule="evenodd" clip-rule="evenodd" d="M12.71 12.71C12.5698 12.849 12.3917 12.9435 12.1979 12.9814C12.0041 13.0193 11.8035 12.999 11.6212 12.9231C11.439 12.8472 11.2833 12.719 11.1738 12.5547C11.0643 12.3904 11.0058 12.1974 11.0058 12C11.0058 11.8026 11.0643 11.6095 11.1738 11.4453C11.2833 11.281 11.439 11.1528 11.6212 11.0769C11.8035 11.001 12.0041 10.9807 12.1979 11.0186C12.3917 11.0565 12.5698 11.151 12.71 11.29C12.8038 11.383 12.8781 11.4936 12.9289 11.6154C12.9797 11.7373 13.0058 11.868 13.0058 12C13.0058 12.132 12.9797 12.2627 12.9289 12.3846C12.8781 12.5064 12.8038 12.617 12.71 12.71ZM9.88002 9.87999L7.76003 16.24L14.12 14.12L16.24 7.75999L9.88002 9.87999ZM19.07 4.87999L15.54 15.54L4.93002 19.07L8.46002 8.45999L19.07 4.92999V4.87999ZM19.07 19.02C17.4939 20.6091 15.4302 21.6236 13.2093 21.901C10.9884 22.1783 8.73859 21.7026 6.82002 20.55L9.60003 19.62C10.99 20.048 12.4704 20.089 13.8819 19.7385C15.2934 19.3881 16.5827 18.6595 17.6111 17.6311C18.6395 16.6027 19.3681 15.3134 19.7186 13.9019C20.069 12.4903 20.028 11.01 19.6 9.61999L20.53 6.83999C21.6865 8.74907 22.1709 10.9902 21.9064 13.2064C21.6418 15.4227 20.6434 17.4868 19.07 19.07V19.02ZM6.34002 6.33999C5.30093 7.37176 4.56495 8.66893 4.21229 10.0902C3.85963 11.5114 3.90381 13.0021 4.34003 14.4L3.41003 17.18C2.24035 15.2632 1.74983 13.0086 2.01747 10.7791C2.2851 8.54961 3.29531 6.4751 4.88541 4.88962C6.47551 3.30414 8.55295 2.29997 10.7832 2.03882C13.0134 1.77767 15.2667 2.27475 17.18 3.44999L14.4 4.37999C13.0057 3.93879 11.5172 3.88821 10.0962 4.23377C8.67513 4.57933 7.37602 5.3078 6.34002 6.33999Z" fill="#0F1621"/>
</svg>
