<svg width="24" height="24" viewBox="0 0 24 24" fill="none" xmlns="http://www.w3.org/2000/svg">
<path d="M12 4C13.5823 4 15.129 4.46919 16.4446 5.34824C17.7602 6.22729 18.7855 7.47672 19.391 8.93853C19.9965 10.4003 20.155 12.0089 19.8463 13.5607C19.5376 15.1126 18.7757 16.538 17.6569 17.6569C16.538 18.7757 15.1126 19.5376 13.5607 19.8463C12.0089 20.155 10.4003 19.9965 8.93854 19.391C7.47673 18.7855 6.2273 17.7602 5.34825 16.4446C4.4692 15.129 4 13.5823 4 12C4 9.87827 4.84286 7.84344 6.34315 6.34315C7.84344 4.84285 9.87827 4 12 4ZM12 2C10.0222 2 8.08879 2.58649 6.4443 3.6853C4.79981 4.78412 3.51809 6.3459 2.76121 8.17317C2.00433 10.0004 1.8063 12.0111 2.19215 13.9509C2.578 15.8907 3.53041 17.6725 4.92894 19.0711C6.32746 20.4696 8.10929 21.422 10.0491 21.8079C11.9889 22.1937 13.9996 21.9957 15.8268 21.2388C17.6541 20.4819 19.2159 19.2002 20.3147 17.5557C21.4135 15.9112 22 13.9778 22 12C22 10.6868 21.7413 9.38642 21.2388 8.17317C20.7363 6.95991 19.9997 5.85752 19.0711 4.92893C18.1425 4.00035 17.0401 3.26375 15.8268 2.7612C14.6136 2.25866 13.3132 2 12 2ZM12 8C11.2089 8 10.4355 8.2346 9.77772 8.67412C9.11993 9.11365 8.60724 9.73836 8.30449 10.4693C8.00174 11.2002 7.92252 12.0044 8.07686 12.7804C8.2312 13.5563 8.61217 14.269 9.17158 14.8284C9.73099 15.3878 10.4437 15.7688 11.2196 15.9231C11.9956 16.0775 12.7998 15.9983 13.5307 15.6955C14.2616 15.3928 14.8864 14.8801 15.3259 14.2223C15.7654 13.5645 16 12.7911 16 12C16 10.9391 15.5786 9.92172 14.8284 9.17157C14.0783 8.42143 13.0609 8 12 8Z" fill="#0F1621"/>
</svg>
