<svg width="24" height="24" viewBox="0 0 24 24" fill="none" xmlns="http://www.w3.org/2000/svg">
<path d="M12 5C10.3391 4.9992 8.70423 5.41207 7.24291 6.20133C5.78159 6.9906 4.53987 8.13141 3.62985 9.52075C2.71983 10.9101 2.17018 12.5042 2.03053 14.1592C1.89088 15.8141 2.16563 17.4778 2.82997 19L9.12997 17.79C9.50281 18.174 9.94893 18.4794 10.4419 18.6878C10.9349 18.8963 11.4647 19.0038 12 19.0038C12.5352 19.0038 13.065 18.8963 13.558 18.6878C14.051 18.4794 14.4971 18.174 14.87 17.79L21.17 19C21.8343 17.4778 22.1091 15.8141 21.9694 14.1592C21.8298 12.5042 21.2801 10.9101 20.3701 9.52075C19.4601 8.13141 18.2183 6.9906 16.757 6.20133C15.2957 5.41207 13.6608 4.9992 12 5ZM14 15C14 15.3956 13.8827 15.7822 13.6629 16.1111C13.4431 16.44 13.1308 16.6964 12.7653 16.8478C12.3999 16.9991 11.9978 17.0387 11.6098 16.9616C11.2218 16.8844 10.8655 16.6939 10.5858 16.4142C10.3061 16.1345 10.1156 15.7781 10.0384 15.3902C9.96123 15.0022 10.0008 14.6001 10.1522 14.2346C10.3036 13.8692 10.5599 13.5568 10.8888 13.3371C11.2177 13.1173 11.6044 13 12 13C12.3521 13.0037 12.6971 13.1002 13 13.28L17 11L18 12.73L14 15Z" fill="#0F1621"/>
</svg>
