<svg width="16" height="16" viewBox="0 0 16 16" fill="none" xmlns="http://www.w3.org/2000/svg">
<path d="M14.4 6.55999L9.40001 1.55999C9.21344 1.36642 8.98977 1.21246 8.74235 1.1073C8.49493 1.00214 8.22885 0.947937 7.96001 0.947937C7.69117 0.947937 7.42509 1.00214 7.17767 1.1073C6.93026 1.21246 6.70658 1.36642 6.52001 1.55999L1.52001 6.55999C1.32645 6.74656 1.17248 6.97023 1.06732 7.21765C0.96216 7.46507 0.907959 7.73115 0.907959 7.99999C0.907959 8.26883 0.96216 8.53491 1.06732 8.78233C1.17248 9.02974 1.32645 9.25342 1.52001 9.43999L6.52001 14.44C6.70658 14.6336 6.93026 14.7875 7.17767 14.8927C7.42509 14.9978 7.69117 15.052 7.96001 15.052C8.22885 15.052 8.49493 14.9978 8.74235 14.8927C8.98977 14.7875 9.21344 14.6336 9.40001 14.44L14.4 9.43999C14.5936 9.25342 14.7475 9.02974 14.8527 8.78233C14.9579 8.53491 15.0121 8.26883 15.0121 7.99999C15.0121 7.73115 14.9579 7.46507 14.8527 7.21765C14.7475 6.97023 14.5936 6.74656 14.4 6.55999ZM8.00001 13V2.99999L13 7.99999L8.00001 13Z" fill="#0F1621"/>
</svg>
