<svg width="24" height="24" viewBox="0 0 24 24" fill="none" xmlns="http://www.w3.org/2000/svg">
<path d="M21.42 10.6L13.42 2.6C13.0461 2.23355 12.5435 2.02829 12.02 2.02829C11.4965 2.02829 10.9939 2.23355 10.62 2.6L2.61999 10.6C2.25354 10.9739 2.04828 11.4765 2.04828 12C2.04828 12.5235 2.25354 13.0261 2.61999 13.4L10.62 21.4C10.9939 21.7665 11.4965 21.9717 12.02 21.9717C12.5435 21.9717 13.0461 21.7665 13.42 21.4L21.42 13.4C21.7864 13.0261 21.9917 12.5235 21.9917 12C21.9917 11.4765 21.7864 10.9739 21.42 10.6ZM13 19V5L20 12L13 19Z" fill="#0F1621"/>
</svg>
