<svg width="24" height="24" viewBox="0 0 24 24" fill="none" xmlns="http://www.w3.org/2000/svg">
<path fill-rule="evenodd" clip-rule="evenodd" d="M12 2C10.8829 2 9.77681 2.22019 8.74489 2.64798C7.71297 3.07577 6.77549 3.70277 5.98606 4.49313C5.19663 5.28348 4.57073 6.2217 4.14416 7.25412C3.71758 8.28654 3.49869 9.39292 3.50001 10.51C3.49969 11.6123 3.72082 12.7035 4.15027 13.7187C4.57972 14.7339 5.20874 15.6525 6.00001 16.42L12 22.55L18 16.42C18.7895 15.6517 19.4166 14.7327 19.8443 13.7175C20.2721 12.7023 20.4916 11.6116 20.49 10.51C20.4913 9.39376 20.2728 8.2882 19.8468 7.25643C19.4209 6.22466 18.7959 5.28689 18.0075 4.49666C17.2191 3.70643 16.2828 3.07923 15.2521 2.65085C14.2213 2.22247 13.1162 2.00131 12 2ZM12 13C11.5056 13 11.0222 12.8534 10.6111 12.5787C10.2 12.304 9.87953 11.9135 9.69031 11.4567C9.50109 10.9999 9.45158 10.4972 9.54804 10.0123C9.64451 9.52732 9.88261 9.08186 10.2322 8.73223C10.5819 8.3826 11.0273 8.1445 11.5123 8.04804C11.9972 7.95157 12.4999 8.00108 12.9567 8.1903C13.4135 8.37952 13.804 8.69995 14.0787 9.11107C14.3534 9.5222 14.5 10.0055 14.5 10.5C14.5 11.163 14.2366 11.7989 13.7678 12.2678C13.2989 12.7366 12.663 13 12 13Z" fill="#0F1621"/>
</svg>
