<svg width="24" height="24" viewBox="0 0 24 24" fill="none" xmlns="http://www.w3.org/2000/svg">
<path d="M20 2H4C3.46957 2 2.96086 2.21071 2.58579 2.58579C2.21071 2.96086 2 3.46957 2 4V20C2 20.5304 2.21071 21.0391 2.58579 21.4142C2.96086 21.7893 3.46957 22 4 22H20C20.5304 22 21.0391 21.7893 21.4142 21.4142C21.7893 21.0391 22 20.5304 22 20V4C22 3.46957 21.7893 2.96086 21.4142 2.58579C21.0391 2.21071 20.5304 2 20 2ZM12.21 4L9.21 7L10.63 8.43L14.22 4.83L19.16 9.78L17.7 11.24L14.86 8.43L13.44 9.85L16.27 12.68L14.51 14.43L4.07 4H12.21ZM4 20V15.06L7.08 12L5.66 10.55L4 12.21V6.77L13.08 15.86L8.94 20H4ZM11.79 20L14.51 17.28L17.23 20H11.79ZM20 19.93L15.93 15.86L20 11.79V19.93ZM20 7.79L16.21 4H20V7.79Z" fill="#0F1621"/>
</svg>
