<svg width="16" height="16" viewBox="0 0 16 16" fill="none" xmlns="http://www.w3.org/2000/svg">
<path d="M14 1H2C1.73478 1 1.48043 1.10536 1.29289 1.29289C1.10536 1.48043 1 1.73478 1 2V14C1 14.2652 1.10536 14.5196 1.29289 14.7071C1.48043 14.8946 1.73478 15 2 15H14C14.2652 15 14.5196 14.8946 14.7071 14.7071C14.8946 14.5196 15 14.2652 15 14V2C15 1.73478 14.8946 1.48043 14.7071 1.29289C14.5196 1.10536 14.2652 1 14 1ZM3 5.82L7.09 9.91L4 13H3V5.82ZM6.82 13L8.5 11.32L10.18 13H6.82ZM13 13L9.91 9.91L13 6.82V13ZM13 4L10.92 6.09L9.42 4.59L8 6L9.5 7.5L8.5 8.5L3 3H13V4Z" fill="#0F1621"/>
</svg>
