<svg width="16" height="16" viewBox="0 0 16 16" fill="none" xmlns="http://www.w3.org/2000/svg">
<path d="M7.99996 1C6.46344 1.00265 4.99075 1.61489 3.9052 2.70231C2.81966 3.78974 2.20996 5.26348 2.20996 6.8C2.21358 7.54621 2.36576 8.28422 2.65764 8.97099C2.94951 9.65775 3.37523 10.2795 3.90996 10.8L7.99996 15L12.09 10.83C12.6247 10.3095 13.0504 9.68775 13.3423 9.00099C13.6342 8.31422 13.7863 7.57621 13.79 6.83C13.7939 6.06665 13.6471 5.31004 13.3581 4.60353C13.069 3.89703 12.6433 3.25454 12.1054 2.71291C11.5674 2.17128 10.9279 1.74117 10.2234 1.44723C9.51891 1.15329 8.76332 1.00131 7.99996 1ZM7.99996 8.5C7.70329 8.5 7.41328 8.41203 7.16661 8.2472C6.91993 8.08238 6.72767 7.84811 6.61414 7.57403C6.50061 7.29994 6.4709 6.99834 6.52878 6.70736C6.58666 6.41639 6.72952 6.14912 6.9393 5.93934C7.14908 5.72956 7.41635 5.5867 7.70733 5.52882C7.9983 5.47094 8.2999 5.50065 8.57399 5.61418C8.84808 5.72771 9.08234 5.91997 9.24717 6.16664C9.41199 6.41332 9.49996 6.70333 9.49996 7C9.49996 7.39782 9.34193 7.77936 9.06062 8.06066C8.77932 8.34196 8.39779 8.5 7.99996 8.5Z" fill="#0F1621"/>
</svg>
