<svg xmlns="http://www.w3.org/2000/svg" viewBox="0 0 24 24"><defs><style>.cls-1{fill:none;}</style></defs><g id="Layer_2" data-name="Layer 2"><g id="UI_Outline" data-name="UI Outline"><g id="map-marker"><rect class="cls-1" width="24" height="24"/><path d="M12,2a8.51,8.51,0,0,0-8.5,8.51A8.26,8.26,0,0,0,6,16.43l6,6.13,6-6.13a8.23,8.23,0,0,0,2.49-5.92A8.51,8.51,0,0,0,12,2Zm4.58,13L12,19.7,7.4,15a6.27,6.27,0,0,1-1.9-4.5,6.5,6.5,0,1,1,13,0A6.29,6.29,0,0,1,16.58,15ZM12,7a3.5,3.5,0,1,0,3.5,3.5A3.5,3.5,0,0,0,12,7Zm0,5a1.5,1.5,0,1,1,1.5-1.5A1.5,1.5,0,0,1,12,12Z"/></g></g></g></svg>