<svg xmlns="http://www.w3.org/2000/svg" viewBox="0 0 24 24"><defs><style>.cls-1{fill:none;}</style></defs><g id="Layer_2" data-name="Layer 2"><g id="System_UI_Outline" data-name="System UI Outline"><g id="mapview"><rect class="cls-1" width="24" height="24"/><path d="M20,2H4A2,2,0,0,0,2,4V20a2,2,0,0,0,2,2H20a2,2,0,0,0,2-2V4A2,2,0,0,0,20,2ZM12.21,4l-3,3,1.42,1.43,3.59-3.6,4.94,4.95-1.46,1.46L14.86,8.43,13.44,9.85l2.83,2.83-1.76,1.75L4.07,4ZM4,20V15.06L7.08,12,5.66,10.55,4,12.21V6.77l9.08,9.09L8.94,20Zm7.79,0,2.72-2.72L17.23,20ZM20,19.93l-4.07-4.07L20,11.79ZM20,7.79,16.21,4H20Z"/></g></g></g></svg>