<svg xmlns="http://www.w3.org/2000/svg" viewBox="0 0 24 24"><defs><style>.cls-1{fill:none;}.cls-2{fill-rule:evenodd;}</style></defs><g id="Layer_2" data-name="Layer 2"><g id="UI_Outline" data-name="UI Outline"><g id="north-outline_24px"><rect class="cls-1" width="24" height="24"/><path class="cls-2" d="M9,12l3,6,3-6ZM12,2l5,10L12,22,7,12,12,2ZM22,12a10,10,0,0,1-7.62,9.71l1.31-2.62a8,8,0,0,0,0-14.18L14.38,2.29A10,10,0,0,1,22,12ZM4,12a8,8,0,0,0,4.31,7.09l1.31,2.62a10,10,0,0,1,0-19.42L8.31,4.91A8,8,0,0,0,4,12Z"/></g></g></g></svg>