<svg width="24" height="24" viewBox="0 0 24 24" fill="none" xmlns="http://www.w3.org/2000/svg">
<path fill-rule="evenodd" clip-rule="evenodd" d="M9.00001 12L12 18L15 12H9.00001ZM12 2L17 12L12 22L7.00001 12L12 2ZM22 12C21.9994 14.2377 21.2483 16.4105 19.8668 18.1709C18.4854 19.9313 16.5534 21.1774 14.38 21.71L15.69 19.09C16.9851 18.4131 18.07 17.3945 18.8271 16.1446C19.5841 14.8947 19.9844 13.4613 19.9844 12C19.9844 10.5387 19.5841 9.10534 18.8271 7.85544C18.07 6.60555 16.9851 5.58688 15.69 4.91L14.38 2.29C16.5534 2.82257 18.4854 4.06872 19.8668 5.82909C21.2483 7.58945 21.9994 9.7623 22 12ZM4.00001 12C4.0015 13.4629 4.40409 14.8974 5.164 16.1474C5.9239 17.3975 7.01202 18.4152 8.31001 19.09L9.62001 21.71C7.44861 21.1754 5.51907 19.9283 4.13972 18.1681C2.76037 16.408 2.0108 14.2363 2.0108 12C2.0108 9.76375 2.76037 7.59203 4.13972 5.83185C5.51907 4.07168 7.44861 2.82464 9.62001 2.29L8.31001 4.91C7.01202 5.58476 5.9239 6.60252 5.164 7.85257C4.40409 9.10262 4.0015 10.5371 4.00001 12Z" fill="#0F1621"/>
</svg>
