<svg xmlns="http://www.w3.org/2000/svg" viewBox="0 0 24 24"><defs><style>.cls-1{fill:none;}</style></defs><g id="Layer_2" data-name="Layer 2"><g id="System_UI_Solid" data-name="System UI Solid"><g id="pan-view"><rect class="cls-1" width="24" height="24"/><path d="M7,9.85,5.56,8.44,2,12l3.62,3.62L7,14.2,4.83,12Zm11.47-1.4L17,9.86,19.17,12,17,14.18l1.42,1.41L22,12ZM8.39,5.61,9.81,7,12,4.83,14.2,7l1.42-1.41L12,2ZM12,19.17,9.86,17,8.45,18.45,12,22l3.58-3.58L14.16,17ZM14,12a2,2,0,1,1-2-2A2,2,0,0,1,14,12Z"/></g></g></g></svg>