<svg xmlns="http://www.w3.org/2000/svg" viewBox="0 0 16 16"><defs><style>.cls-1{fill:none;}</style></defs><g id="Layer_2" data-name="Layer 2"><g id="UI_System_16" data-name="UI System 16"><g id="resize"><rect class="cls-1" width="16" height="16"/><path d="M6,5h5v5H9V8.39L6.39,11,5,9.61,7.61,7H6Zm8-4H2A1,1,0,0,0,1,2V3H13V15h1a1,1,0,0,0,1-1V2A1,1,0,0,0,14,1ZM4,11H2a1,1,0,0,0-1,1v2a1,1,0,0,0,1,1H4a1,1,0,0,0,1-1V12A1,1,0,0,0,4,11ZM4,5H2A1,1,0,0,0,1,6V7H4Zm7,9V12H9v3h1A1,1,0,0,0,11,14Z"/></g></g></g></svg>