<svg xmlns="http://www.w3.org/2000/svg" viewBox="0 0 24 24"><defs><style>.cls-1{fill:none;}</style></defs><g id="Layer_2" data-name="Layer 2"><g id="UI_Solid" data-name="UI Solid"><g id="resize-solid_24px"><rect class="cls-1" width="24" height="24"/><path d="M18,6v6H16V9.39L11.7,13.7l-1.42-1.41L14.57,8H12V6Zm3-4H3A1,1,0,0,0,2,3V4H20V22h1a1,1,0,0,0,1-1V3A1,1,0,0,0,21,2ZM9,14H3a1,1,0,0,0-1,1v6a1,1,0,0,0,1,1H9a1,1,0,0,0,1-1V15A1,1,0,0,0,9,14Zm1-6H3A1,1,0,0,0,2,9v1h8Zm6,13V14H14v8h1A1,1,0,0,0,16,21Z"/></g></g></g></svg>