<svg xmlns="http://www.w3.org/2000/svg" viewBox="0 0 24 24"><defs><style>.cls-1{fill:none;}.cls-2{fill-rule:evenodd;}</style></defs><g id="Layer_2" data-name="Layer 2"><g id="UI_Solid" data-name="UI Solid"><g id="south-solid_24px"><rect class="cls-1" width="24" height="24"/><path class="cls-2" d="M15,12,12,6,9,12ZM12,22,7,12,12,2l5,10L12,22ZM2,12A10,10,0,0,1,9.62,2.29L8.31,4.91a8,8,0,0,0,0,14.18l1.31,2.62A10,10,0,0,1,2,12Zm18,0a8,8,0,0,0-4.31-7.09L14.38,2.29a10,10,0,0,1,0,19.42l1.31-2.62A8,8,0,0,0,20,12Z"/></g></g></g></svg>