<svg width="24" height="24" viewBox="0 0 24 24" fill="none" xmlns="http://www.w3.org/2000/svg">
<path fill-rule="evenodd" clip-rule="evenodd" d="M15 12L12 6L9 12H15ZM12 22L7 12L12 2L17 12L12 22ZM2 12C2.00059 9.7623 2.7517 7.58945 4.13316 5.82909C5.51462 4.06872 7.4466 2.82257 9.62 2.29L8.31 4.91C7.01493 5.58688 5.93 6.60555 5.17295 7.85544C4.4159 9.10534 4.01566 10.5387 4.01566 12C4.01566 13.4613 4.4159 14.8947 5.17295 16.1446C5.93 17.3945 7.01493 18.4131 8.31 19.09L9.62 21.71C7.4466 21.1774 5.51462 19.9313 4.13316 18.1709C2.7517 16.4105 2.00059 14.2377 2 12ZM20 12C19.9985 10.5371 19.5959 9.10262 18.836 7.85257C18.0761 6.60252 16.988 5.58476 15.69 4.91L14.38 2.29C16.5514 2.82464 18.4809 4.07168 19.8603 5.83185C21.2396 7.59203 21.9892 9.76375 21.9892 12C21.9892 14.2363 21.2396 16.408 19.8603 18.1681C18.4809 19.9283 16.5514 21.1754 14.38 21.71L15.69 19.09C16.988 18.4152 18.0761 17.3975 18.836 16.1474C19.5959 14.8974 19.9985 13.4629 20 12Z" fill="#0F1621"/>
</svg>
