<svg width="16" height="16" viewBox="0 0 16 16" fill="none" xmlns="http://www.w3.org/2000/svg">
<path d="M13 15H10V13H13V10H15V13C14.9757 13.5226 14.7571 14.0173 14.3872 14.3872C14.0173 14.7571 13.5226 14.9757 13 15ZM15 3C14.9757 2.47741 14.7571 1.98273 14.3872 1.6128C14.0173 1.24287 13.5226 1.02435 13 1H10V3H13V6H15V3ZM3 3H6V1H3C2.47741 1.02435 1.98273 1.24287 1.6128 1.6128C1.24287 1.98273 1.02435 2.47741 1 3V6H3V3ZM6 13L3.06 12.94L3 10H1V13C1.02435 13.5226 1.24287 14.0173 1.6128 14.3872C1.98273 14.7571 2.47741 14.9757 3 15H6V13Z" fill="#0F1621"/>
</svg>
