<?xml version="1.0" encoding="iso-8859-1"?>
<!-- Generator: Adobe Illustrator 24.1.2, SVG Export Plug-In . SVG Version: 6.00 Build 0)  -->
<svg version="1.1" id="_x31_00-1000-0009_x5F_fast-food-layer"
	 xmlns="http://www.w3.org/2000/svg" xmlns:xlink="http://www.w3.org/1999/xlink" x="0px" y="0px" viewBox="0 0 24 24"
	 style="enable-background:new 0 0 24 24;" xml:space="preserve">
<g id="_x31_00-1000-0009_x5F_fast-food_1_">
	<rect style="fill:none;" width="24" height="24"/>
	<path d="M13,19c0,0.55-0.45,1-1,1H6c-0.55,0-1-0.45-1-1H3c0,1.66,1.34,3,3,3h6c1.66,0,3-1.34,3-3H13z M5,13c0-0.55,0.45-1,1-1h6
		c0.55,0,1,0.45,1,1h2c0-1.66-1.34-3-3-3H6c-1.66,0-3,1.34-3,3H5z M16,16L16,16c0,0.552-0.448,1-1,1H3c-0.552,0-1-0.448-1-1v0
		c0-0.552,0.448-1,1-1h12C15.552,15,16,15.448,16,16z M22,6v2l-2,14h-3v-2h1.29L20,8h-9V6h4V4c0-1.1,0.9-2,2-2h4v2h-4v2H22z"/>
</g>
</svg>
