<?xml version="1.0" encoding="iso-8859-1"?>
<!-- Generator: Adobe Illustrator 24.1.2, SVG Export Plug-In . SVG Version: 6.00 Build 0)  -->
<svg version="1.1" id="_x31_00-1100-0000_x5F_coffee-tea-layer"
	 xmlns="http://www.w3.org/2000/svg" xmlns:xlink="http://www.w3.org/1999/xlink" x="0px" y="0px" viewBox="0 0 24 24"
	 style="enable-background:new 0 0 24 24;" xml:space="preserve">
<g id="_x31_00-1100-0000_x5F_coffee-tea">
	<rect style="fill:none;" width="24" height="24"/>
	<path d="M20,22H4c-1.105,0-2-0.895-2-2v0h20v0C22,21.105,21.105,22,20,22z M16,4H6v12h10v-4v-2V4 M18,2c2.21,0,4,1.79,4,4v2
		c0,2.21-1.79,4-4,4v4c0,1.1-0.9,2-2,2H6c-1.1,0-2-0.9-2-2V2H18L18,2z M18,10c1.1,0,2-0.9,2-2V6c0-1.1-0.9-2-2-2V10L18,10z"/>
</g>
</svg>
