<?xml version="1.0" encoding="iso-8859-1"?>
<!-- Generator: Adobe Illustrator 24.1.2, SVG Export Plug-In . SVG Version: 6.00 Build 0)  -->
<svg version="1.1" id="_x34_00-4100-0339_x5F_monorail-layer"
	 xmlns="http://www.w3.org/2000/svg" xmlns:xlink="http://www.w3.org/1999/xlink" x="0px" y="0px" viewBox="0 0 24 24"
	 style="enable-background:new 0 0 24 24;" xml:space="preserve">
<g id="_x34_00-4100-0339_x5F_monorail_2_">
	<rect style="fill:none;" width="24" height="24"/>
	<path d="M20.974,13.51l-1.65-9.84C19.163,2.71,18.318,2,17.342,2H6.658C5.682,2,4.837,2.71,4.676,3.67l-1.65,9.84
		c-0.05,0.32-0.03,0.65,0.081,0.96l1.388,4.16C4.776,19.45,5.541,20,6.406,20H6.97v-1.83L9.988,15h4.024l3.018,3.17V20h0.563
		c0.865,0,1.63-0.55,1.911-1.37l1.388-4.16C21.004,14.16,21.024,13.83,20.974,13.51z M7.976,14H5.964v-2h2.012V14z M18.036,14
		h-2.012v-2h2.012V14z M5.964,10l0.845-5.2C6.9,4.34,7.312,4,7.795,4h8.411c0.483,0,0.895,0.34,0.986,0.8l0.845,5.2H5.964z M15,19v3
		H9v-3l2-2h2L15,19z"/>
</g>
</svg>
