<?xml version="1.0" encoding="iso-8859-1"?>
<!-- Generator: Adobe Illustrator 24.1.2, SVG Export Plug-In . SVG Version: 6.00 Build 0)  -->
<svg version="1.1" id="_x34_00-4100-0047_x5F_taxi-layer"
	 xmlns="http://www.w3.org/2000/svg" xmlns:xlink="http://www.w3.org/1999/xlink" x="0px" y="0px" viewBox="0 0 24 24"
	 style="enable-background:new 0 0 24 24;" xml:space="preserve">
<g id="_x34_00-4100-0047_x5F_taxi_2_">
	<rect style="fill:none;" width="24" height="24"/>
	<path d="M22,10h-2.55l-0.86-1.18C18.22,8.31,17.6,8,16.93,8H7.07C6.4,8,5.78,8.31,5.41,8.82L4.55,10H2v2h1.1l-0.773,1.057
		C2.115,13.348,2,13.699,2,14.06V19c0,1.1,0.9,2,2,2h3c0.552,0,1-0.448,1-1v-1h8v1c0,0.552,0.448,1,1,1h3
		c0.55,0,1.05-0.22,1.41-0.59C21.78,20.05,22,19.55,22,19v-4.94c0-0.361-0.115-0.712-0.328-1.003L20.9,12H22V10z M8,17H4v-2h4V17z
		 M5,13l1.7-2.55C6.89,10.17,7.2,10,7.54,10h8.92c0.34,0,0.65,0.17,0.84,0.45L19,13h-7H5z M20,17h-4v-2h4V17z M15,6H9V4h6V6z"/>
</g>
</svg>
