<?xml version="1.0" encoding="iso-8859-1"?>
<!-- Generator: Adobe Illustrator 24.1.2, SVG Export Plug-In . SVG Version: 6.00 Build 0)  -->
<svg version="1.1" id="_x34_00-4100-0337_x5F_lightrail-layer"
	 xmlns="http://www.w3.org/2000/svg" xmlns:xlink="http://www.w3.org/1999/xlink" x="0px" y="0px" viewBox="0 0 24 24"
	 style="enable-background:new 0 0 24 24;" xml:space="preserve">
<g id="_x34_00-4100-0337_x5F_lightrail_2_">
	<rect style="fill:none;" width="24" height="24"/>
	<path d="M18,22H6v-2h12V22z M20,14v2c0,1-0.9,2-2,2H6c-1.1,0-2-0.9-2-2v-2l1.51-8.7C5.81,4.52,6.55,4,7.39,4h9.22
		c0.84,0,1.58,0.52,1.88,1.3L20,14z M6.38,12h11.24l-0.9-5.17C16.64,6.35,16.22,6,15.74,6H8.26C7.78,6,7.36,6.35,7.28,6.83L6.38,12z
		 M10,14H6v2h4V14z M18,14h-4v2h4V14z"/>
</g>
</svg>
