<?xml version="1.0" encoding="iso-8859-1"?>
<!-- Generator: Adobe Illustrator 24.1.2, SVG Export Plug-In . SVG Version: 6.00 Build 0)  -->
<svg version="1.1" id="_x34_00-4100-0037_x5F_underground-train-subway-layer"
	 xmlns="http://www.w3.org/2000/svg" xmlns:xlink="http://www.w3.org/1999/xlink" x="0px" y="0px" viewBox="0 0 24 24"
	 style="enable-background:new 0 0 24 24;" xml:space="preserve">
<g id="_x34_00-4100-0037_x5F_underground-train-subway_4_">
	<rect style="fill:none;" width="24" height="24"/>
	<path d="M16,22H8v-2h8V22z M18,12v4c0,1-0.9,2-2,2H8c-1.1,0-2-0.9-2-2v-4c0-3.31,2.69-6,6-6S18,8.69,18,12z M8,12h8
		c0-2.21-1.79-4-4-4S8,9.79,8,12z M10,14H8v2h2V14z M16,14h-2v2h2V14z M22,12c0,0.83-0.1,1.64-0.3,2.42l-1.94-0.48
		C19.92,13.32,20,12.67,20,12c0-4.41-3.59-8-8-8s-8,3.59-8,8c0,0.67,0.08,1.32,0.24,1.94L2.3,14.42C2.1,13.64,2,12.83,2,12
		C2,6.48,6.48,2,12,2S22,6.48,22,12z"/>
</g>
</svg>
