<?xml version="1.0" encoding="iso-8859-1"?>
<!-- Generator: Adobe Illustrator 24.1.2, SVG Export Plug-In . SVG Version: 6.00 Build 0)  -->
<svg version="1.1" id="_x34_00-4100-0035_x5F_train-station-layer"
	 xmlns="http://www.w3.org/2000/svg" xmlns:xlink="http://www.w3.org/1999/xlink" x="0px" y="0px" viewBox="0 0 24 24"
	 style="enable-background:new 0 0 24 24;" xml:space="preserve">
<g id="_x34_00-4100-0035_x5F_train-station_2_">
	<rect style="fill:none;" width="24" height="24"/>
	<path d="M18,22H6v-2h12V22z M18.261,3.696L20,15c0,1.657-1.343,3-3,3H7c-1.65,0-3-1.35-3-3L5.739,3.696C5.889,2.72,6.729,2,7.716,2
		h8.568C17.271,2,18.111,2.72,18.261,3.696z M10,13H6v2h4V13z M18,13h-4v2h4V13z M16.53,4.826C16.447,4.347,16.032,4,15.545,4
		L8.455,4C7.968,4,7.553,4.347,7.47,4.826C7.288,5.878,7,7.605,7,8c0,1,3,3,5,3s5-2,5-3C17,7.605,16.712,5.878,16.53,4.826z"/>
</g>
</svg>
