<svg xmlns="http://www.w3.org/2000/svg" viewBox="0 0 24 24"><defs><style>.cls-1{fill:none;}</style></defs><g id="Layer_2" data-name="Layer 2"><g id="UI_16" data-name="UI 16"><g id="clear-night"><rect class="cls-1" width="24" height="24"/><path d="M15.31,4l-1,1,.5,1.5-1.5-1-1.5,1,.5-1.5-1-1h1.5l.5-1.5.5,1.5Zm6,8.47-.75-2.75L22.31,8h-2.5l-1-2.5-1,2.5h-2.5l1.75,1.75-.75,2.72L18.81,11ZM21,14.65A8.53,8.53,0,0,1,9.67,3.34,1,1,0,0,0,9,2.09a1,1,0,0,0-.6,0A10.43,10.43,0,1,0,22.22,15.9a1,1,0,0,0-.66-1.25A1,1,0,0,0,21,14.65Z"/></g></g></g></svg>