<svg xmlns="http://www.w3.org/2000/svg" viewBox="0 0 24 24"><defs><style>.cls-1{fill:none;}</style></defs><g id="Layer_2" data-name="Layer 2"><g id="UI_16" data-name="UI 16"><g id="clear-night"><rect class="cls-1" width="24" height="24"/><path d="M15.49,4l-1,1L15,6.5l-1.5-1L12,6.5l.5-1.5-1-1H13l.5-1.5L14,4Zm6,8.5-.75-2.75L22.49,8H20L19,5.5,18,8h-2.5l1.75,1.75-.75,2.75L19,11ZM7.19,5.41a10.54,10.54,0,0,0,3,8.93,10.43,10.43,0,0,0,8.92,3,8.14,8.14,0,0,1-.85.81A8.43,8.43,0,0,1,7,5.62l.23-.21M9,2a.93.93,0,0,0-.4.09A10.43,10.43,0,1,0,22.4,15.9a1,1,0,0,0-.59-1.28l-.27-.06a.89.89,0,0,0-.39.09A8.52,8.52,0,0,1,9.85,3.34a1,1,0,0,0-.59-1.28A1.31,1.31,0,0,0,9,2Z"/></g></g></g></svg>