<svg xmlns="http://www.w3.org/2000/svg" width="24" height="24" viewBox="0 0 24 24"><rect width="24" height="24" style="fill:none"/><path d="M14.5,15h-.36a3,3,0,0,0-2.83-2H9a3,3,0,0,0-3-3H4a2,2,0,0,0-2,2V22H14.5A3.5,3.5,0,0,0,18,18.5h0A3.52,3.52,0,0,0,14.5,15Zm7.75-4a6.47,6.47,0,0,1-3.65,3.46A5.54,5.54,0,0,0,15.31,13a5,5,0,0,0-4-2h-.42A4.93,4.93,0,0,0,9.36,9a6.8,6.8,0,0,1,2-5.56,6.69,6.69,0,0,1,2-1.38.61.61,0,0,1,.81.3.6.6,0,0,1,0,.58,3.64,3.64,0,0,0-.67,2.76c1,4.42,5,5.92,8,4.52a.61.61,0,0,1,.78.37A.58.58,0,0,1,22.25,11Z"/></svg>