<svg xmlns="http://www.w3.org/2000/svg" viewBox="0 0 24 24"><defs><style>.cls-1{fill:none;}</style></defs><g id="Layer_2" data-name="Layer 2"><g id="UI_16" data-name="UI 16"><g id="cloudy-night"><rect class="cls-1" width="24" height="24"/><path d="M22.23,11a6.61,6.61,0,0,1-1.89,2.46,6.52,6.52,0,0,1-1.76,1A5.54,5.54,0,0,0,15.29,13a5,5,0,0,0-4-2h-.42A5,5,0,0,0,9.34,9a6.8,6.8,0,0,1,1.95-5.56,6.45,6.45,0,0,1,2-1.38.61.61,0,0,1,.81.3.58.58,0,0,1,0,.58A3.68,3.68,0,0,0,13.4,5.7c1,4.42,5,5.92,8,4.52a.61.61,0,0,1,.78.37A.58.58,0,0,1,22.23,11ZM14.5,15h-.38a3,3,0,0,0-2.83-2h-2a3,3,0,0,0-3-3H2v2H6a1,1,0,0,1,1,1v2h4a1,1,0,0,1,1,1v1h2.5a1.5,1.5,0,0,1,0,3H2v2H14.33a3.61,3.61,0,0,0,3.61-2.85A3.5,3.5,0,0,0,14.5,15Z"/></g></g></g></svg>