<svg xmlns="http://www.w3.org/2000/svg" width="16" height="16" viewBox="0 0 16 16"><path d="M14,13a2,2,0,0,1-2,2H3a2,2,0,0,1,0-4H4V10a2,2,0,0,1,4,0H9.5a1.51,1.51,0,0,1,1.41,1H12A2,2,0,0,1,14,13ZM5.06,6.64C5,6.43,5,6.22,5,6A5,5,0,0,1,15,6a4.93,4.93,0,0,1-1.61,3.65,2.91,2.91,0,0,0-.89-.15h-.77a3,3,0,0,0-2.23-1H9.16A3.5,3.5,0,0,0,6,6.5,3.62,3.62,0,0,0,5.06,6.64Z"/><text transform="translate(6 26)" style="font-size:12px;fill:red;font-family:MyriadPro-Regular, Myriad Pro">s<tspan x="4.75" y="0" style="letter-spacing:-0.004007975260416667em">w</tspan><tspan x="13.54" y="0">ap solid and outline</tspan></text></svg>