<svg xmlns="http://www.w3.org/2000/svg" viewBox="0 0 24 24"><defs><style>.cls-1{fill:none;}</style></defs><g id="Layer_2" data-name="Layer 2"><g id="UI_Solid" data-name="UI Solid"><g id="cloudy-day"><rect class="cls-1" width="24" height="24"/><path d="M14.5,15h-.67A3,3,0,0,0,11,13H9a3,3,0,0,0-3-3H4a2,2,0,0,0-2,2V22H14.5A3.5,3.5,0,0,0,18,18.5h0A3.5,3.5,0,0,0,14.5,15ZM13,2.55V3.61a8.36,8.36,0,0,0-2,0V2.55a1,1,0,0,1,2,0ZM8.31,4.45A7.62,7.62,0,0,0,6.65,5.61l-.72-.72a1,1,0,0,1,0-1.41,1,1,0,0,1,.71-.29,1,1,0,0,1,.7.29ZM22,12a1,1,0,0,1-1,1H19.94a8.36,8.36,0,0,0,0-2H21A1,1,0,0,1,22,12ZM19.36,5.19a1,1,0,0,1-.29.7l-.75.75a7.53,7.53,0,0,0-1.41-1.41l.75-.75a1,1,0,0,1,1.41,0A1,1,0,0,1,19.36,5.19ZM18,12a5.93,5.93,0,0,1-.35,2A5.41,5.41,0,0,0,15,13a5,5,0,0,0-4-2h-.42A5,5,0,0,0,7.36,8.19,6,6,0,0,1,18,12Z"/></g></g></g></svg>