<svg width="24" height="24" viewBox="0 0 24 24" fill="none" xmlns="http://www.w3.org/2000/svg">
<path d="M14.5 15H13.83C13.6231 14.4149 13.2398 13.9083 12.733 13.5501C12.2261 13.1919 11.6207 12.9997 11 13H9C9 12.2044 8.68393 11.4413 8.12132 10.8787C7.55871 10.3161 6.79565 10 6 10H4C3.46957 10 2.96086 10.2108 2.58579 10.5858C2.21071 10.9609 2 11.4696 2 12V22H14.5C15.4283 22 16.3185 21.6313 16.9749 20.9749C17.6313 20.3185 18 19.4283 18 18.5C18 17.5718 17.6313 16.6816 16.9749 16.0252C16.3185 15.3688 15.4283 15 14.5 15ZM13 2.55005V3.61005C12.3357 3.53002 11.6643 3.53002 11 3.61005V2.55005C11 2.28483 11.1054 2.03048 11.2929 1.84294C11.4804 1.65541 11.7348 1.55005 12 1.55005C12.2652 1.55005 12.5196 1.65541 12.7071 1.84294C12.8946 2.03048 13 2.28483 13 2.55005ZM8.31 4.45005C7.70752 4.76114 7.14926 5.15125 6.65 5.61005L5.93 4.89005C5.74375 4.70269 5.63921 4.44923 5.63921 4.18505C5.63921 3.92086 5.74375 3.66741 5.93 3.48005C6.02344 3.38737 6.13426 3.31404 6.25609 3.26428C6.37793 3.21451 6.50839 3.18929 6.64 3.19005C6.90234 3.19115 7.15374 3.2953 7.34 3.48005L8.31 4.45005ZM22 12C22 12.2653 21.8946 12.5196 21.7071 12.7072C21.5196 12.8947 21.2652 13 21 13H19.94C20.02 12.3358 20.02 11.6643 19.94 11H21C21.2652 11 21.5196 11.1054 21.7071 11.2929C21.8946 11.4805 22 11.7348 22 12ZM19.36 5.19005C19.3589 5.45239 19.2547 5.70379 19.07 5.89005L18.32 6.64005C17.9146 6.10962 17.4404 5.63546 16.91 5.23005L17.66 4.48005C17.8474 4.2938 18.1008 4.18926 18.365 4.18926C18.6292 4.18926 18.8826 4.2938 19.07 4.48005C19.1627 4.57349 19.236 4.6843 19.2858 4.80614C19.3355 4.92798 19.3608 5.05844 19.36 5.19005ZM18 12C17.9992 12.6819 17.8808 13.3585 17.65 14C16.8711 13.4373 15.9565 13.0921 15 13C14.5343 12.3791 13.9303 11.8751 13.2361 11.5279C12.5418 11.1808 11.7762 11 11 11H10.58C10.2843 10.3228 9.84213 9.71957 9.28535 9.23368C8.72858 8.7478 8.07102 8.39137 7.36 8.19005C8.14468 7.23291 9.20616 6.54186 10.399 6.2116C11.5918 5.88134 12.8575 5.92803 14.0227 6.34527C15.188 6.76252 16.1956 7.5299 16.9077 8.54225C17.6197 9.5546 18.0012 10.7624 18 12Z" fill="#0F1621"/>
</svg>
