<svg xmlns="http://www.w3.org/2000/svg" viewBox="0 0 24 24"><defs><style>.cls-1{fill:none;}</style></defs><g id="Layer_2" data-name="Layer 2"><g id="UI_Solid" data-name="UI Solid"><g id="flood"><rect class="cls-1" width="24" height="24"/><path d="M20,10H18v3.18A7.91,7.91,0,0,0,12,14a7.91,7.91,0,0,0-6-.82V10H4l7.29-7.71a1,1,0,0,1,1.41,0h0L16,5.77V4h2V7.88Zm0,9.89a6,6,0,0,0-8,0,6,6,0,0,0-8,0A5.81,5.81,0,0,0,2,18.7v2.19a4.58,4.58,0,0,1,.75.56,1.7,1.7,0,0,0,2.4.1l.1-.1a4,4,0,0,1,5.5,0,1.7,1.7,0,0,0,2.4.1l.1-.1a4,4,0,0,1,5.5,0,1.7,1.7,0,0,0,2.4.1.94.94,0,0,0,.1-.1,4.58,4.58,0,0,1,.75-.56V18.7A5.81,5.81,0,0,0,20,19.89Zm0-4a6,6,0,0,0-8,0,6,6,0,0,0-8,0A5.81,5.81,0,0,0,2,14.7v2.19a4.58,4.58,0,0,1,.75.56,1.7,1.7,0,0,0,2.4.1l.1-.1a4,4,0,0,1,5.5,0,1.7,1.7,0,0,0,2.4.1l.1-.1a4,4,0,0,1,5.5,0,1.7,1.7,0,0,0,2.4.1.94.94,0,0,0,.1-.1,4.58,4.58,0,0,1,.75-.56V14.7A5.81,5.81,0,0,0,20,15.89Z"/></g></g></g></svg>