<svg xmlns="http://www.w3.org/2000/svg" viewBox="0 0 24 24"><defs><style>.cls-1{fill:none;}</style></defs><g id="Layer_2" data-name="Layer 2"><g id="UI_Outline" data-name="UI Outline"><g id="flood"><rect class="cls-1" width="24" height="24"/><path d="M12,4.45l2.55,2.69L16,8.68v2.24a10,10,0,0,0-4,.84,10,10,0,0,0-4-.84V8.68l4-4.23M12,2a1,1,0,0,0-.71.29L4,10H6v3.18A7.91,7.91,0,0,1,12,14a7.91,7.91,0,0,1,6-.82V10h2L18,7.88V4H16V5.77L12.71,2.29A1,1,0,0,0,12,2Zm8,17.89a6,6,0,0,0-8,0,6,6,0,0,0-8,0A5.81,5.81,0,0,0,2,18.7v2.19a4.58,4.58,0,0,1,.75.56,1.7,1.7,0,0,0,2.4.1l.1-.1a4,4,0,0,1,5.5,0,1.7,1.7,0,0,0,2.4.1l.1-.1a4,4,0,0,1,5.5,0,1.7,1.7,0,0,0,2.4.1.94.94,0,0,0,.1-.1,4.58,4.58,0,0,1,.75-.56V18.7A5.81,5.81,0,0,0,20,19.89Zm0-4a6,6,0,0,0-8,0,6,6,0,0,0-8,0A5.81,5.81,0,0,0,2,14.7v2.19a4.58,4.58,0,0,1,.75.56,1.7,1.7,0,0,0,2.4.1l.1-.1a4,4,0,0,1,5.5,0,1.7,1.7,0,0,0,2.4.1l.1-.1a4,4,0,0,1,5.5,0,1.7,1.7,0,0,0,2.4.1.94.94,0,0,0,.1-.1,4.58,4.58,0,0,1,.75-.56V14.7A5.81,5.81,0,0,0,20,15.89Z"/></g></g></g></svg>