<svg xmlns="http://www.w3.org/2000/svg" width="24" height="24" viewBox="0 0 24 24"><rect width="24" height="24" style="fill:none"/><path d="M17,21H5a1,1,0,0,1-1-1H4a1,1,0,0,1,1-1H17a1,1,0,0,1,1,1h0A1,1,0,0,1,17,21ZM9,16H9a1,1,0,0,0-1-1H3a1,1,0,0,0-1,1H2a1,1,0,0,0,1,1H8A1,1,0,0,0,9,16ZM7,12H7a1,1,0,0,0-1-1H4a1,1,0,0,0-1,1H3a1,1,0,0,0,1,1H6A1,1,0,0,0,7,12Zm15,4h0a1,1,0,0,0-1-1H12a1,1,0,0,0-1,1h0a1,1,0,0,0,1,1h9A1,1,0,0,0,22,16Zm-6-4h0a1,1,0,0,0-1-1H10a1,1,0,0,0-1,1H9a1,1,0,0,0,1,1h5A1,1,0,0,0,16,12Zm4-4h0a1,1,0,0,0-1-1H13a1,1,0,0,0-1,1h0a1,1,0,0,0,1,1h6A1,1,0,0,0,20,8Zm2,4h0a1,1,0,0,0-1-1H19a1,1,0,0,0-1,1h0a1,1,0,0,0,1,1h2A1,1,0,0,0,22,12ZM21,4h0a1,1,0,0,0-1-1H18a1,1,0,0,0-1,1h0a1,1,0,0,0,1,1h2A1,1,0,0,0,21,4ZM10,8h0A1,1,0,0,0,9,7H3A1,1,0,0,0,2,8H2A1,1,0,0,0,3,9H9A1,1,0,0,0,10,8Zm5-4h0a1,1,0,0,0-1-1H5A1,1,0,0,0,4,4H4A1,1,0,0,0,5,5h9A1,1,0,0,0,15,4Z"/></svg>