<svg xmlns="http://www.w3.org/2000/svg" width="24" height="24" viewBox="0 0 24 24"><rect width="24" height="24" style="fill:none"/><path d="M17.34,21h-12a1,1,0,0,1-1-1h0a1,1,0,0,1,1-1h12a1,1,0,0,1,1,1h0A1,1,0,0,1,17.34,21Zm-8-5h0a1,1,0,0,0-1-1h-5a1,1,0,0,0-1,1h0a1,1,0,0,0,1,1h5A1,1,0,0,0,9.34,16Zm-2-4h0a1,1,0,0,0-1-1h-2a1,1,0,0,0-1,1h0a1,1,0,0,0,1,1h2A1,1,0,0,0,7.34,12Zm15,4h0a1,1,0,0,0-1-1h-9a1,1,0,0,0-1,1h0a1,1,0,0,0,1,1h9A1,1,0,0,0,22.34,16Zm-6-4h0a1,1,0,0,0-1-1h-5a1,1,0,0,0-1,1h0a1,1,0,0,0,1,1h5A1,1,0,0,0,16.34,12Zm4-4h0a1,1,0,0,0-1-1h-6a1,1,0,0,0-1,1h0a1,1,0,0,0,1,1h6A1,1,0,0,0,20.34,8Zm2,4h0a1,1,0,0,0-1-1h-2a1,1,0,0,0-1,1h0a1,1,0,0,0,1,1h2A1,1,0,0,0,22.34,12Zm-1-8h0a1,1,0,0,0-1-1h-2a1,1,0,0,0-1,1h0a1,1,0,0,0,1,1h2A1,1,0,0,0,21.34,4Zm-11,4h0a1,1,0,0,0-1-1h-6a1,1,0,0,0-1,1h0a1,1,0,0,0,1,1h6A1,1,0,0,0,10.34,8Zm5-4h0a1,1,0,0,0-1-1h-9a1,1,0,0,0-1,1h0a1,1,0,0,0,1,1h9A1,1,0,0,0,15.34,4Z"/></svg>