<svg width="240" height="456" viewBox="0 0 240 456" fill="none" xmlns="http://www.w3.org/2000/svg">
<path d="M13 3V6.09C12.3387 5.96999 11.6613 5.96999 11 6.09V3C11 2.73478 11.1053 2.48043 11.2929 2.29289C11.4804 2.10536 11.7348 2 12 2C12.2652 2 12.5196 2.10536 12.7071 2.29289C12.8946 2.48043 13 2.73478 13 3ZM11 17.91V21C11 21.2652 11.1053 21.5196 11.2929 21.7071C11.4804 21.8946 11.7348 22 12 22C12.2652 22 12.5196 21.8946 12.7071 21.7071C12.8946 21.5196 13 21.2652 13 21V17.91C12.3387 18.03 11.6613 18.03 11 17.91ZM2.92999 11C2.66478 11 2.41042 11.1054 2.22289 11.2929C2.03535 11.4804 1.92999 11.7348 1.92999 12C1.92999 12.2652 2.03535 12.5196 2.22289 12.7071C2.41042 12.8946 2.66478 13 2.92999 13H5.99999C5.87998 12.3387 5.87998 11.6613 5.99999 11H2.92999ZM20.93 11H17.84C17.96 11.6613 17.96 12.3387 17.84 13H20.93C21.1952 13 21.4496 12.8946 21.6371 12.7071C21.8246 12.5196 21.93 12.2652 21.93 12C21.93 11.7348 21.8246 11.4804 21.6371 11.2929C21.4496 11.1054 21.1952 11 20.93 11ZM4.85999 4.93C4.67374 5.11736 4.5692 5.37081 4.5692 5.635C4.5692 5.89919 4.67374 6.15264 4.85999 6.34L7.04999 8.53C7.43118 7.97887 7.90886 7.50119 8.45999 7.12L6.26999 4.93C6.08263 4.74375 5.82918 4.63921 5.56499 4.63921C5.30081 4.63921 5.04736 4.74375 4.85999 4.93ZM19 17.66L16.82 15.48C16.428 16.022 15.952 16.498 15.41 16.89L17.59 19.07C17.7763 19.2547 18.0277 19.3589 18.29 19.36C18.4866 19.3592 18.6785 19.3005 18.8419 19.1911C19.0053 19.0818 19.1329 18.9268 19.2086 18.7454C19.2844 18.564 19.305 18.3643 19.2679 18.1713C19.2308 17.9782 19.1376 17.8004 19 17.66ZM7.04999 15.48L4.85999 17.66C4.67525 17.8463 4.5711 18.0977 4.56999 18.36C4.57081 18.5566 4.62954 18.7486 4.73885 18.9119C4.84816 19.0753 5.0032 19.2029 5.1846 19.2786C5.36599 19.3544 5.56569 19.375 5.75874 19.3379C5.95178 19.3008 6.12961 19.2076 6.26999 19.07L8.45999 16.89C7.90886 16.5088 7.43118 16.0311 7.04999 15.48ZM19.05 5C18.8626 4.81375 18.6092 4.70921 18.345 4.70921C18.0808 4.70921 17.8274 4.81375 17.64 5L15.41 7.19C15.9611 7.57119 16.4388 8.04887 16.82 8.6L19 6.41C19.1862 6.22264 19.2908 5.96919 19.2908 5.705C19.2908 5.44081 19.1862 5.18736 19 5H19.05ZM11.93 10C11.5344 10 11.1477 10.1173 10.8189 10.3371C10.49 10.5568 10.2336 10.8692 10.0822 11.2346C9.93086 11.6001 9.89125 12.0022 9.96842 12.3902C10.0456 12.7781 10.2361 13.1345 10.5158 13.4142C10.7955 13.6939 11.1518 13.8844 11.5398 13.9616C11.9278 14.0387 12.3299 13.9991 12.6954 13.8478C13.0608 13.6964 13.3732 13.44 13.5929 13.1111C13.8127 12.7822 13.93 12.3956 13.93 12C13.93 11.4696 13.7193 10.9609 13.3442 10.5858C12.9691 10.2107 12.4604 10 11.93 10ZM11.93 8C12.7211 8 13.4945 8.2346 14.1523 8.67412C14.8101 9.11365 15.3228 9.73836 15.6255 10.4693C15.9283 11.2002 16.0075 12.0044 15.8531 12.7804C15.6988 13.5563 15.3178 14.269 14.7584 14.8284C14.199 15.3878 13.4863 15.7688 12.7104 15.9231C11.9344 16.0775 11.1302 15.9983 10.3993 15.6955C9.66835 15.3928 9.04364 14.8801 8.60411 14.2223C8.16459 13.5645 7.92999 12.7911 7.92999 12C7.92999 10.9391 8.35142 9.92172 9.10157 9.17157C9.85171 8.42143 10.8691 8 11.93 8Z" fill="#0F1621"/>
<path d="M13 50.7V51.76C12.3357 51.6799 11.6643 51.6799 11 51.76V50.7C11 50.4347 11.1054 50.1804 11.2929 49.9928C11.4804 49.8053 11.7348 49.7 12 49.7C12.2652 49.7 12.5196 49.8053 12.7071 49.9928C12.8946 50.1804 13 50.4347 13 50.7ZM7.34 51.63C7.15374 51.4452 6.90234 51.3411 6.64 51.34C6.50839 51.3392 6.37793 51.3644 6.25609 51.4142C6.13426 51.4639 6.02344 51.5373 5.93 51.63C5.75563 51.8154 5.65854 52.0604 5.65854 52.315C5.65854 52.5695 5.75563 52.8145 5.93 53L6.65 53.72C7.15166 53.2752 7.70981 52.8986 8.31 52.6L7.34 51.63ZM21 59H19.94C20.02 59.6642 20.02 60.3357 19.94 61H21C21.2652 61 21.5196 60.8946 21.7071 60.7071C21.8946 60.5195 22 60.2652 22 60C22 59.7347 21.8946 59.4804 21.7071 59.2928C21.5196 59.1053 21.2652 59 21 59ZM19.07 52.63C18.8826 52.4437 18.6292 52.3392 18.365 52.3392C18.1008 52.3392 17.8474 52.4437 17.66 52.63L16.91 53.38C17.4404 53.7854 17.9146 54.2595 18.32 54.79L19.07 54C19.2547 53.8137 19.3589 53.5623 19.36 53.3C19.3512 53.0481 19.2477 52.8088 19.07 52.63ZM18 66.5C17.9948 67.4266 17.6243 68.3138 16.9691 68.969C16.3138 69.6243 15.4266 69.9947 14.5 70H2V68H14.5C14.8978 68 15.2794 67.8419 15.5607 67.5606C15.842 67.2793 16 66.8978 16 66.5C16 66.1021 15.842 65.7206 15.5607 65.4393C15.2794 65.158 14.8978 65 14.5 65H12V64C12 63.7347 11.8946 63.4804 11.7071 63.2928C11.5196 63.1053 11.2652 63 11 63H7V61C7 60.7347 6.89464 60.4804 6.70711 60.2928C6.51957 60.1053 6.26522 60 6 60H2V58H6C6.79565 58 7.55871 58.316 8.12132 58.8786C8.68393 59.4412 9 60.2043 9 61H11C11.6207 60.9996 12.2261 61.1918 12.733 61.55C13.2398 61.9082 13.6231 62.4148 13.83 63H14.5C15.4266 63.0052 16.3138 63.3756 16.9691 64.0309C17.6243 64.6861 17.9948 65.5733 18 66.5ZM12 54C11.1128 53.9992 10.2364 54.1953 9.4341 54.574C8.63176 54.9526 7.92338 55.5046 7.36 56.19C8.07102 56.3913 8.72858 56.7477 9.28535 57.2336C9.84213 57.7195 10.2843 58.3227 10.58 59H11C11.7762 59 12.5418 59.1807 13.2361 59.5278C13.9303 59.875 14.5343 60.379 15 61C15.9492 61.0969 16.8562 61.4417 17.63 62C17.872 61.3608 17.9974 60.6834 18 60C18 58.4087 17.3679 56.8825 16.2426 55.7573C15.1174 54.6321 13.5913 54 12 54Z" fill="#0F1621"/>
<path d="M18 106H17.3C17.0931 105.415 16.7098 104.908 16.203 104.55C15.6961 104.192 15.0907 104 14.47 104H12.87C12.6484 103.142 12.1481 102.382 11.4477 101.839C10.7472 101.296 9.88627 101.001 9 101H8C6.93913 101 5.92172 101.421 5.17157 102.172C4.42143 102.922 4 103.939 4 105V106.17C3.41484 106.377 2.90826 106.76 2.55006 107.267C2.19186 107.774 1.99968 108.379 2 109V110C2 111.061 2.42143 112.078 3.17157 112.828C3.92172 113.579 4.93913 114 6 114H17.85C18.7884 114.016 19.7039 113.71 20.4443 113.133C21.1847 112.556 21.7055 111.744 21.92 110.83C22.0437 110.247 22.0355 109.643 21.8958 109.063C21.7562 108.484 21.4887 107.942 21.1129 107.479C20.7371 107.016 20.2625 106.643 19.7239 106.387C19.1853 106.131 18.5963 105.999 18 106ZM18 112H6C5.46957 112 4.96086 111.789 4.58579 111.414C4.21071 111.039 4 110.53 4 110V109C4 108.735 4.10536 108.48 4.29289 108.293C4.48043 108.105 4.73478 108 5 108H10C10 107.47 9.78929 106.961 9.41421 106.586C9.03914 106.211 8.53043 106 8 106H6V105C6 104.47 6.21071 103.961 6.58579 103.586C6.96086 103.211 7.46957 103 8 103H9C9.53043 103 10.0391 103.211 10.4142 103.586C10.7893 103.961 11 104.47 11 105V106H14C14.2652 106 14.5196 106.105 14.7071 106.293C14.8946 106.48 15 106.735 15 107V108H17.92C18.3549 107.977 18.7855 108.096 19.1465 108.339C19.5075 108.583 19.7791 108.938 19.92 109.35C20.0243 109.653 20.0541 109.978 20.0068 110.295C19.9595 110.612 19.8365 110.914 19.6482 111.174C19.4599 111.434 19.2119 111.644 18.925 111.788C18.6381 111.932 18.3209 112.005 18 112Z" fill="#0F1621"/>
<path d="M19 151H16.76C16.5531 150.415 16.1698 149.908 15.663 149.55C15.1561 149.192 14.5507 149 13.93 149H12.87C12.6484 148.142 12.1481 147.382 11.4477 146.839C10.7472 146.296 9.88627 146.001 9 146H8C6.93913 146 5.92172 146.421 5.17157 147.172C4.42143 147.922 4 148.939 4 150V151.17C3.41484 151.377 2.90826 151.76 2.55006 152.267C2.19186 152.774 1.99968 153.379 2 154V155C2 155.796 2.31607 156.559 2.87868 157.121C3.44129 157.684 4.20435 158 5 158H19C19.7956 158 20.5587 157.684 21.1213 157.121C21.6839 156.559 22 155.796 22 155V154C22 153.204 21.6839 152.441 21.1213 151.879C20.5587 151.316 19.7956 151 19 151ZM20 155C20 155.265 19.8946 155.52 19.7071 155.707C19.5196 155.895 19.2652 156 19 156H5C4.73478 156 4.48043 155.895 4.29289 155.707C4.10536 155.52 4 155.265 4 155V154C4 153.735 4.10536 153.48 4.29289 153.293C4.48043 153.105 4.73478 153 5 153H10C10 152.47 9.78929 151.961 9.41421 151.586C9.03914 151.211 8.53043 151 8 151H6V150C6 149.47 6.21071 148.961 6.58579 148.586C6.96086 148.211 7.46957 148 8 148H9C9.53043 148 10.0391 148.211 10.4142 148.586C10.7893 148.961 11 149.47 11 150V151H14C14.2652 151 14.5196 151.105 14.7071 151.293C14.8946 151.48 15 151.735 15 152V153H19C19.2652 153 19.5196 153.105 19.7071 153.293C19.8946 153.48 20 153.735 20 154V155ZM15.93 160H19.93L17.93 166L15.93 160ZM9.93 160H13.93L11.93 165L9.93 160ZM3.93 160H7.93L5.93 163L3.93 160Z" fill="#0F1621"/>
<path d="M19 199H16.83C16.6231 198.415 16.2398 197.908 15.733 197.55C15.2261 197.192 14.6207 197 14 197H12.87C12.6484 196.142 12.1481 195.382 11.4477 194.839C10.7472 194.296 9.88627 194.001 9 194H8C6.93913 194 5.92172 194.421 5.17157 195.172C4.42143 195.922 4 196.939 4 198V199.17C3.41484 199.377 2.90826 199.76 2.55006 200.267C2.19186 200.774 1.99968 201.379 2 202V203C2 203.796 2.31607 204.559 2.87868 205.121C3.44129 205.684 4.20435 206 5 206H19C19.7956 206 20.5587 205.684 21.1213 205.121C21.6839 204.559 22 203.796 22 203V202C22 201.204 21.6839 200.441 21.1213 199.879C20.5587 199.316 19.7956 199 19 199ZM20 203C20 203.265 19.8946 203.52 19.7071 203.707C19.5196 203.895 19.2652 204 19 204H5C4.73478 204 4.48043 203.895 4.29289 203.707C4.10536 203.52 4 203.265 4 203V202C4 201.735 4.10536 201.48 4.29289 201.293C4.48043 201.105 4.73478 201 5 201H10C10 200.47 9.78929 199.961 9.41421 199.586C9.03914 199.211 8.53043 199 8 199H6V198C6 197.47 6.21071 196.961 6.58579 196.586C6.96086 196.211 7.46957 196 8 196H9C9.53043 196 10.0391 196.211 10.4142 196.586C10.7893 196.961 11 197.47 11 198V199H14C14.2652 199 14.5196 199.105 14.7071 199.293C14.8946 199.48 15 199.735 15 200V201H19C19.2652 201 19.5196 201.105 19.7071 201.293C19.8946 201.48 20 201.735 20 202V203ZM8 213C7.73478 213 7.48043 212.895 7.29289 212.707C7.10536 212.52 7 212.265 7 212V209C7 208.735 7.10536 208.48 7.29289 208.293C7.48043 208.105 7.73478 208 8 208C8.26522 208 8.51957 208.105 8.70711 208.293C8.89464 208.48 9 208.735 9 209V212C9 212.265 8.89464 212.52 8.70711 212.707C8.51957 212.895 8.26522 213 8 213ZM4 214C3.73478 214 3.48043 213.895 3.29289 213.707C3.10536 213.52 3 213.265 3 213V209C3 208.735 3.10536 208.48 3.29289 208.293C3.48043 208.105 3.73478 208 4 208C4.26522 208 4.51957 208.105 4.70711 208.293C4.89464 208.48 5 208.735 5 209V213C5 213.265 4.89464 213.52 4.70711 213.707C4.51957 213.895 4.26522 214 4 214ZM12 211C11.7348 211 11.4804 210.895 11.2929 210.707C11.1054 210.52 11 210.265 11 210V209C11 208.735 11.1054 208.48 11.2929 208.293C11.4804 208.105 11.7348 208 12 208C12.2652 208 12.5196 208.105 12.7071 208.293C12.8946 208.48 13 208.735 13 209V210C13 210.265 12.8946 210.52 12.7071 210.707C12.5196 210.895 12.2652 211 12 211ZM19 213C19 213.198 18.9414 213.391 18.8315 213.556C18.7216 213.72 18.5654 213.848 18.3827 213.924C18.2 214 17.9989 214.019 17.8049 213.981C17.6109 213.942 17.4327 213.847 17.2929 213.707C17.153 213.567 17.0578 213.389 17.0192 213.195C16.9806 213.001 17.0004 212.8 17.0761 212.617C17.1518 212.435 17.28 212.278 17.4444 212.169C17.6089 212.059 17.8022 212 18 212C18.2652 212 18.5196 212.105 18.7071 212.293C18.8946 212.48 19 212.735 19 213ZM15 213C15 213.198 14.9414 213.391 14.8315 213.556C14.7216 213.72 14.5654 213.848 14.3827 213.924C14.2 214 13.9989 214.019 13.8049 213.981C13.6109 213.942 13.4327 213.847 13.2929 213.707C13.153 213.567 13.0578 213.389 13.0192 213.195C12.9806 213.001 13.0004 212.8 13.0761 212.617C13.1518 212.435 13.28 212.278 13.4444 212.169C13.6089 212.059 13.8022 212 14 212C14.2652 212 14.5196 212.105 14.7071 212.293C14.8946 212.48 15 212.735 15 213ZM17 209C17 209.198 16.9414 209.391 16.8315 209.556C16.7216 209.72 16.5654 209.848 16.3827 209.924C16.2 210 15.9989 210.019 15.8049 209.981C15.6109 209.942 15.4327 209.847 15.2929 209.707C15.153 209.567 15.0578 209.389 15.0192 209.195C14.9806 209.001 15.0004 208.8 15.0761 208.617C15.1518 208.435 15.28 208.278 15.4444 208.169C15.6089 208.059 15.8022 208 16 208C16.2652 208 16.5196 208.105 16.7071 208.293C16.8946 208.48 17 208.735 17 209ZM21 209C21 209.198 20.9414 209.391 20.8315 209.556C20.7216 209.72 20.5654 209.848 20.3827 209.924C20.2 210 19.9989 210.019 19.8049 209.981C19.6109 209.942 19.4327 209.847 19.2929 209.707C19.153 209.567 19.0578 209.389 19.0192 209.195C18.9806 209.001 19.0004 208.8 19.0761 208.617C19.1518 208.435 19.28 208.278 19.4444 208.169C19.6089 208.059 19.8022 208 20 208C20.2652 208 20.5196 208.105 20.7071 208.293C20.8946 208.48 21 208.735 21 209Z" fill="#0F1621"/>
<path d="M19 247H16.83C16.6231 246.415 16.2398 245.908 15.733 245.55C15.2261 245.192 14.6207 245 14 245H12.87C12.6484 244.142 12.1481 243.382 11.4477 242.839C10.7472 242.296 9.88627 242.001 9 242H8C6.93913 242 5.92172 242.421 5.17157 243.172C4.42143 243.922 4 244.939 4 246V247.17C3.41484 247.377 2.90826 247.76 2.55006 248.267C2.19186 248.774 1.99968 249.379 2 250V251C2 251.796 2.31607 252.559 2.87868 253.121C3.44129 253.684 4.20435 254 5 254H19C19.7956 254 20.5587 253.684 21.1213 253.121C21.6839 252.559 22 251.796 22 251V250C22 249.204 21.6839 248.441 21.1213 247.879C20.5587 247.316 19.7956 247 19 247ZM20 251C20 251.265 19.8946 251.52 19.7071 251.707C19.5196 251.895 19.2652 252 19 252H5C4.73478 252 4.48043 251.895 4.29289 251.707C4.10536 251.52 4 251.265 4 251V250C4 249.735 4.10536 249.48 4.29289 249.293C4.48043 249.105 4.73478 249 5 249H10C10 248.47 9.78929 247.961 9.41421 247.586C9.03914 247.211 8.53043 247 8 247H6V246C6 245.47 6.21071 244.961 6.58579 244.586C6.96086 244.211 7.46957 244 8 244H9C9.53043 244 10.0391 244.211 10.4142 244.586C10.7893 244.961 11 245.47 11 246V247H14C14.2652 247 14.5196 247.105 14.7071 247.293C14.8946 247.48 15 247.735 15 248V249H19C19.2652 249 19.5196 249.105 19.7071 249.293C19.8946 249.48 20 249.735 20 250V251ZM8 261C7.73478 261 7.48043 260.895 7.29289 260.707C7.10536 260.52 7 260.265 7 260V257C7 256.735 7.10536 256.48 7.29289 256.293C7.48043 256.105 7.73478 256 8 256C8.26522 256 8.51957 256.105 8.70711 256.293C8.89464 256.48 9 256.735 9 257V260C9 260.265 8.89464 260.52 8.70711 260.707C8.51957 260.895 8.26522 261 8 261ZM4 262C3.73478 262 3.48043 261.895 3.29289 261.707C3.10536 261.52 3 261.265 3 261V257C3 256.735 3.10536 256.48 3.29289 256.293C3.48043 256.105 3.73478 256 4 256C4.26522 256 4.51957 256.105 4.70711 256.293C4.89464 256.48 5 256.735 5 257V261C5 261.265 4.89464 261.52 4.70711 261.707C4.51957 261.895 4.26522 262 4 262ZM12 262C11.7348 262 11.4804 261.895 11.2929 261.707C11.1054 261.52 11 261.265 11 261V257C11 256.735 11.1054 256.48 11.2929 256.293C11.4804 256.105 11.7348 256 12 256C12.2652 256 12.5196 256.105 12.7071 256.293C12.8946 256.48 13 256.735 13 257V261C13 261.265 12.8946 261.52 12.7071 261.707C12.5196 261.895 12.2652 262 12 262ZM16 261C15.7348 261 15.4804 260.895 15.2929 260.707C15.1054 260.52 15 260.265 15 260V257C15 256.735 15.1054 256.48 15.2929 256.293C15.4804 256.105 15.7348 256 16 256C16.2652 256 16.5196 256.105 16.7071 256.293C16.8946 256.48 17 256.735 17 257V260C17 260.265 16.8946 260.52 16.7071 260.707C16.5196 260.895 16.2652 261 16 261ZM20 262C19.7348 262 19.4804 261.895 19.2929 261.707C19.1054 261.52 19 261.265 19 261V257C19 256.735 19.1054 256.48 19.2929 256.293C19.4804 256.105 19.7348 256 20 256C20.2652 256 20.5196 256.105 20.7071 256.293C20.8946 256.48 21 256.735 21 257V261C21 261.265 20.8946 261.52 20.7071 261.707C20.5196 261.895 20.2652 262 20 262Z" fill="#0F1621"/>
<path d="M22.23 299C21.8041 299.958 21.1562 300.802 20.34 301.46C19.809 301.883 19.2151 302.22 18.58 302.46C17.6764 301.621 16.5186 301.107 15.29 301C14.8243 300.379 14.2203 299.875 13.5261 299.528C12.8318 299.181 12.0662 299 11.29 299H10.87C10.539 298.214 10.0123 297.525 9.34 297C9.22726 295.986 9.34398 294.96 9.68153 293.998C10.0191 293.035 10.5688 292.161 11.29 291.44C11.8632 290.857 12.5419 290.389 13.29 290.06C13.3629 290.026 13.4416 290.008 13.5218 290.004C13.602 290.001 13.682 290.014 13.7572 290.042C13.8325 290.07 13.9015 290.112 13.9603 290.167C14.0191 290.221 14.0666 290.287 14.1 290.36C14.1509 290.448 14.1777 290.548 14.1777 290.65C14.1777 290.752 14.1509 290.852 14.1 290.94C13.8058 291.33 13.5924 291.776 13.4722 292.25C13.3521 292.723 13.3275 293.217 13.4 293.7C14.4 298.12 18.4 299.62 21.4 298.22C21.4755 298.193 21.5556 298.181 21.6357 298.185C21.7158 298.189 21.7943 298.209 21.8667 298.243C21.9392 298.278 22.0041 298.326 22.0579 298.385C22.1116 298.445 22.1531 298.514 22.18 298.59C22.2464 298.716 22.2642 298.862 22.23 299ZM14.5 303H14.12C13.9131 302.415 13.5298 301.908 13.023 301.55C12.5161 301.192 11.9107 301 11.29 301H9.29C9.29 300.204 8.97393 299.441 8.41132 298.879C7.84871 298.316 7.08565 298 6.29 298H2V300H6C6.26522 300 6.51957 300.105 6.70711 300.293C6.89464 300.48 7 300.735 7 301V303H11C11.2652 303 11.5196 303.105 11.7071 303.293C11.8946 303.48 12 303.735 12 304V305H14.5C14.8978 305 15.2794 305.158 15.5607 305.439C15.842 305.721 16 306.102 16 306.5C16 306.898 15.842 307.279 15.5607 307.561C15.2794 307.842 14.8978 308 14.5 308H2V310H14.33C15.1692 310.019 15.9888 309.744 16.6476 309.224C17.3065 308.704 17.7635 307.971 17.94 307.15C18.0356 306.644 18.0184 306.123 17.8898 305.625C17.7611 305.127 17.524 304.663 17.1955 304.266C16.867 303.87 16.4551 303.551 15.9892 303.332C15.5232 303.113 15.0148 303 14.5 303Z" fill="#0F1621"/>
<path d="M19 343H16.83C16.6231 342.415 16.2398 341.908 15.733 341.55C15.2261 341.192 14.6207 341 14 341H12.87C12.6484 340.142 12.1481 339.382 11.4477 338.839C10.7472 338.296 9.88627 338.001 9 338H8C6.93913 338 5.92172 338.421 5.17157 339.172C4.42143 339.922 4 340.939 4 342V343.17C3.41484 343.377 2.90826 343.76 2.55006 344.267C2.19186 344.774 1.99968 345.379 2 346V347C2 347.796 2.31607 348.559 2.87868 349.121C3.44129 349.684 4.20435 350 5 350H19C19.7956 350 20.5587 349.684 21.1213 349.121C21.6839 348.559 22 347.796 22 347V346C22 345.204 21.6839 344.441 21.1213 343.879C20.5587 343.316 19.7956 343 19 343ZM20 347C20 347.265 19.8946 347.52 19.7071 347.707C19.5196 347.895 19.2652 348 19 348H5C4.73478 348 4.48043 347.895 4.29289 347.707C4.10536 347.52 4 347.265 4 347V346C4 345.735 4.10536 345.48 4.29289 345.293C4.48043 345.105 4.73478 345 5 345H10C10 344.47 9.78929 343.961 9.41421 343.586C9.03914 343.211 8.53043 343 8 343H6V342C6 341.47 6.21071 340.961 6.58579 340.586C6.96086 340.211 7.46957 340 8 340H9C9.53043 340 10.0391 340.211 10.4142 340.586C10.7893 340.961 11 341.47 11 342V343H14C14.2652 343 14.5196 343.105 14.7071 343.293C14.8946 343.48 15 343.735 15 344V345H19C19.2652 345 19.5196 345.105 19.7071 345.293C19.8946 345.48 20 345.735 20 346V347ZM20 358H15C14.7348 358 14.4804 357.895 14.2929 357.707C14.1054 357.52 14 357.265 14 357C14 356.735 14.1054 356.48 14.2929 356.293C14.4804 356.105 14.7348 356 15 356H20C20.2652 356 20.5196 356.105 20.7071 356.293C20.8946 356.48 21 356.735 21 357C21 357.265 20.8946 357.52 20.7071 357.707C20.5196 357.895 20.2652 358 20 358ZM15 354H13C12.7348 354 12.4804 353.895 12.2929 353.707C12.1054 353.52 12 353.265 12 353C12 352.735 12.1054 352.48 12.2929 352.293C12.4804 352.105 12.7348 352 13 352H15C15.2652 352 15.5196 352.105 15.7071 352.293C15.8946 352.48 16 352.735 16 353C16 353.265 15.8946 353.52 15.7071 353.707C15.5196 353.895 15.2652 354 15 354ZM21 354H19C18.7348 354 18.4804 353.895 18.2929 353.707C18.1054 353.52 18 353.265 18 353C18 352.735 18.1054 352.48 18.2929 352.293C18.4804 352.105 18.7348 352 19 352H21C21.2652 352 21.5196 352.105 21.7071 352.293C21.8946 352.48 22 352.735 22 353C22 353.265 21.8946 353.52 21.7071 353.707C21.5196 353.895 21.2652 354 21 354ZM11 358H3C2.73478 358 2.48043 357.895 2.29289 357.707C2.10536 357.52 2 357.265 2 357C2 356.735 2.10536 356.48 2.29289 356.293C2.48043 356.105 2.73478 356 3 356H11C11.2652 356 11.5196 356.105 11.7071 356.293C11.8946 356.48 12 356.735 12 357C12 357.265 11.8946 357.52 11.7071 357.707C11.5196 357.895 11.2652 358 11 358ZM9 354H4C3.73478 354 3.48043 353.895 3.29289 353.707C3.10536 353.52 3 353.265 3 353C3 352.735 3.10536 352.48 3.29289 352.293C3.48043 352.105 3.73478 352 4 352H9C9.26522 352 9.51957 352.105 9.70711 352.293C9.89464 352.48 10 352.735 10 353C10 353.265 9.89464 353.52 9.70711 353.707C9.51957 353.895 9.26522 354 9 354Z" fill="#0F1621"/>
<path d="M19 391H16.37C16.1631 390.415 15.7798 389.908 15.273 389.55C14.7661 389.192 14.1607 389 13.54 389H12.87C12.6484 388.142 12.1481 387.382 11.4477 386.839C10.7472 386.296 9.88627 386.001 9 386H8C6.93913 386 5.92172 386.421 5.17157 387.172C4.42143 387.922 4 388.939 4 390V391.17C3.41484 391.377 2.90826 391.76 2.55006 392.267C2.19186 392.774 1.99968 393.379 2 394V395C2 395.796 2.31607 396.559 2.87868 397.121C3.44129 397.684 4.20435 398 5 398H19C19.7956 398 20.5587 397.684 21.1213 397.121C21.6839 396.559 22 395.796 22 395V394C22 393.204 21.6839 392.441 21.1213 391.879C20.5587 391.316 19.7956 391 19 391ZM20 395C20 395.265 19.8946 395.52 19.7071 395.707C19.5196 395.895 19.2652 396 19 396H5C4.73478 396 4.48043 395.895 4.29289 395.707C4.10536 395.52 4 395.265 4 395V394C4 393.735 4.10536 393.48 4.29289 393.293C4.48043 393.105 4.73478 393 5 393H10C10 392.47 9.78929 391.961 9.41421 391.586C9.03914 391.211 8.53043 391 8 391H6V390C6 389.47 6.21071 388.961 6.58579 388.586C6.96086 388.211 7.46957 388 8 388H9C9.53043 388 10.0391 388.211 10.4142 388.586C10.7893 388.961 11 389.47 11 390V391H14C14.2652 391 14.5196 391.105 14.7071 391.293C14.8946 391.48 15 391.735 15 392V393H19C19.2652 393 19.5196 393.105 19.7071 393.293C19.8946 393.48 20 393.735 20 394V395ZM6.54 405C6.54 405.198 6.48135 405.391 6.37147 405.556C6.26159 405.72 6.10541 405.848 5.92268 405.924C5.73996 406 5.53889 406.019 5.34491 405.981C5.15093 405.942 4.97275 405.847 4.83289 405.707C4.69304 405.567 4.5978 405.389 4.55922 405.195C4.52063 405.001 4.54043 404.8 4.61612 404.617C4.69181 404.435 4.81998 404.278 4.98443 404.169C5.14888 404.059 5.34222 404 5.54 404C5.80522 404 6.05957 404.105 6.24711 404.293C6.43464 404.48 6.54 404.735 6.54 405ZM10.54 405C10.54 405.198 10.4814 405.391 10.3715 405.556C10.2616 405.72 10.1054 405.848 9.92268 405.924C9.73996 406 9.53889 406.019 9.34491 405.981C9.15093 405.942 8.97275 405.847 8.83289 405.707C8.69304 405.567 8.5978 405.389 8.55922 405.195C8.52063 405.001 8.54043 404.8 8.61612 404.617C8.69181 404.435 8.81998 404.278 8.98443 404.169C9.14888 404.059 9.34222 404 9.54 404C9.80522 404 10.0596 404.105 10.2471 404.293C10.4346 404.48 10.54 404.735 10.54 405ZM18.54 405C18.54 405.198 18.4814 405.391 18.3715 405.556C18.2616 405.72 18.1054 405.848 17.9227 405.924C17.74 406 17.5389 406.019 17.3449 405.981C17.1509 405.942 16.9727 405.847 16.8329 405.707C16.693 405.567 16.5978 405.389 16.5592 405.195C16.5206 405.001 16.5404 404.8 16.6161 404.617C16.6918 404.435 16.82 404.278 16.9844 404.169C17.1489 404.059 17.3422 404 17.54 404C17.8052 404 18.0596 404.105 18.2471 404.293C18.4346 404.48 18.54 404.735 18.54 405ZM14.54 405C14.54 405.198 14.4814 405.391 14.3715 405.556C14.2616 405.72 14.1054 405.848 13.9227 405.924C13.74 406 13.5389 406.019 13.3449 405.981C13.1509 405.942 12.9727 405.847 12.8329 405.707C12.693 405.567 12.5978 405.389 12.5592 405.195C12.5206 405.001 12.5404 404.8 12.6161 404.617C12.6918 404.435 12.82 404.278 12.9844 404.169C13.1489 404.059 13.3422 404 13.54 404C13.8052 404 14.0596 404.105 14.2471 404.293C14.4346 404.48 14.54 404.735 14.54 405ZM4.54 401C4.54 401.198 4.48135 401.391 4.37147 401.556C4.26159 401.72 4.10541 401.848 3.92268 401.924C3.73996 402 3.53889 402.019 3.34491 401.981C3.15093 401.942 2.97275 401.847 2.83289 401.707C2.69304 401.567 2.5978 401.389 2.55922 401.195C2.52063 401.001 2.54043 400.8 2.61612 400.617C2.69181 400.435 2.81998 400.278 2.98443 400.169C3.14888 400.059 3.34222 400 3.54 400C3.67132 400 3.80136 400.026 3.92268 400.076C4.04401 400.126 4.15425 400.2 4.24711 400.293C4.33997 400.386 4.41363 400.496 4.46388 400.617C4.51413 400.739 4.54 400.869 4.54 401ZM8.54 401C8.54 401.198 8.48135 401.391 8.37147 401.556C8.26159 401.72 8.10541 401.848 7.92268 401.924C7.73996 402 7.53889 402.019 7.34491 401.981C7.15093 401.942 6.97275 401.847 6.83289 401.707C6.69304 401.567 6.5978 401.389 6.55922 401.195C6.52063 401.001 6.54043 400.8 6.61612 400.617C6.69181 400.435 6.81998 400.278 6.98443 400.169C7.14888 400.059 7.34222 400 7.54 400C7.80522 400 8.05957 400.105 8.24711 400.293C8.43464 400.48 8.54 400.735 8.54 401ZM12.54 401C12.54 401.198 12.4814 401.391 12.3715 401.556C12.2616 401.72 12.1054 401.848 11.9227 401.924C11.74 402 11.5389 402.019 11.3449 401.981C11.1509 401.942 10.9727 401.847 10.8329 401.707C10.693 401.567 10.5978 401.389 10.5592 401.195C10.5206 401.001 10.5404 400.8 10.6161 400.617C10.6918 400.435 10.82 400.278 10.9844 400.169C11.1489 400.059 11.3422 400 11.54 400C11.8052 400 12.0596 400.105 12.2471 400.293C12.4346 400.48 12.54 400.735 12.54 401ZM16.54 401C16.54 401.198 16.4814 401.391 16.3715 401.556C16.2616 401.72 16.1054 401.848 15.9227 401.924C15.74 402 15.5389 402.019 15.3449 401.981C15.1509 401.942 14.9727 401.847 14.8329 401.707C14.693 401.567 14.5978 401.389 14.5592 401.195C14.5206 401.001 14.5404 400.8 14.6161 400.617C14.6918 400.435 14.82 400.278 14.9844 400.169C15.1489 400.059 15.3422 400 15.54 400C15.8052 400 16.0596 400.105 16.2471 400.293C16.4346 400.48 16.54 400.735 16.54 401ZM20.54 401C20.54 401.198 20.4814 401.391 20.3715 401.556C20.2616 401.72 20.1054 401.848 19.9227 401.924C19.74 402 19.5389 402.019 19.3449 401.981C19.1509 401.942 18.9727 401.847 18.8329 401.707C18.693 401.567 18.5978 401.389 18.5592 401.195C18.5206 401.001 18.5404 400.8 18.6161 400.617C18.6918 400.435 18.82 400.278 18.9844 400.169C19.1489 400.059 19.3422 400 19.54 400C19.8052 400 20.0596 400.105 20.2471 400.293C20.4346 400.48 20.54 400.735 20.54 401Z" fill="#0F1621"/>
<path d="M16 454C15.7348 454 15.4804 453.895 15.2929 453.707C15.1054 453.52 15 453.265 15 453V449C15 448.735 15.1054 448.48 15.2929 448.293C15.4804 448.105 15.7348 448 16 448C16.2652 448 16.5196 448.105 16.7071 448.293C16.8946 448.48 17 448.735 17 449V453C17 453.265 16.8946 453.52 16.7071 453.707C16.5196 453.895 16.2652 454 16 454ZM21 451V449C21 448.735 20.8946 448.48 20.7071 448.293C20.5196 448.105 20.2652 448 20 448C19.7348 448 19.4804 448.105 19.2929 448.293C19.1054 448.48 19 448.735 19 449V451C19 451.265 19.1054 451.52 19.2929 451.707C19.4804 451.895 19.7348 452 20 452C20.2652 452 20.5196 451.895 20.7071 451.707C20.8946 451.52 21 451.265 21 451ZM5 451V449C5 448.735 4.89464 448.48 4.70711 448.293C4.51957 448.105 4.26522 448 4 448C3.73478 448 3.48043 448.105 3.29289 448.293C3.10536 448.48 3 448.735 3 449V451C3 451.265 3.10536 451.52 3.29289 451.707C3.48043 451.895 3.73478 452 4 452C4.26522 452 4.51957 451.895 4.70711 451.707C4.89464 451.52 5 451.265 5 451ZM9 450V454L13 450V448H10L11 444H8L7 448V450H9ZM19 439H16.83C16.6231 438.415 16.2398 437.908 15.733 437.55C15.2261 437.192 14.6207 437 14 437H12.87C12.6484 436.142 12.1481 435.382 11.4477 434.839C10.7472 434.296 9.88627 434.001 9 434H8C6.93913 434 5.92172 434.421 5.17157 435.172C4.42143 435.922 4 436.939 4 438V439.17C3.41484 439.377 2.90826 439.76 2.55006 440.267C2.19186 440.774 1.99968 441.379 2 442V443.45C2 444.126 2.26866 444.775 2.74688 445.253C3.2251 445.731 3.8737 446 4.55 446H5.44L5.94 444H4.85C4.62457 444 4.40837 443.91 4.24896 443.751C4.08955 443.592 4 443.375 4 443.15V442C4 441.735 4.10536 441.48 4.29289 441.293C4.48043 441.105 4.73478 441 5 441H10C10 440.47 9.78929 439.961 9.41421 439.586C9.03914 439.211 8.53043 439 8 439H6V438C6 437.47 6.21071 436.961 6.58579 436.586C6.96086 436.211 7.46957 436 8 436H9C9.53043 436 10.0391 436.211 10.4142 436.586C10.7893 436.961 11 437.47 11 438V439H14C14.2652 439 14.5196 439.105 14.7071 439.293C14.8946 439.48 15 439.735 15 440V441H19C19.2652 441 19.5196 441.105 19.7071 441.293C19.8946 441.48 20 441.735 20 442V443.46C20 443.603 19.9431 443.741 19.8418 443.842C19.7406 443.943 19.6032 444 19.46 444H13.06L12.56 446H20.39C20.817 446 21.2265 445.83 21.5284 445.528C21.8304 445.227 22 444.817 22 444.39V442C22 441.204 21.6839 440.441 21.1213 439.879C20.5587 439.316 19.7956 439 19 439Z" fill="#0F1621"/>
<path d="M218 157H220.22L220.1 157.37L219.56 159H218V157ZM227.47 153H225.47C225.47 152.47 225.259 151.961 224.884 151.586C224.509 151.211 224 151 223.47 151H222C222 150.47 221.789 149.961 221.414 149.586C221.039 149.211 220.53 149 220 149H218V151H219C219.265 151 219.52 151.105 219.707 151.293C219.895 151.48 220 151.735 220 152V153H222C222.265 153 222.52 153.105 222.707 153.293C222.895 153.48 223 153.735 223 154V155H227C227.265 155 227.52 155.105 227.707 155.293C227.895 155.48 228 155.735 228 156C227.999 156.178 227.95 156.353 227.858 156.506C227.767 156.659 227.636 156.784 227.48 156.87L226.9 158.63L226.77 159H227.32C228.04 159.016 228.743 158.782 229.308 158.337C229.874 157.892 230.267 157.263 230.42 156.56C230.502 156.126 230.488 155.679 230.378 155.252C230.268 154.824 230.065 154.426 229.783 154.086C229.501 153.746 229.148 153.472 228.748 153.284C228.348 153.097 227.912 153 227.47 153ZM223 163V166L227 163V161H224L225 158H222L221 161V163H223ZM238.47 153C238.127 153.732 237.625 154.378 237 154.89C236.376 155.393 235.644 155.745 234.862 155.918C234.08 156.092 233.268 156.082 232.49 155.89C232.465 154.756 232.056 153.665 231.329 152.794C230.602 151.924 229.601 151.326 228.49 151.1C228.438 150.364 228.546 149.625 228.807 148.934C229.067 148.244 229.474 147.618 230 147.1C230.423 146.652 230.921 146.28 231.47 146C231.587 145.952 231.718 145.952 231.835 145.998C231.953 146.045 232.047 146.135 232.1 146.25C232.15 146.372 232.15 146.508 232.1 146.63C231.739 147.421 231.629 148.303 231.783 149.159C231.937 150.015 232.349 150.803 232.963 151.418C233.577 152.034 234.365 152.447 235.22 152.603C236.076 152.758 236.958 152.649 237.75 152.29C237.796 152.243 237.852 152.206 237.913 152.181C237.974 152.155 238.039 152.142 238.105 152.142C238.171 152.142 238.236 152.155 238.297 152.181C238.358 152.206 238.414 152.243 238.46 152.29C238.508 152.336 238.546 152.391 238.572 152.451C238.598 152.512 238.612 152.577 238.613 152.643C238.614 152.709 238.602 152.774 238.577 152.836C238.553 152.897 238.516 152.953 238.47 153Z" fill="#0F1621"/>
<path d="M218 13H220.22L220.1 13.37L219.56 15H218V13ZM227 9H225C225 8.46957 224.789 7.96086 224.414 7.58579C224.039 7.21071 223.53 7 223 7H222C222 6.46957 221.789 5.96086 221.414 5.58579C221.039 5.21071 220.53 5 220 5H218V7H219C219.265 7 219.52 7.10536 219.707 7.29289C219.895 7.48043 220 7.73478 220 8V9H222C222.265 9 222.52 9.10536 222.707 9.29289C222.895 9.48043 223 9.73478 223 10V11H227C227.265 11 227.52 11.1054 227.707 11.2929C227.895 11.4804 228 11.7348 228 12C227.999 12.1782 227.95 12.3528 227.858 12.5058C227.767 12.6587 227.636 12.7845 227.48 12.87L226.9 14.63L226.77 15H227C227.796 15 228.559 14.6839 229.121 14.1213C229.684 13.5587 230 12.7956 230 12C230 11.2044 229.684 10.4413 229.121 9.87868C228.559 9.31607 227.796 9 227 9ZM223 19V22L227 19V17H224L225 14H222L221 17V19H223ZM231 3V4.12C230.339 3.99999 229.661 3.99999 229 4.12V3C229 2.73478 229.105 2.48043 229.293 2.29289C229.48 2.10536 229.735 2 230 2C230.265 2 230.52 2.10536 230.707 2.29289C230.895 2.48043 231 2.73478 231 3ZM235.68 5.77L234.89 6.56C234.5 6.01025 234.02 5.5302 233.47 5.14L234.26 4.35C234.448 4.1617 234.704 4.05591 234.97 4.05591C235.236 4.05591 235.492 4.1617 235.68 4.35C235.868 4.5383 235.974 4.7937 235.974 5.06C235.974 5.3263 235.868 5.5817 235.68 5.77ZM238.12 10C238.12 10.2652 238.015 10.5196 237.827 10.7071C237.64 10.8946 237.385 11 237.12 11H236C236.12 10.3387 236.12 9.66127 236 9H237.12C237.385 9 237.64 9.10536 237.827 9.29289C238.015 9.48043 238.12 9.73478 238.12 10ZM235.68 16C235.493 16.1863 235.239 16.2908 234.975 16.2908C234.711 16.2908 234.457 16.1863 234.27 16L233.48 15.21C234.03 14.8198 234.51 14.3397 234.9 13.79L235.69 14.58C235.876 14.7674 235.981 15.0208 235.981 15.285C235.981 15.5492 235.876 15.8026 235.69 15.99L235.68 16ZM234.13 10.28C234.13 11.032 233.934 11.771 233.56 12.4236C233.187 13.0762 232.649 13.6196 232 14C232.01 13.8301 232.01 13.6599 232 13.49V12.42C232.01 11.0813 231.513 9.78832 230.61 8.79998C229.707 7.81165 228.464 7.2009 227.13 7.09C227.893 6.388 228.893 5.99889 229.93 6C230.487 6.00523 231.037 6.12008 231.55 6.33801C232.062 6.55593 232.526 6.87266 232.916 7.2701C233.306 7.66754 233.614 8.13791 233.823 8.65435C234.031 9.17079 234.135 9.72319 234.13 10.28Z" fill="#0F1621"/>
<path d="M219 69C218.735 69 218.48 68.8946 218.293 68.7071C218.105 68.5196 218 68.2652 218 68V66C218 65.7348 218.105 65.4804 218.293 65.2929C218.48 65.1054 218.735 65 219 65C219.265 65 219.52 65.1054 219.707 65.2929C219.895 65.4804 220 65.7348 220 66V68C220 68.2652 219.895 68.5196 219.707 68.7071C219.52 68.8946 219.265 69 219 69ZM224 69V66C224 65.7348 223.895 65.4804 223.707 65.2929C223.52 65.1054 223.265 65 223 65C222.735 65 222.48 65.1054 222.293 65.2929C222.105 65.4804 222 65.7348 222 66V69C222 69.2652 222.105 69.5196 222.293 69.7071C222.48 69.8946 222.735 70 223 70C223.265 70 223.52 69.8946 223.707 69.7071C223.895 69.5196 224 69.2652 224 69ZM228 68V66C228 65.7348 227.895 65.4804 227.707 65.2929C227.52 65.1054 227.265 65 227 65C226.735 65 226.48 65.1054 226.293 65.2929C226.105 65.4804 226 65.7348 226 66V68C226 68.2652 226.105 68.5196 226.293 68.7071C226.48 68.8946 226.735 69 227 69C227.265 69 227.52 68.8946 227.707 68.7071C227.895 68.5196 228 68.2652 228 68ZM230 50C229.735 50 229.48 50.1054 229.293 50.2929C229.105 50.4804 229 50.7348 229 51V52.09C229.661 51.97 230.339 51.97 231 52.09V51C231 50.7348 230.895 50.4804 230.707 50.2929C230.52 50.1054 230.265 50 230 50ZM235.68 52.35C235.493 52.1637 235.239 52.0592 234.975 52.0592C234.711 52.0592 234.457 52.1637 234.27 52.35L233.48 53.14C234.03 53.5302 234.51 54.0103 234.9 54.56L235.69 53.77C235.784 53.677 235.858 53.5664 235.909 53.4446C235.96 53.3227 235.986 53.192 235.986 53.06C235.986 52.928 235.96 52.7973 235.909 52.6754C235.858 52.5536 235.784 52.443 235.69 52.35H235.68ZM237.12 57H236C236.12 57.6613 236.12 58.3387 236 59H237.12C237.385 59 237.64 58.8946 237.827 58.7071C238.015 58.5196 238.12 58.2652 238.12 58C238.12 57.7348 238.015 57.4804 237.827 57.2929C237.64 57.1054 237.385 57 237.12 57ZM235.68 62.51L234.89 61.72C234.5 62.2697 234.02 62.7498 233.47 63.14L234.26 63.93C234.448 64.1183 234.704 64.2241 234.97 64.2241C235.236 64.2241 235.492 64.1183 235.68 63.93C235.868 63.7417 235.974 63.4863 235.974 63.22C235.974 62.9537 235.868 62.6983 235.68 62.51ZM229.9 54C228.863 53.9989 227.863 54.388 227.1 55.09C228.435 55.1911 229.683 55.7937 230.592 56.777C231.501 57.7602 232.004 59.051 232 60.39V61.46C232.011 61.6398 232.011 61.8202 232 62C232.644 61.6167 233.176 61.0717 233.545 60.4192C233.913 59.7667 234.104 59.0293 234.1 58.28C234.105 57.7232 234.001 57.1708 233.793 56.6543C233.584 56.1379 233.276 55.6675 232.886 55.2701C232.496 54.8727 232.032 54.5559 231.52 54.338C231.007 54.1201 230.457 54.0052 229.9 54ZM227 57H225C225 56.4696 224.789 55.9609 224.414 55.5858C224.039 55.2107 223.53 55 223 55H222C222 54.4696 221.789 53.9609 221.414 53.5858C221.039 53.2107 220.53 53 220 53H218V63H227C227.796 63 228.559 62.6839 229.121 62.1213C229.684 61.5587 230 60.7956 230 60C230 59.2044 229.684 58.4413 229.121 57.8787C228.559 57.3161 227.796 57 227 57Z" fill="#0F1621"/>
<path d="M219 117C218.735 117 218.48 116.895 218.293 116.707C218.105 116.52 218 116.265 218 116V114C218 113.735 218.105 113.48 218.293 113.293C218.48 113.105 218.735 113 219 113C219.265 113 219.52 113.105 219.707 113.293C219.895 113.48 220 113.735 220 114V116C220 116.265 219.895 116.52 219.707 116.707C219.52 116.895 219.265 117 219 117ZM224 117V114C224 113.735 223.895 113.48 223.707 113.293C223.52 113.105 223.265 113 223 113C222.735 113 222.48 113.105 222.293 113.293C222.105 113.48 222 113.735 222 114V117C222 117.265 222.105 117.52 222.293 117.707C222.48 117.895 222.735 118 223 118C223.265 118 223.52 117.895 223.707 117.707C223.895 117.52 224 117.265 224 117ZM228 116V114C228 113.735 227.895 113.48 227.707 113.293C227.52 113.105 227.265 113 227 113C226.735 113 226.48 113.105 226.293 113.293C226.105 113.48 226 113.735 226 114V116C226 116.265 226.105 116.52 226.293 116.707C226.48 116.895 226.735 117 227 117C227.265 117 227.52 116.895 227.707 116.707C227.895 116.52 228 116.265 228 116ZM227 105H225C225 104.47 224.789 103.961 224.414 103.586C224.039 103.211 223.53 103 223 103H222C222 102.47 221.789 101.961 221.414 101.586C221.039 101.211 220.53 101 220 101H218V103H219C219.265 103 219.52 103.105 219.707 103.293C219.895 103.48 220 103.735 220 104V105H222C222.265 105 222.52 105.105 222.707 105.293C222.895 105.48 223 105.735 223 106V107H227C227.265 107 227.52 107.105 227.707 107.293C227.895 107.48 228 107.735 228 108C228 108.265 227.895 108.52 227.707 108.707C227.52 108.895 227.265 109 227 109H218V111H227C227.796 111 228.559 110.684 229.121 110.121C229.684 109.559 230 108.796 230 108C230 107.204 229.684 106.441 229.121 105.879C228.559 105.316 227.796 105 227 105ZM237.28 104.3C236.488 104.663 235.604 104.774 234.746 104.62C233.889 104.466 233.099 104.053 232.483 103.437C231.867 102.821 231.454 102.031 231.3 101.174C231.146 100.316 231.257 99.4321 231.62 98.64C231.688 98.5396 231.714 98.4171 231.693 98.2979C231.673 98.1787 231.607 98.072 231.51 98C231.434 97.9521 231.345 97.9266 231.255 97.9266C231.165 97.9266 231.076 97.9521 231 98C230.448 98.2806 229.948 98.6525 229.52 99.1C228.995 99.6188 228.587 100.244 228.325 100.935C228.063 101.625 227.952 102.363 228 103.1C229.105 103.325 230.101 103.916 230.827 104.779C231.553 105.641 231.966 106.723 232 107.85C233.175 108.132 234.411 108.003 235.503 107.484C236.595 106.966 237.476 106.089 238 105C238.089 104.911 238.139 104.791 238.139 104.665C238.139 104.539 238.089 104.419 238 104.33C237.911 104.241 237.791 104.191 237.665 104.191C237.539 104.191 237.419 104.241 237.33 104.33L237.28 104.3Z" fill="#0F1621"/>
<path d="M231.49 196L230.49 197L231 198.5L229.5 197.5L228 198.5L228.5 197L227.5 196H229L229.5 194.5L230 196H231.49ZM237.49 204.5L236.74 201.75L238.49 200H236L235 197.5L234 200H231.5L233.25 201.75L232.5 204.5L235 203L237.49 204.5ZM223.19 197.41C222.963 199.029 223.116 200.679 223.637 202.229C224.157 203.779 225.032 205.186 226.19 206.34C227.338 207.504 228.743 208.382 230.292 208.903C231.842 209.424 233.492 209.574 235.11 209.34C234.847 209.63 234.562 209.901 234.26 210.15C232.583 211.538 230.435 212.223 228.265 212.063C226.094 211.902 224.07 210.909 222.615 209.29C221.16 207.672 220.388 205.553 220.46 203.378C220.532 201.203 221.442 199.139 223 197.62L223.23 197.41H223.19ZM225 194C224.862 194 224.725 194.031 224.6 194.09C223.064 194.785 221.719 195.843 220.681 197.172C219.643 198.501 218.943 200.062 218.641 201.721C218.338 203.38 218.442 205.088 218.944 206.697C219.447 208.307 220.332 209.771 221.524 210.964C222.716 212.157 224.179 213.043 225.788 213.546C227.398 214.05 229.105 214.155 230.765 213.854C232.424 213.553 233.985 212.854 235.315 211.817C236.645 210.78 237.703 209.436 238.4 207.9C238.491 207.652 238.479 207.378 238.369 207.138C238.258 206.899 238.057 206.712 237.81 206.62L237.54 206.56C237.405 206.56 237.271 206.591 237.15 206.65C235.567 207.379 233.8 207.605 232.084 207.298C230.369 206.991 228.79 206.166 227.558 204.933C226.327 203.701 225.503 202.12 225.197 200.405C224.892 198.69 225.12 196.922 225.85 195.34C225.941 195.092 225.929 194.818 225.819 194.578C225.708 194.339 225.507 194.152 225.26 194.06C225.176 194.031 225.088 194.011 225 194Z" fill="#0F1621"/>
<path d="M232.88 248H225C224.735 248 224.48 247.895 224.293 247.707C224.105 247.52 224 247.265 224 247C224 246.735 224.105 246.48 224.293 246.293C224.48 246.105 224.735 246 225 246H233C233.265 246 233.52 245.895 233.707 245.707C233.895 245.52 234 245.265 234 245C234 244.735 233.895 244.48 233.707 244.293C233.52 244.105 233.265 244 233 244H232C231.735 244 231.48 243.895 231.293 243.707C231.105 243.52 231 243.265 231 243C231 242.735 231.105 242.48 231.293 242.293C231.48 242.105 231.735 242 232 242H233C233.796 242 234.559 242.316 235.121 242.879C235.684 243.441 236 244.204 236 245C236 245.201 235.98 245.402 235.94 245.6C235.784 246.291 235.394 246.907 234.837 247.344C234.279 247.781 233.588 248.013 232.88 248ZM231.88 256H219C218.735 256 218.48 256.105 218.293 256.293C218.105 256.48 218 256.735 218 257C218 257.265 218.105 257.52 218.293 257.707C218.48 257.895 218.735 258 219 258H232C232.265 258 232.52 258.105 232.707 258.293C232.895 258.48 233 258.735 233 259C233 259.265 232.895 259.52 232.707 259.707C232.52 259.895 232.265 260 232 260H231C230.735 260 230.48 260.105 230.293 260.293C230.105 260.48 230 260.735 230 261C230 261.265 230.105 261.52 230.293 261.707C230.48 261.895 230.735 262 231 262H232C232.796 262 233.559 261.684 234.121 261.121C234.684 260.559 235 259.796 235 259C235 258.596 234.919 258.196 234.761 257.824C234.603 257.452 234.371 257.115 234.079 256.835C233.788 256.555 233.443 256.336 233.065 256.193C232.687 256.049 232.284 255.984 231.88 256ZM238 252C238 251.735 237.895 251.48 237.707 251.293C237.52 251.105 237.265 251 237 251H228C227.735 251 227.48 251.105 227.293 251.293C227.105 251.48 227 251.735 227 252C227 252.265 227.105 252.52 227.293 252.707C227.48 252.895 227.735 253 228 253H237C237.265 253 237.52 252.895 237.707 252.707C237.895 252.52 238 252.265 238 252ZM222 247C222 246.735 221.895 246.48 221.707 246.293C221.52 246.105 221.265 246 221 246H219C218.735 246 218.48 246.105 218.293 246.293C218.105 246.48 218 246.735 218 247C218 247.265 218.105 247.52 218.293 247.707C218.48 247.895 218.735 248 219 248H221C221.265 248 221.52 247.895 221.707 247.707C221.895 247.52 222 247.265 222 247ZM225 252C225 251.735 224.895 251.48 224.707 251.293C224.52 251.105 224.265 251 224 251H219C218.735 251 218.48 251.105 218.293 251.293C218.105 251.48 218 251.735 218 252C218 252.265 218.105 252.52 218.293 252.707C218.48 252.895 218.735 253 219 253H224C224.265 253 224.52 252.895 224.707 252.707C224.895 252.52 225 252.265 225 252Z" fill="#0F1621"/>
<path d="M228 292.45L230.55 295.14L232 296.68V298.92C230.623 298.922 229.261 299.208 228 299.76C226.739 299.208 225.377 298.922 224 298.92V296.68L228 292.45ZM228 290C227.868 289.999 227.738 290.024 227.616 290.074C227.494 290.124 227.383 290.197 227.29 290.29L220 298H222V301.18C223.005 300.916 224.052 300.852 225.082 300.993C226.111 301.134 227.103 301.476 228 302C228.897 301.476 229.889 301.134 230.918 300.993C231.948 300.852 232.995 300.916 234 301.18V298H236L234 295.88V292H232V293.77L228.71 290.29C228.617 290.197 228.506 290.124 228.384 290.074C228.262 290.024 228.132 289.999 228 290ZM236 307.89C234.9 306.906 233.476 306.362 232 306.362C230.524 306.362 229.1 306.906 228 307.89C226.9 306.906 225.476 306.362 224 306.362C222.524 306.362 221.1 306.906 220 307.89C219.42 307.363 218.74 306.958 218 306.7V308.89C218.268 309.051 218.52 309.238 218.75 309.45C219.055 309.781 219.479 309.978 219.929 309.996C220.379 310.015 220.818 309.855 221.15 309.55L221.25 309.45C221.993 308.747 222.977 308.355 224 308.355C225.023 308.355 226.007 308.747 226.75 309.45C227.055 309.781 227.479 309.978 227.929 309.996C228.379 310.015 228.818 309.855 229.15 309.55L229.25 309.45C229.993 308.747 230.977 308.355 232 308.355C233.023 308.355 234.007 308.747 234.75 309.45C235.055 309.781 235.479 309.978 235.929 309.996C236.379 310.015 236.818 309.855 237.15 309.55C237.186 309.519 237.219 309.486 237.25 309.45C237.48 309.238 237.732 309.051 238 308.89V306.7C237.26 306.958 236.58 307.363 236 307.89ZM236 303.89C234.9 302.906 233.476 302.362 232 302.362C230.524 302.362 229.1 302.906 228 303.89C226.9 302.906 225.476 302.362 224 302.362C222.524 302.362 221.1 302.906 220 303.89C219.42 303.363 218.74 302.958 218 302.7V304.89C218.268 305.051 218.52 305.238 218.75 305.45C219.055 305.781 219.479 305.978 219.929 305.996C220.379 306.015 220.818 305.855 221.15 305.55L221.25 305.45C221.993 304.747 222.977 304.355 224 304.355C225.023 304.355 226.007 304.747 226.75 305.45C227.055 305.781 227.479 305.978 227.929 305.996C228.379 306.015 228.818 305.855 229.15 305.55L229.25 305.45C229.993 304.747 230.977 304.355 232 304.355C233.023 304.355 234.007 304.747 234.75 305.45C235.055 305.781 235.479 305.978 235.929 305.996C236.379 306.015 236.818 305.855 237.15 305.55C237.186 305.519 237.219 305.486 237.25 305.45C237.48 305.238 237.732 305.051 238 304.89V302.7C237.26 302.958 236.58 303.363 236 303.89Z" fill="#0F1621"/>
<path d="M233.34 357H221.34C221.075 357 220.82 356.895 220.633 356.707C220.445 356.52 220.34 356.265 220.34 356C220.34 355.735 220.445 355.48 220.633 355.293C220.82 355.105 221.075 355 221.34 355H233.34C233.605 355 233.86 355.105 234.047 355.293C234.235 355.48 234.34 355.735 234.34 356C234.34 356.265 234.235 356.52 234.047 356.707C233.86 356.895 233.605 357 233.34 357ZM225.34 352C225.34 351.735 225.235 351.48 225.047 351.293C224.86 351.105 224.605 351 224.34 351H219.34C219.075 351 218.82 351.105 218.633 351.293C218.445 351.48 218.34 351.735 218.34 352C218.34 352.265 218.445 352.52 218.633 352.707C218.82 352.895 219.075 353 219.34 353H224.34C224.605 353 224.86 352.895 225.047 352.707C225.235 352.52 225.34 352.265 225.34 352ZM223.34 348C223.34 347.735 223.235 347.48 223.047 347.293C222.86 347.105 222.605 347 222.34 347H220.34C220.075 347 219.82 347.105 219.633 347.293C219.445 347.48 219.34 347.735 219.34 348C219.34 348.265 219.445 348.52 219.633 348.707C219.82 348.895 220.075 349 220.34 349H222.34C222.605 349 222.86 348.895 223.047 348.707C223.235 348.52 223.34 348.265 223.34 348ZM238.34 352C238.34 351.735 238.235 351.48 238.047 351.293C237.86 351.105 237.605 351 237.34 351H228.34C228.075 351 227.82 351.105 227.633 351.293C227.445 351.48 227.34 351.735 227.34 352C227.34 352.265 227.445 352.52 227.633 352.707C227.82 352.895 228.075 353 228.34 353H237.34C237.605 353 237.86 352.895 238.047 352.707C238.235 352.52 238.34 352.265 238.34 352ZM232.34 348C232.34 347.735 232.235 347.48 232.047 347.293C231.86 347.105 231.605 347 231.34 347H226.34C226.075 347 225.82 347.105 225.633 347.293C225.445 347.48 225.34 347.735 225.34 348C225.34 348.265 225.445 348.52 225.633 348.707C225.82 348.895 226.075 349 226.34 349H231.34C231.605 349 231.86 348.895 232.047 348.707C232.235 348.52 232.34 348.265 232.34 348ZM236.34 344C236.34 343.735 236.235 343.48 236.047 343.293C235.86 343.105 235.605 343 235.34 343H229.34C229.075 343 228.82 343.105 228.633 343.293C228.445 343.48 228.34 343.735 228.34 344C228.34 344.265 228.445 344.52 228.633 344.707C228.82 344.895 229.075 345 229.34 345H235.34C235.605 345 235.86 344.895 236.047 344.707C236.235 344.52 236.34 344.265 236.34 344ZM238.34 348C238.34 347.735 238.235 347.48 238.047 347.293C237.86 347.105 237.605 347 237.34 347H235.34C235.075 347 234.82 347.105 234.633 347.293C234.445 347.48 234.34 347.735 234.34 348C234.34 348.265 234.445 348.52 234.633 348.707C234.82 348.895 235.075 349 235.34 349H237.34C237.605 349 237.86 348.895 238.047 348.707C238.235 348.52 238.34 348.265 238.34 348ZM237.34 340C237.34 339.735 237.235 339.48 237.047 339.293C236.86 339.105 236.605 339 236.34 339H234.34C234.075 339 233.82 339.105 233.633 339.293C233.445 339.48 233.34 339.735 233.34 340C233.34 340.265 233.445 340.52 233.633 340.707C233.82 340.895 234.075 341 234.34 341H236.34C236.605 341 236.86 340.895 237.047 340.707C237.235 340.52 237.34 340.265 237.34 340ZM226.34 344C226.34 343.735 226.235 343.48 226.047 343.293C225.86 343.105 225.605 343 225.34 343H219.34C219.075 343 218.82 343.105 218.633 343.293C218.445 343.48 218.34 343.735 218.34 344C218.34 344.265 218.445 344.52 218.633 344.707C218.82 344.895 219.075 345 219.34 345H225.34C225.605 345 225.86 344.895 226.047 344.707C226.235 344.52 226.34 344.265 226.34 344ZM231.34 340C231.34 339.735 231.235 339.48 231.047 339.293C230.86 339.105 230.605 339 230.34 339H221.34C221.075 339 220.82 339.105 220.633 339.293C220.445 339.48 220.34 339.735 220.34 340C220.34 340.265 220.445 340.52 220.633 340.707C220.82 340.895 221.075 341 221.34 341H230.34C230.605 341 230.86 340.895 231.047 340.707C231.235 340.52 231.34 340.265 231.34 340Z" fill="#0F1621"/>
<path d="M237 400.5C236.446 400.95 235.774 401.232 235.065 401.311C234.356 401.391 233.638 401.265 232.998 400.95C232.358 400.634 231.822 400.141 231.453 399.529C231.085 398.918 230.9 398.214 230.92 397.5V397.44L232.41 395.96C232.596 395.773 232.701 395.519 232.701 395.255C232.701 394.991 232.596 394.737 232.41 394.55C232.223 394.364 231.969 394.259 231.705 394.259C231.441 394.259 231.187 394.364 231 394.55L229.53 396H229.4C228.842 396.013 228.289 395.899 227.781 395.667C227.274 395.435 226.825 395.09 226.47 394.66C225.922 393.982 225.623 393.137 225.623 392.265C225.623 391.393 225.922 390.548 226.47 389.87L225 391.22C224.151 392.069 223.546 393.13 223.247 394.293C222.948 395.455 222.966 396.677 223.3 397.83L224.3 401.2L221.65 403.83C221.462 404.018 221.206 404.124 220.94 404.124C220.674 404.124 220.418 404.018 220.23 403.83C220.042 403.642 219.936 403.386 219.936 403.12C219.936 402.854 220.042 402.598 220.23 402.41L220.94 401.71C221.134 401.531 221.25 401.282 221.261 401.017C221.272 400.753 221.179 400.495 221 400.3C220.813 400.114 220.559 400.009 220.295 400.009C220.031 400.009 219.777 400.114 219.59 400.3L218.82 401C218.29 401.569 218.002 402.321 218.015 403.098C218.029 403.875 218.344 404.617 218.894 405.166C219.443 405.716 220.185 406.031 220.962 406.045C221.739 406.058 222.491 405.77 223.06 405.24L225.69 402.62L229.06 403.62C229.664 403.797 230.291 403.884 230.92 403.88C231.804 403.876 232.679 403.697 233.494 403.353C234.309 403.01 235.049 402.51 235.67 401.88L237 400.51V400.5ZM225.22 397.16C225.097 396.784 225.023 396.395 225 396C225.06 396.08 225.14 396.15 225.21 396.23C225.89 396.919 226.738 397.419 227.67 397.68L225.94 399.47L225.22 397.16ZM229.61 401.55L227.3 400.88L229.13 399.06C229.401 399.988 229.9 400.833 230.58 401.52L230.81 401.73C230.404 401.721 230.001 401.66 229.61 401.55ZM234.82 392H228.94C228.675 392 228.42 391.895 228.233 391.707C228.045 391.52 227.94 391.265 227.94 391C227.94 390.735 228.045 390.48 228.233 390.293C228.42 390.105 228.675 390 228.94 390H234.94C235.205 390 235.46 389.895 235.647 389.707C235.835 389.52 235.94 389.265 235.94 389C235.94 388.735 235.835 388.48 235.647 388.293C235.46 388.105 235.205 388 234.94 388H233.94C233.675 388 233.42 387.895 233.233 387.707C233.045 387.52 232.94 387.265 232.94 387C232.94 386.735 233.045 386.48 233.233 386.293C233.42 386.105 233.675 386 233.94 386H234.94C235.736 386 236.499 386.316 237.061 386.879C237.624 387.441 237.94 388.204 237.94 389C237.94 389.201 237.92 389.402 237.88 389.6C237.724 390.291 237.334 390.907 236.777 391.344C236.219 391.781 235.528 392.013 234.82 392ZM218.94 396C218.675 396 218.42 395.895 218.233 395.707C218.045 395.52 217.94 395.265 217.94 395C217.94 394.735 218.045 394.48 218.233 394.293C218.42 394.105 218.675 394 218.94 394C219.205 394 219.46 394.105 219.647 394.293C219.835 394.48 219.94 394.735 219.94 395C219.94 395.265 219.835 395.52 219.647 395.707C219.46 395.895 219.205 396 218.94 396ZM220.94 392H219.94C219.675 392 219.42 391.895 219.233 391.707C219.045 391.52 218.94 391.265 218.94 391C218.94 390.735 219.045 390.48 219.233 390.293C219.42 390.105 219.675 390 219.94 390H220.94C221.205 390 221.46 390.105 221.647 390.293C221.835 390.48 221.94 390.735 221.94 391C221.94 391.265 221.835 391.52 221.647 391.707C221.46 391.895 221.205 392 220.94 392ZM228.94 388H220.94C220.675 388 220.42 387.895 220.233 387.707C220.045 387.52 219.94 387.265 219.94 387C219.94 386.735 220.045 386.48 220.233 386.293C220.42 386.105 220.675 386 220.94 386H228.94C229.205 386 229.46 386.105 229.647 386.293C229.835 386.48 229.94 386.735 229.94 387C229.94 387.265 229.835 387.52 229.647 387.707C229.46 387.895 229.205 388 228.94 388ZM236.94 396H235.94C235.675 396 235.42 395.895 235.233 395.707C235.045 395.52 234.94 395.265 234.94 395C234.94 394.735 235.045 394.48 235.233 394.293C235.42 394.105 235.675 394 235.94 394H236.94C237.205 394 237.46 394.105 237.647 394.293C237.835 394.48 237.94 394.735 237.94 395C237.94 395.265 237.835 395.52 237.647 395.707C237.46 395.895 237.205 396 236.94 396Z" fill="#0F1621"/>
</svg>
