<svg xmlns="http://www.w3.org/2000/svg" width="24" height="24" viewBox="0 0 24 24"><rect width="24" height="24" style="fill:none"/><path d="M21,16.5a3.73,3.73,0,0,1-6.08-3v-.06l1.49-1.48a1,1,0,0,0,0-1.41h0a1,1,0,0,0-1.41,0h0L13.53,12H13.4a3.69,3.69,0,0,1-2.93-1.34,3.81,3.81,0,0,1,0-4.79h0L9,7.22a6.71,6.71,0,0,0-1.7,6.61l1,3.37L5.65,19.83a1,1,0,0,1-1.42-1.42l.71-.7A1,1,0,0,0,5,16.3h0a1,1,0,0,0-1.41,0L2.82,17a3,3,0,0,0,4.24,4.24l2.63-2.62,3.37,1a6.48,6.48,0,0,0,1.86.26,6.72,6.72,0,0,0,4.75-2L21,16.51ZM9.22,13.16A4.6,4.6,0,0,1,9,12c.06.08.14.15.21.23a5.56,5.56,0,0,0,2.46,1.45L9.94,15.47Zm4.39,4.39-2.31-.67,1.83-1.82a5.81,5.81,0,0,0,1.45,2.46l.23.21A4.84,4.84,0,0,1,13.61,17.55ZM18.82,8H12.94a1,1,0,0,1-1-1h0a1,1,0,0,1,1-1h6a1,1,0,0,0,0-2h-1a1,1,0,0,1-1-1h0a1,1,0,0,1,1-1h1a3,3,0,0,1,3,3,3.05,3.05,0,0,1-.06.6A3.08,3.08,0,0,1,18.82,8ZM2.94,12h0a1,1,0,0,1-1-1h0a1,1,0,0,1,1-1h0a1,1,0,0,1,1,1h0A1,1,0,0,1,2.94,12Zm2-4h-1a1,1,0,0,1-1-1h0a1,1,0,0,1,1-1h1a1,1,0,0,1,1,1h0A1,1,0,0,1,4.94,8Zm8-4h-8a1,1,0,0,1-1-1h0a1,1,0,0,1,1-1h8a1,1,0,0,1,1,1h0A1,1,0,0,1,12.94,4Zm8,8h-1a1,1,0,0,1-1-1h0a1,1,0,0,1,1-1h1a1,1,0,0,1,1,1h0A1,1,0,0,1,20.94,12Z"/></svg>