<svg xmlns="http://www.w3.org/2000/svg" width="16" height="16" viewBox="0 0 16 16"><path d="M15,9a1,1,0,1,1-1-1A1,1,0,0,1,15,9ZM2,9A1,1,0,1,0,1,8,1,1,0,0,0,2,9ZM2,6H3A1,1,0,0,0,3,4H2A1,1,0,0,0,2,6ZM4,3H7A1,1,0,0,0,7,1H4A1,1,0,0,0,4,3Zm6.8,5.74a1,1,0,0,0,0-1.42,1,1,0,0,0-1.41,0l-.54.53L5,4v7.71L3.85,12.85a.45.45,0,0,1-.14.1.47.47,0,0,1-.56-.1.48.48,0,0,1,0-.7,1,1,0,0,0-1.42-1.42,2.5,2.5,0,0,0,2.85,4,2.62,2.62,0,0,0,.69-.49L6.53,13H14L10.27,9.27ZM10,6h2.5a2.63,2.63,0,0,0,.83-.14A2.5,2.5,0,0,0,12.5,1a1,1,0,0,0,0,2,.5.5,0,0,1,.5.5.5.5,0,0,1-.33.47.47.47,0,0,1-.17,0H10a1,1,0,0,0,0,2Z"/></svg>