<svg width="16" height="16" viewBox="0 0 16 16" fill="none" xmlns="http://www.w3.org/2000/svg">
<path d="M15 9.00001C15 9.19779 14.9414 9.39113 14.8315 9.55558C14.7216 9.72003 14.5654 9.8482 14.3827 9.92389C14.2 9.99957 13.9989 10.0194 13.8049 9.98079C13.6109 9.94221 13.4327 9.84696 13.2929 9.70711C13.153 9.56726 13.0578 9.38908 13.0192 9.1951C12.9806 9.00111 13.0004 8.80005 13.0761 8.61732C13.1518 8.4346 13.28 8.27842 13.4444 8.16854C13.6089 8.05865 13.8022 8.00001 14 8.00001C14.2652 8.00001 14.5196 8.10536 14.7071 8.2929C14.8946 8.48043 15 8.73479 15 9.00001ZM2 9.00001C2.19778 9.00001 2.39112 8.94136 2.55557 8.83147C2.72002 8.72159 2.84819 8.56541 2.92388 8.38269C2.99957 8.19996 3.01937 7.9989 2.98079 7.80491C2.9422 7.61093 2.84696 7.43275 2.70711 7.2929C2.56725 7.15305 2.38907 7.05781 2.19509 7.01922C2.00111 6.98063 1.80004 7.00044 1.61732 7.07613C1.43459 7.15181 1.27841 7.27999 1.16853 7.44444C1.05865 7.60888 1 7.80222 1 8.00001C1 8.26522 1.10536 8.51958 1.29289 8.70711C1.48043 8.89465 1.73478 9.00001 2 9.00001ZM2 6.00001H3C3.26522 6.00001 3.51957 5.89465 3.70711 5.70711C3.89464 5.51958 4 5.26522 4 5.00001C4 4.73479 3.89464 4.48044 3.70711 4.2929C3.51957 4.10536 3.26522 4.00001 3 4.00001H2C1.73478 4.00001 1.48043 4.10536 1.29289 4.2929C1.10536 4.48044 1 4.73479 1 5.00001C1 5.26522 1.10536 5.51958 1.29289 5.70711C1.48043 5.89465 1.73478 6.00001 2 6.00001ZM4 3.00001H7C7.26522 3.00001 7.51957 2.89465 7.70711 2.70711C7.89464 2.51958 8 2.26522 8 2.00001C8 1.73479 7.89464 1.48043 7.70711 1.2929C7.51957 1.10536 7.26522 1.00001 7 1.00001H4C3.73478 1.00001 3.48043 1.10536 3.29289 1.2929C3.10536 1.48043 3 1.73479 3 2.00001C3 2.26522 3.10536 2.51958 3.29289 2.70711C3.48043 2.89465 3.73478 3.00001 4 3.00001ZM10.8 8.74001C10.8937 8.64704 10.9681 8.53644 11.0189 8.41458C11.0697 8.29272 11.0958 8.16202 11.0958 8.03C11.0958 7.89799 11.0697 7.76729 11.0189 7.64543C10.9681 7.52357 10.8937 7.41297 10.8 7.32001C10.6126 7.13375 10.3592 7.02921 10.095 7.02921C9.83081 7.02921 9.57736 7.13375 9.39 7.32001L8.85 7.85001L5 4.00001V11.71L3.85 12.85C3.8102 12.892 3.76266 12.926 3.71 12.95C3.61856 12.9968 3.51429 13.0124 3.41315 12.9943C3.31202 12.9763 3.21958 12.9256 3.15 12.85C3.10217 12.8051 3.06405 12.7509 3.03799 12.6907C3.01193 12.6305 2.99848 12.5656 2.99848 12.5C2.99848 12.4344 3.01193 12.3695 3.03799 12.3093C3.06405 12.2491 3.10217 12.1949 3.15 12.15C3.3383 11.9617 3.44409 11.7063 3.44409 11.44C3.44409 11.1737 3.3383 10.9183 3.15 10.73C2.9617 10.5417 2.7063 10.4359 2.44 10.4359C2.1737 10.4359 1.9183 10.5417 1.73 10.73C1.32783 11.1504 1.08486 11.6979 1.04295 12.2781C1.00104 12.8584 1.16281 13.4351 1.5004 13.9089C1.83799 14.3827 2.33025 14.724 2.89239 14.8738C3.45453 15.0237 4.05133 14.9728 4.58 14.73C4.83503 14.6051 5.06807 14.4397 5.27 14.24L6.53 13H14L10.27 9.27001L10.8 8.74001ZM10 6.00001H12.5C12.7824 5.9982 13.0626 5.95093 13.33 5.86001C13.8879 5.66503 14.3586 5.27873 14.6587 4.76966C14.9589 4.26059 15.069 3.66166 14.9695 3.07914C14.87 2.49662 14.5674 1.96817 14.1153 1.58756C13.6632 1.20695 13.091 0.998788 12.5 1.00001C12.2348 1.00001 11.9804 1.10536 11.7929 1.2929C11.6054 1.48043 11.5 1.73479 11.5 2.00001C11.5 2.26522 11.6054 2.51958 11.7929 2.70711C11.9804 2.89465 12.2348 3.00001 12.5 3.00001C12.6326 3.00001 12.7598 3.05268 12.8536 3.14645C12.9473 3.24022 13 3.3674 13 3.50001C13 3.60276 12.9683 3.70301 12.9092 3.78711C12.8502 3.87121 12.7666 3.93507 12.67 3.97001C12.6138 3.98034 12.5562 3.98034 12.5 3.97001H10C9.73478 3.97001 9.48043 4.07536 9.29289 4.2629C9.10536 4.45043 9 4.70479 9 4.97001C9 5.23522 9.10536 5.48958 9.29289 5.67711C9.48043 5.86465 9.73478 5.97001 10 5.97001V6.00001Z" fill="#0F1621"/>
</svg>
