<svg xmlns="http://www.w3.org/2000/svg" viewBox="0 0 24 24"><defs><style>.cls-1{fill:none;}</style></defs><g id="Layer_2" data-name="Layer 2"><g id="UI_16" data-name="UI 16"><g id="hurricane"><rect class="cls-1" width="24" height="24"/><path d="M21.94,5.6A3,3,0,0,0,19.6,2.06,3.05,3.05,0,0,0,19,2H18a1,1,0,0,0-1,1h0a1,1,0,0,0,1,1h1a1,1,0,0,1,0,2H13a1,1,0,0,0-1,1h0a1,1,0,0,0,1,1h5.88A3.08,3.08,0,0,0,21.94,5.6ZM4,11H4a1,1,0,0,0-1-1H3a1,1,0,0,0-1,1H2a1,1,0,0,0,1,1H3A1,1,0,0,0,4,11ZM6,7H6A1,1,0,0,0,5,6H4A1,1,0,0,0,3,7H3A1,1,0,0,0,4,8H5A1,1,0,0,0,6,7Zm8-4h0a1,1,0,0,0-1-1H5A1,1,0,0,0,4,3H4A1,1,0,0,0,5,4h8A1,1,0,0,0,14,3Zm8,8h0a1,1,0,0,0-1-1H20a1,1,0,0,0-1,1h0a1,1,0,0,0,1,1h1A1,1,0,0,0,22,11Zm-.92,5.5a3.73,3.73,0,0,1-6.08-3v-.06l1.49-1.48a1,1,0,0,0,0-1.41h0a1,1,0,0,0-1.41,0h0L13.59,12h-.13a3.69,3.69,0,0,1-2.93-1.34,3.81,3.81,0,0,1,0-4.79h0L9.06,7.22a6.71,6.71,0,0,0-1.7,6.61l1,3.37L5.71,19.83a1,1,0,0,1-1.42-1.42l.71-.7A1,1,0,0,0,5,16.3H5a1,1,0,0,0-1.41,0L2.88,17a3,3,0,0,0,4.24,4.24l2.63-2.62,3.37,1a6.48,6.48,0,0,0,1.86.26,6.72,6.72,0,0,0,4.75-2l1.36-1.37Z"/></g></g></g></svg>