<svg width="24" height="24" viewBox="0 0 24 24" fill="none" xmlns="http://www.w3.org/2000/svg">
<path d="M18 18H6C4.93913 18 3.92172 17.5786 3.17157 16.8284C2.42143 16.0783 2 15.0609 2 14V13C1.99968 12.3793 2.19186 11.7739 2.55006 11.267C2.90826 10.7602 3.41484 10.3769 4 10.17V9C4 7.93913 4.42143 6.92172 5.17157 6.17157C5.92172 5.42143 6.93913 5 8 5H9C9.88627 5.00066 10.7472 5.29565 11.4477 5.83864C12.1481 6.38163 12.6484 7.14187 12.87 8H14.3C14.9207 7.99967 15.5261 8.19186 16.033 8.55006C16.5398 8.90826 16.9231 9.41484 17.13 10H17.85C18.7884 9.98429 19.7039 10.2902 20.4443 10.8669C21.1847 11.4436 21.7055 12.2563 21.92 13.17C22.0437 13.7533 22.0355 14.357 21.8958 14.9367C21.7562 15.5165 21.4887 16.0577 21.1129 16.5207C20.7371 16.9837 20.2625 17.3568 19.7239 17.6128C19.1853 17.8688 18.5963 18.0011 18 18Z" fill="#0F1621"/>
</svg>
