<svg width="16" height="16" viewBox="0 0 16 16" fill="none" xmlns="http://www.w3.org/2000/svg">
<path d="M15 11C15 11.5304 14.7893 12.0391 14.4142 12.4142C14.0391 12.7893 13.5304 13 13 13H4H3C2.43486 12.8852 1.92677 12.5786 1.56181 12.1321C1.19686 11.6856 0.997498 11.1267 0.997498 10.55C0.997498 9.97332 1.19686 9.41438 1.56181 8.96787C1.92677 8.52136 2.43486 8.21476 3 8.1V6C3 5.20435 3.31607 4.44129 3.87868 3.87868C4.44129 3.31607 5.20435 3 6 3C6.79565 3 7.55872 3.31607 8.12132 3.87868C8.68393 4.44129 9 5.20435 9 6C9.79565 6 10.5587 6.31607 11.1213 6.87868C11.6839 7.44129 12 8.20435 12 9H13C13.5304 9 14.0391 9.21071 14.4142 9.58579C14.7893 9.96086 15 10.4696 15 11Z" fill="#0F1621"/>
</svg>
