<svg xmlns="http://www.w3.org/2000/svg" viewBox="0 0 24 24"><defs><style>.cls-1{fill:none;}</style></defs><g id="Layer_2" data-name="Layer 2"><g id="UI_16" data-name="UI 16"><g id="overcast"><rect class="cls-1" width="24" height="24"/><path d="M18,10h-.7a3,3,0,0,0-2.83-2h-1.6A4,4,0,0,0,9,5H8A4,4,0,0,0,4,9v1.17A3,3,0,0,0,2,13v1a4,4,0,0,0,4,4H17.85a4.11,4.11,0,0,0,4.07-3.17A4,4,0,0,0,18,10Zm0,6H6a2,2,0,0,1-2-2V13a1,1,0,0,1,1-1h5a2,2,0,0,0-2-2H6V9A2,2,0,0,1,8,7H9a2,2,0,0,1,2,2v1h3a1,1,0,0,1,1,1v1h2.92a2,2,0,0,1,2,1.35A2,2,0,0,1,18,16Z"/></g></g></g></svg>