<svg xmlns="http://www.w3.org/2000/svg" width="24" height="24" viewBox="0 0 24 24"><rect width="24" height="24" style="fill:none"/><path d="M8,21H8a1,1,0,0,1-1-1V17a1,1,0,0,1,1-1H8a1,1,0,0,1,1,1v3A1,1,0,0,1,8,21ZM5,21V17a1,1,0,0,0-1-1H4a1,1,0,0,0-1,1v4a1,1,0,0,0,1,1H4A1,1,0,0,0,5,21Zm8-3V17a1,1,0,0,0-1-1h0a1,1,0,0,0-1,1v1a1,1,0,0,0,1,1h0A1,1,0,0,0,13,18Zm9-7V10a3,3,0,0,0-3-3H16.83A3,3,0,0,0,14,5H12.87A4,4,0,0,0,9,2H8A4,4,0,0,0,4,6V7.17A3,3,0,0,0,2,10v1a3,3,0,0,0,3,3H19A3,3,0,0,0,22,11Zm-3.81,9a1,1,0,1,0,1,1A1,1,0,0,0,18.19,20Zm-4,0a1,1,0,1,0,1,1A1,1,0,0,0,14.19,20Zm2-4a1,1,0,1,0,1,1A1,1,0,0,0,16.19,16Zm4,0a1,1,0,1,0,1,1A1,1,0,0,0,20.19,16Z"/></svg>