<svg width="24" height="24" viewBox="0 0 24 24" fill="none" xmlns="http://www.w3.org/2000/svg">
<path d="M19 7H16.83C16.6231 6.41484 16.2398 5.90826 15.733 5.55006C15.2261 5.19186 14.6207 4.99967 14 5H12.87C12.6484 4.14187 12.1481 3.38163 11.4477 2.83864C10.7472 2.29565 9.88627 2.00066 9 2H8C6.93913 2 5.92172 2.42143 5.17157 3.17157C4.42143 3.92172 4 4.93913 4 6V7.17C3.41484 7.37688 2.90826 7.76016 2.55006 8.26702C2.19186 8.77387 1.99968 9.37935 2 10V11C2 11.7956 2.31607 12.5587 2.87868 13.1213C3.44129 13.6839 4.20435 14 5 14H19C19.7956 14 20.5587 13.6839 21.1213 13.1213C21.6839 12.5587 22 11.7956 22 11V10C22 9.20435 21.6839 8.44129 21.1213 7.87868C20.5587 7.31607 19.7956 7 19 7ZM20 11C20 11.2652 19.8946 11.5196 19.7071 11.7071C19.5196 11.8946 19.2652 12 19 12H5C4.73478 12 4.48043 11.8946 4.29289 11.7071C4.10536 11.5196 4 11.2652 4 11V10C4 9.73478 4.10536 9.48043 4.29289 9.29289C4.48043 9.10536 4.73478 9 5 9H10C10 8.46957 9.78929 7.96086 9.41421 7.58579C9.03914 7.21071 8.53043 7 8 7H6V6C6 5.46957 6.21071 4.96086 6.58579 4.58579C6.96086 4.21071 7.46957 4 8 4H9C9.53043 4 10.0391 4.21071 10.4142 4.58579C10.7893 4.96086 11 5.46957 11 6V7H14C14.2652 7 14.5196 7.10536 14.7071 7.29289C14.8946 7.48043 15 7.73478 15 8V9H19C19.2652 9 19.5196 9.10536 19.7071 9.29289C19.8946 9.48043 20 9.73478 20 10V11ZM8 21C7.73478 21 7.48043 20.8946 7.29289 20.7071C7.10536 20.5196 7 20.2652 7 20V17C7 16.7348 7.10536 16.4804 7.29289 16.2929C7.48043 16.1054 7.73478 16 8 16C8.26522 16 8.51957 16.1054 8.70711 16.2929C8.89464 16.4804 9 16.7348 9 17V20C9 20.2652 8.89464 20.5196 8.70711 20.7071C8.51957 20.8946 8.26522 21 8 21ZM4 22C3.73478 22 3.48043 21.8946 3.29289 21.7071C3.10536 21.5196 3 21.2652 3 21V17C3 16.7348 3.10536 16.4804 3.29289 16.2929C3.48043 16.1054 3.73478 16 4 16C4.26522 16 4.51957 16.1054 4.70711 16.2929C4.89464 16.4804 5 16.7348 5 17V21C5 21.2652 4.89464 21.5196 4.70711 21.7071C4.51957 21.8946 4.26522 22 4 22ZM12 19C11.7348 19 11.4804 18.8946 11.2929 18.7071C11.1054 18.5196 11 18.2652 11 18V17C11 16.7348 11.1054 16.4804 11.2929 16.2929C11.4804 16.1054 11.7348 16 12 16C12.2652 16 12.5196 16.1054 12.7071 16.2929C12.8946 16.4804 13 16.7348 13 17V18C13 18.2652 12.8946 18.5196 12.7071 18.7071C12.5196 18.8946 12.2652 19 12 19ZM19 21C19 21.1978 18.9414 21.3911 18.8315 21.5556C18.7216 21.72 18.5654 21.8482 18.3827 21.9239C18.2 21.9996 17.9989 22.0194 17.8049 21.9808C17.6109 21.9422 17.4327 21.847 17.2929 21.7071C17.153 21.5673 17.0578 21.3891 17.0192 21.1951C16.9806 21.0011 17.0004 20.8 17.0761 20.6173C17.1518 20.4346 17.28 20.2784 17.4444 20.1685C17.6089 20.0586 17.8022 20 18 20C18.2652 20 18.5196 20.1054 18.7071 20.2929C18.8946 20.4804 19 20.7348 19 21ZM15 21C15 21.1978 14.9414 21.3911 14.8315 21.5556C14.7216 21.72 14.5654 21.8482 14.3827 21.9239C14.2 21.9996 13.9989 22.0194 13.8049 21.9808C13.6109 21.9422 13.4327 21.847 13.2929 21.7071C13.153 21.5673 13.0578 21.3891 13.0192 21.1951C12.9806 21.0011 13.0004 20.8 13.0761 20.6173C13.1518 20.4346 13.28 20.2784 13.4444 20.1685C13.6089 20.0586 13.8022 20 14 20C14.2652 20 14.5196 20.1054 14.7071 20.2929C14.8946 20.4804 15 20.7348 15 21ZM17 17C17 17.1978 16.9414 17.3911 16.8315 17.5556C16.7216 17.72 16.5654 17.8482 16.3827 17.9239C16.2 17.9996 15.9989 18.0194 15.8049 17.9808C15.6109 17.9422 15.4327 17.847 15.2929 17.7071C15.153 17.5673 15.0578 17.3891 15.0192 17.1951C14.9806 17.0011 15.0004 16.8 15.0761 16.6173C15.1518 16.4346 15.28 16.2784 15.4444 16.1685C15.6089 16.0586 15.8022 16 16 16C16.2652 16 16.5196 16.1054 16.7071 16.2929C16.8946 16.4804 17 16.7348 17 17ZM21 17C21 17.1978 20.9414 17.3911 20.8315 17.5556C20.7216 17.72 20.5654 17.8482 20.3827 17.9239C20.2 17.9996 19.9989 18.0194 19.8049 17.9808C19.6109 17.9422 19.4327 17.847 19.2929 17.7071C19.153 17.5673 19.0578 17.3891 19.0192 17.1951C18.9806 17.0011 19.0004 16.8 19.0761 16.6173C19.1518 16.4346 19.28 16.2784 19.4444 16.1685C19.6089 16.0586 19.8022 16 20 16C20.2652 16 20.5196 16.1054 20.7071 16.2929C20.8946 16.4804 21 16.7348 21 17Z" fill="#0F1621"/>
</svg>
