<svg xmlns="http://www.w3.org/2000/svg" viewBox="0 0 24 24"><defs><style>.cls-1{fill:none;}</style></defs><g id="Layer_2" data-name="Layer 2"><g id="UI_Solid" data-name="UI Solid"><g id="rain"><rect class="cls-1" width="24" height="24"/><path d="M8,21H8a1,1,0,0,1-1-1V17a1,1,0,0,1,1-1H8a1,1,0,0,1,1,1v3A1,1,0,0,1,8,21ZM5,21V17a1,1,0,0,0-1-1H4a1,1,0,0,0-1,1v4a1,1,0,0,0,1,1H4A1,1,0,0,0,5,21Zm8,0V17a1,1,0,0,0-1-1h0a1,1,0,0,0-1,1v4a1,1,0,0,0,1,1h0A1,1,0,0,0,13,21Zm4-1V17a1,1,0,0,0-1-1h0a1,1,0,0,0-1,1v3a1,1,0,0,0,1,1h0A1,1,0,0,0,17,20Zm4,1V17a1,1,0,0,0-1-1h0a1,1,0,0,0-1,1v4a1,1,0,0,0,1,1h0A1,1,0,0,0,21,21Zm1-10V10a3,3,0,0,0-3-3H16.83A3,3,0,0,0,14,5H12.87A4,4,0,0,0,9,2H8A4,4,0,0,0,4,6V7.17A3,3,0,0,0,2,10v1a3,3,0,0,0,3,3H19A3,3,0,0,0,22,11Z"/></g></g></g></svg>