<svg xmlns="http://www.w3.org/2000/svg" viewBox="0 0 24 24"><defs><style>.cls-1{fill:none;}</style></defs><g id="Layer_2" data-name="Layer 2"><g id="UI_16" data-name="UI 16"><g id="rain-freezing"><rect class="cls-1" width="24" height="24"/><path d="M19,7H16.76a3,3,0,0,0-2.83-2H12.87A4,4,0,0,0,9,2H8A4,4,0,0,0,4,6V7.17A3,3,0,0,0,2,10v1a3,3,0,0,0,3,3H19a3,3,0,0,0,3-3V10A3,3,0,0,0,19,7Zm1,4a1,1,0,0,1-1,1H5a1,1,0,0,1-1-1V10A1,1,0,0,1,5,9h5A2,2,0,0,0,8,7H6V6A2,2,0,0,1,8,4H9a2,2,0,0,1,2,2V7h3a1,1,0,0,1,1,1V9h4a1,1,0,0,1,1,1Zm-4.07,5h4l-2,6Zm-6,0h4l-2,5Zm-6,0h4l-2,3Z"/></g></g></g></svg>