<svg width="24" height="24" viewBox="0 0 24 24" fill="none" xmlns="http://www.w3.org/2000/svg">
<path d="M3 21C2.73478 21 2.48043 20.8947 2.29289 20.7071C2.10536 20.5196 2 20.2653 2 20V18C2 17.7348 2.10536 17.4805 2.29289 17.2929C2.48043 17.1054 2.73478 17 3 17C3.26522 17 3.51957 17.1054 3.70711 17.2929C3.89464 17.4805 4 17.7348 4 18V20C4 20.2653 3.89464 20.5196 3.70711 20.7071C3.51957 20.8947 3.26522 21 3 21ZM8 21V18C8 17.7348 7.89464 17.4805 7.70711 17.2929C7.51957 17.1054 7.26522 17 7 17C6.73478 17 6.48043 17.1054 6.29289 17.2929C6.10536 17.4805 6 17.7348 6 18V21C6 21.2653 6.10536 21.5196 6.29289 21.7071C6.48043 21.8947 6.73478 22 7 22C7.26522 22 7.51957 21.8947 7.70711 21.7071C7.89464 21.5196 8 21.2653 8 21ZM12 20V18C12 17.7348 11.8946 17.4805 11.7071 17.2929C11.5196 17.1054 11.2652 17 11 17C10.7348 17 10.4804 17.1054 10.2929 17.2929C10.1054 17.4805 10 17.7348 10 18V20C10 20.2653 10.1054 20.5196 10.2929 20.7071C10.4804 20.8947 10.7348 21 11 21C11.2652 21 11.5196 20.8947 11.7071 20.7071C11.8946 20.5196 12 20.2653 12 20ZM11 9.00004H9.35C9.35 8.46961 9.13929 7.9609 8.76421 7.58583C8.38914 7.21075 7.88043 7.00004 7.35 7.00004H6C6 6.46961 5.78929 5.9609 5.41421 5.58583C5.03914 5.21075 4.53043 5.00004 4 5.00004H2V15H11C11.7956 15 12.5587 14.684 13.1213 14.1214C13.6839 13.5588 14 12.7957 14 12C14 11.2044 13.6839 10.4413 13.1213 9.87872C12.5587 9.31611 11.7956 9.00004 11 9.00004ZM21.68 8.30004C20.8871 8.66938 19.9999 8.7863 19.1384 8.63499C18.2769 8.48369 17.4826 8.07145 16.863 7.45403C16.2434 6.83661 15.8284 6.04381 15.674 5.18283C15.5197 4.32185 15.6335 3.43424 16 2.64004C16.0652 2.5406 16.092 2.42085 16.0755 2.3031C16.0589 2.18535 16.0001 2.07764 15.91 2.00004C15.8284 1.94144 15.7305 1.90991 15.63 1.90991C15.5295 1.90991 15.4316 1.94144 15.35 2.00004C14.7966 2.27811 14.2958 2.65032 13.87 3.10004C13.3431 3.61768 12.9345 4.24318 12.6721 4.93363C12.4097 5.62408 12.2998 6.36313 12.35 7.10004C13.4546 7.32498 14.4507 7.91656 15.1768 8.7788C15.9029 9.64103 16.3163 10.7233 16.35 11.85C17.1296 12.0422 17.943 12.0519 18.7269 11.8785C19.5109 11.7051 20.2442 11.3531 20.87 10.85C21.4961 10.3525 22.002 9.72011 22.35 9.00004C22.4373 8.91041 22.4862 8.7902 22.4862 8.66504C22.4862 8.53988 22.4373 8.41967 22.35 8.33004C22.3091 8.28235 22.2588 8.24355 22.2023 8.21604C22.1458 8.18852 22.0843 8.17288 22.0215 8.17007C21.9587 8.16725 21.896 8.17734 21.8373 8.19969C21.7786 8.22205 21.725 8.2562 21.68 8.30004Z" fill="#0F1621"/>
</svg>
