<svg xmlns="http://www.w3.org/2000/svg" width="16" height="16" viewBox="0 0 16 16"><rect width="16" height="16" style="fill:none"/><path d="M12,12v2a1,1,0,0,1-2,0V12a1,1,0,0,1,2,0ZM7,11a1,1,0,0,0-1,1v2a1,1,0,0,0,2,0V12A1,1,0,0,0,7,11ZM3,11a1,1,0,0,0-1,1v2a1,1,0,0,0,2,0V12A1,1,0,0,0,3,11Zm8.5-5h-.59A1.51,1.51,0,0,0,9.5,5H8A2,2,0,0,0,4,5V6H2.5a1.5,1.5,0,0,0,0,3h9a1.5,1.5,0,0,0,0-3ZM9.16,3.5H9.5a3,3,0,0,1,2.24,1,3,3,0,0,1,2.59,2,3.44,3.44,0,0,0,.67-2A3.49,3.49,0,0,0,8.56,2.62,3.34,3.34,0,0,1,9.16,3.5Z"/></svg>