<svg xmlns="http://www.w3.org/2000/svg" viewBox="0 0 24 24"><defs><style>.cls-1{fill:none;}</style></defs><g id="Layer_2" data-name="Layer 2"><g id="UI_Solid" data-name="UI Solid"><g id="shower-night"><rect class="cls-1" width="24" height="24"/><path d="M3,21H3a1,1,0,0,1-1-1V18a1,1,0,0,1,1-1H3a1,1,0,0,1,1,1v2A1,1,0,0,1,3,21Zm5,0V18a1,1,0,0,0-1-1H7a1,1,0,0,0-1,1v3a1,1,0,0,0,1,1H7A1,1,0,0,0,8,21Zm4-1V18a1,1,0,0,0-1-1h0a1,1,0,0,0-1,1v2a1,1,0,0,0,1,1h0A1,1,0,0,0,12,20ZM11,9H9.35a2,2,0,0,0-2-2H6A2,2,0,0,0,4,5H2V15h9a3,3,0,0,0,3-3h0A3,3,0,0,0,11,9Zm10.68-.7A4.27,4.27,0,0,1,16,2.64.49.49,0,0,0,15.91,2a.48.48,0,0,0-.56,0,5.34,5.34,0,0,0-1.48,1.1,5.12,5.12,0,0,0-1.52,4,5,5,0,0,1,4,4.75,5.22,5.22,0,0,0,4.52-1A5.32,5.32,0,0,0,22.35,9a.48.48,0,0,0,0-.67A.46.46,0,0,0,21.68,8.3Z"/></g></g></g></svg>