<svg width="24" height="24" viewBox="0 0 24 24" fill="none" xmlns="http://www.w3.org/2000/svg">
<path d="M3 21C2.73478 21 2.48043 20.8946 2.29289 20.7071C2.10536 20.5196 2 20.2652 2 20V18C2 17.7348 2.10536 17.4804 2.29289 17.2929C2.48043 17.1054 2.73478 17 3 17C3.26522 17 3.51957 17.1054 3.70711 17.2929C3.89464 17.4804 4 17.7348 4 18V20C4 20.2652 3.89464 20.5196 3.70711 20.7071C3.51957 20.8946 3.26522 21 3 21ZM8 21V18C8 17.7348 7.89464 17.4804 7.70711 17.2929C7.51957 17.1054 7.26522 17 7 17C6.73478 17 6.48043 17.1054 6.29289 17.2929C6.10536 17.4804 6 17.7348 6 18V21C6 21.2652 6.10536 21.5196 6.29289 21.7071C6.48043 21.8946 6.73478 22 7 22C7.26522 22 7.51957 21.8946 7.70711 21.7071C7.89464 21.5196 8 21.2652 8 21ZM12 20V18C12 17.7348 11.8946 17.4804 11.7071 17.2929C11.5196 17.1054 11.2652 17 11 17C10.7348 17 10.4804 17.1054 10.2929 17.2929C10.1054 17.4804 10 17.7348 10 18V20C10 20.2652 10.1054 20.5196 10.2929 20.7071C10.4804 20.8946 10.7348 21 11 21C11.2652 21 11.5196 20.8946 11.7071 20.7071C11.8946 20.5196 12 20.2652 12 20ZM11 9H8.53C8.53 8.46957 8.31929 7.96086 7.94421 7.58579C7.56914 7.21071 7.06043 7 6.53 7H6C6 6.46957 5.78929 5.96086 5.41421 5.58579C5.03914 5.21071 4.53043 5 4 5H2V7H3C3.26522 7 3.51957 7.10536 3.70711 7.29289C3.89464 7.48043 4 7.73478 4 8V9H6C6.26522 9 6.51957 9.10536 6.70711 9.29289C6.89464 9.48043 7 9.73478 7 10V11H11C11.2652 11 11.5196 11.1054 11.7071 11.2929C11.8946 11.4804 12 11.7348 12 12C12 12.2652 11.8946 12.5196 11.7071 12.7071C11.5196 12.8946 11.2652 13 11 13H2V15H11C11.7956 15 12.5587 14.6839 13.1213 14.1213C13.6839 13.5587 14 12.7956 14 12C14 11.2044 13.6839 10.4413 13.1213 9.87868C12.5587 9.31607 11.7956 9 11 9ZM14 2C13.7348 2 13.4804 2.10536 13.2929 2.29289C13.1054 2.48043 13 2.73478 13 3V4.12C13.6613 3.99999 14.3387 3.99999 15 4.12V3C15 2.73478 14.8946 2.48043 14.7071 2.29289C14.5196 2.10536 14.2652 2 14 2ZM19.21 4.35C19.117 4.25627 19.0064 4.18188 18.8846 4.13111C18.7627 4.08034 18.632 4.0542 18.5 4.0542C18.368 4.0542 18.2373 4.08034 18.1154 4.13111C17.9936 4.18188 17.883 4.25627 17.79 4.35L17 5.14C17.5497 5.5302 18.0298 6.01025 18.42 6.56L19.21 5.77C19.3962 5.58264 19.5008 5.32919 19.5008 5.065C19.5008 4.80081 19.3962 4.54736 19.21 4.36V4.35ZM20.65 9H19.53C19.65 9.66127 19.65 10.3387 19.53 11H20.65C20.9152 11 21.1696 10.8946 21.3571 10.7071C21.5446 10.5196 21.65 10.2652 21.65 10C21.65 9.73478 21.5446 9.48043 21.3571 9.29289C21.1696 9.10536 20.9152 9 20.65 9ZM19.21 14.54L18.42 13.75C18.0298 14.2997 17.5497 14.7798 17 15.17L17.79 15.96C17.9783 16.1483 18.2337 16.2541 18.5 16.2541C18.7663 16.2541 19.0217 16.1483 19.21 15.96C19.3983 15.7717 19.5041 15.5163 19.5041 15.25C19.5041 14.9837 19.3983 14.7283 19.21 14.54ZM12.9 6C11.8629 5.99889 10.8634 6.388 10.1 7.09C11.4395 7.19371 12.6899 7.80133 13.5992 8.79042C14.5085 9.7795 15.0091 11.0765 15 12.42V13.49C15.01 13.6599 15.01 13.8301 15 14C15.6438 13.6167 16.1763 13.0717 16.5446 12.4192C16.913 11.7667 17.1044 11.0293 17.1 10.28C17.1053 9.72319 17.0008 9.17079 16.7926 8.65435C16.5844 8.13791 16.2765 7.66754 15.8865 7.2701C15.4965 6.87266 15.032 6.55593 14.5196 6.33801C14.0071 6.12008 13.4568 6.00523 12.9 6Z" fill="#0F1621"/>
</svg>
