<svg xmlns="http://www.w3.org/2000/svg" width="24" height="24" viewBox="0 0 24 24"><rect width="24" height="24" style="fill:none"/><path d="M3,21H3a1,1,0,0,1-1-1V18a1,1,0,0,1,1-1H3a1,1,0,0,1,1,1v2A1,1,0,0,1,3,21Zm5,0V18a1,1,0,0,0-1-1H7a1,1,0,0,0-1,1v3a1,1,0,0,0,1,1H7A1,1,0,0,0,8,21Zm4-1V18a1,1,0,0,0-1-1h0a1,1,0,0,0-1,1v2a1,1,0,0,0,1,1h0A1,1,0,0,0,12,20ZM11,9H9A2,2,0,0,0,7,7H6A2,2,0,0,0,4,5H2V7H3A1,1,0,0,1,4,8V9H6a1,1,0,0,1,1,1v1h4a1,1,0,0,1,1,1h0a1,1,0,0,1-1,1H2v2h9a3,3,0,0,0,3-3h0A3,3,0,0,0,11,9Zm10.28-.7a4.27,4.27,0,0,1-5.66-5.66A.47.47,0,0,0,15.51,2,.48.48,0,0,0,15,2a5.49,5.49,0,0,0-1.48,1.1,5.15,5.15,0,0,0-1.52,4,5,5,0,0,1,4,4.75A5.29,5.29,0,0,0,22,9a.47.47,0,1,0-.67-.67Z"/></svg>