<svg width="24" height="24" viewBox="0 0 24 24" fill="none" xmlns="http://www.w3.org/2000/svg">
<path d="M3 21C2.73478 21 2.48043 20.8946 2.29289 20.7071C2.10536 20.5196 2 20.2652 2 20V18C2 17.7348 2.10536 17.4804 2.29289 17.2929C2.48043 17.1054 2.73478 17 3 17C3.26522 17 3.51957 17.1054 3.70711 17.2929C3.89464 17.4804 4 17.7348 4 18V20C4 20.2652 3.89464 20.5196 3.70711 20.7071C3.51957 20.8946 3.26522 21 3 21ZM8 21V18C8 17.7348 7.89464 17.4804 7.70711 17.2929C7.51957 17.1054 7.26522 17 7 17C6.73478 17 6.48043 17.1054 6.29289 17.2929C6.10536 17.4804 6 17.7348 6 18V21C6 21.2652 6.10536 21.5196 6.29289 21.7071C6.48043 21.8946 6.73478 22 7 22C7.26522 22 7.51957 21.8946 7.70711 21.7071C7.89464 21.5196 8 21.2652 8 21ZM12 20V18C12 17.7348 11.8946 17.4804 11.7071 17.2929C11.5196 17.1054 11.2652 17 11 17C10.7348 17 10.4804 17.1054 10.2929 17.2929C10.1054 17.4804 10 17.7348 10 18V20C10 20.2652 10.1054 20.5196 10.2929 20.7071C10.4804 20.8946 10.7348 21 11 21C11.2652 21 11.5196 20.8946 11.7071 20.7071C11.8946 20.5196 12 20.2652 12 20ZM14 2C13.7348 2 13.4804 2.10536 13.2929 2.29289C13.1054 2.48043 13 2.73478 13 3V4.09C13.6613 3.96999 14.3387 3.96999 15 4.09V3C15 2.73478 14.8946 2.48043 14.7071 2.29289C14.5196 2.10536 14.2652 2 14 2ZM19.68 4.35C19.4926 4.16375 19.2392 4.05921 18.975 4.05921C18.7108 4.05921 18.4574 4.16375 18.27 4.35L17.48 5.14C18.0297 5.5302 18.5098 6.01025 18.9 6.56L19.69 5.77C19.7837 5.67704 19.8581 5.56644 19.9089 5.44458C19.9597 5.32272 19.9858 5.19201 19.9858 5.06C19.9858 4.92799 19.9597 4.79728 19.9089 4.67542C19.8581 4.55356 19.7837 4.44296 19.69 4.35H19.68ZM21.12 9H20C20.12 9.66127 20.12 10.3387 20 11H21.12C21.3852 11 21.6396 10.8946 21.8271 10.7071C22.0146 10.5196 22.12 10.2652 22.12 10C22.12 9.73478 22.0146 9.48043 21.8271 9.29289C21.6396 9.10536 21.3852 9 21.12 9ZM19.68 14.51L18.89 13.72C18.4998 14.2697 18.0197 14.7498 17.47 15.14L18.26 15.93C18.4483 16.1183 18.7037 16.2241 18.97 16.2241C19.2363 16.2241 19.4917 16.1183 19.68 15.93C19.8683 15.7417 19.9741 15.4863 19.9741 15.22C19.9741 14.9537 19.8683 14.6983 19.68 14.51ZM13.9 6C12.8629 5.99889 11.8634 6.388 11.1 7.09C12.4352 7.19105 13.6827 7.79375 14.5917 8.77695C15.5007 9.76016 16.0038 11.051 16 12.39V13.46C16.0112 13.6398 16.0112 13.8202 16 14C16.6438 13.6167 17.1763 13.0717 17.5446 12.4192C17.913 11.7667 18.1044 11.0293 18.1 10.28C18.1053 9.72319 18.0008 9.17079 17.7926 8.65435C17.5844 8.13791 17.2765 7.66754 16.8865 7.2701C16.4965 6.87266 16.032 6.55593 15.5196 6.33801C15.0071 6.12008 14.4568 6.00523 13.9 6ZM11 9H9C9 8.46957 8.78929 7.96086 8.41421 7.58579C8.03914 7.21071 7.53043 7 7 7H6C6 6.46957 5.78929 5.96086 5.41421 5.58579C5.03914 5.21071 4.53043 5 4 5H2V15H11C11.7956 15 12.5587 14.6839 13.1213 14.1213C13.6839 13.5587 14 12.7956 14 12C14 11.2044 13.6839 10.4413 13.1213 9.87868C12.5587 9.31607 11.7956 9 11 9Z" fill="#0F1621"/>
</svg>
