<svg xmlns="http://www.w3.org/2000/svg" width="16" height="16" viewBox="0 0 16 16"><rect width="16" height="16" style="fill:none"/><path d="M12,12v2a1,1,0,0,1-2,0V12a1,1,0,0,1,2,0ZM7,11a1,1,0,0,0-1,1v2a1,1,0,0,0,2,0V12A1,1,0,0,0,7,11ZM3,11a1,1,0,0,0-1,1v2a1,1,0,0,0,2,0V12A1,1,0,0,0,3,11Zm9-3H10A1.51,1.51,0,0,0,8.59,7H7A2,2,0,0,0,4.66,5,2.07,2.07,0,0,0,3,7.11V8H2a1,1,0,0,0,0,2H12a1,1,0,0,0,0-2Zm2.51-3.69a2,2,0,1,1-2.82-2.82A.28.28,0,0,0,11.51,1,3.49,3.49,0,0,0,9,2.25,3.24,3.24,0,0,0,8,4.63,3.69,3.69,0,0,0,8.34,6h.25a2.51,2.51,0,0,1,2,1H12a2,2,0,0,1,1.23.43A3.49,3.49,0,0,0,13.75,7,3.51,3.51,0,0,0,15,4.49.28.28,0,0,0,14.51,4.31Z"/></svg>