<svg xmlns="http://www.w3.org/2000/svg" viewBox="0 0 24 24"><defs><style>.cls-1{fill:none;}</style></defs><g id="Layer_2" data-name="Layer 2"><g id="UI_16" data-name="UI 16"><g id="shower-day"><rect class="cls-1" width="24" height="24"/><path d="M3,21H3a1,1,0,0,1-1-1V18a1,1,0,0,1,1-1H3a1,1,0,0,1,1,1v2A1,1,0,0,1,3,21Zm5,0V18a1,1,0,0,0-1-1H7a1,1,0,0,0-1,1v3a1,1,0,0,0,1,1H7A1,1,0,0,0,8,21Zm4-1V18a1,1,0,0,0-1-1h0a1,1,0,0,0-1,1v2a1,1,0,0,0,1,1h0A1,1,0,0,0,12,20ZM14,2a1,1,0,0,0-1,1V4.09a5.6,5.6,0,0,1,2,0V3A1,1,0,0,0,14,2Zm5.68,2.35a1,1,0,0,0-1.41,0h0l-.79.79a6,6,0,0,1,1.42,1.42l.79-.79a1,1,0,0,0,0-1.42ZM21.12,9H20a5.6,5.6,0,0,1,0,2h1.12a1,1,0,0,0,0-2Zm-1.44,5.51-.79-.79a6,6,0,0,1-1.42,1.42l.79.79a1,1,0,0,0,1.42-1.42ZM13.9,6a4.13,4.13,0,0,0-2.8,1.09A5.3,5.3,0,0,1,16,12.39v1.07A4.34,4.34,0,0,1,16,14a4.3,4.3,0,0,0,2.1-3.72A4.24,4.24,0,0,0,13.9,6ZM11,9H9A2,2,0,0,0,7,7H6A2,2,0,0,0,4,5H2V15h9a3,3,0,0,0,3-3h0A3,3,0,0,0,11,9Z"/></g></g></g></svg>