<svg width="16" height="16" viewBox="0 0 16 16" fill="none" xmlns="http://www.w3.org/2000/svg">
<path d="M12 12V14C12 14.2652 11.8946 14.5196 11.7071 14.7071C11.5196 14.8946 11.2652 15 11 15C10.7348 15 10.4804 14.8946 10.2929 14.7071C10.1054 14.5196 10 14.2652 10 14V12C10 11.7348 10.1054 11.4804 10.2929 11.2929C10.4804 11.1054 10.7348 11 11 11C11.2652 11 11.5196 11.1054 11.7071 11.2929C11.8946 11.4804 12 11.7348 12 12ZM7 11C6.73478 11 6.48043 11.1054 6.29289 11.2929C6.10536 11.4804 6 11.7348 6 12V14C6 14.2652 6.10536 14.5196 6.29289 14.7071C6.48043 14.8946 6.73478 15 7 15C7.26522 15 7.51957 14.8946 7.70711 14.7071C7.89464 14.5196 8 14.2652 8 14V12C8 11.7348 7.89464 11.4804 7.70711 11.2929C7.51957 11.1054 7.26522 11 7 11ZM3 11C2.73478 11 2.48043 11.1054 2.29289 11.2929C2.10536 11.4804 2 11.7348 2 12V14C2 14.2652 2.10536 14.5196 2.29289 14.7071C2.48043 14.8946 2.73478 15 3 15C3.26522 15 3.51957 14.8946 3.70711 14.7071C3.89464 14.5196 4 14.2652 4 14V12C4 11.7348 3.89464 11.4804 3.70711 11.2929C3.51957 11.1054 3.26522 11 3 11ZM12 8H10C9.8956 7.70903 9.70441 7.45711 9.45225 7.27828C9.2001 7.09944 8.89913 7.00231 8.59 7H7C7.00428 6.70613 6.94375 6.41493 6.8227 6.14712C6.70165 5.8793 6.52307 5.64146 6.29965 5.45051C6.07624 5.25955 5.81349 5.12019 5.53009 5.04232C5.24669 4.96446 4.94962 4.95001 4.66 5C4.1777 5.09707 3.74574 5.36274 3.44155 5.7494C3.13736 6.13605 2.98082 6.6184 3 7.11V8H2C1.73478 8 1.48043 8.10536 1.29289 8.29289C1.10536 8.48043 1 8.73478 1 9C1 9.26522 1.10536 9.51957 1.29289 9.70711C1.48043 9.89464 1.73478 10 2 10H12C12.2652 10 12.5196 9.89464 12.7071 9.70711C12.8946 9.51957 13 9.26522 13 9C13 8.73478 12.8946 8.48043 12.7071 8.29289C12.5196 8.10536 12.2652 8 12 8ZM14.51 4.31C14.3307 4.51936 14.1101 4.6894 13.8619 4.80945C13.6138 4.9295 13.3435 4.99696 13.0681 5.0076C12.7927 5.01824 12.518 4.97182 12.2614 4.87127C12.0047 4.77073 11.7716 4.61821 11.5767 4.4233C11.3818 4.22839 11.2293 3.9953 11.1287 3.73865C11.0282 3.482 10.9818 3.20733 10.9924 2.93189C11.003 2.65646 11.0705 2.38619 11.1905 2.13806C11.3106 1.88993 11.4806 1.66929 11.69 1.49C11.7323 1.45268 11.7624 1.40343 11.7763 1.34872C11.7901 1.29401 11.7871 1.23638 11.7677 1.1834C11.7482 1.13042 11.7132 1.08456 11.6672 1.05183C11.6212 1.01911 11.5664 1.00104 11.51 1C11.0279 1.02347 10.556 1.14668 10.1239 1.36183C9.69191 1.57699 9.3092 1.87941 9 2.25C8.67911 2.557 8.42475 2.92668 8.25272 3.3361C8.0807 3.74552 7.99468 4.18594 8 4.63C8.02412 5.10429 8.13956 5.56947 8.34 6H8.59C8.97798 6.00077 9.36049 6.09147 9.70751 6.26498C10.0545 6.43849 10.3566 6.69008 10.59 7H12C12.4465 7.00201 12.8795 7.15338 13.23 7.43C13.4168 7.3038 13.591 7.15979 13.75 7C14.1197 6.68999 14.4215 6.30711 14.6365 5.87524C14.8516 5.44338 14.9753 4.97182 15 4.49C14.999 4.43357 14.9809 4.37877 14.9482 4.33278C14.9154 4.2868 14.8696 4.25178 14.8166 4.23232C14.7636 4.21286 14.706 4.20986 14.6513 4.22372C14.5966 4.23759 14.5473 4.26766 14.51 4.31Z" fill="#0F1621"/>
</svg>
