<svg xmlns="http://www.w3.org/2000/svg" width="24" height="24" viewBox="0 0 24 24"><rect width="24" height="24" style="fill:none"/><path d="M3,21H3a1,1,0,0,1-1-1V18a1,1,0,0,1,1-1H3a1,1,0,0,1,1,1v2A1,1,0,0,1,3,21Zm5,0V18a1,1,0,0,0-1-1H7a1,1,0,0,0-1,1v3a1,1,0,0,0,1,1H7A1,1,0,0,0,8,21Zm4-1V18a1,1,0,0,0-1-1h0a1,1,0,0,0-1,1v2a1,1,0,0,0,1,1h0A1,1,0,0,0,12,20ZM11,9H8.53a2,2,0,0,0-2-2H6A2,2,0,0,0,4,5H2V7H3A1,1,0,0,1,4,8V9H6a1,1,0,0,1,1,1v1h4a1,1,0,0,1,1,1h0a1,1,0,0,1-1,1H2v2h9a3,3,0,0,0,3-3h0A3,3,0,0,0,11,9Zm3-7a1,1,0,0,0-1,1V4.12a5.6,5.6,0,0,1,2,0V3A1,1,0,0,0,14,2Zm5.21,2.35a1,1,0,0,0-1.42,0h0L17,5.14a6,6,0,0,1,1.42,1.42l.79-.79a1,1,0,0,0,0-1.41ZM20.65,9H19.53a5.6,5.6,0,0,1,0,2h1.12a1,1,0,0,0,0-2Zm-1.44,5.54-.79-.79A6,6,0,0,1,17,15.17l.79.79a1,1,0,0,0,1.42-1.42ZM12.9,6a4.13,4.13,0,0,0-2.8,1.09A5.31,5.31,0,0,1,15,12.42v1.07A4.34,4.34,0,0,1,15,14a4.3,4.3,0,0,0,2.1-3.72A4.24,4.24,0,0,0,12.9,6Z"/></svg>