<svg xmlns="http://www.w3.org/2000/svg" width="24" height="24" viewBox="0 0 24 24"><rect width="24" height="24" style="fill:none"/><path d="M20,22H15a1,1,0,0,1-1-1h0a1,1,0,0,1,1-1h5a1,1,0,0,1,1,1h0A1,1,0,0,1,20,22Zm-4-5h0a1,1,0,0,0-1-1H13a1,1,0,0,0-1,1h0a1,1,0,0,0,1,1h2A1,1,0,0,0,16,17Zm6,0h0a1,1,0,0,0-1-1H19a1,1,0,0,0-1,1h0a1,1,0,0,0,1,1h2A1,1,0,0,0,22,17ZM12,21h0a1,1,0,0,0-1-1H3a1,1,0,0,0-1,1H2a1,1,0,0,0,1,1h8A1,1,0,0,0,12,21Zm-2-4h0a1,1,0,0,0-1-1H4a1,1,0,0,0-1,1H3a1,1,0,0,0,1,1H9A1,1,0,0,0,10,17Zm12-6V10a3,3,0,0,0-3-3H16.83A3,3,0,0,0,14,5H12.87A4,4,0,0,0,9,2H8A4,4,0,0,0,4,6V7.17A3,3,0,0,0,2,10v1a3,3,0,0,0,3,3H19A3,3,0,0,0,22,11Z"/></svg>