<svg width="24" height="24" viewBox="0 0 24 24" fill="none" xmlns="http://www.w3.org/2000/svg">
<path d="M19 7H16.37C16.1631 6.41484 15.7798 5.90826 15.273 5.55006C14.7661 5.19186 14.1607 4.99967 13.54 5H12.87C12.6484 4.14187 12.1481 3.38163 11.4477 2.83864C10.7472 2.29565 9.88627 2.00066 9 2H8C6.93913 2 5.92172 2.42143 5.17157 3.17157C4.42143 3.92172 4 4.93913 4 6V7.17C3.41484 7.37688 2.90826 7.76016 2.55006 8.26702C2.19186 8.77387 1.99968 9.37935 2 10V11C2 11.7956 2.31607 12.5587 2.87868 13.1213C3.44129 13.6839 4.20435 14 5 14H19C19.7956 14 20.5587 13.6839 21.1213 13.1213C21.6839 12.5587 22 11.7956 22 11V10C22 9.20435 21.6839 8.44129 21.1213 7.87868C20.5587 7.31607 19.7956 7 19 7ZM20 11C20 11.2652 19.8946 11.5196 19.7071 11.7071C19.5196 11.8946 19.2652 12 19 12H5C4.73478 12 4.48043 11.8946 4.29289 11.7071C4.10536 11.5196 4 11.2652 4 11V10C4 9.73478 4.10536 9.48043 4.29289 9.29289C4.48043 9.10536 4.73478 9 5 9H10C10 8.46957 9.78929 7.96086 9.41421 7.58579C9.03914 7.21071 8.53043 7 8 7H6V6C6 5.46957 6.21071 4.96086 6.58579 4.58579C6.96086 4.21071 7.46957 4 8 4H9C9.53043 4 10.0391 4.21071 10.4142 4.58579C10.7893 4.96086 11 5.46957 11 6V7H14C14.2652 7 14.5196 7.10536 14.7071 7.29289C14.8946 7.48043 15 7.73478 15 8V9H19C19.2652 9 19.5196 9.10536 19.7071 9.29289C19.8946 9.48043 20 9.73478 20 10V11ZM6.54 21C6.54 21.1978 6.48135 21.3911 6.37147 21.5556C6.26159 21.72 6.10541 21.8482 5.92268 21.9239C5.73996 21.9996 5.53889 22.0194 5.34491 21.9808C5.15093 21.9422 4.97275 21.847 4.83289 21.7071C4.69304 21.5673 4.5978 21.3891 4.55922 21.1951C4.52063 21.0011 4.54043 20.8 4.61612 20.6173C4.69181 20.4346 4.81998 20.2784 4.98443 20.1685C5.14888 20.0586 5.34222 20 5.54 20C5.80522 20 6.05957 20.1054 6.24711 20.2929C6.43464 20.4804 6.54 20.7348 6.54 21ZM10.54 21C10.54 21.1978 10.4814 21.3911 10.3715 21.5556C10.2616 21.72 10.1054 21.8482 9.92268 21.9239C9.73996 21.9996 9.53889 22.0194 9.34491 21.9808C9.15093 21.9422 8.97275 21.847 8.83289 21.7071C8.69304 21.5673 8.5978 21.3891 8.55922 21.1951C8.52063 21.0011 8.54043 20.8 8.61612 20.6173C8.69181 20.4346 8.81998 20.2784 8.98443 20.1685C9.14888 20.0586 9.34222 20 9.54 20C9.80522 20 10.0596 20.1054 10.2471 20.2929C10.4346 20.4804 10.54 20.7348 10.54 21ZM18.54 21C18.54 21.1978 18.4814 21.3911 18.3715 21.5556C18.2616 21.72 18.1054 21.8482 17.9227 21.9239C17.74 21.9996 17.5389 22.0194 17.3449 21.9808C17.1509 21.9422 16.9727 21.847 16.8329 21.7071C16.693 21.5673 16.5978 21.3891 16.5592 21.1951C16.5206 21.0011 16.5404 20.8 16.6161 20.6173C16.6918 20.4346 16.82 20.2784 16.9844 20.1685C17.1489 20.0586 17.3422 20 17.54 20C17.8052 20 18.0596 20.1054 18.2471 20.2929C18.4346 20.4804 18.54 20.7348 18.54 21ZM14.54 21C14.54 21.1978 14.4814 21.3911 14.3715 21.5556C14.2616 21.72 14.1054 21.8482 13.9227 21.9239C13.74 21.9996 13.5389 22.0194 13.3449 21.9808C13.1509 21.9422 12.9727 21.847 12.8329 21.7071C12.693 21.5673 12.5978 21.3891 12.5592 21.1951C12.5206 21.0011 12.5404 20.8 12.6161 20.6173C12.6918 20.4346 12.82 20.2784 12.9844 20.1685C13.1489 20.0586 13.3422 20 13.54 20C13.8052 20 14.0596 20.1054 14.2471 20.2929C14.4346 20.4804 14.54 20.7348 14.54 21ZM4.54 17C4.54 17.1978 4.48135 17.3911 4.37147 17.5556C4.26159 17.72 4.10541 17.8482 3.92268 17.9239C3.73996 17.9996 3.53889 18.0194 3.34491 17.9808C3.15093 17.9422 2.97275 17.847 2.83289 17.7071C2.69304 17.5673 2.5978 17.3891 2.55922 17.1951C2.52063 17.0011 2.54043 16.8 2.61612 16.6173C2.69181 16.4346 2.81998 16.2784 2.98443 16.1685C3.14888 16.0586 3.34222 16 3.54 16C3.67132 16 3.80136 16.0259 3.92268 16.0761C4.04401 16.1264 4.15425 16.2 4.24711 16.2929C4.33997 16.3858 4.41363 16.496 4.46388 16.6173C4.51413 16.7386 4.54 16.8687 4.54 17ZM8.54 17C8.54 17.1978 8.48135 17.3911 8.37147 17.5556C8.26159 17.72 8.10541 17.8482 7.92268 17.9239C7.73996 17.9996 7.53889 18.0194 7.34491 17.9808C7.15093 17.9422 6.97275 17.847 6.83289 17.7071C6.69304 17.5673 6.5978 17.3891 6.55922 17.1951C6.52063 17.0011 6.54043 16.8 6.61612 16.6173C6.69181 16.4346 6.81998 16.2784 6.98443 16.1685C7.14888 16.0586 7.34222 16 7.54 16C7.80522 16 8.05957 16.1054 8.24711 16.2929C8.43464 16.4804 8.54 16.7348 8.54 17ZM12.54 17C12.54 17.1978 12.4814 17.3911 12.3715 17.5556C12.2616 17.72 12.1054 17.8482 11.9227 17.9239C11.74 17.9996 11.5389 18.0194 11.3449 17.9808C11.1509 17.9422 10.9727 17.847 10.8329 17.7071C10.693 17.5673 10.5978 17.3891 10.5592 17.1951C10.5206 17.0011 10.5404 16.8 10.6161 16.6173C10.6918 16.4346 10.82 16.2784 10.9844 16.1685C11.1489 16.0586 11.3422 16 11.54 16C11.8052 16 12.0596 16.1054 12.2471 16.2929C12.4346 16.4804 12.54 16.7348 12.54 17ZM16.54 17C16.54 17.1978 16.4814 17.3911 16.3715 17.5556C16.2616 17.72 16.1054 17.8482 15.9227 17.9239C15.74 17.9996 15.5389 18.0194 15.3449 17.9808C15.1509 17.9422 14.9727 17.847 14.8329 17.7071C14.693 17.5673 14.5978 17.3891 14.5592 17.1951C14.5206 17.0011 14.5404 16.8 14.6161 16.6173C14.6918 16.4346 14.82 16.2784 14.9844 16.1685C15.1489 16.0586 15.3422 16 15.54 16C15.8052 16 16.0596 16.1054 16.2471 16.2929C16.4346 16.4804 16.54 16.7348 16.54 17ZM20.54 17C20.54 17.1978 20.4814 17.3911 20.3715 17.5556C20.2616 17.72 20.1054 17.8482 19.9227 17.9239C19.74 17.9996 19.5389 18.0194 19.3449 17.9808C19.1509 17.9422 18.9727 17.847 18.8329 17.7071C18.693 17.5673 18.5978 17.3891 18.5592 17.1951C18.5206 17.0011 18.5404 16.8 18.6161 16.6173C18.6918 16.4346 18.82 16.2784 18.9844 16.1685C19.1489 16.0586 19.3422 16 19.54 16C19.8052 16 20.0596 16.1054 20.2471 16.2929C20.4346 16.4804 20.54 16.7348 20.54 17Z" fill="#0F1621"/>
</svg>
