<svg xmlns="http://www.w3.org/2000/svg" viewBox="0 0 24 24"><g id="Layer_2" data-name="Layer 2"><g id="UI_Solid" data-name="UI Solid"><g id="snowfall"><rect width="24" height="24" style="fill:none"/><path d="M19,14H5a3,3,0,0,1-3-3V10A3,3,0,0,1,4,7.17V6A4,4,0,0,1,8,2H9a4,4,0,0,1,3.87,3h1.54a3,3,0,0,1,2.83,2H19a3,3,0,0,1,3,3v1A3,3,0,0,1,19,14ZM6.41,20a1,1,0,1,0,1,1A1,1,0,0,0,6.41,20Zm4,0a1,1,0,1,0,1,1A1,1,0,0,0,10.41,20Zm8,0a1,1,0,1,0,1,1A1,1,0,0,0,18.41,20Zm-4,0a1,1,0,1,0,1,1A1,1,0,0,0,14.41,20Zm-10-4a1,1,0,1,0,1,1A1,1,0,0,0,4.41,16Zm4,0a1,1,0,1,0,1,1A1,1,0,0,0,8.41,16Zm4,0a1,1,0,1,0,1,1A1,1,0,0,0,12.41,16Zm4,0a1,1,0,1,0,1,1A1,1,0,0,0,16.41,16Zm4,0a1,1,0,1,0,1,1A1,1,0,0,0,20.41,16Z"/></g></g></g></svg>