<svg width="16" height="16" viewBox="0 0 16 16" fill="none" xmlns="http://www.w3.org/2000/svg">
<path d="M14 12V14C14 14.2652 13.8946 14.5196 13.7071 14.7071C13.5196 14.8947 13.2652 15 13 15C12.7348 15 12.4804 14.8947 12.2929 14.7071C12.1054 14.5196 12 14.2652 12 14V12C12 11.7348 12.1054 11.4804 12.2929 11.2929C12.4804 11.1054 12.7348 11 13 11C13.2652 11 13.5196 11.1054 13.7071 11.2929C13.8946 11.4804 14 11.7348 14 12ZM3 11C2.73478 11 2.48043 11.1054 2.29289 11.2929C2.10536 11.4804 2 11.7348 2 12V14C2 14.2652 2.10536 14.5196 2.29289 14.7071C2.48043 14.8947 2.73478 15 3 15C3.26522 15 3.51957 14.8947 3.70711 14.7071C3.89464 14.5196 4 14.2652 4 14V12C4 11.7348 3.89464 11.4804 3.70711 11.2929C3.51957 11.1054 3.26522 11 3 11ZM10 12V11H8L9 8.00002H7L6 11V12H7V15L10 12ZM13 6.00002H12C12 5.20437 11.6839 4.44131 11.1213 3.8787C10.5587 3.31609 9.79565 3.00002 9 3.00002H8.83C8.5949 2.33169 8.13085 1.76813 7.52005 1.40915C6.90924 1.05018 6.1911 0.918958 5.49282 1.03873C4.79454 1.15851 4.16118 1.52154 3.70492 2.06355C3.24866 2.60555 2.99894 3.29154 3 4.00002V5.00002C2.33696 5.00002 1.70107 5.26341 1.23223 5.73225C0.763392 6.20109 0.5 6.83698 0.5 7.50002C0.5 8.16306 0.763392 8.79895 1.23223 9.26779C1.70107 9.73663 2.33696 10 3 10H4H4.75L5.92 6.50002H11.08L9.93 10H13C13.5304 10 14.0391 9.78931 14.4142 9.41423C14.7893 9.03916 15 8.53045 15 8.00002C15 7.46959 14.7893 6.96088 14.4142 6.58581C14.0391 6.21073 13.5304 6.00002 13 6.00002Z" fill="#0F1621"/>
</svg>
