<svg xmlns="http://www.w3.org/2000/svg" viewBox="0 0 24 24"><defs><style>.cls-1{fill:none;}</style></defs><g id="Layer_2" data-name="Layer 2"><g id="UI_Outline" data-name="UI Outline"><g id="stormy-day"><rect class="cls-1" width="24" height="24"/><path d="M2,13H4.22l-.12.37L3.56,15H2Zm9-4H9A2,2,0,0,0,7,7H6A2,2,0,0,0,4,5H2V7H3A1,1,0,0,1,4,8V9H6a1,1,0,0,1,1,1v1h4a1,1,0,0,1,1,1,1,1,0,0,1-.52.87l-.58,1.76-.13.37H11a3,3,0,0,0,0-6ZM7,19v3l4-3V17H8l1-3H6L5,17v2ZM15,3V4.12a5.6,5.6,0,0,0-2,0V3a1,1,0,0,1,2,0Zm4.68,2.77-.79.79a6,6,0,0,0-1.42-1.42l.79-.79a1,1,0,0,1,1.42,1.42ZM22.12,10a1,1,0,0,1-1,1H20a5.6,5.6,0,0,0,0-2h1.12A1,1,0,0,1,22.12,10Zm-2.44,6a1,1,0,0,1-1.41,0h0l-.79-.79a6,6,0,0,0,1.42-1.42l.79.79a1,1,0,0,1,0,1.41Zm-1.55-5.72A4.31,4.31,0,0,1,16,14a4.34,4.34,0,0,0,0-.51V12.42a5.31,5.31,0,0,0-4.87-5.33A4.13,4.13,0,0,1,13.93,6a4.24,4.24,0,0,1,4.2,4.28Z"/></g></g></g></svg>