<svg width="24" height="24" viewBox="0 0 24 24" fill="none" xmlns="http://www.w3.org/2000/svg">
<path d="M14.22 11.44C14.3033 11.8781 14.2879 12.3292 14.1749 12.7606C14.062 13.1919 13.8542 13.5927 13.5669 13.9337C13.2795 14.2747 12.9198 14.5473 12.5138 14.7318C12.1078 14.9162 11.6658 15.0079 11.22 15H10.72L10.85 14.63L11.77 12H4.56L4.1 13.37L3.56 15H2V5H4C4.53043 5 5.03914 5.21071 5.41421 5.58579C5.78929 5.96086 6 6.46957 6 7H7.27C7.80043 7 8.30914 7.21071 8.68421 7.58579C9.05929 7.96086 9.27 8.46957 9.27 9H11.12C11.8396 8.98354 12.5426 9.21803 13.1082 9.66324C13.6739 10.1085 14.0669 10.7366 14.22 11.44ZM7 19V22L11 19V17H8L9 14H6L5 17V19H7ZM15 3V4.12C14.3387 3.99999 13.6613 3.99999 13 4.12V3C13 2.73478 13.1054 2.48043 13.2929 2.29289C13.4804 2.10536 13.7348 2 14 2C14.2652 2 14.5196 2.10536 14.7071 2.29289C14.8946 2.48043 15 2.73478 15 3ZM20 5.77L19.21 6.56C18.8198 6.01025 18.3397 5.5302 17.79 5.14L18.58 4.35C18.6732 4.25676 18.7839 4.1828 18.9058 4.13234C19.0276 4.08188 19.1581 4.05591 19.29 4.05591C19.4219 4.05591 19.5524 4.08188 19.6742 4.13234C19.7961 4.1828 19.9068 4.25676 20 4.35C20.0932 4.44324 20.1672 4.55393 20.2177 4.67575C20.2681 4.79757 20.2941 4.92814 20.2941 5.06C20.2941 5.19186 20.2681 5.32243 20.2177 5.44425C20.1672 5.56607 20.0932 5.67676 20 5.77ZM22.39 10C22.39 10.2652 22.2846 10.5196 22.0971 10.7071C21.9096 10.8946 21.6552 11 21.39 11H20.27C20.39 10.3387 20.39 9.66127 20.27 9H21.39C21.6552 9 21.9096 9.10536 22.0971 9.29289C22.2846 9.48043 22.39 9.73478 22.39 10ZM20 16C19.907 16.0937 19.7964 16.1681 19.6746 16.2189C19.5527 16.2697 19.422 16.2958 19.29 16.2958C19.158 16.2958 19.0273 16.2697 18.9054 16.2189C18.7836 16.1681 18.673 16.0937 18.58 16L17.79 15.21C18.3397 14.8198 18.8198 14.3397 19.21 13.79L20 14.58C20.0937 14.673 20.1681 14.7836 20.2189 14.9054C20.2697 15.0273 20.2958 15.158 20.2958 15.29C20.2958 15.422 20.2697 15.5527 20.2189 15.6746C20.1681 15.7964 20.0937 15.907 20 16ZM18.18 10.28C18.1753 11.0369 17.9713 11.7792 17.5886 12.4322C17.2059 13.0852 16.658 13.626 16 14C16.01 13.8301 16.01 13.6599 16 13.49V12.42C16.0096 11.0813 15.5133 9.78832 14.6102 8.79998C13.7072 7.81165 12.4642 7.2009 11.13 7.09C11.8934 6.388 12.8929 5.99889 13.93 6C14.4868 6.00523 15.0371 6.12008 15.5496 6.33801C16.062 6.55593 16.5265 6.87266 16.9165 7.2701C17.3065 7.66754 17.6144 8.13791 17.8226 8.65435C18.0308 9.17079 18.1353 9.72319 18.13 10.28H18.18Z" fill="#0F1621"/>
</svg>
