<svg xmlns="http://www.w3.org/2000/svg" viewBox="0 0 24 24"><g id="Layer_2" data-name="Layer 2"><g id="UI_Solid" data-name="UI Solid"><g id="stormy-day"><rect width="24" height="24" style="fill:none"/><path d="M14.22,11.44a3,3,0,0,1-3,3.56h-.5l.13-.37L11.77,12H4.56L4.1,13.37,3.56,15H2V5H4A2,2,0,0,1,6,7H7.27a2,2,0,0,1,2,2h1.85A3.1,3.1,0,0,1,14.22,11.44ZM7,19v3l4-3V17H8l1-3H6L5,17v2ZM15,3V4.12a5.6,5.6,0,0,0-2,0V3a1,1,0,0,1,2,0ZM20,5.77l-.79.79a6,6,0,0,0-1.42-1.42l.79-.79A1,1,0,1,1,20,5.77ZM22.39,10a1,1,0,0,1-1,1H20.27a5.6,5.6,0,0,0,0-2h1.12A1,1,0,0,1,22.39,10ZM20,16a1,1,0,0,1-1.42,0h0l-.79-.79a6,6,0,0,0,1.42-1.42l.79.79A1,1,0,0,1,20,16Zm-1.82-5.72A4.31,4.31,0,0,1,16,14a4.34,4.34,0,0,0,0-.51V12.42a5.31,5.31,0,0,0-4.87-5.33A4.13,4.13,0,0,1,13.93,6a4.24,4.24,0,0,1,4.2,4.28Z"/></g></g></g></svg>