<svg xmlns="http://www.w3.org/2000/svg" viewBox="0 0 24 24"><defs><style>.cls-1{fill:none;}</style></defs><g id="Layer_2" data-name="Layer 2"><g id="UI_Outline" data-name="UI Outline"><g id="storm"><rect class="cls-1" width="24" height="24"/><path d="M16,22h0a1,1,0,0,1-1-1V17a1,1,0,0,1,1-1h0a1,1,0,0,1,1,1v4A1,1,0,0,1,16,22Zm5-3V17a1,1,0,0,0-1-1h0a1,1,0,0,0-1,1v2a1,1,0,0,0,1,1h0A1,1,0,0,0,21,19ZM5,19V17a1,1,0,0,0-1-1H4a1,1,0,0,0-1,1v2a1,1,0,0,0,1,1H4A1,1,0,0,0,5,19Zm4-1v4l4-4V16H10l1-4H8L7,16v2ZM19,7H16.83A3,3,0,0,0,14,5H12.87A4,4,0,0,0,9,2H8A4,4,0,0,0,4,6V7.17A3,3,0,0,0,2,10v1.45A2.55,2.55,0,0,0,4.55,14h.89l.5-2H4.85A.85.85,0,0,1,4,11.15V10A1,1,0,0,1,5,9h5A2,2,0,0,0,8,7H6V6A2,2,0,0,1,8,4H9a2,2,0,0,1,2,2V7h3a1,1,0,0,1,1,1V9h4a1,1,0,0,1,1,1v1.46a.54.54,0,0,1-.54.54h-6.4l-.5,2h7.83A1.61,1.61,0,0,0,22,12.39V10A3,3,0,0,0,19,7Z"/></g></g></g></svg>