<svg xmlns="http://www.w3.org/2000/svg" viewBox="0 0 24 24"><defs><style>.cls-1{fill:none;}</style></defs><g id="Layer_2" data-name="Layer 2"><g id="UI_16" data-name="UI 16"><g id="storm"><rect class="cls-1" width="24" height="24"/><path d="M19,7H16.83A3,3,0,0,0,14,5H12.87A4,4,0,0,0,9,2H8A4,4,0,0,0,4,6V7.17A3,3,0,0,0,2,10v1a3,3,0,0,0,3,3h.44l1-4h7.12l-1,4H19a3,3,0,0,0,3-3V10A3,3,0,0,0,19,7ZM16,22h0a1,1,0,0,1-1-1V17a1,1,0,0,1,1-1h0a1,1,0,0,1,1,1v4A1,1,0,0,1,16,22Zm4-2h0a1,1,0,0,1-1-1V17a1,1,0,0,1,1-1h0a1,1,0,0,1,1,1v2A1,1,0,0,1,20,20ZM4,20H4a1,1,0,0,1-1-1V17a1,1,0,0,1,1-1H4a1,1,0,0,1,1,1v2A1,1,0,0,1,4,20Zm3-2V16l1-4h3l-1,4h3v2L9,22V18Z"/></g></g></g></svg>