<svg xmlns="http://www.w3.org/2000/svg" viewBox="0 0 24 24"><defs><style>.cls-1{fill:none;}</style></defs><g id="Layer_2" data-name="Layer 2"><g id="UI_16" data-name="UI 16"><g id="stormy-night"><rect class="cls-1" width="24" height="24"/><path d="M2,13H4.22l-.12.37L3.56,15H2Zm9.47-4h-2a2,2,0,0,0-2-2H6A2,2,0,0,0,4,5H2V7H3A1,1,0,0,1,4,8V9H6a1,1,0,0,1,1,1v1h4a1,1,0,0,1,1,1,1,1,0,0,1-.52.87l-.58,1.76-.13.37h.55a3.1,3.1,0,0,0,3.1-2.44A3,3,0,0,0,11.47,9ZM7,19v3l4-3V17H8l1-3H6L5,17v2ZM22.47,9A5.41,5.41,0,0,1,21,10.89a5.2,5.2,0,0,1-4.51,1,5,5,0,0,0-4-4.79A5.11,5.11,0,0,1,14,3.1,5.38,5.38,0,0,1,15.47,2a.49.49,0,0,1,.63.25.5.5,0,0,1,0,.38,4.27,4.27,0,0,0,5.65,5.66.5.5,0,0,1,.71,0A.5.5,0,0,1,22.47,9Z"/></g></g></g></svg>