<svg width="24" height="24" viewBox="0 0 24 24" fill="none" xmlns="http://www.w3.org/2000/svg">
<path d="M19 7H16.83C16.6231 6.41484 16.2398 5.90826 15.733 5.55006C15.2261 5.19186 14.6207 4.99967 14 5H12.87C12.6484 4.14187 12.1481 3.38163 11.4477 2.83864C10.7472 2.29565 9.88627 2.00066 9 2H8C6.93913 2 5.92172 2.42143 5.17157 3.17157C4.42143 3.92172 4 4.93913 4 6V7.17C3.41484 7.37688 2.90826 7.76016 2.55006 8.26702C2.19186 8.77387 1.99968 9.37935 2 10V11C2 11.7956 2.31607 12.5587 2.87868 13.1213C3.44129 13.6839 4.20435 14 5 14H5.44L6.44 10H13.56L12.56 14H19C19.7956 14 20.5587 13.6839 21.1213 13.1213C21.6839 12.5587 22 11.7956 22 11V10C22 9.20435 21.6839 8.44129 21.1213 7.87868C20.5587 7.31607 19.7956 7 19 7ZM16 22C15.7348 22 15.4804 21.8946 15.2929 21.7071C15.1054 21.5196 15 21.2652 15 21V17C15 16.7348 15.1054 16.4804 15.2929 16.2929C15.4804 16.1054 15.7348 16 16 16C16.2652 16 16.5196 16.1054 16.7071 16.2929C16.8946 16.4804 17 16.7348 17 17V21C17 21.2652 16.8946 21.5196 16.7071 21.7071C16.5196 21.8946 16.2652 22 16 22ZM20 20C19.7348 20 19.4804 19.8946 19.2929 19.7071C19.1054 19.5196 19 19.2652 19 19V17C19 16.7348 19.1054 16.4804 19.2929 16.2929C19.4804 16.1054 19.7348 16 20 16C20.2652 16 20.5196 16.1054 20.7071 16.2929C20.8946 16.4804 21 16.7348 21 17V19C21 19.2652 20.8946 19.5196 20.7071 19.7071C20.5196 19.8946 20.2652 20 20 20ZM4 20C3.73478 20 3.48043 19.8946 3.29289 19.7071C3.10536 19.5196 3 19.2652 3 19V17C3 16.7348 3.10536 16.4804 3.29289 16.2929C3.48043 16.1054 3.73478 16 4 16C4.26522 16 4.51957 16.1054 4.70711 16.2929C4.89464 16.4804 5 16.7348 5 17V19C5 19.2652 4.89464 19.5196 4.70711 19.7071C4.51957 19.8946 4.26522 20 4 20ZM7 18V16L8 12H11L10 16H13V18L9 22V18H7Z" fill="#0F1621"/>
</svg>
