<svg width="24" height="24" viewBox="0 0 24 24" fill="none" xmlns="http://www.w3.org/2000/svg">
<path d="M13 3.35999V6.44999C12.3387 6.32997 11.6613 6.32997 11 6.44999V3.35999C11 3.09477 11.1053 2.84042 11.2929 2.65288C11.4804 2.46534 11.7348 2.35999 12 2.35999C12.2652 2.35999 12.5196 2.46534 12.7071 2.65288C12.8946 2.84042 13 3.09477 13 3.35999ZM11 18.27V21.36C11 21.6252 11.1053 21.8796 11.2929 22.0671C11.4804 22.2546 11.7348 22.36 12 22.36C12.2652 22.36 12.5196 22.2546 12.7071 22.0671C12.8946 21.8796 13 21.6252 13 21.36V18.27C12.3387 18.39 11.6613 18.39 11 18.27ZM3.29999 11C3.03477 11 2.78042 11.1053 2.59288 11.2929C2.40534 11.4804 2.29999 11.7348 2.29999 12C2.29999 12.2652 2.40534 12.5196 2.59288 12.7071C2.78042 12.8946 3.03477 13 3.29999 13H6.38999C6.26998 12.3387 6.26998 11.6613 6.38999 11H3.29999ZM21.3 11H18.21C18.33 11.6613 18.33 12.3387 18.21 13H21.3C21.5652 13 21.8196 12.8946 22.0071 12.7071C22.1946 12.5196 22.3 12.2652 22.3 12C22.3 11.7348 22.1946 11.4804 22.0071 11.2929C21.8196 11.1053 21.5652 11 21.3 11ZM5.22999 5.28999C5.04374 5.47735 4.93919 5.7308 4.93919 5.99499C4.93919 6.25917 5.04374 6.51262 5.22999 6.69999L7.41999 8.88999C7.80381 8.34106 8.28106 7.86381 8.82999 7.47999L6.63999 5.28999C6.45263 5.10373 6.19917 4.99919 5.93499 4.99919C5.6708 4.99919 5.41735 5.10373 5.22999 5.28999ZM19.37 18L17.19 15.82C16.8006 16.3643 16.3243 16.8406 15.78 17.23L18 19.43C18.1862 19.6147 18.4376 19.7189 18.7 19.72C18.8316 19.7207 18.9621 19.6955 19.0839 19.6458C19.2057 19.596 19.3165 19.5227 19.41 19.43C19.5027 19.3342 19.5753 19.2209 19.6236 19.0967C19.6718 18.9724 19.6948 18.8398 19.691 18.7066C19.6873 18.5733 19.657 18.4422 19.6019 18.3209C19.5467 18.1995 19.4679 18.0904 19.37 18ZM7.36999 15.82L5.22999 18C5.04524 18.1862 4.94109 18.4376 4.93999 18.7C4.93923 18.8316 4.96445 18.9621 5.01422 19.0839C5.06398 19.2057 5.13731 19.3165 5.22999 19.41C5.41735 19.5962 5.6708 19.7008 5.93499 19.7008C6.19917 19.7008 6.45263 19.5962 6.63999 19.41L8.82999 17.23C8.27834 16.8575 7.8003 16.3863 7.41999 15.84L7.36999 15.82ZM19.42 4.99999C19.327 4.90626 19.2164 4.83186 19.0946 4.78109C18.9727 4.73033 18.842 4.70419 18.71 4.70419C18.578 4.70419 18.4473 4.73033 18.3254 4.78109C18.2036 4.83186 18.093 4.90626 18 4.99999L15.78 7.18999C16.3311 7.57118 16.8088 8.04886 17.19 8.59999L19.37 6.40999C19.5562 6.22262 19.6608 5.96917 19.6608 5.70499C19.6608 5.4408 19.5562 5.18735 19.37 4.99999H19.42ZM12.3 8.35999C11.5089 8.35999 10.7355 8.59458 10.0777 9.03411C9.41991 9.47363 8.90722 10.0983 8.60447 10.8293C8.30172 11.5602 8.22251 12.3644 8.37685 13.1403C8.53119 13.9163 8.91215 14.629 9.47156 15.1884C10.031 15.7478 10.7437 16.1288 11.5196 16.2831C12.2956 16.4375 13.0998 16.3583 13.8307 16.0555C14.5616 15.7528 15.1863 15.2401 15.6259 14.5823C16.0654 13.9245 16.3 13.1511 16.3 12.36C16.3 11.2991 15.8786 10.2817 15.1284 9.53156C14.3783 8.78141 13.3609 8.35999 12.3 8.35999Z" fill="#0F1621"/>
</svg>
