<svg xmlns="http://www.w3.org/2000/svg" viewBox="0 0 16 16"><g id="Layer_2" data-name="Layer 2"><g id="UI_16" data-name="UI 16"><g id="weather-fog"><g style="opacity:0"><rect width="16" height="16" style="fill:none"/></g><path d="M9,2H9A1,1,0,0,0,8,1H4A1,1,0,0,0,4,3H8A1,1,0,0,0,9,2ZM7,6H7A1,1,0,0,0,6,5H2A1,1,0,0,0,2,7H6A1,1,0,0,0,7,6Zm7-4h0a1,1,0,0,0-1-1H12a1,1,0,0,0,0,2h1A1,1,0,0,0,14,2Zm1,4h0a1,1,0,0,0-1-1H10a1,1,0,0,0,0,2h4A1,1,0,0,0,15,6Zm0,4h0a1,1,0,0,0-1-1H7a1,1,0,0,0,0,2h7A1,1,0,0,0,15,10Zm-2,4h0a1,1,0,0,0-1-1H4a1,1,0,0,0,0,2h8A1,1,0,0,0,13,14ZM4,10H4A1,1,0,0,0,3,9H2a1,1,0,0,0,0,2H3A1,1,0,0,0,4,10Z" style="fill-rule:evenodd"/></g></g></g></svg>