<svg xmlns="http://www.w3.org/2000/svg" viewBox="0 0 24 24"><g id="Layer_2" data-name="Layer 2"><g id="UI_Outline" data-name="UI Outline"><g id="weather-clear-day"><rect width="24" height="24" style="fill:none"/><path d="M13,3V6.09a5.6,5.6,0,0,0-2,0V3a1,1,0,0,1,2,0ZM11,17.91V21a1,1,0,0,0,2,0V17.91A5.6,5.6,0,0,1,11,17.91ZM2.93,11a1,1,0,1,0,0,2H6a5.6,5.6,0,0,1,0-2Zm18,0H17.84a5.6,5.6,0,0,1,0,2h3.09a1,1,0,0,0,0-2ZM4.86,4.93a1,1,0,0,0,0,1.41L7.05,8.53A5.56,5.56,0,0,1,8.46,7.12L6.27,4.93A1,1,0,0,0,4.86,4.93ZM19,17.66l-2.18-2.18a6.29,6.29,0,0,1-1.41,1.41l2.18,2.18a1,1,0,0,0,.7.29,1,1,0,0,0,.71-1.7ZM7.05,15.48,4.86,17.66a1,1,0,0,0-.29.7,1,1,0,0,0,1.7.71l2.19-2.18A5.56,5.56,0,0,1,7.05,15.48ZM19.05,5a1,1,0,0,0-1.41,0L15.41,7.19A5.56,5.56,0,0,1,16.82,8.6L19,6.41A1,1,0,0,0,19,5Zm-7.12,5a2,2,0,1,0,2,2,2,2,0,0,0-2-2m0-2a4,4,0,1,1-4,4A4,4,0,0,1,11.93,8Z"/></g></g></g></svg>