<svg xmlns="http://www.w3.org/2000/svg" width="16" height="16" viewBox="0 0 16 16"><path d="M11,8A3,3,0,1,1,8,5,3,3,0,0,1,11,8ZM9,3.62V1H7V3.62A4.72,4.72,0,0,1,8,3.5,4.72,4.72,0,0,1,9,3.62ZM5.61,4.2,3.76,2.34,2.34,3.76,4.2,5.61A4.52,4.52,0,0,1,5.61,4.2ZM11.8,5.61l1.86-1.85L12.24,2.34,10.39,4.2A4.52,4.52,0,0,1,11.8,5.61ZM3.5,8a4.72,4.72,0,0,1,.12-1H1V9H3.62A4.72,4.72,0,0,1,3.5,8Zm6.89,3.8,1.85,1.86,1.42-1.42L11.8,10.39A4.52,4.52,0,0,1,10.39,11.8ZM4.2,10.39,2.34,12.24l1.42,1.42L5.61,11.8A4.52,4.52,0,0,1,4.2,10.39ZM12.38,7a4.72,4.72,0,0,1,.12,1,4.72,4.72,0,0,1-.12,1H15V7ZM7,12.38V15H9V12.38a4.72,4.72,0,0,1-1,.12A4.72,4.72,0,0,1,7,12.38Z"/></svg>