<svg width="24" height="24" viewBox="0 0 24 24" fill="none" xmlns="http://www.w3.org/2000/svg">
<path d="M13 3V6.09C12.3387 5.96999 11.6613 5.96999 11 6.09V3C11 2.73478 11.1053 2.48043 11.2929 2.29289C11.4804 2.10536 11.7348 2 12 2C12.2652 2 12.5196 2.10536 12.7071 2.29289C12.8946 2.48043 13 2.73478 13 3ZM11 17.91V21C11 21.2652 11.1053 21.5196 11.2929 21.7071C11.4804 21.8946 11.7348 22 12 22C12.2652 22 12.5196 21.8946 12.7071 21.7071C12.8946 21.5196 13 21.2652 13 21V17.91C12.3387 18.03 11.6613 18.03 11 17.91ZM2.92999 11C2.66478 11 2.41042 11.1054 2.22289 11.2929C2.03535 11.4804 1.92999 11.7348 1.92999 12C1.92999 12.2652 2.03535 12.5196 2.22289 12.7071C2.41042 12.8946 2.66478 13 2.92999 13H5.99999C5.87998 12.3387 5.87998 11.6613 5.99999 11H2.92999ZM20.93 11H17.84C17.96 11.6613 17.96 12.3387 17.84 13H20.93C21.1952 13 21.4496 12.8946 21.6371 12.7071C21.8246 12.5196 21.93 12.2652 21.93 12C21.93 11.7348 21.8246 11.4804 21.6371 11.2929C21.4496 11.1054 21.1952 11 20.93 11ZM4.85999 4.93C4.67374 5.11736 4.5692 5.37081 4.5692 5.635C4.5692 5.89919 4.67374 6.15264 4.85999 6.34L7.04999 8.53C7.43118 7.97887 7.90886 7.50119 8.45999 7.12L6.26999 4.93C6.08263 4.74375 5.82918 4.63921 5.56499 4.63921C5.30081 4.63921 5.04736 4.74375 4.85999 4.93ZM19 17.66L16.82 15.48C16.428 16.022 15.952 16.498 15.41 16.89L17.59 19.07C17.7763 19.2547 18.0277 19.3589 18.29 19.36C18.4866 19.3592 18.6785 19.3005 18.8419 19.1911C19.0053 19.0818 19.1329 18.9268 19.2086 18.7454C19.2844 18.564 19.305 18.3643 19.2679 18.1713C19.2308 17.9782 19.1376 17.8004 19 17.66ZM7.04999 15.48L4.85999 17.66C4.67525 17.8463 4.5711 18.0977 4.56999 18.36C4.57081 18.5566 4.62954 18.7486 4.73885 18.9119C4.84816 19.0753 5.0032 19.2029 5.1846 19.2786C5.36599 19.3544 5.56569 19.375 5.75874 19.3379C5.95178 19.3008 6.12961 19.2076 6.26999 19.07L8.45999 16.89C7.90886 16.5088 7.43118 16.0311 7.04999 15.48ZM19.05 5C18.8626 4.81375 18.6092 4.70921 18.345 4.70921C18.0808 4.70921 17.8274 4.81375 17.64 5L15.41 7.19C15.9611 7.57119 16.4388 8.04887 16.82 8.6L19 6.41C19.1862 6.22264 19.2908 5.96919 19.2908 5.705C19.2908 5.44081 19.1862 5.18736 19 5H19.05ZM11.93 10C11.5344 10 11.1477 10.1173 10.8189 10.3371C10.49 10.5568 10.2336 10.8692 10.0822 11.2346C9.93086 11.6001 9.89125 12.0022 9.96842 12.3902C10.0456 12.7781 10.2361 13.1345 10.5158 13.4142C10.7955 13.6939 11.1518 13.8844 11.5398 13.9616C11.9278 14.0387 12.3299 13.9991 12.6954 13.8478C13.0608 13.6964 13.3732 13.44 13.5929 13.1111C13.8127 12.7822 13.93 12.3956 13.93 12C13.93 11.4696 13.7193 10.9609 13.3442 10.5858C12.9691 10.2107 12.4604 10 11.93 10ZM11.93 8C12.7211 8 13.4945 8.2346 14.1523 8.67412C14.8101 9.11365 15.3228 9.73836 15.6255 10.4693C15.9283 11.2002 16.0075 12.0044 15.8531 12.7804C15.6988 13.5563 15.3178 14.269 14.7584 14.8284C14.199 15.3878 13.4863 15.7688 12.7104 15.9231C11.9344 16.0775 11.1302 15.9983 10.3993 15.6955C9.66835 15.3928 9.04364 14.8801 8.60411 14.2223C8.16459 13.5645 7.92999 12.7911 7.92999 12C7.92999 10.9391 8.35142 9.92172 9.10157 9.17157C9.85171 8.42143 10.8691 8 11.93 8Z" fill="#0F1621"/>
</svg>
