<svg width="16" height="16" viewBox="0 0 16 16" fill="none" xmlns="http://www.w3.org/2000/svg">
<path d="M11 8C11 8.59334 10.8241 9.17336 10.4944 9.66671C10.1648 10.1601 9.69623 10.5446 9.14805 10.7716C8.59987 10.9987 7.99667 11.0581 7.41473 10.9424C6.83279 10.8266 6.29824 10.5409 5.87868 10.1213C5.45912 9.70176 5.1734 9.16721 5.05764 8.58527C4.94189 8.00333 5.0013 7.40013 5.22836 6.85195C5.45542 6.30377 5.83994 5.83524 6.33329 5.50559C6.82664 5.17595 7.40666 5 8 5C8.79565 5 9.55871 5.31607 10.1213 5.87868C10.6839 6.44129 11 7.20435 11 8ZM9 3.62V1H7V3.62C7.3281 3.54445 7.66334 3.50422 8 3.5C8.33666 3.50422 8.6719 3.54445 9 3.62ZM5.61 4.2L3.76 2.34L2.34 3.76L4.2 5.61C4.55917 5.0409 5.0409 4.55917 5.61 4.2ZM11.8 5.61L13.66 3.76L12.24 2.34L10.39 4.2C10.9591 4.55917 11.4408 5.0409 11.8 5.61ZM3.5 8C3.50422 7.66334 3.54445 7.3281 3.62 7H1V9H3.62C3.54445 8.6719 3.50422 8.33666 3.5 8ZM10.39 11.8L12.24 13.66L13.66 12.24L11.8 10.39C11.4408 10.9591 10.9591 11.4408 10.39 11.8ZM4.2 10.39L2.34 12.24L3.76 13.66L5.61 11.8C5.0409 11.4408 4.55917 10.9591 4.2 10.39ZM12.38 7C12.4556 7.3281 12.4958 7.66334 12.5 8C12.4958 8.33666 12.4556 8.6719 12.38 9H15V7H12.38ZM7 12.38V15H9V12.38C8.6719 12.4556 8.33666 12.4958 8 12.5C7.66334 12.4958 7.3281 12.4556 7 12.38Z" fill="#0F1621"/>
</svg>
