<svg xmlns="http://www.w3.org/2000/svg" viewBox="0 0 24 24"><g id="Layer_2" data-name="Layer 2"><g id="UI_Solid" data-name="UI Solid"><g id="weather_clear_day" data-name="weather clear day"><rect width="24" height="24" style="fill:none"/><path d="M13,3.36V6.45a5.6,5.6,0,0,0-2,0V3.36a1,1,0,1,1,2,0ZM11,18.27v3.09a1,1,0,0,0,2,0V18.27A5.6,5.6,0,0,1,11,18.27ZM3.3,11a1,1,0,0,0,0,2H6.39a5.6,5.6,0,0,1,0-2Zm18,0H18.21a5.6,5.6,0,0,1,0,2H21.3a1,1,0,0,0,0-2ZM5.23,5.29a1,1,0,0,0,0,1.41L7.42,8.89A5.72,5.72,0,0,1,8.83,7.48L6.64,5.29A1,1,0,0,0,5.23,5.29ZM19.37,18l-2.18-2.18a6.09,6.09,0,0,1-1.41,1.41L18,19.43a1,1,0,0,0,.7.29,1,1,0,0,0,.71-.29A1,1,0,0,0,19.37,18Zm-12-2.18L5.23,18a1,1,0,0,0-.29.7,1,1,0,0,0,.29.71,1,1,0,0,0,1.41,0l2.19-2.18A5.4,5.4,0,0,1,7.42,15.84ZM19.42,5A1,1,0,0,0,18,5L15.78,7.19A5.56,5.56,0,0,1,17.19,8.6l2.18-2.19a1,1,0,0,0,0-1.41ZM12.3,8.36a4,4,0,1,0,4,4A4,4,0,0,0,12.3,8.36Z"/></g></g></g></svg>