<svg xmlns="http://www.w3.org/2000/svg" viewBox="0 0 24 24"><g id="Layer_2" data-name="Layer 2"><g id="UI_Outline" data-name="UI Outline"><g id="windy"><rect width="24" height="24" style="fill:none"/><path d="M16.88,8H9A1,1,0,0,1,8,7H8A1,1,0,0,1,9,6h8a1,1,0,0,0,0-2H16a1,1,0,0,1-1-1h0a1,1,0,0,1,1-1h1a3,3,0,0,1,3,3,3.05,3.05,0,0,1-.06.6A3.08,3.08,0,0,1,16.88,8Zm-1,8H3a1,1,0,0,0-1,1H2a1,1,0,0,0,1,1H16a1,1,0,0,1,0,2H15a1,1,0,0,0-1,1h0a1,1,0,0,0,1,1h1a3,3,0,0,0,3-3,3,3,0,0,0-3.12-3ZM22,12h0a1,1,0,0,0-1-1H12a1,1,0,0,0-1,1h0a1,1,0,0,0,1,1h9A1,1,0,0,0,22,12ZM6,7H6A1,1,0,0,0,5,6H3A1,1,0,0,0,2,7H2A1,1,0,0,0,3,8H5A1,1,0,0,0,6,7Zm3,5H9a1,1,0,0,0-1-1H3a1,1,0,0,0-1,1H2a1,1,0,0,0,1,1H8A1,1,0,0,0,9,12Z"/></g></g></g></svg>