<svg xmlns="http://www.w3.org/2000/svg" width="16" height="16" viewBox="0 0 16 16"><path d="M12.5,6H8A1,1,0,0,1,8,4h4.5a.47.47,0,0,0,.17,0A.5.5,0,0,0,13,3.5a.5.5,0,0,0-.5-.5,1,1,0,0,1,0-2,2.5,2.5,0,0,1,.83,4.86A2.63,2.63,0,0,1,12.5,6ZM15,12.5a2.5,2.5,0,0,0-1.67-2.36A2.63,2.63,0,0,0,12.5,10H2a1,1,0,0,0,0,2H12.5a.47.47,0,0,1,.17,0,.5.5,0,0,1,.33.47.5.5,0,0,1-.5.5,1,1,0,0,0,0,2A2.5,2.5,0,0,0,15,12.5ZM6,5A1,1,0,0,0,5,4H2A1,1,0,0,0,2,6H5A1,1,0,0,0,6,5ZM8,8A1,1,0,0,0,7,7H2A1,1,0,0,0,2,9H7A1,1,0,0,0,8,8Zm7,0a1,1,0,0,0-1-1H10a1,1,0,0,0,0,2h4A1,1,0,0,0,15,8Z"/></svg>