<svg width="16" height="16" viewBox="0 0 16 16" fill="none" xmlns="http://www.w3.org/2000/svg">
<path d="M12.5 6.00001H8C7.73478 6.00001 7.48043 5.89465 7.29289 5.70711C7.10536 5.51958 7 5.26522 7 5.00001C7 4.73479 7.10536 4.48044 7.29289 4.2929C7.48043 4.10536 7.73478 4.00001 8 4.00001H12.5C12.5562 4.01034 12.6138 4.01034 12.67 4.00001C12.7716 3.96348 12.8587 3.89503 12.9182 3.8049C12.9777 3.71477 13.0064 3.60781 13 3.50001C13 3.3674 12.9473 3.24022 12.8536 3.14645C12.7598 3.05268 12.6326 3.00001 12.5 3.00001C12.2348 3.00001 11.9804 2.89465 11.7929 2.70711C11.6054 2.51958 11.5 2.26522 11.5 2.00001C11.5 1.73479 11.6054 1.48043 11.7929 1.2929C11.9804 1.10536 12.2348 1.00001 12.5 1.00001C13.091 0.998788 13.6632 1.20695 14.1153 1.58756C14.5674 1.96817 14.87 2.49662 14.9695 3.07914C15.069 3.66166 14.9589 4.26059 14.6587 4.76966C14.3586 5.27873 13.8879 5.66503 13.33 5.86001C13.0626 5.95093 12.7824 5.9982 12.5 6.00001ZM15 12.5C15.0004 11.9821 14.8399 11.4769 14.5407 11.0541C14.2416 10.6314 13.8185 10.3119 13.33 10.14C13.0626 10.0491 12.7824 10.0018 12.5 10H2C1.73478 10 1.48043 10.1054 1.29289 10.2929C1.10536 10.4804 1 10.7348 1 11C1 11.2652 1.10536 11.5196 1.29289 11.7071C1.48043 11.8946 1.73478 12 2 12H12.5C12.5562 11.9897 12.6138 11.9897 12.67 12C12.7666 12.0349 12.8502 12.0988 12.9092 12.1829C12.9683 12.267 13 12.3672 13 12.47C13 12.6026 12.9473 12.7298 12.8536 12.8236C12.7598 12.9173 12.6326 12.97 12.5 12.97C12.2348 12.97 11.9804 13.0754 11.7929 13.2629C11.6054 13.4504 11.5 13.7048 11.5 13.97C11.5 14.2352 11.6054 14.4896 11.7929 14.6771C11.9804 14.8646 12.2348 14.97 12.5 14.97C13.1579 14.9701 13.7893 14.7108 14.2572 14.2484C14.7252 13.786 14.9921 13.1578 15 12.5ZM6 5.00001C6 4.73479 5.89464 4.48044 5.70711 4.2929C5.51957 4.10536 5.26522 4.00001 5 4.00001H2C1.73478 4.00001 1.48043 4.10536 1.29289 4.2929C1.10536 4.48044 1 4.73479 1 5.00001C1 5.26522 1.10536 5.51958 1.29289 5.70711C1.48043 5.89465 1.73478 6.00001 2 6.00001H5C5.26522 6.00001 5.51957 5.89465 5.70711 5.70711C5.89464 5.51958 6 5.26522 6 5.00001ZM8 8.00001C8 7.73479 7.89464 7.48043 7.70711 7.2929C7.51957 7.10536 7.26522 7.00001 7 7.00001H2C1.73478 7.00001 1.48043 7.10536 1.29289 7.2929C1.10536 7.48043 1 7.73479 1 8.00001C1 8.26522 1.10536 8.51958 1.29289 8.70711C1.48043 8.89465 1.73478 9.00001 2 9.00001H7C7.26522 9.00001 7.51957 8.89465 7.70711 8.70711C7.89464 8.51958 8 8.26522 8 8.00001ZM15 8.00001C15 7.73479 14.8946 7.48043 14.7071 7.2929C14.5196 7.10536 14.2652 7.00001 14 7.00001H10C9.73478 7.00001 9.48043 7.10536 9.29289 7.2929C9.10536 7.48043 9 7.73479 9 8.00001C9 8.26522 9.10536 8.51958 9.29289 8.70711C9.48043 8.89465 9.73478 9.00001 10 9.00001H14C14.2652 9.00001 14.5196 8.89465 14.7071 8.70711C14.8946 8.51958 15 8.26522 15 8.00001Z" fill="#0F1621"/>
</svg>
