<svg xmlns="http://www.w3.org/2000/svg" width="24" height="24" viewBox="0 0 24 24"><rect width="24" height="24" style="fill:none"/><path d="M18,12a6,6,0,1,1-6-6A6,6,0,0,1,18,12ZM5.41,4l2,2A8.26,8.26,0,0,0,6,7.46l-2-2Zm-.88,9H2V11H4.53a8.36,8.36,0,0,0,0,2ZM11,2h2V4.53a8.36,8.36,0,0,0-2,0Zm5.59,4,2-2L20,5.37l-2,2A8.55,8.55,0,0,0,16.59,6ZM12,19.53a8.26,8.26,0,0,0,1-.06V22H11V19.47A8.26,8.26,0,0,0,12,19.53ZM22,11v2H19.47a8.36,8.36,0,0,0,0-2ZM7.41,18l-2,2L4,18.62l2-2A8.55,8.55,0,0,0,7.41,18ZM18,16.59l2.06,2.06-1.41,1.41L16.59,18A8.55,8.55,0,0,0,18,16.59Z"/></svg>