<svg xmlns="http://www.w3.org/2000/svg" viewBox="0 0 24 24"><defs><style>.cls-1{fill:none;}.cls-2{fill-rule:evenodd;}</style></defs><g id="Layer_2" data-name="Layer 2"><g id="UI_Outline" data-name="UI Outline"><g id="distribute-outline_24px"><rect class="cls-1" width="24" height="24" transform="translate(0 24) rotate(-90)"/><path class="cls-2" d="M16,6l-4,4L8,6,9.24,4.76,11,6.5V2h2V6.5l1.76-1.74ZM6,18H2v4H6Zm8,0H10v4h4Zm8,0H18v4h4Zm-2-6H4a2,2,0,0,0-2,2v2H4V14h7v2h2V14h7v2h2V14A2,2,0,0,0,20,12Z"/></g></g></g></svg>