<svg xmlns="http://www.w3.org/2000/svg" viewBox="0 0 24 24"><g id="Layer_2" data-name="Layer 2"><g id="UI_Solid" data-name="UI Solid"><g id="download-cloud"><rect width="24" height="24" transform="translate(0 24) rotate(-90)" style="fill:none"/><path d="M16,18l-4,4L8,18l1.24-1.24L11,18.5V11h2v7.5l1.76-1.74ZM19,7H17a5,5,0,0,0-5-5H10A5,5,0,0,0,5,7H5a3,3,0,0,0-3,3v2a3,3,0,0,0,3,3H6V13H5a1,1,0,0,1-1-1V10A1,1,0,0,1,5,9H7V7a3,3,0,0,1,3-3h2a3,3,0,0,1,3,3V9h4a1,1,0,0,1,1,1v2a1,1,0,0,1-1,1H18v2h1a3,3,0,0,0,3-3V10A3,3,0,0,0,19,7Z" style="fill-rule:evenodd"/></g></g></g></svg>