<svg xmlns="http://www.w3.org/2000/svg" viewBox="0 0 24 24"><defs><style>.cls-1{fill:none;}.cls-2{fill-rule:evenodd;}</style></defs><g id="Layer_2" data-name="Layer 2"><g id="UI_Outline" data-name="UI Outline"><g id="download-cloud_outline_24px"><rect class="cls-1" width="24" height="24" transform="translate(0 24) rotate(-90)"/><path class="cls-2" d="M16,18l-4,4L8,18l1.24-1.24L11,18.5V11h2v7.5l1.76-1.74ZM19,7H17a5,5,0,0,0-5-5H10A5,5,0,0,0,5,7H5a3,3,0,0,0-3,3v2a3,3,0,0,0,3,3H6V13H5a1,1,0,0,1-1-1V10A1,1,0,0,1,5,9H7V7a3,3,0,0,1,3-3h2a3,3,0,0,1,3,3V9h4a1,1,0,0,1,1,1v2a1,1,0,0,1-1,1H18v2h1a3,3,0,0,0,3-3V10A3,3,0,0,0,19,7Z"/></g></g></g></svg>