<svg xmlns="http://www.w3.org/2000/svg" viewBox="0 0 24 24"><defs><style>.cls-1{fill:none;}</style></defs><g id="Layer_2" data-name="Layer 2"><g id="System_UI_Solid" data-name="System UI Solid"><g id="link"><rect class="cls-1" width="24" height="24"/><path d="M11.37,18.73a4.32,4.32,0,0,1-6.11-6.1l1.15-1.15H9V9.38H5.69L3.85,11.22a6.31,6.31,0,0,0,0,8.93h0a6.31,6.31,0,0,0,8.93,0l1.57-1.57-1.41-1.42ZM20.15,3.85a6.31,6.31,0,0,0-8.93,0L9.63,5.44l1.42,1.41,1.58-1.59a4.32,4.32,0,1,1,6.1,6.11l-1.17,1.17H15v2.1h3.29l1.86-1.86A6.33,6.33,0,0,0,20.15,3.85Zm-11,12.43,7.07-7.07L14.83,7.8,7.76,14.87Z"/></g></g></g></svg>