<svg xmlns="http://www.w3.org/2000/svg" viewBox="0 0 16 16"><defs><style>.cls-1{fill:none;}</style></defs><g id="Layer_2" data-name="Layer 2"><g id="UI_System_16" data-name="UI System 16"><g id="link"><rect class="cls-1" width="16" height="16"/><path d="M13.55,2.45a4.9,4.9,0,0,0-6.9,0L8.07,3.83a2.91,2.91,0,0,1,2-.82,2.9,2.9,0,0,1,2.05,5L9.35,10.76l1.42,1.42,2.78-2.79A4.92,4.92,0,0,0,13.55,2.45ZM5.92,13a2.9,2.9,0,0,1-2-5L6.66,5.25,5.24,3.83,2.45,6.61a4.91,4.91,0,0,0,6.9,7L7.93,12.17A2.91,2.91,0,0,1,5.92,13Zm4.91-6.4L9.41,5.17,5.17,9.41l1.42,1.42Z"/></g></g></g></svg>