<svg xmlns="http://www.w3.org/2000/svg" width="16" height="16" viewBox="0 0 16 16"><rect width="16" height="16" style="fill:none"/><path d="M2.71,14.71,1.29,13.29l5-5L7.71,9.71ZM3.2,10a4.25,4.25,0,0,1,1-4.25L5.72,4.25A4.16,4.16,0,0,1,10,3.2l1.55-1.55A6.33,6.33,0,0,0,8.74,1,6.25,6.25,0,0,0,4.31,2.83L2.83,4.31a6.27,6.27,0,0,0-1.18,7.21ZM12.8,6a4.25,4.25,0,0,1-1.05,4.25l-1.47,1.47A4.16,4.16,0,0,1,6,12.8L4.48,14.35A6.33,6.33,0,0,0,7.26,15a6.25,6.25,0,0,0,4.43-1.83l1.48-1.48a6.27,6.27,0,0,0,1.18-7.21Zm1.91-3.32L13.29,1.29l-5,5L9.71,7.71Z"/></svg>