<svg xmlns="http://www.w3.org/2000/svg" width="24" height="24" viewBox="0 0 24 24"><rect width="24" height="24" style="fill:none"/><path d="M13.29,9.29,20.58,2,22,3.42l-7.29,7.29ZM6.2,13.55a2.79,2.79,0,0,1-.2-1,2.74,2.74,0,0,1,.81-1.95l3.75-3.75A2.74,2.74,0,0,1,12.51,6a2.79,2.79,0,0,1,1,.2L15,4.73a4.74,4.74,0,0,0-5.88.66L5.39,9.15A4.76,4.76,0,0,0,4.73,15Zm11.6-3.1a2.79,2.79,0,0,1,.2,1,2.74,2.74,0,0,1-.81,1.95l-3.75,3.75a2.74,2.74,0,0,1-1.95.81,2.79,2.79,0,0,1-1-.2L9,19.27a4.74,4.74,0,0,0,5.88-.66l3.76-3.76A4.76,4.76,0,0,0,19.27,9ZM9.29,13.29,2,20.58,3.42,22l7.29-7.29Z"/></svg>