<svg width="16" height="16" viewBox="0 0 16 16" fill="none" xmlns="http://www.w3.org/2000/svg">
<path d="M2.71096 14.71L1.29096 13.29L6.29096 8.29002L7.71096 9.71002L2.71096 14.71ZM3.20096 10C2.96762 9.26741 2.93739 8.48522 3.11349 7.73679C3.28959 6.98836 3.66543 6.30172 4.20096 5.75002L5.72096 4.25002C6.26445 3.69176 6.9538 3.29735 7.7105 3.11172C8.46719 2.92608 9.2608 2.95667 10.001 3.20002L11.551 1.65002C10.6768 1.22001 9.71516 0.997566 8.74096 1.00002C7.91845 0.998552 7.10375 1.15945 6.34356 1.47348C5.58336 1.78751 4.89263 2.2485 4.31096 2.83002L2.83096 4.31002C1.9055 5.23778 1.29398 6.43218 1.08233 7.7254C0.870677 9.01861 1.06953 10.3456 1.65096 11.52L3.20096 10ZM12.801 6.00002C13.028 6.73703 13.0502 7.52193 12.8653 8.27061C12.6803 9.01929 12.2951 9.70354 11.751 10.25L10.281 11.72C9.74073 12.2835 9.05287 12.6835 8.29602 12.8745C7.53916 13.0655 6.74384 13.0397 6.00096 12.8L4.48096 14.35C5.34603 14.7756 6.29688 14.9979 7.26096 15C8.08346 15.0015 8.89816 14.8406 9.65835 14.5266C10.4185 14.2125 11.1093 13.7515 11.691 13.17L13.171 11.69C14.0964 10.7623 14.7079 9.56786 14.9196 8.27464C15.1312 6.98143 14.9324 5.65439 14.351 4.48002L12.801 6.00002ZM14.711 2.68002L13.291 1.29002L8.29096 6.29002L9.71096 7.71002L14.711 2.68002Z" fill="#0F1621"/>
</svg>
