<svg width="16" height="16" viewBox="0 0 16 16" fill="none" xmlns="http://www.w3.org/2000/svg">
<path d="M3 11C2.80222 11 2.60888 11.0586 2.44443 11.1685C2.27998 11.2784 2.15181 11.4346 2.07612 11.6173C2.00043 11.8 1.98063 12.0011 2.01922 12.1951C2.0578 12.3891 2.15304 12.5673 2.29289 12.7071C2.43275 12.847 2.61093 12.9422 2.80491 12.9808C2.99889 13.0194 3.19996 12.9996 3.38268 12.9239C3.56541 12.8482 3.72159 12.72 3.83147 12.5556C3.94135 12.3911 4 12.1978 4 12C4 11.7348 3.89464 11.4804 3.70711 11.2929C3.51957 11.1054 3.26522 11 3 11ZM3 7C2.80222 7 2.60888 7.05865 2.44443 7.16853C2.27998 7.27841 2.15181 7.43459 2.07612 7.61732C2.00043 7.80004 1.98063 8.00111 2.01922 8.19509C2.0578 8.38907 2.15304 8.56725 2.29289 8.70711C2.43275 8.84696 2.61093 8.9422 2.80491 8.98079C2.99889 9.01937 3.19996 8.99957 3.38268 8.92388C3.56541 8.84819 3.72159 8.72002 3.83147 8.55557C3.94135 8.39112 4 8.19778 4 8C4 7.73478 3.89464 7.48043 3.70711 7.29289C3.51957 7.10536 3.26522 7 3 7ZM3 3C2.80222 3 2.60888 3.05865 2.44443 3.16853C2.27998 3.27841 2.15181 3.43459 2.07612 3.61732C2.00043 3.80004 1.98063 4.00111 2.01922 4.19509C2.0578 4.38907 2.15304 4.56725 2.29289 4.70711C2.43275 4.84696 2.61093 4.9422 2.80491 4.98079C2.99889 5.01937 3.19996 4.99957 3.38268 4.92388C3.56541 4.84819 3.72159 4.72002 3.83147 4.55557C3.94135 4.39112 4 4.19778 4 4C4 3.73478 3.89464 3.48043 3.70711 3.29289C3.51957 3.10536 3.26522 3 3 3V3ZM6 13H10V11H6V13ZM6 9H14V7H6V9ZM6 3V5H14V3H6Z" fill="#0F1621"/>
</svg>
