<svg xmlns="http://www.w3.org/2000/svg" width="24" height="24" viewBox="0 0 24 24"><rect width="24" height="24" style="fill:none"/><path d="M20,2H4A2,2,0,0,0,2,4V20a2,2,0,0,0,2,2h8V20h-.21l.21-.21V16.94L8.94,20H4V15.06L7.08,12,5.66,10.55,4,12.21V6.77l8,8V11.92L4.07,4h8.14l-3,3,1.42,1.43,3.59-3.6,4.94,4.95-.21.21H22V4A2,2,0,0,0,20,2Zm0,5.79L16.21,4H20ZM13.44,9.85l.15.15h2.85L14.86,8.43Z"/><polygon points="22 18 17.98 22 14 18 15.24 16.76 17 18.5 17 12 19 12 19 18.5 20.76 16.76 22 18" style="fill-rule:evenodd"/></svg>