<svg width="24" height="24" viewBox="0 0 24 24" fill="none" xmlns="http://www.w3.org/2000/svg">
<path d="M12 6C11.7348 6 11.4804 5.89464 11.2929 5.70711C11.1054 5.51957 11 5.26522 11 5V3C11 2.73478 11.1054 2.48043 11.2929 2.29289C11.4804 2.10536 11.7348 2 12 2V2C12.2652 2 12.5196 2.10536 12.7071 2.29289C12.8946 2.48043 13 2.73478 13 3V5C13 5.26522 12.8946 5.51957 12.7071 5.70711C12.5196 5.89464 12.2652 6 12 6ZM13 21V19C13 18.7348 12.8946 18.4804 12.7071 18.2929C12.5196 18.1054 12.2652 18 12 18C11.7348 18 11.4804 18.1054 11.2929 18.2929C11.1054 18.4804 11 18.7348 11 19V21C11 21.2652 11.1054 21.5196 11.2929 21.7071C11.4804 21.8946 11.7348 22 12 22C12.2652 22 12.5196 21.8946 12.7071 21.7071C12.8946 21.5196 13 21.2652 13 21ZM7.76 6.34L6.34 4.93C6.15264 4.74375 5.89919 4.63921 5.635 4.63921C5.37081 4.63921 5.11736 4.74375 4.93 4.93C4.74375 5.11736 4.63921 5.37081 4.63921 5.635C4.63921 5.89919 4.74375 6.15264 4.93 6.34L6.34 7.76C6.43296 7.85373 6.54356 7.92812 6.66542 7.97889C6.78728 8.02966 6.91799 8.0558 7.05 8.0558C7.18201 8.0558 7.31272 8.02966 7.43458 7.97889C7.55644 7.92812 7.66704 7.85373 7.76 7.76C7.85373 7.66704 7.92812 7.55644 7.97889 7.43458C8.02966 7.31272 8.0558 7.18201 8.0558 7.05C8.0558 6.91799 8.02966 6.78728 7.97889 6.66542C7.92812 6.54356 7.85373 6.43296 7.76 6.34ZM19.07 17.66L17.66 16.24C17.567 16.1463 17.4564 16.0719 17.3346 16.0211C17.2127 15.9703 17.082 15.9442 16.95 15.9442C16.818 15.9442 16.6873 15.9703 16.5654 16.0211C16.4436 16.0719 16.333 16.1463 16.24 16.24V16.24C16.1463 16.333 16.0719 16.4436 16.0211 16.5654C15.9703 16.6873 15.9442 16.818 15.9442 16.95C15.9442 17.082 15.9703 17.2127 16.0211 17.3346C16.0719 17.4564 16.1463 17.567 16.24 17.66L17.66 19.07C17.8474 19.2563 18.1008 19.3608 18.365 19.3608C18.6292 19.3608 18.8826 19.2563 19.07 19.07V19.07C19.2563 18.8826 19.3608 18.6292 19.3608 18.365C19.3608 18.1008 19.2563 17.8474 19.07 17.66V17.66ZM5 11H3C2.73478 11 2.48043 11.1054 2.29289 11.2929C2.10536 11.4804 2 11.7348 2 12V12C2 12.2652 2.10536 12.5196 2.29289 12.7071C2.48043 12.8946 2.73478 13 3 13H5C5.26522 13 5.51957 12.8946 5.70711 12.7071C5.89464 12.5196 6 12.2652 6 12C6 11.7348 5.89464 11.4804 5.70711 11.2929C5.51957 11.1054 5.26522 11 5 11ZM21 11H19C18.7348 11 18.4804 11.1054 18.2929 11.2929C18.1054 11.4804 18 11.7348 18 12C18 12.2652 18.1054 12.5196 18.2929 12.7071C18.4804 12.8946 18.7348 13 19 13H21C21.2652 13 21.5196 12.8946 21.7071 12.7071C21.8946 12.5196 22 12.2652 22 12C22 11.7348 21.8946 11.4804 21.7071 11.2929C21.5196 11.1054 21.2652 11 21 11ZM6.34 16.24L4.93 17.66C4.74375 17.8474 4.63921 18.1008 4.63921 18.365C4.63921 18.6292 4.74375 18.8826 4.93 19.07V19.07C5.11736 19.2563 5.37081 19.3608 5.635 19.3608C5.89919 19.3608 6.15264 19.2563 6.34 19.07L7.76 17.66C7.85373 17.567 7.92812 17.4564 7.97889 17.3346C8.02966 17.2127 8.0558 17.082 8.0558 16.95C8.0558 16.818 8.02966 16.6873 7.97889 16.5654C7.92812 16.4436 7.85373 16.333 7.76 16.24V16.24C7.66704 16.1463 7.55644 16.0719 7.43458 16.0211C7.31272 15.9703 7.18201 15.9442 7.05 15.9442C6.91799 15.9442 6.78728 15.9703 6.66542 16.0211C6.54356 16.0719 6.43296 16.1463 6.34 16.24V16.24ZM17.66 4.93L16.24 6.34C16.1463 6.43296 16.0719 6.54356 16.0211 6.66542C15.9703 6.78728 15.9442 6.91799 15.9442 7.05C15.9442 7.18201 15.9703 7.31272 16.0211 7.43458C16.0719 7.55644 16.1463 7.66704 16.24 7.76C16.333 7.85373 16.4436 7.92812 16.5654 7.97889C16.6873 8.02966 16.818 8.0558 16.95 8.0558C17.082 8.0558 17.2127 8.02966 17.3346 7.97889C17.4564 7.92812 17.567 7.85373 17.66 7.76L19.07 6.34C19.2563 6.15264 19.3608 5.89919 19.3608 5.635C19.3608 5.37081 19.2563 5.11736 19.07 4.93V4.93C18.8826 4.74375 18.6292 4.63921 18.365 4.63921C18.1008 4.63921 17.8474 4.74375 17.66 4.93Z" fill="#0F1621"/>
</svg>
