<svg width="16" height="16" viewBox="0 0 16 16" fill="none" xmlns="http://www.w3.org/2000/svg">
<path d="M8 4C7.73478 4 7.48043 3.89464 7.29289 3.70711C7.10536 3.51957 7 3.26522 7 3V2C7 1.73478 7.10536 1.48043 7.29289 1.29289C7.48043 1.10536 7.73478 1 8 1C8.26522 1 8.51957 1.10536 8.70711 1.29289C8.89464 1.48043 9 1.73478 9 2V3C9 3.26522 8.89464 3.51957 8.70711 3.70711C8.51957 3.89464 8.26522 4 8 4V4ZM9 14V13C9 12.7348 8.89464 12.4804 8.70711 12.2929C8.51957 12.1054 8.26522 12 8 12V12C7.73478 12 7.48043 12.1054 7.29289 12.2929C7.10536 12.4804 7 12.7348 7 13V14C7 14.2652 7.10536 14.5196 7.29289 14.7071C7.48043 14.8946 7.73478 15 8 15C8.26522 15 8.51957 14.8946 8.70711 14.7071C8.89464 14.5196 9 14.2652 9 14ZM5.17 3.76L4.46 3.05C4.27264 2.86375 4.01919 2.75921 3.755 2.75921C3.49081 2.75921 3.23736 2.86375 3.05 3.05C2.86375 3.23736 2.75921 3.49081 2.75921 3.755C2.75921 4.01919 2.86375 4.27264 3.05 4.46L3.76 5.17C3.94736 5.35625 4.20081 5.46079 4.465 5.46079C4.72919 5.46079 4.98264 5.35625 5.17 5.17C5.35625 4.98264 5.46079 4.72919 5.46079 4.465C5.46079 4.20081 5.35625 3.94736 5.17 3.76ZM13 11.54L12.29 10.83C12.1026 10.6437 11.8492 10.5392 11.585 10.5392C11.3208 10.5392 11.0674 10.6437 10.88 10.83C10.6937 11.0174 10.5892 11.2708 10.5892 11.535C10.5892 11.7992 10.6937 12.0526 10.88 12.24L11.59 12.95C11.7707 13.143 12.0204 13.2567 12.2847 13.2661C12.5489 13.2754 12.8061 13.1798 13 13C13.0999 12.9065 13.1796 12.7934 13.234 12.6678C13.2885 12.5423 13.3166 12.4069 13.3166 12.27C13.3166 12.1331 13.2885 11.9977 13.234 11.8722C13.1796 11.7466 13.0999 11.6335 13 11.54V11.54ZM3 7H2C1.73478 7 1.48043 7.10536 1.29289 7.29289C1.10536 7.48043 1 7.73478 1 8V8C1 8.26522 1.10536 8.51957 1.29289 8.70711C1.48043 8.89464 1.73478 9 2 9H3C3.26522 9 3.51957 8.89464 3.70711 8.70711C3.89464 8.51957 4 8.26522 4 8V8C4 7.73478 3.89464 7.48043 3.70711 7.29289C3.51957 7.10536 3.26522 7 3 7ZM14 7H13C12.7348 7 12.4804 7.10536 12.2929 7.29289C12.1054 7.48043 12 7.73478 12 8C12 8.26522 12.1054 8.51957 12.2929 8.70711C12.4804 8.89464 12.7348 9 13 9H14C14.2652 9 14.5196 8.89464 14.7071 8.70711C14.8946 8.51957 15 8.26522 15 8V8C15 7.73478 14.8946 7.48043 14.7071 7.29289C14.5196 7.10536 14.2652 7 14 7ZM3.76 10.83L3.05 11.54C2.86375 11.7274 2.75921 11.9808 2.75921 12.245C2.75921 12.5092 2.86375 12.7626 3.05 12.95C3.23736 13.1363 3.49081 13.2408 3.755 13.2408C4.01919 13.2408 4.27264 13.1363 4.46 12.95L5.17 12.24C5.35625 12.0526 5.46079 11.7992 5.46079 11.535C5.46079 11.2708 5.35625 11.0174 5.17 10.83V10.83C4.98264 10.6437 4.72919 10.5392 4.465 10.5392C4.20081 10.5392 3.94736 10.6437 3.76 10.83V10.83ZM11.54 3.05L10.83 3.76C10.6437 3.94736 10.5392 4.20081 10.5392 4.465C10.5392 4.72919 10.6437 4.98264 10.83 5.17V5.17C11.0174 5.35625 11.2708 5.46079 11.535 5.46079C11.7992 5.46079 12.0526 5.35625 12.24 5.17L13 4.46C13.1863 4.27264 13.2908 4.01919 13.2908 3.755C13.2908 3.49081 13.1863 3.23736 13 3.05C12.9065 2.95009 12.7934 2.87044 12.6678 2.81599C12.5423 2.76154 12.4069 2.73345 12.27 2.73345C12.1331 2.73345 11.9977 2.76154 11.8722 2.81599C11.7466 2.87044 11.6335 2.95009 11.54 3.05Z" fill="#0F1621"/>
</svg>
