<svg xmlns="http://www.w3.org/2000/svg" viewBox="0 0 24 24"><g id="Layer_2" data-name="Layer 2"><g id="UI_Solid" data-name="UI Solid"><g id="nocontent"><rect width="24" height="24" style="fill:none"/><path d="M12,6h0a1,1,0,0,1-1-1V3a1,1,0,0,1,1-1h0a1,1,0,0,1,1,1V5A1,1,0,0,1,12,6Zm1,15V19a1,1,0,0,0-1-1h0a1,1,0,0,0-1,1v2a1,1,0,0,0,1,1h0A1,1,0,0,0,13,21ZM7.76,6.34,6.34,4.93a1,1,0,0,0-1.41,0h0a1,1,0,0,0,0,1.41L6.34,7.76a1,1,0,0,0,1.42,0h0A1,1,0,0,0,7.76,6.34ZM19.07,17.66l-1.41-1.42a1,1,0,0,0-1.42,0h0a1,1,0,0,0,0,1.42l1.42,1.41a1,1,0,0,0,1.41,0h0A1,1,0,0,0,19.07,17.66ZM5,11H3a1,1,0,0,0-1,1H2a1,1,0,0,0,1,1H5a1,1,0,0,0,1-1H6A1,1,0,0,0,5,11Zm16,0H19a1,1,0,0,0-1,1h0a1,1,0,0,0,1,1h2a1,1,0,0,0,1-1h0A1,1,0,0,0,21,11ZM6.34,16.24,4.93,17.66a1,1,0,0,0,0,1.41h0a1,1,0,0,0,1.41,0l1.42-1.41a1,1,0,0,0,0-1.42h0A1,1,0,0,0,6.34,16.24ZM17.66,4.93,16.24,6.34a1,1,0,0,0,0,1.42h0a1,1,0,0,0,1.42,0l1.41-1.42a1,1,0,0,0,0-1.41h0A1,1,0,0,0,17.66,4.93Z"/></g></g></g></svg>