<svg width="16" height="16" viewBox="0 0 16 16" fill="none" xmlns="http://www.w3.org/2000/svg">
<path d="M14.14 2.91999L2.92 14.14L1.86 13.08L13.08 1.85999L14.14 2.91999ZM2 11.51L9.86 3.65999C9.33218 3.2365 8.6767 3.00391 8 2.99999H7C6.20435 2.99999 5.44129 3.31606 4.87868 3.87866C4.31607 4.44127 4 5.20434 4 5.99999V6.99999H3.5C2.97272 6.99714 2.45804 7.16109 2.02955 7.4684C1.60106 7.7757 1.2807 8.21061 1.11429 8.71096C0.947881 9.2113 0.943933 9.75145 1.10301 10.2542C1.26209 10.7569 1.57605 11.1965 2 11.51V11.51ZM12.5 6.99999H11.5L6.5 12H12.5C13.163 12 13.7989 11.7366 14.2678 11.2678C14.7366 10.7989 15 10.163 15 9.49999C15 8.83694 14.7366 8.20106 14.2678 7.73222C13.7989 7.26338 13.163 6.99999 12.5 6.99999V6.99999Z" fill="#0F1621"/>
</svg>
