<svg width="24" height="24" viewBox="0 0 24 24" fill="none" xmlns="http://www.w3.org/2000/svg">
<path d="M19 3.54999L20.45 4.99999L5 20.45L3.55 19L19 3.54999ZM19 9.99999H17C17.0043 9.94674 17.0043 9.89324 17 9.83999L15 11.84V12H20V16H10.83L8.83 18H19C19.7956 18 20.5587 17.6839 21.1213 17.1213C21.6839 16.5587 22 15.7956 22 15V13C22 12.2043 21.6839 11.4413 21.1213 10.8787C20.5587 10.3161 19.7956 9.99999 19 9.99999ZM3.56 17.61L5.17 16H4V12H7V9.99999C7 9.20434 7.31607 8.44128 7.87868 7.87867C8.44129 7.31606 9.20435 6.99999 10 6.99999H12C12.5949 7.00064 13.1762 7.17816 13.67 7.50999L15.08 6.08999C14.2044 5.39201 13.1198 5.00818 12 4.99999H10C8.67392 4.99999 7.40215 5.52677 6.46447 6.46445C5.52678 7.40214 5 8.67391 5 9.99999C4.20435 9.99999 3.44129 10.3161 2.87868 10.8787C2.31607 11.4413 2 12.2043 2 13V15C2.00389 15.5346 2.15056 16.0584 2.42483 16.5173C2.6991 16.9761 3.09101 17.3534 3.56 17.61V17.61Z" fill="#0F1621"/>
</svg>
