<svg xmlns="http://www.w3.org/2000/svg" width="16" height="16" viewBox="0 0 16 16"><rect width="16" height="16" style="fill:none"/><path d="M13.76,8.83A3,3,0,0,0,12,7.18V6H10V7.18A3,3,0,0,0,8.24,8.83a3,3,0,0,0,0,2.34A3,3,0,0,0,10,12.82V14h2V12.82a3,3,0,0,0,1.76-1.65,3,3,0,0,0,0-2.34ZM11,11a1,1,0,1,1,1-1A1,1,0,0,1,11,11ZM6.39,12a5.07,5.07,0,0,1,0-3.9A5.11,5.11,0,0,1,8,6H8V4h3V2H3.33A1.34,1.34,0,0,0,2,3.33v9.34A1.34,1.34,0,0,0,3.33,14H8A5.11,5.11,0,0,1,6.39,12ZM5,6A1,1,0,1,1,6,5,1,1,0,0,1,5,6Z"/></svg>