<svg xmlns="http://www.w3.org/2000/svg" viewBox="0 0 24 24"><defs><style>.cls-1{fill:none;}</style></defs><g id="Layer_2" data-name="Layer 2"><g id="UI_Solid" data-name="UI Solid"><g id="share-Android"><rect class="cls-1" width="24" height="24"/><path d="M20,19a3,3,0,0,1-6,0,2.92,2.92,0,0,1,.1-.73l-6.28-3.4A3,3,0,0,1,6,15.5a3,3,0,0,1,0-6,3.06,3.06,0,0,1,1.66.5l6.5-4.06A3.25,3.25,0,0,1,14,5a3,3,0,1,1,1.4,2.53L8.85,11.62A2.85,2.85,0,0,1,9,12.5a2.54,2.54,0,0,1-.09.68l6.31,3.42A3,3,0,0,1,20,19Z"/></g></g></g></svg>