<svg width="24" height="24" viewBox="0 0 24 24" fill="none" xmlns="http://www.w3.org/2000/svg">
<path d="M17 16C16.3577 16.0043 15.7338 16.2146 15.22 16.6L8.91 13.18C8.97061 12.9584 9.00088 12.7297 9 12.5C8.99654 12.2006 8.94591 11.9036 8.85 11.62L15.4 7.53C15.9631 7.88506 16.6284 8.04271 17.291 7.97813C17.9536 7.91356 18.5759 7.63042 19.0599 7.17331C19.5439 6.71619 19.8621 6.11108 19.9644 5.45325C20.0667 4.79542 19.9472 4.12226 19.6249 3.53976C19.3026 2.95726 18.7956 2.49852 18.184 2.23579C17.5723 1.97306 16.8905 1.92125 16.2462 2.08853C15.6018 2.25581 15.0314 2.63268 14.6247 3.15978C14.2181 3.68688 13.9983 4.33427 14 5C14.0068 5.3195 14.0607 5.63624 14.16 5.94L7.66 10C7.16644 9.6768 6.58996 9.50316 6 9.5C5.20435 9.5 4.44129 9.81607 3.87868 10.3787C3.31607 10.9413 3 11.7044 3 12.5C3 13.2957 3.31607 14.0587 3.87868 14.6213C4.44129 15.1839 5.20435 15.5 6 15.5C6.65942 15.4957 7.29906 15.2743 7.82 14.87L14.1 18.27C14.036 18.5081 14.0024 18.7534 14 19C14 19.5933 14.1759 20.1734 14.5056 20.6667C14.8352 21.1601 15.3038 21.5446 15.8519 21.7716C16.4001 21.9987 17.0033 22.0581 17.5853 21.9424C18.1672 21.8266 18.7018 21.5409 19.1213 21.1213C19.5409 20.7018 19.8266 20.1672 19.9424 19.5853C20.0581 19.0033 19.9987 18.4001 19.7716 17.852C19.5446 17.3038 19.1601 16.8352 18.6667 16.5056C18.1734 16.1759 17.5933 16 17 16V16Z" fill="#0F1621"/>
</svg>
