<svg xmlns="http://www.w3.org/2000/svg" width="24" height="24" viewBox="0 0 24 24"><rect width="24" height="24" style="fill:none"/><path d="M6,7.5H2V9H6ZM9,6V2H7.5V6ZM5.94,4.88,3.12,2.06,2.06,3.12,4.88,5.94ZM18,16.5h4V15H18ZM15,18v4h1.5V18Zm3.06,1.12,2.82,2.82,1.06-1.06-2.82-2.82ZM19.92,5.49A5.84,5.84,0,0,1,19.31,13l-.93.92L17,12.48l.93-.93a3.86,3.86,0,0,0-5.47-5.44L11.52,7,10.1,5.62,11,4.69a5.82,5.82,0,0,1,7.48-.61l1.78-1.79,1.42,1.42ZM12.48,17l1.42,1.41-.93.93a5.82,5.82,0,0,1-7.48.61L3.71,21.71,2.29,20.29l1.79-1.78A5.84,5.84,0,0,1,4.69,11l.93-.92L7,11.52l-.93.93a3.86,3.86,0,0,0,5.47,5.44Z"/></svg>