<svg xmlns="http://www.w3.org/2000/svg" width="16" height="16" viewBox="0 0 16 16"><rect width="16" height="16" style="fill:none"/><path d="M5,4V1H6V4ZM4,5H1V6H4ZM3.83,3.12,1.71,1,1,1.71,3.12,3.83ZM10,12v3h1V12Zm2-1h3V10H12Zm.17,1.88L14.29,15l.71-.71-2.12-2.12ZM7.1,12.4A2.49,2.49,0,0,1,3.48,9l.61-.68L2.68,6.94l-.39.39a4.47,4.47,0,0,0-.58,5.55L1,13.59,2.41,15l.72-.72a4.46,4.46,0,0,0,5.32-.42l.64-.62L7.67,11.83Zm7.61-9.69.29-.3L13.59,1l-.3.29-.36.37a4.66,4.66,0,0,0-5.71.76l-.37.36L8.27,4.2l.36-.37a2.62,2.62,0,0,1,3.68-.14,2.52,2.52,0,0,1,.28,3.12l-.68.72L13.37,9l.21-.21a4.66,4.66,0,0,0,.76-5.71Z"/></svg>