<svg width="24" height="24" viewBox="0 0 24 24" fill="none" xmlns="http://www.w3.org/2000/svg">
<path d="M6 7.5H2V9H6V7.5ZM9 6V2H7.5V6H9ZM5.94 4.88L3.12 2.06L2.06 3.12L4.88 5.94L5.94 4.88ZM18 16.5H22V15H18V16.5ZM15 18V22H16.5V18H15ZM18.06 19.12L20.88 21.94L21.94 20.88L19.12 18.06L18.06 19.12ZM19.92 5.49C20.7214 6.6123 21.0998 7.982 20.9881 9.35653C20.8765 10.7311 20.282 12.0217 19.31 13L18.38 13.92L17 12.48L17.93 11.55C18.6072 10.816 18.9735 9.84808 18.952 8.84965C18.9305 7.85122 18.5229 6.89998 17.8148 6.19576C17.1067 5.49155 16.1532 5.08918 15.1547 5.07318C14.1562 5.05719 13.1903 5.42882 12.46 6.11L11.52 7L10.1 5.62L11 4.69C11.9744 3.7221 13.2597 3.12996 14.6285 3.01833C15.9974 2.9067 17.3617 3.28276 18.48 4.08L20.26 2.29L21.68 3.71L19.92 5.49ZM12.48 17L13.9 18.41L12.97 19.34C11.9956 20.3079 10.7103 20.9 9.34145 21.0117C7.97258 21.1233 6.60834 20.7472 5.49 19.95L3.71 21.71L2.29 20.29L4.08 18.51C3.2786 17.3877 2.90022 16.018 3.01187 14.6435C3.12352 13.2689 3.71798 11.9783 4.69 11L5.62 10.08L7 11.52L6.07 12.45C5.39285 13.184 5.02654 14.1519 5.04802 15.1503C5.0695 16.1488 5.47711 17.1 6.18521 17.8042C6.89331 18.5085 7.84678 18.9108 8.84531 18.9268C9.84384 18.9428 10.8097 18.5712 11.54 17.89L12.48 17Z" fill="#0F1621"/>
</svg>
