<svg xmlns="http://www.w3.org/2000/svg" viewBox="0 0 24 24"><defs><style>.cls-1{fill:none;opacity:0;}</style></defs><g id="Layer_2" data-name="Layer 2"><g id="UI_Solid" data-name="UI Solid"><g id="upload-cloud"><rect id="_Rectangle_" data-name="&lt;Rectangle&gt;" class="cls-1" width="24" height="24" transform="translate(0 24) rotate(-90)"/><path d="M8,14l1.24,1.24L11,13.5V22h2V13.5l1.76,1.74L16,14l-4-4ZM19,7H17a5,5,0,0,0-5-5H10A5,5,0,0,0,5,7a3,3,0,0,0-3,3v2a3,3,0,0,0,3,3H6V13H4V9H7V7a3,3,0,0,1,3-3h2a3,3,0,0,1,3,3V9h5v4H18v2h1a3,3,0,0,0,3-3V10A3,3,0,0,0,19,7Z"/></g></g></g></svg>