<svg xmlns="http://www.w3.org/2000/svg" width="24" height="24" viewBox="0 0 24 24">
  <g fill="none" fill-rule="evenodd">
    <rect width="24" height="24" opacity="0"/>
    <path fill="#0F1621" fill-opacity=".95" d="M20.537,1.99999996 C21.3031177,1.99999996 21.9053599,2.57489269 21.9902351,3.32033052 L22,3.46199996 L22,22 L20,22 L20,3.99999996 L17.5,3.99999996 L17.5,16 C17.5,17.0547727 16.6845145,17.9182024 15.6493158,17.9945168 L15.5,18 L15,18 L15,21.428 L13.473,20.807 C13.21925,20.681 13.0474218,20.4378594 13.0084296,20.1619883 L13,20.042 L13,18 L11,18 L11,20.043 C11,20.3265 10.8598906,20.5885625 10.6305859,20.7461172 L10.527,20.807 L8.99999996,21.428 L8.99999996,18 L8.49999996,18 C7.44522725,18 6.58179748,17.1845145 6.50548315,16.1493158 L6.49999996,16 L6.50099998,3.99999996 L3.99999996,3.99999996 L3.99999996,22 L1.99999996,22 L1.99999996,3.46199996 C2.01882349,2.69682349 2.57710723,2.07692037 3.32135962,2.00663826 L3.46299996,1.99999996 L20.537,1.99999996 Z M16,3.99999997 L7.99999998,3.99999997 L7.99999998,16 L8.49999998,16 L9.75699999,12.649 C9.88839999,12.298 10.20367,12.05311 10.569403,12.007642 L10.693,12 L13.307,12 C13.6823,12 14.02196,12.20979 14.192573,12.536058 L14.243,12.649 L15.5,16 L16,16 L16,3.99999997 Z M12.5,5.99999997 C13.328,5.99999997 14,6.67199998 14,7.49999997 L14,8.49999997 C14,9.32799999 13.328,9.99999997 12.5,9.99999997 L11.5,9.99999997 C10.672,9.99999997 9.99999999,9.32799999 9.99999999,8.49999997 L9.99999999,7.49999997 C9.99999999,6.67199998 10.672,5.99999997 11.5,5.99999997 L12.5,5.99999997 Z"/>
  </g>
</svg>
