<svg xmlns="http://www.w3.org/2000/svg" width="24" height="24" viewBox="0 0 24 24">
  <g fill="none" fill-rule="evenodd">
    <rect width="24" height="24" opacity="0"/>
    <path fill="#0F1621" fill-opacity=".95" d="M12.773,13 L13,21 L11,21 L11.227,13 L12.773,13 Z M12.476,2.49999996 L12.531,3.99999996 L12.952,3.99999996 C17.714,3.99999996 19.913,6.30799998 22,9.38499999 C22,10.277 21.311,11 20.462,11 L18.022,11 C17.614,11 17.223,10.83 16.934,10.527 L15.846,9.38399999 L14.758,10.526 C14.47,10.83 14.078,11 13.67,11 L10.33,11 C9.92199999,11 9.53099999,10.83 9.24199999,10.527 L8.15399998,9.38499999 L7.06599998,10.527 C6.77699998,10.83 6.38599998,11 5.97799997,11 L3.53799996,11 C2.68899996,11 1.99999996,10.277 1.99999996,9.38499999 L2.31419633,8.92940986 C4.31330747,6.08296997 6.52409998,3.99999996 11.048,3.99999996 L11.469,3.99999996 L11.524,2.49999996 L12.476,2.49999996 Z"/>
  </g>
</svg>
