<svg xmlns="http://www.w3.org/2000/svg" width="24" height="24" viewBox="0 0 24 24">
  <g fill="none" fill-rule="evenodd">
    <polyline points="24 0 24 24 0 24 0 0 24 0"/>
    <path fill="#0F1621" fill-opacity=".95" d="M8.99999996,3.99999997 L8.99999996,5.99999997 L22,5.99999997 L22,17 C22,18.104 21.105,19 20,19 L3.99999996,19 C2.89499996,19 1.99999996,18.104 1.99999996,17 L1.99999996,5.99999997 L4.99999996,5.99999997 L4.99999996,3.99999997 L8.99999996,3.99999997 Z M15.5,7.99999998 C13.015,7.99999998 11,10.015 11,12.5 C11,14.985 13.015,17 15.5,17 C17.985,17 20,14.985 20,12.5 C20,10.015 17.985,7.99999998 15.5,7.99999998 Z M15.5,9.99999999 C16.879,9.99999999 18,11.121 18,12.5 C18,13.878 16.879,15 15.5,15 C14.122,15 13,13.878 13,12.5 C13,11.122 14.122,9.99999999 15.5,9.99999999 Z M8.99999997,7.99999998 L4.99999997,7.99999998 L4.99999997,9.99999998 L8.99999997,9.99999998 L8.99999997,7.99999998 Z"/>
  </g>
</svg>
