<svg xmlns="http://www.w3.org/2000/svg" width="24" height="24" viewBox="0 0 24 24">
  <g fill="none" fill-rule="evenodd">
    <rect width="24" height="24"/>
    <path fill="#0F1621" fill-opacity=".95" d="M12,1.99999996 L21,5.99999996 L21,7.99999996 L20,7.99999996 L20,18 L21,18 L21,20 L22,20 L22,22 L1.99999996,22 L1.99999996,20 L2.99999996,20 L2.99999996,18 L3.99999996,18 L3.99999996,7.99999996 L2.99999996,7.99999996 L2.99999996,5.99999996 L12,1.99999996 Z M10.5,7.99999998 L6.99999998,7.99999998 L6.99999998,18 L10.5,18 L10.5,7.99999998 Z M17,7.99999998 L13.5,7.99999998 L13.5,18 L17,18 L17,7.99999998 Z"/>
  </g>
</svg>
