<svg xmlns="http://www.w3.org/2000/svg" viewBox="0 0 80 80"><path d="M40,7A26.88,26.88,0,0,0,13,33.72c0,7.38,3.9,17.41,12.85,26.21L40,74,54.15,59.93C63.1,51.13,67,41.1,67,33.72A26.88,26.88,0,0,0,40,7Z" style="fill:#d1def4;fill-rule:evenodd;opacity:0.35000000000000003"/><path d="M47,34a7,7,0,1,1-7-7A7,7,0,0,1,47,34Zm20-.28C67,41,63.23,50.79,54.59,59.48L40,74,25.85,59.93C16.9,51.13,13,41.1,13,33.72a27,27,0,0,1,54,0Zm-4,0a23,23,0,0,0-46,0c0,6.91,4,15.61,11.26,23L40,68.36,51.34,57.07c7.41-7.28,11.51-16,11.66-23Z" style="fill:#fff"/></svg>