<svg xmlns="http://www.w3.org/2000/svg" width="80" height="80" viewBox="0 0 80 80">
  <g fill="#FFF" fill-rule="evenodd" transform="translate(14 3)">
    <path d="M50.7716049,1.08024691 L50.7716049,50.7716049 L1.08024691,50.7716049 L1.08024691,1.08024691 L50.7716049,1.08024691 L50.7716049,1.08024691 Z M51.8518519,0 L0,0 L0,51.8518519 L51.8518519,51.8518519 L51.8518519,0 L51.8518519,0 Z" opacity="0"/>
    <polygon points="26 21.5 2 29 8.5 42 26 49.5 43 42 49.5 29"/>
    <path d="M35.6481481,7.5617284 L31.5,7.5 L31.5,1 L20.5,1 L20.5,7.5 L16.2037037,7.5617284 C13.8172222,7.5617284 12,9.61351852 12,12 L12,23 L24.9211883,18.6838426 C25.4782716,18.5186728 26.3735802,18.5186728 26.9306636,18.6838426 L40,23 L40,12 C40,9.61351852 38.0346296,7.5617284 35.6481481,7.5617284 Z M21,15 L21,12 L31,12 L31,15 L21,15 Z"/>
  </g>
</svg>
