<svg xmlns="http://www.w3.org/2000/svg" width="80" height="80" viewBox="0 0 80 80">
  <g fill="#FFF" fill-rule="evenodd" transform="translate(4 4)">
    <path d="M70.2991453,1.4957265 L70.2991453,70.2991453 L1.4957265,70.2991453 L1.4957265,1.4957265 L70.2991453,1.4957265 L70.2991453,1.4957265 Z M71.7948718,0 L0,0 L0,71.7948718 L71.7948718,71.7948718 L71.7948718,0 L71.7948718,0 Z" opacity="0"/>
    <polygon points="35.897 29.915 2.991 40.385 11.966 58.333 35.897 68.803 59.829 58.333 68.803 40.385"/>
    <path d="M49.3589744,10.4700855 L43.3760684,10.4700855 L43.3760684,1.4957265 L28.4188034,1.4957265 L28.4188034,10.4700855 L22.4358974,10.4700855 C19.1315385,10.4700855 16.4529915,13.1486325 16.4529915,16.4529915 L16.4529915,22.4358974 L16.4529915,30.1239316 L16.4529915,31.6142735 L34.5062607,25.8699359 C35.2776068,25.6412393 36.517265,25.6412393 37.2886111,25.8699359 L55.3418803,31.6142735 L55.3418803,30.1239316 L55.3418803,22.4358974 L55.3418803,16.4529915 C55.3418803,13.1486325 52.6633333,10.4700855 49.3589744,10.4700855 Z M29.9145299,20.9401709 L29.9145299,16.4529915 L41.8803419,16.4529915 L41.8803419,20.9401709 L29.9145299,20.9401709 Z"/>
  </g>
</svg>
