<svg xmlns="http://www.w3.org/2000/svg" width="80" height="80" viewBox="0 0 80 80">
  <path d="M61.06,52.36 L45.64,41.16 C44.6288646,40.4214198 44.0219319,39.2519643 44,38 L44,18 L58,32 L63,27 L40,3 L17,27 L22,32 L36,18 L36,36.72 L36,36.72 L36,38 C36.0033213,39.2802157 35.393657,40.4846745 34.36,41.24 L18.94,52.44 C15.8767347,54.6683482 14.0454724,58.2122484 14,62 L14,80 L22,80 L22,62 C21.9966787,60.7197843 22.606343,59.5153255 23.64,58.76 L39.06,47.56 C39.3862023,47.3159113 39.6999313,47.055583 40,46.78 C40.3,47.04 40.62,47.32 40.94,47.56 L56.36,58.76 C57.393657,59.5153255 58.0033213,60.7197843 58,62 L58,80 L66,80 L66,62 C65.9797925,58.1839802 64.1457864,54.6050696 61.06,52.36 Z"/>
</svg>
