<svg xmlns="http://www.w3.org/2000/svg" width="24" height="24" viewBox="0 0 24 24">
  <g fill="none" fill-rule="evenodd">
    <rect width="24" height="24"/>
    <path fill="#0F1621" fill-opacity=".95" d="M18.5,1.99999996 C19.2811765,1.99999996 19.9206228,2.59349477 19.9931488,3.35529408 L20,3.49999996 L20,17 L16,17 L21,22 L18,22 L13.5,17 L10.5,17 L5.99999996,22 L2.99999996,22 L7.99999996,17 L3.99999996,17 L3.99999996,3.49999996 C3.99999996,2.71882349 4.59349478,2.07937712 5.35529408,2.00685117 L5.49999996,1.99999996 L18.5,1.99999996 Z M7.49999997,12.5 L7.35560673,12.5068708 C6.64278768,12.5750531 6.0750531,13.1427877 6.00687073,13.8556068 L5.99999997,14 L6.00687073,14.1443932 C6.0750531,14.8572123 6.64278768,15.4249469 7.35560673,15.4931293 L7.49999997,15.5 L7.64439322,15.4931293 C8.35721228,15.4249469 8.92494685,14.8572123 8.99312922,14.1443932 L8.99999997,14 L8.99312922,13.8556068 C8.92494685,13.1427877 8.35721228,12.5750531 7.64439322,12.5068708 L7.49999997,12.5 Z M16.5,12.5 L16.3556068,12.5068708 C15.6427877,12.5750531 15.0750531,13.1427877 15.0068708,13.8556068 L15,14 L15.0068708,14.1443932 C15.0750531,14.8572123 15.6427877,15.4249469 16.3556068,15.4931293 L16.5,15.5 L16.6443933,15.4931293 C17.3572123,15.4249469 17.9249469,14.8572123 17.9931293,14.1443932 L18,14 L17.9931293,13.8556068 C17.9249469,13.1427877 17.3572123,12.5750531 16.6443933,12.5068708 L16.5,12.5 Z M11,3.99999997 L5.99999997,3.99999997 L5.99999997,11 L11,11 L11,3.99999997 Z M18,3.99999997 L13,3.99999997 L13,11 L18,11 L18,3.99999997 Z"/>
  </g>
</svg>
