<svg xmlns="http://www.w3.org/2000/svg" width="24" height="24" viewBox="0 0 24 24">
  <g fill="none" fill-rule="evenodd">
    <polygon points="24 24 0 24 0 0 24 0"/>
    <path fill="#0F1621" fill-opacity=".95" d="M14.8,1.99999996 C16.2711539,1.99999996 17.5204142,3.07248517 17.7565743,4.51514847 L17.78,4.68999997 L18.39,9.95999999 C18.4425,10.4775 18.478125,11.000625 18.4926562,11.5251562 L18.5,12.05 L18.5,17 L16,17 L22,22 L19,22 L13.5,17 L10.5,17 L5.99999996,22 L2.99999996,22 L7.99999996,17 L5.49999996,17 L5.49999996,12.05 C5.49999996,11.525 5.52249997,11 5.56328122,10.4792187 L5.60999997,9.95999999 L6.21999998,4.68999997 C6.37384613,3.21884612 7.57244081,2.08977807 9.02457725,2.00510294 L9.19999999,1.99999996 L14.8,1.99999996 Z M12,12.5 C11.172,12.5 10.5,13.172 10.5,14 C10.5,14.828 11.172,15.5 12,15.5 C12.828,15.5 13.5,14.828 13.5,14 C13.5,13.172 12.828,12.5 12,12.5 Z M14.5,3.99499997 L9.49999999,3.99499997 C8.89999999,3.99499997 8.38789061,4.63660153 8.27678221,5.24414548 L8.25999998,5.36499997 L7.65099998,10.14 L7.60912498,10.56775 L7.60912498,10.56775 L7.57999998,11 L16.422,11 L16.3925,10.56775 L16.3925,10.56775 L16.351,10.14 L15.74,5.36499997 C15.68375,4.76499997 15.205625,4.0858984 14.6187354,4.00335446 L14.5,3.99499997 Z"/>
  </g>
</svg>
