<svg xmlns="http://www.w3.org/2000/svg" width="24" height="24" viewBox="0 0 24 24">
  <g fill="none" fill-rule="evenodd">
    <rect width="24" height="24"/>
    <path fill="#0F1621" fill-opacity=".95" d="M18.5,1.99999996 C19.2792941,1.99999996 19.9204014,2.5952664 19.9931292,3.35560672 L20,3.49999996 L20,5.99999996 L21,5.99999996 L21,9.99999996 L20,9.99999996 L20,21 C20,21.5125715 19.6137143,21.9354694 19.1165685,21.9932682 L19,22 L17,22 C16.4874286,22 16.0645306,21.6137143 16.0067317,21.1165685 L16,21 L16,20 L7.99999996,20 L7.99999996,20.996 C7.99999996,21.5113572 7.61285202,21.9353163 7.1131811,21.9932525 L6.99599998,22 L4.99999996,22 C4.48742854,22 4.06453058,21.6137143 4.00673174,21.1165685 L3.99999996,21 L3.99999996,9.99999996 L2.99999996,9.99999996 L2.99999996,5.99999996 L3.99999996,5.99999996 L3.99999996,3.49999996 C3.99999996,2.72070584 4.5952664,2.07959857 5.35560672,2.00687071 L5.49999996,1.99999996 L18.5,1.99999996 Z M8.99999999,16 L6.49999998,16 C5.87223527,16.6277647 5.83530793,17.2546436 6.38921797,17.8823041 L6.49999998,18 L8.99999999,18 L8.99999999,16 Z M17.5,16 L15,16 L15,18 L17.5,18 C18.1277647,17.3722353 18.1646921,16.7453564 17.610782,16.1176959 L17.5,16 Z M18,7.99999998 L5.99999997,7.99999998 L5.99999997,14 L18,14 L18,7.99999998 Z M18,3.99999997 L5.99999997,3.99999997 L5.99999997,5.99999997 L18,5.99999997 L18,3.99999997 Z"/>
  </g>
</svg>
