<svg xmlns="http://www.w3.org/2000/svg" width="24" height="24" viewBox="0 0 24 24">
  <g fill="none" fill-rule="evenodd">
    <rect width="24" height="24"/>
    <path fill="#0F1621" fill-opacity=".95" d="M19,15 C20.654,15 22,16.346 22,18 L22,19 C22,20.654 20.654,22 19,22 L4.99999996,22 C3.34599996,22 1.99999996,20.654 1.99999996,19 L1.99999996,18 C1.99999996,16.466 3.16099996,15.212 4.64799997,15.036 C4.96899997,15.759 5.40399997,16.418 5.92599997,17 L3.99999996,17 L3.99999996,20 L20,20 L20,17 L17.074,17 C17.605,16.409 18.046,15.737 18.369,15 L19,15 Z M11.5,5.99999997 C14.814,5.99999997 17.5,8.68799999 17.5,12 C17.5,15.314 14.814,18 11.5,18 C8.18499998,18 5.49999997,15.314 5.49999997,12 C5.49999997,8.68799999 8.18499998,5.99999997 11.5,5.99999997 Z M13,7.99999998 L11,7.99999998 L8.99999999,10.5 L11,10.5 L11,16 L13,16 L13,7.99999998 Z M11.5,4.49999997 C11.303,4.49999997 11.109,4.51499997 10.916,4.52999997 C11.819,3.23999996 13.305,2.38899996 15,2.38899996 C17.761,2.38899996 20,4.62899997 20,7.38899996 C20,8.58699999 19.556,9.66799999 18.853,10.527 C18.167,7.09499998 15.131,4.49999997 11.5,4.49999997 Z"/>
  </g>
</svg>
