<svg xmlns="http://www.w3.org/2000/svg" width="24" height="24" viewBox="0 0 24 24">
  <g fill="none" fill-rule="evenodd">
    <rect width="24" height="24"/>
    <path fill="#0F1621" fill-opacity=".95" d="M1.99999996,21.881 L22,17.138 L22,15.638 L1.99999996,20.381 L1.99999996,21.881 Z M19.51,1.99999996 C20.7964,1.99999996 21.907696,3.00454396 21.9945414,4.33238524 L22,4.49999996 L22,13.5 L2.99999996,18 L2.99999996,8.20999998 C2.99999996,6.88043476 3.87833645,5.71555763 5.13617158,5.33672801 L5.30999997,5.28999997 L18.92,2.06999996 C19.12,2.01999996 19.31,1.99999996 19.51,1.99999996 Z M11.75,5.72999997 L5.95999997,7.10999998 C5.4430769,7.22999997 5.06248518,7.66526625 5.00699132,8.18770595 L4.99999997,8.31999998 L4.99999997,12.581 L11.75,10.971 L11.75,5.72999997 Z M19.26,3.95899997 L19.17,3.96524997 L19.17,3.96524997 L19.08,3.97899997 L13.25,5.36999997 L13.25,10.611 L20,8.99999999 L20,4.70899997 C20,4.24899997 19.61,3.95899997 19.26,3.95899997 Z"/>
  </g>
</svg>
