<svg xmlns="http://www.w3.org/2000/svg" width="24" height="24" viewBox="0 0 24 24">
  <g fill="none" fill-rule="evenodd">
    <rect width="24" height="24"/>
    <path fill="#0F1621" fill-opacity=".95" d="M12.743,16.5 L14.9970001,20 L8.99100003,20 L11.214,16.5 L12.743,16.5 Z M11.991,-5.00000006e-08 C18.2286141,-5.00000006e-08 21.8533774,2.97480821 21.9795905,8.17527849 L21.9830001,8.45599999 L21.9830001,19.9999999 L17.9980001,19.9999999 L15.3410001,16.4999999 L16.9970001,16.4999999 C17.5095715,16.4999999 17.9324695,16.1137143 17.9902683,15.6165685 L17.9970001,15.4999999 L17.9970001,8.36899998 C17.9970001,5.36499997 15.6960001,3.49999995 11.994,3.49999995 C8.38229271,3.49999995 6.10407735,5.27513382 5.99509344,8.15123836 L5.99100002,8.36899998 L5.99100002,15.4999999 C5.99100002,16.0107143 6.37901022,16.435204 6.87480104,16.4932397 L6.99100002,16.4999999 L8.57700003,16.4999999 L5.99100002,19.9999999 L2,19.9999999 L2,8.45599999 C2,3.08199996 5.64200002,-5.00000006e-08 11.991,-5.00000006e-08 Z M14.9910001,12.5 L15.1187466,12.5064575 C15.7068082,12.5662378 16.1747623,13.0341919 16.2345425,13.6222534 L16.241,13.75 L16.2345425,13.8777466 C16.1747623,14.4658081 15.7068082,14.9337622 15.1187466,14.9935425 L14.9910001,15 L14.8632535,14.9935425 C14.2751919,14.9337622 13.8072378,14.4658081 13.7474576,13.8777466 L13.741,13.75 L13.7474576,13.6222534 C13.8072378,13.0341919 14.2751919,12.5662378 14.8632535,12.5064575 L14.9910001,12.5 Z M8.99100003,12.5 L9.11874661,12.5064575 C9.70680814,12.5662378 10.1747622,13.0341919 10.2345425,13.6222534 L10.241,13.75 L10.2345425,13.8777466 C10.1747622,14.4658081 9.70680814,14.9337622 9.11874661,14.9935425 L8.99100003,15 L8.86325345,14.9935425 C8.27519192,14.9337622 7.80723782,14.4658081 7.74745754,13.8777466 L7.74100002,13.75 L7.74745754,13.6222534 C7.80723782,13.0341919 8.27519192,12.5662378 8.86325345,12.5064575 L8.99100003,12.5 Z M11.994,5.76499997 L12.2484367,5.76927278 C13.5577138,5.81386081 15.3743287,6.2347073 15.4901672,8.28725927 L15.496,8.49799999 L15.496,10.329 L8.49600003,10.329 L8.49600003,8.49799999 C8.49600003,6.11999998 10.638,5.76499997 11.994,5.76499997 Z"/>
  </g>
</svg>
