<svg xmlns="http://www.w3.org/2000/svg" width="24" height="24" viewBox="0 0 24 24">
  <g fill="none" fill-rule="evenodd">
    <rect width="24" height="24"/>
    <path fill="#0F1621" fill-opacity=".95" d="M13.905,2.99999996 C14.4463333,2.99999996 14.91188,3.40942219 15.038216,3.9794773 L15.06,4.10399997 L15.435,6.99999996 L16.251,6.99999996 C17.2505294,6.99999996 18.1800796,7.59083735 18.6686512,8.52073274 L18.755,8.69899999 L19.778,11 L21.5,11 C22.1277647,11.6277647 22.1646921,12.2546436 21.610782,12.8823041 L21.5,13 L21,13 L21,19 C21,19.5125715 20.6137143,19.9354694 20.1165685,19.9932682 L20,20 L17,20 C16.4874286,20 16.0645306,19.6137143 16.0067318,19.1165685 L16,19 L16,18 L7.99999998,18 L7.99999998,19 C7.99999998,19.5125715 7.61371427,19.9354694 7.11656849,19.9932682 L6.99999998,20 L4.01699997,20 C3.50442854,20 3.08153058,19.6137143 3.02373174,19.1165685 L3.01699996,19 L3.01699996,13 L2.49999996,13 C1.87223525,12.3722353 1.83530792,11.7453564 2.38921795,11.1176959 L2.49999996,11 L4.25599997,11 L5.27899997,8.69899999 C5.71099997,7.72770586 6.60628025,7.07973353 7.59550884,7.00686237 L7.78199998,6.99999996 L8.56499999,6.99999996 L8.93999999,4.10399997 C9.01653332,3.51226663 9.45109332,3.06339552 9.98025599,3.00617596 L10.095,2.99999996 L13.905,2.99999996 Z M7.99999998,14 L5.49999997,14 C4.87223526,14.6277647 4.83530793,15.2546436 5.38921797,15.8823041 L5.49999997,16 L7.99999998,16 L7.99999998,14 Z M18.5,14 L16,14 L16,16 L18.5,16 C19.1277647,15.3722353 19.1646921,14.7453564 18.610782,14.1176959 L18.5,14 Z M16.251,8.99999999 L7.78199998,8.99999999 C7.54049998,8.99999999 7.31124998,9.15006249 7.16392185,9.39927343 L7.10599998,9.51199999 L5.99999997,12 L18.034,12 L16.928,9.51199999 C16.804625,9.23549999 16.5909063,9.05087499 16.353836,9.00903905 L16.251,8.99999999 Z"/>
  </g>
</svg>
