<svg xmlns="http://www.w3.org/2000/svg" width="96" height="96" viewBox="0 0 96 96">
  <g fill="none" fill-rule="evenodd" transform="translate(6 6)">
    <path fill="#FFF" d="M42,0 C65.1959595,0 84,18.8040405 84,42 C84,65.1959595 65.1959595,84 42,84 C18.8040405,84 0,65.1959595 0,42 C0,18.8040405 18.8040405,0 42,0 Z M42,2 C19.90861,2 2,19.90861 2,42 C2,64.09139 19.90861,82 42,82 C64.09139,82 82,64.09139 82,42 C82,19.90861 64.09139,2 42,2 Z M42,8 C60.7776815,8 76,23.2223185 76,42 C76,60.7776815 60.7776815,76 42,76 C23.2223185,76 8,60.7776815 8,42 C8,23.2223185 23.2223185,8 42,8 Z"/>
    <path fill="#FB0425" d="M42,2 C64.09139,2 82,19.90861 82,42 C82,64.09139 64.09139,82 42,82 C19.90861,82 2,64.09139 2,42 C2,19.90861 19.90861,2 42,2 Z M42,8 C23.2223185,8 8,23.2223185 8,42 C8,60.7776815 23.2223185,76 42,76 C60.7776815,76 76,60.7776815 76,42 C76,23.2223185 60.7776815,8 42,8 Z"/>
  </g>
</svg>
