<svg width="96" height="96" viewBox="0 0 96 96" fill="none" xmlns="http://www.w3.org/2000/svg">
<path d="M86.4676 14H9.53238C7.97779 14 7.01756 15.6959 7.81739 17.029L46.285 81.1417C47.0618 82.4364 48.9382 82.4364 49.715 81.1417L88.1826 17.029C88.9824 15.6959 88.0222 14 86.4676 14Z" fill="white"/>
<path fill-rule="evenodd" clip-rule="evenodd" d="M6.10241 18.058L44.57 82.1707C46.1236 84.76 49.8764 84.76 51.43 82.1707L89.8976 18.058C91.4973 15.3919 89.5768 12 86.4676 12H9.53238C6.4232 12 4.50275 15.3919 6.10241 18.058ZM9.53238 14H86.4676C88.0222 14 88.9824 15.6959 88.1826 17.029L49.715 81.1417C48.9382 82.4364 47.0618 82.4364 46.285 81.1417L7.81739 17.029C7.01756 15.6959 7.97779 14 9.53238 14Z" fill="white"/>
<path fill-rule="evenodd" clip-rule="evenodd" d="M49.715 81.1417C48.9382 82.4364 47.0618 82.4364 46.285 81.1417L7.81739 17.029C7.01756 15.6959 7.97779 14 9.53238 14H86.4676C88.0222 14 88.9824 15.6959 88.1826 17.029L49.715 81.1417ZM79.4029 20L48 72.3381L16.5971 20H79.4029Z" fill="#CF001A"/>
</svg>
