<svg width="96" height="96" viewBox="0 0 96 96" fill="none" xmlns="http://www.w3.org/2000/svg">
<path fill-rule="evenodd" clip-rule="evenodd" d="M88.3764 44.4309L11.806 5.68445C9.14536 4.33808 6 6.27158 6 9.25352L6 86.7465C6 89.7284 9.14535 91.6619 11.806 90.3155L88.3764 51.5691C91.3017 50.0888 91.3017 45.9112 88.3764 44.4309Z" fill="#FFBD09"/>
<path fill-rule="evenodd" clip-rule="evenodd" d="M12.8944 10.4472C11.5646 9.78232 9.99998 10.7493 9.99998 12.2361L9.99997 83.7639C9.99997 85.2507 11.5646 86.2177 12.8944 85.5528L84.4223 49.7889C85.8964 49.0518 85.8964 46.9482 84.4223 46.2112L12.8944 10.4472ZM13 82.1459L81.2918 48L13 13.8541L13 82.1459Z" fill="#0E1520"/>
<path d="M26.584 33.912V45H23.24L20.04 36.408C20.168 37.416 20.376 38.888 20.376 40.936V45H18.04V33.912H21.304L24.584 42.52C24.44 41.624 24.232 40.168 24.232 38.392V33.912H26.584Z" fill="#0E1520"/>
<path d="M32.9694 33.64C36.1054 33.64 37.9774 35.752 37.9774 39.448C37.9774 43.08 36.1054 45.272 32.9694 45.272C29.8494 45.272 27.9774 43.144 27.9774 39.448C27.9774 35.832 29.8494 33.64 32.9694 33.64ZM32.9694 35.56C31.4974 35.56 30.7294 36.648 30.7294 39.448C30.7294 42.264 31.5294 43.352 32.9694 43.352C34.4734 43.352 35.2254 42.264 35.2254 39.448C35.2254 36.648 34.4574 35.56 32.9694 35.56Z" fill="#0E1520"/>
<path d="M21.624 47.912C24.488 47.912 26.248 49.096 26.248 51.528C26.248 54.104 24.424 55.304 21.864 55.304H20.664V59H18.04V47.912H21.624ZM21.64 53.416C22.824 53.416 23.544 52.92 23.544 51.528C23.544 50.344 22.888 49.784 21.592 49.784H20.664V53.416H21.64Z" fill="#0E1520"/>
<path d="M32.4075 59L31.8315 56.616H28.5995L28.0395 59H25.3195L28.6635 47.912H31.8475L35.1915 59H32.4075ZM29.0475 54.712H31.3835L30.2155 49.816L29.0475 54.712Z" fill="#0E1520"/>
<path d="M39.413 47.64C41.109 47.64 42.277 48.136 43.253 49.064L42.037 50.488C41.269 49.864 40.501 49.56 39.605 49.56C38.693 49.56 38.117 49.944 38.117 50.648C38.117 51.352 38.533 51.64 40.261 52.184C42.357 52.856 43.557 53.72 43.557 55.768C43.557 57.832 41.925 59.272 39.157 59.272C37.237 59.272 35.861 58.568 34.949 57.688L36.277 56.232C37.093 56.92 37.973 57.32 39.077 57.32C40.165 57.32 40.837 56.808 40.837 55.96C40.837 55.144 40.421 54.776 38.805 54.28C36.325 53.512 35.413 52.488 35.413 50.84C35.413 48.888 37.109 47.64 39.413 47.64Z" fill="#0E1520"/>
<path d="M48.2374 47.64C49.9334 47.64 51.1014 48.136 52.0774 49.064L50.8614 50.488C50.0934 49.864 49.3254 49.56 48.4294 49.56C47.5174 49.56 46.9414 49.944 46.9414 50.648C46.9414 51.352 47.3574 51.64 49.0854 52.184C51.1814 52.856 52.3814 53.72 52.3814 55.768C52.3814 57.832 50.7494 59.272 47.9814 59.272C46.0614 59.272 44.6853 58.568 43.7733 57.688L45.1014 56.232C45.9174 56.92 46.7974 57.32 47.9014 57.32C48.9894 57.32 49.6614 56.808 49.6614 55.96C49.6614 55.144 49.2454 54.776 47.6294 54.28C45.1494 53.512 44.2374 52.488 44.2374 50.84C44.2374 48.888 45.9334 47.64 48.2374 47.64Z" fill="#0E1520"/>
</svg>
