<svg width="96" height="96" viewBox="0 0 96 96" fill="none" xmlns="http://www.w3.org/2000/svg">
<path d="M11.806 5.68445L88.3764 44.4309C91.3017 45.9112 91.3017 50.0888 88.3764 51.5691L11.806 90.3155C9.14535 91.6619 6 89.7284 6 86.7465L6 9.25352C6 6.27158 9.14536 4.33808 11.806 5.68445Z" fill="#FFBD09"/>
<path fill-rule="evenodd" clip-rule="evenodd" d="M12.8944 10.4472C11.5646 9.78232 10 10.7493 10 12.2361L10 83.7639C10 85.2507 11.5646 86.2177 12.8944 85.5528L84.4223 49.7889C85.8964 49.0518 85.8964 46.9482 84.4223 46.2112L12.8944 10.4472ZM13 82.1459L81.2918 48L13 13.8541L13 82.1459Z" fill="#0E1520"/>
<path d="M23.589 32.377H21.972V35.457C21.972 36.678 22.115 37.679 22.214 38.295L19.959 32.377H17.715V40H19.321V37.206C19.321 35.798 19.178 34.786 19.09 34.093L21.29 40H23.589V32.377Z" fill="#0E1520"/>
<path d="M27.9789 32.19C25.8339 32.19 24.5469 33.697 24.5469 36.183C24.5469 38.724 25.8339 40.187 27.9789 40.187C30.1349 40.187 31.4219 38.68 31.4219 36.183C31.4219 33.642 30.1349 32.19 27.9789 32.19ZM27.9789 33.51C29.0019 33.51 29.5299 34.258 29.5299 36.183C29.5299 38.119 29.0129 38.867 27.9789 38.867C26.9889 38.867 26.4389 38.119 26.4389 36.183C26.4389 34.258 26.9669 33.51 27.9789 33.51Z" fill="#0E1520"/>
<path d="M20.179 43.377H17.715V51H19.519V48.459H20.344C22.104 48.459 23.358 47.634 23.358 45.863C23.358 44.191 22.148 43.377 20.179 43.377ZM20.19 47.161H19.519V44.664H20.157C21.048 44.664 21.499 45.049 21.499 45.863C21.499 46.82 21.004 47.161 20.19 47.161Z" fill="#0E1520"/>
<path d="M27.5927 51H29.5067L27.2077 43.377H25.0187L22.7197 51H24.5897L24.9747 49.361H27.1967L27.5927 51ZM25.2827 48.052L26.0857 44.686L26.8887 48.052H25.2827Z" fill="#0E1520"/>
<path d="M32.4089 43.19C30.8249 43.19 29.6589 44.048 29.6589 45.39C29.6589 46.523 30.2859 47.227 31.9909 47.755C33.1019 48.096 33.3879 48.349 33.3879 48.91C33.3879 49.493 32.9259 49.845 32.1779 49.845C31.4189 49.845 30.8139 49.57 30.2529 49.097L29.3399 50.098C29.9669 50.703 30.9129 51.187 32.2329 51.187C34.1359 51.187 35.2579 50.197 35.2579 48.778C35.2579 47.37 34.4329 46.776 32.9919 46.314C31.8039 45.94 31.5179 45.742 31.5179 45.258C31.5179 44.774 31.9139 44.51 32.5409 44.51C33.1569 44.51 33.6849 44.719 34.2129 45.148L35.0489 44.169C34.3779 43.531 33.5749 43.19 32.4089 43.19Z" fill="#0E1520"/>
<path d="M38.4757 43.19C36.8917 43.19 35.7257 44.048 35.7257 45.39C35.7257 46.523 36.3527 47.227 38.0577 47.755C39.1687 48.096 39.4547 48.349 39.4547 48.91C39.4547 49.493 38.9927 49.845 38.2447 49.845C37.4857 49.845 36.8807 49.57 36.3197 49.097L35.4067 50.098C36.0337 50.703 36.9797 51.187 38.2997 51.187C40.2027 51.187 41.3247 50.197 41.3247 48.778C41.3247 47.37 40.4997 46.776 39.0587 46.314C37.8707 45.94 37.5847 45.742 37.5847 45.258C37.5847 44.774 37.9807 44.51 38.6077 44.51C39.2237 44.51 39.7517 44.719 40.2797 45.148L41.1157 44.169C40.4447 43.531 39.6417 43.19 38.4757 43.19Z" fill="#0E1520"/>
<path d="M44.0116 43.377H42.2076V51H44.0116V43.377Z" fill="#0E1520"/>
<path d="M51.1943 43.377H49.5773V46.457C49.5773 47.678 49.7203 48.679 49.8193 49.295L47.5643 43.377H45.3203V51H46.9263V48.206C46.9263 46.798 46.7833 45.786 46.6953 45.093L48.8953 51H51.1943V43.377Z" fill="#0E1520"/>
<path d="M55.8042 43.19C53.7582 43.19 52.1522 44.598 52.1522 47.183C52.1522 49.79 53.3182 51.187 55.6502 51.187C56.6072 51.187 57.5972 50.89 58.3892 50.384V46.611H55.4742L55.6502 47.887H56.6402V49.614C56.3212 49.79 55.9802 49.867 55.6062 49.867C54.5502 49.867 54.0222 49.185 54.0222 47.183C54.0222 45.291 54.8142 44.499 55.8812 44.499C56.4972 44.499 56.9152 44.686 57.4322 45.082L58.3452 44.125C57.7182 43.575 56.9152 43.19 55.8042 43.19Z" fill="#0E1520"/>
<path d="M22.632 54.377H17.539V55.774H20.575L17.198 60.647V62H22.511L22.687 60.559H19.321L22.632 55.741V54.377Z" fill="#0E1520"/>
<path d="M26.3891 54.19C24.2441 54.19 22.9571 55.697 22.9571 58.183C22.9571 60.724 24.2441 62.187 26.3891 62.187C28.5451 62.187 29.8321 60.68 29.8321 58.183C29.8321 55.642 28.5451 54.19 26.3891 54.19ZM26.3891 55.51C27.4121 55.51 27.9401 56.258 27.9401 58.183C27.9401 60.119 27.4231 60.867 26.3891 60.867C25.3991 60.867 24.8491 60.119 24.8491 58.183C24.8491 56.258 25.3771 55.51 26.3891 55.51Z" fill="#0E1520"/>
<path d="M36.6786 54.377H35.0616V57.457C35.0616 58.678 35.2046 59.679 35.3036 60.295L33.0486 54.377H30.8046V62H32.4106V59.206C32.4106 57.798 32.2676 56.786 32.1796 56.093L34.3796 62H36.6786V54.377Z" fill="#0E1520"/>
<path d="M42.6635 54.377H37.9885V62H42.6635V60.702H39.7925V58.755H42.1355V57.49H39.7925V55.664H42.4765L42.6635 54.377Z" fill="#0E1520"/>
</svg>
