<svg width="96" height="96" viewBox="0 0 96 96" fill="none" xmlns="http://www.w3.org/2000/svg">
<path fill-rule="evenodd" clip-rule="evenodd" d="M48 6C71.196 6 90 24.804 90 48C90 71.196 71.196 90 48 90C24.804 90 6 71.196 6 48C6 24.804 24.804 6 48 6Z" fill="white"/>
<path d="M43.8339 39.5913L46.7692 42.5267C47.522 45.8083 49.2824 48.8124 51.8516 51.1009L52.5366 51.711C54.4112 53.3809 54.831 55.9876 53.8372 58.0799L39.5693 43.812L43.8339 39.5913Z" fill="#CF001A"/>
<path fill-rule="evenodd" clip-rule="evenodd" d="M48 8C70.0914 8 88 25.9086 88 48C88 70.0914 70.0914 88 48 88C25.9086 88 8 70.0914 8 48C8 25.9086 25.9086 8 48 8ZM48 14C39.6913 14 32.0787 16.9803 26.1729 21.9303L36.5912 32.3487L32.3267 36.5694L21.9302 26.1729C16.9803 32.0787 14 39.6913 14 48C14 66.7777 29.2223 82 48 82C56.3087 82 63.9213 79.0197 69.8271 74.0698L61.2358 65.4785C62.5958 63.7833 63.5511 61.8645 64.0977 59.8551L74.0697 69.8271C79.0197 63.9213 82 56.3087 82 48C82 29.2223 66.7777 14 48 14Z" fill="#CF001A"/>
<path d="M40.6987 58.7773L43.6507 55.8253L33.8253 46L24 55.8253L26.9519 58.7773L31.738 53.9912V73H35.9127V53.9913L40.6987 58.7773Z" fill="#0F1621"/>
<path fill-rule="evenodd" clip-rule="evenodd" d="M54.6428 73V72.2376C54.6428 69.9701 55.6844 67.8287 57.4683 66.4162C64.116 61.1527 64.4057 51.2511 58.0793 45.6158L57.3943 45.0057C55.6444 43.447 54.6428 41.2239 54.6428 38.8885V32.3004L65.1415 42.6912L69.5786 38.2998L51.5001 20.407L33.4216 38.2998L37.8586 42.6912L48.3574 32.3003V38.8885C48.3574 42.9743 50.1095 46.8706 53.182 49.6075L53.8669 50.2176C57.3215 53.2948 57.1618 58.7085 53.534 61.5809C50.2602 64.173 48.3574 68.0946 48.3574 72.2376V73H54.6428Z" fill="#0F1621"/>
</svg>
