<svg width="96" height="96" viewBox="0 0 96 96" fill="none" xmlns="http://www.w3.org/2000/svg">
<path fill-rule="evenodd" clip-rule="evenodd" d="M49.41 7.41001L88.5858 46.5858C89.3668 47.3668 89.3668 48.6332 88.5858 49.4142L49.4184 88.5816C48.6357 89.3643 47.3662 89.3624 46.5858 88.5774L7.41003 49.1684C6.63129 48.3851 6.63507 47.1187 7.41846 46.34L46.5858 7.40579C47.3675 6.62872 48.6306 6.6306 49.41 7.41001Z" fill="#FFBD09"/>
<path fill-rule="evenodd" clip-rule="evenodd" d="M47.9937 15.2363L80.7574 48L48.0063 80.7511L15.2427 47.7924L47.9937 15.2363ZM49.41 12.41L83.5858 46.5858C84.3668 47.3668 84.3668 48.6332 83.5858 49.4142L49.4184 83.5816C48.6357 84.3643 47.3662 84.3624 46.5858 83.5774L12.41 49.1982C11.6313 48.4148 11.6351 47.1485 12.4185 46.3698L46.5858 12.4058C47.3675 11.6287 48.6306 11.6306 49.41 12.41Z" fill="#0F1621"/>
<path d="M52.409 36.466L55.591 33.284L64.6819 42.375L55.591 51.466L52.409 48.284L56.068 44.625H53.9999C46.9583 44.625 41.2499 50.3334 41.2499 57.375V61.875H36.7499V57.375C36.7499 47.8481 44.473 40.125 53.9999 40.125H56.068L52.409 36.466Z" fill="#0F1621"/>
</svg>
