<svg width="96" height="96" viewBox="0 0 96 96" fill="none" xmlns="http://www.w3.org/2000/svg">
<path fill-rule="evenodd" clip-rule="evenodd" d="M46.59 7.41001L7.41422 46.5858C6.63317 47.3668 6.63317 48.6332 7.41422 49.4142L46.5816 88.5816C47.3643 89.3643 48.6338 89.3624 49.4142 88.5774L88.59 49.1684C89.3687 48.3851 89.3649 47.1187 88.5815 46.34L49.4142 7.40579C48.6325 6.62872 47.3694 6.6306 46.59 7.41001Z" fill="#FFBD09"/>
<path fill-rule="evenodd" clip-rule="evenodd" d="M48.0063 15.2363L15.2426 48L47.9937 80.7511L80.7573 47.7924L48.0063 15.2363ZM46.59 12.41L12.4142 46.5858C11.6332 47.3668 11.6332 48.6332 12.4142 49.4142L46.5816 83.5816C47.3643 84.3643 48.6338 84.3624 49.4142 83.5774L83.59 49.1982C84.3687 48.4148 84.3649 47.1485 83.5815 46.3698L49.4142 12.4058C48.6325 11.6287 47.3694 11.6306 46.59 12.41Z" fill="#0E1520"/>
<path d="M43.591 36.466L40.409 33.284L31.3181 42.375L40.409 51.466L43.591 48.284L39.932 44.625H42.0001C49.0417 44.625 54.7501 50.3334 54.7501 57.375V61.875H59.2501V57.375C59.2501 47.8481 51.527 40.125 42.0001 40.125H39.932L43.591 36.466Z" fill="#0E1520"/>
</svg>
