<svg width="96" height="96" viewBox="0 0 96 96" fill="none" xmlns="http://www.w3.org/2000/svg">
<path d="M86.4676 14H9.53238C7.97779 14 7.01756 15.6959 7.81739 17.029L46.285 81.1417C47.0618 82.4364 48.9382 82.4364 49.715 81.1417L88.1826 17.029C88.9824 15.6959 88.0222 14 86.4676 14Z" fill="white"/>
<path fill-rule="evenodd" clip-rule="evenodd" d="M6.10241 18.058L44.57 82.1707C46.1236 84.76 49.8764 84.76 51.43 82.1707L89.8976 18.058C91.4973 15.3919 89.5768 12 86.4676 12H9.53238C6.4232 12 4.50275 15.3919 6.10241 18.058ZM9.53238 14H86.4676C88.0222 14 88.9824 15.6959 88.1826 17.029L49.715 81.1417C48.9382 82.4364 47.0618 82.4364 46.285 81.1417L7.81739 17.029C7.01756 15.6959 7.97779 14 9.53238 14Z" fill="white"/>
<path d="M86.4676 14H9.53238C7.97779 14 7.01756 15.6959 7.81739 17.029L46.285 81.1417C47.0618 82.4364 48.9382 82.4364 49.715 81.1417L88.1826 17.029C88.9824 15.6959 88.0222 14 86.4676 14Z" fill="white"/>
<path fill-rule="evenodd" clip-rule="evenodd" d="M49.715 81.1417C48.9382 82.4364 47.0618 82.4364 46.285 81.1417L7.81739 17.029C7.01756 15.6959 7.97779 14 9.53238 14H86.4676C88.0222 14 88.9824 15.6959 88.1826 17.029L49.715 81.1417ZM79.4029 20L48 72.3381L16.5971 20H79.4029Z" fill="#CF001A"/>
<path d="M40.3247 39.79C39.7147 39.21 38.9847 38.9 37.9247 38.9C36.4847 38.9 35.4247 39.68 35.4247 40.9C35.4247 41.93 35.9947 42.57 37.5447 43.05C38.5547 43.36 38.8147 43.59 38.8147 44.1C38.8147 44.63 38.3947 44.95 37.7147 44.95C37.0247 44.95 36.4747 44.7 35.9647 44.27L35.1347 45.18C35.7047 45.73 36.5647 46.17 37.7647 46.17C39.4947 46.17 40.5147 45.27 40.5147 43.98C40.5147 42.7 39.7647 42.16 38.4547 41.74C37.3747 41.4 37.1147 41.22 37.1147 40.78C37.1147 40.34 37.4747 40.1 38.0447 40.1C38.6047 40.1 39.0847 40.29 39.5647 40.68L40.3247 39.79Z" fill="black"/>
<path fill-rule="evenodd" clip-rule="evenodd" d="M51.4544 42.53C51.4544 40.22 50.2844 38.9 48.3244 38.9C46.3744 38.9 45.2044 40.27 45.2044 42.53C45.2044 44.84 46.3744 46.17 48.3244 46.17C50.2844 46.17 51.4544 44.8 51.4544 42.53ZM46.9244 42.53C46.9244 40.78 47.4044 40.1 48.3244 40.1C49.2544 40.1 49.7344 40.78 49.7344 42.53C49.7344 44.29 49.2644 44.97 48.3244 44.97C47.4244 44.97 46.9244 44.29 46.9244 42.53Z" fill="black"/>
<path d="M58.6985 46L59.8585 39.07H58.2985L57.4885 44.76L56.5885 39.07H54.8685L53.9085 44.76L53.2185 39.07H51.5785L52.7185 46H54.7985L55.7085 40.71L56.5685 46H58.6985Z" fill="black"/>
<path d="M42.7574 39.07V44.7H45.4574L45.2874 46H41.1174V39.07H42.7574Z" fill="black"/>
<path d="M53.712 25.496H59.58V26.864H53.712V25.496Z" fill="black"/>
<path d="M53.196 30.188H56.76V34.376C56.76 34.556 56.688 34.604 56.46 34.616C56.244 34.616 55.452 34.616 54.768 34.58C54.96 35 55.152 35.624 55.2 36.044C56.28 36.044 57.036 36.032 57.552 35.816C58.08 35.588 58.236 35.18 58.236 34.412V30.188H59.892V28.82H53.196V30.188Z" fill="black"/>
<path d="M51.948 36.092V29.7785C52.4266 29.1813 52.8682 28.5565 53.232 27.944L51.864 27.428C51.072 28.784 49.764 30.176 48.54 31.04C48.828 31.328 49.32 31.976 49.524 32.276C49.8438 32.013 50.1755 31.7113 50.508 31.3818V36.092H51.948Z" fill="black"/>
<path d="M51.408 24.812L52.788 25.376C51.912 26.516 50.616 27.764 49.476 28.556C49.284 28.232 48.912 27.668 48.672 27.38C49.668 26.732 50.82 25.652 51.408 24.812Z" fill="black"/>
<path fill-rule="evenodd" clip-rule="evenodd" d="M40.932 28.8827V29.696H42.576V30.776H39.804V32.048H42.576V34.58C42.576 34.712 42.528 34.772 42.372 34.772C42.216 34.772 41.736 34.772 41.268 34.748C41.448 35.12 41.664 35.696 41.724 36.08C42.492 36.08 43.056 36.044 43.464 35.828C43.884 35.612 43.992 35.252 43.992 34.592V32.048H46.812V30.776H43.992V29.696H45.624V28.8943C45.9531 29.1707 46.2859 29.4233 46.608 29.636C46.836 29.204 47.148 28.688 47.448 28.34C46.128 27.644 44.772 26.276 43.86 24.968H42.504C41.9394 25.9718 40.8371 27.2399 39.6498 28.0973C39.6945 28.0181 39.738 27.9389 39.78 27.86L38.508 27.392C37.884 28.58 36.84 29.744 35.82 30.488C36.06 30.8 36.444 31.52 36.576 31.832C36.8903 31.5722 37.2097 31.2722 37.524 30.944V36.104H38.868V29.3189C39.0193 29.1073 39.1645 28.8927 39.3016 28.6772C39.5234 28.981 39.7569 29.379 39.888 29.66C40.2447 29.4296 40.5955 29.166 40.932 28.8827ZM41.4086 28.46C42.1523 27.7663 42.7968 27.0021 43.236 26.336C43.6883 26.9926 44.3801 27.7689 45.1307 28.46H41.4086Z" fill="black"/>
<path d="M41.868 32.732L40.572 32.396C40.284 33.248 39.792 34.172 39.252 34.772C39.576 34.916 40.14 35.24 40.416 35.456C40.944 34.784 41.52 33.716 41.868 32.732Z" fill="black"/>
<path d="M45.732 32.36L44.592 32.912C45.168 33.644 45.78 34.664 46.032 35.348L47.244 34.7C46.968 34.04 46.344 33.08 45.732 32.36Z" fill="black"/>
<path d="M39.564 25.316L38.292 24.812C37.8 25.604 36.792 26.612 35.928 27.212C36.156 27.476 36.504 27.98 36.684 28.268C37.692 27.524 38.82 26.36 39.564 25.316Z" fill="black"/>
</svg>
