<svg width="96" height="96" viewBox="0 0 96 96" fill="none" xmlns="http://www.w3.org/2000/svg">
<path d="M30.5 6H65.5L90 30.5V65L65.5 90H30.5L6 65.5V30.5L30.5 6Z" fill="white"/>
<path fill-rule="evenodd" clip-rule="evenodd" d="M32.1569 10L10 32.1569V63.8431L32.1569 86H63.8194L86 63.3668V32.1569L63.8431 10H32.1569ZM65.5 6H30.5L6 30.5V65.5L30.5 90H65.5L90 65V30.5L65.5 6Z" fill="#CF001A"/>
<path d="M33.8333 14H62.1667L82 33.8333V61.7619L62.1667 82H33.8333L14 62.1667V33.8333L33.8333 14Z" fill="#CF001A"/>
<path d="M24.9431 38.54C21.1991 38.54 18.4431 40.568 18.4431 43.74C18.4431 46.418 19.9251 48.082 23.9551 49.33C26.5811 50.136 27.2571 50.734 27.2571 52.06C27.2571 53.438 26.1651 54.27 24.3971 54.27C22.6031 54.27 21.1731 53.62 19.8471 52.502L17.6891 54.868C19.1711 56.298 21.4071 57.442 24.5271 57.442C29.0251 57.442 31.6771 55.102 31.6771 51.748C31.6771 48.42 29.7271 47.016 26.3211 45.924C23.5131 45.04 22.8371 44.572 22.8371 43.428C22.8371 42.284 23.7731 41.66 25.2551 41.66C26.7111 41.66 27.9591 42.154 29.2071 43.168L31.1831 40.854C29.5971 39.346 27.6991 38.54 24.9431 38.54Z" fill="white"/>
<path d="M45.7894 38.982H32.0094V42.258H36.6634V57H40.9274V42.258H45.3734L45.7894 38.982Z" fill="white"/>
<path d="M53.8723 38.54C48.8023 38.54 45.7603 42.102 45.7603 47.978C45.7603 53.984 48.8023 57.442 53.8723 57.442C58.9683 57.442 62.0103 53.88 62.0103 47.978C62.0103 41.972 58.9683 38.54 53.8723 38.54ZM53.8723 41.66C56.2903 41.66 57.5383 43.428 57.5383 47.978C57.5383 52.554 56.3163 54.322 53.8723 54.322C51.5323 54.322 50.2323 52.554 50.2323 47.978C50.2323 43.428 51.4803 41.66 53.8723 41.66Z" fill="white"/>
<path d="M70.3929 38.982H64.5689V57H68.8329V50.994H70.7829C74.9429 50.994 77.9069 49.044 77.9069 44.858C77.9069 40.906 75.0469 38.982 70.3929 38.982ZM70.4189 47.926H68.8329V42.024H70.3409C72.4469 42.024 73.5129 42.934 73.5129 44.858C73.5129 47.12 72.3429 47.926 70.4189 47.926Z" fill="white"/>
</svg>
