<svg width="96" height="96" viewBox="0 0 96 96" fill="none" xmlns="http://www.w3.org/2000/svg">
<path d="M44.57 82.1707L6.10241 18.058C4.50275 15.3919 6.4232 12 9.53238 12H86.4676C89.5768 12 91.4973 15.3919 89.8976 18.058L51.43 82.1707C49.8764 84.76 46.1236 84.76 44.57 82.1707Z" fill="white"/>
<path d="M7.8174 17.029C7.01757 15.6959 7.9778 14 9.53239 14H86.4676C88.0222 14 88.9824 15.6959 88.1826 17.029L49.715 81.1417C48.9382 82.4364 47.0618 82.4364 46.285 81.1417L7.8174 17.029Z" fill="#CF001A"/>
<path fill-rule="evenodd" clip-rule="evenodd" d="M38.932 38.9001C39.992 38.9001 40.722 39.2101 41.332 39.7901L40.572 40.6801C40.092 40.2901 39.612 40.1001 39.052 40.1001C38.482 40.1001 38.122 40.3401 38.122 40.7801C38.122 41.2201 38.382 41.4001 39.462 41.7401C40.772 42.1601 41.522 42.7001 41.522 43.9801C41.522 45.2701 40.502 46.1701 38.772 46.1701C37.572 46.1701 36.712 45.7301 36.142 45.1801L36.972 44.2701C37.482 44.7001 38.032 44.9501 38.722 44.9501C39.402 44.9501 39.822 44.6301 39.822 44.1001C39.822 43.5901 39.562 43.3601 38.552 43.0501C37.002 42.5701 36.432 41.9301 36.432 40.9001C36.432 39.6801 37.492 38.9001 38.932 38.9001ZM49.6586 38.9001C51.6186 38.9001 52.7886 40.2201 52.7886 42.5301C52.7886 44.8001 51.6186 46.1701 49.6586 46.1701C47.7086 46.1701 46.5386 44.8401 46.5386 42.5301C46.5386 40.2701 47.7086 38.9001 49.6586 38.9001ZM49.6586 40.1001C48.7386 40.1001 48.2586 40.7801 48.2586 42.5301C48.2586 44.2901 48.7586 44.9701 49.6586 44.9701C50.5986 44.9701 51.0686 44.2901 51.0686 42.5301C51.0686 40.7801 50.5886 40.1001 49.6586 40.1001ZM55.8127 39.0701C57.6027 39.0701 58.7027 39.8101 58.7027 41.3301C58.7027 42.9401 57.5627 43.6901 55.9627 43.6901H55.2127V46.0001H53.5727V39.0701H55.8127ZM55.8227 42.5101C56.5627 42.5101 57.0127 42.2001 57.0127 41.3301C57.0127 40.5901 56.6027 40.2401 55.7927 40.2401H55.2127V42.5101H55.8227ZM46.5898 40.3301L46.7498 39.0701H41.4498V40.3301H43.2398V46.0001H44.8798V40.3301H46.5898ZM62.452 33.276C63.436 33.276 64.156 32.892 64.72 32.376L64.516 30.696C63.976 31.236 63.412 31.548 62.968 31.548C62.668 31.548 62.5 31.332 62.5 31.02C62.5 30.3945 62.5995 29.6394 62.6987 28.8861C62.7975 28.1364 62.896 27.3885 62.896 26.772C62.896 25.764 62.308 24.996 61.012 24.996C59.8533 24.996 58.4699 25.9592 57.524 26.777C57.5318 26.6905 57.5398 26.6044 57.548 26.5186C57.7495 26.2068 58.0012 25.8175 58.156 25.608L57.7127 25.0318C57.8071 24.2837 57.9036 23.6685 57.976 23.328L56.224 23.28C56.2871 23.6059 56.2857 23.9226 56.2844 24.222C56.2842 24.2644 56.284 24.3064 56.284 24.348C56.284 24.4787 56.2644 24.8228 56.2352 25.276C55.722 25.3523 55.1976 25.4112 54.844 25.428C54.412 25.452 54.136 25.452 53.8 25.44L53.956 26.988C54.6261 26.8865 55.5454 26.7678 56.1396 26.6973C56.1205 26.9769 56.1013 27.2602 56.0831 27.5344C55.4014 28.543 54.1854 30.1383 53.512 30.972L54.448 32.292C54.8603 31.7241 55.4542 30.8486 55.9648 30.0937C55.9431 31.0979 55.9336 31.7967 55.924 32.724C55.924 32.916 55.912 33.336 55.888 33.612H57.532C57.5244 33.5285 57.5144 33.4268 57.5039 33.3201C57.4812 33.0897 57.4562 32.8356 57.448 32.688C57.376 31.572 57.376 30.552 57.376 29.58C57.376 29.2699 57.3843 28.9389 57.399 28.5967C58.3805 27.529 59.6847 26.424 60.568 26.424C61.084 26.424 61.384 26.712 61.384 27.3C61.384 27.8287 61.285 28.5058 61.1817 29.2117C61.0693 29.98 60.952 30.7823 60.952 31.464C60.952 32.628 61.552 33.276 62.452 33.276ZM48.664 23.304C48.628 23.544 48.592 23.844 48.58 24.156C48.5752 24.2781 48.5709 24.4435 48.5671 24.6381C49.5489 24.5878 50.5435 24.4911 51.604 24.324L51.592 25.692C50.7952 25.8014 49.7085 25.9006 48.5505 25.9565C48.5471 26.3846 48.545 26.8197 48.5443 27.1946C49.7602 27.1374 50.7699 27.0313 51.748 26.904L51.736 28.32C50.6555 28.4453 49.7231 28.5195 48.5722 28.5559C48.5926 29.0227 48.6213 29.519 48.649 29.9942C50.1689 30.4317 51.323 31.231 52.012 31.812L51.148 33.156C50.5114 32.5529 49.6876 31.9236 48.7268 31.4854C48.7326 31.6484 48.736 31.7949 48.736 31.92C48.736 32.952 47.956 33.744 46.384 33.744C44.464 33.744 43.456 33.012 43.456 31.74C43.456 30.528 44.572 29.676 46.408 29.676C46.6652 29.676 46.9159 29.6883 47.1601 29.7113C47.1441 29.338 47.1279 28.9501 47.1154 28.5821C46.9156 28.5834 46.7082 28.584 46.492 28.584C45.784 28.584 44.428 28.524 43.636 28.428L43.612 27.012C44.404 27.156 45.868 27.24 46.504 27.24C46.7054 27.24 46.9013 27.2389 47.0922 27.2366C47.0927 26.8417 47.0943 26.4154 47.0962 26.0013C46.9504 26.0031 46.8048 26.004 46.66 26.004C45.892 26.004 44.5 25.896 43.708 25.8L43.684 24.42C44.536 24.564 45.916 24.684 46.648 24.684C46.8 24.684 46.9514 24.6833 47.1025 24.6818C47.1034 24.4624 47.104 24.2708 47.104 24.12C47.104 23.904 47.08 23.532 47.032 23.304H48.664ZM47.224 31.512C47.224 31.3834 47.2198 31.2091 47.2129 31.0029C46.8901 30.9443 46.5574 30.912 46.216 30.912C45.376 30.912 44.908 31.236 44.908 31.656C44.908 32.112 45.328 32.388 46.156 32.388C46.792 32.388 47.224 32.208 47.224 31.512ZM37.228 28.02V32.04H41.476V33.468H30.46V32.04H31.996V25.296H33.496V32.04H35.692V22.812H37.228V26.58H40.828V28.02H37.228Z" fill="white"/>
</svg>
