<svg width="96" height="96" viewBox="0 0 96 96" fill="none" xmlns="http://www.w3.org/2000/svg">
<path d="M5.6118 46.5274L46.5274 5.6118C47.3414 4.79779 48.6606 4.79582 49.477 5.6074L90.3838 46.2707C91.202 47.084 91.2059 48.4066 90.3926 49.2247L49.477 90.3838C48.662 91.2037 47.3361 91.2056 46.5186 90.3882L5.6118 49.4814C4.79607 48.6657 4.79607 47.3431 5.6118 46.5274Z" fill="white"/>
<path fill-rule="evenodd" clip-rule="evenodd" d="M46.5274 5.6118L5.6118 46.5274C4.79607 47.3431 4.79607 48.6657 5.6118 49.4814L46.5186 90.3882C47.3361 91.2056 48.662 91.2037 49.477 90.3838L90.3926 49.2247C91.2059 48.4066 91.202 47.084 90.3838 46.2707L49.477 5.6074C48.6606 4.79582 47.3414 4.79779 46.5274 5.6118Z" fill="#FFBD09"/>
<path d="M11.4142 46.5931L46.5974 11.41C47.3768 10.6306 48.6398 10.6287 49.4216 11.4058L84.5815 46.3565C85.3649 47.1352 85.3687 48.4015 84.59 49.1849L49.4069 84.5774C48.6265 85.3624 47.357 85.3643 46.5743 84.5816L11.4142 49.4215C10.6332 48.6405 10.6332 47.3742 11.4142 46.5931Z" fill="#1C232E"/>
<path d="M14.0065 48.0066L48.0131 14L82.0065 47.7911L48 82L14.0065 48.0066Z" fill="#FFBD09"/>
<path d="M58.0004 68.9998H38.0004V65.9998H58.0004V68.9998Z" fill="#1C232E"/>
<path d="M55.3861 54.5779C55.9196 54.435 56.4678 54.7515 56.6108 55.2849L57.6459 59.1482C57.7889 59.6817 57.4723 60.2299 56.9389 60.3728L55.9731 60.6316C55.4396 60.7746 54.8914 60.458 54.7484 59.9246C54.8914 60.458 54.5747 61.0061 54.0414 61.1492L53.0756 61.408C52.5421 61.5509 51.9939 61.2344 51.851 60.701L51.5912 59.7351L49.4701 60.3035L49.4555 60.3279C49.1139 60.8784 48.5754 61.2783 47.9496 61.4461C47.3338 61.6111 46.6782 61.5392 46.1127 61.2449L46.06 61.2176L43.8647 61.8054L44.1234 62.7713C44.2664 63.3046 43.9497 63.8538 43.4164 63.9968L42.4496 64.2556C41.9164 64.3982 41.368 64.0817 41.225 63.5486C41.3678 64.082 41.0513 64.6303 40.518 64.7732L39.5522 65.032C39.0189 65.1748 38.4706 64.8582 38.3275 64.325L37.2924 60.4607C37.1496 59.9273 37.466 59.379 37.9994 59.2361L38.9652 58.9773C39.4986 58.8344 40.0468 59.151 40.1899 59.6843C40.047 59.151 40.3636 58.6028 40.8969 58.4597L41.8627 58.201C42.3962 58.058 42.9453 58.3745 43.0883 58.908L43.3471 59.8738L45.351 59.3367L45.5053 59.1248C45.881 58.6056 46.4243 58.2311 47.0434 58.0652C47.6732 57.8965 48.342 57.9541 48.934 58.2273L49.1381 58.3211L51.0736 57.8025L50.8149 56.8377C50.672 56.3044 50.9887 55.7562 51.5219 55.6131L52.4887 55.3543C53.0221 55.2115 53.5704 55.5279 53.7133 56.0613C53.5703 55.5278 53.8869 54.9796 54.4203 54.8367L55.3861 54.5779Z" fill="#1C232E"/>
<path d="M49.2436 35.5174C50.3105 35.2315 51.4069 35.8655 51.6928 36.9324L55.5756 51.4207C55.7185 51.9541 55.4019 52.5023 54.8686 52.6453L37.4818 57.3045C36.9485 57.4474 36.4003 57.1307 36.2572 56.5974L32.3744 42.1082C32.0887 41.0415 32.7219 39.945 33.7885 39.659L49.2436 35.5174Z" fill="#1C232E"/>
<path d="M42.0004 26.697C51.3359 24.1958 60.9315 29.7356 63.433 39.0711L63.7904 40.4031L65.4799 37.4763L68.0785 38.9773L63.8275 46.3377L56.4672 42.0877L57.9672 39.489L60.892 41.1785L60.5356 39.8474C58.5153 32.3078 50.9102 27.7569 43.3637 29.451L39.3637 30.4558L38.6371 27.5447L42.0004 26.697Z" fill="#1C232E"/>
</svg>
