<svg width="96" height="96" viewBox="0 0 96 96" fill="none" xmlns="http://www.w3.org/2000/svg">
<path d="M5.6118 46.5274L46.5274 5.6118C47.3414 4.79779 48.6606 4.79582 49.477 5.6074L90.3838 46.2707C91.202 47.084 91.2059 48.4066 90.3926 49.2247L49.477 90.3838C48.662 91.2037 47.3361 91.2056 46.5186 90.3882L5.6118 49.4814C4.79607 48.6657 4.79607 47.3431 5.6118 46.5274Z" fill="white"/>
<path fill-rule="evenodd" clip-rule="evenodd" d="M46.5274 5.6118L5.6118 46.5274C4.79607 47.3431 4.79607 48.6657 5.6118 49.4814L46.5186 90.3882C47.3361 91.2056 48.662 91.2037 49.477 90.3838L90.3926 49.2247C91.2059 48.4066 91.202 47.084 90.3838 46.2707L49.477 5.6074C48.6606 4.79582 47.3414 4.79779 46.5274 5.6118Z" fill="#FFBD09"/>
<path d="M11.4142 46.5931L46.5974 11.41C47.3768 10.6306 48.6398 10.6287 49.4216 11.4058L84.5815 46.3565C85.3649 47.1352 85.3687 48.4015 84.59 49.1849L49.4069 84.5774C48.6266 85.3624 47.357 85.3643 46.5743 84.5816L11.4142 49.4215C10.6332 48.6405 10.6332 47.3742 11.4142 46.5931Z" fill="#1C232E"/>
<path d="M14.0065 48.0066L48.0131 14L82.0065 47.7911L48 82L14.0065 48.0066Z" fill="#FFBD09"/>
<path d="M37.9348 68.9997H57.9348V65.9997H37.9348V68.9997Z" fill="#1C232E"/>
<path d="M40.5491 54.5778C40.0156 54.4348 39.4674 54.7513 39.3245 55.2848L38.2893 59.1481C38.1464 59.6816 38.4629 60.2298 38.9964 60.3727L39.9622 60.6315C40.4957 60.7744 41.0439 60.4579 41.1868 59.9245C41.0439 60.4578 41.3605 61.006 41.8938 61.1491L42.8596 61.4079C43.3931 61.5508 43.9413 61.2343 44.0843 60.7008L44.344 59.735L46.4651 60.3034L46.4798 60.3278C46.8214 60.8783 47.3599 61.2782 47.9856 61.4459C48.6014 61.6109 49.2571 61.5391 49.8225 61.2448L49.8753 61.2174L52.0716 61.8053L51.8118 62.7721C51.6692 63.3053 51.9857 63.8537 52.5188 63.9967L53.4856 64.2555C54.0188 64.3981 54.5672 64.0816 54.7102 63.5485C54.5675 64.0818 54.8839 64.6302 55.4173 64.7731L56.3831 65.0319C56.9164 65.1747 57.4646 64.858 57.6077 64.3249L58.6428 60.4606C58.7857 59.9272 58.4692 59.3789 57.9358 59.236L56.97 58.9772C56.4366 58.8343 55.8884 59.1508 55.7454 59.6842C55.8882 59.1509 55.5716 58.6026 55.0384 58.4596L54.0725 58.2008C53.5391 58.0579 52.9899 58.3744 52.847 58.9079L52.5882 59.8737L50.5843 59.3366L50.43 59.1237C50.0542 58.6047 49.5108 58.2309 48.8919 58.0651C48.2621 57.8964 47.5932 57.9539 47.0012 58.2272L46.7971 58.3209L44.8616 57.8024L45.1204 56.8375C45.2633 56.3043 44.9465 55.7561 44.4134 55.6129L43.4466 55.3541C42.9132 55.2114 42.3649 55.5278 42.222 56.0612C42.3649 55.5277 42.0484 54.9795 41.5149 54.8366L40.5491 54.5778Z" fill="#1C232E"/>
<path d="M46.6917 35.5172C45.6247 35.2314 44.5283 35.8653 44.2425 36.9323L40.3596 51.4206C40.2167 51.9539 40.5333 52.5021 41.0667 52.6452L58.4534 57.3043C58.9868 57.4473 59.535 57.1306 59.678 56.5973L63.5608 42.1081C63.8465 41.0413 63.2134 39.9449 62.1468 39.6588L46.6917 35.5172Z" fill="#1C232E"/>
<path d="M53.9348 26.6969C44.5993 24.1957 35.0037 29.7355 32.5022 39.0709L32.1448 40.403L30.4553 37.4762L27.8567 38.9772L32.1077 46.3375L39.468 42.0875L37.968 39.4889L35.0432 41.1784L35.3997 39.8473C37.42 32.3077 45.0251 27.7568 52.5716 29.4508L56.5716 30.4557L57.2981 27.5446L53.9348 26.6969Z" fill="#1C232E"/>
</svg>
