<svg xmlns="http://www.w3.org/2000/svg" width="24" height="24" viewBox="0 0 24 24">
  <g fill="none" fill-rule="evenodd">
    <rect width="24" height="24" opacity="0"/>
    <path fill="#0F1621" fill-opacity=".95" d="M14.693,7.38499998 C18.729,7.38499998 22,10.655 22,14.692 C22,18.729 18.729,22 14.693,22 C13.144,22 11.725,21.496 10.544,20.674 L10.8015019,19.5980556 C11.3915328,17.0811472 11.692,15.39644 11.692,14.593 C11.692,13.01425 10.9809648,11.7765156 10.3565019,10.7693843 L10.233,10.571 C9.98599999,10.175 9.76399999,9.81099999 9.60599999,9.47199999 C10.921,8.18699998 12.708,7.38499998 14.693,7.38499998 Z M17.046,14.307 C16.414,14.307 15.902,14.839 15.902,15.471 C15.902,16.103 16.414,16.615 17.046,16.615 C17.678,16.615 18.19,16.103 18.19,15.471 C18.19,14.839 17.678,14.307 17.046,14.307 Z M19.372,12.001 C18.74,12.001 18.228,12.532 18.228,13.164 C18.228,13.796 18.74,14.308 19.372,14.308 C20.005,14.308 20.517,13.795 20.516003,13.164 C20.516003,12.533 20.004,12.001 19.372,12.001 Z M16.276,11.231 C15.644,11.231 15.132,11.763 15.132,12.394 C15.132,13.026 15.644,13.539 16.276,13.539 C16.908,13.539 17.42,13.026 17.42,12.394 C17.42,11.763 16.908,11.231 16.276,11.231 Z M7.38099998,8.66699999 C7.38099998,10.889 9.69199999,12.371 9.69199999,14.593 C9.69199999,15.745 8.75999999,19.587 8.34599998,21.237 C8.23299998,21.686 7.81599998,22 7.33499998,22 L4.35699997,22 C3.87599997,22 3.45899996,21.686 3.34599996,21.236 L2.97845436,19.7372722 C2.53832316,17.897784 1.99999996,15.46852 1.99999996,14.593 C1.99999996,12.4879474 4.07413847,11.0470499 4.29246884,9.01190828 L4.31099997,8.66699999 C4.31099997,8.66699999 4.28999997,8.04699998 4.24899997,7.68199998 L3.59199996,4.68399997 C3.55899996,4.53399997 3.54099996,4.37999997 3.54099996,4.22199997 C3.54099996,2.99499996 4.57499997,1.99999996 5.85199997,1.99999996 C7.12899998,1.99999996 8.16299998,2.99499996 8.16299998,4.22199997 C8.16299998,4.41499997 8.12899998,4.59899997 8.08099998,4.77799997 L7.44399998,7.68099998 L7.42474998,7.88077313 C7.39558331,8.23574998 7.38099998,8.66699999 7.38099998,8.66699999 Z"/>
  </g>
</svg>
