<svg xmlns="http://www.w3.org/2000/svg" width="24" height="24" viewBox="0 0 24 24">
  <g fill="none" fill-rule="evenodd">
    <rect width="24" height="24"/>
    <path fill="#0F1621" fill-opacity=".95" d="M21.723,11.013 L20.309,9.59899999 L22.077,7.83099998 L19.956,5.70999997 L21.017,4.64899997 L19.603,3.23499996 L18.542,4.29599997 L16.421,2.17499996 L14.653,3.94299997 L13.239,2.52899996 C12.85,2.13999996 12.214,2.13999996 11.825,2.52899996 L10.057,4.29699997 C9.66799999,4.68599997 9.66799999,5.32199997 10.057,5.71099997 L13.593,9.24699999 L8.99699999,13.843 L5.46099997,10.307 C5.06999997,9.91599999 4.43699997,9.91599999 4.04699997,10.307 L2.63099996,11.72 C2.24099996,12.111 2.24099996,12.744 2.63099996,13.134 L4.04499997,14.548 L2.27699996,16.316 L4.39799997,18.437 L2.98399996,19.851 L4.39799997,21.265 L5.81199997,19.851 L7.93299998,21.972 L9.70099999,20.204 L11.115,21.618 C11.506,22.009 12.139,22.009 12.529,21.618 L13.943,20.204 C14.334,19.813 14.334,19.18 13.943,18.79 L10.407,15.254 L15.003,10.658 L18.539,14.194 C18.93,14.585 19.563,14.585 19.953,14.194 L21.721,12.426 C22.112,12.038 22.112,11.402 21.723,11.013 Z"/>
  </g>
</svg>
