<svg xmlns="http://www.w3.org/2000/svg" width="24" height="24" viewBox="0 0 24 24">
  <g fill="none" fill-rule="evenodd">
    <polygon points="24 24 0 24 0 0 24 0"/>
    <path fill="#0F1621" fill-opacity=".95" d="M22,20 L22,22 L1.99999996,22 L1.99999996,20 L22,20 Z M8.49999997,2.49999996 C10.6957647,1.87223525 12.8924152,1.83530792 15.0882841,2.38921795 L15.5,2.49999996 L15.5,2.99999996 L18.03,2.99999996 C18.5314286,2.99999996 18.9466327,3.37076527 19.0194024,3.85608597 L19.03,3.96999997 L19.5,18 L4.49999997,18 L4.96999997,3.96999997 C4.9885714,3.46857139 5.36928569,3.06198976 5.85593292,3.00646498 L5.96999997,2.99999996 L8.49999997,2.99999996 L8.49999997,2.49999996 Z M16,9.99999999 L7.99999998,9.99999999 L7.99999998,12 L16,12 L16,9.99999999 Z M16,5.99999997 L7.99999998,5.99999997 L7.99999998,7.99999997 L16,7.99999997 L16,5.99999997 Z"/>
  </g>
</svg>
