<svg xmlns="http://www.w3.org/2000/svg" width="24" height="24" viewBox="0 0 24 24">
  <g fill="none" fill-rule="evenodd">
    <rect width="24" height="24"/>
    <path fill="#0F1621" fill-opacity=".95" d="M18,13.224 L18,13.509 C18,18.198 15.317,22 12.006,22 C8.69499999,22 6.01199998,18.198 6.01199998,13.509 L6.01199998,13.224 L6.19856175,13.3063519 C6.77833216,13.5454775 8.71023528,14.223 12.006,14.223 C15.995,14.223 18,13.224 18,13.224 Z M12,1.99999996 L22,7.71399998 L21.5,8.07099998 L21.5,17.116 L19.5,17.116 L19.502,9.49799999 L18,10.571 L18,11.5 L17.7264881,11.6063079 C17.0295675,11.8579264 15.0255882,12.469 12,12.469 C8.97441174,12.469 6.97043249,11.8579264 6.27351182,11.6063079 L5.99999996,11.5 L5.99999996,10.5 L1.99999996,7.71399998 L12,1.99999996 Z"/>
  </g>
</svg>
