<svg xmlns="http://www.w3.org/2000/svg" width="24" height="24" viewBox="0 0 24 24">
  <g fill="none" fill-rule="evenodd">
    <rect width="24" height="24" opacity="0"/>
    <path fill="#0F1621" fill-opacity=".95" d="M14,22 C14,22 14,20.031 14,19.5 C14,18.25 13,17.625 12.001,17.625 C11.001,17.625 10.001,18.25 10.001,19.5 L10.001,22 L5.36599997,22 C3.76299997,22 2.44299996,20.739 2.36899996,19.137 L1.99999996,11.091 L6.49999996,15.283 C7.00299998,15.744 7.66099998,16 8.34299998,16 L15.312,16 C15.994,16 16.652,15.744 17.155,15.283 L22,11.091 L21.631,19.138 C21.558,20.739 20.238,22 18.634,22 L14,22 Z M7.85199998,13.809 C7.98599998,13.932 8.15999998,14 8.34299998,14 L15.312,14 C15.494,14 15.669,13.932 15.803,13.809 L15.824,13.789 L15.846,13.77 L17.893,12 L5.90999997,12 L7.85199998,13.809 Z M22,2.89599996 L18,2.03999996 L18,7.99999996 L12,7.99999996 L12,4.29499997 L14,3.71599997 L14,2.85599996 L9.99999996,1.99999996 L9.99999996,7.99999996 L3.99699997,7.99999996 L3.98399997,4.30999997 L5.99999996,3.71599997 L5.99999996,2.85599996 L1.99999996,1.99999996 L1.99999996,8.35699998 L3.76299997,9.99999996 L20.204,9.99999996 L22,8.44599999 L22,7.99999996 L20,7.99999996 L19.999,4.35099997 L22,3.75599997 L22,2.89599996 Z"/>
  </g>
</svg>
