<svg xmlns="http://www.w3.org/2000/svg" width="24" height="24" viewBox="0 0 24 24">
  <g fill="none" fill-rule="evenodd">
    <rect width="24" height="24"/>
    <path fill="#0F1621" fill-opacity=".95" d="M1.99599996,19 L21.996,19 L21.9953439,20.0272254 C21.9868155,20.2574932 21.8674174,21.8736316 20.1958442,21.9930297 L19.996,22 L4.02399997,22 C2.09296548,22 2.02637808,20.1355529 1.99887978,20.0069704 L1.99599996,20 L1.99599996,19 Z M5.22799997,6.99999998 C7.81099998,6.99999998 9.39799999,8.06699998 9.39799999,10.261 C9.39799999,12.584 7.75299998,13.666 5.44399997,13.666 L4.36199997,13.666 L4.36199997,17 L1.99599996,17 L1.99599996,6.99999998 L5.22799997,6.99999998 Z M17.271,6.99999998 C19.984,6.99999998 21.384,7.96599998 21.384,10.044 C21.384,11.358 20.764,12.151 19.465,12.743 L22.005,17 L19.335,17 L17.286,13.176 L16.362,13.176 L16.362,17 L13.996,17 L13.996,6.99999998 L17.271,6.99999998 Z M11.49,9.99999999 C12.346,9.99999999 12.985,10.65 12.985,11.506 C12.985,12.361 12.346,13 11.49,13 C10.635,13 9.99599999,12.339 9.99599999,11.494 C9.99599999,10.639 10.635,9.99999999 11.49,9.99999999 Z M5.19899997,8.68899999 L4.36199997,8.68899999 L4.36199997,11.964 L5.24299997,11.964 C6.31099998,11.964 6.95999998,11.517 6.95999998,10.262 C6.95999998,9.19399999 6.36799998,8.68899999 5.19899997,8.68899999 Z M17.213,8.65899999 L16.361,8.65899999 L16.361,11.546 L17.357,11.546 C18.397,11.546 18.945,11.098 18.945,10.044 C18.945,9.07799999 18.382,8.65899999 17.213,8.65899999 Z M19.968,1.99999996 C21.968,1.99999996 21.968,3.99999996 21.996,3.99999996 L21.968,4.99999996 L1.99599996,4.99999996 L1.99665599,3.97277457 L2.00560554,3.84841408 C2.0529323,3.38205546 2.33343838,1.99999996 3.99599996,1.99999996 L19.968,1.99999996 Z"/>
  </g>
</svg>
