<svg xmlns="http://www.w3.org/2000/svg" width="24" height="24" viewBox="0 0 24 24">
  <g fill="none" fill-rule="evenodd">
    <rect width="24" height="24"/>
    <path fill="#0F1621" fill-opacity=".95" d="M19.686,6.99999998 C20.438,6.99999998 21,7.49999998 21,8.49999998 L21,14.985 L20.199,15 L20.51,22.003 L18.5,22.003 L18,14.988 L17,14.988 L16.5,22.003 L14.509,22.003 L14.801,14.985 L14,14.985 L14,8.49999998 C14,7.49999998 14.563,6.99999998 15.316,6.99999998 L19.686,6.99999998 Z M8.49999996,6.99999998 L8.64439321,7.00687073 C9.35721228,7.0750531 9.92494684,7.64278769 9.99312921,8.35560674 L9.99999996,8.49999998 L9.99999996,9.49999998 L7.99999996,10.5 L11,19 L7.99999996,19 L7.49999996,22 L5.49999996,22 L4.99999996,19 L1.99999996,19 L4.99899997,10.5 L2.99999996,9.49999998 L2.99999996,8.49999998 C2.99999996,7.72070586 3.5952664,7.0795986 4.35560672,7.00687073 L4.49999996,6.99999998 L4.6643336,7.00842055 C5.28828991,7.07396448 5.54192305,7.49999998 6.51299998,7.49999998 C7.48499998,7.49999998 7.69098815,7.07396448 8.33041826,7.00842055 L8.49999996,6.99999998 Z M18,1.99999996 C18.5125715,1.99999996 18.9354694,2.38628567 18.9932682,2.88343145 L19,2.99999996 L19,4.99999996 C19,5.5125714 18.6137143,5.93546935 18.1165685,5.99326818 L18,5.99999996 L17,5.99999996 C16.4874286,5.99999996 16.0645306,5.61371426 16.0067318,5.11656847 L16,4.99999996 L16,2.99999996 C16,2.48742853 16.3862857,2.06453057 16.8834315,2.00673174 L17,1.99999996 L18,1.99999996 Z M6.99999997,1.99999996 C7.51257141,1.99999996 7.93546936,2.38628567 7.99326819,2.88343145 L7.99999997,2.99999996 L7.99999997,4.99999996 C7.99999997,5.5125714 7.61371427,5.93546935 7.11656849,5.99326818 L6.99999997,5.99999996 L5.99999997,5.99999996 C5.48742854,5.99999996 5.06453058,5.61371426 5.00673175,5.11656847 L4.99999997,4.99999996 L4.99999997,2.99999996 C4.99999997,2.48742853 5.38628569,2.06453057 5.88343146,2.00673174 L5.99999997,1.99999996 L6.99999997,1.99999996 Z"/>
  </g>
</svg>
