<svg width="24" height="24" viewBox="0 0 24 24" fill="none" xmlns="http://www.w3.org/2000/svg">
<path d="M15.31 4.00001L14.31 5.00001L14.81 6.50001L13.31 5.50001L11.81 6.50001L12.31 5.00001L11.31 4.00001H12.81L13.31 2.50001L13.81 4.00001H15.31ZM21.31 12.47L20.56 9.72001L22.31 8.00001H19.81L18.81 5.50001L17.81 8.00001H15.31L17.06 9.75001L16.31 12.47L18.81 11L21.31 12.47ZM21 14.65C19.4164 15.3829 17.646 15.6124 15.9279 15.3076C14.2097 15.0029 12.6263 14.1785 11.3913 12.9457C10.1563 11.7129 9.32912 10.131 9.02133 8.41331C8.71353 6.69567 8.93994 4.92495 9.67 3.34001C9.70848 3.21394 9.72165 3.08152 9.70877 2.95035C9.69588 2.81918 9.6572 2.69185 9.59493 2.57569C9.53267 2.45952 9.44805 2.35681 9.34595 2.27346C9.24385 2.19011 9.12628 2.12776 9 2.09001C8.80472 2.02859 8.59529 2.02859 8.4 2.09001C6.86716 2.78882 5.52639 3.84854 4.49239 5.1785C3.45839 6.50847 2.76193 8.06911 2.46258 9.72692C2.16322 11.3847 2.26989 13.0904 2.77345 14.698C3.27702 16.3056 4.16249 17.7673 5.35413 18.9581C6.54577 20.1489 8.00812 21.0333 9.61609 21.5357C11.2241 22.0381 12.9298 22.1435 14.5874 21.843C16.245 21.5424 17.8051 20.8448 19.1343 19.8099C20.4636 18.7749 21.5223 17.4334 22.22 15.9C22.2981 15.6467 22.2725 15.3728 22.1487 15.1384C22.025 14.904 21.8132 14.7284 21.56 14.65C21.3771 14.5967 21.1829 14.5967 21 14.65Z" fill="#D6EDF5"/>
</svg>
