<svg width="24" height="24" viewBox="0 0 24 24" fill="none" xmlns="http://www.w3.org/2000/svg">
<path d="M17.34 21H5.34C5.07478 21 4.82043 20.8946 4.63289 20.7071C4.44535 20.5196 4.34 20.2652 4.34 20C4.34 19.7348 4.44535 19.4804 4.63289 19.2929C4.82043 19.1054 5.07478 19 5.34 19H17.34C17.6052 19 17.8596 19.1054 18.0471 19.2929C18.2346 19.4804 18.34 19.7348 18.34 20C18.34 20.2652 18.2346 20.5196 18.0471 20.7071C17.8596 20.8946 17.6052 21 17.34 21ZM9.34 16C9.34 15.7348 9.23464 15.4804 9.0471 15.2929C8.85957 15.1054 8.60521 15 8.34 15H3.34C3.07478 15 2.82043 15.1054 2.63289 15.2929C2.44535 15.4804 2.34 15.7348 2.34 16C2.34 16.2652 2.44535 16.5196 2.63289 16.7071C2.82043 16.8946 3.07478 17 3.34 17H8.34C8.60521 17 8.85957 16.8946 9.0471 16.7071C9.23464 16.5196 9.34 16.2652 9.34 16ZM7.34 12C7.34 11.7348 7.23464 11.4804 7.0471 11.2929C6.85957 11.1054 6.60521 11 6.34 11H4.34C4.07478 11 3.82043 11.1054 3.63289 11.2929C3.44535 11.4804 3.34 11.7348 3.34 12C3.34 12.2652 3.44535 12.5196 3.63289 12.7071C3.82043 12.8946 4.07478 13 4.34 13H6.34C6.60521 13 6.85957 12.8946 7.0471 12.7071C7.23464 12.5196 7.34 12.2652 7.34 12ZM22.34 16C22.34 15.7348 22.2346 15.4804 22.0471 15.2929C21.8596 15.1054 21.6052 15 21.34 15H12.34C12.0748 15 11.8204 15.1054 11.6329 15.2929C11.4454 15.4804 11.34 15.7348 11.34 16C11.34 16.2652 11.4454 16.5196 11.6329 16.7071C11.8204 16.8946 12.0748 17 12.34 17H21.34C21.6052 17 21.8596 16.8946 22.0471 16.7071C22.2346 16.5196 22.34 16.2652 22.34 16ZM16.34 12C16.34 11.7348 16.2346 11.4804 16.0471 11.2929C15.8596 11.1054 15.6052 11 15.34 11H10.34C10.0748 11 9.82043 11.1054 9.63289 11.2929C9.44535 11.4804 9.34 11.7348 9.34 12C9.34 12.2652 9.44535 12.5196 9.63289 12.7071C9.82043 12.8946 10.0748 13 10.34 13H15.34C15.6052 13 15.8596 12.8946 16.0471 12.7071C16.2346 12.5196 16.34 12.2652 16.34 12ZM20.34 8C20.34 7.73478 20.2346 7.48043 20.0471 7.29289C19.8596 7.10536 19.6052 7 19.34 7H13.34C13.0748 7 12.8204 7.10536 12.6329 7.29289C12.4454 7.48043 12.34 7.73478 12.34 8C12.34 8.26522 12.4454 8.51957 12.6329 8.70711C12.8204 8.89464 13.0748 9 13.34 9H19.34C19.6052 9 19.8596 8.89464 20.0471 8.70711C20.2346 8.51957 20.34 8.26522 20.34 8ZM22.34 12C22.34 11.7348 22.2346 11.4804 22.0471 11.2929C21.8596 11.1054 21.6052 11 21.34 11H19.34C19.0748 11 18.8204 11.1054 18.6329 11.2929C18.4454 11.4804 18.34 11.7348 18.34 12C18.34 12.2652 18.4454 12.5196 18.6329 12.7071C18.8204 12.8946 19.0748 13 19.34 13H21.34C21.6052 13 21.8596 12.8946 22.0471 12.7071C22.2346 12.5196 22.34 12.2652 22.34 12ZM21.34 4C21.34 3.73478 21.2346 3.48043 21.0471 3.29289C20.8596 3.10536 20.6052 3 20.34 3H18.34C18.0748 3 17.8204 3.10536 17.6329 3.29289C17.4454 3.48043 17.34 3.73478 17.34 4C17.34 4.26522 17.4454 4.51957 17.6329 4.70711C17.8204 4.89464 18.0748 5 18.34 5H20.34C20.6052 5 20.8596 4.89464 21.0471 4.70711C21.2346 4.51957 21.34 4.26522 21.34 4ZM10.34 8C10.34 7.73478 10.2346 7.48043 10.0471 7.29289C9.85957 7.10536 9.60521 7 9.34 7H3.34C3.07478 7 2.82043 7.10536 2.63289 7.29289C2.44535 7.48043 2.34 7.73478 2.34 8C2.34 8.26522 2.44535 8.51957 2.63289 8.70711C2.82043 8.89464 3.07478 9 3.34 9H9.34C9.60521 9 9.85957 8.89464 10.0471 8.70711C10.2346 8.51957 10.34 8.26522 10.34 8ZM15.34 4C15.34 3.73478 15.2346 3.48043 15.0471 3.29289C14.8596 3.10536 14.6052 3 14.34 3H5.34C5.07478 3 4.82043 3.10536 4.63289 3.29289C4.44535 3.48043 4.34 3.73478 4.34 4C4.34 4.26522 4.44535 4.51957 4.63289 4.70711C4.82043 4.89464 5.07478 5 5.34 5H14.34C14.6052 5 14.8596 4.89464 15.0471 4.70711C15.2346 4.51957 15.34 4.26522 15.34 4Z" fill="#D6EDF5"/>
</svg>
