<svg width="24" height="24" viewBox="0 0 24 24" fill="none" xmlns="http://www.w3.org/2000/svg">
<path fill-rule="evenodd" clip-rule="evenodd" d="M21.946 4.42918C22.0209 4.81606 22.0189 5.21391 21.94 5.6C21.7837 6.29092 21.3941 6.90685 20.8367 7.34402C20.2793 7.78118 19.5883 8.01285 18.88 8H13C12.7348 8 12.4804 7.89464 12.2929 7.70711C12.1054 7.51957 12 7.26522 12 7C12 6.73478 12.1054 6.48043 12.2929 6.29289C12.4804 6.10536 12.7348 6 13 6H19C19.2652 6 19.5196 5.89464 19.7071 5.70711C19.8946 5.51957 20 5.26522 20 5C20 4.73478 19.8946 4.48043 19.7071 4.29289C19.5196 4.10536 19.2652 4 19 4H18C17.7348 4 17.4804 3.89464 17.2929 3.70711C17.1054 3.51957 17 3.26522 17 3C17 2.73478 17.1054 2.48043 17.2929 2.29289C17.4804 2.10536 17.7348 2 18 2H19C19.2015 2.00013 19.4025 2.02023 19.6 2.06C19.9861 2.13872 20.353 2.29274 20.6795 2.51327C21.0061 2.73379 21.2861 3.0165 21.5034 3.34523C21.7207 3.67397 21.8711 4.0423 21.946 4.42918ZM3.70711 10.2929C3.89464 10.4804 4 10.7348 4 11C4 11.2652 3.89464 11.5196 3.70711 11.7071C3.51957 11.8946 3.26522 12 3 12C2.73478 12 2.48043 11.8946 2.29289 11.7071C2.10536 11.5196 2 11.2652 2 11C2 10.7348 2.10536 10.4804 2.29289 10.2929C2.48043 10.1054 2.73478 10 3 10C3.26522 10 3.51957 10.1054 3.70711 10.2929ZM5.70711 6.29289C5.89464 6.48043 6 6.73478 6 7C6 7.26522 5.89464 7.51957 5.70711 7.70711C5.51957 7.89464 5.26522 8 5 8H4C3.73478 8 3.48043 7.89464 3.29289 7.70711C3.10536 7.51957 3 7.26522 3 7C3 6.73478 3.10536 6.48043 3.29289 6.29289C3.48043 6.10536 3.73478 6 4 6H5C5.26522 6 5.51957 6.10536 5.70711 6.29289ZM13.7071 2.29289C13.8946 2.48043 14 2.73478 14 3C14 3.26522 13.8946 3.51957 13.7071 3.70711C13.5196 3.89464 13.2652 4 13 4H5C4.73478 4 4.48043 3.89464 4.29289 3.70711C4.10536 3.51957 4 3.26522 4 3C4 2.73478 4.10536 2.48043 4.29289 2.29289C4.48043 2.10536 4.73478 2 5 2H13C13.2652 2 13.5196 2.10536 13.7071 2.29289ZM21.7071 10.2929C21.8946 10.4804 22 10.7348 22 11C22 11.2652 21.8946 11.5196 21.7071 11.7071C21.5196 11.8946 21.2652 12 21 12H20C19.7348 12 19.4804 11.8946 19.2929 11.7071C19.1054 11.5196 19 11.2652 19 11C19 10.7348 19.1054 10.4804 19.2929 10.2929C19.4804 10.1054 19.7348 10 20 10H21C21.2652 10 21.5196 10.1054 21.7071 10.2929Z" fill="#D6EDF5"/>
<path d="M21.08 16.5C20.5259 16.95 19.8543 17.2316 19.1449 17.3113C18.4355 17.3909 17.7182 17.2654 17.0781 16.9495C16.4379 16.6337 15.9018 16.1408 15.5335 15.5293C15.1651 14.9179 14.98 14.2136 15 13.5V13.44L16.49 11.96C16.6763 11.7726 16.7808 11.5192 16.7808 11.255C16.7808 10.9908 16.6763 10.7374 16.49 10.55C16.3026 10.3637 16.0492 10.2592 15.785 10.2592C15.5208 10.2592 15.2674 10.3637 15.08 10.55L13.59 12H13.46C12.9021 12.0127 12.3485 11.8988 11.841 11.6667C11.3335 11.4346 10.8853 11.0904 10.53 10.66C9.98204 9.98205 9.68312 9.13671 9.68312 8.265C9.68312 7.39329 9.98204 6.54795 10.53 5.87L9.06 7.22C8.21126 8.06897 7.60582 9.13009 7.30681 10.2927C7.0078 11.4553 7.02617 12.6769 7.36 13.83L8.36 17.2L5.71 19.83C5.5217 20.0183 5.2663 20.1241 5 20.1241C4.7337 20.1241 4.4783 20.0183 4.29 19.83C4.1017 19.6417 3.99591 19.3863 3.99591 19.12C3.99591 18.8537 4.1017 18.5983 4.29 18.41L5 17.71C5.18625 17.5226 5.29079 17.2692 5.29079 17.005C5.29079 16.7408 5.18625 16.4874 5 16.3C4.81264 16.1137 4.55919 16.0092 4.295 16.0092C4.03081 16.0092 3.77736 16.1137 3.59 16.3L2.88 17C2.35008 17.5687 2.06159 18.3209 2.0753 19.0981C2.08901 19.8753 2.40386 20.6168 2.95351 21.1665C3.50316 21.7161 4.24471 22.031 5.02191 22.0447C5.79911 22.0584 6.5513 21.7699 7.12 21.24L9.75 18.62L13.12 19.62C13.7241 19.7965 14.3507 19.8841 14.98 19.88C15.8644 19.8756 16.7392 19.6967 17.5544 19.3535C18.3695 19.0103 19.1088 18.5095 19.73 17.88L21.09 16.51L21.08 16.5Z" fill="#56899C"/>
</svg>
