<svg width="16" height="16" viewBox="0 0 16 16" fill="none" xmlns="http://www.w3.org/2000/svg">
<path fill-rule="evenodd" clip-rule="evenodd" d="M14.8315 12.5556C14.9414 12.3911 15 12.1978 15 12C15 11.7348 14.8946 11.4804 14.7071 11.2929C14.5196 11.1053 14.2652 11 14 11C13.8022 11 13.6089 11.0586 13.4444 11.1685C13.28 11.2784 13.1518 11.4346 13.0761 11.6173C13.0004 11.8 12.9806 12.0011 13.0192 12.1951C13.0578 12.3891 13.153 12.5672 13.2929 12.7071C13.4327 12.8469 13.6109 12.9422 13.8049 12.9808C13.9989 13.0194 14.2 12.9996 14.3827 12.9239C14.5654 12.8482 14.7216 12.72 14.8315 12.5556ZM9.44443 11.1685C9.60888 11.0586 9.80222 11 10 11C10.2652 11 10.5196 11.1053 10.7071 11.2929C10.8946 11.4804 11 11.7348 11 12C11 12.1978 10.9414 12.3911 10.8315 12.5556C10.7216 12.72 10.5654 12.8482 10.3827 12.9239C10.2 12.9996 9.99889 13.0194 9.80491 12.9808C9.61093 12.9422 9.43275 12.8469 9.29289 12.7071C9.15304 12.5672 9.0578 12.3891 9.01921 12.1951C8.98063 12.0011 9.00043 11.8 9.07612 11.6173C9.15181 11.4346 9.27998 11.2784 9.44443 11.1685ZM5.29289 11.2929C5.48043 11.1053 5.73478 11 6 11C6.26522 11 6.51957 11.1053 6.70711 11.2929C6.89464 11.4804 7 11.7348 7 12V14C7 14.2652 6.89464 14.5196 6.70711 14.7071C6.51957 14.8946 6.26522 15 6 15C5.73478 15 5.48043 14.8946 5.29289 14.7071C5.10536 14.5196 5 14.2652 5 14V12C5 11.7348 5.10536 11.4804 5.29289 11.2929ZM1.29289 11.2929C1.48043 11.1053 1.73478 11 2 11C2.26522 11 2.51957 11.1053 2.70711 11.2929C2.89464 11.4804 3 11.7348 3 12V14C3 14.2652 2.89464 14.5196 2.70711 14.7071C2.51957 14.8946 2.26522 15 2 15C1.73478 15 1.48043 14.8946 1.29289 14.7071C1.10536 14.5196 1 14.2652 1 14V12C1 11.7348 1.10536 11.4804 1.29289 11.2929Z" fill="#D6EDF5"/>
<path d="M15 7.99999C15 7.46956 14.7893 6.96085 14.4142 6.58578C14.0391 6.2107 13.5304 5.99999 13 5.99999H12C12 5.20434 11.6839 4.44128 11.1213 3.87867C10.5587 3.31606 9.79565 2.99999 9 2.99999H8.83C8.5949 2.33166 8.13085 1.7681 7.52005 1.40912C6.90924 1.05015 6.1911 0.918928 5.49282 1.0387C4.79454 1.15848 4.16118 1.52151 3.70492 2.06352C3.24866 2.60552 2.99894 3.29151 3 3.99999V4.99999C2.33696 4.99999 1.70107 5.26338 1.23223 5.73222C0.763392 6.20106 0.5 6.83695 0.5 7.49999C0.5 8.16303 0.763392 8.79892 1.23223 9.26776C1.70107 9.7366 2.33696 9.99999 3 9.99999H4H13C13.5304 9.99999 14.0391 9.78928 14.4142 9.4142C14.7893 9.03913 15 8.53042 15 7.99999Z" fill="#56899C"/>
</svg>
