<svg width="24" height="24" viewBox="0 0 24 24" fill="none" xmlns="http://www.w3.org/2000/svg">
<path fill-rule="evenodd" clip-rule="evenodd" d="M2.29289 20.7071C2.48043 20.8946 2.73478 21 3 21C3.26522 21 3.51957 20.8946 3.70711 20.7071C3.89464 20.5196 4 20.2652 4 20V18C4 17.7348 3.89464 17.4804 3.70711 17.2929C3.51957 17.1054 3.26522 17 3 17C2.73478 17 2.48043 17.1054 2.29289 17.2929C2.10536 17.4804 2 17.7348 2 18V20C2 20.2652 2.10536 20.5196 2.29289 20.7071ZM8 18V21C8 21.2652 7.89464 21.5196 7.70711 21.7071C7.51957 21.8946 7.26522 22 7 22C6.73478 22 6.48043 21.8946 6.29289 21.7071C6.10536 21.5196 6 21.2652 6 21V18C6 17.7348 6.10536 17.4804 6.29289 17.2929C6.48043 17.1054 6.73478 17 7 17C7.26522 17 7.51957 17.1054 7.70711 17.2929C7.89464 17.4804 8 17.7348 8 18ZM12 18V20C12 20.2652 11.8946 20.5196 11.7071 20.7071C11.5196 20.8946 11.2652 21 11 21C10.7348 21 10.4804 20.8946 10.2929 20.7071C10.1054 20.5196 10 20.2652 10 20V18C10 17.7348 10.1054 17.4804 10.2929 17.2929C10.4804 17.1054 10.7348 17 11 17C11.2652 17 11.5196 17.1054 11.7071 17.2929C11.8946 17.4804 12 17.7348 12 18ZM18.7463 8.62012C19.6037 8.77439 20.4879 8.66269 21.28 8.3L21.33 8.33C21.4188 8.24116 21.5394 8.19124 21.665 8.19124C21.7907 8.19124 21.9112 8.24116 22 8.33C22.0888 8.41885 22.1388 8.53935 22.1388 8.665C22.1388 8.79065 22.0888 8.91116 22 9C21.4759 10.089 20.5947 10.9656 19.5031 11.4841C18.4115 12.0027 17.1752 12.1318 16 11.85C15.9663 10.7233 15.5529 9.64099 14.8268 8.77876C14.1007 7.91653 13.1046 7.32495 12 7.1C11.9518 6.36328 12.0626 5.62481 12.3249 4.93466C12.5872 4.24451 12.9947 3.61882 13.52 3.1C13.9478 2.65251 14.4482 2.2806 15 2C15.0764 1.95208 15.1648 1.92667 15.255 1.92667C15.3452 1.92667 15.4336 1.95208 15.51 2C15.6072 2.07203 15.6728 2.17875 15.6933 2.29795C15.7138 2.41715 15.6875 2.53966 15.62 2.64C15.2573 3.43214 15.1456 4.31626 15.2999 5.17371C15.4541 6.03116 15.867 6.8209 16.4831 7.43695C17.0991 8.05299 17.8888 8.46585 18.7463 8.62012Z" fill="#D6EDF5"/>
<path d="M11 9H9C9 8.46957 8.78929 7.96086 8.41421 7.58579C8.03914 7.21072 7.53043 7 7 7H6C6 6.46957 5.78929 5.96086 5.41421 5.58579C5.03914 5.21072 4.53043 5 4 5H2V7H3C3.26522 7 3.51957 7.10536 3.70711 7.2929C3.89464 7.48043 4 7.73479 4 8V9H6C6.26522 9 6.51957 9.10536 6.70711 9.2929C6.89464 9.48043 7 9.73479 7 10V11H11C11.2652 11 11.5196 11.1054 11.7071 11.2929C11.8946 11.4804 12 11.7348 12 12C12 12.2652 11.8946 12.5196 11.7071 12.7071C11.5196 12.8946 11.2652 13 11 13H2V15H11C11.7956 15 12.5587 14.6839 13.1213 14.1213C13.6839 13.5587 14 12.7957 14 12C14 11.2044 13.6839 10.4413 13.1213 9.87868C12.5587 9.31607 11.7956 9 11 9Z" fill="#56899C"/>
</svg>
