<svg width="16" height="16" viewBox="0 0 16 16" fill="none" xmlns="http://www.w3.org/2000/svg">
<path fill-rule="evenodd" clip-rule="evenodd" d="M12.8315 14.5556C12.9414 14.3911 13 14.1978 13 14C13 13.7348 12.8946 13.4804 12.7071 13.2929C12.5196 13.1054 12.2652 13 12 13C11.8022 13 11.6089 13.0586 11.4444 13.1685C11.28 13.2784 11.1518 13.4346 11.0761 13.6173C11.0004 13.8 10.9806 14.0011 11.0192 14.1951C11.0578 14.3891 11.153 14.5673 11.2929 14.7071C11.4327 14.847 11.6109 14.9422 11.8049 14.9808C11.9989 15.0194 12.2 14.9996 12.3827 14.9239C12.5654 14.8482 12.7216 14.72 12.8315 14.5556ZM8.83147 14.5556C8.94135 14.3911 9 14.1978 9 14C9 13.7348 8.89464 13.4804 8.70711 13.2929C8.51957 13.1054 8.26522 13 8 13C7.80222 13 7.60888 13.0586 7.44443 13.1685C7.27998 13.2784 7.15181 13.4346 7.07612 13.6173C7.00043 13.8 6.98063 14.0011 7.01921 14.1951C7.0578 14.3891 7.15304 14.5673 7.29289 14.7071C7.43275 14.847 7.61093 14.9422 7.80491 14.9808C7.99889 15.0194 8.19996 14.9996 8.38268 14.9239C8.56541 14.8482 8.72159 14.72 8.83147 14.5556ZM4.83147 14.5556C4.94135 14.3911 5 14.1978 5 14C5 13.7348 4.89464 13.4804 4.70711 13.2929C4.51957 13.1054 4.26522 13 4 13C3.80222 13 3.60888 13.0586 3.44443 13.1685C3.27998 13.2784 3.15181 13.4346 3.07612 13.6173C3.00043 13.8 2.98063 14.0011 3.01921 14.1951C3.0578 14.3891 3.15304 14.5673 3.29289 14.7071C3.43275 14.847 3.61093 14.9422 3.80491 14.9808C3.99889 15.0194 4.19996 14.9996 4.38268 14.9239C4.56541 14.8482 4.72159 14.72 4.83147 14.5556ZM14.8315 11.5556C14.9414 11.3911 15 11.1978 15 11C15 10.7348 14.8946 10.4804 14.7071 10.2929C14.5196 10.1054 14.2652 10 14 10C13.8022 10 13.6089 10.0586 13.4444 10.1685C13.28 10.2784 13.1518 10.4346 13.0761 10.6173C13.0004 10.8 12.9806 11.0011 13.0192 11.1951C13.0578 11.3891 13.153 11.5673 13.2929 11.7071C13.4327 11.847 13.6109 11.9422 13.8049 11.9808C13.9989 12.0194 14.2 11.9996 14.3827 11.9239C14.5654 11.8482 14.7216 11.72 14.8315 11.5556ZM10.8315 11.5556C10.9414 11.3911 11 11.1978 11 11C11 10.7348 10.8946 10.4804 10.7071 10.2929C10.5196 10.1054 10.2652 10 10 10C9.80222 10 9.60888 10.0586 9.44443 10.1685C9.27998 10.2784 9.15181 10.4346 9.07612 10.6173C9.00043 10.8 8.98063 11.0011 9.01921 11.1951C9.0578 11.3891 9.15304 11.5673 9.29289 11.7071C9.43275 11.847 9.61093 11.9422 9.80491 11.9808C9.99889 12.0194 10.2 11.9996 10.3827 11.9239C10.5654 11.8482 10.7216 11.72 10.8315 11.5556ZM6.83147 11.5556C6.94135 11.3911 7 11.1978 7 11C7 10.7348 6.89464 10.4804 6.70711 10.2929C6.51957 10.1054 6.26522 10 6 10C5.80222 10 5.60888 10.0586 5.44443 10.1685C5.27998 10.2784 5.15181 10.4346 5.07612 10.6173C5.00043 10.8 4.98063 11.0011 5.01921 11.1951C5.0578 11.3891 5.15304 11.5673 5.29289 11.7071C5.43275 11.847 5.61093 11.9422 5.80491 11.9808C5.99889 12.0194 6.19996 11.9996 6.38268 11.9239C6.56541 11.8482 6.72159 11.72 6.83147 11.5556ZM2.83147 11.5556C2.94135 11.3911 3 11.1978 3 11C3 10.7348 2.89464 10.4804 2.70711 10.2929C2.51957 10.1054 2.26522 10 2 10C1.80222 10 1.60888 10.0586 1.44443 10.1685C1.27998 10.2784 1.15181 10.4346 1.07612 10.6173C1.00043 10.8 0.98063 11.0011 1.01921 11.1951C1.0578 11.3891 1.15304 11.5673 1.29289 11.7071C1.43275 11.847 1.61093 11.9422 1.80491 11.9808C1.99889 12.0194 2.19996 11.9996 2.38268 11.9239C2.56541 11.8482 2.72159 11.72 2.83147 11.5556Z" fill="#D6EDF5"/>
<path d="M13 5H12C12 4.46956 11.7893 3.96085 11.4142 3.58578C11.0391 3.21071 10.5304 3 10 3H8.81C8.56549 2.34527 8.10005 1.79645 7.49404 1.4483C6.88804 1.10014 6.17949 0.97449 5.49072 1.09304C4.80195 1.21159 4.17619 1.5669 3.72145 2.09762C3.26672 2.62835 3.01155 3.30119 3 4C2.33696 4 1.70107 4.26339 1.23223 4.73223C0.763392 5.20107 0.5 5.83695 0.5 6.5C0.5 7.16304 0.763392 7.79892 1.23223 8.26776C1.70107 8.7366 2.33696 9 3 9H4H13C13.5304 9 14.0391 8.78928 14.4142 8.41421C14.7893 8.03914 15 7.53043 15 7C15 6.46956 14.7893 5.96085 14.4142 5.58578C14.0391 5.21071 13.5304 5 13 5Z" fill="#56899C"/>
</svg>
