<svg width="24" height="24" viewBox="0 0 24 24" fill="none" xmlns="http://www.w3.org/2000/svg">
<path fill-rule="evenodd" clip-rule="evenodd" d="M6.37147 21.5556C6.48135 21.3911 6.54 21.1978 6.54 21C6.54 20.7348 6.43464 20.4804 6.24711 20.2929C6.05957 20.1054 5.80522 20 5.54 20C5.34222 20 5.14888 20.0586 4.98443 20.1685C4.81998 20.2784 4.69181 20.4346 4.61612 20.6173C4.54043 20.8 4.52063 21.0011 4.55922 21.1951C4.5978 21.3891 4.69304 21.5673 4.83289 21.7071C4.97275 21.847 5.15093 21.9422 5.34491 21.9808C5.53889 22.0194 5.73996 21.9996 5.92268 21.9239C6.10541 21.8482 6.26159 21.72 6.37147 21.5556ZM10.3715 21.5556C10.4814 21.3911 10.54 21.1978 10.54 21C10.54 20.7348 10.4346 20.4804 10.2471 20.2929C10.0596 20.1054 9.80522 20 9.54 20C9.34222 20 9.14888 20.0586 8.98443 20.1685C8.81998 20.2784 8.69181 20.4346 8.61612 20.6173C8.54043 20.8 8.52063 21.0011 8.55922 21.1951C8.5978 21.3891 8.69304 21.5673 8.83289 21.7071C8.97275 21.847 9.15093 21.9422 9.34491 21.9808C9.53889 22.0194 9.73996 21.9996 9.92268 21.9239C10.1054 21.8482 10.2616 21.72 10.3715 21.5556ZM18.3715 21.5556C18.4814 21.3911 18.54 21.1978 18.54 21C18.54 20.7348 18.4346 20.4804 18.2471 20.2929C18.0596 20.1054 17.8052 20 17.54 20C17.3422 20 17.1489 20.0586 16.9844 20.1685C16.82 20.2784 16.6918 20.4346 16.6161 20.6173C16.5404 20.8 16.5206 21.0011 16.5592 21.1951C16.5978 21.3891 16.693 21.5673 16.8329 21.7071C16.9727 21.847 17.1509 21.9422 17.3449 21.9808C17.5389 22.0194 17.74 21.9996 17.9227 21.9239C18.1054 21.8482 18.2616 21.72 18.3715 21.5556ZM14.3715 21.5556C14.4814 21.3911 14.54 21.1978 14.54 21C14.54 20.7348 14.4346 20.4804 14.2471 20.2929C14.0596 20.1054 13.8052 20 13.54 20C13.3422 20 13.1489 20.0586 12.9844 20.1685C12.82 20.2784 12.6918 20.4346 12.6161 20.6173C12.5404 20.8 12.5206 21.0011 12.5592 21.1951C12.5978 21.3891 12.693 21.5673 12.8329 21.7071C12.9727 21.847 13.1509 21.9422 13.3449 21.9808C13.5389 22.0194 13.74 21.9996 13.9227 21.9239C14.1054 21.8482 14.2616 21.72 14.3715 21.5556ZM4.37147 17.5556C4.48135 17.3911 4.54 17.1978 4.54 17C4.54 16.8687 4.51413 16.7386 4.46388 16.6173C4.41363 16.496 4.33997 16.3858 4.24711 16.2929C4.15425 16.2 4.04401 16.1264 3.92268 16.0761C3.80136 16.0259 3.67132 16 3.54 16C3.34222 16 3.14888 16.0586 2.98443 16.1685C2.81998 16.2784 2.69181 16.4346 2.61612 16.6173C2.54043 16.8 2.52063 17.0011 2.55922 17.1951C2.5978 17.3891 2.69304 17.5673 2.83289 17.7071C2.97275 17.847 3.15093 17.9422 3.34491 17.9808C3.53889 18.0194 3.73996 17.9996 3.92268 17.9239C4.10541 17.8482 4.26159 17.72 4.37147 17.5556ZM8.37147 17.5556C8.48135 17.3911 8.54 17.1978 8.54 17C8.54 16.7348 8.43464 16.4804 8.24711 16.2929C8.05957 16.1054 7.80522 16 7.54 16C7.34222 16 7.14888 16.0586 6.98443 16.1685C6.81998 16.2784 6.69181 16.4346 6.61612 16.6173C6.54043 16.8 6.52063 17.0011 6.55922 17.1951C6.5978 17.3891 6.69304 17.5673 6.83289 17.7071C6.97275 17.847 7.15093 17.9422 7.34491 17.9808C7.53889 18.0194 7.73996 17.9996 7.92268 17.9239C8.10541 17.8482 8.26159 17.72 8.37147 17.5556ZM12.3715 17.5556C12.4814 17.3911 12.54 17.1978 12.54 17C12.54 16.7348 12.4346 16.4804 12.2471 16.2929C12.0596 16.1054 11.8052 16 11.54 16C11.3422 16 11.1489 16.0586 10.9844 16.1685C10.82 16.2784 10.6918 16.4346 10.6161 16.6173C10.5404 16.8 10.5206 17.0011 10.5592 17.1951C10.5978 17.3891 10.693 17.5673 10.8329 17.7071C10.9727 17.847 11.1509 17.9422 11.3449 17.9808C11.5389 18.0194 11.74 17.9996 11.9227 17.9239C12.1054 17.8482 12.2616 17.72 12.3715 17.5556ZM16.3715 17.5556C16.4814 17.3911 16.54 17.1978 16.54 17C16.54 16.7348 16.4346 16.4804 16.2471 16.2929C16.0596 16.1054 15.8052 16 15.54 16C15.3422 16 15.1489 16.0586 14.9844 16.1685C14.82 16.2784 14.6918 16.4346 14.6161 16.6173C14.5404 16.8 14.5206 17.0011 14.5592 17.1951C14.5978 17.3891 14.693 17.5673 14.8329 17.7071C14.9727 17.847 15.1509 17.9422 15.3449 17.9808C15.5389 18.0194 15.74 17.9996 15.9227 17.9239C16.1054 17.8482 16.2616 17.72 16.3715 17.5556ZM20.3715 17.5556C20.4814 17.3911 20.54 17.1978 20.54 17C20.54 16.7348 20.4346 16.4804 20.2471 16.2929C20.0596 16.1054 19.8052 16 19.54 16C19.3422 16 19.1489 16.0586 18.9844 16.1685C18.82 16.2784 18.6918 16.4346 18.6161 16.6173C18.5404 16.8 18.5206 17.0011 18.5592 17.1951C18.5978 17.3891 18.693 17.5673 18.8329 17.7071C18.9727 17.847 19.1509 17.9422 19.3449 17.9808C19.5389 18.0194 19.74 17.9996 19.9227 17.9239C20.1054 17.8482 20.2616 17.72 20.3715 17.5556Z" fill="#D6EDF5"/>
<path fill-rule="evenodd" clip-rule="evenodd" d="M19 7H16.37C16.1631 6.41484 15.7798 5.90826 15.273 5.55006C14.7661 5.19186 14.1607 4.99967 13.54 5H12.87C12.6484 4.14187 12.1481 3.38163 11.4477 2.83864C10.7472 2.29565 9.88627 2.00066 9 2H8C6.93913 2 5.92172 2.42143 5.17157 3.17157C4.42143 3.92172 4 4.93913 4 6V7.17C3.41484 7.37688 2.90826 7.76016 2.55006 8.26702C2.19186 8.77387 1.99968 9.37935 2 10V11C2 11.7956 2.31607 12.5587 2.87868 13.1213C3.44129 13.6839 4.20435 14 5 14H19C19.7956 14 20.5587 13.6839 21.1213 13.1213C21.6839 12.5587 22 11.7956 22 11V10C22 9.20435 21.6839 8.44129 21.1213 7.87868C20.5587 7.31607 19.7956 7 19 7ZM19.7071 11.7071C19.8946 11.5196 20 11.2652 20 11V10C20 9.73478 19.8946 9.48043 19.7071 9.29289C19.5196 9.10536 19.2652 9 19 9H15V8C15 7.73478 14.8946 7.48043 14.7071 7.29289C14.5196 7.10536 14.2652 7 14 7H11V6C11 5.46957 10.7893 4.96086 10.4142 4.58579C10.0391 4.21071 9.53043 4 9 4H8C7.46957 4 6.96086 4.21071 6.58579 4.58579C6.21071 4.96086 6 5.46957 6 6V7H8C8.53043 7 9.03914 7.21071 9.41421 7.58579C9.78929 7.96086 10 8.46957 10 9H5C4.73478 9 4.48043 9.10536 4.29289 9.29289C4.10536 9.48043 4 9.73478 4 10V11C4 11.2652 4.10536 11.5196 4.29289 11.7071C4.48043 11.8946 4.73478 12 5 12H19C19.2652 12 19.5196 11.8946 19.7071 11.7071Z" fill="#56899C"/>
</svg>
