<svg width="16" height="16" viewBox="0 0 16 16" fill="none" xmlns="http://www.w3.org/2000/svg">
<path d="M15 4.5C15 5.58495 14.5063 6.55459 13.7314 7.19658C13.2821 6.76517 12.672 6.5 12 6.5H11.0002C10.5751 5.93412 9.91555 5.55448 9.16574 5.50541C8.90646 4.95719 8.50898 4.48711 8.01826 4.14017C8.1984 2.37622 9.68848 1 11.5 1C11.7956 1 12.0827 1.03665 12.3569 1.10565C11.5678 1.37345 11 2.12042 11 3C11 4.10457 11.8954 5 13 5C13.8796 5 14.6265 4.4322 14.8943 3.64313C14.9633 3.91733 15 4.20439 15 4.5Z" fill="#D6EDF5"/>
<path d="M10 8H12C12.5523 8 13 8.44772 13 9C13 9.55228 12.5523 10 12 10H5.5L6.3179 7.13736C6.40916 6.81795 6.16932 6.5 5.83713 6.5H1V5C1 3.61929 2.11929 2.5 3.5 2.5C4.88071 2.5 6 3.61929 6 5C7.10457 5 8 5.89543 8 7H9C9.55229 7 10 7.44772 10 8Z" fill="#56899C"/>
<path d="M4.5 8H2.25L1 12H3L2 15L6 11H3.5L4.5 8Z" fill="#F3CF1D"/>
</svg>
