<svg width="16" height="16" viewBox="0 0 16 16" fill="none" xmlns="http://www.w3.org/2000/svg">
<path d="M2 12C2 11.4477 2.44772 11 3 11C3.55228 11 4 11.4477 4 12V14C4 14.5523 3.55228 15 3 15C2.44772 15 2 14.5523 2 14V12Z" fill="#D6EDF5"/>
<path d="M12 12C12 11.4477 12.4477 11 13 11C13.5523 11 14 11.4477 14 12V14C14 14.5523 13.5523 15 13 15C12.4477 15 12 14.5523 12 14V12Z" fill="#D6EDF5"/>
<path d="M3 4C3 2.34315 4.34315 1 6 1C7.30622 1 8.41746 1.83481 8.82929 3H9C10.3062 3 11.4174 3.8347 11.8292 5H12.5C13.8807 5 15 6.11929 15 7.5C15 8.88071 13.8807 10 12.5 10H9.94591L10.6738 7.81623C10.8072 7.41615 10.6771 7.00675 10.3855 6.74825L10.3733 6.73747L10.3607 6.727C10.1917 6.58661 9.97527 6.5 9.72515 6.5H6.52017C6.07096 6.5 5.67688 6.79954 5.55665 7.23236L4.78786 10H3.5C2.11929 10 1 8.88071 1 7.5C1 6.29052 1.85888 5.28164 3 5.05001V4Z" fill="#56899C"/>
<path d="M9 8H6.75L5.5 12H7.5L6.5 15L10.5 11H8L9 8Z" fill="#F3CF1D"/>
</svg>
