<svg width="24" height="24" viewBox="0 0 24 24" fill="none" xmlns="http://www.w3.org/2000/svg">
<path d="M9 11H6.5L5 17H7.5L6.5 22L11.5 15H8L9 11Z" fill="#F3CF1D"/>
<path d="M16 3C16 2.44772 15.5523 2 15 2C14.4477 2 14 2.44772 14 3V4H16V3Z" fill="#F3CF1D"/>
<path d="M20.2071 5.20711C20.5976 4.81658 20.5976 4.18342 20.2071 3.79289C19.8166 3.40237 19.1834 3.40237 18.7929 3.79289L17.7929 4.79289L19.2071 6.20711L20.2071 5.20711Z" fill="#F3CF1D"/>
<path d="M18.7929 15.2071C19.1834 15.5976 19.8166 15.5976 20.2071 15.2071C20.5976 14.8166 20.5976 14.1834 20.2071 13.7929L19.2071 12.7929L17.7929 14.2071L18.7929 15.2071Z" fill="#F3CF1D"/>
<path d="M22 9C22 9.55228 21.5523 10 21 10H20V8H21C21.5523 8 22 8.44771 22 9Z" fill="#F3CF1D"/>
<path d="M14.8145 12.9861C15.5441 12.3019 16 11.3292 16 10.25C16 8.31746 14.5381 6.72635 12.6599 6.52215C13.1945 6.1911 13.8249 6 14.5 6C16.433 6 18 7.567 18 9.5C18 11.327 16.6001 12.827 14.8145 12.9861Z" fill="#F3CF1D"/>
<path d="M2 3.99998H3C4.10457 3.99998 5 4.89541 5 5.99998V6.99998H7C7.55228 6.99998 8 7.44769 8 7.99998V9.5H11.25C11.6642 9.5 12 9.83578 12 10.25C12 10.6642 11.6642 11 11.25 11L11 11L10.5 12.9861L11.25 13C12.7688 13 14 11.7688 14 10.25C14 8.73121 12.7688 7.5 11.25 7.5H9.95852C9.7205 6.08113 8.48651 4.99998 7 4.99998H6.87398C6.42994 3.27475 4.86384 1.99998 3 1.99998H2V3.99998Z" fill="#56899C"/>
<path d="M2 11V13L4 13L4.5 11L2 11Z" fill="#56899C"/>
</svg>
