<svg width="16" height="16" viewBox="0 0 16 16" fill="none" xmlns="http://www.w3.org/2000/svg">
<path d="M3 5V4C3 2.89543 3.89543 2 5 2C6.10457 2 7 2.89543 7 4H8.5C9.32843 4 10 4.67157 10 5.5H11.25C12.2165 5.5 13 6.2835 13 7.25C13 8.2165 12.2165 9 11.25 9H8.59306L8.95686 7.78735C9.14934 7.14574 8.6689 6.5 7.99903 6.5H4.99403C4.55242 6.5 4.1631 6.78967 4.0362 7.21265L3.5 9H3C1.89543 9 1 8.10457 1 7C1 5.89543 1.89543 5 3 5Z" fill="#56899C"/>
<path d="M7.5 8H5.25L4 12H6L5 15L9 11H6.5L7.5 8Z" fill="#F3CF1D"/>
<path d="M11.1632 4.5C10.6828 3.48874 9.7317 2.74439 8.59306 2.55004C9.22143 1.61515 10.2889 1 11.5 1C13.433 1 15 2.567 15 4.5C15 5.26172 14.7567 5.96661 14.3435 6.54117C13.9435 5.35452 12.8215 4.5 11.5 4.5H11.1632Z" fill="#F3CF1D"/>
</svg>
