<svg width="24" height="24" viewBox="0 0 24 24" fill="none" xmlns="http://www.w3.org/2000/svg">
<path d="M3 17C3 16.4477 3.44772 16 4 16C4.55228 16 5 16.4477 5 17V19C5 19.5523 4.55228 20 4 20C3.44772 20 3 19.5523 3 19V17Z" fill="#D6EDF5"/>
<path d="M15 17C15 16.4477 15.4477 16 16 16C16.5523 16 17 16.4477 17 17V21C17 21.5523 16.5523 22 16 22C15.4477 22 15 21.5523 15 21V17Z" fill="#D6EDF5"/>
<path d="M19 17C19 16.4477 19.4477 16 20 16C20.5523 16 21 16.4477 21 17V19C21 19.5523 20.5523 20 20 20C19.4477 20 19 19.5523 19 19V17Z" fill="#D6EDF5"/>
<path d="M6 6C6 4.89543 6.89543 4 8 4H9C10.1046 4 11 4.89543 11 6V7H14C14.5523 7 15 7.44772 15 8V9H19C19.5523 9 20 9.44772 20 10V11C20 11.5523 19.5523 12 19 12H17V14H19C20.6569 14 22 12.6569 22 11V10C22 8.34315 20.6569 7 19 7H16.8293C16.4175 5.83481 15.3062 5 14 5H12.874C12.4299 3.27477 10.8638 2 9 2H8C5.79086 2 4 3.79086 4 6V7.17071C2.83481 7.58254 2 8.69378 2 10V11C2 12.6569 3.34315 14 5 14H7V12H5C4.44772 12 4 11.5523 4 11V10C4 9.44772 4.44772 9 5 9H10C10 7.89543 9.10457 7 8 7H6V6Z" fill="#56899C"/>
<path d="M12.5 10H10L8.5 16H11L9.5 22L14.5 14H11.5L12.5 10Z" fill="#F3CF1D"/>
</svg>
