<svg xmlns="http://www.w3.org/2000/svg" width="80" height="80" viewBox="0 0 80 80">
  <path d="M60,4 L45,20 L50,24 L56,18 L56,36.44 C56.0029934,37.5756797 55.5230909,38.6590959 54.68,39.42 L40,52.64 C40,52.64 40,52.64 40,52.64 L25.32,39.6 C24.4769091,38.8390959 23.9970066,37.7556797 24,36.62 L24,18 L24,18 L30,24 L35,20 L20,4 L5,20 L10,24 L16,18 L16,36.62 C16.006896,40.0262868 17.4610922,43.2691444 20,45.54 L34.7,58.78 C35.5356891,59.5444853 36.0081082,60.6274152 36,61.76 L36,80 L44,80 L44,61.56 C43.9970066,60.4243203 44.4769091,59.3409041 45.32,58.58 L60,45.36 C62.5389078,43.0891444 63.993104,39.8462868 64,36.44 L64,18 L64,18 L70,24 L75,20 L60,4 Z"/>
</svg>
