<svg width="24" height="24" viewBox="0 0 24 24" fill="none" xmlns="http://www.w3.org/2000/svg">
<path d="M6.35835 5C7.2155 5 7.97094 5.16519 8.6247 5.49557C9.27845 5.81219 9.77966 6.2527 10.1283 6.81711C10.477 7.38151 10.6513 8.02163 10.6513 8.73746C10.6513 9.59095 10.4479 10.41 10.0412 11.1947C9.64891 11.9656 9.03874 12.7984 8.21065 13.6932C7.38257 14.588 6.10412 15.8682 4.3753 17.5339H11V19H2.28329V17.6165C4.23002 15.6755 5.61743 14.2507 6.44552 13.3422C7.27361 12.4336 7.86199 11.649 8.21065 10.9882C8.55932 10.3137 8.73366 9.59095 8.73366 8.82006C8.73366 8.0767 8.50848 7.49164 8.05811 7.0649C7.60775 6.63815 7.01211 6.42478 6.27119 6.42478C5.66102 6.42478 5.11622 6.54867 4.6368 6.79646C4.17191 7.03048 3.69249 7.41593 3.19855 7.9528L2 7.04425C2.59564 6.35595 3.24213 5.84661 3.93947 5.51622C4.65133 5.17207 5.45763 5 6.35835 5Z" fill="black"/>
<path d="M14.9522 5C17.0728 5 18.7775 5.49515 20.0665 6.48547C21.3555 7.46221 22 9.27326 22 11.9186C22 14.5233 21.3486 16.3547 20.0457 17.4128C18.7568 18.4709 17.1836 19 15.3264 19H12V5H14.9522ZM13.7879 6.42442V17.5959H15.4719C16.8302 17.5959 17.9321 17.189 18.7775 16.375C19.6369 15.5475 20.0665 14.062 20.0665 11.9186C20.0665 10.4128 19.8448 9.25969 19.4012 8.4593C18.9716 7.64535 18.4103 7.10271 17.7173 6.83139C17.0381 6.56008 16.2412 6.42442 15.3264 6.42442H13.7879Z" fill="black"/>
</svg>
