<svg width="16" height="16" viewBox="0 0 16 16" fill="none" xmlns="http://www.w3.org/2000/svg">
<path d="M3.66667 3C2.66667 3 1.66667 3.71429 1 4.69565L2.33333 5.85714C2.83438 5.16149 3.05289 4.78571 3.66667 4.78571C4.33055 4.78571 4.79541 5.23188 4.79541 6.02899C4.79541 7.24638 3.84342 8.13043 1 11.3768V13H7V11.2464H3.90605C6.54906 8.46377 6.82463 7.31884 6.82463 5.7971C6.82463 4.27536 5.55811 3 3.66667 3Z" fill="black"/>
<path d="M10.443 3H8V13H10.6329C12.8734 13 15 11.9755 15 7.94949C15 3.82251 12.7848 3 10.443 3ZM10.7342 4.71717C11.9494 4.71717 12.8481 5.26551 12.8481 7.94949C12.8481 10.6046 12.0127 11.2828 10.7595 11.2828H10.0759V4.71717H10.7342Z" fill="black"/>
</svg>
