<svg width="24" height="24" viewBox="0 0 24 24" fill="none" xmlns="http://www.w3.org/2000/svg">
<path d="M19 5C19.7956 5 20.5587 5.31607 21.1213 5.87868C21.6839 6.44129 22 7.20435 22 8V16C22 16.7956 21.6839 17.5587 21.1213 18.1213C20.5587 18.6839 19.7956 19 19 19H13V5H19ZM19 15V9C19 8.73478 18.8946 8.48043 18.7071 8.29289C18.5196 8.10536 18.2652 8 18 8H16V16H18C18.2652 16 18.5196 15.8946 18.7071 15.7071C18.8946 15.5196 19 15.2652 19 15ZM11 7C11 6.46957 10.7893 5.96086 10.4142 5.58579C10.0391 5.21071 9.53043 5 9 5H4C3.46957 5 2.96086 5.21071 2.58579 5.58579C2.21071 5.96086 2 6.46957 2 7V9H5V8H8V9.5C8 10.08 6.62 10.96 5.64 11.6C4 12.73 2 13.79 2 16V19H11V16H5C5 15.41 6.3 14.75 7.28 14.11C9.05 13 11 11.71 11 9.5V7Z" fill="#0F1621"/>
</svg>
