<svg width="24" height="24" viewBox="0 0 24 24" fill="none" xmlns="http://www.w3.org/2000/svg">
<path d="M6 5C4.5 5 3 6 2 7.37391L4 9C4.75157 8.02609 5.07933 7.5 6 7.5C6.99582 7.5 7.69311 8.12464 7.69311 9.24058C7.69311 10.9449 6.26514 12.1826 2 16.7275V19H11V16.5449H6.35908C10.3236 12.6493 10.737 11.0464 10.737 8.91594C10.737 6.78551 8.83716 5 6 5Z" fill="black"/>
<path d="M15.4901 5H12V19H15.7613C18.962 19 22 17.5657 22 11.9293C22 6.15151 18.8354 5 15.4901 5ZM15.906 7.40404C17.642 7.40404 18.9259 8.17172 18.9259 11.9293C18.9259 15.6465 17.7324 16.596 15.9421 16.596H14.9656V7.40404H15.906Z" fill="black"/>
</svg>
