<svg width="24" height="24" viewBox="0 0 24 24" fill="none" xmlns="http://www.w3.org/2000/svg">
<path d="M8.6383 5.46667C8.01418 5.15556 7.2766 5 6.42553 5C4.93617 5 3.59574 5.52754 2.40426 6.58261L3.34043 7.5971C3.83688 7.16425 4.31206 6.85314 4.76596 6.66377C5.23404 6.4744 5.75177 6.37971 6.31915 6.37971C7.07092 6.37971 7.66667 6.57585 8.10638 6.96812C8.5461 7.34686 8.76596 7.86763 8.76596 8.53044C8.76596 9.31498 8.51064 9.92367 8 10.3565C7.50355 10.7894 6.87943 11.0058 6.12766 11.0058H5.40426L5.19149 12.3246H6.23404C7.17021 12.3246 7.88652 12.5208 8.38298 12.913C8.87943 13.2918 9.12766 13.9411 9.12766 14.8609C9.12766 15.686 8.86525 16.3488 8.34043 16.8493C7.8156 17.3498 7.0922 17.6 6.17021 17.6C5.57447 17.6 5.02837 17.4918 4.53191 17.2754C4.03546 17.0589 3.55319 16.714 3.08511 16.2406L2 17.1942C3.07801 18.3981 4.48936 19 6.23404 19C7.1844 19 8.02128 18.8242 8.74468 18.4725C9.46808 18.1072 10.0213 17.6135 10.4043 16.9913C10.8014 16.3556 11 15.6454 11 14.8609C11 13.8734 10.695 13.0957 10.0851 12.5275C9.48936 11.9594 8.7234 11.6348 7.78723 11.5536C8.62411 11.3778 9.29787 11.0261 9.80851 10.4986C10.3191 9.95749 10.5745 9.26763 10.5745 8.42899C10.5745 7.80676 10.4113 7.23865 10.0851 6.72464C9.75887 6.1971 9.2766 5.77778 8.6383 5.46667Z" fill="black"/>
<path fill-rule="evenodd" clip-rule="evenodd" d="M20.0665 6.48547C18.7775 5.49515 17.0728 5 14.9522 5H12V19H15.3264C17.1836 19 18.7568 18.4709 20.0457 17.4128C21.3486 16.3547 22 14.5233 22 11.9186C22 9.27326 21.3555 7.46221 20.0665 6.48547ZM13.7879 17.5959V6.42442H15.3264C16.2412 6.42442 17.0381 6.56008 17.7173 6.83139C18.4103 7.10271 18.9716 7.64535 19.4012 8.4593C19.8448 9.25969 20.0665 10.4128 20.0665 11.9186C20.0665 14.062 19.6369 15.5475 18.7775 16.375C17.9321 17.189 16.8302 17.5959 15.4719 17.5959H13.7879Z" fill="black"/>
</svg>
