<svg width="24" height="24" viewBox="0 0 24 24" fill="none" xmlns="http://www.w3.org/2000/svg">
<path d="M15.4901 5H12V19H15.7613C18.962 19 22 17.5657 22 11.9293C22 6.15151 18.8354 5 15.4901 5ZM15.906 7.40404C17.642 7.40404 18.9259 8.17172 18.9259 11.9293C18.9259 15.6465 17.7324 16.596 15.9421 16.596H14.9656V7.40404H15.906Z" fill="black"/>
<path d="M6.46327 5C4.8102 5 3.43265 5.61386 2.27551 6.80198L3.70816 8.48515C4.44286 7.71287 5.21429 7.31683 6.13265 7.31683C7.14286 7.31683 7.78571 7.89109 7.78571 8.86139C7.78571 9.9703 7.10612 10.604 6.00408 10.604H4.97551V12.7624H6.00408C7.30816 12.7624 8.02449 13.2772 8.02449 14.6832C8.02449 15.9109 7.23469 16.6238 6.09592 16.6238C5.12245 16.6238 4.38775 16.2277 3.56122 15.3366L2 16.9802C2.97347 18.2475 4.38775 19 6.26122 19C9.32857 19 11 17.1188 11 14.8812C11 12.7624 9.71429 11.7723 8.17143 11.5941C9.69592 11.1188 10.5959 10.0297 10.5959 8.40594C10.5959 6.52475 9.1449 5 6.46327 5Z" fill="black"/>
</svg>
