<svg width="16" height="16" viewBox="0 0 16 16" fill="none" xmlns="http://www.w3.org/2000/svg">
<path d="M10.443 3H8V13H10.6329C12.8734 13 15 11.9755 15 7.94949C15 3.82251 12.7848 3 10.443 3ZM10.7342 4.71717C11.9494 4.71717 12.8481 5.26551 12.8481 7.94949C12.8481 10.6046 12.0127 11.2828 10.7595 11.2828H10.0759V4.71717H10.7342Z" fill="black"/>
<path d="M3.97551 3C2.87347 3 1.9551 3.43847 1.18367 4.28713L2.13878 5.48939C2.62857 4.93777 3.14286 4.65488 3.7551 4.65488C4.42857 4.65488 4.85714 5.06506 4.85714 5.75813C4.85714 6.55021 4.40408 7.00283 3.66939 7.00283H2.98367V8.54456H3.66939C4.53878 8.54456 5.01633 8.91231 5.01633 9.91655C5.01633 10.7935 4.4898 11.3027 3.73061 11.3027C3.08163 11.3027 2.59184 11.0198 2.04082 10.3833L1 11.5573C1.64898 12.4625 2.59184 13 3.84082 13C5.88571 13 7 11.6563 7 10.058C7 8.54456 6.14286 7.83734 5.11429 7.71004C6.13061 7.37058 6.73061 6.59265 6.73061 5.43282C6.73061 4.08911 5.76327 3 3.97551 3Z" fill="black"/>
</svg>
