<svg width="24" height="24" viewBox="0 0 24 24" fill="none" xmlns="http://www.w3.org/2000/svg">
<path d="M11 7V10.59C11.0042 10.8544 10.9035 11.1097 10.72 11.3L10 12L10.7 12.69C10.7945 12.7826 10.8697 12.8931 10.9212 13.0149C10.9727 13.1368 10.9995 13.2677 11 13.4V17C11 17.5304 10.7893 18.0391 10.4142 18.4142C10.0391 18.7893 9.53043 19 9 19H2V16H8V13H4V11H8V8H2V5H9C9.53043 5 10.0391 5.21071 10.4142 5.58579C10.7893 5.96086 11 6.46957 11 7ZM19 5C19.7956 5 20.5587 5.31607 21.1213 5.87868C21.6839 6.44129 22 7.20435 22 8V16C22 16.7956 21.6839 17.5587 21.1213 18.1213C20.5587 18.6839 19.7956 19 19 19H13V5H19ZM19 15V9C19 8.73478 18.8946 8.48043 18.7071 8.29289C18.5196 8.10536 18.2652 8 18 8H16V16H18C18.2652 16 18.5196 15.8946 18.7071 15.7071C18.8946 15.5196 19 15.2652 19 15Z" fill="#0F1621"/>
</svg>
