<svg width="16" height="16" viewBox="0 0 16 16" fill="none" xmlns="http://www.w3.org/2000/svg">
<path d="M7 4V6.57C7.0042 6.83438 6.90353 7.08966 6.72 7.28L6 8L6.7 8.69C6.79449 8.78261 6.86966 8.89306 6.92115 9.01493C6.97265 9.13681 6.99945 9.26769 7 9.4V12C7 12.2652 6.89464 12.5196 6.70711 12.7071C6.51957 12.8946 6.26522 13 6 13H1V11H5V9H2V7H5V5H1V3H6C6.26522 3 6.51957 3.10536 6.70711 3.29289C6.89464 3.48043 7 3.73478 7 4ZM13 3C13.5304 3 14.0391 3.21071 14.4142 3.58579C14.7893 3.96086 15 4.46957 15 5V11C15 11.5304 14.7893 12.0391 14.4142 12.4142C14.0391 12.7893 13.5304 13 13 13H9V3H13ZM13 10V6C13 5.73478 12.8946 5.48043 12.7071 5.29289C12.5196 5.10536 12.2652 5 12 5H11V11H12C12.2652 11 12.5196 10.8946 12.7071 10.7071C12.8946 10.5196 13 10.2652 13 10Z" fill="#0F1621"/>
</svg>
