<svg width="24" height="24" viewBox="0 0 24 24" fill="none" xmlns="http://www.w3.org/2000/svg">
<path d="M17 17V21C17 21.2652 16.8947 21.5196 16.7071 21.7071C16.5196 21.8946 16.2652 22 16 22H8.00002C7.73481 22 7.48045 21.8946 7.29292 21.7071C7.10538 21.5196 7.00002 21.2652 7.00002 21V17H11L9.00002 15V13H15V15L13 17H17ZM12 2C10.0448 1.99903 8.12462 2.51924 6.43726 3.50705C4.74989 4.49486 3.35631 5.91458 2.40002 7.62L9.84002 10.93C10.1199 10.6397 10.4554 10.4087 10.8265 10.251C11.1976 10.0932 11.5968 10.0119 12 10.0119C12.4033 10.0119 12.8024 10.0932 13.1735 10.251C13.5447 10.4087 13.8802 10.6397 14.16 10.93L21.6 7.62C20.6437 5.91458 19.2502 4.49486 17.5628 3.50705C15.8754 2.51924 13.9553 1.99903 12 2Z" fill="#0F1621"/>
</svg>
