<svg width="24" height="24" viewBox="0 0 24 24" fill="none" xmlns="http://www.w3.org/2000/svg">
<path d="M17 17V21C17 21.2652 16.8946 21.5196 16.7071 21.7071C16.5196 21.8946 16.2652 22 16 22H8C7.73479 22 7.48043 21.8946 7.2929 21.7071C7.10536 21.5196 7 21.2652 7 21V17H11L9 15V13H15V15L13 17H17ZM12 5C11.6044 5 11.2178 5.11729 10.8889 5.33706C10.56 5.55682 10.3036 5.86918 10.1522 6.23463C10.0009 6.60008 9.96126 7.00221 10.0384 7.39018C10.1156 7.77814 10.3061 8.1345 10.5858 8.41421C10.8655 8.69391 11.2219 8.8844 11.6098 8.96157C11.9978 9.03874 12.3999 8.99913 12.7654 8.84775C13.1308 8.69638 13.4432 8.44003 13.6629 8.11114C13.8827 7.78224 14 7.39556 14 7C14 6.46956 13.7893 5.96085 13.4142 5.58578C13.0391 5.21071 12.5304 5 12 5ZM22 7C21.9994 9.65194 20.9455 12.1951 19.07 14.07L17.65 12.65C18.8788 11.4232 19.675 9.82991 19.9185 8.11073C20.1621 6.39155 19.8397 4.63981 19 3.12L20.75 2.12C21.5763 3.61334 22.0066 5.29331 22 7ZM4 7C4.00364 9.12034 4.84888 11.1525 6.35 12.65L4.93 14.07C3.3929 12.5331 2.39839 10.5373 2.09706 8.38467C1.79573 6.23204 2.20398 4.03985 3.26 2.14L5 3.12C4.34294 4.30756 3.99881 5.64277 4 7Z" fill="#0F1621"/>
</svg>
