<svg width="16" height="16" viewBox="0 0 16 16" fill="none" xmlns="http://www.w3.org/2000/svg">
<path d="M12 11V14C12 14.2652 11.8946 14.5196 11.7071 14.7071C11.5196 14.8946 11.2652 15 11 15H5C4.73478 15 4.48043 14.8946 4.29289 14.7071C4.10535 14.5196 4 14.2652 4 14V11H7L6 8.99999H10L9 11H12ZM8 1.99999C7.60443 1.99999 7.21776 2.11729 6.88886 2.33705C6.55996 2.55681 6.30361 2.86917 6.15224 3.23462C6.00086 3.60008 5.96126 4.00221 6.03843 4.39017C6.1156 4.77813 6.30608 5.1345 6.58578 5.41421C6.86549 5.69391 7.22186 5.88439 7.60982 5.96156C7.99778 6.03873 8.39991 5.99913 8.76536 5.84775C9.13082 5.69638 9.44317 5.44003 9.66294 5.11113C9.8827 4.78223 10 4.39555 10 3.99999C10 3.46956 9.78928 2.96085 9.41421 2.58578C9.03914 2.21071 8.53043 1.99999 8 1.99999ZM15 3.99999C15.0132 4.92418 14.8433 5.84184 14.5001 6.70001C14.1568 7.55819 13.647 8.33988 13 8.99999L11.54 7.53999C12.2537 6.83049 12.7367 5.92214 12.9258 4.93373C13.1149 3.94532 13.0013 2.92284 12.6 1.99999L14.44 1.20999C14.8144 2.09226 15.0049 3.04159 15 3.99999ZM3 3.99999C2.99882 4.65704 3.12716 5.30788 3.37768 5.9153C3.6282 6.52272 3.99598 7.0748 4.46 7.53999L3.05 8.99999C2.39402 8.344 1.87498 7.56415 1.52305 6.70579C1.17113 5.84743 0.993328 4.92767 0.999998 3.99999C0.99914 3.05169 1.18961 2.11297 1.56 1.23999L3.4 1.99999C3.13066 2.63209 2.9945 3.31292 3 3.99999Z" fill="#0F1621"/>
</svg>
