<svg width="24" height="24" viewBox="0 0 24 24" fill="none" xmlns="http://www.w3.org/2000/svg">
<path d="M4 2C3.46957 2 2.96086 2.21071 2.58579 2.58579C2.21071 2.96086 2 3.46957 2 4V20C2 20.5304 2.21071 21.0391 2.58579 21.4142C2.96086 21.7893 3.46957 22 4 22H13V2H4ZM11 20H4V4H11V20ZM20 6.56V17.44L17 15V9L20 6.6V6.56ZM22 4H20L15 8V16L20 20H22V4ZM9 12C9 12.2967 8.91203 12.5867 8.7472 12.8334C8.58238 13.08 8.34811 13.2723 8.07403 13.3858C7.79994 13.4994 7.49834 13.5291 7.20736 13.4712C6.91639 13.4133 6.64912 13.2704 6.43934 13.0607C6.22956 12.8509 6.0867 12.5836 6.02882 12.2926C5.97094 12.0017 6.00065 11.7001 6.11418 11.426C6.22771 11.1519 6.41997 10.9176 6.66664 10.7528C6.91332 10.588 7.20333 10.5 7.5 10.5C7.89782 10.5 8.27936 10.658 8.56066 10.9393C8.84196 11.2206 9 11.6022 9 12Z" fill="#0F1621"/>
</svg>
