<svg width="24" height="24" viewBox="0 0 24 24" fill="none" xmlns="http://www.w3.org/2000/svg">
<path d="M4 2C3.46957 2 2.96086 2.21071 2.58579 2.58579C2.21071 2.96086 2 3.46957 2 4V20C2 20.5304 2.21071 21.0391 2.58579 21.4142C2.96086 21.7893 3.46957 22 4 22H13V2H4ZM7.5 13.5C7.20333 13.5 6.91332 13.412 6.66664 13.2472C6.41997 13.0824 6.22771 12.8481 6.11418 12.574C6.00065 12.2999 5.97094 11.9983 6.02882 11.7074C6.0867 11.4164 6.22956 11.1491 6.43934 10.9393C6.64912 10.7296 6.91639 10.5867 7.20736 10.5288C7.49834 10.4709 7.79994 10.5006 8.07403 10.6142C8.34811 10.7277 8.58238 10.92 8.7472 11.1666C8.91203 11.4133 9 11.7033 9 12C9 12.3978 8.84196 12.7794 8.56066 13.0607C8.27936 13.342 7.89782 13.5 7.5 13.5ZM22 4V20H20L15 16V8L20 4H22Z" fill="#0F1621"/>
</svg>
