<svg width="16" height="16" viewBox="0 0 16 16" fill="none" xmlns="http://www.w3.org/2000/svg">
<path d="M1 3V13C1 13.5304 1.21071 14.0391 1.58579 14.4142C1.96086 14.7893 2.46957 15 3 15H8V1H3C2.46957 1 1.96086 1.21071 1.58579 1.58579C1.21071 1.96086 1 2.46957 1 3ZM5 8C5 8.19778 4.94135 8.39112 4.83147 8.55557C4.72159 8.72002 4.56541 8.84819 4.38268 8.92388C4.19996 8.99957 3.99889 9.01937 3.80491 8.98079C3.61093 8.9422 3.43275 8.84696 3.29289 8.70711C3.15304 8.56725 3.0578 8.38907 3.01921 8.19509C2.98063 8.00111 3.00043 7.80004 3.07612 7.61732C3.15181 7.43459 3.27998 7.27841 3.44443 7.16853C3.60888 7.05865 3.80222 7 4 7C4.26522 7 4.51957 7.10536 4.70711 7.29289C4.89464 7.48043 5 7.73478 5 8ZM15 3V13H13L10 9V7L13 3H15Z" fill="#0F1621"/>
</svg>
