<svg width="24" height="24" viewBox="0 0 24 24" fill="none" xmlns="http://www.w3.org/2000/svg">
<path d="M19.07 4.93003L8.46003 8.46003L4.93003 19.07L15.54 15.54L19.07 4.93003ZM11.29 12.71C11.151 12.5699 11.0566 12.3917 11.0186 12.1979C10.9807 12.0041 11.001 11.8035 11.0769 11.6212C11.1529 11.439 11.281 11.2833 11.4453 11.1738C11.6096 11.0643 11.8026 11.0058 12 11.0058C12.1975 11.0058 12.3905 11.0643 12.5547 11.1738C12.719 11.2833 12.8472 11.439 12.9231 11.6212C12.999 11.8035 13.0193 12.0041 12.9814 12.1979C12.9435 12.3917 12.8491 12.5699 12.71 12.71C12.6171 12.8038 12.5065 12.8781 12.3846 12.9289C12.2627 12.9797 12.132 13.0058 12 13.0058C11.868 13.0058 11.7373 12.9797 11.6155 12.9289C11.4936 12.8781 11.383 12.8038 11.29 12.71ZM20.55 6.82003L19.62 9.60003C20.048 10.99 20.089 12.4704 19.7386 13.8819C19.3881 15.2934 18.6595 16.5827 17.6311 17.6111C16.6027 18.6395 15.3134 19.3681 13.9019 19.7186C12.4904 20.069 11.01 20.028 9.62003 19.6L6.84003 20.53C8.75143 21.6694 10.9883 22.1388 13.1964 21.8637C15.4046 21.5886 17.458 20.5849 19.0315 19.0115C20.6049 17.438 21.6087 15.3846 21.8837 13.1764C22.1588 10.9683 21.6894 8.73143 20.55 6.82003ZM14.4 4.38003L17.18 3.45003C15.2668 2.29433 13.0214 1.81296 10.8025 2.08278C8.58366 2.3526 6.51914 3.35804 4.93859 4.93859C3.35804 6.51914 2.3526 8.58366 2.08278 10.8025C1.81296 13.0214 2.29433 15.2668 3.45003 17.18L4.38003 14.4C3.95203 13.01 3.91105 11.5297 4.26148 10.1182C4.61192 8.70662 5.34052 7.41733 6.36892 6.38892C7.39733 5.36052 8.68662 4.63192 10.0982 4.28148C11.5097 3.93105 12.99 3.97203 14.38 4.40003L14.4 4.38003Z" fill="#0F1621"/>
</svg>
