<svg width="16" height="16" viewBox="0 0 16 16" fill="none" xmlns="http://www.w3.org/2000/svg">
<path d="M8 3C8.64539 3 9.28131 3.1249 9.8738 3.36439L11.3723 1.86586C10.3482 1.30285 9.18969 1 8 1C6.61553 1 5.26216 1.41054 4.11101 2.17971C2.95987 2.94888 2.06266 4.04213 1.53285 5.32122C1.00303 6.6003 0.86441 8.00776 1.13451 9.36563C1.27498 10.0718 1.52272 10.7481 1.86588 11.3723L3.36439 9.8738C3.1249 9.28131 3 8.64538 3 8C3 6.67392 3.52679 5.40215 4.46447 4.46447C5.40215 3.52678 6.67392 3 8 3Z" fill="#0E1520"/>
<path d="M7.29015 12.9494L5.64687 14.5926C5.96763 14.7071 6.2976 14.7985 6.63437 14.8655C7.99224 15.1356 9.3997 14.997 10.6788 14.4672C11.9579 13.9373 13.0511 13.0401 13.8203 11.889C14.5895 10.7378 15 9.38447 15 8C15 7.19033 14.8597 6.39512 14.5926 5.64687L12.9494 7.29015C13.0293 7.8475 13.0149 8.41734 12.9039 8.97545C12.711 9.94536 12.2348 10.8363 11.5355 11.5355C10.8363 12.2348 9.94536 12.711 8.97545 12.9039C8.41734 13.0149 7.8475 13.0293 7.29015 12.9494Z" fill="#0E1520"/>
<path d="M13.4992 1.81201L14.9134 3.22623L10.9016 7.23799C10.9664 7.48465 11 7.7406 11 8C11 8.59335 10.8241 9.17336 10.4944 9.66671C10.1648 10.1601 9.69623 10.5446 9.14805 10.7716C8.59988 10.9987 7.99668 11.0581 7.41473 10.9424C7.3553 10.9305 7.29637 10.9169 7.238 10.9016L3.24496 14.8947L1.83074 13.4804L13.4992 1.81201Z" fill="#0E1520"/>
</svg>
