<svg width="16" height="16" viewBox="0 0 16 16" fill="none" xmlns="http://www.w3.org/2000/svg">
<path d="M13.4992 1.81199L14.9134 3.2262L3.24496 14.8946L1.83074 13.4804L13.4992 1.81199Z" fill="#0F1621"/>
<path d="M8 3C8.64539 3 9.28131 3.1249 9.8738 3.36439L11.3723 1.86586C10.3482 1.30285 9.18969 1 8 1C6.61553 1 5.26216 1.41054 4.11101 2.17971C2.95987 2.94888 2.06266 4.04213 1.53285 5.32122C1.00303 6.6003 0.86441 8.00776 1.13451 9.36563C1.27498 10.0718 1.52272 10.7481 1.86588 11.3723L3.36439 9.8738C3.1249 9.28131 3 8.64538 3 8C3 6.67392 3.52679 5.40215 4.46447 4.46447C5.40215 3.52678 6.67392 3 8 3Z" fill="#0F1621"/>
<path d="M5.00869 8.22812L8.22812 5.00868L8.22941 5.00878L5.00878 8.2294L5.00869 8.22812Z" fill="#0F1621"/>
<path d="M9.77677 5.58274L5.58275 9.77676C5.67217 9.89843 5.77102 10.0137 5.87868 10.1213C6.29824 10.5409 6.83279 10.8266 7.41473 10.9424C7.99668 11.0581 8.59987 10.9987 9.14805 10.7716C9.69623 10.5446 10.1648 10.1601 10.4944 9.66671C10.8241 9.17336 11 8.59334 11 8C11 7.20435 10.6839 6.44129 10.1213 5.87868C10.0134 5.7708 9.8982 5.67199 9.77677 5.58274Z" fill="#0F1621"/>
<path d="M5.68591 12.4323C5.10031 12.1265 4.58128 11.7078 4.15875 11.2008L2.74038 12.6191C2.83986 12.7324 2.94319 12.8427 3.05026 12.9497C3.4082 13.3077 3.80201 13.6239 4.22398 13.8942L5.68591 12.4323Z" fill="#0F1621"/>
<path d="M7.29015 12.9494L5.64687 14.5926C5.96763 14.7071 6.2976 14.7985 6.63437 14.8655C7.99224 15.1356 9.3997 14.997 10.6788 14.4672C11.9579 13.9373 13.0511 13.0401 13.8203 11.889C14.5895 10.7378 15 9.38447 15 8C15 7.19033 14.8597 6.39512 14.5926 5.64687L12.9494 7.29015C13.0293 7.8475 13.0149 8.41734 12.9039 8.97545C12.711 9.94536 12.2348 10.8363 11.5355 11.5355C10.8363 12.2348 9.94536 12.711 8.97545 12.9039C8.41734 13.0149 7.8475 13.0293 7.29015 12.9494Z" fill="#0F1621"/>
<path d="M12.4323 5.68591L13.8942 4.22396C13.6246 3.80309 13.3087 3.40919 12.9497 3.05025C12.8426 2.94309 12.7323 2.83977 12.6191 2.74037L11.2008 4.15875C11.7078 4.58128 12.1265 5.10031 12.4323 5.68591Z" fill="#0F1621"/>
</svg>
