<svg width="24" height="24" viewBox="0 0 24 24" fill="none" xmlns="http://www.w3.org/2000/svg">
<path d="M20.4098 2.59023L21.824 4.00445L4.14267 21.6858L2.72846 20.2715L20.4098 2.59023Z" fill="#0F1621"/>
<path d="M15.8268 2.7612C16.195 2.91372 16.553 3.0878 16.8991 3.28225L15.4156 4.76577C14.3519 4.26358 13.1859 4 12 4C9.87827 4 7.84344 4.84285 6.34315 6.34315C4.84286 7.84344 4 9.87827 4 12C4 13.1859 4.26359 14.3519 4.76577 15.4155L3.28225 16.8991C2.7685 15.9849 2.39895 14.9906 2.19215 13.9509C1.8063 12.0111 2.00433 10.0004 2.76121 8.17317C3.51809 6.3459 4.79981 4.78412 6.4443 3.6853C8.08879 2.58649 10.0222 2 12 2C13.3132 2 14.6136 2.25866 15.8268 2.7612Z" fill="#0F1621"/>
<path d="M17.14 5.86972L18.5586 4.45116C18.7347 4.60416 18.9056 4.7635 19.0711 4.92893C19.3779 5.23578 19.6638 5.5616 19.9272 5.90413L18.4979 7.3334C18.1089 6.79175 17.6529 6.29979 17.14 5.86972Z" fill="#0F1621"/>
<path d="M19.4847 9.17509C20.0122 10.5728 20.1384 12.0921 19.8463 13.5607C19.5376 15.1126 18.7757 16.538 17.6569 17.6569C16.538 18.7757 15.1126 19.5376 13.5607 19.8463C12.0922 20.1384 10.5728 20.0122 9.1751 19.4846L7.65367 21.0061C8.41105 21.3716 9.21549 21.642 10.0491 21.8079C11.9889 22.1937 13.9996 21.9957 15.8268 21.2388C17.6541 20.4819 19.2159 19.2002 20.3147 17.5557C21.4135 15.9112 22 13.9778 22 12C22 10.6868 21.7413 9.38642 21.2388 8.17317C21.1661 7.99761 21.0885 7.82438 21.0061 7.65367L19.4847 9.17509Z" fill="#0F1621"/>
<path d="M7.3334 18.4979L5.90412 19.9272C5.56214 19.6642 5.23628 19.3784 4.92894 19.0711C4.76336 18.9055 4.60403 18.7345 4.45116 18.5586L5.86973 17.14C6.29979 17.6529 6.79175 18.1089 7.3334 18.4979Z" fill="#0F1621"/>
<path d="M9.17158 14.8284C9.00481 14.6617 8.8539 14.4813 8.72012 14.2896L14.2896 8.72011C14.4809 8.85359 14.6613 9.00442 14.8284 9.17157C15.5786 9.92172 16 10.9391 16 12C16 12.7911 15.7654 13.5645 15.3259 14.2223C14.8864 14.8801 14.2616 15.3928 13.5307 15.6955C12.7998 15.9983 11.9956 16.0775 11.2196 15.9231C10.4437 15.7688 9.73099 15.3878 9.17158 14.8284Z" fill="#0F1621"/>
</svg>
