<svg width="16" height="16" viewBox="0 0 16 16" fill="none" xmlns="http://www.w3.org/2000/svg">
<path d="M7.99995 3C6.81859 2.99908 5.65621 3.29717 4.62108 3.86649C3.58594 4.43581 2.71174 5.25785 2.07988 6.25604C1.44803 7.25423 1.07908 8.3961 1.0074 9.57529C0.935728 10.7545 1.16365 11.9326 1.66995 13L5.12995 11.79C5.50279 12.174 5.94892 12.4794 6.4419 12.6879C6.93488 12.8963 7.4647 13.0038 7.99995 13.0038C8.53521 13.0038 9.06503 12.8963 9.55801 12.6879C10.051 12.4794 10.4971 12.174 10.87 11.79L14.33 13C14.8363 11.9326 15.0642 10.7545 14.9925 9.57529C14.9208 8.3961 14.5519 7.25423 13.92 6.25604C13.2882 5.25785 12.414 4.43581 11.3788 3.86649C10.3437 3.29717 9.18132 2.99908 7.99995 3ZM9.46995 9.81C9.41141 10.0872 9.27557 10.3421 9.07816 10.5453C8.88075 10.7485 8.62984 10.8916 8.35447 10.9581C8.0791 11.0246 7.79053 11.0118 7.52215 10.9211C7.25377 10.8304 7.01656 10.6655 6.83797 10.4456C6.65938 10.2257 6.54671 9.95977 6.513 9.6785C6.47929 9.39722 6.52591 9.11215 6.64749 8.85628C6.76906 8.6004 6.9606 8.38419 7.19995 8.23265C7.4393 8.08111 7.71667 8.00045 7.99995 8C8.15386 7.99545 8.30705 8.02269 8.44995 8.08L11.45 6.38L12.45 8.12L9.46995 9.81Z" fill="#0F1621"/>
</svg>
