<svg width="24" height="24" viewBox="0 0 24 24" fill="none" xmlns="http://www.w3.org/2000/svg">
<path fill-rule="evenodd" clip-rule="evenodd" d="M12 9.00001L6 12L12 15V9.00001ZM22 12L12 17L2 12L12 7.00001L22 12ZM12 22C9.7623 21.9994 7.58945 21.2483 5.82909 19.8668C4.06872 18.4854 2.82257 16.5534 2.29 14.38L4.91 15.69C5.58688 16.9851 6.60555 18.07 7.85544 18.8271C9.10534 19.5841 10.5387 19.9844 12 19.9844C13.4613 19.9844 14.8947 19.5841 16.1446 18.8271C17.3945 18.07 18.4131 16.9851 19.09 15.69L21.71 14.38C21.1774 16.5534 19.9313 18.4854 18.1709 19.8668C16.4105 21.2483 14.2377 21.9994 12 22ZM12 4.00001C10.5371 4.0015 9.10262 4.40409 7.85257 5.164C6.60252 5.9239 5.58476 7.01202 4.91 8.31001L2.29 9.62001C2.82464 7.44861 4.07168 5.51907 5.83185 4.13972C7.59203 2.76037 9.76375 2.0108 12 2.0108C14.2363 2.0108 16.408 2.76037 18.1681 4.13972C19.9283 5.51907 21.1754 7.44861 21.71 9.62001L19.09 8.31001C18.4152 7.01202 17.3975 5.9239 16.1474 5.164C14.8974 4.40409 13.4629 4.0015 12 4.00001Z" fill="#0F1621"/>
</svg>
