<svg width="16" height="16" viewBox="0 0 16 16" fill="none" xmlns="http://www.w3.org/2000/svg">
<path d="M1.43853 4.08L7.63853 1.08C7.75123 1.02731 7.87412 1 7.99853 1C8.12293 1 8.24583 1.02731 8.35853 1.08L14.5585 4.08C14.6898 4.14261 14.8006 4.24111 14.8783 4.36411C14.9559 4.4871 14.9971 4.62957 14.9971 4.775C14.9971 4.92043 14.9559 5.0629 14.8783 5.18589C14.8006 5.30889 14.6898 5.40739 14.5585 5.47L8.35853 8.47C8.24583 8.52269 8.12293 8.55 7.99853 8.55C7.87412 8.55 7.75123 8.52269 7.63853 8.47L1.43853 5.47C1.30726 5.40739 1.1964 5.30889 1.1188 5.18589C1.04119 5.0629 1 4.92043 1 4.775C1 4.62957 1.04119 4.4871 1.1188 4.36411C1.1964 4.24111 1.30726 4.14261 1.43853 4.08ZM14.5585 10.49L11.2485 8.88L8.91853 9.98C8.63153 10.1182 8.31708 10.19 7.99853 10.19C7.67998 10.19 7.36552 10.1182 7.07853 9.98L4.74853 8.88L1.43853 10.49C1.30726 10.5526 1.1964 10.6511 1.1188 10.7741C1.04119 10.8971 1 11.0396 1 11.185C1 11.3304 1.04119 11.4729 1.1188 11.5959C1.1964 11.7189 1.30726 11.8174 1.43853 11.88L7.63853 14.88C7.75123 14.9327 7.87412 14.96 7.99853 14.96C8.12293 14.96 8.24583 14.9327 8.35853 14.88L14.5585 11.88C14.6898 11.8174 14.8006 11.7189 14.8783 11.5959C14.9559 11.4729 14.9971 11.3304 14.9971 11.185C14.9971 11.0396 14.9559 10.8971 14.8783 10.7741C14.8006 10.6511 14.6898 10.5526 14.5585 10.49Z" fill="#0F1621"/>
</svg>
