<svg width="24" height="24" viewBox="0 0 24 24" fill="none" xmlns="http://www.w3.org/2000/svg">
<path d="M2.55393 8.77528L11.4139 12.6553C11.735 12.7833 12.0929 12.7833 12.4139 12.6553L21.2739 8.77528C21.4403 8.69234 21.5803 8.56465 21.6782 8.40655C21.776 8.24845 21.8279 8.06621 21.8279 7.88028C21.8279 7.69435 21.776 7.5121 21.6782 7.354C21.5803 7.1959 21.4403 7.06821 21.2739 6.98528L12.4339 3.10528C12.2764 3.03585 12.1061 3 11.9339 3C11.7618 3 11.5915 3.03585 11.4339 3.10528L2.55393 6.99528C2.39013 7.07919 2.25267 7.20669 2.15668 7.36372C2.06069 7.52075 2.00989 7.70123 2.00989 7.88527C2.00989 8.06932 2.06069 8.2498 2.15668 8.40683C2.25267 8.56386 2.39013 8.69136 2.55393 8.77528ZM11.9239 5.06528L18.3539 7.87528L11.9239 10.6953L5.49393 7.87528L11.9239 5.06528ZM21.2939 16.9953L12.4339 20.8753C12.2764 20.9447 12.1061 20.9806 11.9339 20.9806C11.7618 20.9806 11.5915 20.9447 11.4339 20.8753L2.55393 16.9953C2.38753 16.9123 2.24754 16.7847 2.14969 16.6266C2.05184 16.4685 2 16.2862 2 16.1003C2 15.9143 2.05184 15.7321 2.14969 15.574C2.24754 15.4159 2.38753 15.2882 2.55393 15.2053L7.15393 13.2053L9.64393 14.2953L5.49393 16.1153L11.9239 18.9253L18.3539 16.1153L14.2039 14.2953L16.6939 13.2053L21.2939 15.2053C21.4603 15.2882 21.6003 15.4159 21.6982 15.574C21.796 15.7321 21.8479 15.9143 21.8479 16.1003C21.8479 16.2862 21.796 16.4685 21.6982 16.6266C21.6003 16.7847 21.4603 16.9123 21.2939 16.9953Z" fill="#0F1621"/>
</svg>
