<svg width="24" height="24" viewBox="0 0 24 24" fill="none" xmlns="http://www.w3.org/2000/svg">
<path d="M2.55393 6.98528L11.4139 3.10528C11.5715 3.03585 11.7418 3 11.9139 3C12.0861 3 12.2564 3.03585 12.4139 3.10528L21.2939 6.98528C21.4603 7.06821 21.6003 7.1959 21.6982 7.354C21.796 7.5121 21.8479 7.69435 21.8479 7.88028C21.8479 8.06621 21.796 8.24845 21.6982 8.40655C21.6003 8.56465 21.4603 8.69234 21.2939 8.77528L12.4339 12.6553C12.1129 12.7833 11.755 12.7833 11.4339 12.6553L2.55393 8.76528C2.39013 8.68136 2.25267 8.55386 2.15668 8.39683C2.06069 8.2398 2.00989 8.05932 2.00989 7.87528C2.00989 7.69123 2.06069 7.51075 2.15668 7.35372C2.25267 7.19669 2.39013 7.06919 2.55393 6.98528ZM21.2939 15.2153L16.5639 13.1453L13.2339 14.6053C12.8202 14.7836 12.3744 14.8755 11.9239 14.8755C11.4734 14.8755 11.0277 14.7836 10.6139 14.6053L7.28393 13.1353L2.55393 15.2053C2.38753 15.2882 2.24754 15.4159 2.14969 15.574C2.05184 15.7321 2 15.9143 2 16.1003C2 16.2862 2.05184 16.4685 2.14969 16.6266C2.24754 16.7847 2.38753 16.9123 2.55393 16.9953L11.4139 20.8753C11.5715 20.9447 11.7418 20.9806 11.9139 20.9806C12.0861 20.9806 12.2564 20.9447 12.4139 20.8753L21.2939 16.9853C21.4577 16.9014 21.5952 16.7739 21.6912 16.6168C21.7872 16.4598 21.838 16.2793 21.838 16.0953C21.838 15.9112 21.7872 15.7308 21.6912 15.5737C21.5952 15.4167 21.4577 15.2892 21.2939 15.2053V15.2153Z" fill="#0F1621"/>
</svg>
