<svg width="24" height="24" viewBox="0 0 24 24" fill="none" xmlns="http://www.w3.org/2000/svg">
<path fill-rule="evenodd" clip-rule="evenodd" d="M9 2.88196L15 5.88196L19.8292 3.46737C20.8265 2.96869 22 3.69394 22 4.80901V18.691C22 19.2591 21.679 19.7785 21.1708 20.0326L15 23.118L9 20.118L4.17082 22.5326C3.17347 23.0313 2 22.306 2 21.191V7.30901C2 6.74085 2.321 6.22146 2.82918 5.96737L9 2.88196ZM4 7.61803V20.382L8 18.382V5.61803L4 7.61803ZM14 20.382L10 18.382V5.61803L14 7.61803V20.382ZM16 20.382L20 18.382V5.61803L16 7.61803V20.382Z" fill="#0F1621"/>
</svg>
