<svg width="16" height="16" viewBox="0 0 16 16" fill="none" xmlns="http://www.w3.org/2000/svg">
<path d="M5.10001 2.78893L5.9924 1L11.6632 3.82588L10.7708 5.61481L5.10001 2.78893Z" fill="#0F1621"/>
<path d="M4.32999 12.1741L5.22238 10.3852L10.8932 13.2111L10.0008 15L4.32999 12.1741Z" fill="#0F1621"/>
<path d="M1 4.11641C1 3.73783 1.214 3.39175 1.55279 3.22245L6 1.00001V12.9937L2.44722 14.7692C1.78231 15.1014 1 14.6182 1 13.8752V4.11641Z" fill="#0F1621"/>
<path d="M15 2.11746C15 1.37447 14.2177 0.891226 13.5528 1.2235L10 2.99896V14.9926L14.4472 12.7702C14.786 12.6009 15 12.2548 15 11.8762V2.11746Z" fill="#0F1621"/>
</svg>
