<svg width="24" height="24" viewBox="0 0 24 24" fill="none" xmlns="http://www.w3.org/2000/svg">
<path d="M12 2C9.74474 2.00265 7.58276 2.90041 5.98898 4.49605C4.39521 6.0917 3.5 8.25474 3.5 10.51C3.50004 11.6137 3.72129 12.7063 4.15068 13.7231C4.58007 14.7399 5.2089 15.6603 6 16.43L12 22.56L18 16.43C18.7907 15.6605 19.4185 14.7399 19.8463 13.7229C20.2741 12.7059 20.493 11.6133 20.49 10.51C20.49 8.25647 19.5962 6.09494 18.0046 4.49958C16.4129 2.90422 14.2535 2.0053 12 2ZM16.58 15L12 19.7L7.4 15C6.79832 14.4152 6.32013 13.7156 5.99376 12.9426C5.6674 12.1697 5.49949 11.339 5.5 10.5C5.5 8.77609 6.18482 7.12279 7.40381 5.90381C8.62279 4.68482 10.2761 4 12 4C13.7239 4 15.3772 4.68482 16.5962 5.90381C17.8152 7.12279 18.5 8.77609 18.5 10.5C18.4968 11.3403 18.3252 12.1714 17.9955 12.9443C17.6657 13.7172 17.1844 14.4162 16.58 15ZM12 7C11.3078 7 10.6311 7.20527 10.0555 7.58986C9.47993 7.97444 9.03133 8.52107 8.76642 9.16061C8.50151 9.80015 8.4322 10.5039 8.56725 11.1828C8.7023 11.8617 9.03564 12.4854 9.52513 12.9749C10.0146 13.4644 10.6382 13.7977 11.3172 13.9327C11.9961 14.0678 12.6999 13.9985 13.3394 13.7336C13.9789 13.4687 14.5256 13.0201 14.9101 12.4445C15.2947 11.8689 15.5 11.1922 15.5 10.5C15.5 9.57174 15.1313 8.6815 14.4749 8.02513C13.8185 7.36875 12.9283 7 12 7ZM12 12C11.7033 12 11.4133 11.912 11.1666 11.7472C10.92 11.5824 10.7277 11.3481 10.6142 11.074C10.5006 10.7999 10.4709 10.4983 10.5288 10.2074C10.5867 9.91639 10.7296 9.64912 10.9393 9.43934C11.1491 9.22956 11.4164 9.0867 11.7074 9.02882C11.9983 8.97094 12.2999 9.00065 12.574 9.11418C12.8481 9.22771 13.0824 9.41997 13.2472 9.66665C13.412 9.91332 13.5 10.2033 13.5 10.5C13.5 10.8978 13.342 11.2794 13.0607 11.5607C12.7794 11.842 12.3978 12 12 12Z" fill="#0F1621"/>
</svg>
