<svg width="24" height="24" viewBox="0 0 24 24" fill="none" xmlns="http://www.w3.org/2000/svg">
<path d="M9 1.88196L15 4.88196L19.8292 2.46737C20.8265 1.96869 22 2.69394 22 3.80901V17.691C22 18.2591 21.679 18.7785 21.1708 19.0326L15 22.118L9 19.118L4.17082 21.5326C3.17347 22.0313 2 21.306 2 20.191V6.30901C2 5.74085 2.321 5.22146 2.82918 4.96737L9 1.88196ZM4 6.61803V19.382L8 17.382V4.61803L4 6.61803ZM14 19.382V6.61803L10 4.61803V17.382L14 19.382ZM16 19.382L20 17.382V4.61803L16 6.61803V19.382Z" fill="#0E1520"/>
</svg>
