<svg width="16" height="16" viewBox="0 0 16 16" fill="none" xmlns="http://www.w3.org/2000/svg">
<path fill-rule="evenodd" clip-rule="evenodd" d="M5.5369 12.4648L8 15L10.4631 12.4648C13.2322 9.63697 13.25 7.87955 13.25 6.3909C13.25 3.41358 10.8854 1 7.99494 1C5.10448 1 2.75 3.41358 2.75 6.3909C2.75 7.87955 2.76777 9.63697 5.5369 12.4648ZM8 12.8474L9.39138 11.4153C10.6694 10.1102 11.2241 9.14243 11.4828 8.41992C11.7392 7.70411 11.75 7.11922 11.75 6.3909C11.75 4.20791 10.0233 2.5 7.99494 2.5C5.9703 2.5 4.25 4.20411 4.25 6.3909C4.25 7.11921 4.26084 7.7041 4.5172 8.41991C4.77595 9.14242 5.33061 10.1102 6.60863 11.4153L6.61275 11.4195L8 12.8474Z" fill="#0E1520"/>
<path d="M8.06414 5.38819C8.34283 5.38819 8.61525 5.47083 8.84697 5.62566C9.07869 5.78048 9.25929 6.00055 9.36594 6.25802C9.47258 6.51549 9.50049 6.7988 9.44612 7.07213C9.39175 7.34546 9.25755 7.59653 9.06049 7.79359C8.86343 7.99065 8.61236 8.12485 8.33903 8.17922C8.0657 8.23358 7.78239 8.20568 7.52492 8.09903C7.26745 7.99239 7.04739 7.81178 6.89256 7.58007C6.73773 7.34835 6.65509 7.07592 6.65509 6.79724C6.65509 6.42354 6.80354 6.06514 7.06779 5.80089C7.33204 5.53664 7.69044 5.38819 8.06414 5.38819Z" fill="#0E1520"/>
</svg>
