<svg width="16" height="16" viewBox="0 0 16 16" fill="none" xmlns="http://www.w3.org/2000/svg">
<path d="M11.3875 7.00002H9.73583V10.2323C9.73583 11.5137 9.88189 12.5642 9.98302 13.2107L7.67965 7.00002H5.38751V15H7.02796V12.0678C7.02796 10.5902 6.88189 9.52816 6.79201 8.80089L9.0392 15H11.3875V7.00002Z" fill="black"/>
<path d="M11.3129 5.59439C11.4855 5.88211 11.1909 6.22334 10.8811 6.09451L8.86928 5.25796L8.74574 5.21163C8.51805 5.12624 8.26462 5.14313 8.05027 5.25796L5.87394 6.12116C5.56474 6.2438 5.2763 5.90412 5.44744 5.61889L8.08925 1.21587C8.22435 0.990707 8.55067 0.990707 8.68577 1.21587L11.3129 5.59439Z" fill="black"/>
</svg>
