<svg width="24" height="24" viewBox="0 0 24 24" fill="none" xmlns="http://www.w3.org/2000/svg">
<path d="M16.0072 11H13.805V15.4445C13.805 17.2064 13.9997 18.6508 14.1345 19.5397L11.0634 11H8.00721V22H10.1945V17.9683C10.1945 15.9366 9.99972 14.4762 9.87987 13.4762L12.8761 22H16.0072V11Z" fill="black"/>
<path d="M15.9934 8.77417C16.1575 9.0659 15.8552 9.39836 15.5492 9.26265L12.6322 7.9688L12.4751 7.90594C12.1795 7.78771 11.8461 7.81086 11.5697 7.9688L8.44523 9.29069C8.13976 9.41993 7.84394 9.08892 8.00655 8.79983L11.7041 2.22649C11.837 1.99009 12.1774 1.99009 12.3104 2.22649L15.9934 8.77417Z" fill="black"/>
</svg>
