<svg width="24" height="24" viewBox="0 0 24 24" fill="none" xmlns="http://www.w3.org/2000/svg">
<path d="M15.9934 8.77417C16.1575 9.0659 15.8552 9.39836 15.5492 9.26265L12.6322 7.9688L12.4751 7.90594C12.1795 7.78771 11.8461 7.81086 11.5697 7.9688L8.44523 9.29069C8.13976 9.41993 7.84394 9.08892 8.00655 8.79983L11.7041 2.22649C11.837 1.99009 12.1774 1.99009 12.3104 2.22649L15.9934 8.77417Z" fill="black"/>
<path d="M16.0072 22H14.0535L9.16931 12.5189C9.30405 13.9259 9.37142 15.3169 9.37142 16.6919V22H8.00721V11H9.91037L14.8283 20.4971C14.7946 20.188 14.7553 19.7031 14.7104 19.0422C14.6655 18.3707 14.643 17.7418 14.643 17.1556V11H16.0072V22Z" fill="black"/>
</svg>
