<svg width="24" height="24" viewBox="0 0 24 24" fill="none" xmlns="http://www.w3.org/2000/svg">
<path d="M7 9.85L5.56 8.44L2 12L5.62 15.62L7 14.2L4.83 12L7 9.85ZM18.47 8.45L17 9.86L19.17 12L17 14.18L18.42 15.59L22 12L18.47 8.45ZM8.39 5.61L9.81 7L12 4.83L14.2 7L15.62 5.59L12 2L8.39 5.61ZM12 19.17L9.86 17L8.45 18.45L12 22L15.58 18.42L14.16 17L12 19.17ZM14 12C14 12.3956 13.8827 12.7822 13.6629 13.1111C13.4432 13.44 13.1308 13.6964 12.7654 13.8478C12.3999 13.9991 11.9978 14.0387 11.6098 13.9616C11.2219 13.8844 10.8655 13.6939 10.5858 13.4142C10.3061 13.1345 10.1156 12.7781 10.0384 12.3902C9.96126 12.0022 10.0009 11.6001 10.1522 11.2346C10.3036 10.8692 10.56 10.5568 10.8889 10.3371C11.2178 10.1173 11.6044 10 12 10C12.5304 10 13.0391 10.2107 13.4142 10.5858C13.7893 10.9609 14 11.4696 14 12Z" fill="#0F1621"/>
</svg>
