<svg width="24" height="24" viewBox="0 0 24 24" fill="none" xmlns="http://www.w3.org/2000/svg">
<path d="M19 5V14H14.93L14.34 14.89L12 18.39L9.66 14.89L9.07 14H5V5H19ZM19 3H5C4.46957 3 3.96086 3.21071 3.58579 3.58579C3.21071 3.96086 3 4.46957 3 5V14C3 14.5304 3.21071 15.0391 3.58579 15.4142C3.96086 15.7893 4.46957 16 5 16H8L12 22L16 16H19C19.5304 16 20.0391 15.7893 20.4142 15.4142C20.7893 15.0391 21 14.5304 21 14V5C21 4.46957 20.7893 3.96086 20.4142 3.58579C20.0391 3.21071 19.5304 3 19 3Z" fill="#0F1621"/>
</svg>
