<svg width="16" height="16" viewBox="0 0 16 16" fill="none" xmlns="http://www.w3.org/2000/svg">
<path fill-rule="evenodd" clip-rule="evenodd" d="M2.4 1H13.6C13.9713 1 14.3274 1.1475 14.5899 1.41005C14.8525 1.6726 15 2.0287 15 2.4V13.6C15 13.9713 14.8525 14.3274 14.5899 14.5899C14.3274 14.8525 13.9713 15 13.6 15H2.4C2.0287 15 1.6726 14.8525 1.41005 14.5899C1.1475 14.3274 1 13.9713 1 13.6V2.4C1 2.0287 1.1475 1.6726 1.41005 1.41005C1.6726 1.1475 2.0287 1 2.4 1ZM13.67 2.32993L2.33 2.32996V4.84996L3.01249 4.77827L4.32499 3.79996H5.52811L5.63749 3.9976L6.07499 4.49172H6.40311L6.62186 5.08466L6.40311 6.0729L5.96561 5.87525H5.74686V6.36937L5.19999 6.56662L5.41874 7.15956L4.98124 7.3576L4.54374 6.86349L4.21561 7.06113L4.10624 7.57065L4.21561 8.04937L4.74061 8.41073L5.41874 8.23161L6.11886 8.70006L6.14061 9.4329L6.79675 9.80437L6.578 10.3973L6.24987 10.6938L5.74686 11.4915V12.5117L5.39686 12.2539L5.11249 11.7597L4.84999 10.6727L4.40654 10.3973L3.90704 9.69087L4.01642 9.19675L4.10624 8.74358L3.44999 8.04937L3.01249 7.06113L2.57499 6.46819L2.46561 5.85911L2.33 5.89996V13.67H13.67V7.47496L12.9875 7.61814L13.25 8.33746L12.5937 8.59996L12.0687 8.38178L11.8062 8.59996L12.4625 9.14541H12.9875L13.1187 9.36359L12.5937 9.90905L12.2 10.6727V11.109L11.8062 11.2181L11.675 11.6545L10.8875 12.2H10.4937L10.1 11.3272L10.2312 10.6727L9.96874 9.69087L9.57499 9.58178L8.78749 9.69087L8.26249 9.36359L7.99999 8.16359L8.78749 7.61814L9.96874 7.29087L10.7562 7.61814L10.8875 7.29087L10.4937 6.74541L9.96874 6.63632L9.31249 7.07268H8.78749L8.52499 6.52723L8.91874 6.09087L9.31249 6.19996L9.57499 5.98177L9.44374 5.54541L9.57499 5.10905V4.56359L10.4937 4.12723L11.15 3.79996H11.8062L13.25 4.32496L13.67 4.17715V2.32993Z" fill="#0F1621"/>
</svg>
