<svg width="16" height="16" viewBox="0 0 16 16" fill="none" xmlns="http://www.w3.org/2000/svg">
<path fill-rule="evenodd" clip-rule="evenodd" d="M1 8C1 4.13401 4.13401 1 8 1C11.866 1 15 4.13401 15 8C15 11.866 11.866 15 8 15C4.13401 15 1 11.866 1 8ZM2.38998 7.50378C2.37571 7.66729 2.36842 7.83279 2.36842 8C2.36842 11.1102 4.88976 13.6316 8 13.6316C11.1102 13.6316 13.6316 11.1102 13.6316 8C13.6316 7.59168 13.5881 7.19351 13.5056 6.80986L12.7368 6.78947L13.2632 7.69922L12.6616 7.97263L12.2105 7.69922L11.609 7.42581L11.3083 7.69922L12.0601 8.38275H12.6616L12.812 8.65616L12.2105 9.33968L11.7594 10.2966V10.8434L11.3083 10.9801L11.1579 11.527L10.2556 12.2105H9.80451L9.35338 11.1169L9.50375 10.2966L9.203 9.06627L8.75187 8.92957L7.84962 9.06627L7.24811 8.65616L6.94736 7.1524L7.84962 6.46887L9.203 6.05875L10.1053 6.46887L10.2556 6.05875L9.80451 5.37523L9.203 5.23852L8.45112 5.78534H7.84962L7.54887 5.10182L7.99999 4.555L8.45112 4.6917L8.75187 4.41829L8.6015 3.87147L8.75187 3.32465V2.64112L9.0783 2.47155C8.7293 2.40387 8.36879 2.36842 8 2.36842C7.22071 2.36842 6.47839 2.52671 5.80344 2.81288L5.23683 4.26484L4.71052 4.01716L4.44736 4.09842V4.63635L3.78947 5.21053L3.78946 5.7509L3.52631 5.87474L2.83419 5.75385C2.76818 5.90546 2.70864 6.06054 2.65594 6.21875L2.73363 6.43811L3.12836 6.93346L3.65468 6.80962L4.57573 7.18114L4.97047 7.92417L5.89473 8.48321L5.63157 9.22624L5.23683 9.59776L4.84209 10.96L5.23683 11.5792H4.84209L4.31578 10.96L3.78946 9.59776L3.26315 9.22624L2.60525 8.35937L2.73683 7.74018L2.56556 7.63598L2.38998 7.50378Z" fill="#0F1621"/>
</svg>
