<svg width="24" height="24" viewBox="0 0 24 24" fill="none" xmlns="http://www.w3.org/2000/svg">
<path fill-rule="evenodd" clip-rule="evenodd" d="M2 12C2 6.47715 6.47715 2 12 2C17.5228 2 22 6.47715 22 12C22 17.5228 17.5228 22 12 22C6.47715 22 2 17.5228 2 12ZM3.98569 11.2911C3.9653 11.5247 3.95489 11.7611 3.95489 12C3.95489 16.4432 7.55681 20.0451 12 20.0451C16.4432 20.0451 20.0451 16.4432 20.0451 12C20.0451 11.4167 19.983 10.8479 19.8651 10.2998L18.7669 10.2707L19.5188 11.5703L18.6595 11.9609L18.015 11.5703L17.1557 11.1797L16.7261 11.5703L17.8002 12.5468H18.6595L18.8743 12.9374L18.015 13.9138L17.3706 15.2809V16.0621L16.7261 16.2574L16.5113 17.0385L15.2223 18.015H14.5779L13.9334 16.4527L14.1482 15.2809L13.7186 13.5232L13.0741 13.328L11.7852 13.5232L10.9259 12.9374L10.4962 10.7891L11.7852 9.81267L13.7186 9.22679L15.0075 9.81267L15.2223 9.22679L14.5779 8.25033L13.7186 8.05503L12.6445 8.83621H11.7852L11.3555 7.85974L12 7.07857L12.6445 7.27386L13.0741 6.88327L12.8593 6.1021L13.0741 5.32092V4.34446L13.5404 4.10221C13.0419 4.00553 12.5268 3.95489 12 3.95489C10.8867 3.95489 9.82628 4.18101 8.86206 4.58983L8.05262 6.66405L7.30074 6.31022L6.9248 6.42632V7.19479L5.98496 8.01504L5.98495 8.78701L5.60901 8.96392L4.62027 8.79121C4.52597 9.0078 4.44092 9.22935 4.36562 9.45535L4.47661 9.76872L5.04052 10.4764L5.7924 10.2995L7.10819 10.8302L7.6721 11.8917L8.99247 12.6903L8.61653 13.7518L8.05262 14.2825L7.48871 16.2286L8.05262 17.1131H7.48871L6.73683 16.2286L5.98495 14.2825L5.23307 13.7518L4.29322 12.5134L4.48119 11.6288L4.23652 11.48L3.98569 11.2911Z" fill="#0F1621"/>
</svg>
