<svg width="24" height="24" viewBox="0 0 24 24" fill="none" xmlns="http://www.w3.org/2000/svg">
<path fill-rule="evenodd" clip-rule="evenodd" d="M4 2H20C20.5304 2 21.0391 2.21071 21.4142 2.58579C21.7893 2.96086 22 3.46957 22 4V20C22 20.5304 21.7893 21.0391 21.4142 21.4142C21.0391 21.7893 20.5304 22 20 22H4C3.46957 22 2.96086 21.7893 2.58579 21.4142C2.21071 21.0391 2 20.5304 2 20V4C2 3.46957 2.21071 2.96086 2.58579 2.58579C2.96086 2.21071 3.46957 2 4 2ZM20.1 3.8999L3.89999 3.89995V7.49994L4.87498 7.39753L6.74998 5.99994H8.46873L8.62498 6.28229L9.24998 6.98817H9.71873L10.0312 7.83523L9.71873 9.247L9.09373 8.96464H8.78123V9.67053L7.99998 9.95231L8.31248 10.7994L7.68748 11.0823L7.06248 10.3764L6.59373 10.6588L6.43748 11.3866L6.59373 12.0705L7.34373 12.5868L8.31248 12.3309L9.31265 13.0001L9.34373 14.047L10.2811 14.5777L9.96857 15.4247L9.49982 15.8483L8.78123 16.9878V18.4453L8.28123 18.0769L7.87498 17.3711L7.49998 15.8181L6.86649 15.4247L6.15292 14.4155L6.30917 13.7096L6.43748 13.0623L5.49998 12.0705L4.87498 10.6588L4.24998 9.8117L4.09373 8.94159L3.89999 8.99994V20.0999H20.1V11.2499L19.125 11.4545L19.5 12.4821L18.5625 12.8571L17.8125 12.5454L17.4375 12.8571L18.375 13.6363H19.125L19.3125 13.948L18.5625 14.7272L18 15.8181V16.4415L17.4375 16.5973L17.25 17.2207L16.125 17.9999H15.5625L15 16.7532L15.1875 15.8181L14.8125 14.4155L14.25 14.2597L13.125 14.4155L12.375 13.948L12 12.2337L13.125 11.4545L14.8125 10.987L15.9375 11.4545L16.125 10.987L15.5625 10.2077L14.8125 10.0519L13.875 10.6753H13.125L12.75 9.89604L13.3125 9.27267L13.875 9.42851L14.25 9.11682L14.0625 8.49345L14.25 7.87007V7.09085L15.5625 6.46747L16.5 5.99994H17.4375L19.5 6.74994L20.1 6.53879V3.8999Z" fill="#0F1621"/>
</svg>
