<svg width="24" height="24" viewBox="0 0 24 24" fill="none" xmlns="http://www.w3.org/2000/svg">
<path d="M20 2H13V11H22V4C22 3.46957 21.7893 2.96086 21.4142 2.58579C21.0391 2.21071 20.5304 2 20 2ZM13 22H20C20.5304 22 21.0391 21.7893 21.4142 21.4142C21.7893 21.0391 22 20.5304 22 20V13H13V22ZM2 20C2 20.5304 2.21071 21.0391 2.58579 21.4142C2.96086 21.7893 3.46957 22 4 22H11V13H2V20ZM7.66 2L2 7.68V10.52L10.49 2H7.66ZM7.18 11L11 7.16V4.32L4.35 11H7.18ZM4 2C3.46957 2 2.96086 2.21071 2.58579 2.58579C2.21071 2.96086 2 3.46957 2 4V4.83L4.83 2H4ZM11 11V10L10 11H11Z" fill="#0F1621"/>
</svg>
