<svg width="24" height="24" viewBox="0 0 24 24" fill="none" xmlns="http://www.w3.org/2000/svg">
<path d="M12.2602 2C8.51301 2 5.75465 4.1458 5.75465 7.50206C5.75465 10.3356 7.23792 12.0963 11.2714 13.4168C13.8996 14.2696 14.5762 14.9023 14.5762 16.3054C14.5762 17.7634 13.4833 18.6437 11.7138 18.6437C9.91822 18.6437 8.48699 17.956 7.15985 16.773L5 19.2765C6.48327 20.7895 8.72119 22 11.8439 22C16.3457 22 19 19.5241 19 15.9752C19 12.4539 17.0483 10.9684 13.6394 9.81293C10.829 8.87758 10.1524 8.38239 10.1524 7.17194C10.1524 5.96148 11.0892 5.30124 12.5725 5.30124C14.0297 5.30124 15.2788 5.82393 16.5279 6.89684L18.5056 4.44842C16.9182 2.85282 15.0186 2 12.2602 2Z" fill="black"/>
</svg>
