<svg width="16" height="16" viewBox="0 0 16 16" fill="none" xmlns="http://www.w3.org/2000/svg">
<path d="M8.18587 1C5.50929 1 3.53903 2.50206 3.53903 4.85144C3.53903 6.83494 4.59851 8.0674 7.47955 8.99175C9.35688 9.58872 9.84015 10.0316 9.84015 11.0138C9.84015 12.0344 9.05948 12.6506 7.79554 12.6506C6.51301 12.6506 5.49071 12.1692 4.54275 11.3411L3 13.0935C4.05948 14.1527 5.65799 15 7.88848 15C11.1041 15 13 13.2668 13 10.7827C13 8.31774 11.6059 7.27785 9.171 6.46905C7.16357 5.81431 6.6803 5.46768 6.6803 4.62036C6.6803 3.77304 7.34944 3.31087 8.40892 3.31087C9.44981 3.31087 10.342 3.67675 11.2342 4.42779L12.6468 2.71389C11.513 1.59697 10.1561 1 8.18587 1Z" fill="black"/>
</svg>
