<svg width="8" height="8" viewBox="0 0 8 8" fill="none" xmlns="http://www.w3.org/2000/svg">
<path d="M4.11152 0C2.50558 0 1.32342 0.858322 1.32342 2.20083C1.32342 3.33425 1.95911 4.03851 3.68773 4.56671C4.81413 4.90784 5.10409 5.16094 5.10409 5.72215C5.10409 6.30536 4.63569 6.6575 3.87732 6.6575C3.10781 6.6575 2.49442 6.38239 1.92565 5.90922L1 6.91059C1.63569 7.51582 2.5948 8 3.93309 8C5.86245 8 7 7.00963 7 5.5901C7 4.18157 6.16357 3.58735 4.7026 3.12517C3.49814 2.75103 3.20818 2.55296 3.20818 2.06878C3.20818 1.58459 3.60967 1.3205 4.24535 1.3205C4.86989 1.3205 5.4052 1.52957 5.94052 1.95873L6.7881 0.979367C6.10781 0.341128 5.29368 0 4.11152 0Z" fill="black"/>
</svg>
