<svg width="24" height="24" viewBox="0 0 24 24" fill="none" xmlns="http://www.w3.org/2000/svg">
<path d="M12.1271 2C13.2797 2 14.2627 2.18727 15.0763 2.5618C15.9068 2.9176 16.6949 3.47004 17.4407 4.2191L16.2458 5.70787C15.5847 5.12734 14.9322 4.70599 14.2881 4.44382C13.661 4.16292 12.9746 4.02247 12.2288 4.02247C11.2627 4.02247 10.4746 4.27528 9.86441 4.7809C9.27119 5.26779 8.97458 5.97004 8.97458 6.88764C8.97458 7.48689 9.07627 7.98315 9.27966 8.3764C9.5 8.76966 9.88983 9.13483 10.4492 9.47191C11.0085 9.79026 11.8136 10.1273 12.8644 10.4831C13.9661 10.8577 14.8814 11.2603 15.6102 11.691C16.339 12.1217 16.9153 12.7116 17.339 13.4607C17.7797 14.2097 18 15.1554 18 16.2978C18 17.4213 17.7542 18.4139 17.2627 19.2753C16.7712 20.1367 16.0593 20.8109 15.1271 21.2978C14.2119 21.7659 13.1271 22 11.8729 22C9.5 22 7.54237 21.176 6 19.5281L7.22034 18.0112C7.9322 18.6667 8.65254 19.1629 9.38136 19.5C10.1102 19.8184 10.9322 19.9775 11.8475 19.9775C12.9661 19.9775 13.8898 19.6685 14.6186 19.0506C15.3475 18.4139 15.7119 17.5243 15.7119 16.382C15.7119 15.7079 15.5932 15.1461 15.3559 14.6966C15.1356 14.2472 14.7458 13.8539 14.1864 13.5169C13.6441 13.1798 12.8644 12.8427 11.8475 12.5056C10.0508 11.9064 8.74576 11.1948 7.9322 10.3708C7.11864 9.52809 6.71186 8.39513 6.71186 6.97191C6.71186 6.01685 6.94068 5.16479 7.39831 4.41573C7.85593 3.64794 8.49153 3.05805 9.30508 2.64607C10.1356 2.21536 11.0763 2 12.1271 2Z" fill="black"/>
</svg>
