<svg width="24" height="24" viewBox="0 0 24 24" fill="none" xmlns="http://www.w3.org/2000/svg">
<path d="M19.9663 6H13V18H20V16.1272H15.4795V12.815H19.1566V10.9769H15.4795V7.85549H19.9663V6Z" fill="black"/>
<path d="M8.1487 6C6.00743 6 4.43123 7.28748 4.43123 9.30124C4.43123 11.0014 5.27881 12.0578 7.58364 12.8501C9.0855 13.3618 9.47212 13.7414 9.47212 14.5832C9.47212 15.458 8.84758 15.9862 7.83643 15.9862C6.81041 15.9862 5.99256 15.5736 5.2342 14.8638L4 16.3659C4.84758 17.2737 6.12639 18 7.91078 18C10.4833 18 12 16.5144 12 14.3851C12 12.2724 10.8848 11.381 8.9368 10.6878C7.33086 10.1265 6.94424 9.82944 6.94424 9.10316C6.94424 8.37689 7.47955 7.98074 8.32714 7.98074C9.15985 7.98074 9.87361 8.29436 10.5874 8.9381L11.7175 7.46905C10.8104 6.51169 9.72491 6 8.1487 6Z" fill="black"/>
</svg>
