<svg width="16" height="16" viewBox="0 0 16 16" fill="none" xmlns="http://www.w3.org/2000/svg">
<path d="M12.9807 4H9V12H13V10.7514H10.4169V8.54335H12.5181V7.31792H10.4169V5.23699H12.9807V4Z" fill="black"/>
<path d="M5.59294 4C4.25465 4 3.26952 4.85832 3.26952 6.20083C3.26952 7.33425 3.79926 8.03851 5.23978 8.56671C6.17844 8.90784 6.42007 9.16094 6.42007 9.72215C6.42007 10.3054 6.02974 10.6575 5.39777 10.6575C4.75651 10.6575 4.24535 10.3824 3.77138 9.90922L3 10.9106C3.52974 11.5158 4.329 12 5.44424 12C7.05204 12 8 11.0096 8 9.5901C8 8.18157 7.30297 7.58735 6.0855 7.12517C5.08178 6.75103 4.84015 6.55296 4.84015 6.06878C4.84015 5.58459 5.17472 5.3205 5.70446 5.3205C6.22491 5.3205 6.671 5.52957 7.1171 5.95873L7.82342 4.97937C7.25651 4.34113 6.57807 4 5.59294 4Z" fill="black"/>
</svg>
