<svg width="24" height="24" viewBox="0 0 24 24" fill="none" xmlns="http://www.w3.org/2000/svg">
<path d="M22 6H19.9275L18.8514 15.8528L17.6558 6H15.3708L14.0954 15.8528L13.1787 6H11L12.5145 18H15.2778L16.4867 8.83983L17.6292 18H20.4589L22 6Z" fill="black"/>
<path d="M6.5237 6C4.38243 6 2.80623 7.28748 2.80623 9.30124C2.80623 11.0014 3.65381 12.0578 5.95864 12.8501C7.4605 13.3618 7.84712 13.7414 7.84712 14.5832C7.84712 15.458 7.22258 15.9862 6.21143 15.9862C5.18541 15.9862 4.36756 15.5736 3.6092 14.8638L2.375 16.3659C3.22258 17.2737 4.50139 18 6.28578 18C8.85827 18 10.375 16.5144 10.375 14.3851C10.375 12.2724 9.25976 11.381 7.3118 10.6878C5.70586 10.1265 5.31924 9.82944 5.31924 9.10316C5.31924 8.37689 5.85455 7.98074 6.70214 7.98074C7.53485 7.98074 8.24861 8.29436 8.96236 8.9381L10.0925 7.46905C9.18541 6.51169 8.09991 6 6.5237 6Z" fill="black"/>
</svg>
