<svg width="16" height="16" viewBox="0 0 16 16" fill="none" xmlns="http://www.w3.org/2000/svg">
<path d="M15 4H13.5899L12.8577 10.5685L12.0442 4H10.4895L9.62174 10.5685L8.99804 4H7.51562L8.54608 12H10.4262L11.2488 5.89322L12.0261 12H13.9515L15 4Z" fill="black"/>
<path d="M4.11152 4C2.50558 4 1.32342 4.85832 1.32342 6.20083C1.32342 7.33425 1.95911 8.03851 3.68773 8.56671C4.81413 8.90784 5.10409 9.16094 5.10409 9.72215C5.10409 10.3054 4.63569 10.6575 3.87732 10.6575C3.10781 10.6575 2.49442 10.3824 1.92565 9.90922L1 10.9106C1.63569 11.5158 2.5948 12 3.93309 12C5.86245 12 7 11.0096 7 9.5901C7 8.18157 6.16357 7.58735 4.7026 7.12517C3.49814 6.75103 3.20818 6.55296 3.20818 6.06878C3.20818 5.58459 3.60967 5.3205 4.24535 5.3205C4.86989 5.3205 5.4052 5.52957 5.94052 5.95873L6.7881 4.97937C6.10781 4.34113 5.29368 4 4.11152 4Z" fill="black"/>
</svg>
