<svg width="24" height="24" viewBox="0 0 24 24" fill="none" xmlns="http://www.w3.org/2000/svg">
<path d="M19.3831 7.22093H14.4678V11.2674H18.4785V12.4884H14.4678V16.7791H19.3831V18H13V6H19.3831V7.22093Z" fill="black"/>
<path d="M7.57415 6C8.24647 6 8.81992 6.11236 9.29449 6.33708C9.77896 6.55056 10.2387 6.88202 10.6737 7.33146L9.9767 8.22472C9.5911 7.8764 9.21045 7.6236 8.83475 7.46629C8.46893 7.29775 8.0685 7.21348 7.63347 7.21348C7.06992 7.21348 6.61017 7.36517 6.25424 7.66854C5.90819 7.96067 5.73517 8.38202 5.73517 8.93258C5.73517 9.29214 5.79449 9.58989 5.91314 9.82584C6.04167 10.0618 6.26907 10.2809 6.59534 10.4831C6.92161 10.6742 7.39124 10.8764 8.00424 11.0899C8.64689 11.3146 9.18079 11.5562 9.60593 11.8146C10.0311 12.073 10.3672 12.427 10.6144 12.8764C10.8715 13.3258 11 13.8933 11 14.5787C11 15.2528 10.8566 15.8483 10.5699 16.3652C10.2832 16.882 9.86794 17.2865 9.32415 17.5787C8.79025 17.8596 8.15749 18 7.42585 18C6.04167 18 4.89972 17.5056 4 16.5169L4.71186 15.6067C5.12712 16 5.54732 16.2978 5.97246 16.5C6.3976 16.691 6.87712 16.7865 7.41102 16.7865C8.06356 16.7865 8.6024 16.6011 9.02754 16.2303C9.45268 15.8483 9.66525 15.3146 9.66525 14.6292C9.66525 14.2247 9.59605 13.8876 9.45763 13.618C9.3291 13.3483 9.1017 13.1124 8.77542 12.9101C8.45904 12.7079 8.00424 12.5056 7.41102 12.3034C6.36299 11.9438 5.6017 11.5169 5.12712 11.0225C4.65254 10.5169 4.41525 9.83708 4.41525 8.98315C4.41525 8.41011 4.54873 7.89888 4.81568 7.44944C5.08263 6.98876 5.45339 6.63483 5.92797 6.38764C6.41243 6.12921 6.96116 6 7.57415 6Z" fill="black"/>
</svg>
