<svg width="24" height="24" viewBox="0 0 24 24" fill="none" xmlns="http://www.w3.org/2000/svg">
<path d="M5.57415 6C6.24647 6 6.81992 6.11236 7.29449 6.33708C7.77896 6.55056 8.2387 6.88202 8.67373 7.33146L7.9767 8.22472C7.5911 7.8764 7.21045 7.6236 6.83475 7.46629C6.46893 7.29775 6.0685 7.21348 5.63347 7.21348C5.06992 7.21348 4.61017 7.36517 4.25424 7.66854C3.90819 7.96067 3.73517 8.38202 3.73517 8.93258C3.73517 9.29214 3.79449 9.58989 3.91314 9.82584C4.04167 10.0618 4.26907 10.2809 4.59534 10.4831C4.92161 10.6742 5.39124 10.8764 6.00424 11.0899C6.64689 11.3146 7.18079 11.5562 7.60593 11.8146C8.03107 12.073 8.36723 12.427 8.61441 12.8764C8.87147 13.3258 9 13.8933 9 14.5787C9 15.2528 8.85664 15.8483 8.56992 16.3652C8.28319 16.882 7.86794 17.2865 7.32415 17.5787C6.79025 17.8596 6.15749 18 5.42585 18C4.04167 18 2.89972 17.5056 2 16.5169L2.71186 15.6067C3.12712 16 3.54732 16.2978 3.97246 16.5C4.3976 16.691 4.87712 16.7865 5.41102 16.7865C6.06356 16.7865 6.6024 16.6011 7.02754 16.2303C7.45268 15.8483 7.66525 15.3146 7.66525 14.6292C7.66525 14.2247 7.59605 13.8876 7.45763 13.618C7.3291 13.3483 7.1017 13.1124 6.77542 12.9101C6.45904 12.7079 6.00424 12.5056 5.41102 12.3034C4.36299 11.9438 3.6017 11.5169 3.12712 11.0225C2.65254 10.5169 2.41525 9.83708 2.41525 8.98315C2.41525 8.41011 2.54873 7.89888 2.81568 7.44944C3.08263 6.98876 3.45339 6.63483 3.92797 6.38764C4.41243 6.12921 4.96116 6 5.57415 6Z" fill="black"/>
<path d="M18.9571 18H17.3714L15.4857 7.76163L13.5857 18H12.0429L10 6H11.2286L12.8714 16.657L14.8286 6H16.1571L18.1571 16.657L19.8571 6H21L18.9571 18Z" fill="black"/>
</svg>
