<svg width="16" height="16" viewBox="0 0 16 16" fill="none" xmlns="http://www.w3.org/2000/svg">
<path d="M9 9H7V7H9V9ZM15 8C15 9.38447 14.5895 10.7378 13.8203 11.889C13.0511 13.0401 11.9579 13.9373 10.6788 14.4672C9.3997 14.997 7.99224 15.1356 6.63437 14.8655C5.2765 14.5954 4.02922 13.9287 3.05026 12.9497C2.07129 11.9708 1.4046 10.7235 1.13451 9.36563C0.86441 8.00776 1.00303 6.6003 1.53285 5.32122C2.06266 4.04213 2.95987 2.94888 4.11101 2.17971C5.26216 1.41054 6.61553 1 8 1C9.85652 1 11.637 1.7375 12.9497 3.05025C14.2625 4.36301 15 6.14348 15 8ZM13.4 9H11V7H13.4C13.1966 5.90808 12.6674 4.90332 11.8821 4.11794C11.0967 3.33256 10.0919 2.80336 9 2.6V5H7V2.6C5.90808 2.80336 4.90332 3.33256 4.11794 4.11794C3.33256 4.90332 2.80337 5.90808 2.6 7H5V9H2.6C2.80337 10.0919 3.33256 11.0967 4.11794 11.8821C4.90332 12.6674 5.90808 13.1966 7 13.4V11H9V13.4C10.0919 13.1966 11.0967 12.6674 11.8821 11.8821C12.6674 11.0967 13.1966 10.0919 13.4 9Z" fill="#0F1621"/>
</svg>
