<svg width="24" height="24" viewBox="0 0 24 24" fill="none" xmlns="http://www.w3.org/2000/svg">
<path fill-rule="evenodd" clip-rule="evenodd" d="M12 15L18 12L12 9V15ZM2 12L12 7L22 12L12 17L2 12ZM12 2C14.2377 2.00059 16.4105 2.7517 18.1709 4.13316C19.9313 5.51462 21.1774 7.4466 21.71 9.62L19.09 8.31C18.4131 7.01493 17.3945 5.93 16.1446 5.17295C14.8947 4.4159 13.4613 4.01566 12 4.01566C10.5387 4.01566 9.10534 4.4159 7.85544 5.17295C6.60555 5.93 5.58688 7.01493 4.91 8.31L2.29 9.62C2.82257 7.4466 4.06872 5.51462 5.82909 4.13316C7.58945 2.7517 9.7623 2.00059 12 2ZM12 20C13.4629 19.9985 14.8974 19.5959 16.1474 18.836C17.3975 18.0761 18.4152 16.988 19.09 15.69L21.71 14.38C21.1754 16.5514 19.9283 18.4809 18.1681 19.8603C16.408 21.2396 14.2363 21.9892 12 21.9892C9.76375 21.9892 7.59203 21.2396 5.83185 19.8603C4.07168 18.4809 2.82464 16.5514 2.29 14.38L4.91 15.69C5.58476 16.988 6.60252 18.0761 7.85257 18.836C9.10262 19.5959 10.5371 19.9985 12 20Z" fill="#0F1621"/>
</svg>
