<?xml version="1.0" encoding="iso-8859-1"?>
<!-- Generator: Adobe Illustrator 24.1.2, SVG Export Plug-In . SVG Version: 6.00 Build 0)  -->
<svg version="1.1" id="_x38_00-8600-0376_x5F_bike-park-layer"
	 xmlns="http://www.w3.org/2000/svg" xmlns:xlink="http://www.w3.org/1999/xlink" x="0px" y="0px" viewBox="0 0 24 24"
	 style="enable-background:new 0 0 24 24;" xml:space="preserve">
<g id="_x38_00-8600-0376_x5F_bike-park_1_">
	<rect style="fill:none;" width="24" height="24"/>
	<path d="M2,2v9h2V8h3c0.552,0,1-0.448,1-1V3c0-0.552-0.448-1-1-1H2z M6,6H4V4h2V6z M18.4,14.02L16.86,4H13v2h2.14l0.47,3.05
		l-5.42,0.77L9.52,8.64L7.91,9.85l0.28,0.5l-1.59,3.7C6.41,14.02,6.2,14,6,14c-2.21,0-4,1.79-4,4s1.79,4,4,4s4-1.79,4-4
		c0-1.29-0.61-2.44-1.56-3.16l0.99-2.31l1.05,1.83c0.31,0.55,0.85,0.91,1.47,0.99c0.09,0.01,0.18,0.02,0.27,0.02
		c0.53,0,1.03-0.21,1.41-0.59l2.48-2.47l0.31,2.02C14.99,14.94,14,16.35,14,18c0,2.21,1.79,4,4,4s4-1.79,4-4
		C22,15.92,20.42,14.22,18.4,14.02z M6,20c-1.1,0-2-0.9-2-2c0-1.02,0.77-1.86,1.76-1.98C5.84,16,5.92,16,6,16
		c0.65,0,1.23,0.32,1.6,0.8C7.85,17.14,8,17.55,8,18C8,19.1,7.1,20,6,20z M12.22,13.37l-0.96-1.68l3.07-0.44L12.22,13.37z M18,20
		c-1.1,0-2-0.9-2-2c0-0.63,0.29-1.19,0.75-1.55C17.09,16.16,17.53,16,18,16c0.26,0,0.5,0.05,0.73,0.14C19.47,16.43,20,17.16,20,18
		C20,19.1,19.1,20,18,20z M21,9h-1c-0.552,0-1-0.448-1-1v0c0-0.552,0.448-1,1-1h1V9z"/>
</g>
</svg>
