<?xml version="1.0" encoding="iso-8859-1"?>
<!-- Generator: Adobe Illustrator 24.1.2, SVG Export Plug-In . SVG Version: 6.00 Build 0)  -->
<svg version="1.1" id="_x38_00-8700-0198_x5F_public-restroom-toilets-layer"
	 xmlns="http://www.w3.org/2000/svg" xmlns:xlink="http://www.w3.org/1999/xlink" x="0px" y="0px" viewBox="0 0 24 24"
	 style="enable-background:new 0 0 24 24;" xml:space="preserve">
<g id="_x38_00-8700-0198_x5F_public-restroom-toilets_1_">
	<rect style="fill:none;" width="24" height="24"/>
	<path d="M11,9c0-1.1-0.8-2-1.78-2H5.78C4.74,7,4,7.81,4,9v2l1,1l-1,2v4h2v4h3v-4h2v-4l-1-2l1-1V9z M9,16H6v-1.53L6.74,13h1.53
		L9,14.47V16z M9,10.17L8.18,11H6.82L6,10.17V9h3V10.17z M7.5,6L7.5,6C6.675,6,6,5.311,6,4.469V3.531C6,2.689,6.675,2,7.5,2h0
		C8.325,2,9,2.689,9,3.531v0.938C9,5.311,8.325,6,7.5,6z M20,9v3h-3V9H20 M18.5,2C17.673,2,17,2.689,17,3.533v0.934
		C17,5.311,17.673,6,18.5,6S20,5.311,20,4.467V3.533c0-0.422-0.167-0.804-0.441-1.084C19.289,2.173,18.911,2,18.5,2L18.5,2z
		 M20.22,7h-3.44C15.735,7,15,7.81,15,9v5h2v8h3v-8h2V9C21.995,7.895,21.2,7,20.22,7L20.22,7z"/>
</g>
</svg>
