<?xml version="1.0" encoding="iso-8859-1"?>
<!-- Generator: Adobe Illustrator 24.1.2, SVG Export Plug-In . SVG Version: 6.00 Build 0)  -->
<svg version="1.1" id="_x38_00-8600-0184_x5F_bowling-center-layer"
	 xmlns="http://www.w3.org/2000/svg" xmlns:xlink="http://www.w3.org/1999/xlink" x="0px" y="0px" viewBox="0 0 24 24"
	 style="enable-background:new 0 0 24 24;" xml:space="preserve">
<g id="_x38_00-8600-0184_x5F_bowling-center_1_">
	<rect style="fill:none;" width="24" height="24"/>
	<path d="M9,10c0-1,1-3,1-4.5C10,3.57,8.43,2,6.5,2S3,3.57,3,5.5C3,7,4,9,4,10c-0.51,1.62-2,2.21-2,4c0,1.6,1.29,5.43,1.8,7.27
		C3.92,21.7,4.31,22,4.76,22h3.48c0.45,0,0.84-0.3,0.96-0.73C9.71,19.43,11,15.6,11,14C11,12.21,9.51,11.62,9,10z M6.5,4
		C7.33,4,8,4.67,8,5.5c0,0.52-0.27,1.39-0.49,2.09C7.36,8.08,7.22,8.55,7.12,9H5.88c-0.1-0.45-0.24-0.92-0.39-1.41
		C5.27,6.89,5,6.02,5,5.5C5,4.67,5.67,4,6.5,4z M7.73,19.18C7.64,19.47,7.56,19.74,7.48,20H5.52c-0.08-0.26-0.16-0.53-0.25-0.82
		C4.8,17.59,4,14.94,4,14c0-0.31,0.12-0.49,0.59-1.09c0.38-0.49,0.84-1.09,1.18-1.91h1.46c0.34,0.82,0.8,1.42,1.18,1.91
		C8.88,13.51,9,13.69,9,14C9,14.94,8.2,17.59,7.73,19.18z M14.5,7c-0.99,0-1.94,0.19-2.81,0.55c-0.11,0.42-0.24,0.83-0.36,1.22
		c-0.08,0.29-0.21,0.68-0.28,0.96c0.06,0.11,0.14,0.22,0.22,0.33C12.18,9.39,13.29,9,14.5,9c3.03,0,5.5,2.47,5.5,5.5
		S17.53,20,14.5,20c-0.95,0-1.85-0.24-2.63-0.68c-0.1,0.33-0.21,0.66-0.31,1.01c-0.1,0.33-0.19,0.65-0.28,0.93
		C12.25,21.74,13.35,22,14.5,22c4.14,0,7.5-3.36,7.5-7.5S18.64,7,14.5,7z M16,13c0,0.552-0.448,1-1,1s-1-0.448-1-1s0.448-1,1-1
		S16,12.448,16,13z M18,16c0,0.552-0.448,1-1,1s-1-0.448-1-1c0-0.552,0.448-1,1-1S18,15.448,18,16z M14,17c0,0.552-0.448,1-1,1
		s-1-0.448-1-1s0.448-1,1-1S14,16.448,14,17z"/>
</g>
</svg>
