<svg width="24" height="24" viewBox="0 0 24 24" fill="none" xmlns="http://www.w3.org/2000/svg">
<path d="M12 8C12.7911 8 13.5645 8.2346 14.2223 8.67412C14.8801 9.11365 15.3928 9.73836 15.6955 10.4693C15.9983 11.2002 16.0775 12.0044 15.9231 12.7804C15.7688 13.5563 15.3878 14.269 14.8284 14.8284C14.269 15.3878 13.5563 15.7688 12.7804 15.9231C12.0044 16.0775 11.2002 15.9983 10.4693 15.6955C9.73836 15.3928 9.11365 14.8801 8.67412 14.2223C8.2346 13.5645 8 12.7911 8 12C8 10.9391 8.42143 9.92172 9.17158 9.17157C9.92172 8.42143 10.9391 8 12 8ZM12 6C10.8133 6 9.65328 6.35189 8.66658 7.01118C7.67989 7.67047 6.91085 8.60754 6.45673 9.7039C6.0026 10.8003 5.88378 12.0067 6.11529 13.1705C6.3468 14.3344 6.91825 15.4035 7.75736 16.2426C8.59648 17.0818 9.66558 17.6532 10.8295 17.8847C11.9933 18.1162 13.1997 17.9974 14.2961 17.5433C15.3925 17.0892 16.3295 16.3201 16.9888 15.3334C17.6481 14.3467 18 13.1867 18 12C18 10.4087 17.3679 8.88258 16.2426 7.75736C15.1174 6.63214 13.5913 6 12 6Z" fill="#0F1621"/>
</svg>
