<svg width="24" height="24" viewBox="0 0 24 24" fill="none" xmlns="http://www.w3.org/2000/svg">
<path d="M12 6C10.8133 6 9.65327 6.35189 8.66658 7.01118C7.67988 7.67047 6.91085 8.60754 6.45672 9.7039C6.0026 10.8003 5.88378 12.0067 6.11529 13.1705C6.3468 14.3344 6.91824 15.4035 7.75736 16.2426C8.59647 17.0818 9.66557 17.6532 10.8295 17.8847C11.9933 18.1162 13.1997 17.9974 14.2961 17.5433C15.3925 17.0892 16.3295 16.3201 16.9888 15.3334C17.6481 14.3467 18 13.1867 18 12C18 10.4087 17.3679 8.88258 16.2426 7.75736C15.1174 6.63214 13.5913 6 12 6ZM12 16C11.2089 16 10.4355 15.7654 9.77772 15.3259C9.11992 14.8864 8.60723 14.2616 8.30448 13.5307C8.00173 12.7998 7.92252 11.9956 8.07686 11.2196C8.2312 10.4437 8.61216 9.73098 9.17157 9.17157C9.73098 8.61216 10.4437 8.2312 11.2196 8.07686C11.9956 7.92252 12.7998 8.00173 13.5307 8.30448C14.2616 8.60723 14.8864 9.11992 15.3259 9.77772C15.7654 10.4355 16 11.2089 16 12C16 13.0609 15.5786 14.0783 14.8284 14.8284C14.0783 15.5786 13.0609 16 12 16ZM7.41 6L5.41 4L4 5.41L6 7.46C6.40819 6.91722 6.88177 6.42685 7.41 6ZM4.47 12C4.46975 11.6658 4.48979 11.3318 4.53 11H2V13H4.53C4.48979 12.6682 4.46975 12.3342 4.47 12ZM13 4.53V2H11V4.53C11.6643 4.44997 12.3357 4.44997 13 4.53ZM18 7.41L20 5.41L18.63 4L16.63 6C17.1394 6.41576 17.5991 6.88889 18 7.41ZM11 19.47V22H13V19.47C12.3357 19.55 11.6643 19.55 11 19.47ZM19.47 11C19.55 11.6643 19.55 12.3357 19.47 13H22V11H19.47ZM6 16.59L4 18.59L5.38 20L7.38 18C6.86713 17.5848 6.40405 17.1117 6 16.59ZM16.59 18L18.65 20.06L20.06 18.65L18 16.59C17.5866 17.1134 17.1134 17.5866 16.59 18Z" fill="#0F1621"/>
</svg>
