<svg width="16" height="16" viewBox="0 0 16 16" fill="none" xmlns="http://www.w3.org/2000/svg">
<path d="M12 8C12 8.79113 11.7654 9.56448 11.3259 10.2223C10.8864 10.8801 10.2616 11.3928 9.53074 11.6955C8.79983 11.9983 7.99556 12.0775 7.21964 11.9231C6.44372 11.7688 5.73098 11.3878 5.17157 10.8284C4.61216 10.269 4.2312 9.55629 4.07686 8.78036C3.92252 8.00444 4.00173 7.20017 4.30448 6.46927C4.60723 5.73836 5.11992 5.11365 5.77772 4.67412C6.43552 4.2346 7.20888 4 8 4C9.06087 4 10.0783 4.42143 10.8284 5.17157C11.5786 5.92172 12 6.93913 12 8Z" fill="#0F1621"/>
</svg>
