<svg width="24" height="24" viewBox="0 0 24 24" fill="none" xmlns="http://www.w3.org/2000/svg">
<path d="M15.5 5C15.5 5 14.37 6.22 13.05 7.94C11.7009 5.83712 10.1789 3.85026 8.5 2C8.5 2 2 9 2 13.05C2 17.1 5 19 8.5 19C8.89132 18.9988 9.28215 18.9721 9.67 18.92C10.2607 19.9234 11.1188 20.7428 12.1483 21.2867C13.1778 21.8306 14.3382 22.0775 15.5 22C19 22 22 20 22 16.05C22 12.1 15.5 5 15.5 5ZM9 16.05C8.99907 16.3577 9.01912 16.6651 9.06 16.97L8.5 17C7.44 17 4 16.72 4 13.05C4 11.22 6.31 7.73 8.5 5.05C9.70746 6.51046 10.8007 8.06171 11.77 9.69C10.32 11.8 9 14.22 9 16.05ZM14.5 18C14.2033 18 13.9133 17.912 13.6666 17.7472C13.42 17.5824 13.2277 17.3481 13.1142 17.074C13.0006 16.7999 12.9709 16.4983 13.0288 16.2074C13.0867 15.9164 13.2296 15.6491 13.4393 15.4393C13.6491 15.2296 13.9164 15.0867 14.2074 15.0288C14.4983 14.9709 14.7999 15.0006 15.074 15.1142C15.3481 15.2277 15.5824 15.42 15.7472 15.6666C15.912 15.9133 16 16.2033 16 16.5C15.9974 16.897 15.8385 17.277 15.5578 17.5578C15.277 17.8385 14.897 17.9974 14.5 18Z" fill="#0F1621"/>
</svg>
