<svg width="16" height="16" viewBox="0 0 16 16" fill="none" xmlns="http://www.w3.org/2000/svg">
<path d="M10.5 3C10.5 3 9.63 4.07 8.65 5.48C7.70057 3.91842 6.64825 2.42178 5.5 1C5.5 1 1 6.5 1 9C1 11.5 3 13 5.5 13C5.83496 13.0007 6.16941 12.9739 6.5 12.92C6.92108 13.5915 7.51387 14.1384 8.21709 14.5041C8.92031 14.8697 9.70844 15.0409 10.5 15C13 15 15 13.5 15 11C15 8.5 10.5 3 10.5 3ZM10.5 13C10.1085 13.0154 9.71803 12.9496 9.35319 12.8067C8.98834 12.6639 8.657 12.4471 8.38 12.17C8.11831 11.8376 7.98359 11.4228 8 11C8.32636 9.74904 8.89362 8.57376 9.67 7.54C9.93 7.14 10.2 6.73 10.5 6.31C11.94 8.31 13 10.31 13 11C13 12.9 10.92 13 10.5 13Z" fill="#0F1621"/>
</svg>
