<svg width="24" height="24" viewBox="0 0 24 24" fill="none" xmlns="http://www.w3.org/2000/svg">
<path d="M15.5 5C15.5 5 14.37 6.22 13.05 7.94C11.7009 5.83712 10.1789 3.85026 8.5 2C8.5 2 2 9 2 13.05C2 17.1 5 19 8.5 19C8.89132 18.9988 9.28215 18.9721 9.67 18.92C10.2607 19.9234 11.1188 20.7428 12.1483 21.2867C13.1778 21.8306 14.3382 22.0775 15.5 22C19 22 22 20 22 16.05C22 12.1 15.5 5 15.5 5ZM15.5 20C14.7783 20.0369 14.0576 19.9094 13.3924 19.627C12.7271 19.3447 12.1348 18.9148 11.66 18.37C11.1991 17.6864 10.9679 16.8738 11 16.05C11 14.61 12.43 12.15 14.1 9.86C14.55 9.23 15.03 8.62 15.5 8.05C17.69 10.72 20 14.22 20 16.05C20 19.72 16.56 20 15.5 20ZM16 16.5C16 16.7967 15.912 17.0867 15.7472 17.3334C15.5824 17.58 15.3481 17.7723 15.074 17.8858C14.7999 17.9993 14.4983 18.0291 14.2074 17.9712C13.9164 17.9133 13.6491 17.7704 13.4393 17.5607C13.2296 17.3509 13.0867 17.0836 13.0288 16.7926C12.9709 16.5017 13.0006 16.2001 13.1142 15.926C13.2277 15.6519 13.42 15.4176 13.6666 15.2528C13.9133 15.088 14.2033 15 14.5 15C14.8978 15 15.2794 15.158 15.5607 15.4393C15.842 15.7206 16 16.1022 16 16.5Z" fill="#0F1621"/>
</svg>
