<svg width="16" height="16" viewBox="0 0 16 16" fill="none" xmlns="http://www.w3.org/2000/svg">
<path d="M13 2.99995C12.021 2.02106 10.7737 1.35444 9.41588 1.08441C8.05803 0.814366 6.6506 0.953031 5.37156 1.48287C4.09252 2.0127 2.99931 2.90991 2.23017 4.06104C1.46103 5.21217 1.05051 6.56552 1.05051 7.94995C1.05051 9.33439 1.46103 10.6877 2.23017 11.8389C2.99931 12.99 4.09252 13.8872 5.37156 14.417C6.6506 14.9469 8.05803 15.0855 9.41588 14.8155C10.7737 14.5455 12.021 13.8788 13 12.9C13.6501 12.2499 14.1658 11.4782 14.5176 10.6289C14.8694 9.77958 15.0505 8.86927 15.0505 7.94995C15.0505 7.03064 14.8694 6.12033 14.5176 5.27101C14.1658 4.42168 13.6501 3.64997 13 2.99995ZM3 7.99995C3.00021 7.0106 3.29393 6.04355 3.84397 5.22119C4.39402 4.39883 5.17567 3.75814 6.08999 3.38021C7.00432 3.00227 8.01021 2.90408 8.98036 3.09807C9.95051 3.29205 10.8413 3.76949 11.54 4.46995L4.46 11.52C3.52775 10.5854 3.00293 9.32001 3 7.99995Z" fill="#0F1621"/>
</svg>
