<svg width="24" height="24" viewBox="0 0 24 24" fill="none" xmlns="http://www.w3.org/2000/svg">
<path d="M19.07 4.93C17.6716 3.53118 15.8898 2.57847 13.9499 2.19237C12.01 1.80628 9.99916 2.00413 8.17173 2.76092C6.34429 3.51771 4.78233 4.79943 3.68338 6.44399C2.58443 8.08855 1.99786 10.0221 1.99786 12C1.99786 13.9779 2.58443 15.9115 3.68338 17.556C4.78233 19.2006 6.34429 20.4823 8.17173 21.2391C9.99916 21.9959 12.01 22.1937 13.9499 21.8076C15.8898 21.4215 17.6716 20.4688 19.07 19.07C20.9447 17.1947 21.9979 14.6516 21.9979 12C21.9979 9.34836 20.9447 6.80528 19.07 4.93ZM6.34 6.34C7.08298 5.59619 7.96529 5.00612 8.93648 4.60353C9.90766 4.20093 10.9487 3.99371 12 3.99371C13.0513 3.99371 14.0923 4.20093 15.0635 4.60353C16.0347 5.00612 16.917 5.59619 17.66 6.34L6.34 17.66C5.59619 16.917 5.00612 16.0347 4.60352 15.0635C4.20093 14.0923 3.99371 13.0513 3.99371 12C3.99371 10.9487 4.20093 9.90767 4.60352 8.93648C5.00612 7.9653 5.59619 7.08299 6.34 6.34Z" fill="#0F1621"/>
</svg>
