<svg width="24" height="24" viewBox="0 0 24 24" fill="none" xmlns="http://www.w3.org/2000/svg">
<path d="M22 3V6H20V4H18V2H21C21.2652 2 21.5196 2.10536 21.7071 2.29289C21.8946 2.48043 22 2.73478 22 3ZM20 16H22V13H20V16ZM20 11H22V8H20V11ZM20 20H18V22H21C21.2652 22 21.5196 21.8946 21.7071 21.7071C21.8946 21.5196 22 21.2652 22 21V18H20V20ZM4 13H2V16H4V13ZM4 8H2V11H4V8ZM4 18H2V21C2 21.2652 2.10536 21.5196 2.29289 21.7071C2.48043 21.8946 2.73478 22 3 22H6V20H4V18ZM8 22H11V20H8V22ZM13 22H16V20H13V22ZM8 4H11V2H8V4ZM13 4H16V2H13V4ZM3.5 2H3C2.73478 2 2.48043 2.10536 2.29289 2.29289C2.10536 2.48043 2 2.73478 2 3V6H4V4H6V2H3.5Z" fill="#0F1621"/>
</svg>
