<svg width="16" height="16" viewBox="0 0 16 16" fill="none" xmlns="http://www.w3.org/2000/svg">
<path d="M15 2V5H13V3H11V1H14C14.2652 1 14.5196 1.10536 14.7071 1.29289C14.8946 1.48043 15 1.73478 15 2ZM7 15H9V13H7V15ZM7 3H9V1H7V3ZM2 1C1.73478 1 1.48043 1.10536 1.29289 1.29289C1.10536 1.48043 1 1.73478 1 2V5H3V3H5V1H2ZM3 11H1V14C1 14.2652 1.10536 14.5196 1.29289 14.7071C1.48043 14.8946 1.73478 15 2 15H5V13H3V11ZM13 13H11V15H14C14.2652 15 14.5196 14.8946 14.7071 14.7071C14.8946 14.5196 15 14.2652 15 14V11H13V13ZM3 7H1V9H3V7ZM13 9H15V7H13V9Z" fill="#0F1621"/>
</svg>
