<svg width="24" height="24" viewBox="0 0 24 24" fill="none" xmlns="http://www.w3.org/2000/svg">
<path d="M12 2C11.1062 2 10.2382 2.11752 9.41154 2.3385L9.92802 4.27066C10.5878 4.09431 11.2821 4 12 4V3.978L12.0112 4C16.4295 4 20.0112 7.58172 20.0112 12C20.0112 16.4183 16.4295 20 12.0112 20L12 20.022V20C11.2821 20 10.5878 19.9057 9.92802 19.7293L9.41155 21.6615C10.2383 21.8825 11.1062 22 12 22V21.978L12.0112 22C17.5341 22 22.0112 17.5228 22.0112 12C22.0112 6.47715 17.5341 2 12.0112 2L12 2.022V2Z" fill="#0F1621"/>
<path d="M6.99848 3.33889C5.48132 4.21671 4.21671 5.48132 3.3389 6.99848L5.07002 8.00009C5.77264 6.78571 6.78571 5.77264 8.00009 5.07001L6.99848 3.33889Z" fill="#0F1621"/>
<path d="M2.3385 9.41154C2.11752 10.2382 2 11.1062 2 12C2 12.8938 2.11752 13.7618 2.3385 14.5885L4.27067 14.072C4.09431 13.4122 4 12.7179 4 12C4 11.2821 4.09431 10.5878 4.27067 9.92802L2.3385 9.41154Z" fill="#0F1621"/>
<path d="M3.3389 17.0015C4.21671 18.5187 5.48132 19.7833 6.99848 20.6611L8.00009 18.93C6.78571 18.2274 5.77265 17.2143 5.07002 15.9999L3.3389 17.0015Z" fill="#0F1621"/>
<path d="M9.50001 16V8L15.5 12L9.50001 16Z" fill="#0F1621"/>
</svg>
