<svg width="16" height="16" viewBox="0 0 16 16" fill="none" xmlns="http://www.w3.org/2000/svg">
<path d="M8 0.992645C7.37479 0.992645 6.76725 1.07486 6.18828 1.22962L6.70476 3.16178C7.11677 3.05165 7.55072 2.99264 8 2.99264V2.97796L8.00751 2.99264C10.7689 2.99264 13.0075 5.23122 13.0075 7.99265C13.0075 10.7541 10.7689 12.9926 8.00751 12.9926L8 13.0075V12.9926C7.55073 12.9926 7.11677 12.9336 6.70476 12.8235L6.18829 14.7557C6.76725 14.9104 7.37479 14.9926 8 14.9926V14.978L8.00751 14.9926C11.8735 14.9926 15.0075 11.8586 15.0075 7.99265C15.0075 4.12665 11.8735 0.992645 8.00751 0.992645L8 1.00755V0.992645Z" fill="#0F1621"/>
<path d="M4.49872 1.93006C3.43681 2.54446 2.55182 3.42946 1.93741 4.49136L3.66853 5.49297C4.10775 4.73385 4.74121 4.1004 5.50033 3.66117L4.49872 1.93006Z" fill="#0F1621"/>
<path d="M1.23698 6.18093C1.08222 6.75989 1 7.36744 1 7.99265C1 8.61786 1.08222 9.2254 1.23698 9.80436L3.16914 9.28789C3.05901 8.87588 3 8.44192 3 7.99264C3 7.54337 3.05901 7.10941 3.16914 6.6974L1.23698 6.18093Z" fill="#0F1621"/>
<path d="M1.93741 11.4939C2.55182 12.5558 3.43681 13.4408 4.49872 14.0552L5.50033 12.3241C4.74121 11.8849 4.10775 11.2514 3.66853 10.4923L1.93741 11.4939Z" fill="#0F1621"/>
<path d="M6.5 10.5V5.5L10 8L6.5 10.5Z" fill="#0F1621"/>
</svg>
