<svg width="24" height="24" viewBox="0 0 24 24" fill="none" xmlns="http://www.w3.org/2000/svg">
<path d="M12 5.5C15.1374 5.5 17.2323 5.78394 18.4482 6.02596C18.6851 6.07311 18.9839 6.27641 19.1469 6.76519C20.2795 10.1632 20.2795 13.8368 19.1469 17.2348C18.9839 17.7236 18.6851 17.9269 18.4482 17.974C17.2323 18.2161 15.1374 18.5 12 18.5C8.86252 18.5 6.76768 18.2161 5.55171 17.974C5.31481 17.9269 5.01602 17.7236 4.85309 17.2348C3.72044 13.8368 3.72044 10.1632 4.85309 6.76519C5.01602 6.27642 5.31481 6.07311 5.55171 6.02596C6.76768 5.78394 8.86252 5.5 12 5.5ZM5.16129 4.06444C4.09076 4.27751 3.3009 5.09722 2.95573 6.13274C1.68623 9.94124 1.68623 14.0588 2.95573 17.8673C3.3009 18.9028 4.09076 19.7225 5.16129 19.9356C6.51541 20.2051 8.74158 20.5 12 20.5C15.2584 20.5 17.4845 20.2051 18.8387 19.9356C19.9092 19.7225 20.699 18.9028 21.0442 17.8673C22.3137 14.0588 22.3137 9.94124 21.0442 6.13274C20.699 5.09722 19.9092 4.27751 18.8387 4.06444C17.4845 3.79492 15.2584 3.5 12 3.5C8.74158 3.5 6.51541 3.79492 5.16129 4.06444Z" fill="#0F1621"/>
<path d="M9.49997 16V8L15.5 12L9.49997 16Z" fill="#0F1621"/>
</svg>
