<svg width="24" height="24" viewBox="0 0 24 24" fill="none" xmlns="http://www.w3.org/2000/svg">
<path d="M5.16135 4.06444C4.09082 4.27751 3.30096 5.09722 2.95579 6.13274C1.68629 9.94124 1.68629 14.0588 2.95579 17.8673C3.30096 18.9028 4.09082 19.7225 5.16135 19.9356C6.51547 20.2051 8.74164 20.5 12 20.5C15.2584 20.5 17.4846 20.2051 18.8387 19.9356C19.9092 19.7225 20.6991 18.9028 21.0443 17.8673C22.3138 14.0588 22.3138 9.94124 21.0443 6.13274C20.6991 5.09722 19.9092 4.27751 18.8387 4.06444C17.4846 3.79492 15.2584 3.5 12 3.5C8.74164 3.5 6.51547 3.79492 5.16135 4.06444ZM15.5 12L9.50003 16V8L15.5 12Z" fill="#0F1621"/>
</svg>
