<svg width="16" height="16" viewBox="0 0 16 16" fill="none" xmlns="http://www.w3.org/2000/svg">
<path d="M3.22989 2.3953C2.47028 2.54683 1.91103 3.12998 1.66791 3.86541C0.780294 6.55035 0.780294 9.44965 1.66791 12.1346C1.91103 12.87 2.47028 13.4532 3.22989 13.6047C4.17932 13.7941 5.73321 14 8.00185 14C10.2705 14 11.8244 13.7941 12.7738 13.6047C13.5334 13.4532 14.0927 12.87 14.3358 12.1346C15.2234 9.44965 15.2234 6.55035 14.3358 3.86541C14.0927 3.12998 13.5334 2.54683 12.7738 2.3953C11.8244 2.20591 10.2705 2 8.00185 2C5.73321 2 4.17932 2.20591 3.22989 2.3953ZM10.4521 7.99999L6.25168 10.8235V5.17647L10.4521 7.99999Z" fill="#0F1621"/>
</svg>
