<svg width="778" height="329" viewBox="0 0 778 329" fill="none" xmlns="http://www.w3.org/2000/svg">
<path d="M0 3.99999C0 1.79085 1.79086 0 4 0H774C776.209 0 778 1.79086 778 4V325C778 327.209 776.209 329 774 329H3.99999C1.79085 329 0 327.209 0 325V3.99999Z" fill="#B2B8C5"/>
<rect width="388.5" height="329" fill="white"/>
<rect width="240" height="240" transform="translate(74.25 32.5)" fill="white"/>
<g clip-path="url(#clip0)">
<path d="M194.583 53C174.805 53 155.471 58.8649 139.026 69.853C122.581 80.8412 109.764 96.459 102.195 114.732C94.6267 133.004 92.6464 153.111 96.5049 172.509C100.363 191.907 109.887 209.725 123.873 223.711C137.858 237.696 155.676 247.22 175.074 251.079C194.472 254.937 214.579 252.957 232.852 245.388C251.124 237.819 266.742 225.002 277.73 208.557C288.719 192.112 294.583 172.778 294.583 153C294.583 139.868 291.997 126.864 286.971 114.732C281.946 102.599 274.58 91.5752 265.294 82.2893C256.008 73.0035 244.984 65.6375 232.852 60.612C220.719 55.5866 207.716 53 194.583 53ZM244.583 163H204.583V203H184.583V163H144.583V143H184.583V103H204.583V143H244.583V163Z" fill="#6B7485"/>
</g>
<rect x="74.25" y="32.5" width="240" height="240" stroke="#DADFE7" stroke-width="0.2"/>
<path d="M314.25 272.5L74.25 272.5" stroke="#9BA3B3" stroke-width="0.2"/>
<path d="M314.25 262.5L74.25 262.5" stroke="#9BA3B3" stroke-width="0.2"/>
<path d="M314.25 252.5L74.25 252.5" stroke="#9BA3B3" stroke-width="0.2"/>
<path d="M314.25 242.5L74.25 242.5" stroke="#9BA3B3" stroke-width="0.2"/>
<path d="M314.25 232.5L74.25 232.5" stroke="#9BA3B3" stroke-width="0.2"/>
<path d="M314.25 222.5L74.25 222.5" stroke="#9BA3B3" stroke-width="0.2"/>
<path d="M314.25 212.5L74.25 212.5" stroke="#9BA3B3" stroke-width="0.2"/>
<path d="M314.25 202.5L74.25 202.5" stroke="#9BA3B3" stroke-width="0.2"/>
<path d="M314.25 192.5L74.25 192.5" stroke="#9BA3B3" stroke-width="0.2"/>
<path d="M314.25 182.5L74.25 182.5" stroke="#9BA3B3" stroke-width="0.2"/>
<path d="M314.25 172.5L74.25 172.5" stroke="#9BA3B3" stroke-width="0.2"/>
<path d="M314.25 162.5L74.25 162.5" stroke="#9BA3B3" stroke-width="0.2"/>
<path d="M314.25 152.5L74.25 152.5" stroke="#9BA3B3" stroke-width="0.2"/>
<path d="M314.25 142.5L74.25 142.5" stroke="#9BA3B3" stroke-width="0.2"/>
<path d="M314.25 132.5L74.25 132.5" stroke="#9BA3B3" stroke-width="0.2"/>
<path d="M314.25 122.5L74.25 122.5" stroke="#9BA3B3" stroke-width="0.2"/>
<path d="M314.25 112.5L74.25 112.5" stroke="#9BA3B3" stroke-width="0.2"/>
<path d="M314.25 102.5L74.25 102.5" stroke="#9BA3B3" stroke-width="0.2"/>
<path d="M314.25 92.5L74.25 92.5" stroke="#9BA3B3" stroke-width="0.2"/>
<path d="M314.25 82.5L74.25 82.5" stroke="#9BA3B3" stroke-width="0.2"/>
<path d="M314.25 72.5L74.25 72.5" stroke="#9BA3B3" stroke-width="0.2"/>
<path d="M314.25 62.5L74.25 62.5" stroke="#9BA3B3" stroke-width="0.2"/>
<path d="M314.25 52.5L74.25 52.5" stroke="#9BA3B3" stroke-width="0.2"/>
<path d="M314.25 42.5L74.25 42.5" stroke="#9BA3B3" stroke-width="0.2"/>
<path d="M314.25 32.5L74.25 32.5" stroke="#9BA3B3" stroke-width="0.2"/>
<path d="M314.25 32.5L314.25 272.5" stroke="#9BA3B3" stroke-width="0.2"/>
<path d="M304.25 32.5L304.25 272.5" stroke="#9BA3B3" stroke-width="0.2"/>
<path d="M294.25 32.5L294.25 272.5" stroke="#9BA3B3" stroke-width="0.2"/>
<path d="M284.25 32.5L284.25 272.5" stroke="#9BA3B3" stroke-width="0.2"/>
<path d="M274.25 32.5L274.25 272.5" stroke="#9BA3B3" stroke-width="0.2"/>
<path d="M264.25 32.5L264.25 272.5" stroke="#9BA3B3" stroke-width="0.2"/>
<path d="M254.25 32.5L254.25 272.5" stroke="#9BA3B3" stroke-width="0.2"/>
<path d="M244.25 32.5L244.25 272.5" stroke="#9BA3B3" stroke-width="0.2"/>
<path d="M234.25 32.5L234.25 272.5" stroke="#9BA3B3" stroke-width="0.2"/>
<path d="M224.25 32.5L224.25 272.5" stroke="#9BA3B3" stroke-width="0.2"/>
<path d="M214.25 32.5L214.25 272.5" stroke="#9BA3B3" stroke-width="0.2"/>
<path d="M204.25 32.5L204.25 272.5" stroke="#9BA3B3" stroke-width="0.2"/>
<path d="M194.25 32.5L194.25 272.5" stroke="#9BA3B3" stroke-width="0.2"/>
<path d="M184.25 32.5L184.25 272.5" stroke="#9BA3B3" stroke-width="0.2"/>
<path d="M174.25 32.5L174.25 272.5" stroke="#9BA3B3" stroke-width="0.2"/>
<path d="M164.25 32.5L164.25 272.5" stroke="#9BA3B3" stroke-width="0.2"/>
<path d="M154.25 32.5L154.25 272.5" stroke="#9BA3B3" stroke-width="0.2"/>
<path d="M144.25 32.5L144.25 272.5" stroke="#9BA3B3" stroke-width="0.2"/>
<path d="M134.25 32.5L134.25 272.5" stroke="#9BA3B3" stroke-width="0.2"/>
<path d="M124.25 32.5L124.25 272.5" stroke="#9BA3B3" stroke-width="0.2"/>
<path d="M114.25 32.5L114.25 272.5" stroke="#9BA3B3" stroke-width="0.2"/>
<path d="M104.25 32.5L104.25 272.5" stroke="#9BA3B3" stroke-width="0.2"/>
<path d="M94.25 32.5L94.2501 272.5" stroke="#9BA3B3" stroke-width="0.2"/>
<path d="M84.25 32.5L84.2501 272.5" stroke="#9BA3B3" stroke-width="0.2"/>
<path d="M74.25 32.5L74.25 272.5" stroke="#9BA3B3" stroke-width="0.2"/>
<path opacity="0.2" fill-rule="evenodd" clip-rule="evenodd" d="M74.25 32.5H314.25V272.5H74.25V32.5ZM294.25 52.5H94.25V252.5H294.25V52.5Z" fill="#DADFE7"/>
<circle cx="24" cy="305" r="12" fill="#DCE1E8"/>
<path d="M25.8186 310H24.0546V302.384L21.9546 303.658L21.1706 302.454L24.2366 300.578H25.8186V310Z" fill="#333B47"/>
<rect width="388.5" height="329" transform="translate(389.5)" fill="white"/>
<rect width="240" height="240" transform="translate(463.75 32.5)" fill="white"/>
<g clip-path="url(#clip1)">
<path d="M594.083 103H574.083V143H534.083V163H574.083V203H594.083V163H634.083V143H594.083V103ZM584.083 53C564.305 53 544.971 58.8649 528.526 69.853C512.081 80.8412 499.264 96.459 491.695 114.732C484.127 133.004 482.146 153.111 486.005 172.509C489.863 191.907 499.387 209.725 513.373 223.711C527.358 237.696 545.176 247.22 564.574 251.079C583.972 254.937 604.079 252.957 622.352 245.388C640.624 237.819 656.242 225.002 667.23 208.557C678.219 192.112 684.083 172.778 684.083 153C684.083 139.868 681.497 126.864 676.471 114.732C671.446 102.599 664.08 91.5752 654.794 82.2893C645.508 73.0035 634.484 65.6375 622.352 60.612C610.219 55.5866 597.216 53 584.083 53ZM584.083 233C568.261 233 552.794 228.308 539.638 219.518C526.482 210.727 516.228 198.233 510.173 183.615C504.118 168.997 502.534 152.911 505.621 137.393C508.707 121.874 516.327 107.62 527.515 96.4315C538.703 85.2433 552.958 77.624 568.476 74.5372C583.995 71.4504 600.08 73.0346 614.698 79.0896C629.316 85.1446 641.81 95.3984 650.601 108.554C659.391 121.71 664.083 137.177 664.083 153C664.083 174.217 655.655 194.566 640.652 209.569C625.649 224.571 605.301 233 584.083 233Z" fill="#6B7485"/>
</g>
<rect x="463.75" y="32.5" width="240" height="240" stroke="#DADFE7" stroke-width="0.2"/>
<path d="M703.75 272.5L463.75 272.5" stroke="#9BA3B3" stroke-width="0.2"/>
<path d="M703.75 262.5L463.75 262.5" stroke="#9BA3B3" stroke-width="0.2"/>
<path d="M703.75 252.5L463.75 252.5" stroke="#9BA3B3" stroke-width="0.2"/>
<path d="M703.75 242.5L463.75 242.5" stroke="#9BA3B3" stroke-width="0.2"/>
<path d="M703.75 232.5L463.75 232.5" stroke="#9BA3B3" stroke-width="0.2"/>
<path d="M703.75 222.5L463.75 222.5" stroke="#9BA3B3" stroke-width="0.2"/>
<path d="M703.75 212.5L463.75 212.5" stroke="#9BA3B3" stroke-width="0.2"/>
<path d="M703.75 202.5L463.75 202.5" stroke="#9BA3B3" stroke-width="0.2"/>
<path d="M703.75 192.5L463.75 192.5" stroke="#9BA3B3" stroke-width="0.2"/>
<path d="M703.75 182.5L463.75 182.5" stroke="#9BA3B3" stroke-width="0.2"/>
<path d="M703.75 172.5L463.75 172.5" stroke="#9BA3B3" stroke-width="0.2"/>
<path d="M703.75 162.5L463.75 162.5" stroke="#9BA3B3" stroke-width="0.2"/>
<path d="M703.75 152.5L463.75 152.5" stroke="#9BA3B3" stroke-width="0.2"/>
<path d="M703.75 142.5L463.75 142.5" stroke="#9BA3B3" stroke-width="0.2"/>
<path d="M703.75 132.5L463.75 132.5" stroke="#9BA3B3" stroke-width="0.2"/>
<path d="M703.75 122.5L463.75 122.5" stroke="#9BA3B3" stroke-width="0.2"/>
<path d="M703.75 112.5L463.75 112.5" stroke="#9BA3B3" stroke-width="0.2"/>
<path d="M703.75 102.5L463.75 102.5" stroke="#9BA3B3" stroke-width="0.2"/>
<path d="M703.75 92.5L463.75 92.5" stroke="#9BA3B3" stroke-width="0.2"/>
<path d="M703.75 82.5L463.75 82.5" stroke="#9BA3B3" stroke-width="0.2"/>
<path d="M703.75 72.5L463.75 72.5" stroke="#9BA3B3" stroke-width="0.2"/>
<path d="M703.75 62.5L463.75 62.5" stroke="#9BA3B3" stroke-width="0.2"/>
<path d="M703.75 52.5L463.75 52.5" stroke="#9BA3B3" stroke-width="0.2"/>
<path d="M703.75 42.5L463.75 42.5" stroke="#9BA3B3" stroke-width="0.2"/>
<path d="M703.75 32.5L463.75 32.5" stroke="#9BA3B3" stroke-width="0.2"/>
<path d="M703.75 32.5L703.75 272.5" stroke="#9BA3B3" stroke-width="0.2"/>
<path d="M693.75 32.5L693.75 272.5" stroke="#9BA3B3" stroke-width="0.2"/>
<path d="M683.75 32.5L683.75 272.5" stroke="#9BA3B3" stroke-width="0.2"/>
<path d="M673.75 32.5L673.75 272.5" stroke="#9BA3B3" stroke-width="0.2"/>
<path d="M663.75 32.5L663.75 272.5" stroke="#9BA3B3" stroke-width="0.2"/>
<path d="M653.75 32.5L653.75 272.5" stroke="#9BA3B3" stroke-width="0.2"/>
<path d="M643.75 32.5L643.75 272.5" stroke="#9BA3B3" stroke-width="0.2"/>
<path d="M633.75 32.5L633.75 272.5" stroke="#9BA3B3" stroke-width="0.2"/>
<path d="M623.75 32.5L623.75 272.5" stroke="#9BA3B3" stroke-width="0.2"/>
<path d="M613.75 32.5L613.75 272.5" stroke="#9BA3B3" stroke-width="0.2"/>
<path d="M603.75 32.5L603.75 272.5" stroke="#9BA3B3" stroke-width="0.2"/>
<path d="M593.75 32.5L593.75 272.5" stroke="#9BA3B3" stroke-width="0.2"/>
<path d="M583.75 32.5L583.75 272.5" stroke="#9BA3B3" stroke-width="0.2"/>
<path d="M573.75 32.5L573.75 272.5" stroke="#9BA3B3" stroke-width="0.2"/>
<path d="M563.75 32.5L563.75 272.5" stroke="#9BA3B3" stroke-width="0.2"/>
<path d="M553.75 32.5L553.75 272.5" stroke="#9BA3B3" stroke-width="0.2"/>
<path d="M543.75 32.5L543.75 272.5" stroke="#9BA3B3" stroke-width="0.2"/>
<path d="M533.75 32.5L533.75 272.5" stroke="#9BA3B3" stroke-width="0.2"/>
<path d="M523.75 32.5L523.75 272.5" stroke="#9BA3B3" stroke-width="0.2"/>
<path d="M513.75 32.5L513.75 272.5" stroke="#9BA3B3" stroke-width="0.2"/>
<path d="M503.75 32.5L503.75 272.5" stroke="#9BA3B3" stroke-width="0.2"/>
<path d="M493.75 32.5L493.75 272.5" stroke="#9BA3B3" stroke-width="0.2"/>
<path d="M483.75 32.5L483.75 272.5" stroke="#9BA3B3" stroke-width="0.2"/>
<path d="M473.75 32.5L473.75 272.5" stroke="#9BA3B3" stroke-width="0.2"/>
<path d="M463.75 32.5L463.75 272.5" stroke="#9BA3B3" stroke-width="0.2"/>
<path opacity="0.2" fill-rule="evenodd" clip-rule="evenodd" d="M463.75 32.5H703.75V272.5H463.75V32.5ZM683.75 52.5H483.75V252.5H683.75V52.5Z" fill="#DADFE7"/>
<circle cx="413.5" cy="305" r="12" fill="#DCE1E8"/>
<path d="M413.214 300.41C413.849 300.41 414.395 300.527 414.852 300.76C415.319 300.993 415.673 301.311 415.916 301.712C416.159 302.113 416.28 302.561 416.28 303.056C416.28 303.588 416.163 304.101 415.93 304.596C415.706 305.081 415.328 305.623 414.796 306.22C414.264 306.817 413.485 307.606 412.458 308.586H416.49L416.294 310H410.428V308.684C411.623 307.471 412.477 306.575 412.99 305.996C413.513 305.408 413.881 304.909 414.096 304.498C414.32 304.078 414.432 303.644 414.432 303.196C414.432 302.767 414.306 302.431 414.054 302.188C413.811 301.945 413.485 301.824 413.074 301.824C412.71 301.824 412.393 301.903 412.122 302.062C411.851 302.211 411.567 302.463 411.268 302.818L410.162 301.95C410.955 300.923 411.973 300.41 413.214 300.41Z" fill="#333B47"/>
<path d="M4 1H774V-1H4V1ZM777 4V325H779V4H777ZM774 328H3.99999V330H774V328ZM1 325V3.99999H-1V325H1ZM3.99999 328C2.34314 328 1 326.657 1 325H-1C-1 327.761 1.23857 330 3.99999 330V328ZM777 325C777 326.657 775.657 328 774 328V330C776.761 330 779 327.761 779 325H777ZM774 1C775.657 1 777 2.34314 777 4H779C779 1.23858 776.761 -1 774 -1V1ZM4 -1C1.23858 -1 -1 1.23857 -1 3.99999H1C1 2.34314 2.34314 1 4 1V-1Z" fill="#E7EBF1"/>
<defs>
<clipPath id="clip0">
<rect width="240" height="240" fill="white" transform="translate(74.25 32.5)"/>
</clipPath>
<clipPath id="clip1">
<rect width="240" height="240" fill="white" transform="translate(463.75 32.5)"/>
</clipPath>
</defs>
</svg>
