<svg width="24" height="24" viewBox="0 0 24 24" fill="none" xmlns="http://www.w3.org/2000/svg">
<path d="M19 11C19.5933 11 20.1734 10.8241 20.6667 10.4944C21.1601 10.1648 21.5446 9.69623 21.7716 9.14805C21.9987 8.59987 22.0581 7.99667 21.9424 7.41473C21.8266 6.83279 21.5409 6.29824 21.1213 5.87868C20.7018 5.45912 20.1672 5.1734 19.5853 5.05765C19.0033 4.94189 18.4001 5.0013 17.8519 5.22836C17.3038 5.45543 16.8352 5.83994 16.5056 6.33329C16.1759 6.82664 16 7.40666 16 8C16 8.79565 16.3161 9.55871 16.8787 10.1213C17.4413 10.6839 18.2044 11 19 11ZM19 7C19.1978 7 19.3911 7.05865 19.5556 7.16853C19.72 7.27841 19.8482 7.43459 19.9239 7.61732C19.9996 7.80004 20.0194 8.00111 19.9808 8.19509C19.9422 8.38907 19.847 8.56726 19.7071 8.70711C19.5673 8.84696 19.3891 8.9422 19.1951 8.98079C19.0011 9.01937 18.8 8.99957 18.6173 8.92388C18.4346 8.84819 18.2784 8.72002 18.1685 8.55557C18.0586 8.39112 18 8.19778 18 8C18 7.73479 18.1054 7.48043 18.2929 7.2929C18.4804 7.10536 18.7348 7 19 7ZM15 6V12.81C14.197 13.2737 13.5124 13.9172 13 14.69V7H11V14.38L6.44 7H4V17H6V9.62L10.56 17H12.09C12.0348 17.3306 12.0047 17.6649 12 18C12.0047 18.3351 12.0348 18.6694 12.09 19H10C9.83006 19.0003 9.66283 18.9574 9.5141 18.8751C9.36538 18.7929 9.24007 18.6741 9.15 18.53L8 16.67V18C8 18.2652 7.89464 18.5196 7.70711 18.7071C7.51957 18.8946 7.26522 19 7 19H3C2.73478 19 2.48043 18.8946 2.29289 18.7071C2.10536 18.5196 2 18.2652 2 18V6C2 5.73479 2.10536 5.48043 2.29289 5.2929C2.48043 5.10536 2.73478 5 3 5H7C7.16994 4.99966 7.33717 5.04264 7.48589 5.12487C7.63462 5.20711 7.75993 5.32589 7.85 5.47L9 7.33V6C9 5.73479 9.10536 5.48043 9.29289 5.2929C9.48043 5.10536 9.73478 5 10 5H14C14.2652 5 14.5196 5.10536 14.7071 5.2929C14.8946 5.48043 15 5.73479 15 6ZM19 17H22V19H19V22H17V19H14V17H17V14H19V17Z" fill="#0F1621"/>
</svg>
