<svg xmlns="http://www.w3.org/2000/svg" width="24" height="24" viewBox="0 0 24 24"><rect width="24" height="24" style="fill:none"/><path d="M19,11a3,3,0,1,0-3-3A3,3,0,0,0,19,11Zm0-4a1,1,0,1,1-1,1A1,1,0,0,1,19,7ZM15,6v6.81a6,6,0,0,0-2,1.88V7H11v7.38L6.44,7H4V17H6V9.62L10.56,17h1.53A6.64,6.64,0,0,0,12,18a6.64,6.64,0,0,0,.09,1H10a1,1,0,0,1-.85-.47L8,16.67V18a1,1,0,0,1-1,1H3a1,1,0,0,1-1-1V6A1,1,0,0,1,3,5H7a1,1,0,0,1,.85.47L9,7.33V6a1,1,0,0,1,1-1h4A1,1,0,0,1,15,6Zm4,11h3v2H19v3H17V19H14V17h3V14h2Z"/></svg>