<svg width="24" height="24" viewBox="0 0 24 24" fill="none" xmlns="http://www.w3.org/2000/svg">
<path d="M19 7C19.1978 7 19.3911 7.05865 19.5556 7.16853C19.72 7.27841 19.8482 7.43459 19.9239 7.61732C19.9996 7.80004 20.0194 8.00111 19.9808 8.19509C19.9422 8.38907 19.847 8.56726 19.7071 8.70711C19.5673 8.84696 19.3891 8.9422 19.1951 8.98079C19.0011 9.01937 18.8 8.99957 18.6173 8.92388C18.4346 8.84819 18.2784 8.72002 18.1685 8.55557C18.0586 8.39112 18 8.19778 18 8C18 7.73479 18.1054 7.48043 18.2929 7.2929C18.4804 7.10536 18.7348 7 19 7ZM19 5C18.4067 5 17.8266 5.17595 17.3333 5.50559C16.8399 5.83524 16.4554 6.30377 16.2284 6.85195C16.0013 7.40013 15.9419 8.00333 16.0576 8.58527C16.1734 9.16722 16.4591 9.70177 16.8787 10.1213C17.2982 10.5409 17.8328 10.8266 18.4147 10.9424C18.9967 11.0581 19.5999 10.9987 20.1481 10.7716C20.6962 10.5446 21.1648 10.1601 21.4944 9.66671C21.8241 9.17337 22 8.59335 22 8C22 7.20435 21.6839 6.44129 21.1213 5.87868C20.5587 5.31607 19.7956 5 19 5ZM14 19H10C9.83006 19.0003 9.66283 18.9574 9.5141 18.8751C9.36538 18.7929 9.24007 18.6741 9.15 18.53L8 16.67V18C8 18.2652 7.89464 18.5196 7.70711 18.7071C7.51957 18.8946 7.26522 19 7 19H3C2.73478 19 2.48043 18.8946 2.29289 18.7071C2.10536 18.5196 2 18.2652 2 18V6C2 5.73479 2.10536 5.48043 2.29289 5.2929C2.48043 5.10536 2.73478 5 3 5H7C7.16994 4.99966 7.33717 5.04264 7.48589 5.12487C7.63462 5.20711 7.75993 5.32589 7.85 5.47L9 7.33V6C9 5.73479 9.10536 5.48043 9.29289 5.2929C9.48043 5.10536 9.73478 5 10 5H14C14.2652 5 14.5196 5.10536 14.7071 5.2929C14.8946 5.48043 15 5.73479 15 6V18C15 18.2652 14.8946 18.5196 14.7071 18.7071C14.5196 18.8946 14.2652 19 14 19ZM10.56 17H13V7H11V14.38L6.44 7H4V17H6V9.62L10.56 17Z" fill="#0F1621"/>
</svg>
