<svg width="24" height="24" viewBox="0 0 24 24" fill="none" xmlns="http://www.w3.org/2000/svg">
<path d="M12 5.00001H13C13.2652 5.00001 13.5196 5.10536 13.7071 5.2929C13.8946 5.48044 14 5.73479 14 6.00001V18C14 18.2652 13.8946 18.5196 13.7071 18.7071C13.5196 18.8947 13.2652 19 13 19H11.58C11.4038 19.0007 11.2305 18.9548 11.0777 18.867C10.925 18.7792 10.7981 18.6526 10.71 18.5L6 10.25V18C6 18.2652 5.89464 18.5196 5.70711 18.7071C5.51957 18.8947 5.26522 19 5 19H4C3.73478 19 3.48043 18.8947 3.29289 18.7071C3.10536 18.5196 3 18.2652 3 18V6.00001C3 5.73479 3.10536 5.48044 3.29289 5.2929C3.48043 5.10536 3.73478 5.00001 4 5.00001H5.42C5.59621 4.99931 5.76948 5.04518 5.92225 5.13299C6.07503 5.22079 6.2019 5.3474 6.29 5.50001L11 13.75V6.00001C11 5.73479 11.1054 5.48044 11.2929 5.2929C11.4804 5.10536 11.7348 5.00001 12 5.00001ZM22 8.00001C22 8.59335 21.8241 9.17337 21.4944 9.66672C21.1648 10.1601 20.6962 10.5446 20.1481 10.7716C19.5999 10.9987 18.9967 11.0581 18.4147 10.9424C17.8328 10.8266 17.2982 10.5409 16.8787 10.1213C16.4591 9.70177 16.1734 9.16722 16.0576 8.58528C15.9419 8.00334 16.0013 7.40014 16.2284 6.85196C16.4554 6.30378 16.8399 5.83524 17.3333 5.5056C17.8266 5.17596 18.4067 5.00001 19 5.00001C19.7956 5.00001 20.5587 5.31608 21.1213 5.87869C21.6839 6.4413 22 7.20436 22 8.00001ZM20 8.00001C20 7.80223 19.9414 7.60889 19.8315 7.44444C19.7216 7.27999 19.5654 7.15182 19.3827 7.07613C19.2 7.00044 18.9989 6.98064 18.8049 7.01922C18.6109 7.05781 18.4327 7.15305 18.2929 7.2929C18.153 7.43275 18.0578 7.61094 18.0192 7.80492C17.9806 7.9989 18.0004 8.19997 18.0761 8.38269C18.1518 8.56542 18.28 8.7216 18.4444 8.83148C18.6089 8.94136 18.8022 9.00001 19 9.00001C19.2652 9.00001 19.5196 8.89465 19.7071 8.70711C19.8946 8.51958 20 8.26522 20 8.00001Z" fill="#0F1621"/>
</svg>
