<svg xmlns="http://www.w3.org/2000/svg" viewBox="0 0 24 24"><defs><style>.cls-1{fill:none;}</style></defs><g id="Layer_2" data-name="Layer 2"><g id="UI_Solid" data-name="UI Solid"><g id="car-wifi-off"><rect class="cls-1" width="24" height="24"/><path d="M22,11H19.45l-.86-1.18-.07-.09L17.05,11.2a.85.85,0,0,1,.25.25L19,14H14.25l-6,6H16v1a1,1,0,0,0,1,1h3a2,2,0,0,0,2-2V15.06a1.64,1.64,0,0,0-.33-1L20.9,13H22Zm-2,7H16V16h4ZM7,9a2.06,2.06,0,0,0-1.59.82L4.55,11H2v2H3.1l-.77,1.06a1.64,1.64,0,0,0-.33,1v2.7L5.76,14H5l1.7-2.55A1,1,0,0,1,7.54,11H8.76l.12-.12Zm5-3a5.63,5.63,0,0,1,1.55.21L11.74,8A4,4,0,0,0,9.17,9.17L7.76,7.76A5.94,5.94,0,0,1,12,6Zm0-4a10,10,0,0,1,4.62,1.13l-1.5,1.5A8.12,8.12,0,0,0,12,4,8,8,0,0,0,6.35,6.35L4.93,4.93A10,10,0,0,1,12,2ZM22,3.43,3.41,22,2,20.59,20.57,2Z"/></g></g></g></svg>