<svg xmlns="http://www.w3.org/2000/svg" viewBox="0 0 24 24"><g id="Layer_2" data-name="Layer 2"><g id="UI_Solid" data-name="UI Solid"><g id="car-rig"><rect width="24" height="24" style="fill:none"/><path d="M22,11H19.45l-.86-1.18A2.06,2.06,0,0,0,17,9v2.16a.92.92,0,0,1,.3.29L19,14H5l1.7-2.55a.92.92,0,0,1,.3-.29V9a2.06,2.06,0,0,0-1.59.82L4.55,11H2v2H3.1l-.77,1.06a1.64,1.64,0,0,0-.33,1V20a2,2,0,0,0,2,2H7a1,1,0,0,0,1-1V20h8v1a1,1,0,0,0,1,1h3a2,2,0,0,0,2-2V15.06a1.64,1.64,0,0,0-.33-1L20.9,13H22ZM8,18H4V16H8Zm12,0H16V16h4ZM13,9V7h.5a1,1,0,0,0,1-1V3a1,1,0,0,0-1-1h-3a1,1,0,0,0-1,1V6a1,1,0,0,0,1,1H11V9H9v2h6V9ZM12,5.5a1,1,0,1,1,1-1A1,1,0,0,1,12,5.5Z"/></g></g></g></svg>