<svg xmlns="http://www.w3.org/2000/svg" viewBox="0 0 24 24"><g id="Layer_2" data-name="Layer 2"><g id="UI_Outline" data-name="UI Outline"><g id="car-rig"><rect width="24" height="24" style="fill:none"/><path d="M22,11H19.45l-.86-1.18A2.06,2.06,0,0,0,17,9v2.05l2.29,3.13.71,1V20H18V18H6v2H4V15.16l.71-1L7,11.05V9a2.06,2.06,0,0,0-1.59.82L4.55,11H2v2H3.1l-.77,1.06a1.64,1.64,0,0,0-.33,1V20a2,2,0,0,0,2,2H7a1,1,0,0,0,1-1V20h8v1a1,1,0,0,0,1,1h3a2,2,0,0,0,2-2V15.06a1.64,1.64,0,0,0-.33-1L20.9,13H22Zm-4,5H6l1.5-2h9ZM9.5,3V6a1,1,0,0,0,1,1h3a1,1,0,0,0,1-1V3a1,1,0,0,0-1-1h-3A1,1,0,0,0,9.5,3ZM12,5.5a1,1,0,1,1,1-1A1,1,0,0,1,12,5.5ZM13,9H11V7h2Zm2,2H9V9h6Z"/></g></g></g></svg>