<svg xmlns="http://www.w3.org/2000/svg" viewBox="0 0 24 24"><g id="Layer_2" data-name="Layer 2"><g id="UI_Outline" data-name="UI Outline"><g id="car-wifi-off"><rect width="24" height="24" style="fill:none"/><path d="M12,6A5.94,5.94,0,0,0,7.76,7.76L9.17,9.17A4,4,0,0,1,11.74,8l1.81-1.8A5.63,5.63,0,0,0,12,6Zm0-4A10,10,0,0,0,4.93,4.93L6.35,6.35A8,8,0,0,1,12,4a8.12,8.12,0,0,1,3.12.63l1.5-1.5A10,10,0,0,0,12,2Zm10,9H19.45l-.86-1.18-.07-.09-1.44,1.44,2.21,3,.71,1V20H18V18H10.24l-2,2H16v1a1,1,0,0,0,1,1h3a2,2,0,0,0,2-2V15.06a1.64,1.64,0,0,0-.33-1L20.9,13H22Zm-5.5,3H14.25l-2,2H18ZM7,9a2.06,2.06,0,0,0-1.59.82L4.55,11H2v2H3.1l-.77,1.06a1.64,1.64,0,0,0-.33,1v2.7l2-2v-.6l.71-1L7,11H8.76l.12-.12ZM22,3.43,3.41,22,2,20.59,20.57,2Z"/></g></g></g></svg>