<svg xmlns="http://www.w3.org/2000/svg" width="16" height="16" viewBox="0 0 16 16"><path d="M15,2,2,15,1,14,14,1ZM12.55,8.11,14,11h0v1h0v1a2,2,0,0,1-2,2H11l-1-1H6L5,15H4a2.32,2.32,0,0,1-.46-.06L5.47,13H6v-.53L7.47,11H12l-.64-1.56A1.5,1.5,0,0,0,10,8.5l1.4-1.4A2,2,0,0,1,12.55,8.11ZM12,12H10v1h2ZM9,4H7a3.91,3.91,0,0,0-2.41.83l1.2,1A2.39,2.39,0,0,1,7,5.5H8L9.48,4A3.73,3.73,0,0,0,9,4ZM6,2.5h4a3.24,3.24,0,0,1,.89.13l1.18-1.17A4.94,4.94,0,0,0,10,1H6A5,5,0,0,0,2.18,2.81l1.14,1A3.5,3.5,0,0,1,6,2.5ZM6.53,7H5.24A2,2,0,0,0,3.45,8.11L2,11H2v.53Z" style="fill:#231f20"/></svg>