<svg xmlns="http://www.w3.org/2000/svg" width="16" height="16" viewBox="0 0 16 16"><rect width="16" height="16" style="fill:none"/><path d="M3.32,3.77l-1.14-1A5,5,0,0,1,6,1h4a5,5,0,0,1,3.82,1.81l-1.14,1A3.5,3.5,0,0,0,10,2.5H6A3.5,3.5,0,0,0,3.32,3.77ZM7,4a3.91,3.91,0,0,0-2.41.83l1.2,1A2.39,2.39,0,0,1,7,5.5H9a2.39,2.39,0,0,1,1.21.33l1.2-1A3.91,3.91,0,0,0,9,4Zm7,7h0v1h0v1a2,2,0,0,1-2,2H11l-1-1H6L5,15H4a2,2,0,0,1-2-2V11H2L3.45,8.11A2,2,0,0,1,5.24,7h5.52a2,2,0,0,1,1.79,1.11ZM6,8.5a1.5,1.5,0,0,0-1.39.94L4,11h8l-.64-1.56A1.5,1.5,0,0,0,10,8.5ZM6,12H4v1H6Zm6,0H10v1h2Z"/></svg>