<svg width="16" height="16" viewBox="0 0 16 16" fill="none" xmlns="http://www.w3.org/2000/svg">
<path d="M3 5H7V15H3C2.46957 15 1.96086 14.7893 1.58579 14.4142C1.21071 14.0391 1 13.5304 1 13V7C1 6.46957 1.21071 5.96086 1.58579 5.58579C1.96086 5.21071 2.46957 5 3 5ZM15 13V7C15 6.46957 14.7893 5.96086 14.4142 5.58579C14.0391 5.21071 13.5304 5 13 5H9V15H13C13.5304 15 14.0391 14.7893 14.4142 14.4142C14.7893 14.0391 15 13.5304 15 13ZM3 3L4 4L5 3L6 4L7 3L5 1L3 3ZM13 2L12 1L11 2L10 1L9 2L11 4L13 2Z" fill="#0F1621"/>
</svg>
