<svg width="24" height="24" viewBox="0 0 24 24" fill="none" xmlns="http://www.w3.org/2000/svg">
<path d="M9 10V20H4V10H9ZM11 8H4C3.46957 8 2.96086 8.21071 2.58579 8.58579C2.21071 8.96086 2 9.46957 2 10V20C2 20.5304 2.21071 21.0391 2.58579 21.4142C2.96086 21.7893 3.46957 22 4 22H11V8ZM20 10V20H15V10H20ZM20 8H13V22H20C20.5304 22 21.0391 21.7893 21.4142 21.4142C21.7893 21.0391 22 20.5304 22 20V10C22 9.46957 21.7893 8.96086 21.4142 8.58579C21.0391 8.21071 20.5304 8 20 8ZM5 5L6 6L8 4L10 6L11 5L8 2L5 5ZM19 3L18 2L16 4L14 2L13 3L16 6L19 3Z" fill="#0F1621"/>
</svg>
