<svg xmlns="http://www.w3.org/2000/svg" viewBox="0 0 16 16"><defs><style>.cls-1{fill:none;}.cls-2{fill-rule:evenodd;}</style></defs><g id="Layer_2" data-name="Layer 2"><g id="UI_16" data-name="UI 16"><g id="escalator-up"><rect class="cls-1" width="16" height="16"/><path class="cls-2" d="M11.61,11H10V9h5v5H13V12.39L10.41,15,9,13.59ZM12.5,1H10a2,2,0,0,0-1.63.84L4,8H2.5A1.5,1.5,0,0,0,1,9.5H1A1.5,1.5,0,0,0,2.5,11H5a2,2,0,0,0,1.63-.84L11,4h1.5A1.5,1.5,0,0,0,14,2.5h0A1.5,1.5,0,0,0,12.5,1ZM6,2H6A1,1,0,0,0,5,1H5A1,1,0,0,0,4,2H4A1,1,0,0,0,5,3H5A1,1,0,0,0,6,2ZM5,4H4A1,1,0,0,0,3,5V6Z"/></g></g></g></svg>