<svg xmlns="http://www.w3.org/2000/svg" viewBox="0 0 16 16"><defs><style>.cls-1{fill:none;}.cls-2{fill-rule:evenodd;}</style></defs><g id="Layer_2" data-name="Layer 2"><g id="UI_16" data-name="UI 16"><g id="escalator"><rect class="cls-1" width="16" height="16"/><path class="cls-2" d="M12.5,3H10a2,2,0,0,0-1.63.84L4,10H2.5A1.5,1.5,0,0,0,1,11.5H1A1.5,1.5,0,0,0,2.5,13H5a2,2,0,0,0,1.63-.84L11,6h1.5A1.5,1.5,0,0,0,14,4.5h0A1.5,1.5,0,0,0,12.5,3ZM6,4H6A1,1,0,0,0,5,3H5A1,1,0,0,0,4,4H4A1,1,0,0,0,5,5H5A1,1,0,0,0,6,4ZM5,6H4A1,1,0,0,0,3,7V8Z"/></g></g></g></svg>