<svg width="16" height="16" viewBox="0 0 16 16" fill="none" xmlns="http://www.w3.org/2000/svg">
<path fill-rule="evenodd" clip-rule="evenodd" d="M11.61 11H10V9H15V14H13V12.39L10.41 15L9 13.59L11.61 11ZM12.5 1H10C9.68101 0.999878 9.36661 1.07606 9.08306 1.22219C8.7995 1.36831 8.55502 1.58014 8.37 1.84L4 8H2.5C2.10218 8 1.72064 8.15804 1.43934 8.43934C1.15804 8.72064 1 9.10218 1 9.5C1 9.89782 1.15804 10.2794 1.43934 10.5607C1.72064 10.842 2.10218 11 2.5 11H5C5.31899 11.0001 5.63339 10.9239 5.91694 10.7778C6.2005 10.6317 6.44498 10.4199 6.63 10.16L11 4H12.5C12.8978 4 13.2794 3.84196 13.5607 3.56066C13.842 3.27936 14 2.89782 14 2.5C14 2.10218 13.842 1.72064 13.5607 1.43934C13.2794 1.15804 12.8978 1 12.5 1ZM6 2C6 1.73478 5.89464 1.48043 5.70711 1.29289C5.51957 1.10536 5.26522 1 5 1C4.73478 1 4.48043 1.10536 4.29289 1.29289C4.10536 1.48043 4 1.73478 4 2C4 2.26522 4.10536 2.51957 4.29289 2.70711C4.48043 2.89464 4.73478 3 5 3C5.26522 3 5.51957 2.89464 5.70711 2.70711C5.89464 2.51957 6 2.26522 6 2ZM5 4H4C3.73478 4 3.48043 4.10536 3.29289 4.29289C3.10536 4.48043 3 4.73478 3 5V6L5 4Z" fill="#0F1621"/>
</svg>
