<svg width="24" height="24" viewBox="0 0 24 24" fill="none" xmlns="http://www.w3.org/2000/svg">
<path d="M17.33 13.52C18.1965 12.5021 18.7535 11.2575 18.9351 9.93313C19.1167 8.60878 18.9153 7.26012 18.3547 6.04661C17.7941 4.8331 16.8977 3.80548 15.7716 3.08523C14.6455 2.36499 13.3367 1.98224 12 1.98224C10.6632 1.98224 9.35444 2.36499 8.22832 3.08523C7.10221 3.80548 6.20588 4.8331 5.64528 6.04661C5.08468 7.26012 4.88327 8.60878 5.06486 9.93313C5.24644 11.2575 5.80343 12.5021 6.66997 13.52L3.46997 18.39L6.56997 19.12L8.47997 21.68L12 16.33L15.52 21.68L17.43 19.12L20.53 18.39L17.33 13.52ZM12 3.99998C12.9889 3.99998 13.9556 4.29323 14.7778 4.84263C15.6001 5.39204 16.2409 6.17293 16.6194 7.08656C16.9978 8.00019 17.0968 9.00553 16.9039 9.97543C16.711 10.9453 16.2348 11.8363 15.5355 12.5355C14.8362 13.2348 13.9453 13.711 12.9754 13.9039C12.0055 14.0968 11.0002 13.9978 10.0866 13.6194C9.17292 13.2409 8.39203 12.6001 7.84262 11.7778C7.29322 10.9556 6.99997 9.98889 6.99997 8.99998C6.99997 7.6739 7.52675 6.40213 8.46444 5.46445C9.40212 4.52676 10.6739 3.99998 12 3.99998ZM8.37997 18.2L7.73997 17.35L6.73997 17.1L8.20997 14.86C8.77882 15.2311 9.39865 15.5174 10.05 15.71L8.37997 18.2ZM16.26 17.35L15.62 18.2L14 15.71C14.6513 15.5174 15.2711 15.2311 15.84 14.86L17.31 17.1L16.26 17.35ZM9.99997 8.99998C9.99997 8.60442 10.1173 8.21774 10.337 7.88884C10.5568 7.55994 10.8692 7.3036 11.2346 7.15222C11.6001 7.00085 12.0022 6.96124 12.3902 7.03841C12.7781 7.11558 13.1345 7.30606 13.4142 7.58577C13.6939 7.86547 13.8844 8.22184 13.9615 8.6098C14.0387 8.99776 13.9991 9.39989 13.8477 9.76535C13.6964 10.1308 13.44 10.4432 13.1111 10.6629C12.7822 10.8827 12.3955 11 12 11C11.4695 11 10.9608 10.7893 10.5858 10.4142C10.2107 10.0391 9.99997 9.53041 9.99997 8.99998Z" fill="#0F1621"/>
</svg>
