<svg width="24" height="24" viewBox="0 0 24 24" fill="none" xmlns="http://www.w3.org/2000/svg">
<path fill-rule="evenodd" clip-rule="evenodd" d="M15 10V20C15 20.5304 14.7893 21.0391 14.4142 21.4142C14.0391 21.7893 13.5304 22 13 22H11C10.4696 22 9.96086 21.7893 9.58579 21.4142C9.21071 21.0391 9 20.5304 9 20V10L6.59 7.59C6.40283 7.40394 6.25434 7.18268 6.15308 6.93897C6.05182 6.69526 5.99979 6.43391 6 6.17V5H18V6.17C18.0002 6.43391 17.9482 6.69526 17.8469 6.93897C17.7457 7.18268 17.5972 7.40394 17.41 7.59L15 10ZM13 12H11V15H13V12ZM18 2H6V4H18V2Z" fill="#0F1621"/>
</svg>
