<svg xmlns="http://www.w3.org/2000/svg" viewBox="0 0 16 16"><g id="Layer_2" data-name="Layer 2"><g id="UI_16" data-name="UI 16"><g id="global"><rect width="16" height="16" style="fill:none"/><path d="M8,1a7,7,0,1,0,7,7A7,7,0,0,0,8,1ZM9.64,7H6.36C6.56,4,7.65,3.05,8,3S9.44,4,9.64,7ZM8,13C7.65,13,6.56,12,6.36,9H9.64C9.44,12,8.35,13,8,13ZM5.83,3.5A9.48,9.48,0,0,0,5,7H3.1A5,5,0,0,1,5.83,3.5ZM3.1,9H5a8.17,8.17,0,0,0,.9,3.56A5,5,0,0,1,3.1,9Zm7,3.56A8.17,8.17,0,0,0,11,9H12.9A5,5,0,0,1,10.06,12.56ZM11,7a9.48,9.48,0,0,0-.79-3.5A5,5,0,0,1,12.9,7Z"/></g></g></g></svg>