<svg xmlns="http://www.w3.org/2000/svg" viewBox="0 0 24 24"><defs><style>.cls-1{opacity:0;}.cls-2{fill:none;}</style></defs><g id="Layer_2" data-name="Layer 2"><g id="System_UI_Solid" data-name="System UI Solid"><g id="global"><g class="cls-1"><rect class="cls-2" width="24" height="24"/></g><path d="M13.17,2.07a9.81,9.81,0,0,0-2.34,0,10,10,0,0,0,0,19.86h0a9.65,9.65,0,0,0,2.32,0h0a10,10,0,0,0,0-19.86ZM18.92,8H16.26a21.71,21.71,0,0,0-1.61-3.54A7.94,7.94,0,0,1,18.92,8ZM15,12a9.18,9.18,0,0,1-.24,2H9.24A9.18,9.18,0,0,1,9,12a9.18,9.18,0,0,1,.24-2h5.52A9.18,9.18,0,0,1,15,12ZM12,4a23.24,23.24,0,0,1,2.13,4H9.87A23.24,23.24,0,0,1,12,4Zm-2.65.46A21.71,21.71,0,0,0,7.74,8H5.08A7.94,7.94,0,0,1,9.35,4.46ZM4.26,10H7.2a10.1,10.1,0,0,0,0,4H4.26a7.82,7.82,0,0,1,0-4Zm.82,6H7.74a21.71,21.71,0,0,0,1.61,3.54A7.94,7.94,0,0,1,5.08,16ZM12,20a23.24,23.24,0,0,1-2.13-4h4.26A23.24,23.24,0,0,1,12,20Zm2.65-.46A21.71,21.71,0,0,0,16.26,16h2.66A7.94,7.94,0,0,1,14.65,19.54ZM16.8,14a10.1,10.1,0,0,0,0-4h2.94a7.82,7.82,0,0,1,0,4Z"/></g></g></g></svg>