<svg width="24" height="24" viewBox="0 0 24 24" fill="none" xmlns="http://www.w3.org/2000/svg">
<path d="M22 3.99999V19H20V18V17.7V16C19 15.9 18.1 15.4 17.5 14.5L13.4 7.99999L11.1 10.3C10.3 11.1 9.1 11.1 8.3 10.3L7.6 9.69999L13 4.29999C14 3.49999 15.9 3.09999 17.4 4.29999L19.5 5.89999H20V3.99999H22ZM15.9 15.5L13 11.2L12.4 11.8C10.8 13.4 8.3 13.4 6.7 11.8L4.8 9.69999L11 3.49999C10.9 3.49999 10.7 3.39999 10.6 3.39999C10 3.29999 9.3 3.39999 8.8 3.69999L5 5.99999H4V3.99999H2V19H4V17H5C11 20.5 13.5 20.8 18.7 17.7C17.6 17.4 16.5 16.6 15.9 15.5Z" fill="#0F1621"/>
</svg>
