<svg xmlns="http://www.w3.org/2000/svg" viewBox="0 0 24 24"><defs><style>.cls-1{fill:none;}</style></defs><g id="Layer_2" data-name="Layer 2"><g id="UI_Solid" data-name="UI Solid"><g id="hard-drive"><rect class="cls-1" width="24" height="24"/><path d="M20,2H4A2,2,0,0,0,2,4V20a2,2,0,0,0,2,2H20a2,2,0,0,0,2-2V4A2,2,0,0,0,20,2ZM12,5a5,5,0,0,1,5,5,5.09,5.09,0,0,1-.82,2.76l1.53,1.53-1.42,1.42-1.53-1.53A5.09,5.09,0,0,1,12,15,5,5,0,0,1,12,5ZM6,20V19a1,1,0,0,1,2,0v1Zm4,0V18h4v2Zm6,0V19a1,1,0,0,1,2,0v1ZM13,10a1,1,0,1,1-1-1A1,1,0,0,1,13,10Z"/></g></g></g></svg>