<svg width="16" height="16" viewBox="0 0 16 16" fill="none" xmlns="http://www.w3.org/2000/svg">
<path d="M4.9 12.5L3 14.4L1 12.5H4.9ZM7.7 8.1C7.3 7.6 7.3 7.4 7.6 7.1C7.9 6.8 8.2 6.9 8.6 7.3L7.7 8.1ZM11.8 2.8C12.1 2.5 12.4 2.6 12.8 3L12 3.8C11.5 3.3 11.6 3.1 11.8 2.8ZM14.3 3.7C13.9 4.3 13.3 5.2 12.6 4.5L14.3 2.8C14.1 2.6 14 2.5 13.9 2.4C13 1.5 11.9 1.5 11.1 2.3C10.5 2.8 10.4 3.5 10.6 4.1L10.1 3.5C9.9 3.6 9.3 4.2 9.8 5.1L9.2 4.6L8.4 5.4L9.5 6.5C8.6 5.8 7.7 5.9 7 6.6C6.2 7.4 6.3 8.4 6.9 9.2L6.8 9.1C6 8.3 5.2 8.6 4.7 9C4.4 9.3 4.2 9.8 4.3 10.1L2.6 8.4L1.7 9.3L5.1 12.7H6.9L5.7 11.5C5.1 10.9 5.1 10.5 5.4 10.2C5.7 9.9 6 10.1 6.7 10.7L7.9 11.9L8.8 11L7.7 9.9C8.5 10.5 9.5 10.6 10.4 9.7C10.9 9.2 11.1 8.7 11.1 8.7L10 7.9C9.6 8.5 9 9.4 8.3 8.7L10 7L11.1 8.1L12 7.2L10.6 5.8C10 5.2 10.3 4.6 10.6 4.3C10.7 4.6 10.9 4.8 11.1 5C12 5.9 13.1 6.1 14.1 5.1C14.6 4.6 14.8 4.1 14.8 4.1L14.3 3.7Z" fill="#0F1621"/>
</svg>
