<svg width="24" height="24" viewBox="0 0 24 24" fill="none" xmlns="http://www.w3.org/2000/svg">
<path d="M21 18L15 7.73V5H16V3H8V5H9V7.73L3 18.05C2.83741 18.351 2.75474 18.6886 2.75987 19.0306C2.765 19.3727 2.85778 19.7077 3.02933 20.0036C3.20088 20.2996 3.44546 20.5466 3.73971 20.721C4.03396 20.8955 4.36804 20.9915 4.71 21H19.29C19.6392 20.9962 19.9813 20.901 20.2823 20.7239C20.5833 20.5467 20.8326 20.2939 21.0056 19.9905C21.1785 19.6871 21.269 19.3437 21.268 18.9945C21.267 18.6453 21.1746 18.3024 21 18ZM13 5V8.27L14.6 11H9.4L11 8.27V5H13ZM4.69 19L8.23 13H15.77L19.29 19H4.69Z" fill="#0F1621"/>
</svg>
