<svg width="16" height="16" viewBox="0 0 16 16" fill="none" xmlns="http://www.w3.org/2000/svg">
<path d="M14.33 12.56L11 5.77V4H12V2H3.99999V4H4.99999V5.77L1.66999 12.54C1.53343 12.7943 1.46513 13.0797 1.47175 13.3683C1.47837 13.6569 1.55969 13.9388 1.70776 14.1866C1.85583 14.4344 2.06561 14.6396 2.31663 14.7822C2.56764 14.9247 2.85132 14.9998 3.13999 15H12.86C13.1543 15.0002 13.4433 14.9225 13.698 14.775C13.9526 14.6275 14.1637 14.4154 14.31 14.16C14.4506 13.9175 14.5263 13.6429 14.5298 13.3626C14.5333 13.0823 14.4645 12.8059 14.33 12.56ZM8.99999 4V6.23L9.86999 8H6.12999L6.99999 6.23V4H8.99999Z" fill="#0F1621"/>
</svg>
