<svg width="16" height="16" viewBox="0 0 16 16" fill="none" xmlns="http://www.w3.org/2000/svg">
<path d="M6.00005 2.00003V6.00003H2.00005V4.70001H3.70004L1.30005 2.30002L2.20004 1.40002L4.60005 3.80002V2.10001H6.00005V2.00003ZM10 2.00003V6.00003H14V4.70001H12.3L14.7 2.30002L13.8 1.40002L11.4 3.80002V2.10001H10V2.00003ZM11.3 14V12.3L13.7 14.7L14.6001 13.8L12.2 11.4H13.9V10.1H9.90004V14.1H11.3V14ZM6.00005 14V10H2.00005V11.3H3.70004L1.30005 13.7L2.20004 14.6L4.60005 12.2V13.9H6.00005V14ZM8.00005 6.50003C7.20005 6.50003 6.50005 7.20003 6.50005 8.00003C6.50005 8.80003 7.20005 9.50003 8.00005 9.50003C8.80005 9.50003 9.50005 8.80003 9.50005 8.00003C9.50005 7.20003 8.80005 6.50003 8.00005 6.50003Z" fill="black"/>
</svg>
