<svg xmlns="http://www.w3.org/2000/svg" width="24" height="24" viewBox="0 0 24 24"><rect width="24" height="24" style="fill:none"/><path d="M6,15.42v0Zm15-7v0Zm-18,0L4.24,7.21,3,8.46v0ZM8.08,5.52,9.25,6.7Z" style="fill:#fff"/><path d="M17,3.42a1,1,0,0,0-.71.3L13,7a4,4,0,0,1,1.8,1h0L17,5.84l3,3V11H18V9H16v.2L19.82,13H22V8.05L17.71,3.72a1,1,0,0,0-.71-.3Zm-10,0a1,1,0,0,0-.71.3L2,8.05V13H4.18L8,9.2V9H6v2H4V8.87l3-3L9.17,8h0A4,4,0,0,1,11,7L7.71,3.72A1,1,0,0,0,7,3.42Zm5,5.45a2,2,0,0,0-1.41.58L5,15v7H19V15L13.41,9.45A2,2,0,0,0,12,8.87ZM7,20V15.83l5-5h0l5,5V20H13V17H11v3Z"/></svg>