<svg width="16" height="16" viewBox="0 0 16 16" fill="none" xmlns="http://www.w3.org/2000/svg">
<path d="M12 6.00003H11L8 10V11H10V15H11L14 10V9.00003H12V6.00003ZM8.5 14.5L8 15C8 15 4.3 11.3 3.9 10.9C2.7 9.70002 2 8.80002 1.5 7.90002C1.2 7.20002 1 6.50002 1 5.80002C1 3.60002 2.7 1.90002 4.9 1.90002C5.7 1.90002 6.6 2.20001 7.3 2.70001L8.1 3.40002L8.9 2.70001C9.6 2.20001 10.4 1.90002 11.3 1.90002C13.5 1.90002 15.2 3.60002 15.2 5.80002C15.2 6.40002 15.1 6.90002 14.9 7.40002H14H13.5V5.90002V4.40002H12H11H10.2L9.8 5.00003L6.8 9.00003L6.5 9.40002V9.90002V10.9V12.4H8H8.5V13.9V14.5Z" fill="black"/>
</svg>
