<svg width="24" height="24" viewBox="0 0 24 24" fill="none" xmlns="http://www.w3.org/2000/svg">
<path fill-rule="evenodd" clip-rule="evenodd" d="M14 8C14 8.53043 13.7893 9.03914 13.4142 9.41421C13.0391 9.78929 12.5304 10 12 10C11.4696 10 10.9609 9.78929 10.5858 9.41421C10.2107 9.03914 10 8.53043 10 8V7C10 6.46957 10.2107 5.96086 10.5858 5.58579C10.9609 5.21071 11.4696 5 12 5C12.5304 5 13.0391 5.21071 13.4142 5.58579C13.7893 5.96086 14 6.46957 14 7V8ZM20 4C20 3.46957 19.7893 2.96086 19.4142 2.58579C19.0391 2.21071 18.5304 2 18 2C17.4696 2 16.9609 2.21071 16.5858 2.58579C16.2107 2.96086 16 3.46957 16 4V5C16 5.53043 16.2107 6.03914 16.5858 6.41421C16.9609 6.78929 17.4696 7 18 7C18.5304 7 19.0391 6.78929 19.4142 6.41421C19.7893 6.03914 20 5.53043 20 5V4ZM8 4C8 3.46957 7.78929 2.96086 7.41421 2.58579C7.03914 2.21071 6.53043 2 6 2C5.46957 2 4.96086 2.21071 4.58579 2.58579C4.21071 2.96086 4 3.46957 4 4V5C4 5.53043 4.21071 6.03914 4.58579 6.41421C4.96086 6.78929 5.46957 7 6 7C6.53043 7 7.03914 6.78929 7.41421 6.41421C7.78929 6.03914 8 5.53043 8 5V4ZM4 11C4 10.7348 4.10536 10.4804 4.29289 10.2929C4.48043 10.1054 4.73478 10 5 10H7V8H5C4.20435 8 3.44129 8.31607 2.87868 8.87868C2.31607 9.44129 2 10.2044 2 11V18H4V11ZM22 11C22 10.2044 21.6839 9.44129 21.1213 8.87868C20.5587 8.31607 19.7956 8 19 8H17V10H19C19.2652 10 19.5196 10.1054 19.7071 10.2929C19.8946 10.4804 20 10.7348 20 11V18H22V11ZM17 14.5V22H15V14.5C15 14.2348 14.8946 13.9804 14.7071 13.7929C14.5196 13.6054 14.2652 13.5 14 13.5H10C9.73478 13.5 9.48043 13.6054 9.29289 13.7929C9.10536 13.9804 9 14.2348 9 14.5V22H7V14.5C7 13.7044 7.31607 12.9413 7.87868 12.3787C8.44129 11.8161 9.20435 11.5 10 11.5H14C14.7956 11.5 15.5587 11.8161 16.1213 12.3787C16.6839 12.9413 17 13.7044 17 14.5Z" fill="#0F1621"/>
</svg>
