<svg width="16" height="16" viewBox="0 0 16 16" fill="none" xmlns="http://www.w3.org/2000/svg">
<path d="M3 3.4V2.6C2.99333 2.39642 3.02684 2.19353 3.09863 2.00292C3.17042 1.8123 3.27908 1.63771 3.41839 1.48911C3.55769 1.34052 3.72492 1.22083 3.91051 1.13691C4.09611 1.05298 4.29642 1.00646 4.5 1C4.70358 1.00646 4.90389 1.05298 5.08949 1.13691C5.27508 1.22083 5.44231 1.34052 5.58161 1.48911C5.72092 1.63771 5.82958 1.8123 5.90137 2.00292C5.97316 2.19353 6.00667 2.39642 6 2.6V3.4C6.00667 3.60358 5.97316 3.80647 5.90137 3.99708C5.82958 4.1877 5.72092 4.36229 5.58161 4.51089C5.44231 4.65948 5.27508 4.77917 5.08949 4.86309C4.90389 4.94702 4.70358 4.99354 4.5 5C4.29642 4.99354 4.09611 4.94702 3.91051 4.86309C3.72492 4.77917 3.55769 4.65948 3.41839 4.51089C3.27908 4.36229 3.17042 4.1877 3.09863 3.99708C3.02684 3.80647 2.99333 3.60358 3 3.4ZM10 10H6C5.73478 10 5.48043 10.1054 5.29289 10.2929C5.10536 10.4804 5 10.7348 5 11V15H11V11C11 10.7348 10.8946 10.4804 10.7071 10.2929C10.5196 10.1054 10.2652 10 10 10ZM8 9C8.20358 8.99354 8.40389 8.94702 8.58949 8.86309C8.77508 8.77917 8.94231 8.65948 9.08161 8.51089C9.22092 8.36229 9.32958 8.1877 9.40137 7.99708C9.47316 7.80647 9.50667 7.60358 9.5 7.4V6.6C9.50667 6.39642 9.47316 6.19353 9.40137 6.00292C9.32958 5.8123 9.22092 5.63771 9.08161 5.48911C8.94231 5.34052 8.77508 5.22083 8.58949 5.13691C8.40389 5.05298 8.20358 5.00646 8 5C7.79642 5.00646 7.59611 5.05298 7.41051 5.13691C7.22492 5.22083 7.05769 5.34052 6.91839 5.48911C6.77908 5.63771 6.67042 5.8123 6.59863 6.00292C6.52684 6.19353 6.49333 6.39642 6.5 6.6V7.4C6.49333 7.60358 6.52684 7.80647 6.59863 7.99708C6.67042 8.1877 6.77908 8.36229 6.91839 8.51089C7.05769 8.65948 7.22492 8.77917 7.41051 8.86309C7.59611 8.94702 7.79642 8.99354 8 9ZM11.5 5C11.7036 4.99354 11.9039 4.94702 12.0895 4.86309C12.2751 4.77917 12.4423 4.65948 12.5816 4.51089C12.7209 4.36229 12.8296 4.1877 12.9014 3.99708C12.9732 3.80647 13.0067 3.60358 13 3.4V2.6C13 2.20218 12.842 1.82064 12.5607 1.53934C12.2794 1.25804 11.8978 1.1 11.5 1.1C11.1022 1.1 10.7206 1.25804 10.4393 1.53934C10.158 1.82064 10 2.20218 10 2.6V3.4C9.99333 3.60358 10.0268 3.80647 10.0986 3.99708C10.1704 4.1877 10.2791 4.36229 10.4184 4.51089C10.5577 4.65948 10.7249 4.77917 10.9105 4.86309C11.0961 4.94702 11.2964 4.99354 11.5 5ZM5 6H4C3.20435 6 2.44129 6.31607 1.87868 6.87868C1.31607 7.44129 1 8.20435 1 9V13H3V9C3 8.73478 3.10536 8.48043 3.29289 8.29289C3.48043 8.10536 3.73478 8 4 8H5V6ZM12 6H11V8H12C12.2652 8 12.5196 8.10536 12.7071 8.29289C12.8946 8.48043 13 8.73478 13 9V13H15V9C15 8.20435 14.6839 7.44129 14.1213 6.87868C13.5587 6.31607 12.7956 6 12 6Z" fill="#0F1621"/>
</svg>
