<svg xmlns="http://www.w3.org/2000/svg" viewBox="0 0 24 24"><defs><style>.cls-1{fill:none;}.cls-2{fill-rule:evenodd;}</style></defs><g id="Layer_2" data-name="Layer 2"><g id="UI_Outline" data-name="UI Outline"><g id="people"><rect class="cls-1" width="24" height="24"/><path class="cls-2" d="M14,8a2,2,0,0,1-4,0V7a2,2,0,0,1,4,0Zm6-4a2,2,0,0,0-4,0V5a2,2,0,0,0,4,0ZM8,4A2,2,0,0,0,4,4V5A2,2,0,0,0,8,5ZM4,11a1,1,0,0,1,1-1H7V8H5a3,3,0,0,0-3,3v7H4Zm18,0a3,3,0,0,0-3-3H17v2h2a1,1,0,0,1,1,1v7h2Zm-5,3.5V22H15V14.5a1,1,0,0,0-1-1H10a1,1,0,0,0-1,1V22H7V14.5a3,3,0,0,1,3-3h4A3,3,0,0,1,17,14.5Z"/></g></g></g></svg>