<svg xmlns="http://www.w3.org/2000/svg" viewBox="0 0 24 24"><defs><style>.cls-1{fill:none;}.cls-2{fill-rule:evenodd;}</style></defs><g id="Layer_2" data-name="Layer 2"><g id="UI_Solid" data-name="UI Solid"><g id="people"><rect class="cls-1" width="24" height="24"/><path class="cls-2" d="M14,8a2,2,0,0,1-4,0V7a2,2,0,0,1,4,0Zm6-4a2,2,0,0,0-4,0V5a2,2,0,0,0,4,0ZM8,4A2,2,0,0,0,4,4V5A2,2,0,0,0,8,5Zm6,7.5H10a3,3,0,0,0-3,3V22H17V14.5A3,3,0,0,0,14,11.5ZM5,8a3,3,0,0,0-3,3v7H5V14.5a5,5,0,0,1,2-4V8ZM19,8H17v2.5a5,5,0,0,1,2,4V18h3V11A3,3,0,0,0,19,8Z"/></g></g></g></svg>