<svg width="24" height="24" viewBox="0 0 24 24" fill="none" xmlns="http://www.w3.org/2000/svg">
<path d="M12 4C13.5823 4 15.129 4.46919 16.4446 5.34824C17.7602 6.22729 18.7855 7.47672 19.391 8.93853C19.9965 10.4003 20.155 12.0089 19.8463 13.5607C19.5376 15.1126 18.7757 16.538 17.6569 17.6569C16.538 18.7757 15.1126 19.5376 13.5607 19.8463C12.0089 20.155 10.4003 19.9965 8.93854 19.391C7.47673 18.7855 6.2273 17.7602 5.34825 16.4446C4.4692 15.129 4 13.5823 4 12C4 9.87827 4.84286 7.84344 6.34315 6.34315C7.84344 4.84285 9.87827 4 12 4V4ZM12 2C10.0222 2 8.08879 2.58649 6.4443 3.6853C4.79981 4.78412 3.51809 6.3459 2.76121 8.17317C2.00433 10.0004 1.8063 12.0111 2.19215 13.9509C2.578 15.8907 3.53041 17.6725 4.92894 19.0711C6.32746 20.4696 8.10929 21.422 10.0491 21.8079C11.9889 22.1937 13.9996 21.9957 15.8268 21.2388C17.6541 20.4819 19.2159 19.2002 20.3147 17.5557C21.4135 15.9112 22 13.9778 22 12C22 9.34784 20.9464 6.8043 19.0711 4.92893C17.1957 3.05357 14.6522 2 12 2V2ZM8 10C7.60444 10 7.21776 10.1173 6.88886 10.3371C6.55997 10.5568 6.30362 10.8692 6.15225 11.2346C6.00087 11.6001 5.96126 12.0022 6.03843 12.3902C6.1156 12.7781 6.30609 13.1345 6.58579 13.4142C6.8655 13.6939 7.22186 13.8844 7.60982 13.9616C7.99779 14.0387 8.39992 13.9991 8.76537 13.8478C9.13082 13.6964 9.44318 13.44 9.66294 13.1111C9.88271 12.7822 10 12.3956 10 12C10 11.4696 9.78929 10.9609 9.41422 10.5858C9.03915 10.2107 8.53044 10 8 10V10ZM16 10C15.6044 10 15.2178 10.1173 14.8889 10.3371C14.56 10.5568 14.3036 10.8692 14.1522 11.2346C14.0009 11.6001 13.9613 12.0022 14.0384 12.3902C14.1156 12.7781 14.3061 13.1345 14.5858 13.4142C14.8655 13.6939 15.2219 13.8844 15.6098 13.9616C15.9978 14.0387 16.3999 13.9991 16.7654 13.8478C17.1308 13.6964 17.4432 13.44 17.6629 13.1111C17.8827 12.7822 18 12.3956 18 12C18 11.4696 17.7893 10.9609 17.4142 10.5858C17.0391 10.2107 16.5304 10 16 10V10Z" fill="#0F1621"/>
</svg>
