<svg width="24" height="24" viewBox="0 0 24 24" fill="none" xmlns="http://www.w3.org/2000/svg">
<path d="M13 2V5H11V2C8.53317 2.24762 6.24625 3.40277 4.583 5.24133C2.91975 7.07989 1.99878 9.47075 1.99878 11.95C1.99878 14.4293 2.91975 16.8201 4.583 18.6587C6.24625 20.4972 8.53317 21.6524 11 21.9V19H13V21.9C15.4669 21.6524 17.7538 20.4972 19.4171 18.6587C21.0803 16.8201 22.0013 14.4293 22.0013 11.95C22.0013 9.47075 21.0803 7.07989 19.4171 5.24133C17.7538 3.40277 15.4669 2.24762 13 2V2ZM7.00003 14C6.60447 14 6.21779 13.8827 5.88889 13.6629C5.55999 13.4432 5.30365 13.1308 5.15227 12.7654C5.0009 12.3999 4.96129 11.9978 5.03846 11.6098C5.11563 11.2219 5.30611 10.8655 5.58582 10.5858C5.86552 10.3061 6.22189 10.1156 6.60985 10.0384C6.99781 9.96126 7.39994 10.0009 7.7654 10.1522C8.13085 10.3036 8.44321 10.56 8.66297 10.8889C8.88273 11.2178 9.00003 11.6044 9.00003 12C9.00003 12.5304 8.78932 13.0391 8.41424 13.4142C8.03917 13.7893 7.53046 14 7.00003 14ZM17 14C16.6045 14 16.2178 13.8827 15.8889 13.6629C15.56 13.4432 15.3036 13.1308 15.1523 12.7654C15.0009 12.3999 14.9613 11.9978 15.0385 11.6098C15.1156 11.2219 15.3061 10.8655 15.5858 10.5858C15.8655 10.3061 16.2219 10.1156 16.6098 10.0384C16.9978 9.96126 17.3999 10.0009 17.7654 10.1522C18.1308 10.3036 18.4432 10.56 18.663 10.8889C18.8827 11.2178 19 11.6044 19 12C19 12.5304 18.7893 13.0391 18.4142 13.4142C18.0392 13.7893 17.5305 14 17 14Z" fill="#0F1621"/>
</svg>
