<svg width="24" height="24" viewBox="0 0 24 24" fill="none" xmlns="http://www.w3.org/2000/svg">
<path d="M21.85 7.22C21.61 5.22 20.67 3.46 18.74 2.95C16.5408 2.35815 14.2772 2.03909 12 2V2C9.72083 2.0554 7.45713 2.39126 5.26003 3C3.33003 3.46 2.39003 5.25 2.15003 7.22C1.81162 10.4282 2.01785 13.6705 2.76003 16.81C3.28003 18.28 3.82003 19.72 5.21003 20.41C7.31993 21.458 9.64419 22.0023 12 22V22C14.3525 22.0007 16.6732 21.4565 18.78 20.41C20.17 19.72 20.71 18.28 21.23 16.81C21.9756 13.6711 22.1852 10.4288 21.85 7.22V7.22ZM16.94 5C17.4646 4.99895 17.9698 5.19806 18.3526 5.55669C18.7354 5.91533 18.9669 6.40649 19 6.93C19.019 7.45885 18.8275 7.97365 18.4677 8.36164C18.1078 8.74962 17.6088 8.97917 17.08 9C16.552 9.00618 16.0418 8.80937 15.6548 8.45021C15.2677 8.09106 15.0333 7.59698 15 7.07C14.9966 6.5421 15.1959 6.03302 15.5569 5.64783C15.9179 5.26264 16.413 5.03074 16.94 5V5ZM6.90003 5C7.43145 4.98863 7.9467 5.18311 8.33806 5.54279C8.72942 5.90247 8.96661 6.39951 9.00003 6.93C9.00943 7.19847 8.96465 7.46609 8.86836 7.71688C8.77207 7.96767 8.62624 8.19649 8.43958 8.38969C8.25292 8.58288 8.02925 8.73649 7.78192 8.84135C7.53459 8.94621 7.26867 9.00016 7.00003 9C6.48591 8.98603 5.9956 8.78025 5.62551 8.42311C5.25541 8.06597 5.0323 7.5833 5.00003 7.07C4.99827 6.54922 5.19287 6.04692 5.54503 5.66326C5.89718 5.2796 6.38101 5.04277 6.90003 5V5ZM6.49003 19C6.19508 18.998 5.90728 18.909 5.66261 18.7443C5.41794 18.5796 5.22726 18.3464 5.11443 18.0739C5.0016 17.8013 4.97161 17.5016 5.02822 17.2121C5.08483 16.9227 5.22553 16.6563 5.43272 16.4464C5.6399 16.2364 5.90439 16.0923 6.19309 16.0318C6.48179 15.9714 6.78189 15.9975 7.05587 16.1067C7.32985 16.2159 7.56555 16.4035 7.73348 16.646C7.90141 16.8885 7.99412 17.1751 8.00003 17.47C8.00687 17.6711 7.97264 17.8714 7.89944 18.0588C7.82624 18.2462 7.71559 18.4167 7.57427 18.5599C7.43294 18.7031 7.26391 18.816 7.07749 18.8917C6.89107 18.9673 6.69118 19.0042 6.49003 19ZM12 20C11.6045 20 11.2178 19.8827 10.8889 19.6629C10.56 19.4432 10.3036 19.1308 10.1523 18.7654C10.0009 18.3999 9.96129 17.9978 10.0385 17.6098C10.1156 17.2219 10.3061 16.8655 10.5858 16.5858C10.8655 16.3061 11.2219 16.1156 11.6099 16.0384C11.9978 15.9613 12.3999 16.0009 12.7654 16.1522C13.1309 16.3036 13.4432 16.56 13.663 16.8889C13.8827 17.2178 14 17.6044 14 18C14 18.5304 13.7893 19.0391 13.4142 19.4142C13.0392 19.7893 12.5305 20 12 20ZM17.51 19C17.2142 19.0019 16.9245 18.9163 16.6772 18.754C16.4299 18.5917 16.2361 18.3598 16.1202 18.0877C16.0043 17.8155 15.9715 17.5152 16.0259 17.2244C16.0802 16.9336 16.2193 16.6654 16.4257 16.4535C16.6321 16.2416 16.8965 16.0954 17.1858 16.0334C17.475 15.9714 17.7761 15.9962 18.0512 16.1049C18.3264 16.2135 18.5632 16.4011 18.7321 16.644C18.9009 16.8869 18.9941 17.1743 19 17.47C19.0067 17.6677 18.9737 17.8647 18.903 18.0494C18.8322 18.2341 18.7252 18.4028 18.5881 18.5454C18.4511 18.688 18.2868 18.8018 18.1051 18.8798C17.9234 18.9579 17.7278 18.9988 17.53 19H17.51ZM19.66 14.58C17.247 13.5181 14.6363 12.9796 12 13C9.36123 12.9763 6.74728 13.5113 4.33003 14.57C4.09261 12.9444 3.98227 11.3028 4.00003 9.66C4.38141 10.0772 4.84456 10.4115 5.36067 10.642C5.87678 10.8725 6.43481 10.9944 7.00003 11C7.53126 11.0001 8.05719 10.8943 8.54711 10.689C9.03703 10.4836 9.48113 10.1827 9.8535 9.80379C10.2259 9.42491 10.519 8.97565 10.7159 8.48224C10.9127 7.98883 11.0093 7.46115 11 6.93C10.9925 6.40584 10.8777 5.88877 10.6627 5.41066C10.4477 4.93255 10.1371 4.50352 9.75003 4.15C10.4966 4.05749 11.2478 4.00741 12 4V4C12.7419 4.00896 13.4829 4.05569 14.22 4.14C13.8335 4.5238 13.5267 4.98027 13.3173 5.48313C13.108 5.98598 13.0001 6.52529 13 7.07C13.0314 8.1284 13.476 9.13244 14.2386 9.86702C15.0012 10.6016 16.0212 11.0083 17.08 11C17.6332 11.0039 18.1806 10.8879 18.6847 10.6601C19.1888 10.4322 19.6375 10.0978 20 9.68C20.0165 11.319 19.9095 12.957 19.68 14.58H19.66Z" fill="#0F1621"/>
</svg>
