<svg width="24" height="24" viewBox="0 0 24 24" fill="none" xmlns="http://www.w3.org/2000/svg">
<path d="M18.5 12C18.5 12.2967 18.412 12.5867 18.2472 12.8334C18.0824 13.08 17.8481 13.2723 17.574 13.3858C17.2999 13.4994 16.9983 13.5291 16.7074 13.4712C16.4164 13.4133 16.1491 13.2704 15.9393 13.0607C15.7296 12.8509 15.5867 12.5836 15.5288 12.2926C15.4709 12.0017 15.5007 11.7001 15.6142 11.426C15.7277 11.1519 15.92 10.9176 16.1666 10.7528C16.4133 10.588 16.7033 10.5 17 10.5C17.3978 10.5 17.7794 10.658 18.0607 10.9393C18.342 11.2206 18.5 11.6022 18.5 12ZM7 10.5C6.70333 10.5 6.41332 10.588 6.16665 10.7528C5.91998 10.9176 5.72772 11.1519 5.61419 11.426C5.50065 11.7001 5.47095 12.0017 5.52883 12.2926C5.5867 12.5836 5.72957 12.8509 5.93934 13.0607C6.14912 13.2704 6.4164 13.4133 6.70737 13.4712C6.99834 13.5291 7.29994 13.4994 7.57403 13.3858C7.84812 13.2723 8.08239 13.08 8.24721 12.8334C8.41203 12.5867 8.5 12.2967 8.5 12C8.5 11.6022 8.34197 11.2206 8.06066 10.9393C7.77936 10.658 7.39783 10.5 7 10.5ZM12 2C10.0222 2 8.08879 2.58649 6.4443 3.6853C4.79981 4.78412 3.51809 6.3459 2.76121 8.17317C2.00433 10.0004 1.8063 12.0111 2.19215 13.9509C2.578 15.8907 3.53041 17.6725 4.92894 19.0711C6.32746 20.4696 8.10929 21.422 10.0491 21.8079C11.9889 22.1937 13.9996 21.9957 15.8268 21.2388C17.6541 20.4819 19.2159 19.2002 20.3147 17.5557C21.4135 15.9112 22 13.9778 22 12C22 9.34784 20.9464 6.8043 19.0711 4.92893C17.1957 3.05357 14.6522 2 12 2V2ZM9.7 5.26L10.76 4.2L12 5.44L13.24 4.2L14.3 5.26L13.06 6.5L14.3 7.74L13.24 8.8L12 7.56L10.76 8.8L9.7 7.74L10.94 6.5L9.7 5.26ZM7 15C6.40666 15 5.82664 14.8241 5.33329 14.4944C4.83995 14.1648 4.45543 13.6962 4.22837 13.1481C4.0013 12.5999 3.94189 11.9967 4.05765 11.4147C4.1734 10.8328 4.45913 10.2982 4.87868 9.87868C5.29824 9.45912 5.83279 9.1734 6.41473 9.05764C6.99668 8.94189 7.59988 9.0013 8.14805 9.22836C8.69623 9.45542 9.16477 9.83994 9.49441 10.3333C9.82406 10.8266 10 11.4067 10 12C10 12.7956 9.68393 13.5587 9.12132 14.1213C8.55872 14.6839 7.79565 15 7 15ZM14.3 18.74L13.24 19.8L12 18.56L10.76 19.8L9.7 18.74L10.94 17.5L9.7 16.26L10.76 15.2L12 16.44L13.24 15.2L14.3 16.26L13.06 17.5L14.3 18.74ZM17 15C16.4067 15 15.8266 14.8241 15.3333 14.4944C14.8399 14.1648 14.4554 13.6962 14.2284 13.1481C14.0013 12.5999 13.9419 11.9967 14.0576 11.4147C14.1734 10.8328 14.4591 10.2982 14.8787 9.87868C15.2982 9.45912 15.8328 9.1734 16.4147 9.05764C16.9967 8.94189 17.5999 9.0013 18.1481 9.22836C18.6962 9.45542 19.1648 9.83994 19.4944 10.3333C19.8241 10.8266 20 11.4067 20 12C20 12.7956 19.6839 13.5587 19.1213 14.1213C18.5587 14.6839 17.7957 15 17 15V15Z" fill="#0F1621"/>
</svg>
