<svg width="16" height="16" viewBox="0 0 16 16" fill="none" xmlns="http://www.w3.org/2000/svg">
<path d="M8 1C6.61553 1 5.26216 1.41054 4.11101 2.17971C2.95987 2.94888 2.06266 4.04213 1.53285 5.32122C1.00303 6.6003 0.86441 8.00777 1.13451 9.36563C1.4046 10.7235 2.07129 11.9708 3.05026 12.9497C4.02922 13.9287 5.2765 14.5954 6.63437 14.8655C7.99224 15.1356 9.3997 14.997 10.6788 14.4672C11.9579 13.9373 13.0511 13.0401 13.8203 11.889C14.5895 10.7378 15 9.38447 15 8C15 6.14348 14.2625 4.36301 12.9497 3.05025C11.637 1.7375 9.85652 1 8 1V1ZM5 10H3V7H5V10ZM9 13H7V10H9V13ZM10 5C10 5.53043 9.78929 6.03914 9.41422 6.41421C9.03914 6.78929 8.53044 7 8 7C7.46957 7 6.96086 6.78929 6.58579 6.41421C6.21072 6.03914 6 5.53043 6 5V3H10V5ZM11 10V7H13V10H11Z" fill="#0F1621"/>
</svg>
