<svg width="24" height="24" viewBox="0 0 24 24" fill="none" xmlns="http://www.w3.org/2000/svg">
<path d="M16 16H8C7.20435 16 6.44129 16.3161 5.87868 16.8787C5.31607 17.4413 5 18.2044 5 19C5 19.7957 5.31607 20.5587 5.87868 21.1213C6.44129 21.6839 7.20435 22 8 22H16C16.7957 22 17.5587 21.6839 18.1213 21.1213C18.6839 20.5587 19 19.7957 19 19C19 18.2044 18.6839 17.4413 18.1213 16.8787C17.5587 16.3161 16.7957 16 16 16ZM8 20.5C7.60218 20.5 7.22065 20.342 6.93934 20.0607C6.65804 19.7794 6.5 19.3978 6.5 19C6.5 18.6022 6.65804 18.2206 6.93934 17.9393C7.22065 17.658 7.60218 17.5 8 17.5C8.39783 17.5 8.77936 17.658 9.06066 17.9393C9.34197 18.2206 9.5 18.6022 9.5 19C9.49482 19.3962 9.33513 19.7747 9.05494 20.0549C8.77475 20.3351 8.39622 20.4948 8 20.5V20.5ZM16 20.5C15.6022 20.5 15.2206 20.342 14.9393 20.0607C14.658 19.7794 14.5 19.3978 14.5 19C14.5 18.6022 14.658 18.2206 14.9393 17.9393C15.2206 17.658 15.6022 17.5 16 17.5C16.3978 17.5 16.7794 17.658 17.0607 17.9393C17.342 18.2206 17.5 18.6022 17.5 19C17.4948 19.3962 17.3351 19.7747 17.0549 20.0549C16.7747 20.3351 16.3962 20.4948 16 20.5V20.5ZM19 9C19 7.61553 18.5895 6.26216 17.8203 5.11101C17.0511 3.95987 15.9579 3.06266 14.6788 2.53285C13.3997 2.00303 11.9922 1.86441 10.6344 2.13451C9.2765 2.4046 8.02922 3.07129 7.05026 4.05026C6.07129 5.02922 5.4046 6.2765 5.13451 7.63437C4.86441 8.99224 5.00303 10.3997 5.53285 11.6788C6.06266 12.9579 6.95987 14.0511 8.11101 14.8203C9.26216 15.5895 10.6155 16 12 16C13.8565 16 15.637 15.2625 16.9497 13.9497C18.2625 12.637 19 10.8565 19 9V9ZM8 12C7.73479 12 7.48043 11.8946 7.2929 11.7071C7.10536 11.5196 7 11.2652 7 11C7 10.7348 7.10536 10.4804 7.2929 10.2929C7.48043 10.1054 7.73479 10 8 10C8.26522 10 8.51957 10.1054 8.70711 10.2929C8.89465 10.4804 9 10.7348 9 11C9 11.2652 8.89465 11.5196 8.70711 11.7071C8.51957 11.8946 8.26522 12 8 12ZM8 6.5C8 6.10218 8.15804 5.72065 8.43934 5.43934C8.72065 5.15804 9.10218 5 9.5 5C9.89783 5 10.2794 5.15804 10.5607 5.43934C10.842 5.72065 11 6.10218 11 6.5C10.9948 6.89622 10.8351 7.27475 10.5549 7.55494C10.2747 7.83513 9.89622 7.99482 9.5 8C9.10218 8 8.72065 7.84197 8.43934 7.56066C8.15804 7.27936 8 6.89783 8 6.5ZM12 14C11.6022 14 11.2206 13.842 10.9393 13.5607C10.658 13.2794 10.5 12.8978 10.5 12.5C10.5 12.1022 10.658 11.7206 10.9393 11.4393C11.2206 11.158 11.6022 11 12 11C12.3978 11 12.7794 11.158 13.0607 11.4393C13.342 11.7206 13.5 12.1022 13.5 12.5C13.4948 12.8962 13.3351 13.2747 13.0549 13.5549C12.7747 13.8351 12.3962 13.9948 12 14V14ZM13 6.5C13 6.10218 13.158 5.72065 13.4393 5.43934C13.7206 5.15804 14.1022 5 14.5 5C14.8978 5 15.2794 5.15804 15.5607 5.43934C15.842 5.72065 16 6.10218 16 6.5C15.9948 6.89622 15.8351 7.27475 15.5549 7.55494C15.2747 7.83513 14.8962 7.99482 14.5 8C14.1022 8 13.7206 7.84197 13.4393 7.56066C13.158 7.27936 13 6.89783 13 6.5V6.5ZM16 12C15.7348 12 15.4804 11.8946 15.2929 11.7071C15.1054 11.5196 15 11.2652 15 11C15 10.7348 15.1054 10.4804 15.2929 10.2929C15.4804 10.1054 15.7348 10 16 10C16.2652 10 16.5196 10.1054 16.7071 10.2929C16.8946 10.4804 17 10.7348 17 11C17 11.2652 16.8946 11.5196 16.7071 11.7071C16.5196 11.8946 16.2652 12 16 12Z" fill="#0F1621"/>
</svg>
