<svg width="16" height="16" viewBox="0 0 16 16" fill="none" xmlns="http://www.w3.org/2000/svg">
<path d="M9.00003 1V2.92H7.00003V1C5.34551 1.25231 3.83615 2.08906 2.74555 3.35858C1.65495 4.6281 1.0553 6.24636 1.0553 7.92C1.0553 9.59364 1.65495 11.2119 2.74555 12.4814C3.83615 13.7509 5.34551 14.5877 7.00003 14.84V12.92H9.00003V14.84C10.6545 14.5877 12.1639 13.7509 13.2545 12.4814C14.3451 11.2119 14.9448 9.59364 14.9448 7.92C14.9448 6.24636 14.3451 4.6281 13.2545 3.35858C12.1639 2.08906 10.6545 1.25231 9.00003 1V1ZM5.20003 9.32C4.92313 9.32 4.65246 9.23789 4.42223 9.08406C4.192 8.93022 4.01256 8.71157 3.90659 8.45576C3.80063 8.19994 3.77291 7.91845 3.82693 7.64687C3.88095 7.3753 4.01428 7.12584 4.21008 6.93005C4.40587 6.73426 4.65533 6.60092 4.9269 6.5469C5.19847 6.49288 5.47997 6.52061 5.73578 6.62657C5.9916 6.73253 6.21025 6.91197 6.36408 7.1422C6.51792 7.37243 6.60003 7.64311 6.60003 7.92C6.60003 8.2913 6.45253 8.6474 6.18997 8.90995C5.92742 9.1725 5.57133 9.32 5.20003 9.32V9.32ZM10.8 9.32C10.5231 9.32 10.2525 9.23789 10.0222 9.08406C9.792 8.93022 9.61256 8.71157 9.50659 8.45576C9.40063 8.19994 9.37291 7.91845 9.42693 7.64687C9.48095 7.3753 9.61428 7.12584 9.81008 6.93005C10.0059 6.73426 10.2553 6.60092 10.5269 6.5469C10.7985 6.49288 11.08 6.52061 11.3358 6.62657C11.5916 6.73253 11.8102 6.91197 11.9641 7.1422C12.1179 7.37243 12.2 7.64311 12.2 7.92C12.2 8.10385 12.1638 8.2859 12.0935 8.45576C12.0231 8.62561 11.92 8.77995 11.79 8.90995C11.66 9.03995 11.5056 9.14307 11.3358 9.21343C11.1659 9.28379 10.9839 9.32 10.8 9.32Z" fill="#0F1621"/>
</svg>
