<svg width="16" height="16" viewBox="0 0 16 16" fill="none" xmlns="http://www.w3.org/2000/svg">
<path d="M13.09 1.41999C12.7953 1.1432 12.4042 0.992488 12 0.999993H4C3.5958 0.992488 3.20466 1.1432 2.91 1.41999C2.00364 2.26176 1.27821 3.27929 0.777906 4.41055C0.277606 5.54181 0.0129259 6.76311 0 7.99999C0.0129259 9.23688 0.277606 10.4582 0.777906 11.5894C1.27821 12.7207 2.00364 13.7382 2.91 14.58C3.20466 14.8568 3.5958 15.0075 4 15H12C12.4042 15.0075 12.7953 14.8568 13.09 14.58C13.9964 13.7382 14.7218 12.7207 15.2221 11.5894C15.7224 10.4582 15.9871 9.23688 16 7.99999C15.9871 6.76311 15.7224 5.54181 15.2221 4.41055C14.7218 3.27929 13.9964 2.26176 13.09 1.41999V1.41999ZM6 7.99999H4V2.99999H6V7.99999ZM9.5 13H6.5V11.46C6.5 11.0622 6.65804 10.6806 6.93934 10.3993C7.22064 10.118 7.60218 9.95999 8 9.95999C8.39782 9.95999 8.77936 10.118 9.06066 10.3993C9.34196 10.6806 9.5 11.0622 9.5 11.46V13ZM12 5.99999H10V2.99999H12V5.99999Z" fill="#0F1621"/>
</svg>
