<svg width="24" height="24" viewBox="0 0 24 24" fill="none" xmlns="http://www.w3.org/2000/svg">
<path d="M12 4C13.5823 4 15.129 4.46919 16.4446 5.34824C17.7602 6.22729 18.7855 7.47672 19.391 8.93853C19.9965 10.4003 20.155 12.0089 19.8463 13.5607C19.5376 15.1126 18.7757 16.538 17.6569 17.6569C16.538 18.7757 15.1126 19.5376 13.5607 19.8463C12.0089 20.155 10.4003 19.9965 8.93854 19.391C7.47673 18.7855 6.2273 17.7602 5.34825 16.4446C4.4692 15.129 4 13.5823 4 12C4 9.87827 4.84286 7.84344 6.34315 6.34315C7.84344 4.84285 9.87827 4 12 4V4ZM12 2C10.0222 2 8.08879 2.58649 6.4443 3.6853C4.79981 4.78412 3.51809 6.3459 2.76121 8.17317C2.00433 10.0004 1.8063 12.0111 2.19215 13.9509C2.578 15.8907 3.53041 17.6725 4.92894 19.0711C6.32746 20.4696 8.10929 21.422 10.0491 21.8079C11.9889 22.1937 13.9996 21.9957 15.8268 21.2388C17.6541 20.4819 19.2159 19.2002 20.3147 17.5557C21.4135 15.9112 22 13.9778 22 12C22 9.34784 20.9464 6.8043 19.0711 4.92893C17.1957 3.05357 14.6522 2 12 2V2ZM16 15C16.3956 15 16.7822 14.8827 17.1111 14.6629C17.44 14.4432 17.6964 14.1308 17.8478 13.7654C17.9991 13.3999 18.0387 12.9978 17.9616 12.6098C17.8844 12.2219 17.6939 11.8655 17.4142 11.5858C17.1345 11.3061 16.7781 11.1156 16.3902 11.0384C16.0022 10.9613 15.6001 11.0009 15.2346 11.1522C14.8692 11.3036 14.5568 11.56 14.3371 11.8889C14.1173 12.2178 14 12.6044 14 13C14 13.5304 14.2107 14.0391 14.5858 14.4142C14.9609 14.7893 15.4696 15 16 15ZM12 9.5C12.2967 9.5 12.5867 9.41203 12.8334 9.2472C13.08 9.08238 13.2723 8.84811 13.3858 8.57403C13.4994 8.29994 13.5291 7.99834 13.4712 7.70736C13.4133 7.41639 13.2704 7.14912 13.0607 6.93934C12.8509 6.72956 12.5836 6.5867 12.2926 6.52882C12.0017 6.47094 11.7001 6.50065 11.426 6.61418C11.1519 6.72771 10.9176 6.91997 10.7528 7.16664C10.588 7.41332 10.5 7.70333 10.5 8C10.5 8.39782 10.658 8.77936 10.9393 9.06066C11.2206 9.34196 11.6022 9.5 12 9.5ZM8 15C8.39557 15 8.78225 14.8827 9.11114 14.6629C9.44004 14.4432 9.69639 14.1308 9.84776 13.7654C9.99914 13.3999 10.0387 12.9978 9.96158 12.6098C9.8844 12.2219 9.69392 11.8655 9.41422 11.5858C9.13451 11.3061 8.77815 11.1156 8.39018 11.0384C8.00222 10.9613 7.60009 11.0009 7.23464 11.1522C6.86919 11.3036 6.55683 11.56 6.33707 11.8889C6.1173 12.2178 6 12.6044 6 13C6 13.5304 6.21072 14.0391 6.58579 14.4142C6.96086 14.7893 7.46957 15 8 15Z" fill="#0F1621"/>
</svg>
