<svg width="16" height="16" viewBox="0 0 16 16" fill="none" xmlns="http://www.w3.org/2000/svg">
<path d="M13.59 2H2.41C1.48797 3.48272 0.999533 5.19398 1 6.94C1 8.79652 1.7375 10.577 3.05025 11.8897C4.36301 13.2025 6.14349 13.94 8 13.94C9.85652 13.94 11.637 13.2025 12.9497 11.8897C14.2625 10.577 15 8.79652 15 6.94C15.0005 5.19398 14.512 3.48272 13.59 2V2ZM10 4H11V5H10V4ZM5 4H6V5H5V4ZM4 8C3.80222 8 3.60888 7.94135 3.44443 7.83147C3.27998 7.72159 3.15181 7.56541 3.07612 7.38268C3.00043 7.19996 2.98063 6.99889 3.01921 6.80491C3.0578 6.61093 3.15304 6.43275 3.29289 6.29289C3.43275 6.15304 3.61093 6.0578 3.80491 6.01921C3.99889 5.98063 4.19996 6.00043 4.38268 6.07612C4.56541 6.15181 4.72159 6.27998 4.83147 6.44443C4.94135 6.60888 5 6.80222 5 7C5 7.26522 4.89464 7.51957 4.70711 7.70711C4.51957 7.89464 4.26522 8 4 8ZM6 11C5.80222 11 5.60888 10.9414 5.44443 10.8315C5.27998 10.7216 5.15181 10.5654 5.07612 10.3827C5.00043 10.2 4.98063 9.99889 5.01922 9.80491C5.0578 9.61093 5.15304 9.43275 5.29289 9.29289C5.43275 9.15304 5.61093 9.0578 5.80491 9.01921C5.99889 8.98063 6.19996 9.00043 6.38268 9.07612C6.56541 9.15181 6.72159 9.27998 6.83147 9.44443C6.94135 9.60888 7 9.80222 7 10C7 10.2652 6.89464 10.5196 6.70711 10.7071C6.51957 10.8946 6.26522 11 6 11ZM8 8C7.80222 8 7.60888 7.94135 7.44443 7.83147C7.27998 7.72159 7.15181 7.56541 7.07612 7.38268C7.00043 7.19996 6.98063 6.99889 7.01922 6.80491C7.0578 6.61093 7.15304 6.43275 7.29289 6.29289C7.43275 6.15304 7.61093 6.0578 7.80491 6.01921C7.99889 5.98063 8.19996 6.00043 8.38268 6.07612C8.56541 6.15181 8.72159 6.27998 8.83147 6.44443C8.94135 6.60888 9 6.80222 9 7C9 7.26522 8.89464 7.51957 8.70711 7.70711C8.51957 7.89464 8.26522 8 8 8ZM10 11C9.80222 11 9.60888 10.9414 9.44443 10.8315C9.27998 10.7216 9.15181 10.5654 9.07612 10.3827C9.00043 10.2 8.98063 9.99889 9.01921 9.80491C9.0578 9.61093 9.15304 9.43275 9.29289 9.29289C9.43275 9.15304 9.61093 9.0578 9.80491 9.01921C9.99889 8.98063 10.2 9.00043 10.3827 9.07612C10.5654 9.15181 10.7216 9.27998 10.8315 9.44443C10.9414 9.60888 11 9.80222 11 10C11 10.2652 10.8946 10.5196 10.7071 10.7071C10.5196 10.8946 10.2652 11 10 11ZM12 8C11.8022 8 11.6089 7.94135 11.4444 7.83147C11.28 7.72159 11.1518 7.56541 11.0761 7.38268C11.0004 7.19996 10.9806 6.99889 11.0192 6.80491C11.0578 6.61093 11.153 6.43275 11.2929 6.29289C11.4327 6.15304 11.6109 6.0578 11.8049 6.01921C11.9989 5.98063 12.2 6.00043 12.3827 6.07612C12.5654 6.15181 12.7216 6.27998 12.8315 6.44443C12.9414 6.60888 13 6.80222 13 7C13 7.26522 12.8946 7.51957 12.7071 7.70711C12.5196 7.89464 12.2652 8 12 8Z" fill="#0F1621"/>
</svg>
