<svg width="24" height="24" viewBox="0 0 24 24" fill="none" xmlns="http://www.w3.org/2000/svg">
<path d="M12 4C13.5823 4 15.129 4.46919 16.4446 5.34824C17.7602 6.22729 18.7855 7.47672 19.391 8.93853C19.9965 10.4003 20.155 12.0089 19.8463 13.5607C19.5376 15.1126 18.7757 16.538 17.6569 17.6569C16.538 18.7757 15.1126 19.5376 13.5607 19.8463C12.0089 20.155 10.4003 19.9965 8.93854 19.391C7.47673 18.7855 6.2273 17.7602 5.34825 16.4446C4.4692 15.129 4 13.5823 4 12C4 9.87827 4.84286 7.84344 6.34315 6.34315C7.84344 4.84285 9.87827 4 12 4V4ZM12 2C10.0222 2 8.08879 2.58649 6.4443 3.6853C4.79981 4.78412 3.51809 6.3459 2.76121 8.17317C2.00433 10.0004 1.8063 12.0111 2.19215 13.9509C2.578 15.8907 3.53041 17.6725 4.92894 19.0711C6.32746 20.4696 8.10929 21.422 10.0491 21.8079C11.9889 22.1937 13.9996 21.9957 15.8268 21.2388C17.6541 20.4819 19.2159 19.2002 20.3147 17.5557C21.4135 15.9112 22 13.9778 22 12C22 9.34784 20.9464 6.8043 19.0711 4.92893C17.1957 3.05357 14.6522 2 12 2V2ZM8.5 8.5C8.69779 8.5 8.89113 8.55865 9.05557 8.66853C9.22002 8.77841 9.3482 8.93459 9.42388 9.11732C9.49957 9.30004 9.51937 9.50111 9.48079 9.69509C9.4422 9.88907 9.34696 10.0673 9.20711 10.2071C9.06726 10.347 8.88908 10.4422 8.69509 10.4808C8.50111 10.5194 8.30005 10.4996 8.11732 10.4239C7.93459 10.3482 7.77842 10.22 7.66853 10.0556C7.55865 9.89112 7.5 9.69778 7.5 9.5C7.5 9.23478 7.60536 8.98043 7.7929 8.79289C7.98043 8.60536 8.23479 8.5 8.5 8.5V8.5ZM8.5 7C8.00555 7 7.5222 7.14662 7.11108 7.42133C6.69996 7.69603 6.37952 8.08648 6.19031 8.54329C6.00109 9.00011 5.95158 9.50277 6.04804 9.98773C6.1445 10.4727 6.38261 10.9181 6.73224 11.2678C7.08187 11.6174 7.52733 11.8555 8.01228 11.952C8.49723 12.0484 8.9999 11.9989 9.45671 11.8097C9.91353 11.6205 10.304 11.3 10.5787 10.8889C10.8534 10.4778 11 9.99445 11 9.5C11 8.83696 10.7366 8.20107 10.2678 7.73223C9.79893 7.26339 9.16305 7 8.5 7ZM12 14.5C12.1978 14.5 12.3911 14.5586 12.5556 14.6685C12.72 14.7784 12.8482 14.9346 12.9239 15.1173C12.9996 15.3 13.0194 15.5011 12.9808 15.6951C12.9422 15.8891 12.847 16.0673 12.7071 16.2071C12.5673 16.347 12.3891 16.4422 12.1951 16.4808C12.0011 16.5194 11.8 16.4996 11.6173 16.4239C11.4346 16.3482 11.2784 16.22 11.1685 16.0556C11.0587 15.8911 11 15.6978 11 15.5C11 15.2348 11.1054 14.9804 11.2929 14.7929C11.4804 14.6054 11.7348 14.5 12 14.5V14.5ZM12 13C11.5056 13 11.0222 13.1466 10.6111 13.4213C10.2 13.696 9.87952 14.0865 9.69031 14.5433C9.50109 15.0001 9.45158 15.5028 9.54804 15.9877C9.6445 16.4727 9.88261 16.9181 10.2322 17.2678C10.5819 17.6174 11.0273 17.8555 11.5123 17.952C11.9972 18.0484 12.4999 17.9989 12.9567 17.8097C13.4135 17.6205 13.804 17.3 14.0787 16.8889C14.3534 16.4778 14.5 15.9945 14.5 15.5C14.5 14.837 14.2366 14.2011 13.7678 13.7322C13.2989 13.2634 12.663 13 12 13ZM7.5 16C7.79668 16 8.08669 15.912 8.33336 15.7472C8.58003 15.5824 8.77229 15.3481 8.88582 15.074C8.99936 14.7999 9.02906 14.4983 8.97118 14.2074C8.9133 13.9164 8.77044 13.6491 8.56066 13.4393C8.35089 13.2296 8.08361 13.0867 7.79264 13.0288C7.50167 12.9709 7.20007 13.0006 6.92598 13.1142C6.65189 13.2277 6.41762 13.42 6.2528 13.6666C6.08798 13.9133 6 14.2033 6 14.5C6 14.8978 6.15804 15.2794 6.43934 15.5607C6.72065 15.842 7.10218 16 7.5 16V16ZM16.5 16C16.7967 16 17.0867 15.912 17.3334 15.7472C17.58 15.5824 17.7723 15.3481 17.8858 15.074C17.9994 14.7999 18.0291 14.4983 17.9712 14.2074C17.9133 13.9164 17.7704 13.6491 17.5607 13.4393C17.3509 13.2296 17.0836 13.0867 16.7926 13.0288C16.5017 12.9709 16.2001 13.0006 15.926 13.1142C15.6519 13.2277 15.4176 13.42 15.2528 13.6666C15.088 13.9133 15 14.2033 15 14.5C15 14.8978 15.158 15.2794 15.4393 15.5607C15.7206 15.842 16.1022 16 16.5 16V16ZM15.5 8.5C15.6978 8.5 15.8911 8.55865 16.0556 8.66853C16.22 8.77841 16.3482 8.93459 16.4239 9.11732C16.4996 9.30004 16.5194 9.50111 16.4808 9.69509C16.4422 9.88907 16.347 10.0673 16.2071 10.2071C16.0673 10.347 15.8891 10.4422 15.6951 10.4808C15.5011 10.5194 15.3 10.4996 15.1173 10.4239C14.9346 10.3482 14.7784 10.22 14.6685 10.0556C14.5587 9.89112 14.5 9.69778 14.5 9.5C14.5 9.23478 14.6054 8.98043 14.7929 8.79289C14.9804 8.60536 15.2348 8.5 15.5 8.5V8.5ZM15.5 7C15.0056 7 14.5222 7.14662 14.1111 7.42133C13.7 7.69603 13.3795 8.08648 13.1903 8.54329C13.0011 9.00011 12.9516 9.50277 13.048 9.98773C13.1445 10.4727 13.3826 10.9181 13.7322 11.2678C14.0819 11.6174 14.5273 11.8555 15.0123 11.952C15.4972 12.0484 15.9999 11.9989 16.4567 11.8097C16.9135 11.6205 17.304 11.3 17.5787 10.8889C17.8534 10.4778 18 9.99445 18 9.5C18 8.83696 17.7366 8.20107 17.2678 7.73223C16.7989 7.26339 16.163 7 15.5 7Z" fill="#0F1621"/>
</svg>
