<svg width="16" height="16" viewBox="0 0 16 16" fill="none" xmlns="http://www.w3.org/2000/svg">
<path d="M12.86 1.46002C9.72973 0.846658 6.5102 0.846658 3.37996 1.46002C2.71601 1.60015 2.11918 1.96123 1.68691 2.48431C1.25464 3.00739 1.01248 3.66156 0.999962 4.34002C0.954861 6.96084 1.18952 9.579 1.69996 12.15C1.80941 12.7268 2.08566 13.2587 2.49449 13.68C2.90332 14.1013 3.42676 14.3933 3.99996 14.52C5.35062 14.8359 6.73286 14.9969 8.11996 15C9.51702 14.9978 10.9093 14.8368 12.27 14.52C12.839 14.3875 13.3569 14.0916 13.7602 13.6688C14.1634 13.246 14.4345 12.7147 14.54 12.14C15.0509 9.56906 15.2855 6.95086 15.24 4.33002C15.2252 3.6533 14.982 3.00144 14.5499 2.4804C14.1179 1.95936 13.5223 1.59975 12.86 1.46002V1.46002ZM12.07 4.00002C12.3352 4.00002 12.5895 4.10538 12.7771 4.29292C12.9646 4.48045 13.07 4.73481 13.07 5.00002C13.0703 5.2568 12.9718 5.50386 12.795 5.69002C12.6181 5.87619 12.3764 5.98719 12.12 6.00002C11.9845 6.00681 11.8491 5.98596 11.7219 5.93875C11.5947 5.89154 11.4785 5.81896 11.3803 5.72541C11.2821 5.63187 11.2039 5.51932 11.1506 5.39462C11.0972 5.26992 11.0698 5.13566 11.07 5.00002C11.07 4.73481 11.1753 4.48045 11.3629 4.29292C11.5504 4.10538 11.8047 4.00002 12.07 4.00002V4.00002ZM4.06996 4.00002C4.20543 3.99324 4.34086 4.01409 4.46802 4.0613C4.59517 4.10851 4.7114 4.18109 4.80962 4.27464C4.90784 4.36818 4.986 4.48073 5.03935 4.60543C5.09271 4.73013 5.12013 4.86439 5.11996 5.00002C5.11996 5.26524 5.0146 5.5196 4.82707 5.70713C4.63953 5.89467 4.38518 6.00002 4.11996 6.00002C3.85475 6.00002 3.60039 5.89467 3.41286 5.70713C3.22532 5.5196 3.11996 5.26524 3.11996 5.00002C3.11964 4.74325 3.21811 4.49619 3.39496 4.31002C3.57182 4.12386 3.81351 4.01286 4.06996 4.00002V4.00002ZM4.13996 13C3.94218 13 3.74884 12.9414 3.58439 12.8315C3.41994 12.7216 3.29177 12.5654 3.21608 12.3827C3.14039 12.2 3.12059 11.9989 3.15918 11.8049C3.19776 11.611 3.293 11.4328 3.43286 11.2929C3.57271 11.1531 3.75089 11.0578 3.94487 11.0192C4.13885 10.9807 4.33992 11.0005 4.52265 11.0761C4.70537 11.1518 4.86155 11.28 4.97143 11.4445C5.08131 11.6089 5.13996 11.8022 5.13996 12C5.13996 12.1313 5.1141 12.2614 5.06384 12.3827C5.01359 12.504 4.93993 12.6143 4.84707 12.7071C4.75421 12.8 4.64397 12.8736 4.52265 12.9239C4.40132 12.9742 4.27128 13 4.13996 13ZM8.13996 13C7.84337 13.0059 7.5517 12.9237 7.30183 12.7638C7.05195 12.6039 6.8551 12.3736 6.73614 12.1018C6.61719 11.8301 6.58149 11.5291 6.63355 11.2371C6.6856 10.945 6.82309 10.675 7.02861 10.4611C7.23414 10.2472 7.49847 10.099 7.7882 10.0353C8.07793 9.97161 8.38004 9.99525 8.65633 10.1032C8.93262 10.2112 9.17069 10.3987 9.34043 10.642C9.51017 10.8853 9.60397 11.1734 9.60996 11.47C9.61663 11.6669 9.58394 11.8631 9.51381 12.0471C9.44368 12.2312 9.33751 12.3994 9.20154 12.5419C9.06556 12.6844 8.90251 12.7983 8.72194 12.877C8.54137 12.9556 8.34691 12.9975 8.14996 13H8.13996ZM12.14 13C11.9422 13 11.7488 12.9414 11.5844 12.8315C11.4199 12.7216 11.2918 12.5654 11.2161 12.3827C11.1404 12.2 11.1206 11.9989 11.1592 11.8049C11.1978 11.611 11.293 11.4328 11.4329 11.2929C11.5727 11.1531 11.7509 11.0578 11.9449 11.0192C12.1389 10.9807 12.3399 11.0005 12.5226 11.0761C12.7054 11.1518 12.8616 11.28 12.9714 11.4445C13.0813 11.6089 13.14 11.8022 13.14 12C13.14 12.2652 13.0346 12.5196 12.8471 12.7071C12.6595 12.8947 12.4052 13 12.14 13ZM12.86 10.1C11.3936 9.35139 9.76613 8.9737 8.11996 9.00002C6.47686 8.97247 4.8523 9.35028 3.38996 10.1C3.27996 9.34003 3.17996 8.57002 3.11996 7.80002C3.43976 7.92216 3.77779 7.98976 4.11996 8.00002C4.91561 8.00002 5.67867 7.68395 6.24128 7.12135C6.80389 6.55874 7.11996 5.79567 7.11996 5.00002C7.12087 4.29386 6.86497 3.61147 6.39996 3.08002C6.99996 3.00002 7.54996 3.00002 8.11996 3.00002C8.68996 3.00002 9.26996 3.00002 9.84996 3.08002C9.37966 3.64048 9.12127 4.34839 9.11996 5.08002C9.11991 5.47823 9.19913 5.87247 9.35301 6.23974C9.50689 6.60702 9.73235 6.93998 10.0162 7.21922C10.3001 7.49846 10.6368 7.71839 11.0066 7.86618C11.3763 8.01397 11.7718 8.08666 12.17 8.08002C12.4939 8.07663 12.815 8.01917 13.12 7.91002C13.06 8.59002 13 9.34003 12.86 10.1V10.1Z" fill="#0F1621"/>
</svg>
