<svg xmlns="http://www.w3.org/2000/svg" viewBox="0 0 24 24"><defs><style>.cls-1{fill:none;}</style></defs><g id="Layer_2" data-name="Layer 2"><g id="UI_Solid" data-name="UI Solid"><g id="poop"><rect class="cls-1" width="24" height="24"/><path d="M20,16V13.72a2,2,0,0,0-2-2h0a.9.9,0,0,0,0-.23V9.65a2,2,0,0,0-2-2h0V7a5,5,0,0,0-5-5L9.38,5.31a2,2,0,0,1-1.22,1l-.73.22A2,2,0,0,0,6,8.49v1.94l-.55.16A2,2,0,0,0,4,12.51v3.16a.88.88,0,0,0,.06.33H4a2,2,0,0,0-2,2v2a2,2,0,0,0,2,2H20a2,2,0,0,0,2-2V18A2,2,0,0,0,20,16ZM9,17a1,1,0,1,1,1-1A1,1,0,0,1,9,17Zm4,0a1,1,0,1,1,1-1A1,1,0,0,1,13,17Z"/></g></g></g></svg>