<svg width="24" height="24" viewBox="0 0 24 24" fill="none" xmlns="http://www.w3.org/2000/svg">
<path d="M20 16V13.72C20 13.1896 19.7893 12.6809 19.4142 12.3058C19.0391 11.9307 18.5304 11.72 18 11.72C18.0098 11.6436 18.0098 11.5664 18 11.49V9.65C18 9.11957 17.7893 8.61086 17.4142 8.23579C17.0391 7.86071 16.5304 7.65 16 7.65V7C16 5.67392 15.4732 4.40215 14.5355 3.46447C13.5979 2.52678 12.3261 2 11 2L9.38 5.31C9.25506 5.55069 9.08249 5.76345 8.87276 5.93536C8.66303 6.10727 8.42053 6.23473 8.16 6.31L7.43 6.53C7.00979 6.65483 6.64222 6.91427 6.38385 7.2684C6.12548 7.62253 5.99062 8.05174 6 8.49V10.43L5.45 10.59C5.03271 10.7094 4.66557 10.9612 4.404 11.3076C4.14243 11.6539 4.00063 12.076 4 12.51V15.67C3.99866 15.7828 4.01903 15.8949 4.06 16H4C3.46957 16 2.96086 16.2107 2.58579 16.5858C2.21071 16.9609 2 17.4696 2 18V20C2 20.5304 2.21071 21.0391 2.58579 21.4142C2.96086 21.7893 3.46957 22 4 22H20C20.5304 22 21.0391 21.7893 21.4142 21.4142C21.7893 21.0391 22 20.5304 22 20V18C22 17.4696 21.7893 16.9609 21.4142 16.5858C21.0391 16.2107 20.5304 16 20 16ZM9 17C8.80222 17 8.60888 16.9414 8.44443 16.8315C8.27998 16.7216 8.15181 16.5654 8.07612 16.3827C8.00043 16.2 7.98063 15.9989 8.01921 15.8049C8.0578 15.6109 8.15304 15.4327 8.29289 15.2929C8.43275 15.153 8.61093 15.0578 8.80491 15.0192C8.99889 14.9806 9.19996 15.0004 9.38268 15.0761C9.56541 15.1518 9.72159 15.28 9.83147 15.4444C9.94135 15.6089 10 15.8022 10 16C10 16.2652 9.89464 16.5196 9.70711 16.7071C9.51957 16.8946 9.26522 17 9 17ZM13 17C12.8022 17 12.6089 16.9414 12.4444 16.8315C12.28 16.7216 12.1518 16.5654 12.0761 16.3827C12.0004 16.2 11.9806 15.9989 12.0192 15.8049C12.0578 15.6109 12.153 15.4327 12.2929 15.2929C12.4327 15.153 12.6109 15.0578 12.8049 15.0192C12.9989 14.9806 13.2 15.0004 13.3827 15.0761C13.5654 15.1518 13.7216 15.28 13.8315 15.4444C13.9414 15.6089 14 15.8022 14 16C14 16.2652 13.8946 16.5196 13.7071 16.7071C13.5196 16.8946 13.2652 17 13 17Z" fill="#0F1621"/>
</svg>
