<svg width="24" height="24" viewBox="0 0 24 24" fill="none" xmlns="http://www.w3.org/2000/svg">
<path d="M12.14 4.22C12.5129 4.36875 12.8527 4.58964 13.14 4.87C13.4162 5.15114 13.6344 5.48395 13.7819 5.84943C13.9295 6.2149 14.0036 6.60588 14 7V7.65V9.65H15C15.2652 9.65 15.5196 9.75536 15.7071 9.94289C15.8946 10.1304 16 10.3848 16 10.65V14H17C17.2652 14 17.5196 14.1054 17.7071 14.2929C17.8946 14.4804 18 14.7348 18 15V18H19C19.2652 18 19.5196 18.1054 19.7071 18.2929C19.8946 18.4804 20 18.7348 20 19V20H4V19C4 18.7348 4.10536 18.4804 4.29289 18.2929C4.48043 18.1054 4.73478 18 5 18H6V13.26C5.99112 13.0369 6.05719 12.8172 6.18767 12.6359C6.31816 12.4547 6.50556 12.3224 6.72 12.26L8 11.93V8.48L8.72 8.27C9.25001 8.11156 9.74138 7.8449 10.1631 7.48688C10.5848 7.12886 10.9276 6.68727 11.17 6.19L12.17 4.19L12.14 4.22ZM11 2L9.38 5.31C9.25506 5.55069 9.08249 5.76345 8.87276 5.93536C8.66303 6.10727 8.42053 6.23473 8.16 6.31L7.43 6.53C7.00979 6.65483 6.64222 6.91427 6.38385 7.2684C6.12548 7.62253 5.99062 8.05174 6 8.49V10.43L5.45 10.59C5.03271 10.7094 4.66557 10.9612 4.404 11.3076C4.14243 11.6539 4.00063 12.076 4 12.51V15.67C3.99866 15.7828 4.01903 15.8949 4.06 16H4C3.46957 16 2.96086 16.2107 2.58579 16.5858C2.21071 16.9609 2 17.4696 2 18V20C2 20.5304 2.21071 21.0391 2.58579 21.4142C2.96086 21.7893 3.46957 22 4 22H20C20.5304 22 21.0391 21.7893 21.4142 21.4142C21.7893 21.0391 22 20.5304 22 20V18C22 17.4696 21.7893 16.9609 21.4142 16.5858C21.0391 16.2107 20.5304 16 20 16V13.72C20 13.1896 19.7893 12.6809 19.4142 12.3058C19.0391 11.9307 18.5304 11.72 18 11.72C18.0098 11.6436 18.0098 11.5664 18 11.49V9.65C18 9.11957 17.7893 8.61086 17.4142 8.23579C17.0391 7.86071 16.5304 7.65 16 7.65V7C16 5.67392 15.4732 4.40215 14.5355 3.46447C13.5979 2.52678 12.3261 2 11 2ZM9 15C8.80222 15 8.60888 15.0586 8.44443 15.1685C8.27998 15.2784 8.15181 15.4346 8.07612 15.6173C8.00043 15.8 7.98063 16.0011 8.01921 16.1951C8.0578 16.3891 8.15304 16.5673 8.29289 16.7071C8.43275 16.847 8.61093 16.9422 8.80491 16.9808C8.99889 17.0194 9.19996 16.9996 9.38268 16.9239C9.56541 16.8482 9.72159 16.72 9.83147 16.5556C9.94135 16.3911 10 16.1978 10 16C10 15.7348 9.89464 15.4804 9.70711 15.2929C9.51957 15.1054 9.26522 15 9 15ZM13 15C12.8022 15 12.6089 15.0586 12.4444 15.1685C12.28 15.2784 12.1518 15.4346 12.0761 15.6173C12.0004 15.8 11.9806 16.0011 12.0192 16.1951C12.0578 16.3891 12.153 16.5673 12.2929 16.7071C12.4327 16.847 12.6109 16.9422 12.8049 16.9808C12.9989 17.0194 13.2 16.9996 13.3827 16.9239C13.5654 16.8482 13.7216 16.72 13.8315 16.5556C13.9414 16.3911 14 16.1978 14 16C14 15.7348 13.8946 15.4804 13.7071 15.2929C13.5196 15.1054 13.2652 15 13 15Z" fill="#0F1621"/>
</svg>
