<svg width="24" height="24" viewBox="0 0 24 24" fill="none" xmlns="http://www.w3.org/2000/svg">
<path d="M14.82 3.99998C14.6098 3.42082 14.2264 2.92044 13.7218 2.56682C13.2173 2.2132 12.6161 2.0235 12 2.0235C11.3839 2.0235 10.7827 2.2132 10.2782 2.56682C9.77363 2.92044 9.3902 3.42082 9.18 3.99998H2V20C2 20.5304 2.21071 21.0391 2.58579 21.4142C2.96086 21.7893 3.46957 22 4 22H20C20.5304 22 21.0391 21.7893 21.4142 21.4142C21.7893 21.0391 22 20.5304 22 20V3.99998H14.82ZM12 18H7V16H12V18ZM17 14H7V12H17V14ZM17 9.99998H7V7.99998H17V9.99998Z" fill="#0F1621"/>
</svg>
