<svg width="24" height="24" viewBox="0 0 24 24" fill="none" xmlns="http://www.w3.org/2000/svg">
<path d="M18 16V4.00001H12.82C12.6098 3.42085 12.2264 2.92047 11.7218 2.56685C11.2173 2.21323 10.6161 2.02353 10 2.02353C9.38388 2.02353 8.7827 2.21323 8.27816 2.56685C7.77363 2.92047 7.3902 3.42085 7.18 4.00001H2V16C2 16.5304 2.21071 17.0391 2.58579 17.4142C2.96086 17.7893 3.46957 18 4 18H16C16.5304 18 17.0391 17.7893 17.4142 17.4142C17.7893 17.0391 18 16.5304 18 16ZM15 14H5V12H15V14ZM15 10H5V8.00001H15V10ZM22 10V20C22 20.5304 21.7893 21.0391 21.4142 21.4142C21.0391 21.7893 20.5304 22 20 22H8V20H20V10H22Z" fill="#0F1621"/>
</svg>
