<svg width="16" height="16" viewBox="0 0 16 16" fill="none" xmlns="http://www.w3.org/2000/svg">
<path fill-rule="evenodd" clip-rule="evenodd" d="M14.3397 3.35L13.6397 2.65C13.5467 2.55627 13.4361 2.48188 13.3142 2.43111C13.1924 2.38034 13.0617 2.3542 12.9297 2.3542C12.7977 2.3542 12.667 2.38034 12.5451 2.43111C12.4232 2.48188 12.3126 2.55627 12.2197 2.65L10.9897 3.84C10.3756 3.46749 9.69727 3.21312 8.98967 3.09V1H6.98967V3.09C6.28207 3.21312 5.60375 3.46749 4.98967 3.84L3.75967 2.65C3.66671 2.55627 3.55611 2.48188 3.43425 2.43111C3.31239 2.38034 3.18168 2.3542 3.04967 2.3542C2.91766 2.3542 2.78695 2.38034 2.66509 2.43111C2.54323 2.48188 2.43263 2.55627 2.33967 2.65L1.63967 3.35C1.54594 3.44296 1.47155 3.55356 1.42078 3.67542C1.37001 3.79728 1.34387 3.92799 1.34387 4.06C1.34387 4.19201 1.37001 4.32272 1.42078 4.44458C1.47155 4.56644 1.54594 4.67704 1.63967 4.77L2.82967 6C2.2873 6.90726 1.99729 7.94301 1.98967 9C1.98967 10.5913 2.62181 12.1174 3.74703 13.2426C4.87225 14.3679 6.39837 15 7.98967 15C9.58097 15 11.1071 14.3679 12.2323 13.2426C13.3575 12.1174 13.9897 10.5913 13.9897 9C13.982 7.94301 13.692 6.90726 13.1497 6L14.3397 4.81C14.4396 4.71646 14.5192 4.60341 14.5737 4.47784C14.6281 4.35227 14.6562 4.21686 14.6562 4.08C14.6562 3.94314 14.6281 3.80773 14.5737 3.68216C14.5192 3.55659 14.4396 3.44354 14.3397 3.35ZM8.98967 10H6.98967V5H8.98967V10Z" fill="#0F1621"/>
</svg>
