<svg width="24" height="24" viewBox="0 0 24 24" fill="none" xmlns="http://www.w3.org/2000/svg">
<path d="M9.49996 6V4H14.5V6H16.5V4.67C16.4973 3.96268 16.2152 3.28509 15.715 2.78494C15.2149 2.28478 14.5373 2.00263 13.83 2H10.17C9.46264 2.00263 8.78505 2.28478 8.28489 2.78494C7.78474 3.28509 7.50259 3.96268 7.49996 4.67V6H9.49996ZM20.09 8H3.90996C3.6526 8.00386 3.39858 8.05889 3.1627 8.16188C2.92682 8.26488 2.7138 8.41379 2.53603 8.59993C2.35827 8.78607 2.21932 9.00572 2.12729 9.24609C2.03525 9.48646 1.99197 9.74274 1.99996 10V20C1.99197 20.2573 2.03525 20.5135 2.12729 20.7539C2.21932 20.9943 2.35827 21.2139 2.53603 21.4001C2.7138 21.5862 2.92682 21.7351 3.1627 21.8381C3.39858 21.9411 3.6526 21.9961 3.90996 22H20.09C20.3473 21.9961 20.6013 21.9411 20.8372 21.8381C21.0731 21.7351 21.2861 21.5862 21.4639 21.4001C21.6416 21.2139 21.7806 20.9943 21.8726 20.7539C21.9647 20.5135 22.0079 20.2573 22 20V10C22.0079 9.74274 21.9647 9.48646 21.8726 9.24609C21.7806 9.00572 21.6416 8.78607 21.4639 8.59993C21.2861 8.41379 21.0731 8.26488 20.8372 8.16188C20.6013 8.05889 20.3473 8.00386 20.09 8ZM20 20H3.99996V10H20V20Z" fill="#0F1621"/>
</svg>
