<svg xmlns="http://www.w3.org/2000/svg" viewBox="0 0 16 16"><defs><style>.cls-1{fill:none;}.cls-2{fill-rule:evenodd;}</style></defs><g id="Layer_2" data-name="Layer 2"><g id="UI_System_16" data-name="UI System 16"><g id="terrain"><rect class="cls-1" width="16" height="16"/><path class="cls-2" d="M6,4.75,2.5,15H2a1,1,0,0,1-1-1v-.64a2,2,0,0,1,.12-.69l3-8.12a1,1,0,0,1,1.78,0Zm8.88,7.92-4-11.15a1,1,0,0,0-1.76,0L7,7.5,5.39,11.91,5,13l-.72,2H14a1,1,0,0,0,1-1v-.65A2,2,0,0,0,14.88,12.67Z"/></g></g></g></svg>