<svg xmlns="http://www.w3.org/2000/svg" viewBox="0 0 24 24"><defs><style>.cls-1{opacity:0;}.cls-2{fill:none;}</style></defs><g id="Layer_2" data-name="Layer 2"><g id="UI_Outline" data-name="UI Outline"><g id="terrain"><g id="_Rectangle_" data-name="&lt;Rectangle&gt;" class="cls-1"><rect class="cls-2" width="24" height="24"/></g><path d="M21.92,19.56l-6-16.92a1.28,1.28,0,0,0-.16-.28l-.11-.11A1,1,0,0,0,15,2a1,1,0,0,0-.93.64L7.29,22H20.07a2,2,0,0,0,1.78-1.09A1.84,1.84,0,0,0,22,20,1.5,1.5,0,0,0,21.92,19.56ZM10,20,15,6l5,14ZM4,20H6l-.7,2H3.85a2,2,0,0,1-1.42-.59,2.2,2.2,0,0,1-.2-.23,1.84,1.84,0,0,1,0-1.75L7.31,6.59a1,1,0,0,1,1.82,0L10,8.67l-1,3L8.23,9.71Z"/></g></g></g></svg>