<?xml version="1.0" encoding="iso-8859-1"?>
<!-- Generator: Adobe Illustrator 24.1.2, SVG Export Plug-In . SVG Version: 6.00 Build 0)  -->
<svg version="1.1" id="_x37_00-7010-0108_x5F_atm-layer"
	 xmlns="http://www.w3.org/2000/svg" xmlns:xlink="http://www.w3.org/1999/xlink" x="0px" y="0px" viewBox="0 0 24 24"
	 style="enable-background:new 0 0 24 24;" xml:space="preserve">
<g id="_x37_00-7010-0108_x5F_atm_2_">
	<rect style="fill-rule:evenodd;clip-rule:evenodd;fill:none;" width="24" height="24"/>
	<path d="M22,4v6h-2V4H4v6H2V4c0-1.105,0.895-2,2-2h16C21.105,2,22,2.895,22,4z M10,12h4v-2h-4V12z M18,6v16H6V6H18z M16,16H8v2
		l2.5,2.5l1.41-1.41L10.82,18H16V16z M16,9c0-0.55-0.45-1-1-1H9C8.45,8,8,8.45,8,9v4c0,0.55,0.45,1,1,1h6c0.55,0,1-0.45,1-1V9z"/>
</g>
</svg>
