<?xml version="1.0" encoding="iso-8859-1"?>
<!-- Generator: Adobe Illustrator 24.1.2, SVG Export Plug-In . SVG Version: 6.00 Build 0)  -->
<svg version="1.1" id="_x37_00-7851-0117_x5F_car-rental-agency-layer"
	 xmlns="http://www.w3.org/2000/svg" xmlns:xlink="http://www.w3.org/1999/xlink" x="0px" y="0px" viewBox="0 0 24 24"
	 style="enable-background:new 0 0 24 24;" xml:space="preserve">
<g id="_x37_00-7851-0117_x5F_car-rental-agency_2_">
	<rect style="fill:none;" width="24" height="24"/>
	<path d="M19,4.5L17,6h-3l-1-1l-1,1h-2L9,7H5C4.45,7,4,6.55,4,6V3c0-0.55,0.45-1,1-1h4l1,1h7L19,4.5z M22,13h-1.1l0.773,1.057
		C21.885,14.348,22,14.699,22,15.06V20c0,0.55-0.22,1.05-0.59,1.41C21.05,21.78,20.55,22,20,22h-3c-0.552,0-1-0.448-1-1v-1H8v1
		c0,0.552-0.448,1-1,1H4c-1.1,0-2-0.9-2-2v-4.94c0-0.361,0.115-0.712,0.328-1.003L3.1,13H2v-2h2.55l0.86-1.18
		C5.78,9.31,6.4,9,7.07,9h9.86c0.67,0,1.29,0.31,1.66,0.82L19.45,11H22V13z M8,16H4v2h4V16z M12,14h7l-1.7-2.55
		C17.11,11.17,16.8,11,16.46,11H7.54c-0.34,0-0.65,0.17-0.84,0.45L5,14H12z M20,16h-4v2h4V16z"/>
</g>
</svg>
