<?xml version="1.0" encoding="iso-8859-1"?>
<!-- Generator: Adobe Illustrator 24.1.2, SVG Export Plug-In . SVG Version: 6.00 Build 0)  -->
<svg version="1.1" id="_x37_00-7000-0107_x5F_bank-layer"
	 xmlns="http://www.w3.org/2000/svg" xmlns:xlink="http://www.w3.org/1999/xlink" x="0px" y="0px" viewBox="0 0 24 24"
	 style="enable-background:new 0 0 24 24;" xml:space="preserve">
<g id="_x37_00-7000-0107_x5F_bank_2_">
	<rect style="fill-rule:evenodd;clip-rule:evenodd;fill:none;" width="24" height="24"/>
	<g>
		<path d="M2,10v12h20V10H2z M10,20H8v-5.18l-1.09,1.09L5.5,14.5L8,12h2V20z M18,19c0,0.55-0.45,1-1,1h-4c-0.55,0-1-0.45-1-1v-6
			c0-0.55,0.45-1,1-1h4c0.55,0,1,0.45,1,1V19z M14,18h2v-4h-2V18z M22,8H2V6h20V8z M22,4H2V2h20V4z"/>
	</g>
</g>
</svg>
