<svg width="80" height="80" viewBox="0 0 80 80" fill="none" xmlns="http://www.w3.org/2000/svg">
<path d="M39.0001 48H41.0001L41.5001 55H38.5001L39.0001 48Z" fill="white"/>
<path d="M38.2499 60H41.7499L42.4999 68H37.4999L38.2499 60Z" fill="white"/>
<path d="M30 48H33L24 68L18 68L30 48Z" fill="white"/>
<path d="M49.9999 48L46.9999 48L56 67.9999L61.9999 68L49.9999 48Z" fill="white"/>
<path fill-rule="evenodd" clip-rule="evenodd" d="M40 8.11274C36.1705 8.10146 32.4929 9.60848 29.7745 12.3031C27.056 14.9976 25.5187 18.6596 25.5 22.4853C25.5 26.4494 27.622 31.8479 32.4034 36.6175L40 44.15L47.5966 36.5822C52.4063 31.8479 54.5 26.4494 54.5 22.4853C54.4813 18.6596 52.944 14.9976 50.2255 12.3031C47.5071 9.60848 43.8295 8.10146 40 8.11274Z" fill="#C3CDDE" fill-opacity="0.35"/>
<path d="M54.5 22.4253C54.5 26.3096 52.47 31.5731 47.8371 36.2244L40 44L32.4034 36.4636C27.5937 31.749 25.5 26.4081 25.5 22.4253C25.5 18.5995 27.0277 14.9304 29.747 12.2251C32.4662 9.51981 36.1544 8 40 8C43.8456 8 47.5338 9.51981 50.253 12.2251C52.9723 14.9304 54.5 18.5995 54.5 22.4253ZM52.378 22.4253C52.378 19.1668 51.0769 16.0418 48.7609 13.7377C46.4449 11.4336 43.3037 10.1392 40.0283 10.1392C36.7529 10.1392 33.6117 11.4336 31.2957 13.7377C28.9797 16.0418 27.6785 19.1668 27.6785 22.4253C27.6785 26.1267 29.8005 30.785 33.7261 34.7256L40 40.9812L46.09 34.9367C50.0722 31.0313 52.2719 26.373 52.3498 22.6294L52.378 22.4253Z" fill="white"/>
<path d="M43.1507 24.6816C43.5697 24.0567 43.7948 23.3212 43.7976 22.5679C43.7995 22.0661 43.7026 21.569 43.5126 21.1048C43.3226 20.6407 43.0432 20.2188 42.6904 19.8634C42.3375 19.5079 41.9183 19.2259 41.4566 19.0334C40.9949 18.841 40.4999 18.7419 40 18.7419C39.2495 18.7419 38.5158 18.9651 37.8916 19.3833C37.2674 19.8015 36.7807 20.3959 36.4928 21.0916C36.205 21.7873 36.1289 22.5529 36.2743 23.2919C36.4197 24.0309 36.78 24.7101 37.3096 25.2437C37.8393 25.7774 38.5147 26.1415 39.2504 26.2902C39.9861 26.4389 40.7492 26.3654 41.4434 26.0792C42.1376 25.7929 42.7316 25.3065 43.1507 24.6816Z" fill="white"/>
</svg>
