<svg width="80" height="80" viewBox="0 0 80 80" fill="none" xmlns="http://www.w3.org/2000/svg">
<g clip-path="url(#clip0_6526_12714)">
<path d="M42 1L26 17L30.5 21L39 12V32C38.9997 32.6994 38.8528 33.391 38.5686 34.03C38.2843 34.6691 37.8692 35.2414 37.35 35.71L24.62 47.17C23.4798 48.2016 22.5685 49.4608 21.945 50.8663C21.3215 52.2718 20.9996 53.7924 21 55.33V80H27V55.33C27.0003 54.6306 27.1472 53.939 27.4315 53.3C27.7157 52.6609 28.1308 52.0886 28.65 51.62L41.38 40.11C42.514 39.0841 43.4216 37.833 44.0449 36.4366C44.6682 35.0402 44.9935 33.5292 45 32V12L53.5 21L58 17L42 1Z" fill="white"/>
</g>
<defs>
<clipPath id="clip0_6526_12714">
<rect width="80" height="80" fill="white"/>
</clipPath>
</defs>
</svg>
