<svg width="80" height="80" viewBox="0 0 80 80" fill="none" xmlns="http://www.w3.org/2000/svg">
<g clip-path="url(#clip0_6526_12715)">
<path d="M54.38 47.17L41.65 35.66C41.137 35.1971 40.7255 34.6328 40.4415 34.0029C40.1575 33.3729 40.0072 32.691 40 32V12L48.5 21L53 17L37 1L21 17L25.5 21L34 12V32C33.9996 33.5376 34.3215 35.0582 34.945 36.4637C35.5685 37.8692 36.4798 39.1284 37.62 40.16L50.35 51.62C50.8692 52.0886 51.2843 52.6609 51.5686 53.3C51.8528 53.939 51.9997 54.6306 52 55.33V80H58V55.33C58.0004 53.7924 57.6785 52.2718 57.055 50.8663C56.4315 49.4608 55.5202 48.2016 54.38 47.17Z" fill="white"/>
</g>
<defs>
<clipPath id="clip0_6526_12715">
<rect width="80" height="80" fill="white"/>
</clipPath>
</defs>
</svg>
