<svg width="80" height="80" viewBox="0 0 80 80" fill="none" xmlns="http://www.w3.org/2000/svg">
<path d="M39 48H41L41.5 55H38.5L39 48Z" fill="white"/>
<path d="M38.2499 60H41.7499L42.4999 68H37.4999L38.2499 60Z" fill="white"/>
<path d="M30 48H33L24 68L18 68L30 48Z" fill="white"/>
<path d="M47.5 44L45.25 44L56 68L62 68.0001L47.5 44Z" fill="white"/>
<path fill-rule="evenodd" clip-rule="evenodd" d="M31.5 8.11273C27.6705 8.10146 23.9929 9.60848 21.2745 12.303C18.556 14.9976 17.0187 18.6596 17 22.4853C17 26.4494 19.122 31.8479 23.9034 36.6175L31.5 44.15L39.0966 36.5822C43.9063 31.8479 46 26.4494 46 22.4853C45.9813 18.6596 44.444 14.9976 41.7255 12.303C39.0071 9.60848 35.3295 8.10146 31.5 8.11273Z" fill="#C3CDDE" fill-opacity="0.35"/>
<path d="M46 22.4253C46 26.3096 43.97 31.5731 39.3371 36.2244L31.5 44L23.9034 36.4636C19.0937 31.749 17 26.4081 17 22.4253C17 18.5995 18.5277 14.9304 21.247 12.2251C23.9662 9.51981 27.6544 8 31.5 8C35.3456 8 39.0338 9.51981 41.753 12.2251C44.4723 14.9304 46 18.5995 46 22.4253ZM43.878 22.4253C43.878 19.1668 42.5769 16.0418 40.2609 13.7377C37.9449 11.4336 34.8037 10.1392 31.5283 10.1392C28.2529 10.1392 25.1117 11.4336 22.7957 13.7377C20.4797 16.0418 19.1785 19.1668 19.1785 22.4253C19.1785 26.1267 21.3005 30.785 25.2261 34.7256L31.5 40.9812L37.59 34.9367C41.5722 31.0313 43.7719 26.3729 43.8498 22.6294L43.878 22.4253Z" fill="white"/>
<path d="M34.6504 24.6816C35.0694 24.0567 35.2945 23.3212 35.2974 22.5679C35.2992 22.0661 35.2024 21.5689 35.0124 21.1048C34.8224 20.6407 34.543 20.2188 34.1901 19.8634C33.8373 19.5079 33.418 19.2259 32.9563 19.0334C32.4947 18.841 31.9997 18.7419 31.4997 18.7419C30.7493 18.7419 30.0156 18.9651 29.3914 19.3833C28.7672 19.8015 28.2804 20.3959 27.9926 21.0916C27.7047 21.7872 27.6287 22.5529 27.7741 23.2919C27.9195 24.0309 28.2797 24.7101 28.8094 25.2437C29.3391 25.7773 30.0144 26.1415 30.7501 26.2902C31.4859 26.4389 32.249 26.3654 32.9431 26.0791C33.6373 25.7928 34.2314 25.3065 34.6504 24.6816Z" fill="white"/>
</svg>
