<svg width="80" height="80" viewBox="0 0 80 80" fill="none" xmlns="http://www.w3.org/2000/svg">
<path fill-rule="evenodd" clip-rule="evenodd" d="M48.5 8.11273C52.3295 8.10146 56.0071 9.60848 58.7255 12.303C61.444 14.9976 62.9813 18.6596 63 22.4853C63 26.4494 60.878 31.8479 56.0966 36.6175L48.5 44.15L40.9034 36.5822C36.0937 31.8479 34 26.4494 34 22.4853C34.0187 18.6596 35.556 14.9976 38.2745 12.303C40.9929 9.60848 44.6705 8.10146 48.5 8.11273Z" fill="#C3CDDE" fill-opacity="0.35"/>
<path d="M34 22.4253C34 26.3096 36.03 31.5731 40.6629 36.2244L48.5 44L56.0966 36.4636C60.9063 31.749 63 26.4081 63 22.4253C63 18.5995 61.4723 14.9304 58.753 12.2251C56.0338 9.51981 52.3456 8 48.5 8C44.6544 8 40.9662 9.51981 38.247 12.2251C35.5277 14.9304 34 18.5995 34 22.4253ZM36.122 22.4253C36.122 19.1668 37.4231 16.0418 39.7391 13.7377C42.0551 11.4336 45.1963 10.1392 48.4717 10.1392C51.7471 10.1392 54.8883 11.4336 57.2043 13.7377C59.5203 16.0418 60.8215 19.1668 60.8215 22.4253C60.8215 26.1267 58.6995 30.785 54.7739 34.7256L48.5 40.9812L42.41 34.9367C38.4278 31.0313 36.228 26.3729 36.1502 22.6294L36.122 22.4253Z" fill="white"/>
<path d="M45.3496 24.6816C44.9306 24.0567 44.7055 23.3212 44.7026 22.5679C44.7008 22.0661 44.7976 21.5689 44.9876 21.1048C45.1776 20.6407 45.457 20.2188 45.8099 19.8634C46.1627 19.5079 46.582 19.2259 47.0437 19.0334C47.5053 18.841 48.0003 18.7419 48.5003 18.7419C49.2507 18.7419 49.9844 18.9651 50.6086 19.3833C51.2328 19.8015 51.7196 20.3959 52.0074 21.0916C52.2953 21.7872 52.3713 22.5529 52.2259 23.2919C52.0805 24.0309 51.7203 24.7101 51.1906 25.2437C50.6609 25.7773 49.9856 26.1415 49.2499 26.2902C48.5141 26.4389 47.751 26.3654 47.0569 26.0791C46.3627 25.7928 45.7686 25.3065 45.3496 24.6816Z" fill="white"/>
<path d="M41 48H39L38.5 55H41.5L41 48Z" fill="white"/>
<path d="M41.7501 60H38.2501L37.5001 68H42.5001L41.7501 60Z" fill="white"/>
<path d="M50 48H47L56 68L62 68L50 48Z" fill="white"/>
<path d="M32.5 44H34.75L24 67.9999L18 68L32.5 44Z" fill="white"/>
</svg>
