<svg xmlns="http://www.w3.org/2000/svg" viewBox="0 0 80 80"><path d="M42.5,12.67V7.12C41.68,7,40.84,7,40,7s-1.68,0-2.5.12v5.55a20.46,20.46,0,0,0-13.84,8L18.85,17.9a25.51,25.51,0,0,0-2.5,4.33L21.13,25a20.5,20.5,0,0,0,0,16l-4.78,2.76a25.51,25.51,0,0,0,2.5,4.33l4.81-2.78A20.48,20.48,0,1,0,42.5,12.67ZM40,48.5A15.5,15.5,0,1,1,55.5,33,15.51,15.51,0,0,1,40,48.5Z" style="fill:#d1def4;opacity:0.35000000000000003"/><path d="M46.34,38.1H44.29V42H40.7l0-3.9H33.26V35.6l5-11.51,3.13,1.17-4.35,10h3.64L41.11,31h3.18v4.29h2.05ZM49,1l.36,6.11,12.58-.36,0,0-6.6,6.6a4.93,4.93,0,0,1-5.7,1A21,21,0,1,0,33.55,53,5,5,0,0,1,37,57.74V80h6V57.74a11,11,0,0,0-7.61-10.46A15,15,0,1,1,46.9,19.68a10.84,10.84,0,0,0,12.71-2.05l6.6-6.6,0,0-.36,12.58L72,24V1Z" style="fill:#fff"/></svg>