<svg xmlns="http://www.w3.org/2000/svg" viewBox="0 0 80 80"><path d="M40,12.5a20.4,20.4,0,0,0-12.6,4.36l-3.92-3.92a25.75,25.75,0,0,0-3.54,3.54l3.92,3.92a20.39,20.39,0,0,0,0,25.2l-3.92,3.92a25.75,25.75,0,0,0,3.54,3.54l3.92-3.92A20.49,20.49,0,1,0,40,12.5Zm0,36A15.5,15.5,0,1,1,55.5,33,15.51,15.51,0,0,1,40,48.5Z" style="fill:#d1def4;opacity:0.35000000000000003"/><path d="M45.26,28.58a4.15,4.15,0,0,1-3.43,4.14,4.1,4.1,0,0,1,4,4.31c0,3-2.34,5.39-6.53,5.39a7.16,7.16,0,0,1-5.82-2.6l2-1.93a4.85,4.85,0,0,0,3.62,1.67A2.65,2.65,0,0,0,42,36.8c0-1.95-1.1-2.65-3-2.65H37.59l.44-2.6h1a2.4,2.4,0,0,0,2.68-2.47c0-1.35-1-2.16-2.47-2.16a4.78,4.78,0,0,0-3.46,1.51l-1.84-2a7.93,7.93,0,0,1,5.67-2.29C43.28,24.14,45.26,26.14,45.26,28.58ZM49,1l.36,6.11,12.58-.36,0,0-6.6,6.6a4.93,4.93,0,0,1-5.7,1A21,21,0,1,0,33.55,53,5,5,0,0,1,37,57.74V80h6V57.74a11,11,0,0,0-7.61-10.46A15,15,0,1,1,46.9,19.68a10.84,10.84,0,0,0,12.71-2.05l6.6-6.6,0,0-.36,12.58L72,24V1Z" style="fill:#fff"/></svg>