<svg width="80" height="80" viewBox="0 0 80 80" fill="none" xmlns="http://www.w3.org/2000/svg">
<path d="M40 12.5C35.4302 12.5011 30.9931 14.0364 27.4 16.86L23.48 12.94C22.1878 14.0022 21.0022 15.1878 19.94 16.48L23.86 20.4C21.0361 23.9929 19.501 28.4302 19.501 33C19.501 37.5698 21.0361 42.0071 23.86 45.6L19.94 49.52C21.0022 50.8122 22.1878 51.9978 23.48 53.06L27.4 49.14C29.9726 51.1487 32.9879 52.5138 36.1947 53.1216C39.4016 53.7294 42.7072 53.5623 45.8364 52.6342C48.9656 51.7061 51.8279 50.0439 54.1848 47.786C56.5417 45.5281 58.3251 42.7398 59.3865 39.6532C60.4479 36.5667 60.7566 33.2713 60.2869 30.0413C59.8172 26.8113 58.5827 23.7403 56.6861 21.0839C54.7896 18.4276 52.2858 16.2627 49.3834 14.7696C46.481 13.2765 43.2639 12.4984 40 12.5ZM40 48.5C36.9344 48.5 33.9376 47.5909 31.3887 45.8878C28.8397 44.1846 26.853 41.7639 25.6799 38.9316C24.5067 36.0993 24.1998 32.9828 24.7978 29.9761C25.3959 26.9694 26.8721 24.2076 29.0398 22.0398C31.2076 19.8721 33.9694 18.3959 36.9761 17.7978C39.9828 17.1998 43.0993 17.5067 45.9316 18.6799C48.7639 19.853 51.1846 21.8397 52.8878 24.3887C54.5909 26.9376 55.5 29.9344 55.5 33C55.4974 37.11 53.8635 41.051 50.9572 43.9572C48.051 46.8635 44.11 48.4974 40 48.5Z" fill="#C3CDDE" fill-opacity="0.35"/>
<path d="M45.2599 28.58C45.2725 29.5649 44.9343 30.5221 44.3059 31.2805C43.6776 32.039 42.7999 32.5492 41.8299 32.72C42.378 32.7326 42.918 32.8551 43.4179 33.0801C43.9179 33.3051 44.3676 33.628 44.7405 34.0299C45.1135 34.4317 45.402 34.9043 45.5892 35.4196C45.7763 35.9349 45.8581 36.4825 45.8299 37.03C45.8299 40.03 43.4899 42.42 39.2999 42.42C38.1949 42.4655 37.0944 42.2545 36.0846 41.8034C35.0748 41.3523 34.1833 40.6734 33.4799 39.82L35.4799 37.89C35.9305 38.409 36.4863 38.8262 37.1104 39.1141C37.7345 39.4021 38.4126 39.554 39.0999 39.56C39.4778 39.5962 39.859 39.5508 40.2178 39.4269C40.5767 39.303 40.9047 39.1034 41.1796 38.8417C41.4546 38.58 41.6702 38.2622 41.8117 37.91C41.9532 37.5577 42.0174 37.1792 41.9999 36.8C41.9999 34.85 40.8999 34.15 38.9999 34.15H37.5899L38.0299 31.55H39.0299C39.3737 31.5906 39.7223 31.5564 40.0517 31.4496C40.381 31.3428 40.6834 31.166 40.938 30.9314C41.1926 30.6967 41.3934 30.4098 41.5266 30.0902C41.6599 29.7706 41.7224 29.426 41.7099 29.08C41.7099 27.73 40.7099 26.92 39.2399 26.92C38.5909 26.9236 37.9494 27.0593 37.3545 27.319C36.7597 27.5786 36.2239 27.9566 35.7799 28.43L33.9399 26.43C34.6864 25.692 35.572 25.1096 36.5453 24.7165C37.5186 24.3234 38.5603 24.1274 39.6099 24.14C43.2799 24.14 45.2599 26.14 45.2599 28.58ZM48.9999 1L49.3599 7.11L61.9399 6.75L55.3399 13.35C54.6165 14.0962 53.6757 14.5947 52.6521 14.7743C51.6284 14.9539 50.5741 14.8054 49.6399 14.35C47.061 13.0251 44.2356 12.2487 41.3418 12.0695C38.448 11.8903 35.5485 12.3123 32.8258 13.3088C30.1031 14.3054 27.6163 15.855 25.5219 17.8599C23.4276 19.8649 21.7711 22.2818 20.6568 24.9585C19.5425 27.6351 18.9946 30.5135 19.0474 33.4124C19.1003 36.3112 19.7529 39.1677 20.9641 41.802C22.1753 44.4362 23.9188 46.7911 26.0849 48.7183C28.251 50.6456 30.7927 52.1034 33.5499 53C34.5507 53.3263 35.423 53.9602 36.0425 54.8113C36.662 55.6624 36.997 56.6873 36.9999 57.74V80H42.9999V57.74C42.9989 55.4162 42.262 53.1523 40.8949 51.2732C39.5278 49.3941 37.6006 47.9962 35.3899 47.28C33.4209 46.6384 31.606 45.5959 30.0597 44.2184C28.5133 42.8408 27.269 41.158 26.405 39.2758C25.541 37.3937 25.0762 35.3531 25.0397 33.2824C25.0032 31.2118 25.3959 29.156 26.193 27.2446C26.9901 25.3332 28.1744 23.6076 29.6712 22.1764C31.1681 20.7452 32.9451 19.6395 34.8903 18.9289C36.8355 18.2182 38.9068 17.9181 40.9737 18.0474C43.0406 18.1767 45.0584 18.7325 46.8999 19.68C48.9594 20.7415 51.3048 21.1152 53.5922 20.7462C55.8796 20.3773 57.9886 19.2852 59.6099 17.63L66.2099 11.03L65.8499 23.61L71.9999 24V1H48.9999Z" fill="white"/>
</svg>
