<svg width="80" height="80" viewBox="0 0 80 80" fill="none" xmlns="http://www.w3.org/2000/svg">
<path d="M46.14 20.4L50.06 16.48C48.9978 15.1878 47.8122 14.0022 46.52 12.94L42.6 16.86C39.6768 14.5711 36.185 13.1225 32.5 12.67V7.12C31.68 7 30.84 7 30 7C29.16 7 28.32 7 27.5 7.12V12.67C23.815 13.1225 20.3232 14.5711 17.4 16.86L13.48 12.94C12.1878 14.0022 11.0022 15.1878 9.94 16.48L13.86 20.4C11.5711 23.3232 10.1225 26.815 9.67 30.5H4.12C4 31.32 4 32.16 4 33C4 33.84 4 34.68 4.12 35.5H9.67C10.1225 39.185 11.5711 42.6768 13.86 45.6L9.94 49.52C11.0022 50.8122 12.1878 51.9978 13.48 53.06L17.4 49.14C21.3371 52.2284 26.269 53.7677 31.2638 53.4671C36.2586 53.1665 40.9703 51.0468 44.5085 47.5085C48.0468 43.9703 50.1665 39.2586 50.4671 34.2638C50.7677 29.269 49.2284 24.3371 46.14 20.4ZM30 48.5C26.9344 48.5 23.9376 47.5909 21.3887 45.8878C18.8397 44.1846 16.853 41.7638 15.6799 38.9316C14.5067 36.0993 14.1998 32.9828 14.7978 29.9761C15.3959 26.9694 16.8721 24.2076 19.0398 22.0398C21.2076 19.8721 23.9694 18.3959 26.9761 17.7978C29.9828 17.1998 33.0993 17.5067 35.9316 18.6799C38.7638 19.853 41.1846 21.8397 42.8878 24.3887C44.5909 26.9376 45.5 29.9344 45.5 33C45.4974 37.11 43.8635 41.051 40.9572 43.9572C38.051 46.8635 34.11 48.4974 30 48.5Z" fill="#C3CDDE" fill-opacity="0.35"/>
<path d="M36.15 36C36.2089 36.8353 36.0923 37.6737 35.8077 38.4613C35.5232 39.2489 35.0769 39.9681 34.4976 40.5728C33.9183 41.1775 33.2189 41.6543 32.4443 41.9724C31.6697 42.2906 30.837 42.443 29.9999 42.42C25.4199 42.42 23.5199 38.98 23.5199 33.94C23.5199 28.04 26.3299 24.14 30.9099 24.14C32.2916 24.1123 33.6499 24.4989 34.8099 25.25L33.4499 27.52C32.7073 27.0625 31.8522 26.8201 30.9799 26.82C28.8799 26.82 27.5299 28.74 27.3399 32.07C27.8079 31.5082 28.3934 31.0558 29.0551 30.7448C29.7169 30.4338 30.4388 30.2717 31.1699 30.27C33.9999 30.27 36.15 32.3 36.15 36ZM32.4299 36C32.4299 33.61 31.5999 32.8 30.1899 32.8C29.6212 32.8337 29.0677 32.9972 28.5719 33.278C28.0761 33.5588 27.6513 33.9495 27.3299 34.42C27.3899 38.13 28.1399 39.64 30.0099 39.64C31.6499 39.71 32.4299 38.28 32.4299 36.07V36ZM60.8999 16.74L56.8399 21.31L65.9999 30H54.7399C53.6873 29.9971 52.6624 29.6621 51.8113 29.0426C50.9602 28.4231 50.3263 27.5508 49.9999 26.55C48.8921 23.1304 46.925 20.0524 44.2869 17.6107C41.6489 15.1689 38.4282 13.4452 34.9333 12.6046C31.4384 11.764 27.7862 11.8345 24.3263 12.8095C20.8664 13.7845 17.7148 15.6313 15.173 18.173C12.6312 20.7148 10.7844 23.8665 9.80944 27.3264C8.83445 30.7862 8.76391 34.4384 9.60455 37.9334C10.4452 41.4283 12.1689 44.6489 14.6106 47.287C17.0523 49.925 20.1303 51.8921 23.5499 53C24.5508 53.3263 25.4231 53.9602 26.0425 54.8113C26.662 55.6624 26.9971 56.6873 26.9999 57.74V80H32.9999V57.74C32.999 55.4162 32.2621 53.1523 30.8949 51.2732C29.5278 49.3941 27.6007 47.9962 25.3899 47.28C22.9468 46.4893 20.7475 45.0846 19.0027 43.2004C17.258 41.3162 16.0262 39.0156 15.4252 36.5189C14.8243 34.0223 14.8744 31.4131 15.5708 28.9414C16.2671 26.4696 17.5863 24.2181 19.4022 22.4022C21.218 20.5864 23.4696 19.2672 25.9413 18.5708C28.4131 17.8745 31.0222 17.8244 33.5189 18.4253C36.0155 19.0262 38.3161 20.258 40.2003 22.0028C42.0845 23.7476 43.4892 25.9468 44.2799 28.39C44.9961 30.6007 46.394 32.5279 48.2731 33.895C50.1523 35.2621 52.4161 35.999 54.7399 36H65.9999L56.8599 44.64L60.9199 49.21L77.16 33L60.8999 16.74Z" fill="white"/>
</svg>
