<svg width="80" height="80" viewBox="0 0 80 80" fill="none" xmlns="http://www.w3.org/2000/svg">
<g clip-path="url(#clip0_15464_42614)">
<path d="M50 53.5C45.9455 53.5 41.982 52.2977 38.6108 50.0451C35.2396 47.7926 32.6121 44.5909 31.0605 40.845C29.5089 37.0991 29.1029 32.9773 29.8939 29.0007C30.6849 25.024 32.6373 21.3713 35.5043 18.5043C38.3713 15.6373 42.024 13.6849 46.0007 12.8939C49.9773 12.1029 54.0991 12.5089 57.845 14.0605C61.5909 15.6121 64.7926 18.2396 67.0451 21.6108C69.2977 24.982 70.5 28.9455 70.5 33C70.4921 38.4345 68.3297 43.6442 64.4869 47.4869C60.6442 51.3297 55.4345 53.4921 50 53.5ZM50 17.5C46.9344 17.5 43.9376 18.4091 41.3887 20.1122C38.8397 21.8154 36.853 24.2362 35.6799 27.0684C34.5067 29.9007 34.1998 33.0172 34.7978 36.0239C35.3959 39.0306 36.8721 41.7925 39.0399 43.9602C41.2076 46.1279 43.9694 47.6041 46.9761 48.2022C49.9828 48.8002 53.0993 48.4933 55.9316 47.3201C58.7639 46.147 61.1846 44.1603 62.8878 41.6113C64.5909 39.0624 65.5 36.0656 65.5 33C65.4974 28.89 63.8635 24.949 60.9572 22.0428C58.051 19.1365 54.1101 17.5027 50 17.5Z" fill="#C3CDDE" fill-opacity="0.35"/>
<path d="M52.0001 42H48.3801V28.12L44.5401 30.48L42.9201 28L48.7501 24.49H52.0001V42ZM45.4001 47.28C43.1343 46.5503 41.0746 45.2919 39.3914 43.6087C37.7082 41.9255 36.4498 39.8658 35.7201 37.6C35.0022 35.3911 33.6036 33.4662 31.7246 32.101C29.8456 30.7357 27.5827 30.0003 25.2601 30H13.0001L22.1401 21.36L18.1001 16.74L1.84009 33L18.1001 49.26L22.1601 44.69L13.0001 36.05H25.2601C26.3054 36.0487 27.3248 36.375 28.175 36.9831C29.0252 37.5911 29.6635 38.4504 30.0001 39.44C31.0213 42.6145 32.7839 45.5002 35.1419 47.8582C37.4999 50.2162 40.3856 51.9788 43.5601 53C44.559 53.328 45.4292 53.9626 46.0467 54.8136C46.6643 55.6646 46.9979 56.6886 47.0001 57.74V80H53.0001V57.74C52.9998 55.4174 52.2644 53.1545 50.8991 51.2755C49.5339 49.3965 47.609 47.9979 45.4001 47.28Z" fill="white"/>
</g>
<defs>
<clipPath id="clip0_15464_42614">
<rect width="80" height="80" fill="white"/>
</clipPath>
</defs>
</svg>
