<svg width="80" height="80" viewBox="0 0 80 80" fill="none" xmlns="http://www.w3.org/2000/svg">
<path d="M39.9999 12.5C36.1585 12.4942 32.393 13.5695 29.1339 15.6028C25.8747 17.6361 23.2535 20.5455 21.5699 23.9983C19.8862 27.4511 19.2081 31.308 19.6131 35.128C20.0181 38.948 21.4898 42.577 23.8599 45.6L19.9399 49.52C21.0021 50.8122 22.1877 51.9978 23.4799 53.06L27.3999 49.14C29.9725 51.1488 32.9878 52.5138 36.1946 53.1216C39.4015 53.7294 42.7071 53.5623 45.8363 52.6342C48.9656 51.7062 51.8278 50.044 54.1847 47.786C56.5416 45.5281 58.325 42.7398 59.3864 39.6533C60.4479 36.5667 60.7566 33.2713 60.2869 30.0413C59.8171 26.8114 58.5826 23.7403 56.6861 21.084C54.7895 18.4276 52.2858 16.2627 49.3834 14.7696C46.481 13.2765 43.2639 12.4984 39.9999 12.5ZM39.9999 48.5C36.9343 48.5 33.9375 47.591 31.3886 45.8878C28.8396 44.1846 26.853 41.7639 25.6798 38.9316C24.5066 36.0994 24.1997 32.9828 24.7978 29.9761C25.3958 26.9694 26.8721 24.2076 29.0398 22.0399C31.2075 19.8722 33.9693 18.3959 36.976 17.7979C39.9827 17.1998 43.0993 17.5067 45.9315 18.6799C48.7638 19.853 51.1845 21.8397 52.8877 24.3887C54.5909 26.9376 55.4999 29.9344 55.4999 33C55.4973 37.1101 53.8634 41.051 50.9572 43.9573C48.0509 46.8635 44.11 48.4974 39.9999 48.5Z" fill="#C3CDDE" fill-opacity="0.35"/>
<path d="M45.44 29.1C45.44 31.94 43.91 34.04 38.44 39.1H45.8L45.42 42H34.26V39.32C40.26 33.32 41.65 31.76 41.65 29.42C41.6752 29.0975 41.6306 28.7733 41.5192 28.4696C41.4078 28.1659 41.2322 27.8898 41.0044 27.6602C40.7766 27.4305 40.502 27.2526 40.1992 27.1387C39.8965 27.0247 39.5727 26.9774 39.25 27C38.6007 27.025 37.9669 27.2051 37.4015 27.5252C36.8361 27.8453 36.3555 28.2962 36 28.84L33.79 27.08C34.4516 26.1502 35.3305 25.3963 36.3501 24.8839C37.3697 24.3715 38.4991 24.1161 39.64 24.14C43.34 24.14 45.44 26.37 45.44 29.1ZM35.44 47.28C32.411 46.3134 29.7675 44.4094 27.891 41.8427C26.0145 39.276 25.0021 36.1795 25 33C24.991 30.6506 25.543 28.3331 26.61 26.24C27.6765 24.1614 28.0575 21.7985 27.6982 19.49C27.3389 17.1815 26.2578 15.0461 24.61 13.39L18 6.79L30.58 7.15L31 1H8V24L14.11 23.64L13.75 11.06L20.35 17.66C21.0982 18.4265 21.5845 19.4103 21.739 20.4702C21.8935 21.5302 21.7083 22.6118 21.21 23.56C19.8459 26.2701 19.0852 29.2437 18.9804 32.276C18.8756 35.3083 19.4291 38.3272 20.6028 41.1251C21.7765 43.923 23.5425 46.4333 25.7793 48.4833C28.0161 50.5333 30.6706 52.0742 33.56 53C34.559 53.328 35.4291 53.9627 36.0466 54.8136C36.6642 55.6646 36.9978 56.6886 37 57.74V80H43V57.74C42.9997 55.4174 42.2643 53.1545 40.899 51.2755C39.5338 49.3965 37.6089 47.9979 35.4 47.28H35.44Z" fill="white"/>
</svg>
