<svg xmlns="http://www.w3.org/2000/svg" viewBox="0 0 80 80"><path d="M50,53.5A20.5,20.5,0,1,1,70.5,33,20.53,20.53,0,0,1,50,53.5Zm0-36A15.5,15.5,0,1,0,65.5,33,15.51,15.51,0,0,0,50,17.5Z" style="fill:#d1def4;opacity:0.35000000000000003"/><path d="M52,42H48.38V28.12l-3.84,2.36L42.92,28l5.83-3.51H52Zm-6.6,5.28a15,15,0,0,1-9.68-9.68A11,11,0,0,0,25.26,30H13V30l9.14-8.64L18.1,16.74,1.84,33,18.1,49.26l4.06-4.57L13,36.05v0H25.26A5,5,0,0,1,30,39.44,21,21,0,0,0,43.56,53,5,5,0,0,1,47,57.74V80h6V57.74A11,11,0,0,0,45.4,47.28Z" style="fill:#fff"/></svg>