<svg width="80" height="80" viewBox="0 0 80 80" fill="none" xmlns="http://www.w3.org/2000/svg">
<path d="M42.5 12.67V7.12C41.68 7 40.84 7 40 7C39.16 7 38.32 7 37.5 7.12V12.67C33.815 13.1225 30.3232 14.5711 27.4 16.86L23.48 12.94C22.1878 14.0022 21.0022 15.1878 19.94 16.48L23.86 20.4C21.5711 23.3232 20.1225 26.815 19.67 30.5H14.12C14 31.32 14 32.16 14 33C14 33.84 14 34.68 14.12 35.5H19.67C20.1225 39.185 21.5711 42.6768 23.86 45.6L19.94 49.52C21.0022 50.8122 22.1878 51.9978 23.48 53.06L27.4 49.14C29.8877 51.0823 32.7907 52.4233 35.8823 53.0583C38.9739 53.6934 42.1704 53.6054 45.2223 52.8011C48.2743 51.9968 51.099 50.498 53.4761 48.4217C55.8531 46.3454 57.7181 43.7478 58.9255 40.8318C60.1328 37.9157 60.6499 34.76 60.4363 31.6111C60.2227 28.4622 59.2842 25.4053 57.694 22.679C56.1039 19.9527 53.9052 17.6308 51.2695 15.8946C48.6339 14.1584 45.6326 13.0548 42.5 12.67ZM40 48.5C36.9344 48.5 33.9376 47.5909 31.3887 45.8878C28.8397 44.1846 26.853 41.7638 25.6799 38.9316C24.5067 36.0993 24.1998 32.9828 24.7978 29.9761C25.3959 26.9694 26.8721 24.2076 29.0398 22.0398C31.2076 19.8721 33.9694 18.3959 36.9761 17.7978C39.9828 17.1998 43.0993 17.5067 45.9316 18.6799C48.7638 19.853 51.1846 21.8397 52.8878 24.3887C54.5909 26.9376 55.5 29.9344 55.5 33C55.4974 37.11 53.8635 41.051 50.9572 43.9572C48.051 46.8635 44.11 48.4974 40 48.5Z" fill="#C3CDDE" fill-opacity="0.35"/>
<path d="M45.0499 27.15H38.5799V31.15C39.4097 30.7625 40.3141 30.5611 41.2299 30.56C44.1199 30.56 46.2299 32.64 46.2299 36.22C46.2299 39.8 43.5799 42.39 39.5199 42.39C38.4445 42.4142 37.3774 42.1977 36.3964 41.7565C35.4154 41.3154 34.5454 40.6606 33.8499 39.84L35.9999 37.92C36.4189 38.4418 36.9505 38.8622 37.5548 39.1496C38.1592 39.4371 38.8207 39.5842 39.4899 39.58C41.3599 39.58 42.4899 38.41 42.4899 36.25C42.4899 34.09 41.3699 33.16 39.8399 33.16C39.0703 33.164 38.3164 33.3784 37.6599 33.78H34.9999V24.48H45.4899L45.0499 27.15ZM48.9999 1L49.3599 7.11L61.9399 6.75L55.3399 13.35C54.6165 14.0962 53.6757 14.5947 52.6521 14.7743C51.6284 14.9539 50.5741 14.8054 49.6399 14.35C47.061 13.0251 44.2356 12.2487 41.3418 12.0695C38.448 11.8903 35.5485 12.3123 32.8258 13.3088C30.1031 14.3054 27.6163 15.855 25.5219 17.8599C23.4276 19.8649 21.7711 22.2818 20.6568 24.9585C19.5425 27.6351 18.9946 30.5135 19.0474 33.4124C19.1003 36.3112 19.7529 39.1677 20.9641 41.802C22.1753 44.4362 23.9188 46.7911 26.0849 48.7183C28.251 50.6456 30.7927 52.1034 33.5499 53C34.5507 53.3263 35.423 53.9602 36.0425 54.8113C36.662 55.6624 36.997 56.6873 36.9999 57.74V80H42.9999V57.74C42.9989 55.4162 42.262 53.1523 40.8949 51.2732C39.5278 49.3941 37.6006 47.9962 35.3899 47.28C33.4209 46.6384 31.606 45.5959 30.0597 44.2184C28.5133 42.8408 27.269 41.158 26.405 39.2758C25.541 37.3937 25.0762 35.3531 25.0397 33.2824C25.0032 31.2118 25.3959 29.156 26.193 27.2446C26.9901 25.3332 28.1744 23.6076 29.6712 22.1764C31.1681 20.7452 32.9451 19.6395 34.8903 18.9289C36.8355 18.2182 38.9068 17.9181 40.9737 18.0474C43.0406 18.1767 45.0584 18.7325 46.8999 19.68C48.9594 20.7415 51.3048 21.1152 53.5922 20.7462C55.8796 20.3773 57.9886 19.2852 59.6099 17.63L66.2099 11.03L65.8499 23.61L71.9999 24V1H48.9999Z" fill="white"/>
</svg>
