<svg width="80" height="80" viewBox="0 0 80 80" fill="none" xmlns="http://www.w3.org/2000/svg">
<path d="M41 58C32.1634 58 25 50.8366 25 42C25 33.1634 32.1634 26 41 26C49.8366 26 57 33.1634 57 42C57 50.8366 49.8366 58 41 58ZM41 32C35.4772 32 31 36.4772 31 42C31 47.5228 35.4772 52 41 52C46.5228 52 51 47.5228 51 42C51 36.4772 46.5228 32 41 32Z" fill="#C3CDDE" fill-opacity="0.35"/>
<path d="M41 2L24.74 18.26L29.31 22.33L38 13.18V23.28C38.0155 24.9294 37.0019 26.414 35.46 27C29.1889 29.3277 25.0278 35.3109 25.0278 42C25.0278 48.6891 29.1889 54.6723 35.46 57C36.9975 57.6028 38.0066 59.0885 38 60.74V80H44V60.74C43.9974 56.5812 41.4211 52.8581 37.53 51.39C33.5894 49.9467 30.9692 46.1966 30.9692 42C30.9692 37.8034 33.5894 34.0533 37.53 32.61C41.4143 31.1445 43.9891 27.4315 44 23.28V13.18H44.07L52.71 22.33L57.28 18.26L41 2Z" fill="white"/>
</svg>
