<svg width="80" height="80" viewBox="0 0 80 80" fill="none" xmlns="http://www.w3.org/2000/svg">
<path fill-rule="evenodd" clip-rule="evenodd" d="M43 5L43.0013 34.0835C42.4377 33.2567 41.8182 32.4639 41.1453 31.711L40.7351 31.2642L40.4143 30.9305L37 27.45V5H43Z" fill="#C3CDDE" fill-opacity="0.35"/>
<path d="M30 7L29.6406 13.1094L17.0625 12.75L16.905 12.907L37.7038 33.7319L38 34C41.1919 37.407 42.8919 41.8802 42.995 46.5477L43 47V80H37V46.5C36.9119 43.3528 35.8832 40.566 33.76 38.2728L33.5 38L12.895 16.916L12.75 17.0625L13.1094 29.6406L7 30V7H30Z" fill="white"/>
</svg>
