<svg width="80" height="80" viewBox="0 0 80 80" fill="none" xmlns="http://www.w3.org/2000/svg">
<path d="M42.5001 12.67V7.12C41.6801 7 40.8401 7 40.0001 7C39.1601 7 38.3201 7 37.5001 7.12V12.67C34.7744 13.0063 32.1442 13.888 29.7664 15.2624C27.3887 16.6368 25.312 18.4759 23.6601 20.67L18.8501 17.9C17.877 19.258 17.0396 20.7083 16.3501 22.23L21.1301 25C20.0574 27.5307 19.5047 30.2513 19.5047 33C19.5047 35.7487 20.0574 38.4693 21.1301 41L16.3501 43.76C17.0396 45.2817 17.877 46.732 18.8501 48.09L23.6601 45.31C25.6946 48.0152 28.368 50.174 31.441 51.5932C34.514 53.0124 37.8908 53.6478 41.2695 53.4425C44.6482 53.2373 47.9233 52.1978 50.8019 50.4171C53.6805 48.6364 56.0729 46.1699 57.765 43.2383C59.4572 40.3067 60.3963 37.0014 60.4984 33.6181C60.6005 30.2347 59.8625 26.8788 58.3502 23.8505C56.838 20.8222 54.5987 18.2159 51.8327 16.2648C49.0667 14.3137 45.8602 13.0786 42.5001 12.67ZM40.0001 48.5C36.9345 48.5 33.9377 47.5909 31.3888 45.8878C28.8398 44.1846 26.8531 41.7638 25.68 38.9316C24.5068 36.0993 24.1999 32.9828 24.7979 29.9761C25.396 26.9694 26.8722 24.2076 29.0399 22.0398C31.2077 19.8721 33.9695 18.3959 36.9762 17.7978C39.9829 17.1998 43.0994 17.5067 45.9317 18.6799C48.7639 19.853 51.1847 21.8397 52.8879 24.3887C54.591 26.9376 55.5001 29.9344 55.5001 33C55.4975 37.11 53.8636 41.051 50.9573 43.9572C48.0511 46.8635 44.1101 48.4974 40.0001 48.5Z" fill="#C3CDDE" fill-opacity="0.35"/>
<path d="M46.3399 38.1H44.2899V42H40.6999V38.1H33.2599V35.6L38.2599 24.09L41.3899 25.26L37.0399 35.26H40.6799L41.1099 31H44.2899V35.29H46.3399V38.1ZM48.9999 1L49.3599 7.11L61.9399 6.75L55.3399 13.35C54.6165 14.0962 53.6757 14.5947 52.6521 14.7743C51.6284 14.9539 50.5741 14.8054 49.6399 14.35C47.061 13.0251 44.2356 12.2487 41.3418 12.0695C38.448 11.8903 35.5485 12.3123 32.8258 13.3088C30.1031 14.3054 27.6163 15.855 25.5219 17.8599C23.4276 19.8649 21.7711 22.2818 20.6568 24.9585C19.5425 27.6351 18.9946 30.5135 19.0474 33.4124C19.1003 36.3112 19.7529 39.1677 20.9641 41.802C22.1753 44.4362 23.9188 46.7911 26.0849 48.7183C28.251 50.6456 30.7927 52.1034 33.5499 53C34.5507 53.3263 35.423 53.9602 36.0425 54.8113C36.662 55.6624 36.997 56.6873 36.9999 57.74V80H42.9999V57.74C42.9989 55.4162 42.262 53.1523 40.8949 51.2732C39.5278 49.3941 37.6006 47.9962 35.3899 47.28C33.4209 46.6384 31.606 45.5959 30.0597 44.2184C28.5133 42.8408 27.269 41.158 26.405 39.2758C25.541 37.3937 25.0762 35.3531 25.0397 33.2824C25.0032 31.2118 25.3959 29.156 26.193 27.2446C26.9901 25.3332 28.1744 23.6076 29.6712 22.1764C31.1681 20.7452 32.9451 19.6395 34.8903 18.9289C36.8355 18.2182 38.9068 17.9181 40.9737 18.0474C43.0406 18.1767 45.0584 18.7325 46.8999 19.68C48.9594 20.7415 51.3048 21.1152 53.5922 20.7462C55.8796 20.3773 57.9886 19.2852 59.6099 17.63L66.2099 11.03L65.8499 23.61L71.9999 24V1H48.9999Z" fill="white"/>
</svg>
