<svg xmlns="http://www.w3.org/2000/svg" viewBox="0 0 80 80"><path d="M40,12.5A20.47,20.47,0,0,0,23.86,45.6l-3.92,3.92a25.75,25.75,0,0,0,3.54,3.54l3.92-3.92A20.49,20.49,0,1,0,40,12.5Zm0,36A15.5,15.5,0,1,1,55.5,33,15.51,15.51,0,0,1,40,48.5Z" style="fill:#d1def4;opacity:0.35000000000000003"/><path d="M45.44,29.1c0,2.84-1.53,4.94-7,10h7.36L45.42,42H34.26V39.32c6-6,7.39-7.56,7.39-9.9A2.25,2.25,0,0,0,39.25,27,4.07,4.07,0,0,0,36,28.84l-2.21-1.76a7,7,0,0,1,5.85-2.94C43.34,24.14,45.44,26.37,45.44,29.1Zm-10,18.18A15,15,0,0,1,25,33a14.76,14.76,0,0,1,1.61-6.76,11.06,11.06,0,0,0-2-12.85L18,6.79l0,0,12.58.36L31,1H8V24l6.11-.36-.36-12.58,0,0,6.6,6.6a5.07,5.07,0,0,1,.86,5.9A21,21,0,0,0,33.56,53,5,5,0,0,1,37,57.74V80h6V57.74A11,11,0,0,0,35.4,47.28Z" style="fill:#fff"/></svg>