<svg width="80" height="80" viewBox="0 0 80 80" fill="none" xmlns="http://www.w3.org/2000/svg">
<g clip-path="url(#clip0_575_356)">
<path d="M43 27H37V69H43V27Z" fill="#C3CDDE" fill-opacity="0.35"/>
<path d="M40 1L24 17L28.5 21L37 12V27C37 28.3261 36.4732 29.5979 35.5355 30.5355C34.5979 31.4732 33.3261 32 32 32H22C19.0826 32 16.2847 33.1589 14.2218 35.2218C12.1589 37.2847 11 40.0826 11 43V54C11 56.9174 12.1589 59.7153 14.2218 61.7782C16.2847 63.8411 19.0826 65 22 65H32C33.3261 65 34.5979 65.5268 35.5355 66.4645C36.4732 67.4021 37 68.6739 37 70V80H43V70C43 67.0826 41.8411 64.2847 39.7782 62.2218C37.7153 60.1589 34.9174 59 32 59H22C20.6739 59 19.4021 58.4732 18.4645 57.5355C17.5268 56.5979 17 55.3261 17 54V43C17 41.6739 17.5268 40.4021 18.4645 39.4645C19.4021 38.5268 20.6739 38 22 38H32C34.9174 38 37.7153 36.8411 39.7782 34.7782C41.8411 32.7153 43 29.9174 43 27V12L51.5 21L56 17L40 1Z" fill="white"/>
</g>
<defs>
<clipPath id="clip0_575_356">
<rect width="80" height="80" fill="white"/>
</clipPath>
</defs>
</svg>
