<svg width="80" height="80" viewBox="0 0 80 80" fill="none" xmlns="http://www.w3.org/2000/svg">
<g clip-path="url(#clip0_15464_42593)">
<path d="M30 53.5C25.9455 53.5 21.982 52.2977 18.6108 50.0451C15.2396 47.7926 12.6121 44.5909 11.0605 40.845C9.50888 37.0991 9.10291 32.9773 9.89391 29.0007C10.6849 25.024 12.6373 21.3713 15.5043 18.5043C18.3713 15.6373 22.024 13.6849 26.0007 12.8939C29.9773 12.1029 34.0991 12.5089 37.845 14.0605C41.5909 15.6121 44.7926 18.2396 47.0451 21.6108C49.2977 24.982 50.5 28.9455 50.5 33C50.4921 38.4345 48.3297 43.6442 44.4869 47.4869C40.6442 51.3297 35.4345 53.4921 30 53.5ZM30 17.5C26.9344 17.5 23.9376 18.4091 21.3887 20.1122C18.8397 21.8154 16.853 24.2362 15.6799 27.0684C14.5067 29.9007 14.1998 33.0172 14.7978 36.0239C15.3959 39.0306 16.8721 41.7925 19.0399 43.9602C21.2076 46.1279 23.9694 47.6041 26.9761 48.2022C29.9828 48.8002 33.0993 48.4933 35.9316 47.3201C38.7639 46.147 41.1846 44.1603 42.8878 41.6113C44.5909 39.0624 45.5 36.0656 45.5 33C45.4974 28.89 43.8635 24.949 40.9572 22.0428C38.051 19.1365 34.1101 17.5027 30 17.5Z" fill="#C3CDDE" fill-opacity="0.35"/>
<path d="M33.09 42H29.47V28.12L25.62 30.48L24 28L29.83 24.49H33.08L33.09 42ZM61.9 16.74L57.84 21.31L67 30H54.74C52.4174 30.0003 50.1545 30.7357 48.2755 32.101C46.3965 33.4662 44.9979 35.3911 44.28 37.6C43.5503 39.8658 42.2919 41.9255 40.6087 43.6087C38.9255 45.2919 36.8658 46.5503 34.6 47.28C32.3911 47.9979 30.4662 49.3965 29.101 51.2755C27.7357 53.1545 27.0003 55.4174 27 57.74V80H33V57.74C33.0022 56.6886 33.3358 55.6646 33.9534 54.8136C34.5709 53.9626 35.441 53.328 36.44 53C39.6145 51.9788 42.5002 50.2162 44.8582 47.8582C47.2162 45.5002 48.9788 42.6145 50 39.44C50.328 38.441 50.9627 37.5709 51.8136 36.9533C52.6646 36.3358 53.6886 36.0022 54.74 36H67L57.86 44.64L61.92 49.21L78.16 33L61.9 16.74Z" fill="white"/>
</g>
<defs>
<clipPath id="clip0_15464_42593">
<rect width="80" height="80" fill="white"/>
</clipPath>
</defs>
</svg>
