<svg width="80" height="80" viewBox="0 0 80 80" fill="none" xmlns="http://www.w3.org/2000/svg">
<path d="M41 58C32.1634 58 25 50.8366 25 42C25 33.1634 32.1634 26 41 26C49.8366 26 57 33.1634 57 42C57 50.8366 49.8366 58 41 58ZM41 32C35.4772 32 31 36.4772 31 42C31 47.5228 35.4772 52 41 52C46.5228 52 51 47.5228 51 42C51 36.4772 46.5228 32 41 32Z" fill="#C3CDDE" fill-opacity="0.35"/>
<path d="M46.54 27C44.9981 26.414 43.9845 24.9294 44 23.28V13.18L52.64 22.33L57.21 18.26L41 2L24.74 18.26L29.31 22.33L38 13.18V23.28C38.0061 27.4239 40.5675 31.1348 44.44 32.61C48.3806 34.0533 51.0008 37.8034 51.0008 42C51.0008 46.1966 48.3806 49.9467 44.44 51.39C40.5607 52.8678 37.9979 56.5887 38 60.74V80H44V60.74C43.9886 59.096 44.9842 57.6124 46.51 57C52.781 54.6723 56.9422 48.6891 56.9422 42C56.9422 35.3109 52.781 29.3277 46.51 27H46.54Z" fill="white"/>
</svg>
