<svg width="80" height="80" viewBox="0 0 80 80" fill="none" xmlns="http://www.w3.org/2000/svg">
<path d="M75.8799 35.5C75.9599 34.68 75.9999 33.84 75.9999 33C75.9999 32.16 75.9999 31.32 75.8799 30.5H70.3299C69.8774 26.815 68.4288 23.3232 66.1399 20.4L70.0599 16.48C68.9977 15.1878 67.8121 14.0022 66.5199 12.94L62.5999 16.86C59.6767 14.5711 56.1849 13.1225 52.4999 12.67V7.12C51.6799 7 50.8399 7 49.9999 7C49.1599 7 48.3199 7 47.4999 7.12V12.67C43.8149 13.1225 40.3231 14.5711 37.3999 16.86L33.4799 12.94C32.1877 14.0022 31.0021 15.1878 29.9399 16.48L33.8599 20.4C30.7716 24.3371 29.2322 29.269 29.5328 34.2638C29.8334 39.2586 31.9532 43.9703 35.4914 47.5085C39.0296 51.0468 43.7413 53.1665 48.7361 53.4671C53.7309 53.7677 58.6629 52.2284 62.5999 49.14L66.5199 53.06C67.8121 51.9978 68.9977 50.8122 70.0599 49.52L66.1399 45.6C68.4288 42.6768 69.8774 39.185 70.3299 35.5H75.8799ZM49.9999 48.5C46.9343 48.5 43.9375 47.5909 41.3886 45.8878C38.8396 44.1846 36.8529 41.7638 35.6798 38.9316C34.5066 36.0993 34.1997 32.9828 34.7977 29.9761C35.3958 26.9694 36.872 24.2076 39.0398 22.0398C41.2075 19.8721 43.9693 18.3959 46.976 17.7978C49.9827 17.1998 53.0993 17.5067 55.9315 18.6799C58.7638 19.853 61.1845 21.8397 62.8877 24.3887C64.5909 26.9376 65.4999 29.9344 65.4999 33C65.4973 37.11 63.8634 41.051 60.9571 43.9572C58.0509 46.8635 54.11 48.4974 49.9999 48.5Z" fill="#C3CDDE" fill-opacity="0.35"/>
<path d="M56.3101 36C56.3662 36.8346 56.2472 37.6717 55.9607 38.4576C55.6742 39.2434 55.2266 39.9607 54.6465 40.5634C54.0665 41.166 53.3668 41.6407 52.5925 41.957C51.8181 42.2733 50.9862 42.4242 50.1501 42.4C45.5701 42.4 43.6701 38.96 43.6701 33.92C43.6701 28.02 46.4801 24.12 51.0601 24.12C52.4574 24.0902 53.831 24.4841 55.0001 25.25L53.6001 27.52C52.8575 27.0625 52.0024 26.8201 51.1301 26.82C49.0301 26.82 47.6801 28.74 47.4901 32.07C47.958 31.5082 48.5435 31.0559 49.2053 30.7449C49.867 30.4339 50.5889 30.2718 51.3201 30.27C54.1201 30.27 56.3101 32.3 56.3101 36ZM52.5901 36C52.5901 33.61 51.7601 32.8 50.3501 32.8C49.7813 32.8337 49.2278 32.9972 48.732 33.278C48.2363 33.5588 47.8114 33.9495 47.4901 34.42C47.5501 38.13 48.3001 39.64 50.1701 39.64C51.8101 39.71 52.5901 38.28 52.5901 36.07V36ZM70.8701 30.55C70.3245 25.7768 68.1587 21.3349 64.7341 17.9655C61.3094 14.596 56.8329 12.5027 52.0515 12.0347C47.27 11.5667 42.4726 12.7524 38.4596 15.394C34.4467 18.0355 31.4608 21.9731 30.0001 26.55C29.6738 27.5509 29.0399 28.4231 28.1888 29.0426C27.3377 29.6621 26.3128 29.9971 25.2601 30H14.0001L23.1401 21.36L19.1001 16.74L2.84009 33L19.1001 49.26L23.1601 44.69L14.0001 36.05H25.2601C27.5839 36.0491 29.8478 35.3122 31.7269 33.945C33.606 32.5779 35.0039 30.6508 35.7201 28.44C36.5023 25.9907 37.9009 23.7835 39.7818 22.0303C41.6627 20.2772 43.9627 19.037 46.461 18.4288C48.9592 17.8205 51.5719 17.8647 54.0482 18.5571C56.5245 19.2494 58.7812 20.5667 60.6017 22.3824C62.4223 24.1981 63.7455 26.4514 64.4444 28.9258C65.1433 31.4002 65.1945 34.0128 64.5929 36.5126C63.9913 39.0125 62.7572 41.3158 61.009 43.2013C59.2609 45.0868 57.0574 46.4914 54.6101 47.28C52.3994 47.9962 50.4722 49.3941 49.1051 51.2732C47.738 53.1524 47.0011 55.4162 47.0001 57.74V80H53.0001V57.74C53.003 56.6874 53.338 55.6624 53.9575 54.8113C54.577 53.9602 55.4493 53.3264 56.4501 53C61.056 51.4896 65.0027 48.4414 67.6281 44.3667C70.2535 40.292 71.3982 35.4385 70.8701 30.62V30.55Z" fill="white"/>
</svg>
