<svg width="80" height="80" viewBox="0 0 80 80" fill="none" xmlns="http://www.w3.org/2000/svg">
<path d="M60.5001 33C60.5136 28.3485 58.9495 23.8297 56.063 20.182C53.1766 16.5343 49.1385 13.9732 44.6084 12.917C40.0783 11.8608 35.3239 12.3721 31.1219 14.3671C26.9199 16.3622 23.5186 19.7233 21.4736 23.9012C19.4286 28.0792 18.8608 32.8272 19.863 37.3695C20.8651 41.9119 23.378 45.9802 26.9911 48.9098C30.6042 51.8395 35.1039 53.4574 39.7554 53.4992C44.4068 53.541 48.9349 52.0043 52.6001 49.14L56.5201 53.06C57.8122 51.9978 58.9978 50.8122 60.0601 49.52L56.1401 45.6C58.9636 42.0069 60.499 37.5698 60.5001 33ZM40.0001 48.5C36.9345 48.5 33.9377 47.591 31.3887 45.8878C28.8398 44.1846 26.8531 41.7639 25.6799 38.9316C24.5068 36.0994 24.1998 32.9828 24.7979 29.9761C25.396 26.9694 26.8722 24.2076 29.0399 22.0399C31.2076 19.8722 33.9695 18.3959 36.9762 17.7979C39.9829 17.1998 43.0994 17.5067 45.9317 18.6799C48.7639 19.8531 51.1847 21.8397 52.8878 24.3887C54.591 26.9377 55.5001 29.9344 55.5001 33C55.4974 37.1101 53.8635 41.051 50.9573 43.9573C48.0511 46.8635 44.1101 48.4974 40.0001 48.5Z" fill="#C3CDDE" fill-opacity="0.35"/>
<path d="M45.53 29.1C45.53 31.94 44 34.04 38.53 39.1H45.89L45.51 42H34.35V39.32C40.35 33.32 41.74 31.76 41.74 29.42C41.7653 29.0975 41.7207 28.7733 41.6092 28.4696C41.4978 28.1659 41.3223 27.8898 41.0945 27.6602C40.8667 27.4305 40.592 27.2526 40.2893 27.1387C39.9865 27.0247 39.6627 26.9774 39.34 27C38.6754 27.0106 38.0234 27.1839 37.4412 27.5046C36.859 27.8254 36.3642 28.2839 36 28.84L33.79 27.08C34.4516 26.1502 35.3305 25.3963 36.3501 24.8839C37.3697 24.3715 38.4992 24.1161 39.64 24.14C43.43 24.14 45.53 26.37 45.53 29.1ZM49 1L49.36 7.11L61.94 6.75L55.34 13.35C53.6922 15.0061 52.6111 17.1415 52.2519 19.45C51.8926 21.7585 52.2735 24.1214 53.34 26.2C54.4306 28.3008 54.9999 30.633 55 33C55.0006 36.1745 53.9941 39.2673 52.1252 41.8334C50.2563 44.3995 47.6216 46.3065 44.6 47.28C42.3912 47.9979 40.4662 49.3965 39.101 51.2755C37.7358 53.1545 37.0003 55.4174 37 57.74V80H43V57.74C43.0022 56.6886 43.3358 55.6646 43.9534 54.8136C44.571 53.9627 45.4411 53.328 46.44 53C49.3299 52.0706 51.984 50.5257 54.2193 48.4718C56.4547 46.4179 58.2181 43.9037 59.3882 41.1026C60.5582 38.3015 61.1071 35.28 60.9969 32.2463C60.8868 29.2126 60.1202 26.2389 58.75 23.53C58.2518 22.5818 58.0666 21.5002 58.2211 20.4402C58.3756 19.3803 58.8618 18.3965 59.61 17.63L66.21 11.03L65.85 23.61L72 24V1H49Z" fill="white"/>
</svg>
