<svg width="80" height="80" viewBox="0 0 80 80" fill="none" xmlns="http://www.w3.org/2000/svg">
<path d="M60.5 33C60.5024 30.2506 59.9479 27.5293 58.87 25L63.65 22.24C62.9604 20.7183 62.1231 19.268 61.15 17.91L56.34 20.69C54.6881 18.4959 52.6114 16.6568 50.2336 15.2824C47.8559 13.908 45.2257 13.0263 42.5 12.69V7.12C41.68 7 40.84 7 40 7C39.16 7 38.32 7 37.5 7.12V12.67C34.1368 13.0765 30.927 14.3104 28.1576 16.2615C25.3883 18.2125 23.1459 20.8197 21.6311 23.8498C20.1163 26.8798 19.3764 30.2382 19.4777 33.6243C19.5789 37.0104 20.5181 40.3185 22.2112 43.2527C23.9043 46.1868 26.2984 48.6554 29.1794 50.4375C32.0604 52.2197 35.3382 53.2597 38.7196 53.4645C42.101 53.6693 45.4805 53.0326 48.5555 51.6112C51.6305 50.1899 54.3051 48.0283 56.34 45.32L61.15 48.1C62.1231 46.742 62.9604 45.2917 63.65 43.77L58.87 41C59.9479 38.4707 60.5024 35.7494 60.5 33ZM40 48.5C36.9344 48.5 33.9376 47.5909 31.3886 45.8878C28.8397 44.1846 26.853 41.7638 25.6798 38.9316C24.5067 36.0993 24.1997 32.9828 24.7978 29.9761C25.3959 26.9694 26.8721 24.2076 29.0398 22.0398C31.2075 19.8721 33.9694 18.3959 36.9761 17.7978C39.9828 17.1998 43.0993 17.5067 45.9316 18.6799C48.7638 19.853 51.1846 21.8397 52.8878 24.3887C54.5909 26.9376 55.5 29.9344 55.5 33C55.4973 37.11 53.8634 41.051 50.9572 43.9572C48.051 46.8635 44.11 48.4974 40 48.5Z" fill="#C3CDDE" fill-opacity="0.35"/>
<path d="M46.43 38.1H44.43V42H40.79V38.1H33.35V35.6L38.35 24.09L41.47 25.26L37.12 35.26H40.76L41.2 31H44.38V35.29H46.38L46.43 38.1ZM60.87 30.59C60.4815 27.2088 59.277 23.9728 57.3602 21.1604C55.4435 18.3481 52.8719 16.0438 49.8669 14.4458C46.862 12.8479 43.5137 12.0043 40.1103 11.9876C36.7069 11.9709 33.3505 12.7816 30.33 14.35C29.3958 14.8054 28.3415 14.9539 27.3178 14.7743C26.2942 14.5947 25.3534 14.0962 24.63 13.35L18 6.79L30.58 7.15L31 1H8V24L14.11 23.64L13.75 11.06L20.35 17.66C21.9795 19.3164 24.0974 20.4064 26.3923 20.77C28.6872 21.1336 31.0383 20.7516 33.1 19.68C34.9415 18.7325 36.9593 18.1767 39.0262 18.0474C41.0931 17.9181 43.1644 18.2182 45.1096 18.9289C47.0548 19.6395 48.8318 20.7452 50.3287 22.1764C51.8255 23.6076 53.0098 25.3332 53.8069 27.2446C54.604 29.156 54.9967 31.2118 54.9602 33.2824C54.9237 35.3531 54.4589 37.3937 53.5949 39.2758C52.7309 41.158 51.4866 42.8408 49.9402 44.2184C48.3939 45.5959 46.579 46.6384 44.61 47.28C42.3993 47.9962 40.4721 49.3941 39.105 51.2732C37.7379 53.1523 37.001 55.4162 37 57.74V80H43V57.74C43.0029 56.6873 43.3379 55.6624 43.9574 54.8113C44.5769 53.9602 45.4492 53.3263 46.45 53C51.0625 51.4902 55.0144 48.4378 57.6406 44.3564C60.2668 40.2749 61.4073 35.4135 60.87 30.59Z" fill="white"/>
</svg>
