<svg width="80" height="80" viewBox="0 0 80 80" fill="none" xmlns="http://www.w3.org/2000/svg">
<path d="M60.5001 33.0001C60.4992 28.4599 58.9824 24.05 56.1901 20.4701L60.1301 16.5601C59.0755 15.2616 57.8966 14.0692 56.6101 13.0001L52.6701 16.9001C49.6544 14.5174 46.0296 13.0304 42.2094 12.6089C38.3892 12.1874 34.5275 12.8483 31.0649 14.5162C27.6022 16.1841 24.6782 18.7918 22.6265 22.0418C20.5748 25.2917 19.478 29.053 19.4614 32.8963C19.4447 36.7397 20.5088 40.5103 22.5322 43.7779C24.5557 47.0456 27.457 49.6785 30.905 51.3764C34.353 53.0743 38.2089 53.7687 42.0326 53.3803C45.8563 52.992 49.4939 51.5365 52.5301 49.1801L56.4301 53.1101C57.7316 52.0592 58.9273 50.8836 60.0001 49.6001L56.1001 45.6701C58.955 42.0645 60.5058 37.599 60.5001 33.0001ZM40.0001 48.5001C36.9345 48.5001 33.9377 47.591 31.3888 45.8878C28.8398 44.1847 26.8531 41.7639 25.68 38.9317C24.5068 36.0994 24.1999 32.9829 24.7979 29.9762C25.396 26.9695 26.8722 24.2076 29.04 22.0399C31.2077 19.8722 33.9695 18.396 36.9762 17.7979C39.9829 17.1998 43.0994 17.5068 45.9317 18.6799C48.764 19.8531 51.1847 21.8398 52.8879 24.3887C54.5911 26.9377 55.5001 29.9344 55.5001 33.0001C55.4975 37.1101 53.8636 41.051 50.9573 43.9573C48.0511 46.8635 44.1102 48.4974 40.0001 48.5001Z" fill="#C3CDDE" fill-opacity="0.35"/>
<path d="M45.35 28.58C45.3625 29.5649 45.0244 30.5221 44.396 31.2805C43.7677 32.039 42.89 32.5492 41.92 32.72C42.4681 32.7326 43.0081 32.8551 43.508 33.0801C44.008 33.3051 44.4577 33.628 44.8306 34.0299C45.2036 34.4317 45.4921 34.9043 45.6792 35.4196C45.8664 35.9349 45.9482 36.4825 45.92 37.03C45.92 40.03 43.58 42.42 39.4 42.42C38.2933 42.4671 37.1908 42.2568 36.1792 41.8057C35.1676 41.3545 34.2744 40.6748 33.57 39.82L35.57 37.89C36.0202 38.4095 36.5759 38.8271 37.2001 39.115C37.8243 39.403 38.5026 39.5547 39.19 39.56C39.5706 39.6026 39.9559 39.5618 40.3191 39.4406C40.6824 39.3194 41.0149 39.1206 41.2937 38.858C41.5725 38.5955 41.7908 38.2754 41.9334 37.92C42.0761 37.5646 42.1398 37.1824 42.12 36.8C42.12 34.85 41.03 34.15 39.12 34.15H37.68L38.12 31.55H39.12C39.4638 31.5906 39.8124 31.5564 40.1418 31.4496C40.4711 31.3428 40.7735 31.166 41.0281 30.9314C41.2827 30.6967 41.4835 30.4098 41.6167 30.0902C41.75 29.7706 41.8125 29.426 41.8 29.08C41.8 27.73 40.8 26.92 39.33 26.92C38.6808 26.9224 38.0389 27.0576 37.4439 27.3173C36.8489 27.577 36.3133 27.9557 35.87 28.43L34.03 26.43C34.7765 25.692 35.6621 25.1096 36.6354 24.7165C37.6087 24.3234 38.6504 24.1274 39.7 24.14C43.37 24.14 45.35 26.14 45.35 28.58ZM60.87 30.58C60.48 27.1997 59.2745 23.9648 57.3571 21.1537C55.4398 18.3426 52.8681 16.0396 49.8633 14.4428C46.8585 12.8459 43.5108 12.0032 40.1081 11.987C36.7054 11.9708 33.3498 12.7818 30.33 14.35C29.3958 14.8054 28.3415 14.9539 27.3178 14.7743C26.2942 14.5947 25.3534 14.0962 24.63 13.35L18 6.79L30.58 7.15L31 1H8V24L14.11 23.64L13.75 11.06L20.35 17.66C21.9795 19.3164 24.0974 20.4064 26.3923 20.77C28.6872 21.1336 31.0383 20.7516 33.1 19.68C34.9415 18.7325 36.9593 18.1767 39.0262 18.0474C41.0931 17.9181 43.1644 18.2182 45.1096 18.9289C47.0548 19.6395 48.8318 20.7452 50.3287 22.1764C51.8255 23.6076 53.0098 25.3332 53.8069 27.2446C54.604 29.156 54.9967 31.2118 54.9602 33.2824C54.9237 35.3531 54.4589 37.3937 53.5949 39.2758C52.7309 41.158 51.4866 42.8408 49.9402 44.2184C48.3939 45.5959 46.579 46.6384 44.61 47.28C42.3993 47.9962 40.4721 49.3941 39.105 51.2732C37.7379 53.1523 37.001 55.4162 37 57.74V80H43V57.74C43.0029 56.6873 43.3379 55.6624 43.9574 54.8113C44.5769 53.9602 45.4492 53.3263 46.45 53C51.0625 51.4902 55.0144 48.4378 57.6406 44.3564C60.2668 40.2749 61.4073 35.4135 60.87 30.59V30.58Z" fill="white"/>
</svg>
