<svg width="80" height="80" viewBox="0 0 80 80" fill="none" xmlns="http://www.w3.org/2000/svg">
<path d="M65.8799 35.5C65.9599 34.68 65.9999 33.84 65.9999 33C65.9999 32.16 65.9999 31.32 65.8799 30.5H60.3299C59.8774 26.815 58.4288 23.3232 56.1399 20.4L60.0599 16.48C58.9977 15.1878 57.8121 14.0022 56.5199 12.94L52.5999 16.86C49.6767 14.5711 46.1849 13.1225 42.4999 12.67V7.12C41.6799 7 40.8399 7 39.9999 7C39.1599 7 38.3199 7 37.4999 7.12V12.67C34.3621 13.0498 31.3547 14.1504 28.7129 15.8857C26.0711 17.621 23.8666 19.9439 22.2718 22.6727C20.677 25.4016 19.7351 28.4624 19.5198 31.6158C19.3045 34.7691 19.8216 37.9296 21.0307 40.8499C22.2398 43.7702 24.1082 46.3712 26.4895 48.4494C28.8709 50.5276 31.7008 52.0268 34.7579 52.8296C37.815 53.6324 41.0163 53.717 44.1116 53.077C47.2068 52.4369 50.112 51.0895 52.5999 49.14L56.5199 53.06C57.8121 51.9978 58.9977 50.8122 60.0599 49.52L56.1399 45.6C58.4288 42.6768 59.8774 39.185 60.3299 35.5H65.8799ZM39.9999 48.5C36.9343 48.5 33.9375 47.5909 31.3886 45.8878C28.8396 44.1846 26.8529 41.7638 25.6798 38.9316C24.5066 36.0993 24.1997 32.9828 24.7977 29.9761C25.3958 26.9694 26.872 24.2076 29.0397 22.0398C31.2075 19.8721 33.9693 18.3959 36.976 17.7978C39.9827 17.1998 43.0992 17.5067 45.9315 18.6799C48.7637 19.853 51.1845 21.8397 52.8877 24.3887C54.5908 26.9376 55.4999 29.9344 55.4999 33C55.4972 37.11 53.8634 41.051 50.9571 43.9572C48.0509 46.8635 44.1099 48.4974 39.9999 48.5Z" fill="#C3CDDE" fill-opacity="0.35"/>
<path d="M45.14 27.15H38.67V31.15C39.4997 30.7625 40.4042 30.5611 41.32 30.56C44.21 30.56 46.32 32.64 46.32 36.22C46.32 39.8 43.67 42.39 39.61 42.39C38.547 42.4089 37.493 42.1928 36.5233 41.7572C35.5535 41.3216 34.6919 40.6772 34 39.87L36 37.92C36.419 38.4418 36.9506 38.8622 37.5549 39.1496C38.1593 39.4371 38.8208 39.5842 39.49 39.58C41.36 39.58 42.49 38.41 42.49 36.25C42.49 34.09 41.37 33.16 39.84 33.16C39.0706 33.1655 38.3171 33.3798 37.66 33.78H35.13V24.48H45.58L45.14 27.15ZM60.87 30.59C60.4815 27.2088 59.277 23.9728 57.3602 21.1604C55.4435 18.3481 52.8719 16.0438 49.8669 14.4458C46.862 12.8479 43.5137 12.0043 40.1103 11.9876C36.7069 11.9709 33.3505 12.7816 30.33 14.35C29.3958 14.8054 28.3415 14.9539 27.3178 14.7743C26.2942 14.5947 25.3534 14.0962 24.63 13.35L18 6.79L30.58 7.15L31 1H8V24L14.11 23.64L13.75 11.06L20.35 17.66C21.9795 19.3164 24.0974 20.4064 26.3923 20.77C28.6872 21.1336 31.0383 20.7516 33.1 19.68C34.9415 18.7325 36.9593 18.1767 39.0262 18.0474C41.0931 17.9181 43.1644 18.2182 45.1096 18.9289C47.0548 19.6395 48.8318 20.7452 50.3287 22.1764C51.8255 23.6076 53.0098 25.3332 53.8069 27.2446C54.604 29.156 54.9967 31.2118 54.9602 33.2824C54.9237 35.3531 54.4589 37.3937 53.5949 39.2758C52.7309 41.158 51.4866 42.8408 49.9402 44.2184C48.3939 45.5959 46.579 46.6384 44.61 47.28C42.3993 47.9962 40.4721 49.3941 39.105 51.2732C37.7379 53.1523 37.001 55.4162 37 57.74V80H43V57.74C43.0029 56.6873 43.3379 55.6624 43.9574 54.8113C44.5769 53.9602 45.4492 53.3263 46.45 53C51.0625 51.4902 55.0144 48.4378 57.6406 44.3564C60.2668 40.2749 61.4073 35.4135 60.87 30.59Z" fill="white"/>
</svg>
