<svg width="96" height="96" viewBox="0 0 96 96" fill="none" xmlns="http://www.w3.org/2000/svg">
<path d="M7.41422 46.5858L46.59 7.41001C47.3694 6.6306 48.6325 6.62872 49.4142 7.40579L88.5815 46.34C89.3649 47.1187 89.3687 48.3851 88.59 49.1684L49.4142 88.5774C48.6338 89.3624 47.3643 89.3643 46.5816 88.5816L7.41422 49.4142C6.63317 48.6332 6.63317 47.3668 7.41422 46.5858Z" fill="#FFBD09"/>
<path fill-rule="evenodd" clip-rule="evenodd" d="M48.0063 15.2363L15.2426 48L47.9937 80.7511L80.7573 47.7924L48.0063 15.2363ZM46.59 12.41L12.4142 46.5858C11.6332 47.3668 11.6332 48.6332 12.4142 49.4142L46.5816 83.5816C47.3643 84.3643 48.6338 84.3624 49.4142 83.5774L83.59 49.1982C84.3687 48.4148 84.3649 47.1485 83.5815 46.3697L49.4142 12.4058C48.6325 11.6287 47.3694 11.6306 46.59 12.41Z" fill="#0E1520"/>
<path d="M46.8281 33.912V45H43.4841L40.2841 36.408C40.4121 37.416 40.6201 38.888 40.6201 40.936V45H38.2841V33.912H41.5481L44.8281 42.52C44.6841 41.624 44.4761 40.168 44.4761 38.392V33.912H46.8281Z" fill="#0E1520"/>
<path d="M53.2134 33.64C56.3494 33.64 58.2214 35.752 58.2214 39.448C58.2214 43.08 56.3494 45.272 53.2134 45.272C50.0934 45.272 48.2214 43.144 48.2214 39.448C48.2214 35.832 50.0934 33.64 53.2134 33.64ZM53.2134 35.56C51.7414 35.56 50.9734 36.648 50.9734 39.448C50.9734 42.264 51.7734 43.352 53.2134 43.352C54.7174 43.352 55.4694 42.264 55.4694 39.448C55.4694 36.648 54.7014 35.56 53.2134 35.56Z" fill="#0E1520"/>
<path d="M34.7312 47.912C37.5952 47.912 39.3552 49.096 39.3552 51.528C39.3552 54.104 37.5312 55.304 34.9712 55.304H33.7712V59H31.1472V47.912H34.7312ZM34.7472 53.416C35.9312 53.416 36.6512 52.92 36.6512 51.528C36.6512 50.344 35.9952 49.784 34.6992 49.784H33.7712V53.416H34.7472Z" fill="#0E1520"/>
<path d="M45.5147 59L44.9387 56.616H41.7067L41.1467 59H38.4267L41.7707 47.912H44.9547L48.2987 59H45.5147ZM42.1547 54.712H44.4907L43.3227 49.816L42.1547 54.712Z" fill="#0E1520"/>
<path d="M52.5202 47.64C54.2162 47.64 55.3842 48.136 56.3602 49.064L55.1442 50.488C54.3762 49.864 53.6082 49.56 52.7122 49.56C51.8002 49.56 51.2242 49.944 51.2242 50.648C51.2242 51.352 51.6402 51.64 53.3682 52.184C55.4642 52.856 56.6642 53.72 56.6642 55.768C56.6642 57.832 55.0322 59.272 52.2642 59.272C50.3442 59.272 48.9682 58.568 48.0562 57.688L49.3842 56.232C50.2002 56.92 51.0802 57.32 52.1842 57.32C53.2722 57.32 53.9442 56.808 53.9442 55.96C53.9442 55.144 53.5282 54.776 51.9122 54.28C49.4322 53.512 48.5202 52.488 48.5202 50.84C48.5202 48.888 50.2162 47.64 52.5202 47.64Z" fill="#0E1520"/>
<path d="M61.3446 47.64C63.0406 47.64 64.2086 48.136 65.1846 49.064L63.9686 50.488C63.2006 49.864 62.4326 49.56 61.5366 49.56C60.6246 49.56 60.0486 49.944 60.0486 50.648C60.0486 51.352 60.4646 51.64 62.1926 52.184C64.2886 52.856 65.4886 53.72 65.4886 55.768C65.4886 57.832 63.8566 59.272 61.0886 59.272C59.1686 59.272 57.7926 58.568 56.8806 57.688L58.2086 56.232C59.0246 56.92 59.9046 57.32 61.0086 57.32C62.0966 57.32 62.7686 56.808 62.7686 55.96C62.7686 55.144 62.3526 54.776 60.7366 54.28C58.2566 53.512 57.3446 52.488 57.3446 50.84C57.3446 48.888 59.0406 47.64 61.3446 47.64Z" fill="#0E1520"/>
</svg>
