<svg width="96" height="96" viewBox="0 0 96 96" fill="none" xmlns="http://www.w3.org/2000/svg">
<path fill-rule="evenodd" clip-rule="evenodd" d="M46.59 7.41001L7.41422 46.5858C6.63317 47.3668 6.63317 48.6332 7.41422 49.4142L46.5816 88.5816C47.3643 89.3643 48.6338 89.3624 49.4142 88.5774L88.59 49.1684C89.3687 48.3851 89.3649 47.1187 88.5815 46.34L49.4142 7.40579C48.6325 6.62872 47.3694 6.6306 46.59 7.41001Z" fill="#FFBD09"/>
<path fill-rule="evenodd" clip-rule="evenodd" d="M46.59 12.41L12.4142 46.5858C11.6332 47.3668 11.6332 48.6332 12.4142 49.4142L46.5816 83.5816C47.3643 84.3643 48.6338 84.3624 49.4142 83.5774L83.59 49.1982C84.3687 48.4148 84.3649 47.1485 83.5815 46.3698L49.4142 12.4058C48.6325 11.6287 47.3694 11.6306 46.59 12.41ZM15.2426 48L48.0063 15.2363L80.7573 47.7924L47.9937 80.7511L15.2426 48Z" fill="#0E1520"/>
<path d="M47.1943 32.377V40H44.8953L42.6953 34.093C42.7833 34.786 42.9263 35.798 42.9263 37.206V40H41.3203V32.377H43.5643L45.8193 38.295C45.7203 37.679 45.5773 36.678 45.5773 35.457V32.377H47.1943Z" fill="#0E1520"/>
<path d="M51.5843 32.19C53.7403 32.19 55.0273 33.642 55.0273 36.183C55.0273 38.68 53.7403 40.187 51.5843 40.187C49.4393 40.187 48.1523 38.724 48.1523 36.183C48.1523 33.697 49.4393 32.19 51.5843 32.19ZM51.5843 33.51C50.5723 33.51 50.0443 34.258 50.0443 36.183C50.0443 38.119 50.5943 38.867 51.5843 38.867C52.6183 38.867 53.1353 38.119 53.1353 36.183C53.1353 34.258 52.6073 33.51 51.5843 33.51Z" fill="#0E1520"/>
<path d="M30.2395 43.377C32.2085 43.377 33.4185 44.191 33.4185 45.863C33.4185 47.634 32.1645 48.459 30.4045 48.459H29.5795V51H27.7755V43.377H30.2395ZM30.2505 47.161C31.0645 47.161 31.5595 46.82 31.5595 45.863C31.5595 45.049 31.1085 44.664 30.2175 44.664H29.5795V47.161H30.2505Z" fill="#0E1520"/>
<path d="M37.6531 51L37.2571 49.361H35.0351L34.6501 51H32.7801L35.0791 43.377H37.2681L39.5671 51H37.6531ZM35.3431 48.052H36.9491L36.1461 44.686L35.3431 48.052Z" fill="#0E1520"/>
<path d="M42.4694 43.19C43.6354 43.19 44.4384 43.531 45.1094 44.169L44.2734 45.148C43.7454 44.719 43.2174 44.51 42.6014 44.51C41.9744 44.51 41.5784 44.774 41.5784 45.258C41.5784 45.742 41.8644 45.94 43.0524 46.314C44.4934 46.776 45.3184 47.37 45.3184 48.778C45.3184 50.197 44.1964 51.187 42.2934 51.187C40.9734 51.187 40.0274 50.703 39.4004 50.098L40.3134 49.097C40.8744 49.57 41.4794 49.845 42.2384 49.845C42.9864 49.845 43.4484 49.493 43.4484 48.91C43.4484 48.349 43.1624 48.096 42.0514 47.755C40.3464 47.227 39.7194 46.523 39.7194 45.39C39.7194 44.048 40.8854 43.19 42.4694 43.19Z" fill="#0E1520"/>
<path d="M48.5362 43.19C49.7022 43.19 50.5052 43.531 51.1762 44.169L50.3402 45.148C49.8122 44.719 49.2842 44.51 48.6682 44.51C48.0412 44.51 47.6452 44.774 47.6452 45.258C47.6452 45.742 47.9312 45.94 49.1192 46.314C50.5602 46.776 51.3852 47.37 51.3852 48.778C51.3852 50.197 50.2632 51.187 48.3602 51.187C47.0402 51.187 46.0942 50.703 45.4672 50.098L46.3802 49.097C46.9412 49.57 47.5462 49.845 48.3052 49.845C49.0532 49.845 49.5152 49.493 49.5152 48.91C49.5152 48.349 49.2292 48.096 48.1182 47.755C46.4132 47.227 45.7862 46.523 45.7862 45.39C45.7862 44.048 46.9522 43.19 48.5362 43.19Z" fill="#0E1520"/>
<path d="M54.0721 43.377V51H52.2681V43.377H54.0721Z" fill="#0E1520"/>
<path d="M61.2548 43.377V51H58.9558L56.7558 45.093C56.8438 45.786 56.9868 46.798 56.9868 48.206V51H55.3808V43.377H57.6248L59.8798 49.295C59.7808 48.679 59.6378 47.678 59.6378 46.457V43.377H61.2548Z" fill="#0E1520"/>
<path d="M65.8647 43.19C66.9757 43.19 67.7787 43.575 68.4057 44.125L67.4927 45.082C66.9757 44.686 66.5577 44.499 65.9417 44.499C64.8747 44.499 64.0827 45.291 64.0827 47.183C64.0827 49.185 64.6107 49.867 65.6667 49.867C66.0407 49.867 66.3817 49.79 66.7007 49.614V47.887H65.7107L65.5347 46.611H68.4497V50.384C67.6577 50.89 66.6677 51.187 65.7107 51.187C63.3787 51.187 62.2127 49.79 62.2127 47.183C62.2127 44.598 63.8187 43.19 65.8647 43.19Z" fill="#0E1520"/>
<path d="M40.6002 54.377V55.741L37.2892 60.559H40.6552L40.4792 62H35.1662V60.647L38.5432 55.774H35.5072V54.377H40.6002Z" fill="#0E1520"/>
<path d="M44.3573 54.19C46.5133 54.19 47.8003 55.642 47.8003 58.183C47.8003 60.68 46.5133 62.187 44.3573 62.187C42.2123 62.187 40.9253 60.724 40.9253 58.183C40.9253 55.697 42.2123 54.19 44.3573 54.19ZM44.3573 55.51C43.3453 55.51 42.8173 56.258 42.8173 58.183C42.8173 60.119 43.3673 60.867 44.3573 60.867C45.3913 60.867 45.9083 60.119 45.9083 58.183C45.9083 56.258 45.3803 55.51 44.3573 55.51Z" fill="#0E1520"/>
<path d="M54.6468 54.377V62H52.3478L50.1478 56.093C50.2358 56.786 50.3788 57.798 50.3788 59.206V62H48.7728V54.377H51.0168L53.2718 60.295C53.1728 59.679 53.0298 58.678 53.0298 57.457V54.377H54.6468Z" fill="#0E1520"/>
<path d="M60.6318 54.377L60.4448 55.664H57.7608V57.49H60.1038V58.755H57.7608V60.702H60.6318V62H55.9568V54.377H60.6318Z" fill="#0E1520"/>
</svg>
