<svg width="96" height="96" viewBox="0 0 96 96" fill="none" xmlns="http://www.w3.org/2000/svg">
<path fill-rule="evenodd" clip-rule="evenodd" d="M48 6C71.196 6 90 24.804 90 48C90 71.196 71.196 90 48 90C24.804 90 6 71.196 6 48C6 24.804 24.804 6 48 6ZM48 8C25.9086 8 8 25.9086 8 48C8 70.0914 25.9086 88 48 88C70.0914 88 88 70.0914 88 48C88 25.9086 70.0914 8 48 8ZM48 14C66.7777 14 82 29.2223 82 48C82 66.7777 66.7777 82 48 82C29.2223 82 14 66.7777 14 48C14 29.2223 29.2223 14 48 14Z" fill="white"/>
<path fill-rule="evenodd" clip-rule="evenodd" d="M48 8C70.0914 8 88 25.9086 88 48C88 70.0914 70.0914 88 48 88C25.9086 88 8 70.0914 8 48C8 25.9086 25.9086 8 48 8ZM48 14C29.2223 14 14 29.2223 14 48C14 66.7777 29.2223 82 48 82C66.7777 82 82 66.7777 82 48C82 29.2223 66.7777 14 48 14Z" fill="#CF001A"/>
<path d="M75 41.4H72L70.92 39.96C70.44 39.36 69.72 39 68.88 39H57C56.16 39 55.44 39.36 54.96 39.96L54 41.4H51V43.8H52.32L51.36 45.12C51.12 45.48 51 45.84 51 46.32V53.4C51 54.72 52.08 55.8 53.4 55.8H57C57.72 55.8 58.2 55.32 58.2 54.6V53.4H67.8V54.6C67.8 55.32 68.28 55.8 69 55.8H72.6C73.2 55.8 73.8 55.56 74.28 55.08C74.76 54.6 75 54 75 53.4V46.32C75 45.84 74.88 45.48 74.64 45.12L73.68 43.8H75V41.4ZM58.2 49.8H53.4V47.4H58.2V49.8ZM54.6 45L56.64 42C56.88 41.64 57.24 41.4 57.6 41.4H68.28C68.64 41.4 69 41.64 69.24 42L71.4 45H54.6ZM72.6 49.8H67.8V47.4H72.6V49.8Z" fill="#0E1520"/>
<path d="M45 41.4H42L40.92 39.96C40.44 39.36 39.72 39 38.88 39H27C26.16 39 25.44 39.36 24.96 39.96L24 41.4H21V43.8H22.32L21.36 45.12C21.12 45.48 21 45.84 21 46.32V53.4C21 54.72 22.08 55.8 23.4 55.8H27C27.72 55.8 28.2 55.32 28.2 54.6V53.4H37.8V54.6C37.8 55.32 38.28 55.8 39 55.8H42.6C43.2 55.8 43.8 55.56 44.28 55.08C44.76 54.6 45 54 45 53.4V46.32C45 45.84 44.88 45.48 44.64 45.12L43.68 43.8H45V41.4ZM28.2 49.8H23.4V47.4H28.2V49.8ZM24.6 45L26.64 42C26.88 41.64 27.24 41.4 27.6 41.4H38.28C38.64 41.4 39 41.64 39.24 42L41.4 45H24.6ZM42.6 49.8H37.8V47.4H42.6V49.8Z" fill="#CF001A"/>
</svg>
