<svg width="96" height="96" viewBox="0 0 96 96" fill="none" xmlns="http://www.w3.org/2000/svg">
<path d="M90 48C90 24.804 71.196 6 48 6C24.804 6 6 24.804 6 48C6 71.196 24.804 90 48 90C71.196 90 90 71.196 90 48Z" fill="#FFBD09"/>
<path fill-rule="evenodd" clip-rule="evenodd" d="M86 48C86 27.0132 68.9868 10 48 10C27.0132 10 10 27.0132 10 48C10 68.9868 27.0132 86 48 86C68.9868 86 86 68.9868 86 48ZM71.965 22.4915C78.7578 28.8757 83 37.9424 83 48C83 58.0576 78.7578 67.1243 71.965 73.5085L54.1038 48L71.965 22.4915ZM63.7778 16.7496L47.9999 39.2828L32.222 16.7496C36.963 14.3513 42.3237 13 48 13C53.6762 13 59.0369 14.3512 63.7778 16.7496ZM24.0349 22.4916L41.896 48L24.0349 73.5084C17.2422 67.1242 13 58.0575 13 48C13 37.9425 17.2422 28.8758 24.0349 22.4916ZM32.2221 79.2504C36.963 81.6487 42.3237 83 48 83C53.6762 83 59.0369 81.6488 63.7778 79.2504L47.9999 56.7173L32.2221 79.2504Z" fill="#0E1520"/>
<path d="M27.7866 57H32.5966L28.0206 49.33C30.3606 48.264 31.4786 46.834 31.4786 44.468C31.4786 40.724 28.9566 38.982 24.0686 38.982H18.1666V57H22.4306V50.11H24.0946L27.7866 57ZM22.4306 41.972H23.9646C26.0706 41.972 27.0846 42.726 27.0846 44.468C27.0846 46.366 26.0966 47.172 24.2246 47.172H22.4306V41.972Z" fill="#0E1520"/>
<path d="M73.7866 57H78.5966L74.0206 49.33C76.3606 48.264 77.4786 46.834 77.4786 44.468C77.4786 40.724 74.9566 38.982 70.0686 38.982H64.1666V57H68.4306V50.11H70.0946L73.7866 57ZM68.4306 41.972H69.9646C72.0706 41.972 73.0846 42.726 73.0846 44.468C73.0846 46.366 72.0966 47.172 70.2246 47.172H68.4306V41.972Z" fill="#0E1520"/>
</svg>
