<svg width="96" height="96" viewBox="0 0 96 96" fill="none" xmlns="http://www.w3.org/2000/svg">
<path d="M86.4676 82H9.53238C7.97779 82 7.01756 80.3041 7.81739 78.971L46.285 14.8583C47.0618 13.5637 48.9382 13.5637 49.715 14.8583L88.1826 78.971C88.9824 80.3041 88.0222 82 86.4676 82Z" fill="white"/>
<path fill-rule="evenodd" clip-rule="evenodd" d="M6.10241 77.942L44.57 13.8293C46.1236 11.24 49.8764 11.24 51.43 13.8293L89.8976 77.942C91.4973 80.6081 89.5768 84 86.4676 84H9.53238C6.4232 84 4.50275 80.6081 6.10241 77.942ZM9.53238 82H86.4676C88.0222 82 88.9824 80.3041 88.1826 78.971L49.715 14.8583C48.9382 13.5637 47.0618 13.5637 46.285 14.8583L7.81739 78.971C7.01756 80.3041 7.97779 82 9.53238 82Z" fill="white"/>
<path d="M86.4676 82H9.53238C7.97779 82 7.01756 80.3041 7.81739 78.971L46.285 14.8583C47.0618 13.5637 48.9382 13.5637 49.715 14.8583L88.1826 78.971C88.9824 80.3041 88.0222 82 86.4676 82Z" fill="white"/>
<path fill-rule="evenodd" clip-rule="evenodd" d="M49.715 14.8583C48.9382 13.5637 47.0618 13.5637 46.285 14.8583L7.81739 78.971C7.01756 80.3041 7.97779 82 9.53238 82H86.4676C88.0222 82 88.9824 80.3041 88.1826 78.971L49.715 14.8583ZM79.4029 76L48 23.6619L16.5971 76H79.4029Z" fill="#CF001A"/>
<path fill-rule="evenodd" clip-rule="evenodd" d="M37.3333 64V58.6667H34.6667V54.6667H37.3333V50.6667L39.3333 48L41.3333 50.6667V54.6667L46 54.6667V50.6667L48 48L50 50.6667V54.6667H54.6667V50.6667L56.6667 48L58.6667 50.6667V54.6667H61.3333L61.3333 58.6667H58.6667V64L61.3333 64V68H58.6667V72H54.6667V68L50 68V72H46V68L41.3333 68V72H37.3333V68H34.6667V64L37.3333 64ZM41.3333 64L46 64V58.6667L41.3333 58.6667V64ZM50 64L54.6667 64V58.6667L50 58.6667V64Z" fill="#0E1520"/>
</svg>
