<svg width="96" height="96" viewBox="0 0 96 96" fill="none" xmlns="http://www.w3.org/2000/svg">
<path d="M5.75268 46.5275L46.5323 5.74783C47.3437 4.93652 48.6584 4.93456 49.4722 5.74344L90.243 46.2716C91.0585 47.0822 91.0624 48.4004 90.2518 49.2158L49.4722 90.2382C48.6599 91.0553 47.3383 91.0573 46.5236 90.2426L5.75268 49.4717C4.93966 48.6587 4.93966 47.3405 5.75268 46.5275Z" fill="white"/>
<path fill-rule="evenodd" clip-rule="evenodd" d="M46.5323 5.74783L5.75268 46.5275C4.93966 47.3405 4.93966 48.6587 5.75268 49.4717L46.5236 90.2426C47.3383 91.0573 48.6599 91.0553 49.4722 90.2382L90.2518 49.2158C91.0624 48.4004 91.0585 47.0822 90.243 46.2716L49.4722 5.74344C48.6584 4.93456 47.3437 4.93652 46.5323 5.74783Z" fill="#FFBD09"/>
<path fill-rule="evenodd" clip-rule="evenodd" d="M46.5322 10.9535L10.9573 46.5284C10.1442 47.3414 10.1442 48.6596 10.9573 49.4726L46.5235 85.0388C47.3382 85.8536 48.6597 85.8516 49.472 85.0345L85.047 49.2478C85.8576 48.4323 85.8537 47.1141 85.0382 46.3035L49.472 10.9491C48.6583 10.1402 47.3435 10.1422 46.5322 10.9535ZM48.0066 13.8945L13.9015 47.9995L47.9934 82.0914L82.0984 47.7834L48.0066 13.8945Z" fill="#0F1621"/>
<path fill-rule="evenodd" clip-rule="evenodd" d="M49.4264 32.4775C49.9516 33.2652 49.7388 34.3296 48.951 34.8548L46.4052 36.552L48.9964 39.1432H62.2858V42H61.1428C60.1961 42 59.4286 42.7675 59.4286 43.7143V49.1429H62.2858V52H38V54.1429H62.2858V60.5712C60.5582 60.5712 59.117 59.3446 58.7859 57.7147H52.2142C51.8831 59.3446 50.442 60.5712 48.7143 60.5712C47.546 60.5712 46.5087 60.0103 45.8572 59.143C45.2056 60.0103 44.1683 60.5712 43 60.5712C41.2724 60.5712 39.8312 59.3446 39.5001 57.7147H37.1429C35.2494 57.7147 33.7144 56.1796 33.7144 54.2861V46.0004C33.7144 42.2133 36.7844 39.1432 40.5715 39.1432H44.1477L43.2415 38.237C42.0941 37.0896 42.2832 35.1793 43.6334 34.2792L47.0492 32.002C47.8369 31.4768 48.9013 31.6897 49.4264 32.4775ZM38 49.1429V43.7143C38 42.7675 38.7675 42 39.7143 42H40.5714C41.5182 42 42.2857 42.7675 42.2857 43.7143V49.1429H38ZM45.1429 49.1429V43.7143C45.1429 42.7675 45.9104 42 46.8572 42H47.7143C48.6611 42 49.4286 42.7675 49.4286 43.7143V49.1429H45.1429ZM52.2856 43.7143V49.1429H56.5714V43.7143C56.5714 42.7675 55.8038 42 54.8571 42H53.9999C53.0532 42 52.2856 42.7675 52.2856 43.7143Z" fill="#0F1621"/>
</svg>
