<svg width="96" height="96" viewBox="0 0 96 96" fill="none" xmlns="http://www.w3.org/2000/svg">
<path d="M3.19995 39.3721C3.19995 38.7584 3.48173 38.1786 3.96431 37.7995L46.7643 4.17089C47.4895 3.60108 48.5104 3.60108 49.2356 4.17089L92.0356 37.7995C92.5182 38.1786 92.7999 38.7584 92.7999 39.3721V90.8C92.7999 91.9046 91.9045 92.8 90.7999 92.8H5.19995C4.09538 92.8 3.19995 91.9046 3.19995 90.8V39.3721Z" fill="#FFBE0A"/>
<path fill-rule="evenodd" clip-rule="evenodd" d="M86.0149 41.4758L48 11.8056L9.99998 41.4642V86H86.4692L86.0149 41.4758ZM89.4794 86.9796C89.4907 88.0921 88.592 89 87.4795 89H8.99998C7.89541 89 6.99998 88.1046 6.99998 87V40.9761C6.99998 40.3601 7.28384 39.7785 7.76944 39.3995L46.7694 8.96046C47.4927 8.39597 48.5073 8.39597 49.2305 8.96046L88.2405 39.4072C88.7204 39.7818 89.0036 40.3547 89.0098 40.9635L89.4794 86.9796Z" fill="#0F1621"/>
<path d="M35.5063 41.4632C35.3423 39.8231 36.6302 38.3999 38.2786 38.3999C39.7099 38.3999 40.9084 39.4845 41.0508 40.9088L41.2936 43.3366C41.4576 44.9767 40.1697 46.3999 38.5213 46.3999C37.09 46.3999 35.8915 45.3153 35.7491 43.891L35.5063 41.4632Z" fill="#0F1621"/>
<path d="M35.6112 56.6303L32.4735 62.0092C31.8056 63.1541 30.336 63.5408 29.1911 62.873C28.0462 62.2051 27.6594 60.7355 28.3273 59.5906L33.4643 50.7844C34.1811 49.5555 35.4967 48.7999 36.9194 48.7999H40.0965C41.2178 48.7999 42.2875 49.2705 43.0452 50.097L49.98 57.6623L52.2628 56.1404C53.1827 55.5272 54.2636 55.1999 55.3691 55.1999H61.3015L63.0715 68.475C63.0823 68.4872 63.0935 68.4991 63.105 68.5106L67.2973 72.7029C68.2345 73.6401 68.2345 75.1597 67.2973 76.097C66.36 77.0342 64.8404 77.0342 63.9032 76.097L59.7109 71.9047C59.1454 71.3392 58.7091 70.6607 58.4291 69.9161L58.4213 69.9171L58.4168 69.883C58.362 69.7346 58.3135 69.5836 58.2713 69.4304L55.816 75.3232C55.3062 76.5467 53.9011 77.1253 52.6776 76.6155C51.454 76.1057 50.8754 74.7005 51.3852 73.477L55.1469 64.4491L54.6852 60.2944L50.9663 62.7736C50.7669 62.912 50.5518 63.0165 50.3287 63.0873C49.9892 63.1956 49.6346 63.2248 49.2906 63.1799C48.9702 63.1383 48.6571 63.0323 48.3725 62.8627C48.1627 62.7381 47.9696 62.5798 47.8021 62.3898L42.4255 56.5245L43.8875 66.2711C43.9017 66.3658 43.9328 66.4572 43.9793 66.541L47.698 73.2345C48.3417 74.3932 47.9242 75.8543 46.7656 76.498C45.6069 77.1417 44.1457 76.7243 43.502 75.5656L39.7834 68.872C39.4578 68.286 39.2401 67.6462 39.1406 66.9831L38.9679 65.8318L34.1471 75.4733C33.5544 76.6589 32.1128 77.1394 30.9272 76.5466C29.7417 75.9538 29.2611 74.5122 29.8539 73.3267L35.9566 61.1213L35.6112 56.6303Z" fill="#0F1621"/>
<path d="M55.4946 47.4486C55.3376 46.0357 56.4436 44.7999 57.8653 44.7999C59.0807 44.7999 60.1018 45.7138 60.236 46.9218L60.506 49.3512C60.663 50.7642 59.5569 51.9999 58.1352 51.9999C56.9198 51.9999 55.8987 51.086 55.7645 49.878L55.4946 47.4486Z" fill="#0F1621"/>
<path d="M66.935 63.9999C67.9156 63.9999 68.6845 63.1246 68.5887 62.1487C68.4222 60.4534 68.2334 58.1567 68.1155 56.6765C68.0491 55.8425 67.3537 55.1999 66.5171 55.1999H64L64.6677 62.5448C64.7426 63.3689 65.4336 63.9999 66.2611 63.9999H66.935Z" fill="#0F1621"/>
</svg>
