<svg width="96" height="96" viewBox="0 0 96 96" fill="none" xmlns="http://www.w3.org/2000/svg">
<path d="M44.57 13.8293L6.10241 77.942C4.50275 80.6081 6.4232 84 9.53238 84H86.4676C89.5768 84 91.4973 80.6081 89.8976 77.942L51.43 13.8293C49.8764 11.24 46.1236 11.24 44.57 13.8293Z" fill="white"/>
<path fill-rule="evenodd" clip-rule="evenodd" d="M49.715 14.8583C48.9382 13.5637 47.0618 13.5637 46.285 14.8583L7.8174 78.971C7.01757 80.3041 7.9778 82 9.53239 82H86.4676C88.0222 82 88.9824 80.3041 88.1826 78.971L49.715 14.8583ZM79.4029 76L48 23.6619L16.5971 76H79.4029Z" fill="#CF001A"/>
<path d="M39.1914 48.9146C39.0889 47.8895 39.8939 47 40.9241 47C41.8187 47 42.5678 47.6779 42.6568 48.568L42.8085 50.0854C42.911 51.1105 42.106 52 41.0758 52C40.1812 52 39.4322 51.3221 39.3432 50.432L39.1914 48.9146Z" fill="#0F1621"/>
<path d="M39.257 58.394L37.2959 61.7558C36.8785 62.4714 35.96 62.7131 35.2444 62.2957C34.5289 61.8783 34.2872 60.9598 34.7046 60.2442L37.9152 54.7403C38.3632 53.9723 39.1854 53.5 40.0746 53.5H42.0603C42.7611 53.5 43.4297 53.7941 43.9032 54.3107L48.2375 59.039L49.6643 58.0878C50.2392 57.7045 50.9147 57.5 51.6057 57.5H55.3134L56.4197 65.7969C56.4264 65.8046 56.4334 65.812 56.4406 65.8192L59.0608 68.4394C59.6466 69.0251 59.6466 69.9749 59.0608 70.5607C58.475 71.1465 57.5253 71.1465 56.9395 70.5607L54.3193 67.9405C53.9659 67.5871 53.6932 67.163 53.5182 66.6976L53.5133 66.6982L53.5105 66.6769C53.4763 66.5842 53.4459 66.4898 53.4196 66.3941L51.885 70.077C51.5664 70.8417 50.6882 71.2034 49.9235 70.8847C49.1588 70.5661 48.7971 69.6879 49.1158 68.9232L51.4668 63.2808L51.1783 60.684L48.854 62.2336C48.7293 62.3201 48.5949 62.3853 48.4554 62.4296C48.2432 62.4973 48.0216 62.5155 47.8066 62.4875C47.6064 62.4615 47.4107 62.3953 47.2328 62.2893C47.1017 62.2113 46.981 62.1125 46.8763 61.9937L43.516 58.3279L44.4297 64.4195C44.4386 64.4787 44.458 64.5358 44.4871 64.5882L46.8112 68.7716C47.2136 69.4958 46.9526 70.409 46.2285 70.8113C45.5043 71.2137 44.5911 70.9527 44.1888 70.2286L41.8646 66.0451C41.6611 65.6788 41.525 65.2789 41.4629 64.8645L41.3549 64.1449L38.342 70.1709C37.9715 70.9118 37.0705 71.2122 36.3295 70.8417C35.5885 70.4712 35.2882 69.5702 35.6587 68.8292L39.4729 61.2008L39.257 58.394Z" fill="#0F1621"/>
<path d="M51.6841 52.6555C51.586 51.7723 52.2773 51 53.1658 51C53.9255 51 54.5636 51.5712 54.6475 52.3262L54.8162 53.8445C54.9143 54.7277 54.2231 55.5 53.3345 55.5C52.5749 55.5 51.9367 54.9288 51.8528 54.1738L51.6841 52.6555Z" fill="#0F1621"/>
<path d="M58.8344 63C59.4473 63 59.9278 62.4529 59.8679 61.843C59.7638 60.7834 59.6459 59.348 59.5722 58.4229C59.5307 57.9017 59.0961 57.5 58.5732 57.5H57L57.4173 62.0905C57.4641 62.6056 57.896 63 58.4132 63H58.8344Z" fill="#0F1621"/>
</svg>
