<svg width="96" height="96" viewBox="0 0 96 96" fill="none" xmlns="http://www.w3.org/2000/svg">
<path d="M86.4676 82H9.53238C7.97779 82 7.01756 80.304 7.81739 78.971L46.285 14.8583C47.0618 13.5636 48.9382 13.5636 49.715 14.8583L88.1826 78.971C88.9824 80.304 88.0222 82 86.4676 82Z" fill="white"/>
<path fill-rule="evenodd" clip-rule="evenodd" d="M6.10241 77.942L44.57 13.8293C46.1236 11.24 49.8764 11.24 51.43 13.8293L89.8976 77.942C91.4973 80.6081 89.5768 84 86.4676 84H9.53238C6.4232 84 4.50275 80.6081 6.10241 77.942ZM9.53238 82H86.4676C88.0222 82 88.9824 80.304 88.1826 78.971L49.715 14.8583C48.9382 13.5636 47.0618 13.5636 46.285 14.8583L7.81739 78.971C7.01756 80.304 7.97779 82 9.53238 82Z" fill="white"/>
<path d="M86.4676 82H9.53238C7.97779 82 7.01756 80.304 7.81739 78.971L46.285 14.8583C47.0618 13.5636 48.9382 13.5636 49.715 14.8583L88.1826 78.971C88.9824 80.304 88.0222 82 86.4676 82Z" fill="white"/>
<path fill-rule="evenodd" clip-rule="evenodd" d="M49.715 14.8583C48.9382 13.5636 47.0618 13.5636 46.285 14.8583L7.81739 78.971C7.01756 80.304 7.97779 82 9.53238 82H86.4676C88.0222 82 88.9824 80.304 88.1826 78.971L49.715 14.8583ZM79.4029 76L48 23.6619L16.5971 76H79.4029Z" fill="#CF001A"/>
<path d="M46.7476 49.7476L43.9191 46.9191L35.8383 55L43.9191 63.0809L46.7476 60.2525L43.4951 57H45.3334C51.5926 57 56.6667 62.0741 56.6667 68.3333V72.3333H60.6667V68.3333C60.6667 59.865 53.8017 53 45.3334 53H43.4951L46.7476 49.7476Z" fill="#0E1520"/>
</svg>
