<svg width="24" height="24" viewBox="0 0 24 24" fill="none" xmlns="http://www.w3.org/2000/svg">
<path d="M22 8.00001C22 8.59335 21.8241 9.17337 21.4944 9.66672C21.1648 10.1601 20.6962 10.5446 20.1481 10.7716C19.5999 10.9987 18.9967 11.0581 18.4147 10.9424C17.8328 10.8266 17.2982 10.5409 16.8787 10.1213C16.4591 9.70177 16.1734 9.16722 16.0576 8.58528C15.9419 8.00334 16.0013 7.40014 16.2284 6.85196C16.4554 6.30378 16.8399 5.83524 17.3333 5.5056C17.8266 5.17596 18.4067 5.00001 19 5.00001C19.7956 5.00001 20.5587 5.31608 21.1213 5.87869C21.6839 6.4413 22 7.20436 22 8.00001ZM22 17H19V14H17V17H14V19H17V22H19V19H22V17ZM12 18C12.0017 17.1579 12.1807 16.3255 12.5252 15.5571C12.8698 14.7887 13.3723 14.1014 14 13.54V6.00001C14 5.73479 13.8946 5.48044 13.7071 5.2929C13.5196 5.10536 13.2652 5.00001 13 5.00001H12C11.7348 5.00001 11.4804 5.10536 11.2929 5.2929C11.1054 5.48044 11 5.73479 11 6.00001V13.75L6.29 5.50001C6.2019 5.3474 6.07503 5.22079 5.92225 5.13299C5.76948 5.04518 5.59621 4.99931 5.42 5.00001H4C3.73478 5.00001 3.48043 5.10536 3.29289 5.2929C3.10536 5.48044 3 5.73479 3 6.00001V18C3 18.2652 3.10536 18.5196 3.29289 18.7071C3.48043 18.8947 3.73478 19 4 19H5C5.26522 19 5.51957 18.8947 5.70711 18.7071C5.89464 18.5196 6 18.2652 6 18V10.25L10.71 18.5C10.7981 18.6526 10.925 18.7792 11.0777 18.867C11.2305 18.9548 11.4038 19.0007 11.58 19H12.09C12.0348 18.6694 12.0047 18.3351 12 18Z" fill="#0F1621"/>
</svg>
