<svg width="16" height="16" viewBox="0 0 16 16" fill="none" xmlns="http://www.w3.org/2000/svg">
<path d="M8 3H10V13H8L4 6.33V13H2V3H4L8 9.67V3ZM13 3C12.6044 3 12.2178 3.1173 11.8889 3.33706C11.56 3.55682 11.3036 3.86918 11.1522 4.23463C11.0009 4.60009 10.9613 5.00222 11.0384 5.39018C11.1156 5.77814 11.3061 6.13451 11.5858 6.41421C11.8655 6.69392 12.2219 6.8844 12.6098 6.96157C12.9978 7.03874 13.3999 6.99913 13.7654 6.84776C14.1308 6.69638 14.4432 6.44004 14.6629 6.11114C14.8827 5.78224 15 5.39556 15 5C15 4.46957 14.7893 3.96086 14.4142 3.58579C14.0391 3.21071 13.5304 3 13 3Z" fill="#0F1621"/>
</svg>
