<svg width="16" height="16" viewBox="0 0 16 16" fill="none" xmlns="http://www.w3.org/2000/svg">
<path d="M1.33331 4.66663H3.99998V6.66663H2.66665V8.66663H3.99998V10.6666H2.66665V12.6666H3.99998V14.6666H1.33331V4.66663ZM14.6666 2.66663V14.6666H10.6666V11.3333H9.33331V14.6666H5.33331V2.66663H14.6666ZM7.99998 11.3333H6.66665V13.3333H7.99998V11.3333ZM7.99998 7.99996H6.66665V9.99996H7.99998V7.99996ZM7.99998 4.66663H6.66665V6.66663H7.99998V4.66663ZM10.6666 7.99996H9.33331V9.99996H10.6666V7.99996ZM10.6666 4.66663H9.33331V6.66663H10.6666V4.66663ZM13.3333 11.3333H12V13.3333H13.3333V11.3333ZM13.3333 7.99996H12V9.99996H13.3333V7.99996ZM13.3333 4.66663H12V6.66663H13.3333V4.66663Z" fill="#0E1520"/>
</svg>
