<svg width="16" height="16" viewBox="0 0 16 16" fill="none" xmlns="http://www.w3.org/2000/svg">
<path d="M13.4896 1.82158L14.9038 3.23579L3.23581 14.9038L1.82159 13.4896L13.4896 1.82158Z" fill="#0E1520"/>
<path d="M5 1H12.1882L9 4.1882V3H7.75V5.25L5 8.1882V1Z" fill="#0E1520"/>
<path d="M4 5V7H2.5V9H4V9.1882L1.00556 12.1826C1.00186 12.122 1 12.0611 1 12V5H4Z" fill="#0E1520"/>
<path d="M4 11.3095L1.56171 13.7478L1.5624 13.7488L4 11.3112V11.3095Z" fill="#0E1520"/>
<path d="M8 7.30952L5 10.3095V10.3112L8 7.31116V7.30952Z" fill="#0E1520"/>
<path d="M8.31116 7H8.30952L11 4.30952V4.31116L8.31116 7Z" fill="#0E1520"/>
<path d="M11.3112 4H11.3095L14.3095 1H14.3112L11.3112 4Z" fill="#0E1520"/>
<path d="M15 5.25702L9.25702 11H11V15H15V5.25702Z" fill="#0E1520"/>
<path d="M9 11.257L5.25702 15H9V11.257Z" fill="#0E1520"/>
</svg>
