<svg width="24" height="24" viewBox="0 0 24 24" fill="none" xmlns="http://www.w3.org/2000/svg">
<path d="M20.4522 4.94413L21.8664 6.35834L5.25002 22.9748L3.8358 21.5606L20.4522 4.94413Z" fill="#0E1520"/>
<path d="M8 3H19.562L17.562 5H10V12.562L8 14.562V3Z" fill="#0E1520"/>
<path d="M14 7V8.56198L12.562 10H12V7H14Z" fill="#0E1520"/>
<path d="M4 10V12H6V14H4V18.562L2 20.562V10C2 8.89543 2.89543 8 4 8H6V10H4Z" fill="#0E1520"/>
<path d="M16.0367 15L18 13.0367V15H16.0367Z" fill="#0E1520"/>
<path d="M10.0367 21H14V18H16V21H20V11.0367L22 9.03673V23H8.03673L10.0367 21Z" fill="#0E1520"/>
</svg>
