<svg width="24" height="24" viewBox="0 0 24 24" fill="none" xmlns="http://www.w3.org/2000/svg">
<path d="M9.79295 2.29289C9.98048 2.10536 10.2348 2 10.5001 2H13.5001C13.7653 2 14.0196 2.10536 14.2072 2.29289C14.3947 2.48043 14.5001 2.73478 14.5001 3V6C14.5001 6.26522 14.3947 6.51957 14.2072 6.70711C14.0196 6.89464 13.7653 7 13.5001 7H13.0001V9H15.0001V11H9.00005V9H11.0001V7H10.5001C10.2348 7 9.98048 6.89464 9.79295 6.70711C9.60541 6.51957 9.50005 6.26522 9.50005 6V3C9.50005 2.73478 9.60541 2.48043 9.79295 2.29289ZM12.7072 5.20711C12.8947 5.01957 13.0001 4.76522 13.0001 4.5C13.0001 4.30222 12.9414 4.10888 12.8315 3.94443C12.7216 3.77998 12.5655 3.65181 12.3827 3.57612C12.2 3.50043 11.9989 3.48063 11.805 3.51922C11.611 3.5578 11.4328 3.65304 11.2929 3.79289C11.1531 3.93275 11.0579 4.11093 11.0193 4.30491C10.9807 4.49889 11.0005 4.69996 11.0762 4.88268C11.1519 5.06541 11.28 5.22159 11.4445 5.33147C11.6089 5.44135 11.8023 5.5 12.0001 5.5C12.2653 5.5 12.5196 5.39464 12.7072 5.20711Z" fill="#0E1520"/>
<path d="M19.4501 11L18.5901 9.82C18.4037 9.57258 18.164 9.37036 17.8887 9.22839C17.6134 9.08642 17.3097 9.00835 17.0001 9V11.05L19.2901 14.18L20.0001 15.18V20H18.0001V18H6.00005V20H4.00005V15.16L4.71005 14.16L7.00005 11.05V9C6.69043 9.00835 6.38668 9.08642 6.11139 9.22839C5.83611 9.37036 5.59638 9.57258 5.41005 9.82L4.55005 11H2.00005V13H3.10005L2.33005 14.06C2.11312 14.348 1.99714 14.6995 2.00005 15.06V20C2.00005 20.5304 2.21077 21.0391 2.58584 21.4142C2.96091 21.7893 3.46962 22 4.00005 22H7.00005C7.26527 22 7.51962 21.8946 7.70716 21.7071C7.8947 21.5196 8.00005 21.2652 8.00005 21V20H16.0001V21C16.0001 21.2652 16.1054 21.5196 16.2929 21.7071C16.4805 21.8946 16.7348 22 17.0001 22H20.0001C20.5305 22 21.0392 21.7893 21.4143 21.4142C21.7893 21.0391 22.0001 20.5304 22.0001 20V15.06C22.003 14.6995 21.887 14.348 21.6701 14.06L20.9001 13H22.0001V11H19.4501Z" fill="#0E1520"/>
<path d="M7.50005 14L6.00005 16H18.0001L16.5001 14H7.50005Z" fill="#0E1520"/>
</svg>
