<svg width="24" height="24" viewBox="0 0 24 24" fill="none" xmlns="http://www.w3.org/2000/svg">
<path d="M22.0001 11H19.4501L18.5901 9.82C18.4037 9.57258 18.164 9.37036 17.8887 9.22839C17.6134 9.08642 17.3097 9.00835 17.0001 9L15.0001 11H16.4601C16.6265 10.9992 16.7904 11.0399 16.9371 11.1185C17.0838 11.1971 17.2085 11.311 17.3001 11.45L19.0001 14H5.00005L6.70005 11.45C6.79157 11.311 6.91633 11.1971 7.063 11.1185C7.20968 11.0399 7.37365 10.9992 7.54005 11H9.00005L7.00005 9C6.69043 9.00835 6.38668 9.08642 6.11139 9.22839C5.83611 9.37036 5.59638 9.57258 5.41005 9.82L4.55005 11H2.00005V13H3.10005L2.33005 14.06C2.11312 14.348 1.99714 14.6995 2.00005 15.06V20C2.00005 20.5304 2.21077 21.0391 2.58584 21.4142C2.96091 21.7893 3.46962 22 4.00005 22H7.00005C7.26527 22 7.51962 21.8946 7.70716 21.7071C7.8947 21.5196 8.00005 21.2652 8.00005 21V20H16.0001V21C16.0001 21.2652 16.1054 21.5196 16.2929 21.7071C16.4805 21.8946 16.7348 22 17.0001 22H20.0001C20.5305 22 21.0392 21.7893 21.4143 21.4142C21.7893 21.0391 22.0001 20.5304 22.0001 20V15.06C22.003 14.6995 21.887 14.348 21.6701 14.06L20.9001 13H22.0001V11ZM8.00005 18H4.00005V16H8.00005V18ZM20.0001 18H16.0001V16H20.0001V18ZM7.76005 7.76L9.17005 9.17C9.54155 8.7981 9.9827 8.50306 10.4683 8.30176C10.9539 8.10046 11.4744 7.99685 12.0001 7.99685C12.5257 7.99685 13.0462 8.10046 13.5318 8.30176C14.0174 8.50306 14.4586 8.7981 14.8301 9.17L16.2401 7.76C15.1151 6.6364 13.5901 6.00528 12.0001 6.00528C10.41 6.00528 8.88506 6.6364 7.76005 7.76ZM4.93005 4.93L6.35005 6.35C7.84978 4.8539 9.88168 4.0137 12.0001 4.0137C14.1184 4.0137 16.1503 4.8539 17.6501 6.35L19.0701 4.93C17.1948 3.05529 14.6517 2.00214 12.0001 2.00214C9.34841 2.00214 6.80533 3.05529 4.93005 4.93Z" fill="#0F1621"/>
</svg>
