<svg width="16" height="16" viewBox="0 0 16 16" fill="none" xmlns="http://www.w3.org/2000/svg">
<path d="M13.4978 1.5759L14.912 2.99011L2.88919 15.0129L1.47498 13.5987L13.4978 1.5759Z" fill="#0F1621"/>
<path d="M11.6482 1.29003C11.1201 1.10185 10.563 1.00341 10 1H6.00001C5.27288 0.999521 4.55439 1.15764 3.89463 1.46334C3.23488 1.76903 2.64974 2.21495 2.18001 2.77L3.32001 3.77C3.64651 3.37503 4.05576 3.05656 4.51885 2.83712C4.98194 2.61767 5.48757 2.50259 6.00001 2.5H10C10.1369 2.50198 10.2733 2.51198 10.4083 2.52984L11.6482 1.29003Z" fill="#0F1621"/>
<path d="M8.93818 4H7.00001C6.12652 3.99971 5.27808 4.29191 4.59001 4.83L5.79001 5.83C6.15678 5.61425 6.57449 5.50033 7.00001 5.5H7.43818L8.93818 4Z" fill="#0F1621"/>
<path d="M9.50513 5.55438L10.6806 4.37895C10.938 4.50135 11.1827 4.65226 11.41 4.83L10.21 5.83C9.99025 5.70072 9.75219 5.60801 9.50513 5.55438Z" fill="#0F1621"/>
<path d="M5.93818 7H5.24001C4.86793 7.0002 4.50328 7.10419 4.18706 7.30028C3.87084 7.49637 3.61559 7.77679 3.45001 8.11L2.06227 10.8759L5.93818 7Z" fill="#0F1621"/>
<path d="M2.00087 13.0586C2.01579 13.5678 2.22457 14.053 2.5858 14.4142C2.74172 14.5701 2.92073 14.6976 3.11479 14.7934L4.90822 13H4.00001V12H5.90822L6.90822 11H4.0595L2.00087 13.0586Z" fill="#0F1621"/>
<path d="M6.5595 8.5L8.0595 7H10.76C10.8078 7.00003 10.8555 7.00177 10.903 7.0052L9.40822 8.5H6.5595Z" fill="#0F1621"/>
<path d="M11.9393 3.12023L13.0208 2.03871C13.3142 2.26466 13.5824 2.52317 13.82 2.81L12.68 3.81C12.4672 3.54468 12.2175 3.31253 11.9393 3.12023Z" fill="#0F1621"/>
<path fill-rule="evenodd" clip-rule="evenodd" d="M14 11V13C14 13.5304 13.7893 14.0391 13.4142 14.4142C13.0392 14.7893 12.5304 15 12 15H11L10 14H6.02954L9.02954 11H12L11.36 9.44C11.2897 9.26513 11.1874 9.10597 11.0593 8.97022L12.302 7.72757C12.3985 7.84463 12.4819 7.97285 12.55 8.11L14 11ZM12 12H10V13H12V12Z" fill="#0F1621"/>
</svg>
