<svg width="16" height="16" viewBox="0 0 16 16" fill="none" xmlns="http://www.w3.org/2000/svg">
<path d="M6 13C5.5 13 5 13.4 5 14C5 14.5 5.4 15 6 15C6.6 15 7 14.5 7 14C7 13.4 6.5 13 6 13Z" fill="black"/>
<path d="M11 13C10.4 13 10 13.4 10 14C10 14.5 10.4 15 11 15C11.5 15 12 14.6 12 14C12 13.4 11.5 13 11 13Z" fill="black"/>
<path d="M11.9999 9C13.0999 9 13.9999 8.1 13.9999 7V4H4.99991L4.79991 2.8C4.69991 1.8 3.79991 1 2.79991 1H0.899902V2.5H3.19991L3.99991 10.2C4.09991 11.2 4.99991 12 5.99991 12H12.8999V10.4H5.5999L5.3999 9H11.9999Z" fill="black"/>
</svg>
