<svg width="24" height="24" viewBox="0 0 24 24" fill="none" xmlns="http://www.w3.org/2000/svg">
<path d="M18 13H8.5L8.80002 15H18.9V17H8.80002C7.80002 17 7.00002 16.3 6.80002 15.3L5.10001 4H3V2H5.10001C6.10001 2 6.90001 2.7 7.10001 3.7L7.30002 5H20V11C20 12.1 19.1 13 18 13ZM16.5 19C15.7 19 15 19.7 15 20.5C15 21.3 15.7 22 16.5 22C17.3 22 18 21.3 18 20.5C18 19.7 17.3 19 16.5 19ZM9.5 19C8.7 19 8 19.7 8 20.5C8 21.3 8.7 22 9.5 22C10.3 22 11 21.3 11 20.5C11 19.7 10.3 19 9.5 19Z" fill="black"/>
</svg>
