<svg width="24" height="24" viewBox="0 0 24 24" fill="none" xmlns="http://www.w3.org/2000/svg">
<path d="M9.5 19C8.7 19 8 19.7 8 20.5C8 21.3 8.7 22 9.5 22C10.3 22 11 21.3 11 20.5C11 19.7 10.3 19 9.5 19ZM16.5 19C15.7 19 15 19.7 15 20.5C15 21.3 15.7 22 16.5 22C17.3 22 18 21.3 18 20.5C18 19.7 17.3 19 16.5 19ZM20 11V5H7.30002L7.10001 3.7C6.90001 2.7 6.10001 2 5.10001 2H3V4H5.10001L6.80002 15.3C7.00002 16.3 7.80002 17 8.80002 17H18.9V15H8.80002L8.5 13H18C19.1 13 20 12.1 20 11ZM8.20001 11L7.60001 7H18V11H8.20001Z" fill="black"/>
</svg>
