<svg width="24" height="24" viewBox="0 0 24 24" fill="none" xmlns="http://www.w3.org/2000/svg">
<path d="M20 2H4C3.46957 2 2.96086 2.21071 2.58579 2.58579C2.21071 2.96086 2 3.46957 2 4V20C2 20.5304 2.21071 21.0391 2.58579 21.4142C2.96086 21.7893 3.46957 22 4 22H20C20.5304 22 21.0391 21.7893 21.4142 21.4142C21.7893 21.0391 22 20.5304 22 20V4C22 3.46957 21.7893 2.96086 21.4142 2.58579C21.0391 2.21071 20.5304 2 20 2ZM7 20H4V18H7V20ZM7 16H4V13H7V16ZM7 11H4V8H7V11ZM12 20H9V18H12V20ZM12 16H9V13H12V16ZM12 11H9V8H12V11ZM20 20H14V18H20V20ZM20 16H14V13H20V16ZM20 11H14V8H20V11ZM20 6H4V4H20V6Z" fill="#0F1621"/>
</svg>
