<svg width="24" height="24" viewBox="0 0 24 24" fill="none" xmlns="http://www.w3.org/2000/svg">
<path d="M6.72684 11.388C7.37218 11.388 7.92951 11.487 8.39884 11.685C8.86818 11.8757 9.24951 12.2497 9.54284 12.807C9.83618 13.357 9.98284 14.1417 9.98284 15.161C9.98284 16.591 9.69684 17.5883 9.12484 18.153C8.56018 18.7177 7.80484 19 6.85884 19H5.16484V11.388H6.72684ZM6.72684 12.532V17.856H6.94684C7.25484 17.856 7.51151 17.7827 7.71684 17.636C7.92951 17.482 8.09451 17.207 8.21184 16.811C8.32918 16.415 8.38784 15.865 8.38784 15.161C8.38784 14.4423 8.32551 13.8923 8.20084 13.511C8.08351 13.1297 7.92218 12.873 7.71684 12.741C7.51151 12.6017 7.25484 12.532 6.94684 12.532H6.72684Z" fill="#0F1621"/>
<path d="M13.524 11.212C14.4333 11.212 15.1337 11.542 15.625 12.202C16.1163 12.862 16.362 13.8593 16.362 15.194C16.362 16.514 16.1163 17.5077 15.625 18.175C15.1337 18.8423 14.4333 19.176 13.524 19.176C12.6073 19.176 11.9033 18.846 11.412 18.186C10.928 17.526 10.686 16.5287 10.686 15.194C10.686 13.8813 10.9317 12.8913 11.423 12.224C11.9143 11.5493 12.6147 11.212 13.524 11.212ZM13.524 12.378C13.106 12.378 12.798 12.5943 12.6 13.027C12.402 13.4523 12.303 14.1747 12.303 15.194C12.303 16.228 12.402 16.9577 12.6 17.383C12.798 17.801 13.106 18.01 13.524 18.01C13.81 18.01 14.041 17.922 14.217 17.746C14.393 17.57 14.525 17.2767 14.613 16.866C14.701 16.4553 14.745 15.898 14.745 15.194C14.745 14.1747 14.646 13.4523 14.448 13.027C14.25 12.5943 13.942 12.378 13.524 12.378Z" fill="#0F1621"/>
<path d="M19.9158 11.212C20.3118 11.212 20.6638 11.2817 20.9718 11.421C21.2872 11.553 21.5878 11.7547 21.8738 12.026L21.1368 12.895C20.9535 12.7263 20.7702 12.6017 20.5868 12.521C20.4108 12.433 20.2202 12.389 20.0148 12.389C19.5968 12.389 19.2705 12.6053 19.0358 13.038C18.8012 13.4633 18.6838 14.1783 18.6838 15.183C18.6838 16.1657 18.8012 16.8733 19.0358 17.306C19.2705 17.7387 19.6005 17.955 20.0258 17.955C20.2532 17.955 20.4512 17.911 20.6198 17.823C20.7958 17.7277 20.9938 17.5847 21.2138 17.394L21.9398 18.241C21.3605 18.8643 20.6858 19.176 19.9158 19.176C19.0432 19.176 18.3502 18.8423 17.8368 18.175C17.3235 17.5003 17.0668 16.503 17.0668 15.183C17.0668 14.3103 17.1878 13.577 17.4298 12.983C17.6718 12.389 18.0055 11.9453 18.4308 11.652C18.8635 11.3587 19.3585 11.212 19.9158 11.212Z" fill="#0F1621"/>
<path fill-rule="evenodd" clip-rule="evenodd" d="M2 2H16L22 8V10H14V4H4V20H22C22 20.5304 21.7893 21.0391 21.4142 21.4142C21.0391 21.7893 20.5304 22 20 22H4C3.46957 22 2.96086 21.7893 2.58579 21.4142C2.21071 21.0391 2 20.5304 2 20V2ZM16 8H19.17L16 4.83V8Z" fill="#0F1621"/>
</svg>
