<svg width="24" height="24" viewBox="0 0 24 24" fill="none" xmlns="http://www.w3.org/2000/svg">
<path d="M2 19V9C2 8.46957 2.21071 7.96086 2.58579 7.58579C2.96086 7.21071 3.46957 7 4 7H20C20.5304 7 21.0391 7.21071 21.4142 7.58579C21.7893 7.96086 22 8.46957 22 9V19C22 19.5304 21.7893 20.0391 21.4142 20.4142C21.0391 20.7893 20.5304 21 20 21H4C3.46957 21 2.96086 20.7893 2.58579 20.4142C2.21071 20.0391 2 19.5304 2 19ZM18 3H6C5.46957 3 4.96086 3.21071 4.58579 3.58579C4.21071 3.96086 4 4.46957 4 5H20C20 4.46957 19.7893 3.96086 19.4142 3.58579C19.0391 3.21071 18.5304 3 18 3Z" fill="black"/>
</svg>
