<svg width="24" height="24" viewBox="0 0 24 24" fill="none" xmlns="http://www.w3.org/2000/svg">
<path d="M11.2663 11.388L11.1013 12.521H8.92332V14.567H10.8263V15.689H8.92332V17.856H11.2443V19H7.36132V11.388H11.2663Z" fill="#0F1621"/>
<path d="M13.9571 11.388C14.8958 11.388 15.6071 11.597 16.0911 12.015C16.5824 12.4257 16.8281 13.0307 16.8281 13.83C16.8281 14.6733 16.5898 15.3077 16.1131 15.733C15.6364 16.1583 14.9654 16.371 14.1001 16.371H13.6821V19H12.1201V11.388H13.9571ZM13.9901 15.238C14.4301 15.238 14.7454 15.1317 14.9361 14.919C15.1341 14.7063 15.2331 14.347 15.2331 13.841C15.2331 13.379 15.1378 13.0417 14.9471 12.829C14.7564 12.6163 14.4448 12.51 14.0121 12.51H13.6821V15.238H13.9901Z" fill="#0F1621"/>
<path d="M19.4403 11.212C19.8949 11.212 20.2983 11.2927 20.6503 11.454C21.0023 11.6153 21.3213 11.8537 21.6073 12.169L20.9033 12.983C20.4779 12.5797 20.0379 12.378 19.5833 12.378C19.3193 12.378 19.1103 12.4587 18.9563 12.62C18.8023 12.774 18.7253 12.983 18.7253 13.247C18.7253 13.5037 18.8096 13.7163 18.9783 13.885C19.1469 14.0537 19.4659 14.2333 19.9353 14.424C20.3606 14.6 20.7016 14.787 20.9583 14.985C21.2223 15.183 21.4239 15.4287 21.5633 15.722C21.7099 16.0153 21.7833 16.3783 21.7833 16.811C21.7833 17.2583 21.6806 17.6617 21.4753 18.021C21.2699 18.3803 20.9766 18.6627 20.5953 18.868C20.2139 19.0733 19.7703 19.176 19.2643 19.176C18.7436 19.176 18.2889 19.0843 17.9003 18.901C17.5189 18.7103 17.1743 18.45 16.8663 18.12L17.6253 17.284C17.8819 17.5187 18.1313 17.6983 18.3733 17.823C18.6226 17.9403 18.8866 17.999 19.1653 17.999C19.4879 17.999 19.7336 17.9037 19.9023 17.713C20.0783 17.515 20.1663 17.251 20.1663 16.921C20.1663 16.6203 20.0856 16.3783 19.9243 16.195C19.7629 16.0043 19.4696 15.821 19.0443 15.645C18.3549 15.359 17.8636 15.04 17.5703 14.688C17.2769 14.336 17.1303 13.8923 17.1303 13.357C17.1303 12.939 17.2293 12.5687 17.4273 12.246C17.6253 11.9233 17.9003 11.6703 18.2523 11.487C18.6043 11.3037 19.0003 11.212 19.4403 11.212Z" fill="#0F1621"/>
<path fill-rule="evenodd" clip-rule="evenodd" d="M2 2H16L22 8V10H14V4H4V20H22C22 20.5304 21.7893 21.0391 21.4142 21.4142C21.0391 21.7893 20.5304 22 20 22H4C3.46957 22 2.96086 21.7893 2.58579 21.4142C2.21071 21.0391 2 20.5304 2 20V2ZM16 8H19.17L16 4.83V8Z" fill="#0F1621"/>
</svg>
