<svg width="24" height="24" viewBox="0 0 24 24" fill="none" xmlns="http://www.w3.org/2000/svg">
<path d="M9.66 8L6.5 11.55V9C6.5 8.73478 6.60536 8.48043 6.79289 8.29289C6.98043 8.10536 7.23478 8 7.5 8H9.66ZM11 5.66V4.34C11 4.16403 10.9653 3.98978 10.898 3.8272C10.8307 3.66463 10.732 3.51691 10.6075 3.39248C10.4831 3.26805 10.3354 3.16934 10.1728 3.102C10.0102 3.03466 9.83597 3 9.66 3H9.34C8.98461 3 8.64378 3.14118 8.39248 3.39248C8.14118 3.64378 8 3.98461 8 4.34V5.66C8 6.01539 8.14118 6.35622 8.39248 6.60752C8.64378 6.85882 8.98461 7 9.34 7H9.66C9.83597 7 10.0102 6.96534 10.1728 6.898C10.3354 6.83066 10.4831 6.73195 10.6075 6.60752C10.732 6.48309 10.8307 6.33537 10.898 6.1728C10.9653 6.01022 11 5.83597 11 5.66ZM14 20.59L15.41 22L20 17.39V19H22V14H17V16H18.61L14 20.59ZM19 7H15.9L8.49 15.33L7.9 16H5C4.73478 16 4.48043 16.1054 4.29289 16.2929C4.10536 16.4804 4 16.7348 4 17C4 17.2652 4.10536 17.5196 4.29289 17.7071C4.48043 17.8946 4.73478 18 5 18H8.1L15.51 9.67L16.1 9H19C19.2652 9 19.5196 8.89464 19.7071 8.70711C19.8946 8.51957 20 8.26522 20 8C20 7.73478 19.8946 7.48043 19.7071 7.29289C19.5196 7.10536 19.2652 7 19 7ZM19 5C19.7956 5 20.5587 5.31607 21.1213 5.87868C21.6839 6.44129 22 7.20435 22 8C22 8.79565 21.6839 9.55871 21.1213 10.1213C20.5587 10.6839 19.7956 11 19 11H17L9.6 19.33C9.41167 19.5415 9.18056 19.7106 8.92197 19.8261C8.66338 19.9416 8.38321 20.0009 8.1 20H5C4.20435 20 3.44129 19.6839 2.87868 19.1213C2.31607 18.5587 2 17.7956 2 17C2 16.2044 2.31607 15.4413 2.87868 14.8787C3.44129 14.3161 4.20435 14 5 14H7L14.4 5.67C14.5883 5.45848 14.8194 5.28938 15.078 5.17388C15.3366 5.05837 15.6168 4.99911 15.9 5H19Z" fill="#0F1621"/>
</svg>
