<svg width="16" height="16" viewBox="0 0 16 16" fill="none" xmlns="http://www.w3.org/2000/svg">
<path fill-rule="evenodd" clip-rule="evenodd" d="M12.5 3H10C9.68101 2.99988 9.36661 3.07606 9.08306 3.22219C8.7995 3.36831 8.55502 3.58014 8.37 3.84L4 10H2.5C2.10218 10 1.72064 10.158 1.43934 10.4393C1.15804 10.7206 1 11.1022 1 11.5C1 11.8978 1.15804 12.2794 1.43934 12.5607C1.72064 12.842 2.10218 13 2.5 13H5C5.31899 13.0001 5.63339 12.9239 5.91694 12.7778C6.2005 12.6317 6.44498 12.4199 6.63 12.16L11 6H12.5C12.8978 6 13.2794 5.84197 13.5607 5.56066C13.842 5.27936 14 4.89782 14 4.5C14 4.10218 13.842 3.72064 13.5607 3.43934C13.2794 3.15804 12.8978 3 12.5 3ZM6 4C6 3.73478 5.89464 3.48043 5.70711 3.29289C5.51957 3.10536 5.26522 3 5 3C4.73478 3 4.48043 3.10536 4.29289 3.29289C4.10536 3.48043 4 3.73478 4 4C4 4.26522 4.10536 4.51957 4.29289 4.70711C4.48043 4.89464 4.73478 5 5 5C5.26522 5 5.51957 4.89464 5.70711 4.70711C5.89464 4.51957 6 4.26522 6 4ZM5 6H4C3.73478 6 3.48043 6.10536 3.29289 6.29289C3.10536 6.48043 3 6.73478 3 7V8L5 6Z" fill="#0F1621"/>
</svg>
