<svg width="16" height="16" viewBox="0 0 16 16" fill="none" xmlns="http://www.w3.org/2000/svg">
<path d="M11.74 9.07003C12.3438 8.35673 12.731 7.48564 12.856 6.5595C12.981 5.63336 12.8385 4.69079 12.4454 3.84296C12.0522 2.99514 11.4249 2.27741 10.6372 1.77443C9.84958 1.27146 8.93454 1.00421 8 1.00421C7.06546 1.00421 6.15042 1.27146 5.36278 1.77443C4.57514 2.27741 3.94776 2.99514 3.55464 3.84296C3.16151 4.69079 3.01904 5.63336 3.14401 6.5595C3.26899 7.48564 3.65621 8.35673 4.26 9.07003L2 12.48L4.2 13L5.54 14.79L8 11L10.46 14.75L11.8 13L14 12.48L11.74 9.07003ZM8 7.30003C7.72311 7.30003 7.45243 7.21792 7.2222 7.06409C6.99197 6.91025 6.81253 6.6916 6.70657 6.43579C6.60061 6.17997 6.57288 5.89848 6.6269 5.6269C6.68092 5.35533 6.81426 5.10587 7.01005 4.91008C7.20584 4.71429 7.4553 4.58095 7.72687 4.52693C7.99845 4.47291 8.27994 4.50063 8.53576 4.6066C8.79157 4.71256 9.01022 4.892 9.16406 5.12223C9.31789 5.35246 9.4 5.62314 9.4 5.90003C9.4 6.27133 9.2525 6.62743 8.98995 6.88998C8.7274 7.15253 8.3713 7.30003 8 7.30003Z" fill="#0F1621"/>
</svg>
