<svg width="24" height="24" viewBox="0 0 24 24" fill="none" xmlns="http://www.w3.org/2000/svg">
<path d="M17.33 13.52C18.1965 12.5021 18.7535 11.2575 18.9351 9.93313C19.1167 8.60878 18.9153 7.26012 18.3547 6.04661C17.7941 4.8331 16.8977 3.80548 15.7716 3.08523C14.6455 2.36499 13.3367 1.98224 12 1.98224C10.6632 1.98224 9.35444 2.36499 8.22832 3.08523C7.10221 3.80548 6.20588 4.8331 5.64528 6.04661C5.08468 7.26012 4.88327 8.60878 5.06486 9.93313C5.24644 11.2575 5.80343 12.5021 6.66997 13.52L3.46997 18.39L6.56997 19.12L8.47997 21.68L12 16.33L15.52 21.68L17.43 19.12L20.53 18.39L17.33 13.52ZM12 11C11.6044 11 11.2177 10.8827 10.8888 10.6629C10.5599 10.4432 10.3036 10.1308 10.1522 9.76535C10.0008 9.39989 9.96123 8.99776 10.0384 8.6098C10.1156 8.22184 10.3061 7.86547 10.5858 7.58577C10.8655 7.30606 11.2218 7.11558 11.6098 7.03841C11.9978 6.96124 12.3999 7.00085 12.7653 7.15222C13.1308 7.3036 13.4431 7.55994 13.6629 7.88884C13.8827 8.21774 14 8.60442 14 8.99998C14 9.53041 13.7893 10.0391 13.4142 10.4142C13.0391 10.7893 12.5304 11 12 11Z" fill="#0F1621"/>
</svg>
