<svg width="24" height="24" viewBox="0 0 24 24" fill="none" xmlns="http://www.w3.org/2000/svg">
<path d="M7.00002 2C6.17159 2 5.50002 2.67157 5.50002 3.5V4.5C5.50002 5.32843 6.17159 6 7.00002 6C7.82844 6 8.50002 5.32843 8.50002 4.5V3.5C8.50002 2.67157 7.82844 2 7.00002 2Z" fill="#0E1520"/>
<path d="M7 7C5.81918 7 4.78446 7.79032 4.47377 8.92953L2 18H5V21.5C5 21.7761 5.22386 22 5.5 22H8V12.5C8 11.9477 8.44772 11.5 9 11.5H10V10.6667L9.52623 8.92953C9.21554 7.79032 8.18082 7 7 7Z" fill="#0E1520"/>
<path d="M16 7C14.8954 7 14 7.89543 14 9V11.5H15C15.5523 11.5 16 11.9477 16 12.5V21.5C16 21.7761 16.2239 22 16.5 22H19.5C19.7761 22 20 21.7761 20 21.5V16H22V9C22 7.89543 21.1046 7 20 7H16Z" fill="#0E1520"/>
<path d="M16.5 3.5C16.5 2.67157 17.1716 2 18 2C18.8284 2 19.5 2.67157 19.5 3.5V4.5C19.5 5.32843 18.8284 6 18 6C17.1716 6 16.5 5.32843 16.5 4.5V3.5Z" fill="#0E1520"/>
<path d="M11 10C11 9.44772 11.4477 9 12 9C12.5523 9 13 9.44772 13 10V11C13 11.5523 12.5523 12 12 12C11.4477 12 11 11.5523 11 11V10Z" fill="#0E1520"/>
<path d="M10.5 21.5C10.5 21.7761 10.7239 22 11 22H13C13.2761 22 13.5 21.7761 13.5 21.5V18H14.5V14C14.5 13.4477 14.0523 13 13.5 13H10.5C9.94772 13 9.5 13.4477 9.5 14V18H10.5V21.5Z" fill="#0E1520"/>
</svg>
