<svg width="24" height="24" viewBox="0 0 24 24" fill="none" xmlns="http://www.w3.org/2000/svg">
<path d="M7 7C8.18082 7 9.21554 7.79032 9.52623 8.92953L10 10.6667V11.5H9C8.6999 11.5 8.43067 11.6322 8.24737 11.8415L7.59671 9.45576C7.52332 9.18668 7.27891 9 7 9C6.72109 9 6.47668 9.18668 6.40329 9.45576L4.6185 16H8V22H5.5C5.22386 22 5 21.7761 5 21.5L4.99997 18H2L4.47377 8.92953C4.78446 7.79032 5.81918 7 7 7Z" fill="#0E1520"/>
<path d="M5.5 3.5C5.5 2.67157 6.17157 2 7 2C7.82843 2 8.5 2.67157 8.5 3.5V4.5C8.5 5.32843 7.82843 6 7 6C6.17157 6 5.5 5.32843 5.5 4.5V3.5Z" fill="#0E1520"/>
<path d="M14 9C14 7.89543 14.8954 7 16 7H20C21.1046 7 22 7.89361 22 8.99818C22 11.6549 22 16 22 16H20V21.5C20 21.7761 19.7761 22 19.5 22H16.5C16.2239 22 16 21.7761 16 21.5V14H20V9H16V12.5C16 11.9477 15.5523 11.5 15 11.5H14V9Z" fill="#0E1520"/>
<path d="M18 2C17.1716 2 16.5 2.67157 16.5 3.5V4.5C16.5 5.32843 17.1716 6 18 6C18.8284 6 19.5 5.32843 19.5 4.5V3.5C19.5 2.67157 18.8284 2 18 2Z" fill="#0E1520"/>
<path d="M11 22C10.7239 22 10.5 21.7761 10.5 21.5V18H9.5V14C9.5 13.4477 9.94772 13 10.5 13H13.5C14.0523 13 14.5 13.4477 14.5 14V18H13.5V21.5C13.5 21.7761 13.2761 22 13 22H11ZM11 16.5H13V14.5H11V16.5Z" fill="#0E1520"/>
<path d="M13 10C13 9.44772 12.5523 9 12 9C11.4477 9 11 9.44771 11 10V11C11 11.5523 11.4477 12 12 12C12.5523 12 13 11.5523 13 11V10Z" fill="#0E1520"/>
</svg>
