<svg width="16" height="16" viewBox="0 0 16 16" fill="none" xmlns="http://www.w3.org/2000/svg">
<path d="M3.5 2C3.5 1.44772 3.94772 1 4.5 1C5.05228 1 5.5 1.44772 5.5 2V3C5.5 3.55228 5.05228 4 4.5 4C3.94772 4 3.5 3.55228 3.5 3V2Z" fill="#0E1520"/>
<path d="M5 9V15H3.50001C3.22387 15 3.00001 14.7761 3.00001 14.5V12H1L2.58792 6.44229C2.83183 5.58858 3.61213 5 4.5 5C5.08911 5 5.63086 5.25912 6 5.68288V8C5.44772 8 5 8.44772 5 9Z" fill="#0E1520"/>
<path d="M11.5 2C11.5 1.44772 11.9477 1 12.5 1C13.0523 1 13.5 1.44772 13.5 2V3C13.5 3.55228 13.0523 4 12.5 4C11.9477 4 11.5 3.55228 11.5 3V2Z" fill="#0E1520"/>
<path d="M11.5 15C11.2239 15 11 14.7761 11 14.5V9C11 8.44772 10.5523 8 10 8V6C10 5.44772 10.4477 5 11 5H14C14.5523 5 15 5.44772 15 6V11H14V14.5C14 14.7761 13.7761 15 13.5 15H11.5Z" fill="#0E1520"/>
<path d="M8 5.75C7.58579 5.75 7.25 6.08579 7.25 6.5V7.25C7.25 7.66421 7.58579 8 8 8C8.41421 8 8.75 7.66421 8.75 7.25V6.5C8.75 6.08579 8.41421 5.75 8 5.75Z" fill="#0E1520"/>
<path d="M7.5 15C7.22386 15 7 14.7761 7 14.5V12H6V9.5C6 9.22386 6.22386 9 6.5 9H9.5C9.77614 9 10 9.22386 10 9.5V12H9V14.5C9 14.7761 8.77614 15 8.5 15H7.5Z" fill="#0E1520"/>
</svg>
