<svg width="16" height="16" viewBox="0 0 16 16" fill="none" xmlns="http://www.w3.org/2000/svg">
<path fill-rule="evenodd" clip-rule="evenodd" d="M3 3V4.17C2.99979 4.43391 3.05182 4.69526 3.15308 4.93897C3.25434 5.18268 3.40283 5.40394 3.59 5.59L5 7V13C5 13.5304 5.21071 14.0391 5.58579 14.4142C5.96086 14.7893 6.46957 15 7 15H9C9.53043 15 10.0391 14.7893 10.4142 14.4142C10.7893 14.0391 11 13.5304 11 13V7L12.41 5.59C12.5972 5.40394 12.7457 5.18268 12.8469 4.93897C12.9482 4.69526 13.0002 4.43391 13 4.17V3H3ZM9 11H7V8H9V11ZM12.9 2H3.1V1H12.9V2Z" fill="#0F1621"/>
</svg>
