<svg width="16" height="16" viewBox="0 0 16 16" fill="none" xmlns="http://www.w3.org/2000/svg">
<path d="M8 1C6.61553 1 5.26216 1.41054 4.11101 2.17971C2.95987 2.94888 2.06266 4.04213 1.53285 5.32122C1.00303 6.6003 0.86441 8.00776 1.13451 9.36563C1.4046 10.7235 2.07129 11.9708 3.05026 12.9497C4.02922 13.9287 5.2765 14.5954 6.63437 14.8655C7.99224 15.1356 9.3997 14.997 10.6788 14.4672C11.9579 13.9373 13.0511 13.0401 13.8203 11.889C14.5895 10.7378 15 9.38447 15 8C15 6.14348 14.2625 4.36301 12.9497 3.05025C11.637 1.7375 9.85652 1 8 1ZM9.64 7H6.36C6.56 4 7.65 3.05 8 3C8.35 2.95 9.44 4 9.64 7ZM8 13C7.65 13 6.56 12 6.36 9H9.64C9.44 12 8.35 13 8 13ZM5.83 3.5C5.33251 4.60301 5.05077 5.79105 5 7H3.1C3.25485 6.2458 3.58179 5.53755 4.05532 4.93045C4.52886 4.32335 5.1362 3.83382 5.83 3.5ZM3.1 9H5C5.02599 10.2396 5.33376 11.457 5.9 12.56C5.18604 12.2288 4.56034 11.7338 4.07379 11.1152C3.58725 10.4966 3.2536 9.77189 3.1 9ZM10.1 12.56C10.6662 11.457 10.974 10.2396 11 9H12.9C12.7423 9.77586 12.4026 10.5032 11.9088 11.1221C11.4151 11.741 10.7814 12.2338 10.06 12.56H10.1ZM11 7C10.9619 5.79368 10.6937 4.60574 10.21 3.5C10.8963 3.83861 11.4958 4.33026 11.9622 4.93707C12.4285 5.54387 12.7494 6.24964 12.9 7H11Z" fill="#0F1621"/>
</svg>
