<svg width="24" height="24" viewBox="0 0 24 24" fill="none" xmlns="http://www.w3.org/2000/svg">
<path d="M20 4.00001V7.00001H19.3L14.3 4.30001C13.5 3.90001 12.5 3.90001 11.7 4.20001C11.3 3.90001 10.9 3.80001 10.4 3.70001C9.8 3.60001 9.1 3.70001 8.6 4.00001L4.6 6.00001H4V4.00001H2V19H4V17H4.7L8.3 19.4C9.6 20.2 11.1 20.7 12.5 20.7C14.5 20.7 16.5 19.9 17.9 18.5C18.4 18 19 17 19.4 16.3C19.5 16.3 19.5 16.3 19.6 16.3C19.7 16.3 19.9 16.2 20 16.1V19.1H22V4.00001H20ZM9.4 17.8L5.3 15H4V8.00001H5.1L9.5 5.80001C9.6 5.70001 9.8 5.70001 9.9 5.70001L5.5 10.1L6.8 11.3C7.6 12.1 8.6 12.5 9.7 12.5C10.7 12.5 11.7 12.1 12.5 11.4L16.6 15.5C16.8 15.7 17 15.8 17.2 15.9C17.2 15.9 17.2 15.9 17.3 15.9C17.1 16.3 16.8 16.7 16.6 16.9C14.6 18.9 11.6 19.2 9.4 17.8ZM19.3 14.1C19.2 14.2 19.1 14.3 18.9 14.3C18.8 14.4 18.6 14.4 18.5 14.4C18.3 14.4 18.2 14.4 18.1 14.3C18 14.2 17.8 14.1 17.7 14L14.4 10.7L13.7 10C13 9.30001 11.8 9.30001 11 10C10.3 10.7 9 10.8 8.2 10.2L12.1 6.30001C12.4 6.00001 12.9 5.90001 13.3 6.10001L18.7 9.00001H20V13.4L19.3 14.1Z" fill="#0F1621"/>
</svg>
