<svg width="24" height="24" viewBox="0 0 24 24" fill="none" xmlns="http://www.w3.org/2000/svg">
<path d="M20 2H4C3.46957 2 2.96086 2.21071 2.58579 2.58579C2.21071 2.96086 2 3.46957 2 4V20C2 20.5304 2.21071 21.0391 2.58579 21.4142C2.96086 21.7893 3.46957 22 4 22H20C20.5304 22 21.0391 21.7893 21.4142 21.4142C21.7893 21.0391 22 20.5304 22 20V4C22 3.46957 21.7893 2.96086 21.4142 2.58579C21.0391 2.21071 20.5304 2 20 2ZM12 5C13.3261 5 14.5979 5.52678 15.5355 6.46447C16.4732 7.40215 17 8.67392 17 10C16.998 10.9797 16.7133 11.9381 16.18 12.76L17.71 14.29L16.29 15.71L14.76 14.18C13.9381 14.7133 12.9797 14.998 12 15C10.6739 15 9.40215 14.4732 8.46447 13.5355C7.52678 12.5979 7 11.3261 7 10C7 8.67392 7.52678 7.40215 8.46447 6.46447C9.40215 5.52678 10.6739 5 12 5ZM6 20V19C6 18.7348 6.10536 18.4804 6.29289 18.2929C6.48043 18.1054 6.73478 18 7 18C7.26522 18 7.51957 18.1054 7.70711 18.2929C7.89464 18.4804 8 18.7348 8 19V20H6ZM10 20V18H14V20H10ZM16 20V19C16 18.7348 16.1054 18.4804 16.2929 18.2929C16.4804 18.1054 16.7348 18 17 18C17.2652 18 17.5196 18.1054 17.7071 18.2929C17.8946 18.4804 18 18.7348 18 19V20H16ZM13 10C13 10.1978 12.9414 10.3911 12.8315 10.5556C12.7216 10.72 12.5654 10.8482 12.3827 10.9239C12.2 10.9996 11.9989 11.0194 11.8049 10.9808C11.6109 10.9422 11.4327 10.847 11.2929 10.7071C11.153 10.5673 11.0578 10.3891 11.0192 10.1951C10.9806 10.0011 11.0004 9.80004 11.0761 9.61732C11.1518 9.43459 11.28 9.27841 11.4444 9.16853C11.6089 9.05865 11.8022 9 12 9C12.2652 9 12.5196 9.10536 12.7071 9.29289C12.8946 9.48043 13 9.73478 13 10Z" fill="#0F1621"/>
</svg>
