<svg width="16" height="16" viewBox="0 0 16 16" fill="none" xmlns="http://www.w3.org/2000/svg">
<path d="M11 1H5C4.20435 1 3.44129 1.31607 2.87868 1.87868C2.31607 2.44129 2 3.20435 2 4V12C2 12.7956 2.31607 13.5587 2.87868 14.1213C3.44129 14.6839 4.20435 15 5 15H11C11.7956 15 12.5587 14.6839 13.1213 14.1213C13.6839 13.5587 14 12.7956 14 12V4C14 3.20435 13.6839 2.44129 13.1213 1.87868C12.5587 1.31607 11.7956 1 11 1ZM8 14H5V13H8V14ZM11 14H10V13H11V14ZM8 11C7.20887 11 6.43552 10.7654 5.77772 10.3259C5.11992 9.88635 4.60723 9.26164 4.30448 8.53073C4.00173 7.79983 3.92252 6.99556 4.07686 6.21964C4.2312 5.44371 4.61216 4.73098 5.17157 4.17157C5.73098 3.61216 6.44371 3.2312 7.21964 3.07686C7.99556 2.92252 8.79983 3.00173 9.53073 3.30448C10.2616 3.60723 10.8864 4.11992 11.3259 4.77772C11.7654 5.43552 12 6.20887 12 7C12 8.06087 11.5786 9.07828 10.8284 9.82843C10.0783 10.5786 9.06087 11 8 11ZM9 7C9 7.19778 8.94135 7.39112 8.83147 7.55557C8.72159 7.72002 8.56541 7.84819 8.38268 7.92388C8.19996 7.99957 7.99889 8.01937 7.80491 7.98079C7.61093 7.9422 7.43275 7.84696 7.29289 7.70711C7.15304 7.56725 7.0578 7.38907 7.01921 7.19509C6.98063 7.00111 7.00043 6.80004 7.07612 6.61732C7.15181 6.43459 7.27998 6.27841 7.44443 6.16853C7.60888 6.05865 7.80222 6 8 6C8.26522 6 8.51957 6.10536 8.70711 6.29289C8.89464 6.48043 9 6.73478 9 7Z" fill="#0F1621"/>
</svg>
