<svg width="24" height="24" viewBox="0 0 24 24" fill="none" xmlns="http://www.w3.org/2000/svg">
<path d="M20 2H4C3.46957 2 2.96086 2.21071 2.58579 2.58579C2.21071 2.96086 2 3.46957 2 4V20C2 20.5304 2.21071 21.0391 2.58579 21.4142C2.96086 21.7893 3.46957 22 4 22H20C20.5304 22 21.0391 21.7893 21.4142 21.4142C21.7893 21.0391 22 20.5304 22 20V4C22 3.46957 21.7893 2.96086 21.4142 2.58579C21.0391 2.21071 20.5304 2 20 2ZM20 20H18V19C18 18.7348 17.8946 18.4804 17.7071 18.2929C17.5196 18.1054 17.2652 18 17 18C16.7348 18 16.4804 18.1054 16.2929 18.2929C16.1054 18.4804 16 18.7348 16 19V20H14V18H10V20H8V19C8 18.7348 7.89464 18.4804 7.70711 18.2929C7.51957 18.1054 7.26522 18 7 18C6.73478 18 6.48043 18.1054 6.29289 18.2929C6.10536 18.4804 6 18.7348 6 19V20H4V4H20V20ZM13 10C13 10.1978 12.9414 10.3911 12.8315 10.5556C12.7216 10.72 12.5654 10.8482 12.3827 10.9239C12.2 10.9996 11.9989 11.0194 11.8049 10.9808C11.6109 10.9422 11.4327 10.847 11.2929 10.7071C11.153 10.5673 11.0578 10.3891 11.0192 10.1951C10.9806 10.0011 11.0004 9.80004 11.0761 9.61732C11.1518 9.43459 11.28 9.27841 11.4444 9.16853C11.6089 9.05865 11.8022 9 12 9C12.2652 9 12.5196 9.10536 12.7071 9.29289C12.8946 9.48043 13 9.73478 13 10ZM16.18 12.76C16.7133 11.9381 16.998 10.9797 17 10C17 9.01109 16.7068 8.04439 16.1573 7.22215C15.6079 6.3999 14.827 5.75904 13.9134 5.3806C12.9998 5.00216 11.9945 4.90315 11.0245 5.09607C10.0546 5.289 9.16373 5.7652 8.46447 6.46447C7.7652 7.16373 7.289 8.05464 7.09607 9.02455C6.90315 9.99445 7.00216 10.9998 7.3806 11.9134C7.75904 12.827 8.3999 13.6079 9.22215 14.1573C10.0444 14.7068 11.0111 15 12 15C12.9797 14.998 13.9381 14.7133 14.76 14.18L16.29 15.71L17.71 14.29L16.18 12.76ZM12 13C11.4067 13 10.8266 12.8241 10.3333 12.4944C9.83994 12.1648 9.45542 11.6962 9.22836 11.1481C9.0013 10.5999 8.94189 9.99667 9.05764 9.41473C9.1734 8.83279 9.45912 8.29824 9.87868 7.87868C10.2982 7.45912 10.8328 7.1734 11.4147 7.05764C11.9967 6.94189 12.5999 7.0013 13.1481 7.22836C13.6962 7.45542 14.1648 7.83994 14.4944 8.33329C14.8241 8.82664 15 9.40666 15 10C15 10.7956 14.6839 11.5587 14.1213 12.1213C13.5587 12.6839 12.7956 13 12 13Z" fill="#0F1621"/>
</svg>
