<svg width="24" height="24" viewBox="0 0 24 24" fill="none" xmlns="http://www.w3.org/2000/svg">
<path d="M4.82852 12L12.0001 4.8284L19.1717 12L12.0001 19.1715L4.82852 12ZM12.7072 4.12129C12.7073 4.12115 12.7071 4.12143 12.7072 4.12129ZM11.293 2.70708L2.7072 11.2929C2.31668 11.6834 2.31668 12.3166 2.7072 12.7071L11.293 21.2929C11.6835 21.6834 12.3167 21.6834 12.7072 21.2929L21.293 12.7071C21.6835 12.3166 21.6835 11.6834 21.293 11.2929L12.7072 2.70708C12.3167 2.31655 11.6835 2.31655 11.293 2.70708Z" fill="#0F1621"/>
<path d="M13.0001 13H11.0001L10.5001 7.49997H13.5001L13.0001 13Z" fill="#0F1621"/>
<path d="M12.0001 14C12.6876 14 13.2501 14.5625 13.2501 15.25C13.2501 15.9375 12.6876 16.5 12.0001 16.5C11.3126 16.5 10.7501 15.9375 10.7501 15.25C10.7501 14.5625 11.3126 14 12.0001 14Z" fill="#0F1621"/>
</svg>
