<svg width="24" height="24" viewBox="0 0 24 24" fill="none" xmlns="http://www.w3.org/2000/svg">
<path d="M11.293 2.70708L2.7072 11.2929C2.31668 11.6834 2.31668 12.3166 2.7072 12.7071L11.293 21.2929C11.6835 21.6834 12.3167 21.6834 12.7072 21.2929L21.293 12.7071C21.6835 12.3166 21.6835 11.6834 21.293 11.2929L12.7072 2.70708C12.3167 2.31655 11.6835 2.31655 11.293 2.70708ZM11 13L10.5 7H13.5L13.25 10.25L13 13H11ZM13.2499 15.5C13.2499 16.1875 12.6874 16.75 11.9999 16.75C11.3124 16.75 10.7499 16.1875 10.7499 15.5C10.7499 14.8125 11.3124 14.25 11.9999 14.25C12.6874 14.25 13.2499 14.8125 13.2499 15.5Z" fill="#0F1621"/>
</svg>
