<svg width="16" height="16" viewBox="0 0 16 16" fill="none" xmlns="http://www.w3.org/2000/svg">
<path d="M1.35348 7.64637L7.64637 1.35348C7.84163 1.15822 8.15822 1.15822 8.35348 1.35348L14.6464 7.64637C14.8416 7.84163 14.8416 8.15822 14.6464 8.35348L8.35348 14.6464C8.15822 14.8416 7.84163 14.8416 7.64637 14.6464L1.35348 8.35348C1.15822 8.15822 1.15822 7.84163 1.35348 7.64637ZM8.58687 8.85864L8.88035 4.74995H7.11948L7.41296 8.85864H8.58687ZM7.99992 9.73907C7.51568 9.73907 7.11948 10.1353 7.11948 10.6195C7.11948 11.1037 7.51568 11.4999 7.99992 11.4999C8.48416 11.4999 8.88035 11.1037 8.88035 10.6195C8.88035 10.1353 8.48416 9.73907 7.99992 9.73907Z" fill="#0F1621"/>
</svg>
