<svg width="16" height="16" viewBox="0 0 16 16" fill="none" xmlns="http://www.w3.org/2000/svg">
<path d="M3.12125 8.00005L7.99992 3.12137L12.8786 8.00005L7.99992 12.8787L3.12125 8.00005ZM7.64637 1.3536L1.35348 7.64649C1.15822 7.84176 1.15822 8.15834 1.35348 8.3536L7.64637 14.6465C7.84163 14.8418 8.15822 14.8418 8.35348 14.6465L14.6464 8.3536C14.8416 8.15834 14.8416 7.84176 14.6464 7.64649L8.35348 1.3536C8.15822 1.15834 7.84163 1.15834 7.64637 1.3536Z" fill="#0F1621"/>
<path d="M8.74992 10C8.74992 9.58755 8.41242 9.25005 7.99992 9.25005C7.58742 9.25005 7.24992 9.58755 7.24992 10C7.24992 10.4125 7.58742 10.75 7.99992 10.75C8.41242 10.75 8.74992 10.4125 8.74992 10Z" fill="#0F1621"/>
<path d="M7.49992 8.50005H8.49992L8.74992 5.00005H7.24992L7.49992 8.50005Z" fill="#0F1621"/>
</svg>
