<svg width="24" height="24" viewBox="0 0 24 24" fill="none" xmlns="http://www.w3.org/2000/svg">
<path d="M20 12V6C20 5.20435 19.6839 4.44129 19.1213 3.87868C18.5587 3.31607 17.7956 3 17 3H7C6.20435 3 5.44129 3.31607 4.87868 3.87868C4.31607 4.44129 4 5.20435 4 6V12C3.46957 12 2.96086 12.2107 2.58579 12.5858C2.21071 12.9609 2 13.4696 2 14V19C2 19.5304 2.21071 20.0391 2.58579 20.4142C2.96086 20.7893 3.46957 21 4 21H8V12H6V6C6 5.73478 6.10536 5.48043 6.29289 5.29289C6.48043 5.10536 6.73478 5 7 5H17C17.2652 5 17.5196 5.10536 17.7071 5.29289C17.8946 5.48043 18 5.73478 18 6V12H16V21H20C20.5304 21 21.0391 20.7893 21.4142 20.4142C21.7893 20.0391 22 19.5304 22 19V14C22 13.4696 21.7893 12.9609 21.4142 12.5858C21.0391 12.2107 20.5304 12 20 12ZM6 19H4V14H6V19ZM20 19H18V14H20V19Z" fill="#0F1621"/>
</svg>
