<svg width="24" height="24" viewBox="0 0 24 24" fill="none" xmlns="http://www.w3.org/2000/svg">
<path d="M7.5 18.4L4.7 21.2L2 18.4H7.5ZM11.6 12.1C11 11.4 11.1 11 11.4 10.7C11.8 10.3 12.3 10.5 12.8 10.9L11.6 12.1ZM17.5 4.6C17.9 4.2 18.4 4.4 18.9 4.8L17.6 6C17.1 5.3 17.1 5 17.5 4.6ZM21 5.8C20.5 6.6 19.5 7.9 18.6 6.9L21.1 4.4C20.9 4.2 20.7 4 20.6 3.8C19.3 2.5 17.8 2.4 16.6 3.6C15.8 4.4 15.6 5.3 15.8 6.1L15 5.4C14.8 5.5 13.8 6.4 14.5 7.6L13.6 6.9L12.4 8L14 9.6C12.8 8.6 11.4 8.7 10.4 9.8C9.3 10.9 9.3 12.3 10.2 13.4L10 13.3C8.9 12.2 7.7 12.6 7 13.2C6.5 13.7 6.2 14.3 6.4 14.8L4 12.3L2.7 13.6L7.5 18.4H10.1L8.4 16.7C7.5 15.8 7.5 15.3 7.9 14.8C8.3 14.4 8.8 14.6 9.7 15.5L11.4 17.2L12.7 15.9L11.1 14.3C12.3 15.2 13.7 15.2 14.9 14C15.7 13.3 15.9 12.6 15.9 12.6L14.9 11.9C14.4 12.7 13.4 14 12.5 13L15 10.5L16.5 12L17.8 10.7L15.9 8.8C15 7.9 15.5 7 15.9 6.7C16.1 7.1 16.3 7.4 16.7 7.8C18 9.1 19.6 9.3 21 7.9C21.8 7.2 22 6.5 22 6.5L21 5.8Z" fill="#0F1621"/>
</svg>
