<svg width="24" height="24" viewBox="0 0 24 24" fill="none" xmlns="http://www.w3.org/2000/svg">
<path d="M7.5 18.4001L4.7 21.2001L2 18.4001H7.5ZM11.6 12.1002C11 11.4002 11.1 11.0001 11.4 10.7001C11.8 10.3001 12.3 10.5001 12.8 10.9001L11.6 12.1002ZM17.5 4.60015C17.9 4.20015 18.4 4.40015 18.9 4.80015L17.6 6.00015C17.1 5.30015 17.1 5.00015 17.5 4.60015ZM21 5.80015C20.5 6.60015 19.5 7.90015 18.6 6.90015L21.1 4.40015C20.9 4.20015 20.7 4.00015 20.6 3.80015C19.3 2.50015 17.8 2.40015 16.6 3.60015C15.8 4.40015 15.6 5.30015 15.8 6.10015L15 5.40015C14.8 5.50015 13.8 6.40015 14.5 7.60015L13.6 6.90015L12.4 8.00015L14 9.60015C12.8 8.60015 11.4 8.70015 10.4 9.80015C9.3 10.9001 9.3 12.3001 10.2 13.4001L10 13.3001C8.9 12.2001 7.7 12.6001 7 13.2001C6.5 13.7001 6.2 14.3001 6.4 14.8001L4 12.3001L2.7 13.6002L7.5 18.4001H10.1L8.4 16.7002C7.5 15.8002 7.5 15.3001 7.9 14.8001C8.3 14.4001 8.8 14.6001 9.7 15.5001L11.4 17.2002L12.7 15.9001L11.1 14.3001C12.3 15.2001 13.7 15.2001 14.9 14.0001C15.7 13.3001 15.9 12.6002 15.9 12.6002L14.9 11.9001C14.4 12.7001 13.4 14.0001 12.5 13.0001L15 10.5001L16.5 12.0001L17.8 10.7001L15.9 8.80015C15 7.90015 15.5 7.00015 15.9 6.70015C16.1 7.10015 16.3 7.40015 16.7 7.80015C18 9.10015 19.6 9.30015 21 7.90015C21.8 7.20015 22 6.50015 22 6.50015L21 5.80015Z" fill="#0F1621"/>
</svg>
