<svg width="24" height="24" viewBox="0 0 24 24" fill="none" xmlns="http://www.w3.org/2000/svg">
<path d="M5.03306 19V15.474H3.41676V19H2V11H3.41676V14.1908H5.03306V11H6.44981V19H5.03306Z" fill="#0F1621"/>
<path d="M11.416 11L11.2664 12.2601H9.88952V19H8.48274V12.2601H7.03605V11H11.416Z" fill="#0F1621"/>
<path d="M17.5201 19H16.1832L16.0734 15.0116C16.0668 14.7726 16.0601 14.4952 16.0535 14.1792C16.0468 13.8632 16.0435 13.5164 16.0435 13.1387L16.0535 12.4798L15.1954 18.1329H13.8685L12.9605 12.4798C12.9805 12.9884 12.9905 13.4933 12.9905 13.9942C12.9905 14.5645 12.9805 15.1503 12.9605 15.7514L12.8707 19H11.5538L11.9828 11H13.7288L14.5569 16.5607L15.3151 11H17.0911L17.5201 19Z" fill="#0F1621"/>
<path d="M19.805 11V17.6821H22L21.8503 19H18.3883V11H19.805Z" fill="#0F1621"/>
<path fill-rule="evenodd" clip-rule="evenodd" d="M2 2H16L22 8V10H14V4H4V10H2V2ZM16 8H19.17L16 4.83V8Z" fill="#0F1621"/>
<path d="M2 20C2 20.5304 2.21071 21.0391 2.58579 21.4142C2.96086 21.7893 3.46957 22 4 22H20C20.5304 22 21.0391 21.7893 21.4142 21.4142C21.7893 21.0391 22 20.5304 22 20H2Z" fill="#0F1621"/>
</svg>
