<svg width="24" height="24" viewBox="0 0 24 24" fill="none" xmlns="http://www.w3.org/2000/svg">
<path d="M14.82 4.00001C14.6098 3.42085 14.2264 2.92047 13.7218 2.56685C13.2173 2.21323 12.6161 2.02353 12 2.02353C11.3839 2.02353 10.7827 2.21323 10.2782 2.56685C9.77363 2.92047 9.3902 3.42085 9.18 4.00001H2V20C2 20.5304 2.21071 21.0391 2.58579 21.4142C2.96086 21.7893 3.46957 22 4 22H20C20.5304 22 21.0391 21.7893 21.4142 21.4142C21.7893 21.0391 22 20.5304 22 20V4.00001H14.82ZM13 18H11V16H13V18ZM13 14H11V8.00001H13V14Z" fill="#0F1621"/>
</svg>
