<svg width="24" height="24" viewBox="0 0 24 24" fill="none" xmlns="http://www.w3.org/2000/svg">
<path d="M10 16.49C10 17.3114 9.81667 17.931 9.45 18.349C9.08333 18.7744 8.581 19.1117 7.943 19.361L7.525 18.261C7.789 18.129 7.987 17.986 8.119 17.832C8.251 17.6854 8.339 17.5094 8.383 17.304C8.427 17.0914 8.449 16.8017 8.449 16.435V10H10V16.49Z" fill="#0F1621"/>
<path d="M12.837 11.355C13.7757 11.355 14.487 11.564 14.971 11.982C15.4623 12.3927 15.708 12.9977 15.708 13.797C15.708 14.6403 15.4697 15.2747 14.993 15.7C14.5163 16.1253 13.8453 16.338 12.98 16.338H12.562V18.967H11V11.355H12.837ZM12.87 15.205C13.31 15.205 13.6253 15.0987 13.816 14.886C14.014 14.6733 14.113 14.314 14.113 13.808C14.113 13.346 14.0177 13.0087 13.827 12.796C13.6363 12.5833 13.3247 12.477 12.892 12.477H12.562V15.205H12.87Z" fill="#0F1621"/>
<path d="M19.4258 11.212C19.8585 11.212 20.2435 11.2927 20.5808 11.454C20.9255 11.608 21.2445 11.8317 21.5378 12.125L20.7788 12.906C20.5588 12.7153 20.3498 12.5797 20.1518 12.499C19.9538 12.411 19.7338 12.367 19.4918 12.367C19.0152 12.367 18.6485 12.5797 18.3918 13.005C18.1352 13.423 18.0068 14.1527 18.0068 15.194C18.0068 15.9273 18.0508 16.4993 18.1388 16.91C18.2342 17.3207 18.3698 17.6067 18.5458 17.768C18.7218 17.9293 18.9565 18.01 19.2498 18.01C19.5432 18.01 19.8255 17.922 20.0968 17.746V15.799H19.2938L19.1398 14.677H21.5598V18.406C21.2372 18.648 20.8742 18.835 20.4708 18.967C20.0748 19.099 19.6752 19.165 19.2718 19.165C18.3038 19.165 17.5815 18.846 17.1048 18.208C16.6355 17.5627 16.4008 16.5543 16.4008 15.183C16.4008 14.303 16.5328 13.566 16.7968 12.972C17.0608 12.378 17.4202 11.938 17.8748 11.652C18.3295 11.3587 18.8465 11.212 19.4258 11.212Z" fill="#0F1621"/>
<path fill-rule="evenodd" clip-rule="evenodd" d="M2 2H16L22 8V10H14V4H4V20H22C22 20.5304 21.7893 21.0391 21.4142 21.4142C21.0391 21.7893 20.5304 22 20 22H4C3.46957 22 2.96086 21.7893 2.58579 21.4142C2.21071 21.0391 2 20.5304 2 20V2ZM16 8H19.17L16 4.83V8Z" fill="#0F1621"/>
</svg>
