<svg width="24" height="24" viewBox="0 0 24 24" fill="none" xmlns="http://www.w3.org/2000/svg">
<path d="M4.48743 16.116C4.48743 16.9411 4.30317 17.5635 3.93466 17.9834C3.56616 18.4107 3.0613 18.7495 2.4201 19L2 17.895C2.26533 17.7624 2.46432 17.6188 2.59698 17.4641C2.72964 17.3168 2.81809 17.14 2.86231 16.9337C2.90653 16.7201 2.92864 16.4291 2.92864 16.0608L2.92866 11.1768H4.48744L4.48743 16.116Z" fill="#0F1621"/>
<path d="M7.59758 11C8.05453 11 8.45988 11.081 8.81365 11.2431C9.16742 11.4052 9.48802 11.6446 9.77546 11.9613L9.06792 12.779C8.64045 12.3738 8.19824 12.1713 7.74129 12.1713C7.47597 12.1713 7.26592 12.2523 7.11115 12.4144C6.95637 12.5691 6.87899 12.779 6.87899 13.0442C6.87899 13.302 6.96374 13.5157 7.13326 13.6851C7.30277 13.8545 7.62337 14.035 8.09506 14.2265C8.52253 14.4033 8.86524 14.5912 9.1232 14.7901C9.38852 14.989 9.5912 15.2357 9.73124 15.5304C9.87864 15.825 9.95234 16.1897 9.95234 16.6243C9.95234 17.0737 9.84916 17.4788 9.64279 17.8398C9.43643 18.2007 9.14162 18.4843 8.75837 18.6906C8.37513 18.8969 7.92923 19 7.42069 19C6.89741 19 6.44046 18.9079 6.04984 18.7238C5.6666 18.5322 5.3202 18.2707 5.01065 17.9392L5.77346 17.0994C6.03142 17.3352 6.282 17.5157 6.52522 17.6409C6.7758 17.7587 7.04113 17.8177 7.3212 17.8177C7.64548 17.8177 7.89238 17.7219 8.0619 17.5304C8.23878 17.3315 8.32722 17.0663 8.32722 16.7348C8.32722 16.4328 8.24615 16.1897 8.08401 16.0055C7.92186 15.814 7.62706 15.6298 7.19959 15.453C6.50679 15.1657 6.01299 14.8453 5.71819 14.4917C5.42338 14.1381 5.27598 13.6924 5.27598 13.1547C5.27598 12.7348 5.37548 12.3628 5.57447 12.0387C5.77346 11.7145 6.04984 11.4604 6.40361 11.2762C6.75738 11.0921 7.15537 11 7.59758 11Z" fill="#0F1621"/>
<path d="M13.4574 11C14.3713 11 15.0751 11.3315 15.5689 11.9945C16.0627 12.6575 16.3096 13.6593 16.3096 15C16.3096 16.326 16.0627 17.3241 15.5689 17.9945C15.0751 18.6648 14.3713 19 13.4574 19C12.5361 19 11.8286 18.6685 11.3348 18.0055C10.8483 17.3425 10.6051 16.3407 10.6051 15C10.6051 13.6814 10.852 12.6869 11.3458 12.0166C11.8396 11.3389 12.5435 11 13.4574 11ZM13.4574 12.1713C13.0373 12.1713 12.7277 12.3886 12.5287 12.8232C12.3297 13.2505 12.2302 13.9761 12.2302 15C12.2302 16.0387 12.3297 16.7716 12.5287 17.1989C12.7277 17.6188 13.0373 17.8287 13.4574 17.8287C13.7448 17.8287 13.977 17.7403 14.1539 17.5635C14.3307 17.3867 14.4634 17.0921 14.5518 16.6796C14.6403 16.267 14.6845 15.7072 14.6845 15C14.6845 13.9761 14.585 13.2505 14.386 12.8232C14.187 12.3886 13.8775 12.1713 13.4574 12.1713Z" fill="#0F1621"/>
<path d="M22 18.8232H20.0543L18.2633 12.6575L18.2965 12.9669C18.3481 13.453 18.3886 13.9061 18.4181 14.326C18.455 14.7459 18.4734 15.2247 18.4734 15.7624V18.8232H17.1025V11.1768H19.0483L20.8503 17.3536C20.7913 17.0295 20.7397 16.6243 20.6955 16.1381C20.6513 15.6446 20.6292 15.14 20.6292 14.6243V11.1768H22V18.8232Z" fill="#0F1621"/>
<path fill-rule="evenodd" clip-rule="evenodd" d="M2 2H16L22 8V10H14V4H4V10H2V2ZM16 8H19.17L16 4.83V8Z" fill="#0F1621"/>
<path d="M2 20C2 20.5304 2.21071 21.0391 2.58579 21.4142C2.96086 21.7893 3.46957 22 4 22H20C20.5304 22 21.0391 21.7893 21.4142 21.4142C21.7893 21.0391 22 20.5304 22 20H2Z" fill="#0F1621"/>
</svg>
