<svg width="16" height="16" viewBox="0 0 16 16" fill="none" xmlns="http://www.w3.org/2000/svg">
<path fill-rule="evenodd" clip-rule="evenodd" d="M9.79 6.79C9.92131 6.37225 9.99203 5.93783 10 5.5C10 4.60999 9.73608 3.73996 9.24162 2.99994C8.74715 2.25991 8.04434 1.68314 7.22208 1.34254C6.39981 1.00195 5.49501 0.912835 4.6221 1.08647C3.74918 1.2601 2.94736 1.68869 2.31802 2.31802C1.68869 2.94736 1.2601 3.74918 1.08647 4.6221C0.912835 5.49501 1.00195 6.39981 1.34254 7.22208C1.68314 8.04434 2.25991 8.74715 2.99994 9.24162C3.73996 9.73608 4.60999 10 5.5 10C5.93783 9.99203 6.37225 9.92131 6.79 9.79L8 11H10V13H12V15H13C13.5304 15 14.0391 14.7893 14.4142 14.4142C14.7893 14.0391 15 13.5304 15 13V12L9.79 6.79ZM5 4C5.19778 4 5.39112 4.05865 5.55557 4.16853C5.72002 4.27841 5.84819 4.43459 5.92388 4.61732C5.99957 4.80005 6.01937 5.00111 5.98079 5.19509C5.9422 5.38907 5.84696 5.56726 5.70711 5.70711C5.56726 5.84696 5.38907 5.9422 5.19509 5.98079C5.00111 6.01937 4.80005 5.99957 4.61732 5.92388C4.43459 5.84819 4.27841 5.72002 4.16853 5.55557C4.05865 5.39112 4 5.19778 4 5C4 4.73479 4.10536 4.48043 4.2929 4.2929C4.48043 4.10536 4.73479 4 5 4Z" fill="#0F1621"/>
</svg>
