<svg width="24" height="24" viewBox="0 0 24 24" fill="none" xmlns="http://www.w3.org/2000/svg">
<path d="M14.3399 11.34C14.9565 10.0705 15.1432 8.63488 14.8718 7.24993C14.6004 5.86498 13.8856 4.60599 12.8354 3.66319C11.7852 2.72039 10.4567 2.145 9.05064 2.02396C7.64454 1.90292 6.23725 2.2428 5.04139 2.99226C3.84554 3.74172 2.92609 4.86003 2.42198 6.17822C1.91787 7.49641 1.85648 8.94286 2.24708 10.299C2.63769 11.6552 3.45907 12.8474 4.58713 13.6955C5.71518 14.5436 7.08861 15.0015 8.49991 15C9.22598 15.0009 9.94669 14.8757 10.6299 14.63L11.9999 16H14.9999V19H17.9999V22H19.9999C20.5303 22 21.0391 21.7893 21.4141 21.4142C21.7892 21.0391 21.9999 20.5304 21.9999 20V19L14.3399 11.34ZM8.49991 13C7.60989 13 6.73986 12.7361 5.99984 12.2416C5.25982 11.7471 4.68305 11.0443 4.34245 10.2221C4.00186 9.39981 3.91274 8.49501 4.08638 7.6221C4.26001 6.74918 4.68859 5.94736 5.31793 5.31802C5.94727 4.68869 6.74909 4.2601 7.622 4.08647C8.49492 3.91284 9.39972 4.00195 10.222 4.34255C11.0443 4.68314 11.7471 5.25992 12.2415 5.99994C12.736 6.73996 12.9999 7.60999 12.9999 8.5C12.9973 9.69267 12.5223 10.8357 11.679 11.6791C10.8356 12.5224 9.69257 12.9974 8.49991 13ZM7.49991 6C7.20324 6 6.91323 6.08798 6.66655 6.2528C6.41988 6.41762 6.22762 6.65189 6.11409 6.92598C6.00056 7.20007 5.97085 7.50167 6.02873 7.79264C6.08661 8.08361 6.22947 8.35088 6.43925 8.56066C6.64903 8.77044 6.9163 8.9133 7.20727 8.97118C7.49825 9.02906 7.79985 8.99935 8.07393 8.88582C8.34802 8.77229 8.58229 8.58003 8.74711 8.33336C8.91194 8.08668 8.99991 7.79667 8.99991 7.5C8.99991 7.10218 8.84187 6.72065 8.56057 6.43934C8.27927 6.15804 7.89773 6 7.49991 6Z" fill="#0F1621"/>
</svg>
