<svg width="24" height="24" viewBox="0 0 24 24" fill="none" xmlns="http://www.w3.org/2000/svg">
<path d="M14.3399 11.34C14.9565 10.0705 15.1432 8.63488 14.8718 7.24993C14.6004 5.86498 13.8856 4.60599 12.8354 3.66319C11.7852 2.72039 10.4567 2.145 9.05064 2.02396C7.64454 1.90292 6.23725 2.2428 5.04139 2.99226C3.84554 3.74172 2.92609 4.86003 2.42198 6.17822C1.91787 7.49641 1.85648 8.94286 2.24708 10.299C2.63769 11.6552 3.45907 12.8474 4.58713 13.6955C5.71518 14.5436 7.08861 15.0015 8.49991 15C9.22598 15.0009 9.94669 14.8757 10.6299 14.63L11.9999 16H14.9999V19H17.9999V22H19.9999C20.5303 22 21.0391 21.7893 21.4141 21.4142C21.7892 21.0391 21.9999 20.5304 21.9999 20V19L14.3399 11.34ZM7.49991 9C7.20324 9 6.91323 8.91203 6.66655 8.74721C6.41988 8.58239 6.22762 8.34812 6.11409 8.07403C6.00056 7.79994 5.97085 7.49834 6.02873 7.20737C6.08661 6.9164 6.22947 6.64912 6.43925 6.43934C6.64903 6.22956 6.9163 6.0867 7.20727 6.02882C7.49825 5.97095 7.79985 6.00065 8.07393 6.11418C8.34802 6.22772 8.58229 6.41997 8.74711 6.66665C8.91194 6.91332 8.99991 7.20333 8.99991 7.5C8.99991 7.89783 8.84187 8.27936 8.56057 8.56066C8.27927 8.84197 7.89773 9 7.49991 9Z" fill="#0F1621"/>
</svg>
