<svg width="24" height="24" viewBox="0 0 24 24" fill="none" xmlns="http://www.w3.org/2000/svg">
<path d="M21 18L15 7.73V5H16V3H8.00004V5H9.00004V7.73L2.91004 18.05C2.7345 18.354 2.64209 18.6989 2.64209 19.05C2.64209 19.4011 2.7345 19.746 2.91004 20.05C3.08369 20.3508 3.3327 20.6012 3.63254 20.7766C3.93238 20.9519 4.27271 21.0462 4.62004 21.05H19.26C19.6192 21.0568 19.9737 20.9668 20.286 20.7893C20.5984 20.6118 20.8572 20.3535 21.0352 20.0414C21.2133 19.7294 21.304 19.3751 21.2978 19.0159C21.2916 18.6567 21.1887 18.3057 21 18ZM13 5V8.27L14.59 11H9.39004L11 8.27V5H13Z" fill="#0F1621"/>
</svg>
