<svg width="24" height="24" viewBox="0 0 24 24" fill="none" xmlns="http://www.w3.org/2000/svg">
<path d="M11.789 19H10.315L10.216 15.876L10.194 15.205C10.1866 14.9777 10.1793 14.7137 10.172 14.413C10.1646 14.1123 10.161 13.7823 10.161 13.423L10.172 12.796L9.22598 18.175H7.76298L6.76198 12.796C6.78398 13.28 6.79498 13.7603 6.79498 14.237C6.79498 14.7797 6.78398 15.337 6.76198 15.909L6.66298 19H5.21098L5.68398 11.388H7.60898L8.52198 16.679L9.35798 11.388H11.316L11.789 19Z" fill="#0F1621"/>
<path d="M14.4727 11.388C15.4114 11.388 16.1227 11.597 16.6067 12.015C17.0981 12.4257 17.3437 13.0307 17.3437 13.83C17.3437 14.6733 17.1054 15.3077 16.6287 15.733C16.1521 16.1583 15.4811 16.371 14.6157 16.371H14.1977V19H12.6357V11.388H14.4727ZM14.5057 15.238C14.9457 15.238 15.2611 15.1317 15.4517 14.919C15.6497 14.7063 15.7487 14.347 15.7487 13.841C15.7487 13.379 15.6534 13.0417 15.4627 12.829C15.2721 12.6163 14.9604 12.51 14.5277 12.51H14.1977V15.238H14.5057Z" fill="#0F1621"/>
<path d="M19.4404 11.443C19.8584 11.443 20.2214 11.5273 20.5294 11.696C20.8448 11.8647 21.0868 12.0957 21.2554 12.389C21.4241 12.675 21.5084 12.9903 21.5084 13.335C21.5084 14.237 21.0391 14.8163 20.1004 15.073C20.6064 15.139 20.9988 15.3223 21.2774 15.623C21.5634 15.9163 21.7064 16.338 21.7064 16.888C21.7064 17.2987 21.6148 17.68 21.4314 18.032C21.2481 18.3767 20.9768 18.6553 20.6174 18.868C20.2654 19.0733 19.8438 19.176 19.3524 19.176C18.9051 19.176 18.5091 19.088 18.1644 18.912C17.8271 18.7287 17.5118 18.4537 17.2184 18.087L18.0434 17.361C18.2634 17.5957 18.4614 17.7643 18.6374 17.867C18.8208 17.9697 19.0224 18.021 19.2424 18.021C19.5284 18.021 19.7558 17.9183 19.9244 17.713C20.1004 17.5003 20.1884 17.2033 20.1884 16.822C20.1884 16.404 20.0931 16.1033 19.9024 15.92C19.7191 15.7367 19.4478 15.645 19.0884 15.645H18.6264L18.8024 14.611H19.0994C19.4001 14.611 19.6384 14.5157 19.8144 14.325C19.9978 14.1343 20.0894 13.863 20.0894 13.511C20.0894 13.203 20.0124 12.9683 19.8584 12.807C19.7118 12.6383 19.5028 12.554 19.2314 12.554C18.8354 12.554 18.4541 12.7557 18.0874 13.159L17.3394 12.4C17.9554 11.762 18.6558 11.443 19.4404 11.443Z" fill="#0F1621"/>
<path fill-rule="evenodd" clip-rule="evenodd" d="M2 2H16L22 8V10H14V4H4V20H22C22 20.5304 21.7893 21.0391 21.4142 21.4142C21.0391 21.7893 20.5304 22 20 22H4C3.46957 22 2.96086 21.7893 2.58579 21.4142C2.21071 21.0391 2 20.5304 2 20V2ZM16 8H19.17L16 4.83V8Z" fill="#0F1621"/>
</svg>
