<svg width="24" height="24" viewBox="0 0 24 24" fill="none" xmlns="http://www.w3.org/2000/svg">
<path d="M17 3.42C16.8677 3.42055 16.7368 3.44735 16.6149 3.49884C16.4931 3.55034 16.3826 3.62551 16.29 3.72L13 7C13.677 7.17054 14.2975 7.5153 14.8 8L17 5.84L20 8.84V11H18V9H16V9.2L19.82 13H22V8.05L17.71 3.72C17.6174 3.62551 17.5069 3.55034 17.3851 3.49884C17.2632 3.44735 17.1323 3.42055 17 3.42ZM7 3.42C6.86769 3.42055 6.73681 3.44735 6.61493 3.49884C6.49306 3.55034 6.38261 3.62551 6.29 3.72L2 8.05V13H4.18L8 9.2V9H6V11H4V8.87L7 5.87L9.17 8C9.68085 7.51072 10.3123 7.16566 11 7L7.71 3.72C7.61739 3.62551 7.50694 3.55034 7.38507 3.49884C7.26319 3.44735 7.13231 3.42055 7 3.42ZM12 8.87C11.4719 8.86958 10.965 9.07808 10.59 9.45L5 15V22H19V15L13.41 9.45C13.035 9.07808 12.5281 8.86958 12 8.87ZM7 20V15.83L12 10.83L17 15.83V20H13V17H11V20H7Z" fill="#0F1621"/>
</svg>
