<svg width="24" height="24" viewBox="0 0 24 24" fill="none" xmlns="http://www.w3.org/2000/svg">
<path d="M13.41 10.41L18 15V21H14V17H10V21H6V15L10.59 10.41C10.9647 10.0375 11.4716 9.82841 12 9.82841C12.5284 9.82841 13.0353 10.0375 13.41 10.41ZM5.79 4.21999L2 8.04999V13H5V9.99999H8V10.17L9.17 8.99999C9.66236 8.51756 10.2727 8.17275 10.94 7.99999L7.21 4.21999C7.11704 4.12626 7.00644 4.05187 6.88458 4.0011C6.76272 3.95033 6.63201 3.92419 6.5 3.92419C6.36799 3.92419 6.23728 3.95033 6.11542 4.0011C5.99356 4.05187 5.88296 4.12626 5.79 4.21999ZM18.21 4.21999C18.117 4.12626 18.0064 4.05187 17.8846 4.0011C17.7627 3.95033 17.632 3.92419 17.5 3.92419C17.368 3.92419 17.2373 3.95033 17.1154 4.0011C16.9936 4.05187 16.883 4.12626 16.79 4.21999L13.06 7.99999C13.7273 8.17275 14.3376 8.51756 14.83 8.99999L16 10.17V9.99999H19V13.08L22 13V8.04999L18.21 4.21999Z" fill="#0F1621"/>
</svg>
