<svg width="16" height="16" viewBox="0 0 16 16" fill="none" xmlns="http://www.w3.org/2000/svg">
<path d="M4 8H1V5L3.29 2.7C3.38296 2.60628 3.49356 2.53188 3.61542 2.48111C3.73728 2.43034 3.86799 2.40421 4 2.40421C4.13201 2.40421 4.26272 2.43034 4.38458 2.48111C4.50644 2.53188 4.61704 2.60628 4.71 2.7L7 5L4 8ZM11.29 2.74L9 5L12 8H15V5L12.71 2.7C12.6144 2.60885 12.5017 2.53752 12.3784 2.49016C12.2551 2.44279 12.1237 2.42032 11.9917 2.42404C11.8596 2.42776 11.7297 2.45759 11.6092 2.51183C11.4888 2.56606 11.3803 2.64361 11.29 2.74ZM4 11V15H7V12H9V15H12V11L8.71 7.71C8.61704 7.61628 8.50644 7.54188 8.38458 7.49111C8.26272 7.44034 8.13201 7.41421 8 7.41421C7.86799 7.41421 7.73728 7.44034 7.61542 7.49111C7.49356 7.54188 7.38296 7.61628 7.29 7.71L4 11Z" fill="#0F1621"/>
</svg>
