<svg width="24" height="24" viewBox="0 0 24 24" fill="none" xmlns="http://www.w3.org/2000/svg">
<path d="M16.5 3C15.3 3 14.1 3.4 13.1 4L12 5L10.9 4C9.9 3.4 8.7 3 7.5 3C4.4 3 2 5.29999 2 8.39999C2 9.39999 2.2 10.3 2.7 11.2C3.3 12.4 4.4 13.7 6.1 15.3C6.7 15.9 10.2 19.1 11.3 20.2L12 20.9V18.1C11.3 17.4 10.2 16.4 9.3 15.5C8.5 14.7 7.7 14 7.5 13.8C5.9 12.2 5 11.2 4.5 10.2C4.2 9.49998 4 8.89999 4 8.29999C4 6.39999 5.5 4.89999 7.5 4.89999C8.2 4.89999 9 5.1 9.6 5.5L10.6 6.39999L11.9 7.5L13.2 6.39999L14.2 5.5C14.9 5.1 15.6 4.89999 16.3 4.89999C18.3 4.89999 19.8 6.29999 19.8 8.29999C19.8 8.89999 19.6 9.59998 19.3 10.2C19.2 10.4 19.1 10.7 18.9 10.9H19.8V13C20.3 12.3 20.7 11.7 21.1 11.1C21.6 10.2 21.8 9.19999 21.8 8.29999C22 5.29999 19.6 3 16.5 3ZM12 15V13L13 9H16L15 13H18V15L14 19V15H12Z" fill="black"/>
</svg>
