<svg width="24" height="24" viewBox="0 0 24 24" fill="none" xmlns="http://www.w3.org/2000/svg">
<path d="M17.57 16.06C18.6296 15.2229 19.4872 14.1581 20.0793 12.9445C20.6714 11.7309 20.9829 10.3996 20.9905 9.04923C20.9982 7.6989 20.702 6.36415 20.1237 5.14389C19.5454 3.92362 18.7 2.84912 17.65 2L6.34998 2C5.3 2.84912 4.45456 3.92362 3.87628 5.14389C3.29801 6.36415 3.00174 7.6989 3.00942 9.04923C3.01711 10.3996 3.32855 11.7309 3.92067 12.9445C4.51279 14.1581 5.37041 15.2229 6.42998 16.06C5.7033 16.2074 5.05695 16.6187 4.61563 17.2146C4.17431 17.8104 3.96929 18.5486 4.04012 19.2867C4.11095 20.0248 4.4526 20.7105 4.99918 21.2115C5.54576 21.7126 6.25853 21.9935 6.99998 22H17C17.7414 21.9935 18.4542 21.7126 19.0008 21.2115C19.5474 20.7105 19.889 20.0248 19.9598 19.2867C20.0307 18.5486 19.8257 17.8104 19.3843 17.2146C18.943 16.6187 18.2967 16.2074 17.57 16.06V16.06ZM4.99998 9C4.99776 8.06758 5.18346 7.14427 5.54598 6.2852C5.90851 5.42614 6.44043 4.64893 7.10998 4H16.89C17.7165 4.80691 18.3305 5.8058 18.6772 6.90762C19.0239 8.00944 19.0926 9.17993 18.8771 10.3147C18.6616 11.4495 18.1686 12.5134 17.4421 13.4114C16.7156 14.3094 15.7782 15.0137 14.7135 15.4614C13.6487 15.9092 12.4897 16.0865 11.3397 15.9776C10.1898 15.8686 9.08471 15.4768 8.12298 14.8371C7.16124 14.1973 6.37277 13.3295 5.82786 12.311C5.28295 11.2926 4.99853 10.1551 4.99998 9V9ZM17 20H6.99998C6.73477 20 6.48041 19.8946 6.29288 19.7071C6.10534 19.5196 5.99998 19.2652 5.99998 19C5.99998 18.7348 6.10534 18.4804 6.29288 18.2929C6.48041 18.1054 6.73477 18 6.99998 18H17C17.2652 18 17.5196 18.1054 17.7071 18.2929C17.8946 18.4804 18 18.7348 18 19C18 19.2652 17.8946 19.5196 17.7071 19.7071C17.5196 19.8946 17.2652 20 17 20ZM8.99998 7C8.8022 7 8.60886 6.94135 8.44441 6.83147C8.27996 6.72159 8.15179 6.56541 8.0761 6.38268C8.00042 6.19996 7.98061 5.99889 8.0192 5.80491C8.05778 5.61093 8.15302 5.43275 8.29288 5.29289C8.43273 5.15304 8.61091 5.0578 8.80489 5.01921C8.99887 4.98063 9.19994 5.00043 9.38267 5.07612C9.56539 5.15181 9.72157 5.27998 9.83145 5.44443C9.94133 5.60888 9.99998 5.80222 9.99998 6C9.99998 6.26522 9.89463 6.51957 9.70709 6.70711C9.51955 6.89464 9.2652 7 8.99998 7ZM15 7C14.7348 7 14.4804 6.89464 14.2929 6.70711C14.1053 6.51957 14 6.26522 14 6C14 5.73478 14.1053 5.48043 14.2929 5.29289C14.4804 5.10536 14.7348 5 15 5C15.2652 5 15.5196 5.10536 15.7071 5.29289C15.8946 5.48043 16 5.73478 16 6C16 6.26522 15.8946 6.51957 15.7071 6.70711C15.5196 6.89464 15.2652 7 15 7ZM7.49998 10C7.10216 10 6.72063 9.84196 6.43932 9.56066C6.15802 9.27936 5.99998 8.89782 5.99998 8.5C5.99998 8.10218 6.15802 7.72064 6.43932 7.43934C6.72063 7.15804 7.10216 7 7.49998 7C7.89781 7 8.27934 7.15804 8.56064 7.43934C8.84195 7.72064 8.99998 8.10218 8.99998 8.5V8.5C8.9948 8.89621 8.8351 9.27474 8.55491 9.55493C8.27472 9.83512 7.8962 9.99482 7.49998 10ZM11.94 10C11.5422 10 11.1606 9.84196 10.8793 9.56066C10.598 9.27936 10.44 8.89782 10.44 8.5C10.44 8.10218 10.598 7.72064 10.8793 7.43934C11.1606 7.15804 11.5422 7 11.94 7C12.3378 7 12.7193 7.15804 13.0006 7.43934C13.2819 7.72064 13.44 8.10218 13.44 8.5V8.5C13.4348 8.89621 13.2751 9.27474 12.9949 9.55493C12.7147 9.83512 12.3362 9.99482 11.94 10ZM16.5 10C16.1022 10 15.7206 9.84196 15.4393 9.56066C15.158 9.27936 15 8.89782 15 8.5C15 8.10218 15.158 7.72064 15.4393 7.43934C15.7206 7.15804 16.1022 7 16.5 7C16.8978 7 17.2793 7.15804 17.5606 7.43934C17.8419 7.72064 18 8.10218 18 8.5V8.5C17.9948 8.89621 17.8351 9.27474 17.5549 9.55493C17.2747 9.83512 16.8962 9.99482 16.5 10V10ZM9.49998 14C9.10216 14 8.72063 13.842 8.43932 13.5607C8.15802 13.2794 7.99998 12.8978 7.99998 12.5C7.99998 12.1022 8.15802 11.7206 8.43932 11.4393C8.72063 11.158 9.10216 11 9.49998 11C9.89781 11 10.2793 11.158 10.5606 11.4393C10.8419 11.7206 11 12.1022 11 12.5C10.9948 12.8962 10.8351 13.2747 10.5549 13.5549C10.2747 13.8351 9.8962 13.9948 9.49998 14V14ZM14.5 14C14.1022 14 13.7206 13.842 13.4393 13.5607C13.158 13.2794 13 12.8978 13 12.5C13 12.1022 13.158 11.7206 13.4393 11.4393C13.7206 11.158 14.1022 11 14.5 11C14.8978 11 15.2793 11.158 15.5606 11.4393C15.8419 11.7206 16 12.1022 16 12.5C15.9948 12.8962 15.8351 13.2747 15.5549 13.5549C15.2747 13.8351 14.8962 13.9948 14.5 14V14Z" fill="#0F1621"/>
</svg>
