<svg width="16" height="16" viewBox="0 0 16 16" fill="none" xmlns="http://www.w3.org/2000/svg">
<path d="M5 9C4.80222 9 4.60888 8.94135 4.44443 8.83147C4.27998 8.72159 4.15181 8.56541 4.07612 8.38268C4.00044 8.19996 3.98063 7.99889 4.01922 7.80491C4.0578 7.61093 4.15304 7.43275 4.2929 7.29289C4.43275 7.15304 4.61093 7.0578 4.80491 7.01921C4.99889 6.98063 5.19996 7.00043 5.38269 7.07612C5.56541 7.15181 5.72159 7.27998 5.83147 7.44443C5.94135 7.60888 6 7.80222 6 8V8C6 8.26522 5.89465 8.51957 5.70711 8.70711C5.51957 8.89464 5.26522 9 5 9ZM8 1C6.61553 1 5.26216 1.41054 4.11101 2.17971C2.95987 2.94888 2.06266 4.04213 1.53285 5.32122C1.00303 6.6003 0.86441 8.00777 1.13451 9.36563C1.4046 10.7235 2.07129 11.9708 3.05026 12.9497C4.02922 13.9287 5.2765 14.5954 6.63437 14.8655C7.99224 15.1356 9.3997 14.997 10.6788 14.4672C11.9579 13.9373 13.0511 13.0401 13.8203 11.889C14.5895 10.7378 15 9.38447 15 8C15 6.14348 14.2625 4.36301 12.9497 3.05025C11.637 1.7375 9.85652 1 8 1V1ZM6.23 2.94L6.94 2.23L8 3.29L9.06 2.23L9.77 2.94L8.71 4L9.77 5.06L9.06 5.77L8 4.71L6.94 5.77L6.23 5.06L7.29 4L6.23 2.94ZM3 8C3 7.60444 3.1173 7.21776 3.33706 6.88886C3.55683 6.55996 3.86918 6.30362 4.23464 6.15224C4.60009 6.00087 5.00222 5.96126 5.39018 6.03843C5.77815 6.1156 6.13451 6.30608 6.41422 6.58579C6.69392 6.86549 6.8844 7.22186 6.96157 7.60982C7.03874 7.99778 6.99914 8.39991 6.84776 8.76537C6.69639 9.13082 6.44004 9.44318 6.11114 9.66294C5.78225 9.8827 5.39557 10 5 10C4.46957 10 3.96086 9.78929 3.58579 9.41421C3.21072 9.03914 3 8.53043 3 8ZM9.77 13.06L9.06 13.77L8 12.71L6.94 13.77L6.23 13.06L7.29 12L6.23 10.94L6.94 10.23L8 11.29L9.06 10.23L9.77 10.94L8.71 12L9.77 13.06ZM11 10C10.6044 10 10.2178 9.8827 9.88886 9.66294C9.55996 9.44318 9.30362 9.13082 9.15224 8.76537C9.00087 8.39991 8.96126 7.99778 9.03843 7.60982C9.1156 7.22186 9.30608 6.86549 9.58579 6.58579C9.86549 6.30608 10.2219 6.1156 10.6098 6.03843C10.9978 5.96126 11.3999 6.00087 11.7654 6.15224C12.1308 6.30362 12.4432 6.55996 12.6629 6.88886C12.8827 7.21776 13 7.60444 13 8C13 8.53043 12.7893 9.03914 12.4142 9.41421C12.0391 9.78929 11.5304 10 11 10ZM11 9C10.8022 9 10.6089 8.94135 10.4444 8.83147C10.28 8.72159 10.1518 8.56541 10.0761 8.38268C10.0004 8.19996 9.98063 7.99889 10.0192 7.80491C10.0578 7.61093 10.153 7.43275 10.2929 7.29289C10.4327 7.15304 10.6109 7.0578 10.8049 7.01921C10.9989 6.98063 11.2 7.00043 11.3827 7.07612C11.5654 7.15181 11.7216 7.27998 11.8315 7.44443C11.9414 7.60888 12 7.80222 12 8V8C12 8.26522 11.8946 8.51957 11.7071 8.70711C11.5196 8.89464 11.2652 9 11 9Z" fill="#0F1621"/>
</svg>
