<svg width="24" height="24" viewBox="0 0 24 24" fill="none" xmlns="http://www.w3.org/2000/svg">
<path d="M12 2C10.0222 2 8.08879 2.58649 6.4443 3.6853C4.79981 4.78412 3.51809 6.3459 2.76121 8.17317C2.00433 10.0004 1.8063 12.0111 2.19215 13.9509C2.578 15.8907 3.53041 17.6725 4.92894 19.0711C6.32746 20.4696 8.10929 21.422 10.0491 21.8079C11.9889 22.1937 13.9996 21.9957 15.8268 21.2388C17.6541 20.4819 19.2159 19.2002 20.3147 17.5557C21.4135 15.9112 22 13.9778 22 12C22 9.34784 20.9464 6.8043 19.0711 4.92893C17.1957 3.05357 14.6522 2 12 2V2ZM7 15C6.60444 15 6.21776 14.8827 5.88886 14.6629C5.55997 14.4432 5.30362 14.1308 5.15225 13.7654C5.00087 13.3999 4.96126 12.9978 5.03843 12.6098C5.1156 12.2219 5.30609 11.8655 5.58579 11.5858C5.8655 11.3061 6.22186 11.1156 6.60982 11.0384C6.99779 10.9613 7.39992 11.0009 7.76537 11.1522C8.13082 11.3036 8.44318 11.56 8.66294 11.8889C8.88271 12.2178 9 12.6044 9 13C9 13.5304 8.78929 14.0391 8.41422 14.4142C8.03915 14.7893 7.53044 15 7 15ZM12 8.5C11.7033 8.5 11.4133 8.41203 11.1666 8.2472C10.92 8.08238 10.7277 7.84811 10.6142 7.57403C10.5007 7.29994 10.4709 6.99834 10.5288 6.70736C10.5867 6.41639 10.7296 6.14912 10.9393 5.93934C11.1491 5.72956 11.4164 5.5867 11.7074 5.52882C11.9983 5.47094 12.2999 5.50065 12.574 5.61418C12.8481 5.72771 13.0824 5.91997 13.2472 6.16664C13.412 6.41332 13.5 6.70333 13.5 7C13.5 7.39782 13.342 7.77936 13.0607 8.06066C12.7794 8.34196 12.3978 8.5 12 8.5ZM17 15C16.6044 15 16.2178 14.8827 15.8889 14.6629C15.56 14.4432 15.3036 14.1308 15.1522 13.7654C15.0009 13.3999 14.9613 12.9978 15.0384 12.6098C15.1156 12.2219 15.3061 11.8655 15.5858 11.5858C15.8655 11.3061 16.2219 11.1156 16.6098 11.0384C16.9978 10.9613 17.3999 11.0009 17.7654 11.1522C18.1308 11.3036 18.4432 11.56 18.6629 11.8889C18.8827 12.2178 19 12.6044 19 13C19 13.5304 18.7893 14.0391 18.4142 14.4142C18.0391 14.7893 17.5304 15 17 15Z" fill="#0F1621"/>
</svg>
