<svg width="24" height="24" viewBox="0 0 24 24" fill="none" xmlns="http://www.w3.org/2000/svg">
<path d="M12 13C12.5304 13 13.0391 13.2107 13.4142 13.5858C13.7893 13.9609 14 14.4696 14 15V17H10V15C10 14.4696 10.2107 13.9609 10.5858 13.5858C10.9609 13.2107 11.4696 13 12 13V13ZM17 11V7H15V11H17ZM7 7V13H9V7H7ZM7 5H17C17.9365 5.91164 18.6837 6.99935 19.1985 8.20064C19.7133 9.40193 19.9857 10.6931 20 12C19.9857 13.3069 19.7133 14.5981 19.1985 15.7994C18.6837 17.0007 17.9365 18.0884 17 19H7C6.06171 18.0897 5.31339 17.0023 4.79843 15.8007C4.28346 14.5991 4.01207 13.3072 4 12C4.01427 10.6931 4.28665 9.40193 4.80149 8.20064C5.31633 6.99935 6.06348 5.91164 7 5V5ZM17 3H7C6.48991 2.99186 5.99735 3.18601 5.63 3.54C4.49341 4.6384 3.58704 5.95223 2.96378 7.40476C2.34053 8.8573 2.01289 10.4194 2 12C2.01289 13.5806 2.34053 15.1427 2.96378 16.5952C3.58704 18.0478 4.49341 19.3616 5.63 20.46C5.99735 20.814 6.48991 21.0081 7 21H17C17.5101 21.0081 18.0027 20.814 18.37 20.46C19.5066 19.3616 20.413 18.0478 21.0362 16.5952C21.6595 15.1427 21.9871 13.5806 22 12C21.9871 10.4194 21.6595 8.8573 21.0362 7.40476C20.413 5.95223 19.5066 4.6384 18.37 3.54C18.0027 3.18601 17.5101 2.99186 17 3V3Z" fill="#0F1621"/>
</svg>
