<svg width="16" height="16" viewBox="0 0 16 16" fill="none" xmlns="http://www.w3.org/2000/svg">
<path d="M8 1C6.61553 1 5.26216 1.41054 4.11101 2.17971C2.95987 2.94888 2.06266 4.04213 1.53285 5.32122C1.00303 6.6003 0.86441 8.00777 1.13451 9.36563C1.4046 10.7235 2.07129 11.9708 3.05026 12.9497C4.02922 13.9287 5.2765 14.5954 6.63437 14.8655C7.99224 15.1356 9.3997 14.997 10.6788 14.4672C11.9579 13.9373 13.0511 13.0401 13.8203 11.889C14.5895 10.7378 15 9.38447 15 8C15 6.14348 14.2625 4.36301 12.9497 3.05025C11.637 1.7375 9.85652 1 8 1V1ZM4 9.5C3.70333 9.5 3.41332 9.41203 3.16665 9.2472C2.91997 9.08238 2.72772 8.84811 2.61418 8.57403C2.50065 8.29994 2.47095 7.99834 2.52883 7.70736C2.5867 7.41639 2.72956 7.14912 2.93934 6.93934C3.14912 6.72956 3.4164 6.5867 3.70737 6.52882C3.99834 6.47094 4.29994 6.50065 4.57403 6.61418C4.84812 6.72771 5.08239 6.91997 5.24721 7.16664C5.41203 7.41332 5.5 7.70333 5.5 8C5.5 8.39782 5.34197 8.77936 5.06066 9.06066C4.77936 9.34196 4.39783 9.5 4 9.5V9.5ZM8 13.5C7.70333 13.5 7.41332 13.412 7.16665 13.2472C6.91997 13.0824 6.72772 12.8481 6.61418 12.574C6.50065 12.2999 6.47095 11.9983 6.52883 11.7074C6.5867 11.4164 6.72956 11.1491 6.93934 10.9393C7.14912 10.7296 7.4164 10.5867 7.70737 10.5288C7.99834 10.4709 8.29994 10.5006 8.57403 10.6142C8.84812 10.7277 9.08239 10.92 9.24721 11.1666C9.41203 11.4133 9.5 11.7033 9.5 12C9.5 12.3978 9.34197 12.7794 9.06066 13.0607C8.77936 13.342 8.39783 13.5 8 13.5V13.5ZM8 9.5C7.60218 9.5 7.22065 9.34196 6.93934 9.06066C6.65804 8.77936 6.5 8.39782 6.5 8V8C6.5 7.70333 6.58798 7.41332 6.7528 7.16664C6.91762 6.91997 7.15189 6.72771 7.42598 6.61418C7.70007 6.50065 8.00167 6.47094 8.29264 6.52882C8.58361 6.5867 8.85088 6.72956 9.06066 6.93934C9.27044 7.14912 9.4133 7.41639 9.47118 7.70736C9.52906 7.99834 9.49935 8.29994 9.38582 8.57403C9.27229 8.84811 9.08003 9.08238 8.83336 9.2472C8.58669 9.41203 8.29668 9.5 8 9.5V9.5ZM8 5.5C7.60218 5.5 7.22065 5.34196 6.93934 5.06066C6.65804 4.77936 6.5 4.39782 6.5 4V4C6.5 3.70333 6.58798 3.41332 6.7528 3.16664C6.91762 2.91997 7.15189 2.72771 7.42598 2.61418C7.70007 2.50065 8.00167 2.47094 8.29264 2.52882C8.58361 2.5867 8.85088 2.72956 9.06066 2.93934C9.27044 3.14912 9.4133 3.41639 9.47118 3.70736C9.52906 3.99834 9.49935 4.29994 9.38582 4.57403C9.27229 4.84811 9.08003 5.08238 8.83336 5.2472C8.58669 5.41203 8.29668 5.5 8 5.5V5.5ZM12 8.5C11.7033 8.5 11.4133 8.41203 11.1666 8.2472C10.92 8.08238 10.7277 7.84811 10.6142 7.57403C10.5007 7.29994 10.4709 6.99834 10.5288 6.70736C10.5867 6.41639 10.7296 6.14912 10.9393 5.93934C11.1491 5.72956 11.4164 5.5867 11.7074 5.52882C11.9983 5.47094 12.2999 5.50065 12.574 5.61418C12.8481 5.72771 13.0824 5.91997 13.2472 6.16664C13.412 6.41332 13.5 6.70333 13.5 7C13.5 7.39782 13.342 7.77936 13.0607 8.06066C12.7794 8.34196 12.3978 8.5 12 8.5Z" fill="#0F1621"/>
</svg>
