<svg width="24" height="24" viewBox="0 0 24 24" fill="none" xmlns="http://www.w3.org/2000/svg">
<path d="M21 11C21.0008 9.26244 20.4987 7.56179 19.5541 6.10337C18.6096 4.64495 17.2631 3.49113 15.6772 2.7812C14.0912 2.07128 12.3337 1.83562 10.6168 2.10266C8.89988 2.3697 7.29697 3.12804 6.00159 4.2861C4.70621 5.44417 3.77376 6.95246 3.3168 8.62886C2.85985 10.3053 2.89793 12.0781 3.42646 13.7333C3.95499 15.3886 4.95136 16.8554 6.29528 17.9568C7.63919 19.0581 9.27319 19.7469 11 19.94C11 19.94 11 20 11 20V21C11 21.2652 11.1054 21.5196 11.2929 21.7071C11.4804 21.8946 11.7348 22 12 22C12.2652 22 12.5196 21.8946 12.7071 21.7071C12.8946 21.5196 13 21.2652 13 21V20C13 20 13 20 13 19.94C15.1994 19.6941 17.231 18.6465 18.7068 16.9973C20.1825 15.3482 20.9989 13.2131 21 11V11ZM12 18C10.6155 18 9.26215 17.5895 8.11101 16.8203C6.95986 16.0511 6.06266 14.9579 5.53284 13.6788C5.00303 12.3997 4.86441 10.9922 5.1345 9.63437C5.4046 8.27651 6.07128 7.02922 7.05025 6.05026C8.02922 5.07129 9.2765 4.4046 10.6344 4.13451C11.9922 3.86441 13.3997 4.00303 14.6788 4.53285C15.9579 5.06266 17.0511 5.95987 17.8203 7.11101C18.5895 8.26216 19 9.61554 19 11C19 12.8565 18.2625 14.637 16.9497 15.9498C15.637 17.2625 13.8565 18 12 18ZM10 8.5C10 8.79668 9.91203 9.08669 9.7472 9.33336C9.58238 9.58003 9.34811 9.77229 9.07402 9.88582C8.79994 9.99936 8.49834 10.0291 8.20736 9.97118C7.91639 9.9133 7.64912 9.77044 7.43934 9.56067C7.22956 9.35089 7.0867 9.08361 7.02882 8.79264C6.97094 8.50167 7.00065 8.20007 7.11418 7.92598C7.22771 7.65189 7.41997 7.41762 7.66664 7.2528C7.91332 7.08798 8.20333 7 8.5 7C8.89782 7 9.27935 7.15804 9.56066 7.43934C9.84196 7.72065 10 8.10218 10 8.5V8.5ZM17 8.5C17 8.79668 16.912 9.08669 16.7472 9.33336C16.5824 9.58003 16.3481 9.77229 16.074 9.88582C15.7999 9.99936 15.4983 10.0291 15.2074 9.97118C14.9164 9.9133 14.6491 9.77044 14.4393 9.56067C14.2296 9.35089 14.0867 9.08361 14.0288 8.79264C13.9709 8.50167 14.0006 8.20007 14.1142 7.92598C14.2277 7.65189 14.42 7.41762 14.6666 7.2528C14.9133 7.08798 15.2033 7 15.5 7C15.8978 7 16.2794 7.15804 16.5607 7.43934C16.842 7.72065 17 8.10218 17 8.5V8.5ZM14 14C14 14.3956 13.8827 14.7822 13.6629 15.1111C13.4432 15.44 13.1308 15.6964 12.7654 15.8478C12.3999 15.9991 11.9978 16.0387 11.6098 15.9616C11.2219 15.8844 10.8655 15.6939 10.5858 15.4142C10.3061 15.1345 10.1156 14.7781 10.0384 14.3902C9.96126 14.0022 10.0009 13.6001 10.1522 13.2346C10.3036 12.8692 10.56 12.5568 10.8889 12.3371C11.2178 12.1173 11.6044 12 12 12C12.5304 12 13.0391 12.2107 13.4142 12.5858C13.7893 12.9609 14 13.4696 14 14Z" fill="#0F1621"/>
</svg>
