<svg width="24" height="24" viewBox="0 0 24 24" fill="none" xmlns="http://www.w3.org/2000/svg">
<path d="M10 12C10 12.3956 9.88271 12.7822 9.66294 13.1111C9.44318 13.44 9.13082 13.6964 8.76537 13.8478C8.39992 13.9991 7.99779 14.0387 7.60982 13.9616C7.22186 13.8844 6.8655 13.6939 6.58579 13.4142C6.30609 13.1345 6.1156 12.7781 6.03843 12.3902C5.96126 12.0022 6.00087 11.6001 6.15225 11.2346C6.30362 10.8692 6.55997 10.5568 6.88886 10.3371C7.21776 10.1173 7.60444 10 8 10C8.53044 10 9.03915 10.2107 9.41422 10.5858C9.78929 10.9609 10 11.4696 10 12ZM16 10C15.6044 10 15.2178 10.1173 14.8889 10.3371C14.56 10.5568 14.3036 10.8692 14.1522 11.2346C14.0009 11.6001 13.9613 12.0022 14.0384 12.3902C14.1156 12.7781 14.3061 13.1345 14.5858 13.4142C14.8655 13.6939 15.2219 13.8844 15.6098 13.9616C15.9978 14.0387 16.3999 13.9991 16.7654 13.8478C17.1308 13.6964 17.4432 13.44 17.6629 13.1111C17.8827 12.7822 18 12.3956 18 12C18 11.4696 17.7893 10.9609 17.4142 10.5858C17.0391 10.2107 16.5304 10 16 10V10ZM22 12C22 13.9778 21.4135 15.9112 20.3147 17.5557C19.2159 19.2002 17.6541 20.4819 15.8268 21.2388C13.9996 21.9957 11.9889 22.1937 10.0491 21.8079C8.10929 21.422 6.32746 20.4696 4.92894 19.0711C3.53041 17.6725 2.578 15.8907 2.19215 13.9509C1.8063 12.0111 2.00433 10.0004 2.76121 8.17317C3.51809 6.3459 4.79981 4.78412 6.4443 3.6853C8.08879 2.58649 10.0222 2 12 2C14.6522 2 17.1957 3.05357 19.0711 4.92893C20.9464 6.8043 22 9.34784 22 12ZM20 12C19.9982 10.0527 19.2863 8.17292 17.9976 6.71303C16.7089 5.25315 14.932 4.31341 13 4.07V6H11V4.07C9.07815 4.32592 7.31463 5.27107 6.03736 6.7297C4.76008 8.18833 4.05599 10.0612 4.05599 12C4.05599 13.9388 4.76008 15.8117 6.03736 17.2703C7.31463 18.7289 9.07815 19.6741 11 19.93V18H13V19.93C14.932 19.6866 16.7089 18.7469 17.9976 17.287C19.2863 15.8271 19.9982 13.9473 20 12V12Z" fill="#0F1621"/>
</svg>
