<svg width="16" height="16" viewBox="0 0 16 16" fill="none" xmlns="http://www.w3.org/2000/svg">
<path d="M13.09 1.42002C12.7953 1.14323 12.4042 0.992519 12 1.00002H4C3.5958 0.992519 3.20466 1.14323 2.91 1.42002C2.00364 2.26179 1.27821 3.27932 0.777906 4.41058C0.277606 5.54184 0.0129259 6.76314 0 8.00002C0.0129259 9.23691 0.277606 10.4582 0.777906 11.5895C1.27821 12.7207 2.00364 13.7383 2.91 14.58C3.20466 14.8568 3.5958 15.0075 4 15H12C12.4042 15.0075 12.7953 14.8568 13.09 14.58C13.9964 13.7383 14.7218 12.7207 15.2221 11.5895C15.7224 10.4582 15.9871 9.23691 16 8.00002C15.9871 6.76314 15.7224 5.54184 15.2221 4.41058C14.7218 3.27932 13.9964 2.26179 13.09 1.42002ZM6 8.00002H4V3.00002H6V8.00002ZM9.5 13H6.5V11.46C6.5 11.0622 6.65804 10.6807 6.93934 10.3994C7.22064 10.1181 7.60218 9.96002 8 9.96002C8.39782 9.96002 8.77936 10.1181 9.06066 10.3994C9.34196 10.6807 9.5 11.0622 9.5 11.46V13ZM12 6.00002H10V3.00002H12V6.00002Z" fill="#0F1621"/>
</svg>
