<svg width="24" height="24" viewBox="0 0 24 24" fill="none" xmlns="http://www.w3.org/2000/svg">
<path d="M20 5H4L2 12L4 19H20L22 12L20 5ZM7.5 12C7.20333 12 6.91332 11.912 6.66664 11.7472C6.41997 11.5824 6.22771 11.3481 6.11418 11.074C6.00065 10.7999 5.97094 10.4983 6.02882 10.2074C6.0867 9.91639 6.22956 9.64912 6.43934 9.43934C6.64912 9.22956 6.91639 9.0867 7.20736 9.02882C7.49834 8.97094 7.79994 9.00065 8.07403 9.11418C8.34811 9.22771 8.58238 9.41997 8.7472 9.66664C8.91203 9.91332 9 10.2033 9 10.5C9 10.8978 8.84196 11.2794 8.56066 11.5607C8.27936 11.842 7.89782 12 7.5 12V12ZM12 15.5C11.7033 15.5 11.4133 15.412 11.1666 15.2472C10.92 15.0824 10.7277 14.8481 10.6142 14.574C10.5006 14.2999 10.4709 13.9983 10.5288 13.7074C10.5867 13.4164 10.7296 13.1491 10.9393 12.9393C11.1491 12.7296 11.4164 12.5867 11.7074 12.5288C11.9983 12.4709 12.2999 12.5006 12.574 12.6142C12.8481 12.7277 13.0824 12.92 13.2472 13.1666C13.412 13.4133 13.5 13.7033 13.5 14C13.5 14.3978 13.342 14.7794 13.0607 15.0607C12.7794 15.342 12.3978 15.5 12 15.5ZM16.5 12C16.2033 12 15.9133 11.912 15.6666 11.7472C15.42 11.5824 15.2277 11.3481 15.1142 11.074C15.0006 10.7999 14.9709 10.4983 15.0288 10.2074C15.0867 9.91639 15.2296 9.64912 15.4393 9.43934C15.6491 9.22956 15.9164 9.0867 16.2074 9.02882C16.4983 8.97094 16.7999 9.00065 17.074 9.11418C17.3481 9.22771 17.5824 9.41997 17.7472 9.66664C17.912 9.91332 18 10.2033 18 10.5C18 10.8978 17.842 11.2794 17.5607 11.5607C17.2794 11.842 16.8978 12 16.5 12V12Z" fill="#0F1621"/>
</svg>
