<svg width="24" height="24" viewBox="0 0 24 24" fill="none" xmlns="http://www.w3.org/2000/svg">
<path d="M21 11C21.0008 9.26244 20.4987 7.56179 19.5541 6.10337C18.6096 4.64495 17.2631 3.49113 15.6772 2.7812C14.0912 2.07128 12.3337 1.83562 10.6168 2.10266C8.89988 2.3697 7.29697 3.12804 6.00159 4.2861C4.70621 5.44417 3.77376 6.95246 3.3168 8.62886C2.85985 10.3053 2.89793 12.0781 3.42646 13.7333C3.95499 15.3886 4.95136 16.8554 6.29528 17.9568C7.63919 19.0581 9.27319 19.7469 11 19.94C11 19.94 11 20 11 20V21C11 21.2652 11.1054 21.5196 11.2929 21.7071C11.4804 21.8946 11.7348 22 12 22C12.2652 22 12.5196 21.8946 12.7071 21.7071C12.8946 21.5196 13 21.2652 13 21V20C13 20 13 20 13 19.94C15.1994 19.6941 17.231 18.6465 18.7068 16.9973C20.1825 15.3482 20.9989 13.2131 21 11V11ZM8.5 10C8.20333 10 7.91332 9.91203 7.66664 9.74721C7.41997 9.58239 7.22771 9.34812 7.11418 9.07403C7.00065 8.79994 6.97094 8.49834 7.02882 8.20737C7.0867 7.9164 7.22956 7.64912 7.43934 7.43934C7.64912 7.22957 7.91639 7.0867 8.20736 7.02883C8.49834 6.97095 8.79994 7.00065 9.07402 7.11419C9.34811 7.22772 9.58238 7.41998 9.7472 7.66665C9.91203 7.91332 10 8.20333 10 8.5C10 8.89783 9.84196 9.27936 9.56066 9.56067C9.27935 9.84197 8.89782 10 8.5 10ZM12 16C11.6044 16 11.2178 15.8827 10.8889 15.6629C10.56 15.4432 10.3036 15.1308 10.1522 14.7654C10.0009 14.3999 9.96126 13.9978 10.0384 13.6098C10.1156 13.2219 10.3061 12.8655 10.5858 12.5858C10.8655 12.3061 11.2219 12.1156 11.6098 12.0384C11.9978 11.9613 12.3999 12.0009 12.7654 12.1522C13.1308 12.3036 13.4432 12.56 13.6629 12.8889C13.8827 13.2178 14 13.6044 14 14C14 14.5304 13.7893 15.0391 13.4142 15.4142C13.0391 15.7893 12.5304 16 12 16ZM15.5 10C15.2033 10 14.9133 9.91203 14.6666 9.74721C14.42 9.58239 14.2277 9.34812 14.1142 9.07403C14.0006 8.79994 13.9709 8.49834 14.0288 8.20737C14.0867 7.9164 14.2296 7.64912 14.4393 7.43934C14.6491 7.22957 14.9164 7.0867 15.2074 7.02883C15.4983 6.97095 15.7999 7.00065 16.074 7.11419C16.3481 7.22772 16.5824 7.41998 16.7472 7.66665C16.912 7.91332 17 8.20333 17 8.5C17 8.89783 16.842 9.27936 16.5607 9.56067C16.2794 9.84197 15.8978 10 15.5 10V10Z" fill="#0F1621"/>
</svg>
