<svg width="16" height="16" viewBox="0 0 16 16" fill="none" xmlns="http://www.w3.org/2000/svg">
<path d="M9 1.09998V2.99998H7V1.09998C3.6 1.59998 1 4.49998 1 7.99998C1 11.5 3.6 14.4 7 14.9V13H9V14.9C12.4 14.4 15 11.5 15 7.99998C15 4.49998 12.4 1.59998 9 1.09998ZM5.2 9.39997C4.4 9.39997 3.8 8.79998 3.8 7.99998C3.8 7.19998 4.4 6.59998 5.2 6.59998C6 6.59998 6.6 7.19998 6.6 7.99998C6.6 8.79998 6 9.39997 5.2 9.39997ZM10.8 9.39997C10 9.39997 9.4 8.79998 9.4 7.99998C9.4 7.19998 10 6.59998 10.8 6.59998C11.6 6.59998 12.2 7.19998 12.2 7.99998C12.2 8.79998 11.6 9.39997 10.8 9.39997Z" fill="black"/>
</svg>
