<svg width="24" height="24" viewBox="0 0 24 24" fill="none" xmlns="http://www.w3.org/2000/svg">
<path d="M20 8C19.996 6.86259 19.7496 5.7391 19.2771 4.70447C18.8046 3.66983 18.1169 2.74784 17.26 2H6.73995C5.73051 2.8809 4.95847 4.00121 4.49467 5.25812C4.03087 6.51504 3.89016 7.86831 4.08545 9.19375C4.28075 10.5192 4.8058 11.7744 5.61242 12.8441C6.41903 13.9138 7.48139 14.7638 8.70201 15.3162C9.92262 15.8685 11.2624 16.1054 12.5984 16.0052C13.9344 15.905 15.2239 15.4708 16.3484 14.7426C17.473 14.0144 18.3966 13.0154 19.0346 11.8373C19.6727 10.6592 20.0046 9.33975 20 8ZM15 4C15.2652 4 15.5195 4.10536 15.7071 4.29289C15.8946 4.48043 16 4.73478 16 5C16 5.26522 15.8946 5.51957 15.7071 5.70711C15.5195 5.89464 15.2652 6 15 6C14.7347 6 14.4804 5.89464 14.2928 5.70711C14.1053 5.51957 14 5.26522 14 5C14 4.73478 14.1053 4.48043 14.2928 4.29289C14.4804 4.10536 14.7347 4 15 4V4ZM8.99995 4C9.26517 4 9.51952 4.10536 9.70706 4.29289C9.8946 4.48043 9.99995 4.73478 9.99995 5C9.99995 5.26522 9.8946 5.51957 9.70706 5.70711C9.51952 5.89464 9.26517 6 8.99995 6C8.73474 6 8.48038 5.89464 8.29285 5.70711C8.10531 5.51957 7.99995 5.26522 7.99995 5C7.99995 4.73478 8.10531 4.48043 8.29285 4.29289C8.48038 4.10536 8.73474 4 8.99995 4ZM5.99995 8.5C5.99995 8.10218 6.15799 7.72064 6.43929 7.43934C6.7206 7.15804 7.10213 7 7.49995 7C7.89778 7 8.27931 7.15804 8.56061 7.43934C8.84192 7.72064 8.99995 8.10218 8.99995 8.5C8.99477 8.89621 8.83508 9.27474 8.55489 9.55493C8.2747 9.83512 7.89617 9.99482 7.49995 10C7.10213 10 6.7206 9.84196 6.43929 9.56066C6.15799 9.27936 5.99995 8.89782 5.99995 8.5V8.5ZM9.49995 14C9.10213 14 8.7206 13.842 8.43929 13.5607C8.15799 13.2794 7.99995 12.8978 7.99995 12.5C7.99995 12.1022 8.15799 11.7206 8.43929 11.4393C8.7206 11.158 9.10213 11 9.49995 11C9.89778 11 10.2793 11.158 10.5606 11.4393C10.8419 11.7206 11 12.1022 11 12.5C10.9948 12.8962 10.8351 13.2747 10.5549 13.5549C10.2747 13.8351 9.89617 13.9948 9.49995 14V14ZM10.5 8.5C10.5 8.10218 10.658 7.72064 10.9393 7.43934C11.2206 7.15804 11.6021 7 12 7C12.3978 7 12.7793 7.15804 13.0606 7.43934C13.3419 7.72064 13.5 8.10218 13.5 8.5C13.4948 8.89621 13.3351 9.27474 13.0549 9.55493C12.7747 9.83512 12.3962 9.99482 12 10C11.6021 10 11.2206 9.84196 10.9393 9.56066C10.658 9.27936 10.5 8.89782 10.5 8.5ZM14.5 14C14.1021 14 13.7206 13.842 13.4393 13.5607C13.158 13.2794 13 12.8978 13 12.5C13 12.1022 13.158 11.7206 13.4393 11.4393C13.7206 11.158 14.1021 11 14.5 11C14.8978 11 15.2793 11.158 15.5606 11.4393C15.8419 11.7206 16 12.1022 16 12.5C15.9948 12.8962 15.8351 13.2747 15.5549 13.5549C15.2747 13.8351 14.8962 13.9948 14.5 14V14ZM16.5 10C16.1021 10 15.7206 9.84196 15.4393 9.56066C15.158 9.27936 15 8.89782 15 8.5C15 8.10218 15.158 7.72064 15.4393 7.43934C15.7206 7.15804 16.1021 7 16.5 7C16.8978 7 17.2793 7.15804 17.5606 7.43934C17.8419 7.72064 18 8.10218 18 8.5C17.9948 8.89621 17.8351 9.27474 17.5549 9.55493C17.2747 9.83512 16.8962 9.99482 16.5 10V10ZM16 16H7.99995C7.2043 16 6.44124 16.3161 5.87863 16.8787C5.31602 17.4413 4.99995 18.2044 4.99995 19C4.99995 19.7956 5.31602 20.5587 5.87863 21.1213C6.44124 21.6839 7.2043 22 7.99995 22H16C16.7956 22 17.5587 21.6839 18.1213 21.1213C18.6839 20.5587 19 19.7956 19 19C19 18.2044 18.6839 17.4413 18.1213 16.8787C17.5587 16.3161 16.7956 16 16 16ZM7.99995 20.5C7.60213 20.5 7.2206 20.342 6.93929 20.0607C6.65799 19.7794 6.49995 19.3978 6.49995 19C6.49995 18.6022 6.65799 18.2206 6.93929 17.9393C7.2206 17.658 7.60213 17.5 7.99995 17.5C8.39778 17.5 8.77931 17.658 9.06061 17.9393C9.34192 18.2206 9.49995 18.6022 9.49995 19C9.49477 19.3962 9.33508 19.7747 9.05489 20.0549C8.7747 20.3351 8.39617 20.4948 7.99995 20.5V20.5ZM16 20.5C15.6021 20.5 15.2206 20.342 14.9393 20.0607C14.658 19.7794 14.5 19.3978 14.5 19C14.5 18.6022 14.658 18.2206 14.9393 17.9393C15.2206 17.658 15.6021 17.5 16 17.5C16.3978 17.5 16.7793 17.658 17.0606 17.9393C17.3419 18.2206 17.5 18.6022 17.5 19C17.4948 19.3962 17.3351 19.7747 17.0549 20.0549C16.7747 20.3351 16.3962 20.4948 16 20.5V20.5Z" fill="#0F1621"/>
</svg>
