<svg width="16" height="16" viewBox="0 0 16 16" fill="none" xmlns="http://www.w3.org/2000/svg">
<path d="M8 1C6.61553 1 5.26216 1.41054 4.11101 2.17971C2.95987 2.94888 2.06266 4.04213 1.53285 5.32122C1.00303 6.6003 0.86441 8.00777 1.13451 9.36563C1.4046 10.7235 2.07129 11.9708 3.05026 12.9497C4.02922 13.9287 5.2765 14.5954 6.63437 14.8655C7.99224 15.1356 9.3997 14.997 10.6788 14.4672C11.9579 13.9373 13.0511 13.0401 13.8203 11.889C14.5895 10.7378 15 9.38447 15 8C15 6.14348 14.2625 4.36301 12.9497 3.05025C11.637 1.7375 9.85652 1 8 1V1ZM4 11C3.80222 11 3.60888 10.9414 3.44443 10.8315C3.27998 10.7216 3.15181 10.5654 3.07612 10.3827C3.00044 10.2 2.98063 9.99889 3.01922 9.80491C3.0578 9.61093 3.15304 9.43275 3.2929 9.29289C3.43275 9.15304 3.61093 9.0578 3.80491 9.01921C3.99889 8.98063 4.19996 9.00043 4.38269 9.07612C4.56541 9.15181 4.72159 9.27998 4.83147 9.44443C4.94135 9.60888 5 9.80222 5 10C5 10.2652 4.89465 10.5196 4.70711 10.7071C4.51957 10.8946 4.26522 11 4 11ZM4 5.5C4 5.20333 4.08798 4.91332 4.2528 4.66664C4.41762 4.41997 4.65189 4.22771 4.92598 4.11418C5.20007 4.00065 5.50167 3.97094 5.79264 4.02882C6.08361 4.0867 6.35088 4.22956 6.56066 4.43934C6.77044 4.64912 6.9133 4.91639 6.97118 5.20736C7.02906 5.49834 6.99935 5.79994 6.88582 6.07403C6.77229 6.34811 6.58003 6.58238 6.33336 6.7472C6.08669 6.91203 5.79668 7 5.5 7C5.10218 7 4.72065 6.84196 4.43934 6.56066C4.15804 6.27936 4 5.89782 4 5.5ZM8 13C7.70333 13 7.41332 12.912 7.16665 12.7472C6.91997 12.5824 6.72772 12.3481 6.61418 12.074C6.50065 11.7999 6.47095 11.4983 6.52883 11.2074C6.5867 10.9164 6.72956 10.6491 6.93934 10.4393C7.14912 10.2296 7.4164 10.0867 7.70737 10.0288C7.99834 9.97094 8.29994 10.0006 8.57403 10.1142C8.84812 10.2277 9.08239 10.42 9.24721 10.6666C9.41203 10.9133 9.5 11.2033 9.5 11.5C9.5 11.8978 9.34197 12.2794 9.06066 12.5607C8.77936 12.842 8.39783 13 8 13V13ZM9 5.5C9 5.20333 9.08798 4.91332 9.2528 4.66664C9.41762 4.41997 9.65189 4.22771 9.92598 4.11418C10.2001 4.00065 10.5017 3.97094 10.7926 4.02882C11.0836 4.0867 11.3509 4.22956 11.5607 4.43934C11.7704 4.64912 11.9133 4.91639 11.9712 5.20736C12.0291 5.49834 11.9994 5.79994 11.8858 6.07403C11.7723 6.34811 11.58 6.58238 11.3334 6.7472C11.0867 6.91203 10.7967 7 10.5 7C10.1022 7 9.72065 6.84196 9.43934 6.56066C9.15804 6.27936 9 5.89782 9 5.5V5.5ZM12 11C11.8022 11 11.6089 10.9414 11.4444 10.8315C11.28 10.7216 11.1518 10.5654 11.0761 10.3827C11.0004 10.2 10.9806 9.99889 11.0192 9.80491C11.0578 9.61093 11.153 9.43275 11.2929 9.29289C11.4327 9.15304 11.6109 9.0578 11.8049 9.01921C11.9989 8.98063 12.2 9.00043 12.3827 9.07612C12.5654 9.15181 12.7216 9.27998 12.8315 9.44443C12.9414 9.60888 13 9.80222 13 10C13 10.2652 12.8946 10.5196 12.7071 10.7071C12.5196 10.8946 12.2652 11 12 11Z" fill="#0F1621"/>
</svg>
