<svg width="16" height="16" viewBox="0 0 16 16" fill="none" xmlns="http://www.w3.org/2000/svg">
<path d="M8 11C7.01109 11 6.04439 10.7068 5.22215 10.1573C4.3999 9.60794 3.75904 8.82705 3.3806 7.91342C3.00216 6.99979 2.90315 5.99446 3.09607 5.02455C3.289 4.05465 3.7652 3.16373 4.46447 2.46447C5.16373 1.76521 6.05464 1.289 7.02455 1.09608C7.99445 0.90315 8.99979 1.00217 9.91342 1.3806C10.827 1.75904 11.6079 2.39991 12.1573 3.22215C12.7068 4.0444 13 5.0111 13 6C13 7.32608 12.4732 8.59785 11.5355 9.53554C10.5979 10.4732 9.32608 11 8 11V11ZM14 13.5C14 13.1022 13.842 12.7206 13.5607 12.4393C13.2794 12.158 12.8978 12 12.5 12H3.5C3.10218 12 2.72064 12.158 2.43934 12.4393C2.15804 12.7206 2 13.1022 2 13.5V13.5C2 13.8978 2.15804 14.2794 2.43934 14.5607C2.72064 14.842 3.10218 15 3.5 15H12.5C12.8978 15 13.2794 14.842 13.5607 14.5607C13.842 14.2794 14 13.8978 14 13.5V13.5Z" fill="#0F1621"/>
</svg>
