<svg width="24" height="24" viewBox="0 0 24 24" fill="none" xmlns="http://www.w3.org/2000/svg">
<path d="M18.37 3.54C18.0027 3.18601 17.5101 2.99186 17 3H7C6.48991 2.99186 5.99735 3.18601 5.63 3.54C4.49341 4.6384 3.58704 5.95223 2.96378 7.40476C2.34053 8.8573 2.01289 10.4194 2 12C2.01289 13.5806 2.34053 15.1427 2.96378 16.5952C3.58704 18.0478 4.49341 19.3616 5.63 20.46C5.99735 20.814 6.48991 21.0081 7 21H17C17.5101 21.0081 18.0027 20.814 18.37 20.46C19.5066 19.3616 20.413 18.0478 21.0362 16.5952C21.6595 15.1427 21.9871 13.5806 22 12C21.9871 10.4194 21.6595 8.8573 21.0362 7.40476C20.413 5.95223 19.5066 4.6384 18.37 3.54V3.54ZM8 13H6V7H8V13ZM14 19H10V17C10 16.4696 10.2107 15.9609 10.5858 15.5858C10.9609 15.2107 11.4696 15 12 15C12.5304 15 13.0391 15.2107 13.4142 15.5858C13.7893 15.9609 14 16.4696 14 17V19ZM18 11H16V7H18V11Z" fill="#0F1621"/>
</svg>
