<svg width="24" height="24" viewBox="0 0 24 24" fill="none" xmlns="http://www.w3.org/2000/svg">
<path d="M17.5 9C17.5 9.29667 17.412 9.58668 17.2472 9.83336C17.0824 10.08 16.8481 10.2723 16.574 10.3858C16.2999 10.4994 15.9983 10.5291 15.7074 10.4712C15.4164 10.4133 15.1491 10.2704 14.9393 10.0607C14.7296 9.85088 14.5867 9.58361 14.5288 9.29264C14.4709 9.00166 14.5007 8.70006 14.6142 8.42597C14.7277 8.15189 14.92 7.91762 15.1666 7.7528C15.4133 7.58797 15.7033 7.5 16 7.5C16.3978 7.5 16.7794 7.65804 17.0607 7.93934C17.342 8.22064 17.5 8.60218 17.5 9V9ZM12 15.5C11.7033 15.5 11.4133 15.588 11.1666 15.7528C10.92 15.9176 10.7277 16.1519 10.6142 16.426C10.5007 16.7001 10.4709 17.0017 10.5288 17.2926C10.5867 17.5836 10.7296 17.8509 10.9393 18.0607C11.1491 18.2704 11.4164 18.4133 11.7074 18.4712C11.9983 18.5291 12.2999 18.4993 12.574 18.3858C12.8481 18.2723 13.0824 18.08 13.2472 17.8334C13.412 17.5867 13.5 17.2967 13.5 17C13.5 16.6022 13.342 16.2206 13.0607 15.9393C12.7794 15.658 12.3978 15.5 12 15.5ZM8 7.5C7.70333 7.5 7.41332 7.58797 7.16665 7.7528C6.91998 7.91762 6.72772 8.15189 6.61418 8.42597C6.50065 8.70006 6.47095 9.00166 6.52883 9.29264C6.5867 9.58361 6.72957 9.85088 6.93934 10.0607C7.14912 10.2704 7.4164 10.4133 7.70737 10.4712C7.99834 10.5291 8.29994 10.4994 8.57403 10.3858C8.84812 10.2723 9.08239 10.08 9.24721 9.83336C9.41203 9.58668 9.5 9.29667 9.5 9C9.5 8.60218 9.34197 8.22064 9.06066 7.93934C8.77936 7.65804 8.39783 7.5 8 7.5V7.5ZM22 12C22 13.9778 21.4135 15.9112 20.3147 17.5557C19.2159 19.2002 17.6541 20.4819 15.8268 21.2388C13.9996 21.9957 11.9889 22.1937 10.0491 21.8079C8.10929 21.422 6.32746 20.4696 4.92894 19.0711C3.53041 17.6725 2.578 15.8907 2.19215 13.9509C1.8063 12.0111 2.00433 10.0004 2.76121 8.17317C3.51809 6.3459 4.79981 4.78412 6.4443 3.6853C8.08879 2.58649 10.0222 2 12 2C14.6522 2 17.1957 3.05357 19.0711 4.92893C20.9464 6.8043 22 9.34784 22 12ZM8 15.5C8 15.2033 7.91203 14.9133 7.74721 14.6666C7.58239 14.42 7.34812 14.2277 7.07403 14.1142C6.79994 14.0006 6.49834 13.9709 6.20737 14.0288C5.9164 14.0867 5.64912 14.2296 5.43934 14.4393C5.22957 14.6491 5.0867 14.9164 5.02883 15.2074C4.97095 15.4983 5.00065 15.7999 5.11419 16.074C5.22772 16.3481 5.41998 16.5824 5.66665 16.7472C5.91332 16.912 6.20333 17 6.5 17C6.89783 17 7.27936 16.842 7.56066 16.5607C7.84197 16.2794 8 15.8978 8 15.5ZM8 12C8.59335 12 9.17337 11.8241 9.66672 11.4944C10.1601 11.1648 10.5446 10.6962 10.7716 10.1481C10.9987 9.59987 11.0581 8.99667 10.9424 8.41473C10.8266 7.83279 10.5409 7.29824 10.1213 6.87868C9.70177 6.45912 9.16722 6.1734 8.58528 6.05764C8.00333 5.94189 7.40013 6.0013 6.85195 6.22836C6.30378 6.45542 5.83524 6.83994 5.5056 7.33329C5.17595 7.82664 5 8.40666 5 9C5 9.79565 5.31608 10.5587 5.87868 11.1213C6.44129 11.6839 7.20435 12 8 12V12ZM15 17C15 16.4067 14.8241 15.8266 14.4944 15.3333C14.1648 14.8399 13.6962 14.4554 13.1481 14.2284C12.5999 14.0013 11.9967 13.9419 11.4147 14.0576C10.8328 14.1734 10.2982 14.4591 9.87868 14.8787C9.45913 15.2982 9.1734 15.8328 9.05765 16.4147C8.94189 16.9967 9.0013 17.5999 9.22837 18.1481C9.45543 18.6962 9.83995 19.1648 10.3333 19.4944C10.8266 19.8241 11.4067 20 12 20C12.7957 20 13.5587 19.6839 14.1213 19.1213C14.6839 18.5587 15 17.7956 15 17V17ZM19 15.5C19 15.2033 18.912 14.9133 18.7472 14.6666C18.5824 14.42 18.3481 14.2277 18.074 14.1142C17.7999 14.0006 17.4983 13.9709 17.2074 14.0288C16.9164 14.0867 16.6491 14.2296 16.4393 14.4393C16.2296 14.6491 16.0867 14.9164 16.0288 15.2074C15.9709 15.4983 16.0007 15.7999 16.1142 16.074C16.2277 16.3481 16.42 16.5824 16.6666 16.7472C16.9133 16.912 17.2033 17 17.5 17C17.8978 17 18.2794 16.842 18.5607 16.5607C18.842 16.2794 19 15.8978 19 15.5V15.5ZM19 9C19 8.40666 18.8241 7.82664 18.4944 7.33329C18.1648 6.83994 17.6962 6.45542 17.1481 6.22836C16.5999 6.0013 15.9967 5.94189 15.4147 6.05764C14.8328 6.1734 14.2982 6.45912 13.8787 6.87868C13.4591 7.29824 13.1734 7.83279 13.0576 8.41473C12.9419 8.99667 13.0013 9.59987 13.2284 10.1481C13.4554 10.6962 13.8399 11.1648 14.3333 11.4944C14.8266 11.8241 15.4067 12 16 12C16.7957 12 17.5587 11.6839 18.1213 11.1213C18.6839 10.5587 19 9.79565 19 9V9Z" fill="#0F1621"/>
</svg>
