<svg width="16" height="16" viewBox="0 0 16 16" fill="none" xmlns="http://www.w3.org/2000/svg">
<path d="M8 1C6.61553 1 5.26216 1.41054 4.11101 2.17971C2.95987 2.94888 2.06266 4.04213 1.53285 5.32122C1.00303 6.6003 0.86441 8.00777 1.13451 9.36563C1.4046 10.7235 2.07129 11.9708 3.05026 12.9497C4.02922 13.9287 5.2765 14.5954 6.63437 14.8655C7.99224 15.1356 9.3997 14.997 10.6788 14.4672C11.9579 13.9373 13.0511 13.0401 13.8203 11.889C14.5895 10.7378 15 9.38447 15 8C15 6.14348 14.2625 4.36301 12.9497 3.05025C11.637 1.7375 9.85652 1 8 1V1ZM5 9.5C4.70333 9.5 4.41332 9.41203 4.16665 9.2472C3.91997 9.08238 3.72772 8.84811 3.61418 8.57403C3.50065 8.29994 3.47095 7.99834 3.52883 7.70736C3.5867 7.41639 3.72956 7.14912 3.93934 6.93934C4.14912 6.72956 4.4164 6.5867 4.70737 6.52882C4.99834 6.47094 5.29994 6.50065 5.57403 6.61418C5.84812 6.72771 6.08239 6.91997 6.24721 7.16664C6.41203 7.41332 6.5 7.70333 6.5 8C6.5 8.39782 6.34197 8.77936 6.06066 9.06066C5.77936 9.34196 5.39783 9.5 5 9.5V9.5ZM11 9.5C10.7033 9.5 10.4133 9.41203 10.1666 9.2472C9.91997 9.08238 9.72771 8.84811 9.61418 8.57403C9.50065 8.29994 9.47095 7.99834 9.52882 7.70736C9.5867 7.41639 9.72956 7.14912 9.93934 6.93934C10.1491 6.72956 10.4164 6.5867 10.7074 6.52882C10.9983 6.47094 11.2999 6.50065 11.574 6.61418C11.8481 6.72771 12.0824 6.91997 12.2472 7.16664C12.412 7.41332 12.5 7.70333 12.5 8C12.5 8.39782 12.342 8.77936 12.0607 9.06066C11.7794 9.34196 11.3978 9.5 11 9.5V9.5Z" fill="#0F1621"/>
</svg>
