<svg width="24" height="24" viewBox="0 0 24 24" fill="none" xmlns="http://www.w3.org/2000/svg">
<path d="M18.87 5C19.5853 6.57163 19.97 8.27351 20 10C20 12.1217 19.1572 14.1566 17.6569 15.6569C16.1566 17.1571 14.1218 18 12 18C9.8783 18 7.84347 17.1571 6.34318 15.6569C4.84289 14.1566 4.00003 12.1217 4.00003 10C4.03011 8.27351 4.41473 6.57163 5.13003 5H18.87ZM20 3H4.00003C2.68789 5.09862 1.99465 7.52495 2.00003 10C2.00003 12.6522 3.0536 15.1957 4.92896 17.0711C6.80433 18.9464 9.34787 20 12 20C14.6522 20 17.1957 18.9464 19.0711 17.0711C20.9465 15.1957 22 12.6522 22 10C22.0054 7.52495 21.3122 5.09862 20 3V3ZM7.00003 8C6.60447 8 6.21779 8.1173 5.88889 8.33706C5.55999 8.55682 5.30365 8.86918 5.15227 9.23463C5.0009 9.60009 4.96129 10.0022 5.03846 10.3902C5.11563 10.7781 5.30611 11.1345 5.58582 11.4142C5.86552 11.6939 6.22189 11.8844 6.60985 11.9616C6.99781 12.0387 7.39995 11.9991 7.7654 11.8478C8.13085 11.6964 8.44321 11.44 8.66297 11.1111C8.88273 10.7822 9.00003 10.3956 9.00003 10C9.00003 9.46957 8.78932 8.96086 8.41424 8.58579C8.03917 8.21071 7.53046 8 7.00003 8V8ZM12 8C11.6045 8 11.2178 8.1173 10.8889 8.33706C10.56 8.55682 10.3036 8.86918 10.1523 9.23463C10.0009 9.60009 9.96129 10.0022 10.0385 10.3902C10.1156 10.7781 10.3061 11.1345 10.5858 11.4142C10.8655 11.6939 11.2219 11.8844 11.6099 11.9616C11.9978 12.0387 12.3999 11.9991 12.7654 11.8478C13.1309 11.6964 13.4432 11.44 13.663 11.1111C13.8827 10.7822 14 10.3956 14 10C14 9.46957 13.7893 8.96086 13.4142 8.58579C13.0392 8.21071 12.5305 8 12 8V8ZM9.00003 12C8.60447 12 8.21779 12.1173 7.88889 12.3371C7.55999 12.5568 7.30365 12.8692 7.15227 13.2346C7.0009 13.6001 6.96129 14.0022 7.03846 14.3902C7.11563 14.7781 7.30611 15.1345 7.58582 15.4142C7.86552 15.6939 8.22189 15.8844 8.60985 15.9616C8.99781 16.0387 9.39995 15.9991 9.7654 15.8478C10.1309 15.6964 10.4432 15.44 10.663 15.1111C10.8827 14.7822 11 14.3956 11 14C11 13.4696 10.7893 12.9609 10.4142 12.5858C10.0392 12.2107 9.53046 12 9.00003 12ZM15 12C14.6045 12 14.2178 12.1173 13.8889 12.3371C13.56 12.5568 13.3036 12.8692 13.1523 13.2346C13.0009 13.6001 12.9613 14.0022 13.0385 14.3902C13.1156 14.7781 13.3061 15.1345 13.5858 15.4142C13.8655 15.6939 14.2219 15.8844 14.6099 15.9616C14.9978 16.0387 15.3999 15.9991 15.7654 15.8478C16.1309 15.6964 16.4432 15.44 16.663 15.1111C16.8827 14.7822 17 14.3956 17 14C17 13.4696 16.7893 12.9609 16.4142 12.5858C16.0392 12.2107 15.5305 12 15 12ZM9.00003 6C8.80225 6 8.60891 6.05865 8.44446 6.16853C8.28001 6.27841 8.15184 6.43459 8.07615 6.61732C8.00046 6.80004 7.98066 7.00111 8.01925 7.19509C8.05783 7.38907 8.15307 7.56725 8.29292 7.70711C8.43278 7.84696 8.61096 7.9422 8.80494 7.98079C8.99892 8.01937 9.19999 7.99957 9.38271 7.92388C9.56544 7.84819 9.72162 7.72002 9.8315 7.55557C9.94138 7.39112 10 7.19778 10 7C10 6.73478 9.89467 6.48043 9.70714 6.29289C9.5196 6.10536 9.26525 6 9.00003 6V6ZM15 6C14.8023 6 14.6089 6.05865 14.4445 6.16853C14.28 6.27841 14.1518 6.43459 14.0762 6.61732C14.0005 6.80004 13.9807 7.00111 14.0192 7.19509C14.0578 7.38907 14.1531 7.56725 14.2929 7.70711C14.4328 7.84696 14.611 7.9422 14.8049 7.98079C14.9989 8.01937 15.2 7.99957 15.3827 7.92388C15.5654 7.84819 15.7216 7.72002 15.8315 7.55557C15.9414 7.39112 16 7.19778 16 7C16 6.73478 15.8947 6.48043 15.7071 6.29289C15.5196 6.10536 15.2652 6 15 6V6ZM17 8C16.6045 8 16.2178 8.1173 15.8889 8.33706C15.56 8.55682 15.3036 8.86918 15.1523 9.23463C15.0009 9.60009 14.9613 10.0022 15.0385 10.3902C15.1156 10.7781 15.3061 11.1345 15.5858 11.4142C15.8655 11.6939 16.2219 11.8844 16.6099 11.9616C16.9978 12.0387 17.3999 11.9991 17.7654 11.8478C18.1309 11.6964 18.4432 11.44 18.663 11.1111C18.8827 10.7822 19 10.3956 19 10C19 9.46957 18.7893 8.96086 18.4142 8.58579C18.0392 8.21071 17.5305 8 17 8V8Z" fill="#0F1621"/>
</svg>
