<svg width="24" height="24" viewBox="0 0 24 24" fill="none" xmlns="http://www.w3.org/2000/svg">
<path d="M6.99617 11.388C7.93484 11.388 8.64617 11.597 9.13017 12.015C9.62151 12.4257 9.86717 13.0307 9.86717 13.83C9.86717 14.6733 9.62884 15.3077 9.15217 15.733C8.67551 16.1583 8.00451 16.371 7.13917 16.371H6.72117V19H5.15917V11.388H6.99617ZM7.02917 15.238C7.46917 15.238 7.78451 15.1317 7.97517 14.919C8.17317 14.7063 8.27217 14.347 8.27217 13.841C8.27217 13.379 8.17684 13.0417 7.98617 12.829C7.79551 12.6163 7.48384 12.51 7.05117 12.51H6.72117V15.238H7.02917Z" fill="#0F1621"/>
<path d="M15.4677 19H13.5317L11.7497 12.862L11.7827 13.17C11.8341 13.654 11.8744 14.105 11.9037 14.523C11.9404 14.941 11.9587 15.4177 11.9587 15.953V19H10.5947V11.388H12.5307L14.3237 17.537C14.2651 17.2143 14.2137 16.811 14.1697 16.327C14.1257 15.8357 14.1037 15.3333 14.1037 14.82V11.388H15.4677V19Z" fill="#0F1621"/>
<path d="M19.4258 11.212C19.8585 11.212 20.2435 11.2927 20.5808 11.454C20.9255 11.608 21.2445 11.8317 21.5378 12.125L20.7788 12.906C20.5588 12.7153 20.3498 12.5797 20.1518 12.499C19.9538 12.411 19.7338 12.367 19.4918 12.367C19.0152 12.367 18.6485 12.5797 18.3918 13.005C18.1352 13.423 18.0068 14.1527 18.0068 15.194C18.0068 15.9273 18.0508 16.4993 18.1388 16.91C18.2342 17.3207 18.3698 17.6067 18.5458 17.768C18.7218 17.9293 18.9565 18.01 19.2498 18.01C19.5432 18.01 19.8255 17.922 20.0968 17.746V15.799H19.2938L19.1398 14.677H21.5598V18.406C21.2372 18.648 20.8742 18.835 20.4708 18.967C20.0748 19.099 19.6752 19.165 19.2718 19.165C18.3038 19.165 17.5815 18.846 17.1048 18.208C16.6355 17.5627 16.4008 16.5543 16.4008 15.183C16.4008 14.303 16.5328 13.566 16.7968 12.972C17.0608 12.378 17.4202 11.938 17.8748 11.652C18.3295 11.3587 18.8465 11.212 19.4258 11.212Z" fill="#0F1621"/>
<path fill-rule="evenodd" clip-rule="evenodd" d="M2 2H16L22 8V10H14V4H4V20H22C22 20.5304 21.7893 21.0391 21.4142 21.4142C21.0391 21.7893 20.5304 22 20 22H4C3.46957 22 2.96086 21.7893 2.58579 21.4142C2.21071 21.0391 2 20.5304 2 20V2ZM16 8H19.17L16 4.83V8Z" fill="#0F1621"/>
</svg>
