<svg width="16" height="16" viewBox="0 0 16 16" fill="none" xmlns="http://www.w3.org/2000/svg">
<path d="M14 10.87V9.22C14 8.68957 13.7893 8.18086 13.4142 7.80579C13.0391 7.43071 12.5304 7.22 12 7.22V6C12 5.73478 11.8946 5.48043 11.7071 5.29289C11.5196 5.10536 11.2652 5 11 5C11 3.93913 10.5786 2.92172 9.82843 2.17157C9.07829 1.42143 8.06087 1 7 1L6.17 3.32C6.08413 3.49398 5.96352 3.64851 5.8156 3.77406C5.66769 3.89962 5.49562 3.99353 5.31 4.05L4.71 4.26C4.49743 4.32419 4.31226 4.45732 4.18371 4.63838C4.05515 4.81944 3.99052 5.03814 4 5.26V6.46L3.48 6.6C3.05383 6.71475 2.67757 6.96725 2.40987 7.31815C2.14218 7.66905 1.99807 8.09865 2 8.54V10.87C1.71131 10.9527 1.45747 11.1273 1.277 11.3673C1.09652 11.6074 0.999275 11.8997 1 12.2V13.6C1 13.7839 1.03622 13.9659 1.10657 14.1358C1.17693 14.3056 1.28005 14.4599 1.41005 14.5899C1.54006 14.72 1.69439 14.8231 1.86425 14.8934C2.0341 14.9638 2.21615 15 2.4 15H13.6C13.7839 15 13.9659 14.9638 14.1358 14.8934C14.3056 14.8231 14.46 14.72 14.59 14.5899C14.72 14.4599 14.8231 14.3056 14.8934 14.1358C14.9638 13.9659 15 13.7839 15 13.6V12.2C14.9991 11.9001 14.9012 11.6085 14.721 11.3688C14.5408 11.1291 14.2879 10.9541 14 10.87ZM5 12C4.80222 12 4.60888 11.9414 4.44443 11.8315C4.27998 11.7216 4.15181 11.5654 4.07612 11.3827C4.00044 11.2 3.98063 10.9989 4.01922 10.8049C4.0578 10.6109 4.15304 10.4327 4.2929 10.2929C4.43275 10.153 4.61093 10.0578 4.80491 10.0192C4.99889 9.98063 5.19996 10.0004 5.38269 10.0761C5.56541 10.1518 5.72159 10.28 5.83147 10.4444C5.94136 10.6089 6 10.8022 6 11C6 11.2652 5.89465 11.5196 5.70711 11.7071C5.51957 11.8946 5.26522 12 5 12ZM9 12C8.80222 12 8.60888 11.9414 8.44443 11.8315C8.27998 11.7216 8.15181 11.5654 8.07612 11.3827C8.00044 11.2 7.98063 10.9989 8.01922 10.8049C8.0578 10.6109 8.15305 10.4327 8.2929 10.2929C8.43275 10.153 8.61093 10.0578 8.80491 10.0192C8.9989 9.98063 9.19996 10.0004 9.38269 10.0761C9.56541 10.1518 9.72159 10.28 9.83147 10.4444C9.94135 10.6089 10 10.8022 10 11C10 11.2652 9.89465 11.5196 9.70711 11.7071C9.51957 11.8946 9.26522 12 9 12Z" fill="#0F1621"/>
</svg>
