<svg width="24" height="24" viewBox="0 0 24 24" fill="none" xmlns="http://www.w3.org/2000/svg">
<path d="M10 4C10.205 4.00287 10.4042 4.06869 10.5705 4.18853C10.7369 4.30838 10.8624 4.47645 10.93 4.67L11.4 6H16V16H4V6H8.6L9.07 4.67C9.13764 4.47645 9.26313 4.30838 9.42948 4.18853C9.59583 4.06869 9.795 4.00287 10 4ZM10 2C9.38106 2.00174 8.7778 2.19488 8.27293 2.55294C7.76807 2.911 7.38631 3.41645 7.18 4H2V16C2 16.5304 2.21071 17.0391 2.58579 17.4142C2.96086 17.7893 3.46957 18 4 18H16C16.5304 18 17.0391 17.7893 17.4142 17.4142C17.7893 17.0391 18 16.5304 18 16V4H12.82C12.6137 3.41645 12.2319 2.911 11.7271 2.55294C11.2222 2.19488 10.6189 2.00174 10 2ZM14 14H6V12H14V14ZM14 10H6V8H14V10ZM22 10V20C22 20.5304 21.7893 21.0391 21.4142 21.4142C21.0391 21.7893 20.5304 22 20 22H8V20H20V10H22Z" fill="#0F1621"/>
</svg>
