<svg width="16" height="16" viewBox="0 0 16 16" fill="none" xmlns="http://www.w3.org/2000/svg">
<path d="M9.41 1.99997C9.30952 1.70583 9.11956 1.45047 8.86672 1.26966C8.61389 1.08885 8.31084 0.991638 8 0.991638C7.68916 0.991638 7.38611 1.08885 7.13328 1.26966C6.88044 1.45047 6.69048 1.70583 6.59 1.99997H1V14C1 14.2652 1.10536 14.5195 1.29289 14.7071C1.48043 14.8946 1.73478 15 2 15H14C14.2652 15 14.5196 14.8946 14.7071 14.7071C14.8946 14.5195 15 14.2652 15 14V1.99997H9.41ZM8 12H4V9.99997H8V12ZM12 7.99997H4V5.99997H12V7.99997Z" fill="#0F1621"/>
</svg>
