<svg width="24" height="24" viewBox="0 0 24 24" fill="none" xmlns="http://www.w3.org/2000/svg">
<path d="M14.82 3.99998C14.6098 3.42082 14.2264 2.92044 13.7218 2.56682C13.2173 2.2132 12.6161 2.0235 12 2.0235C11.3839 2.0235 10.7827 2.2132 10.2782 2.56682C9.77363 2.92044 9.3902 3.42082 9.18 3.99998H2V20C2 20.5304 2.21071 21.0391 2.58579 21.4142C2.96086 21.7893 3.46957 22 4 22H20C20.5304 22 21.0391 21.7893 21.4142 21.4142C21.7893 21.0391 22 20.5304 22 20V3.99998H14.82ZM20 20H4V5.99998H11L11.06 4.67998C11.1301 4.48692 11.2579 4.32013 11.4261 4.20226C11.5942 4.08438 11.7946 4.02115 12 4.02115C12.2054 4.02115 12.4058 4.08438 12.5739 4.20226C12.7421 4.32013 12.8699 4.48692 12.94 4.67998L13 5.99998H20V20ZM7 9.99998H17V7.99998H7V9.99998ZM7 14H17V12H7V14ZM7 18H12V16H7V18Z" fill="#0F1621"/>
</svg>
