<svg width="24" height="24" viewBox="0 0 24 24" fill="none" xmlns="http://www.w3.org/2000/svg">
<path d="M18.5965 12.0751L20.4166 11.2069L21.2939 12.566C23.1723 15.4759 21.0834 19.3107 17.6199 19.3107H15.0776V17.3107H17.6199C19.4994 17.3107 20.6329 15.2297 19.6136 13.6507L18.5965 12.0751Z" fill="#0F1621"/>
<path d="M6.45552 12.0751L4.63545 11.2069L3.75807 12.566C1.87967 15.4759 3.96858 19.3107 7.43206 19.3107H9.97444V17.3107H7.43206C5.55262 17.3107 4.41907 15.2298 5.43838 13.6507L6.45552 12.0751Z" fill="#0F1621"/>
<path fill-rule="evenodd" clip-rule="evenodd" d="M15.7579 6.86205L17.4198 5.71991L16.6814 4.28052C15.1006 1.19885 10.4278 1.28108 8.69602 4.28054L7.42485 6.48226L9.1569 7.48226L10.4281 5.28054C11.3678 3.6529 14.044 3.5211 14.9019 5.19337L15.7579 6.86205Z" fill="#0F1621"/>
<path d="M13.294 18.8211C12.9513 18.541 12.9513 18.0171 13.294 17.7371L16.7305 14.9284V21.6297L13.294 18.8211Z" fill="#0F1621"/>
<path d="M7.10304 9.90315C7.03782 9.46539 6.58779 9.19727 6.17178 9.34833L2 10.863L7.757 14.293L7.10304 9.90315Z" fill="#0F1621"/>
<path d="M17.7503 9.23478C18.1625 9.37837 18.6041 9.11389 18.6721 8.68277L19.3736 4.23353L13.4969 7.75295L17.7503 9.23478Z" fill="#0F1621"/>
</svg>
