<svg width="16" height="16" viewBox="0 0 16 16" fill="none" xmlns="http://www.w3.org/2000/svg">
<path d="M12.6175 8.05251L13.8915 7.44478L14.5057 8.39618C15.8205 10.4331 14.3583 13.1174 11.9339 13.1174H10.1542V11.7174H11.9339C13.2495 11.7174 14.043 10.2608 13.3294 9.15546L12.6175 8.05251Z" fill="#0F1621"/>
<path d="M4.11882 8.05251L2.84478 7.44478L2.23061 8.39621C0.915739 10.4331 2.37797 13.1174 4.8024 13.1174H6.58206V11.7175H4.8024C3.48679 11.7175 2.69331 10.2608 3.40682 9.15549L4.11882 8.05251Z" fill="#0F1621"/>
<path fill-rule="evenodd" clip-rule="evenodd" d="M10.6305 4.40342L11.7938 3.60393L11.2769 2.59635C10.1704 0.439195 6.8994 0.496758 5.68719 2.59637L4.79738 4.13756L6.00981 4.83756L6.89962 3.29637C7.55742 2.15702 9.43079 2.06476 10.0313 3.23535L10.6305 4.40342Z" fill="#0F1621"/>
<path d="M8.96262 12.8212C8.69336 12.6011 8.69336 12.1895 8.96262 11.9694L11.3113 10.0499L11.3113 14.7407L8.96262 12.8212Z" fill="#0F1621"/>
<path d="M4.58292 6.60479C4.53168 6.26083 4.17809 6.05017 3.85122 6.16885L1 7.2041L5.02988 9.60502L4.58292 6.60479Z" fill="#0F1621"/>
<path d="M11.9573 6.04069C12.2812 6.1535 12.6282 5.9457 12.6816 5.60696L13.1615 2.56346L9.04775 5.02704L11.9573 6.04069Z" fill="#0F1621"/>
</svg>
