<svg width="16" height="16" viewBox="0 0 16 16" fill="none" xmlns="http://www.w3.org/2000/svg">
<path d="M1.00005 6.00693C1.00351 6.24245 1.17956 6.43889 1.41296 6.46808L1.96681 6.53736C3.79847 6.76645 5.23749 8.20633 5.46596 10.0386L5.5342 10.5858C5.56387 10.8224 5.76464 11 6.00299 11C6.24134 11 6.44212 10.8224 6.47179 10.5858L6.54003 10.0386C6.76899 8.20584 8.208 6.76596 10.0392 6.53736L10.5861 6.46907C10.8225 6.43939 11 6.2385 11 6C11 5.7615 10.8225 5.56061 10.5861 5.53093L10.0392 5.46264C8.20949 5.23404 6.76849 3.79169 6.54003 1.96141L6.47179 1.41415C6.44261 1.17763 6.24134 1 6.00299 1C5.76464 1 5.56387 1.17763 5.5342 1.41415L5.46596 1.96141C5.23749 3.79218 3.796 5.23404 1.96632 5.46264C1.75665 5.48887 1.56725 5.51262 1.41247 5.53191C1.17412 5.5621 0.996588 5.76645 1.00005 6.00693Z" fill="#0F1621"/>
<path d="M8.00003 11.5048C8.00246 11.6697 8.12569 11.8072 8.28907 11.8277L8.67677 11.8762C9.95893 12.0365 10.9662 13.0444 11.1262 14.327L11.1739 14.7101C11.1947 14.8757 11.3352 15 11.5021 15C11.6689 15 11.8095 14.8757 11.8302 14.7101L11.878 14.327C12.0383 13.0441 13.0456 12.0362 14.3274 11.8762L14.7103 11.8284C14.8757 11.8076 15 11.6669 15 11.5C15 11.3331 14.8757 11.1924 14.7103 11.1716L14.3274 11.1238C13.0466 10.9638 12.0379 9.95418 11.878 8.67298L11.8302 8.28991C11.8098 8.12434 11.6689 8 11.5021 8C11.3352 8 11.1947 8.12434 11.1739 8.28991L11.1262 8.67298C10.9662 9.95453 9.9572 10.9638 8.67642 11.1238C8.52965 11.1422 8.39708 11.1588 8.28873 11.1723C8.12188 11.1935 7.99761 11.3365 8.00003 11.5048Z" fill="#0F1621"/>
</svg>
