<svg width="24" height="24" viewBox="0 0 24 24" fill="none" xmlns="http://www.w3.org/2000/svg">
<path d="M10 8C8.34315 8 7 9.34315 7 11V14.5C7 16.1569 8.34315 17.5 10 17.5C11.6569 17.5 13 16.1569 13 14.5V11C13 9.34315 11.6569 8 10 8Z" fill="#0F1621"/>
<path d="M4.25 14.5C4.25 17.4214 6.42873 19.834 9.25 20.2015V22H10.75V20.2015C13.5713 19.834 15.75 17.4214 15.75 14.5H14.25C14.25 16.8472 12.3472 18.75 10 18.75C7.65279 18.75 5.75 16.8472 5.75 14.5H4.25Z" fill="#0F1621"/>
<path d="M16 12.0042C16.0021 12.1455 16.1077 12.2633 16.2478 12.2809L16.5801 12.3224C17.6791 12.4599 18.5425 13.3238 18.6796 14.4232L18.7205 14.7515C18.7383 14.8934 18.8588 15 19.0018 15C19.1448 15 19.2653 14.8934 19.2831 14.7515L19.324 14.4232C19.4614 13.3235 20.3248 12.4596 21.4235 12.3224L21.7517 12.2814C21.8935 12.2636 22 12.1431 22 12C22 11.8569 21.8935 11.7364 21.7517 11.7186L21.4235 11.6776C20.3257 11.5404 19.4611 10.675 19.324 9.57684L19.2831 9.24849C19.2656 9.10658 19.1448 9 19.0018 9C18.8588 9 18.7383 9.10658 18.7205 9.24849L18.6796 9.57684C18.5425 10.6753 17.6776 11.5404 16.5798 11.6776C16.454 11.6933 16.3404 11.7076 16.2475 11.7191C16.1045 11.7373 15.998 11.8599 16 12.0042Z" fill="#0F1621"/>
<path d="M11 6.00554C11.0028 6.19396 11.1436 6.35111 11.3304 6.37447L11.7735 6.42989C13.2388 6.61316 14.39 7.76507 14.5728 9.23088L14.6274 9.66868C14.6511 9.85789 14.8117 10 15.0024 10C15.1931 10 15.3537 9.85789 15.3774 9.66868L15.432 9.23088C15.6152 7.76467 16.7664 6.61277 18.2313 6.42989L18.6689 6.37526C18.858 6.35151 19 6.1908 19 6C19 5.8092 18.858 5.64849 18.6689 5.62474L18.2313 5.57011C16.7676 5.38723 15.6148 4.23335 15.432 2.76912L15.3774 2.33132C15.3541 2.14211 15.1931 2 15.0024 2C14.8117 2 14.6511 2.14211 14.6274 2.33132L14.5728 2.76912C14.39 4.23375 13.2368 5.38723 11.7731 5.57011C11.6053 5.59109 11.4538 5.61009 11.33 5.62553C11.1393 5.64968 10.9973 5.81316 11 6.00554Z" fill="#0F1621"/>
</svg>
