<svg width="24" height="24" viewBox="0 0 24 24" fill="none" xmlns="http://www.w3.org/2000/svg">
<path d="M2.00007 9.0097C2.00492 9.33944 2.25138 9.61445 2.57815 9.65532L3.35354 9.7523C5.91786 10.073 7.93249 12.0889 8.25234 14.654L8.34788 15.4202C8.38942 15.7513 8.67049 16 9.00419 16C9.33788 16 9.61896 15.7513 9.6605 15.4202L9.75604 14.654C10.0766 12.0882 12.0912 10.0723 14.6548 9.7523L15.4205 9.6567C15.7515 9.61514 16 9.33389 16 9C16 8.66611 15.7515 8.38486 15.4205 8.3433L14.6548 8.2477C12.0933 7.92766 10.0759 5.90836 9.75604 3.34597L9.6605 2.57981C9.61965 2.24869 9.33788 2 9.00419 2C8.67049 2 8.38942 2.24869 8.34788 2.57981L8.25234 3.34597C7.93249 5.90905 5.9144 7.92766 3.35285 8.2477C3.05931 8.28441 2.79415 8.31766 2.57746 8.34468C2.24376 8.38694 1.99522 8.67303 2.00007 9.0097Z" fill="#0F1621"/>
<path d="M12 17.0069C12.0035 17.2425 12.1796 17.4389 12.413 17.4681L12.9668 17.5374C14.7985 17.7665 16.2375 19.2063 16.466 21.0386L16.5342 21.5858C16.5639 21.8224 16.7646 22 17.003 22C17.2413 22 17.4421 21.8224 17.4718 21.5858L17.54 21.0386C17.769 19.2058 19.208 17.766 21.0392 17.5374L21.5861 17.4691C21.8225 17.4394 22 17.2385 22 17C22 16.7615 21.8225 16.5606 21.5861 16.5309L21.0392 16.4626C19.2095 16.234 17.7685 14.7917 17.54 12.9614L17.4718 12.4142C17.4426 12.1776 17.2413 12 17.003 12C16.7646 12 16.5639 12.1776 16.5342 12.4142L16.466 12.9614C16.2375 14.7922 14.796 16.234 12.9663 16.4626C12.7566 16.4889 12.5673 16.5126 12.4125 16.5319C12.1741 16.5621 11.9966 16.7665 12 17.0069Z" fill="#0F1621"/>
</svg>
