<svg width="16" height="16" viewBox="0 0 16 16" fill="none" xmlns="http://www.w3.org/2000/svg">
<path d="M6 5.5C5.0335 5.5 4.25 6.2835 4.25 7.25V9.75C4.25 10.7165 5.0335 11.5 6 11.5C6.9665 11.5 7.75 10.7165 7.75 9.75V7.25C7.75 6.2835 6.9665 5.5 6 5.5Z" fill="#0F1621"/>
<path d="M3.25 9.5C3.25 11.0188 4.48122 12.25 6 12.25C7.51878 12.25 8.75 11.0188 8.75 9.5H9.75C9.75 11.4015 8.33468 12.9725 6.5 13.217V15H5.5V13.217C3.66532 12.9725 2.25 11.4015 2.25 9.5H3.25Z" fill="#0F1621"/>
<path d="M6.00003 4.00416C6.00211 4.14547 6.10773 4.26334 6.24778 4.28085L6.58009 4.32241C7.67908 4.45987 8.5425 5.3238 8.67957 6.42316L8.72052 6.75151C8.73832 6.89342 8.85878 7 9.0018 7C9.14481 7 9.26527 6.89342 9.28307 6.75151L9.32402 6.42316C9.46139 5.3235 10.3248 4.45957 11.4235 4.32241L11.7517 4.28144C11.8935 4.26363 12 4.1431 12 4C12 3.8569 11.8935 3.73637 11.7517 3.71856L11.4235 3.67759C10.3257 3.54043 9.46109 2.67501 9.32402 1.57684L9.28307 1.24849C9.26557 1.10658 9.14481 1 9.0018 1C8.85878 1 8.73832 1.10658 8.72052 1.24849L8.67957 1.57684C8.5425 2.67531 7.6776 3.54043 6.57979 3.67759C6.45399 3.69332 6.34035 3.70757 6.24748 3.71915C6.10447 3.73726 5.99795 3.85987 6.00003 4.00416Z" fill="#0F1621"/>
<path d="M10 8.00277C10.0014 8.09698 10.0718 8.17556 10.1652 8.18723L10.3867 8.21494C11.1194 8.30658 11.695 8.88253 11.7864 9.61544L11.8137 9.83434C11.8255 9.92895 11.9059 10 12.0012 10C12.0965 10 12.1768 9.92895 12.1887 9.83434L12.216 9.61544C12.3076 8.88234 12.8832 8.30638 13.6157 8.21494L13.8344 8.18763C13.929 8.17575 14 8.0954 14 8C14 7.9046 13.929 7.82425 13.8344 7.81237L13.6157 7.78506C12.8838 7.69362 12.3074 7.11667 12.216 6.38456L12.1887 6.16566C12.177 6.07105 12.0965 6 12.0012 6C11.9059 6 11.8255 6.07105 11.8137 6.16566L11.7864 6.38456C11.695 7.11687 11.1184 7.69362 10.3865 7.78506C10.3027 7.79555 10.2269 7.80505 10.165 7.81277C10.0696 7.82484 9.99864 7.90658 10 8.00277Z" fill="#0F1621"/>
</svg>
