<svg width="24" height="24" viewBox="0 0 24 24" fill="none" xmlns="http://www.w3.org/2000/svg">
<path d="M8.24833 3.37734C7.91723 5.91605 5.91886 7.91408 3.38124 8.24408C3.37179 8.24531 3.36232 8.24652 3.35285 8.2477L2.57746 8.34468C2.24376 8.38694 1.99522 8.67303 2.00007 9.0097C2.00492 9.33944 2.25138 9.61445 2.57815 9.65532L3.35354 9.7523C3.36278 9.75346 3.37202 9.75464 3.38124 9.75584C5.92191 10.0862 7.91723 12.0817 8.24834 14.6226C8.2497 14.6331 8.25103 14.6436 8.25234 14.654L8.34788 15.4202C8.38942 15.7513 8.67049 16 9.00419 16C9.33788 16 9.61896 15.7513 9.6605 15.4202L9.75604 14.654C9.75735 14.6436 9.75868 14.6331 9.76004 14.6227C10.0918 12.0811 12.087 10.0856 14.6269 9.75586C14.6362 9.75465 14.6455 9.75346 14.6548 9.7523L15.4205 9.6567C15.7515 9.61514 16 9.33389 16 9C16 8.66611 15.7515 8.38486 15.4205 8.3433L14.6548 8.2477C14.6455 8.24654 14.6362 8.24535 14.6269 8.24414C12.0891 7.91433 10.0912 5.91553 9.76004 3.37734C9.75868 3.36689 9.75735 3.35643 9.75604 3.34597L9.6605 2.57981C9.61965 2.24869 9.33788 2 9.00419 2C8.67049 2 8.38942 2.24869 8.34788 2.57981L8.25234 3.34597C8.25103 3.35643 8.2497 3.36689 8.24833 3.37734ZM17.7933 20.0487C18.2022 19.0176 19.0207 18.1989 20.0511 17.7902C20.2565 17.7088 20.4702 17.6436 20.6908 17.5963C20.7607 17.5813 20.8312 17.5681 20.9025 17.5568C20.9477 17.5496 20.9934 17.5431 21.0392 17.5374L21.5861 17.4691C21.8225 17.4394 22 17.2385 22 17C22 16.7615 21.8225 16.5606 21.5861 16.5309L21.0392 16.4626C20.9934 16.4569 20.9479 16.4504 20.9026 16.4432C20.8313 16.4318 20.7607 16.4186 20.6908 16.4036C20.4704 16.3563 20.2567 16.291 20.0515 16.2095C19.0214 15.8005 18.2024 14.981 17.7934 13.9505C17.7117 13.7448 17.6464 13.5306 17.599 13.3097C17.584 13.2397 17.5708 13.1691 17.5594 13.0979C17.5522 13.0527 17.5457 13.0071 17.54 12.9614L17.4718 12.4142C17.4426 12.1776 17.2413 12 17.003 12C16.7646 12 16.5639 12.1776 16.5342 12.4142L16.466 12.9614C16.4603 13.0071 16.4538 13.0526 16.4466 13.0978C16.4352 13.1689 16.422 13.2396 16.4071 13.3095C16.3597 13.5306 16.2943 13.7448 16.2127 13.9505C15.8036 14.9811 14.9843 15.8005 13.9541 16.2095C13.7474 16.2916 13.5321 16.3572 13.31 16.4046C13.2418 16.4192 13.1731 16.432 13.1037 16.4431C13.0581 16.4504 13.0124 16.4569 12.9663 16.4626L12.4125 16.5319C12.1741 16.5621 11.9966 16.7665 12 17.0069C12.0035 17.2425 12.1796 17.4389 12.413 17.4681L12.9668 17.5374C13.0125 17.5431 13.0579 17.5495 13.103 17.5567C13.1726 17.5678 13.2418 17.5807 13.3101 17.5953C13.5324 17.6427 13.7477 17.7082 13.9545 17.7902C14.9853 18.1989 15.804 19.0177 16.2128 20.0487C16.2944 20.2546 16.3597 20.469 16.4071 20.6903C16.4221 20.7602 16.4352 20.8308 16.4466 20.902C16.4538 20.9472 16.4603 20.9929 16.466 21.0386L16.5342 21.5858C16.5639 21.8224 16.7646 22 17.003 22C17.2413 22 17.4421 21.8224 17.4718 21.5858L17.54 21.0386C17.5457 20.9929 17.5522 20.9474 17.5594 20.9023C17.5708 20.8309 17.584 20.7603 17.5989 20.6903C17.6464 20.469 17.7117 20.2547 17.7933 20.0487ZM17.0031 18.3721C16.63 17.8375 16.165 17.3725 15.6304 16.9995C16.1649 16.6263 16.6299 16.1611 17.003 15.6265C17.376 16.1611 17.841 16.6263 18.3754 16.9995C17.8409 17.3725 17.376 17.8375 17.0031 18.3721ZM12.0852 8.99953C10.7635 9.67987 9.6847 10.7591 9.00429 12.081C8.32385 10.7591 7.24476 9.6799 5.9228 8.99954C7.24418 8.31871 8.32355 7.23902 9.00421 5.91728C9.68475 7.23883 10.7639 8.31863 12.0852 8.99953Z" fill="#0F1621"/>
</svg>
