<svg width="24" height="24" viewBox="0 0 24 24" fill="none" xmlns="http://www.w3.org/2000/svg">
<path fill-rule="evenodd" clip-rule="evenodd" d="M21.1901 6.64L18.3601 3.81L16.7801 5.39C15.6388 4.66252 14.3454 4.20744 13.0001 4.06V2H11.0001V4.06C9.6547 4.20744 8.36133 4.66252 7.22006 5.39L5.64006 3.81L2.81006 6.64L4.39006 8.22C3.47944 9.64776 2.99706 11.3066 3.00006 13C3.00006 15.3869 3.94827 17.6761 5.6361 19.364C7.32393 21.0518 9.61311 22 12.0001 22C14.387 22 16.6762 21.0518 18.364 19.364C20.0518 17.6761 21.0001 15.3869 21.0001 13C21.0031 11.3066 20.5207 9.64776 19.6101 8.22L21.1901 6.64ZM13.0001 14H11.0001V7H13.0001V14Z" fill="#0F1621"/>
</svg>
