<svg width="24" height="24" viewBox="0 0 24 24" fill="none" xmlns="http://www.w3.org/2000/svg">
<path d="M21.1901 6.64L18.3601 3.81L16.7801 5.39C15.6388 4.66252 14.3454 4.20744 13.0001 4.06V2H11.0001V4.06C9.6547 4.20744 8.36133 4.66252 7.22006 5.39L5.64006 3.81L2.81006 6.64L4.39006 8.22C3.47944 9.64776 2.99706 11.3066 3.00006 13C3.00006 15.3869 3.94827 17.6761 5.6361 19.364C7.32393 21.0518 9.61311 22 12.0001 22C14.387 22 16.6762 21.0518 18.364 19.364C20.0518 17.6761 21.0001 15.3869 21.0001 13C21.0031 11.3066 20.5207 9.64776 19.6101 8.22L21.1901 6.64ZM12.0001 20C10.6156 20 9.26221 19.5895 8.11107 18.8203C6.95992 18.0511 6.06272 16.9579 5.5329 15.6788C5.00309 14.3997 4.86446 12.9922 5.13456 11.6344C5.40466 10.2765 6.07134 9.02922 7.05031 8.05025C8.02928 7.07129 9.27656 6.4046 10.6344 6.1345C11.9923 5.86441 13.3998 6.00303 14.6788 6.53284C15.9579 7.06266 17.0512 7.95986 17.8203 9.11101C18.5895 10.2622 19.0001 11.6155 19.0001 13C19.0001 14.8565 18.2626 16.637 16.9498 17.9497C15.6371 19.2625 13.8566 20 12.0001 20ZM13.0001 14H11.0001V8H13.0001V14Z" fill="#0F1621"/>
</svg>
