<svg width="24" height="24" viewBox="0 0 24 24" fill="none" xmlns="http://www.w3.org/2000/svg">
<path d="M9.5 6H7.5V4.67C7.50263 3.96268 7.78478 3.28509 8.28493 2.78494C8.78509 2.28478 9.46268 2.00263 10.17 2H13.83C14.5373 2.00263 15.2149 2.28478 15.7151 2.78494C16.2152 3.28509 16.4974 3.96268 16.5 4.67V6H14.5V4H9.5V6ZM2 10C2 9.46957 2.21071 8.96086 2.58579 8.58579C2.96086 8.21071 3.46957 8 4 8H20C20.5304 8 21.0391 8.21071 21.4142 8.58579C21.7893 8.96086 22 9.46957 22 10V20C22 20.5304 21.7893 21.0391 21.4142 21.4142C21.0391 21.7893 20.5304 22 20 22H4C3.46957 22 2.96086 21.7893 2.58579 21.4142C2.21071 21.0391 2 20.5304 2 20V10Z" fill="#0F1621"/>
</svg>
