<svg width="16" height="16" viewBox="0 0 16 16" fill="none" xmlns="http://www.w3.org/2000/svg">
<path fill-rule="evenodd" clip-rule="evenodd" d="M6.00001 4.75001L2.50001 15H2.00001C1.7348 15 1.48044 14.8946 1.29291 14.7071C1.10537 14.5196 1.00001 14.2652 1.00001 14V13.36C0.999119 13.1247 1.03974 12.8912 1.12001 12.67L4.12001 4.55001C4.20393 4.3862 4.33143 4.24874 4.48846 4.15275C4.64549 4.05676 4.82597 4.00597 5.01001 4.00597C5.19406 4.00597 5.37454 4.05676 5.53157 4.15275C5.6886 4.24874 5.8161 4.3862 5.90001 4.55001L6.00001 4.75001ZM14.88 12.67L10.88 1.52001C10.7943 1.36125 10.6673 1.22864 10.5124 1.13621C10.3575 1.04378 10.1804 0.99498 10 0.99498C9.81962 0.99498 9.64258 1.04378 9.48765 1.13621C9.33273 1.22864 9.2057 1.36125 9.12001 1.52001L7.00001 7.50001L5.39001 11.91L5.00001 13L4.28001 15H14C14.2652 15 14.5196 14.8946 14.7071 14.7071C14.8947 14.5196 15 14.2652 15 14V13.35C14.9997 13.1181 14.9591 12.888 14.88 12.67Z" fill="#0F1621"/>
</svg>
