<svg width="24" height="24" viewBox="0 0 24 24" fill="none" xmlns="http://www.w3.org/2000/svg">
<path d="M21.92 19.56L15.92 2.64C15.8787 2.54029 15.825 2.44621 15.76 2.36L15.65 2.25C15.4703 2.09148 15.2397 2.00276 15 2C14.7986 2.0006 14.602 2.06201 14.4361 2.17621C14.2701 2.29041 14.1426 2.45206 14.07 2.64L7.29003 22H20.07C20.4383 21.9998 20.7994 21.8979 21.1135 21.7056C21.4276 21.5133 21.6825 21.238 21.85 20.91C21.9765 20.6243 22.0281 20.3111 22 20C21.9955 19.8502 21.9685 19.7018 21.92 19.56ZM10 20L15 6L20 20H10ZM4.00003 20H6.00003L5.30003 22H3.85003C3.58612 22.0002 3.32478 21.9482 3.08107 21.8469C2.83735 21.7457 2.61609 21.5972 2.43003 21.41C2.35813 21.338 2.2913 21.2612 2.23003 21.18C2.08474 20.9112 2.00867 20.6105 2.00867 20.305C2.00867 19.9995 2.08474 19.6988 2.23003 19.43L7.31003 6.59C7.38958 6.41541 7.51767 6.26739 7.67902 6.16359C7.84037 6.0598 8.02818 6.00461 8.22003 6.00461C8.41189 6.00461 8.59969 6.0598 8.76105 6.16359C8.9224 6.26739 9.05049 6.41541 9.13003 6.59L10 8.67L9.00003 11.67L8.23003 9.71L4.00003 20Z" fill="#0F1621"/>
</svg>
