<svg width="24" height="24" viewBox="0 0 24 24" fill="none" xmlns="http://www.w3.org/2000/svg">
<path d="M10.4057 11.388L10.2407 12.587H8.72274V19H7.17174V12.587H5.57674V11.388H10.4057Z" fill="#0F1621"/>
<path d="M12.5434 11.388V19H10.9814V11.388H12.5434Z" fill="#0F1621"/>
<path d="M13.71 19V11.388H17.494L17.329 12.521H15.272V14.743H17.065V15.876H15.272V19H13.71Z" fill="#0F1621"/>
<path d="M18.1465 19V11.388H21.9305L21.7655 12.521H19.7085V14.743H21.5015V15.876H19.7085V19H18.1465Z" fill="#0F1621"/>
<path fill-rule="evenodd" clip-rule="evenodd" d="M2 2H16L22 8V10H14V4H4V20H22C22 20.5304 21.7893 21.0391 21.4142 21.4142C21.0391 21.7893 20.5304 22 20 22H4C3.46957 22 2.96086 21.7893 2.58579 21.4142C2.21071 21.0391 2 20.5304 2 20V2ZM16 8H19.17L16 4.83V8Z" fill="#0F1621"/>
</svg>
