<svg width="16" height="16" viewBox="0 0 16 16" fill="none" xmlns="http://www.w3.org/2000/svg">
<path d="M10.83 8.88001C11.2019 8.50851 11.4969 8.06736 11.6982 7.58177C11.8995 7.09618 12.0031 6.57567 12.0031 6.05001C12.0031 5.52434 11.8995 5.00384 11.6982 4.51824C11.4969 4.03265 11.2019 3.5915 10.83 3.22001L10.12 3.93001C10.6818 4.49251 10.9974 5.255 10.9974 6.05001C10.9974 6.84501 10.6818 7.6075 10.12 8.17001L10.83 8.88001ZM13 11C13.6501 10.35 14.1658 9.57828 14.5176 8.72895C14.8694 7.87963 15.0505 6.96932 15.0505 6.05001C15.0505 5.13069 14.8694 4.22038 14.5176 3.37106C14.1658 2.52173 13.6501 1.75003 13 1.10001L12.29 1.81001C13.4136 2.93501 14.0447 4.46 14.0447 6.05001C14.0447 7.64001 13.4136 9.165 12.29 10.29L13 11ZM4 10C3.20435 10 2.44129 9.68394 1.87868 9.12133C1.31607 8.55872 1 7.79566 1 7.00001V5.00001C1 4.20436 1.31607 3.44129 1.87868 2.87869C2.44129 2.31608 3.20435 2.00001 4 2.00001C4.79565 2.00001 5.55871 2.31608 6.12132 2.87869C6.68393 3.44129 7 4.20436 7 5.00001V7.00001C7 7.79566 6.68393 8.55872 6.12132 9.12133C5.55871 9.68394 4.79565 10 4 10ZM10 15H1V11H8C8.53043 11 9.03914 11.2107 9.41421 11.5858C9.78929 11.9609 10 12.4696 10 13V15Z" fill="#0F1621"/>
</svg>
