<svg width="24" height="24" viewBox="0 0 24 24" fill="none" xmlns="http://www.w3.org/2000/svg">
<path d="M18 9.55C17.9992 8.64288 17.7927 7.74776 17.396 6.93196C16.9994 6.11615 16.4229 5.4009 15.71 4.84L14.28 6.27C14.8081 6.63863 15.2394 7.12933 15.5372 7.70038C15.835 8.27143 15.9905 8.90596 15.9905 9.55C15.9905 10.194 15.835 10.8286 15.5372 11.3996C15.2394 11.9707 14.8081 12.4614 14.28 12.83L15.71 14.26C16.4229 13.6991 16.9994 12.9838 17.396 12.168C17.7927 11.3522 17.9992 10.4571 18 9.55ZM22 9.55C21.9991 8.11789 21.6906 6.70268 21.0954 5.40012C20.5002 4.09755 19.6321 2.93803 18.55 2L17.13 3.42C18.0255 4.17089 18.7455 5.10884 19.2396 6.16789C19.7336 7.22695 19.9897 8.38138 19.9897 9.55C19.9897 10.7186 19.7336 11.8731 19.2396 12.9321C18.7455 13.9912 18.0255 14.9291 17.13 15.68L18.55 17.1C19.6321 16.162 20.5002 15.0024 21.0954 13.6999C21.6906 12.3973 21.9991 10.9821 22 9.55ZM6 14C4.93913 14 3.92172 13.5786 3.17157 12.8284C2.42143 12.0783 2 11.0609 2 10V7C2 5.93913 2.42143 4.92172 3.17157 4.17157C3.92172 3.42143 4.93913 3 6 3C7.06087 3 8.07828 3.42143 8.82843 4.17157C9.57857 4.92172 10 5.93913 10 7V10C10 11.0609 9.57857 12.0783 8.82843 12.8284C8.07828 13.5786 7.06087 14 6 14ZM14 22H2V16H11C11.7956 16 12.5587 16.3161 13.1213 16.8787C13.6839 17.4413 14 18.2044 14 19V22Z" fill="#0F1621"/>
</svg>
