<svg width="24" height="24" viewBox="0 0 24 24" fill="none" xmlns="http://www.w3.org/2000/svg">
<path d="M18 9.55C17.9992 8.64288 17.7927 7.74776 17.396 6.93196C16.9994 6.11615 16.4229 5.4009 15.71 4.84L14.28 6.27C14.8081 6.63863 15.2394 7.12933 15.5372 7.70038C15.835 8.27143 15.9905 8.90596 15.9905 9.55C15.9905 10.194 15.835 10.8286 15.5372 11.3996C15.2394 11.9707 14.8081 12.4614 14.28 12.83L15.71 14.26C16.4229 13.6991 16.9994 12.9838 17.396 12.168C17.7927 11.3522 17.9992 10.4571 18 9.55ZM22 9.55C21.9991 8.11789 21.6906 6.70268 21.0954 5.40012C20.5002 4.09755 19.6321 2.93803 18.55 2L17.13 3.42C18.0255 4.17089 18.7455 5.10884 19.2396 6.16789C19.7336 7.22695 19.9897 8.38138 19.9897 9.55C19.9897 10.7186 19.7336 11.8731 19.2396 12.9321C18.7455 13.9912 18.0255 14.9291 17.13 15.68L18.55 17.1C19.6321 16.162 20.5002 15.0024 21.0954 13.6999C21.6906 12.3973 21.9991 10.9821 22 9.55ZM6 5C6.53043 5 7.03914 5.21071 7.41421 5.58579C7.78929 5.96086 8 6.46957 8 7V10C8 10.5304 7.78929 11.0391 7.41421 11.4142C7.03914 11.7893 6.53043 12 6 12C5.46957 12 4.96086 11.7893 4.58579 11.4142C4.21071 11.0391 4 10.5304 4 10V7C4 6.46957 4.21071 5.96086 4.58579 5.58579C4.96086 5.21071 5.46957 5 6 5ZM6 3C4.93913 3 3.92172 3.42143 3.17157 4.17157C2.42143 4.92172 2 5.93913 2 7V10C2 11.0609 2.42143 12.0783 3.17157 12.8284C3.92172 13.5786 4.93913 14 6 14C7.06087 14 8.07828 13.5786 8.82843 12.8284C9.57857 12.0783 10 11.0609 10 10V7C10 5.93913 9.57857 4.92172 8.82843 4.17157C8.07828 3.42143 7.06087 3 6 3ZM11 16H2V18H11C11.2652 18 11.5196 18.1054 11.7071 18.2929C11.8946 18.4804 12 18.7348 12 19V22H14V19C14 18.2044 13.6839 17.4413 13.1213 16.8787C12.5587 16.3161 11.7956 16 11 16Z" fill="#0F1621"/>
</svg>
