<svg width="16" height="16" viewBox="0 0 16 16" fill="none" xmlns="http://www.w3.org/2000/svg">
<path d="M14 13L12.7 13.7L11.4 11H8.10001C7.00001 11 6.10001 10.1 6.10001 9V7V6.89999L4.60001 8.09998V10H3V8.29999C3 7.69999 3.3 7.09998 3.8 6.69998L6 5H8C8.6 5 9 5.4 9 6V9H12L14 13ZM8.5 13.5C6.8 13.5 5.4 12.5 4.8 11H3.2C3.9 13.3 6 15 8.5 15C9.6 15 10.6 14.7 11.4 14.1L10.6 12.8C10 13.2 9.3 13.5 8.5 13.5ZM7.5 1C6.7 1 6 1.7 6 2.5C6 3.3 6.7 4 7.5 4C8.3 4 9 3.3 9 2.5C9 1.7 8.3 1 7.5 1Z" fill="black"/>
</svg>
