<svg width="24" height="24" viewBox="0 0 24 24" fill="none" xmlns="http://www.w3.org/2000/svg">
<path d="M11 7C9.9 7 9 6.1 9 5V4C9 2.9 9.9 2 11 2C12.1 2 13 2.9 13 4V5C13 6.1 12.1 7 11 7ZM15.4 18.7C15.2 18.9 14.9 19.1 14.6 19.3C12.2 20.7 9.20001 20 7.70001 17.7C7.40001 17.2 7.20001 16.6 7.10001 16.1H5.10001C5.20001 17 5.50001 17.9 6.10001 18.8C8.10001 22.1 12.4 23.1 15.7 21.1C15.9 21 16.1 20.9 16.3 20.7L15.4 18.7ZM17 13H13V11C13 9.9 12.1 9 11 9H9.39999C9.09999 9 8.90001 9.09998 8.70001 9.19998L5.39999 11.7C5.19999 11.9 5 12.2 5 12.5V14H7V13L9 12V15C9 15.6 9.4 16 10 16H16L18 20L20 19L17 13Z" fill="black"/>
</svg>
