<svg width="16" height="16" viewBox="0 0 16 16" fill="none" xmlns="http://www.w3.org/2000/svg">
<path d="M14.0001 13L12.7001 13.7L11.4001 11H8.1001C7.0001 11 6.1001 10.1 6.1001 9V7V6.90001L4.6001 8.10001V10H3.1001V8.3C3.1001 7.7 3.4001 7.10001 3.9001 6.70001L6.1001 5H8.1001C8.7001 5 9.1001 5.4 9.1001 6V9H12.1001L14.0001 13ZM8.50011 13.5C6.80011 13.5 5.40011 12.5 4.80011 11H3.2001C3.9001 13.3 6.00011 15 8.50011 15C9.60011 15 10.6001 14.7 11.4001 14.1L10.6001 12.8C10.0001 13.2 9.30011 13.5 8.50011 13.5ZM7.50011 1C6.70011 1 6.00011 1.7 6.00011 2.5C6.00011 3.3 6.70011 4 7.50011 4C8.30011 4 9.00011 3.3 9.00011 2.5C9.00011 1.6 8.30011 1 7.50011 1Z" fill="black"/>
</svg>
