<svg width="24" height="24" viewBox="0 0 24 24" fill="none" xmlns="http://www.w3.org/2000/svg">
<path d="M11 7C9.9 7 9 6.1 9 5V4C9 2.9 9.9 2 11 2C12.1 2 13 2.9 13 4V5C13 6.1 12.1 7 11 7ZM15.3 18.6C15.1 18.8 14.8 19 14.5 19.2C12.1 20.6 9.10001 19.9 7.60001 17.6C7.30001 17.1 7.1 16.5 7 16H5C5.1 16.9 5.4 17.8 6 18.7C8 22 12.3 23 15.6 21C15.8 20.9 16 20.8 16.2 20.6L15.3 18.6ZM17 13H13V11C13 9.9 12.1 9 11 9H9.40002C9.10002 9 8.90001 9.10001 8.70001 9.20001L5.40002 11.7C5.20002 11.9 5 12.2 5 12.5V14H7V13L9 12V15C9 15.6 9.4 16 10 16H16L18 20L20 19L17 13Z" fill="black"/>
</svg>
