<svg width="24" height="24" viewBox="0 0 24 24" fill="none" xmlns="http://www.w3.org/2000/svg">
<path d="M12 2C11.1716 2 10.5 2.67157 10.5 3.5V4.5C10.5 5.32843 11.1716 6 12 6C12.8284 6 13.5 5.32843 13.5 4.5V3.5C13.5 2.67157 12.8284 2 12 2Z" fill="#0E1520"/>
<path d="M14.5262 8.92953C14.2155 7.79032 13.1808 7 12 7C10.8192 7 9.78446 7.79032 9.47377 8.92953L7 18H9.99997L10 21.5C10 21.7761 10.2239 22 10.5 22H13.5C13.7761 22 14 21.7761 14 21.5V18H17L14.5262 8.92953ZM14.3815 16H9.6185L11.4033 9.45576C11.4767 9.18668 11.7211 9 12 9C12.2789 9 12.5233 9.18668 12.5967 9.45576L14.3815 16Z" fill="#0E1520"/>
</svg>
