<svg width="24" height="24" viewBox="0 0 24 24" fill="none" xmlns="http://www.w3.org/2000/svg">
<path d="M13.6122 11.388V12.576L10.7742 17.746H13.6562L13.5022 19H9.09124V17.823L11.9292 12.609H9.36624V11.388H13.6122Z" fill="#0F1621"/>
<path d="M15.9809 11.388V19H14.4189V11.388H15.9809Z" fill="#0F1621"/>
<path d="M18.9845 11.388C19.9231 11.388 20.6345 11.597 21.1185 12.015C21.6098 12.4257 21.8555 13.0307 21.8555 13.83C21.8555 14.6733 21.6171 15.3077 21.1405 15.733C20.6638 16.1583 19.9928 16.371 19.1275 16.371H18.7095V19H17.1475V11.388H18.9845ZM19.0175 15.238C19.4575 15.238 19.7728 15.1317 19.9635 14.919C20.1615 14.7063 20.2605 14.347 20.2605 13.841C20.2605 13.379 20.1651 13.0417 19.9745 12.829C19.7838 12.6163 19.4721 12.51 19.0395 12.51H18.7095V15.238H19.0175Z" fill="#0F1621"/>
<path fill-rule="evenodd" clip-rule="evenodd" d="M2 2H16L22 8V10H14V4H4V20H22C22 20.5304 21.7893 21.0391 21.4142 21.4142C21.0391 21.7893 20.5304 22 20 22H4C3.46957 22 2.96086 21.7893 2.58579 21.4142C2.21071 21.0391 2 20.5304 2 20V2ZM16 8H19.17L16 4.83V8Z" fill="#0F1621"/>
</svg>
