<?xml version="1.0" encoding="iso-8859-1"?>
<!-- Generator: Adobe Illustrator 24.1.2, SVG Export Plug-In . SVG Version: 6.00 Build 0)  -->
<svg version="1.1" id="_x32_00-2000-0017_x5F_video-arcade-game-room-layer"
	 xmlns="http://www.w3.org/2000/svg" xmlns:xlink="http://www.w3.org/1999/xlink" x="0px" y="0px" viewBox="0 0 24 24"
	 style="enable-background:new 0 0 24 24;" xml:space="preserve">
<g id="_x32_00-2000-0017_x5F_video-arcade-game-room_1_">
	<rect style="fill:none;" width="24" height="24"/>
	<path d="M4,22H2v-2h2V22z M8,20H6v2h2V20z M6,18H4v2h2V18z M20,18h-2v2h2V18z M18,16h-2v2h2V16z M8,16H6v2h2V16z M4,10H2v4h2V10z
		 M6,16v-2H4v2H6z M10,16v-2H8v2H10z M16,16v-2h-2v2H16z M20,16v-2h-2v2H20z M22,10h-2v4h2V10z M6,8H4v2h2V8z M8,6H6v2h2V6z M10,4H8
		v2h2V4z M16,4h-2v2h2V4z M18,6h-2v2h2V6z M20,8h-2v2h2V8z M14,2h-4v2h4V2z M22,20h-2v2h2V20z M18,20h-2v2h2V20z M10,18H8v2h2V18z
		 M14,16h-4v2h4V16z M16,18h-2v2h2V18z M10,10H8v2h2V10z M16,10h-2v2h2V10z"/>
</g>
</svg>
