<?xml version="1.0" encoding="iso-8859-1"?>
<!-- Generator: Adobe Illustrator 24.1.2, SVG Export Plug-In . SVG Version: 6.00 Build 0)  -->
<svg version="1.1" id="_x32_00-2100-0019_x5F_cinema-layer"
	 xmlns="http://www.w3.org/2000/svg" xmlns:xlink="http://www.w3.org/1999/xlink" x="0px" y="0px" viewBox="0 0 24 24"
	 style="enable-background:new 0 0 24 24;" xml:space="preserve">
<g id="_x32_00-2100-0019_x5F_cinema_1_">
	<rect style="fill:none;" width="24" height="24"/>
	<path d="M14,2c-2.49,0-4.5,2.01-4.5,4.5c0,0.92,0.28,1.78,0.76,2.5H7.82C7.94,8.69,8,8.35,8,8c0-1.66-1.34-3-3-3C3.34,5,2,6.34,2,8
		s1.34,3,3,3h9c2.49,0,4.5-2.01,4.5-4.5S16.49,2,14,2z M4,8c0-0.55,0.45-1,1-1s1,0.45,1,1S5.55,9,5,9S4,8.55,4,8z M14,9
		c-1.38,0-2.5-1.12-2.5-2.5S12.62,4,14,4s2.5,1.12,2.5,2.5S15.38,9,14,9z M15,15v0.33v0.608v3.732V20H5v-5H15 M20,16v3h-0.396
		l-1.497-0.996L17.349,17.5l0.759-0.504L19.604,16H20 M17,13H5c-1.1,0-2,0.9-2,2v5c0,1.1,0.9,2,2,2h12v-2.33L19,21h3v-7h-3l-2,1.33
		V13L17,13z"/>
</g>
</svg>
