<?xml version="1.0" encoding="iso-8859-1"?>
<!-- Generator: Adobe Illustrator 24.1.2, SVG Export Plug-In . SVG Version: 6.00 Build 0)  -->
<svg version="1.1" id="_x32_00-2000-0016_x5F_billiards-pool-hall-layer"
	 xmlns="http://www.w3.org/2000/svg" xmlns:xlink="http://www.w3.org/1999/xlink" x="0px" y="0px" viewBox="0 0 24 24"
	 style="enable-background:new 0 0 24 24;" xml:space="preserve">
<g id="_x32_00-2000-0016_x5F_billiards-pool-hall_3_">
	<rect style="fill:none;" width="24" height="24"/>
	<path d="M12.001,4c4.411,0,7.999,3.589,7.999,8c0,4.411-3.589,8-7.999,8c-4.412,0-8.001-3.589-8.001-8C4.001,7.589,7.59,4,12.001,4
		 M12.001,2C6.487,2,2.001,6.485,2.001,12c0,5.513,4.487,10,10.001,10c5.513,0,9.999-4.488,9.999-10C22.001,6.485,17.515,2,12.001,2
		L12.001,2z M13.001,7h-2c-1.105,0-2,0.895-2,2v2l1,1l-1,1v2c0,1.105,0.895,2,2,2h2c1.105,0,2-0.895,2-2v-2l-1-1l1-1V9
		C15.001,7.895,14.105,7,13.001,7z M11.001,11V9h2v2H11.001z M13.001,13v2h-2v-2H13.001z"/>
</g>
</svg>
