<?xml version="1.0" encoding="iso-8859-1"?>
<!-- Generator: Adobe Illustrator 24.1.2, SVG Export Plug-In . SVG Version: 6.00 Build 0)  -->
<svg version="1.1" id="_x32_00-2200-0000_x5F_theatre-music-culture-layer"
	 xmlns="http://www.w3.org/2000/svg" xmlns:xlink="http://www.w3.org/1999/xlink" x="0px" y="0px" viewBox="0 0 24 24"
	 style="enable-background:new 0 0 24 24;" xml:space="preserve">
<g id="_x32_00-2200-0000_x5F_theatre-music-culture_1_">
	<rect style="fill:none;" width="24" height="24"/>
	<path d="M20,4v9c0,1.873-0.728,3.628-2.059,4.95C16.628,19.272,14.873,20,13,20h-2c-3.86,0-7-3.14-7-7V4H20 M22,2H2v11
		c0,4.97,4.03,9,9,9h2c2.48,0,4.74-1.01,6.36-2.64C20.99,17.74,22,15.48,22,13V2L22,2z M16,7c-1.105,0-2,0.936-2,2.091
		c0,2.091,0.895-0.077,2-0.077s2,2.168,2,0.077C18,7.936,17.105,7,16,7z M8,7C6.895,7,6,7.936,6,9.091c0,2.091,0.895-0.077,2-0.077
		s2,2.168,2,0.077C10,7.936,9.105,7,8,7z M6,13c0,3.31,2.69,5,6,5s6-1.69,6-5H6z"/>
</g>
</svg>
