<?xml version="1.0" encoding="iso-8859-1"?>
<!-- Generator: Adobe Illustrator 24.1.2, SVG Export Plug-In . SVG Version: 6.00 Build 0)  -->
<svg version="1.1" id="_x32_00-2000-0019_x5F_beer-garden-layer"
	 xmlns="http://www.w3.org/2000/svg" xmlns:xlink="http://www.w3.org/1999/xlink" x="0px" y="0px" viewBox="0 0 24 24"
	 style="enable-background:new 0 0 24 24;" xml:space="preserve">
<g id="_x32_00-2000-0019_x5F_beer-garden_1_">
	<rect style="fill:none;" width="24" height="24"/>
	<path d="M10,12v6h2v-6H10z M6,18h2v-6H6V18z M19,8H2v12c0,1.1,0.9,2,2,2h10c1.1,0,2-0.9,2-2v-2h3c1.1,0,2-0.9,2-2v-6
		C21,8.9,20.1,8,19,8z M14,20H4V10h10V20z M19,16h-3v-6h3V16z M12,12h-2v6h2V12z M8,12H6v6h2V12z M10,12v6h2v-6H10z M14,4h-1
		c0-1.1-0.9-2-2-2H6C4.9,2,4,2.9,4,4C2.9,4,2,4.9,2,6h4V5c0-0.552,0.448-1,1-1h3c0.552,0,1,0.448,1,1v1h5C16,4.9,15.1,4,14,4z"/>
</g>
</svg>
