<?xml version="1.0" encoding="iso-8859-1"?>
<!-- Generator: Adobe Illustrator 24.1.2, SVG Export Plug-In . SVG Version: 6.00 Build 0)  -->
<svg version="1.1" id="_x32_00-2300-0000_x5F_gambling-lottery-betting-layer"
	 xmlns="http://www.w3.org/2000/svg" xmlns:xlink="http://www.w3.org/1999/xlink" x="0px" y="0px" viewBox="0 0 24 24"
	 style="enable-background:new 0 0 24 24;" xml:space="preserve">
<g id="_x32_00-2300-0000_x5F_gambling-lottery-betting_1_">
	<rect style="fill:none;" width="24" height="24"/>
	<path d="M20,4v16H4V4H20 M20,2H4C2.896,2,2,2.895,2,4v16c0,1.105,0.896,2,2,2h16c1.104,0,2-0.895,2-2V4C22,2.895,21.104,2,20,2
		L20,2z M12,10c-1.105,0-2,0.895-2,2s0.895,2,2,2s2-0.895,2-2S13.105,10,12,10z M8,14c-1.105,0-2,0.895-2,2s0.895,2,2,2s2-0.895,2-2
		S9.105,14,8,14z M16,6c-1.105,0-2,0.895-2,2s0.895,2,2,2s2-0.895,2-2S17.105,6,16,6z"/>
</g>
</svg>
