<?xml version="1.0" encoding="iso-8859-1"?>
<!-- Generator: Adobe Illustrator 24.1.2, SVG Export Plug-In . SVG Version: 6.00 Build 0)  -->
<svg version="1.1" id="_x32_00-2000-0014_x5F_karaoke-layer"
	 xmlns="http://www.w3.org/2000/svg" xmlns:xlink="http://www.w3.org/1999/xlink" x="0px" y="0px" viewBox="0 0 24 24"
	 style="enable-background:new 0 0 24 24;" xml:space="preserve">
<g id="_x32_00-2000-0014_x5F_karaoke_1_">
	<rect style="fill:none;" width="24" height="24"/>
	<path d="M11.344,11.242l1.414,1.414l-5.657,5.657L6.229,17.44l-0.541-0.542L11.344,11.242L11.344,11.242z M11.344,8.414
		l-7.071,7.071c-0.781,0.781-0.781,2.047,0,2.829l-1.981,1.981c-0.389,0.389-0.389,1.025,0,1.415C2.486,21.903,2.743,22,2.999,22
		c0.256,0,0.513-0.097,0.707-0.292l1.981-1.981c0.391,0.391,0.902,0.586,1.414,0.586s1.024-0.195,1.414-0.586l7.071-7.071
		L11.344,8.414L11.344,8.414z M17.001,4c0.802,0,1.555,0.312,2.122,0.878C19.688,5.444,20,6.197,20,6.999
		c0,0.802-0.312,1.555-0.878,2.121c-0.246,0.247-0.525,0.444-0.826,0.589l-4.006-4.005c0.145-0.301,0.343-0.58,0.589-0.826
		C15.446,4.312,16.199,4,17.001,4 M17.001,2c-1.28,0-2.56,0.488-3.535,1.464c-0.799,0.799-1.273,1.796-1.414,2.828l5.657,5.657
		c1.032-0.141,2.03-0.615,2.828-1.414c1.951-1.951,1.952-5.12,0-7.071C19.561,2.488,18.281,2,17.001,2L17.001,2z M10.637,13.363
		c-0.391-0.391-1.024-0.391-1.414,0c-0.391,0.391-0.391,1.024,0,1.414s1.024,0.391,1.414,0
		C11.027,14.387,11.027,13.754,10.637,13.363z"/>
</g>
</svg>
