<svg xmlns="http://www.w3.org/2000/svg" width="80" height="80" viewBox="0 0 80 80">
  <path d="M56,27.16 L56,23.16 C56,20.950861 54.209139,19.16 52,19.16 L28,19.16 C25.790861,19.16 24,20.950861 24,23.16 L24,27.16 L20,27.16 L20,35.16 L24,35.16 L24,55.16 C24,57.369139 25.790861,59.16 28,59.16 L34,59.16 C35.1045695,59.16 36,58.2645695 36,57.16 L36,55.16 L44,55.16 L44,57.16 C44,58.2645695 44.8954305,59.16 46,59.16 L52,59.16 C54.209139,59.16 56,57.369139 56,55.16 L56,35.16 L60,35.16 L60,27.16 L56,27.16 Z M36,51.16 L28,51.16 L28,47.16 L36,47.16 L36,51.16 Z M52,51.16 L44,51.16 L44,47.16 L52,47.16 L52,51.16 Z M52,43.16 L28,43.16 L28,31.16 L52,31.16 L52,43.16 Z M52,27.16 L28,27.16 L28,23.16 L52,23.16 L52,27.16 Z"/>
</svg>
