<svg xmlns="http://www.w3.org/2000/svg" width="80" height="80" viewBox="0 0 80 80">
  <path d="M24,2.78 C23.323346,1.42234194 21.9369364,0.564264554 20.42,0.564264554 C18.9030636,0.564264554 17.516654,1.42234194 16.84,2.78 L0.84,34.78 C0.21842333,36.0229982 0.286571433,37.4995405 1.02,38.68 C1.75246182,39.8519418 3.03799412,40.5627655 4.42,40.560008 L36.42,40.560008 C37.8041727,40.5592657 39.0895909,39.8429695 39.818437,38.6662291 C40.5472831,37.4894888 40.6159571,36.019569 40,34.78 L24,2.78 Z M22.42,32.56 L18.42,32.56 L18.42,28.56 L22.42,28.56 L22.42,32.56 Z M22.42,24.56 L18.42,24.56 L18.42,14.56 L22.42,14.56 L22.42,24.56 Z" transform="translate(20 20)"/>
</svg>
