<?xml version="1.0" encoding="iso-8859-1"?>
<!-- Generator: Adobe Illustrator 24.1.2, SVG Export Plug-In . SVG Version: 6.00 Build 0)  -->
<svg version="1.1" id="airport-layer" xmlns="http://www.w3.org/2000/svg" xmlns:xlink="http://www.w3.org/1999/xlink" x="0px"
	 y="0px" viewBox="0 0 24 24" style="enable-background:new 0 0 24 24;" xml:space="preserve">
<g id="airport_1_">
	<rect style="fill:none;" width="24" height="24"/>
	<path d="M6.473,5.568l2.398,0.765L8.109,7.145L6.473,5.568 M5,3L3,5l5.18,4.99l4.32-4.6L5,3L5,3z M20.408,3.867
		c-0.091,0.954-0.504,2.332-0.843,2.74l-2,2.06l-0.753,0.775l0.236,1.054l1.41,6.305l-2.831-3.964l-1.19-1.666L12.8,12.4l-4,3
		l-0.07,0.053L8.7,15.3l-0.153-0.03c3.202-3.602,8.168-9.156,8.867-9.856C17.842,4.987,19.348,4.188,20.408,3.867 M21.141,1.728
		C19.582,1.728,16.809,3.191,16,4c-1,1-9,10-9,10l-3.586,0.586L2,16l5,1l1,5l1.414-1.414L10,17l4-3l5,7l2-2l-2-8.94L21,8
		c1-1,2-5,1-6C21.809,1.809,21.509,1.728,21.141,1.728L21.141,1.728z"/>
</g>
</svg>
