<?xml version="1.0" encoding="iso-8859-1"?>
<!-- Generator: Adobe Illustrator 24.1.2, SVG Export Plug-In . SVG Version: 6.00 Build 0)  -->
<svg version="1.1" id="bank-layer" xmlns="http://www.w3.org/2000/svg" xmlns:xlink="http://www.w3.org/1999/xlink" x="0px" y="0px"
	 viewBox="0 0 24 24" style="enable-background:new 0 0 24 24;" xml:space="preserve">
<g id="bank_1_">
	<rect style="fill-rule:evenodd;clip-rule:evenodd;fill:none;" width="24" height="24"/>
	<path d="M22,8H2V6h20V8z M22,2H2v2h20V2z M6,12v-2H2v12h4v-2H4v-8H6z M18,10v2h2v8h-2v2h4V10H18z M10,12H8l-2.5,2.5l1.41,1.41
		L8,14.82V20h2V12z M18,13v6c0,0.55-0.45,1-1,1h-4c-0.55,0-1-0.45-1-1v-6c0-0.55,0.45-1,1-1h4C17.55,12,18,12.45,18,13z M16,14h-2v4
		h2V14z"/>
</g>
</svg>
