<?xml version="1.0" encoding="iso-8859-1"?>
<!-- Generator: Adobe Illustrator 24.1.2, SVG Export Plug-In . SVG Version: 6.00 Build 0)  -->
<svg version="1.1" id="bar-pub-layer" xmlns="http://www.w3.org/2000/svg" xmlns:xlink="http://www.w3.org/1999/xlink" x="0px"
	 y="0px" viewBox="0 0 24 24" style="enable-background:new 0 0 24 24;" xml:space="preserve">
<g id="bar-pub_1_">
	<rect style="fill:none;" width="24" height="24"/>
	<path d="M10.99,5L8,2L6.59,3.41L8.18,5H4l7.29,7.71c0.39,0.39,1.03,0.39,1.42,0L20,5H10.99z M12,10.17L8.83,7h6.34L12,10.17z
		 M16,22H8c0-1.1,0.9-2,2-2h1v-5c0.31,0.12,0.65,0.18,1,0.18s0.69-0.06,1-0.18v5h1C15.1,20,16,20.9,16,22z"/>
</g>
</svg>
