<?xml version="1.0" encoding="iso-8859-1"?>
<!-- Generator: Adobe Illustrator 24.1.2, SVG Export Plug-In . SVG Version: 6.00 Build 0)  -->
<svg version="1.1" id="border-crossing-layer" xmlns="http://www.w3.org/2000/svg" xmlns:xlink="http://www.w3.org/1999/xlink"
	 x="0px" y="0px" viewBox="0 0 24 24" style="enable-background:new 0 0 24 24;" xml:space="preserve">
<g id="border-crossing_1_">
	<rect style="fill:none;" width="24" height="24"/>
	<path d="M8.172,15L6,17.172V17c0-0.469,0.113-2,1.56-2H8.172 M13,13H7.56C5.47,13,4,14.62,4,17v5L13,13L13,13z M16.778,15.05
		C17.464,15.256,17.996,16.068,18,17v3h-6.172L16.778,15.05 M16.44,13H16l-9,9h13v-5C19.99,14.79,18.4,13,16.44,13L16.44,13z M12,11
		c1.77,0,3.24-1.31,3.47-3H8.53C8.76,9.69,10.23,11,12,11z M8,2v2L6,6h10V2H8z"/>
</g>
</svg>
