<?xml version="1.0" encoding="iso-8859-1"?>
<!-- Generator: Adobe Illustrator 24.1.2, SVG Export Plug-In . SVG Version: 6.00 Build 0)  -->
<svg version="1.1" id="bus-station-layer" xmlns="http://www.w3.org/2000/svg" xmlns:xlink="http://www.w3.org/1999/xlink" x="0px"
	 y="0px" viewBox="0 0 24 24" style="enable-background:new 0 0 24 24;" xml:space="preserve">
<g id="bus-station_1_">
	<rect style="fill:none;" width="24" height="24"/>
	<path d="M20,6V4c0-1.1-0.9-2-2-2H6C4.9,2,4,2.9,4,4v2H2v4h2v10c0,1.1,0.9,2,2,2h3c0.55,0,1-0.45,1-1v-1h4v1c0,0.55,0.45,1,1,1h3
		c0.55,0,1.05-0.22,1.41-0.59C19.78,21.05,20,20.55,20,20V10h2V6H20z M18,20h-2v-2H8v2H6V8h12V20z M18,6H6V4h12V6z M16,16H8v-2h8V16
		z"/>
</g>
</svg>
