<?xml version="1.0" encoding="iso-8859-1"?>
<!-- Generator: Adobe Illustrator 24.1.2, SVG Export Plug-In . SVG Version: 6.00 Build 0)  -->
<svg version="1.1" id="business-service-layer" xmlns="http://www.w3.org/2000/svg" xmlns:xlink="http://www.w3.org/1999/xlink"
	 x="0px" y="0px" viewBox="0 0 24 24" style="enable-background:new 0 0 24 24;" xml:space="preserve">
<g id="business-service_1_">
	<rect style="fill:none;" width="24" height="24"/>
	<path d="M20,4v16h-2v-2v-2h-2h-2h-2v2v2h-2V4H20 M22,2H8v18H4v-2h2v-2H4v-2h2v-2H4v-2h2V8H4c-1.104,0-2,0.896-2,2v12h12v-4h2v4h6V2
		L22,2z M14,6h-2v3h2V6z M18,6h-2v3h2V6z M14,11h-2v3h2V11z M18,11h-2v3h2V11z"/>
</g>
</svg>
