<?xml version="1.0" encoding="iso-8859-1"?>
<!-- Generator: Adobe Illustrator 24.1.2, SVG Export Plug-In . SVG Version: 6.00 Build 0)  -->
<svg version="1.1" id="car-repair-service-layer" xmlns="http://www.w3.org/2000/svg" xmlns:xlink="http://www.w3.org/1999/xlink"
	 x="0px" y="0px" viewBox="0 0 24 24" style="enable-background:new 0 0 24 24;" xml:space="preserve">
<g id="car-repair-service_1_">
	<rect style="fill:none;" width="24" height="24"/>
	<path d="M18,5.5h1c-0.47,1.08-1.68,1.77-3.01,1.4C15.47,6.76,15.02,6.43,14.7,6H5C4.45,6,4,5.55,4,5V4c0-0.55,0.45-1,1-1h9.71
		c0.46-0.61,1.18-1,2-1c1.03,0,1.91,0.62,2.29,1.5h-1c-0.55,0-1,0.45-1,1S17.45,5.5,18,5.5z M22,13h-1.1l0.77,1.06
		c0.22,0.29,0.33,0.64,0.33,1V20c0,0.55-0.22,1.05-0.59,1.41C21.05,21.78,20.55,22,20,22h-3c-0.55,0-1-0.45-1-1v-1H8v1
		c0,0.55-0.45,1-1,1H4c-1.1,0-2-0.9-2-2v-4.94c0-0.36,0.11-0.71,0.33-1L3.1,13H2v-2h2.55l0.86-1.18C5.78,9.31,6.4,9,7.07,9h9.86
		c0.67,0,1.29,0.31,1.66,0.82L19.45,11H22V13z M20,15.16l-0.71-0.98L16.96,11H7.04l-2.33,3.18L4,15.16V20h2v-2h12v2h2V15.16z
		 M16.5,14h-9L6,16h12L16.5,14z"/>
</g>
</svg>
