<?xml version="1.0" encoding="iso-8859-1"?>
<!-- Generator: Adobe Illustrator 24.1.2, SVG Export Plug-In . SVG Version: 6.00 Build 0)  -->
<svg version="1.1" id="car-sales-layer" xmlns="http://www.w3.org/2000/svg" xmlns:xlink="http://www.w3.org/1999/xlink" x="0px"
	 y="0px" viewBox="0 0 24 24" style="enable-background:new 0 0 24 24;" xml:space="preserve">
<g id="car-sales_1_">
	<rect style="fill:none;" width="24" height="24"/>
	<path d="M22,11h-2.55l-0.86-1.18C18.23,9.33,17.64,9.02,17,9v2.05l2.29,3.13L20,15.16V20h-2v-2H6v2H4v-4.84l0.71-0.98L7,11.05V9
		C6.36,9.02,5.77,9.33,5.41,9.82L4.55,11H2v2h1.1l-0.77,1.06C2.11,14.35,2,14.7,2,15.06V20c0,1.1,0.9,2,2,2h3c0.55,0,1-0.45,1-1v-1
		h8v1c0,0.55,0.45,1,1,1h3c0.55,0,1.05-0.22,1.41-0.59C21.78,21.05,22,20.55,22,20v-4.94c0-0.36-0.11-0.71-0.33-1L20.9,13H22V11z
		 M18,16H6l1.5-2h9L18,16z M14.95,8.66c0,0.62-0.19,1.15-0.57,1.57c-0.26,0.27-0.57,0.48-0.95,0.63V12h-2v-0.89
		c-0.98-0.09-1.79-0.45-2.43-1.08l0.82-0.91c0.6,0.55,1.27,0.83,2.05,0.83c0.45,0,0.8-0.11,1.08-0.32c0.27-0.21,0.4-0.5,0.4-0.88
		c0-0.23-0.04-0.43-0.13-0.58c-0.1-0.15-0.25-0.29-0.48-0.42c-0.22-0.12-0.55-0.24-0.98-0.37C10.9,7.12,10.28,6.8,9.9,6.42
		C9.52,6.05,9.33,5.55,9.33,4.96c0-0.59,0.2-1.08,0.61-1.47c0.38-0.37,0.88-0.6,1.49-0.69V2h2v0.93c0.14,0.04,0.27,0.1,0.39,0.16
		c0.32,0.16,0.63,0.37,0.9,0.63l-0.78,0.89c-0.27-0.24-0.55-0.42-0.84-0.53c-0.28-0.12-0.6-0.17-0.94-0.17
		c-0.37,0-0.67,0.08-0.9,0.24c-0.23,0.17-0.34,0.4-0.34,0.71c0,0.2,0.04,0.37,0.13,0.5c0.1,0.14,0.26,0.26,0.49,0.38
		c0.24,0.11,0.58,0.24,1.03,0.38c0.8,0.25,1.4,0.56,1.79,0.93C14.75,7.42,14.95,7.96,14.95,8.66z"/>
</g>
</svg>
