<?xml version="1.0" encoding="iso-8859-1"?>
<!-- Generator: Adobe Illustrator 24.1.2, SVG Export Plug-In . SVG Version: 6.00 Build 0)  -->
<svg version="1.1" id="cemetry-layer" xmlns="http://www.w3.org/2000/svg" xmlns:xlink="http://www.w3.org/1999/xlink" x="0px"
	 y="0px" viewBox="0 0 24 24" style="enable-background:new 0 0 24 24;" xml:space="preserve">
<g id="cemetry_1_">
	<rect style="fill:none;" width="24" height="24"/>
	<path d="M22,22H2v-2h20V22z M11,12H8v2h3V12z M16,8H8v2h8V8z M16,12h-3v2h3V12z M13,4h-2v2H9H6v10h12V6h-3h-2V4 M13,2
		c1.1,0,2,0.9,2,2h3c1.1,0,2,0.9,2,2v12H4V6c0-1.1,0.9-2,2-2h3c0-1.1,0.9-2,2-2H13L13,2z"/>
</g>
</svg>
