<?xml version="1.0" encoding="iso-8859-1"?>
<!-- Generator: Adobe Illustrator 24.1.2, SVG Export Plug-In . SVG Version: 6.00 Build 0)  -->
<svg version="1.1" id="drugstore-pharmacy-layer" xmlns="http://www.w3.org/2000/svg" xmlns:xlink="http://www.w3.org/1999/xlink"
	 x="0px" y="0px" viewBox="0 0 24 24" style="enable-background:new 0 0 24 24;" xml:space="preserve">
<g id="drugstore-pharmacy_1_">
	<rect style="fill:none;" width="24" height="24"/>
	<path d="M16,4H8V2h8V4z M16,8H8c-1.103,0-2,0.897-2,2v10h12V10C18,8.897,17.103,8,16,8 M16,6c2.209,0,4,1.791,4,4v10
		c0,1.104-0.896,2-2,2H6c-1.104,0-2-0.896-2-2V10c0-2.209,1.791-4,4-4H16L16,6z M13,13v-3h-2v3H8v2h3v3h2v-3h3v-2H13z"/>
</g>
</svg>
