<?xml version="1.0" encoding="iso-8859-1"?>
<!-- Generator: Adobe Illustrator 24.1.2, SVG Export Plug-In . SVG Version: 6.00 Build 0)  -->
<svg version="1.1" id="education-facility-layer" xmlns="http://www.w3.org/2000/svg" xmlns:xlink="http://www.w3.org/1999/xlink"
	 x="0px" y="0px" viewBox="0 0 24 24" style="enable-background:new 0 0 24 24;" xml:space="preserve">
<g id="education-facility_1_">
	<rect style="fill:none;" width="24" height="24"/>
	<path d="M12,2L2,9l4,3v2h12v-2l2-1.5V17h2V9L12,2z M16.8,10.4L16,11v1H8v-1l-0.8-0.6L5.41,9.06L12,4.44l6.59,4.62L16.8,10.4z
		 M16,16c0,2.21-1.79,4-4,4s-4-1.79-4-4H6c0,3.31,2.69,6,6,6s6-2.69,6-6H16z"/>
</g>
</svg>
