<?xml version="1.0" encoding="iso-8859-1"?>
<!-- Generator: Adobe Illustrator 24.1.2, SVG Export Plug-In . SVG Version: 6.00 Build 0)  -->
<svg version="1.1" id="event-spaces-layer" xmlns="http://www.w3.org/2000/svg" xmlns:xlink="http://www.w3.org/1999/xlink" x="0px"
	 y="0px" viewBox="0 0 24 24" style="enable-background:new 0 0 24 24;" xml:space="preserve">
<g id="event-spaces_1_">
	<rect style="fill:none;" width="24" height="24"/>
	<path d="M12,2C4,2,2,10,2,10h2c0,0,0.49-1.33,1.52-2.7C5.6,7.19,5.69,7.07,5.79,6.95c0.09-0.12,0.19-0.24,0.3-0.35
		c0.3-0.33,0.64-0.66,1.01-0.95c0.14-0.12,0.29-0.23,0.45-0.34c0,0,0.01,0,0.02-0.01C8.7,4.53,10.15,4,12,4s3.3,0.53,4.43,1.3
		c0.01,0.01,0.02,0.01,0.02,0.01c0.16,0.11,0.31,0.22,0.45,0.34c0.37,0.29,0.71,0.62,1.01,0.95c0.11,0.11,0.21,0.23,0.3,0.35
		c0.1,0.12,0.19,0.24,0.27,0.35c0.1,0.13,0.19,0.26,0.27,0.39C19.6,8.91,20,10,20,10h2C22,10,20,2,12,2z M2,12v10h6v-3h8v3h6V12H2z
		 M6,17H4v-3h2V17z M11,17H8v-3h3V17z M16,17h-3v-3h3V17z M20,17h-2v-3h2V17z"/>
</g>
</svg>
