<?xml version="1.0" encoding="iso-8859-1"?>
<!-- Generator: Adobe Illustrator 24.1.2, SVG Export Plug-In . SVG Version: 6.00 Build 0)  -->
<svg version="1.1" id="ferry-layer" xmlns="http://www.w3.org/2000/svg" xmlns:xlink="http://www.w3.org/1999/xlink" x="0px"
	 y="0px" viewBox="0 0 24 24" style="enable-background:new 0 0 24 24;" xml:space="preserve">
<g id="ferry_1_">
	<rect style="fill:none;" width="24" height="24"/>
	<path d="M17,6v2.94l-4.608-0.921L12,7.94l-0.392,0.079L7,8.94V6h6h2H17 M15,2h-2v2H7C5.9,4,5,4.9,5,6v5.38L6.9,11L12,9.98L17.1,11
		l1.9,0.38V6c0-1.1-0.9-2-2-2h-2V2L15,2z M12,14.06l6.506,1.483l-0.618,2.933C17.205,18.186,16.409,18,15.5,18
		c-1.456,0-2.622,0.476-3.5,1.096C11.122,18.476,9.956,18,8.5,18c-0.909,0-1.705,0.185-2.388,0.476l-0.618-2.933L12,14.06 M12,12
		l-9,2l2,8c0,0,1-2,3.5-2s3.5,2,3.5,2s1-2,3.5-2s3.5,2,3.5,2l2-8L12,12z"/>
</g>
</svg>
