<?xml version="1.0" encoding="iso-8859-1"?>
<!-- Generator: Adobe Illustrator 24.1.2, SVG Export Plug-In . SVG Version: 6.00 Build 0)  -->
<svg version="1.1" id="fitness-health-club-layer" xmlns="http://www.w3.org/2000/svg" xmlns:xlink="http://www.w3.org/1999/xlink"
	 x="0px" y="0px" viewBox="0 0 24 24" style="enable-background:new 0 0 24 24;" xml:space="preserve">
<g id="fitness-health-club_1_">
	<rect style="fill:none;" width="24" height="24"/>
	<path d="M21.71,10.15l-1.68-1.67l0.71-0.71c0.39-0.39,0.39-1.03,0-1.42L19.9,5.51L21.41,4L20,2.59L18.48,4.1l-0.83-0.83
		c-0.19-0.2-0.45-0.29-0.71-0.29c-0.25,0-0.51,0.09-0.7,0.29l-0.71,0.71l-1.68-1.69C13.65,2.1,13.4,2,13.14,2s-0.51,0.1-0.71,0.29
		L8.9,5.83l3.93,3.93l-3.05,3.05L5.85,8.88l-3.53,3.54c-0.39,0.39-0.39,1.02,0,1.41l1.67,1.68l-0.7,0.7c-0.39,0.39-0.39,1.03,0,1.42
		l0.83,0.83L2.58,20L4,21.42l1.54-1.54l0.83,0.83c0.2,0.2,0.45,0.3,0.71,0.3c0.25,0,0.51-0.1,0.71-0.3l0.7-0.7l1.69,1.68
		c0.19,0.2,0.45,0.29,0.7,0.29c0.26,0,0.51-0.09,0.71-0.29l3.54-3.54l-3.94-3.93l3.05-3.05l3.93,3.93l3.54-3.53
		C22.1,11.18,22.1,10.54,21.71,10.15z M12.3,18.15l-1.42,1.42l-0.97-0.98l-1.42-1.41l-1.41,1.41l-1.67-1.67l1.41-1.41l-1.41-1.42
		l-0.97-0.97l1.41-1.41L12.3,18.15z M18.17,12.27l-6.44-6.44l1.41-1.42l0.98,0.98l1.41,1.41l1.41-1.41l1.68,1.67L17.2,8.48
		l1.42,1.41l0.97,0.97L18.17,12.27z"/>
</g>
</svg>
