<?xml version="1.0" encoding="iso-8859-1"?>
<!-- Generator: Adobe Illustrator 24.1.2, SVG Export Plug-In . SVG Version: 6.00 Build 0)  -->
<svg version="1.1" id="fueling-station-layer" xmlns="http://www.w3.org/2000/svg" xmlns:xlink="http://www.w3.org/1999/xlink"
	 x="0px" y="0px" viewBox="0 0 24 24" style="enable-background:new 0 0 24 24;" xml:space="preserve">
<g id="fueling-station_1_">
	<rect style="fill:none;" width="24" height="24"/>
	<path d="M21.12,9.71l-3.7-3.7l-1.41,1.41L18,9.41V12l2,2v5c0,0.55-0.45,1-1,1h-5V3c0-0.55-0.45-1-1-1H3C2.45,2,2,2.45,2,3v19h17
		c1.65,0,3-1.35,3-3v-7.17C22,11.03,21.69,10.27,21.12,9.71z M12,20H4v-8h8V20z M12,10H4V4h8V10z"/>
</g>
</svg>
