<?xml version="1.0" encoding="iso-8859-1"?>
<!-- Generator: Adobe Illustrator 24.1.2, SVG Export Plug-In . SVG Version: 6.00 Build 0)  -->
<svg version="1.1" id="golf-course-layer" xmlns="http://www.w3.org/2000/svg" xmlns:xlink="http://www.w3.org/1999/xlink" x="0px"
	 y="0px" viewBox="0 0 24 24" style="enable-background:new 0 0 24 24;" xml:space="preserve">
<g id="golf-course_1_">
	<rect style="fill:none;" width="24" height="24"/>
	<path d="M19,14c0.551,0,1,0.448,1,1s-0.449,1-1,1s-1-0.448-1-1S18.449,14,19,14 M19,12c-1.657,0-3,1.343-3,3s1.343,3,3,3
		s3-1.343,3-3S20.657,12,19,12L19,12z M16,8V6L6,2v14H5c-1.66,0-3,1.34-3,3s1.34,3,3,3h7c1.66,0,3-1.34,3-3s-1.34-3-3-3H8v-4L16,8z
		 M5,20c-0.55,0-1-0.45-1-1s0.45-1,1-1h1v2H5z M12,18c0.55,0,1,0.45,1,1s-0.45,1-1,1H8v-2H12z M8,9.76V4.95l5.34,2.14L8,9.76z"/>
</g>
</svg>
