<?xml version="1.0" encoding="iso-8859-1"?>
<!-- Generator: Adobe Illustrator 24.1.2, SVG Export Plug-In . SVG Version: 6.00 Build 0)  -->
<svg version="1.1" id="government-community-facility-layer"
	 xmlns="http://www.w3.org/2000/svg" xmlns:xlink="http://www.w3.org/1999/xlink" x="0px" y="0px" viewBox="0 0 24 24"
	 style="enable-background:new 0 0 24 24;" xml:space="preserve">
<g id="government-community-facility_1_">
	<rect style="fill:none;" width="24" height="24"/>
	<path d="M12,4.049l7,1.556V20h-4v-1v-2h-2h-2H9v2v1H5V5.604L12,4.049 M12,2L3,4v18h8v-3h2v3h8V4L12,2L12,2z M9,12H7v3h2V12z M9,7H7
		v3h2V7z M13,12h-2v3h2V12z M13,7h-2v3h2V7z M17,12h-2v3h2V12z M17,7h-2v3h2V7z"/>
</g>
</svg>
