<?xml version="1.0" encoding="iso-8859-1"?>
<!-- Generator: Adobe Illustrator 24.1.2, SVG Export Plug-In . SVG Version: 6.00 Build 0)  -->
<svg version="1.1" id="hotel-layer" xmlns="http://www.w3.org/2000/svg" xmlns:xlink="http://www.w3.org/1999/xlink" x="0px"
	 y="0px" viewBox="0 0 24 24" style="enable-background:new 0 0 24 24;" xml:space="preserve">
<g id="hotel_1_">
	<rect style="fill:none;" width="24" height="24"/>
	<path d="M20,16v2H4v-2H20 M2,8v14h2v-2h16v2h2v-8H4v-4c0-0.55-0.22-1.05-0.59-1.41C3.05,8.22,2.55,8,2,8L2,8z M19,9h-6
		c-0.552,0-1,0.448-1,1v2h8v-2C20,9.448,19.552,9,19,9z M8,9L8,9C7.45,9,6.95,9.22,6.59,9.59C6.22,9.95,6,10.45,6,11
		c0,0.36,0.1,0.71,0.27,1h3.46C9.9,11.71,10,11.36,10,11C10,9.9,9.1,9,8,9z M12,2L2,4v2l10-2l10,2V4L12,2z"/>
</g>
</svg>
