<?xml version="1.0" encoding="iso-8859-1"?>
<!-- Generator: Adobe Illustrator 24.1.2, SVG Export Plug-In . SVG Version: 6.00 Build 0)  -->
<svg version="1.1" id="inclined-rail-layer" xmlns="http://www.w3.org/2000/svg" xmlns:xlink="http://www.w3.org/1999/xlink"
	 x="0px" y="0px" viewBox="0 0 24 24" style="enable-background:new 0 0 24 24;" xml:space="preserve">
<g id="inclined-rail_1_">
	<rect style="fill:none;" width="24" height="24"/>
	<path d="M22,16L2,22v-2l20-6V16z M20,4.007L4.047,8.793C4.028,8.826,4,8.895,4,9v6.312l16-4.8V4.007 M20.013,2.002
		C21.074,2.002,22,2.865,22,4v8L2,18V9c0-1,0.58-1.86,1.43-2.11l16-4.8C19.626,2.03,19.822,2.002,20.013,2.002L20.013,2.002z
		 M6,11.195v2l5-1.5v-2L6,11.195z M13,9.095v2l5-1.5v-2L13,9.095z"/>
</g>
</svg>
