<?xml version="1.0" encoding="iso-8859-1"?>
<!-- Generator: Adobe Illustrator 24.1.2, SVG Export Plug-In . SVG Version: 6.00 Build 0)  -->
<svg version="1.1" id="laundry-layer" xmlns="http://www.w3.org/2000/svg" xmlns:xlink="http://www.w3.org/1999/xlink" x="0px"
	 y="0px" viewBox="0 0 24 24" style="enable-background:new 0 0 24 24;" xml:space="preserve">
<g id="laundry_1_">
	<rect style="fill:none;" width="24" height="24"/>
	<path d="M18,2H6C4.9,2,4,2.9,4,4v18h16V4C20,2.9,19.1,2,18,2z M12,4h2v2h-2V4z M6,4h4v2H6V4z M18,20H6V8h12V20z M18,6h-2V4h2V6z
		 M12,10c-2.21,0-4,1.79-4,4s1.79,4,4,4s4-1.79,4-4S14.21,10,12,10z M12,16c-1.1,0-2-0.9-2-2c1.1,0,2-0.9,2-2c1.1,0,2,0.9,2,2
		S13.1,16,12,16z"/>
</g>
</svg>
