<?xml version="1.0" encoding="iso-8859-1"?>
<!-- Generator: Adobe Illustrator 24.1.2, SVG Export Plug-In . SVG Version: 6.00 Build 0)  -->
<svg version="1.1" id="lightrail-layer" xmlns="http://www.w3.org/2000/svg" xmlns:xlink="http://www.w3.org/1999/xlink" x="0px"
	 y="0px" viewBox="0 0 24 24" style="enable-background:new 0 0 24 24;" xml:space="preserve">
<g id="lightrail_1_">
	<rect style="fill:none;" width="24" height="24"/>
	<path d="M18,22H6v-2h12V22z M16.582,6H7.418L6,14v2h12v-2L16.582,6 M16.61,4c0.84,0,1.58,0.52,1.88,1.3L20,14v2c0,1-0.9,2-2,2H6
		c-1.1,0-2-0.9-2-2v-2l1.51-8.7C5.81,4.52,6.55,4,7.39,4H16.61L16.61,4z M15.62,12H8.38l-0.34,2h7.92L15.62,12z"/>
</g>
</svg>
