<?xml version="1.0" encoding="iso-8859-1"?>
<!-- Generator: Adobe Illustrator 24.1.2, SVG Export Plug-In . SVG Version: 6.00 Build 0)  -->
<svg version="1.1" id="monorail-layer" xmlns="http://www.w3.org/2000/svg" xmlns:xlink="http://www.w3.org/1999/xlink" x="0px"
	 y="0px" viewBox="0 0 24 24" style="enable-background:new 0 0 24 24;" xml:space="preserve">
<g id="monorail_1_">
	<rect style="fill:none;" width="24" height="24"/>
	<path d="M17.338,4.032l0.012,0.002L19,13.868l-0.874,2.585l-2.666-2.799l-0.591-0.621h-0.857H9.988H9.131l-0.591,0.621
		l-2.671,2.805L5,13.873l1.662-9.84H17.338 M17.338,2.032H6.662c-0.984,0-1.823,0.707-1.985,1.671l-1.65,9.838
		C2.973,13.864,3,14.194,3.103,14.503l1.396,4.161c0.274,0.817,1.043,1.368,1.909,1.368h0.562v-1.83l3.018-3.17h4.024l3.018,3.17
		v1.83h0.562c0.866,0,1.635-0.551,1.909-1.368l1.396-4.161c0.104-0.31,0.13-0.64,0.076-0.961l-1.65-9.838
		C19.161,2.739,18.322,2.032,17.338,2.032L17.338,2.032z M15,19.032v3h-2v-2l-1-1l-1,1v2H9v-3l2-2h2L15,19.032z M16,10.032H8v-2h8
		V10.032z"/>
</g>
</svg>
