<?xml version="1.0" encoding="iso-8859-1"?>
<!-- Generator: Adobe Illustrator 24.1.2, SVG Export Plug-In . SVG Version: 6.00 Build 0)  -->
<svg version="1.1" id="night-club-layer" xmlns="http://www.w3.org/2000/svg" xmlns:xlink="http://www.w3.org/1999/xlink" x="0px"
	 y="0px" viewBox="0 0 24 24" style="enable-background:new 0 0 24 24;" xml:space="preserve">
<g id="night-club_1_">
	<rect style="fill:none;" width="24" height="24"/>
	<path d="M12,10c1.1,0,2,0.9,2,2s-0.9,2-2,2s-2-0.9-2-2S10.9,10,12,10 M12,8c-2.206,0-4,1.794-4,4s1.794,4,4,4s4-1.794,4-4
		S14.206,8,12,8L12,8z M20,2v12c0,0.26-0.11,0.52-0.29,0.71l-2,2L17,16l-3,3l3,3l3-3l-0.88-0.88l2-2C21.69,15.55,22,14.8,22,14V2H20
		z M12,2C6.48,2,2,6.48,2,12s4.48,10,10,10c0.23,0,0.46-0.01,0.69-0.02c0.1-0.01,0.19-0.02,0.28-0.03H13
		c0.22-0.02,0.44-0.05,0.65-0.09c0.11-0.02,0.22-0.04,0.33-0.06l-1.39-1.39L12.17,20H12c-4.41,0-8-3.59-8-8s3.59-8,8-8
		c2.39,0,4.53,1.05,6,2.72V4.01C16.33,2.75,14.25,2,12,2z M12,2C6.48,2,2,6.48,2,12s4.48,10,10,10c0.23,0,0.46-0.01,0.69-0.02
		c0.1-0.01,0.19-0.02,0.28-0.03H13c0.22-0.02,0.44-0.05,0.65-0.09c0.11-0.02,0.22-0.04,0.33-0.06l-1.39-1.39L12.17,20H12
		c-4.41,0-8-3.59-8-8s3.59-8,8-8c2.39,0,4.53,1.05,6,2.72V4.01C16.33,2.75,14.25,2,12,2L12,2z"/>
</g>
</svg>
