<?xml version="1.0" encoding="iso-8859-1"?>
<!-- Generator: Adobe Illustrator 24.1.2, SVG Export Plug-In . SVG Version: 6.00 Build 0)  -->
<svg version="1.1" id="post-layer" xmlns="http://www.w3.org/2000/svg" xmlns:xlink="http://www.w3.org/1999/xlink" x="0px" y="0px"
	 viewBox="0 0 24 24" style="enable-background:new 0 0 24 24;" xml:space="preserve">
<g id="post_1_">
	<rect style="fill:none;" width="24" height="24"/>
	<path d="M2,4h20v14.004c0,1.103-0.897,2-2,2H4c-1.103,0-2-0.897-2-2V4z M20,7.451l-5.856,5.981
		c-0.022,0.023-0.022,0.023-0.045,0.045c-1.184,1.159-3.083,1.139-4.242-0.045L4,7.451v9.553c0,0.552,0.448,1,1,1h14
		c0.552,0,1-0.448,1-1V7.451z M5.379,6l5.907,6.033c0.386,0.395,1.02,0.401,1.414,0.015c0.004-0.004,1.978-2.02,5.922-6.048H5.379z"
		/>
</g>
</svg>
