<?xml version="1.0" encoding="iso-8859-1"?>
<!-- Generator: Adobe Illustrator 24.1.2, SVG Export Plug-In . SVG Version: 6.00 Build 0)  -->
<svg version="1.1" id="sports-facility-venue-layer"
	 xmlns="http://www.w3.org/2000/svg" xmlns:xlink="http://www.w3.org/1999/xlink" x="0px" y="0px" viewBox="0 0 24 24"
	 style="enable-background:new 0 0 24 24;" xml:space="preserve">
<g id="sports-facility-venue_1_">
	<rect style="fill:none;" width="24" height="24"/>
	<path d="M16,14H8L2,8v12c0,1.105,0.895,2,2,2h4v-2H4v-7.17l2.59,2.58L7.17,16h9.66l0.58-0.59L20,12.83V20h-4v2h4
		c1.105,0,2-0.895,2-2V8L16,14z M20,6h2l-2,2H4L2,6h2V2h2l2,1L6,4v2h5V2h2l2,1l-2,1v2h5V2h2l2,1l-2,1V6z M14,22h-4v-2
		c0-1.105,0.895-2,2-2h0c1.105,0,2,0.895,2,2V22z M18,10l-2.123,2H8l-2-2H18z"/>
</g>
</svg>
