<?xml version="1.0" encoding="iso-8859-1"?>
<!-- Generator: Adobe Illustrator 24.1.2, SVG Export Plug-In . SVG Version: 6.00 Build 0)  -->
<svg version="1.1" id="taxi-layer" xmlns="http://www.w3.org/2000/svg" xmlns:xlink="http://www.w3.org/1999/xlink" x="0px" y="0px"
	 viewBox="0 0 24 24" style="enable-background:new 0 0 24 24;" xml:space="preserve">
<g id="taxi_1_">
	<rect style="fill:none;" width="24" height="24"/>
	<path d="M16.93,10c0.013,0,0.024,0.001,0.032,0.003l2.323,3.177L20,14.158V19h-2v-2h-2H8H6v2H4v-4.842l0.715-0.978l2.322-3.177
		C7.046,10.001,7.057,10,7.07,10H16.93 M16.93,8H7.07C6.4,8,5.78,8.31,5.41,8.82L4.55,10H2v2h1.1l-0.772,1.057
		C2.115,13.348,2,13.699,2,14.06V19c0,1.1,0.9,2,2,2h3c0.552,0,1-0.448,1-1v-1h8v1c0,0.552,0.448,1,1,1h3
		c0.55,0,1.05-0.22,1.41-0.59C21.78,20.05,22,19.55,22,19v-4.94c0-0.361-0.115-0.712-0.328-1.003L20.9,12H22v-2h-2.55l-0.86-1.18
		C18.22,8.31,17.6,8,16.93,8L16.93,8z M16.5,13h-9L6,15h12L16.5,13z M15,4H9v2h6V4z"/>
</g>
</svg>
