<?xml version="1.0" encoding="iso-8859-1"?>
<!-- Generator: Adobe Illustrator 24.1.2, SVG Export Plug-In . SVG Version: 6.00 Build 0)  -->
<svg version="1.1" id="tollbooth-layer" xmlns="http://www.w3.org/2000/svg" xmlns:xlink="http://www.w3.org/1999/xlink" x="0px"
	 y="0px" viewBox="0 0 24 24" style="enable-background:new 0 0 24 24;" xml:space="preserve">
<g id="tollbooth_1_">
	<g>
		<rect style="fill:none;" width="24" height="24"/>
	</g>
	<path d="M22,18v2c0,1.104-0.895,2-2,2H4c-1.104,0-2-0.896-2-2v-2c0-1.104,0.896-2,2-2h1v2H4v2h16v-2h-1v-2h1
		C21.105,16,22,16.896,22,18z M5,12c0-3.44,2.485-6.297,5.759-6.884C11.78,3.265,13.735,2,16,2c3.314,0,6,2.688,6,6
		c0,2.268-1.259,4.241-3.115,5.261l-0.003-0.007C18.29,16.521,15.438,19,12,19C8.133,19,5,15.867,5,12z M13.245,5.117
		c2.865,0.515,5.121,2.77,5.638,5.634C19.572,10.036,20,9.07,20,8c0-2.206-1.794-4-4-4C14.929,4,13.962,4.429,13.245,5.117z M7,12
		c0,2.757,2.243,5,5,5s5-2.243,5-5s-2.243-5-5-5S7,9.243,7,12z M11,15h2V9h-2l-1,2h1V15z"/>
</g>
</svg>
