<?xml version="1.0" encoding="iso-8859-1"?>
<!-- Generator: Adobe Illustrator 24.1.2, SVG Export Plug-In . SVG Version: 6.00 Build 0)  -->
<svg version="1.1" id="train-station-layer" xmlns="http://www.w3.org/2000/svg" xmlns:xlink="http://www.w3.org/1999/xlink"
	 x="0px" y="0px" viewBox="0 0 24 24" style="enable-background:new 0 0 24 24;" xml:space="preserve">
<g id="train-station_1_">
	<rect style="fill:none;" width="24" height="24"/>
	<path d="M18,22H6v-2h12V22z M16.284,4L16.284,4H7.716L6.006,15.111C6.064,15.603,6.495,16,7,16h10c0.513,0,0.938-0.389,0.994-0.888
		L16.284,4 M16.284,2c0.987,0,1.827,0.72,1.977,1.696L20,15c0,1.657-1.343,3-3,3H7c-1.65,0-3-1.35-3-3L5.739,3.696
		C5.889,2.72,6.729,2,7.716,2H16.284L16.284,2z M15,10v2c-1.04,0.46-2,1-3,1s-1.96-0.54-3-1v-2c0.95,0.55,2,1,3,1S14.05,10.55,15,10
		z"/>
</g>
</svg>
