<?xml version="1.0" encoding="iso-8859-1"?>
<!-- Generator: Adobe Illustrator 24.1.2, SVG Export Plug-In . SVG Version: 6.00 Build 0)  -->
<svg version="1.1" id="underground-train-subway-layer"
	 xmlns="http://www.w3.org/2000/svg" xmlns:xlink="http://www.w3.org/1999/xlink" x="0px" y="0px" viewBox="0 0 24 24"
	 style="enable-background:new 0 0 24 24;" xml:space="preserve">
<g id="underground-train-subway_1_">
	<rect style="fill:none;" width="24" height="24"/>
	<path d="M16,22H8v-2h8V22z M12,8c-2.206,0-4,1.794-4,4v4h7.958c0.015-0.012,0.031-0.031,0.042-0.047V12C16,9.794,14.206,8,12,8
		 M12,6c3.31,0,6,2.69,6,6v4c0,1-0.9,2-2,2H8c-1.1,0-2-0.9-2-2v-4C6,8.69,8.69,6,12,6L12,6z M22,12c0,0.83-0.1,1.64-0.3,2.42
		l-1.94-0.48C19.92,13.32,20,12.67,20,12c0-4.41-3.59-8-8-8s-8,3.59-8,8c0,0.67,0.08,1.32,0.24,1.94L2.3,14.42
		C2.1,13.64,2,12.83,2,12C2,6.48,6.48,2,12,2S22,6.48,22,12z M14,12h-4v2h4V12z"/>
</g>
</svg>
