<?xml version="1.0" encoding="iso-8859-1"?>
<!-- Generator: Adobe Illustrator 24.1.2, SVG Export Plug-In . SVG Version: 6.00 Build 0)  -->
<svg version="1.1" id="zoo-layer" xmlns="http://www.w3.org/2000/svg" xmlns:xlink="http://www.w3.org/1999/xlink" x="0px" y="0px"
	 viewBox="0 0 24 24" style="enable-background:new 0 0 24 24;" xml:space="preserve">
<g id="zoo_1_">
	<rect style="fill:none;" width="24" height="24"/>
	<g>
		<path d="M8,9c0,0.552-0.448,1-1,1S6,9.552,6,9s0.448-1,1-1S8,8.448,8,9z M14,2H9C5.13,2,2,5.13,2,9v1.18
			c0,0.93,0.41,1.76,1.03,2.44C3.63,13.27,4,14.11,4,15v2c0,0.55-0.45,1-1,1H2v2h2c1.1,0,2-0.9,2-2v-3.16
			c0-1.39-0.64-2.64-1.57-3.66C4.17,10.9,4,10.55,4,10.18V9c0-2.76,2.24-5,5-5h3.46C12.8,4.59,13,5.27,13,6v4h2V6
			c0-0.69-0.12-1.35-0.33-1.96C17.67,4.37,20,6.92,20,10v10h-2v-5h-6v5h-2v-5H8v5c0,1.1,0.9,2,2,2h4v-5h2v3c0,1.1,0.9,2,2,2h4V10
			C22,5.58,18.42,2,14,2z"/>
	</g>
</g>
</svg>
