<svg xmlns="http://www.w3.org/2000/svg" width="24" height="24" viewBox="0 0 24 24">
  <g fill="none" fill-rule="evenodd">
    <rect width="24" height="24"/>
    <path fill="#0F1621" fill-opacity=".95" d="M13.469,2.99999996 C15.0511482,2.99999996 16.3959081,4.17488611 16.6746192,5.77011286 L16.702,5.95599997 L16.949,7.99999996 L20.667,7.99999996 L20.097,19.102 C20.0455715,20.1153334 19.2467506,20.9200499 18.250802,20.9943917 L18.1,21 L5.89999997,21 C4.88571426,21 4.04104305,20.2435374 3.91625091,19.2523702 L3.90299997,19.102 L3.33299996,7.99999996 L7.05099998,7.99999996 L7.29799998,5.95599997 C7.49444443,4.32955552 8.78695472,3.09443069 10.350442,3.00517102 L10.532,2.99999996 L13.469,2.99999996 Z M13.468,4.99999997 L10.531,4.99999997 C9.94393332,4.99999997 9.43700888,5.44775108 9.3053591,6.06194249 L9.28299999,6.19599998 L9.11099999,7.89999998 C9.05593332,8.44973332 9.45471554,8.93151997 9.98944918,8.99331493 L10.106,8.99999997 L13.894,8.99999997 C14.4465333,8.99999997 14.8858222,8.55486221 14.8939692,8.01663169 L14.889,7.89999998 L14.717,6.19599998 C14.6395333,5.55946664 14.1674533,5.06927997 13.5926403,5.00675079 L13.468,4.99999997 Z"/>
  </g>
</svg>
