<svg width="16" height="16" viewBox="0 0 16 16" fill="none" xmlns="http://www.w3.org/2000/svg">
<path fill-rule="evenodd" clip-rule="evenodd" d="M7.99998 1C7.07117 1.00151 6.18095 1.35136 5.52475 1.97275C4.86855 2.59414 4.5 3.43627 4.5 4.31429C4.50218 4.74069 4.59418 5.16241 4.77061 5.55485C4.94705 5.94729 5.20439 6.30258 5.52763 6.6L7.99998 9L10.4723 6.61714C10.7956 6.31972 11.0529 5.96443 11.2293 5.57199C11.4058 5.17956 11.4978 4.75783 11.5 4.33143C11.5023 3.89523 11.4136 3.46288 11.2389 3.05916C11.0641 2.65545 10.8068 2.28831 10.4816 1.97881C10.1565 1.66931 9.76987 1.42352 9.34402 1.25556C8.91816 1.08759 8.46141 1.00075 7.99998 1ZM7.99998 5.28571C7.82064 5.28571 7.64534 5.23544 7.49622 5.14126C7.34711 5.04708 7.2309 4.91321 7.16227 4.75659C7.09364 4.59996 7.07568 4.42762 7.11067 4.26135C7.14566 4.09508 7.23201 3.94235 7.35882 3.82248C7.48563 3.70261 7.64719 3.62097 7.82308 3.5879C7.99897 3.55483 8.18128 3.5718 8.34697 3.63667C8.51265 3.70155 8.65426 3.81141 8.75389 3.95237C8.85353 4.09332 8.90671 4.25904 8.90671 4.42857C8.90671 4.6559 8.81118 4.87392 8.64113 5.03466C8.47109 5.19541 8.24046 5.28571 7.99998 5.28571Z" fill="#0E1520"/>
<path d="M5 10H6L3 15H1L5 10Z" fill="#0E1520"/>
<path d="M10 10H11L15 15H13L10 10Z" fill="#0E1520"/>
<path d="M8.25 10H7.75L7.5 11.5H8.5L8.25 10Z" fill="#0E1520"/>
<path d="M7.5 13H8.5L8.75 15H7.25L7.5 13Z" fill="#0E1520"/>
</svg>
