<svg width="24" height="24" viewBox="0 0 24 24" fill="none" xmlns="http://www.w3.org/2000/svg">
<path d="M7.5 15H9L4.5 22H2L7.5 15Z" fill="#0E1520"/>
<path d="M16.5 15H15L19.5 22H22L16.5 15Z" fill="#0E1520"/>
<path d="M12.5 15H11.5L11.25 17H12.75C12.5547 15.6332 12.6953 16.3668 12.5 15Z" fill="#0E1520"/>
<path d="M13 19H11L10.75 22H13.25L13 19Z" fill="#0E1520"/>
<path fill-rule="evenodd" clip-rule="evenodd" d="M10.0061 11.281L12 13.3333L13.994 11.281C16.2356 8.99184 16.25 7.56916 16.25 6.36406C16.25 3.95385 14.3358 2 11.9959 2C9.656 2 7.75 3.95385 7.75 6.36406C7.75 7.56916 7.76439 8.99184 10.0061 11.281ZM12.6856 5.74453C12.498 5.6192 12.2774 5.5523 12.0518 5.5523C11.7493 5.5523 11.4592 5.67247 11.2453 5.88639C11.0314 6.10031 10.9112 6.39044 10.9112 6.69296C10.9112 6.91856 10.9781 7.13909 11.1034 7.32668C11.2288 7.51426 11.4069 7.66046 11.6153 7.74679C11.8238 7.83313 12.0531 7.85571 12.2744 7.8117C12.4956 7.76769 12.6989 7.65905 12.8584 7.49953C13.0179 7.34 13.1266 7.13676 13.1706 6.91549C13.2146 6.69422 13.192 6.46488 13.1057 6.25645C13.0193 6.04802 12.8731 5.86987 12.6856 5.74453Z" fill="#0E1520"/>
</svg>
