<svg width="24" height="24" viewBox="0 0 24 24" fill="none" xmlns="http://www.w3.org/2000/svg">
<path d="M12.6856 5.74448C12.4981 5.61914 12.2775 5.55225 12.0519 5.55225C11.7494 5.55225 11.4593 5.67242 11.2453 5.88634C11.0314 6.10025 10.9113 6.39039 10.9113 6.69291C10.9113 6.91851 10.9782 7.13904 11.1035 7.32662C11.2288 7.5142 11.407 7.66041 11.6154 7.74674C11.8238 7.83307 12.0532 7.85566 12.2744 7.81165C12.4957 7.76764 12.699 7.659 12.8585 7.49948C13.018 7.33995 13.1266 7.13671 13.1707 6.91544C13.2147 6.69417 13.1921 6.46482 13.1057 6.25639C13.0194 6.04797 12.8732 5.86982 12.6856 5.74448Z" fill="#0E1520"/>
<path fill-rule="evenodd" clip-rule="evenodd" d="M10.0061 11.281C7.76439 8.99184 7.75 7.56916 7.75 6.36406C7.75 3.95385 9.656 2 11.9959 2C14.3358 2 16.25 3.95385 16.25 6.36406C16.25 7.56916 16.2356 8.99184 13.994 11.281L12 13.3333L10.0061 11.281ZM12.9181 10.2358L12 11.1807L11.0819 10.2358L11.0778 10.2316C10.0635 9.19576 9.64155 8.44631 9.44957 7.91026C9.25999 7.38091 9.25 6.9506 9.25 6.36406C9.25 4.74438 10.5218 3.5 11.9959 3.5C13.4737 3.5 14.75 4.74818 14.75 6.36406C14.75 6.95061 14.74 7.38092 14.5504 7.91027C14.3585 8.44632 13.9365 9.19576 12.9222 10.2316L12.9181 10.2358Z" fill="#0E1520"/>
<path d="M7.5 15H9L4.5 22H2L7.5 15Z" fill="#0E1520"/>
<path d="M16.5 15H15L19.5 22H22L16.5 15Z" fill="#0E1520"/>
<path d="M12.5 15H11.5L11.25 17H12.75C12.5548 15.6332 12.6953 16.3668 12.5 15Z" fill="#0E1520"/>
<path d="M13 19H11L10.75 22H13.25L13 19Z" fill="#0E1520"/>
</svg>
