<svg width="16" height="16" viewBox="0 0 16 16" fill="none" xmlns="http://www.w3.org/2000/svg">
<path fill-rule="evenodd" clip-rule="evenodd" d="M6.59251 7.55132L8 9L9.4075 7.55132C10.9899 5.93541 11 4.93117 11 4.08051C11 2.37919 9.6488 1 7.99711 1C6.34541 1 5 2.37919 5 4.08051C5 4.93117 5.01016 5.93541 6.59251 7.55132ZM8.48395 3.64323C8.35154 3.55476 8.19587 3.50753 8.03662 3.50753C7.82307 3.50753 7.61827 3.59236 7.46728 3.74336C7.31628 3.89436 7.23145 4.09916 7.23145 4.31271C7.23145 4.47195 7.27867 4.62763 7.36714 4.76004C7.45562 4.89245 7.58137 4.99565 7.72849 5.05659C7.87562 5.11753 8.03751 5.13348 8.1937 5.10241C8.34989 5.07134 8.49336 4.99465 8.60596 4.88205C8.71857 4.76944 8.79525 4.62598 8.82632 4.46979C8.85739 4.3136 8.84144 4.15171 8.7805 4.00458C8.71956 3.85745 8.61636 3.7317 8.48395 3.64323Z" fill="#0E1520"/>
<path d="M5 10H6L3 15H1L5 10Z" fill="#0E1520"/>
<path d="M11 10H10L13 15H15L11 10Z" fill="#0E1520"/>
<path d="M8.25 10H7.75L7.5 11.5H8.5L8.25 10Z" fill="#0E1520"/>
<path d="M8.5 13H7.5L7.25 15H8.75L8.5 13Z" fill="#0E1520"/>
</svg>
