<svg width="24" height="24" viewBox="0 0 24 24" fill="none" xmlns="http://www.w3.org/2000/svg">
<path fill-rule="evenodd" clip-rule="evenodd" d="M12.0029 2C11.3455 2 10.6944 2.12858 10.087 2.37838C9.47967 2.62819 8.92789 2.99432 8.46325 3.45584C7.9986 3.91736 7.63021 4.46523 7.37914 5.0681C7.12806 5.67097 6.99923 6.31704 7 6.96934C6.99982 7.61303 7.12997 8.2502 7.38274 8.84303C7.6355 9.43587 8.00573 9.97228 8.47146 10.4204L12.0029 14L15.5344 10.4204C15.9991 9.97179 16.3682 9.43515 16.62 8.84234C16.8717 8.24954 17.0009 7.61262 17 6.96934C17.0008 6.31753 16.8721 5.67194 16.6214 5.06945C16.3707 4.46695 16.0029 3.91935 15.5388 3.4579C15.0748 2.99646 14.5237 2.63021 13.917 2.38006C13.3103 2.12991 12.6599 2.00077 12.0029 2ZM12.0029 8.42336C11.7119 8.42336 11.4274 8.33774 11.1854 8.17733C10.9435 8.01692 10.7549 7.78892 10.6435 7.52217C10.5321 7.25541 10.503 6.96188 10.5598 6.6787C10.6165 6.39552 10.7567 6.1354 10.9625 5.93123C11.1683 5.72707 11.4304 5.58803 11.7159 5.5317C12.0013 5.47537 12.2972 5.50428 12.566 5.61477C12.8349 5.72527 13.0647 5.91238 13.2264 6.15245C13.3881 6.39252 13.4744 6.67477 13.4744 6.9635C13.4744 7.35068 13.3194 7.722 13.0434 7.99578C12.7675 8.26955 12.3932 8.42336 12.0029 8.42336Z" fill="#0E1520"/>
<path d="M7.5 15H9L4.5 22H2L7.5 15Z" fill="#0E1520"/>
<path d="M15 15H16.5L22 22H19.5L15 15Z" fill="#0E1520"/>
<path d="M12.5 15H11.5L11.25 17H12.75C12.6524 16.3166 12.6387 16.1583 12.625 16C12.6113 15.8417 12.5976 15.6834 12.5 15Z" fill="#0E1520"/>
<path d="M11 19H13L13.25 22H10.75L11 19Z" fill="#0E1520"/>
</svg>
