<svg width="24" height="24" viewBox="0 0 24 24" fill="none" xmlns="http://www.w3.org/2000/svg">
<path d="M12.0029 2C10.6755 2.00155 9.40303 2.52553 8.46497 3.45684C7.5269 4.38815 7 5.65063 7 6.96693C7.00002 7.61114 7.13025 8.24881 7.38298 8.84227C7.63571 9.43573 8.00582 9.97295 8.47145 10.4222L12.0029 14L15.5344 10.4222C15.9998 9.97306 16.3693 9.43574 16.6211 8.84216C16.8729 8.24859 17.0017 7.61087 17 6.96693C17 5.65164 16.4739 4.39004 15.5371 3.4589C14.6003 2.52776 13.3293 2.00309 12.0029 2ZM14.6986 9.58755L12.0029 12.3307L9.29546 9.58755C8.94133 9.24623 8.65987 8.8379 8.46778 8.38675C8.27569 7.9356 8.17686 7.45081 8.17716 6.96109C8.17716 5.95492 8.58023 4.98996 9.2977 4.27849C10.0152 3.56702 10.9883 3.16732 12.0029 3.16732C13.0176 3.16732 13.9907 3.56702 14.7082 4.27849C15.4256 4.98996 15.8287 5.95492 15.8287 6.96109C15.8268 7.45154 15.7258 7.93663 15.5317 8.38774C15.3376 8.83884 15.0544 9.24681 14.6986 9.58755ZM12.0029 4.91829C11.5955 4.91829 11.1972 5.0381 10.8584 5.26256C10.5197 5.48703 10.2556 5.80607 10.0997 6.17934C9.94379 6.55262 9.903 6.96336 9.98249 7.35962C10.062 7.75589 10.2582 8.11988 10.5463 8.40557C10.8344 8.69126 11.2014 8.88582 11.601 8.96464C12.0006 9.04346 12.4149 9.00301 12.7913 8.84839C13.1677 8.69378 13.4894 8.43195 13.7158 8.09601C13.9421 7.76007 14.063 7.36512 14.063 6.96109C14.063 6.4193 13.8459 5.89971 13.4596 5.51661C13.0733 5.13351 12.5493 4.91829 12.0029 4.91829ZM12.0029 7.83658C11.8283 7.83658 11.6576 7.78523 11.5124 7.68903C11.3673 7.59283 11.2541 7.4561 11.1873 7.29612C11.1204 7.13615 11.103 6.96012 11.137 6.79029C11.1711 6.62046 11.2552 6.46447 11.3786 6.34203C11.5021 6.21959 11.6594 6.13621 11.8307 6.10243C12.002 6.06864 12.1795 6.08598 12.3408 6.15225C12.5021 6.21851 12.64 6.33072 12.737 6.4747C12.834 6.61867 12.8858 6.78793 12.8858 6.96109C12.8858 7.19328 12.7928 7.41597 12.6272 7.58015C12.4616 7.74434 12.2371 7.83658 12.0029 7.83658Z" fill="#0E1520"/>
<path d="M7.5 15H9L4.5 22H2L7.5 15Z" fill="#0E1520"/>
<path d="M16.5 15H15L19.5 22H22L16.5 15Z" fill="#0E1520"/>
<path d="M12.5 15H11.5L11.25 17H12.75C12.5548 15.6332 12.6953 16.3668 12.5 15Z" fill="#0E1520"/>
<path d="M13 19H11L10.75 22H13.25L13 19Z" fill="#0E1520"/>
</svg>
