<svg width="24" height="24" viewBox="0 0 24 24" fill="none" xmlns="http://www.w3.org/2000/svg">
<path fill-rule="evenodd" clip-rule="evenodd" d="M8.48128 18.3783L12 22L15.5187 18.3783C19.4746 14.3385 19.5 11.8279 19.5 9.70128C19.5 5.44797 16.122 2 11.9928 2C7.86354 2 4.5 5.44797 4.5 9.70128C4.5 11.8279 4.52539 14.3385 8.48128 18.3783ZM12 19.1299L14.0898 16.979C15.9256 15.1042 16.7315 13.7046 17.1099 12.648C17.4851 11.6004 17.5 10.7433 17.5 9.70128C17.5 6.50708 14.9725 4 11.9928 4C9.01797 4 6.5 6.50201 6.5 9.70128C6.5 10.7433 6.51487 11.6004 6.89007 12.648C7.26847 13.7046 8.07437 15.1042 9.91025 16.979L9.91576 16.9846L12 19.1299Z" fill="#0E1520"/>
<path d="M12.0862 8.26437C12.484 8.26437 12.8729 8.38234 13.2037 8.60336C13.5345 8.82439 13.7923 9.13854 13.9446 9.50609C14.0968 9.87365 14.1367 10.2781 14.0591 10.6683C13.9814 11.0585 13.7899 11.4169 13.5086 11.6982C13.2272 11.9795 12.8688 12.1711 12.4786 12.2487C12.0884 12.3263 11.684 12.2865 11.3164 12.1342C10.9489 11.982 10.6347 11.7242 10.4137 11.3934C10.1927 11.0626 10.0747 10.6737 10.0747 10.2759C10.0747 9.74238 10.2866 9.23075 10.6639 8.85352C11.0411 8.47629 11.5527 8.26437 12.0862 8.26437Z" fill="#0E1520"/>
</svg>
