<svg width="24" height="24" viewBox="0 0 24 24" fill="none" xmlns="http://www.w3.org/2000/svg">
<path d="M14.6512 8.66369V13.1217C14.6512 14.4697 13.7862 15.5 12.0465 15.5C10.3069 15.5 9.45145 14.5275 9.45145 13.1217V8.66369H11.0277V13.0543C11.0277 13.9113 11.3353 14.3253 12.0465 14.3253C12.7674 14.3253 13.0749 13.9113 13.0749 13.0543V8.66369H14.6512Z" fill="black"/>
<path d="M17.5107 8.5C18.5295 8.5 19.2311 8.79849 19.8174 9.35695L19.0869 10.2139C18.6256 9.83838 18.1642 9.65543 17.626 9.65543C17.0781 9.65543 16.7321 9.88652 16.7321 10.3102C16.7321 10.7338 16.982 10.9072 18.0201 11.2345C19.2791 11.6389 20 12.1589 20 13.3913C20 14.6334 19.0196 15.5 17.3569 15.5C16.2035 15.5 15.3769 15.0763 14.8291 14.5468L15.6268 13.6706C16.117 14.0846 16.6456 14.3253 17.3088 14.3253C17.9624 14.3253 18.3661 14.0172 18.3661 13.5069C18.3661 13.0158 18.1162 12.7944 17.1454 12.4959C15.6557 12.0337 15.1078 11.4175 15.1078 10.4257C15.1078 9.25103 16.1266 8.5 17.5107 8.5Z" fill="black"/>
<path d="M7.54659 11.8026C8.28667 11.947 9.04597 12.3129 9.04597 13.3913C9.04597 14.9127 7.81571 15.3363 6.14334 15.3363H4V8.66369H5.88383C7.67154 8.66369 8.76724 9.11623 8.76724 10.368C8.76724 11.2153 8.16172 11.6582 7.54659 11.8026ZM6.03761 9.78061H5.57626V11.3308H6.16256C6.81613 11.3308 7.16214 11.0805 7.16214 10.522C7.16214 9.96355 6.79691 9.78061 6.03761 9.78061ZM6.15295 14.1905C6.89302 14.1905 7.42165 14.0365 7.42165 13.3047C7.42165 12.6307 6.95069 12.3803 6.26828 12.3803H5.57626V14.1905H6.15295Z" fill="black"/>
</svg>
