<svg width="16" height="16" viewBox="0 0 16 16" fill="none" xmlns="http://www.w3.org/2000/svg">
<path d="M9.8227 5.61692V8.80124C9.8227 9.7641 9.228 10.5 8.03198 10.5C6.83597 10.5 6.24787 9.80536 6.24787 8.80124V5.61692H7.33155V8.75309C7.33155 9.3652 7.543 9.66093 8.03198 9.66093C8.52757 9.66093 8.73902 9.3652 8.73902 8.75309V5.61692H9.8227Z" fill="black"/>
<path d="M11.7886 5.5C12.489 5.5 12.9714 5.71321 13.3745 6.1121L12.8723 6.72421C12.5551 6.45598 12.2379 6.32531 11.8679 6.32531C11.4912 6.32531 11.2533 6.49037 11.2533 6.79298C11.2533 7.0956 11.4251 7.21939 12.1388 7.45323C13.0044 7.74209 13.5 8.11348 13.5 8.99381C13.5 9.88102 12.826 10.5 11.6829 10.5C10.8899 10.5 10.3216 10.1974 9.945 9.81912L10.4934 9.19326C10.8304 9.489 11.1939 9.66093 11.6498 9.66093C12.0991 9.66093 12.3767 9.44085 12.3767 9.07634C12.3767 8.72558 12.2049 8.5674 11.5375 8.35419C10.5133 8.02407 10.1366 7.58391 10.1366 6.87552C10.1366 6.03645 10.8371 5.5 11.7886 5.5Z" fill="black"/>
<path d="M4.93828 7.85901C5.44709 7.96217 5.9691 8.22352 5.9691 8.99381C5.9691 10.0805 5.1233 10.3831 3.97354 10.3831H2.5V5.61692H3.79513C5.02419 5.61692 5.77748 5.94017 5.77748 6.83425C5.77748 7.43948 5.36118 7.75585 4.93828 7.85901ZM3.90086 6.41472H3.58368V7.52201H3.98676C4.43609 7.52201 4.67397 7.34319 4.67397 6.94429C4.67397 6.54539 4.42287 6.41472 3.90086 6.41472ZM3.98015 9.56465C4.48895 9.56465 4.85238 9.45461 4.85238 8.93191C4.85238 8.45048 4.5286 8.27167 4.05944 8.27167H3.58368V9.56465H3.98015Z" fill="black"/>
</svg>
