<svg width="16" height="16" viewBox="0 0 16 16" fill="none" xmlns="http://www.w3.org/2000/svg">
<path d="M3.2256 2.97002C5.85229 0.343328 10.111 0.343328 12.7377 2.97002L13.2133 3.44562L10.7824 5.87648C10.1429 5.03976 9.13448 4.5 8 4.5C6.85612 4.5 5.8404 5.04875 5.20173 5.89735L2.75 3.44562L3.2256 2.97002Z" fill="#0E1520"/>
<path d="M1.96437 4.96436C1.50733 5.87329 1.25 6.89993 1.25 7.98667C1.25 11.7072 4.26612 14.7234 7.98669 14.7234C11.7073 14.7234 14.7234 11.7072 14.7234 7.98667C14.7234 6.90699 14.4694 5.88664 14.0179 4.98209L12.8806 6.11934C13.1021 6.69936 13.2234 7.32885 13.2234 7.98667C13.2234 10.8788 10.8788 13.2234 7.98669 13.2234C5.09455 13.2234 2.75 10.8788 2.75 7.98667C2.75 7.32157 2.87399 6.68543 3.10012 6.10011L1.96437 4.96436Z" fill="#0E1520"/>
<path d="M8 10C9.10457 10 10 9.10457 10 8C10 6.89543 9.10457 6 8 6C6.89543 6 6 6.89543 6 8C6 9.10457 6.89543 10 8 10Z" fill="#0E1520"/>
</svg>
