<svg width="16" height="16" viewBox="0 0 16 16" fill="none" xmlns="http://www.w3.org/2000/svg">
<path fill-rule="evenodd" clip-rule="evenodd" d="M1.7785 4.7785C1.28102 5.73922 1 6.83014 1 7.98669C1 11.8453 4.12805 14.9734 7.98669 14.9734C11.8453 14.9734 14.9734 11.8453 14.9734 7.98669C14.9734 6.83718 14.6958 5.75251 14.2039 4.79606L12.6859 6.31407C12.872 6.83691 12.9734 7.39997 12.9734 7.98669C12.9734 10.7408 10.7408 12.9734 7.98669 12.9734C5.23262 12.9734 3 10.7408 3 7.98669C3 7.39263 3.10388 6.82283 3.29446 6.29447L1.7785 4.7785Z" fill="#0E1520"/>
<path fill-rule="evenodd" clip-rule="evenodd" d="M3.2256 2.97002C5.85229 0.343328 10.111 0.343328 12.7377 2.97002L13.2133 3.44562L10.7824 5.87648C10.1429 5.03976 9.13448 4.5 8 4.5C6.85612 4.5 5.8404 5.04875 5.20173 5.89735L2.75 3.44562L3.2256 2.97002Z" fill="#0E1520"/>
<path d="M10 8C10 9.10457 9.10457 10 8 10C6.89543 10 6 9.10457 6 8C6 6.89543 6.89543 6 8 6C9.10457 6 10 6.89543 10 8Z" fill="#0E1520"/>
</svg>
