<svg width="24" height="24" viewBox="0 0 24 24" fill="none" xmlns="http://www.w3.org/2000/svg">
<path d="M19.15 4.92009C15.2012 0.971297 8.79892 0.971297 4.85012 4.92009L4.13513 5.63508L7.79454 9.2945C8.68445 7.91405 10.2355 7 12 7C13.7646 7 15.3156 7.91405 16.2056 9.2945L19.865 5.63508L19.15 4.92009Z" fill="#0E1520"/>
<path d="M2 12C2 10.4159 2.36836 8.91775 3.02409 7.58665C3.51063 8.05332 4.02969 8.54854 4.5603 9.05298C4.19873 9.965 4 10.9593 4 12C4 16.4183 7.58172 20 12 20C16.4183 20 20 16.4183 20 12C20 10.9441 19.7954 9.93587 19.4237 9.01295L20.9594 7.55322C21.6254 8.89265 22 10.4026 22 12C22 17.5229 17.5228 22 12 22C6.47715 22 2 17.5229 2 12Z" fill="#0E1520"/>
<path d="M12 15C13.6569 15 15 13.6569 15 12C15 10.3431 13.6569 9 12 9C10.3431 9 9 10.3431 9 12C9 13.6569 10.3431 15 12 15Z" fill="#0E1520"/>
</svg>
