<svg width="24" height="24" viewBox="0 0 24 24" fill="none" xmlns="http://www.w3.org/2000/svg">
<path d="M13.8061 11.281L15.8 13.3333L17.794 11.281C20.0356 8.99184 20.05 7.56916 20.05 6.36406C20.05 3.95385 18.1358 2 15.7959 2C13.456 2 11.55 3.95385 11.55 6.36406C11.55 7.56916 11.5644 8.99184 13.8061 11.281ZM16.4856 5.74453C16.6731 5.86987 16.8193 6.04802 16.9057 6.25645C16.992 6.46488 17.0146 6.69422 16.9706 6.91549C16.9266 7.13676 16.8179 7.34 16.6584 7.49953C16.4989 7.65905 16.2956 7.76769 16.0744 7.8117C15.8531 7.85571 15.6238 7.83313 15.4153 7.74679C15.2069 7.66046 15.0288 7.51426 14.9034 7.32668C14.7781 7.13909 14.7112 6.91856 14.7112 6.69296C14.7112 6.39044 14.8314 6.10031 15.0453 5.88639C15.2592 5.67247 15.5493 5.5523 15.8518 5.5523C16.0774 5.5523 16.298 5.6192 16.4856 5.74453Z" fill="#0F1621"/>
<path d="M16.5 15H15L19.5 22H22L16.5 15Z" fill="#0F1621"/>
<path d="M9 13H10.25L4.5 22H2L9 13Z" fill="#0F1621"/>
<path d="M11.5 15H12.5L12.75 17H11.25C11.4453 15.6332 11.3047 16.3668 11.5 15Z" fill="#0F1621"/>
<path d="M11 19H13L13.25 22H10.75L11 19Z" fill="#0F1621"/>
</svg>
