<svg width="16" height="16" viewBox="0 0 16 16" fill="none" xmlns="http://www.w3.org/2000/svg">
<path d="M9.09251 7.55132L10.5 9L11.9075 7.55132C13.4899 5.93541 13.5 4.93117 13.5 4.08051C13.5 2.37919 12.1488 1 10.4971 1C8.84541 1 7.5 2.37919 7.5 4.08051C7.5 4.93117 7.51016 5.93541 9.09251 7.55132ZM10.9839 3.64323C11.1164 3.7317 11.2196 3.85745 11.2805 4.00458C11.3414 4.15171 11.3574 4.3136 11.3263 4.46979C11.2953 4.62598 11.2186 4.76944 11.106 4.88205C10.9934 4.99465 10.8499 5.07134 10.6937 5.10241C10.5375 5.13348 10.3756 5.11753 10.2285 5.05659C10.0814 4.99565 9.95562 4.89245 9.86714 4.76004C9.77867 4.62763 9.73145 4.47195 9.73145 4.31271C9.73145 4.09916 9.81628 3.89436 9.96728 3.74336C10.1183 3.59236 10.3231 3.50753 10.5366 3.50753C10.6959 3.50753 10.8515 3.55476 10.9839 3.64323Z" fill="#0F1621"/>
<path d="M11 10H10L13 15H15L11 10Z" fill="#0F1621"/>
<path d="M5.5 9H6.5L3 15H1L5.5 9Z" fill="#0F1621"/>
<path d="M7.75 10H8.25L8.5 11.5H7.5L7.75 10Z" fill="#0F1621"/>
<path d="M7.5 13H8.5L8.75 15H7.25L7.5 13Z" fill="#0F1621"/>
</svg>
