<svg width="24" height="24" viewBox="0 0 24 24" fill="none" xmlns="http://www.w3.org/2000/svg">
<path d="M13.7561 11.281L15.75 13.3333L17.744 11.281C19.9856 8.99184 20 7.56916 20 6.36406C20 3.95385 18.0858 2 15.7459 2C13.406 2 11.5 3.95385 11.5 6.36406C11.5 7.56916 11.5144 8.99184 13.7561 11.281ZM15.75 11.1807L14.8319 10.2358L14.8278 10.2316C13.8135 9.19576 13.3915 8.44631 13.1996 7.91026C13.01 7.38091 13 6.9506 13 6.36406C13 4.74438 14.2718 3.5 15.7459 3.5C17.2237 3.5 18.5 4.74818 18.5 6.36406C18.5 6.95061 18.49 7.38092 18.3004 7.91027C18.1085 8.44632 17.6865 9.19576 16.6722 10.2316L15.75 11.1807Z" fill="#0F1621"/>
<path d="M15.8019 5.55223C16.0275 5.55223 16.248 5.61913 16.4356 5.74447C16.6232 5.86981 16.7694 6.04795 16.8557 6.25638C16.942 6.46481 16.9646 6.69416 16.9206 6.91542C16.8766 7.13669 16.768 7.33994 16.6084 7.49946C16.4489 7.65899 16.2457 7.76762 16.0244 7.81164C15.8031 7.85565 15.5738 7.83306 15.3654 7.74673C15.1569 7.66039 14.9788 7.51419 14.8535 7.32661C14.7281 7.13903 14.6612 6.91849 14.6612 6.69289C14.6612 6.39037 14.7814 6.10024 14.9953 5.88632C15.2092 5.67241 15.4994 5.55223 15.8019 5.55223Z" fill="#0F1621"/>
<path d="M16.5 15H15L19.5 22H22L16.5 15Z" fill="#0F1621"/>
<path d="M9 13H10.25L4.5 22H2L9 13Z" fill="#0F1621"/>
<path d="M11.5 15H12.5L12.75 17H11.25C11.4453 15.6332 11.3047 16.3668 11.5 15Z" fill="#0F1621"/>
<path d="M11 19H13L13.25 22H10.75L11 19Z" fill="#0F1621"/>
</svg>
