<svg width="24" height="24" viewBox="0 0 24 24" fill="none" xmlns="http://www.w3.org/2000/svg">
<path d="M6.50606 11.281L8.5 13.3333L10.494 11.281C12.7356 8.99184 12.75 7.56916 12.75 6.36406C12.75 3.95385 10.8358 2 8.4959 2C6.156 2 4.25 3.95385 4.25 6.36406C4.25 7.56916 4.26439 8.99184 6.50606 11.281ZM8.5 11.1807L7.58192 10.2358L7.57779 10.2316C6.5635 9.19576 6.14155 8.44631 5.94957 7.91026C5.75999 7.38091 5.75 6.9506 5.75 6.36406C5.75 4.74438 7.02183 3.5 8.4959 3.5C9.97369 3.5 11.25 4.74818 11.25 6.36406C11.25 6.95061 11.24 7.38092 11.0504 7.91027C10.8585 8.44632 10.4365 9.19576 9.42222 10.2316L8.5 11.1807Z" fill="#0F1621"/>
<path d="M8.55188 5.55223C8.77748 5.55223 8.99801 5.61913 9.18559 5.74447C9.37317 5.86981 9.51938 6.04795 9.60571 6.25638C9.69204 6.46481 9.71463 6.69416 9.67062 6.91542C9.62661 7.13669 9.51797 7.33994 9.35844 7.49946C9.19892 7.65899 8.99567 7.76762 8.77441 7.81164C8.55314 7.85565 8.32379 7.83306 8.11536 7.74673C7.90694 7.66039 7.72879 7.51419 7.60345 7.32661C7.47811 7.13903 7.41121 6.91849 7.41121 6.69289C7.41121 6.39037 7.53139 6.10024 7.74531 5.88632C7.95922 5.67241 8.24935 5.55223 8.55188 5.55223Z" fill="#0F1621"/>
<path d="M7.5 15H9L4.5 22H2L7.5 15Z" fill="#0F1621"/>
<path d="M15 13H13.75L19.5 22H22L15 13Z" fill="#0F1621"/>
<path d="M12.5 15H11.5L11.25 17H12.75C12.5548 15.6332 12.6953 16.3668 12.5 15Z" fill="#0F1621"/>
<path d="M13 19H11L10.75 22H13.25L13 19Z" fill="#0F1621"/>
</svg>
