<svg width="24" height="24" viewBox="0 0 24 24" fill="none" xmlns="http://www.w3.org/2000/svg">
<path d="M7.5 15H9L4.5 22H2L7.5 15Z" fill="#0F1621"/>
<path d="M15 13H13.75L19.5 22H22L15 13Z" fill="#0F1621"/>
<path d="M12.5 15H11.5L11.25 17H12.75C12.5547 15.6332 12.6953 16.3668 12.5 15Z" fill="#0F1621"/>
<path d="M13 19H11L10.75 22H13.25L13 19Z" fill="#0F1621"/>
<path d="M6.43971 11.0081L8.375 13L10.3103 11.0081C12.486 8.78619 12.5 7.40536 12.5 6.23571C12.5 3.89638 10.6421 2 8.37102 2C6.09995 2 4.25 3.89638 4.25 6.23571C4.25 7.40536 4.26397 8.78619 6.43971 11.0081ZM9.04035 5.63441C9.22241 5.75606 9.36431 5.92897 9.44811 6.13127C9.5319 6.33356 9.55383 6.55617 9.51111 6.77093C9.46839 6.98568 9.36295 7.18295 9.20812 7.33779C9.05328 7.49262 8.85602 7.59806 8.64126 7.64078C8.4265 7.6835 8.20389 7.66157 8.0016 7.57778C7.7993 7.49398 7.62639 7.35208 7.50474 7.17002C7.38309 6.98795 7.31816 6.7739 7.31816 6.55494C7.31816 6.26131 7.4348 5.97972 7.64242 5.77209C7.85005 5.56447 8.13165 5.44783 8.42527 5.44783C8.64424 5.44783 8.85828 5.51276 9.04035 5.63441Z" fill="#0F1621"/>
</svg>
