<svg width="16" height="16" viewBox="0 0 16 16" fill="none" xmlns="http://www.w3.org/2000/svg">
<path d="M4.09251 7.55132L5.5 9L6.9075 7.55132C8.48985 5.93541 8.5 4.93117 8.5 4.08051C8.5 2.37919 7.1488 1 5.49711 1C3.84541 1 2.5 2.37919 2.5 4.08051C2.5 4.93117 2.51016 5.93541 4.09251 7.55132ZM5.98395 3.64323C6.11636 3.7317 6.21956 3.85745 6.2805 4.00458C6.34144 4.15171 6.35739 4.3136 6.32632 4.46979C6.29525 4.62598 6.21857 4.76944 6.10596 4.88205C5.99336 4.99465 5.84989 5.07134 5.6937 5.10241C5.53751 5.13348 5.37562 5.11753 5.22849 5.05659C5.08137 4.99565 4.95562 4.89245 4.86714 4.76004C4.77867 4.62763 4.73145 4.47195 4.73145 4.31271C4.73145 4.09916 4.81628 3.89436 4.96728 3.74336C5.11827 3.59236 5.32307 3.50753 5.53662 3.50753C5.69587 3.50753 5.85154 3.55476 5.98395 3.64323Z" fill="#0F1621"/>
<path d="M5 10H6L3 15H1L5 10Z" fill="#0F1621"/>
<path d="M10.5 9H9.5L13 15H15L10.5 9Z" fill="#0F1621"/>
<path d="M8.25 10H7.75L7.5 11.5H8.5L8.25 10Z" fill="#0F1621"/>
<path d="M8.5 13H7.5L7.25 15H8.75L8.5 13Z" fill="#0F1621"/>
</svg>
