<svg width="24" height="24" viewBox="0 0 24 24" fill="none" xmlns="http://www.w3.org/2000/svg">
<path d="M5 2H7V4.5L5 6.5V2Z" fill="#0E1520"/>
<path d="M5 9L7 11V22H5V9Z" fill="#0E1520"/>
<path d="M13 16L11 14V22H13V16Z" fill="#0E1520"/>
<path d="M13 5.91423V10.1716C13 10.4368 13.1054 10.6911 13.2929 10.8787L18.1213 15.7071C18.6839 16.2697 19 17.0328 19 17.8284V22H17V17.8284C17 17.5632 16.8946 17.3089 16.7071 17.1213L11.8787 12.2929C11.3161 11.7303 11 10.9672 11 10.1716V5.91426L7.70712 9.20714L6.29291 7.79292L12 2.08582L17.7071 7.79292L16.2929 9.20714L13 5.91423Z" fill="#0E1520"/>
</svg>
