<svg width="16" height="16" viewBox="0 0 16 16" fill="none" xmlns="http://www.w3.org/2000/svg">
<path d="M8 0.939331L12.5303 5.46966L11.4697 6.53032L8.75 3.81066L8.75 7C8.75 7.32837 8.87921 7.64342 9.10947 7.87718L11.937 10.5479L11.9445 10.5555C12.4603 11.0712 12.75 11.7707 12.75 12.5V15H11.25V12.5C11.25 12.1716 11.1208 11.8566 10.8905 11.6228L8.06302 8.9521L8.05546 8.94454C7.53973 8.42882 7.25 7.72935 7.25 7L7.25 3.81065L4.53033 6.53032L3.46967 5.46966L8 0.939331Z" fill="#0E1520"/>
<path d="M4.75 8.5L3.25 7V15H4.75V8.5Z" fill="#0E1520"/>
<path d="M3.25 1H4.75V2.5L3.25 4V1Z" fill="#0E1520"/>
<path d="M8.75 12.5L7.25 11V15H8.75V12.5Z" fill="#0E1520"/>
</svg>
