<svg width="16" height="16" viewBox="0 0 16 16" fill="none" xmlns="http://www.w3.org/2000/svg">
<path d="M8 0.939331L3.46968 5.46966L4.53033 6.53032L7.25 3.81066L7.25 7C7.25 7.32837 7.12079 7.64342 6.89053 7.87718L4.06302 10.5479L4.05546 10.5555C3.53973 11.0712 3.25 11.7707 3.25 12.5V15H4.75V12.5C4.75 12.1716 4.87921 11.8566 5.10946 11.6228L7.93698 8.9521L7.94454 8.94454C8.46027 8.42882 8.75 7.72935 8.75 7L8.75 3.81065L11.4697 6.53032L12.5303 5.46966L8 0.939331Z" fill="#0E1520"/>
<path d="M11.25 8.5L12.75 7V15H11.25V8.5Z" fill="#0E1520"/>
<path d="M12.75 1H11.25V2.5L12.75 4V1Z" fill="#0E1520"/>
<path d="M7.25 12.5L8.75 11V15H7.25V12.5Z" fill="#0E1520"/>
</svg>
