<svg width="24" height="25" viewBox="0 0 24 25" fill="none" xmlns="http://www.w3.org/2000/svg">
<path d="M17 2.5H19V7L17 5V2.5Z" fill="#0E1520"/>
<path d="M17 11.5L19 9.5V22.5H17V11.5Z" fill="#0E1520"/>
<path d="M13 14.5L11 16.5V22.5H13V14.5Z" fill="#0E1520"/>
<path d="M12 2.58582L6.29289 8.29292L7.70711 9.70714L11 6.41424V10.6716C11 10.9368 10.8946 11.1911 10.7071 11.3787L5.87868 16.2071C5.31607 16.7697 5 17.5328 5 18.3284V22.5H7V18.3284C7 18.0632 7.10536 17.8089 7.29289 17.6213L12.1213 12.7929C12.6839 12.2303 13 11.4672 13 10.6716V6.41424L16.2929 9.70714L17.7071 8.29292L12 2.58582Z" fill="#0E1520"/>
</svg>
