<svg width="16" height="16" viewBox="0 0 16 16" fill="none" xmlns="http://www.w3.org/2000/svg">
<path d="M3 1H5V2L3 4V1Z" fill="#0E1520"/>
<path d="M8.00001 1.08582L12.7071 5.79292L11.2929 7.20714L9 4.91423V7.17157C9 7.43679 9.10536 7.69114 9.29289 7.87868L12.1213 10.7071C12.6839 11.2697 13 12.0328 13 12.8284V15H11V12.8284C11 12.5632 10.8946 12.3089 10.7071 12.1213L7.87868 9.29289C7.31607 8.73028 7 7.96722 7 7.17157V4.91426L4.70712 7.20714L3.29291 5.79292L8.00001 1.08582Z" fill="#0E1520"/>
<path d="M5 10L3 8V15H5V10Z" fill="#0E1520"/>
<path d="M9 13L7 11V15H9V13Z" fill="#0E1520"/>
</svg>
