<svg width="16" height="17" viewBox="0 0 16 17" fill="none" xmlns="http://www.w3.org/2000/svg">
<path d="M11 1.5H13V4.5L11 2.5V1.5Z" fill="#0E1520"/>
<path d="M9 5.41424V7.67157C9 8.46722 8.68393 9.23028 8.12132 9.79289L5.29289 12.6213C5.10536 12.8089 5 13.0632 5 13.3284L5 15.5H3V13.3284C3 12.5328 3.31607 11.7697 3.87868 11.2071L6.70711 8.37868C6.89464 8.19114 7 7.93679 7 7.67157V5.41424L4.70711 7.70714L3.29289 6.29292L8 1.58582L12.7071 6.29292L11.2929 7.70714L9 5.41424Z" fill="#0E1520"/>
<path d="M13 8.5L11 10.5V15.5H13V8.5Z" fill="#0E1520"/>
<path d="M9 11.5L7 13.5V15.5H9V11.5Z" fill="#0E1520"/>
</svg>
