<svg width="24" height="25" viewBox="0 0 24 25" fill="none" xmlns="http://www.w3.org/2000/svg">
<path d="M17 2.5H19V7L17 5V2.5Z" fill="#0E1520"/>
<path d="M13 6.41424V10.6716C13 11.4672 12.6839 12.2303 12.1213 12.7929L7.29289 17.6213C7.10536 17.8089 7 18.0632 7 18.3284V22.5H5V18.3284C5 17.5328 5.31607 16.7697 5.87868 16.2071L10.7071 11.3787C10.8946 11.1911 11 10.9368 11 10.6716V6.41424L7.70711 9.70714L6.29289 8.29292L12 2.58582L17.7071 8.29292L16.2929 9.70714L13 6.41424Z" fill="#0E1520"/>
<path d="M19 9.5L17 11.5V22.5H19V9.5Z" fill="#0E1520"/>
<path d="M13 14.5L11 16.5V22.5H13V14.5Z" fill="#0E1520"/>
</svg>
