<svg width="16" height="16" viewBox="0 0 16 16" fill="none" xmlns="http://www.w3.org/2000/svg">
<path d="M1.25 1.25H6.99999V2.75L3.81312 2.75L4.04177 2.97792C4.63134 3.56583 5.38788 4.32057 6.05545 4.98763C6.56234 5.49414 6.49361 6.2294 6.16613 6.68823C5.53924 7.56654 5.6208 8.79548 6.40899 9.58368C6.75605 9.93073 7.18443 10.1427 7.62849 10.2185C8.18318 10.3131 8.74999 10.7846 8.74999 11.5L8.75 15L7.25 15L7.24999 11.6734C6.55092 11.5291 5.88649 11.1825 5.34833 10.6443C4.06524 9.36124 3.9067 7.38103 4.87105 5.92466C4.2357 5.28994 3.53576 4.59167 2.98261 4.04009L2.75 3.80822L2.75001 7.00001L1.25001 7.00001L1.25 1.25Z" fill="#0E1520"/>
<path d="M8.00002 5.74271C8.57701 5.74271 9.15153 5.96224 9.59101 6.40172C10.4697 7.2804 10.4697 8.70503 9.59101 9.5837L10.6517 10.6444C12.1161 9.1799 12.1161 6.80553 10.6517 5.34106C9.91959 4.60898 8.95857 4.24271 8.00002 4.24271V5.74271Z" fill="#0E1520"/>
</svg>
