<svg width="16" height="16" viewBox="0 0 16 16" fill="none" xmlns="http://www.w3.org/2000/svg">
<path d="M9.9696 2.03039L12.1893 4.25011L8.99999 4.25011C8.94412 4.25011 8.87082 4.2293 8.78127 4.14839C8.68733 4.06351 8.59888 3.93037 8.54434 3.77284C8.03632 2.3055 6.64238 1.25012 5 1.25012C2.92893 1.25012 1.25 2.92905 1.25 5.00012C1.25 6.6425 2.30537 8.03645 3.77272 8.54446C3.93025 8.599 4.06339 8.68746 4.14827 8.7814C4.22918 8.87094 4.24999 8.94424 4.24999 9.00011V15.0001H5.74999V9.00011C5.74999 7.99765 4.94214 7.36198 4.26346 7.12701C3.38154 6.82168 2.75 5.98369 2.75 5.00012C2.75 3.75748 3.75736 2.75012 5 2.75012C5.98357 2.75012 6.82155 3.38166 7.12689 4.26359C7.36186 4.94226 7.99753 5.75011 8.99999 5.75011L12.1892 5.75011L9.9696 7.96973L11.0303 9.03039L15.0606 5.00006L11.0303 0.969727L9.9696 2.03039Z" fill="#0E1520"/>
<path d="M6.1457 6.93701C6.46183 6.74949 6.72848 6.4865 6.92042 6.17322L8.19946 6.95684C7.88011 7.47808 7.43716 7.91499 6.91096 8.22712L6.1457 6.93701Z" fill="#0E1520"/>
</svg>
