<svg width="24" height="24" viewBox="0 0 24 24" fill="none" xmlns="http://www.w3.org/2000/svg">
<path d="M6.99999 4C5.34314 4 4 5.34314 4 6.99999C4 8.39924 4.95888 9.57704 6.25683 9.90748C7.08541 10.1184 8 10.8523 8 12L7.99999 22H5.99999L6 12.0012L5.99957 12.0001C5.99777 11.9959 5.99097 11.9821 5.97239 11.9621C5.93164 11.9181 5.85735 11.8696 5.76341 11.8457C3.60064 11.2951 2 9.33571 2 6.99999C2 4.23857 4.23857 2 6.99999 2C9.3357 2 11.2951 3.60063 11.8457 5.7634C11.8696 5.85734 11.9182 5.93164 11.9621 5.97238C11.9821 5.99096 11.9959 5.99776 12.0001 5.99956L12.0012 5.99999L17.5858 5.99999L15.2929 3.70706L16.7071 2.29285L21.4142 6.99995L16.7071 11.7071L15.2929 10.2928L17.5858 7.99999L12 7.99999C10.8523 7.99999 10.1184 7.0854 9.90749 6.25682C9.57706 4.95888 8.39925 4 6.99999 4Z" fill="#0E1520"/>
<path d="M9.59926 8.49927C9.33559 8.95507 8.95507 9.33559 8.49927 9.59926L9.50072 11.3305C10.2594 10.8916 10.8916 10.2594 11.3305 9.50072L9.59926 8.49927Z" fill="#0E1520"/>
</svg>
