<svg width="16" height="16" viewBox="0 0 16 16" fill="none" xmlns="http://www.w3.org/2000/svg">
<path d="M14.75 1.25L14.75 7L13.25 7L13.25 3.82083L11.3811 5.70448C10.6698 6.42143 9.6395 6.29761 8.98973 5.97866C8.69193 5.83248 8.35666 5.75004 8 5.75004C6.75736 5.75004 5.75 6.7574 5.75 8.00004C5.75 8.98361 6.38155 9.8216 7.26348 10.1269C7.94215 10.3619 8.75 10.9976 8.75 12L8.75 15L7.25 15L7.25 12C7.25 11.9442 7.2292 11.8709 7.14828 11.7813C7.0634 11.6874 6.93026 11.5989 6.77273 11.5444C5.30539 11.0364 4.25 9.64243 4.25 8.00004C4.25 5.92897 5.92893 4.25004 8 4.25004C8.59082 4.25004 9.15173 4.38721 9.65069 4.63214C9.80122 4.70603 9.9594 4.73832 10.0873 4.73191C10.2092 4.7258 10.2765 4.6881 10.3163 4.648L12.1994 2.75L9 2.75V1.25L14.75 1.25Z" fill="#0E1520"/>
<path d="M10.25 8C10.25 8.83187 9.79893 9.55928 9.12445 9.94945L9.87554 11.2479C10.9945 10.6006 11.75 9.38897 11.75 8H10.25Z" fill="#0E1520"/>
</svg>
