<svg width="16" height="16" viewBox="0 0 16 16" fill="none" xmlns="http://www.w3.org/2000/svg">
<path fill-rule="evenodd" clip-rule="evenodd" d="M3.09835 2.34835C4.56282 0.883883 6.93718 0.883884 8.40165 2.34835C9.56299 3.50969 9.80239 5.24162 9.12405 6.63842C9.05123 6.78837 9.01963 6.94506 9.02603 7.07151C9.03214 7.19205 9.06926 7.25859 9.10876 7.29809L12.5 10.6893V7.49999H14V13.25L8.25006 13.25L8.25005 11.75L11.4394 11.75L8.04811 8.35876C7.33926 7.64992 7.461 6.62919 7.77475 5.98314C8.18246 5.14361 8.03647 4.10449 7.34099 3.40901C6.46231 2.53033 5.03769 2.53033 4.15901 3.40901C3.28033 4.28769 3.28033 5.71231 4.15901 6.59099C4.41046 6.84244 4.70482 7.0209 5.0177 7.12821C5.70037 7.36236 6.51232 8.00096 6.51055 9.00714L6.50003 15.0013L5.00003 14.9986L5.01055 9.00451C5.01065 8.94822 4.98973 8.87437 4.90829 8.78432C4.82289 8.68989 4.68902 8.60126 4.53105 8.54708C4.00679 8.36726 3.51487 8.06817 3.09835 7.65165C1.63388 6.18719 1.63388 3.81282 3.09835 2.34835Z" fill="#0E1520"/>
</svg>
