<svg width="24" height="24" viewBox="0 0 24 24" fill="none" xmlns="http://www.w3.org/2000/svg">
<path d="M12 7C12 5.34315 13.3431 4 15 4C16.6569 4 18 5.34315 18 7C18 7.89588 17.6086 8.69909 16.9841 9.25026L18.3076 10.7497C19.3439 9.83502 20 8.49351 20 7C20 4.23858 17.7614 2 15 2C12.2386 2 10 4.23858 10 7C10 7.2108 10.0131 7.41899 10.0386 7.62374L12.0233 7.37626C12.0079 7.25341 12 7.12786 12 7Z" fill="#0E1520"/>
<path d="M12.2798 11.3612L7.47537 16H12V18H4V10H6V14.6444L10.8913 9.92182C11.6668 9.17299 12.7545 9.258 13.471 9.62754C13.7069 9.74924 13.9671 9.84546 14.2389 9.90963C15.0906 10.1107 16 10.8564 16 12L16 22H14L14 12.0005L13.9994 11.9989C13.9975 11.9945 13.991 11.9813 13.9734 11.9625C13.935 11.921 13.8656 11.8765 13.7793 11.8561C13.3527 11.7554 12.9385 11.6033 12.5541 11.405C12.4705 11.3619 12.3867 11.3477 12.3289 11.3513C12.3023 11.353 12.2875 11.358 12.2823 11.3601L12.2798 11.3612Z" fill="#0E1520"/>
</svg>
