<svg width="16" height="16" viewBox="0 0 16 16" fill="none" xmlns="http://www.w3.org/2000/svg">
<path d="M0.939331 5.00006L4.96966 9.03039L6.03032 7.96973L3.81059 5.75H7.32512C7.62377 7.21993 8.78008 8.3762 10.25 8.67484V15H11.75V8.5C11.75 7.78433 11.1825 7.31213 10.6257 7.21912C9.68359 7.06176 8.9382 6.31638 8.78084 5.37434C8.68783 4.81754 8.21563 4.25 7.49996 4.25H3.81071L6.03032 2.03039L4.96966 0.969727L0.939331 5.00006Z" fill="#0E1520"/>
<path d="M9.32272 3.50019C9.73578 3.03868 10.3337 2.75 11 2.75C12.2426 2.75 13.25 3.75736 13.25 5C13.25 5.57675 13.034 6.10125 12.6772 6.49981L13.7949 7.50019C14.3883 6.83724 14.75 5.95996 14.75 5C14.75 2.92893 13.071 1.25 11 1.25C9.88928 1.25 8.8906 1.73383 8.20502 2.49981L9.32272 3.50019Z" fill="#0E1520"/>
</svg>
