<svg width="24" height="24" viewBox="0 0 24 24" fill="none" xmlns="http://www.w3.org/2000/svg">
<path d="M12 5C11.2385 5 10.5454 5.28243 10.0159 5.74974L8.69244 4.25026C9.57326 3.47284 10.7326 3 12 3C14.7614 3 17 5.23858 17 8C17 9.49351 16.3439 10.835 15.3076 11.7497L13.9841 10.2503C14.6086 9.69909 15 8.89588 15 8C15 6.34315 13.6569 5 12 5Z" fill="#0E1520"/>
<path d="M8.57085 9.55822C9.29765 10.4311 10.2561 11.1553 11.2533 11.4051C12.0897 11.6148 13 12.355 13 13.4994L12.9999 22L10.9999 22L11 13.5001L10.9993 13.4982C10.9972 13.4934 10.9902 13.4794 10.9717 13.4593C10.931 13.4154 10.858 13.3679 10.7671 13.3452C9.22364 12.9584 7.92701 11.9106 7.03388 10.838C7.02253 10.8243 7.01124 10.8107 7 10.797L7 15H5V7L12.5 7V9L8.15193 9C8.27603 9.18463 8.41609 9.37235 8.57085 9.55822Z" fill="#0E1520"/>
</svg>
