<svg width="16" height="16" viewBox="0 0 16 16" fill="none" xmlns="http://www.w3.org/2000/svg">
<path d="M6.32272 3.50019C6.73578 3.03868 7.33367 2.75 7.99998 2.75C9.24262 2.75 10.25 3.75736 10.25 5C10.25 5.6663 9.9613 6.26419 9.49979 6.67726L10.5002 7.79496C11.2661 7.10938 11.75 6.1107 11.75 5C11.75 2.92893 10.071 1.25 7.99998 1.25C6.88928 1.25 5.8906 1.73383 5.20502 2.49981L6.32272 3.50019Z" fill="#0E1520"/>
<path d="M3.25 4.25L8 4.25V5.75L5.87808 5.75C6.1468 6.51015 6.81236 7.08327 7.62566 7.21912C8.18246 7.31213 8.75 7.78433 8.75 8.5L8.75 15H7.25L7.25 8.67484C6.18157 8.45773 5.27816 7.78696 4.75 6.87217L4.75 9H3.25V4.25Z" fill="#0E1520"/>
</svg>
