<svg width="24" height="24" viewBox="0 0 24 24" fill="none" xmlns="http://www.w3.org/2000/svg">
<path d="M6 7C6 5.34315 7.34315 4 9 4C10.6569 4 12 5.34315 12 7C12 7.58505 11.8295 8.17781 11.5363 8.67129C11.0916 9.42003 10.9601 10.6279 11.8118 11.4455L16.556 16L12 16V18L20 18V10H18V14.6138L13.1971 10.003L13.1957 10C13.1932 9.99387 13.1873 9.97641 13.186 9.94502C13.183 9.8764 13.2035 9.78087 13.2558 9.69274C13.7252 8.90251 14 7.95865 14 7C14 4.23858 11.7614 2 9 2C6.23858 2 4 4.23858 4 7C4 9.33571 5.60063 11.2951 7.7634 11.8457C7.85734 11.8696 7.93164 11.9181 7.97239 11.9621C7.99096 11.9821 7.99776 11.9959 7.99956 12.0001L7.99999 12.0012L7.99999 22H9.99999L9.99999 12C9.99999 10.8523 9.08541 10.1184 8.25682 9.90748C6.95888 9.57705 6 8.39925 6 7Z" fill="#0E1520"/>
</svg>
