<svg width="16" height="16" viewBox="0 0 16 16" fill="none" xmlns="http://www.w3.org/2000/svg">
<path d="M11.5303 4.46966L8 0.939331L4.46967 4.46966L5.53033 5.53032L7.25 3.81065L7.25 6C7.25 6.05274 7.23036 6.12808 7.14221 6.22769C7.05025 6.3316 6.90604 6.43319 6.73391 6.50605C5.56936 6.99899 4.75 8.15295 4.75 9.5C4.75 10.8471 5.56936 12.001 6.73391 12.4939C6.90604 12.5668 7.05025 12.6684 7.14221 12.7723C7.23036 12.8719 7.25 12.9473 7.25 13L7.25 15H8.75L8.75 13C8.75 11.9975 7.93513 11.3736 7.31861 11.1126C6.68925 10.8462 6.25 10.2235 6.25 9.5C6.25 8.77647 6.68925 8.1538 7.31861 7.8874C7.93513 7.62644 8.75 7.00252 8.75 6L8.75 3.81066L10.4697 5.53032L11.5303 4.46966Z" fill="#0E1520"/>
<path d="M9.04957 10.9005C9.47631 10.58 9.75 10.072 9.75 9.5C9.75 8.92807 9.47633 8.42026 9.04954 8.09965L9.95046 6.90034C10.738 7.49195 11.25 8.43619 11.25 9.5C11.25 10.5638 10.7381 11.5082 9.95043 12.0999L9.04957 10.9005Z" fill="#0E1520"/>
</svg>
