<svg width="24" height="24" viewBox="0 0 24 24" fill="none" xmlns="http://www.w3.org/2000/svg">
<path d="M10 4L5.41427 4L9.17275 7.7585C9.98543 8.57118 9.85434 9.73621 9.41861 10.4696C8.73447 11.621 8.88927 13.1319 9.87869 14.1213C10.2753 14.5179 10.7526 14.7789 11.2568 14.9071C12.0863 15.1181 13 15.8529 13 17L13 22H11L11 17.0011L10.9995 16.9998C10.9977 16.9955 10.9908 16.9817 10.9723 16.9616C10.9315 16.9176 10.8574 16.8692 10.7638 16.8454C9.92061 16.6309 9.12235 16.1934 8.46448 15.5355C6.81288 13.8839 6.55923 11.3666 7.69921 9.44798C7.74924 9.36378 7.76737 9.27674 7.76519 9.21739C7.76419 9.19037 7.75937 9.17623 7.75778 9.17231L4 5.41416L4 10H2V2H10V4Z" fill="#0E1520"/>
<path d="M12 9C12.7693 9 13.5353 9.2927 14.1213 9.87868C15.2929 11.0502 15.2929 12.9497 14.1213 14.1213L15.5355 15.5355C17.4882 13.5829 17.4882 10.4171 15.5355 8.46446C14.5594 7.48835 13.2781 7 12 7L12 9Z" fill="#0E1520"/>
</svg>
