<svg width="24" height="24" viewBox="0 0 24 24" fill="none" xmlns="http://www.w3.org/2000/svg">
<path d="M12 2.08582L7.29288 6.79292L8.70709 8.20714L11 5.91423L11 8.9988L10.9996 8.99986C10.9978 9.00413 10.991 9.01786 10.9724 9.0379C10.9316 9.08185 10.8573 9.13042 10.7634 9.15434C8.60064 9.70493 7 11.6643 7 14C7 16.3357 8.60064 18.2951 10.7634 18.8457C10.8573 18.8696 10.9316 18.9181 10.9724 18.9621C10.991 18.9821 10.9978 18.9959 10.9996 19.0001L11 19.0012L11 22H13L13 19C13 17.8523 12.0854 17.1184 11.2568 16.9075C9.95888 16.5771 9 15.3993 9 14C9 12.6008 9.95888 11.4229 11.2568 11.0925C12.0854 10.8816 13 10.1477 13 9L13 5.91426L15.2929 8.20714L16.7071 6.79292L12 2.08582Z" fill="#0E1520"/>
<path d="M13.9841 11.7497C14.6085 12.3009 15 13.1041 15 14C15 14.8959 14.6085 15.6991 13.9841 16.2502L15.3075 17.7497C16.3439 16.835 17 15.4935 17 14C17 12.5065 16.3439 11.165 15.3075 10.2502L13.9841 11.7497Z" fill="#0E1520"/>
</svg>
