<svg width="24" height="24" viewBox="0 0 24 24" fill="none" xmlns="http://www.w3.org/2000/svg">
<path d="M2.08582 7.99995L7.79292 13.7071L9.20714 12.2928L5.91429 9L12.0008 9C12.0046 9.00164 12.0186 9.00846 12.0384 9.02681C12.0818 9.06711 12.1304 9.14135 12.1545 9.23621C12.369 10.0794 12.8066 10.8777 13.4644 11.5355C14.1222 12.1934 14.9194 12.6314 15.7629 12.8459C15.8568 12.8697 15.9312 12.9183 15.9721 12.9624C15.9907 12.9825 15.9976 12.9963 15.9995 13.0007L15.9999 13.0019L15.9999 22L17.9999 22L17.9999 13.0008C17.9999 11.8529 17.0851 11.1184 16.2557 10.9075C15.7527 10.7796 15.2761 10.5188 14.8786 10.1213C14.4821 9.72475 14.2211 9.24745 14.0928 8.74324C13.8825 7.91622 13.1514 7 12.0021 7L5.9142 7L9.20714 3.70706L7.79292 2.29285L2.08582 7.99995Z" fill="#0E1520"/>
<path d="M14.8787 5.87869C16.0503 4.70712 17.9498 4.70712 19.1213 5.87869C20.2929 7.05026 20.2929 8.94976 19.1213 10.1213L20.5355 11.5355C22.4882 9.58292 22.4882 6.4171 20.5355 4.46448C18.5829 2.51186 15.4171 2.51186 13.4645 4.46448L14.8787 5.87869Z" fill="#0E1520"/>
</svg>
