<svg width="24" height="24" viewBox="0 0 24 24" fill="none" xmlns="http://www.w3.org/2000/svg">
<path d="M14 4H18.5857L14.8293 7.75646L14.8282 7.75691C14.8239 7.75865 14.8094 7.76355 14.7821 7.76458C14.7222 7.76685 14.6353 7.74866 14.552 7.69914C12.6334 6.55917 10.1161 6.81281 8.46447 8.46441C6.51185 10.417 6.51184 13.5829 8.46447 15.5355C9.12234 16.1934 9.92058 16.6309 10.7638 16.8454C10.8573 16.8692 10.9315 16.9176 10.9722 16.9616C10.9908 16.9816 10.9976 16.9954 10.9995 16.9998L11 17.001L11 21.9999H13L13 16.9999C13 15.8528 12.0863 15.118 11.2567 14.9071C10.7525 14.7788 10.2752 14.5178 9.87868 14.1213C8.70711 12.9497 8.70711 11.0502 9.87868 9.87863C10.8681 8.88921 12.379 8.7344 13.5304 9.41854C14.2655 9.85529 15.4311 9.98309 16.2426 9.17152L20 5.41416V9.99997H22V2H14V4Z" fill="#0E1520"/>
<path d="M14.9055 11.2493C14.967 11.4881 15 11.7395 15 12C15 13.1092 14.3986 14.079 13.4993 14.5993L14.5007 16.3305C15.9926 15.4675 17 13.852 17 12C17 11.5699 16.9455 11.1511 16.8424 10.7507L14.9055 11.2493Z" fill="#0E1520"/>
</svg>
