<svg width="16" height="16" viewBox="0 0 16 16" fill="none" xmlns="http://www.w3.org/2000/svg">
<path d="M10.2535 2.75C9.0109 2.75 8.00354 3.75736 8.00354 5H6.50354C6.50354 2.92893 8.18247 1.25 10.2535 1.25C12.3246 1.25 14.0035 2.92893 14.0035 5C14.0035 6.1107 13.5197 7.10938 12.7537 7.79496L11.7534 6.67726C12.2149 6.26419 12.5035 5.6663 12.5035 5C12.5035 3.75736 11.4962 2.75 10.2535 2.75Z" fill="#0E1520"/>
<path d="M3.50354 10.6504V7.5H2.00354V13.25H7.75354V11.75H4.52769L8.06057 8.04203C8.48263 8.34637 8.9708 8.56457 9.50001 8.67167L9.50001 14.9964H11L11 8.49645C11 7.78101 10.4328 7.30836 9.87506 7.21575C9.50147 7.15372 9.16007 6.99993 8.8731 6.77682C8.40661 6.41416 7.62335 6.32639 7.10099 6.87464L3.50354 10.6504Z" fill="#0E1520"/>
</svg>
