<svg width="24" height="25" viewBox="0 0 24 25" fill="none" xmlns="http://www.w3.org/2000/svg">
<path d="M17.7071 7.79292L12 2.08582L6.29285 7.79292L7.70706 9.20714L11 5.9142V9.75736C11 10.2878 10.7893 10.7965 10.4142 11.1716L5.87868 15.7071C5.31607 16.2697 5 17.0328 5 17.8284V22H7V17.8284C7 17.5632 7.10536 17.3089 7.29289 17.1213L11.8284 12.5858C11.8877 12.5265 11.9449 12.4656 12 12.4031C12.0551 12.4656 12.1123 12.5265 12.1716 12.5858L16.7071 17.1213C16.8946 17.3089 17 17.5632 17 17.8284V22H19V17.8284C19 17.0328 18.6839 16.2697 18.1213 15.7071L13.5858 11.1716C13.2107 10.7965 13 10.2878 13 9.75736V5.91429L16.2928 9.20714L17.7071 7.79292Z" fill="#0E1520"/>
</svg>
