<svg width="16" height="16" viewBox="0 0 16 16" fill="none" xmlns="http://www.w3.org/2000/svg">
<path d="M12.0304 4.96966L8.00006 0.939331L3.96973 4.96966L5.03039 6.03032L7.25 3.81071V6.67157C7.25 7.00309 7.1183 7.32104 6.88388 7.55546L4.05546 10.3839C3.53973 10.8996 3.25 11.5991 3.25 12.3284V15H4.75V12.3284C4.75 11.9969 4.8817 11.679 5.11612 11.4445L7.94454 8.61612C7.96333 8.59733 7.98182 8.5783 8 8.55903C8.01818 8.5783 8.03667 8.59733 8.05546 8.61612L10.8839 11.4445C11.1183 11.679 11.25 11.9969 11.25 12.3284V15H12.75V12.3284C12.75 11.5991 12.4603 10.8996 11.9445 10.3839L9.11612 7.55546C8.8817 7.32104 8.75 7.00309 8.75 6.67157V3.81059L10.9697 6.03032L12.0304 4.96966Z" fill="#0E1520"/>
</svg>
