<svg width="24" height="24" viewBox="0 0 24 24" fill="none" xmlns="http://www.w3.org/2000/svg">
<path d="M4 14.7012C4.00009 14.0201 4.23176 13.359 4.65723 12.8271L7.78125 8.92285C7.92284 8.7457 7.99991 8.52561 8 8.29883V2H10V8.29883C9.99991 8.9799 9.76824 9.64101 9.34277 10.1729L6.21875 14.0771C6.07716 14.2543 6.00009 14.4744 6 14.7012V22H4V14.7012Z" fill="black"/>
<path d="M20 14.7012C19.9999 14.0201 19.7682 13.359 19.3428 12.8271L16.2188 8.92285C16.0772 8.7457 16.0001 8.52561 16 8.29883V2H14V8.29883C14.0001 8.9799 14.2318 9.64101 14.6572 10.1729L17.7812 14.0771C17.9228 14.2543 17.9999 14.4744 18 14.7012V22H20V14.7012Z" fill="black"/>
</svg>
