<svg width="16" height="16" viewBox="0 0 16 16" fill="none" xmlns="http://www.w3.org/2000/svg">
<path d="M2 10.667C2 10.0179 2.21014 9.3855 2.59961 8.86621L4.7998 5.93359C4.92963 5.7605 5 5.54938 5 5.33301V1H7V5.33301C7 5.98212 6.78986 6.6145 6.40039 7.13379L4.2002 10.0664C4.07037 10.2395 4 10.4506 4 10.667V15H2V10.667Z" fill="black"/>
<path d="M14 10.667C14 10.0179 13.7899 9.3855 13.4004 8.86621L11.2002 5.93359C11.0704 5.7605 11 5.54938 11 5.33301V1H9V5.33301C9 5.98212 9.21014 6.6145 9.59961 7.13379L11.7998 10.0664C11.9296 10.2395 12 10.4506 12 10.667V15H14V10.667Z" fill="black"/>
</svg>
