<svg width="24" height="25" viewBox="0 0 24 25" fill="none" xmlns="http://www.w3.org/2000/svg">
<path d="M10.2929 7.29292L15 2.58582L19.7071 7.29292L18.2929 8.70714L16 6.41424L16 9.5C16 11.1569 14.6569 12.5 13 12.5H8C7.44772 12.5 7 12.9477 7 13.5L7 17.5C7 18.0523 7.44771 18.5 8 18.5H13C14.6569 18.5 16 19.8431 16 21.5V22.5H14V21.5C14 20.9477 13.5523 20.5 13 20.5L8 20.5C6.34315 20.5 5 19.1569 5 17.5V13.5C5 11.8431 6.34315 10.5 8 10.5H13C13.5523 10.5 14 10.0523 14 9.5L14 6.41425L11.7071 8.70714L10.2929 7.29292Z" fill="#0E1520"/>
<path d="M14 13.7397V17.2603C14.7949 17.3259 15.5019 17.7013 16 18.2656V12.7344C15.5019 13.2987 14.7949 13.6742 14 13.7397Z" fill="#0E1520"/>
</svg>
