<svg width="16" height="17" viewBox="0 0 16 17" fill="none" xmlns="http://www.w3.org/2000/svg">
<path d="M10 1.43933L6.96967 4.46966L8.03033 5.53032L9.25006 4.3106L9.25006 6.5C9.25006 6.63807 9.13813 6.75 9.00006 6.75L5.00006 6.75C4.03356 6.75 3.25006 7.5335 3.25006 8.5V12.5C3.25006 13.4665 4.03356 14.25 5.00006 14.25H9.00006C9.13813 14.25 9.25006 14.3619 9.25006 14.5V15.5H10.7501V14.5C10.7501 13.5335 9.96656 12.75 9.00006 12.75H5.00006C4.86199 12.75 4.75006 12.6381 4.75006 12.5V8.5C4.75006 8.36193 4.86199 8.25 5.00006 8.25L9.00006 8.25C9.96656 8.25 10.7501 7.4665 10.7501 6.5L10.7501 4.31071L11.9697 5.53032L13.0303 4.46966L10 1.43933Z" fill="#0E1520"/>
<path d="M9.5 8.99998H9.25V12H9.5C9.98967 12 10.4324 12.2011 10.75 12.5252V8.47473C10.4324 8.79887 9.98967 8.99998 9.5 8.99998Z" fill="#0E1520"/>
</svg>
