<svg width="24" height="24" viewBox="0 0 24 24" fill="none" xmlns="http://www.w3.org/2000/svg">
<path d="M14 2H22V10H20V5.41416L16.2425 9.1717C16.2409 9.17562 16.2358 9.19037 16.2348 9.21739C16.2326 9.27674 16.2507 9.36377 16.3008 9.44797C17.4408 11.3666 17.1871 13.8839 15.5355 15.5355C14.8772 16.1937 14.0686 16.627 13.2287 16.8413C13.1382 16.8644 13.0664 16.9116 13.027 16.9544C13.009 16.974 13.0023 16.9874 13.0005 16.9918L13 16.9931V22H11L11 16.9922C11 15.8527 11.903 15.1155 12.7344 14.9034C13.249 14.7721 13.7332 14.5094 14.1213 14.1213C15.1107 13.1318 15.2655 11.621 14.5814 10.4696C14.1456 9.73621 14.0146 8.57118 14.8272 7.75849L18.5857 4H14V2Z" fill="#0E1520"/>
<path d="M9.87868 14.1213C8.70711 12.9497 8.70711 11.0503 9.87868 9.87868C10.4706 9.28676 11.2463 8.99404 12.0236 9.00009L12.0391 7.00015C10.7481 6.9901 9.45058 7.47835 8.46447 8.46447C6.51184 10.4171 6.51184 13.5829 8.46447 15.5355L9.87868 14.1213Z" fill="#0E1520"/>
</svg>
