<svg width="24" height="24" viewBox="0 0 24 24" fill="none" xmlns="http://www.w3.org/2000/svg">
<path d="M21.9142 7.99995L16.2071 13.7071L14.7929 12.2928L18.0857 9L11.9992 9C11.9953 9.00164 11.9813 9.00846 11.9616 9.02681C11.9182 9.06711 11.8695 9.14135 11.8454 9.23621C11.631 10.0794 11.1934 10.8777 10.5355 11.5355C9.87771 12.1934 9.08057 12.6314 8.23703 12.8459C8.14315 12.8697 8.06874 12.9183 8.02786 12.9624C8.00922 12.9825 8.00235 12.9963 8.0005 13.0007L8.00002 13.0019L8.00001 22L6.00001 22L6.00002 13.0008C6.00002 11.8529 6.91484 11.1184 7.74421 10.9075C8.24729 10.7796 8.72383 10.5188 9.12132 10.1213C9.51789 9.72475 9.77889 9.24746 9.90713 8.74324C10.1175 7.91622 10.8486 7 11.9978 7L18.0858 7L14.7929 3.70706L16.2071 2.29285L21.9142 7.99995Z" fill="#0E1520"/>
<path d="M4.70717 5.87869C5.87874 4.70712 7.77824 4.70712 8.94981 5.87869L10.364 4.46448C8.4114 2.51186 5.24558 2.51186 3.29296 4.46448C1.34034 6.4171 1.34034 9.58292 3.29296 11.5355L4.70717 10.1213C3.5356 8.94976 3.5356 7.05026 4.70717 5.87869Z" fill="#0E1520"/>
</svg>
