<svg width="24" height="24" viewBox="0 0 24 24" fill="none" xmlns="http://www.w3.org/2000/svg">
<path d="M12.1543 5.76341C12.7049 3.60064 14.6643 2 17 2C19.7614 2 22 4.23858 22 7C22 9.33571 20.3994 11.2951 18.2366 11.8457C18.1427 11.8696 18.0684 11.9181 18.0276 11.9621C18.009 11.9821 18.0022 11.9959 18.0004 12.0001L18 12.0012L18 22H16L16 12C16 10.8523 16.9146 10.1184 17.7432 9.90748C19.0411 9.57705 20 8.39925 20 7C20 5.34315 18.6569 4 17 4C15.6007 4 14.4229 4.95888 14.0925 6.25683C13.8816 7.08541 13.1477 8 12 8L5.91001 8L8.20649 10.2922L6.79357 11.7078L2.08582 7.00867L6.79227 2.29355L8.20779 3.70646L5.91846 6L11.9988 6L11.9999 5.99957C12.0041 5.99777 12.0179 5.99096 12.0379 5.97239C12.0819 5.93164 12.1304 5.85735 12.1543 5.76341Z" fill="#0E1520"/>
<path d="M14.4007 8.49939C14.6644 8.95519 15.0449 9.33571 15.5007 9.59938L14.4993 11.3306C13.7406 10.8917 13.1084 10.2596 12.6695 9.50084L14.4007 8.49939Z" fill="#0E1520"/>
</svg>
