<svg width="16" height="16" viewBox="0 0 16 16" fill="none" xmlns="http://www.w3.org/2000/svg">
<path d="M1.25 1.25H7V2.75H3.80821L5.70199 4.64165C5.7415 4.68112 5.80803 4.71819 5.92849 4.72425C6.05486 4.73061 6.21145 4.69899 6.36132 4.62617C7.75823 3.94745 9.49052 4.18675 10.652 5.34826C12.1165 6.81273 12.1165 9.1871 10.652 10.6516C10.2373 11.0663 9.74783 11.3646 9.2261 11.5447C9.069 11.5989 8.93611 11.6871 8.85132 11.7809C8.77047 11.8704 8.74954 11.9439 8.74952 11.9999L8.74805 15.0023L7.24805 15.0016L7.24952 11.9992C7.25 10.9974 8.05688 10.3614 8.73673 10.1267C9.0481 10.0193 9.341 9.84127 9.59137 9.5909C10.4701 8.71222 10.4701 7.2876 9.59137 6.40892C8.89578 5.71333 7.85645 5.56741 7.01686 5.97535C6.37107 6.28912 5.35088 6.41107 4.64192 5.70291L2.75 3.81311V7H1.25V1.25Z" fill="#0E1520"/>
<path d="M5.75 7.99995C5.75 7.87134 5.76071 7.7458 5.78114 7.62404L4.30182 7.37585C4.26768 7.5793 4.25 7.78784 4.25 7.99995C4.25 9.38892 5.00553 10.6005 6.12446 11.2478L6.87554 9.9494C6.20106 9.55923 5.75 8.83182 5.75 7.99995Z" fill="#0E1520"/>
</svg>
