<svg width="24" height="24" viewBox="0 0 24 24" fill="none" xmlns="http://www.w3.org/2000/svg">
<path d="M2 2H10V4H5.41422L9.17068 7.75646L9.17173 7.7569C9.17603 7.75865 9.19054 7.76355 9.21784 7.76458C9.27774 7.76685 9.36462 7.74866 9.44795 7.69914C11.3666 6.55916 13.8839 6.81281 15.5355 8.46441C17.4881 10.417 17.4881 13.5829 15.5355 15.5355C14.8776 16.1933 14.0794 16.6309 13.2362 16.8454C13.1426 16.8692 13.0685 16.9176 13.0277 16.9616C13.0092 16.9816 13.0023 16.9954 13.0005 16.9998L13 17.001L13 21.9999H11L11 16.9999C11 15.8528 11.9136 15.118 12.7432 14.9071C13.2474 14.7788 13.7247 14.5178 14.1213 14.1213C15.2928 12.9497 15.2928 11.0502 14.1213 9.87862C13.1319 8.88921 11.621 8.7344 10.4696 9.41854C9.73449 9.85528 8.56888 9.98309 7.75731 9.17152L4 5.41421V10H2V2Z" fill="#0E1520"/>
<path d="M9.09446 11.2493C9.03298 11.4881 9.00001 11.7395 9.00001 12C9.00001 13.1092 9.60142 14.079 10.5007 14.5993L9.49928 16.3305C8.00739 15.4675 7.00001 13.852 7.00001 12C7.00001 11.5699 7.05454 11.1511 7.15759 10.7507L9.09446 11.2493Z" fill="#0E1520"/>
</svg>
