<svg width="16" height="16" viewBox="0 0 16 16" fill="none" xmlns="http://www.w3.org/2000/svg">
<path d="M0.939331 5.00006L4.96966 0.969727L6.03032 2.03039L3.81061 4.2501L7 4.2501C7.05586 4.2501 7.12916 4.2293 7.21871 4.14838C7.31265 4.0635 7.40111 3.93036 7.45564 3.77283C7.96366 2.30549 9.3576 1.25011 11 1.25011C13.0711 1.25011 14.75 2.92904 14.75 5.00011C14.75 6.6425 13.6946 8.03644 12.2273 8.54446C12.0697 8.59899 11.9366 8.68745 11.8517 8.78139C11.7708 8.87093 11.75 8.94423 11.75 9.0001L11.75 15.0001H10.25L10.25 9.0001C10.25 7.99764 11.0578 7.36197 11.7365 7.127C12.6184 6.82167 13.25 5.98368 13.25 5.00011C13.25 3.75747 12.2426 2.75011 11 2.75011C10.0164 2.75011 9.17843 3.38165 8.8731 4.26358C8.63813 4.94225 8.00245 5.7501 7 5.7501L3.81069 5.7501L6.03032 7.96973L4.96966 9.03039L0.939331 5.00006Z" fill="#0E1520"/>
<path d="M9.8543 6.937C9.53817 6.74948 9.27152 6.4865 9.07958 6.17321L7.80054 6.95683C8.11989 7.47808 8.56284 7.91498 9.08904 8.22711L9.8543 6.937Z" fill="#0E1520"/>
</svg>
