<svg width="24" height="24" viewBox="0 0 24 24" fill="none" xmlns="http://www.w3.org/2000/svg">
<path d="M11.9999 5C12.7614 5 13.4545 5.28243 13.984 5.74974L15.3074 4.25026C14.4266 3.47284 13.2673 3 11.9999 3C9.23845 3 6.99988 5.23858 6.99988 8C6.99988 9.49351 7.65595 10.835 8.69232 11.7497L10.0158 10.2503C9.39131 9.69909 8.99988 8.89588 8.99988 8C8.99988 6.34315 10.343 5 11.9999 5Z" fill="#0E1520"/>
<path d="M16.7495 10.4427C15.9888 11.6204 14.8177 12.8479 13.2733 13.3114C13.1656 13.3437 13.0804 13.4013 13.0331 13.4531C13.0114 13.4769 13.0031 13.4933 13.0007 13.4991L12.9999 13.501L13 22L11 22L10.9999 13.4994C10.9999 12.3505 11.9166 11.6304 12.6985 11.3957C13.5983 11.1257 14.4343 10.3409 15.0695 9.35749C15.1462 9.23882 15.2185 9.1193 15.2864 9H11.4999V7H18.9999V15H16.9999L16.9999 10.0324C16.9208 10.1698 16.8373 10.3068 16.7495 10.4427Z" fill="#0E1520"/>
</svg>
