<svg width="24" height="24" viewBox="0 0 24 24" fill="none" xmlns="http://www.w3.org/2000/svg">
<path d="M12 2.08582L16.7071 6.79292L15.2929 8.20713L12.9999 5.91417L12.9999 8.9988L13.0003 8.99986C13.0022 9.00413 13.009 9.01786 13.0275 9.0379C13.0683 9.08185 13.1426 9.13042 13.2365 9.15434C15.3993 9.70493 16.9999 11.6643 16.9999 14C16.9999 16.3357 15.3993 18.2951 13.2365 18.8457C13.1426 18.8696 13.0683 18.9181 13.0275 18.9621C13.009 18.9821 13.0022 18.9959 13.0003 19.0001L12.9999 19.0012L12.9999 22H10.9999L10.9999 19C10.9999 17.8523 11.9145 17.1184 12.7431 16.9075C14.041 16.5771 14.9999 15.3993 14.9999 14C14.9999 12.6008 14.041 11.4229 12.7431 11.0925C11.9145 10.8816 10.9999 10.1477 10.9999 9L10.9999 5.91432L8.7071 8.20713L7.29289 6.79292L12 2.08582Z" fill="#0E1520"/>
<path d="M10.0158 11.7497C9.39131 12.3009 8.99988 13.1041 8.99988 14C8.99988 14.8959 9.39131 15.6991 10.0158 16.2502L8.69232 17.7497C7.65595 16.835 6.99988 15.4935 6.99988 14C6.99988 12.5065 7.65595 11.165 8.69232 10.2502L10.0158 11.7497Z" fill="#0E1520"/>
</svg>
