<svg width="16" height="16" viewBox="0 0 16 16" fill="none" xmlns="http://www.w3.org/2000/svg">
<path d="M15.0606 5.00006L11.0303 9.03039L9.96965 7.96973L12.1894 5.75H8.67486C8.37621 7.21993 7.2199 8.3762 5.74998 8.67484L5.74998 15H4.24998L4.24998 8.5C4.24998 7.78433 4.81752 7.31213 5.37432 7.21912C6.31639 7.06176 7.06178 6.31638 7.21914 5.37434C7.31215 4.81754 7.78435 4.25 8.50002 4.25L12.1893 4.25L9.96965 2.03039L11.0303 0.969727L15.0606 5.00006Z" fill="#0E1520"/>
<path d="M6.67726 3.50019C6.26419 3.03868 5.6663 2.75 5 2.75C3.75736 2.75 2.75 3.75736 2.75 5C2.75 5.57675 2.96602 6.10125 3.32275 6.49981L2.20504 7.50019C1.61169 6.83724 1.25 5.95996 1.25 5C1.25 2.92893 2.92893 1.25 5 1.25C6.1107 1.25 7.10938 1.73383 7.79496 2.49981L6.67726 3.50019Z" fill="#0E1520"/>
</svg>
