<svg width="16" height="16" viewBox="0 0 16 16" fill="none" xmlns="http://www.w3.org/2000/svg">
<path fill-rule="evenodd" clip-rule="evenodd" d="M11.841 3.40901C10.9623 2.53033 9.53772 2.53033 8.65904 3.40901C7.96356 4.10449 7.81757 5.14361 8.22528 5.98314C8.53903 6.62919 8.66077 7.64992 7.95192 8.35876L4.56062 11.75L7.74998 11.75L7.74997 13.25L2 13.25V7.49999H3.5V10.6893L6.89127 7.29809C6.93077 7.25859 6.96789 7.19205 6.974 7.07151C6.9804 6.94506 6.9488 6.78837 6.87598 6.63842C6.19764 5.24162 6.43704 3.50969 7.59838 2.34835C9.06285 0.883884 11.4372 0.883883 12.9017 2.34835C14.3661 3.81282 14.3661 6.18719 12.9017 7.65165C12.4852 8.06817 11.9932 8.36726 11.469 8.54708C11.311 8.60126 11.1771 8.68989 11.0917 8.78432C11.0103 8.87437 10.9894 8.94822 10.9895 9.00451L11 14.9986L9.5 15.0013L9.48948 9.00714C9.48772 8.00096 10.2997 7.36236 10.9823 7.12821C11.2952 7.0209 11.5896 6.84244 11.841 6.59099C12.7197 5.71231 12.7197 4.28769 11.841 3.40901Z" fill="#0E1520"/>
</svg>
