<svg width="16" height="16" viewBox="0 0 16 16" fill="none" xmlns="http://www.w3.org/2000/svg">
<path d="M9.67719 3.50019C9.26413 3.03868 8.66624 2.75 7.99994 2.75C6.7573 2.75 5.74994 3.75736 5.74994 5C5.74994 5.6663 6.03861 6.26419 6.50012 6.67726L5.49975 7.79496C4.73377 7.10938 4.24994 6.1107 4.24994 5C4.24994 2.92893 5.92887 1.25 7.99994 1.25C9.11063 1.25 10.1093 1.73383 10.7949 2.49981L9.67719 3.50019Z" fill="#0E1520"/>
<path d="M12.75 4.25L12.75 9H11.25L11.25 6.87218C10.7218 7.78696 9.81841 8.45773 8.74998 8.67484L8.74998 15H7.24998L7.24998 8.5C7.24998 7.78433 7.81752 7.31213 8.37432 7.21912C9.18762 7.08327 9.85318 6.51015 10.1219 5.75L7.99998 5.75V4.25L12.75 4.25Z" fill="#0E1520"/>
</svg>
