<svg width="16" height="16" viewBox="0 0 16 16" fill="none" xmlns="http://www.w3.org/2000/svg">
<path d="M8 0.939331L11.5303 4.46966L10.4697 5.53032L8.75 3.81066L8.75 6C8.75 6.05274 8.76964 6.12808 8.85779 6.22769C8.94975 6.3316 9.09396 6.43319 9.26609 6.50605C10.4306 6.99899 11.25 8.15295 11.25 9.5C11.25 10.8471 10.4306 12.001 9.26609 12.4939C9.09396 12.5668 8.94975 12.6684 8.85779 12.7723C8.76964 12.8719 8.75 12.9473 8.75 13L8.75 15H7.25L7.25 13C7.25 11.9975 8.06488 11.3736 8.68139 11.1126C9.31075 10.8462 9.75 10.2235 9.75 9.5C9.75 8.77647 9.31075 8.1538 8.68139 7.8874C8.06487 7.62644 7.25 7.00252 7.25 6L7.25 3.81065L5.53032 5.53032L4.46967 4.46966L8 0.939331Z" fill="#0E1520"/>
<path d="M6.25 9.5C6.25 10.072 6.52368 10.58 6.95043 10.9005L6.04957 12.0999C5.26187 11.5082 4.75 10.5638 4.75 9.5C4.75 8.43619 5.26198 7.49195 6.04954 6.90034L6.95046 8.09965C6.52367 8.42026 6.25 8.92807 6.25 9.5Z" fill="#0E1520"/>
</svg>
