<svg width="24" height="24" viewBox="0 0 24 24" fill="none" xmlns="http://www.w3.org/2000/svg">
<path d="M12 7C12 5.34315 10.6569 4 9 4C7.34315 4 6 5.34315 6 7C6 7.89588 6.39144 8.69909 7.01591 9.25026L5.69244 10.7497C4.65607 9.83502 4 8.49351 4 7C4 4.23858 6.23858 2 9 2C11.7614 2 14 4.23858 14 7C14 7.2108 13.9869 7.41899 13.9614 7.62374L11.9767 7.37626C11.9921 7.25341 12 7.12786 12 7Z" fill="#0E1520"/>
<path d="M10.5291 9.62754C11.2455 9.258 12.3332 9.17299 13.1088 9.92182L18 14.6444V10H20V18H12V16H16.5247L11.7202 11.3612L11.7177 11.3601C11.7125 11.358 11.6977 11.353 11.6711 11.3513C11.6133 11.3477 11.5295 11.3619 11.4459 11.405C11.0615 11.6033 10.6473 11.7554 10.2207 11.8561C10.1344 11.8765 10.0651 11.921 10.0266 11.9625C10.0091 11.9813 10.0025 11.9945 10.0007 11.9989L10 12.0005L10 22H8L8 12C8 10.8564 8.90947 10.1107 9.76112 9.90963C10.0329 9.84547 10.2931 9.74925 10.5291 9.62754Z" fill="#0E1520"/>
</svg>
