<svg width="16" height="16" viewBox="0 0 16 16" fill="none" xmlns="http://www.w3.org/2000/svg">
<path d="M5.74646 2.75C6.9891 2.75 7.99646 3.75736 7.99646 5H9.49646C9.49646 2.92893 7.81753 1.25 5.74646 1.25C3.67539 1.25 1.99646 2.92893 1.99646 5C1.99646 6.1107 2.48029 7.10938 3.24627 7.79496L4.24665 6.67726C3.78514 6.26419 3.49646 5.6663 3.49646 5C3.49646 3.75736 4.50382 2.75 5.74646 2.75Z" fill="#0E1520"/>
<path d="M7.12691 6.77682C7.59339 6.41416 8.37665 6.32639 8.89902 6.87464L12.4965 10.6504V7.5H13.9965V13.25H8.24646V11.75H11.4723L7.93944 8.04203C7.51738 8.34637 7.02921 8.56457 6.5 8.67167L6.5 14.9964H5L5 8.49645C5 7.78101 5.56721 7.30836 6.12495 7.21575C6.49853 7.15372 6.83994 6.99993 7.12691 6.77682Z" fill="#0E1520"/>
</svg>
