<svg width="16" height="16" viewBox="0 0 16 16" fill="none" xmlns="http://www.w3.org/2000/svg">
<path d="M9.00002 2.75L12.1869 2.75L11.9583 2.97792C11.3687 3.56583 10.6121 4.32057 9.94458 4.98763C9.43768 5.49414 9.50641 6.2294 9.83389 6.68823C10.4608 7.56654 10.3792 8.79548 9.59103 9.58368C9.24397 9.93073 8.81559 10.1427 8.37153 10.2185C7.81684 10.3131 7.25004 10.7846 7.25003 11.5L7.25002 15L8.75002 15L8.75003 11.6734C9.4491 11.5291 10.1135 11.1825 10.6517 10.6443C11.9348 9.36124 12.0933 7.38103 11.129 5.92466C11.7643 5.28994 12.4643 4.59167 13.0174 4.04009L13.25 3.80823L13.25 7.00001L14.75 7.00001L14.75 1.25H9.00002V2.75Z" fill="#0E1520"/>
<path d="M8 5.74271C7.42301 5.74271 6.8485 5.96224 6.40901 6.40172C5.53033 7.2804 5.53033 8.70503 6.40901 9.5837L5.34835 10.6444C3.88388 9.1799 3.88388 6.80553 5.34835 5.34106C6.08044 4.60898 7.04145 4.24271 8 4.24271V5.74271Z" fill="#0E1520"/>
</svg>
