<svg width="24" height="24" viewBox="0 0 24 24" fill="none" xmlns="http://www.w3.org/2000/svg">
<path d="M14.9999 1.99976C12.2385 1.99976 9.99995 4.23833 9.99995 6.99976C9.99995 7.95841 10.2747 8.90227 10.7441 9.69249C10.7965 9.78063 10.817 9.87615 10.814 9.94478C10.8126 9.97616 10.8068 9.99363 10.8042 9.99981L10.8028 10.0028L6 14.6297L6 10H4V18H12V16H7.4603L12.1882 11.4453L12.1892 11.4443C13.0397 10.6267 12.9082 9.41948 12.4636 8.67105C12.1705 8.17756 11.9999 7.58481 11.9999 6.99976C11.9999 5.3429 13.3431 3.99976 14.9999 3.99976C16.6568 3.99976 17.9999 5.3429 17.9999 6.99976C17.9999 8.39901 17.0411 9.57681 15.7431 9.90724C14.9145 10.1182 14 10.852 14 11.9998L14 21.9998H16L16 12.001L16.0004 11.9999C16.0022 11.9956 16.009 11.9819 16.0276 11.9619C16.0683 11.9179 16.1426 11.8693 16.2365 11.8454C18.3993 11.2948 19.9999 9.33547 19.9999 6.99976C19.9999 4.23833 17.7614 1.99976 14.9999 1.99976Z" fill="#0E1520"/>
</svg>
