<svg width="16" height="17" viewBox="0 0 16 17" fill="none" xmlns="http://www.w3.org/2000/svg">
<path d="M4 1.43933L7.03033 4.46966L5.96967 5.53032L4.75 4.31066V6.67157C4.75 7.00309 4.8817 7.32104 5.11612 7.55546L7.94454 10.3839C7.96333 10.4027 7.98182 10.4217 8 10.441C8.01819 10.4217 8.03667 10.4027 8.05546 10.3839L10.8839 7.55546C11.1183 7.32104 11.25 7.00309 11.25 6.67157V4.31065L10.0303 5.53032L8.96967 4.46966L12 1.43933L15.0303 4.46966L13.9697 5.53032L12.75 4.31066V6.67157C12.75 7.40092 12.4603 8.10039 11.9445 8.61612L9.11612 11.4445C8.8817 11.679 8.75 11.9969 8.75 12.3284V15.5H7.25V12.3284C7.25 11.9969 7.1183 11.679 6.88388 11.4445L4.05546 8.61612C3.53973 8.10039 3.25 7.40092 3.25 6.67157V4.31065L2.03033 5.53032L0.969666 4.46966L4 1.43933Z" fill="#0E1520"/>
</svg>
