<svg width="24" height="25" viewBox="0 0 24 25" fill="none" xmlns="http://www.w3.org/2000/svg">
<path d="M6.50001 2.58582L10.7071 6.79292L9.29291 8.20714L7.5 6.41423V9.72203C7.5 9.97222 7.59379 10.2133 7.76285 10.3978L12 15.0201L16.2372 10.3978C16.4062 10.2133 16.5 9.97222 16.5 9.72203V6.41426L14.7071 8.20714L13.2929 6.79292L17.5 2.58582L21.7071 6.79292L20.2929 8.20714L18.5 6.41423V9.72203C18.5 10.4726 18.2186 11.1959 17.7115 11.7492L13.2628 16.6022C13.0938 16.7867 13 17.0278 13 17.278V22.5H11V17.278C11 17.0278 10.9062 16.7867 10.7372 16.6022L6.28854 11.7492C5.78136 11.1959 5.5 10.4726 5.5 9.72203V6.41426L3.70712 8.20714L2.29291 6.79292L6.50001 2.58582Z" fill="#0E1520"/>
</svg>
