<svg width="24" height="24" viewBox="0 0 24 24" fill="none" xmlns="http://www.w3.org/2000/svg">
<path d="M4.5409 8.5C5.50626 8.5 6.17109 8.79849 6.72662 9.35695L6.03448 10.2139C5.59733 9.83838 5.16019 9.65543 4.65019 9.65543C4.13108 9.65543 3.80322 9.88652 3.80322 10.3102C3.80322 10.7338 4.04001 10.9072 5.02358 11.2345C6.21662 11.6389 6.89966 12.1589 6.89966 13.3913C6.89966 14.6334 5.97073 15.5 4.39519 15.5C3.30233 15.5 2.51911 15.0763 2 14.5468L2.7559 13.6706C3.22036 14.0846 3.72126 14.3253 4.34965 14.3253C4.96894 14.3253 5.35144 14.0172 5.35144 13.5069C5.35144 13.0158 5.11465 12.7944 4.19483 12.4959C2.78322 12.0337 2.26411 11.4175 2.26411 10.4257C2.26411 9.25103 3.22947 8.5 4.5409 8.5Z" fill="black"/>
<path d="M11.4786 8.66369L11.3329 9.87689H9.77554V15.3363H8.28196V9.87689H6.65177V8.66369H11.4786Z" fill="black"/>
<path d="M13.9456 8.5C15.7306 8.5 16.7961 9.77098 16.7961 11.9952C16.7961 14.1809 15.7306 15.5 13.9456 15.5C12.1697 15.5 11.1041 14.2194 11.1041 11.9952C11.1041 9.81912 12.1697 8.5 13.9456 8.5ZM13.9456 9.65543C13.1077 9.65543 12.6706 10.3102 12.6706 11.9952C12.6706 13.6898 13.1259 14.3446 13.9456 14.3446C14.8016 14.3446 15.2297 13.6898 15.2297 11.9952C15.2297 10.3102 14.7925 9.65543 13.9456 9.65543Z" fill="black"/>
<path d="M19.368 8.66369C20.9982 8.66369 22 9.3762 22 10.8398C22 12.39 20.9618 13.1121 19.5046 13.1121H18.8216V15.3363H17.328V8.66369H19.368ZM19.3771 11.9759C20.0511 11.9759 20.4609 11.6774 20.4609 10.8398C20.4609 10.1272 20.0875 9.79023 19.3498 9.79023H18.8216V11.9759H19.3771Z" fill="black"/>
</svg>
