<svg width="16" height="16" viewBox="0 0 16 16" fill="none" xmlns="http://www.w3.org/2000/svg">
<path d="M2.77863 5.5C3.45438 5.5 3.91976 5.71321 4.30864 6.1121L3.82414 6.72421C3.51813 6.45598 3.21213 6.32531 2.85513 6.32531C2.49176 6.32531 2.26225 6.49037 2.26225 6.79298C2.26225 7.0956 2.42801 7.21939 3.11651 7.45323C3.95164 7.74209 4.42976 8.11348 4.42976 8.99381C4.42976 9.88102 3.77951 10.5 2.67663 10.5C1.91163 10.5 1.36338 10.1974 1 9.81912L1.52913 9.19326C1.85425 9.489 2.20488 9.66094 2.64476 9.66094C3.07826 9.66094 3.34601 9.44085 3.34601 9.07634C3.34601 8.72558 3.18026 8.5674 2.53638 8.3542C1.54825 8.02407 1.18488 7.58391 1.18488 6.87552C1.18488 6.03645 1.86063 5.5 2.77863 5.5Z" fill="black"/>
<path d="M7.635 5.61692L7.533 6.48349H6.44288V10.3831H5.39737V6.48349H4.25624V5.61692H7.635Z" fill="black"/>
<path d="M9.36189 5.5C10.6114 5.5 11.3573 6.40784 11.3573 7.99656C11.3573 9.55777 10.6114 10.5 9.36189 10.5C8.11876 10.5 7.37288 9.58528 7.37288 7.99656C7.37288 6.44223 8.11876 5.5 9.36189 5.5ZM9.36189 6.32531C8.77539 6.32531 8.46939 6.79298 8.46939 7.99656C8.46939 9.20702 8.78814 9.67469 9.36189 9.67469C9.96114 9.67469 10.2608 9.20702 10.2608 7.99656C10.2608 6.79298 9.95477 6.32531 9.36189 6.32531Z" fill="black"/>
<path d="M13.1576 5.61692C14.2987 5.61692 15 6.12586 15 7.17125C15 8.27854 14.2732 8.79436 13.2532 8.79436H12.7751V10.3831H11.7296V5.61692H13.1576ZM13.164 7.98281C13.6357 7.98281 13.9226 7.7696 13.9226 7.17125C13.9226 6.66231 13.6612 6.4216 13.1449 6.4216H12.7751V7.98281H13.164Z" fill="black"/>
</svg>
