<svg width="16" height="16" viewBox="0 0 16 16" fill="none" xmlns="http://www.w3.org/2000/svg">
<path d="M4.56034 6L3.26035 8.49928V10H2.29999V8.50505L1 6H2.04819L2.79774 7.76046L3.54728 6H4.56034Z" fill="black"/>
<path d="M5.62464 6V10H4.66428V6H5.62464Z" fill="black"/>
<path d="M8.63435 6L8.5348 6.67532H7.10598V7.63348H8.35327V8.29726H7.10598V9.3189H8.63435V10H6.14562V6H8.63435Z" fill="black"/>
<path d="M9.95406 6V9.24964H11.5351L11.4356 10H8.99371V6H9.95406Z" fill="black"/>
<path d="M12.8919 6C13.9752 6 15 6.329 15 7.9798C15 9.59019 14.0162 10 12.9797 10H11.7617V6H12.8919ZM13.0266 6.68687H12.7221V9.31313H13.0383C13.618 9.31313 14.0045 9.04185 14.0045 7.9798C14.0045 6.9062 13.5887 6.68687 13.0266 6.68687Z" fill="black"/>
</svg>
