<svg width="24" height="24" viewBox="0 0 24 24" fill="none" xmlns="http://www.w3.org/2000/svg">
<path d="M7.0862 9L5.22907 12.7489V15H3.85713V12.7576L2 9H3.49742L4.5682 11.6407L5.63898 9H7.0862Z" fill="black"/>
<path d="M8.60663 9V15H7.23469V9H8.60663Z" fill="black"/>
<path d="M12.9062 9L12.764 10.013H10.7228V11.4502H12.5047V12.4459H10.7228V13.9784H12.9062V15H9.35089V9H12.9062Z" fill="black"/>
<path d="M14.7915 9V13.8745H17.0502L16.908 15H13.4196V9H14.7915Z" fill="black"/>
<path d="M18.9884 9C20.536 9 22 9.49351 22 11.9697C22 14.3853 20.5946 15 19.1139 15H17.3739V9H18.9884ZM19.1808 10.0303H18.7458V13.9697H19.1976C20.0258 13.9697 20.5779 13.5628 20.5779 11.9697C20.5779 10.3593 19.9839 10.0303 19.1808 10.0303Z" fill="black"/>
</svg>
