<svg width="24" height="24" viewBox="0 0 24 24" fill="none" xmlns="http://www.w3.org/2000/svg">
<path fill-rule="evenodd" clip-rule="evenodd" d="M22 20V15H20V20H15V22H20C20.5304 22 21.0391 21.7893 21.4142 21.4142C21.7893 21.0391 22 20.5304 22 20ZM4 20H9V22H4C3.46957 22 2.96086 21.7893 2.58579 21.4142C2.21071 21.0391 2 20.5304 2 20V15H4V20ZM4 4V9H2V4C2 3.46957 2.21071 2.96086 2.58579 2.58579C2.96086 2.21071 3.46957 2 4 2H9V4H4ZM20 4H15V2H20C20.5304 2 21.0391 2.21071 21.4142 2.58579C21.7893 2.96086 22 3.46957 22 4V9H20V4ZM8 7H6V17H8V7ZM9 7H11V17H9V7ZM13 7H12V17H13V7ZM14 7H15V17H14V7ZM18 7H16V17H18V7Z" fill="#0F1621"/>
</svg>
