<svg width="16" height="16" viewBox="0 0 16 16" fill="none" xmlns="http://www.w3.org/2000/svg">
<path d="M7.25 4.07C6.46448 4.22668 5.74166 4.60894 5.17 5.17L5.88 5.88C6.44207 5.31723 7.20462 5.0007 8 5V4.83L7.25 4.07ZM4.9 1.72C4.21484 2.05932 3.58989 2.50861 3.05 3.05L3.76 3.76C4.3039 3.21573 4.94496 2.77819 5.65 2.47L4.9 1.72ZM1 8V11C1 11.2652 1.10536 11.5196 1.29289 11.7071C1.48043 11.8946 1.73478 12 2 12H3V10H7V8H1ZM13 8L11 10H13V12H14C14.2652 12 14.5196 11.8946 14.7071 11.7071C14.8946 11.5196 15 11.2652 15 11V8H13ZM5 12V14C5 14.2652 5.10536 14.5196 5.29289 14.7071C5.48043 14.8946 5.73478 15 6 15H10C10.2652 15 10.5196 14.8946 10.7071 14.7071C10.8946 14.5196 11 14.2652 11 14V12H5ZM10 4L7 1H15L12 4V6L10 8V4Z" fill="#0F1621"/>
</svg>
