<svg width="24" height="24" viewBox="0 0 24 24" fill="none" xmlns="http://www.w3.org/2000/svg">
<path d="M6 20C6 20.5304 6.21071 21.0392 6.58579 21.4142C6.96086 21.7893 7.46957 22 8 22H16C16.5304 22 17.0391 21.7893 17.4142 21.4142C17.7893 21.0392 18 20.5304 18 20V16H6V20ZM8 18H16V20H8V18ZM12 6.00002C12.9071 6.00085 13.8022 6.20735 14.618 6.60399C15.4338 7.00064 16.1491 7.5771 16.71 8.29002L15.28 9.72002C14.9114 9.1919 14.4207 8.7606 13.8496 8.46279C13.2786 8.16498 12.644 8.00947 12 8.00947C11.356 8.00947 10.7214 8.16498 10.1504 8.46279C9.57933 8.7606 9.08863 9.1919 8.72 9.72002L7.29 8.29002C7.8509 7.5771 8.56615 7.00064 9.38196 6.60399C10.1978 6.20735 11.0929 6.00085 12 6.00002ZM22 12V15C22 15.5304 21.7893 16.0392 21.4142 16.4142C21.0391 16.7893 20.5304 17 20 17V14H13V12H22ZM5.87 6.87002L4.45 5.45002C5.3887 4.36919 6.54853 3.50251 7.85105 2.90857C9.15358 2.31463 10.5684 2.00726 12 2.00726C13.4316 2.00726 14.8464 2.31463 16.1489 2.90857C17.4515 3.50251 18.6113 4.36919 19.55 5.45002L18.13 6.87002C17.3791 5.97456 16.4412 5.25448 15.3821 4.76043C14.3231 4.26638 13.1686 4.01036 12 4.01036C10.8314 4.01036 9.67695 4.26638 8.61789 4.76043C7.55884 5.25448 6.62089 5.97456 5.87 6.87002ZM11 14H4V17C3.46957 17 2.96086 16.7893 2.58579 16.4142C2.21071 16.0392 2 15.5304 2 15V12H11V14Z" fill="#0F1621"/>
</svg>
