<svg width="16" height="16" viewBox="0 0 16 16" fill="none" xmlns="http://www.w3.org/2000/svg">
<path d="M1 8.00002V13C1 13.5304 1.21071 14.0392 1.58579 14.4142C1.96086 14.7893 2.46957 15 3 15H13C13.5304 15 14.0391 14.7893 14.4142 14.4142C14.7893 14.0392 15 13.5304 15 13V8.00002H1ZM4 12C3.80222 12 3.60888 11.9414 3.44443 11.8315C3.27998 11.7216 3.15181 11.5654 3.07612 11.3827C3.00043 11.2 2.98063 10.9989 3.01921 10.8049C3.0578 10.6109 3.15304 10.4328 3.29289 10.2929C3.43275 10.1531 3.61093 10.0578 3.80491 10.0192C3.99889 9.98065 4.19996 10.0005 4.38268 10.0761C4.56541 10.1518 4.72159 10.28 4.83147 10.4444C4.94135 10.6089 5 10.8022 5 11C5 11.2652 4.89464 11.5196 4.70711 11.7071C4.51957 11.8947 4.26522 12 4 12ZM12 12H7V10H12V12ZM10.83 5.17002C10.4585 4.79811 10.0174 4.50308 9.53176 4.30178C9.04617 4.10048 8.52566 3.99687 8 3.99687C7.47434 3.99687 6.95383 4.10048 6.46824 4.30178C5.98265 4.50308 5.54149 4.79811 5.17 5.17002L5.88 5.88002C6.4425 5.31821 7.205 5.00266 8 5.00266C8.795 5.00266 9.5575 5.31821 10.12 5.88002L10.83 5.17002ZM13 3.05002C12.35 2.39993 11.5783 1.88425 10.7289 1.53242C9.87962 1.1806 8.96931 0.999512 8.05 0.999512C7.13069 0.999512 6.22038 1.1806 5.37105 1.53242C4.52173 1.88425 3.75002 2.39993 3.1 3.05002L3.81 3.76002C4.935 2.63641 6.45999 2.0053 8.05 2.0053C9.64001 2.0053 11.165 2.63641 12.29 3.76002L13 3.05002Z" fill="#0F1621"/>
</svg>
