<svg width="24" height="24" viewBox="0 0 24 24" fill="none" xmlns="http://www.w3.org/2000/svg">
<path d="M11 12V14H4V17C3.46957 17 2.96086 16.7893 2.58579 16.4142C2.21071 16.0391 2 15.5304 2 15V12H11ZM13 12V14H20V17C20.5304 17 21.0391 16.7893 21.4142 16.4142C21.7893 16.0391 22 15.5304 22 15V12H13ZM18 16V20C18 20.5304 17.7893 21.0391 17.4142 21.4142C17.0391 21.7893 16.5304 22 16 22H8C7.46957 22 6.96086 21.7893 6.58579 21.4142C6.21071 21.0391 6 20.5304 6 20V16H18ZM12 6C11.0929 6.00083 10.1978 6.20733 9.38196 6.60398C8.56615 7.00062 7.8509 7.57708 7.29 8.29L8.72 9.72C9.08863 9.19188 9.57933 8.76059 10.1504 8.46278C10.7214 8.16497 11.356 8.00945 12 8.00945C12.644 8.00945 13.2786 8.16497 13.8496 8.46278C14.4207 8.76059 14.9114 9.19188 15.28 9.72L16.71 8.29C16.1491 7.57708 15.4338 7.00062 14.618 6.60398C13.8022 6.20733 12.9071 6.00083 12 6ZM12 2C10.5679 2.0009 9.15268 2.30939 7.85012 2.9046C6.54755 3.49981 5.38803 4.36786 4.45 5.45L5.87 6.87C6.62089 5.97454 7.55884 5.25447 8.61789 4.76042C9.67695 4.26637 10.8314 4.01034 12 4.01034C13.1686 4.01034 14.3231 4.26637 15.3821 4.76042C16.4412 5.25447 17.3791 5.97454 18.13 6.87L19.55 5.45C18.612 4.36786 17.4524 3.49981 16.1499 2.9046C14.8473 2.30939 13.4321 2.0009 12 2Z" fill="#0F1621"/>
</svg>
