<svg width="16" height="16" viewBox="0 0 16 16" fill="none" xmlns="http://www.w3.org/2000/svg">
<path d="M3 14C3 14.1978 2.94135 14.3911 2.83147 14.5556C2.72159 14.72 2.56541 14.8482 2.38268 14.9239C2.19996 14.9996 1.99889 15.0194 1.80491 14.9808C1.61093 14.9422 1.43275 14.847 1.29289 14.7071C1.15304 14.5673 1.0578 14.3891 1.01922 14.1951C0.98063 14.0011 1.00043 13.8 1.07612 13.6173C1.15181 13.4346 1.27998 13.2784 1.44443 13.1685C1.60888 13.0586 1.80222 13 2 13C2.26522 13 2.51957 13.1054 2.70711 13.2929C2.89464 13.4804 3 13.7348 3 14ZM15 13H13V15H15V13ZM13 6H11.24L9 3.76V1H7V3.76L4.76 6H3C2.46957 6 1.96086 6.21071 1.58579 6.58579C1.21071 6.96086 1 7.46957 1 8V11H3V8H5L8 11L11 8H13V11H15V8C15 7.46957 14.7893 6.96086 14.4142 6.58579C14.0391 6.21071 13.5304 6 13 6Z" fill="#0F1621"/>
</svg>
