<svg width="16" height="16" viewBox="0 0 16 16" fill="none" xmlns="http://www.w3.org/2000/svg">
<path d="M13.76 8.83C13.5968 8.44814 13.3561 8.10431 13.0532 7.82029C12.7502 7.53627 12.3916 7.31824 12 7.18V6H10V7.18C9.60841 7.31824 9.24979 7.53627 8.94683 7.82029C8.64388 8.10431 8.40319 8.44814 8.24 8.83C8.08323 9.20015 8.00244 9.59802 8.00244 10C8.00244 10.402 8.08323 10.7999 8.24 11.17C8.40319 11.5519 8.64388 11.8957 8.94683 12.1797C9.24979 12.4637 9.60841 12.6818 10 12.82V14H12V12.82C12.3916 12.6818 12.7502 12.4637 13.0532 12.1797C13.3561 11.8957 13.5968 11.5519 13.76 11.17C13.9168 10.7999 13.9976 10.402 13.9976 10C13.9976 9.59802 13.9168 9.20015 13.76 8.83ZM11 11C10.8022 11 10.6089 10.9414 10.4444 10.8315C10.28 10.7216 10.1518 10.5654 10.0761 10.3827C10.0004 10.2 9.98063 9.99889 10.0192 9.80491C10.0578 9.61093 10.153 9.43275 10.2929 9.29289C10.4327 9.15304 10.6109 9.0578 10.8049 9.01921C10.9989 8.98063 11.2 9.00043 11.3827 9.07612C11.5654 9.15181 11.7216 9.27998 11.8315 9.44443C11.9414 9.60888 12 9.80222 12 10C12 10.2652 11.8946 10.5196 11.7071 10.7071C11.5196 10.8946 11.2652 11 11 11ZM6.39 12C6.13255 11.3821 6 10.7194 6 10.05C6 9.38063 6.13255 8.71788 6.39 8.1C6.73297 7.27078 7.28826 6.54649 8 6V4H11V2H3.33C2.97807 2.00262 2.6413 2.14358 2.39244 2.39244C2.14358 2.6413 2.00262 2.97807 2 3.33V12.67C2.00262 13.0219 2.14358 13.3587 2.39244 13.6076C2.6413 13.8564 2.97807 13.9974 3.33 14H8C7.30187 13.4812 6.74771 12.7928 6.39 12ZM5 6C4.80222 6 4.60888 5.94135 4.44443 5.83147C4.27998 5.72159 4.15181 5.56541 4.07612 5.38268C4.00043 5.19996 3.98063 4.99889 4.01921 4.80491C4.0578 4.61093 4.15304 4.43275 4.29289 4.29289C4.43275 4.15304 4.61093 4.0578 4.80491 4.01921C4.99889 3.98063 5.19996 4.00043 5.38268 4.07612C5.56541 4.15181 5.72159 4.27998 5.83147 4.44443C5.94135 4.60888 6 4.80222 6 5C6 5.26522 5.89464 5.51957 5.70711 5.70711C5.51957 5.89464 5.26522 6 5 6Z" fill="#0F1621"/>
</svg>
