<svg width="24" height="24" viewBox="0 0 24 24" fill="none" xmlns="http://www.w3.org/2000/svg">
<path d="M7.5 9C7.20333 9 6.91332 8.91203 6.66664 8.7472C6.41997 8.58238 6.22771 8.34811 6.11418 8.07403C6.00065 7.79994 5.97094 7.49834 6.02882 7.20736C6.0867 6.91639 6.22956 6.64912 6.43934 6.43934C6.64912 6.22956 6.91639 6.0867 7.20736 6.02882C7.49834 5.97094 7.79994 6.00065 8.07403 6.11418C8.34811 6.22771 8.58238 6.41997 8.7472 6.66664C8.91203 6.91332 9 7.20333 9 7.5C9 7.89782 8.84196 8.27936 8.56066 8.56066C8.27936 8.84196 7.89782 9 7.5 9ZM19.82 9.62C19.5652 9.43381 19.3581 9.18998 19.2156 8.90842C19.073 8.62686 18.9992 8.31557 19 8V7C19 6.73478 18.8946 6.48043 18.7071 6.29289C18.5196 6.10536 18.2652 6 18 6H15C14.7348 6 14.4804 6.10536 14.2929 6.29289C14.1054 6.48043 14 6.73478 14 7V8C13.9977 8.31219 13.9223 8.6195 13.7799 8.89734C13.6375 9.17517 13.4321 9.41581 13.18 9.6C12.5027 10.1118 11.9534 10.7737 11.5751 11.5337C11.1968 12.2937 10.9999 13.1311 10.9999 13.98C10.9999 14.8289 11.1968 15.6663 11.5751 16.4263C11.9534 17.1863 12.5027 17.8482 13.18 18.36C13.4376 18.5482 13.6464 18.7952 13.789 19.0805C13.9317 19.3658 14.004 19.6811 14 20V21C14 21.2652 14.1054 21.5196 14.2929 21.7071C14.4804 21.8946 14.7348 22 15 22H18C18.2652 22 18.5196 21.8946 18.7071 21.7071C18.8946 21.5196 19 21.2652 19 21V20C19.0023 19.6878 19.0777 19.3805 19.2201 19.1027C19.3625 18.8248 19.5679 18.5842 19.82 18.4C20.4973 17.8882 21.0466 17.2263 21.4249 16.4663C21.8032 15.7063 22.0001 14.8689 22.0001 14.02C22.0001 13.1711 21.8032 12.3337 21.4249 11.5737C21.0466 10.8137 20.4973 10.1518 19.82 9.64V9.62ZM16.5 17.5C15.8078 17.5 15.1311 17.2947 14.5555 16.9101C13.9799 16.5256 13.5313 15.9789 13.2664 15.3394C13.0015 14.6999 12.9322 13.9961 13.0673 13.3172C13.2023 12.6383 13.5356 12.0146 14.0251 11.5251C14.5146 11.0356 15.1383 10.7023 15.8172 10.5673C16.4961 10.4322 17.1999 10.5015 17.8394 10.7664C18.4789 11.0313 19.0256 11.4799 19.4101 12.0555C19.7947 12.6311 20 13.3078 20 14C20 14.9283 19.6313 15.8185 18.9749 16.4749C18.3185 17.1313 17.4283 17.5 16.5 17.5ZM14 2H4C3.46957 2 2.96086 2.21071 2.58579 2.58579C2.21071 2.96086 2 3.46957 2 4V20C2 20.5304 2.21071 21.0391 2.58579 21.4142C2.96086 21.7893 3.46957 22 4 22H12.18C12.0636 21.6793 12.0027 21.3411 12 21V20H4V4H16C16 3.46957 15.7893 2.96086 15.4142 2.58579C15.0391 2.21071 14.5304 2 14 2Z" fill="#0F1621"/>
</svg>
