<svg width="24" height="24" viewBox="0 0 24 24" fill="none" xmlns="http://www.w3.org/2000/svg">
<path d="M22 5V15C22 15.5304 21.7893 16.0391 21.4142 16.4142C21.0391 16.7893 20.5304 17 20 17V19H17V17H15.6C16.4435 16.4879 17.1721 15.807 17.74 15H20V7H17.74C17.1721 6.19299 16.4435 5.51208 15.6 5H22ZM12 8C11.4067 8 10.8266 8.17595 10.3333 8.50559C9.83994 8.83524 9.45542 9.30377 9.22836 9.85195C9.0013 10.4001 8.94189 11.0033 9.05764 11.5853C9.1734 12.1672 9.45912 12.7018 9.87868 13.1213C10.2982 13.5409 10.8328 13.8266 11.4147 13.9424C11.9967 14.0581 12.5999 13.9987 13.1481 13.7716C13.6962 13.5446 14.1648 13.1601 14.4944 12.6667C14.8241 12.1734 15 11.5933 15 11C15 10.2044 14.6839 9.44129 14.1213 8.87868C13.5587 8.31607 12.7956 8 12 8ZM12 6C12.9889 6 13.9556 6.29324 14.7779 6.84265C15.6001 7.39206 16.241 8.17295 16.6194 9.08658C16.9978 10.0002 17.0969 11.0055 16.9039 11.9755C16.711 12.9454 16.2348 13.8363 15.5355 14.5355C14.8363 15.2348 13.9454 15.711 12.9755 15.9039C12.0055 16.0969 11.0002 15.9978 10.0866 15.6194C9.17295 15.241 8.39206 14.6001 7.84265 13.7779C7.29324 12.9556 7 11.9889 7 11C7 9.67392 7.52678 8.40215 8.46447 7.46447C9.40215 6.52678 10.6739 6 12 6ZM6.26 15H4V7H6.26C6.82789 6.19299 7.55647 5.51208 8.4 5H2V15C2 15.5304 2.21071 16.0391 2.58579 16.4142C2.96086 16.7893 3.46957 17 4 17V19H7V17H8.4C7.55647 16.4879 6.82789 15.807 6.26 15Z" fill="#0F1621"/>
</svg>
