<svg width="24" height="24" viewBox="0 0 24 24" fill="none" xmlns="http://www.w3.org/2000/svg">
<path d="M12 4.00004C12.1879 4.00112 12.3677 4.07664 12.5 4.21004L16.79 8.50004C16.8565 8.56521 16.9094 8.64301 16.9454 8.72886C16.9815 8.81472 17.0001 8.90691 17.0001 9.00004C17.0001 9.09316 16.9815 9.18536 16.9454 9.27121C16.9094 9.35707 16.8565 9.43486 16.79 9.50004L12.5 13.79C12.4348 13.8566 12.357 13.9094 12.2712 13.9455C12.1853 13.9816 12.0931 14.0001 12 14.0001C11.9069 14.0001 11.8147 13.9816 11.7288 13.9455C11.643 13.9094 11.5652 13.8566 11.5 13.79L7.21 9.50004C7.14348 9.43486 7.09063 9.35707 7.05456 9.27121C7.01848 9.18536 6.9999 9.09316 6.9999 9.00004C6.9999 8.90691 7.01848 8.81472 7.05456 8.72886C7.09063 8.64301 7.14348 8.56521 7.21 8.50004L11.5 4.21004C11.6323 4.07664 11.8121 4.00112 12 4.00004ZM12 2.00004C11.6451 1.99817 11.2934 2.06707 10.9655 2.20272C10.6375 2.33836 10.3399 2.53803 10.09 2.79004L5.79 7.09004C5.28559 7.59774 5.0025 8.28436 5.0025 9.00004C5.0025 9.71571 5.28559 10.4023 5.79 10.91L10.09 15.21C10.3407 15.461 10.6385 15.6601 10.9662 15.7959C11.294 15.9317 11.6452 16.0017 12 16.0017C12.3548 16.0017 12.706 15.9317 13.0338 15.7959C13.3615 15.6601 13.6593 15.461 13.91 15.21L18.21 10.91C18.7144 10.4023 18.9975 9.71571 18.9975 9.00004C18.9975 8.28436 18.7144 7.59774 18.21 7.09004L13.91 2.79004C13.6601 2.53803 13.3625 2.33836 13.0345 2.20272C12.7066 2.06707 12.3549 1.99817 12 2.00004ZM19 16L22 13H19L17 15V17H14.23L14.84 18.84L12 17.89L9.16 18.84L9.77 17H7V15L5 13H2L5 16L3 19H7L6 22L12 20L18 22L17 19H21L19 16ZM12 7.00004C11.6044 7.00004 11.2178 7.11733 10.8889 7.3371C10.56 7.55686 10.3036 7.86922 10.1522 8.23467C10.0009 8.60012 9.96126 9.00226 10.0384 9.39022C10.1156 9.77818 10.3061 10.1345 10.5858 10.4143C10.8655 10.694 11.2219 10.8844 11.6098 10.9616C11.9978 11.0388 12.3999 10.9992 12.7654 10.8478C13.1308 10.6964 13.4432 10.4401 13.6629 10.1112C13.8827 9.78228 14 9.3956 14 9.00004C14 8.4696 13.7893 7.9609 13.4142 7.58582C13.0391 7.21075 12.5304 7.00004 12 7.00004Z" fill="#0F1621"/>
</svg>
