<svg width="16" height="16" viewBox="0 0 16 16" fill="none" xmlns="http://www.w3.org/2000/svg">
<path d="M7.99998 1C6.58801 1.00452 5.22287 1.50685 4.14475 2.41862C3.06662 3.33038 2.34459 4.59316 2.10569 5.98478C1.86678 7.37639 2.12631 8.80768 2.83862 10.0268C3.55092 11.246 4.67037 12.1748 5.99998 12.65V14C5.99998 14.2652 6.10534 14.5196 6.29287 14.7071C6.48041 14.8946 6.73476 15 6.99998 15H8.99998C9.2652 15 9.51955 14.8946 9.70709 14.7071C9.89462 14.5196 9.99998 14.2652 9.99998 14V12.65C11.3296 12.1748 12.449 11.246 13.1613 10.0268C13.8736 8.80768 14.1332 7.37639 13.8943 5.98478C13.6554 4.59316 12.9333 3.33038 11.8552 2.41862C10.7771 1.50685 9.41195 1.00452 7.99998 1ZM4.58998 5L5.99998 3.59L7.91998 5.51H7.99998C8.29708 5.51001 8.58748 5.59824 8.83437 5.76351C9.08125 5.92878 9.2735 6.16364 9.38673 6.43831C9.49996 6.71298 9.52908 7.01509 9.47039 7.30633C9.41169 7.59757 9.26783 7.86483 9.05705 8.0742C8.84627 8.28358 8.57807 8.42564 8.28644 8.48239C7.99481 8.53913 7.6929 8.508 7.41899 8.39293C7.14508 8.27786 6.91151 8.08405 6.7479 7.83606C6.58429 7.58808 6.498 7.29709 6.49998 7C6.4943 6.97364 6.4943 6.94636 6.49998 6.92L4.58998 5Z" fill="#0F1621"/>
</svg>
