<svg width="16" height="16" viewBox="0 0 16 16" fill="none" xmlns="http://www.w3.org/2000/svg">
<path d="M11.71 4.28994L8.71 1.28994C8.61704 1.19621 8.50644 1.12182 8.38458 1.07105C8.26272 1.02028 8.13201 0.994141 8 0.994141C7.86799 0.994141 7.73728 1.02028 7.61542 1.07105C7.49356 1.12182 7.38296 1.19621 7.29 1.28994L4.29 4.28994C4.19627 4.3829 4.12188 4.4935 4.07111 4.61536C4.02034 4.73722 3.9942 4.86793 3.9942 4.99994C3.9942 5.13195 4.02034 5.26266 4.07111 5.38452C4.12188 5.50637 4.19627 5.61698 4.29 5.70994L7.29 8.70994C7.38296 8.80367 7.49356 8.87806 7.61542 8.92883C7.73728 8.9796 7.86799 9.00574 8 9.00574C8.13201 9.00574 8.26272 8.9796 8.38458 8.92883C8.50644 8.87806 8.61704 8.80367 8.71 8.70994L11.71 5.70994C11.8037 5.61698 11.8781 5.50637 11.9289 5.38452C11.9797 5.26266 12.0058 5.13195 12.0058 4.99994C12.0058 4.86793 11.9797 4.73722 11.9289 4.61536C11.8781 4.4935 11.8037 4.3829 11.71 4.28994ZM8 5.99994C7.80222 5.99994 7.60888 5.94129 7.44443 5.83141C7.27998 5.72153 7.15181 5.56535 7.07612 5.38262C7.00043 5.1999 6.98063 4.99883 7.01921 4.80485C7.0578 4.61087 7.15304 4.43268 7.29289 4.29283C7.43275 4.15298 7.61093 4.05774 7.80491 4.01915C7.99889 3.98057 8.19996 4.00037 8.38268 4.07606C8.56541 4.15175 8.72159 4.27992 8.83147 4.44437C8.94135 4.60882 9 4.80216 9 4.99994C9 5.26516 8.89464 5.51951 8.70711 5.70705C8.51957 5.89458 8.26522 5.99994 8 5.99994ZM14 12.9999H11L12 14.9999L8 12.9999L4 14.9999L5 12.9999H2L4 10.9999L1 8.99994H4.75L5.87 10.1199C6.14871 10.3996 6.47989 10.6215 6.84454 10.7729C7.2092 10.9244 7.60016 11.0023 7.995 11.0023C8.38984 11.0023 8.7808 10.9244 9.14546 10.7729C9.51011 10.6215 9.84129 10.3996 10.12 10.1199L11.24 8.99994H15L12 10.9999L14 12.9999Z" fill="#0F1621"/>
</svg>
