<svg width="24" height="24" viewBox="0 0 24 24" fill="none" xmlns="http://www.w3.org/2000/svg">
<path d="M12 5.26C14.35 8.45 17 12.77 17 15C17 18.41 15.41 20 12 20C8.59 20 7 18.41 7 15C7 12.77 9.65 8.45 12 5.26ZM12 2C12 2 5 10.5 5 15C5 19 7 22 12 22C17 22 19 19 19 15C19 10.5 12 2 12 2ZM12 15.5C12 15.2033 11.912 14.9133 11.7472 14.6666C11.5824 14.42 11.3481 14.2277 11.074 14.1142C10.7999 14.0006 10.4983 13.9709 10.2074 14.0288C9.91639 14.0867 9.64912 14.2296 9.43934 14.4393C9.22956 14.6491 9.0867 14.9164 9.02882 15.2074C8.97094 15.4983 9.00065 15.7999 9.11418 16.074C9.22771 16.3481 9.41997 16.5824 9.66665 16.7472C9.91332 16.912 10.2033 17 10.5 17C10.8978 17 11.2794 16.842 11.5607 16.5607C11.842 16.2794 12 15.8978 12 15.5ZM18 2C17.8022 2 17.6089 2.05865 17.4444 2.16853C17.28 2.27841 17.1518 2.43459 17.0761 2.61732C17.0004 2.80004 16.9806 3.00111 17.0192 3.19509C17.0578 3.38907 17.153 3.56725 17.2929 3.70711C17.4327 3.84696 17.6109 3.9422 17.8049 3.98079C17.9989 4.01937 18.2 3.99957 18.3827 3.92388C18.5654 3.84819 18.7216 3.72002 18.8315 3.55557C18.9414 3.39112 19 3.19778 19 3C19 2.73478 18.8946 2.48043 18.7071 2.29289C18.5196 2.10536 18.2652 2 18 2ZM6.5 2C6.20333 2 5.91332 2.08797 5.66665 2.2528C5.41997 2.41762 5.22771 2.65189 5.11418 2.92597C5.00065 3.20006 4.97094 3.50166 5.02882 3.79264C5.0867 4.08361 5.22956 4.35088 5.43934 4.56066C5.64912 4.77044 5.91639 4.9133 6.20737 4.97118C6.49834 5.02906 6.79994 4.99935 7.07403 4.88582C7.34811 4.77229 7.58238 4.58003 7.7472 4.33336C7.91203 4.08668 8 3.79667 8 3.5C8 3.10218 7.84197 2.72064 7.56066 2.43934C7.27936 2.15804 6.89783 2 6.5 2ZM20.5 6C20.2033 6 19.9133 6.08797 19.6666 6.2528C19.42 6.41762 19.2277 6.65189 19.1142 6.92597C19.0007 7.20006 18.9709 7.50166 19.0288 7.79264C19.0867 8.08361 19.2296 8.35088 19.4393 8.56066C19.6491 8.77044 19.9164 8.9133 20.2074 8.97118C20.4983 9.02906 20.7999 8.99935 21.074 8.88582C21.3481 8.77229 21.5824 8.58003 21.7472 8.33335C21.912 8.08668 22 7.79667 22 7.5C22 7.10218 21.842 6.72064 21.5607 6.43934C21.2794 6.15804 20.8978 6 20.5 6ZM3 7C2.80222 7 2.60888 7.05865 2.44443 7.16853C2.27998 7.27841 2.15181 7.43459 2.07612 7.61732C2.00043 7.80004 1.98063 8.00111 2.01922 8.19509C2.0578 8.38907 2.15304 8.56725 2.29289 8.70711C2.43275 8.84696 2.61093 8.9422 2.80491 8.98079C2.99889 9.01937 3.19996 8.99957 3.38268 8.92388C3.56541 8.84819 3.72159 8.72002 3.83147 8.55557C3.94135 8.39112 4 8.19778 4 8C4 7.73478 3.89464 7.48043 3.70711 7.29289C3.51957 7.10536 3.26522 7 3 7Z" fill="#0F1621"/>
</svg>
