<svg width="24" height="24" viewBox="0 0 24 24" fill="none" xmlns="http://www.w3.org/2000/svg">
<path d="M18.21 7.08994L13.91 2.78994C13.4023 2.28554 12.7157 2.00244 12 2.00244C11.2843 2.00244 10.5977 2.28554 10.09 2.78994L5.79 7.08994C5.28559 7.59765 5.0025 8.28427 5.0025 8.99994C5.0025 9.71562 5.28559 10.4022 5.79 10.9099L10.09 15.2099C10.5977 15.7143 11.2843 15.9974 12 15.9974C12.7157 15.9974 13.4023 15.7143 13.91 15.2099L18.21 10.9099C18.7144 10.4022 18.9975 9.71562 18.9975 8.99994C18.9975 8.28427 18.7144 7.59765 18.21 7.08994ZM12 10.9999C11.6044 10.9999 11.2178 10.8826 10.8889 10.6629C10.56 10.4431 10.3036 10.1308 10.1522 9.76531C10.0009 9.39986 9.96126 8.99772 10.0384 8.60976C10.1156 8.2218 10.3061 7.86543 10.5858 7.58573C10.8655 7.30602 11.2219 7.11554 11.6098 7.03837C11.9978 6.9612 12.3999 7.00081 12.7654 7.15218C13.1308 7.30356 13.4432 7.5599 13.6629 7.8888C13.8827 8.2177 14 8.60438 14 8.99994C14 9.53038 13.7893 10.0391 13.4142 10.4142C13.0391 10.7892 12.5304 10.9999 12 10.9999ZM19 15.9999L22 12.9999H18.94L15.32 16.6199C14.885 17.0577 14.3678 17.4052 13.798 17.6423C13.2282 17.8794 12.6171 18.0015 12 18.0015C11.3829 18.0015 10.7718 17.8794 10.202 17.6423C9.63223 17.4052 9.11497 17.0577 8.68 16.6199L5.06 12.9999H2L5 15.9999L3 18.9999H7L6 21.9999L12 19.9999L18 21.9999L17 18.9999H21L19 15.9999Z" fill="#0F1621"/>
</svg>
