<svg width="16" height="16" viewBox="0 0 16 16" fill="none" xmlns="http://www.w3.org/2000/svg">
<path d="M12 5V3H9V2.5C9 2.10218 8.84197 1.72064 8.56066 1.43934C8.27936 1.15804 7.89783 1 7.5 1C7.10218 1 6.72065 1.15804 6.43934 1.43934C6.15804 1.72064 6 2.10218 6 2.5V8.35C5.28202 8.69057 4.7013 9.26534 4.35335 9.97977C4.0054 10.6942 3.91093 11.5058 4.08548 12.2811C4.26003 13.0563 4.6932 13.7491 5.31376 14.2455C5.93433 14.7419 6.70534 15.0123 7.5 15.0123C8.29467 15.0123 9.06568 14.7419 9.68624 14.2455C10.3068 13.7491 10.74 13.0563 10.9145 12.2811C11.0891 11.5058 10.9946 10.6942 10.6467 9.97977C10.2987 9.26534 9.71799 8.69057 9 8.35V8H12V6H9V5H12ZM7.5 12.5C7.30222 12.5 7.10888 12.4414 6.94443 12.3315C6.77998 12.2216 6.65181 12.0654 6.57612 11.8827C6.50044 11.7 6.48063 11.4989 6.51922 11.3049C6.5578 11.1109 6.65304 10.9327 6.7929 10.7929C6.93275 10.653 7.11093 10.5578 7.30491 10.5192C7.49889 10.4806 7.69996 10.5004 7.88269 10.5761C8.06541 10.6518 8.22159 10.78 8.33147 10.9444C8.44135 11.1089 8.5 11.3022 8.5 11.5C8.5 11.7652 8.39465 12.0196 8.20711 12.2071C8.01957 12.3946 7.76522 12.5 7.5 12.5Z" fill="#0F1621"/>
</svg>
