<svg width="24" height="24" viewBox="0 0 24 24" fill="none" xmlns="http://www.w3.org/2000/svg">
<path d="M18 7V5H14C14 4.20435 13.6839 3.44129 13.1213 2.87868C12.5587 2.31607 11.7956 2 11 2C10.2044 2 9.44129 2.31607 8.87868 2.87868C8.31607 3.44129 8 4.20435 8 5V13C7.16047 13.6296 6.54033 14.5075 6.22743 15.5092C5.91453 16.5108 5.92473 17.5856 6.25658 18.5811C6.58844 19.5767 7.22512 20.4426 8.07645 21.0562C8.92778 21.6698 9.95059 22 11 22C12.0494 22 13.0722 21.6698 13.9236 21.0562C14.7749 20.4426 15.4116 19.5767 15.7434 18.5811C16.0753 17.5856 16.0855 16.5108 15.7726 15.5092C15.4597 14.5075 14.8395 13.6296 14 13V11H18V9H14V7H18ZM12 14.05L12.81 14.65C13.3113 15.0292 13.6808 15.5564 13.8663 16.1569C14.0519 16.7575 14.0441 17.4012 13.8441 17.9971C13.644 18.593 13.2619 19.111 12.7516 19.478C12.2413 19.845 11.6286 20.0425 11 20.0425C10.3714 20.0425 9.75872 19.845 9.24841 19.478C8.7381 19.111 8.35595 18.593 8.15594 17.9971C7.95592 17.4012 7.94813 16.7575 8.13367 16.1569C8.31922 15.5564 8.68872 15.0292 9.19 14.65L10 14.05V5C10 4.73478 10.1054 4.48043 10.2929 4.29289C10.4804 4.10536 10.7348 4 11 4C11.2652 4 11.5196 4.10536 11.7071 4.29289C11.8946 4.48043 12 4.73478 12 5V14.05ZM12 17C12 17.1978 11.9414 17.3911 11.8315 17.5556C11.7216 17.72 11.5654 17.8482 11.3827 17.9239C11.2 17.9996 10.9989 18.0194 10.8049 17.9808C10.6109 17.9422 10.4327 17.847 10.2929 17.7071C10.153 17.5673 10.0578 17.3891 10.0192 17.1951C9.98063 17.0011 10.0004 16.8 10.0761 16.6173C10.1518 16.4346 10.28 16.2784 10.4444 16.1685C10.6089 16.0586 10.8022 16 11 16C11.2652 16 11.5196 16.1054 11.7071 16.2929C11.8946 16.4804 12 16.7348 12 17Z" fill="#0F1621"/>
</svg>
