<svg width="24" height="24" viewBox="0 0 24 24" fill="none" xmlns="http://www.w3.org/2000/svg">
<path d="M16.5 2C17.6046 2 18.5 2.89543 18.5 4V20C18.5 21.1046 17.6046 22 16.5 22H7.5C6.39543 22 5.5 21.1046 5.5 20V4C5.5 2.89543 6.39543 2 7.5 2H16.5ZM8.5 4C7.94772 4 7.5 4.44772 7.5 5V19C7.5 19.5523 7.94772 20 8.5 20H15.5C16.0523 20 16.5 19.5523 16.5 19V5C16.5 4.44772 16.0523 4 15.5 4H8.5Z" fill="#092732"/>
<path d="M13.25 17.25C13.25 17.9404 12.6904 18.5 12 18.5C11.3096 18.5 10.75 17.9404 10.75 17.25C10.75 16.5596 11.3096 16 12 16C12.6904 16 13.25 16.5596 13.25 17.25Z" fill="#092732"/>
</svg>
