<svg width="16" height="16" viewBox="0 0 16 16" fill="none" xmlns="http://www.w3.org/2000/svg">
<path d="M12 1H4C3.73478 1 3.48043 1.10536 3.29289 1.29289C3.10536 1.48043 3 1.73478 3 2V14C3 14.2652 3.10536 14.5196 3.29289 14.7071C3.48043 14.8946 3.73478 15 4 15H12C12.2652 15 12.5196 14.8946 12.7071 14.7071C12.8946 14.5196 13 14.2652 13 14V2C13 1.73478 12.8946 1.48043 12.7071 1.29289C12.5196 1.10536 12.2652 1 12 1ZM6 5C5.80222 5 5.60888 4.94135 5.44443 4.83147C5.27998 4.72159 5.15181 4.56541 5.07612 4.38268C5.00043 4.19996 4.98063 3.99889 5.01921 3.80491C5.0578 3.61093 5.15304 3.43275 5.29289 3.29289C5.43275 3.15304 5.61093 3.0578 5.80491 3.01921C5.99889 2.98063 6.19996 3.00043 6.38268 3.07612C6.56541 3.15181 6.72159 3.27998 6.83147 3.44443C6.94135 3.60888 7 3.80222 7 4C7 4.26522 6.89464 4.51957 6.70711 4.70711C6.51957 4.89464 6.26522 5 6 5Z" fill="#0F1621"/>
</svg>
