<svg width="24" height="24" viewBox="0 0 24 24" fill="none" xmlns="http://www.w3.org/2000/svg">
<path d="M17 4V20H7V4H17ZM17 2H7C6.46957 2 5.96086 2.21071 5.58579 2.58579C5.21071 2.96086 5 3.46957 5 4V20C5 20.5304 5.21071 21.0391 5.58579 21.4142C5.96086 21.7893 6.46957 22 7 22H17C17.5304 22 18.0391 21.7893 18.4142 21.4142C18.7893 21.0391 19 20.5304 19 20V4C19 3.46957 18.7893 2.96086 18.4142 2.58579C18.0391 2.21071 17.5304 2 17 2ZM12 7.5C12 7.20333 11.912 6.91332 11.7472 6.66664C11.5824 6.41997 11.3481 6.22771 11.074 6.11418C10.7999 6.00065 10.4983 5.97094 10.2074 6.02882C9.91639 6.0867 9.64912 6.22956 9.43934 6.43934C9.22956 6.64912 9.0867 6.91639 9.02882 7.20736C8.97094 7.49834 9.00065 7.79994 9.11418 8.07403C9.22771 8.34811 9.41997 8.58238 9.66665 8.7472C9.91332 8.91203 10.2033 9 10.5 9C10.8978 9 11.2794 8.84196 11.5607 8.56066C11.842 8.27936 12 7.89782 12 7.5Z" fill="#0F1621"/>
</svg>
