<svg width="24" height="24" viewBox="0 0 24 24" fill="none" xmlns="http://www.w3.org/2000/svg">
<path d="M17 9.08L16 10.08L18 12.08L16 14.08L17 15.08L20 12.08L17 9.08ZM6 12.08L8 10.08L7 9.08L4 12.08L7 15.08L8 14.08L6 12.08ZM10.47 17.89L8.65 17.07L13.53 6.07L15.35 6.89L10.47 17.89ZM22 11L20 9V4H4V9L2 11V4C2 3.46957 2.21071 2.96086 2.58579 2.58579C2.96086 2.21071 3.46957 2 4 2H20C20.5304 2 21.0391 2.21071 21.4142 2.58579C21.7893 2.96086 22 3.46957 22 4V11ZM20 22H4C3.46957 22 2.96086 21.7893 2.58579 21.4142C2.21071 21.0391 2 20.5304 2 20V13L4 15V20H20V15L22 13V20C22 20.5304 21.7893 21.0391 21.4142 21.4142C21.0391 21.7893 20.5304 22 20 22Z" fill="#0F1621"/>
</svg>
