<svg width="16" height="16" viewBox="0 0 16 16" fill="none" xmlns="http://www.w3.org/2000/svg">
<path d="M12 6.08L11 7.08L12 8.08L11 9.08L12 10.08L14 8.08L12 6.08ZM4 8.08L5 7.08L4 6.08L2 8.08L4 10.08L5 9.08L4 8.08ZM7.29 12.08L5.46 11.27L8.71 3.94L10.54 4.75L7.29 12.08ZM15 5H13V3H3V5H1V2C1 1.73478 1.10536 1.48043 1.29289 1.29289C1.48043 1.10536 1.73478 1 2 1H14C14.2652 1 14.5196 1.10536 14.7071 1.29289C14.8946 1.48043 15 1.73478 15 2V5ZM1 11H3V13H13V11H15V14C15 14.2652 14.8946 14.5196 14.7071 14.7071C14.5196 14.8946 14.2652 15 14 15H2C1.73478 15 1.48043 14.8946 1.29289 14.7071C1.10536 14.5196 1 14.2652 1 14V11Z" fill="#0F1621"/>
</svg>
