<svg width="16" height="16" viewBox="0 0 16 16" fill="none" xmlns="http://www.w3.org/2000/svg">
<path d="M8 5C7.40666 5 6.82664 5.17595 6.33329 5.50559C5.83994 5.83524 5.45542 6.30377 5.22836 6.85195C5.0013 7.40013 4.94189 8.00333 5.05764 8.58527C5.1734 9.16721 5.45912 9.70176 5.87868 10.1213C6.29824 10.5409 6.83279 10.8266 7.41473 10.9424C7.99667 11.0581 8.59987 10.9987 9.14805 10.7716C9.69623 10.5446 10.1648 10.1601 10.4944 9.66671C10.8241 9.17336 11 8.59334 11 8C11 7.20435 10.6839 6.44129 10.1213 5.87868C9.55871 5.31607 8.79565 5 8 5ZM8 9C7.80222 9 7.60888 8.94135 7.44443 8.83147C7.27998 8.72159 7.15181 8.56541 7.07612 8.38268C7.00043 8.19996 6.98063 7.99889 7.01921 7.80491C7.0578 7.61093 7.15304 7.43275 7.29289 7.29289C7.43275 7.15304 7.61093 7.0578 7.80491 7.01921C7.99889 6.98063 8.19996 7.00043 8.38268 7.07612C8.56541 7.15181 8.72159 7.27998 8.83147 7.44443C8.94135 7.60888 9 7.80222 9 8C9 8.26522 8.89464 8.51957 8.70711 8.70711C8.51957 8.89464 8.26522 9 8 9ZM1 1V13C1 13.5304 1.21071 14.0391 1.58579 14.4142C1.96086 14.7893 2.46957 15 3 15H13C13.5304 15 14.0391 14.7893 14.4142 14.4142C14.7893 14.0391 15 13.5304 15 13V1H1ZM8 13C7.01109 13 6.04439 12.7068 5.22215 12.1573C4.3999 11.6079 3.75904 10.827 3.3806 9.91342C3.00216 8.99979 2.90315 7.99445 3.09607 7.02455C3.289 6.05464 3.7652 5.16373 4.46447 4.46447C5.16373 3.7652 6.05464 3.289 7.02455 3.09607C7.99445 2.90315 8.99979 3.00216 9.91342 3.3806C10.827 3.75904 11.6079 4.3999 12.1573 5.22215C12.7068 6.04439 13 7.01109 13 8C13 9.32608 12.4732 10.5979 11.5355 11.5355C10.5979 12.4732 9.32608 13 8 13Z" fill="#0F1621"/>
</svg>
