<svg width="24" height="24" viewBox="0 0 24 24" fill="none" xmlns="http://www.w3.org/2000/svg">
<path d="M17 2.00044C18.1046 2.00044 19 2.89587 19 4.00044V20.0004C18.9998 21.1048 18.1044 22.0004 17 22.0004H7C5.89558 22.0004 5.00024 21.1048 5 20.0004V4.00044C5 2.89587 5.89543 2.00044 7 2.00044H17ZM12 11.0004C9.79086 11.0004 8 12.7913 8 15.0004C8.00024 17.2094 9.79101 19.0004 12 19.0004C14.209 19.0004 15.9998 17.2094 16 15.0004C16 12.7913 14.2091 11.0004 12 11.0004ZM12 13.0004C13.1046 13.0004 14 13.8959 14 15.0004C13.9998 16.1048 13.1044 17.0004 12 17.0004C10.8956 17.0004 10.0002 16.1048 10 15.0004C10 13.8959 10.8954 13.0004 12 13.0004ZM12 5.50044C11.1716 5.50044 10.5 6.17202 10.5 7.00044C10.5002 7.82867 11.1717 8.50044 12 8.50044C12.8283 8.50044 13.4998 7.82867 13.5 7.00044C13.5 6.17202 12.8284 5.50044 12 5.50044Z" fill="#092732"/>
</svg>
