<svg width="16" height="16" viewBox="0 0 16 16" fill="none" xmlns="http://www.w3.org/2000/svg">
<path d="M12 1C12.5523 1 13 1.44772 13 2V14C13 14.5523 12.5523 15 12 15H4C3.44772 15 3 14.5523 3 14V2C3 1.44772 3.44772 1 4 1H12ZM8 7.25C6.48122 7.25 5.25 8.48122 5.25 10C5.25 11.5188 6.48122 12.75 8 12.75C9.51878 12.75 10.75 11.5188 10.75 10C10.75 8.48122 9.51878 7.25 8 7.25ZM8 8.75C8.69036 8.75 9.25 9.30964 9.25 10C9.25 10.6904 8.69036 11.25 8 11.25C7.30964 11.25 6.75 10.6904 6.75 10C6.75 9.30964 7.30964 8.75 8 8.75ZM8 3.5C7.44772 3.5 7 3.94772 7 4.5C7 5.05228 7.44772 5.5 8 5.5C8.55228 5.5 9 5.05228 9 4.5C9 3.94772 8.55228 3.5 8 3.5Z" fill="#092732"/>
</svg>
