<svg width="16" height="16" viewBox="0 0 16 16" fill="none" xmlns="http://www.w3.org/2000/svg">
<path d="M14 2H2C1.73478 2 1.48043 2.10536 1.29289 2.29289C1.10536 2.48043 1 2.73478 1 3V13C1 13.2652 1.10536 13.5196 1.29289 13.7071C1.48043 13.8946 1.73478 14 2 14H14C14.2652 14 14.5196 13.8946 14.7071 13.7071C14.8946 13.5196 15 13.2652 15 13V3C15 2.73478 14.8946 2.48043 14.7071 2.29289C14.5196 2.10536 14.2652 2 14 2ZM4 9C3.80222 9 3.60888 8.94135 3.44443 8.83147C3.27998 8.72159 3.15181 8.56541 3.07612 8.38268C3.00043 8.19996 2.98063 7.99889 3.01921 7.80491C3.0578 7.61093 3.15304 7.43275 3.29289 7.29289C3.43275 7.15304 3.61093 7.0578 3.80491 7.01921C3.99889 6.98063 4.19996 7.00043 4.38268 7.07612C4.56541 7.15181 4.72159 7.27998 4.83147 7.44443C4.94135 7.60888 5 7.80222 5 8C5 8.26522 4.89464 8.51957 4.70711 8.70711C4.51957 8.89464 4.26522 9 4 9Z" fill="#0F1621"/>
</svg>
