<svg width="24" height="24" viewBox="0 0 24 24" fill="none" xmlns="http://www.w3.org/2000/svg">
<path d="M20 5V19H4V5H20ZM20 3H4C3.46957 3 2.96086 3.21071 2.58579 3.58579C2.21071 3.96086 2 4.46957 2 5V19C2 19.5304 2.21071 20.0391 2.58579 20.4142C2.96086 20.7893 3.46957 21 4 21H20C20.5304 21 21.0391 20.7893 21.4142 20.4142C21.7893 20.0391 22 19.5304 22 19V5C22 4.46957 21.7893 3.96086 21.4142 3.58579C21.0391 3.21071 20.5304 3 20 3ZM7.5 13C7.20333 13 6.91332 12.912 6.66664 12.7472C6.41997 12.5824 6.22771 12.3481 6.11418 12.074C6.00065 11.7999 5.97094 11.4983 6.02882 11.2074C6.0867 10.9164 6.22956 10.6491 6.43934 10.4393C6.64912 10.2296 6.91639 10.0867 7.20736 10.0288C7.49834 9.97094 7.79994 10.0006 8.07403 10.1142C8.34811 10.2277 8.58238 10.42 8.7472 10.6666C8.91203 10.9133 9 11.2033 9 11.5C9 11.8978 8.84196 12.2794 8.56066 12.5607C8.27936 12.842 7.89782 13 7.5 13Z" fill="#0F1621"/>
</svg>
