<svg xmlns="http://www.w3.org/2000/svg" viewBox="0 0 16 16"><title>LUI-icon-pd-route-solid-16</title><g id="Layer_2" data-name="Layer 2"><g id="LUI-icon-pd-route-solid-16"><g id="LUI-icon-pd-route-solid-16-2" data-name="LUI-icon-pd-route-solid-16"><rect width="16" height="16" fill="none"/><path d="M5,3A2,2,0,1,1,3,1,2,2,0,0,1,5,3Zm8,8a2,2,0,1,0,2,2A2,2,0,0,0,13,11ZM1,9v3a2,2,0,0,0,2,2H5V12H3V9H5V7H3A2,2,0,0,0,1,9Zm6,3v2H9V12ZM7,4H9V2H7ZM7,9H9V7H7Zm6-7H11V4h2V7H11V9h2a2,2,0,0,0,2-2V4A2,2,0,0,0,13,2Z"/></g></g></g></svg>