<svg xmlns="http://www.w3.org/2000/svg" viewBox="0 0 16 16"><title>LUI-icon-pd-nocontent-solid-16</title><g id="Layer_2" data-name="Layer 2"><g id="LUI-icon-pd-nocontent-solid-16"><g id="LUI-icon-pd-nocontent-solid-16-2" data-name="LUI-icon-pd-nocontent-solid-16"><rect width="16" height="16" fill="none"/><path d="M8,4H8A1,1,0,0,1,7,3V2A1,1,0,0,1,8,1H8A1,1,0,0,1,9,2V3A1,1,0,0,1,8,4ZM9,14V13a1,1,0,0,0-1-1H8a1,1,0,0,0-1,1v1a1,1,0,0,0,1,1H8A1,1,0,0,0,9,14ZM5.17,3.76l-.71-.71a1,1,0,0,0-1.41,0h0a1,1,0,0,0,0,1.41l.71.71a1,1,0,0,0,1.41,0h0A1,1,0,0,0,5.17,3.76ZM13,11.54l-.71-.71a1,1,0,0,0-1.41,0h0a1,1,0,0,0,0,1.41l.71.71A1,1,0,0,0,13,13h0A1,1,0,0,0,13,11.54ZM3,7H2A1,1,0,0,0,1,8H1A1,1,0,0,0,2,9H3A1,1,0,0,0,4,8H4A1,1,0,0,0,3,7ZM14,7H13a1,1,0,0,0-1,1h0a1,1,0,0,0,1,1h1a1,1,0,0,0,1-1h0A1,1,0,0,0,14,7ZM3.76,10.83l-.71.71a1,1,0,0,0,0,1.41h0a1,1,0,0,0,1.41,0l.71-.71a1,1,0,0,0,0-1.41h0A1,1,0,0,0,3.76,10.83Zm7.78-7.78-.71.71a1,1,0,0,0,0,1.41h0a1,1,0,0,0,1.41,0L13,4.46a1,1,0,0,0,0-1.41h0A1,1,0,0,0,11.54,3.05Z"/></g></g></g></svg>