<svg xmlns="http://www.w3.org/2000/svg" viewBox="0 0 16 16"><title>LUI-icon-pd-compass-solid-16</title><g id="Layer_2" data-name="Layer 2"><g id="LUI-icon-pd-compass-solid-16"><g id="LUI-icon-pd-compass-solid-16-2" data-name="LUI-icon-pd-compass-solid-16"><rect width="16" height="16" fill="none"/><path d="M13,3.05,5.88,5.88,3.05,13l7.07-2.83ZM7.29,8.71a1,1,0,1,1,1.42,0A1,1,0,0,1,7.29,8.71ZM4.15,4.83c.1-.13.2-.25.31-.37l.37-.31A4.89,4.89,0,0,1,7.65,3L11,1.68A7,7,0,0,0,1.68,11L3,7.65A4.89,4.89,0,0,1,4.15,4.83ZM14.32,5,13,8.35a4.89,4.89,0,0,1-1.14,2.82c-.1.13-.2.25-.31.37l-.37.31A4.89,4.89,0,0,1,8.35,13L5,14.32A7,7,0,0,0,14.32,5Z"/></g></g></g></svg>