<svg xmlns="http://www.w3.org/2000/svg" viewBox="0 0 16 16"><title>LUI-icon-pd-poop-solid-16</title><g id="Layer_2" data-name="Layer 2"><g id="LUI-icon-pd-poop-solid-16"><g id="LUI-icon-pd-poop-solid-16-2" data-name="LUI-icon-pd-poop-solid-16"><rect width="16" height="16" fill="none"/><path d="M14,10.87V9.22a2,2,0,0,0-2-2V6a1,1,0,0,0-1-1A4,4,0,0,0,7,1L6.17,3.32a1.42,1.42,0,0,1-.86.73l-.6.21a1,1,0,0,0-.71,1V6.46l-.52.14A2,2,0,0,0,2,8.54v2.33A1.38,1.38,0,0,0,1,12.2v1.4A1.4,1.4,0,0,0,2.4,15H13.6A1.4,1.4,0,0,0,15,13.6V12.2A1.39,1.39,0,0,0,14,10.87ZM5,12a1,1,0,1,1,1-1A1,1,0,0,1,5,12Zm4,0a1,1,0,1,1,1-1A1,1,0,0,1,9,12Z"/></g></g></g></svg>