<svg xmlns="http://www.w3.org/2000/svg" viewBox="0 0 16 16"><title>LUI-icon-pd-distribute-solid-16</title><g id="Layer_2" data-name="Layer 2"><g id="LUI-icon-pd-distribute-solid-16"><g id="LUI-icon-pd-distribute-solid-16-2" data-name="LUI-icon-pd-distribute-solid-16"><rect width="16" height="16" transform="translate(0 16) rotate(-90)" fill="none"/><path d="M15,15H13V13h2ZM13,7H3a2,2,0,0,0-1.41.59A2,2,0,0,0,1,9v2H3V9H7v2H9V9h4v2h2V9A2,2,0,0,0,13,7ZM9,13H7v2H9ZM3,13H1v2H3ZM10,1l1,1L8,5,5,2,6,1,8,3Z"/></g></g></g></svg>