<svg xmlns="http://www.w3.org/2000/svg" viewBox="0 0 16 16"><title>LUI-icon-pd-people-solid-16</title><g id="Layer_2" data-name="Layer 2"><g id="LUI-icon-pd-people-solid-16"><g id="LUI-icon-pd-people-solid-16-2" data-name="LUI-icon-pd-people-solid-16"><rect width="16" height="16" fill="none"/><path d="M3,3.4V2.6A1.55,1.55,0,0,1,4.5,1,1.55,1.55,0,0,1,6,2.6v.8A1.55,1.55,0,0,1,4.5,5,1.55,1.55,0,0,1,3,3.4ZM10,10H6a1,1,0,0,0-1,1v4h6V11A1,1,0,0,0,10,10ZM8,9A1.55,1.55,0,0,0,9.5,7.4V6.6A1.55,1.55,0,0,0,8,5,1.55,1.55,0,0,0,6.5,6.6v.8A1.55,1.55,0,0,0,8,9Zm3.5-4A1.55,1.55,0,0,0,13,3.4V2.6a1.5,1.5,0,1,0-3,0v.8A1.55,1.55,0,0,0,11.5,5ZM5,6H4A3,3,0,0,0,1,9v4H3V9A1,1,0,0,1,4,8H5Zm7,0H11V8h1a1,1,0,0,1,1,1v4h2V9A3,3,0,0,0,12,6Z"/></g></g></g></svg>