<svg xmlns="http://www.w3.org/2000/svg" viewBox="0 0 16 16"><title>LUI-icon-pd-speedalert-solid-16</title><g id="Layer_2" data-name="Layer 2"><g id="LUI-icon-pd-speedalert-solid-16"><g id="LUI-icon-pd-speedalert-solid-16-2" data-name="LUI-icon-pd-speedalert-solid-16"><rect width="16" height="16" fill="none"/><path d="M8,3a6.84,6.84,0,0,0-3,.68v8.16l.13-.05a4,4,0,0,0,5.74,0L14.33,13A7,7,0,0,0,8,3ZM9.47,9.81A1.5,1.5,0,1,1,8,8a1.12,1.12,0,0,1,.45.08l3-1.7,1,1.74ZM3,14H1V12H3Zm0-4H1V2H3Z"/></g></g></g></svg>