<svg xmlns="http://www.w3.org/2000/svg" viewBox="0 0 16 16"><title>LUI-icon-pd-opacity_on-solid-16</title><g id="Layer_2" data-name="Layer 2"><g id="LUI-icon-pd-opacity_on-solid-16"><g id="LUI-icon-pd-opacity_on-solid-16-2" data-name="LUI-icon-pd-opacity_on-solid-16"><rect width="16" height="16" fill="none"/><path d="M9,9h2V7H9ZM7,7H5V9H7ZM9,7V5H7V7ZM7,9v2H9V9Zm7-8H2A1,1,0,0,0,1,2V14a1,1,0,0,0,1,1H14a1,1,0,0,0,1-1V2A1,1,0,0,0,14,1ZM13,5H11V7h2V9H11v2h2v2H11V11H9v2H7V11H5v2H3V11H5V9H3V7H5V5H3V3H5V5H7V3H9V5h2V3h2Z"/></g></g></g></svg>