<svg xmlns="http://www.w3.org/2000/svg" viewBox="0 0 16 16"><title>LUI-icon-pd-speedalert_off-solid-16</title><g id="Layer_2" data-name="Layer 2"><g id="LUI-icon-pd-speedalert_off-solid-16"><g id="LUI-icon-pd-speedalert_off-solid-16-2" data-name="LUI-icon-pd-speedalert_off-solid-16"><rect width="16" height="16" fill="none"/><path d="M13.94,6.3,7.3,12.94A4,4,0,0,0,8,13a4,4,0,0,0,2.87-1.21L14.33,13a7,7,0,0,0-.39-6.7ZM8,3a6.84,6.84,0,0,0-3,.68V6.76L8.72,3A5.79,5.79,0,0,0,8,3ZM3,2V8.76L1.76,10H1V2ZM2.41,15,1,13.59,13.59,1,15,2.41Z"/></g></g></g></svg>