<svg xmlns="http://www.w3.org/2000/svg" viewBox="0 0 16 16"><title>LUI-icon-pd-3d-solid-16</title><g id="Layer_2" data-name="Layer 2"><g id="LUI-icon-pd-3d-solid-16"><g id="LUI-icon-pd-3d-solid-16-2" data-name="LUI-icon-pd-3d-solid-16"><g opacity="0"><rect width="16" height="16" fill="none"/></g><path d="M7,4V6.57a1,1,0,0,1-.28.71L6,8l.7.69A1,1,0,0,1,7,9.4V12a1,1,0,0,1-1,1H1V11H5V9H2V7H5V5H1V3H6A1,1,0,0,1,7,4Zm6-1a2,2,0,0,1,2,2v6a2,2,0,0,1-2,2H9V3Zm0,7V6a1,1,0,0,0-1-1H11v6h1A1,1,0,0,0,13,10Z"/></g></g></g></svg>