<svg xmlns="http://www.w3.org/2000/svg" viewBox="0 0 16 16"><title>LUI-icon-pd-road_tolls_off-solid-16</title><g id="Layer_2" data-name="Layer 2"><g id="LUI-icon-pd-road_tolls_off-solid-16"><g id="LUI-icon-pd-road_tolls_off-solid-16-2" data-name="LUI-icon-pd-road_tolls_off-solid-16"><rect width="16" height="16" fill="none"/><path d="M13,11v2H7.24l-2,2H15V11Zm-1-1a3.66,3.66,0,0,1-.13,1H9.24l2.47-2.47A3.78,3.78,0,0,1,12,10ZM8,1a4,4,0,0,1,2.14.62L7.75,4A5.86,5.86,0,0,0,4,5.51,4.36,4.36,0,0,1,4,5,4,4,0,0,1,8,1ZM2.41,15,1,13.59,13.59,1,15,2.41Z"/></g></g></g></svg>