<svg xmlns="http://www.w3.org/2000/svg" viewBox="0 0 16 16"><title>LUI-icon-pd-selector_polygon-solid-16</title><g id="Layer_2" data-name="Layer 2"><g id="LUI-icon-pd-selector_polygon-solid-16"><g id="LUI-icon-pd-selector_polygon-solid-16-2" data-name="LUI-icon-pd-selector_polygon-solid-16"><rect width="16" height="16" fill="none"/><path d="M5,3A2,2,0,1,1,3,1,2,2,0,0,1,5,3Zm8-2a2,2,0,1,0,2,2A2,2,0,0,0,13,1Zm0,10a2,2,0,1,0,2,2A2,2,0,0,0,13,11ZM3,11a2,2,0,1,0,2,2A2,2,0,0,0,3,11Zm6,1H7v2H9Zm5-5H12V9h2ZM4,7H2V9H4ZM9,2H7V4H9Z"/></g></g></g></svg>