<svg xmlns="http://www.w3.org/2000/svg" viewBox="0 0 16 16"><title>LUI-icon-pd-wifi_off-solid-16</title><g id="Layer_2" data-name="Layer 2"><g id="LUI-icon-pd-wifi_off-solid-16"><g id="LUI-icon-pd-wifi_off-solid-16-2" data-name="LUI-icon-pd-wifi_off-solid-16"><rect width="16" height="16" fill="none"/><path d="M8,10a1.5,1.5,0,1,1-1.5,1.5A1.5,1.5,0,0,1,8,10Zm4-2.24L10.56,9.13a3.13,3.13,0,0,0-.8-.65L11.21,7A5.7,5.7,0,0,1,12,7.76Zm2.8-2.61L13.37,6.51a6.35,6.35,0,0,0-.82-.82L14,4.27A10.19,10.19,0,0,1,14.83,5.15ZM7.76,2,5.16,4.6A7.13,7.13,0,0,0,2.63,6.51L1.17,5.15A9,9,0,0,1,7.76,2ZM13,2.41,11.59,1,3,9.58,4.42,11Z"/></g></g></g></svg>