<svg xmlns="http://www.w3.org/2000/svg" viewBox="0 0 16 16"><title>LUI-icon-pd-telephone-solid-16</title><g id="Layer_2" data-name="Layer 2"><g id="LUI-icon-pd-telephone-solid-16"><g id="LUI-icon-pd-telephone-solid-16-2" data-name="LUI-icon-pd-telephone-solid-16"><rect width="16" height="16" fill="none"/><path d="M14.59,13.25,13,14.84a.88.88,0,0,1-.85.11,15.24,15.24,0,0,1-6.94-4.16A15.24,15.24,0,0,1,1.05,3.85.88.88,0,0,1,1.16,3L2.75,1.41a1.38,1.38,0,0,1,2,0l2,2.26L6.33,5.73a.69.69,0,0,0,.18.71L9.56,9.49a.69.69,0,0,0,.71.18l2.06-.36,2.26,2A1.38,1.38,0,0,1,14.59,13.25Z" fill-rule="evenodd"/></g></g></g></svg>