<svg xmlns="http://www.w3.org/2000/svg" viewBox="0 0 16 16"><title>LUI-icon-pd-road_unpaved-solid-16</title><g id="Layer_2" data-name="Layer 2"><g id="LUI-icon-pd-road_unpaved-solid-16"><g id="LUI-icon-pd-road_unpaved-solid-16-2" data-name="LUI-icon-pd-road_unpaved-solid-16"><rect width="16" height="16" fill="none"/><path d="M14.6,4.47l-2-2.67A2,2,0,0,0,11,1H5a2,2,0,0,0-1.6.8l-2,2.67A2,2,0,0,0,1,5.67V10a1,1,0,0,0,1,1H4a1,1,0,0,0,1-1V9h6v1a1,1,0,0,0,1,1h2a1,1,0,0,0,1-1V5.67A2,2,0,0,0,14.6,4.47ZM2.75,6l2-2.6A1,1,0,0,1,5.5,3h5a1,1,0,0,1,.8.4L13.25,6ZM14,12.77a3,3,0,0,0-4,0,3,3,0,0,0-4,0,3,3,0,0,0-4,0,3,3,0,0,0-1-.6v2.52a.92.92,0,0,0,.71.31h.58a.92.92,0,0,0,.82-.45,1,1,0,0,1,1.78,0,.92.92,0,0,0,.82.45h.58a.92.92,0,0,0,.82-.45,1,1,0,0,1,1.78,0,.92.92,0,0,0,.82.45h.58a.92.92,0,0,0,.82-.45,1,1,0,0,1,1.78,0,.92.92,0,0,0,.82.45h.58a.92.92,0,0,0,.71-.31V12.17A3,3,0,0,0,14,12.77Z"/></g></g></g></svg>