<svg xmlns="http://www.w3.org/2000/svg" viewBox="0 0 16 16"><title>LUI-icon-pd-unlink-solid-16</title><g id="Layer_2" data-name="Layer 2"><g id="LUI-icon-pd-unlink-solid-16"><g id="LUI-icon-pd-unlink-solid-16-2" data-name="LUI-icon-pd-unlink-solid-16"><rect width="16" height="16" fill="none"/><path d="M9.36,13.6a4.91,4.91,0,0,1-6.9-7L3,6V4H5V7L3.88,8a2.91,2.91,0,0,0,2.05,5,2.91,2.91,0,0,0,2-.82Zm4.2-11.14a4.9,4.9,0,0,0-6.9,0L8.08,3.84a2.91,2.91,0,0,1,2-.82,2.9,2.9,0,0,1,2.05,5L11,9v3h2V10l.55-.61A4.92,4.92,0,0,0,13.56,2.46Z"/></g></g></g></svg>