<svg xmlns="http://www.w3.org/2000/svg" viewBox="0 0 16 16"><title>LUI-icon-pd-traffic_off-solid-16</title><g id="Layer_2" data-name="Layer 2"><g id="LUI-icon-pd-traffic_off-solid-16"><g id="LUI-icon-pd-traffic_off-solid-16-2" data-name="LUI-icon-pd-traffic_off-solid-16"><rect width="16" height="16" fill="none"/><path d="M9.73,2l-1,1H4.41a1,1,0,0,0-.7.29L3.19,4H1a2,2,0,0,1,.13-.25L2.41,1.89A2,2,0,0,1,4.07,1H8a2,2,0,0,1,1.66.89ZM15,9.69V13a1,1,0,0,1-1,1H12a1,1,0,0,1-1-1V12H10V10.24L11.24,9H12.5L12,8.28l1.39-1.39,1.23,1.57A2,2,0,0,1,15,9.69ZM5.24,6.52,3.76,8H1V6H3.91A2,2,0,0,1,5.24,6.52ZM8,12.24V14a1,1,0,0,1-1,1H5.24Zm7-9.83L13.59,1,1,13.59,2.41,15Z"/></g></g></g></svg>