<svg xmlns="http://www.w3.org/2000/svg" viewBox="0 0 16 16"><title>LUI-icon-pd-polygon-solid-16</title><g id="Layer_2" data-name="Layer 2"><g id="LUI-icon-pd-polygon-solid-16"><g id="LUI-icon-pd-polygon-solid-16-2" data-name="LUI-icon-pd-polygon-solid-16"><rect width="16" height="16" fill="none"/><path d="M13,11a2,2,0,0,0-1.72,1H4.72s0-.07,0-.1L8.12,5A2,2,0,1,0,6,3a2,2,0,0,0,.33,1.1L2.88,11A2,2,0,0,0,3,15a2,2,0,0,0,1.72-1h6.56A2,2,0,0,0,13,15a2,2,0,0,0,0-4Zm-2.61-1,1.79-.9L10.61,6l-1.79.9Z"/></g></g></g></svg>