<svg xmlns="http://www.w3.org/2000/svg" viewBox="0 0 16 16"><title>LUI-icon-pd-brightness_on-solid-16</title><g id="Layer_2" data-name="Layer 2"><g id="LUI-icon-pd-brightness_on-solid-16"><g id="LUI-icon-pd-brightness_on-solid-16-2" data-name="LUI-icon-pd-brightness_on-solid-16"><rect width="16" height="16" fill="none"/><path d="M12,8A4,4,0,1,1,8,4,4,4,0,0,1,12,8ZM8,1a5.47,5.47,0,0,0-1,.08v1a5.6,5.6,0,0,1,2,0v-1A5.47,5.47,0,0,0,8,1ZM9,13.91a5.6,5.6,0,0,1-2,0v1A5.47,5.47,0,0,0,8,15a5.47,5.47,0,0,0,1-.08v-1ZM2.09,7h-1A5.47,5.47,0,0,0,1,8a5.47,5.47,0,0,0,.08,1h1a5.6,5.6,0,0,1,0-2ZM14.92,7h-1a5.6,5.6,0,0,1,0,2h1A5.47,5.47,0,0,0,15,8a5.47,5.47,0,0,0-.08-1ZM3.81,2.4A6.29,6.29,0,0,0,2.4,3.81l.72.72A5.56,5.56,0,0,1,4.53,3.12L3.81,2.4Zm9.08,9.08a6.29,6.29,0,0,1-1.41,1.41l.71.71a6.29,6.29,0,0,0,1.41-1.41l-.71-.71Zm-9.77,0-.72.71A6.29,6.29,0,0,0,3.81,13.6l.72-.71a5.56,5.56,0,0,1-1.41-1.41ZM12.19,2.4l-.71.72a5.56,5.56,0,0,1,1.41,1.41l.71-.72A6.29,6.29,0,0,0,12.19,2.4Z"/></g></g></g></svg>