<svg xmlns="http://www.w3.org/2000/svg" viewBox="0 0 16 16"><title>LUI-icon-pd-journey-solid-16</title><g id="Layer_2" data-name="Layer 2"><g id="LUI-icon-pd-journey-solid-16"><g id="LUI-icon-pd-journey-solid-16-2" data-name="LUI-icon-pd-journey-solid-16"><rect width="16" height="16" fill="none"/><path d="M3,15a2,2,0,1,1,2-2A2,2,0,0,1,3,15Zm12-2a2,2,0,1,0-2,2A2,2,0,0,0,15,13ZM4,7H2V9H4ZM7,4.12,6.55,2.18a6,6,0,0,0-3.2,2L4.9,5.47A3.94,3.94,0,0,1,7,4.12Zm5.61.07a6,6,0,0,0-3.22-2L9,4.11a4.06,4.06,0,0,1,2.14,1.35ZM14,7H12V9h2Z"/></g></g></g></svg>