<svg xmlns="http://www.w3.org/2000/svg" viewBox="0 0 16 16"><title>LUI-icon-sensor-shock-solid-16</title><g id="Layer_2" data-name="Layer 2"><g id="LUI-icon-sensor-shock-solid-16"><g id="LUI-icon-sensor-shock-solid-16-2" data-name="LUI-icon-sensor-shock-solid-16"><rect width="16" height="16" transform="translate(16) rotate(90)" fill="none"/><path d="M11.71,4.29l-3-3a1,1,0,0,0-1.42,0l-3,3a1,1,0,0,0,0,1.42l3,3a1,1,0,0,0,1.42,0l3-3A1,1,0,0,0,11.71,4.29ZM8,6A1,1,0,1,1,9,5,1,1,0,0,1,8,6Zm6,7H11l1,2L8,13,4,15l1-2H2l2-2L1,9H4.75l1.12,1.12a3,3,0,0,0,4.25,0L11.24,9H15l-3,2Z"/></g></g></g></svg>