<svg xmlns="http://www.w3.org/2000/svg" viewBox="0 0 16 16"><title>LUI-icon-pd-heart-solid-16</title><g id="Layer_2" data-name="Layer 2"><g id="LUI-icon-pd-heart-solid-16"><g id="LUI-icon-pd-heart-solid-16-2" data-name="LUI-icon-pd-heart-solid-16"><rect width="16" height="16" fill="none"/><path d="M7.2,1.81l.8.78.8-.78A4,4,0,0,1,11.15,1,4,4,0,0,1,15,5.18a5.08,5.08,0,0,1-.52,2.22,13.15,13.15,0,0,1-2.35,3.21c-.41.44-2.85,3-3.63,3.85L8,15l-.5-.54c-.78-.86-3.22-3.41-3.63-3.85A13.15,13.15,0,0,1,1.52,7.4,5.08,5.08,0,0,1,1,5.18,4,4,0,0,1,4.85,1,4,4,0,0,1,7.2,1.81Z"/></g></g></g></svg>