<svg xmlns="http://www.w3.org/2000/svg" viewBox="0 0 16 16"><title>LUI-icon-pd-rideshare-solid-16</title><g id="Layer_2" data-name="Layer 2"><g id="LUI-icon-pd-rideshare-solid-16"><g id="LUI-icon-pd-rideshare-solid-16-2" data-name="LUI-icon-pd-rideshare-solid-16"><rect width="16" height="16" fill="none"/><path d="M9,4A1,1,0,1,1,8,3,1,1,0,0,1,9,4Zm1,3A1,1,0,0,0,9,6H7A1,1,0,0,0,6,7V8h4Zm3-6a1,1,0,1,0,1,1A1,1,0,0,0,13,1Zm2,4a1,1,0,0,0-1-1H12V6h3ZM3,1A1,1,0,1,0,4,2,1,1,0,0,0,3,1ZM4,4H2A1,1,0,0,0,1,5V6H4Zm11,6.67V14a1,1,0,0,1-1,1H12a1,1,0,0,1-1-1V13H5v1a1,1,0,0,1-1,1H2a1,1,0,0,1-1-1V10.67a2,2,0,0,1,.4-1.2L2.5,8H5l-.3.4L3.5,10h9L11.3,8.4,11,8h2.5l1.1,1.47A2,2,0,0,1,15,10.67Z"/></g></g></g></svg>