<svg xmlns="http://www.w3.org/2000/svg" viewBox="0 0 16 16"><title>LUI-icon-pd-notifications-solid-16</title><g id="Layer_2" data-name="Layer 2"><g id="LUI-icon-pd-notifications-solid-16"><g id="LUI-icon-pd-notifications-solid-16-2" data-name="LUI-icon-pd-notifications-solid-16"><rect width="16" height="16" fill="none"/><path d="M14,9v2H2V9H4V7.29A4.29,4.29,0,0,1,6.7,3.23a1.4,1.4,0,0,1-.2-.73,1.5,1.5,0,0,1,3,0,1.4,1.4,0,0,1-.2.73A4.29,4.29,0,0,1,12,7.29V9ZM8,15a2.5,2.5,0,0,0,2.45-2H5.55A2.5,2.5,0,0,0,8,15Z"/></g></g></g></svg>