<svg xmlns="http://www.w3.org/2000/svg" viewBox="0 0 16 16"><title>LUI-icon-pd-live-solid-16</title><g id="Layer_2" data-name="Layer 2"><g id="LUI-icon-pd-live-solid-16"><g id="LUI-icon-pd-live-solid-16-2" data-name="LUI-icon-pd-live-solid-16"><rect width="16" height="16" fill="none"/><path d="M9.5,8A1.5,1.5,0,1,1,8,6.5,1.5,1.5,0,0,1,9.5,8ZM13,8a4,4,0,0,1-1.17,2.83l-.71-.71a3,3,0,0,0,0-4.24l.71-.71A4,4,0,0,1,13,8ZM4.88,5.88a3,3,0,0,0,0,4.24l-.71.71a4,4,0,0,1,0-5.66ZM15,8A7,7,0,0,1,13,13l-.71-.71a6,6,0,0,0,0-8.48L13,3.05A7,7,0,0,1,15,8ZM3.76,3.76a6,6,0,0,0,0,8.48L3.05,13a7,7,0,0,1,0-9.9Z"/></g></g></g></svg>