<svg width="16" height="16" viewBox="0 0 16 16" fill="none" xmlns="http://www.w3.org/2000/svg">
<path d="M13.34 10.18C13.4745 10.1384 13.6181 10.1366 13.7536 10.1748C13.8891 10.2129 14.0107 10.2895 14.1037 10.3951C14.1967 10.5008 14.2571 10.6311 14.2778 10.7704C14.2984 10.9096 14.2783 11.0519 14.22 11.18C13.6452 12.3079 12.7753 13.2588 11.7028 13.9315C10.6304 14.6042 9.39565 14.9734 8.13 15C6.29097 15.0093 4.52007 14.3047 3.19016 13.0344C1.86025 11.7642 1.07509 10.0275 0.999997 8.18999C0.959657 6.68284 1.407 5.20295 2.27547 3.97052C3.14394 2.73808 4.38711 1.81899 5.82 1.34999C5.95314 1.31165 6.09452 1.31253 6.22718 1.35254C6.35983 1.39255 6.47812 1.46999 6.56785 1.57556C6.65759 1.68113 6.71496 1.81035 6.73308 1.94772C6.75119 2.08509 6.72929 2.22476 6.67 2.34999C6.13293 3.3272 5.90616 4.44479 6.01987 5.55405C6.13357 6.66331 6.58236 7.71165 7.30652 8.55958C8.03068 9.40751 8.99587 10.0148 10.0737 10.3007C11.1515 10.5866 12.2908 10.5375 13.34 10.16V10.18ZM11 2.99999H10V1.99999H9V2.99999H8V3.99999H9V4.99999H10V3.99999H11V2.99999ZM13 6.99999H12V5.99999H11V6.99999H10V7.99999H11V8.99999H12V7.99999H13V6.99999Z" fill="#56899C"/>
</svg>
