<svg width="24" height="24" viewBox="0 0 24 24" fill="none" xmlns="http://www.w3.org/2000/svg">
<path d="M14.5 15H13.83C13.6231 14.4148 13.2398 13.9083 12.733 13.5501C12.2261 13.1919 11.6207 12.9997 11 13H9C9 12.2044 8.68393 11.4413 8.12132 10.8787C7.55871 10.3161 6.79565 10 6 10H4C3.46957 10 2.96086 10.2107 2.58579 10.5858C2.21071 10.9609 2 11.4696 2 12V22H14.5C15.4283 22 16.3185 21.6313 16.9749 20.9749C17.6313 20.3185 18 19.4283 18 18.5C18 17.5717 17.6313 16.6815 16.9749 16.0251C16.3185 15.3688 15.4283 15 14.5 15Z" fill="#7580EF"/>
<path d="M18 12C17.9992 12.6818 17.8808 13.3584 17.65 14C16.8711 13.4372 15.9565 13.0921 15 13C14.5343 12.379 13.9303 11.875 13.2361 11.5279C12.5418 11.1807 11.7762 11 11 11H10.58C10.2843 10.3228 9.84213 9.71952 9.28535 9.23364C8.72858 8.74776 8.07102 8.39133 7.36 8.19C8.14469 7.23287 9.20616 6.54181 10.399 6.21155C11.5918 5.88129 12.8575 5.92798 14.0227 6.34523C15.188 6.76248 16.1956 7.52986 16.9077 8.54221C17.6197 9.55455 18.0012 10.7623 18 12Z" fill="#F3CF1D"/>
<path d="M8.31 4.45C7.70752 4.76109 7.14926 5.1512 6.65 5.61L5.93 4.89C5.74375 4.70264 5.63921 4.44919 5.63921 4.185C5.63921 3.92082 5.74375 3.66737 5.93 3.48C6.02344 3.38732 6.13426 3.314 6.25609 3.26423C6.37793 3.21447 6.50839 3.18924 6.64 3.19C6.90234 3.19111 7.15374 3.29526 7.34 3.48L8.31 4.45Z" fill="#F3CF1D"/>
<path d="M13 2.55V3.61C12.3357 3.52997 11.6643 3.52997 11 3.61V2.55C11 2.28479 11.1054 2.03043 11.2929 1.8429C11.4804 1.65536 11.7348 1.55 12 1.55C12.2652 1.55 12.5196 1.65536 12.7071 1.8429C12.8946 2.03043 13 2.28479 13 2.55Z" fill="#F3CF1D"/>
<path d="M19.36 5.19C19.3589 5.45234 19.2547 5.70374 19.07 5.89L18.32 6.64C17.9146 6.10958 17.4404 5.63542 16.91 5.23L17.66 4.48C17.8474 4.29375 18.1008 4.18921 18.365 4.18921C18.6292 4.18921 18.8826 4.29375 19.07 4.48C19.1627 4.57344 19.236 4.68426 19.2858 4.8061C19.3355 4.92793 19.3608 5.0584 19.36 5.19Z" fill="#F3CF1D"/>
<path d="M22 12C22 12.2652 21.8946 12.5196 21.7071 12.7071C21.5196 12.8946 21.2652 13 21 13H19.94C20.02 12.3357 20.02 11.6643 19.94 11H21C21.2652 11 21.5196 11.1054 21.7071 11.2929C21.8946 11.4804 22 11.7348 22 12Z" fill="#F3CF1D"/>
</svg>
