<svg width="24" height="24" viewBox="0 0 24 24" fill="none" xmlns="http://www.w3.org/2000/svg">
<path d="M12 6C11.1128 5.99927 10.2364 6.19531 9.4341 6.574C8.63176 6.95269 7.92338 7.50461 7.36 8.19C8.07102 8.39132 8.72858 8.74775 9.28535 9.23363C9.84213 9.71952 10.2843 10.3228 10.58 11H11C11.7762 11 12.5418 11.1807 13.2361 11.5279C13.9303 11.875 14.5343 12.379 15 13C15.9492 13.0969 16.8562 13.4418 17.63 14C17.872 13.3608 17.9974 12.6834 18 12C18 10.4087 17.3679 8.88257 16.2426 7.75736C15.1174 6.63214 13.5913 6 12 6Z" fill="#F3CF1D"/>
<path d="M7.34 3.63C7.15374 3.44525 6.90234 3.3411 6.64 3.34C6.50839 3.33924 6.37793 3.36446 6.25609 3.41423C6.13426 3.46399 6.02344 3.53732 5.93 3.63C5.75563 3.81546 5.65854 4.06044 5.65854 4.315C5.65854 4.56956 5.75563 4.81454 5.93 5L6.65 5.72C7.15166 5.27527 7.70981 4.89868 8.31 4.6L7.34 3.63Z" fill="#F3CF1D"/>
<path d="M13 2.7V3.76C12.3357 3.67996 11.6643 3.67996 11 3.76V2.7C11 2.43478 11.1054 2.18043 11.2929 1.99289C11.4804 1.80535 11.7348 1.7 12 1.7C12.2652 1.7 12.5196 1.80535 12.7071 1.99289C12.8946 2.18043 13 2.43478 13 2.7Z" fill="#F3CF1D"/>
<path d="M19.07 4.63C18.8826 4.44375 18.6292 4.3392 18.365 4.3392C18.1008 4.3392 17.8474 4.44375 17.66 4.63L16.91 5.38C17.4404 5.78541 17.9146 6.25957 18.32 6.79L19.07 6C19.2547 5.81374 19.3589 5.56234 19.36 5.3C19.3512 5.0481 19.2476 4.8088 19.07 4.63Z" fill="#F3CF1D"/>
<path d="M21 11H19.94C20.02 11.6643 20.02 12.3357 19.94 13H21C21.2652 13 21.5196 12.8946 21.7071 12.7071C21.8946 12.5196 22 12.2652 22 12C22 11.7348 21.8946 11.4804 21.7071 11.2929C21.5196 11.1054 21.2652 11 21 11Z" fill="#F3CF1D"/>
<path d="M18 18.5C17.9947 19.4266 17.6243 20.3138 16.9691 20.9691C16.3138 21.6243 15.4266 21.9947 14.5 22H2V20H14.5C14.8978 20 15.2794 19.842 15.5607 19.5607C15.842 19.2794 16 18.8978 16 18.5C16 18.1022 15.842 17.7206 15.5607 17.4393C15.2794 17.158 14.8978 17 14.5 17H12V16C12 15.7348 11.8946 15.4804 11.7071 15.2929C11.5196 15.1054 11.2652 15 11 15H7V13C7 12.7348 6.89464 12.4804 6.70711 12.2929C6.51957 12.1054 6.26522 12 6 12H2V10H6C6.79565 10 7.55871 10.3161 8.12132 10.8787C8.68393 11.4413 9 12.2043 9 13H11C11.6207 12.9997 12.2261 13.1919 12.733 13.5501C13.2398 13.9083 13.6231 14.4148 13.83 15H14.5C15.4266 15.0052 16.3138 15.3757 16.9691 16.0309C17.6243 16.6862 17.9947 17.5734 18 18.5Z" fill="#7580EF"/>
</svg>
