<svg width="24" height="24" viewBox="0 0 24 24" fill="none" xmlns="http://www.w3.org/2000/svg">
<path fill-rule="evenodd" clip-rule="evenodd" d="M16 18.3622C17.4759 18.3622 18.9 18.9061 20 19.89C20.5796 19.3625 21.2599 18.9577 22 18.7V20.89C21.7315 21.0506 21.4802 21.2382 21.25 21.45C21.2192 21.4858 21.1858 21.5192 21.15 21.55C20.8183 21.8546 20.3793 22.0152 19.9293 21.9965C19.4793 21.9777 19.0552 21.7812 18.75 21.45C18.0071 20.7467 17.023 20.3548 16 20.3548C14.977 20.3548 13.9929 20.7467 13.25 21.45L13.15 21.55C12.8183 21.8546 12.3793 22.0152 11.9293 21.9965C11.4793 21.9777 11.0552 21.7812 10.75 21.45C10.0071 20.7467 9.023 20.3548 8 20.3548C6.977 20.3548 5.99288 20.7467 5.25 21.45L5.15 21.55C4.8183 21.8546 4.37928 22.0152 3.92931 21.9965C3.47935 21.9777 3.0552 21.7812 2.75 21.45C2.51978 21.2382 2.26847 21.0506 2 20.89V18.7C2.7401 18.9577 3.42041 19.3625 4 19.89C5.10004 18.9061 6.52414 18.3622 8 18.3622C9.47586 18.3622 10.9 18.9061 12 19.89C13.1 18.9061 14.5241 18.3622 16 18.3622ZM16 14.3622C17.4759 14.3622 18.9 14.9061 20 15.89C20.5796 15.3625 21.2599 14.9577 22 14.7V16.89C21.7315 17.0506 21.4802 17.2382 21.25 17.45C21.2192 17.4858 21.1858 17.5192 21.15 17.55C20.8183 17.8546 20.3793 18.0152 19.9293 17.9965C19.4793 17.9777 19.0552 17.7812 18.75 17.45C18.0071 16.7467 17.023 16.3548 16 16.3548C14.977 16.3548 13.9929 16.7467 13.25 17.45L13.15 17.55C12.8183 17.8546 12.3793 18.0152 11.9293 17.9965C11.4793 17.9777 11.0552 17.7812 10.75 17.45C10.0071 16.7467 9.023 16.3548 8 16.3548C6.977 16.3548 5.99288 16.7467 5.25 17.45L5.15 17.55C4.8183 17.8546 4.37928 18.0152 3.92931 17.9965C3.47935 17.9777 3.0552 17.7812 2.75 17.45C2.51978 17.2382 2.26847 17.0506 2 16.89V14.7C2.7401 14.9577 3.42041 15.3625 4 15.89C5.10004 14.9061 6.52414 14.3622 8 14.3622C9.47586 14.3622 10.9 14.9061 12 15.89C13.1 14.9061 14.5241 14.3622 16 14.3622Z" fill="#7580EF"/>
<path fill-rule="evenodd" clip-rule="evenodd" d="M12 2.00002C11.8684 1.99926 11.7379 2.02448 11.6161 2.07425C11.4943 2.12401 11.3834 2.19734 11.29 2.29002L4 10H6V13.18C7.00495 12.9159 8.05208 12.8524 9.08158 12.9931C10.1111 13.1338 11.1028 13.476 12 14C12.8972 13.476 13.8889 13.1338 14.9184 12.9931C15.9479 12.8524 16.9951 12.9159 18 13.18V10H20L18 7.88002V4.00002H16V5.77002L12.71 2.29002C12.6166 2.19734 12.5057 2.12401 12.3839 2.07425C12.2621 2.02448 12.1316 1.99926 12 2.00002ZM14.55 7.14002L12 4.45002L8 8.68002V10.92C9.37695 10.9216 10.7387 11.2076 12 11.76C13.2613 11.2076 14.6231 10.9216 16 10.92V8.68002L14.55 7.14002Z" fill="#56899C"/>
</svg>
