<svg width="24" height="24" viewBox="0 0 24 24" fill="none" xmlns="http://www.w3.org/2000/svg">
<path fill-rule="evenodd" clip-rule="evenodd" d="M16 18.3621C17.4759 18.3621 18.9 18.9061 20 19.89C20.5796 19.3625 21.2599 18.9577 22 18.7V20.89C21.7315 21.0506 21.4802 21.2382 21.25 21.45C21.2192 21.4858 21.1858 21.5192 21.15 21.55C20.8183 21.8546 20.3793 22.0152 19.9293 21.9964C19.4793 21.9777 19.0552 21.7812 18.75 21.45C18.0071 20.7467 17.023 20.3547 16 20.3547C14.977 20.3547 13.9929 20.7467 13.25 21.45L13.15 21.55C12.8183 21.8546 12.3793 22.0152 11.9293 21.9964C11.4793 21.9777 11.0552 21.7812 10.75 21.45C10.0071 20.7467 9.023 20.3547 8 20.3547C6.977 20.3547 5.99288 20.7467 5.25 21.45L5.15 21.55C4.8183 21.8546 4.37928 22.0152 3.92931 21.9964C3.47935 21.9777 3.0552 21.7812 2.75 21.45C2.51978 21.2382 2.26847 21.0506 2 20.89V18.7C2.7401 18.9577 3.42041 19.3625 4 19.89C5.10004 18.9061 6.52414 18.3621 8 18.3621C9.47586 18.3621 10.9 18.9061 12 19.89C13.1 18.9061 14.5241 18.3621 16 18.3621ZM16 14.3621C17.4759 14.3621 18.9 14.9061 20 15.89C20.5796 15.3625 21.2599 14.9577 22 14.7V16.89C21.7315 17.0506 21.4802 17.2382 21.25 17.45C21.2192 17.4858 21.1858 17.5192 21.15 17.55C20.8183 17.8546 20.3793 18.0152 19.9293 17.9964C19.4793 17.9777 19.0552 17.7812 18.75 17.45C18.0071 16.7467 17.023 16.3547 16 16.3547C14.977 16.3547 13.9929 16.7467 13.25 17.45L13.15 17.55C12.8183 17.8546 12.3793 18.0152 11.9293 17.9964C11.4793 17.9777 11.0552 17.7812 10.75 17.45C10.0071 16.7467 9.023 16.3547 8 16.3547C6.977 16.3547 5.99288 16.7467 5.25 17.45L5.15 17.55C4.8183 17.8546 4.37928 18.0152 3.92931 17.9964C3.47935 17.9777 3.0552 17.7812 2.75 17.45C2.51978 17.2382 2.26847 17.0506 2 16.89V14.7C2.7401 14.9577 3.42041 15.3625 4 15.89C5.10004 14.9061 6.52414 14.3621 8 14.3621C9.47586 14.3621 10.9 14.9061 12 15.89C13.1 14.9061 14.5241 14.3621 16 14.3621Z" fill="#7580EF"/>
<path d="M20 10H18V13.18C16.9951 12.9159 15.9479 12.8524 14.9184 12.9931C13.8889 13.1338 12.8972 13.4759 12 14C11.1028 13.4759 10.1111 13.1338 9.08158 12.9931C8.05208 12.8524 7.00495 12.9159 6 13.18V10H4L11.29 2.29C11.4774 2.10375 11.7308 1.99921 11.995 1.99921C12.2592 1.99921 12.5126 2.10375 12.7 2.29L16 5.77V4H18V7.88L20 10Z" fill="#56899C"/>
</svg>
