<svg width="16" height="16" viewBox="0 0 16 16" fill="none" xmlns="http://www.w3.org/2000/svg">
<path fill-rule="evenodd" clip-rule="evenodd" d="M5 12V11H3V12L4 15L5 12ZM8 15L7 12V11H9V12L8 15ZM12 15L11 12V11H13V12L12 15Z" fill="#56899C"/>
<path d="M13 5.99999H12C12 5.20434 11.6839 4.44128 11.1213 3.87867C10.5587 3.31606 9.79565 2.99999 9 2.99999H8.83C8.5949 2.33166 8.13085 1.7681 7.52005 1.40912C6.90924 1.05015 6.1911 0.918928 5.49282 1.0387C4.79454 1.15848 4.16118 1.52151 3.70492 2.06352C3.24866 2.60552 2.99894 3.29151 3 3.99999V4.99999C2.33696 4.99999 1.70107 5.26338 1.23223 5.73222C0.763392 6.20106 0.5 6.83695 0.5 7.49999C0.5 8.16303 0.763392 8.79892 1.23223 9.26776C1.70107 9.7366 2.33696 9.99999 3 9.99999H4H13C13.5304 9.99999 14.0391 9.78928 14.4142 9.4142C14.7893 9.03913 15 8.53042 15 7.99999C15 7.46956 14.7893 6.96085 14.4142 6.58578C14.0391 6.2107 13.5304 5.99999 13 5.99999Z" fill="#7580EF"/>
</svg>
