<svg width="24" height="24" viewBox="0 0 24 24" fill="none" xmlns="http://www.w3.org/2000/svg">
<path fill-rule="evenodd" clip-rule="evenodd" d="M2.29289 20.7071C2.48043 20.8946 2.73478 21 3 21C3.26522 21 3.51957 20.8946 3.70711 20.7071C3.89464 20.5196 4 20.2652 4 20V18C4 17.7348 3.89464 17.4804 3.70711 17.2929C3.51957 17.1054 3.26522 17 3 17C2.73478 17 2.48043 17.1054 2.29289 17.2929C2.10536 17.4804 2 17.7348 2 18V20C2 20.2652 2.10536 20.5196 2.29289 20.7071ZM8 18V21C8 21.2652 7.89464 21.5196 7.70711 21.7071C7.51957 21.8946 7.26522 22 7 22C6.73478 22 6.48043 21.8946 6.29289 21.7071C6.10536 21.5196 6 21.2652 6 21V18C6 17.7348 6.10536 17.4804 6.29289 17.2929C6.48043 17.1054 6.73478 17 7 17C7.26522 17 7.51957 17.1054 7.70711 17.2929C7.89464 17.4804 8 17.7348 8 18ZM12 18V20C12 20.2652 11.8946 20.5196 11.7071 20.7071C11.5196 20.8946 11.2652 21 11 21C10.7348 21 10.4804 20.8946 10.2929 20.7071C10.1054 20.5196 10 20.2652 10 20V18C10 17.7348 10.1054 17.4804 10.2929 17.2929C10.4804 17.1054 10.7348 17 11 17C11.2652 17 11.5196 17.1054 11.7071 17.2929C11.8946 17.4804 12 17.7348 12 18ZM19.1384 8.63495C19.9999 8.78626 20.8871 8.66933 21.68 8.29999C21.725 8.25615 21.7786 8.222 21.8373 8.19965C21.896 8.17729 21.9587 8.16721 22.0215 8.17002C22.0843 8.17283 22.1458 8.18848 22.2023 8.21599C22.2588 8.2435 22.3091 8.2823 22.35 8.32999C22.4373 8.41963 22.4862 8.53984 22.4862 8.66499C22.4862 8.79015 22.4373 8.91036 22.35 8.99999C22.002 9.72007 21.4961 10.3524 20.87 10.85C20.2442 11.3531 19.5109 11.705 18.7269 11.8785C17.943 12.0519 17.1296 12.0422 16.35 11.85C16.3163 10.7233 15.9029 9.64098 15.1768 8.77875C14.4507 7.91652 13.4546 7.32494 12.35 7.09999C12.2998 6.36308 12.4097 5.62404 12.6721 4.93359C12.9345 4.24314 13.3431 3.61763 13.87 3.09999C14.2958 2.65028 14.7966 2.27806 15.35 1.99999C15.4316 1.94139 15.5295 1.90987 15.63 1.90987C15.7305 1.90987 15.8284 1.94139 15.91 1.99999C16.0001 2.07759 16.0589 2.1853 16.0755 2.30305C16.092 2.4208 16.0652 2.54056 16 2.63999C15.6335 3.43419 15.5197 4.3218 15.674 5.18278C15.8284 6.04376 16.2434 6.83657 16.863 7.45399C17.4826 8.0714 18.2769 8.48364 19.1384 8.63495Z" fill="#56899C"/>
<path d="M11 8.99999H9.35C9.35 8.46956 9.13929 7.96085 8.76421 7.58578C8.38914 7.21071 7.88043 6.99999 7.35 6.99999H6C6 6.46956 5.78929 5.96085 5.41421 5.58578C5.03914 5.21071 4.53043 4.99999 4 4.99999H2V15H11C11.7956 15 12.5587 14.6839 13.1213 14.1213C13.6839 13.5587 14 12.7956 14 12C14 11.2043 13.6839 10.4413 13.1213 9.87867C12.5587 9.31606 11.7956 8.99999 11 8.99999Z" fill="#7580EF"/>
</svg>
