<svg width="16" height="16" viewBox="0 0 16 16" fill="none" xmlns="http://www.w3.org/2000/svg">
<path d="M11.5 6H10.91C10.8056 5.70903 10.6144 5.45711 10.3623 5.27828C10.1101 5.09944 9.80913 5.00231 9.5 5H8C8 4.46957 7.78929 3.96086 7.41421 3.58579C7.03914 3.21072 6.53043 3 6 3C5.46957 3 4.96086 3.21072 4.58579 3.58579C4.21071 3.96086 4 4.46957 4 5V6H2.5C2.10218 6 1.72064 6.15804 1.43934 6.43934C1.15804 6.72065 1 7.10218 1 7.5C1 7.89783 1.15804 8.27936 1.43934 8.56066C1.72064 8.84197 2.10218 9 2.5 9H11.5C11.8978 9 12.2794 8.84197 12.5607 8.56066C12.842 8.27936 13 7.89783 13 7.5C13 7.10218 12.842 6.72065 12.5607 6.43934C12.2794 6.15804 11.8978 6 11.5 6Z" fill="#7580EF"/>
<path fill-rule="evenodd" clip-rule="evenodd" d="M12 12V14C12 14.2652 11.8946 14.5196 11.7071 14.7071C11.5196 14.8946 11.2652 15 11 15C10.7348 15 10.4804 14.8946 10.2929 14.7071C10.1054 14.5196 10 14.2652 10 14V12C10 11.7348 10.1054 11.4804 10.2929 11.2929C10.4804 11.1054 10.7348 11 11 11C11.2652 11 11.5196 11.1054 11.7071 11.2929C11.8946 11.4804 12 11.7348 12 12ZM7 11C6.73478 11 6.48043 11.1054 6.29289 11.2929C6.10536 11.4804 6 11.7348 6 12V14C6 14.2652 6.10536 14.5196 6.29289 14.7071C6.48043 14.8946 6.73478 15 7 15C7.26522 15 7.51957 14.8946 7.70711 14.7071C7.89464 14.5196 8 14.2652 8 14V12C8 11.7348 7.89464 11.4804 7.70711 11.2929C7.51957 11.1054 7.26522 11 7 11ZM3 11C2.73478 11 2.48043 11.1054 2.29289 11.2929C2.10536 11.4804 2 11.7348 2 12V14C2 14.2652 2.10536 14.5196 2.29289 14.7071C2.48043 14.8946 2.73478 15 3 15C3.26522 15 3.51957 14.8946 3.70711 14.7071C3.89464 14.5196 4 14.2652 4 14V12C4 11.7348 3.89464 11.4804 3.70711 11.2929C3.51957 11.1054 3.26522 11 3 11Z" fill="#56899C"/>
<path d="M9.16 3.5H9.5C9.92275 3.49945 10.3408 3.58825 10.7269 3.76059C11.1129 3.93292 11.4582 4.1849 11.74 4.5C12.319 4.54683 12.8719 4.76075 13.3317 5.11578C13.7915 5.47081 14.1383 5.95167 14.33 6.5C14.7572 5.91994 14.9916 5.22038 15 4.5C15.0033 3.74242 14.76 3.00433 14.3068 2.39721C13.8537 1.79009 13.2153 1.34691 12.488 1.13462C11.7608 0.922315 10.9842 0.952422 10.2756 1.22039C9.56698 1.48835 8.9648 1.97962 8.56 2.62C8.80578 2.87935 9.00836 3.17646 9.16 3.5Z" fill="#F3CF1D"/>
</svg>
