<svg width="24" height="24" viewBox="0 0 24 24" fill="none" xmlns="http://www.w3.org/2000/svg">
<path d="M20.0002 8.5C20.7064 8.5 21.3637 8.29085 21.9137 7.93111C21.4774 10.2476 19.4434 12 17.0002 12C16.7497 12 16.5034 11.9816 16.2628 11.946C16.2895 11.8311 16.3098 11.7135 16.3231 11.5934L16.448 10.4694C16.7341 7.89419 14.7841 5.63277 12.2273 5.50563C12.8627 3.47417 14.7593 2 17.0002 2C17.3534 2 17.6981 2.03663 18.0307 2.10631C17.1068 2.73636 16.5002 3.79734 16.5002 5C16.5002 6.933 18.0672 8.5 20.0002 8.5Z" fill="#56899C"/>
<path d="M2 2L4.00001 2C5.65686 2.00001 7 3.34315 7 5H8C9.10457 5 10 5.89543 10 7L12 6.99999C13.6568 6.99999 15 8.34314 15 10C15 11.6569 13.6569 13 12 13H10.75L11.5943 10.2983C11.7955 9.65434 11.3144 9 10.6398 9H5.78078C5.32191 9 4.92193 9.3123 4.81063 9.75746L4 13H2V2Z" fill="#7580EF"/>
<path d="M9.25 11H6.5L5 17H7.5L6.5 22L11.5 15H8L9.25 11Z" fill="#F3CF1D"/>
</svg>
