<svg width="24" height="24" viewBox="0 0 24 24" fill="none" xmlns="http://www.w3.org/2000/svg">
<path d="M20.0002 8.5C20.7064 8.5 21.3637 8.29085 21.9137 7.93111C21.4774 10.2476 19.4434 12 17.0002 12C16.7497 12 16.5034 11.9816 16.2628 11.946C16.2895 11.8311 16.3098 11.7135 16.3231 11.5934L16.448 10.4694C16.7341 7.89419 14.7841 5.63277 12.2273 5.50563C12.8627 3.47417 14.7593 2 17.0002 2C17.3534 2 17.6981 2.03663 18.0307 2.10631C17.1068 2.73636 16.5002 3.79734 16.5002 5C16.5002 6.933 18.0672 8.5 20.0002 8.5Z" fill="#56899C"/>
<path d="M2 3.99997L4.00001 3.99997C5.10458 3.99998 6 4.8954 6 5.99997V6.99997H8C8.55229 6.99997 9 7.44768 9 7.99997V8.99997H12C12.5523 8.99997 13 9.44768 13 9.99997C13 10.5523 12.5523 11 12 11L11 11L10.5 13L12 13C13.6568 13 15 11.6568 15 9.99997C15 8.34311 13.6569 6.99997 12 6.99997H10.8293C10.4175 5.83478 9.30622 4.99997 8 4.99997H7.87398C7.42994 3.27475 5.86385 1.99998 4.00002 1.99997L2 1.99997L2 3.99997Z" fill="#7580EF"/>
<path d="M9 11H6.5L5 17H7.5L6.5 22L11.5 15H8L9 11Z" fill="#F3CF1D"/>
<path d="M4.50002 11H2V13L4.00002 13L4.50002 11Z" fill="#7580EF"/>
</svg>
