<svg width="24" height="24" viewBox="0 0 24 24" fill="none" xmlns="http://www.w3.org/2000/svg">
<path d="M3 17C3 16.4477 3.44772 16 4 16C4.55228 16 5 16.4477 5 17V19C5 19.5523 4.55228 20 4 20C3.44772 20 3 19.5523 3 19V17Z" fill="#56899C"/>
<path d="M15 17C15 16.4477 15.4477 16 16 16C16.5523 16 17 16.4477 17 17V21C17 21.5523 16.5523 22 16 22C15.4477 22 15 21.5523 15 21V17Z" fill="#56899C"/>
<path d="M19 17C19 16.4477 19.4477 16 20 16C20.5523 16 21 16.4477 21 17V19C21 19.5523 20.5523 20 20 20C19.4477 20 19 19.5523 19 19V17Z" fill="#56899C"/>
<path d="M4 6C4 3.79086 5.79086 2 8 2H9C10.8638 2 12.4299 3.27477 12.874 5H14C15.3062 5 16.4175 5.83481 16.8293 7H19C20.6569 7 22 8.34315 22 10V11C22 12.6569 20.6569 14 19 14H16.2669L16.2665 13.0004C16.2663 12.4685 15.8366 12 15.2639 12H12.7951L13.323 9.18429C13.4384 8.56887 12.9663 8 12.3401 8H7.73459C7.23694 8 6.81502 8.36593 6.74464 8.85858L6.01015 14H5C3.34315 14 2 12.6569 2 11V10C2 8.69378 2.83481 7.58254 4 7.17071V6Z" fill="#7580EF"/>
<path d="M8.5 10H11.25L10.5 14H14L9 22L10 16H7.5L8.5 10Z" fill="#F3CF1D"/>
</svg>
