<svg xmlns="http://www.w3.org/2000/svg" width="24" height="24" viewBox="0 0 24 24">
  <g fill="none" fill-rule="evenodd">
    <polygon points="0 0 24 0 24 24 0 24"/>
    <path fill="#0F1621" fill-opacity=".95" d="M4.99999996,9.99999999 L4.99999996,16 L20.25,16 C20.6295,16 20.9434583,16.2823333 20.9931493,16.6482743 L21,16.75 L21,22 L19,22 L19,20 L4.99999996,20 L4.99999996,22 L2.99999996,22 L2.99999996,9.99999999 L4.99999996,9.99999999 Z M18,9.99999999 C19.105,9.99999999 20,10.895 20,12 L20,14 L13,14 L13,9.99999999 L18,9.99999999 Z M8.99999998,9.99999999 C10.8620689,9.99999999 10.9904875,11.7336504 10.9993439,11.9727746 L11,14 L6.99999998,14 L7.00065601,11.9727746 L7.00960556,11.8484141 L7.0387018,11.6449374 L7.07324425,11.48481 C7.22055949,10.8922237 7.6641679,9.99999999 8.99999998,9.99999999 Z M12,1.99999996 L22,5.55899997 L22,8.42199999 L12,4.84299997 L1.99999996,8.42199999 L1.99999996,5.55899997 L12,1.99999996 Z"/>
  </g>
</svg>
