<svg xmlns="http://www.w3.org/2000/svg" width="24" height="24" viewBox="0 0 24 24">
  <g fill="none" fill-rule="evenodd">
    <rect width="24" height="24"/>
    <path fill="#0F1621" fill-opacity=".95" d="M3.99999996,4.99999997 L3.99999996,13 L21.25,13 C21.6295,13 21.9434583,13.2823333 21.9931493,13.6482743 L22,13.75 L22,20 L20,20 L20,17 L3.99999996,17 L3.99999996,20 L1.99999996,20 L1.99999996,4.99999997 L3.99999996,4.99999997 Z M19,6.99999998 C20.105,6.99999998 21,7.89499998 21,8.99999998 L21,11 L12,11 L12,6.99999998 L19,6.99999998 Z M7.99999997,6.99999998 C9.86206894,6.99999998 9.99048749,8.7336504 9.99934394,8.97277459 L9.99999997,11 L5.99999997,11 L6.00065601,8.97277459 L6.00960556,8.84841411 C6.05693232,8.38205548 6.3374384,6.99999998 7.99999997,6.99999998 Z"/>
  </g>
</svg>
