<svg xmlns="http://www.w3.org/2000/svg" width="24" height="24" viewBox="0 0 24 24">
  <g fill="none" fill-rule="evenodd">
    <rect width="24" height="24"/>
    <path fill="#0F1621" fill-opacity=".95" d="M12,2.00000001 C13.7920001,2.00000001 15.2500001,3.45700001 15.2500001,5.25000002 C15.2500001,6.61690912 14.3980682,7.77516326 13.2012635,8.25423266 L13.0280001,8.31800003 L13.0880001,10 L16,10 L16,12 L13.1600001,12 L13.4110001,18.5040001 C16.3415947,18.1848649 18.3870468,16.7874654 18.4954711,13.7563837 L18.5,13.5 L17,13.5 L19.5,9.50000001 L22,13.5 L20.5,13.5 L20.5,14 C20.5,17.2300001 18.6330957,18.7037007 15.9009258,19.9450417 L15.4100001,20.1620001 C14.3660001,20.6110001 12,22 12,22 L11.0701018,21.465714 C10.3382523,21.0515249 9.33959888,20.5012361 8.70737208,20.2138531 L8.58600004,20.1600001 C5.67516669,18.9048612 3.61691822,17.4994329 3.5048171,14.2803976 L3.50000001,14 L3.50000001,13.5 L2.00000001,13.5 L4.50000001,9.50000001 L7.00000001,13.5 L5.50000001,13.5 C5.50000001,16.6222703 7.46624693,18.0954303 10.3468553,18.4748976 L10.589,18.5040001 L10.84,12 L8.00000001,12 L8.00000001,10 L10.912,10 L10.972,8.31800003 C9.68600004,7.88500003 8.75000004,6.68200003 8.75000004,5.25000002 C8.75000004,3.45700001 10.208,2.00000001 12,2.00000001 Z M12,3.50000001 C11.035,3.50000001 10.25,4.28500002 10.25,5.25000002 C10.25,6.21500003 11.035,7.00000001 12,7.00000001 C12.9650001,7.00000001 13.75,6.21500003 13.75,5.25000002 C13.75,4.28500002 12.9650001,3.50000001 12,3.50000001 Z"/>
  </g>
</svg>
