<svg xmlns="http://www.w3.org/2000/svg" viewBox="0 0 24 24"><defs><style>.cls-1{fill:none;}</style></defs><g id="Layer_2" data-name="Layer 2"><g id="UI_Outline" data-name="UI Outline"><g id="computer-chip"><rect class="cls-1" width="24" height="24"/><path d="M21,13a1,1,0,0,0,0-2H19V9h2a1,1,0,0,0,0-2H19V5H17V3a1,1,0,0,0-2,0V5H13V3a1,1,0,0,0-2,0V5H9V3A1,1,0,0,0,7,3V5H5V7H3A1,1,0,0,0,3,9H5v2H3a1,1,0,0,0,0,2H5v2H3a1,1,0,0,0,0,2H5v2H7v2a1,1,0,0,0,2,0V19h2v2a1,1,0,0,0,2,0V19h2v2a1,1,0,0,0,2,0V19h2V17h2a1,1,0,0,0,0-2H19V13Zm-4,4H7V7H17Zm-4-6v2H11V11Zm2-2H9v6h6V9Z"/></g></g></g></svg>