<svg xmlns="http://www.w3.org/2000/svg" viewBox="0 0 24 24"><defs><style>.cls-1{fill:none;}</style></defs><g id="Layer_2" data-name="Layer 2"><g id="UI_Outline" data-name="UI Outline"><g id="device-group-smart-filter"><rect class="cls-1" width="24" height="24"/><path d="M11,12v2H4v3a2,2,0,0,1-2-2V12Zm7,0-.8.6L15.33,14H20v3a2,2,0,0,0,2-2V12Zm-2,6H8v2h8V18m2-2v4a2,2,0,0,1-2,2H8a2,2,0,0,1-2-2V16ZM7.29,8.29,8.72,9.72A4,4,0,0,1,12,8V6A6,6,0,0,0,7.29,8.29ZM12,2A10,10,0,0,0,4.45,5.45L5.87,6.87A8,8,0,0,1,12,4l.55,0,.55-1.65.1-.3A9.44,9.44,0,0,0,12,2Zm4,6v3l4-3V6H17l1-3H15L14,6V8Z"/></g></g></g></svg>