<svg width="24" height="24" viewBox="0 0 24 24" fill="none" xmlns="http://www.w3.org/2000/svg">
<path d="M20 14V20H4V14H20ZM22 12H2V20C2 20.5304 2.21071 21.0392 2.58579 21.4142C2.96086 21.7893 3.46957 22 4 22H20C20.5304 22 21.0391 21.7893 21.4142 21.4142C21.7893 21.0392 22 20.5304 22 20V12ZM18 18H10V16H18V18ZM7 18C6.80222 18 6.60888 17.9414 6.44443 17.8315C6.27998 17.7216 6.15181 17.5654 6.07612 17.3827C6.00043 17.2 5.98063 16.9989 6.01921 16.8049C6.0578 16.6109 6.15304 16.4328 6.29289 16.2929C6.43275 16.1531 6.61093 16.0578 6.80491 16.0192C6.99889 15.9806 7.19996 16.0004 7.38268 16.0761C7.56541 16.1518 7.72159 16.28 7.83147 16.4444C7.94135 16.6089 8 16.8022 8 17C8 17.2652 7.89464 17.5196 7.70711 17.7071C7.51957 17.8947 7.26522 18 7 18ZM16.71 8.29002L15.28 9.72002C14.9114 9.1919 14.4207 8.7606 13.8496 8.46279C13.2786 8.16498 12.644 8.00947 12 8.00947C11.356 8.00947 10.7214 8.16498 10.1504 8.46279C9.57933 8.7606 9.08863 9.1919 8.72 9.72002L7.29 8.29002C7.8516 7.57838 8.56716 7.00325 9.38293 6.60783C10.1987 6.21241 11.0935 6.00699 12 6.00699C12.9065 6.00699 13.8013 6.21241 14.6171 6.60783C15.4328 7.00325 16.1484 7.57838 16.71 8.29002ZM19.55 5.45002L18.13 6.87002C17.3791 5.97456 16.4412 5.25448 15.3821 4.76043C14.3231 4.26638 13.1686 4.01036 12 4.01036C10.8314 4.01036 9.67695 4.26638 8.61789 4.76043C7.55884 5.25448 6.62089 5.97456 5.87 6.87002L4.45 5.45002C5.3887 4.36919 6.54853 3.50251 7.85105 2.90857C9.15358 2.31463 10.5684 2.00726 12 2.00726C13.4316 2.00726 14.8464 2.31463 16.1489 2.90857C17.4515 3.50251 18.6113 4.36919 19.55 5.45002Z" fill="#0F1621"/>
</svg>
