<svg xmlns="http://www.w3.org/2000/svg" viewBox="0 0 24 24"><g id="Layer_2" data-name="Layer 2"><g id="UI_Solid" data-name="UI Solid"><g id="device-group-filter"><rect width="24" height="24" style="fill:none"/><path d="M6,16v4a2,2,0,0,0,2,2h8a2,2,0,0,0,2-2V16Zm5.22-9.95A6,6,0,0,0,7.29,8.29L8.72,9.72A4,4,0,0,1,12,8a3.66,3.66,0,0,1,1,.13v-.3Zm6.6,6-2,2H20v3a2,2,0,0,0,2-2V12ZM8.59,3.41,8,2.83A10,10,0,0,0,4.45,5.45L5.87,6.87A8,8,0,0,1,9.56,4.38ZM2,12v3a2,2,0,0,0,2,2V14h7V12ZM15,7,10,2H22L17,7v3l-2,2Z"/></g></g></g></svg>