<svg width="16" height="16" viewBox="0 0 16 16" fill="none" xmlns="http://www.w3.org/2000/svg">
<path d="M10.83 5.17002C10.4585 4.79811 10.0174 4.50308 9.53176 4.30178C9.04617 4.10048 8.52566 3.99687 8 3.99687C7.47434 3.99687 6.95383 4.10048 6.46824 4.30178C5.98265 4.50308 5.54149 4.79811 5.17 5.17002L5.88 5.88002C6.4425 5.31821 7.205 5.00266 8 5.00266C8.795 5.00266 9.5575 5.31821 10.12 5.88002L10.83 5.17002ZM13 3.05002C12.35 2.39993 11.5783 1.88425 10.7289 1.53242C9.87962 1.1806 8.96931 0.999512 8.05 0.999512C7.13069 0.999512 6.22038 1.1806 5.37105 1.53242C4.52173 1.88425 3.75002 2.39993 3.1 3.05002L3.81 3.76002C4.935 2.63641 6.45999 2.0053 8.05 2.0053C9.64001 2.0053 11.165 2.63641 12.29 3.76002L13 3.05002ZM7 8.00002V10H3V12H2C1.73478 12 1.48043 11.8947 1.29289 11.7071C1.10536 11.5196 1 11.2652 1 11V8.00002H7ZM15 8.00002V11C15 11.2652 14.8946 11.5196 14.7071 11.7071C14.5196 11.8947 14.2652 12 14 12H13V10H9V8.00002H15ZM5 12V14C5 14.2652 5.10536 14.5196 5.29289 14.7071C5.48043 14.8947 5.73478 15 6 15H10C10.2652 15 10.5196 14.8947 10.7071 14.7071C10.8946 14.5196 11 14.2652 11 14V12H5Z" fill="#0F1621"/>
</svg>
