<svg xmlns="http://www.w3.org/2000/svg" viewBox="0 0 16 16"><defs><style>.cls-1{fill:none;}</style></defs><g id="Layer_2" data-name="Layer 2"><g id="UI_16" data-name="UI 16"><g id="device-group-ilter"><rect class="cls-1" width="16" height="16"/><path d="M7.25,4.07a4.12,4.12,0,0,0-2.08,1.1l.71.71A3,3,0,0,1,8,5V4.83ZM4.9,1.72A7,7,0,0,0,3.05,3.05l.71.71A6.16,6.16,0,0,1,5.65,2.47ZM1,8v3a1,1,0,0,0,1,1H3V10H7V8ZM13,8l-2,2h2v2h1a1,1,0,0,0,1-1V8ZM5,12v2a1,1,0,0,0,1,1h4a1,1,0,0,0,1-1V12Zm5-8L7,1h8L12,4V6L10,8Z"/></g></g></g></svg>