<svg width="24" height="24" viewBox="0 0 24 24" fill="none" xmlns="http://www.w3.org/2000/svg">
<path fill-rule="evenodd" clip-rule="evenodd" d="M2 4V18C2 18.5304 2.21071 19.0391 2.58579 19.4142C2.96086 19.7893 3.46957 20 4 20H20C20.5304 20 21.0391 19.7893 21.4142 19.4142C21.7893 19.0391 22 18.5304 22 18V4H2ZM11 8H13V10H11V8ZM11 11H13V13H11V11ZM8 8H10V10H8V8ZM8 11H10V13H8V11ZM7 16H5V14H7V16ZM7 13H5V11H7V13ZM7 10H5V8H7V10ZM16 16H8V14H16V16ZM16 13H14V11H16V13ZM16 10H14V8H16V10ZM19 16H17V14H19V16ZM19 13H17V11H19V13ZM19 10H17V8H19V10Z" fill="#0F1621"/>
</svg>
