<svg width="24" height="24" viewBox="0 0 24 24" fill="none" xmlns="http://www.w3.org/2000/svg">
<path fill-rule="evenodd" clip-rule="evenodd" d="M20 4H2V16C2 17.0609 2.42143 18.0783 3.17157 18.8284C3.92172 19.5786 4.93913 20 6 20H18C19.0609 20 20.0783 19.5786 20.8284 18.8284C21.5786 18.0783 22 17.0609 22 16V4H20ZM20 16C20 16.5304 19.7893 17.0391 19.4142 17.4142C19.0391 17.7893 18.5304 18 18 18H6C5.46957 18 4.96086 17.7893 4.58579 17.4142C4.21071 17.0391 4 16.5304 4 16V6H20V16ZM10 10H8V8H10V10ZM7 10H5V8H7V10ZM13 10H11V8H13V10ZM10 13H8V11H10V13ZM16 16H8V14H16V16ZM13 13H11V11H13V13ZM16 10H14V8H16V10ZM19 10H17V8H19V10ZM7 13H5V11H7V13ZM19 13H17V11H19V13ZM7 16H5V14H7V16ZM19 16H17V14H19V16ZM16 13H14V11H16V13Z" fill="#0F1621"/>
</svg>
