<svg xmlns="http://www.w3.org/2000/svg" width="24" height="24" viewBox="0 0 24 24"><rect width="24" height="24" style="fill:none"/><path d="M12,21v-.69a.82.82,0,0,0-.35-.59,7.48,7.48,0,0,1,0-11.41A1,1,0,0,0,12,7.55V7a3,3,0,0,1,3-3h1a2,2,0,0,0-2-2H4A2,2,0,0,0,2,4V20a2,2,0,0,0,2,2h8.18A3,3,0,0,1,12,21ZM7.5,9A1.5,1.5,0,1,1,9,7.5,1.5,1.5,0,0,1,7.5,9ZM22,14a5.5,5.5,0,0,0-2.18-4.38A2,2,0,0,1,19,8V7a1,1,0,0,0-1-1H15a1,1,0,0,0-1,1V8a2,2,0,0,1-.82,1.6,5.49,5.49,0,0,0,0,8.76A2,2,0,0,1,14,20v1a1,1,0,0,0,1,1h3a1,1,0,0,0,1-1V20a2,2,0,0,1,.82-1.6A5.5,5.5,0,0,0,22,14Zm-5.5,3.5A3.5,3.5,0,1,1,20,14,3.5,3.5,0,0,1,16.5,17.5Z"/></svg>