<svg width="16" height="16" viewBox="0 0 16 16" fill="none" xmlns="http://www.w3.org/2000/svg">
<path d="M5 11H4V13H2V11C1.73478 11 1.48043 10.8946 1.29289 10.7071C1.10536 10.5196 1 10.2652 1 10V3H5C4.37902 3.46574 3.875 4.06966 3.52786 4.76393C3.18073 5.45821 3 6.22377 3 7C3 7.77623 3.18073 8.54179 3.52786 9.23607C3.875 9.93035 4.37902 10.5343 5 11ZM11 3C11.621 3.46574 12.125 4.06966 12.4721 4.76393C12.8193 5.45821 13 6.22377 13 7C13 7.77623 12.8193 8.54179 12.4721 9.23607C12.125 9.93035 11.621 10.5343 11 11H12V13H14V11C14.2652 11 14.5196 10.8946 14.7071 10.7071C14.8946 10.5196 15 10.2652 15 10V3H11ZM8 4C7.40666 4 6.82664 4.17595 6.33329 4.50559C5.83994 4.83524 5.45542 5.30377 5.22836 5.85195C5.0013 6.40013 4.94189 7.00333 5.05764 7.58527C5.1734 8.16721 5.45912 8.70176 5.87868 9.12132C6.29824 9.54088 6.83279 9.8266 7.41473 9.94236C7.99667 10.0581 8.59987 9.9987 9.14805 9.77164C9.69623 9.54458 10.1648 9.16006 10.4944 8.66671C10.8241 8.17336 11 7.59334 11 7C11 6.20435 10.6839 5.44129 10.1213 4.87868C9.55871 4.31607 8.79565 4 8 4Z" fill="#0F1621"/>
</svg>
