<svg width="24" height="24" viewBox="0 0 24 24" fill="none" xmlns="http://www.w3.org/2000/svg">
<path d="M8.4 17H7V19H4V17C3.46957 17 2.96086 16.7893 2.58579 16.4142C2.21071 16.0391 2 15.5304 2 15V5H8.4C7.36458 5.62221 6.5078 6.50178 5.91298 7.55318C5.31816 8.60458 5.00555 9.79201 5.00555 11C5.00555 12.208 5.31816 13.3954 5.91298 14.4468C6.5078 15.4982 7.36458 16.3778 8.4 17ZM15.6 5C16.6354 5.62221 17.4922 6.50178 18.087 7.55318C18.6818 8.60458 18.9944 9.79201 18.9944 11C18.9944 12.208 18.6818 13.3954 18.087 14.4468C17.4922 15.4982 16.6354 16.3778 15.6 17H17V19H20V17C20.5304 17 21.0391 16.7893 21.4142 16.4142C21.7893 16.0391 22 15.5304 22 15V5H15.6ZM12 6C11.0111 6 10.0444 6.29324 9.22215 6.84265C8.3999 7.39206 7.75904 8.17295 7.3806 9.08658C7.00216 10.0002 6.90315 11.0055 7.09607 11.9755C7.289 12.9454 7.7652 13.8363 8.46447 14.5355C9.16373 15.2348 10.0546 15.711 11.0245 15.9039C11.9945 16.0969 12.9998 15.9978 13.9134 15.6194C14.827 15.241 15.6079 14.6001 16.1573 13.7779C16.7068 12.9556 17 11.9889 17 11C17 9.67392 16.4732 8.40215 15.5355 7.46447C14.5979 6.52678 13.3261 6 12 6Z" fill="#0F1621"/>
</svg>
