<svg width="24" height="24" viewBox="0 0 24 24" fill="none" xmlns="http://www.w3.org/2000/svg">
<path d="M18 6.99996V4.99996H14C13.9967 4.20805 13.6803 3.44958 13.12 2.88996C12.7011 2.47153 12.1677 2.18643 11.587 2.07057C11.0063 1.95471 10.4044 2.01327 9.85691 2.23888C9.30946 2.46449 8.84101 2.84705 8.51058 3.33839C8.18014 3.82972 8.00249 4.40785 8 4.99996V13C7.16047 13.6296 6.54033 14.5074 6.22743 15.5091C5.91453 16.5108 5.92473 17.5855 6.25658 18.5811C6.58844 19.5767 7.22512 20.4426 8.07645 21.0562C8.92778 21.6698 9.95059 22 11 22C12.0494 22 13.0722 21.6698 13.9236 21.0562C14.7749 20.4426 15.4116 19.5767 15.7434 18.5811C16.0753 17.5855 16.0855 16.5108 15.7726 15.5091C15.4597 14.5074 14.8395 13.6296 14 13V11H18V8.99996H14V6.99996H18ZM11 18C10.8022 18 10.6089 17.9413 10.4444 17.8314C10.28 17.7215 10.1518 17.5654 10.0761 17.3826C10.0004 17.1999 9.98063 16.9989 10.0192 16.8049C10.0578 16.6109 10.153 16.4327 10.2929 16.2929C10.4327 16.153 10.6109 16.0578 10.8049 16.0192C10.9989 15.9806 11.2 16.0004 11.3827 16.0761C11.5654 16.1518 11.7216 16.2799 11.8315 16.4444C11.9414 16.6088 12 16.8022 12 17C12 17.2652 11.8946 17.5195 11.7071 17.7071C11.5196 17.8946 11.2652 18 11 18Z" fill="#0F1621"/>
</svg>
