<svg width="16" height="16" viewBox="0 0 16 16" fill="none" xmlns="http://www.w3.org/2000/svg">
<path d="M8 1C8 1 3 6.5 3 10C3 11.3261 3.52678 12.5979 4.46447 13.5355C5.40215 14.4732 6.67392 15 8 15C9.32608 15 10.5979 14.4732 11.5355 13.5355C12.4732 12.5979 13 11.3261 13 10C13 6.5 8 1 8 1ZM6 12C5.80222 12 5.60888 11.9414 5.44443 11.8315C5.27998 11.7216 5.15181 11.5654 5.07612 11.3827C5.00043 11.2 4.98063 10.9989 5.01922 10.8049C5.0578 10.6109 5.15304 10.4327 5.29289 10.2929C5.43275 10.153 5.61093 10.0578 5.80491 10.0192C5.99889 9.98063 6.19996 10.0004 6.38268 10.0761C6.56541 10.1518 6.72159 10.28 6.83147 10.4444C6.94135 10.6089 7 10.8022 7 11C7 11.2652 6.89464 11.5196 6.70711 11.7071C6.51957 11.8946 6.26522 12 6 12ZM13 2C13 2.19778 12.9414 2.39112 12.8315 2.55557C12.7216 2.72002 12.5654 2.84819 12.3827 2.92388C12.2 2.99957 11.9989 3.01937 11.8049 2.98079C11.6109 2.9422 11.4327 2.84696 11.2929 2.70711C11.153 2.56725 11.0578 2.38907 11.0192 2.19509C10.9806 2.00111 11.0004 1.80004 11.0761 1.61732C11.1518 1.43459 11.28 1.27841 11.4444 1.16853C11.6089 1.05865 11.8022 1 12 1C12.2652 1 12.5196 1.10536 12.7071 1.29289C12.8946 1.48043 13 1.73478 13 2ZM15 5C15 5.19778 14.9414 5.39112 14.8315 5.55557C14.7216 5.72002 14.5654 5.84819 14.3827 5.92388C14.2 5.99957 13.9989 6.01937 13.8049 5.98079C13.6109 5.9422 13.4327 5.84696 13.2929 5.70711C13.153 5.56725 13.0578 5.38907 13.0192 5.19509C12.9806 5.00111 13.0004 4.80004 13.0761 4.61732C13.1518 4.43459 13.28 4.27841 13.4444 4.16853C13.6089 4.05865 13.8022 4 14 4C14.2652 4 14.5196 4.10536 14.7071 4.29289C14.8946 4.48043 15 4.73478 15 5ZM5 2C5 2.19778 4.94135 2.39112 4.83147 2.55557C4.72159 2.72002 4.56541 2.84819 4.38268 2.92388C4.19996 2.99957 3.99889 3.01937 3.80491 2.98079C3.61093 2.9422 3.43275 2.84696 3.29289 2.70711C3.15304 2.56725 3.0578 2.38907 3.01922 2.19509C2.98063 2.00111 3.00043 1.80004 3.07612 1.61732C3.15181 1.43459 3.27998 1.27841 3.44443 1.16853C3.60888 1.05865 3.80222 1 4 1C4.26522 1 4.51957 1.10536 4.70711 1.29289C4.89464 1.48043 5 1.73478 5 2ZM3 5C3 5.19778 2.94135 5.39112 2.83147 5.55557C2.72159 5.72002 2.56541 5.84819 2.38268 5.92388C2.19996 5.99957 1.99889 6.01937 1.80491 5.98079C1.61093 5.9422 1.43275 5.84696 1.29289 5.70711C1.15304 5.56725 1.0578 5.38907 1.01922 5.19509C0.98063 5.00111 1.00043 4.80004 1.07612 4.61732C1.15181 4.43459 1.27998 4.27841 1.44443 4.16853C1.60888 4.05865 1.80222 4 2 4C2.26522 4 2.51957 4.10536 2.70711 4.29289C2.89464 4.48043 3 4.73478 3 5Z" fill="#0F1621"/>
</svg>
