<svg xmlns="http://www.w3.org/2000/svg" viewBox="0 0 24 24"><g id="Layer_2" data-name="Layer 2"><g id="UI_Outline" data-name="UI Outline"><g id="sensor-shock"><rect width="24" height="24" transform="translate(24) rotate(90)" style="fill:none"/><path d="M12,4a.71.71,0,0,1,.5.21L16.79,8.5a.7.7,0,0,1,0,1L12.5,13.79a.7.7,0,0,1-1,0L7.21,9.5a.7.7,0,0,1,0-1L11.5,4.21A.71.71,0,0,1,12,4m0-2a2.67,2.67,0,0,0-1.91.79l-4.3,4.3a2.71,2.71,0,0,0,0,3.82l4.3,4.3a2.7,2.7,0,0,0,3.82,0l4.3-4.3a2.71,2.71,0,0,0,0-3.82l-4.3-4.3A2.67,2.67,0,0,0,12,2Zm7,14,3-3H19l-2,2v2H14.23l.61,1.84L12,17.89l-2.84.95L9.77,17H7V15L5,13H2l3,3L3,19H7L6,22l6-2,6,2-1-3h4ZM12,7a2,2,0,1,0,2,2A2,2,0,0,0,12,7Z"/></g></g></g></svg>