<svg xmlns="http://www.w3.org/2000/svg" viewBox="0 0 24 24"><defs><style>.cls-1{fill:none;}</style></defs><g id="Layer_2" data-name="Layer 2"><g id="UI_Outline" data-name="UI Outline"><g id="sensor-humidity"><rect class="cls-1" width="24" height="24" transform="translate(24) rotate(90)"/><path d="M12,5.26c2.35,3.19,5,7.51,5,9.74,0,3.41-1.59,5-5,5s-5-1.59-5-5c0-2.23,2.65-6.55,5-9.74M12,2S5,10.5,5,15c0,4,2,7,7,7s7-3,7-7c0-4.5-7-13-7-13Zm0,13.5A1.5,1.5,0,1,0,10.5,17,1.5,1.5,0,0,0,12,15.5ZM18,2a1,1,0,1,0,1,1A1,1,0,0,0,18,2ZM6.5,2A1.5,1.5,0,1,0,8,3.5,1.5,1.5,0,0,0,6.5,2Zm14,4A1.5,1.5,0,1,0,22,7.5,1.5,1.5,0,0,0,20.5,6ZM3,7A1,1,0,1,0,4,8,1,1,0,0,0,3,7Z"/></g></g></g></svg>