<svg width="24" height="24" viewBox="0 0 24 24" fill="none" xmlns="http://www.w3.org/2000/svg">
<path d="M12 2C9.87956 2.0035 7.82846 2.75557 6.20836 4.1236C4.58826 5.49163 3.50321 7.38775 3.14454 9.47762C2.78587 11.5675 3.1766 13.7169 4.24785 15.5468C5.31911 17.3768 7.00207 18.7697 8.99999 19.48V20C8.99999 20.5304 9.2107 21.0391 9.58577 21.4142C9.96085 21.7893 10.4696 22 11 22H13C13.5304 22 14.0391 21.7893 14.4142 21.4142C14.7893 21.0391 15 20.5304 15 20V19.48C16.9979 18.7697 18.6809 17.3768 19.7521 15.5468C20.8234 13.7169 21.2141 11.5675 20.8554 9.47762C20.4968 7.38775 19.4117 5.49163 17.7916 4.1236C16.1715 2.75557 14.1204 2.0035 12 2ZM7.58999 8L8.99999 6.59L11.48 9.07C11.6489 9.02096 11.8241 8.99737 12 9C12.3956 9 12.7822 9.1173 13.1111 9.33706C13.44 9.55682 13.6964 9.86918 13.8477 10.2346C13.9991 10.6001 14.0387 11.0022 13.9616 11.3902C13.8844 11.7781 13.6939 12.1345 13.4142 12.4142C13.1345 12.6939 12.7781 12.8844 12.3902 12.9616C12.0022 13.0387 11.6001 12.9991 11.2346 12.8478C10.8692 12.6964 10.5568 12.44 10.337 12.1111C10.1173 11.7822 9.99999 11.3956 9.99999 11C9.99736 10.8242 10.021 10.6489 10.07 10.48L7.58999 8Z" fill="#0F1621"/>
</svg>
