<svg width="24" height="24" viewBox="0 0 24 24" fill="none" xmlns="http://www.w3.org/2000/svg">
<path d="M14 11C14 11.5304 13.7893 12.0391 13.4142 12.4142C13.0391 12.7893 12.5304 13 12 13C11.4696 13 10.9609 12.7893 10.5858 12.4142C10.2107 12.0391 10 11.5304 10 11C9.99737 10.8241 10.021 10.6489 10.07 10.48L7.59 7.99997L9 6.58997L11.48 9.06997C11.6489 9.02094 11.8242 8.99734 12 8.99997C12.5304 8.99997 13.0391 9.21069 13.4142 9.58576C13.7893 9.96083 14 10.4695 14 11ZM21 11C20.9989 12.8602 20.4214 14.6744 19.3469 16.193C18.2725 17.7116 16.7539 18.8599 15 19.48V20C15 20.5304 14.7893 21.0391 14.4142 21.4142C14.0391 21.7893 13.5304 22 13 22H11C10.4696 22 9.96086 21.7893 9.58579 21.4142C9.21072 21.0391 9 20.5304 9 20V19.48C7.44417 18.9299 6.06952 17.9627 5.02635 16.684C3.98317 15.4053 3.31164 13.8645 3.08516 12.2299C2.85869 10.5953 3.08599 8.92985 3.74222 7.41573C4.39845 5.90161 5.45834 4.59705 6.80601 3.6447C8.15368 2.69234 9.73725 2.12885 11.3836 2.01583C13.0299 1.9028 14.6757 2.2446 16.1408 3.00385C17.606 3.7631 18.8342 4.91057 19.6912 6.32081C20.5482 7.73105 21.001 9.34976 21 11ZM19 11C19 9.61551 18.5895 8.26213 17.8203 7.11098C17.0511 5.95984 15.9579 5.06263 14.6788 4.53282C13.3997 4.003 11.9922 3.86438 10.6344 4.13448C9.2765 4.40457 8.02922 5.07126 7.05025 6.05023C6.07129 7.02919 5.4046 8.27647 5.13451 9.63434C4.86441 10.9922 5.00303 12.3997 5.53285 13.6788C6.06266 14.9578 6.95987 16.0511 8.11101 16.8203C9.26216 17.5894 10.6155 18 12 18C13.8565 18 15.637 17.2625 16.9497 15.9497C18.2625 14.637 19 12.8565 19 11Z" fill="#0F1621"/>
</svg>
