<svg xmlns="http://www.w3.org/2000/svg" viewBox="0 0 24 24"><g id="Layer_2" data-name="Layer 2"><g id="UI_Solid" data-name="UI Solid"><g id="speaker"><rect width="24" height="24" style="fill:none"/><path d="M12,8a4,4,0,1,0,4,4A4,4,0,0,0,12,8Zm0,5a1,1,0,1,1,1-1A1,1,0,0,1,12,13Zm0-5a4,4,0,1,0,4,4A4,4,0,0,0,12,8Zm0,5a1,1,0,1,1,1-1A1,1,0,0,1,12,13ZM2,2V20a2,2,0,0,0,2,2H20a2,2,0,0,0,2-2V2ZM12,18a6,6,0,1,1,6-6A6,6,0,0,1,12,18ZM12,8a4,4,0,1,0,4,4A4,4,0,0,0,12,8Zm0,5a1,1,0,1,1,1-1A1,1,0,0,1,12,13Z"/></g></g></g></svg>