<svg width="24" height="24" viewBox="0 0 24 24" fill="none" xmlns="http://www.w3.org/2000/svg">
<path d="M12.82 4C12.6098 3.42085 12.2264 2.92046 11.7218 2.56684C11.2173 2.21322 10.6161 2.02352 10 2.02352C9.38388 2.02352 8.7827 2.21322 8.27816 2.56684C7.77363 2.92046 7.3902 3.42085 7.18 4H2V18C2 18.5304 2.21071 19.0391 2.58579 19.4142C2.96086 19.7893 3.46957 20 4 20H7V18H4V6H9L9.06 4.68C9.13007 4.48695 9.25788 4.32015 9.42605 4.20228C9.59423 4.08441 9.79463 4.02117 10 4.02117C10.2054 4.02117 10.4058 4.08441 10.5739 4.20228C10.7421 4.32015 10.8699 4.48695 10.94 4.68L11 6H17V4H12.82ZM9 8V22H22V8H9ZM20 20H11V10H20V20Z" fill="#0F1621"/>
</svg>
