<svg width="24" height="24" viewBox="0 0 24 24" fill="none" xmlns="http://www.w3.org/2000/svg">
<path d="M12.2608 11.212C12.6935 11.212 13.0785 11.2927 13.4158 11.454C13.7605 11.608 14.0795 11.8317 14.3728 12.125L13.6138 12.906C13.3938 12.7153 13.1848 12.5797 12.9868 12.499C12.7888 12.411 12.5688 12.367 12.3268 12.367C11.8501 12.367 11.4835 12.5797 11.2268 13.005C10.9701 13.423 10.8418 14.1527 10.8418 15.194C10.8418 15.9273 10.8858 16.4993 10.9738 16.91C11.0691 17.3207 11.2048 17.6067 11.3808 17.768C11.5568 17.9293 11.7915 18.01 12.0848 18.01C12.3781 18.01 12.6605 17.922 12.9318 17.746V15.799H12.1288L11.9748 14.677H14.3948V18.406C14.0721 18.648 13.7091 18.835 13.3058 18.967C12.9098 19.099 12.5101 19.165 12.1068 19.165C11.1388 19.165 10.4165 18.846 9.93979 18.208C9.47046 17.5627 9.23579 16.5543 9.23579 15.183C9.23579 14.303 9.36779 13.566 9.63179 12.972C9.89579 12.378 10.2551 11.938 10.7098 11.652C11.1645 11.3587 11.6815 11.212 12.2608 11.212Z" fill="#0F1621"/>
<path d="M16.98 11.388V19H15.418V11.388H16.98Z" fill="#0F1621"/>
<path d="M18.1465 19V11.388H21.9305L21.7655 12.521H19.7085V14.743H21.5015V15.876H19.7085V19H18.1465Z" fill="#0F1621"/>
<path fill-rule="evenodd" clip-rule="evenodd" d="M2 2H16L22 8V10H14V4H4V20H22C22 20.5304 21.7893 21.0391 21.4142 21.4142C21.0391 21.7893 20.5304 22 20 22H4C3.46957 22 2.96086 21.7893 2.58579 21.4142C2.21071 21.0391 2 20.5304 2 20V2ZM16 8H19.17L16 4.83V8Z" fill="#0F1621"/>
</svg>
