<svg width="16" height="16" viewBox="0 0 16 16" fill="none" xmlns="http://www.w3.org/2000/svg">
<path d="M13 3V13H3V3H13ZM15 1H1V13C1 13.5304 1.21071 14.0391 1.58579 14.4142C1.96086 14.7893 2.46957 15 3 15H13C13.5304 15 14.0391 14.7893 14.4142 14.4142C14.7893 14.0391 15 13.5304 15 13V1ZM6 5C5.80222 5 5.60888 5.05865 5.44443 5.16853C5.27998 5.27841 5.15181 5.43459 5.07612 5.61732C5.00043 5.80004 4.98063 6.00111 5.01921 6.19509C5.0578 6.38907 5.15304 6.56725 5.29289 6.70711C5.43275 6.84696 5.61093 6.9422 5.80491 6.98079C5.99889 7.01937 6.19996 6.99957 6.38268 6.92388C6.56541 6.84819 6.72159 6.72002 6.83147 6.55557C6.94135 6.39112 7 6.19778 7 6C7 5.73478 6.89464 5.48043 6.70711 5.29289C6.51957 5.10536 6.26522 5 6 5ZM9.62 7.24C9.54805 7.09634 9.44254 6.97214 9.31241 6.8779C9.18228 6.78366 9.03136 6.72217 8.87243 6.69862C8.71349 6.67507 8.55122 6.69017 8.39936 6.74263C8.2475 6.79509 8.11051 6.88337 8 7L6.67 9H5V11H11V9L9.62 7.24Z" fill="#0F1621"/>
</svg>
