<svg width="24" height="24" viewBox="0 0 24 24" fill="none" xmlns="http://www.w3.org/2000/svg">
<path d="M8.55379 11.388C9.49246 11.388 10.2038 11.597 10.6878 12.015C11.1791 12.4257 11.4248 13.0307 11.4248 13.83C11.4248 14.6733 11.1865 15.3077 10.7098 15.733C10.2331 16.1583 9.56212 16.371 8.69679 16.371H8.27879V19H6.71679V11.388H8.55379ZM8.58679 15.238C9.02679 15.238 9.34212 15.1317 9.53279 14.919C9.73079 14.7063 9.82979 14.347 9.82979 13.841C9.82979 13.379 9.73446 13.0417 9.54379 12.829C9.35312 12.6163 9.04146 12.51 8.60879 12.51H8.27879V15.238H8.58679Z" fill="#0F1621"/>
<path d="M13.9563 11.388C14.6017 11.388 15.159 11.487 15.6283 11.685C16.0977 11.8757 16.479 12.2497 16.7723 12.807C17.0657 13.357 17.2123 14.1417 17.2123 15.161C17.2123 16.591 16.9263 17.5883 16.3543 18.153C15.7897 18.7177 15.0343 19 14.0883 19H12.1523V11.388H13.9563ZM13.7143 12.532V17.856H14.1763C14.4843 17.856 14.741 17.7827 14.9463 17.636C15.159 17.482 15.324 17.207 15.4413 16.811C15.5587 16.415 15.6173 15.865 15.6173 15.161C15.6173 14.4423 15.555 13.8923 15.4303 13.511C15.313 13.1297 15.1517 12.873 14.9463 12.741C14.741 12.6017 14.4843 12.532 14.1763 12.532H13.7143Z" fill="#0F1621"/>
<path d="M18.1465 19V11.388H21.9305L21.7655 12.521H19.7085V14.743H21.5015V15.876H19.7085V19H18.1465Z" fill="#0F1621"/>
<path fill-rule="evenodd" clip-rule="evenodd" d="M2 2H16L22 8V10H14V4H4V20H22C22 20.5304 21.7893 21.0391 21.4142 21.4142C21.0391 21.7893 20.5304 22 20 22H4C3.46957 22 2.96086 21.7893 2.58579 21.4142C2.21071 21.0391 2 20.5304 2 20V2ZM16 8H19.17L16 4.83V8Z" fill="#0F1621"/>
</svg>
