<svg width="24" height="24" viewBox="0 0 24 24" fill="none" xmlns="http://www.w3.org/2000/svg">
<path d="M8.42952 11.212C8.88419 11.212 9.28752 11.2927 9.63952 11.454C9.99152 11.6153 10.3105 11.8537 10.5965 12.169L9.89252 12.983C9.46719 12.5797 9.02719 12.378 8.57252 12.378C8.30852 12.378 8.09952 12.4587 7.94552 12.62C7.79152 12.774 7.71452 12.983 7.71452 13.247C7.71452 13.5037 7.79886 13.7163 7.96752 13.885C8.13619 14.0537 8.45519 14.2333 8.92452 14.424C9.34986 14.6 9.69086 14.787 9.94752 14.985C10.2115 15.183 10.4132 15.4287 10.5525 15.722C10.6992 16.0153 10.7725 16.3783 10.7725 16.811C10.7725 17.2583 10.6699 17.6617 10.4645 18.021C10.2592 18.3803 9.96586 18.6627 9.58452 18.868C9.20319 19.0733 8.75952 19.176 8.25352 19.176C7.73286 19.176 7.27819 19.0843 6.88952 18.901C6.50819 18.7103 6.16352 18.45 5.85552 18.12L6.61452 17.284C6.87119 17.5187 7.12052 17.6983 7.36252 17.823C7.61186 17.9403 7.87586 17.999 8.15452 17.999C8.47719 17.999 8.72286 17.9037 8.89152 17.713C9.06752 17.515 9.15552 17.251 9.15552 16.921C9.15552 16.6203 9.07486 16.3783 8.91352 16.195C8.75219 16.0043 8.45886 15.821 8.03352 15.645C7.34419 15.359 6.85286 15.04 6.55952 14.688C6.26619 14.336 6.11952 13.8923 6.11952 13.357C6.11952 12.939 6.21852 12.5687 6.41652 12.246C6.61452 11.9233 6.88952 11.6703 7.24152 11.487C7.59352 11.3037 7.98952 11.212 8.42952 11.212Z" fill="#0F1621"/>
<path d="M16.1534 11.388L14.4594 19H12.4904L10.7194 11.388H12.2814L13.4914 17.702L14.6354 11.388H16.1534Z" fill="#0F1621"/>
<path d="M19.4258 11.212C19.8585 11.212 20.2435 11.2927 20.5808 11.454C20.9255 11.608 21.2445 11.8317 21.5378 12.125L20.7788 12.906C20.5588 12.7153 20.3498 12.5797 20.1518 12.499C19.9538 12.411 19.7338 12.367 19.4918 12.367C19.0152 12.367 18.6485 12.5797 18.3918 13.005C18.1352 13.423 18.0068 14.1527 18.0068 15.194C18.0068 15.9273 18.0508 16.4993 18.1388 16.91C18.2342 17.3207 18.3698 17.6067 18.5458 17.768C18.7218 17.9293 18.9565 18.01 19.2498 18.01C19.5432 18.01 19.8255 17.922 20.0968 17.746V15.799H19.2938L19.1398 14.677H21.5598V18.406C21.2372 18.648 20.8742 18.835 20.4708 18.967C20.0748 19.099 19.6752 19.165 19.2718 19.165C18.3038 19.165 17.5815 18.846 17.1048 18.208C16.6355 17.5627 16.4008 16.5543 16.4008 15.183C16.4008 14.303 16.5328 13.566 16.7968 12.972C17.0608 12.378 17.4202 11.938 17.8748 11.652C18.3295 11.3587 18.8465 11.212 19.4258 11.212Z" fill="#0F1621"/>
<path fill-rule="evenodd" clip-rule="evenodd" d="M2 2H16L22 8V10H14V4H4V20H22C22 20.5304 21.7893 21.0391 21.4142 21.4142C21.0391 21.7893 20.5304 22 20 22H4C3.46957 22 2.96086 21.7893 2.58579 21.4142C2.21071 21.0391 2 20.5304 2 20V2ZM16 8H19.17L16 4.83V8Z" fill="#0F1621"/>
</svg>
