<svg width="24" height="24" viewBox="0 0 24 24" fill="none" xmlns="http://www.w3.org/2000/svg">
<path d="M11.665 11.388L11.5 12.587H10.1515V19H8.60045V12.587H7.00545V11.388H11.665Z" fill="#0F1621"/>
<path d="M15.3581 14.897L17.1511 19H15.5231L14.4231 15.931L13.3671 19H11.7721L13.5101 14.952L11.9041 11.388H13.5321L14.4451 13.984L15.4241 11.388H16.9971L15.3581 14.897Z" fill="#0F1621"/>
<path d="M22.0073 11.388L21.8423 12.587H20.3243V19H18.7733V12.587H17.2414V11.388H22.0073Z" fill="#0F1621"/>
<path fill-rule="evenodd" clip-rule="evenodd" d="M2 2H16L22 8V10H14V4H4V20H22C22 20.5304 21.7893 21.0391 21.4142 21.4142C21.0391 21.7893 20.5304 22 20 22H4C3.46957 22 2.96086 21.7893 2.58579 21.4142C2.21071 21.0391 2 20.5304 2 20V2ZM16 8H19.17L16 4.83V8Z" fill="#0F1621"/>
</svg>
