<svg width="24" height="24" viewBox="0 0 24 24" fill="none" xmlns="http://www.w3.org/2000/svg">
<path d="M12.4348 11.388L11.4228 19H9.39883L8.76146 12.972L8.08106 19H6.09006L5.11106 11.388H6.59606L7.22306 17.79L8.05906 11.388H9.49783L10.3008 17.79L11.0048 11.388H12.4348Z" fill="#0F1621"/>
<path d="M15.9978 19L15.6568 17.262H13.8308L13.4898 19H11.9498L13.8308 11.388H15.7008L17.5708 19H15.9978ZM14.0508 16.129H15.4368L14.7438 12.543L14.0508 16.129Z" fill="#0F1621"/>
<path d="M22 11.388L20.306 19H18.6111L16.8401 11.388H18.4021L19.4999 17.702L20.482 11.388H22Z" fill="#0F1621"/>
<path fill-rule="evenodd" clip-rule="evenodd" d="M2 2H16L22 8V10H14V4H4V20H22C22 20.5304 21.7893 21.0391 21.4142 21.4142C21.0391 21.7893 20.5304 22 20 22H4C3.46957 22 2.96086 21.7893 2.58579 21.4142C2.21071 21.0391 2 20.5304 2 20V2ZM16 8H19.17L16 4.83V8Z" fill="#0F1621"/>
</svg>
