<svg xmlns="http://www.w3.org/2000/svg" width="24" height="24" viewBox="0 0 24 24">
  <g fill="none" fill-rule="evenodd">
    <rect width="24" height="24" opacity="0"/>
    <path fill="#0F1621" fill-opacity=".95" d="M21,5.93599997 L20.955182,6.48400084 L20.8992541,7.01905511 C20.6443136,9.25985524 19.8095179,14.3994822 17.363,16.846 C14.782,19.428 11.347,18.605 10.09,18.058 L6.75599998,21.998 L4.93799997,20.18 L8.87799999,16.846 L8.79434011,16.6415011 C8.25721248,15.24773 7.63709998,12.0259 10.09,9.57299999 C13.27,6.39299998 21,5.93599997 21,5.93599997 Z M8.14299998,1.99999996 L8.57602445,2.51471738 L8.95199637,2.98472743 C9.6057039,3.81846357 10.5524046,5.11131013 11.395,6.58699998 C10.453,7.07399998 9.58299999,7.65599998 8.87899999,8.35999998 C6.44312119,10.7958788 6.34673919,13.9191258 6.84098723,16.0839097 L6.88899998,16.284 L5.85099997,17.162 C4.47899997,16.243 2.99999996,14.698 2.99999996,12.286 C2.99999996,7.78899998 8.14299998,1.99999996 8.14299998,1.99999996 Z"/>
  </g>
</svg>
