<?xml version="1.0" encoding="iso-8859-1"?>
<!-- Generator: Adobe Illustrator 24.1.2, SVG Export Plug-In . SVG Version: 6.00 Build 0)  -->
<svg version="1.1" id="_x33_50-3550-0336_x5F_natural-geographical-layer"
	 xmlns="http://www.w3.org/2000/svg" xmlns:xlink="http://www.w3.org/1999/xlink" x="0px" y="0px" viewBox="0 0 24 24"
	 style="enable-background:new 0 0 24 24;" xml:space="preserve">
<g id="_x33_50-3550-0336_x5F_natural-geographical">
	<rect style="fill:none;" width="24" height="24"/>
	<path d="M20,6v2c0,4.963-4.037,9-9,9H9v-2c0-4.963,4.037-9,9-9H20 M22,4h-4C11.92,4,7,8.92,7,15v2.58l-3,3.01L5.41,22l3.01-3H11
		c6.08,0,11-4.92,11-11V4L22,4z M8.05,2L5.22,4.83C1.59,8.46,1.03,14,3.54,18.22l0.04-0.04L5,16.75l-0.76-2.06
		C3.53,11.71,4.38,8.5,6.63,6.24l1.42-1.41L8.92,5.7c0.48-0.47,0.99-0.9,1.54-1.29L8.05,2z"/>
</g>
</svg>
