<svg xmlns="http://www.w3.org/2000/svg" width="24" height="24" viewBox="0 0 24 24">
  <g fill="none" fill-rule="evenodd">
    <rect width="24" height="24"/>
    <path fill="#0F1621" fill-opacity=".95" d="M12.001,1.99999996 C17.514,1.99999996 22,6.48499998 22,12 C22,17.512 17.514,22 12.001,22 C6.48699998,22 1.99999996,17.513 1.99999996,12 C1.99999996,6.48499998 6.48699998,1.99999996 12.001,1.99999996 Z M12.001,6.10999998 C8.74899999,6.10999998 6.11099998,8.74699999 6.11099998,11.999 C6.11099998,15.252 8.74799999,17.888 12.001,17.888 C15.252,17.888 17.891,15.252 17.891,11.999 C17.891,8.74599999 15.253,6.10999998 12.001,6.10999998 Z M12,8.14899998 C13.309,8.14899998 14.42,8.80999999 14.42,10.042 C14.42,10.724 14.035,11.285 13.199,11.714 C14.211,12.165 14.717,12.814 14.717,13.694 C14.717,14.904 13.651,15.85 11.967,15.85 C10.306,15.85 9.28299999,14.914 9.28299999,13.715 C9.28299999,12.814 9.81099999,12.219 10.691,11.845 C9.89899999,11.416 9.57999999,10.823 9.57999999,10.096 C9.57999999,8.88599999 10.68,8.14899998 12,8.14899998 Z M11.593,12.209 C10.999,12.528 10.702,13.001 10.702,13.672 C10.702,14.376 11.208,14.806 12,14.806 C12.825,14.806 13.287,14.332 13.287,13.694 C13.287,13.0443125 12.967957,12.7330039 12.1123418,12.3975254 L11.934,12.33 L11.593,12.209 Z M12,9.13999999 C11.362,9.13999999 10.944,9.46999999 10.944,10.12 C10.944,10.7022143 11.285449,10.9800561 11.9066964,11.2289512 L12.264,11.363 C12.847,11 13.056,10.636 13.056,10.108 C13.056,9.52499999 12.693,9.13999999 12,9.13999999 Z"/>
  </g>
</svg>
