<svg xmlns="http://www.w3.org/2000/svg" width="24" height="24" viewBox="0 0 24 24">
  <g fill="none" fill-rule="evenodd">
    <rect width="24" height="24"/>
    <path fill="#0F1621" fill-opacity=".95" d="M3.99999996,20 L3.99999996,22 L1.99999996,22 L1.99999996,20 L3.99999996,20 Z M22,20 L22,22 L20,22 L20,20 L22,20 Z M5.99999997,18 L5.99999997,20 L3.99999997,20 L3.99999997,18 L5.99999997,18 Z M20,18 L20,20 L18,20 L18,18 L20,18 Z M16,1.99999996 L16,4.99999996 L18,4.99999996 L18,7.99999996 L19.988,7.99999996 L20,11 L22,11 L22,14 L18,14 L18,18 L16,18 L16,14 L13,14 L13,16 L14,16 L14,20 L9.99999996,20 L9.99999996,16 L11,16 L11,14 L7.99999996,14 L7.99999996,18 L5.99999996,18 L5.99999996,14 L1.99999996,14 L1.99999996,11 L3.99999996,11 L3.99999996,7.99999996 L5.99999996,7.99999996 L5.99999996,4.99999996 L7.99999996,4.99999996 L7.99999996,1.99999996 L16,1.99999996 Z M9.99999998,11 L9.99999998,7.99999998 L6.99999998,7.99999998 L6.99999998,11 L9.99999998,11 Z M17,7.99999998 L14,7.99999998 L14,11 L17,11 L17,7.99999998 Z"/>
  </g>
</svg>
