<svg xmlns="http://www.w3.org/2000/svg" width="24" height="24" viewBox="0 0 24 24">
  <g fill="none" fill-rule="evenodd">
    <rect width="24" height="24"/>
    <path fill="#0F1621" fill-opacity=".95" d="M20.113,10.011 C21.1139524,10.0681428 21.9198934,10.8536304 21.9943799,11.84916 L22,12 L22,16.66 C22,17.561 21.3997006,18.3433673 20.545337,18.5850489 L20.392,18.622 L18,19 L18,20 L18.5,22 L3.49999996,22 L3.99999996,20 L3.99999996,10.011 L20.113,10.011 Z M9.99999998,12 L7.99999998,12 L7.99999998,19 L9.99999998,19 L9.99999998,12 Z M14,12 L12,12 L12,19 L14,19 L14,12 Z M19.5,12 L18,12 L18,17 L19.598,16.68 C19.801875,16.63975 19.95675,16.477 19.9922832,16.2775 L20,16.19 L20,12.5 C20,12.2546667 19.8230124,12.0504198 19.5898382,12.0080604 L19.5,12 Z M11,1.99999996 C12.477,1.99999996 13.752,2.80899996 14.445,3.99999996 L15.5,3.99999996 C17.433,3.99999996 19,5.56699997 19,7.49999996 C19,7.67099998 18.973,7.83499998 18.95,7.99999996 L16.914,7.99999996 C16.969,7.84299998 17,7.67499998 17,7.49999996 C17,6.67299998 16.327,5.99999996 15.5,5.99999996 L13,5.99999996 C13,4.89699997 12.103,3.99999996 11,3.99999996 C9.89699999,3.99999996 8.99999996,4.89699997 8.99999996,5.99999996 L6.49999996,5.99999996 C5.67299997,5.99999996 4.99999996,6.67299998 4.99999996,7.49999996 C4.99999996,7.67599998 5.03599997,7.84299998 5.09199997,7.99999996 L3.04999996,7.99999996 C3.02699996,7.83499998 2.99999996,7.67099998 2.99999996,7.49999996 C2.99999996,5.56699997 4.56699997,3.99999996 6.49999996,3.99999996 L7.55499998,3.99999996 C8.24799998,2.80899996 9.52299999,1.99999996 11,1.99999996 Z"/>
  </g>
</svg>
