<svg xmlns="http://www.w3.org/2000/svg" width="24" height="24" viewBox="0 0 24 24">
  <g fill="none" fill-rule="evenodd">
    <rect width="24" height="24" opacity="0"/>
    <path fill="#0F1621" fill-opacity=".95" d="M21,1.99999996 L21,13.439 C20.76,18.235 16.802,22 12,22 C7.28530907,22 3.38420625,18.3706645 3.01676087,13.6995611 L2.99999996,13.439 L2.99999996,1.99999996 L21,1.99999996 Z M16.676,15.775 C16.951,15.05 16.312,14.297 15.551,14.448 C13.524,14.851 10.475,14.851 8.44799999,14.448 C7.68699998,14.297 7.04899998,15.05 7.32399998,15.775 C8.03999998,17.66 9.86399999,19 12,19 C14.136,19 15.96,17.66 16.676,15.775 Z M8.49999997,6.24699998 C7.11899998,6.24699998 5.99999997,7.36599998 5.99999997,8.74699998 C5.99999997,10.127 7.11899998,9.99699999 8.49999997,9.99699999 L9.11566043,10.0003312 C10.1988225,10.0015207 11,9.91553845 11,8.74699998 C11,7.36599998 9.88099999,6.24699998 8.49999997,6.24699998 Z M15.5,6.24699998 C14.119,6.24699998 13,7.36599998 13,8.74699998 C13,10.128 14.119,9.99699999 15.5,9.99699999 L16.1156605,10.000259 C17.1988225,10.0012603 18,9.9146923 18,8.74699998 C18,7.36599998 16.881,6.24699998 15.5,6.24699998 Z"/>
  </g>
</svg>
