<svg xmlns="http://www.w3.org/2000/svg" width="24" height="24" viewBox="0 0 24 24">
  <g fill="none" fill-rule="evenodd">
    <rect width="24" height="24"/>
    <path fill="#0F1621" fill-opacity=".95" d="M22,1.99999996 L22,5.99999996 L21,5.99999996 L21,13.555 C21,14.2305 20.8598907,14.9067656 20.5937403,15.5281934 L20.472,15.791 L19.394,17.947 L19.841,18.171 L18.206,21.441 L15.523,20.098 L17.158,16.828 L17.606,17.052 L18.684,14.897 C18.8565,14.552 18.9609445,14.1715833 18.9909676,13.7864213 L19,13.555 L19,5.99899997 L18,5.99899997 L18,1.99999996 L22,1.99999996 Z M10.965,3.63799997 C13.918,4.19799997 16.3,6.57799998 16.86,9.52999999 C17.863,14.816 13.315,19.362 8.02999998,18.361 C5.07799997,17.802 2.69899996,15.421 2.13899996,12.469 C1.13699995,7.18399998 5.67899997,2.63799996 10.965,3.63799997 Z M8.54599999,7.62299998 C7.37699998,7.92999998 6.43099998,8.87199999 6.11799998,10.039 C5.40299997,12.704 7.78099998,15.085 10.445,14.372 C11.611,14.06 12.554,13.116 12.863,11.948 C13.566,9.29399999 11.203,6.92599998 8.54599999,7.62299998 Z M9.49899999,9.49999999 C10.327,9.49999999 11,10.173 11,11 C11,11.827 10.327,12.5 9.49999998,12.5 C8.67299999,12.5 7.99999998,11.827 7.99999998,11 C7.99999998,10.173 8.67299999,9.49999999 9.49899999,9.49999999 Z"/>
  </g>
</svg>
