<?xml version="1.0" encoding="iso-8859-1"?>
<!-- Generator: Adobe Illustrator 24.1.2, SVG Export Plug-In . SVG Version: 6.00 Build 0)  -->
<svg version="1.1" id="_x38_00-8600-0191_x5F_fitness-health-club-layer"
	 xmlns="http://www.w3.org/2000/svg" xmlns:xlink="http://www.w3.org/1999/xlink" x="0px" y="0px" viewBox="0 0 24 24"
	 style="enable-background:new 0 0 24 24;" xml:space="preserve">
<g id="_x38_00-8600-0191_x5F_fitness-health-club_2_">
	<rect style="fill:none;" width="24" height="24"/>
	<path d="M21.71,11.57l-3.54,3.53l-3.93-3.93l-3.05,3.05l3.94,3.93l-3.54,3.54c-0.39,0.39-1.02,0.39-1.41,0l-1.69-1.68l-0.7,0.7
		c-0.4,0.4-1.03,0.4-1.42,0l-0.83-0.83L4,21.42L2.58,20l1.54-1.54l-0.83-0.83c-0.4-0.39-0.4-1.02,0-1.42l0.7-0.7l-1.67-1.68
		c-0.39-0.39-0.39-1.02,0-1.41l3.53-3.54l3.93,3.93l3.05-3.05L8.9,5.83l3.53-3.54c0.39-0.39,1.03-0.39,1.42,0l1.68,1.69l0.71-0.71
		c0.39-0.39,1.02-0.39,1.41,0l0.83,0.83L20,2.59L21.41,4L19.9,5.51l0.84,0.84c0.39,0.39,0.39,1.03,0,1.42l-0.71,0.71l1.68,1.67
		C22.1,10.54,22.1,11.18,21.71,11.57z"/>
</g>
</svg>
