<?xml version="1.0" encoding="iso-8859-1"?>
<!-- Generator: Adobe Illustrator 24.1.2, SVG Export Plug-In . SVG Version: 6.00 Build 0)  -->
<svg version="1.1" id="_x38_00-8600-0000_x5F_sports-facility-venue-layer"
	 xmlns="http://www.w3.org/2000/svg" xmlns:xlink="http://www.w3.org/1999/xlink" x="0px" y="0px" viewBox="0 0 24 24"
	 style="enable-background:new 0 0 24 24;" xml:space="preserve">
<g id="_x38_00-8600-0000_x5F_sports-facility-venue_2_">
	<rect style="fill:none;" width="24" height="24"/>
	<g>
		<path d="M22,8v12c0,1.1-0.9,2-2,2h-6v-2c0-0.55-0.22-1.05-0.59-1.41C13.05,18.22,12.55,18,12,18c-1.1,0-2,0.9-2,2v2H4
			c-1.1,0-2-0.9-2-2V8l6,6h8L22,8z M20,4l2-1l-2-1h-2v4h-5V4l2-1l-2-1h-2v4H6V4l2-1L6,2H4v4H2l2,2h16l2-2h-2V4z M6,10l2,2h7.877
			L18,10H6z"/>
	</g>
</g>
</svg>
