<?xml version="1.0" encoding="iso-8859-1"?>
<!-- Generator: Adobe Illustrator 24.1.2, SVG Export Plug-In . SVG Version: 6.00 Build 0)  -->
<svg version="1.1" id="_x38_00-8700-0198_x5F_public-restroom-toilets-layer"
	 xmlns="http://www.w3.org/2000/svg" xmlns:xlink="http://www.w3.org/1999/xlink" x="0px" y="0px" viewBox="0 0 24 24"
	 style="enable-background:new 0 0 24 24;" xml:space="preserve">
<g id="_x38_00-8700-0198_x5F_public-restroom-toilets_2_">
	<rect style="fill:none;" width="24" height="24"/>
	<g>
		<path d="M11,11l-1,1l1,2v4H9v4H6v-4H4v-4l1-2l-1-1V9c0-1.19,0.735-2,1.78-2h3.44C10.2,7,10.995,7.895,11,9V11z M9,4.469V3.531
			C9,2.689,8.325,2,7.5,2h0C6.675,2,6,2.689,6,3.531v0.938C6,5.311,6.675,6,7.5,6h0C8.325,6,9,5.311,9,4.469z M18.5,6
			C19.327,6,20,5.311,20,4.467V3.533c0-0.422-0.167-0.804-0.441-1.085C19.289,2.173,18.911,2,18.5,2C17.673,2,17,2.689,17,3.533
			v0.933C17,5.311,17.673,6,18.5,6z M22,9v5h-2v8h-3v-8h-2V9c0-1.19,0.735-2,1.78-2h3.44C21.2,7,21.995,7.895,22,9z"/>
	</g>
</g>
</svg>
