<?xml version="1.0" encoding="iso-8859-1"?>
<!-- Generator: Adobe Illustrator 24.1.2, SVG Export Plug-In . SVG Version: 6.00 Build 0)  -->
<svg version="1.1" id="_x38_00-8700-0166_x5F_cemetry-layer"
	 xmlns="http://www.w3.org/2000/svg" xmlns:xlink="http://www.w3.org/1999/xlink" x="0px" y="0px" viewBox="0 0 24 24"
	 style="enable-background:new 0 0 24 24;" xml:space="preserve">
<g id="_x38_00-8700-0166_x5F_cemetry_2_">
	<rect style="fill:none;" width="24" height="24"/>
	<path d="M22,22H2v-2h20V22z M20,6v12H4V6c0-1.1,0.9-2,2-2h3c0-1.1,0.9-2,2-2h2c1.1,0,2,0.9,2,2h3C19.1,4,20,4.9,20,6z M11,12H8v2h3
		V12z M16,12h-3v2h3V12z M16,8H8v2h8V8z"/>
</g>
</svg>
