<?xml version="1.0" encoding="iso-8859-1"?>
<!-- Generator: Adobe Illustrator 24.1.2, SVG Export Plug-In . SVG Version: 6.00 Build 0)  -->
<svg version="1.1" id="_x38_00-8600-0193_x5F_golf-course-layer"
	 xmlns="http://www.w3.org/2000/svg" xmlns:xlink="http://www.w3.org/1999/xlink" x="0px" y="0px" viewBox="0 0 24 24"
	 style="enable-background:new 0 0 24 24;" xml:space="preserve">
<g id="_x38_00-8600-0193_x5F_golf-course_2_">
	<rect style="fill:none;" width="24" height="24"/>
	<g>
		<path d="M8,12v4h4c1.66,0,3,1.34,3,3c0,0.83-0.34,1.58-0.88,2.12C13.58,21.66,12.83,22,12,22H5c-1.66,0-3-1.34-3-3
			c0-0.83,0.34-1.58,0.88-2.12C3.42,16.34,4.17,16,5,16h1V2l10,4v2L8,12z M19,12c-1.657,0-3,1.343-3,3s1.343,3,3,3s3-1.343,3-3
			S20.657,12,19,12z"/>
	</g>
</g>
</svg>
