<?xml version="1.0" encoding="iso-8859-1"?>
<!-- Generator: Adobe Illustrator 24.1.2, SVG Export Plug-In . SVG Version: 6.00 Build 0)  -->
<svg version="1.1" id="_x38_00-8500-0179_x5F_park-ride-layer"
	 xmlns="http://www.w3.org/2000/svg" xmlns:xlink="http://www.w3.org/1999/xlink" x="0px" y="0px" viewBox="0 0 24 24"
	 style="enable-background:new 0 0 24 24;" xml:space="preserve">
<g id="_x38_00-8500-0179_x5F_park-ride_2_">
	<rect style="fill:none;" width="24" height="24"/>
	<path d="M7,7H2v10h2v-4h3c0.55,0,1-0.45,1-1V8C8,7.45,7.55,7,7,7z M6,11H4V9h2V11z M14.5,11v2H13v1.5h-2V13H9.5v-2H11V9.5h2V11
		H14.5z M22,5H2V4c0-1.105,0.895-2,2-2h16c1.105,0,2,0.895,2,2V5z M2,19h20v1c0,1.105-0.895,2-2,2H4c-1.105,0-2-0.895-2-2V19z M22,8
		c0-0.55-0.45-1-1-1h-5v10h2v-4l1,1l1,1v2h2v-2.586c0-0.265-0.105-0.52-0.293-0.707L21,13l0.707-0.707
		C21.895,12.105,22,11.851,22,11.586V8z M18,9h2v2h-2V9z"/>
</g>
</svg>
