<svg xmlns="http://www.w3.org/2000/svg" width="24" height="24" viewBox="0 0 24 24">
  <g fill="none" fill-rule="evenodd">
    <rect width="24" height="24"/>
    <path fill="#0F1621" fill-opacity=".95" d="M21,20 L20.553,20.894 C20.214,21.572 19.521,22 18.764,22 L4.23599997,22 C3.47799996,22 2.78599996,21.572 2.44699996,20.894 L1.99999996,20 L21,20 Z M18,3.99999997 C20.478,3.99999997 22.429,6.25299998 21.918,8.82199999 C21.5554286,10.6435357 19.8947908,11.9071632 18.0497113,11.995099 L17.844,12 L17.434,12 L17.133,16.137 L17.133,16.137 C17.06175,17.1345 16.270305,17.9181075 15.2885228,17.9939745 L15.132,18 L6.36799998,18 C5.36859997,18 4.52984497,17.2662675 4.38330747,16.2926505 L4.36599997,16.137 L3.49999996,4.00699997 L3.50199996,4.00199997 L3.50699996,3.99999997 L18,3.99999997 Z M17.981,5.99999998 L17.857,5.99999998 L17.571,9.99999998 L17.892,9.99999998 C18.769,9.99999998 19.616,9.48399999 19.879,8.64799999 C20.2984643,7.31728569 19.366861,6.09071426 18.1207037,6.00479936 L17.981,5.99999998 Z"/>
  </g>
</svg>
