<svg xmlns="http://www.w3.org/2000/svg" width="24" height="24" viewBox="0 0 24 24">
  <g fill="none" fill-rule="evenodd">
    <rect width="24" height="24"/>
    <path fill="#0F1621" fill-opacity=".95" d="M20,1.99999996 L20,22 L17,22 L17,14 L15,14 L15,8.99999996 C15,3.99999996 20,1.99999996 20,1.99999996 Z M4.99999996,1.99999996 L4.99999996,6.99999996 L6.49999996,6.99999996 L6.49999996,1.99999996 L8.49999996,1.99999996 L8.49999996,6.99999996 L9.99999996,6.99999996 L9.99999996,1.99999996 L12,1.99999996 L11.997,7.33099998 C11.997,8.05974998 11.7314722,8.75993054 11.2551047,9.30444964 L11.12,9.44899999 L9.30599999,11 C9.13371427,11.1662857 9.02755101,11.3869388 9.00451309,11.6222857 L8.99999996,11.741 L8.99999996,22 L5.99999996,22 L5.99899997,11.736 C6.00414283,11.4985714 5.92479589,11.2692245 5.77796207,11.0870029 L5.69899997,11 L3.82099997,9.36699999 C3.34190905,8.86063635 3.05538013,8.20551238 3.00724339,7.5143253 L2.99999996,7.30599998 L2.99999996,1.99999996 L4.99999996,1.99999996 Z"/>
  </g>
</svg>
