<svg xmlns="http://www.w3.org/2000/svg" width="24" height="24" viewBox="0 0 24 24">
  <g fill="none" fill-rule="evenodd">
    <rect width="24" height="24"/>
    <path fill="#0F1621" fill-opacity=".95" d="M20.103,1.99999996 L20.5,3.49999996 L17.5,4.49999996 L17.5,5.99999996 L22,5.99999996 L21,22 L16.149,22 C16.368,21.544 16.5,21.039 16.5,20.5 L16.5,17.737 C16.814,17.249 17,16.654 17,16 C17,15.346 16.814,14.751 16.5,14.263 L16.5,12 C16.5,9.24299999 14.257,6.99999996 11.5,6.99999996 L11.094,6.99999996 L11,5.99999996 L15.5,5.99999996 L15.5,3.98499997 C15.5,3.62799997 15.752,3.31999996 16.103,3.24999996 L20.103,1.99999996 Z M14.5,19 L14.5,20.5 C14.5,21.2792942 13.9047336,21.9204014 13.1443932,21.9931293 L13,22 L3.99999996,22 C3.20761107,22 2.55972218,21.3854291 2.50365891,20.6103521 L2.49999996,20.472 L2.50999996,19 L14.5,19 Z M14.25,15 C14.664,15 15,15.448 15,16 C15,16.5095385 14.7137041,16.9304616 14.3440364,16.9922039 L14.25,17 L2.74999996,17 C2.33599996,17 1.99999996,16.552 1.99999996,16 C1.99999996,15.4904616 2.28629582,15.0695385 2.65596355,15.0077961 L2.74999996,15 L14.25,15 Z M11.5,8.99999999 C13.0998621,8.99999999 14.4070059,10.718088 14.4952514,12.3280059 L14.5,12.5 L14.5,13 L2.49999996,13 L2.49999996,12.5 C2.49999996,10.9001379 3.75197618,9.12688227 5.32974845,9.00649111 L5.49999996,8.99999999 L11.5,8.99999999 Z"/>
  </g>
</svg>
