<svg width="16" height="80" viewBox="0 0 16 80" fill="none" xmlns="http://www.w3.org/2000/svg">
<path fill-rule="evenodd" clip-rule="evenodd" d="M7.99805 8C11.3127 8 13.9996 10.6884 13.9971 14.0029L13.9531 65.9014C13.9503 69.2737 11.1597 71.9759 7.78906 71.8701C4.56311 71.7686 2.00007 69.124 2 65.8965V13.998C2.00015 10.6855 4.68548 8.00016 7.99805 8ZM6 65.8965C6.00007 66.9637 6.84737 67.8383 7.91406 67.8721C8.90929 67.9034 9.74994 67.1941 9.91992 66.248L6 62.3281V65.8965ZM6 56.6709L9.95703 60.6279L9.95996 55.7881L6 51.8281V56.6709ZM6 46.1719L9.96484 50.1367L9.96973 44.7979L6 40.8281V46.1719ZM6 35.1719L9.97461 39.1465L9.98047 33.3086L6 29.3281V35.1719ZM6 23.6719L9.98535 27.6572L9.98926 22.8174L6 18.8281V23.6719ZM7.99805 12C7.14054 12.0001 6.41138 12.5411 6.12793 13.2998L9.99414 17.166L9.99707 14C9.998 12.8957 9.10235 12 7.99805 12Z" fill="black"/>
</svg>
