<svg width="16" height="80" viewBox="0 0 16 80" fill="none" xmlns="http://www.w3.org/2000/svg">
<path d="M14.1211 50.9941L8.56055 56.5547L6.43945 54.4336L8.39941 52.4727L7.54883 52.4678C6.16647 52.4596 5.03907 53.5747 5.0332 54.957L5 63L2 62.9883L2.0332 54.9443C2.04609 51.9032 4.5252 49.4497 7.56641 49.4678L8.35644 49.4717L6.43945 47.5547L8.56055 45.4336L14.1211 50.9941Z" fill="black"/>
<path d="M1.8801 29L7.44064 23.4395L9.56174 25.5606L7.60177 27.5215L8.45236 27.5264C9.83472 27.5346 10.9621 26.4195 10.968 25.0371L11.0012 16.9942L14.0012 17.0059L13.968 25.0498C13.9551 28.091 11.476 30.5445 8.43478 30.5264L7.64474 30.5225L9.56173 32.4395L7.44064 34.5606L1.8801 29Z" fill="black"/>
</svg>
