<svg width="16" height="16" viewBox="0 0 16 16" fill="none" xmlns="http://www.w3.org/2000/svg">
<path d="M15 15H12L15 13V15ZM3 15L1 14V15H3ZM14.5 10.5L12.8 11.3L10.6 14.4C10.2 14.8 9.7 15 9.2 15H5.1C4.6 15 4 14.8 3.7 14.4L1.6 12.2C0.8 11.4 0.8 10.2 1.6 9.4L3 8H6L8 6V3L9.4 1.6C10.2 0.8 11.4 0.8 12.2 1.6L14.3 3.7C14.7 4.1 14.9 4.6 14.9 5.1V9.6C15 10 14.8 10.4 14.5 10.5ZM5 11C5 10.4 4.6 10 4 10C3.4 10 3 10.4 3 11C3 11.6 3.4 12 4 12C4.6 12 5 11.6 5 11ZM10 4C10 4.6 10.4 5 11 5C11.6 5 12 4.6 12 4C12 3.4 11.6 3 11 3C10.4 3 10 3.4 10 4ZM13 6.4L6.4 13H9.2L11.1 10.1L13 9.2V6.4Z" fill="black"/>
</svg>
