<svg xmlns="http://www.w3.org/2000/svg" viewBox="0 0 24 24"><defs><style>.cls-1{fill:none;}</style></defs><g id="Layer_2" data-name="Layer 2"><g id="UI_Outline" data-name="UI Outline"><g id="airplane"><rect class="cls-1" width="24" height="24"/><path d="M6.47,5.57l2.4.76-.76.81L6.47,5.57M5,3,3,5l5.18,5,4.32-4.6L5,3Zm15.41.87a6.86,6.86,0,0,1-.85,2.74l-2,2.06-.75.77.24,1.06,1.41,6.3-2.83-4-1.19-1.67L12.8,12.4l-4,3-.07,0,0-.15-.15,0c3.2-3.6,8.16-9.16,8.86-9.86a10,10,0,0,1,3-1.54m.73-2.14A10.25,10.25,0,0,0,16,4C15,5,7,14,7,14l-3.59.59L2,16l5,1,1,5,1.41-1.41L10,17l4-3,5,7,2-2-2-8.94L21,8c1-1,2-5,1-6a1.19,1.19,0,0,0-.86-.27Z"/></g></g></g></svg>