<svg width="16" height="16" viewBox="0 0 16 16" fill="none" xmlns="http://www.w3.org/2000/svg">
<path d="M7.00002 5.00001V9.00001H9.00002V5.00001H7.00002ZM7.00002 11V13H9.00002V11H7.00002ZM9.25002 1.77001L14.85 13C14.9507 13.2123 14.9964 13.4464 14.9828 13.681C14.9692 13.9155 14.8969 14.1429 14.7723 14.3421C14.6478 14.5413 14.4752 14.706 14.2703 14.821C14.0654 14.9359 13.8349 14.9975 13.6 15H2.40002C2.1651 14.9975 1.93459 14.9359 1.72972 14.821C1.52485 14.706 1.35221 14.5413 1.2277 14.3421C1.10318 14.1429 1.03081 13.9155 1.01723 13.681C1.00366 13.4464 1.04932 13.2123 1.15002 13L6.75002 1.80001C6.86393 1.56718 7.04024 1.37055 7.25931 1.23201C7.47838 1.09347 7.7316 1.01847 7.99078 1.01536C8.24996 1.01225 8.50492 1.08115 8.72725 1.21439C8.94958 1.34763 9.13056 1.53998 9.25002 1.77001Z" fill="#0F1621"/>
</svg>
