<svg width="24" height="24" viewBox="0 0 24 24" fill="none" xmlns="http://www.w3.org/2000/svg">
<path d="M18.83 8H22V6H18.83C18.0346 6.0007 17.2721 6.31723 16.71 6.88L13.88 9.71C13.3172 10.2721 13.0007 11.0346 13 11.83V14H11V9C11 8.46957 10.7893 7.96086 10.4142 7.58579C10.0391 7.21071 9.53043 7 9 7H4C3.46957 7 2.96086 7.21071 2.58579 7.58579C2.21071 7.96086 2 8.46957 2 9V17H3.18C3.3902 17.5792 3.77363 18.0795 4.27817 18.4332C4.7827 18.7868 5.38388 18.9765 6 18.9765C6.61612 18.9765 7.2173 18.7868 7.72183 18.4332C8.22637 18.0795 8.6098 17.5792 8.82 17H15.18C15.3902 17.5792 15.7736 18.0795 16.2782 18.4332C16.7827 18.7868 17.3839 18.9765 18 18.9765C18.6161 18.9765 19.2173 18.7868 19.7218 18.4332C20.2264 18.0795 20.6098 17.5792 20.82 17H22V11H15.41L18.12 8.29C18.2134 8.19732 18.3243 8.12399 18.4461 8.07423C18.5679 8.02446 18.6984 7.99924 18.83 8ZM6 17C5.80222 17 5.60888 16.9414 5.44443 16.8315C5.27998 16.7216 5.15181 16.5654 5.07612 16.3827C5.00043 16.2 4.98063 15.9989 5.01921 15.8049C5.0578 15.6109 5.15304 15.4327 5.29289 15.2929C5.43275 15.153 5.61093 15.0578 5.80491 15.0192C5.99889 14.9806 6.19996 15.0004 6.38268 15.0761C6.56541 15.1518 6.72159 15.28 6.83147 15.4444C6.94135 15.6089 7 15.8022 7 16C7 16.2652 6.89464 16.5196 6.70711 16.7071C6.51957 16.8946 6.26522 17 6 17ZM18 15C18.1978 15 18.3911 15.0586 18.5556 15.1685C18.72 15.2784 18.8482 15.4346 18.9239 15.6173C18.9996 15.8 19.0194 16.0011 18.9808 16.1951C18.9422 16.3891 18.847 16.5673 18.7071 16.7071C18.5673 16.847 18.3891 16.9422 18.1951 16.9808C18.0011 17.0194 17.8 16.9996 17.6173 16.9239C17.4346 16.8482 17.2784 16.72 17.1685 16.5556C17.0586 16.3911 17 16.1978 17 16C17 15.7348 17.1054 15.4804 17.2929 15.2929C17.4804 15.1054 17.7348 15 18 15Z" fill="#0F1621"/>
</svg>
