<svg width="16" height="16" viewBox="0 0 16 16" fill="none" xmlns="http://www.w3.org/2000/svg">
<path d="M14.24 5H15V3H14.24C13.7146 2.99959 13.1942 3.1027 12.7086 3.30346C12.223 3.50421 11.7818 3.79866 11.41 4.17L9.88 5.71C9.31723 6.27207 9.0007 7.03462 9 7.83V9H8V6C8 5.46957 7.78929 4.96086 7.41421 4.58579C7.03914 4.21071 6.53043 4 6 4H3C2.46957 4 1.96086 4.21071 1.58579 4.58579C1.21071 4.96086 1 5.46957 1 6V11H2C2 11.663 2.26339 12.2989 2.73223 12.7678C3.20107 13.2366 3.83696 13.5 4.5 13.5C5.16304 13.5 5.79893 13.2366 6.26777 12.7678C6.73661 12.2989 7 11.663 7 11H10.1C10.2596 11.5664 10.6138 12.0584 11.1004 12.3893C11.587 12.7202 12.1747 12.8689 12.7601 12.8092C13.3455 12.7495 13.8911 12.4851 14.3008 12.0627C14.7105 11.6403 14.9581 11.087 15 10.5V7H11.41L12.83 5.59C13.2034 5.21441 13.7104 5.00223 14.24 5ZM4.5 11.5C4.30222 11.5 4.10888 11.4414 3.94443 11.3315C3.77998 11.2216 3.65181 11.0654 3.57612 10.8827C3.50043 10.7 3.48063 10.4989 3.51921 10.3049C3.5578 10.1109 3.65304 9.93275 3.79289 9.79289C3.93275 9.65304 4.11093 9.5578 4.30491 9.51922C4.49889 9.48063 4.69996 9.50043 4.88268 9.57612C5.06541 9.65181 5.22159 9.77998 5.33147 9.94443C5.44135 10.1089 5.5 10.3022 5.5 10.5C5.5 10.7652 5.39464 11.0196 5.20711 11.2071C5.01957 11.3946 4.76522 11.5 4.5 11.5ZM12.5 9.5C12.6978 9.5 12.8911 9.55865 13.0556 9.66853C13.22 9.77841 13.3482 9.93459 13.4239 10.1173C13.4996 10.3 13.5194 10.5011 13.4808 10.6951C13.4422 10.8891 13.347 11.0673 13.2071 11.2071C13.0673 11.347 12.8891 11.4422 12.6951 11.4808C12.5011 11.5194 12.3 11.4996 12.1173 11.4239C11.9346 11.3482 11.7784 11.22 11.6685 11.0556C11.5586 10.8911 11.5 10.6978 11.5 10.5C11.5 10.2348 11.6054 9.98043 11.7929 9.79289C11.9804 9.60536 12.2348 9.5 12.5 9.5V9.5Z" fill="#0F1621"/>
</svg>
