<svg width="16" height="16" viewBox="0 0 16 16" fill="none" xmlns="http://www.w3.org/2000/svg">
<path d="M14.24 6H15V4H14.24C13.1801 4.00565 12.1645 4.42555 11.41 5.17L9.88002 6.71C9.31725 7.27207 9.00072 8.03462 9.00002 8.83V10H8.00002V4C8.00002 3.46957 7.7893 2.96086 7.41423 2.58579C7.03916 2.21071 6.53045 2 6.00002 2H1.00002V4H2.00002V6H1.00002V11.5C0.967187 11.8283 0.999343 12.1599 1.09465 12.4757C1.18995 12.7916 1.34654 13.0856 1.55547 13.341C1.97743 13.8567 2.58698 14.1837 3.25002 14.25C3.91306 14.3163 4.57528 14.1165 5.09101 13.6945C5.60673 13.2726 5.93371 12.663 6.00002 12H10.1C10.2596 12.5664 10.6138 13.0584 11.1004 13.3893C11.587 13.7202 12.1747 13.8689 12.7601 13.8092C13.3456 13.7495 13.8911 13.4851 14.3008 13.0627C14.7106 12.6403 14.9581 12.087 15 11.5V8H11.41L12.83 6.59C13.2034 6.21441 13.7104 6.00223 14.24 6ZM3.50002 12.5C3.30224 12.5 3.1089 12.4414 2.94445 12.3315C2.78 12.2216 2.65183 12.0654 2.57614 11.8827C2.50045 11.7 2.48065 11.4989 2.51923 11.3049C2.55782 11.1109 2.65306 10.9327 2.79291 10.7929C2.93276 10.653 3.11095 10.5578 3.30493 10.5192C3.49891 10.4806 3.69998 10.5004 3.8827 10.5761C4.06543 10.6518 4.22161 10.78 4.33149 10.9444C4.44137 11.1089 4.50002 11.3022 4.50002 11.5C4.50002 11.7652 4.39466 12.0196 4.20712 12.2071C4.01959 12.3946 3.76523 12.5 3.50002 12.5ZM6.00002 6H4.00002V4H6.00002V6ZM12.5 10.5C12.6978 10.5 12.8911 10.5586 13.0556 10.6685C13.22 10.7784 13.3482 10.9346 13.4239 11.1173C13.4996 11.3 13.5194 11.5011 13.4808 11.6951C13.4422 11.8891 13.347 12.0673 13.2071 12.2071C13.0673 12.347 12.8891 12.4422 12.6951 12.4808C12.5011 12.5194 12.3001 12.4996 12.1173 12.4239C11.9346 12.3482 11.7784 12.22 11.6685 12.0556C11.5587 11.8911 11.5 11.6978 11.5 11.5C11.5 11.2348 11.6054 10.9804 11.7929 10.7929C11.9804 10.6054 12.2348 10.5 12.5 10.5V10.5Z" fill="#0F1621"/>
</svg>
