<svg xmlns="http://www.w3.org/2000/svg" width="24" height="24" viewBox="0 0 24 24"><rect width="24" height="24" style="fill:none"/><path d="M18.4,13,16.86,3H13V5h2.14l.47,3.05-5.42.77L8.58,6H5V8H7.42l.77,1.35L6.6,13.05A3.94,3.94,0,0,0,6,13a4,4,0,1,0,4,4,4,4,0,0,0-1.56-3.16l1-2.31,1.05,1.83a2,2,0,0,0,1.47,1l.27,0a2,2,0,0,0,1.41-.59l2.48-2.47.31,2a4,4,0,1,0,2-.31ZM8,17a2,2,0,1,1-2.24-2A1,1,0,0,1,6,15a2,2,0,0,1,2,2Zm4.22-4.63-1-1.68,3.07-.44ZM18,19a2,2,0,0,1-2-2,2,2,0,0,1,.75-1.55A1.92,1.92,0,0,1,18,15a2,2,0,0,1,.73.14A2,2,0,0,1,18,19ZM21,8H20a1,1,0,0,1-1-1h0a1,1,0,0,1,1-1h1Z"/></svg>