<svg xmlns="http://www.w3.org/2000/svg" width="16" height="16" viewBox="0 0 16 16"><path d="M12.45,7.92,12.22,7l-.38-2.64a1.72,1.72,0,0,0-1.71-1.48H8.38V4.32h1.75a.27.27,0,0,1,.27.24l.19,1.32H5.76L5.6,5.33H6V3.88H2V5.33H4.08L4.88,8A3,3,0,0,0,4,7.88a3.12,3.12,0,0,0,0,6.24,3.09,3.09,0,0,0,2.91-2,3.73,3.73,0,0,0,.44.14A2.2,2.2,0,0,0,9,11.89a3.12,3.12,0,1,0,3.44-4ZM4,12.67A1.67,1.67,0,1,1,5.68,11,1.68,1.68,0,0,1,4,12.67Zm6.84-5.22L8.36,10.54a.71.71,0,0,1-.72.26h0a.72.72,0,0,1-.57-.53L6.19,7.33h4.62ZM12,12.67A1.67,1.67,0,1,1,13.68,11,1.68,1.68,0,0,1,12,12.67Z"/></svg>