<svg xmlns="http://www.w3.org/2000/svg" width="16" height="16" viewBox="0 0 16 16"><rect width="16" height="16" style="fill:none"/><path d="M12.34,8l-.66-3.57A1.71,1.71,0,0,0,10,3H8.27V4.42H10a.28.28,0,0,1,.27.24L10.52,6H5.83l-.19-.65H6V4H2V5.35H4.15L4.94,8h0l0,.18A3,3,0,0,0,4,8a3,3,0,1,0,2.83,3.94,2,2,0,0,0,.46.18h.06a2.3,2.3,0,0,0,.45,0,2.09,2.09,0,0,0,1.3-.45A3,3,0,1,0,12.34,8ZM4,12.58A1.58,1.58,0,1,1,5.58,11,1.58,1.58,0,0,1,4,12.58Zm3.65-1.84h0a.72.72,0,0,1-.56-.53L6.25,7.42h4.54v0l-2.43,3A.72.72,0,0,1,7.65,10.74ZM12,12.58A1.58,1.58,0,1,1,13.58,11,1.58,1.58,0,0,1,12,12.58Z"/></svg>