<svg xmlns="http://www.w3.org/2000/svg" width="24" height="24" viewBox="0 0 24 24"><rect width="24" height="24" style="fill:none"/><path d="M17.88,11l-.61-4.5v0a3,3,0,0,0-3-2.51H12V6h2.31a1,1,0,0,1,1,.81L15.58,9H10V7H5V9H7v2H6.5a4.5,4.5,0,1,0,4.18,6.13,3.73,3.73,0,0,0,.44.14,2.69,2.69,0,0,0,.4,0,2.51,2.51,0,0,0,1.65-.63A4.49,4.49,0,1,0,17.88,11ZM6.5,18a2.5,2.5,0,1,1,2.12-3.81L9,15.1a2.58,2.58,0,0,1,0,.4A2.5,2.5,0,0,1,6.5,18Zm5.43-2.91a.48.48,0,0,1-.49.2.51.51,0,0,1-.41-.37l-.12-.31a4.44,4.44,0,0,0-.45-1.2L9.56,11h5.21ZM17.5,18A2.5,2.5,0,1,1,20,15.5,2.5,2.5,0,0,1,17.5,18Z"/></svg>