<svg width="16" height="16" viewBox="0 0 16 16" fill="none" xmlns="http://www.w3.org/2000/svg">
<path d="M13.91 4V3C13.918 2.73235 13.8722 2.46582 13.7753 2.2162C13.6784 1.96658 13.5324 1.73896 13.3459 1.54684C13.1593 1.35472 12.9361 1.20201 12.6895 1.09777C12.4428 0.993533 12.1778 0.939882 11.91 0.940003H4C3.73223 0.939882 3.46716 0.993533 3.22052 1.09777C2.97387 1.20201 2.75067 1.35472 2.56414 1.54684C2.37762 1.73896 2.23157 1.96658 2.13467 2.2162C2.03776 2.46582 1.99197 2.73235 2 3V4H1V7H2V13C2 13.5304 2.21071 14.0391 2.58579 14.4142C2.96086 14.7893 3.46957 15 4 15H6L7 13H9L10 15H12C12.5304 15 13.0391 14.7893 13.4142 14.4142C13.7893 14.0391 14 13.5304 14 13V7H15V4H13.91ZM5 13C4.80222 13 4.60888 12.9414 4.44443 12.8315C4.27998 12.7216 4.15181 12.5654 4.07612 12.3827C4.00043 12.2 3.98063 11.9989 4.01921 11.8049C4.0578 11.6109 4.15304 11.4327 4.29289 11.2929C4.43275 11.153 4.61093 11.0578 4.80491 11.0192C4.99889 10.9806 5.19996 11.0004 5.38268 11.0761C5.56541 11.1518 5.72159 11.28 5.83147 11.4444C5.94135 11.6089 6 11.8022 6 12C6 12.2652 5.89464 12.5196 5.70711 12.7071C5.51957 12.8946 5.26522 13 5 13ZM11 13C10.8022 13 10.6089 12.9414 10.4444 12.8315C10.28 12.7216 10.1518 12.5654 10.0761 12.3827C10.0004 12.2 9.98063 11.9989 10.0192 11.8049C10.0578 11.6109 10.153 11.4327 10.2929 11.2929C10.4327 11.153 10.6109 11.0578 10.8049 11.0192C10.9989 10.9806 11.2 11.0004 11.3827 11.0761C11.5654 11.1518 11.7216 11.28 11.8315 11.4444C11.9414 11.6089 12 11.8022 12 12C12 12.2652 11.8946 12.5196 11.7071 12.7071C11.5196 12.8946 11.2652 13 11 13ZM12 9H4V3H12V9Z" fill="#0F1621"/>
</svg>
