<svg width="16" height="16" viewBox="0 0 16 16" fill="none" xmlns="http://www.w3.org/2000/svg">
<path d="M15 3.23999V1.73999L1 4.25999V5.75999L7.25 4.63999V6.99999H4C3.46957 6.99999 2.96086 7.2107 2.58579 7.58578C2.21071 7.96085 2 8.46956 2 8.99999V12C2 12.7956 2.31607 13.5587 2.87868 14.1213C3.44129 14.6839 4.20435 15 5 15H11C11.7956 15 12.5587 14.6839 13.1213 14.1213C13.6839 13.5587 14 12.7956 14 12V8.99999C14 8.46956 13.7893 7.96085 13.4142 7.58578C13.0391 7.2107 12.5304 6.99999 12 6.99999H8.75V4.35999L15 3.23999ZM7 11H4V8.99999H7V11ZM9 8.99999H12V11H9V8.99999Z" fill="#0F1621"/>
</svg>
