<svg xmlns="http://www.w3.org/2000/svg" viewBox="0 0 24 24"><g id="Layer_2" data-name="Layer 2"><g id="UI_Outline" data-name="UI Outline"><g id="directions"><rect width="24" height="24" style="fill:none"/><path d="M7,4.92,9.17,8H8v8a7.41,7.41,0,0,1,2.68-1.6A6.19,6.19,0,0,1,13,14h3V12.83L19.08,15,16,17.17V16H13a5,5,0,0,0-4.9,4H6V8H4.83L7,4.92M7,2a.78.78,0,0,0-.65.37L2.22,8.23A1.18,1.18,0,0,0,2,8.92,1,1,0,0,0,2.86,10H4V22h6V21a3,3,0,0,1,3-3h1v1.14a1,1,0,0,0,1.08.86,1.18,1.18,0,0,0,.69-.22l5.86-4.13a.76.76,0,0,0,0-1.3l-5.86-4.13a1.18,1.18,0,0,0-.69-.22,1,1,0,0,0-1.08.86V12H13a8.8,8.8,0,0,0-3,.52V10h1.14A1,1,0,0,0,12,8.92a1.18,1.18,0,0,0-.22-.69L7.65,2.37A.78.78,0,0,0,7,2Z"/></g></g></g></svg>