<svg width="16" height="16" viewBox="0 0 16 16" fill="none" xmlns="http://www.w3.org/2000/svg">
<path d="M14.5701 11.32L10.5701 13.82C10.4202 13.924 10.2447 13.985 10.0626 13.9964C9.88054 14.0078 9.69882 13.9692 9.53711 13.8848C9.37541 13.8003 9.23989 13.6732 9.14523 13.5173C9.05056 13.3613 9.00037 13.1824 9.00007 13V12H8.50007C7.83702 12 7.20114 12.2634 6.7323 12.7323C6.26346 13.2011 6.00007 13.837 6.00007 14.5V15H3.00007V7.00002H2.00007C1.81763 6.99972 1.63876 6.94952 1.48281 6.85486C1.32686 6.76019 1.19978 6.62467 1.11533 6.46297C1.03087 6.30127 0.992256 6.11954 1.00367 5.93747C1.01508 5.75539 1.07608 5.57991 1.18007 5.43002L3.68007 1.43002C3.77222 1.29799 3.8949 1.19016 4.03766 1.11571C4.18042 1.04126 4.33905 1.00238 4.50007 1.00238C4.66108 1.00238 4.81971 1.04126 4.96247 1.11571C5.10523 1.19016 5.22791 1.29799 5.32007 1.43002L7.82007 5.43002C7.92405 5.57991 7.98505 5.75539 7.99646 5.93747C8.00787 6.11954 7.96926 6.30127 7.88481 6.46297C7.80035 6.62467 7.67327 6.76019 7.51732 6.85486C7.36137 6.94952 7.1825 6.99972 7.00007 7.00002H6.00007V9.61002C6.77207 9.20819 7.62975 8.99892 8.50007 9.00002H9.00007V8.00002C9.00037 7.81759 9.05056 7.63871 9.14523 7.48276C9.23989 7.32682 9.37541 7.19973 9.53711 7.11528C9.69882 7.03082 9.88054 6.99221 10.0626 7.00362C10.2447 7.01503 10.4202 7.07603 10.5701 7.18002L14.5701 9.68002C14.7021 9.77217 14.8099 9.89485 14.8844 10.0376C14.9588 10.1804 14.9977 10.339 14.9977 10.5C14.9977 10.661 14.9588 10.8197 14.8844 10.9624C14.8099 11.1052 14.7021 11.2279 14.5701 11.32Z" fill="#0F1621"/>
</svg>
