<svg width="24" height="24" viewBox="0 0 24 24" fill="none" xmlns="http://www.w3.org/2000/svg">
<path d="M7.00009 4.92L9.17009 8H8.00009V16C8.76969 15.2824 9.68329 14.737 10.6801 14.4C11.4207 14.1195 12.2083 13.9837 13.0001 14H16.0001V12.83L19.0801 15L16.0001 17.17V16H13.0001C11.8474 15.9998 10.7301 16.3978 9.83719 17.1267C8.94427 17.8556 8.33062 18.8706 8.10009 20H6.00009V8H4.83009L7.00009 4.92ZM7.00009 2C6.86942 2.00228 6.74143 2.03736 6.62785 2.10201C6.51428 2.16666 6.41876 2.25881 6.35009 2.37L2.22009 8.23C2.07624 8.43125 1.99929 8.67263 2.00009 8.92C1.97714 9.17605 2.05367 9.43111 2.21382 9.63222C2.37396 9.83333 2.6054 9.96504 2.86009 10H4.00009V22H10.0001V21C10.0001 20.2044 10.3162 19.4413 10.8788 18.8787C11.4414 18.3161 12.2044 18 13.0001 18H14.0001V19.14C14.0351 19.3947 14.1668 19.6261 14.3679 19.7863C14.569 19.9464 14.824 20.023 15.0801 20C15.3275 20.0008 15.5688 19.9238 15.7701 19.78L21.6301 15.65C21.7419 15.5823 21.8343 15.4869 21.8984 15.373C21.9626 15.2592 21.9963 15.1307 21.9963 15C21.9963 14.8693 21.9626 14.7408 21.8984 14.627C21.8343 14.5131 21.7419 14.4177 21.6301 14.35L15.7701 10.22C15.5688 10.0762 15.3275 9.99919 15.0801 10C14.824 9.97705 14.569 10.0536 14.3679 10.2137C14.1668 10.3739 14.0351 10.6053 14.0001 10.86V12H13.0001C11.9775 11.9977 10.9623 12.1737 10.0001 12.52V10H11.1401C11.3948 9.96504 11.6262 9.83333 11.7864 9.63222C11.9465 9.43111 12.023 9.17605 12.0001 8.92C12.0009 8.67263 11.9239 8.43125 11.7801 8.23L7.65009 2.37C7.58142 2.25881 7.48591 2.16666 7.37233 2.10201C7.25876 2.03736 7.13076 2.00228 7.00009 2Z" fill="#0F1621"/>
</svg>
