<svg xmlns="http://www.w3.org/2000/svg" viewBox="0 0 16 16"><defs><style>.cls-1{fill:none;}</style></defs><g id="Layer_2" data-name="Layer 2"><g id="UI_System_16" data-name="UI System 16"><g id="driving"><rect class="cls-1" width="16" height="16"/><path d="M14.6,7.47l-2-2.67A2,2,0,0,0,11,4H5a2,2,0,0,0-1.6.8l-2,2.67A2,2,0,0,0,1,8.67V12a1,1,0,0,0,1,1H4a1,1,0,0,0,1-1V11h6v1a1,1,0,0,0,1,1h2a1,1,0,0,0,1-1V8.67A2,2,0,0,0,14.6,7.47ZM3.5,8,4.7,6.4A1,1,0,0,1,5.5,6h5a1,1,0,0,1,.8.4L12.5,8Z"/></g></g></g></svg>