<svg xmlns="http://www.w3.org/2000/svg" viewBox="0 0 24 24"><defs><style>.cls-1{fill:none;}</style></defs><g id="Layer_2" data-name="Layer 2"><g id="UI_Solid" data-name="UI Solid"><g id="driving"><rect class="cls-1" width="24" height="24"/><path d="M22,8H19.45l-.86-1.18A2,2,0,0,0,16.93,6H7.07a2,2,0,0,0-1.66.82L4.55,8H2v2H3.1l-.77,1.06a1.64,1.64,0,0,0-.33,1V17a2,2,0,0,0,2,2H7a1,1,0,0,0,1-1V17h8v1a1,1,0,0,0,1,1h3a2,2,0,0,0,2-2V12.06a1.64,1.64,0,0,0-.33-1L20.9,10H22ZM8,15H4V13H8ZM5,11,6.7,8.45A1,1,0,0,1,7.54,8h8.92a1,1,0,0,1,.84.45L19,11H5Zm15,4H16V13h4Z"/></g></g></g></svg>