<svg width="16" height="16" viewBox="0 0 16 16" fill="none" xmlns="http://www.w3.org/2000/svg">
<path d="M14.6 7.47L12.6 4.8C12.4137 4.55161 12.1721 4.35 11.8944 4.21115C11.6167 4.07229 11.3105 4 11 4H5C4.68951 4 4.38328 4.07229 4.10557 4.21115C3.82786 4.35 3.58629 4.55161 3.4 4.8L1.4 7.47C1.14036 7.81619 1 8.23726 1 8.67V12C1 12.2652 1.10536 12.5196 1.29289 12.7071C1.48043 12.8946 1.73478 13 2 13H4C4.26522 13 4.51957 12.8946 4.70711 12.7071C4.89464 12.5196 5 12.2652 5 12V11H11V12C11 12.2652 11.1054 12.5196 11.2929 12.7071C11.4804 12.8946 11.7348 13 12 13H14C14.2652 13 14.5196 12.8946 14.7071 12.7071C14.8946 12.5196 15 12.2652 15 12V8.67C15 8.23726 14.8596 7.81619 14.6 7.47ZM3.5 8L4.7 6.4C4.79315 6.2758 4.91393 6.175 5.05279 6.10557C5.19164 6.03614 5.34475 6 5.5 6H10.5C10.6552 6 10.8084 6.03614 10.9472 6.10557C11.0861 6.175 11.2069 6.2758 11.3 6.4L12.5 8H3.5Z" fill="#0F1621"/>
</svg>
