<svg xmlns="http://www.w3.org/2000/svg" viewBox="0 0 24 24"><g id="Layer_2" data-name="Layer 2"><g id="UI_Outline" data-name="UI Outline"><g id="dynamic-routing"><rect width="24" height="24" transform="translate(0 24) rotate(-90)" style="fill:none"/><path d="M3.4,7.4,2,6,6,2l4,4L8.6,7.4,6,4.79ZM18,4.79,20.6,7.4,22,6,18,2,14,6l1.4,1.4Zm-1,6.38a1,1,0,0,1-.29.71L12,16.59,11.41,16,10,17.41l.71.71a1,1,0,0,1,.29.71V22h2V18.83a1,1,0,0,1,.29-.71l4.83-4.83A3,3,0,0,0,19,11.17V8L18,7,17,8ZM7,8,6,7,5,8V9H7Zm0,3.17V11H5v.17a3,3,0,0,0,.79,2L7.2,11.78A1,1,0,0,1,7,11.17Zm1.61,2L7.2,14.61,8.62,16,10,14.62Z" style="fill-rule:evenodd"/></g></g></g></svg>