<svg width="16" height="16" viewBox="0 0 16 16" fill="none" xmlns="http://www.w3.org/2000/svg">
<path d="M13 4V7.35L8 5.92L3 7.35V4C3 3.73478 3.10536 3.48043 3.29289 3.29289C3.48043 3.10536 3.73478 3 4 3H9V1H11V3H12C12.2652 3 12.5196 3.10536 12.7071 3.29289C12.8946 3.48043 13 3.73478 13 4ZM8 8L1 10L3 15C3.07525 14.4072 3.37827 13.8669 3.84489 13.4936C4.31152 13.1203 4.90512 12.9433 5.5 13C6.09488 12.9433 6.68848 13.1203 7.15511 13.4936C7.62173 13.8669 7.92475 14.4072 8 15C8.07525 14.4072 8.37827 13.8669 8.84489 13.4936C9.31152 13.1203 9.90512 12.9433 10.5 13C11.0949 12.9433 11.6885 13.1203 12.1551 13.4936C12.6217 13.8669 12.9248 14.4072 13 15L15 10L8 8Z" fill="#0F1621"/>
</svg>
