<svg width="16" height="16" viewBox="0 0 16 16" fill="none" xmlns="http://www.w3.org/2000/svg">
<path d="M4 3H8.76L5 6.79L3 7.35V4C3 3.73478 3.10536 3.48043 3.29289 3.29289C3.48043 3.10536 3.73478 3 4 3ZM9 2.76L10.76 1H9V2.76ZM11.3 8.94L6.9 13.34C7.21626 13.4915 7.48555 13.7258 7.67924 14.0181C7.87294 14.3104 7.98379 14.6497 8 15C8.07525 14.4072 8.37827 13.8669 8.84489 13.4936C9.31152 13.1203 9.90512 12.9433 10.5 13C11.0949 12.9433 11.6885 13.1203 12.1551 13.4936C12.6217 13.8669 12.9248 14.4072 13 15L15 10L11.3 8.94ZM15 2.41L13.59 1L1 13.59L2.41 15L15 2.41Z" fill="#0F1621"/>
</svg>
