<svg width="16" height="16" viewBox="0 0 16 16" fill="none" xmlns="http://www.w3.org/2000/svg">
<path d="M8 1C6.93914 1 5.92172 1.42143 5.17157 2.17157C4.42143 2.92172 4 3.93913 4 5C4.00184 6.11099 4.41918 7.18111 5.17 8L8 11L10.83 8C11.5808 7.18111 11.9982 6.11099 12 5C12 3.93913 11.5786 2.92172 10.8284 2.17157C10.0783 1.42143 9.06087 1 8 1ZM8 6C7.80222 6 7.60888 5.94135 7.44443 5.83147C7.27998 5.72159 7.15181 5.56541 7.07612 5.38268C7.00043 5.19996 6.98063 4.99889 7.01922 4.80491C7.0578 4.61093 7.15304 4.43275 7.29289 4.29289C7.43275 4.15304 7.61093 4.0578 7.80491 4.01921C7.99889 3.98063 8.19996 4.00043 8.38269 4.07612C8.56541 4.15181 8.72159 4.27998 8.83147 4.44443C8.94135 4.60888 9 4.80222 9 5C9 5.26522 8.89464 5.51957 8.70711 5.70711C8.51957 5.89464 8.26522 6 8 6ZM14.53 5.47L12.91 7.09C12.9702 7.38959 13.0003 7.69443 13 8C13 9.32608 12.4732 10.5979 11.5355 11.5355C10.5979 12.4732 9.32608 13 8 13C6.67392 13 5.40215 12.4732 4.46447 11.5355C3.52679 10.5979 3 9.32608 3 8C2.9997 7.69443 3.02985 7.38959 3.09 7.09L1.47 5.47C1.06046 6.53052 0.915371 7.67482 1.04729 8.80399C1.17921 9.93316 1.58416 11.0132 2.22713 11.9508C2.87011 12.8883 3.73175 13.6552 4.73758 14.185C5.74341 14.7148 6.86315 14.9917 8 14.9917C9.13685 14.9917 10.2566 14.7148 11.2624 14.185C12.2683 13.6552 13.1299 12.8883 13.7729 11.9508C14.4158 11.0132 14.8208 9.93316 14.9527 8.80399C15.0846 7.67482 14.9395 6.53052 14.53 5.47Z" fill="#0F1621"/>
</svg>
