<svg width="24" height="24" viewBox="0 0 24 24" fill="none" xmlns="http://www.w3.org/2000/svg">
<path d="M12 2C10.4635 2.00265 8.9908 2.61489 7.90525 3.70231C6.8197 4.78974 6.21 6.26348 6.21001 7.8C6.21362 8.54621 6.36581 9.28422 6.65768 9.97099C6.94956 10.6578 7.37528 11.2795 7.91001 11.8L12 16L16.09 11.83C16.6247 11.3095 17.0505 10.6878 17.3423 10.001C17.6342 9.31422 17.7864 8.57621 17.79 7.83C17.794 7.06665 17.6472 6.31004 17.3581 5.60353C17.069 4.89703 16.6433 4.25454 16.1054 3.71291C15.5675 3.17128 14.9279 2.74117 14.2234 2.44723C13.519 2.15329 12.7634 2.00131 12 2ZM12 9.5C11.7033 9.5 11.4133 9.41203 11.1667 9.2472C10.92 9.08238 10.7277 8.84811 10.6142 8.57403C10.5007 8.29994 10.471 7.99834 10.5288 7.70736C10.5867 7.41639 10.7296 7.14912 10.9393 6.93934C11.1491 6.72956 11.4164 6.5867 11.7074 6.52882C11.9983 6.47094 12.2999 6.50065 12.574 6.61418C12.8481 6.72771 13.0824 6.91997 13.2472 7.16664C13.412 7.41332 13.5 7.70333 13.5 8C13.5 8.39782 13.342 8.77936 13.0607 9.06066C12.7794 9.34196 12.3978 9.5 12 9.5ZM21.11 7.89L19.56 9.44C19.9771 10.6452 20.1001 11.9327 19.9186 13.1951C19.7371 14.4574 19.2564 15.6581 18.5166 16.697C17.7768 17.7359 16.7994 18.5828 15.6658 19.1672C14.5322 19.7516 13.2754 20.0566 12 20.0566C10.7246 20.0566 9.46777 19.7516 8.33419 19.1672C7.20061 18.5828 6.22317 17.7359 5.48339 16.697C4.74361 15.6581 4.26293 14.4574 4.08143 13.1951C3.89993 11.9327 4.02288 10.6452 4.44001 9.44L2.89001 7.89C2.30184 9.18026 1.9983 10.582 2.00001 12C2.00001 14.6522 3.05358 17.1957 4.92894 19.0711C6.8043 20.9464 9.34784 22 12 22C14.6522 22 17.1957 20.9464 19.0711 19.0711C20.9464 17.1957 22 14.6522 22 12C22.0017 10.582 21.6982 9.18026 21.11 7.89Z" fill="#0F1621"/>
</svg>
