<svg xmlns="http://www.w3.org/2000/svg" viewBox="0 0 24 24"><defs><style>.cls-1{fill:none;}</style></defs><g id="Layer_2" data-name="Layer 2"><g id="UI_Outline" data-name="UI Outline"><g id="geofence"><rect class="cls-1" width="24" height="24"/><path d="M12,4a3.8,3.8,0,0,1,3.79,3.8,3.64,3.64,0,0,1-1.12,2.63L12,13.14,9.32,10.41A3.59,3.59,0,0,1,8.21,7.8,3.8,3.8,0,0,1,12,4m0-2A5.8,5.8,0,0,0,6.21,7.8a5.62,5.62,0,0,0,1.7,4L12,16l4.09-4.17a5.62,5.62,0,0,0,1.7-4A5.8,5.8,0,0,0,12,2Zm0,7.5A1.5,1.5,0,1,1,13.5,8,1.5,1.5,0,0,1,12,9.5Zm9.11-1.61L19.56,9.44a8,8,0,1,1-15.12,0L2.89,7.89A9.88,9.88,0,0,0,2,12a10,10,0,0,0,20,0A9.88,9.88,0,0,0,21.11,7.89Z"/></g></g></g></svg>