<svg width="24" height="24" viewBox="0 0 24 24" fill="none" xmlns="http://www.w3.org/2000/svg">
<path d="M22 16L2.00004 22V20L22 14V16ZM22 4.00003V12L2.00004 18V9.00003C1.979 8.54115 2.10688 8.08778 2.36459 7.70752C2.6223 7.32726 2.99603 7.04051 3.43004 6.89003L19.43 2.09003C19.7279 2.00146 20.0424 1.98352 20.3484 2.03765C20.6544 2.09177 20.9436 2.21647 21.193 2.40185C21.4425 2.58723 21.6453 2.82818 21.7854 3.1056C21.9254 3.38301 21.9989 3.68925 22 4.00003ZM11 6.70003L4.00004 8.80003V11.8L11 9.70003V6.70003ZM20 4.00003L13 6.10003V9.10003L20 7.00003V4.00003Z" fill="#0F1621"/>
</svg>
