<svg xmlns="http://www.w3.org/2000/svg" width="24" height="24" viewBox="0 0 24 24"><rect width="24" height="24" style="fill:none"/><path d="M5,22a3,3,0,1,1,3-3A3,3,0,0,1,5,22Zm14-4a1,1,0,1,0,1,1,1,1,0,0,0-1-1m0-2a3,3,0,1,1-3,3,3,3,0,0,1,3-3ZM6,12H4v2H6Zm0-2a6.17,6.17,0,0,1,.37-2.09L4.5,7.21A8,8,0,0,0,4,10Zm14,0a7.76,7.76,0,0,0-.52-2.83l-1.87.71A5.86,5.86,0,0,1,18,10ZM9.11,4.74,8.15,3A8,8,0,0,0,5.59,5.21l1.6,1.2A6.15,6.15,0,0,1,9.11,4.74Zm9.27.44A8.07,8.07,0,0,0,15.81,3l-1,1.76a6.16,6.16,0,0,1,1.93,1.66Zm-5.12-1,.41-1.95a7.91,7.91,0,0,0-3.39,0l.43,1.95A6.09,6.09,0,0,1,13.26,4.13ZM20,12H18v2h2Z"/></svg>