<svg width="24" height="24" viewBox="0 0 24 24" fill="none" xmlns="http://www.w3.org/2000/svg">
<path d="M18 22H6V20H18V22ZM16.58 6.00001H7.42L6 14V16H18V14L16.58 6.00001ZM16.58 4.00001C16.9886 3.99868 17.3879 4.12257 17.724 4.35499C18.0601 4.58741 18.317 4.91721 18.46 5.30001L20 14V16C19.9825 16.5249 19.7662 17.0235 19.3949 17.3949C19.0235 17.7662 18.5249 17.9825 18 18H6C5.46957 18 4.96086 17.7893 4.58579 17.4142C4.21071 17.0392 4 16.5304 4 16V14L5.51 5.30001C5.65302 4.91721 5.90988 4.58741 6.24599 4.35499C6.58211 4.12257 6.98135 3.99868 7.39 4.00001H16.58ZM15.58 12H8.38L8 14H16L15.58 12Z" fill="#0F1621"/>
</svg>
