<svg xmlns="http://www.w3.org/2000/svg" width="16" height="16" viewBox="0 0 16 16"><path d="M12.5,8A2.5,2.5,0,1,0,15,10.5,2.5,2.5,0,0,0,12.5,8Zm0,3.5a1,1,0,1,1,1-1A1,1,0,0,1,12.5,11.5Z"/><path d="M11.91,6.6A4,4,0,0,1,13,6.53V5a5.74,5.74,0,0,0-.92,0L11,2V2H8V3.5H9.93l.71,2A5.52,5.52,0,0,0,8.15,7.59h0a4.54,4.54,0,0,1-.42.56A3.28,3.28,0,0,0,6.94,7H7V6H2V7h.06A3.5,3.5,0,0,0,1,9.5H2.21a2.56,2.56,0,0,0-.21,1,2.5,2.5,0,0,0,5,0H7A5.52,5.52,0,0,0,9.43,8.38h0A4,4,0,0,1,11.91,6.6ZM4.5,11.5a1,1,0,1,1,1-1A1,1,0,0,1,4.5,11.5Z"/></svg>