<svg width="24" height="24" viewBox="0 0 24 24" fill="none" xmlns="http://www.w3.org/2000/svg">
<path d="M16.8199 4H12.9999V6H15.1799L15.8999 8.6L11.2799 12.29L9.53993 9H1.99993V11H2.63993C2.19287 11.9355 1.97356 12.9635 1.99993 14V16H3.99993C3.99993 17.0609 4.42136 18.0783 5.1715 18.8284C5.92165 19.5786 6.93906 20 7.99993 20C9.06079 20 10.0782 19.5786 10.8284 18.8284C11.5785 18.0783 11.9999 17.0609 11.9999 16V14.28L18.0999 9.4L16.8199 4ZM7.99993 18C7.4695 18 6.96079 17.7893 6.58572 17.4142C6.21064 17.0391 5.99993 16.5304 5.99993 16H9.99993C9.99993 16.5304 9.78922 17.0391 9.41414 17.4142C9.03907 17.7893 8.53036 18 7.99993 18ZM17.9999 12C17.2088 12 16.4354 12.2346 15.7776 12.6741C15.1199 13.1136 14.6072 13.7384 14.3044 14.4693C14.0017 15.2002 13.9224 16.0044 14.0768 16.7804C14.2311 17.5563 14.6121 18.269 15.1715 18.8284C15.7309 19.3878 16.4436 19.7688 17.2196 19.9231C17.9955 20.0775 18.7998 19.9983 19.5307 19.6955C20.2616 19.3928 20.8863 18.8801 21.3258 18.2223C21.7653 17.5645 21.9999 16.7911 21.9999 16C21.9999 14.9391 21.5785 13.9217 20.8284 13.1716C20.0782 12.4214 19.0608 12 17.9999 12ZM17.9999 18C17.6044 18 17.2177 17.8827 16.8888 17.6629C16.5599 17.4432 16.3035 17.1308 16.1522 16.7654C16.0008 16.3999 15.9612 15.9978 16.0384 15.6098C16.1155 15.2219 16.306 14.8655 16.5857 14.5858C16.8654 14.3061 17.2218 14.1156 17.6097 14.0384C17.9977 13.9613 18.3998 14.0009 18.7653 14.1522C19.1307 14.3036 19.4431 14.56 19.6629 14.8889C19.8826 15.2178 19.9999 15.6044 19.9999 16C19.9999 16.5304 19.7892 17.0391 19.4141 17.4142C19.0391 17.7893 18.5304 18 17.9999 18Z" fill="#0F1621"/>
</svg>
