<svg xmlns="http://www.w3.org/2000/svg" viewBox="0 0 24 24"><defs><style>.cls-1{fill:none;}</style></defs><g id="Layer_2" data-name="Layer 2"><g id="UI_Outline" data-name="UI Outline"><g id="rail-highspeed"><rect class="cls-1" width="24" height="24"/><path d="M18,20v2H6V20ZM12,4a7,7,0,0,0-7,7v3a2,2,0,0,0,2,2H17a2,2,0,0,0,2-2V11a7,7,0,0,0-7-7m0-2a9,9,0,0,1,9,9v3a4,4,0,0,1-4,4H7a4,4,0,0,1-4-4V11a9,9,0,0,1,9-9Zm0,8A19,19,0,0,1,7,8.82V11a18.52,18.52,0,0,0,5,1,18.52,18.52,0,0,0,5-1V8.82A19.44,19.44,0,0,1,12,10Z"/></g></g></g></svg>