<svg width="24" height="24" viewBox="0 0 24 24" fill="none" xmlns="http://www.w3.org/2000/svg">
<path d="M18 20V22H6V20H18ZM12 4C10.1435 4 8.36301 4.7375 7.05025 6.05025C5.7375 7.36301 5 9.14348 5 11V14C5 14.5304 5.21071 15.0391 5.58579 15.4142C5.96086 15.7893 6.46957 16 7 16H17C17.5304 16 18.0391 15.7893 18.4142 15.4142C18.7893 15.0391 19 14.5304 19 14V11C19 9.14348 18.2625 7.36301 16.9497 6.05025C15.637 4.7375 13.8565 4 12 4ZM12 2C14.3869 2 16.6761 2.94821 18.364 4.63604C20.0518 6.32387 21 8.61305 21 11V14C21 15.0609 20.5786 16.0783 19.8284 16.8284C19.0783 17.5786 18.0609 18 17 18H7C5.93913 18 4.92172 17.5786 4.17157 16.8284C3.42143 16.0783 3 15.0609 3 14V11C3 8.61305 3.94821 6.32387 5.63604 4.63604C7.32387 2.94821 9.61305 2 12 2ZM12 10C10.2876 9.83484 8.60556 9.43788 7 8.82V11C8.61259 11.5623 10.2952 11.8988 12 12C13.7048 11.8988 15.3874 11.5623 17 11V8.82C15.3929 9.43279 13.7115 9.82959 12 10Z" fill="#0F1621"/>
</svg>
