<svg xmlns="http://www.w3.org/2000/svg" width="24" height="24" viewBox="0 0 24 24"><rect width="24" height="24" style="fill:none"/><path d="M15,11v1H9V11a1,1,0,0,1,1-1h4A1,1,0,0,1,15,11ZM13.5,7.66V6.34A1.34,1.34,0,0,0,12.16,5h-.32A1.34,1.34,0,0,0,10.5,6.34V7.66A1.34,1.34,0,0,0,11.84,9h.32A1.34,1.34,0,0,0,13.5,7.66ZM22,13H20.9l.77,1.06a1.64,1.64,0,0,1,.33,1V20a2,2,0,0,1-2,2H17a1,1,0,0,1-1-1V20H8v1a1,1,0,0,1-1,1H4a2,2,0,0,1-2-2V15.06a1.64,1.64,0,0,1,.33-1L3.1,13H2V11H4.55l.86-1.18A2.06,2.06,0,0,1,7,9v2l-.3.45L5,14H19l-1.7-2.55L17,11V9a2.06,2.06,0,0,1,1.59.82L19.45,11H22ZM8,16H4v2H8Zm12,0H16v2h4ZM18,2a1,1,0,1,0,1,1A1,1,0,0,0,18,2Zm2,4a1,1,0,0,0-1-1H17a1,1,0,0,0-1,1V7h4ZM6,2A1,1,0,1,0,7,3,1,1,0,0,0,6,2ZM8,6A1,1,0,0,0,7,5H5A1,1,0,0,0,4,6V7H8Z"/></svg>