<svg width="24" height="24" viewBox="0 0 24 24" fill="none" xmlns="http://www.w3.org/2000/svg">
<path d="M20 15V20H8.26L6.26 22H22V15H20ZM2 17.75L4 15.75V15H2V17.75ZM13 15.26V18H11V17.26L13 15.26ZM16.37 11.89L15 13.31C15.5633 13.9424 15.9113 14.7372 15.994 15.58C16.0767 16.4229 15.8897 17.2702 15.46 18H17.65C17.8834 17.3591 18.0018 16.682 18 16C17.9997 14.4724 17.4167 13.0025 16.37 11.89ZM13 5.99997V6.74997L11.74 7.99997C11.4925 8.00136 11.2454 8.01806 11 8.04997V5.99997H13ZM12 1.99997C10.4087 1.99997 8.88258 2.63211 7.75736 3.75733C6.63214 4.88255 6 6.40867 6 7.99997C5.99523 8.7718 6.14483 9.5368 6.44 10.25C6.94363 9.75811 7.51224 9.33753 8.13 8.99997C8.04073 8.67423 7.99699 8.33771 8 7.99997C8.00025 7.22409 8.22614 6.46502 8.65016 5.81525C9.07418 5.16547 9.67803 4.65304 10.3881 4.34039C11.0982 4.02773 11.8839 3.92834 12.6495 4.05433C13.4151 4.18032 14.1275 4.52625 14.7 5.04997L16.11 3.63997C15.0035 2.58258 13.5305 1.99481 12 1.99997ZM3.43 22L2 20.57L20.57 1.99997L22 3.42997L3.43 22Z" fill="#0F1621"/>
</svg>
