<svg xmlns="http://www.w3.org/2000/svg" viewBox="0 0 24 24"><g id="Layer_2" data-name="Layer 2"><g id="UI_Outline" data-name="UI Outline"><g id="road-tolls-off"><rect width="24" height="24" style="fill:none"/><path d="M20,15v5H8.26l-2,2H22V15ZM2,17.75l2-2V15H2Zm11-2.49V18H11v-.74Zm3.37-3.37L15,13.31A4,4,0,0,1,15.46,18h2.19A5.8,5.8,0,0,0,18,16,6,6,0,0,0,16.37,11.89ZM13,6v.75L11.74,8a6,6,0,0,0-.74.05V6ZM12,2A6,6,0,0,0,6,8a5.79,5.79,0,0,0,.44,2.25A7.71,7.71,0,0,1,8.13,9,3.66,3.66,0,0,1,8,8a4,4,0,0,1,6.7-2.95l1.41-1.41A5.92,5.92,0,0,0,12,2ZM3.43,22,2,20.57,20.57,2,22,3.43Z"/></g></g></g></svg>