<svg xmlns="http://www.w3.org/2000/svg" viewBox="0 0 24 24"><g id="Layer_2" data-name="Layer 2"><g id="UI_Outline" data-name="UI Outline"><g id="road-unpaved"><rect width="24" height="24" style="fill:none"/><path d="M20,18a3,3,0,0,0-2,.77,3,3,0,0,0-4,0,3,3,0,0,0-4,0,3,3,0,0,0-4,0,3,3,0,0,0-4,0V21h.29a.92.92,0,0,0,.82-.45,1,1,0,0,1,1.78,0,.92.92,0,0,0,.82.45h.58a.92.92,0,0,0,.82-.45,1,1,0,0,1,1.78,0,.92.92,0,0,0,.82.45h.58a.92.92,0,0,0,.82-.45,1,1,0,0,1,1.78,0,.92.92,0,0,0,.82.45h.58a.92.92,0,0,0,.82-.45,1,1,0,0,1,1.78,0,.92.92,0,0,0,.82.45h.58a.92.92,0,0,0,.82-.45,1,1,0,0,1,1.78,0,.92.92,0,0,0,.82.45H22V18.77A3,3,0,0,0,20,18ZM22,5H19.45l-.86-1.18A2,2,0,0,0,16.93,3H7.07a2,2,0,0,0-1.66.82L4.55,5H2V7H3.1L2.33,8.06a1.64,1.64,0,0,0-.33,1V14a2,2,0,0,0,2,2H7a1,1,0,0,0,1-1V14h8v1a1,1,0,0,0,1,1h3a2,2,0,0,0,2-2V9.06a1.64,1.64,0,0,0-.33-1L20.9,7H22Zm-2,9H18V12H6v2H4V9.16l.71-1L7,5H17l2.33,3.18.71,1ZM7.5,8,6,10H18L16.5,8Z"/></g></g></g></svg>