<svg xmlns="http://www.w3.org/2000/svg" viewBox="0 0 24 24"><defs><style>.cls-1{fill:none;}</style></defs><g id="Layer_2" data-name="Layer 2"><g id="UI_Solid" data-name="UI Solid"><g id="road-tolls-off"><rect class="cls-1" width="24" height="24"/><path d="M20,15v5H8.25l-2,2H22V15ZM2,17.75l2-2V15H2Zm14.36-5.86L13,15.25V18h4.65A5.8,5.8,0,0,0,18,16,5.92,5.92,0,0,0,16.36,11.89ZM13,6.74V6H11V8.07a7.92,7.92,0,0,0-4.56,2.18A5.79,5.79,0,0,1,6,8a6,6,0,0,1,6-6,5.92,5.92,0,0,1,4.11,1.64ZM3.43,22,2,20.57,20.57,2,22,3.43Z"/></g></g></g></svg>