<svg xmlns="http://www.w3.org/2000/svg" viewBox="0 0 24 24"><defs><style>.cls-1{fill:none;}</style></defs><g id="Layer_2" data-name="Layer 2"><g id="UI_Solid" data-name="UI Solid"><g id="road-unpaved-off"><rect class="cls-1" width="24" height="24"/><path d="M21.67,8.06l-.62-.85L18.26,10H20v2H16.26l-2,2H16v1a1,1,0,0,0,1,1h3a2,2,0,0,0,2-2V9.06A1.64,1.64,0,0,0,21.67,8.06ZM6.7,5.45A1,1,0,0,1,7.54,5h7.2l2-2H7.07a2,2,0,0,0-1.66.82L4.55,5H2V7H3.1L2.33,8.06a1.64,1.64,0,0,0-.33,1V14a2,2,0,0,0,1.76,2l4-4H4V10H8v1.75L11.74,8H5ZM3.43,22,2,20.57,20.57,2,22,3.43ZM20,18a3,3,0,0,0-2,.77,3,3,0,0,0-4,0,3,3,0,0,0-4,0L8.58,20.19a.9.9,0,0,1,.31.36.92.92,0,0,0,.82.45h.58a.92.92,0,0,0,.82-.45,1,1,0,0,1,1.78,0,.92.92,0,0,0,.82.45h.58a.92.92,0,0,0,.82-.45,1,1,0,0,1,1.78,0,.92.92,0,0,0,.82.45h.58a.92.92,0,0,0,.82-.45,1,1,0,0,1,1.78,0,.92.92,0,0,0,.82.45H22V18.77A3,3,0,0,0,20,18Z"/></g></g></g></svg>