<svg xmlns="http://www.w3.org/2000/svg" viewBox="0 0 24 24"><g id="Layer_2" data-name="Layer 2"><g id="UI_Outline" data-name="UI Outline"><g id="road-unpaved-off"><rect width="24" height="24" style="fill:none"/><path d="M20,18a3,3,0,0,0-2,.77,3,3,0,0,0-4,0,3,3,0,0,0-4,0L8.58,20.19a.9.9,0,0,1,.31.36.92.92,0,0,0,.82.45h.58a.92.92,0,0,0,.82-.45,1,1,0,0,1,1.78,0,.92.92,0,0,0,.82.45h.58a.92.92,0,0,0,.82-.45,1,1,0,0,1,1.78,0,.92.92,0,0,0,.82.45h.58a.92.92,0,0,0,.82-.45,1,1,0,0,1,1.78,0,.92.92,0,0,0,.82.45H22V18.77A3,3,0,0,0,20,18ZM7.5,8,6,10H9.75l2-2Zm0,0L6,10H9.75l2-2ZM6,13.75,7.75,12H6ZM21.67,8.06l-.62-.85L19.62,8.64l.38.52V14H18V12H16.26l-2,2H16v1a1,1,0,0,0,1,1h3a2,2,0,0,0,2-2V9.06A1.64,1.64,0,0,0,21.67,8.06ZM4,9.16l.71-1L7,5h7.7l2-2H7.07a2,2,0,0,0-1.66.82L4.55,5H2V7H3.1L2.33,8.06a1.64,1.64,0,0,0-.33,1V14a2,2,0,0,0,1.76,2l2-2H4ZM6,10H9.75l2-2H7.5Zm0,3.75L7.75,12H6ZM3.43,22,2,20.57,20.57,2,22,3.43Z"/></g></g></g></svg>