<svg xmlns="http://www.w3.org/2000/svg" width="24" height="24" viewBox="0 0 24 24"><rect width="24" height="24" style="fill:none"/><path d="M20,15v5H4V15H2v7H22V15Zm-7,3H11V14h2Zm-1-8a6,6,0,0,0-6,6,5.8,5.8,0,0,0,.35,2H8.54a4,4,0,1,1,6.92,0h2.19A5.8,5.8,0,0,0,18,16,6,6,0,0,0,12,10Zm1-4V8.06a8.36,8.36,0,0,0-2,0V6ZM12,2A6,6,0,0,0,6,8a5.79,5.79,0,0,0,.44,2.25A7.71,7.71,0,0,1,8.13,9,3.66,3.66,0,0,1,8,8a4,4,0,0,1,8,0,3.66,3.66,0,0,1-.13,1,7.71,7.71,0,0,1,1.69,1.25A5.79,5.79,0,0,0,18,8,6,6,0,0,0,12,2Z"/></svg>