<svg width="24" height="24" viewBox="0 0 24 24" fill="none" xmlns="http://www.w3.org/2000/svg">
<path d="M22.0001 5.00001H19.4501L18.5901 3.82001C18.3999 3.55967 18.1497 3.34913 17.8607 3.20636C17.5716 3.06358 17.2524 2.99279 16.9301 3.00001H7.07005C6.74776 2.99279 6.42849 3.06358 6.13945 3.20636C5.85042 3.34913 5.60018 3.55967 5.41005 3.82001L4.55005 5.00001H2.00005V7.00001H3.10005L2.33005 8.06001C2.11312 8.34801 1.99714 8.69947 2.00005 9.06001V14C2.00005 14.5304 2.21077 15.0392 2.58584 15.4142C2.96091 15.7893 3.46962 16 4.00005 16H7.00005C7.26527 16 7.51962 15.8947 7.70716 15.7071C7.8947 15.5196 8.00005 15.2652 8.00005 15V14H16.0001V15C16.0001 15.2652 16.1054 15.5196 16.2929 15.7071C16.4805 15.8947 16.7348 16 17.0001 16H20.0001C20.5305 16 21.0392 15.7893 21.4143 15.4142C21.7893 15.0392 22.0001 14.5304 22.0001 14V9.06001C22.003 8.69947 21.887 8.34801 21.6701 8.06001L20.9001 7.00001H22.0001V5.00001ZM8.00005 12H4.00005V10H8.00005V12ZM5.00005 8.00001L6.70005 5.45001C6.79157 5.31104 6.91633 5.1971 7.063 5.11852C7.20968 5.03994 7.37365 4.99921 7.54005 5.00001H16.4601C16.6265 4.99921 16.7904 5.03994 16.9371 5.11852C17.0838 5.1971 17.2085 5.31104 17.3001 5.45001L19.0001 8.00001H5.00005ZM20.0001 12H16.0001V10H20.0001V12ZM20.0001 18C19.2613 18.0017 18.5492 18.2759 18.0001 18.77C17.45 18.2781 16.738 18.0061 16.0001 18.0061C15.2621 18.0061 14.5501 18.2781 14.0001 18.77C13.45 18.2781 12.738 18.0061 12.0001 18.0061C11.2621 18.0061 10.5501 18.2781 10.0001 18.77C9.45003 18.2781 8.73799 18.0061 8.00005 18.0061C7.26212 18.0061 6.55008 18.2781 6.00005 18.77C5.45003 18.2781 4.73799 18.0061 4.00005 18.0061C3.26212 18.0061 2.55008 18.2781 2.00005 18.77V21H2.29005C2.45448 21.0052 2.61729 20.9661 2.76151 20.887C2.90573 20.8079 3.02609 20.6915 3.11005 20.55C3.19397 20.3862 3.32147 20.2487 3.4785 20.1528C3.63553 20.0568 3.81601 20.006 4.00005 20.006C4.1841 20.006 4.36458 20.0568 4.52161 20.1528C4.67864 20.2487 4.80614 20.3862 4.89005 20.55C4.97402 20.6915 5.09438 20.8079 5.2386 20.887C5.38282 20.9661 5.54562 21.0052 5.71005 21H6.29005C6.45448 21.0052 6.61729 20.9661 6.76151 20.887C6.90573 20.8079 7.02609 20.6915 7.11005 20.55C7.19397 20.3862 7.32147 20.2487 7.4785 20.1528C7.63553 20.0568 7.81601 20.006 8.00005 20.006C8.1841 20.006 8.36458 20.0568 8.52161 20.1528C8.67864 20.2487 8.80614 20.3862 8.89005 20.55C8.97402 20.6915 9.09438 20.8079 9.2386 20.887C9.38282 20.9661 9.54562 21.0052 9.71005 21H10.2901C10.4545 21.0052 10.6173 20.9661 10.7615 20.887C10.9057 20.8079 11.0261 20.6915 11.1101 20.55C11.194 20.3862 11.3215 20.2487 11.4785 20.1528C11.6355 20.0568 11.816 20.006 12.0001 20.006C12.1841 20.006 12.3646 20.0568 12.5216 20.1528C12.6786 20.2487 12.8061 20.3862 12.8901 20.55C12.974 20.6915 13.0944 20.8079 13.2386 20.887C13.3828 20.9661 13.5456 21.0052 13.7101 21H14.2901C14.4545 21.0052 14.6173 20.9661 14.7615 20.887C14.9057 20.8079 15.0261 20.6915 15.1101 20.55C15.194 20.3862 15.3215 20.2487 15.4785 20.1528C15.6355 20.0568 15.816 20.006 16.0001 20.006C16.1841 20.006 16.3646 20.0568 16.5216 20.1528C16.6786 20.2487 16.8061 20.3862 16.8901 20.55C16.974 20.6915 17.0944 20.8079 17.2386 20.887C17.3828 20.9661 17.5456 21.0052 17.7101 21H18.2901C18.4545 21.0052 18.6173 20.9661 18.7615 20.887C18.9057 20.8079 19.0261 20.6915 19.1101 20.55C19.194 20.3862 19.3215 20.2487 19.4785 20.1528C19.6355 20.0568 19.816 20.006 20.0001 20.006C20.1841 20.006 20.3646 20.0568 20.5216 20.1528C20.6786 20.2487 20.8061 20.3862 20.8901 20.55C20.974 20.6915 21.0944 20.8079 21.2386 20.887C21.3828 20.9661 21.5456 21.0052 21.7101 21H22.0001V18.77C21.4509 18.2759 20.7388 18.0017 20.0001 18Z" fill="#0F1621"/>
</svg>
