<svg xmlns="http://www.w3.org/2000/svg" width="16" height="16" viewBox="0 0 16 16"><rect width="16" height="16" style="fill:none"/><path d="M15,5.28l-4,4V10a1,1,0,0,0,1,1h2a1,1,0,0,0,1-1V5.67A1.72,1.72,0,0,0,15,5.28ZM3.4,1.8l-2,2.67A2,2,0,0,0,1,5.67V10a1,1,0,0,0,.18.58L5.76,6h-3l2-2.6A1,1,0,0,1,5.5,3H8.76l2-2H5A2,2,0,0,0,3.4,1.8Zm10.6,11a3,3,0,0,0-4,0A3,3,0,0,0,8.23,12L5.32,14.92a1,1,0,0,0,.39.08h.58a.92.92,0,0,0,.82-.45,1,1,0,0,1,1.78,0,.92.92,0,0,0,.82.45h.58a.92.92,0,0,0,.82-.45,1,1,0,0,1,1.78,0,.92.92,0,0,0,.82.45h.58a.92.92,0,0,0,.71-.31V12.17A3,3,0,0,0,14,12.77ZM2.41,15,1,13.59,13.59,1,15,2.42Z"/></svg>