<svg xmlns="http://www.w3.org/2000/svg" viewBox="0 0 24 24"><defs><style>.cls-1{fill:none;}</style></defs><g id="Layer_2" data-name="Layer 2"><g id="UI_Outline" data-name="UI Outline"><g id="route"><rect class="cls-1" width="24" height="24"/><path d="M5,4A1,1,0,1,1,4,5,1,1,0,0,1,5,4M5,2A3,3,0,1,0,8,5,3,3,0,0,0,5,2ZM19,18a1,1,0,1,1-1,1,1,1,0,0,1,1-1m0-2a3,3,0,1,0,3,3,3,3,0,0,0-3-3ZM14,4H10V6h4Zm5,0H17V6h2V8h2V6A2,2,0,0,0,19,4ZM5,13H7V11H5a2,2,0,0,0-2,2v2H5Zm9-2H10v2h4ZM5,15H3v3a2,2,0,0,0,2,2H7V18H5Zm5,3v2h4V18ZM19,8v3H17v2h2a2,2,0,0,0,2-2V8Z"/></g></g></g></svg>