<svg width="16" height="16" viewBox="0 0 16 16" fill="none" xmlns="http://www.w3.org/2000/svg">
<path d="M12.53 9.65L11.25 3.59C11.1557 3.1401 10.9094 2.73639 10.5524 2.4468C10.1955 2.15722 9.74964 1.99943 9.28998 2H7.99998V4H9.28998L10.53 9.86C10.1154 10.1311 9.80244 10.532 9.63998 11H6.35998C6.18859 10.5259 5.86231 10.1236 5.4339 9.85791C5.0055 9.59226 4.50001 9.47888 3.99919 9.53609C3.49836 9.59331 3.03147 9.81778 2.67402 10.1732C2.31657 10.5286 2.08945 10.9942 2.02939 11.4947C1.96933 11.9952 2.07984 12.5013 2.34305 12.9313C2.60626 13.3612 3.00679 13.6897 3.47986 13.8638C3.95293 14.0379 4.47089 14.0473 4.94999 13.8906C5.42908 13.7338 5.8413 13.42 6.11998 13H9.87998C10.0756 13.2977 10.3391 13.5446 10.6488 13.7206C10.9586 13.8965 11.3056 13.9964 11.6615 14.0121C12.0173 14.0277 12.3718 13.9586 12.6958 13.8105C13.0197 13.6624 13.3039 13.4395 13.5249 13.1601C13.7459 12.8808 13.8974 12.5529 13.9669 12.2036C14.0365 11.8543 14.0221 11.4934 13.925 11.1507C13.8278 10.808 13.6507 10.4932 13.4082 10.2323C13.1657 9.97145 12.8647 9.77186 12.53 9.65Z" fill="#0F1621"/>
</svg>
