<svg width="24" height="24" viewBox="0 0 24 24" fill="none" xmlns="http://www.w3.org/2000/svg">
<path d="M17.66 20.3099L16.95 19.6099C16.764 19.4242 16.6165 19.2036 16.5159 18.9608C16.4152 18.718 16.3634 18.4578 16.3634 18.1949C16.3634 17.9321 16.4152 17.6719 16.5159 17.4291C16.6165 17.1863 16.764 16.9657 16.95 16.7799L18.36 15.3599C18.5457 15.174 18.7663 15.0265 19.0091 14.9258C19.2519 14.8252 19.5122 14.7734 19.775 14.7734C20.0378 14.7734 20.2981 14.8252 20.5409 14.9258C20.7837 15.0265 21.0043 15.174 21.19 15.3599L21.9 16.0699L17.66 20.3099ZM19.78 11.1199L13.41 4.75995C12.6601 4.0119 11.6442 3.5918 10.585 3.5918C9.52581 3.5918 8.50987 4.0119 7.76 4.75995L6.34 6.16995C5.96809 6.54144 5.67306 6.98259 5.47176 7.46819C5.27046 7.95378 5.16685 8.47428 5.16685 8.99995C5.16685 9.52561 5.27046 10.0461 5.47176 10.5317C5.67306 11.0173 5.96809 11.4585 6.34 11.8299L9.05 14.5399L5.59 17.9999H2V19.9999H5.59C6.11958 19.9977 6.62665 19.7855 7 19.4099L10.46 15.9999L12.71 18.2399L19.78 11.1199Z" fill="#0F1621"/>
</svg>
