<svg xmlns="http://www.w3.org/2000/svg" viewBox="0 0 24 24"><g id="Layer_2" data-name="Layer 2"><g id="UI_Outline" data-name="UI Outline"><g id="speedalert-off"><rect width="24" height="24" style="fill:none"/><path d="M19.67,8.59,18.25,10A8,8,0,0,1,20,15a8.11,8.11,0,0,1-.18,1.7l-3.94-.76a3.88,3.88,0,0,1-1,1.84L21.17,19A10.08,10.08,0,0,0,22,15,9.92,9.92,0,0,0,19.67,8.59ZM8,5.84V8.08A7.91,7.91,0,0,1,12,7c.24,0,.49,0,.72,0l1.72-1.72A9.38,9.38,0,0,0,12,5,9.88,9.88,0,0,0,8,5.84Zm9.1,5.32-5.73,5.73A1.9,1.9,0,0,0,12,17a2,2,0,0,0,2-2l4-2.29ZM6,3V13.75L4.75,15H2V3ZM3.43,22,2,20.57,20.57,2,22,3.43Z"/></g></g></g></svg>