<svg width="16" height="16" viewBox="0 0 16 16" fill="none" xmlns="http://www.w3.org/2000/svg">
<path d="M8 2.74C9.04033 2.74 10.0573 3.04849 10.9223 3.62647C11.7873 4.20445 12.4615 5.02595 12.8596 5.98709C13.2577 6.94822 13.3619 8.00584 13.1589 9.02618C12.956 10.0465 12.455 10.9838 11.7194 11.7194C10.9838 12.455 10.0465 12.956 9.02618 13.1589C8.00584 13.3619 6.94823 13.2577 5.98709 12.8596C5.02595 12.4615 4.20445 11.7873 3.62647 10.9223C3.0485 10.0573 2.74 9.04033 2.74 8C2.74265 6.60577 3.29767 5.26941 4.28354 4.28354C5.26941 3.29767 6.60578 2.74264 8 2.74ZM8 1C6.61553 1 5.26216 1.41054 4.11101 2.17971C2.95987 2.94888 2.06266 4.04213 1.53285 5.32122C1.00303 6.6003 0.86441 8.00776 1.13451 9.36563C1.4046 10.7235 2.07129 11.9708 3.05026 12.9497C4.02922 13.9287 5.2765 14.5954 6.63437 14.8655C7.99224 15.1356 9.3997 14.997 10.6788 14.4672C11.9579 13.9373 13.0511 13.0401 13.8203 11.889C14.5895 10.7378 15 9.38447 15 8C15 6.14348 14.2625 4.36301 12.9497 3.05025C11.637 1.7375 9.85652 1 8 1ZM10.1 11.42C9.56957 11.42 9.06086 11.2093 8.68579 10.8342C8.31072 10.4591 8.1 9.95043 8.1 9.42V6.28C8.1 5.74957 8.31072 5.24086 8.68579 4.86579C9.06086 4.49071 9.56957 4.28 10.1 4.28C10.6304 4.28 11.1391 4.49071 11.5142 4.86579C11.8893 5.24086 12.1 5.74957 12.1 6.28V9.42C12.1 9.95043 11.8893 10.4591 11.5142 10.8342C11.1391 11.2093 10.6304 11.42 10.1 11.42ZM10.1 5.62C9.92496 5.62 9.75709 5.68954 9.63331 5.81331C9.50954 5.93708 9.44 6.10496 9.44 6.28V9.42C9.43868 9.50751 9.45477 9.59441 9.48734 9.67564C9.51992 9.75688 9.56832 9.83082 9.62974 9.89317C9.69116 9.95552 9.76437 10.005 9.8451 10.0388C9.92583 10.0726 10.0125 10.09 10.1 10.09C10.2777 10.09 10.4481 10.0194 10.5738 9.89376C10.6994 9.76811 10.77 9.5977 10.77 9.42V6.28C10.7674 6.10404 10.6956 5.93618 10.5703 5.81269C10.4449 5.6892 10.276 5.61998 10.1 5.62ZM5.7 6.75C5.59693 6.73964 5.49308 6.73964 5.39 6.75C5.62194 6.35027 5.95439 6.01815 6.35435 5.78659C6.7543 5.55504 7.20786 5.43211 7.67 5.43L6.53 4.28C5.71336 4.52978 4.9981 5.03437 4.48888 5.71993C3.97967 6.40549 3.70322 7.23602 3.7 8.09V9.42C3.7 9.95043 3.91072 10.4591 4.28579 10.8342C4.66086 11.2093 5.16957 11.42 5.7 11.42C6.23044 11.42 6.73914 11.2093 7.11422 10.8342C7.48929 10.4591 7.7 9.95043 7.7 9.42V8.75C7.7 8.21957 7.48929 7.71086 7.11422 7.33579C6.73914 6.96071 6.23044 6.75 5.7 6.75ZM6.37 9.42C6.37 9.5977 6.29941 9.76811 6.17376 9.89376C6.04812 10.0194 5.8777 10.09 5.7 10.09C5.60918 10.0955 5.51819 10.0822 5.43275 10.0509C5.34732 10.0196 5.26928 9.97093 5.20355 9.90801C5.13781 9.8451 5.08579 9.76926 5.05077 9.68528C5.01574 9.6013 4.99846 9.51098 5 9.42V8.75C5 8.57496 5.06954 8.40708 5.19331 8.28331C5.31709 8.15954 5.48496 8.09 5.66 8.09C5.83598 8.08998 6.0049 8.1592 6.13026 8.28269C6.25563 8.40618 6.32738 8.57404 6.33 8.75L6.37 9.42Z" fill="#0F1621"/>
</svg>
