<svg width="24" height="24" viewBox="0 0 24 24" fill="none" xmlns="http://www.w3.org/2000/svg">
<path d="M12 2C10.0222 2 8.08879 2.58649 6.4443 3.6853C4.79981 4.78412 3.51809 6.3459 2.76121 8.17317C2.00433 10.0004 1.8063 12.0111 2.19215 13.9509C2.578 15.8907 3.53041 17.6725 4.92894 19.0711C6.32746 20.4696 8.10929 21.422 10.0491 21.8079C11.9889 22.1937 13.9996 21.9957 15.8268 21.2388C17.6541 20.4819 19.2159 19.2002 20.3147 17.5557C21.4135 15.9112 22 13.9778 22 12C22 10.6868 21.7413 9.38642 21.2388 8.17317C20.7363 6.95991 19.9997 5.85752 19.0711 4.92893C18.1425 4.00035 17.0401 3.26375 15.8268 2.7612C14.6136 2.25866 13.3132 2 12 2ZM12 20C10.4178 20 8.87104 19.5308 7.55544 18.6518C6.23985 17.7727 5.21447 16.5233 4.60897 15.0615C4.00347 13.5997 3.84504 11.9911 4.15372 10.4393C4.4624 8.88743 5.22433 7.46197 6.34315 6.34315C7.46197 5.22433 8.88743 4.4624 10.4393 4.15372C11.9911 3.84504 13.5997 4.00346 15.0615 4.60896C16.5233 5.21447 17.7727 6.23984 18.6518 7.55544C19.5308 8.87103 20 10.4177 20 12C20 14.1217 19.1572 16.1566 17.6569 17.6569C16.1566 19.1571 14.1217 20 12 20ZM15 6C14.2044 6 13.4413 6.31607 12.8787 6.87868C12.3161 7.44129 12 8.20435 12 9V13C12 12.2044 11.6839 11.4413 11.1213 10.8787C10.5587 10.3161 9.79565 10 9 10C8.84208 10.0013 8.68466 10.018 8.53 10.05C8.87519 9.43174 9.3783 8.9162 9.98795 8.55603C10.5976 8.19587 11.2919 8.00399 12 8L11 6.08C9.60125 6.31643 8.33151 7.04082 7.41616 8.12459C6.50082 9.20836 5.99908 10.5814 6 12V15C6 15.7956 6.31607 16.5587 6.87868 17.1213C7.44129 17.6839 8.20435 18 9 18C9.79565 18 10.5587 17.6839 11.1213 17.1213C11.6839 16.5587 12 15.7956 12 15C12 15.7956 12.3161 16.5587 12.8787 17.1213C13.4413 17.6839 14.2044 18 15 18C15.7957 18 16.5587 17.6839 17.1213 17.1213C17.6839 16.5587 18 15.7956 18 15V9C18 8.20435 17.6839 7.44129 17.1213 6.87868C16.5587 6.31607 15.7957 6 15 6ZM10 15C10 15.2652 9.89465 15.5196 9.70711 15.7071C9.51957 15.8946 9.26522 16 9 16C8.73479 16 8.48043 15.8946 8.2929 15.7071C8.10536 15.5196 8 15.2652 8 15V13C8 12.7348 8.10536 12.4804 8.2929 12.2929C8.48043 12.1054 8.73479 12 9 12C9.26522 12 9.51957 12.1054 9.70711 12.2929C9.89465 12.4804 10 12.7348 10 13V15ZM16 15C16 15.2652 15.8946 15.5196 15.7071 15.7071C15.5196 15.8946 15.2652 16 15 16C14.7348 16 14.4804 15.8946 14.2929 15.7071C14.1054 15.5196 14 15.2652 14 15V9C14 8.73478 14.1054 8.48043 14.2929 8.29289C14.4804 8.10536 14.7348 8 15 8C15.2652 8 15.5196 8.10536 15.7071 8.29289C15.8946 8.48043 16 8.73478 16 9V15Z" fill="#0F1621"/>
</svg>
