<svg width="16" height="16" viewBox="0 0 16 16" fill="none" xmlns="http://www.w3.org/2000/svg">
<path d="M10 4H12V12H10V4ZM13 7V9C13 9.53043 13.2107 10.0391 13.5858 10.4142C13.9609 10.7893 14.4696 11 15 11V5C14.4696 5 13.9609 5.21071 13.5858 5.58579C13.2107 5.96086 13 6.46957 13 7ZM9 3V13C9 13.5304 8.78929 14.0391 8.41421 14.4142C8.03914 14.7893 7.53043 15 7 15H3C2.46957 15 1.96086 14.7893 1.58579 14.4142C1.21071 14.0391 1 13.5304 1 13V3C1 2.46957 1.21071 1.96086 1.58579 1.58579C1.96086 1.21071 2.46957 1 3 1H7C7.53043 1 8.03914 1.21071 8.41421 1.58579C8.78929 1.96086 9 2.46957 9 3ZM6 10.5C6 10.2033 5.91203 9.91332 5.7472 9.66665C5.58238 9.41997 5.34811 9.22771 5.07403 9.11418C4.79994 9.00065 4.49834 8.97094 4.20736 9.02882C3.91639 9.0867 3.64912 9.22956 3.43934 9.43934C3.22956 9.64912 3.0867 9.91639 3.02882 10.2074C2.97094 10.4983 3.00065 10.7999 3.11418 11.074C3.22771 11.3481 3.41997 11.5824 3.66664 11.7472C3.91332 11.912 4.20333 12 4.5 12C4.89782 12 5.27936 11.842 5.56066 11.5607C5.84196 11.2794 6 10.8978 6 10.5ZM7 5C7 4.80222 6.94135 4.60888 6.83147 4.44443C6.72159 4.27998 6.56541 4.15181 6.38268 4.07612C6.19996 4.00043 5.99889 3.98063 5.80491 4.01921C5.61093 4.0578 5.43275 4.15304 5.29289 4.29289C5.15304 4.43275 5.0578 4.61093 5.01921 4.80491C4.98063 4.99889 5.00043 5.19996 5.07612 5.38268C5.15181 5.56541 5.27998 5.72159 5.44443 5.83147C5.60888 5.94135 5.80222 6 6 6C6.26522 6 6.51957 5.89464 6.70711 5.70711C6.89464 5.51957 7 5.26522 7 5Z" fill="#0F1621"/>
</svg>
