<svg width="16" height="16" viewBox="0 0 16 16" fill="none" xmlns="http://www.w3.org/2000/svg">
<path d="M8 3C6.96134 2.99595 5.9354 3.2285 5 3.68V11.84L5.13 11.79C5.50284 12.174 5.94896 12.4794 6.44195 12.6878C6.93493 12.8963 7.46474 13.0038 8 13.0038C8.53526 13.0038 9.06507 12.8963 9.55805 12.6878C10.051 12.4794 10.4972 12.174 10.87 11.79L14.33 13C14.8363 11.9326 15.0642 10.7545 14.9925 9.57529C14.9209 8.3961 14.5519 7.25423 13.9201 6.25604C13.2882 5.25785 12.414 4.43581 11.3789 3.86649C10.3437 3.29716 9.18137 2.99908 8 3ZM9.47 9.81C9.41145 10.0872 9.27562 10.3421 9.07821 10.5453C8.8808 10.7485 8.62989 10.8916 8.35452 10.9581C8.07915 11.0246 7.79058 11.0117 7.5222 10.9211C7.25382 10.8304 7.01661 10.6655 6.83802 10.4456C6.65942 10.2257 6.54675 9.95977 6.51304 9.67849C6.47933 9.39722 6.52596 9.11215 6.64753 8.85628C6.7691 8.6004 6.96065 8.38418 7.2 8.23265C7.43935 8.08111 7.71671 8.00045 8 8C8.1539 7.99545 8.30709 8.02269 8.45 8.08L11.45 6.38L12.45 8.12L9.47 9.81ZM3 14H1V12H3V14ZM3 10H1V2H3V10Z" fill="#0F1621"/>
</svg>
