<svg xmlns="http://www.w3.org/2000/svg" width="16" height="16" viewBox="0 0 16 16"><rect width="16" height="16" style="fill:none"/><path d="M8,2.74A5.26,5.26,0,1,1,2.74,8,5.27,5.27,0,0,1,8,2.74M8,1a7,7,0,1,0,7,7A7,7,0,0,0,8,1Zm2.1,10.42a2,2,0,0,1-2-2V6.28a2,2,0,1,1,4,0V9.42A2,2,0,0,1,10.1,11.42Zm0-5.8a.66.66,0,0,0-.66.66V9.42a.66.66,0,0,0,.66.67.67.67,0,0,0,.67-.67V6.28A.67.67,0,0,0,10.1,5.62ZM5.7,6.75a1.55,1.55,0,0,0-.31,0A2.65,2.65,0,0,1,7.67,5.43L6.53,4.28A4,4,0,0,0,3.7,8.09V9.42a2,2,0,0,0,4,0V8.75A2,2,0,0,0,5.7,6.75Zm.67,2.67a.67.67,0,0,1-.67.67A.66.66,0,0,1,5,9.42V8.75a.66.66,0,0,1,.66-.66.67.67,0,0,1,.67.66Z"/></svg>