<svg width="24" height="24" viewBox="0 0 24 24" fill="none" xmlns="http://www.w3.org/2000/svg">
<path d="M22.0001 10H19.4501L18.5901 8.82C18.3999 8.55965 18.1497 8.34912 17.8607 8.20634C17.5716 8.06357 17.2524 7.99277 16.9301 8H7.07005C6.74776 7.99277 6.42849 8.06357 6.13945 8.20634C5.85042 8.34912 5.60018 8.55965 5.41005 8.82L4.55005 10H2.00005V12H3.10005L2.33005 13.06C2.11312 13.348 1.99714 13.6995 2.00005 14.06V19C2.00005 19.5304 2.21077 20.0391 2.58584 20.4142C2.96091 20.7893 3.46962 21 4.00005 21H7.00005C7.26527 21 7.51962 20.8946 7.70716 20.7071C7.8947 20.5196 8.00005 20.2652 8.00005 20V19H16.0001V20C16.0001 20.2652 16.1054 20.5196 16.2929 20.7071C16.4805 20.8946 16.7348 21 17.0001 21H20.0001C20.5305 21 21.0392 20.7893 21.4143 20.4142C21.7893 20.0391 22.0001 19.5304 22.0001 19V14.06C22.003 13.6995 21.887 13.348 21.6701 13.06L20.9001 12H22.0001V10ZM8.00005 17H4.00005V15H8.00005V17ZM5.00005 13L6.70005 10.45C6.79157 10.311 6.91633 10.1971 7.063 10.1185C7.20968 10.0399 7.37365 9.9992 7.54005 10H16.4601C16.6265 9.9992 16.7904 10.0399 16.9371 10.1185C17.0838 10.1971 17.2085 10.311 17.3001 10.45L19.0001 13H5.00005ZM20.0001 17H16.0001V15H20.0001V17ZM15.0001 6H9.00005V4H15.0001V6Z" fill="#0F1621"/>
</svg>
