<svg xmlns="http://www.w3.org/2000/svg" viewBox="0 0 16 16"><defs><style>.cls-1{fill:none;}</style></defs><g id="Layer_2" data-name="Layer 2"><g id="UI_16" data-name="UI 16"><g id="tracker"><rect class="cls-1" width="16" height="16"/><path d="M10.83,5.17a4,4,0,0,0-5.66,0l.71.71a3,3,0,0,1,4.24,0ZM13,3.05a7,7,0,0,0-9.9,0l.71.71a6,6,0,0,1,8.48,0Zm-1.24,7.24-3-3a1,1,0,0,0-1.42,0l-3,3a1,1,0,0,0,0,1.42l3,3a1,1,0,0,0,1.42,0l3-3A1,1,0,0,0,11.71,10.29ZM8,12a1,1,0,1,1,1-1A1,1,0,0,1,8,12Z"/></g></g></g></svg>