<svg width="16" height="16" viewBox="0 0 16 16" fill="none" xmlns="http://www.w3.org/2000/svg">
<path d="M10.83 5.17002C10.4585 4.79811 10.0173 4.50308 9.53174 4.30178C9.04614 4.10048 8.52564 3.99687 7.99998 3.99687C7.47431 3.99687 6.95381 4.10048 6.46821 4.30178C5.98262 4.50308 5.54147 4.79811 5.16998 5.17002L5.87998 5.88002C6.44248 5.31821 7.20497 5.00266 7.99998 5.00266C8.79498 5.00266 9.55747 5.31821 10.12 5.88002L10.83 5.17002ZM13 3.05002C12.35 2.39993 11.5782 1.88425 10.7289 1.53242C9.8796 1.1806 8.96929 0.999512 8.04998 0.999512C7.13066 0.999512 6.22035 1.1806 5.37103 1.53242C4.5217 1.88425 3.74999 2.39993 3.09998 3.05002L3.80998 3.76002C4.93498 2.63641 6.45997 2.0053 8.04998 2.0053C9.63998 2.0053 11.165 2.63641 12.29 3.76002L13 3.05002ZM11.76 10.29L8.75998 7.29002C8.66701 7.19629 8.55641 7.12189 8.43455 7.07113C8.31269 7.02036 8.18199 6.99422 8.04998 6.99422C7.91796 6.99422 7.78726 7.02036 7.6654 7.07113C7.54354 7.12189 7.43294 7.19629 7.33998 7.29002L4.33998 10.29C4.24625 10.383 4.17185 10.4936 4.12108 10.6154C4.07032 10.7373 4.04418 10.868 4.04418 11C4.04418 11.132 4.07032 11.2627 4.12108 11.3846C4.17185 11.5065 4.24625 11.6171 4.33998 11.71L7.33998 14.71C7.43294 14.8037 7.54354 14.8781 7.6654 14.9289C7.78726 14.9797 7.91796 15.0058 8.04998 15.0058C8.18199 15.0058 8.31269 14.9797 8.43455 14.9289C8.55641 14.8781 8.66701 14.8037 8.75998 14.71L11.76 11.71C11.8505 11.6138 11.9211 11.5006 11.9676 11.3769C12.0141 11.2533 12.0357 11.1216 12.031 10.9896C12.0264 10.8576 11.9956 10.7278 11.9405 10.6077C11.8854 10.4876 11.8071 10.3796 11.71 10.29H11.76ZM7.99998 12C7.80219 12 7.60885 11.9414 7.44441 11.8315C7.27996 11.7216 7.15178 11.5654 7.0761 11.3827C7.00041 11.2 6.98061 10.9989 7.01919 10.8049C7.05778 10.6109 7.15302 10.4328 7.29287 10.2929C7.43272 10.1531 7.6109 10.0578 7.80489 10.0192C7.99887 9.98065 8.19993 10.0005 8.38266 10.0761C8.56539 10.1518 8.72156 10.28 8.83145 10.4444C8.94133 10.6089 8.99998 10.8022 8.99998 11C8.99998 11.2652 8.89462 11.5196 8.70708 11.7071C8.51955 11.8947 8.26519 12 7.99998 12Z" fill="#0F1621"/>
</svg>
