<svg xmlns="http://www.w3.org/2000/svg" viewBox="0 0 24 24"><defs><style>.cls-1{fill:none;}</style></defs><g id="Layer_2" data-name="Layer 2"><g id="UI_Solid" data-name="UI Solid"><g id="tracker"><rect class="cls-1" width="24" height="24"/><path d="M17.35,14.35l-3.7-3.7a2.34,2.34,0,0,0-3.3,0l-3.7,3.7a2.34,2.34,0,0,0,0,3.3l3.7,3.7a2.34,2.34,0,0,0,3.3,0l3.7-3.7A2.34,2.34,0,0,0,17.35,14.35ZM12,17.5A1.5,1.5,0,1,1,13.5,16,1.51,1.51,0,0,1,12,17.5Zm4.71-9.21L15.28,9.72a4,4,0,0,0-6.56,0L7.29,8.29a6,6,0,0,1,9.42,0Zm2.84-2.84L18.13,6.87a8,8,0,0,0-12.26,0L4.45,5.45a10,10,0,0,1,15.1,0Z"/></g></g></g></svg>