<svg width="16" height="16" viewBox="0 0 16 16" fill="none" xmlns="http://www.w3.org/2000/svg">
<path d="M10.37 3H4.37C4.10766 3.0011 3.85626 3.10526 3.67 3.29L3.19 4H1C1.0374 3.91371 1.08084 3.83017 1.13 3.75L2.41 1.89C2.59232 1.61673 2.83915 1.39258 3.12867 1.23735C3.41819 1.08213 3.74149 1.00061 4.07 1H8C8.32851 1.00061 8.65181 1.08213 8.94133 1.23735C9.23085 1.39258 9.47768 1.61673 9.66 1.89L10.37 3ZM15 9.69V13C15 13.2652 14.8946 13.5196 14.7071 13.7071C14.5196 13.8946 14.2652 14 14 14H12C11.7348 14 11.4804 13.8946 11.2929 13.7071C11.1054 13.5196 11 13.2652 11 13V12H10V9H12.5L11.3 7.4C11.2069 7.2758 11.0861 7.175 10.9472 7.10557C10.8084 7.03615 10.6552 7 10.5 7H8L6.5 5H10.91C11.2446 5.00056 11.5738 5.08507 11.8673 5.2458C12.1608 5.40654 12.4093 5.63835 12.59 5.92L14.59 8.46C14.8595 8.8131 15.0037 9.24585 15 9.69ZM8 10.69V14C8 14.2652 7.89464 14.5196 7.70711 14.7071C7.51957 14.8946 7.26522 15 7 15H5C4.73478 15 4.48043 14.8946 4.29289 14.7071C4.10536 14.5196 4 14.2652 4 14V13H1V10H5.5L4.3 8.4C4.20685 8.2758 4.08607 8.175 3.94721 8.10557C3.80836 8.03615 3.65525 8 3.5 8H1V6H3.91C4.24464 6.00056 4.57379 6.08507 4.8673 6.2458C5.16081 6.40654 5.4093 6.63835 5.59 6.92L7.59 9.46C7.85946 9.8131 8.00371 10.2458 8 10.69Z" fill="#0F1621"/>
</svg>
