<svg xmlns="http://www.w3.org/2000/svg" viewBox="0 0 16 16"><g id="Layer_2" data-name="Layer 2"><g id="UI_16" data-name="UI 16"><g id="traffic"><rect width="16" height="16" style="fill:none"/><path d="M10.37,3h-6a1,1,0,0,0-.7.29L3.19,4H1a2,2,0,0,1,.13-.25L2.41,1.89A2,2,0,0,1,4.07,1H8a2,2,0,0,1,1.66.89ZM15,9.69V13a1,1,0,0,1-1,1H12a1,1,0,0,1-1-1V12H10V9h2.5L11.3,7.4a1,1,0,0,0-.8-.4H8L6.5,5h4.41a2,2,0,0,1,1.68.92l2,2.54A2,2,0,0,1,15,9.69Zm-7,1V14a1,1,0,0,1-1,1H5a1,1,0,0,1-1-1V13H1V10H5.5L4.3,8.4A1,1,0,0,0,3.5,8H1V6H3.91a2,2,0,0,1,1.68.92l2,2.54A2,2,0,0,1,8,10.69Z"/></g></g></g></svg>