<svg width="16" height="16" viewBox="0 0 16 16" fill="none" xmlns="http://www.w3.org/2000/svg">
<path d="M12.6001 7C12.2001 6.4 11.6001 6 10.9001 6H7.2001C6.5001 6 5.8001 6.4 5.5001 7L3.4001 10.6C3.2001 10.9 3.1001 11.3 3.1001 11.6V14C3.1001 14.6 3.5001 15.1 4.1001 15.1H6.1001L8.1001 13.1H10.1001L12.1001 15.1H14.1001C14.7001 15.1 15.1001 14.6 15.1001 14V11.6C15.1001 11.2 15.0001 10.9 14.8001 10.6L12.6001 7ZM10.9001 8L12.1001 10H6.0001L7.2001 8H10.9001ZM7.0001 12C7.0001 12.6 6.6001 13 6.0001 13C5.4001 13 5.0001 12.6 5.0001 12C5.0001 11.4 5.4001 11 6.0001 11C6.6001 11 7.0001 11.4 7.0001 12ZM13.0001 12C13.0001 12.6 12.6001 13 12.0001 13C11.4001 13 11.0001 12.6 11.0001 12C11.0001 11.4 11.4001 11 12.0001 11C12.6001 11 13.0001 11.4 13.0001 12Z" fill="black"/>
<path d="M10.6001 2C10.2001 1.4 9.6001 1 8.9001 1H5.2001C4.5001 1 3.8001 1.4 3.5001 2L1.4001 5.6C1.2001 5.9 1.1001 6.3 1.1001 6.6V9C1.1001 9.6 1.5001 10.1 2.1001 10.1H2.5001L3.7001 8C3.3001 7.9 3.0001 7.5 3.0001 7.1C3.0001 6.5 3.4001 6.1 4.0001 6.1C4.3001 6.1 4.5001 6.2 4.7001 6.4C5.0001 5.9 5.5001 5.6 6.0001 5.4V5H3.9001L5.1001 3H8.8001L10.0001 5H10.8001H12.3001L10.6001 2Z" fill="black"/>
</svg>
