<svg width="24" height="24" viewBox="0 0 24 24" fill="none" xmlns="http://www.w3.org/2000/svg">
<path d="M19.4 10.8C18.9 9.7 17.8 9 16.7 9H11.3C10.1 9 9 9.7 8.6 10.8L6 16V21C6 21.6 6.4 22 7 22H10C10.6 22 11 21.6 11 21V20H17V21C17 21.6 17.4 22 18 22H21C21.6 22 22 21.6 22 21V16L19.4 10.8ZM10.4 11.6C10.6 11.2 10.9 11 11.3 11H16.7C17.1 11 17.5 11.2 17.6 11.6L18.7 14H9.3L10.4 11.6ZM11 18H8V16H11V18ZM20 18H17V16H20V18ZM7.6 10.4C8.2 9 9.7 8 11.3 8H16.7C17 8 17.3 8 17.6 8.1L15.5 3.8C15 2.7 13.9 2 12.7 2H7.3C6.1 2 5 2.7 4.6 3.8L2 9V14C2 14.6 2.4 15 3 15H5.4L7.6 10.4ZM6.4 4.6C6.6 4.2 6.9 4 7.3 4H12.7C13.1 4 13.5 4.2 13.6 4.6L14.7 7H5.3L6.4 4.6ZM4 9H7V11H4V9Z" fill="black"/>
</svg>
