<svg width="24" height="24" viewBox="0 0 24 24" fill="none" xmlns="http://www.w3.org/2000/svg">
<path d="M6.43 21.82C6.5972 21.9367 6.79609 21.9995 7 22H10C10.5304 22 11.0391 21.7893 11.4142 21.4142C11.7893 21.0392 12 20.5304 12 20V16.25L6.43 21.82ZM7.3 11.45L7.7 12.05L9.15 10.59L8.59 9.82001C8.39988 9.55967 8.14964 9.34914 7.8606 9.20636C7.57156 9.06358 7.2523 8.99279 6.93 9.00001H2V11H6.46C6.6264 10.9992 6.79037 11.0399 6.93705 11.1185C7.08373 11.1971 7.20848 11.311 7.3 11.45ZM2 17.75L5.75 14H2V17.75ZM22 9.00001H19.26L17.9 10.35L19 12H16.26L14 14.25V18H16V19C16 19.2652 16.1054 19.5196 16.2929 19.7071C16.4804 19.8947 16.7348 20 17 20H20C20.5304 20 21.0391 19.7893 21.4142 19.4142C21.7893 19.0392 22 18.5304 22 18V13.06C22.0029 12.6995 21.8869 12.348 21.67 12.06L20.9 11H22V9.00001ZM20 16H16V14H20V16ZM11 9.00001L13 7.00001H9L11 9.00001ZM15.47 4.27001L14.74 5.00001H13.49L13.12 4.45001C13.0285 4.31104 12.9037 4.1971 12.757 4.11852C12.6104 4.03994 12.4464 3.99921 12.28 4.00001H5.72C5.5536 3.99921 5.38963 4.03994 5.24295 4.11852C5.09627 4.1971 4.97152 4.31104 4.88 4.45001L4.51 5.00001H2L3.59 2.82001C3.78012 2.55967 4.03036 2.34913 4.3194 2.20636C4.60844 2.06358 4.9277 1.99279 5.25 2.00001H12.75C13.0723 1.99279 13.3916 2.06358 13.6806 2.20636C13.9696 2.34913 14.2199 2.55967 14.41 2.82001L15.27 4.00001L15.47 4.27001ZM3.43 22L2 20.57L20.57 2.00001L22 3.43001L3.43 22Z" fill="#0F1621"/>
</svg>
