<svg width="16" height="16" viewBox="0 0 16 16" fill="none" xmlns="http://www.w3.org/2000/svg">
<path fill-rule="evenodd" clip-rule="evenodd" d="M8.9001 1C9.6001 1 10.2001 1.4 10.6001 2L12.3001 5H10.8001H10.0001L8.8001 3H5.1001L3.9001 5H6.0001V5.4C5.5001 5.6 5.0001 5.9 4.7001 6.4C4.5001 6.2 4.3001 6.1 4.0001 6.1C3.4001 6.1 3.0001 6.5 3.0001 7.1C3.0001 7.5 3.3001 7.9 3.7001 8L2.5001 10.1H2.1001C1.5001 10.1 1.1001 9.6 1.1001 9V6.6C1.1001 6.3 1.2001 5.9 1.4001 5.6L3.5001 2C3.8001 1.4 4.5001 1 5.2001 1H8.9001ZM10.9001 6C11.6001 6 12.2001 6.4 12.6001 7L14.8001 10.6C15.0001 10.9 15.1001 11.2 15.1001 11.6V14C15.1001 14.6 14.7001 15.1 14.1001 15.1H12.1001L10.1001 13.1H8.1001L6.1001 15.1H4.1001C3.5001 15.1 3.1001 14.6 3.1001 14V11.6C3.1001 11.3 3.2001 10.9 3.4001 10.6L5.5001 7C5.8001 6.4 6.5001 6 7.2001 6H10.9001ZM6.0001 10H12.1001L10.9001 8H7.2001L6.0001 10ZM6.0001 13C6.6001 13 7.0001 12.6 7.0001 12C7.0001 11.4 6.6001 11 6.0001 11C5.4001 11 5.0001 11.4 5.0001 12C5.0001 12.6 5.4001 13 6.0001 13ZM12.0001 13C12.6001 13 13.0001 12.6 13.0001 12C13.0001 11.4 12.6001 11 12.0001 11C11.4001 11 11.0001 11.4 11.0001 12C11.0001 12.6 11.4001 13 12.0001 13Z" fill="black"/>
</svg>
