<svg width="16" height="16" viewBox="0 0 16 16" fill="none" xmlns="http://www.w3.org/2000/svg">
<path d="M14.1 2.9L2.90003 14.1L1.80003 13L13 1.8L14.1 2.9ZM5.40003 7L3.70003 9.8L7.50003 6H7.10003C6.40003 6 5.80003 6.4 5.40003 7ZM2.00003 10H2.40003L3.60003 7.9C3.30003 7.8 3.00003 7.4 3.00003 7C3.00003 6.4 3.40003 6 4.00003 6C4.30003 6 4.50003 6.1 4.70003 6.3C5.00003 5.8 5.50003 5.5 6.00003 5.3V5H3.90003L5.10003 3H8.80003L9.40003 4L10.9 2.5L10.6 2C10.2 1.4 9.60003 1 8.90003 1H5.20003C4.50003 1 3.80003 1.4 3.50003 2L1.40003 5.6C1.20003 5.9 1.10003 6.3 1.10003 6.6V9C1.00003 9.5 1.40003 10 2.00003 10ZM12.6 7C12.5 6.8 12.3 6.6 12.1 6.4L10.5 8H10.9L12.1 10H8.50003L6.90003 11.6C7.00003 11.7 7.00003 11.8 7.00003 12C7.00003 12.6 6.60003 13 6.00003 13C5.80003 13 5.70003 13 5.60003 12.9L3.70003 14.8L3.60003 14.9C3.70003 15 3.80003 15 4.00003 15H6.00003L8.00003 13H10L12 15H14C14.6 15 15 14.5 15 13.9V11.5C15 11.1 14.9 10.8 14.7 10.5L12.6 7ZM12 13C11.4 13 11 12.6 11 12C11 11.4 11.4 11 12 11C12.6 11 13 11.4 13 12C13 12.6 12.6 13 12 13Z" fill="black"/>
</svg>
