<svg width="16" height="16" viewBox="0 0 16 16" fill="none" xmlns="http://www.w3.org/2000/svg">
<path d="M9.73 2L8.73 3H4.41C4.14766 3.0011 3.89626 3.10526 3.71 3.29L3.19 4H1C1.0374 3.91371 1.08084 3.83017 1.13 3.75L2.41 1.89C2.59232 1.61673 2.83915 1.39258 3.12867 1.23735C3.41819 1.08213 3.74149 1.00061 4.07 1H8C8.32851 1.00061 8.65181 1.08213 8.94133 1.23735C9.23085 1.39258 9.47768 1.61673 9.66 1.89L9.73 2ZM15 9.69V13C15 13.2652 14.8946 13.5196 14.7071 13.7071C14.5196 13.8946 14.2652 14 14 14H12C11.7348 14 11.4804 13.8946 11.2929 13.7071C11.1054 13.5196 11 13.2652 11 13V12H10V10.24L11.24 9H12.5L12 8.28L13.39 6.89L14.62 8.46C14.8788 8.81691 15.0124 9.24932 15 9.69ZM5.24 6.52L3.76 8H1V6H3.91C4.40222 6.00376 4.87576 6.18891 5.24 6.52ZM8 12.24V14C8 14.2652 7.89464 14.5196 7.70711 14.7071C7.51957 14.8946 7.26522 15 7 15H5.24L8 12.24ZM15 2.41L13.59 1L1 13.59L2.41 15L15 2.41Z" fill="#0F1621"/>
</svg>
