<svg xmlns="http://www.w3.org/2000/svg" width="24" height="24" viewBox="0 0 24 24"><rect width="24" height="24" style="fill:none"/><path d="M6.5,14H2v2H8Zm0,0H2v2H8ZM12,11H9.45L8.59,9.82A2,2,0,0,0,6.93,9H2v2H7l2.33,3.18.71,1V20H8V18H2v2H6v1a1,1,0,0,0,1,1h3a2,2,0,0,0,2-2V15.06a1.64,1.64,0,0,0-.33-1L10.9,13H12ZM6.5,14H2v2H8Zm10-2H14v2h4Zm0,0H14v2h4ZM22,9H19.45l-.86-1.18A2,2,0,0,0,16.93,7H9l2,2h6l2.33,3.18.71,1V18H18V16H14v2h2v1a1,1,0,0,0,1,1h3a2,2,0,0,0,2-2V13.06a1.64,1.64,0,0,0-.33-1L20.9,11H22Zm-5.5,3H14v2h4ZM16,5H13.49l-.37-.55A1,1,0,0,0,12.28,4H5.72a1,1,0,0,0-.84.45L4.51,5H2L3.59,2.82A2,2,0,0,1,5.25,2h7.5a2,2,0,0,1,1.66.82L15.27,4Z"/></svg>