<svg width="24" height="24" viewBox="0 0 24 24" fill="none" xmlns="http://www.w3.org/2000/svg">
<path d="M20.7 4.7L4.7 20.7L3.3 19.3L19.3 3.3L20.7 4.7ZM11.3 9C10.1 9 9 9.7 8.6 10.8L6.9 14.3L12.2 9H11.3ZM17.7 9.2L15.9 11H16.7C17.1 11 17.5 11.2 17.6 11.6L18.7 14H12.9L10.9 16H11V18H8.9L6 20.9V21C6 21.6 6.4 22 7 22H10C10.6 22 11 21.6 11 21V20H17V21C17 21.6 17.4 22 18 22H21C21.6 22 22 21.6 22 21V16L19.4 10.8C19.1 10 18.5 9.4 17.7 9.2ZM20 18H17V16H20V18ZM3 15H5.4L7.7 10.4C8.3 9 9.8 8 11.4 8H13.2L14.2 7H5.3L6.4 4.6C6.5 4.2 6.9 4 7.3 4H12.7C13.1 4 13.5 4.2 13.6 4.6L14.5 6.6L16.1 5L15.5 3.7C15 2.7 13.9 2 12.7 2H7.3C6.1 2 5 2.7 4.6 3.8L2 9V14C2 14.6 2.4 15 3 15ZM4 9H7V11H4V9Z" fill="black"/>
</svg>
