<svg xmlns="http://www.w3.org/2000/svg" width="24" height="24" viewBox="0 0 24 24"><rect width="24" height="24" style="fill:none"/><path d="M6.43,21.82A1,1,0,0,0,7,22h3a2,2,0,0,0,2-2V16.25ZM7.3,11.45l.4.6,1.45-1.46-.56-.77A2,2,0,0,0,6.93,9H2v2H6.46A1,1,0,0,1,7.3,11.45ZM2,17.75,5.75,14H2ZM22,9H19.26L17.9,10.35,19,12H16.26L14,14.25V18h2v1a1,1,0,0,0,1,1h3a2,2,0,0,0,2-2V13.06a1.64,1.64,0,0,0-.33-1L20.9,11H22Zm-2,7H16V14h4ZM11,9l2-2H9Zm4.47-4.73L14.74,5H13.49l-.37-.55A1,1,0,0,0,12.28,4H5.72a1,1,0,0,0-.84.45L4.51,5H2L3.59,2.82A2,2,0,0,1,5.25,2h7.5a2,2,0,0,1,1.66.82L15.27,4ZM3.43,22,2,20.57,20.57,2,22,3.43Z"/></svg>