<svg width="24" height="24" viewBox="0 0 24 24" fill="none" xmlns="http://www.w3.org/2000/svg">
<path d="M18 22H6V20H18V22ZM18.26 3.70001L20 15C20 15.7957 19.6839 16.5587 19.1213 17.1213C18.5587 17.6839 17.7956 18 17 18H7C6.20435 18 5.44129 17.6839 4.87868 17.1213C4.31607 16.5587 4 15.7957 4 15L5.74 3.70001C5.81232 3.2231 6.05457 2.7884 6.42209 2.476C6.78962 2.1636 7.25767 1.99455 7.74 2.00001H16.3C16.7755 2.00414 17.2339 2.17752 17.5931 2.48906C17.9523 2.8006 18.1887 3.22991 18.26 3.70001ZM10 13H6V15H10V13ZM18 13H14V15H18V13ZM16.53 4.83001C16.4895 4.59521 16.3665 4.38259 16.1832 4.23042C15.9999 4.07825 15.7682 3.99654 15.53 4.00001H8.45C8.21177 3.99654 7.98013 4.07825 7.79679 4.23042C7.61346 4.38259 7.49048 4.59521 7.45 4.83001C7.29 5.88001 7 7.60001 7 8.00001C7 9.00001 10 11 12 11C14 11 17 9.00001 17 8.00001C17 7.60001 16.71 5.88001 16.53 4.83001Z" fill="#0F1621"/>
</svg>
