<svg width="16" height="16" viewBox="0 0 16 16" fill="none" xmlns="http://www.w3.org/2000/svg">
<path d="M13 9V5C13 4.46957 12.7893 3.96086 12.4142 3.58579C12.0391 3.21071 11.5304 3 11 3H3C2.46957 3 1.96086 3.21071 1.58579 3.58579C1.21071 3.96086 1 4.46957 1 5V11H5.05C5.13491 11.5959 5.43199 12.1412 5.88666 12.5357C6.34133 12.9301 6.92306 13.1473 7.525 13.1473C8.12694 13.1473 8.70867 12.9301 9.16334 12.5357C9.61801 12.1412 9.91509 11.5959 10 11H15V9H13ZM7.5 11.5C7.30222 11.5 7.10888 11.4414 6.94443 11.3315C6.77998 11.2216 6.65181 11.0654 6.57612 10.8827C6.50043 10.7 6.48063 10.4989 6.51921 10.3049C6.5578 10.1109 6.65304 9.93275 6.79289 9.79289C6.93275 9.65304 7.11093 9.5578 7.30491 9.51921C7.49889 9.48063 7.69996 9.50043 7.88268 9.57612C8.06541 9.65181 8.22159 9.77998 8.33147 9.94443C8.44135 10.1089 8.5 10.3022 8.5 10.5C8.5 10.7652 8.39464 11.0196 8.20711 11.2071C8.01957 11.3946 7.76522 11.5 7.5 11.5Z" fill="#0F1621"/>
</svg>
