<svg width="24" height="24" viewBox="0 0 24 24" fill="none" xmlns="http://www.w3.org/2000/svg">
<path d="M18 22H6V20H18V22ZM16.28 4.00001H7.72L6 15.11C6.02719 15.3557 6.14443 15.5827 6.32911 15.747C6.51378 15.9114 6.75279 16.0015 7 16H17C17.2472 16.0015 17.4862 15.9114 17.6709 15.747C17.8556 15.5827 17.9728 15.3557 18 15.11L16.28 4.00001ZM16.28 2.00001C16.7623 1.99455 17.2304 2.1636 17.5979 2.476C17.9654 2.7884 18.2077 3.2231 18.28 3.70001L20 15C20 15.7957 19.6839 16.5587 19.1213 17.1213C18.5587 17.6839 17.7956 18 17 18H7C6.20435 18 5.44129 17.6839 4.87868 17.1213C4.31607 16.5587 4 15.7957 4 15L5.74 3.70001C5.81232 3.2231 6.05457 2.7884 6.42209 2.476C6.78962 2.1636 7.25767 1.99455 7.74 2.00001H16.28ZM15 10V12C14.0773 12.5314 13.057 12.8715 12 13C10.943 12.8715 9.92272 12.5314 9 12V10C9.89872 10.583 10.9312 10.9271 12 11C13.0688 10.9271 14.1013 10.583 15 10Z" fill="#0F1621"/>
</svg>
