<svg width="24" height="24" viewBox="0 0 24 24" fill="none" xmlns="http://www.w3.org/2000/svg">
<path d="M18.49 5.3C18.347 4.9172 18.0901 4.5874 17.754 4.35498C17.4179 4.12256 17.0186 3.99867 16.61 4H14V2H10V4H7.39C6.98135 3.99867 6.58211 4.12256 6.24599 4.35498C5.90988 4.5874 5.65302 4.9172 5.51 5.3L4 14V16C4 16.5304 4.21071 17.0391 4.58579 17.4142C4.96086 17.7893 5.46957 18 6 18H18C18.5249 17.9825 19.0235 17.7662 19.3949 17.3949C19.7662 17.0235 19.9825 16.5249 20 16V14L18.49 5.3ZM7.28 6.83C7.32048 6.59521 7.44346 6.38258 7.62679 6.23041C7.81013 6.07825 8.04177 5.99654 8.28 6H15.76C15.9982 5.99654 16.2299 6.07825 16.4132 6.23041C16.5965 6.38258 16.7195 6.59521 16.76 6.83L17.66 12H6.38L7.28 6.83ZM10 16H6V14H10V16ZM18 16H14V14H18V16ZM18 22H6V20H18V22Z" fill="#0F1621"/>
</svg>
