<svg width="24" height="24" viewBox="0 0 24 24" fill="none" xmlns="http://www.w3.org/2000/svg">
<path d="M18 22H6V20H18V22ZM20 14V16C19.9825 16.5249 19.7662 17.0235 19.3949 17.3949C19.0235 17.7662 18.5249 17.9825 18 18H6C5.46957 18 4.96086 17.7893 4.58579 17.4142C4.21071 17.0391 4 16.5304 4 16V14L5.51 5.3C5.65302 4.9172 5.90988 4.5874 6.24599 4.35498C6.58211 4.12256 6.98135 3.99867 7.39 4H10V2H14V4H16.61C17.0186 3.99867 17.4179 4.12256 17.754 4.35498C18.0901 4.5874 18.347 4.9172 18.49 5.3L20 14ZM18 14L16.58 6H7.42L6 14V16H18V14ZM15.62 12H8.38L8 14H16L15.62 12Z" fill="#0F1621"/>
</svg>
