<svg width="16" height="16" viewBox="0 0 16 16" fill="none" xmlns="http://www.w3.org/2000/svg">
<path d="M7 2.99996V1.99996C7.00083 1.80219 7.06028 1.6091 7.17085 1.44512C7.28141 1.28113 7.43812 1.15362 7.62115 1.07869C7.80418 1.00376 8.00532 0.984795 8.19913 1.02418C8.39295 1.06357 8.57073 1.15954 8.71 1.29996C8.89474 1.48622 8.9989 1.73762 9 1.99996V2.99996C9 3.26517 8.89464 3.51953 8.70711 3.70706C8.51957 3.8946 8.26522 3.99996 8 3.99996C7.73478 3.99996 7.48043 3.8946 7.29289 3.70706C7.10536 3.51953 7 3.26517 7 2.99996ZM5 6.99996V9.99996H7V15H9V9.99996H11V6.99996C11 6.46952 10.7893 5.96082 10.4142 5.58574C10.0391 5.21067 9.53043 4.99996 9 4.99996H7C6.46957 4.99996 5.96086 5.21067 5.58579 5.58574C5.21071 5.96082 5 6.46952 5 6.99996Z" fill="#0F1621"/>
</svg>
