<svg width="16" height="16" viewBox="0 0 16 16" fill="none" xmlns="http://www.w3.org/2000/svg">
<path d="M8 4C8.26522 4 8.51957 3.89464 8.70711 3.70711C8.89464 3.51957 9 3.26522 9 3V2C9 1.73478 8.89464 1.48043 8.70711 1.29289C8.51957 1.10536 8.26522 1 8 1C7.73478 1 7.48043 1.10536 7.29289 1.29289C7.10536 1.48043 7 1.73478 7 2V3C7 3.26522 7.10536 3.51957 7.29289 3.70711C7.48043 3.89464 7.73478 4 8 4ZM8.67 6.67V9.33L12 13.33L10.67 14.67L7.75 11.17L7.33 12L4.67 14.67L3.25 13.25L6 10.58V7H4.5V9H3V7C3.04099 6.61739 3.2185 6.26236 3.5 6L4.5 5H9L10.5 6.49H13V8H10.55C10.1974 7.99976 9.85924 7.85948 9.61 7.61L8.67 6.67Z" fill="#0F1621"/>
</svg>
