<svg xmlns="http://www.w3.org/2000/svg" viewBox="0 0 24 24"><defs><style>.cls-1{fill:none;}</style></defs><g id="Layer_2" data-name="Layer 2"><g id="System_UI_Outline" data-name="System UI Outline"><g id="walking"><rect class="cls-1" width="24" height="24"/><path d="M11.5,6h0A1.5,1.5,0,0,1,10,4.5v-1A1.5,1.5,0,0,1,11.5,2h0A1.5,1.5,0,0,1,13,3.5v1A1.5,1.5,0,0,1,11.5,6ZM11,9h1l2.41,2.41a2,2,0,0,0,1.42.59H19V10H16L13,7H9v6l1,1.49-.5,2-4,4L7,22l4-4,.5-1.63L16,22l1.5-1.5-6.5-8ZM5.59,8.41A2,2,0,0,0,5,9.83V13H7V7Z"/></g></g></g></svg>