<svg width="24" height="24" viewBox="0 0 24 24" fill="none" xmlns="http://www.w3.org/2000/svg">
<path fill-rule="evenodd" clip-rule="evenodd" d="M12 18C12 16.4087 12.6321 14.8826 13.7574 13.7574C14.8826 12.6322 16.4087 12 18 12C18.7789 11.9995 19.5502 12.1524 20.27 12.45C20.419 11.814 20.4962 11.1632 20.5 10.51C20.5 8.25567 19.6045 6.09366 18.0104 4.4996C16.4163 2.90554 14.2543 2.01001 12 2.01001C9.74566 2.01001 7.58365 2.90554 5.98959 4.4996C4.39553 6.09366 3.5 8.25567 3.5 10.51C3.49968 11.6123 3.72081 12.7035 4.15026 13.7187C4.57971 14.7339 5.20874 15.6525 6 16.42L12 22.55L13.09 21.44C12.3775 20.4347 11.9965 19.2322 12 18ZM9.5 10.5C9.5 10.0056 9.64662 9.52221 9.92133 9.11108C10.196 8.69996 10.5865 8.37953 11.0433 8.19031C11.5001 8.00109 12.0028 7.95158 12.4877 8.04805C12.9727 8.14451 13.4181 8.38261 13.7678 8.73224C14.1174 9.08187 14.3555 9.52733 14.452 10.0123C14.5484 10.4972 14.4989 10.9999 14.3097 11.4567C14.1205 11.9135 13.8 12.304 13.3889 12.5787C12.9778 12.8534 12.4945 13 12 13C11.337 13 10.7011 12.7366 10.2322 12.2678C9.76339 11.7989 9.5 11.1631 9.5 10.5ZM22 19H19V22H17V19H14V17H17V14H19V17H22V19Z" fill="#0F1621"/>
</svg>
