<svg width="24" height="24" viewBox="0 0 24 24" fill="none" xmlns="http://www.w3.org/2000/svg">
<path fill-rule="evenodd" clip-rule="evenodd" d="M12 22L8.48128 18.3783C4.52539 14.3385 4.5 11.8279 4.5 9.70128C4.5 5.44797 7.86354 2 11.9928 2C16.122 2 19.5 5.44797 19.5 9.70128C19.5 10.4515 19.4968 11.2494 19.3191 12.1455C18.8947 12.0502 18.4532 12 18 12C14.6863 12 12 14.6863 12 18C12 19.1377 12.3167 20.2015 12.8667 21.108L12 22ZM12.0862 8.26437C12.484 8.26437 12.8729 8.38234 13.2037 8.60336C13.5345 8.82439 13.7923 9.13854 13.9446 9.50609C14.0968 9.87365 14.1367 10.2781 14.0591 10.6683C13.9814 11.0585 13.7899 11.4169 13.5085 11.6982C13.2272 11.9795 12.8688 12.1711 12.4786 12.2487C12.0884 12.3263 11.684 12.2865 11.3164 12.1342C10.9489 11.982 10.6347 11.7242 10.4137 11.3934C10.1927 11.0626 10.0747 10.6737 10.0747 10.2759C10.0747 9.74238 10.2866 9.23075 10.6639 8.85352C11.0411 8.47629 11.5527 8.26437 12.0862 8.26437Z" fill="#0E1520"/>
<path d="M19 17V14H17V17H14V19H17V22H19V19H22V17H19Z" fill="#0E1520"/>
</svg>
