<svg width="16" height="16" viewBox="0 0 16 16" fill="none" xmlns="http://www.w3.org/2000/svg">
<path d="M9 12.5C9.00213 13.02 9.12178 13.5328 9.35 14H4.72C4.54549 14.3023 4.29491 14.5536 3.99317 14.7291C3.69143 14.9045 3.34903 14.9979 3 15C2.46957 15 1.96086 14.7893 1.58579 14.4142C1.21071 14.0391 1 13.5304 1 13C1.00211 12.651 1.09552 12.3086 1.27095 12.0068C1.44638 11.7051 1.69772 11.4545 2 11.28V4.72C1.69772 4.54549 1.44638 4.29491 1.27095 3.99317C1.09552 3.69143 1.00211 3.34903 1 3C1 2.46957 1.21071 1.96086 1.58579 1.58579C1.96086 1.21071 2.46957 1 3 1C3.34903 1.00211 3.69143 1.09552 3.99317 1.27095C4.29491 1.44638 4.54549 1.69772 4.72 2H11.28C11.4545 1.69772 11.7051 1.44638 12.0068 1.27095C12.3086 1.09552 12.651 1.00211 13 1C13.5304 1 14.0391 1.21071 14.4142 1.58579C14.7893 1.96086 15 2.46957 15 3C14.9979 3.34903 14.9045 3.69143 14.7291 3.99317C14.5536 4.29491 14.3023 4.54549 14 4.72V9.35C13.5328 9.12178 13.02 9.00213 12.5 9V4.93C12.1561 4.84022 11.8423 4.6604 11.5909 4.40906C11.3396 4.15772 11.1598 3.84393 11.07 3.5H4.93C4.84022 3.84393 4.6604 4.15772 4.40906 4.40906C4.15772 4.6604 3.84393 4.84022 3.5 4.93V11.07C3.84393 11.1598 4.15772 11.3396 4.40906 11.5909C4.6604 11.8423 4.84022 12.1561 4.93 12.5H9ZM13 10H12V12H10V13H12V15H13V13H15V12H13V10Z" fill="#0F1621"/>
</svg>
