<svg width="16" height="16" viewBox="0 0 16 16" fill="none" xmlns="http://www.w3.org/2000/svg">
<path d="M5.5369 12.4648L8 15L8.84583 14.1294C8.62357 13.6317 8.5 13.0803 8.5 12.5C8.5 12.4427 8.5012 12.3858 8.50358 12.3291L8 12.8474L6.61274 11.4196L6.60863 11.4153C5.33061 10.1102 4.77595 9.14242 4.5172 8.41991C4.26084 7.7041 4.25 7.11921 4.25 6.3909C4.25 4.20411 5.9703 2.5 7.99494 2.5C10.0233 2.5 11.75 4.20791 11.75 6.3909C11.75 7.11922 11.7392 7.70411 11.4828 8.41992C11.4556 8.49578 11.4252 8.57435 11.391 8.65573C11.7432 8.55433 12.1152 8.5 12.5 8.5C12.6763 8.5 12.8499 8.51141 13.0202 8.53352C13.2467 7.72623 13.25 7.03352 13.25 6.3909C13.25 3.41358 10.8854 1 7.99494 1C5.10448 1 2.75 3.41358 2.75 6.3909C2.75 7.87955 2.76777 9.63697 5.5369 12.4648Z" fill="#0E1520"/>
<path d="M8.84697 5.62565C8.61525 5.47082 8.34283 5.38818 8.06414 5.38818C7.69044 5.38818 7.33204 5.53664 7.06779 5.80089C6.80354 6.06513 6.65509 6.42353 6.65509 6.79724C6.65509 7.07592 6.73773 7.34835 6.89256 7.58006C7.04739 7.81178 7.26745 7.99238 7.52492 8.09903C7.78239 8.20568 8.06571 8.23358 8.33903 8.17921C8.61236 8.12484 8.86343 7.99064 9.06049 7.79359C9.25755 7.59653 9.39175 7.34546 9.44612 7.07213C9.50049 6.7988 9.47258 6.51549 9.36594 6.25801C9.25929 6.00054 9.07869 5.78048 8.84697 5.62565Z" fill="#0E1520"/>
<path d="M13 12V10H12V12H10V13H12V15H13V13H15V12H13Z" fill="#0E1520"/>
</svg>
