<svg width="16" height="16" viewBox="0 0 16 16" fill="none" xmlns="http://www.w3.org/2000/svg">
<path fill-rule="evenodd" clip-rule="evenodd" d="M8 15L5.5369 12.4648C2.76777 9.63697 2.75 7.87955 2.75 6.3909C2.75 3.41358 5.10448 1 7.99494 1C10.8854 1 13.25 3.41358 13.25 6.3909C13.25 7.03352 13.2467 7.72623 13.0202 8.53352C12.8499 8.51141 12.6763 8.5 12.5 8.5C10.2909 8.5 8.5 10.2909 8.5 12.5C8.5 13.0803 8.62357 13.6317 8.84583 14.1294L8 15ZM8.06414 5.38819C8.34283 5.38819 8.61525 5.47083 8.84697 5.62566C9.07869 5.78048 9.25929 6.00055 9.36594 6.25802C9.47258 6.51549 9.50049 6.7988 9.44612 7.07213C9.39175 7.34546 9.25755 7.59653 9.06049 7.79359C8.86343 7.99065 8.61236 8.12485 8.33903 8.17922C8.06571 8.23358 7.78239 8.20568 7.52492 8.09903C7.26745 7.99239 7.04739 7.81178 6.89256 7.58007C6.73773 7.34835 6.65509 7.07592 6.65509 6.79724C6.65509 6.42354 6.80354 6.06514 7.06779 5.80089C7.33204 5.53664 7.69044 5.38819 8.06414 5.38819Z" fill="#0E1520"/>
<path d="M13 12V10H12V12H10V13H12V15H13V13H15V12H13Z" fill="#0E1520"/>
</svg>
