<svg width="24" height="24" viewBox="0 0 24 24" fill="none" xmlns="http://www.w3.org/2000/svg">
<path d="M8.48128 18.3783L12 22L12.8667 21.108C12.5269 20.548 12.2762 19.928 12.1341 19.2676L9.91575 16.9846L9.91025 16.979C8.07437 15.1042 7.26847 13.7046 6.89007 12.648C6.51487 11.6004 6.5 10.7433 6.5 9.70128C6.5 6.50201 9.01797 4 11.9928 4C14.9725 4 17.5 6.50708 17.5 9.70128C17.5 10.5355 17.4905 11.2512 17.2941 12.0411C17.5257 12.014 17.7612 12 18 12C18.4532 12 18.8947 12.0502 19.3191 12.1455C19.4968 11.2494 19.5 10.4515 19.5 9.70128C19.5 5.44797 16.122 2 11.9928 2C7.86354 2 4.5 5.44797 4.5 9.70128C4.5 11.8279 4.52539 14.3385 8.48128 18.3783Z" fill="#0E1520"/>
<path d="M13.2037 8.60337C12.8729 8.38235 12.484 8.26437 12.0862 8.26437C11.5527 8.26437 11.0411 8.4763 10.6639 8.85353C10.2866 9.23076 10.0747 9.74239 10.0747 10.2759C10.0747 10.6737 10.1927 11.0626 10.4137 11.3934C10.6347 11.7242 10.9489 11.982 11.3164 12.1342C11.684 12.2865 12.0884 12.3263 12.4786 12.2487C12.8688 12.1711 13.2272 11.9795 13.5085 11.6982C13.7899 11.4169 13.9814 11.0585 14.059 10.6683C14.1367 10.2781 14.0968 9.87366 13.9446 9.5061C13.7923 9.13855 13.5345 8.8244 13.2037 8.60337Z" fill="#0E1520"/>
<path d="M19 14V17H22V19H19V22H17V19H14V17H17V14H19Z" fill="#0E1520"/>
</svg>
