<svg width="24" height="24" viewBox="0 0 24 24" fill="none" xmlns="http://www.w3.org/2000/svg">
<path d="M9.86 12.71L12.71 9.86L14.14 11.29L11.29 14.14L9.86 12.71ZM11.05 17.26L9.14 19.17L7.7 17.73L9.86 15.57L8.43 14.14L6.27 16.3L4.83 14.86L14.83 4.86L16.3 6.27L14.14 8.43L15.57 9.86L17.73 7.7L19.17 9.14L16.26 12.05C16.5054 12.0184 16.7526 12.0017 17 12C17.6281 11.9979 18.2526 12.0958 18.85 12.29L22 9.14L14.86 2L2 14.86L9.14 22L11.29 19.85C11.0958 19.2526 10.9979 18.6281 11 18C11.0017 17.7526 11.0184 17.5054 11.05 17.26ZM18 14H16V17H13V19H16V22H18V19H21V17H18V14Z" fill="#0F1621"/>
</svg>
