<svg width="24" height="24" viewBox="0 0 24 24" fill="none" xmlns="http://www.w3.org/2000/svg">
<path d="M12.35 20H7.82001C7.6529 20.4797 7.36673 20.9091 6.98833 21.2479C6.60993 21.5867 6.15169 21.824 5.65657 21.9373C5.16144 22.0507 4.64563 22.0365 4.1575 21.896C3.66936 21.7556 3.22488 21.4935 2.86571 21.1343C2.50654 20.7752 2.24445 20.3307 2.104 19.8425C1.96355 19.3544 1.94934 18.8386 2.0627 18.3435C2.17606 17.8483 2.41328 17.3901 2.75213 17.0117C3.09097 16.6333 3.52035 16.3471 4.00001 16.18V7.82001C3.52035 7.6529 3.09097 7.36673 2.75213 6.98833C2.41328 6.60993 2.17606 6.15169 2.0627 5.65657C1.94934 5.16144 1.96355 4.64563 2.104 4.1575C2.24445 3.66936 2.50654 3.22488 2.86571 2.86571C3.22488 2.50654 3.66936 2.24445 4.1575 2.104C4.64563 1.96355 5.16144 1.94934 5.65657 2.0627C6.15169 2.17606 6.60993 2.41328 6.98833 2.75213C7.36673 3.09097 7.6529 3.52035 7.82001 4.00001H16.18C16.3471 3.52035 16.6333 3.09097 17.0117 2.75213C17.3901 2.41328 17.8483 2.17606 18.3435 2.0627C18.8386 1.94934 19.3544 1.96355 19.8425 2.104C20.3307 2.24445 20.7752 2.50654 21.1343 2.86571C21.4935 3.22488 21.7556 3.66936 21.896 4.1575C22.0365 4.64563 22.0507 5.16144 21.9373 5.65657C21.824 6.15169 21.5867 6.60993 21.2479 6.98833C20.9091 7.36673 20.4797 7.6529 20 7.82001V12.35C19.3581 12.1206 18.6817 12.0022 18 12V7.82001C17.5806 7.6707 17.1997 7.42991 16.8849 7.11511C16.5701 6.80032 16.3293 6.41941 16.18 6.00001H7.82001C7.6707 6.41941 7.42991 6.80032 7.11511 7.11511C6.80032 7.42991 6.41941 7.6707 6.00001 7.82001V16.18C6.41941 16.3293 6.80032 16.5701 7.11511 16.8849C7.42991 17.1997 7.6707 17.5806 7.82001 18H12C12.0022 18.6817 12.1206 19.3581 12.35 20ZM22 17H19V14H17V17H14V19H17V22H19V19H22V17Z" fill="#0F1621"/>
</svg>
