<svg width="24" height="24" viewBox="0 0 24 24" fill="none" xmlns="http://www.w3.org/2000/svg">
<path d="M8.5 10.5C8.5 11.1922 8.70527 11.8689 9.08986 12.4445C9.47444 13.0201 10.0211 13.4687 10.6606 13.7336C11.3001 13.9985 12.0039 14.0678 12.6828 13.9328C13.3617 13.7977 13.9854 13.4644 14.4749 12.9749C14.9644 12.4854 15.2977 11.8618 15.4327 11.1828C15.5678 10.5039 15.4985 9.80016 15.2336 9.16062C14.9687 8.52108 14.5201 7.97445 13.9445 7.58987C13.3689 7.20528 12.6922 7.00001 12 7.00001C11.0717 7.00001 10.1815 7.36876 9.52513 8.02514C8.86875 8.68151 8.5 9.57175 8.5 10.5ZM13.5 10.5C13.5 10.7967 13.412 11.0867 13.2472 11.3334C13.0824 11.58 12.8481 11.7723 12.574 11.8858C12.2999 11.9994 11.9983 12.0291 11.7074 11.9712C11.4164 11.9133 11.1491 11.7704 10.9393 11.5607C10.7296 11.3509 10.5867 11.0836 10.5288 10.7926C10.4709 10.5017 10.5006 10.2001 10.6142 9.92598C10.7277 9.6519 10.92 9.41763 11.1666 9.2528C11.4133 9.08798 11.7033 9.00001 12 9.00001C12.3978 9.00001 12.7794 9.15804 13.0607 9.43935C13.342 9.72065 13.5 10.1022 13.5 10.5ZM12.2 19.5C12.3772 20.1982 12.6787 20.8587 13.09 21.45L12 22.56L6 16.43C5.2089 15.6603 4.58007 14.7399 4.15068 13.7231C3.72129 12.7063 3.50004 11.6138 3.5 10.51C3.5 8.25567 4.39553 6.09366 5.98959 4.4996C7.58365 2.90554 9.74566 2.01001 12 2.01001C14.2543 2.01001 16.4163 2.90554 18.0104 4.4996C19.6045 6.09366 20.5 8.25567 20.5 10.51C20.494 11.1631 20.4168 11.8136 20.27 12.45C19.6339 12.1899 18.9568 12.0443 18.27 12.02C18.394 11.5262 18.4578 11.0192 18.46 10.51C18.46 8.7861 17.7752 7.1328 16.5562 5.91382C15.3372 4.69483 13.6839 4.01001 11.96 4.01001C10.2361 4.01001 8.58279 4.69483 7.36381 5.91382C6.14482 7.1328 5.46 8.7861 5.46 10.51C5.46602 11.3502 5.64085 12.1807 5.97412 12.952C6.30738 13.7233 6.79228 14.4198 7.4 15L12 19.7L12.2 19.5ZM22 17V19H19V22H17V19H14V17H17V14H19V17H22Z" fill="#0F1621"/>
</svg>
