<svg width="24" height="24" viewBox="0 0 24 24" fill="none" xmlns="http://www.w3.org/2000/svg">
<path d="M12.74 20.89L12 22L8 16H5C4.46957 16 3.96086 15.7893 3.58579 15.4142C3.21071 15.0391 3 14.5304 3 14V5C3 4.46957 3.21071 3.96086 3.58579 3.58579C3.96086 3.21071 4.46957 3 5 3H19C19.5304 3 20.0391 3.21071 20.4142 3.58579C20.7893 3.96086 21 4.46957 21 5V12.81C19.866 12.156 18.5493 11.8907 17.2506 12.0547C15.9518 12.2187 14.7423 12.8029 13.8066 13.7183C12.8708 14.6337 12.26 15.83 12.0675 17.1248C11.8749 18.4196 12.1111 19.7419 12.74 20.89ZM22 17H19V14H17V17H14V19H17V22H19V19H22V17Z" fill="#0F1621"/>
</svg>
