<svg width="16" height="16" viewBox="0 0 16 16" fill="none" xmlns="http://www.w3.org/2000/svg">
<path d="M3 1C2.46957 1 1.96086 1.21071 1.58579 1.58579C1.21071 1.96086 1 2.46957 1 3V13C1 13.5304 1.21071 14.0391 1.58579 14.4142C1.96086 14.7893 2.46957 15 3 15H8V1H3ZM5 9C4.80222 9 4.60888 8.94135 4.44443 8.83147C4.27998 8.72159 4.15181 8.56541 4.07612 8.38268C4.00043 8.19996 3.98063 7.99889 4.01921 7.80491C4.0578 7.61093 4.15304 7.43275 4.29289 7.29289C4.43275 7.15304 4.61093 7.0578 4.80491 7.01921C4.99889 6.98063 5.19996 7.00043 5.38268 7.07612C5.56541 7.15181 5.72159 7.27998 5.83147 7.44443C5.94135 7.60888 6 7.80222 6 8C6 8.26522 5.89464 8.51957 5.70711 8.70711C5.51957 8.89464 5.26522 9 5 9ZM10 10V6L13 3H15V10.06C14.6749 9.72569 14.2863 9.4597 13.857 9.27767C13.4277 9.09564 12.9663 9.00124 12.5 9C12.0375 8.99 11.5777 9.07341 11.1481 9.24524C10.7185 9.41706 10.3281 9.67377 10 10ZM15 13H13V15H12V13H10V12H12V10H13V12H15V13Z" fill="#0F1621"/>
</svg>
