<svg width="24" height="24" viewBox="0 0 24 24" fill="none" xmlns="http://www.w3.org/2000/svg">
<path d="M21.9999 3.55308V12.7167L18.734 16.2191C18.4733 16.4986 18.0442 16.5374 17.7376 16.3092L15.538 14.672C15.2194 14.4349 15.1409 13.9904 15.359 13.6585L21.9999 3.55308Z" fill="#0F1621"/>
<path fill-rule="evenodd" clip-rule="evenodd" d="M18 5.12117C18 5.9496 17.3284 6.62117 16.5 6.62117C15.6716 6.62117 15 5.9496 15 5.12117C15 4.29275 15.6716 3.62117 16.5 3.62117C17.3284 3.62117 18 4.29275 18 5.12117Z" fill="#0F1621"/>
<path fill-rule="evenodd" clip-rule="evenodd" d="M11.5 2.12118C12.3284 2.12118 13 2.79275 13 3.62118C13 4.4496 12.3284 5.12118 11.5 5.12118C10.6716 5.12118 10 4.4496 10 3.62118C10 2.79275 10.6716 2.12118 11.5 2.12118Z" fill="#0F1621"/>
<path fill-rule="evenodd" clip-rule="evenodd" d="M6.5 3.99999C7.32843 3.99999 8 4.67156 8 5.49999C8 6.32842 7.32843 6.99999 6.5 6.99999C5.67157 6.99999 5 6.32842 5 5.49999C5 4.67156 5.67157 3.99999 6.5 3.99999Z" fill="#0F1621"/>
<path fill-rule="evenodd" clip-rule="evenodd" d="M5 20.5C5 19.6716 5.67157 19 6.5 19C7.32843 19 8 19.6716 8 20.5C8 21.3284 7.32843 22 6.5 22C5.67157 22 5 21.3284 5 20.5Z" fill="#0F1621"/>
<path fill-rule="evenodd" clip-rule="evenodd" d="M2 10.5C2 9.67157 2.67157 9 3.5 9C4.32843 9 5 9.67157 5 10.5C5 11.3284 4.32843 12 3.5 12C2.67157 12 2 11.3284 2 10.5Z" fill="#0F1621"/>
<path fill-rule="evenodd" clip-rule="evenodd" d="M3.5 14C4.32843 14 5 14.6716 5 15.5C5 16.3284 4.32843 17 3.5 17C2.67157 17 2 16.3284 2 15.5C2 14.6716 2.67157 14 3.5 14Z" fill="#0F1621"/>
<path d="M15.3874 17.3386C16.3874 18.3386 16.3873 19.3386 15.446 20.2738C14.0034 21.7221 11.5637 22.266 10.1476 21.8085C9.9852 21.756 9.95262 21.5529 10.0708 21.4297C11.8084 19.6186 11.5444 19.0098 12.1681 17.9325C12.8873 16.3386 14.3874 16.3386 15.3874 17.3386Z" fill="#0F1621"/>
</svg>
