<svg width="24" height="24" viewBox="0 0 24 24" fill="none" xmlns="http://www.w3.org/2000/svg">
<path d="M21.9998 10.5174L21.9998 13.4499L19.0996 16.5601C18.6652 17.0259 17.95 17.0906 17.439 16.7103L15.2394 15.0731C14.7084 14.6779 14.5776 13.9371 14.9411 13.3839L21.9998 2.64273V6.28447L17.001 13.8911L18.0947 14.7051L21.9998 10.5174Z" fill="#0F1621"/>
<path d="M15.3873 17.3386C16.3873 18.3386 16.3873 19.3386 15.446 20.2738C14.0033 21.7221 11.5636 22.266 10.1475 21.8085C9.98515 21.756 9.95257 21.5528 10.0707 21.4297C11.8084 19.6185 11.5443 19.0097 12.1681 17.9325C12.8873 16.3386 14.3873 16.3386 15.3873 17.3386Z" fill="#0F1621"/>
<path fill-rule="evenodd" clip-rule="evenodd" d="M18 5.12116C18 5.94959 17.3284 6.62116 16.5 6.62116C15.6716 6.62116 15 5.94959 15 5.12116C15 4.29274 15.6716 3.62116 16.5 3.62116C17.3284 3.62116 18 4.29274 18 5.12116Z" fill="#0F1621"/>
<path fill-rule="evenodd" clip-rule="evenodd" d="M11.5 2.12117C12.3284 2.12117 13 2.79274 13 3.62117C13 4.44959 12.3284 5.12117 11.5 5.12117C10.6716 5.12117 10 4.44959 10 3.62117C10 2.79274 10.6716 2.12117 11.5 2.12117Z" fill="#0F1621"/>
<path fill-rule="evenodd" clip-rule="evenodd" d="M6.5 3.99998C7.32843 3.99998 8 4.67155 8 5.49998C8 6.32841 7.32843 6.99998 6.5 6.99998C5.67157 6.99998 5 6.32841 5 5.49998C5 4.67155 5.67157 3.99998 6.5 3.99998Z" fill="#0F1621"/>
<path fill-rule="evenodd" clip-rule="evenodd" d="M5 20.5C5 19.6716 5.67157 19 6.5 19C7.32843 19 8 19.6716 8 20.5C8 21.3284 7.32843 22 6.5 22C5.67157 22 5 21.3284 5 20.5Z" fill="#0F1621"/>
<path fill-rule="evenodd" clip-rule="evenodd" d="M2 10.5C2 9.67156 2.67157 8.99999 3.5 8.99999C4.32843 8.99999 5 9.67156 5 10.5C5 11.3284 4.32843 12 3.5 12C2.67157 12 2 11.3284 2 10.5Z" fill="#0F1621"/>
<path fill-rule="evenodd" clip-rule="evenodd" d="M3.5 14C4.32843 14 5 14.6716 5 15.5C5 16.3284 4.32843 17 3.5 17C2.67157 17 2 16.3284 2 15.5C2 14.6716 2.67157 14 3.5 14Z" fill="#0F1621"/>
</svg>
