<svg width="16" height="16" viewBox="0 0 16 16" fill="none" xmlns="http://www.w3.org/2000/svg">
<path fill-rule="evenodd" clip-rule="evenodd" d="M12 3C12 3.55228 11.5523 4 11 4C10.4477 4 10 3.55228 10 3C10 2.44772 10.4477 2 11 2C11.5523 2 12 2.44772 12 3Z" fill="#0F1621"/>
<path fill-rule="evenodd" clip-rule="evenodd" d="M7.5 1C8.05228 1 8.5 1.44772 8.5 2C8.5 2.55228 8.05228 3 7.5 3C6.94772 3 6.5 2.55228 6.5 2C6.5 1.44772 6.94772 1 7.5 1Z" fill="#0F1621"/>
<path fill-rule="evenodd" clip-rule="evenodd" d="M4 2C4.55228 2 5 2.44772 5 3C5 3.55228 4.55228 4 4 4C3.44772 4 3 3.55228 3 3C3 2.44772 3.44772 2 4 2Z" fill="#0F1621"/>
<path fill-rule="evenodd" clip-rule="evenodd" d="M3 13C3 12.4477 3.44772 12 4 12C4.55228 12 5 12.4477 5 13C5 13.5523 4.55228 14 4 14C3.44772 14 3 13.5523 3 13Z" fill="#0F1621"/>
<path fill-rule="evenodd" clip-rule="evenodd" d="M1 6.5C1 5.94772 1.44772 5.5 2 5.5C2.55228 5.5 3 5.94772 3 6.5C3 7.05228 2.55229 7.5 2 7.5C1.44772 7.5 1 7.05228 1 6.5Z" fill="#0F1621"/>
<path fill-rule="evenodd" clip-rule="evenodd" d="M2 9C2.55228 9 3 9.44772 3 10C3 10.5523 2.55228 11 2 11C1.44772 11 1 10.5523 1 10C1 9.44772 1.44772 9 2 9Z" fill="#0F1621"/>
<path d="M14.9999 1.68553V8.46845L12.8279 10.7977C12.5672 11.0771 12.1381 11.116 11.8315 10.8878L10.4656 9.87115C10.147 9.63399 10.0685 9.18955 10.2867 8.85762L14.9999 1.68553Z" fill="#0F1621"/>
<path d="M10.1652 13.5753C10.8009 12.9437 10.801 12.2683 10.1256 11.5929C9.45021 10.9175 8.43711 10.9175 7.95138 11.994C7.81885 12.2229 7.74566 12.4205 7.67106 12.6219C7.51383 13.0463 7.35031 13.4877 6.61174 14.275C6.49499 14.3994 6.52963 14.6005 6.69486 14.6431C7.66328 14.893 9.22664 14.5175 10.1652 13.5753Z" fill="#0F1621"/>
</svg>
