<svg width="24" height="24" viewBox="0 0 24 24" fill="none" xmlns="http://www.w3.org/2000/svg">
<path d="M21.71 9.57001C21.2401 7.68944 20.2338 5.98598 18.8135 4.66687C17.3932 3.34776 15.6201 2.46987 13.71 2.14001C13.1446 2.04861 12.5728 2.0018 12 2.00001C10.6221 1.99623 9.25833 2.27724 7.99419 2.82542C6.73004 3.37359 5.59282 4.1771 4.65388 5.18553C3.71493 6.19396 2.99451 7.38556 2.53782 8.68555C2.08114 9.98555 1.89803 11.3659 2 12.74C2.23158 15.2948 3.41913 17.6679 5.32512 19.3848C7.23111 21.1017 9.71501 22.0357 12.28 22C12.5531 22.0001 12.8223 21.9351 13.0653 21.8104C13.3083 21.6858 13.5181 21.5051 13.6774 21.2832C13.8367 21.0614 13.9409 20.8048 13.9813 20.5347C14.0218 20.2646 13.9973 19.9888 13.91 19.73L13.11 17.34C13.0085 17.0395 12.9799 16.7192 13.0266 16.4055C13.0733 16.0918 13.194 15.7937 13.3786 15.5358C13.5632 15.2779 13.8066 15.0676 14.0885 14.9223C14.3704 14.777 14.6828 14.7008 15 14.7C15.1479 14.7024 15.2953 14.7191 15.44 14.75L19.44 15.61C19.5804 15.6463 19.7251 15.6631 19.87 15.66C20.318 15.6591 20.7527 15.5078 21.1045 15.2304C21.4563 14.953 21.7047 14.5655 21.81 14.13C22.1213 12.6219 22.0871 11.063 21.71 9.57001ZM8 16C7.80222 16 7.60888 15.9414 7.44443 15.8315C7.27998 15.7216 7.15181 15.5654 7.07612 15.3827C7.00043 15.2 6.98063 14.9989 7.01922 14.8049C7.0578 14.6109 7.15304 14.4328 7.29289 14.2929C7.43275 14.153 7.61093 14.0578 7.80491 14.0192C7.99889 13.9806 8.19996 14.0004 8.38268 14.0761C8.56541 14.1518 8.72159 14.28 8.83147 14.4444C8.94135 14.6089 9 14.8022 9 15C9 15.2652 8.89464 15.5196 8.70711 15.7071C8.51957 15.8946 8.26522 16 8 16ZM7.5 12C7.20333 12 6.91332 11.912 6.66665 11.7472C6.41997 11.5824 6.22771 11.3481 6.11418 11.074C6.00065 10.7999 5.97095 10.4983 6.02882 10.2074C6.0867 9.9164 6.22956 9.64913 6.43934 9.43935C6.64912 9.22957 6.91639 9.08671 7.20737 9.02883C7.49834 8.97095 7.79994 9.00066 8.07403 9.11419C8.34812 9.22772 8.58238 9.41998 8.74721 9.66665C8.91203 9.91333 9 10.2033 9 10.5C9 10.8978 8.84197 11.2794 8.56066 11.5607C8.27936 11.842 7.89783 12 7.5 12ZM11 9.00001C10.7033 9.00001 10.4133 8.91203 10.1666 8.74721C9.91997 8.58239 9.72771 8.34812 9.61418 8.07403C9.50065 7.79994 9.47094 7.49834 9.52882 7.20737C9.5867 6.9164 9.72956 6.64913 9.93934 6.43935C10.1491 6.22957 10.4164 6.08671 10.7074 6.02883C10.9983 5.97095 11.2999 6.00066 11.574 6.11419C11.8481 6.22772 12.0824 6.41998 12.2472 6.66665C12.412 6.91333 12.5 7.20334 12.5 7.50001C12.5 7.89783 12.342 8.27936 12.0607 8.56067C11.7794 8.84197 11.3978 9.00001 11 9.00001ZM15.5 11C15.2033 11 14.9133 10.912 14.6666 10.7472C14.42 10.5824 14.2277 10.3481 14.1142 10.074C14.0007 9.79994 13.9709 9.49834 14.0288 9.20737C14.0867 8.9164 14.2296 8.64913 14.4393 8.43935C14.6491 8.22957 14.9164 8.08671 15.2074 8.02883C15.4983 7.97095 15.7999 8.00066 16.074 8.11419C16.3481 8.22772 16.5824 8.41998 16.7472 8.66665C16.912 8.91333 17 9.20334 17 9.50001C17 9.89783 16.842 10.2794 16.5607 10.5607C16.2794 10.842 15.8978 11 15.5 11Z" fill="#0F1621"/>
</svg>
