<svg width="16" height="16" viewBox="0 0 16 16" fill="none" xmlns="http://www.w3.org/2000/svg">
<path d="M14.93 6.99999C14.739 5.68114 14.1755 4.44421 13.3058 3.43457C12.4361 2.42492 11.2962 1.68452 10.0202 1.30036C8.74414 0.916213 7.38496 0.904277 6.10238 1.26596C4.8198 1.62764 3.66711 2.34792 2.77977 3.34213C1.89244 4.33635 1.30733 5.56319 1.09321 6.87848C0.879094 8.19376 1.04487 9.54284 1.57105 10.7672C2.09723 11.9915 2.96195 13.0402 4.06359 13.79C5.16523 14.5398 6.45801 14.9596 7.79 15C8.06394 15.0002 8.33449 14.9393 8.58189 14.8217C8.82929 14.704 9.0473 14.5326 9.22 14.32C9.33161 14.1817 9.40435 14.0161 9.43071 13.8403C9.45707 13.6646 9.43612 13.485 9.37 13.32L8.26 10.46C8.24393 10.2976 8.26782 10.1338 8.32958 9.98285C8.39135 9.83186 8.48911 9.69828 8.61436 9.59374C8.7396 9.48921 8.88851 9.41691 9.04811 9.38313C9.20771 9.34936 9.37315 9.35515 9.53 9.39999L12.35 10.19C12.6415 10.2719 12.9477 10.2865 13.2457 10.2328C13.5436 10.1791 13.8255 10.0585 14.07 9.87999L14.18 9.80999C14.4216 9.634 14.6206 9.4061 14.7625 9.14306C14.9044 8.88002 14.9856 8.58851 15 8.28999C15.0127 7.85879 14.9893 7.42728 14.93 6.99999ZM5 11C4.80222 11 4.60888 10.9413 4.44443 10.8315C4.27998 10.7216 4.15181 10.5654 4.07612 10.3827C4.00043 10.1999 3.98063 9.99888 4.01921 9.8049C4.0578 9.61091 4.15304 9.43273 4.29289 9.29288C4.43275 9.15303 4.61093 9.05779 4.80491 9.0192C4.99889 8.98062 5.19996 9.00042 5.38268 9.07611C5.56541 9.15179 5.72159 9.27997 5.83147 9.44442C5.94135 9.60886 6 9.8022 6 9.99999C6 10.2652 5.89464 10.5196 5.70711 10.7071C5.51957 10.8946 5.26522 11 5 11ZM5 6.99999C4.80222 6.99999 4.60888 6.94134 4.44443 6.83145C4.27998 6.72157 4.15181 6.56539 4.07612 6.38267C4.00043 6.19994 3.98063 5.99888 4.01921 5.80489C4.0578 5.61091 4.15304 5.43273 4.29289 5.29288C4.43275 5.15303 4.61093 5.05779 4.80491 5.0192C4.99889 4.98061 5.19996 5.00042 5.38268 5.07611C5.56541 5.15179 5.72159 5.27997 5.83147 5.44442C5.94135 5.60886 6 5.8022 6 5.99999C6 6.2652 5.89464 6.51956 5.70711 6.70709C5.51957 6.89463 5.26522 6.99999 5 6.99999ZM8 4.99999C7.80222 4.99999 7.60888 4.94134 7.44443 4.83145C7.27998 4.72157 7.15181 4.56539 7.07612 4.38267C7.00043 4.19994 6.98063 3.99888 7.01921 3.8049C7.0578 3.61091 7.15304 3.43273 7.29289 3.29288C7.43275 3.15303 7.61093 3.05779 7.80491 3.0192C7.99889 2.98061 8.19996 3.00042 8.38268 3.07611C8.56541 3.15179 8.72159 3.27997 8.83147 3.44442C8.94135 3.60886 9 3.8022 9 3.99999C9 4.2652 8.89464 4.51956 8.70711 4.70709C8.51957 4.89463 8.26522 4.99999 8 4.99999ZM11 6.99999C10.8022 6.99999 10.6089 6.94134 10.4444 6.83145C10.28 6.72157 10.1518 6.56539 10.0761 6.38267C10.0004 6.19994 9.98063 5.99888 10.0192 5.80489C10.0578 5.61091 10.153 5.43273 10.2929 5.29288C10.4327 5.15303 10.6109 5.05779 10.8049 5.0192C10.9989 4.98061 11.2 5.00042 11.3827 5.07611C11.5654 5.15179 11.7216 5.27997 11.8315 5.44442C11.9414 5.60886 12 5.8022 12 5.99999C12 6.2652 11.8946 6.51956 11.7071 6.70709C11.5196 6.89463 11.2652 6.99999 11 6.99999Z" fill="#0F1621"/>
</svg>
