<svg width="16" height="16" viewBox="0 0 16 16" fill="none" xmlns="http://www.w3.org/2000/svg">
<path d="M13 13.38L12 11H13V9.5H11.38L10 6.05C10.3364 5.60435 10.5126 5.05822 10.5 4.5C10.4985 4.01406 10.3559 3.53901 10.0897 3.13251C9.82341 2.726 9.44487 2.40554 9 2.21V1H7V2.21C6.55513 2.40554 6.17659 2.726 5.91033 3.13251C5.64406 3.53901 5.50152 4.01406 5.5 4.5C5.50169 5.06419 5.69569 5.61094 6.05 6.05L4.62 9.5H3V11H4L3 13.38V15H4L5.67 11H10.43L12.1 15H13V13.38ZM8 3.5C8.19778 3.5 8.39112 3.55865 8.55557 3.66853C8.72002 3.77841 8.84819 3.93459 8.92388 4.11732C8.99957 4.30004 9.01937 4.50111 8.98079 4.69509C8.9422 4.88907 8.84696 5.06725 8.70711 5.20711C8.56725 5.34696 8.38907 5.4422 8.19509 5.48079C8.00111 5.51937 7.80004 5.49957 7.61732 5.42388C7.43459 5.34819 7.27841 5.22002 7.16853 5.05557C7.05865 4.89112 7 4.69778 7 4.5C7 4.23478 7.10536 3.98043 7.29289 3.79289C7.48043 3.60536 7.73478 3.5 8 3.5ZM6.24 9.5L7.33 6.9C7.76668 7.03361 8.23332 7.03361 8.67 6.9L9.76 9.5H6.24Z" fill="#0F1621"/>
</svg>
