<svg width="16" height="16" viewBox="0 0 16 16" fill="none" xmlns="http://www.w3.org/2000/svg">
<path d="M15 3.49999C15.0035 3.90785 14.9063 4.31028 14.717 4.6716C14.5278 5.03293 14.2524 5.342 13.9151 5.57144C13.5779 5.80088 13.1893 5.9436 12.7837 5.98695C12.3781 6.0303 11.9681 5.97296 11.59 5.81999L9.71001 7.70999L8.29001 6.28999L10.18 4.40999C10.0424 4.06717 9.9825 3.69813 10.0046 3.3294C10.0266 2.96066 10.1301 2.6014 10.3076 2.27745C10.4851 1.9535 10.7322 1.67291 11.0311 1.45586C11.33 1.2388 11.6733 1.09069 12.0363 1.02216C12.3993 0.953629 12.7729 0.966388 13.1304 1.05952C13.4879 1.15265 13.8202 1.32384 14.1036 1.56078C14.387 1.79771 14.6144 2.09451 14.7694 2.42981C14.9244 2.76512 15.0031 3.1306 15 3.49999ZM6.29001 8.28999L4.41001 10.18C3.869 9.96369 3.26992 9.94076 2.71396 10.1151C2.15799 10.2893 1.67923 10.6502 1.35853 11.1366C1.03783 11.6231 0.89486 12.2053 0.953761 12.785C1.01266 13.3646 1.26983 13.9062 1.68182 14.3182C2.09381 14.7302 2.63538 14.9873 3.21503 15.0462C3.79469 15.1051 4.37692 14.9622 4.86336 14.6415C5.3498 14.3208 5.71065 13.842 5.88494 13.286C6.05924 12.7301 6.0363 12.131 5.82001 11.59L7.71001 9.70999L6.29001 8.28999Z" fill="#0F1621"/>
</svg>
