<svg width="16" height="16" viewBox="0 0 16 16" fill="none" xmlns="http://www.w3.org/2000/svg">
<path d="M2.70117 6.97656C3.06505 8.28519 3.90107 9.39607 5.01367 10.1172C5.00498 10.2437 5 10.3713 5 10.5C5.00001 12.2078 5.77872 13.7334 7 14.7422C6.53075 14.9081 6.02606 15 5.5 15C3.01478 14.9999 1.00001 12.9852 1 10.5C1.00001 9.07278 1.66476 7.80097 2.70117 6.97656Z" fill="#092732"/>
<path d="M13.2979 6.97656C14.3346 7.80095 15 9.07248 15 10.5C15 12.9852 12.9852 14.9999 10.5 15C9.97389 15 9.46928 14.9081 9 14.7422C10.2213 13.7334 11 12.2078 11 10.5C11 10.3716 10.994 10.2443 10.9854 10.1182C12.0985 9.39712 12.9338 8.28553 13.2979 6.97656Z" fill="#092732"/>
<path d="M9.99609 10.624C9.95524 12.1327 9.17364 13.4554 8 14.2412C6.82639 13.4554 6.04377 12.1326 6.00293 10.624C6.62215 10.8655 7.2953 11 8 11C8.70434 11 9.37714 10.8653 9.99609 10.624Z" fill="#092732"/>
<path d="M8 6.75781C8.96148 7.40142 9.66112 8.40572 9.90527 9.57715C9.32669 9.84797 8.68104 9.99998 8 10C7.31892 9.99998 6.67334 9.848 6.09473 9.57715C6.33887 8.40576 7.03856 7.40142 8 6.75781Z" fill="#092732"/>
<path d="M5.5 6C6.02596 6.00002 6.53083 6.09099 7 6.25684C6.14456 6.96328 5.50687 7.92382 5.20117 9.02246C4.39444 8.38058 3.81259 7.46827 3.59473 6.42188C4.17325 6.15113 4.81907 6.00002 5.5 6Z" fill="#092732"/>
<path d="M10.5 6C11.1809 6.00002 11.8268 6.15116 12.4053 6.42188C12.1873 7.46854 11.6049 8.38057 10.7979 9.02246C10.4921 7.9239 9.85541 6.96323 9 6.25684C9.4692 6.09097 9.97401 6.00001 10.5 6Z" fill="#092732"/>
<path d="M8 1C10.4434 1.00008 12.4299 2.94759 12.4961 5.375C11.8772 5.1338 11.2042 5.00002 10.5 5C9.59969 5.00002 8.75012 5.21706 8 5.60059C7.24991 5.21709 6.40028 5.00002 5.5 5C4.79542 5.00002 4.12206 5.13357 3.50293 5.375C3.56915 2.94757 5.55659 1.00006 8 1Z" fill="#092732"/>
</svg>
