<svg width="24" height="24" viewBox="0 0 24 24" fill="none" xmlns="http://www.w3.org/2000/svg">
<path d="M4.09099 10.7661C4.62206 12.599 5.7722 14.1674 7.30101 15.2318C7.2975 15.3306 7.29412 15.4298 7.29412 15.5294C7.29412 18.0276 8.40766 20.2645 10.1641 21.7748C9.62419 21.9209 9.05665 22 8.47059 22C4.89698 22 2 19.103 2 15.5294C2 13.645 2.80548 11.9487 4.09099 10.7661Z" fill="#092732"/>
<path d="M19.9079 10.7661C21.1937 11.9487 22 13.6447 22 15.5294C22 19.103 19.103 22 15.5294 22C14.943 22 14.375 21.921 13.8348 21.7748C15.5916 20.2645 16.7059 18.0279 16.7059 15.5294C16.7059 15.4298 16.7014 15.3306 16.6978 15.2318C18.2269 14.1674 19.3767 12.5992 19.9079 10.7661Z" fill="#092732"/>
<path d="M14.909 16.1751C14.7108 18.176 13.6002 19.9072 12 20.9511C10.3998 19.9072 9.28806 18.1761 9.08984 16.1751C9.99484 16.5171 10.9753 16.7059 12 16.7059C13.0244 16.7059 14.0043 16.5169 14.909 16.1751Z" fill="#092732"/>
<path d="M12 10.1066C13.4411 11.0464 14.4834 12.5444 14.8217 14.2943C13.9688 14.7083 13.0117 14.9412 12 14.9412C10.9879 14.9412 10.0302 14.7086 9.17716 14.2943C9.51542 12.5443 10.5589 11.0465 12 10.1066Z" fill="#092732"/>
<path d="M8.47059 9.05882C9.05655 9.05882 9.62427 9.13687 10.1641 9.28286C8.9679 10.3112 8.0714 11.677 7.6204 13.2328C6.62308 12.3151 5.91502 11.0886 5.64775 9.7045C6.50072 9.29037 7.45871 9.05882 8.47059 9.05882Z" fill="#092732"/>
<path d="M15.5294 9.05882C16.5409 9.05882 17.4984 9.29066 18.3511 9.7045C18.0837 11.0888 17.376 12.3151 16.3784 13.2328C15.9273 11.6768 15.0312 10.3112 13.8348 9.28286C14.3749 9.13669 14.9431 9.05882 15.5294 9.05882Z" fill="#092732"/>
<path d="M12 2C15.3553 2 18.1139 4.55386 18.4384 7.82376C17.5338 7.48208 16.5536 7.29412 15.5294 7.29412C14.2663 7.29412 13.0697 7.57867 12 8.08686C10.9303 7.57867 9.73368 7.29412 8.47059 7.29412C7.44599 7.29412 6.46532 7.48184 5.56043 7.82376C5.88493 4.55381 8.64467 2 12 2Z" fill="#092732"/>
</svg>
