<svg width="24" height="24" viewBox="0 0 24 24" fill="none" xmlns="http://www.w3.org/2000/svg">
<path fill-rule="evenodd" clip-rule="evenodd" d="M12 2C15.866 2 19 5.13401 19 9C19 9.08437 18.9961 9.16831 18.9932 9.25195C20.81 10.5165 22 12.6187 22 15C22 18.866 18.866 22 15 22C13.9262 22 12.9094 21.7573 12 21.3252C11.0906 21.7573 10.0738 22 9 22C5.13401 22 2 18.866 2 15C2 12.619 3.18943 10.5165 5.00586 9.25195C5.0029 9.16832 5 9.08436 5 9C5 5.13401 8.13401 2 12 2ZM5.45215 11.4775C4.55478 12.3813 4 13.6257 4 15C4 17.7614 6.23858 20 9 20C9.34284 20 9.67754 19.9651 10.001 19.8994C8.76338 18.6368 8 16.9077 8 15C8 14.9153 8.00288 14.831 8.00586 14.7471C6.85521 13.9459 5.95632 12.8093 5.45215 11.4775ZM18.5469 11.4775C18.0426 12.8094 17.144 13.9459 15.9932 14.7471C15.9961 14.831 16 14.9153 16 15C16 16.9079 15.2359 18.6368 13.998 19.8994C14.3218 19.9653 14.6568 20 15 20C17.7614 20 20 17.7614 20 15C20 13.6255 19.4445 12.3814 18.5469 11.4775ZM13.9473 15.7227C13.3289 15.9015 12.676 16 12 16C11.3237 16 10.6704 15.9016 10.0518 15.7227C10.2452 17.0592 10.9681 18.2237 12 18.999C13.0319 18.2237 13.7538 17.0591 13.9473 15.7227ZM12 11C11.131 11.6528 10.4817 12.582 10.1826 13.6572C10.7461 13.8773 11.3586 14 12 14C12.6411 14 13.2531 13.8771 13.8164 13.6572C13.5173 12.5821 12.8689 11.6527 12 11ZM9 10C8.3587 10 7.74603 10.1218 7.18262 10.3418C7.41475 11.177 7.85857 11.9235 8.45215 12.5215C8.79825 11.6076 9.32936 10.7847 10.001 10.0996C9.6776 10.0339 9.34277 10 9 10ZM15 10C14.6569 10 14.3217 10.0338 13.998 10.0996C14.6698 10.7847 15.2007 11.6075 15.5469 12.5215C16.1406 11.9235 16.5842 11.1771 16.8164 10.3418C16.2532 10.122 15.641 10 15 10ZM12 4C9.48432 4 7.40235 5.85784 7.05176 8.27637C7.67035 8.09744 8.32375 8 9 8C10.0736 8 11.0907 8.24187 12 8.67383C12.9093 8.24187 13.9264 8 15 8C15.6759 8 16.3289 8.09761 16.9473 8.27637C16.5966 5.85791 14.5156 4 12 4Z" fill="#092732"/>
</svg>
