<svg width="16" height="16" viewBox="0 0 16 16" fill="none" xmlns="http://www.w3.org/2000/svg">
<path d="M14.999 9.00616C14.999 9.00383 14.999 9.0015 14.999 8.99883C14.999 8.99617 14.999 8.99384 14.999 8.9915C14.999 8.9895 14.999 8.98751 14.9987 8.98551C14.9987 8.98251 14.998 8.97984 14.9977 8.97718C14.9977 8.97618 14.9977 8.97551 14.9977 8.97451C14.9977 8.97351 14.9973 8.97251 14.997 8.97185C14.9967 8.96885 14.996 8.96618 14.9953 8.96352C14.995 8.96152 14.9943 8.95985 14.994 8.95785C14.9933 8.95519 14.9927 8.95285 14.9917 8.95052C14.991 8.94852 14.9903 8.94652 14.9897 8.94419C14.989 8.94219 14.988 8.93986 14.987 8.93786C14.986 8.93553 14.985 8.93353 14.984 8.9312C14.983 8.9292 14.982 8.92753 14.981 8.92553C14.9797 8.9232 14.9787 8.9212 14.9773 8.91887C14.9763 8.9172 14.975 8.9152 14.974 8.91354C14.9727 8.91154 14.9713 8.90954 14.97 8.90754C14.9687 8.90587 14.9673 8.90387 14.966 8.90221C14.9647 8.90054 14.9633 8.89854 14.9617 8.89688C14.96 8.89521 14.9583 8.89321 14.957 8.89155C14.9557 8.88988 14.954 8.88855 14.9527 8.88688C14.951 8.88521 14.949 8.88322 14.947 8.88155C14.9456 8.88022 14.944 8.87888 14.9423 8.87755C14.9403 8.87589 14.9383 8.87422 14.9363 8.87289C14.9346 8.87155 14.933 8.87055 14.9313 8.86922C14.9293 8.86789 14.9273 8.86656 14.925 8.86522C14.923 8.86389 14.9213 8.86289 14.9193 8.86189C14.9173 8.86089 14.9153 8.85956 14.9133 8.85856C14.911 8.85756 14.909 8.85623 14.9066 8.85523C14.9046 8.85423 14.903 8.85356 14.901 8.85289C14.8983 8.85189 14.896 8.8509 14.8933 8.8499C14.8923 8.8499 14.8916 8.84923 14.8906 8.8489L14.885 8.84723C14.8693 8.84223 14.8526 8.83957 14.8363 8.83957C14.4445 8.83957 14.0263 8.64598 13.6889 8.30845C13.3511 7.9706 13.1571 7.5511 13.1571 7.1576C13.1571 7.1526 13.1571 7.14727 13.1564 7.14227C13.1564 7.14028 13.1557 7.13861 13.1557 7.13694C13.1554 7.13394 13.1551 7.13061 13.1544 7.12761C13.1541 7.12528 13.1534 7.12328 13.1531 7.12128C13.1524 7.11862 13.1517 7.11595 13.1511 7.11329C13.1504 7.11095 13.1497 7.10896 13.149 7.10662C13.148 7.10429 13.1474 7.10162 13.1464 7.09929C13.1454 7.09696 13.1447 7.09496 13.1437 7.09296C13.1427 7.09063 13.1417 7.0883 13.1404 7.08596C13.1394 7.08397 13.1384 7.08197 13.137 7.07997C13.1357 7.07763 13.1344 7.07564 13.133 7.0733C13.1317 7.0713 13.1307 7.06964 13.1294 7.06764C13.1277 7.06531 13.126 7.06297 13.1244 7.06097C13.123 7.05931 13.122 7.05798 13.1207 7.05631C13.1187 7.05364 13.1164 7.05131 13.114 7.04898C13.113 7.04798 13.112 7.04665 13.111 7.04565C13.104 7.03898 13.0967 7.03265 13.0887 7.02732C13.0874 7.02632 13.086 7.02566 13.0847 7.02466C13.082 7.02299 13.0794 7.02133 13.0764 7.01966C13.0744 7.01866 13.0727 7.01766 13.0707 7.01666C13.0684 7.01533 13.0657 7.01433 13.0634 7.013C13.061 7.012 13.059 7.01133 13.0567 7.01033C13.0544 7.00933 13.052 7.00866 13.0497 7.00766C13.0473 7.007 13.045 7.006 13.0423 7.00533C13.04 7.00466 13.0377 7.004 13.0353 7.00366C13.033 7.003 13.0303 7.00267 13.0277 7.002C13.0267 7.002 13.0253 7.00133 13.0243 7.00133C13.023 7.00133 13.0213 7.00133 13.02 7.001C13.0177 7.001 13.0153 7.00033 13.013 7.00033C13.0097 7.00033 13.0067 7 13.0033 7C13.002 7 13.0007 7 12.9997 7C12.999 7 12.9987 7 12.998 7C12.9943 7 12.9903 7 12.9867 7.00067C12.9853 7.00067 12.984 7.00067 12.9827 7.00067C12.978 7.00133 12.9733 7.002 12.9687 7.00267C12.9673 7.00267 12.9663 7.00333 12.965 7.00366C12.9613 7.00466 12.9573 7.00533 12.9537 7.00666C12.9513 7.00733 12.949 7.00833 12.947 7.009C12.9446 7.00966 12.9423 7.01066 12.9403 7.01133C12.938 7.01233 12.9356 7.01333 12.9333 7.01433C12.9313 7.01533 12.9293 7.01633 12.927 7.01733C12.9246 7.01833 12.9226 7.01966 12.9203 7.02099C12.9183 7.02232 12.9163 7.02332 12.9143 7.02466C12.9123 7.02599 12.9103 7.02732 12.9086 7.02865C12.9066 7.03032 12.9043 7.03165 12.9023 7.03332C12.9006 7.03465 12.899 7.03599 12.8973 7.03732C12.895 7.03932 12.893 7.04132 12.891 7.04332C12.8896 7.04465 12.8883 7.04598 12.887 7.04731C12.8846 7.04965 12.8826 7.05198 12.8806 7.05431C12.8796 7.05564 12.8783 7.05664 12.8773 7.05798C12.8753 7.06064 12.873 7.06331 12.8713 7.06631C12.8703 7.06764 12.8696 7.06864 12.8686 7.06997C12.8666 7.07297 12.865 7.07597 12.863 7.0793C12.8623 7.08063 12.8616 7.08163 12.861 7.08297C12.8586 7.0873 12.8566 7.0913 12.8546 7.09596C12.8533 7.09896 12.8523 7.10196 12.8513 7.10496C12.8506 7.10662 12.85 7.10796 12.8496 7.10962C12.8496 7.10962 12.8489 7.11129 12.8489 7.11195L12.8443 7.12695C12.8389 7.14327 12.8366 7.16027 12.8366 7.17726C12.8409 7.5601 12.6529 7.97126 12.3214 8.30512C11.992 8.63699 11.5669 8.8349 11.1841 8.8349C11.1827 8.8349 11.1814 8.8349 11.1801 8.8349C11.1634 8.8349 11.147 8.83757 11.131 8.84257L11.1087 8.8499C11.1087 8.8499 11.107 8.85056 11.106 8.8509C11.1034 8.85189 11.1007 8.8529 11.0984 8.85389C11.0964 8.85456 11.0947 8.85556 11.0927 8.85623C11.0904 8.85723 11.0884 8.85823 11.086 8.85956C11.084 8.86056 11.082 8.86156 11.08 8.86289C11.078 8.86389 11.0764 8.86522 11.0744 8.86622C11.0724 8.86756 11.07 8.86889 11.068 8.87022C11.0664 8.87122 11.0647 8.87255 11.063 8.87389C11.061 8.87555 11.0587 8.87722 11.0567 8.87888C11.055 8.88022 11.0537 8.88155 11.0524 8.88288C11.0504 8.88455 11.0487 8.88621 11.0467 8.88821C11.0453 8.88955 11.0437 8.89121 11.0423 8.89254C11.0407 8.89421 11.039 8.89621 11.0373 8.89788C11.036 8.89954 11.0343 8.90121 11.033 8.90321C11.0317 8.90487 11.0303 8.90687 11.029 8.90854C11.0277 8.91054 11.0263 8.91254 11.025 8.91454C11.0237 8.9162 11.0227 8.9182 11.0217 8.91987C11.0203 8.92187 11.0193 8.9242 11.018 8.9262C11.017 8.9282 11.016 8.9302 11.015 8.93219C11.014 8.93419 11.013 8.93653 11.012 8.93853C11.011 8.94086 11.0103 8.94286 11.0093 8.94519C11.0087 8.94719 11.008 8.94919 11.0073 8.95119C11.0067 8.95385 11.0057 8.95618 11.005 8.95885C11.0047 8.96052 11.004 8.96252 11.0037 8.96418C11.003 8.96718 11.0023 8.96985 11.002 8.97284C11.002 8.97384 11.0017 8.97451 11.0013 8.97551C11.0013 8.97651 11.0013 8.97718 11.0013 8.97818C11.001 8.98117 11.0007 8.98384 11.0003 8.98684C11.0003 8.98884 11.0003 8.99084 11 8.99284C11 8.9955 11 8.99783 11 9.0005C11 9.00283 11 9.00516 11 9.0075C11 9.00983 11 9.01183 11.0003 9.01416C11.0003 9.01683 11.001 9.01949 11.0013 9.02216C11.0013 9.02316 11.0013 9.02416 11.0013 9.02516C11.0013 9.02616 11.0017 9.02716 11.002 9.02816C11.0023 9.03082 11.003 9.03349 11.0037 9.03615C11.004 9.03815 11.0047 9.04015 11.0053 9.04248C11.006 9.04481 11.0067 9.04715 11.0073 9.04948C11.008 9.05181 11.0087 9.05381 11.0097 9.05614C11.0103 9.05814 11.0113 9.06014 11.012 9.06214C11.013 9.06447 11.014 9.06681 11.015 9.06914C11.016 9.0708 11.0167 9.0728 11.0177 9.07447C11.019 9.0768 11.02 9.07913 11.0213 9.08113C11.0223 9.0828 11.0233 9.08447 11.0247 9.08613C11.026 9.08813 11.0273 9.09046 11.029 9.09246C11.0303 9.09413 11.0317 9.09579 11.033 9.09746C11.0343 9.09946 11.036 9.10112 11.0373 9.10312C11.039 9.10479 11.0403 9.10646 11.042 9.10846C11.0433 9.11012 11.045 9.11145 11.0467 9.11312C11.0483 9.11479 11.0503 9.11645 11.052 9.11812C11.0537 9.11945 11.055 9.12078 11.0567 9.12212C11.0587 9.12378 11.0607 9.12545 11.0627 9.12678C11.0644 9.12811 11.066 9.12911 11.0677 9.13045C11.0697 9.13178 11.0717 9.13311 11.074 9.13444C11.076 9.13544 11.0777 9.13678 11.0797 9.13778C11.0817 9.13878 11.0837 9.14011 11.0857 9.14111C11.088 9.14211 11.09 9.14344 11.0924 9.14444C11.0944 9.14544 11.096 9.14611 11.098 9.14677C11.1007 9.14777 11.103 9.14877 11.1057 9.14977C11.1067 9.1501 11.1077 9.15044 11.1087 9.15077L11.1257 9.1561C11.142 9.16143 11.1591 9.1641 11.1761 9.16376C11.5665 9.15943 11.983 9.34969 12.3184 9.68588C12.6516 10.0194 12.8399 10.4319 12.8349 10.8174C12.8349 10.8347 12.8373 10.8517 12.8426 10.8684L12.8499 10.8907C12.8499 10.8907 12.8506 10.8927 12.851 10.8937C12.8516 10.896 12.8526 10.898 12.8533 10.9004C12.8543 10.9024 12.855 10.9044 12.856 10.9067C12.857 10.9087 12.8576 10.9104 12.8586 10.9124C12.8596 10.9147 12.861 10.917 12.8623 10.919C12.8633 10.9207 12.864 10.922 12.865 10.9234C12.8666 10.926 12.8683 10.9284 12.87 10.931C12.8706 10.932 12.8713 10.9334 12.8723 10.9344C12.8746 10.9374 12.877 10.9404 12.8793 10.9434C12.8796 10.9437 12.88 10.9444 12.8803 10.9447C12.8833 10.948 12.8863 10.9514 12.8893 10.9547C12.8923 10.9577 12.8953 10.9603 12.8986 10.963C12.9 10.964 12.901 10.965 12.9023 10.966C12.9043 10.9677 12.9066 10.9693 12.9086 10.971C12.9103 10.972 12.912 10.973 12.9133 10.9743C12.9153 10.9757 12.9173 10.977 12.9193 10.978C12.921 10.979 12.923 10.98 12.9246 10.981C12.9266 10.982 12.929 10.9833 12.931 10.9843C12.9326 10.9853 12.9346 10.986 12.9363 10.9867C12.9386 10.9877 12.941 10.9887 12.9436 10.9897C12.9453 10.9903 12.947 10.991 12.9486 10.9917C12.9517 10.9927 12.955 10.9937 12.958 10.9943C12.959 10.9943 12.9603 10.995 12.9613 10.9953C12.9737 10.9983 12.9863 11 12.9993 11C13.003 11 13.0063 11 13.0097 10.9997C13.0103 10.9997 13.0107 10.9997 13.0113 10.9997C13.02 10.999 13.0287 10.9977 13.0373 10.9953C13.0387 10.9953 13.0397 10.9947 13.041 10.9943C13.044 10.9933 13.047 10.9927 13.05 10.9917C13.0517 10.991 13.0534 10.9903 13.055 10.9897C13.0574 10.9887 13.0597 10.988 13.062 10.987C13.064 10.9863 13.0657 10.9853 13.0677 10.9843C13.0697 10.9833 13.0717 10.9823 13.074 10.9813C13.076 10.9803 13.0777 10.9793 13.0794 10.9783C13.0814 10.977 13.0834 10.976 13.0854 10.9747C13.087 10.9737 13.0887 10.9727 13.0904 10.9713C13.0924 10.9697 13.0947 10.9683 13.0967 10.9667C13.098 10.9657 13.0994 10.9647 13.1007 10.9637C13.1037 10.961 13.1067 10.9584 13.1097 10.9554C13.113 10.9524 13.1164 10.9487 13.119 10.9454C13.1194 10.945 13.1197 10.9444 13.1204 10.944C13.1227 10.941 13.125 10.9384 13.1274 10.9354C13.128 10.9344 13.1287 10.933 13.1297 10.932C13.1314 10.9297 13.133 10.927 13.1347 10.9244C13.1357 10.923 13.1364 10.9214 13.1374 10.9197C13.1387 10.9174 13.1397 10.915 13.141 10.913C13.142 10.911 13.1427 10.9094 13.1437 10.9074C13.1447 10.9054 13.1454 10.9034 13.1464 10.901C13.1474 10.899 13.1481 10.8967 13.1487 10.8944C13.1491 10.8934 13.1494 10.8924 13.1497 10.8914L13.1571 10.8691C13.1624 10.8531 13.1647 10.8364 13.1647 10.8197C13.1634 10.4362 13.3618 10.0097 13.6949 9.67955C14.0293 9.34802 14.4401 9.16043 14.8236 9.16476C14.8406 9.16476 14.8576 9.16243 14.874 9.1571L14.891 9.15177C14.891 9.15177 14.893 9.1511 14.894 9.15077C14.8966 9.14977 14.899 9.14877 14.9016 9.14777C14.9036 9.14711 14.9053 9.14611 14.9073 9.14544C14.9096 9.14444 14.9116 9.14344 14.914 9.14211C14.916 9.14111 14.918 9.14011 14.92 9.13878C14.922 9.13778 14.9236 9.13644 14.9256 9.13544C14.9276 9.13411 14.93 9.13278 14.932 9.13144C14.9336 9.13045 14.9353 9.12911 14.937 9.12778C14.939 9.12611 14.941 9.12478 14.943 9.12312C14.9446 9.12178 14.946 9.12045 14.9476 9.11912C14.9497 9.11745 14.9513 9.11579 14.9533 9.11412C14.955 9.11245 14.9563 9.11112 14.9577 9.10946C14.9593 9.10779 14.961 9.10612 14.9623 9.10412C14.964 9.10246 14.9653 9.10046 14.9667 9.09879C14.968 9.09713 14.9693 9.09546 14.9707 9.09346C14.972 9.09146 14.9733 9.08946 14.975 9.08713C14.976 9.08546 14.9773 9.0838 14.9783 9.0818C14.9797 9.07947 14.981 9.07747 14.982 9.07514C14.983 9.07347 14.984 9.07147 14.9847 9.06947C14.9857 9.06714 14.9867 9.06514 14.9877 9.06281C14.9887 9.06081 14.9893 9.05881 14.9903 9.05648C14.991 9.05448 14.992 9.05215 14.9927 9.05015C14.9933 9.04781 14.9943 9.04548 14.995 9.04282C14.9957 9.04082 14.996 9.03882 14.9963 9.03682C14.997 9.03415 14.9977 9.03149 14.998 9.02849C14.998 9.02749 14.9983 9.02649 14.9987 9.02549C14.9987 9.02449 14.9987 9.02349 14.9987 9.02282C14.999 9.02016 14.9993 9.01749 14.9997 9.01449C14.9997 9.01249 15 9.01016 15 9.00816L14.999 9.00616Z" fill="#0F1621"/>
<path d="M6.9985 5.00925C6.9985 5.00575 6.9985 5.00225 6.9985 4.99825C6.9985 4.99425 6.9985 4.99075 6.9985 4.98726C6.9985 4.98426 6.9985 4.98126 6.998 4.97826C6.998 4.97376 6.997 4.96976 6.9965 4.96576C6.9965 4.96427 6.9965 4.96327 6.9965 4.96177C6.9965 4.96027 6.996 4.95877 6.9955 4.95777C6.995 4.95327 6.994 4.94927 6.993 4.94527C6.9925 4.94227 6.9915 4.93978 6.991 4.93678C6.99 4.93278 6.989 4.92928 6.9875 4.92578C6.9865 4.92278 6.9855 4.91978 6.98449 4.91628C6.98349 4.91329 6.98199 4.90979 6.98049 4.90679C6.97899 4.90329 6.97749 4.90029 6.97599 4.89679C6.97449 4.89379 6.97299 4.8913 6.97149 4.8883C6.96949 4.8848 6.96799 4.8818 6.96599 4.8783C6.96449 4.8758 6.96249 4.8728 6.96099 4.8703C6.95899 4.86731 6.95699 4.86431 6.95499 4.86131C6.95298 4.85881 6.95098 4.85581 6.94898 4.85331C6.94698 4.85081 6.94498 4.84781 6.94248 4.84531C6.93998 4.84282 6.93748 4.83982 6.93548 4.83732C6.93348 4.83482 6.93098 4.83282 6.92898 4.83032C6.92648 4.82782 6.92347 4.82482 6.92047 4.82232C6.91847 4.82032 6.91597 4.81833 6.91347 4.81633C6.91047 4.81383 6.90747 4.81133 6.90447 4.80933C6.90197 4.80733 6.89947 4.80583 6.89697 4.80383C6.89396 4.80183 6.89096 4.79983 6.88746 4.79783C6.88446 4.79584 6.88196 4.79434 6.87896 4.79284C6.87596 4.79134 6.87296 4.78934 6.86996 4.78784C6.86646 4.78634 6.86346 4.78434 6.85995 4.78284C6.85695 4.78134 6.85445 4.78034 6.85145 4.77934C6.84745 4.77784 6.84395 4.77634 6.83995 4.77484C6.83845 4.77484 6.83745 4.77384 6.83595 4.77334L6.82744 4.77085C6.80394 4.76335 6.77893 4.75935 6.75442 4.75935C6.16672 4.75935 5.53951 4.46897 5.03334 3.96268C4.52668 3.45589 4.23558 2.82666 4.23558 2.2364C4.23558 2.22891 4.23558 2.22091 4.23458 2.21341C4.23458 2.21041 4.23358 2.20791 4.23358 2.20541C4.23308 2.20092 4.23258 2.19592 4.23158 2.19142C4.23108 2.18792 4.23008 2.18492 4.22958 2.18192C4.22858 2.17793 4.22758 2.17393 4.22658 2.16993C4.22558 2.16643 4.22457 2.16343 4.22357 2.15993C4.22207 2.15644 4.22107 2.15244 4.21957 2.14894C4.21807 2.14544 4.21707 2.14244 4.21557 2.13944C4.21407 2.13594 4.21257 2.13244 4.21057 2.12895C4.20907 2.12595 4.20757 2.12295 4.20557 2.11995C4.20357 2.11645 4.20157 2.11345 4.19957 2.10995C4.19757 2.10696 4.19607 2.10446 4.19406 2.10146C4.19156 2.09796 4.18906 2.09446 4.18656 2.09146C4.18456 2.08896 4.18306 2.08696 4.18106 2.08446C4.17806 2.08047 4.17456 2.07697 4.17106 2.07347C4.16956 2.07197 4.16806 2.06997 4.16656 2.06847C4.15605 2.05848 4.14505 2.04898 4.13304 2.04098C4.13104 2.03948 4.12904 2.03848 4.12704 2.03698C4.12304 2.03449 4.11904 2.03199 4.11454 2.02949C4.11154 2.02799 4.10904 2.02649 4.10604 2.02499C4.10253 2.02299 4.09853 2.02149 4.09503 2.01949C4.09153 2.01799 4.08853 2.01699 4.08503 2.01549C4.08153 2.01399 4.07803 2.013 4.07453 2.0115C4.07102 2.0105 4.06752 2.009 4.06352 2.008C4.06002 2.007 4.05652 2.006 4.05302 2.0055C4.04952 2.0045 4.04552 2.004 4.04151 2.003C4.04001 2.003 4.03801 2.002 4.03651 2.002C4.03451 2.002 4.03201 2.002 4.03001 2.0015C4.02651 2.0015 4.02301 2.0005 4.01951 2.0005C4.0145 2.0005 4.01 2 4.005 2C4.003 2 4.001 2 3.9995 2C3.9985 2 3.998 2 3.997 2C3.9915 2 3.9855 2 3.97999 2.001C3.97799 2.001 3.97599 2.001 3.97399 2.001C3.96699 2.002 3.95999 2.003 3.95298 2.004C3.95098 2.004 3.94948 2.005 3.94748 2.0055C3.94198 2.007 3.93598 2.008 3.93048 2.01C3.92698 2.011 3.92347 2.0125 3.92047 2.01349C3.91697 2.01449 3.91347 2.01599 3.91047 2.01699C3.90697 2.01849 3.90347 2.01999 3.89997 2.02149C3.89697 2.02299 3.89396 2.02449 3.89046 2.02599C3.88696 2.02749 3.88396 2.02949 3.88046 2.03149C3.87746 2.03349 3.87446 2.03499 3.87146 2.03698C3.86846 2.03898 3.86546 2.04098 3.86295 2.04298C3.85995 2.04548 3.85645 2.04748 3.85345 2.04998C3.85095 2.05198 3.84845 2.05398 3.84595 2.05598C3.84245 2.05898 3.83945 2.06197 3.83645 2.06497C3.83445 2.06697 3.83244 2.06897 3.83044 2.07097C3.82694 2.07447 3.82394 2.07797 3.82094 2.08147C3.81944 2.08347 3.81744 2.08496 3.81594 2.08696C3.81294 2.09096 3.80944 2.09496 3.80694 2.09946C3.80544 2.10146 3.80443 2.10296 3.80293 2.10496C3.79993 2.10945 3.79743 2.11395 3.79443 2.11895C3.79343 2.12095 3.79243 2.12245 3.79143 2.12445C3.78793 2.13095 3.78493 2.13694 3.78193 2.14394C3.77993 2.14844 3.77843 2.15294 3.77693 2.15743C3.77593 2.15993 3.77493 2.16193 3.77443 2.16443V2.16593C3.77443 2.16593 3.77342 2.16693 3.77342 2.16793L3.76642 2.19042C3.75842 2.21491 3.75492 2.2404 3.75492 2.26589C3.76142 2.84015 3.47933 3.45689 2.98216 3.95768C2.488 4.45548 1.85028 4.75235 1.27609 4.75235C1.27409 4.75235 1.27209 4.75235 1.27009 4.75235C1.24508 4.75235 1.22057 4.75635 1.19657 4.76385L1.16305 4.77484C1.16305 4.77484 1.16055 4.77584 1.15905 4.77634C1.15505 4.77784 1.15105 4.77934 1.14755 4.78084C1.14455 4.78184 1.14205 4.78334 1.13905 4.78434C1.13555 4.78584 1.13254 4.78734 1.12904 4.78934C1.12604 4.79084 1.12304 4.79234 1.12004 4.79434C1.11704 4.79583 1.11454 4.79783 1.11154 4.79933C1.10854 4.80133 1.10503 4.80333 1.10203 4.80533C1.09953 4.80683 1.09703 4.80883 1.09453 4.81083C1.09153 4.81333 1.08803 4.81583 1.08503 4.81833C1.08253 4.82033 1.08053 4.82232 1.07853 4.82432C1.07553 4.82682 1.07302 4.82932 1.07002 4.83232C1.06802 4.83432 1.06552 4.83682 1.06352 4.83882C1.06102 4.84132 1.05852 4.84431 1.05602 4.84681C1.05402 4.84931 1.05152 4.85181 1.04952 4.85481C1.04752 4.85731 1.04551 4.86031 1.04351 4.86281C1.04151 4.86581 1.03951 4.8688 1.03751 4.8718C1.03551 4.8743 1.03401 4.8773 1.03251 4.8798C1.03051 4.8828 1.02901 4.8863 1.02701 4.8893C1.02551 4.8923 1.02401 4.89529 1.02251 4.89829C1.02101 4.90129 1.01951 4.90479 1.01801 4.90779C1.01651 4.91129 1.01551 4.91429 1.014 4.91778C1.013 4.92078 1.012 4.92378 1.011 4.92678C1.01 4.93078 1.0085 4.93428 1.0075 4.93828C1.007 4.94077 1.006 4.94377 1.0055 4.94627C1.0045 4.95077 1.0035 4.95477 1.003 4.95927C1.003 4.96077 1.0025 4.96177 1.002 4.96327C1.002 4.96476 1.002 4.96576 1.002 4.96726C1.0015 4.97176 1.001 4.97576 1.0005 4.98026C1.0005 4.98326 1.0005 4.98626 1 4.98925C1 4.99325 1 4.99675 1 5.00075C1 5.00425 1 5.00775 1 5.01124C1 5.01474 1 5.01774 1.0005 5.02124C1.0005 5.02524 1.0015 5.02924 1.002 5.03324C1.002 5.03474 1.002 5.03624 1.002 5.03773C1.002 5.03923 1.0025 5.04073 1.003 5.04223C1.0035 5.04623 1.0045 5.05023 1.0055 5.05423C1.006 5.05723 1.007 5.06022 1.008 5.06372C1.009 5.06722 1.01 5.07072 1.011 5.07422C1.012 5.07772 1.013 5.08072 1.0145 5.08421C1.0155 5.08721 1.01701 5.09021 1.01801 5.09321C1.01951 5.09671 1.02101 5.10021 1.02251 5.10371C1.02401 5.10621 1.02501 5.1092 1.02651 5.1117C1.02851 5.1152 1.03001 5.1187 1.03201 5.1217C1.03351 5.1242 1.03501 5.1267 1.03701 5.1292C1.03901 5.13219 1.04101 5.13569 1.04351 5.13869C1.04551 5.14119 1.04752 5.14369 1.04952 5.14619C1.05152 5.14919 1.05402 5.15169 1.05602 5.15469C1.05852 5.15718 1.06052 5.15968 1.06302 5.16268C1.06502 5.16518 1.06752 5.16718 1.07002 5.16968C1.07252 5.17218 1.07553 5.17468 1.07803 5.17718C1.08053 5.17918 1.08253 5.18117 1.08503 5.18317C1.08803 5.18567 1.09103 5.18817 1.09403 5.19017C1.09653 5.19217 1.09903 5.19367 1.10153 5.19567C1.10453 5.19767 1.10754 5.19967 1.11104 5.20167C1.11404 5.20317 1.11654 5.20516 1.11954 5.20666C1.12254 5.20816 1.12554 5.21016 1.12854 5.21166C1.13204 5.21316 1.13505 5.21516 1.13855 5.21666C1.14155 5.21816 1.14405 5.21916 1.14705 5.22016C1.15105 5.22166 1.15455 5.22316 1.15855 5.22466C1.16005 5.22516 1.16155 5.22566 1.16305 5.22616L1.18856 5.23415C1.21307 5.24215 1.23858 5.24615 1.26409 5.24565C1.84978 5.23915 2.47449 5.52453 2.97766 6.02882C3.47733 6.52911 3.75992 7.14785 3.75242 7.72611C3.75242 7.7521 3.75592 7.77759 3.76392 7.80258L3.77492 7.83607C3.77492 7.83607 3.77593 7.83907 3.77643 7.84057C3.77743 7.84407 3.77893 7.84706 3.77993 7.85056C3.78143 7.85356 3.78243 7.85656 3.78393 7.86006C3.78543 7.86306 3.78643 7.86556 3.78793 7.86855C3.78943 7.87205 3.79143 7.87555 3.79343 7.87855C3.79493 7.88105 3.79593 7.88305 3.79743 7.88505C3.79993 7.88905 3.80243 7.89254 3.80494 7.89654C3.80594 7.89804 3.80694 7.90004 3.80844 7.90154C3.81194 7.90604 3.81544 7.91054 3.81894 7.91503C3.81944 7.91553 3.81994 7.91653 3.82044 7.91703C3.82494 7.92203 3.82944 7.92703 3.83395 7.93203C3.83845 7.93653 3.84295 7.94052 3.84795 7.94452C3.84995 7.94602 3.85145 7.94752 3.85345 7.94902C3.85645 7.95152 3.85995 7.95402 3.86295 7.95652C3.86546 7.95802 3.86796 7.95952 3.86996 7.96152C3.87296 7.96351 3.87596 7.96551 3.87896 7.96701C3.88146 7.96851 3.88446 7.97001 3.88696 7.97151C3.88996 7.97301 3.89346 7.97501 3.89647 7.97651C3.89897 7.97801 3.90197 7.97901 3.90447 7.98001C3.90797 7.98151 3.91147 7.98301 3.91547 7.98451C3.91797 7.98551 3.92047 7.98651 3.92297 7.98751C3.92748 7.989 3.93248 7.9905 3.93698 7.9915C3.93848 7.9915 3.94048 7.9925 3.94198 7.993C3.96049 7.9975 3.97949 8 3.999 8C4.0045 8 4.0095 8 4.01451 7.9995C4.01551 7.9995 4.01601 7.9995 4.01701 7.9995C4.03001 7.9985 4.04301 7.9965 4.05602 7.993C4.05802 7.993 4.05952 7.992 4.06152 7.9915C4.06602 7.99 4.07052 7.989 4.07503 7.98751C4.07753 7.98651 4.08003 7.98551 4.08253 7.98451C4.08603 7.98301 4.08953 7.98201 4.09303 7.98051C4.09603 7.97951 4.09853 7.97801 4.10153 7.97651C4.10453 7.97501 4.10754 7.97351 4.11104 7.97201C4.11404 7.97051 4.11654 7.96901 4.11904 7.96751C4.12204 7.96551 4.12504 7.96401 4.12804 7.96202C4.13054 7.96052 4.13304 7.95902 4.13555 7.95702C4.13855 7.95452 4.14205 7.95252 4.14505 7.95002C4.14705 7.94852 4.14905 7.94702 4.15105 7.94552C4.15555 7.94152 4.16005 7.93753 4.16456 7.93303C4.16956 7.92853 4.17456 7.92303 4.17856 7.91803C4.17906 7.91753 4.17956 7.91653 4.18056 7.91603C4.18406 7.91154 4.18756 7.90754 4.19106 7.90304C4.19206 7.90154 4.19306 7.89954 4.19456 7.89804C4.19707 7.89454 4.19957 7.89054 4.20207 7.88655C4.20357 7.88455 4.20457 7.88205 4.20607 7.87955C4.20807 7.87605 4.20957 7.87255 4.21157 7.86955C4.21307 7.86655 4.21407 7.86406 4.21557 7.86106C4.21707 7.85806 4.21807 7.85506 4.21957 7.85156C4.22107 7.84856 4.22207 7.84506 4.22307 7.84157C4.22357 7.84007 4.22407 7.83857 4.22458 7.83707L4.23558 7.80358C4.24358 7.77959 4.24708 7.7546 4.24708 7.72961C4.24508 7.15435 4.54268 6.51462 5.04235 6.01933C5.54402 5.52203 6.16022 5.24065 6.73541 5.24715C6.76092 5.24715 6.78643 5.24365 6.81094 5.23565L6.83645 5.22765C6.83645 5.22765 6.83945 5.22666 6.84095 5.22616C6.84495 5.22466 6.84845 5.22316 6.85245 5.22166C6.85545 5.22066 6.85795 5.21916 6.86095 5.21816C6.86445 5.21666 6.86746 5.21516 6.87096 5.21316C6.87396 5.21166 6.87696 5.21016 6.87996 5.20816C6.88296 5.20666 6.88546 5.20466 6.88846 5.20317C6.89146 5.20117 6.89497 5.19917 6.89797 5.19717C6.90047 5.19567 6.90297 5.19367 6.90547 5.19167C6.90847 5.18917 6.91147 5.18717 6.91447 5.18467C6.91697 5.18267 6.91897 5.18067 6.92147 5.17868C6.92448 5.17618 6.92698 5.17368 6.92998 5.17118C6.93248 5.16868 6.93448 5.16668 6.93648 5.16418C6.93898 5.16168 6.94148 5.15918 6.94348 5.15619C6.94598 5.15369 6.94798 5.15069 6.94998 5.14819C6.95198 5.14569 6.95398 5.14319 6.95599 5.14019C6.95799 5.13719 6.95999 5.13419 6.96249 5.1307C6.96399 5.1282 6.96599 5.1257 6.96749 5.1227C6.96949 5.1192 6.97149 5.1162 6.97299 5.1127C6.97449 5.1102 6.97599 5.1072 6.97699 5.10421C6.97849 5.10071 6.97999 5.09771 6.98149 5.09421C6.98299 5.09121 6.984 5.08821 6.9855 5.08471C6.9865 5.08172 6.988 5.07822 6.989 5.07522C6.99 5.07172 6.9915 5.06822 6.9925 5.06422C6.9935 5.06122 6.994 5.05823 6.9945 5.05523C6.9955 5.05123 6.9965 5.04723 6.997 5.04273C6.997 5.04123 6.9975 5.03973 6.998 5.03823C6.998 5.03673 6.998 5.03524 6.998 5.03424C6.9985 5.03024 6.999 5.02624 6.9995 5.02174C6.9995 5.01874 7 5.01524 7 5.01224L6.9985 5.00925Z" fill="#0F1621"/>
<path d="M9.99925 2.50462C9.99925 2.50287 9.99925 2.50112 9.99925 2.49913C9.99925 2.49713 9.99925 2.49538 9.99925 2.49363C9.99925 2.49213 9.99925 2.49063 9.999 2.48913C9.999 2.48688 9.9985 2.48488 9.99825 2.48288C9.99825 2.48213 9.99825 2.48163 9.99825 2.48088C9.99825 2.48013 9.998 2.47938 9.99775 2.47888C9.9975 2.47663 9.997 2.47464 9.9965 2.47264C9.99625 2.47114 9.99575 2.46989 9.9955 2.46839C9.995 2.46639 9.9945 2.46464 9.99375 2.46289C9.99325 2.46139 9.99275 2.45989 9.99225 2.45814C9.99175 2.45664 9.991 2.45489 9.99025 2.45339C9.9895 2.45165 9.98875 2.45015 9.988 2.4484C9.98725 2.4469 9.9865 2.44565 9.98575 2.44415C9.98475 2.4424 9.98399 2.4409 9.98299 2.43915C9.98224 2.4379 9.98124 2.4364 9.98049 2.43515C9.97949 2.43365 9.97849 2.43215 9.97749 2.43065C9.97649 2.4294 9.97549 2.42791 9.97449 2.42666C9.97349 2.42541 9.97249 2.42391 9.97124 2.42266C9.96999 2.42141 9.96874 2.41991 9.96774 2.41866C9.96674 2.41741 9.96549 2.41641 9.96449 2.41516C9.96324 2.41391 9.96174 2.41241 9.96024 2.41116C9.95924 2.41016 9.95799 2.40916 9.95674 2.40816C9.95524 2.40691 9.95373 2.40566 9.95223 2.40466C9.95098 2.40367 9.94973 2.40292 9.94848 2.40192C9.94698 2.40092 9.94548 2.39992 9.94373 2.39892C9.94223 2.39792 9.94098 2.39717 9.93948 2.39642C9.93798 2.39567 9.93648 2.39467 9.93498 2.39392C9.93323 2.39317 9.93173 2.39217 9.92998 2.39142C9.92848 2.39067 9.92723 2.39017 9.92572 2.38967C9.92372 2.38892 9.92197 2.38817 9.91997 2.38742C9.91922 2.38742 9.91872 2.38692 9.91797 2.38667L9.91372 2.38542C9.90197 2.38167 9.88946 2.37968 9.87721 2.37968C9.58336 2.37968 9.26976 2.23449 9.01667 1.98134C8.76334 1.72795 8.61779 1.41333 8.61779 1.1182C8.61779 1.11445 8.61779 1.11045 8.61729 1.10671C8.61729 1.10521 8.61679 1.10396 8.61679 1.10271C8.61654 1.10046 8.61629 1.09796 8.61579 1.09571C8.61554 1.09396 8.61504 1.09246 8.61479 1.09096C8.61429 1.08896 8.61379 1.08696 8.61329 1.08496C8.61279 1.08322 8.61229 1.08172 8.61179 1.07997C8.61104 1.07822 8.61054 1.07622 8.60979 1.07447C8.60904 1.07272 8.60854 1.07122 8.60779 1.06972C8.60704 1.06797 8.60629 1.06622 8.60529 1.06447C8.60453 1.06297 8.60378 1.06147 8.60278 1.05998C8.60178 1.05823 8.60078 1.05673 8.59978 1.05498C8.59878 1.05348 8.59803 1.05223 8.59703 1.05073C8.59578 1.04898 8.59453 1.04723 8.59328 1.04573C8.59228 1.04448 8.59153 1.04348 8.59053 1.04223C8.58903 1.04023 8.58728 1.03848 8.58553 1.03673C8.58478 1.03599 8.58403 1.03499 8.58328 1.03424C8.57803 1.02924 8.57252 1.02449 8.56652 1.02049C8.56552 1.01974 8.56452 1.01924 8.56352 1.01849C8.56152 1.01724 8.55952 1.01599 8.55727 1.01474C8.55577 1.01399 8.55452 1.01324 8.55302 1.01249C8.55127 1.0115 8.54927 1.01075 8.54752 1.00975C8.54577 1.009 8.54426 1.0085 8.54251 1.00775C8.54076 1.007 8.53901 1.0065 8.53726 1.00575C8.53551 1.00525 8.53376 1.0045 8.53176 1.004C8.53001 1.0035 8.52826 1.003 8.52651 1.00275C8.52476 1.00225 8.52276 1.002 8.52076 1.0015C8.52001 1.0015 8.51901 1.001 8.51826 1.001C8.51726 1.001 8.51601 1.001 8.51501 1.00075C8.51325 1.00075 8.5115 1.00025 8.50975 1.00025C8.50725 1.00025 8.505 1 8.5025 1C8.5015 1 8.5005 1 8.49975 1C8.49925 1 8.499 1 8.4985 1C8.49575 1 8.49275 1 8.49 1.0005C8.489 1.0005 8.488 1.0005 8.487 1.0005C8.48349 1.001 8.47999 1.0015 8.47649 1.002C8.47549 1.002 8.47474 1.0025 8.47374 1.00275C8.47099 1.0035 8.46799 1.004 8.46524 1.005C8.46349 1.0055 8.46174 1.00625 8.46024 1.00675C8.45849 1.00725 8.45674 1.008 8.45524 1.0085C8.45348 1.00925 8.45173 1.01 8.44998 1.01075C8.44848 1.0115 8.44698 1.01225 8.44523 1.01299C8.44348 1.01374 8.44198 1.01474 8.44023 1.01574C8.43873 1.01674 8.43723 1.01749 8.43573 1.01849C8.43423 1.01949 8.43273 1.02049 8.43148 1.02149C8.42998 1.02274 8.42823 1.02374 8.42673 1.02499C8.42548 1.02599 8.42422 1.02699 8.42297 1.02799C8.42122 1.02949 8.41972 1.03099 8.41822 1.03249C8.41722 1.03349 8.41622 1.03449 8.41522 1.03549C8.41347 1.03723 8.41197 1.03898 8.41047 1.04073C8.40972 1.04173 8.40872 1.04248 8.40797 1.04348C8.40647 1.04548 8.40472 1.04748 8.40347 1.04973C8.40272 1.05073 8.40222 1.05148 8.40147 1.05248C8.39997 1.05473 8.39872 1.05698 8.39722 1.05948C8.39672 1.06047 8.39622 1.06122 8.39572 1.06222C8.39396 1.06547 8.39246 1.06847 8.39096 1.07197C8.38996 1.07422 8.38921 1.07647 8.38846 1.07872C8.38796 1.07997 8.38746 1.08097 8.38721 1.08222C8.38721 1.08222 8.38671 1.08347 8.38671 1.08397L8.38321 1.09521C8.37921 1.10746 8.37746 1.1202 8.37746 1.13294C8.38071 1.42008 8.23966 1.72845 7.99108 1.97884C7.744 2.22774 7.42514 2.37618 7.13805 2.37618C7.13705 2.37618 7.13605 2.37618 7.13505 2.37618C7.12254 2.37618 7.11029 2.37818 7.09828 2.38192L7.08153 2.38742C7.08153 2.38742 7.08028 2.38792 7.07953 2.38817C7.07753 2.38892 7.07552 2.38967 7.07377 2.39042C7.07227 2.39092 7.07102 2.39167 7.06952 2.39217C7.06777 2.39292 7.06627 2.39367 7.06452 2.39467C7.06302 2.39542 7.06152 2.39617 7.06002 2.39717C7.05852 2.39792 7.05727 2.39892 7.05577 2.39967C7.05427 2.40067 7.05252 2.40167 7.05102 2.40267C7.04977 2.40342 7.04852 2.40441 7.04727 2.40541C7.04577 2.40666 7.04401 2.40791 7.04251 2.40916C7.04126 2.41016 7.04026 2.41116 7.03926 2.41216C7.03776 2.41341 7.03651 2.41466 7.03501 2.41616C7.03401 2.41716 7.03276 2.41841 7.03176 2.41941C7.03051 2.42066 7.02926 2.42216 7.02801 2.42341C7.02701 2.42466 7.02576 2.42591 7.02476 2.42741C7.02376 2.42865 7.02276 2.43015 7.02176 2.4314C7.02076 2.4329 7.01976 2.4344 7.01876 2.4359C7.01776 2.43715 7.01701 2.43865 7.01626 2.4399C7.01526 2.4414 7.0145 2.44315 7.0135 2.44465C7.01275 2.44615 7.012 2.44765 7.01125 2.44915C7.0105 2.45065 7.00975 2.45239 7.009 2.45389C7.00825 2.45564 7.00775 2.45714 7.007 2.45889C7.0065 2.46039 7.006 2.46189 7.0055 2.46339C7.005 2.46539 7.00425 2.46714 7.00375 2.46914C7.0035 2.47039 7.003 2.47189 7.00275 2.47314C7.00225 2.47539 7.00175 2.47738 7.0015 2.47963C7.0015 2.48038 7.00125 2.48088 7.001 2.48163C7.001 2.48238 7.001 2.48288 7.001 2.48363C7.00075 2.48588 7.0005 2.48788 7.00025 2.49013C7.00025 2.49163 7.00025 2.49313 7 2.49463C7 2.49663 7 2.49838 7 2.50037C7 2.50212 7 2.50387 7 2.50562C7 2.50737 7 2.50887 7.00025 2.51062C7.00025 2.51262 7.00075 2.51462 7.001 2.51662C7.001 2.51737 7.001 2.51812 7.001 2.51887C7.001 2.51962 7.00125 2.52037 7.0015 2.52112C7.00175 2.52312 7.00225 2.52511 7.00275 2.52711C7.003 2.52861 7.0035 2.53011 7.004 2.53186C7.0045 2.53361 7.005 2.53536 7.0055 2.53711C7.006 2.53886 7.0065 2.54036 7.00725 2.54211C7.00775 2.54361 7.0085 2.54511 7.009 2.54661C7.00975 2.54835 7.0105 2.5501 7.01125 2.55185C7.012 2.5531 7.0125 2.5546 7.01325 2.55585C7.01425 2.5576 7.01501 2.55935 7.01601 2.56085C7.01676 2.5621 7.01751 2.56335 7.01851 2.5646C7.01951 2.5661 7.02051 2.56785 7.02176 2.56935C7.02276 2.5706 7.02376 2.57185 7.02476 2.57309C7.02576 2.57459 7.02701 2.57584 7.02801 2.57734C7.02926 2.57859 7.03026 2.57984 7.03151 2.58134C7.03251 2.58259 7.03376 2.58359 7.03501 2.58484C7.03626 2.58609 7.03776 2.58734 7.03901 2.58859C7.04026 2.58959 7.04126 2.59059 7.04251 2.59159C7.04401 2.59284 7.04552 2.59409 7.04702 2.59509C7.04827 2.59608 7.04952 2.59683 7.05077 2.59783C7.05227 2.59883 7.05377 2.59983 7.05552 2.60083C7.05702 2.60158 7.05827 2.60258 7.05977 2.60333C7.06127 2.60408 7.06277 2.60508 7.06427 2.60583C7.06602 2.60658 7.06752 2.60758 7.06927 2.60833C7.07077 2.60908 7.07202 2.60958 7.07352 2.61008C7.07553 2.61083 7.07728 2.61158 7.07928 2.61233C7.08003 2.61258 7.08078 2.61283 7.08153 2.61308L7.09428 2.61708C7.10654 2.62107 7.11929 2.62307 7.13204 2.62282C7.42489 2.61958 7.73725 2.76227 7.98883 3.01441C8.23866 3.26456 8.37996 3.57393 8.37621 3.86306C8.37621 3.87605 8.37796 3.8888 8.38196 3.90129L8.38746 3.91803C8.38746 3.91803 8.38796 3.91953 8.38821 3.92028C8.38871 3.92203 8.38946 3.92353 8.38996 3.92528C8.39071 3.92678 8.39121 3.92828 8.39196 3.93003C8.39271 3.93153 8.39321 3.93278 8.39396 3.93428C8.39472 3.93603 8.39572 3.93778 8.39672 3.93927C8.39747 3.94052 8.39797 3.94152 8.39872 3.94252C8.39997 3.94452 8.40122 3.94627 8.40247 3.94827C8.40297 3.94902 8.40347 3.95002 8.40422 3.95077C8.40597 3.95302 8.40772 3.95527 8.40947 3.95752C8.40972 3.95777 8.40997 3.95827 8.41022 3.95852C8.41247 3.96102 8.41472 3.96351 8.41697 3.96601C8.41922 3.96826 8.42147 3.97026 8.42397 3.97226C8.42498 3.97301 8.42573 3.97376 8.42673 3.97451C8.42823 3.97576 8.42998 3.97701 8.43148 3.97826C8.43273 3.97901 8.43398 3.97976 8.43498 3.98076C8.43648 3.98176 8.43798 3.98276 8.43948 3.98351C8.44073 3.98426 8.44223 3.98501 8.44348 3.98576C8.44498 3.98651 8.44673 3.98751 8.44823 3.98826C8.44948 3.989 8.45098 3.9895 8.45223 3.99C8.45398 3.99075 8.45574 3.9915 8.45774 3.99225C8.45899 3.99275 8.46024 3.99325 8.46149 3.99375C8.46374 3.9945 8.46624 3.99525 8.46849 3.99575C8.46924 3.99575 8.47024 3.99625 8.47099 3.9965C8.48024 3.99875 8.48975 4 8.4995 4C8.50225 4 8.50475 4 8.50725 3.99975C8.50775 3.99975 8.508 3.99975 8.5085 3.99975C8.51501 3.99925 8.52151 3.99825 8.52801 3.9965C8.52901 3.9965 8.52976 3.996 8.53076 3.99575C8.53301 3.995 8.53526 3.9945 8.53751 3.99375C8.53876 3.99325 8.54001 3.99275 8.54126 3.99225C8.54301 3.9915 8.54476 3.991 8.54652 3.99025C8.54802 3.98975 8.54927 3.989 8.55077 3.98826C8.55227 3.98751 8.55377 3.98676 8.55552 3.98601C8.55702 3.98526 8.55827 3.98451 8.55952 3.98376C8.56102 3.98276 8.56252 3.98201 8.56402 3.98101C8.56527 3.98026 8.56652 3.97951 8.56777 3.97851C8.56927 3.97726 8.57102 3.97626 8.57252 3.97501C8.57352 3.97426 8.57452 3.97351 8.57553 3.97276C8.57778 3.97076 8.58003 3.96876 8.58228 3.96651C8.58478 3.96427 8.58728 3.96152 8.58928 3.95902C8.58953 3.95877 8.58978 3.95827 8.59028 3.95802C8.59203 3.95577 8.59378 3.95377 8.59553 3.95152C8.59603 3.95077 8.59653 3.94977 8.59728 3.94902C8.59853 3.94727 8.59978 3.94527 8.60103 3.94327C8.60178 3.94227 8.60228 3.94102 8.60303 3.93977C8.60403 3.93803 8.60479 3.93628 8.60579 3.93478C8.60654 3.93328 8.60704 3.93203 8.60779 3.93053C8.60854 3.92903 8.60904 3.92753 8.60979 3.92578C8.61054 3.92428 8.61104 3.92253 8.61154 3.92078C8.61179 3.92003 8.61204 3.91928 8.61229 3.91853L8.61779 3.90179C8.62179 3.8898 8.62354 3.8773 8.62354 3.86481C8.62254 3.57718 8.77134 3.25731 9.02117 3.00966C9.27201 2.76102 9.58011 2.62032 9.86771 2.62357C9.88046 2.62357 9.89321 2.62182 9.90547 2.61783L9.91822 2.61383C9.91822 2.61383 9.91972 2.61333 9.92047 2.61308C9.92247 2.61233 9.92422 2.61158 9.92623 2.61083C9.92773 2.61033 9.92898 2.60958 9.93048 2.60908C9.93223 2.60833 9.93373 2.60758 9.93548 2.60658C9.93698 2.60583 9.93848 2.60508 9.93998 2.60408C9.94148 2.60333 9.94273 2.60233 9.94423 2.60158C9.94573 2.60058 9.94748 2.59958 9.94898 2.59858C9.95023 2.59783 9.95148 2.59683 9.95273 2.59583C9.95424 2.59459 9.95574 2.59359 9.95724 2.59234C9.95849 2.59134 9.95949 2.59034 9.96074 2.58934C9.96224 2.58809 9.96349 2.58684 9.96499 2.58559C9.96624 2.58434 9.96724 2.58334 9.96824 2.58209C9.96949 2.58084 9.97074 2.57959 9.97174 2.57809C9.97299 2.57684 9.97399 2.57534 9.97499 2.57409C9.97599 2.57284 9.97699 2.5716 9.97799 2.5701C9.97899 2.5686 9.97999 2.5671 9.98124 2.56535C9.98199 2.5641 9.98299 2.56285 9.98374 2.56135C9.98474 2.5596 9.98575 2.5581 9.9865 2.55635C9.98725 2.5551 9.988 2.5536 9.9885 2.5521C9.98925 2.55035 9.99 2.54885 9.99075 2.54711C9.9915 2.54561 9.992 2.54411 9.99275 2.54236C9.99325 2.54086 9.994 2.53911 9.9945 2.53761C9.995 2.53586 9.99575 2.53411 9.99625 2.53211C9.99675 2.53061 9.997 2.52911 9.99725 2.52761C9.99775 2.52561 9.99825 2.52362 9.9985 2.52137C9.9985 2.52062 9.99875 2.51987 9.999 2.51912C9.999 2.51837 9.999 2.51762 9.999 2.51712C9.99925 2.51512 9.9995 2.51312 9.99975 2.51087C9.99975 2.50937 10 2.50762 10 2.50612L9.99925 2.50462Z" fill="#0F1621"/>
<path d="M1.35355 13.8536C1.15829 13.6583 1.15829 13.3417 1.35355 13.1464L10.25 4.25L11.75 5.75L2.85355 14.6464C2.65829 14.8417 2.34171 14.8417 2.14645 14.6464L1.35355 13.8536Z" fill="#0F1621"/>
<path d="M11 3.5L13.1464 1.35355C13.3417 1.15829 13.6583 1.15829 13.8535 1.35355L14.6464 2.14645C14.8417 2.34171 14.8417 2.65829 14.6464 2.85355L12.5 5L11 3.5Z" fill="#0F1621"/>
</svg>
