<svg width="24" height="24" viewBox="0 0 24 24" fill="none" xmlns="http://www.w3.org/2000/svg">
<path d="M21.9985 14.0092C21.9985 14.0057 21.9985 14.0022 21.9985 13.9983C21.9985 13.9943 21.9985 13.9908 21.9985 13.9873C21.9985 13.9843 21.9985 13.9813 21.998 13.9783C21.998 13.9738 21.997 13.9698 21.9965 13.9658V13.9618L21.9955 13.9578C21.995 13.9533 21.994 13.9493 21.993 13.9453C21.9925 13.9423 21.9915 13.9398 21.991 13.9368C21.99 13.9328 21.989 13.9293 21.9875 13.9258C21.9865 13.9228 21.9855 13.9198 21.9845 13.9163C21.9835 13.9133 21.982 13.9098 21.9805 13.9068C21.979 13.9033 21.9775 13.9003 21.976 13.8968C21.9745 13.8938 21.973 13.8913 21.9715 13.8883C21.9695 13.8848 21.968 13.8818 21.966 13.8783C21.9645 13.8758 21.9625 13.8728 21.961 13.8703C21.959 13.8673 21.957 13.8643 21.955 13.8613C21.953 13.8588 21.951 13.8558 21.949 13.8533C21.947 13.8508 21.945 13.8478 21.9425 13.8453C21.94 13.8428 21.9375 13.8398 21.9355 13.8373C21.9335 13.8348 21.931 13.8328 21.929 13.8303C21.9265 13.8278 21.9235 13.8248 21.9205 13.8223C21.9185 13.8203 21.916 13.8183 21.9135 13.8163C21.9105 13.8138 21.9075 13.8113 21.9045 13.8093C21.902 13.8073 21.8995 13.8058 21.897 13.8038C21.894 13.8018 21.891 13.7998 21.8875 13.7978C21.8845 13.7958 21.882 13.7943 21.879 13.7928C21.876 13.7913 21.873 13.7893 21.87 13.7878C21.8665 13.7863 21.8635 13.7843 21.86 13.7828C21.857 13.7813 21.8545 13.7803 21.8514 13.7793C21.8474 13.7778 21.8439 13.7763 21.8399 13.7748L21.8359 13.7733L21.8274 13.7708C21.8039 13.7633 21.7789 13.7593 21.7544 13.7593C21.1667 13.7593 20.5395 13.469 20.0333 12.9627C19.5267 12.4559 19.2356 11.8267 19.2356 11.2364C19.2356 11.2289 19.2356 11.2209 19.2346 11.2134C19.2346 11.2104 19.2336 11.2079 19.2336 11.2054C19.2331 11.2009 19.2326 11.1959 19.2316 11.1914C19.2311 11.1879 19.2301 11.1849 19.2296 11.1819C19.2286 11.1779 19.2276 11.1739 19.2266 11.1699C19.2256 11.1664 19.2246 11.1634 19.2236 11.1599C19.2221 11.1564 19.2211 11.1524 19.2196 11.1489C19.2181 11.1454 19.2171 11.1424 19.2156 11.1394C19.2141 11.1359 19.2126 11.1324 19.2106 11.1289C19.2091 11.1259 19.2076 11.1229 19.2056 11.12C19.2036 11.1165 19.2016 11.1135 19.1996 11.11C19.1976 11.107 19.1961 11.1045 19.1941 11.1015C19.1916 11.098 19.1891 11.0945 19.1866 11.0915C19.1846 11.089 19.1831 11.087 19.1811 11.0845C19.1781 11.0805 19.1746 11.077 19.1711 11.0735C19.1696 11.072 19.1681 11.07 19.1666 11.0685C19.1561 11.0585 19.145 11.049 19.133 11.041C19.131 11.0395 19.129 11.0385 19.127 11.037C19.123 11.0345 19.119 11.032 19.1145 11.0295C19.1115 11.028 19.109 11.0265 19.106 11.025C19.1025 11.023 19.0985 11.0215 19.095 11.0195C19.0915 11.018 19.0885 11.017 19.085 11.0155C19.0815 11.014 19.078 11.013 19.0745 11.0115C19.071 11.0105 19.0675 11.009 19.0635 11.008C19.06 11.007 19.0565 11.006 19.053 11.0055C19.0495 11.0045 19.0455 11.004 19.0415 11.003L19.0365 11.002C19.0345 11.002 19.032 11.002 19.03 11.0015C19.0265 11.0015 19.023 11.0005 19.0195 11.0005C19.0145 11.0005 19.01 11 19.005 11C19.003 11 18.9995 11 18.9995 11H18.997C18.9915 11 18.9855 11 18.98 11.001C18.978 11.001 18.976 11.001 18.974 11.001C18.967 11.002 18.96 11.003 18.953 11.004C18.951 11.004 18.9495 11.005 18.9475 11.0055C18.942 11.007 18.936 11.008 18.9305 11.01C18.927 11.011 18.9235 11.0125 18.9205 11.0135C18.917 11.0145 18.9135 11.016 18.9105 11.017C18.907 11.0185 18.9035 11.02 18.9 11.0215C18.897 11.023 18.894 11.0245 18.8905 11.026C18.887 11.0275 18.884 11.0295 18.8805 11.0315C18.8775 11.0335 18.8745 11.035 18.8715 11.037C18.8685 11.039 18.8655 11.041 18.863 11.043C18.86 11.0455 18.8565 11.0475 18.8535 11.05C18.8509 11.052 18.8485 11.054 18.8459 11.056C18.8424 11.059 18.8394 11.062 18.8364 11.065C18.8344 11.067 18.8324 11.069 18.8304 11.071C18.8269 11.0745 18.8239 11.078 18.8209 11.0815C18.8194 11.0835 18.8174 11.085 18.8159 11.087C18.8129 11.091 18.8094 11.095 18.8069 11.0995C18.8054 11.1015 18.8044 11.103 18.8029 11.105C18.7999 11.1095 18.7974 11.114 18.7944 11.119C18.7934 11.121 18.7924 11.1224 18.7914 11.1244C18.7879 11.1309 18.7849 11.1369 18.7819 11.1439C18.7799 11.1484 18.7784 11.1529 18.7769 11.1574C18.7759 11.1599 18.7749 11.1619 18.7744 11.1644V11.1659L18.7734 11.1679L18.7664 11.1904C18.7584 11.2149 18.7549 11.2404 18.7549 11.2659C18.7614 11.8401 18.4793 12.4569 17.9822 12.9577C17.488 13.4555 16.8503 13.7524 16.2761 13.7524C16.2741 13.7524 16.2721 13.7524 16.2701 13.7524C16.2451 13.7524 16.2206 13.7564 16.1966 13.7638L16.1631 13.7748L16.1591 13.7763C16.1551 13.7778 16.151 13.7793 16.1475 13.7808C16.1445 13.7818 16.142 13.7833 16.139 13.7843C16.1355 13.7858 16.1325 13.7873 16.129 13.7893C16.126 13.7908 16.123 13.7923 16.12 13.7943C16.117 13.7958 16.1145 13.7978 16.1115 13.7993C16.1085 13.8013 16.105 13.8033 16.102 13.8053C16.0995 13.8068 16.097 13.8088 16.0945 13.8108C16.0915 13.8133 16.088 13.8158 16.085 13.8183C16.0825 13.8203 16.0805 13.8223 16.0785 13.8243C16.0755 13.8268 16.073 13.8293 16.07 13.8323C16.068 13.8343 16.0655 13.8368 16.0635 13.8388C16.061 13.8413 16.0585 13.8443 16.056 13.8468C16.054 13.8493 16.0515 13.8518 16.0495 13.8548C16.0475 13.8573 16.0455 13.8603 16.0435 13.8628C16.0415 13.8658 16.0395 13.8688 16.0375 13.8718C16.0355 13.8743 16.034 13.8773 16.0325 13.8798C16.0305 13.8828 16.029 13.8863 16.027 13.8893C16.0255 13.8923 16.024 13.8953 16.0225 13.8983C16.021 13.9013 16.0195 13.9048 16.018 13.9078C16.0165 13.9113 16.0155 13.9143 16.014 13.9178C16.013 13.9208 16.012 13.9238 16.011 13.9268C16.01 13.9308 16.0085 13.9343 16.0075 13.9383C16.007 13.9408 16.006 13.9438 16.0055 13.9463C16.0045 13.9508 16.0035 13.9548 16.003 13.9593L16.002 13.9633V13.9673C16.0015 13.9718 16.001 13.9758 16.0005 13.9803C16.0005 13.9833 16.0005 13.9863 16 13.9893C16 13.9933 16 13.9968 16 14.0007C16 14.0042 16 14.0077 16 14.0112C16 14.0147 16 14.0177 16.0005 14.0212C16.0005 14.0252 16.0015 14.0292 16.002 14.0332V14.0377L16.003 14.0422C16.0035 14.0462 16.0045 14.0502 16.0055 14.0542C16.006 14.0572 16.007 14.0602 16.008 14.0637C16.009 14.0672 16.01 14.0707 16.011 14.0742C16.012 14.0777 16.013 14.0807 16.0145 14.0842C16.0155 14.0872 16.017 14.0902 16.018 14.0932C16.0195 14.0967 16.021 14.1002 16.0225 14.1037C16.024 14.1062 16.025 14.1092 16.0265 14.1117C16.0285 14.1152 16.03 14.1187 16.032 14.1217C16.0335 14.1242 16.035 14.1267 16.037 14.1292C16.039 14.1322 16.041 14.1357 16.0435 14.1387C16.0455 14.1412 16.0475 14.1437 16.0495 14.1462C16.0515 14.1492 16.054 14.1517 16.056 14.1547C16.0585 14.1572 16.0605 14.1597 16.063 14.1627C16.065 14.1652 16.0675 14.1672 16.07 14.1697C16.0725 14.1722 16.0755 14.1747 16.078 14.1772C16.0805 14.1792 16.0825 14.1812 16.085 14.1832C16.088 14.1857 16.091 14.1882 16.094 14.1902C16.0965 14.1922 16.099 14.1937 16.1015 14.1957C16.1045 14.1977 16.1075 14.1997 16.111 14.2017C16.114 14.2032 16.1165 14.2052 16.1195 14.2067C16.1225 14.2082 16.1255 14.2102 16.1285 14.2117C16.132 14.2132 16.135 14.2152 16.1385 14.2167C16.1415 14.2182 16.144 14.2192 16.147 14.2202C16.1511 14.2217 16.1546 14.2232 16.1586 14.2247L16.1631 14.2262L16.1886 14.2342C16.2131 14.2421 16.2386 14.2461 16.2641 14.2456C16.8498 14.2392 17.4745 14.5245 17.9777 15.0288C18.4773 15.5291 18.7599 16.1479 18.7524 16.7261C18.7524 16.7521 18.7559 16.7776 18.7639 16.8026L18.7749 16.8361L18.7764 16.8406C18.7774 16.8441 18.7789 16.8471 18.7799 16.8506C18.7814 16.8536 18.7824 16.8566 18.7839 16.8601C18.7854 16.8631 18.7864 16.8656 18.7879 16.8686C18.7894 16.8721 18.7914 16.8756 18.7934 16.8785C18.7949 16.881 18.7959 16.883 18.7974 16.885C18.7999 16.889 18.8024 16.8925 18.8049 16.8965C18.8049 16.8965 18.8069 16.9 18.8084 16.9015C18.8119 16.906 18.8154 16.9105 18.8189 16.915L18.8204 16.917C18.8249 16.922 18.8294 16.927 18.8339 16.932C18.8384 16.9365 18.8429 16.9405 18.8479 16.9445C18.85 16.946 18.8515 16.9475 18.8535 16.949C18.8565 16.9515 18.86 16.954 18.863 16.9565C18.8655 16.958 18.868 16.9595 18.87 16.9615C18.873 16.9635 18.876 16.9655 18.879 16.967C18.8815 16.9685 18.8845 16.97 18.887 16.9715C18.89 16.973 18.8935 16.975 18.8965 16.9765C18.899 16.978 18.902 16.979 18.9045 16.98C18.908 16.9815 18.9115 16.983 18.9155 16.9845C18.918 16.9855 18.9205 16.9865 18.923 16.9875C18.9275 16.989 18.9325 16.9905 18.937 16.9915L18.942 16.993C18.9605 16.9975 18.9795 17 18.999 17C19.0045 17 19.0095 17 19.0145 16.9995H19.017C19.03 16.9985 19.043 16.9965 19.056 16.993C19.058 16.993 19.0595 16.992 19.0615 16.9915C19.066 16.99 19.0705 16.989 19.075 16.9875C19.0775 16.9865 19.08 16.9855 19.0825 16.9845C19.086 16.983 19.0895 16.982 19.093 16.9805C19.096 16.9795 19.0985 16.978 19.1015 16.9765C19.1045 16.975 19.1075 16.9735 19.111 16.972C19.114 16.9705 19.1165 16.969 19.119 16.9675C19.122 16.9655 19.125 16.964 19.128 16.962C19.1305 16.9605 19.133 16.959 19.1355 16.957C19.1385 16.9545 19.142 16.9525 19.145 16.95C19.147 16.9485 19.149 16.947 19.1511 16.9455C19.1556 16.9415 19.1601 16.9375 19.1646 16.933C19.1696 16.9285 19.1746 16.923 19.1786 16.918L19.1806 16.916C19.1841 16.9115 19.1876 16.9075 19.1911 16.903C19.1911 16.903 19.1931 16.8995 19.1946 16.898C19.1971 16.8945 19.1996 16.8905 19.2021 16.8865C19.2036 16.8845 19.2046 16.882 19.2061 16.8796C19.2081 16.8761 19.2096 16.8726 19.2116 16.8696C19.2131 16.8666 19.2141 16.8641 19.2156 16.8611C19.2171 16.8581 19.2181 16.8551 19.2196 16.8516C19.2211 16.8486 19.2221 16.8451 19.2231 16.8416L19.2246 16.8371L19.2356 16.8036C19.2436 16.7796 19.2471 16.7546 19.2471 16.7296C19.2451 16.1544 19.5427 15.5146 20.0423 15.0193C20.544 14.522 21.1602 14.2406 21.7354 14.2471C21.7609 14.2471 21.7864 14.2436 21.8109 14.2357L21.8364 14.2277L21.8409 14.2262C21.8449 14.2247 21.8484 14.2232 21.8525 14.2217C21.8555 14.2207 21.858 14.2192 21.861 14.2182C21.8645 14.2167 21.8675 14.2152 21.871 14.2132C21.874 14.2117 21.877 14.2102 21.88 14.2082C21.883 14.2067 21.8855 14.2047 21.8885 14.2032C21.8915 14.2012 21.895 14.1992 21.898 14.1972C21.9005 14.1957 21.903 14.1937 21.9055 14.1917C21.9085 14.1892 21.9115 14.1872 21.9145 14.1847C21.917 14.1827 21.919 14.1807 21.9215 14.1787C21.9245 14.1762 21.927 14.1737 21.93 14.1712C21.9325 14.1687 21.9345 14.1667 21.9365 14.1642C21.939 14.1617 21.9415 14.1592 21.9435 14.1562C21.946 14.1537 21.948 14.1507 21.95 14.1482C21.952 14.1457 21.954 14.1432 21.956 14.1402C21.958 14.1372 21.96 14.1342 21.9625 14.1307C21.964 14.1282 21.966 14.1257 21.9675 14.1227C21.9695 14.1192 21.9715 14.1162 21.973 14.1127C21.9745 14.1102 21.976 14.1072 21.977 14.1042C21.9785 14.1007 21.98 14.0977 21.9815 14.0942C21.983 14.0912 21.984 14.0882 21.9855 14.0847C21.9865 14.0817 21.988 14.0782 21.989 14.0752C21.99 14.0717 21.9915 14.0682 21.9925 14.0642C21.9935 14.0612 21.994 14.0582 21.9945 14.0552C21.9955 14.0512 21.9965 14.0472 21.997 14.0427L21.998 14.0382V14.0342C21.9985 14.0302 21.999 14.0262 21.9995 14.0217C21.9995 14.0187 22 14.0152 22 14.0122L21.9985 14.0092Z" fill="#0F1621"/>
<path d="M10.9977 7.51387C10.9977 7.50862 10.9977 7.50337 10.9977 7.49738C10.9977 7.49138 10.9977 7.48613 10.9977 7.48088C10.9977 7.47638 10.9978 7.47189 10.997 7.46739C10.997 7.46064 10.9955 7.45464 10.9948 7.44865C10.9948 7.4464 10.9948 7.4449 10.9948 7.44265C10.9948 7.4404 10.994 7.43815 10.9932 7.43665C10.9925 7.4299 10.991 7.42391 10.9895 7.41791C10.9887 7.41341 10.9872 7.40966 10.9865 7.40516C10.985 7.39917 10.9835 7.39392 10.9812 7.38867C10.9797 7.38417 10.9782 7.37968 10.9767 7.37443C10.9752 7.36993 10.973 7.36468 10.9707 7.36018C10.9685 7.35494 10.9662 7.35044 10.964 7.34519C10.9617 7.34069 10.9595 7.33694 10.9572 7.33245C10.9542 7.3272 10.952 7.3227 10.949 7.31745C10.9467 7.3137 10.9437 7.3092 10.9415 7.30546C10.9385 7.30096 10.9355 7.29646 10.9325 7.29196C10.9295 7.28821 10.9265 7.28372 10.9235 7.27997C10.9205 7.27622 10.9175 7.27172 10.9137 7.26797C10.91 7.26422 10.9062 7.25973 10.9032 7.25598C10.9002 7.25223 10.8965 7.24923 10.8935 7.24548C10.8897 7.24173 10.8852 7.23723 10.8807 7.23349C10.8777 7.23049 10.874 7.22749 10.8702 7.22449C10.8657 7.22074 10.8612 7.21699 10.8567 7.21399C10.853 7.211 10.8492 7.20875 10.8454 7.20575C10.8409 7.20275 10.8364 7.19975 10.8312 7.19675C10.8267 7.19375 10.8229 7.1915 10.8184 7.18925C10.8139 7.18701 10.8094 7.18401 10.8049 7.18176C10.7997 7.17951 10.7952 7.17651 10.7899 7.17426C10.7854 7.17201 10.7817 7.17051 10.7772 7.16901C10.7712 7.16676 10.7659 7.16451 10.7599 7.16227C10.7577 7.16227 10.7562 7.16077 10.7539 7.16002L10.7412 7.15627C10.7059 7.14502 10.6684 7.13903 10.6316 7.13903C9.75008 7.13903 8.80927 6.70346 8.05002 5.94402C7.29001 5.18384 6.85337 4.23998 6.85337 3.3546C6.85337 3.34336 6.85337 3.33136 6.85187 3.32012C6.85187 3.31562 6.85037 3.31187 6.85037 3.30812C6.84962 3.30137 6.84887 3.29388 6.84737 3.28713C6.84662 3.28188 6.84512 3.27739 6.84437 3.27289C6.84287 3.26689 6.84136 3.26089 6.83986 3.25489C6.83836 3.24965 6.83686 3.24515 6.83536 3.2399C6.83311 3.23465 6.83161 3.22866 6.82936 3.22341C6.82711 3.21816 6.82561 3.21366 6.82336 3.20916C6.82111 3.20392 6.81886 3.19867 6.81586 3.19342C6.81361 3.18892 6.81135 3.18442 6.80835 3.17993C6.80535 3.17468 6.80235 3.17018 6.79935 3.16493C6.79635 3.16043 6.7941 3.15669 6.7911 3.15219C6.78735 3.14694 6.7836 3.14169 6.77984 3.13719C6.77684 3.13344 6.77459 3.13045 6.77159 3.1267C6.76709 3.1207 6.76184 3.11545 6.75659 3.1102C6.75433 3.10796 6.75208 3.10496 6.74983 3.10271C6.73408 3.08771 6.71757 3.07347 6.69957 3.06147C6.69657 3.05923 6.69357 3.05773 6.69056 3.05548C6.68456 3.05173 6.67856 3.04798 6.67181 3.04423C6.66731 3.04198 6.66356 3.03973 6.65905 3.03748C6.6538 3.03449 6.6478 3.03224 6.64255 3.02924C6.6373 3.02699 6.63279 3.02549 6.62754 3.02324C6.62229 3.02099 6.61704 3.01949 6.61179 3.01724C6.60654 3.01574 6.60128 3.01349 6.59528 3.012C6.59003 3.0105 6.58478 3.009 6.57953 3.00825C6.57427 3.00675 6.56827 3.006 6.56227 3.0045C6.56002 3.0045 6.55702 3.003 6.55477 3.003C6.55177 3.003 6.54802 3.003 6.54502 3.00225C6.53976 3.00225 6.53451 3.00075 6.52926 3.00075C6.52176 3.00075 6.51501 3 6.5075 3C6.5045 3 6.5015 3 6.49925 3C6.49775 3 6.497 3 6.4955 3C6.48725 3 6.47824 3 6.46999 3.0015C6.46699 3.0015 6.46399 3.0015 6.46099 3.0015C6.45048 3.003 6.43998 3.0045 6.42948 3.006C6.42648 3.006 6.42422 3.0075 6.42122 3.00825C6.41297 3.0105 6.40397 3.012 6.39572 3.01499C6.39046 3.01649 6.38521 3.01874 6.38071 3.02024C6.37546 3.02174 6.37021 3.02399 6.36571 3.02549C6.36045 3.02774 6.3552 3.02999 6.34995 3.03224C6.34545 3.03449 6.34095 3.03673 6.3357 3.03898C6.33044 3.04123 6.32594 3.04423 6.32069 3.04723C6.31619 3.05023 6.31169 3.05248 6.30719 3.05548C6.30269 3.05848 6.29818 3.06147 6.29443 3.06447C6.28993 3.06822 6.28468 3.07122 6.28018 3.07497C6.27643 3.07797 6.27267 3.08097 6.26892 3.08397C6.26367 3.08846 6.25917 3.09296 6.25467 3.09746C6.25167 3.10046 6.24867 3.10346 6.24567 3.10646C6.24041 3.1117 6.23591 3.11695 6.23141 3.1222C6.22916 3.1252 6.22616 3.12745 6.22391 3.13045C6.21941 3.13644 6.21415 3.14244 6.2104 3.14919C6.20815 3.15219 6.20665 3.15444 6.2044 3.15743C6.1999 3.16418 6.19615 3.17093 6.19165 3.17843C6.19015 3.18142 6.18865 3.18367 6.18715 3.18667C6.18189 3.19642 6.17739 3.20541 6.17289 3.21591C6.16989 3.22266 6.16764 3.22941 6.16539 3.23615C6.16389 3.2399 6.16239 3.2429 6.16164 3.24665V3.2489C6.16164 3.2489 6.16014 3.2504 6.16014 3.2519L6.14963 3.28563C6.13763 3.32237 6.13238 3.3606 6.13238 3.39883C6.14213 4.26023 5.71899 5.18534 4.97324 5.93653C4.23199 6.68322 3.27543 7.12853 2.41414 7.12853C2.41114 7.12853 2.40814 7.12853 2.40513 7.12853C2.36762 7.12853 2.33086 7.13453 2.29485 7.14577L2.24458 7.16227C2.24458 7.16227 2.24083 7.16376 2.23858 7.16451C2.23258 7.16676 2.22658 7.16901 2.22132 7.17126C2.21682 7.17276 2.21307 7.17501 2.20857 7.17651C2.20332 7.17876 2.19882 7.18101 2.19356 7.18401C2.18906 7.18626 2.18456 7.1885 2.18006 7.1915C2.17556 7.19375 2.17181 7.19675 2.16731 7.199C2.1628 7.202 2.15755 7.205 2.15305 7.208C2.1493 7.21025 2.14555 7.21324 2.1418 7.21624C2.1373 7.21999 2.13204 7.22374 2.12754 7.22749C2.12379 7.23049 2.12079 7.23349 2.11779 7.23649C2.11329 7.24023 2.10954 7.24398 2.10503 7.24848C2.10203 7.25148 2.09828 7.25523 2.09528 7.25823C2.09153 7.26197 2.08778 7.26647 2.08403 7.27022C2.08103 7.27397 2.07728 7.27772 2.07428 7.28222C2.07127 7.28596 2.06827 7.29046 2.06527 7.29421C2.06227 7.29871 2.05927 7.30321 2.05627 7.3077C2.05327 7.31145 2.05102 7.31595 2.04877 7.3197C2.04576 7.3242 2.04351 7.32945 2.04051 7.33394C2.03826 7.33844 2.03601 7.34294 2.03376 7.34744C2.03151 7.35194 2.02926 7.35718 2.02701 7.36168C2.02476 7.36693 2.02326 7.37143 2.02101 7.37668C2.01951 7.38117 2.01801 7.38567 2.01651 7.39017C2.01501 7.39617 2.01275 7.40142 2.01125 7.40741C2.0105 7.41116 2.009 7.41566 2.00825 7.41941C2.00675 7.42616 2.00525 7.43215 2.0045 7.4389C2.0045 7.44115 2.00375 7.44265 2.003 7.4449C2.003 7.44715 2.003 7.44865 2.003 7.4509C2.00225 7.45764 2.0015 7.46364 2.00075 7.47039C2.00075 7.47489 2.00075 7.47938 2 7.48388C2 7.48988 2 7.49513 2 7.50112C2 7.50637 2 7.51162 2 7.51687C2 7.52211 2 7.52661 2.00075 7.53186C2.00075 7.53786 2.00225 7.54386 2.003 7.54985C2.003 7.5521 2.003 7.55435 2.003 7.5566C2.003 7.55885 2.00375 7.5611 2.0045 7.56335C2.00525 7.56935 2.00675 7.57534 2.00825 7.58134C2.009 7.58584 2.0105 7.59034 2.012 7.59558C2.0135 7.60083 2.01501 7.60608 2.01651 7.61133C2.01801 7.61658 2.01951 7.62107 2.02176 7.62632C2.02326 7.63082 2.02551 7.63532 2.02701 7.63982C2.02926 7.64507 2.03151 7.65031 2.03376 7.65556C2.03601 7.65931 2.03751 7.66381 2.03976 7.66756C2.04276 7.6728 2.04501 7.67805 2.04802 7.68255C2.05027 7.6863 2.05252 7.69005 2.05552 7.69379C2.05852 7.69829 2.06152 7.70354 2.06527 7.70804C2.06827 7.71179 2.07127 7.71554 2.07428 7.71928C2.07728 7.72378 2.08103 7.72753 2.08403 7.73203C2.08778 7.73578 2.09078 7.73953 2.09453 7.74402C2.09753 7.74777 2.10128 7.75077 2.10503 7.75452C2.10879 7.75827 2.11329 7.76202 2.11704 7.76576C2.12079 7.76876 2.12379 7.77176 2.12754 7.77476C2.13204 7.77851 2.13655 7.78226 2.14105 7.78526C2.1448 7.78825 2.14855 7.7905 2.1523 7.7935C2.1568 7.7965 2.1613 7.7995 2.16656 7.8025C2.17106 7.80475 2.17481 7.80775 2.17931 7.81C2.18381 7.81224 2.18831 7.81524 2.19281 7.81749C2.19807 7.81974 2.20257 7.82274 2.20782 7.82499C2.21232 7.82724 2.21607 7.82874 2.22057 7.83024C2.22658 7.83249 2.23183 7.83474 2.23783 7.83698C2.24008 7.83773 2.24233 7.83848 2.24458 7.83923L2.28284 7.85123C2.31961 7.86322 2.35787 7.86922 2.39613 7.86847C3.27467 7.85873 4.21174 8.2868 4.96649 9.04323C5.71599 9.79367 6.13988 10.7218 6.12863 11.5892C6.12863 11.6282 6.13388 11.6664 6.14588 11.7039L6.16239 11.7541C6.16239 11.7541 6.16389 11.7586 6.16464 11.7608C6.16614 11.7661 6.16839 11.7706 6.16989 11.7758C6.17214 11.7803 6.17364 11.7848 6.17589 11.7901C6.17814 11.7946 6.17964 11.7983 6.18189 11.8028C6.18415 11.8081 6.18715 11.8133 6.19015 11.8178C6.1924 11.8216 6.1939 11.8246 6.19615 11.8276C6.1999 11.8336 6.20365 11.8388 6.2074 11.8448C6.2089 11.8471 6.2104 11.8501 6.21265 11.8523C6.21791 11.8591 6.22316 11.8658 6.22841 11.8726C6.22916 11.8733 6.22991 11.8748 6.23066 11.8756C6.23741 11.883 6.24417 11.8905 6.25092 11.898C6.25767 11.9048 6.26442 11.9108 6.27192 11.9168C6.27493 11.919 6.27718 11.9213 6.28018 11.9235C6.28468 11.9273 6.28993 11.931 6.29443 11.9348C6.29818 11.937 6.30193 11.9393 6.30494 11.9423C6.30944 11.9453 6.31394 11.9483 6.31844 11.9505C6.32219 11.9528 6.32669 11.955 6.33044 11.9573C6.33495 11.9595 6.3402 11.9625 6.3447 11.9648C6.34845 11.967 6.35295 11.9685 6.3567 11.97C6.36196 11.9723 6.36721 11.9745 6.37321 11.9768C6.37696 11.9783 6.38071 11.9798 6.38446 11.9813C6.39121 11.9835 6.39872 11.9858 6.40547 11.9873C6.40772 11.9873 6.41072 11.9888 6.41297 11.9895C6.44073 11.9963 6.46924 12 6.4985 12C6.50675 12 6.51426 12 6.52176 11.9992C6.52326 11.9992 6.52401 11.9992 6.52551 11.9992C6.54502 11.9978 6.56452 11.9948 6.58403 11.9895C6.58703 11.9895 6.58928 11.988 6.59228 11.9873C6.59903 11.985 6.60579 11.9835 6.61254 11.9813C6.61629 11.9798 6.62004 11.9783 6.62379 11.9768C6.62904 11.9745 6.6343 11.973 6.63955 11.9708C6.64405 11.9693 6.6478 11.967 6.6523 11.9648C6.6568 11.9625 6.6613 11.9603 6.66656 11.958C6.67106 11.9558 6.67481 11.9535 6.67856 11.9513C6.68306 11.9483 6.68756 11.946 6.69206 11.943C6.69582 11.9408 6.69957 11.9385 6.70332 11.9355C6.70782 11.9318 6.71307 11.9288 6.71757 11.925C6.72057 11.9228 6.72357 11.9205 6.72658 11.9183C6.73333 11.9123 6.74008 11.9063 6.74683 11.8995C6.75434 11.8928 6.76184 11.8845 6.76784 11.8771C6.76859 11.8763 6.76934 11.8748 6.77084 11.8741C6.77609 11.8673 6.78134 11.8613 6.7866 11.8546C6.7881 11.8523 6.7896 11.8493 6.79185 11.8471C6.7956 11.8418 6.79935 11.8358 6.8031 11.8298C6.80535 11.8268 6.80685 11.8231 6.8091 11.8193C6.81211 11.8141 6.81436 11.8088 6.81736 11.8043C6.81961 11.7998 6.82111 11.7961 6.82336 11.7916C6.82561 11.7871 6.82711 11.7826 6.82936 11.7773C6.83161 11.7728 6.83311 11.7676 6.83461 11.7623C6.83536 11.7601 6.83611 11.7579 6.83686 11.7556L6.85337 11.7054C6.86537 11.6694 6.87062 11.6319 6.87062 11.5944C6.86762 10.7315 7.31402 9.77193 8.06352 9.02899C8.81602 8.28305 9.74033 7.86097 10.6031 7.87072C10.6414 7.87072 10.6796 7.86547 10.7164 7.85348L10.7547 7.84148C10.7547 7.84148 10.7592 7.83998 10.7614 7.83923C10.7674 7.83698 10.7727 7.83474 10.7787 7.83249C10.7832 7.83099 10.7869 7.82874 10.7914 7.82724C10.7967 7.82499 10.8012 7.82274 10.8064 7.81974C10.8109 7.81749 10.8154 7.81524 10.8199 7.81224C10.8244 7.81 10.8282 7.807 10.8327 7.80475C10.8372 7.80175 10.8424 7.79875 10.847 7.79575C10.8507 7.7935 10.8545 7.7905 10.8582 7.7875C10.8627 7.78376 10.8672 7.78076 10.8717 7.77701C10.8755 7.77401 10.8785 7.77101 10.8822 7.76801C10.8867 7.76427 10.8905 7.76052 10.895 7.75677C10.8987 7.75302 10.9017 7.75002 10.9047 7.74627C10.9085 7.74252 10.9122 7.73878 10.9152 7.73428C10.919 7.73053 10.922 7.72603 10.925 7.72228C10.928 7.71853 10.931 7.71479 10.934 7.71029C10.937 7.70579 10.94 7.70129 10.9437 7.69604C10.946 7.6923 10.949 7.68855 10.9512 7.68405C10.9542 7.6788 10.9572 7.6743 10.9595 7.66906C10.9617 7.66531 10.964 7.66081 10.9655 7.65631C10.9677 7.65106 10.97 7.64656 10.9722 7.64132C10.9745 7.63682 10.976 7.63232 10.9782 7.62707C10.9797 7.62257 10.982 7.61733 10.9835 7.61283C10.985 7.60758 10.9872 7.60233 10.9887 7.59634C10.9902 7.59184 10.991 7.58734 10.9917 7.58284C10.9932 7.57684 10.9947 7.57085 10.9955 7.5641C10.9955 7.56185 10.9963 7.5596 10.997 7.55735C10.997 7.5551 10.997 7.55285 10.997 7.55135C10.9978 7.54536 10.9985 7.53936 10.9993 7.53261C10.9993 7.52811 11 7.52287 11 7.51837L10.9977 7.51387Z" fill="#0F1621"/>
<path d="M14.999 4.00616C14.999 4.00383 14.999 4.0015 14.999 3.99883C14.999 3.99617 14.999 3.99384 14.999 3.9915C14.999 3.9895 14.999 3.98751 14.9987 3.98551C14.9987 3.98251 14.998 3.97984 14.9977 3.97718C14.9977 3.97618 14.9977 3.97551 14.9977 3.97451C14.9977 3.97351 14.9973 3.97251 14.997 3.97184C14.9967 3.96885 14.996 3.96618 14.9953 3.96352C14.995 3.96152 14.9943 3.95985 14.994 3.95785C14.9933 3.95519 14.9927 3.95285 14.9917 3.95052C14.991 3.94852 14.9903 3.94652 14.9897 3.94419C14.989 3.94219 14.988 3.93986 14.987 3.93786C14.986 3.93553 14.985 3.93353 14.984 3.9312C14.983 3.9292 14.982 3.92753 14.981 3.92553C14.9797 3.9232 14.9787 3.9212 14.9773 3.91887C14.9763 3.9172 14.975 3.9152 14.974 3.91354C14.9727 3.91154 14.9713 3.90954 14.97 3.90754C14.9687 3.90587 14.9673 3.90387 14.966 3.90221C14.9647 3.90054 14.9633 3.89854 14.9617 3.89688C14.96 3.89521 14.9583 3.89321 14.957 3.89154C14.9557 3.88988 14.954 3.88855 14.9527 3.88688C14.951 3.88521 14.949 3.88321 14.947 3.88155C14.9456 3.88022 14.944 3.87888 14.9423 3.87755C14.9403 3.87588 14.9383 3.87422 14.9363 3.87289C14.9346 3.87155 14.933 3.87055 14.9313 3.86922C14.9293 3.86789 14.9273 3.86656 14.925 3.86522C14.923 3.86389 14.9213 3.86289 14.9193 3.86189C14.9173 3.86089 14.9153 3.85956 14.9133 3.85856C14.911 3.85756 14.909 3.85623 14.9066 3.85523C14.9046 3.85423 14.903 3.85356 14.901 3.85289C14.8983 3.85189 14.896 3.8509 14.8933 3.8499C14.8923 3.8499 14.8916 3.84923 14.8906 3.8489L14.885 3.84723C14.8693 3.84223 14.8526 3.83957 14.8363 3.83957C14.4445 3.83957 14.0263 3.64598 13.6889 3.30845C13.3511 2.9706 13.1571 2.5511 13.1571 2.1576C13.1571 2.1526 13.1571 2.14727 13.1564 2.14227C13.1564 2.14028 13.1557 2.13861 13.1557 2.13694C13.1554 2.13394 13.1551 2.13061 13.1544 2.12761C13.1541 2.12528 13.1534 2.12328 13.1531 2.12128C13.1524 2.11862 13.1517 2.11595 13.1511 2.11329C13.1504 2.11095 13.1497 2.10895 13.149 2.10662C13.148 2.10429 13.1474 2.10162 13.1464 2.09929C13.1454 2.09696 13.1447 2.09496 13.1437 2.09296C13.1427 2.09063 13.1417 2.0883 13.1404 2.08596C13.1394 2.08397 13.1384 2.08197 13.137 2.07997C13.1357 2.07763 13.1344 2.07564 13.133 2.0733C13.1317 2.0713 13.1307 2.06964 13.1294 2.06764C13.1277 2.06531 13.126 2.06297 13.1244 2.06097C13.123 2.05931 13.122 2.05798 13.1207 2.05631C13.1187 2.05364 13.1164 2.05131 13.114 2.04898C13.113 2.04798 13.112 2.04665 13.111 2.04565C13.104 2.03898 13.0967 2.03265 13.0887 2.02732C13.0874 2.02632 13.086 2.02566 13.0847 2.02466C13.082 2.02299 13.0794 2.02132 13.0764 2.01966C13.0744 2.01866 13.0727 2.01766 13.0707 2.01666C13.0684 2.01533 13.0657 2.01433 13.0634 2.013C13.061 2.012 13.059 2.01133 13.0567 2.01033C13.0544 2.00933 13.052 2.00866 13.0497 2.00766C13.0473 2.007 13.045 2.006 13.0423 2.00533C13.04 2.00466 13.0377 2.004 13.0353 2.00367C13.033 2.003 13.0303 2.00267 13.0277 2.002C13.0267 2.002 13.0253 2.00133 13.0243 2.00133C13.023 2.00133 13.0213 2.00133 13.02 2.001C13.0177 2.001 13.0153 2.00033 13.013 2.00033C13.0097 2.00033 13.0067 2 13.0033 2C13.002 2 13.0007 2 12.9997 2C12.999 2 12.9987 2 12.998 2C12.9943 2 12.9903 2 12.9867 2.00067C12.9853 2.00067 12.984 2.00067 12.9827 2.00067C12.978 2.00133 12.9733 2.002 12.9687 2.00267C12.9673 2.00267 12.9663 2.00333 12.965 2.00367C12.9613 2.00466 12.9573 2.00533 12.9537 2.00666C12.9513 2.00733 12.949 2.00833 12.947 2.009C12.9446 2.00966 12.9423 2.01066 12.9403 2.01133C12.938 2.01233 12.9356 2.01333 12.9333 2.01433C12.9313 2.01533 12.9293 2.01633 12.927 2.01733C12.9246 2.01833 12.9226 2.01966 12.9203 2.02099C12.9183 2.02232 12.9163 2.02332 12.9143 2.02466C12.9123 2.02599 12.9103 2.02732 12.9086 2.02865C12.9066 2.03032 12.9043 2.03165 12.9023 2.03332C12.9006 2.03465 12.899 2.03599 12.8973 2.03732C12.895 2.03932 12.893 2.04132 12.891 2.04332C12.8896 2.04465 12.8883 2.04598 12.887 2.04731C12.8846 2.04965 12.8826 2.05198 12.8806 2.05431C12.8796 2.05564 12.8783 2.05664 12.8773 2.05798C12.8753 2.06064 12.873 2.06331 12.8713 2.06631C12.8703 2.06764 12.8696 2.06864 12.8686 2.06997C12.8666 2.07297 12.865 2.07597 12.863 2.0793C12.8623 2.08063 12.8616 2.08163 12.861 2.08297C12.8586 2.0873 12.8566 2.0913 12.8546 2.09596C12.8533 2.09896 12.8523 2.10196 12.8513 2.10496C12.8506 2.10662 12.85 2.10796 12.8496 2.10962C12.8496 2.10962 12.8489 2.11129 12.8489 2.11195L12.8443 2.12695C12.8389 2.14327 12.8366 2.16027 12.8366 2.17726C12.8409 2.5601 12.6529 2.97126 12.3214 3.30512C11.992 3.63698 11.5669 3.8349 11.1841 3.8349C11.1827 3.8349 11.1814 3.8349 11.1801 3.8349C11.1634 3.8349 11.147 3.83757 11.131 3.84257L11.1087 3.8499C11.1087 3.8499 11.107 3.85056 11.106 3.8509C11.1034 3.85189 11.1007 3.85289 11.0984 3.85389C11.0964 3.85456 11.0947 3.85556 11.0927 3.85623C11.0904 3.85723 11.0884 3.85823 11.086 3.85956C11.084 3.86056 11.082 3.86156 11.08 3.86289C11.078 3.86389 11.0764 3.86522 11.0744 3.86622C11.0724 3.86756 11.07 3.86889 11.068 3.87022C11.0664 3.87122 11.0647 3.87255 11.063 3.87389C11.061 3.87555 11.0587 3.87722 11.0567 3.87888C11.055 3.88022 11.0537 3.88155 11.0524 3.88288C11.0504 3.88455 11.0487 3.88621 11.0467 3.88821C11.0453 3.88955 11.0437 3.89121 11.0423 3.89254C11.0407 3.89421 11.039 3.89621 11.0373 3.89788C11.036 3.89954 11.0343 3.90121 11.033 3.90321C11.0317 3.90487 11.0303 3.90687 11.029 3.90854C11.0277 3.91054 11.0263 3.91254 11.025 3.91454C11.0237 3.9162 11.0227 3.9182 11.0217 3.91987C11.0203 3.92187 11.0193 3.9242 11.018 3.9262C11.017 3.9282 11.016 3.9302 11.015 3.93219C11.014 3.93419 11.013 3.93653 11.012 3.93853C11.011 3.94086 11.0103 3.94286 11.0093 3.94519C11.0087 3.94719 11.008 3.94919 11.0073 3.95119C11.0067 3.95385 11.0057 3.95618 11.005 3.95885C11.0047 3.96052 11.004 3.96252 11.0037 3.96418C11.003 3.96718 11.0023 3.96985 11.002 3.97284C11.002 3.97384 11.0017 3.97451 11.0013 3.97551C11.0013 3.97651 11.0013 3.97718 11.0013 3.97818C11.001 3.98117 11.0007 3.98384 11.0003 3.98684C11.0003 3.98884 11.0003 3.99084 11 3.99284C11 3.9955 11 3.99783 11 4.0005C11 4.00283 11 4.00516 11 4.0075C11 4.00983 11 4.01183 11.0003 4.01416C11.0003 4.01683 11.001 4.01949 11.0013 4.02216C11.0013 4.02316 11.0013 4.02416 11.0013 4.02516C11.0013 4.02616 11.0017 4.02716 11.002 4.02815C11.0023 4.03082 11.003 4.03349 11.0037 4.03615C11.004 4.03815 11.0047 4.04015 11.0053 4.04248C11.006 4.04481 11.0067 4.04715 11.0073 4.04948C11.008 4.05181 11.0087 4.05381 11.0097 4.05614C11.0103 4.05814 11.0113 4.06014 11.012 4.06214C11.013 4.06447 11.014 4.06681 11.015 4.06914C11.016 4.0708 11.0167 4.0728 11.0177 4.07447C11.019 4.0768 11.02 4.07913 11.0213 4.08113C11.0223 4.0828 11.0233 4.08446 11.0247 4.08613C11.026 4.08813 11.0273 4.09046 11.029 4.09246C11.0303 4.09413 11.0317 4.09579 11.033 4.09746C11.0343 4.09946 11.036 4.10112 11.0373 4.10312C11.039 4.10479 11.0403 4.10646 11.042 4.10845C11.0433 4.11012 11.045 4.11145 11.0467 4.11312C11.0483 4.11479 11.0503 4.11645 11.052 4.11812C11.0537 4.11945 11.055 4.12078 11.0567 4.12212C11.0587 4.12378 11.0607 4.12545 11.0627 4.12678C11.0644 4.12811 11.066 4.12911 11.0677 4.13045C11.0697 4.13178 11.0717 4.13311 11.074 4.13444C11.076 4.13544 11.0777 4.13678 11.0797 4.13778C11.0817 4.13878 11.0837 4.14011 11.0857 4.14111C11.088 4.14211 11.09 4.14344 11.0924 4.14444C11.0944 4.14544 11.096 4.14611 11.098 4.14677C11.1007 4.14777 11.103 4.14877 11.1057 4.14977C11.1067 4.1501 11.1077 4.15044 11.1087 4.15077L11.1257 4.1561C11.142 4.16143 11.1591 4.1641 11.1761 4.16376C11.5665 4.15943 11.983 4.34969 12.3184 4.68588C12.6516 5.01941 12.8399 5.4319 12.8349 5.81741C12.8349 5.83473 12.8373 5.85173 12.8426 5.86839L12.8499 5.89071C12.8499 5.89071 12.8506 5.89271 12.851 5.89371C12.8516 5.89604 12.8526 5.89804 12.8533 5.90037C12.8543 5.90237 12.855 5.90437 12.856 5.9067C12.857 5.9087 12.8576 5.91037 12.8586 5.91237C12.8596 5.9147 12.861 5.91703 12.8623 5.91903C12.8633 5.9207 12.864 5.92203 12.865 5.92336C12.8666 5.92603 12.8683 5.92836 12.87 5.93103C12.8706 5.93203 12.8713 5.93336 12.8723 5.93436C12.8746 5.93736 12.877 5.94036 12.8793 5.94336C12.8796 5.94369 12.88 5.94436 12.8803 5.94469C12.8833 5.94802 12.8863 5.95135 12.8893 5.95468C12.8923 5.95768 12.8953 5.96035 12.8986 5.96301C12.9 5.96401 12.901 5.96501 12.9023 5.96601C12.9043 5.96768 12.9066 5.96934 12.9086 5.97101C12.9103 5.97201 12.912 5.97301 12.9133 5.97434C12.9153 5.97568 12.9173 5.97701 12.9193 5.97801C12.921 5.97901 12.923 5.98001 12.9246 5.98101C12.9266 5.98201 12.929 5.98334 12.931 5.98434C12.9326 5.98534 12.9346 5.986 12.9363 5.98667C12.9386 5.98767 12.941 5.98867 12.9436 5.98967C12.9453 5.99034 12.947 5.991 12.9486 5.99167C12.9517 5.99267 12.955 5.99367 12.958 5.99433C12.959 5.99433 12.9603 5.995 12.9613 5.99533C12.9737 5.99833 12.9863 6 12.9993 6C13.003 6 13.0063 6 13.0097 5.99967C13.0103 5.99967 13.0107 5.99967 13.0113 5.99967C13.02 5.999 13.0287 5.99767 13.0373 5.99533C13.0387 5.99533 13.0397 5.99467 13.041 5.99433C13.044 5.99334 13.047 5.99267 13.05 5.99167C13.0517 5.991 13.0534 5.99034 13.055 5.98967C13.0574 5.98867 13.0597 5.988 13.062 5.987C13.064 5.98634 13.0657 5.98534 13.0677 5.98434C13.0697 5.98334 13.0717 5.98234 13.074 5.98134C13.076 5.98034 13.0777 5.97934 13.0794 5.97834C13.0814 5.97701 13.0834 5.97601 13.0854 5.97468C13.087 5.97368 13.0887 5.97268 13.0904 5.97134C13.0924 5.96968 13.0947 5.96835 13.0967 5.96668C13.098 5.96568 13.0994 5.96468 13.1007 5.96368C13.1037 5.96102 13.1067 5.95835 13.1097 5.95535C13.113 5.95235 13.1164 5.94869 13.119 5.94536C13.1194 5.94502 13.1197 5.94436 13.1204 5.94402C13.1227 5.94102 13.125 5.93836 13.1274 5.93536C13.128 5.93436 13.1287 5.93303 13.1297 5.93203C13.1314 5.9297 13.133 5.92703 13.1347 5.92436C13.1357 5.92303 13.1364 5.92137 13.1374 5.9197C13.1387 5.91737 13.1397 5.91503 13.141 5.91304C13.142 5.91104 13.1427 5.90937 13.1437 5.90737C13.1447 5.90537 13.1454 5.90337 13.1464 5.90104C13.1474 5.89904 13.1481 5.89671 13.1487 5.89438C13.1491 5.89338 13.1494 5.89238 13.1497 5.89138L13.1571 5.86905C13.1624 5.85306 13.1647 5.8364 13.1647 5.81974C13.1634 5.43623 13.3618 5.00975 13.6949 4.67955C14.0293 4.34802 14.4401 4.16043 14.8236 4.16476C14.8406 4.16476 14.8576 4.16243 14.874 4.1571L14.891 4.15177C14.891 4.15177 14.893 4.1511 14.894 4.15077C14.8966 4.14977 14.899 4.14877 14.9016 4.14777C14.9036 4.14711 14.9053 4.14611 14.9073 4.14544C14.9096 4.14444 14.9116 4.14344 14.914 4.14211C14.916 4.14111 14.918 4.14011 14.92 4.13878C14.922 4.13778 14.9236 4.13644 14.9256 4.13544C14.9276 4.13411 14.93 4.13278 14.932 4.13144C14.9336 4.13045 14.9353 4.12911 14.937 4.12778C14.939 4.12611 14.941 4.12478 14.943 4.12312C14.9446 4.12178 14.946 4.12045 14.9476 4.11912C14.9497 4.11745 14.9513 4.11579 14.9533 4.11412C14.955 4.11245 14.9563 4.11112 14.9577 4.10945C14.9593 4.10779 14.961 4.10612 14.9623 4.10412C14.964 4.10246 14.9653 4.10046 14.9667 4.09879C14.968 4.09713 14.9693 4.09546 14.9707 4.09346C14.972 4.09146 14.9733 4.08946 14.975 4.08713C14.976 4.08546 14.9773 4.0838 14.9783 4.0818C14.9797 4.07947 14.981 4.07747 14.982 4.07514C14.983 4.07347 14.984 4.07147 14.9847 4.06947C14.9857 4.06714 14.9867 4.06514 14.9877 4.06281C14.9887 4.06081 14.9893 4.05881 14.9903 4.05648C14.991 4.05448 14.992 4.05215 14.9927 4.05015C14.9933 4.04781 14.9943 4.04548 14.995 4.04282C14.9957 4.04082 14.996 4.03882 14.9963 4.03682C14.997 4.03415 14.9977 4.03149 14.998 4.02849C14.998 4.02749 14.9983 4.02649 14.9987 4.02549C14.9987 4.02449 14.9987 4.02349 14.9987 4.02282C14.999 4.02016 14.9993 4.01749 14.9997 4.01449C14.9997 4.01249 15 4.01016 15 4.00816L14.999 4.00616Z" fill="#0F1621"/>
<path d="M2.70711 20.7071C2.31658 20.3166 2.31658 19.6834 2.70711 19.2929L15 7L17 9.00001L4.70711 21.2929C4.31659 21.6834 3.68342 21.6834 3.2929 21.2929L2.70711 20.7071Z" fill="#0F1621"/>
<path d="M16 6L18.7929 3.20711C19.1834 2.81658 19.8166 2.81658 20.2071 3.20711L20.7929 3.79289C21.1834 4.18342 21.1834 4.81658 20.7929 5.20711L18 8L16 6Z" fill="#0F1621"/>
</svg>
