<svg width="16" height="16" viewBox="0 0 16 16" fill="none" xmlns="http://www.w3.org/2000/svg">
<path d="M5 13C5 13.3956 4.8827 13.7822 4.66294 14.1111C4.44318 14.44 4.13082 14.6964 3.76537 14.8478C3.39992 14.9991 2.99778 15.0387 2.60982 14.9616C2.22186 14.8844 1.86549 14.6939 1.58579 14.4142C1.30608 14.1345 1.1156 13.7781 1.03843 13.3902C0.96126 13.0022 1.00087 12.6001 1.15224 12.2346C1.30362 11.8692 1.55996 11.5568 1.88886 11.3371C2.21776 11.1173 2.60444 11 3 11C3.53043 11 4.03914 11.2107 4.41421 11.5858C4.78929 11.9609 5 12.4696 5 13ZM12.25 11.75C12.25 12.2141 12.0656 12.6592 11.7374 12.9874C11.4092 13.3156 10.9641 13.5 10.5 13.5C10.0359 13.5 9.59075 13.3156 9.26256 12.9874C8.93437 12.6592 8.75 12.2141 8.75 11.75V4.25C8.75 3.38805 8.40759 2.5614 7.7981 1.9519C7.1886 1.34241 6.36195 1 5.5 1C4.63805 1 3.8114 1.34241 3.2019 1.9519C2.59241 2.5614 2.25 3.38805 2.25 4.25V10H3.75V4.25C3.75 3.78587 3.93438 3.34075 4.26256 3.01256C4.59075 2.68437 5.03587 2.5 5.5 2.5C5.96413 2.5 6.40925 2.68437 6.73744 3.01256C7.06563 3.34075 7.25 3.78587 7.25 4.25V11.75C7.25 12.612 7.59241 13.4386 8.2019 14.0481C8.8114 14.6576 9.63805 15 10.5 15C11.362 15 12.1886 14.6576 12.7981 14.0481C13.4076 13.4386 13.75 12.612 13.75 11.75V6H12.25V11.75ZM13 1C12.6044 1 12.2178 1.1173 11.8889 1.33706C11.56 1.55682 11.3036 1.86918 11.1522 2.23463C11.0009 2.60009 10.9613 3.00222 11.0384 3.39018C11.1156 3.77814 11.3061 4.13451 11.5858 4.41421C11.8655 4.69392 12.2219 4.8844 12.6098 4.96157C12.9978 5.03874 13.3999 4.99913 13.7654 4.84776C14.1308 4.69638 14.4432 4.44004 14.6629 4.11114C14.8827 3.78224 15 3.39556 15 3C15 2.46957 14.7893 1.96086 14.4142 1.58579C14.0391 1.21071 13.5304 1 13 1Z" fill="#0F1621"/>
</svg>
