<svg width="24" height="24" viewBox="0 0 24 24" fill="none" xmlns="http://www.w3.org/2000/svg">
<path d="M8 19C8 19.5933 7.82405 20.1734 7.49441 20.6667C7.16477 21.1601 6.69623 21.5446 6.14805 21.7716C5.59987 21.9987 4.99667 22.0581 4.41473 21.9424C3.83279 21.8266 3.29824 21.5409 2.87868 21.1213C2.45912 20.7018 2.1734 20.1672 2.05765 19.5853C1.94189 19.0033 2.0013 18.4001 2.22836 17.8519C2.45543 17.3038 2.83994 16.8352 3.33329 16.5056C3.82664 16.1759 4.40666 16 5 16C5.79565 16 6.55871 16.3161 7.12132 16.8787C7.68393 17.4413 8 18.2044 8 19ZM19 2C18.4067 2 17.8266 2.17595 17.3333 2.50559C16.8399 2.83524 16.4554 3.30377 16.2284 3.85195C16.0013 4.40013 15.9419 5.00333 16.0576 5.58527C16.1734 6.16721 16.4591 6.70176 16.8787 7.12132C17.2982 7.54088 17.8328 7.8266 18.4147 7.94236C18.9967 8.05811 19.5999 7.9987 20.1481 7.77164C20.6962 7.54458 21.1648 7.16006 21.4944 6.66671C21.8241 6.17336 22 5.59334 22 5C22 4.20435 21.6839 3.44129 21.1213 2.87868C20.5587 2.31607 19.7957 2 19 2ZM20 17.5V10H18V17.5C18 18.163 17.7366 18.7989 17.2678 19.2678C16.7989 19.7366 16.163 20 15.5 20C14.837 20 14.2011 19.7366 13.7322 19.2678C13.2634 18.7989 13 18.163 13 17.5V6.5C13 5.30653 12.5259 4.16193 11.682 3.31802C10.8381 2.47411 9.69348 2 8.5 2C7.30653 2 6.16193 2.47411 5.31802 3.31802C4.47411 4.16193 4 5.30653 4 6.5V14H6V6.5C6 5.83696 6.26339 5.20107 6.73223 4.73223C7.20108 4.26339 7.83696 4 8.5 4C9.16304 4 9.79893 4.26339 10.2678 4.73223C10.7366 5.20107 11 5.83696 11 6.5V17.5C11 18.6935 11.4741 19.8381 12.318 20.682C13.1619 21.5259 14.3065 22 15.5 22C16.6935 22 17.8381 21.5259 18.682 20.682C19.5259 19.8381 20 18.6935 20 17.5Z" fill="#0F1621"/>
</svg>
