<svg width="24" height="24" viewBox="0 0 24 24" fill="none" xmlns="http://www.w3.org/2000/svg">
<path d="M19 16C18.8702 15.9902 18.7398 15.9902 18.61 16L17.72 14.21L16 15.13L16.89 16.92C16.581 17.2269 16.3392 17.5947 16.18 18H7.82C7.67559 17.5989 7.45103 17.2315 7.16 16.92L11.64 7.92C11.7576 7.95669 11.878 7.98345 12 8C12.1465 8.00988 12.2935 8.00988 12.44 8H12.38L13.27 9.78L15.06 8.89L14.16 7.1C14.5728 6.67781 14.8519 6.14318 14.9622 5.5631C15.0725 4.98302 15.0092 4.38329 14.7802 3.83904C14.5511 3.29478 14.1666 2.83022 13.6747 2.50355C13.1828 2.17688 12.6055 2.00262 12.015 2.00262C11.4245 2.00262 10.8472 2.17688 10.3553 2.50355C9.86342 2.83022 9.47887 3.29478 9.24985 3.83904C9.02083 4.38329 8.95751 4.98302 9.06782 5.5631C9.17814 6.14318 9.45718 6.67781 9.87 7.1L5.36 16C5.2402 15.9902 5.1198 15.9902 5 16C4.44965 15.9985 3.90948 16.1483 3.4386 16.4332C2.96773 16.7181 2.5843 17.1271 2.33027 17.6153C2.07624 18.1035 1.96141 18.6522 1.99834 19.2013C2.03527 19.7504 2.22254 20.2788 2.53966 20.7286C2.85677 21.1784 3.29151 21.5323 3.79629 21.7516C4.30108 21.9709 4.85645 22.0471 5.40164 21.9718C5.94683 21.8966 6.46082 21.6729 6.88736 21.3251C7.3139 20.9773 7.63655 20.5189 7.82 20H16.18C16.3635 20.5189 16.6861 20.9773 17.1126 21.3251C17.5392 21.6729 18.0532 21.8966 18.5984 21.9718C19.1436 22.0471 19.6989 21.9709 20.2037 21.7516C20.7085 21.5323 21.1432 21.1784 21.4603 20.7286C21.7775 20.2788 21.9647 19.7504 22.0017 19.2013C22.0386 18.6522 21.9238 18.1035 21.6697 17.6153C21.4157 17.1271 21.0323 16.7181 20.5614 16.4332C20.0905 16.1483 19.5504 15.9985 19 16ZM15.06 13.35L16.84 12.45L16 10.67L14.21 11.56L15.06 13.35Z" fill="#0F1621"/>
</svg>
