<svg width="16" height="16" viewBox="0 0 16 16" fill="none" xmlns="http://www.w3.org/2000/svg">
<path d="M13 11C12.651 11.0021 12.3086 11.0955 12.0068 11.2709C11.7051 11.4464 11.4545 11.6977 11.28 12H4.72C4.72 12 4.72 11.93 4.72 11.9L8.12 5C8.5096 4.97658 8.88383 4.83968 9.19657 4.60617C9.50931 4.37266 9.74689 4.05275 9.88003 3.68587C10.0132 3.31898 10.0361 2.92116 9.94586 2.54142C9.85567 2.16169 9.65634 1.81664 9.37244 1.54881C9.08854 1.28098 8.73248 1.10207 8.34814 1.03414C7.9638 0.966196 7.56798 1.0122 7.20947 1.16647C6.85095 1.32074 6.54541 1.57654 6.3305 1.90234C6.11559 2.22814 6.00071 2.6097 6 3C6.0001 3.39104 6.11483 3.77348 6.33 4.1L2.88 11C2.34957 11.0159 1.84718 11.2419 1.48336 11.6282C1.11954 12.0145 0.92409 12.5296 0.940003 13.06C0.955916 13.5904 1.18189 14.0928 1.56822 14.4566C1.95454 14.8205 2.46957 15.0159 3 15C3.34903 14.9979 3.69143 14.9045 3.99317 14.729C4.29491 14.5536 4.54549 14.3023 4.72 14H11.28C11.4545 14.3023 11.7051 14.5536 12.0068 14.729C12.3086 14.9045 12.651 14.9979 13 15C13.5304 15 14.0391 14.7893 14.4142 14.4142C14.7893 14.0391 15 13.5304 15 13C15 12.4696 14.7893 11.9609 14.4142 11.5858C14.0391 11.2107 13.5304 11 13 11ZM10.39 10L12.18 9.1L10.61 6L8.82 6.9L10.39 10Z" fill="#0F1621"/>
</svg>
