<svg width="24" height="24" viewBox="0 0 24 24" fill="none" xmlns="http://www.w3.org/2000/svg">
<path d="M22 4C22 4.39556 21.8827 4.78224 21.6629 5.11114C21.4432 5.44004 21.1308 5.69638 20.7654 5.84776C20.3999 5.99913 19.9978 6.03874 19.6098 5.96157C19.2219 5.8844 18.8655 5.69392 18.5858 5.41421C18.3061 5.13451 18.1156 4.77814 18.0384 4.39018C17.9613 4.00222 18.0009 3.60009 18.1522 3.23463C18.3036 2.86918 18.56 2.55682 18.8889 2.33706C19.2178 2.1173 19.6044 2 20 2C20.5304 2 21.0391 2.21071 21.4142 2.58579C21.7893 2.96086 22 3.46957 22 4ZM4 2C3.60444 2 3.21776 2.1173 2.88886 2.33706C2.55996 2.55682 2.30362 2.86918 2.15224 3.23463C2.00087 3.60009 1.96126 4.00222 2.03843 4.39018C2.1156 4.77814 2.30608 5.13451 2.58579 5.41421C2.86549 5.69392 3.22186 5.8844 3.60982 5.96157C3.99778 6.03874 4.39992 5.99913 4.76537 5.84776C5.13082 5.69638 5.44318 5.44004 5.66294 5.11114C5.8827 4.78224 6 4.39556 6 4C6 3.46957 5.78929 2.96086 5.41421 2.58579C5.03914 2.21071 4.53043 2 4 2ZM4 18C3.60444 18 3.21776 18.1173 2.88886 18.3371C2.55996 18.5568 2.30362 18.8692 2.15224 19.2346C2.00087 19.6001 1.96126 20.0022 2.03843 20.3902C2.1156 20.7781 2.30608 21.1345 2.58579 21.4142C2.86549 21.6939 3.22186 21.8844 3.60982 21.9616C3.99778 22.0387 4.39992 21.9991 4.76537 21.8478C5.13082 21.6964 5.44318 21.44 5.66294 21.1111C5.8827 20.7822 6 20.3956 6 20C6 19.4696 5.78929 18.9609 5.41421 18.5858C5.03914 18.2107 4.53043 18 4 18ZM20 18C19.6044 18 19.2178 18.1173 18.8889 18.3371C18.56 18.5568 18.3036 18.8692 18.1522 19.2346C18.0009 19.6001 17.9613 20.0022 18.0384 20.3902C18.1156 20.7781 18.3061 21.1345 18.5858 21.4142C18.8655 21.6939 19.2219 21.8844 19.6098 21.9616C19.9978 22.0387 20.3999 21.9991 20.7654 21.8478C21.1308 21.6964 21.4432 21.44 21.6629 21.1111C21.8827 20.7822 22 20.3956 22 20C22 19.4696 21.7893 18.9609 21.4142 18.5858C21.0391 18.2107 20.5304 18 20 18ZM11 19V21H8V19H11ZM21 8V11H19V8H21ZM11 3V5H8V3H11ZM3 7H5V10H3V7ZM16 3V5H13V3H16ZM21 13V16H19V13H21ZM5 13V16H3V13H5ZM16 19V21H13V19H16Z" fill="#0F1621"/>
</svg>
