<svg width="16" height="16" viewBox="0 0 16 16" fill="none" xmlns="http://www.w3.org/2000/svg">
<path d="M5 3C5 3.39556 4.8827 3.78224 4.66294 4.11114C4.44318 4.44004 4.13082 4.69638 3.76537 4.84776C3.39992 4.99913 2.99778 5.03874 2.60982 4.96157C2.22186 4.8844 1.86549 4.69392 1.58579 4.41421C1.30608 4.13451 1.1156 3.77814 1.03843 3.39018C0.96126 3.00222 1.00087 2.60009 1.15224 2.23463C1.30362 1.86918 1.55996 1.55682 1.88886 1.33706C2.21776 1.1173 2.60444 1 3 1C3.53043 1 4.03914 1.21071 4.41421 1.58579C4.78929 1.96086 5 2.46957 5 3ZM13 1C12.6044 1 12.2178 1.1173 11.8889 1.33706C11.56 1.55682 11.3036 1.86918 11.1522 2.23463C11.0009 2.60009 10.9613 3.00222 11.0384 3.39018C11.1156 3.77814 11.3061 4.13451 11.5858 4.41421C11.8655 4.69392 12.2219 4.8844 12.6098 4.96157C12.9978 5.03874 13.3999 4.99913 13.7654 4.84776C14.1308 4.69638 14.4432 4.44004 14.6629 4.11114C14.8827 3.78224 15 3.39556 15 3C15 2.46957 14.7893 1.96086 14.4142 1.58579C14.0391 1.21071 13.5304 1 13 1ZM13 11C12.6044 11 12.2178 11.1173 11.8889 11.3371C11.56 11.5568 11.3036 11.8692 11.1522 12.2346C11.0009 12.6001 10.9613 13.0022 11.0384 13.3902C11.1156 13.7781 11.3061 14.1345 11.5858 14.4142C11.8655 14.6939 12.2219 14.8844 12.6098 14.9616C12.9978 15.0387 13.3999 14.9991 13.7654 14.8478C14.1308 14.6964 14.4432 14.44 14.6629 14.1111C14.8827 13.7822 15 13.3956 15 13C15 12.4696 14.7893 11.9609 14.4142 11.5858C14.0391 11.2107 13.5304 11 13 11ZM3 11C2.60444 11 2.21776 11.1173 1.88886 11.3371C1.55996 11.5568 1.30362 11.8692 1.15224 12.2346C1.00087 12.6001 0.96126 13.0022 1.03843 13.3902C1.1156 13.7781 1.30608 14.1345 1.58579 14.4142C1.86549 14.6939 2.22186 14.8844 2.60982 14.9616C2.99778 15.0387 3.39992 14.9991 3.76537 14.8478C4.13082 14.6964 4.44318 14.44 4.66294 14.1111C4.8827 13.7822 5 13.3956 5 13C5 12.4696 4.78929 11.9609 4.41421 11.5858C4.03914 11.2107 3.53043 11 3 11ZM9 12H7V14H9V12ZM14 7H12V9H14V7ZM4 7H2V9H4V7ZM9 2H7V4H9V2Z" fill="#0F1621"/>
</svg>
