<svg width="16" height="16" viewBox="0 0 16 16" fill="none" xmlns="http://www.w3.org/2000/svg">
<path d="M14 11.28V4.72C14.3023 4.54549 14.5536 4.29491 14.7291 3.99317C14.9045 3.69143 14.9979 3.34903 15 3C15 2.46957 14.7893 1.96086 14.4142 1.58579C14.0391 1.21071 13.5304 1 13 1C12.651 1.00211 12.3086 1.09552 12.0068 1.27095C11.7051 1.44638 11.4545 1.69772 11.28 2H4.72C4.54549 1.69772 4.29491 1.44638 3.99317 1.27095C3.69143 1.09552 3.34903 1.00211 3 1C2.46957 1 1.96086 1.21071 1.58579 1.58579C1.21071 1.96086 1 2.46957 1 3C1.00211 3.34903 1.09552 3.69143 1.27095 3.99317C1.44638 4.29491 1.69772 4.54549 2 4.72V11.28C1.69772 11.4545 1.44638 11.7051 1.27095 12.0068C1.09552 12.3086 1.00211 12.651 1 13C1 13.5304 1.21071 14.0391 1.58579 14.4142C1.96086 14.7893 2.46957 15 3 15C3.34903 14.9979 3.69143 14.9045 3.99317 14.7291C4.29491 14.5536 4.54549 14.3023 4.72 14H11.28C11.4545 14.3023 11.7051 14.5536 12.0068 14.7291C12.3086 14.9045 12.651 14.9979 13 15C13.5304 15 14.0391 14.7893 14.4142 14.4142C14.7893 14.0391 15 13.5304 15 13C14.9979 12.651 14.9045 12.3086 14.7291 12.0068C14.5536 11.7051 14.3023 11.4545 14 11.28ZM3.5 11.07V4.93C3.84393 4.84022 4.15772 4.6604 4.40906 4.40906C4.6604 4.15772 4.84022 3.84393 4.93 3.5H11.07C11.1598 3.84393 11.3396 4.15772 11.5909 4.40906C11.8423 4.6604 12.1561 4.84022 12.5 4.93V11.07C12.1561 11.1598 11.8423 11.3396 11.5909 11.5909C11.3396 11.8423 11.1598 12.1561 11.07 12.5H4.93C4.84022 12.1561 4.6604 11.8423 4.40906 11.5909C4.15772 11.3396 3.84393 11.1598 3.5 11.07Z" fill="#0F1621"/>
</svg>
