<svg width="16" height="16" viewBox="0 0 16 16" fill="none" xmlns="http://www.w3.org/2000/svg">
<path d="M8 1C6.61553 1 5.26216 1.41054 4.11101 2.17971C2.95987 2.94888 2.06266 4.04213 1.53285 5.32122C1.00303 6.6003 0.86441 8.00776 1.13451 9.36563C1.4046 10.7235 2.07129 11.9708 3.05026 12.9497C4.02922 13.9287 5.2765 14.5954 6.63437 14.8655C7.99224 15.1356 9.3997 14.997 10.6788 14.4672C11.9579 13.9373 13.0511 13.0401 13.8203 11.889C14.5895 10.7378 15 9.38447 15 8C15 6.14348 14.2625 4.36301 12.9497 3.05025C11.637 1.7375 9.85652 1 8 1ZM9 12.9V10H7V12.9C6.03911 12.704 5.15706 12.2298 4.46362 11.5364C3.77018 10.8429 3.29597 9.96089 3.1 9H6V7H3.1C3.29597 6.03911 3.77018 5.15706 4.46362 4.46362C5.15706 3.77018 6.03911 3.29597 7 3.1V6H9V3.1C9.96089 3.29597 10.8429 3.77018 11.5364 4.46362C12.2298 5.15706 12.704 6.03911 12.9 7H10V9H12.9C12.704 9.96089 12.2298 10.8429 11.5364 11.5364C10.8429 12.2298 9.96089 12.704 9 12.9Z" fill="#0F1621"/>
</svg>
