<svg width="24" height="24" viewBox="0 0 24 24" fill="none" xmlns="http://www.w3.org/2000/svg">
<path d="M12 2C10.0222 2 8.08879 2.58649 6.4443 3.6853C4.79981 4.78412 3.51808 6.3459 2.76121 8.17317C2.00433 10.0004 1.8063 12.0111 2.19215 13.9509C2.578 15.8907 3.53041 17.6725 4.92893 19.0711C6.32746 20.4696 8.10929 21.422 10.0491 21.8079C11.9889 22.1937 13.9996 21.9957 15.8268 21.2388C17.6541 20.4819 19.2159 19.2002 20.3147 17.5557C21.4135 15.9112 22 13.9778 22 12C22 10.6868 21.7413 9.38642 21.2388 8.17317C20.7362 6.95991 19.9997 5.85752 19.0711 4.92893C18.1425 4.00035 17.0401 3.26375 15.8268 2.7612C14.6136 2.25866 13.3132 2 12 2ZM11 9H13V4.07C14.76 4.29319 16.3959 5.0951 17.6504 6.34959C18.9049 7.60408 19.7068 9.23998 19.93 11H15V13H19.93C19.7068 14.76 18.9049 16.3959 17.6504 17.6504C16.3959 18.9049 14.76 19.7068 13 19.93V15H11V19.93C9.23998 19.7068 7.60408 18.9049 6.34959 17.6504C5.0951 16.3959 4.29319 14.76 4.07 13H9V11H4.07C4.29319 9.23998 5.0951 7.60408 6.34959 6.34959C7.60408 5.0951 9.23998 4.29319 11 4.07V9Z" fill="#0F1621"/>
</svg>
