<svg width="24" height="24" viewBox="0 0 24 24" fill="none" xmlns="http://www.w3.org/2000/svg">
<path d="M19.75 5.67L21 4.41L19.59 3L18.33 4.25C16.5437 2.78943 14.3074 1.99152 12 1.99152C9.69263 1.99152 7.45625 2.78943 5.67 4.25L4.41 3L3 4.41L4.25 5.67C2.78943 7.45625 1.99152 9.69263 1.99152 12C1.99152 14.3074 2.78943 16.5437 4.25 18.33L3 19.59L4.41 21L5.67 19.75C7.45625 21.2106 9.69263 22.0085 12 22.0085C14.3074 22.0085 16.5437 21.2106 18.33 19.75L19.59 21L21 19.59L19.75 18.33C21.2106 16.5437 22.0085 14.3074 22.0085 12C22.0085 9.69263 21.2106 7.45625 19.75 5.67ZM12 20C10.2255 19.9989 8.50181 19.4079 7.1 18.32L10.41 15L9 13.59L5.68 16.9C4.59342 15.4977 4.00376 13.774 4.00376 12C4.00376 10.226 4.59342 8.5023 5.68 7.1L9 10.41L10.41 9L7.1 5.68C8.5023 4.59342 10.226 4.00376 12 4.00376C13.774 4.00376 15.4977 4.59342 16.9 5.68L13.54 9L15 10.46L18.32 7.1C19.4066 8.5023 19.9962 10.226 19.9962 12C19.9962 13.774 19.4066 15.4977 18.32 16.9L15 13.59L13.59 15L16.9 18.32C15.4982 19.4079 13.7744 19.9989 12 20Z" fill="#0F1621"/>
</svg>
