<svg width="24" height="24" viewBox="0 0 24 24" fill="none" xmlns="http://www.w3.org/2000/svg">
<path d="M15.44 13.77C15.1486 13.7405 14.8542 13.7753 14.5777 13.8721C14.3013 13.9689 14.0494 14.1252 13.84 14.33L7 21.14C6.68731 21.4386 6.31379 21.666 5.90501 21.8068C5.49623 21.9476 5.06185 21.9983 4.63163 21.9556C4.2014 21.9129 3.7855 21.7776 3.4124 21.5592C3.0393 21.3408 2.71783 21.0443 2.47 20.69C2.09225 20.1053 1.92958 19.4075 2.00986 18.716C2.09013 18.0246 2.40835 17.3826 2.91 16.9L9.64 10.15C9.84481 9.94058 10.0011 9.68874 10.0979 9.41226C10.1947 9.13578 10.2295 8.84143 10.2 8.55C10.0775 7.50074 10.2389 6.43783 10.6675 5.47227C11.096 4.50671 11.776 3.67393 12.6363 3.06088C13.4966 2.44784 14.5057 2.07702 15.5583 1.98715C16.6108 1.89728 17.6682 2.09166 18.62 2.55L15.39 5.82V8.6H18.17L21.41 5.36C21.8658 6.3114 22.0582 7.36761 21.9671 8.41863C21.876 9.46965 21.5048 10.477 20.8921 11.3358C20.2794 12.1946 19.4476 12.8734 18.4835 13.3015C17.5193 13.7297 16.4579 13.8914 15.41 13.77H15.44Z" fill="#0F1621"/>
</svg>
