<svg width="24" height="24" viewBox="0 0 24 24" fill="none" xmlns="http://www.w3.org/2000/svg">
<path d="M20.63 4.13998C20.4061 3.8462 20.1438 3.58385 19.85 3.35998C18.8842 2.56408 17.6907 2.0953 16.4414 2.02118C15.1921 1.94706 13.9516 2.27144 12.8984 2.94757C11.8453 3.6237 11.034 4.61668 10.5814 5.78345C10.1288 6.95023 10.0583 8.23056 10.38 9.43998L2.92999 16.9C2.42834 17.3826 2.11012 18.0246 2.02985 18.716C1.94957 19.4075 2.11224 20.1053 2.48999 20.69C2.5992 20.8511 2.72306 21.0017 2.85999 21.14C3.13303 21.4133 3.45727 21.6302 3.81418 21.7781C4.17108 21.926 4.55364 22.0022 4.93999 22.0022C5.32634 22.0022 5.7089 21.926 6.0658 21.7781C6.4227 21.6302 6.74694 21.4133 7.01999 21.14L14.56 13.61C15.7701 13.9358 17.0525 13.8679 18.2214 13.416C19.3903 12.9641 20.3849 12.1518 21.0612 11.0967C21.7375 10.0417 22.0602 8.79867 21.9827 7.54788C21.9052 6.29708 21.4314 5.10346 20.63 4.13998ZM15.06 11.71L14 11.41L13.2 12.22L5.62999 19.75C5.44401 19.9273 5.19693 20.0262 4.93999 20.0262C4.68305 20.0262 4.43596 19.9273 4.24999 19.75C4.19899 19.7034 4.15519 19.6494 4.11999 19.59C3.99441 19.3855 3.94653 19.1427 3.98508 18.9059C4.02363 18.6691 4.14605 18.454 4.32999 18.3L11.78 10.84L12.58 10.04L12.29 8.93998C12.1036 8.27283 12.0978 7.56814 12.2732 6.89802C12.4486 6.22789 12.7988 5.61638 13.2881 5.12606C13.7775 4.63575 14.3882 4.28422 15.058 4.10744C15.7277 3.93067 16.4324 3.935 17.1 4.11998L15.39 5.82998V8.60998H18.17L19.87 6.89998C20.0527 7.56376 20.0564 8.26407 19.8807 8.92974C19.7051 9.59542 19.3564 10.2027 18.87 10.69C18.3772 11.1747 17.7672 11.5235 17.0994 11.7022C16.4317 11.881 15.7291 11.8837 15.06 11.71Z" fill="#0F1621"/>
</svg>
