<svg width="16" height="16" viewBox="0 0 16 16" fill="none" xmlns="http://www.w3.org/2000/svg">
<path d="M9 12.5C8.99189 11.9456 9.11752 11.3975 9.36623 10.9019C9.61495 10.4064 9.97943 9.97814 10.4288 9.65338C10.8782 9.32861 11.3992 9.11694 11.9477 9.03628C12.4963 8.95562 13.0562 9.00835 13.58 9.19001C13.8572 8.49314 13.9997 7.75 14 7.00001C14.0012 5.85581 13.6751 4.73514 13.0604 3.77014C12.4456 2.80513 11.5677 2.03603 10.5302 1.55352C9.49273 1.07101 8.33891 0.895216 7.20481 1.04686C6.07071 1.1985 5.00361 1.67126 4.12934 2.40939C3.25507 3.14752 2.61009 4.12025 2.27044 5.21287C1.9308 6.3055 1.91065 7.47245 2.21238 8.57615C2.51411 9.67985 3.12513 10.6743 3.97339 11.4421C4.82166 12.21 5.8718 12.7193 7 12.91V15H9V12.5ZM4 8.00001V6.00001H12V8.00001H4ZM15 13H13V15H12V13H10V12H12V10H13V12H15V13Z" fill="#0F1621"/>
</svg>
