<svg width="16" height="16" viewBox="0 0 16 16" fill="none" xmlns="http://www.w3.org/2000/svg">
<path fill-rule="evenodd" clip-rule="evenodd" d="M9.00001 12.5C9.00001 11.5717 9.36875 10.6815 10.0251 10.0251C10.6815 9.36875 11.5717 9 12.5 9C12.8645 9.00624 13.2257 9.07037 13.57 9.19C13.8586 8.49617 14.0048 7.75143 14 7C14 6.21207 13.8448 5.43185 13.5433 4.7039C13.2418 3.97595 12.7998 3.31451 12.2426 2.75736C11.6855 2.20021 11.0241 1.75825 10.2961 1.45672C9.56815 1.15519 8.78794 1 8.00001 1C7.21207 1 6.43186 1.15519 5.70391 1.45672C4.97595 1.75825 4.31452 2.20021 3.75737 2.75736C3.20021 3.31451 2.75826 3.97595 2.45673 4.7039C2.1552 5.43185 2.00001 6.21207 2.00001 7C1.99887 7.77756 2.1541 8.5474 2.45645 9.26377C2.7588 9.98013 3.2021 10.6284 3.76001 11.17L8.00001 15L9.27001 13.85C9.09228 13.4221 9.00053 12.9634 9.00001 12.5ZM6.00001 7C6.00001 6.60444 6.1173 6.21776 6.33707 5.88886C6.55683 5.55996 6.86919 5.30362 7.23464 5.15224C7.60009 5.00087 8.00222 4.96126 8.39019 5.03843C8.77815 5.1156 9.13451 5.30608 9.41422 5.58579C9.69392 5.86549 9.88441 6.22186 9.96158 6.60982C10.0387 6.99778 9.99914 7.39991 9.84777 7.76537C9.69639 8.13082 9.44004 8.44318 9.11115 8.66294C8.78225 8.8827 8.39557 9 8.00001 9C7.46957 9 6.96087 8.78929 6.58579 8.41421C6.21072 8.03914 6.00001 7.53043 6.00001 7ZM15 13H13V15H12V13H10V12H12V10H13V12H15V13Z" fill="#0F1621"/>
</svg>
