<svg xmlns="http://www.w3.org/2000/svg" width="24" height="24" viewBox="0 0 24 24"><rect width="24" height="24" style="fill:none"/><path d="M12,21.31V22H10V17.93a7.49,7.49,0,0,1-1.33-.28,8.06,8.06,0,0,1-2.74-1.46l-.59-.53A8,8,0,0,1,3,10a6.85,6.85,0,0,1,0-.79,8.07,8.07,0,0,1,1.3-3.65,8.88,8.88,0,0,1,1-1.22,8,8,0,0,1,11.32,0,8.88,8.88,0,0,1,1,1.22A8.07,8.07,0,0,1,19,9.21,6.85,6.85,0,0,1,19,10a8,8,0,0,1-.32,2.24A6.26,6.26,0,0,0,17,12l-.35,0A6.21,6.21,0,0,0,17,10a5.68,5.68,0,0,0,0-.59,6,6,0,0,0-1.73-3.65A6,6,0,0,0,6,6.67,6,6,0,0,0,5,9.41,5.68,5.68,0,0,0,5,10a5.93,5.93,0,0,0,1.76,4.24,5.48,5.48,0,0,0,.44.4,5.94,5.94,0,0,0,2.06,1.1,6.12,6.12,0,0,0,1,.21L11,16l.35,0A5.95,5.95,0,0,0,12,21.31ZM21,17H18V14H16v3H13v2h3v3h2V19h3ZM15,9H7v2h8Z"/></svg>