<svg width="24" height="24" viewBox="0 0 24 24" fill="none" xmlns="http://www.w3.org/2000/svg">
<path d="M20 4L15 8V12.81C16.095 12.179 17.3613 11.9098 18.6183 12.0409C19.8753 12.1719 21.0588 12.6966 22 13.54V4H20ZM2 4V20C2 20.5304 2.21071 21.0391 2.58579 21.4142C2.96086 21.7893 3.46957 22 4 22H13V21.31C12.3506 20.3282 12.0044 19.1771 12.0044 18C12.0044 16.8229 12.3506 15.6718 13 14.69V2H4C3.46957 2 2.96086 2.21071 2.58579 2.58579C2.21071 2.96086 2 3.46957 2 4ZM7.5 10.5C7.79667 10.5 8.08668 10.588 8.33335 10.7528C8.58003 10.9176 8.77229 11.1519 8.88582 11.426C8.99935 11.7001 9.02906 12.0017 8.97118 12.2926C8.9133 12.5836 8.77044 12.8509 8.56066 13.0607C8.35088 13.2704 8.08361 13.4133 7.79264 13.4712C7.50166 13.5291 7.20006 13.4994 6.92597 13.3858C6.65189 13.2723 6.41762 13.08 6.2528 12.8334C6.08797 12.5867 6 12.2967 6 12C6 11.6022 6.15804 11.2206 6.43934 10.9393C6.72064 10.658 7.10218 10.5 7.5 10.5ZM22 19H19V22H17V19H14V17H17V14H19V17H22V19Z" fill="#0F1621"/>
</svg>
