<svg xmlns="http://www.w3.org/2000/svg" width="24" height="24" viewBox="0 0 24 24"><path d="M9.86,12.71l2.85-2.85,1.43,1.43-2.85,2.85Zm1.19,4.55L9.14,19.17,7.7,17.73l2.16-2.16L8.43,14.14,6.27,16.3,4.83,14.86l10-10L16.3,6.27,14.14,8.43l1.43,1.43L17.73,7.7l1.44,1.44-2.91,2.91A6.13,6.13,0,0,1,17,12a5.92,5.92,0,0,1,1.85.29L22,9.14,14.86,2,2,14.86,9.14,22l2.15-2.15A5.92,5.92,0,0,1,11,18,6.13,6.13,0,0,1,11.05,17.26ZM18,14H16v3H13v2h3v3h2V19h3V17H18Z"/><rect width="24" height="24" style="fill:none"/></svg>