<svg width="24" height="24" viewBox="0 0 24 24" fill="none" xmlns="http://www.w3.org/2000/svg">
<path d="M22 19H19V22H17V19H14V17H17V14H19V17H22V19ZM12.35 20H7.81998C7.65287 20.4797 7.3667 20.9091 6.9883 21.2479C6.6099 21.5867 6.15166 21.824 5.65654 21.9373C5.16141 22.0507 4.6456 22.0365 4.15747 21.896C3.66933 21.7556 3.22485 21.4935 2.86568 21.1343C2.50651 20.7752 2.24442 20.3307 2.10397 19.8425C1.96352 19.3544 1.94931 18.8386 2.06267 18.3435C2.17603 17.8483 2.41325 17.3901 2.7521 17.0117C3.09094 16.6333 3.52032 16.3471 3.99998 16.18V7.82001C3.52032 7.6529 3.09094 7.36673 2.7521 6.98833C2.41325 6.60993 2.17603 6.15169 2.06267 5.65657C1.94931 5.16144 1.96352 4.64563 2.10397 4.1575C2.24442 3.66936 2.50651 3.22488 2.86568 2.86571C3.22485 2.50654 3.66933 2.24445 4.15747 2.104C4.6456 1.96355 5.16141 1.94934 5.65654 2.0627C6.15166 2.17606 6.6099 2.41328 6.9883 2.75213C7.3667 3.09097 7.65287 3.52035 7.81998 4.00001H16.18C16.3471 3.52035 16.6333 3.09097 17.0117 2.75213C17.3901 2.41328 17.8483 2.17606 18.3434 2.0627C18.8386 1.94934 19.3544 1.96355 19.8425 2.104C20.3306 2.24445 20.7751 2.50654 21.1343 2.86571C21.4935 3.22488 21.7555 3.66936 21.896 4.1575C22.0365 4.64563 22.0507 5.16144 21.9373 5.65657C21.8239 6.15169 21.5867 6.60993 21.2479 6.98833C20.909 7.36673 20.4796 7.6529 20 7.82001V12.35C19.358 12.1206 18.6817 12.0022 18 12V7.82001C17.5806 7.6707 17.1997 7.42991 16.8849 7.11511C16.5701 6.80032 16.3293 6.41941 16.18 6.00001H7.81998C7.67067 6.41941 7.42988 6.80032 7.11508 7.11511C6.80029 7.42991 6.41938 7.6707 5.99998 7.82001V16.18C6.41938 16.3293 6.80029 16.5701 7.11508 16.8849C7.42988 17.1997 7.67067 17.5806 7.81998 18H12C12.0022 18.6817 12.1205 19.3581 12.35 20ZM18 5.00001C18 5.1978 18.0586 5.39114 18.1685 5.55558C18.2784 5.72003 18.4346 5.84821 18.6173 5.92389C18.8 5.99958 19.0011 6.01938 19.1951 5.9808C19.3891 5.94221 19.5672 5.84697 19.7071 5.70712C19.8469 5.56727 19.9422 5.38909 19.9808 5.1951C20.0194 5.00112 19.9995 4.80006 19.9239 4.61733C19.8482 4.4346 19.72 4.27843 19.5556 4.16854C19.3911 4.05866 19.1978 4.00001 19 4.00001C18.7348 4.00001 18.4804 4.10537 18.2929 4.29291C18.1053 4.48044 18 4.7348 18 5.00001ZM3.99998 5.00001C3.99998 5.1978 4.05863 5.39114 4.16851 5.55558C4.2784 5.72003 4.43457 5.84821 4.6173 5.92389C4.80003 5.99958 5.00109 6.01938 5.19507 5.9808C5.38906 5.94221 5.56724 5.84697 5.70709 5.70712C5.84694 5.56727 5.94218 5.38909 5.98077 5.1951C6.01935 5.00112 5.99955 4.80006 5.92386 4.61733C5.84818 4.4346 5.72 4.27843 5.55555 4.16854C5.3911 4.05866 5.19777 4.00001 4.99998 4.00001C4.73477 4.00001 4.48041 4.10537 4.29288 4.29291C4.10534 4.48044 3.99998 4.7348 3.99998 5.00001ZM5.99998 19C5.99998 18.8022 5.94133 18.6089 5.83145 18.4444C5.72157 18.28 5.56539 18.1518 5.38267 18.0761C5.19994 18.0004 4.99887 17.9806 4.80489 18.0192C4.61091 18.0578 4.43273 18.1531 4.29288 18.2929C4.15302 18.4328 4.05778 18.6109 4.0192 18.8049C3.98061 18.9989 4.00042 19.2 4.0761 19.3827C4.15179 19.5654 4.27996 19.7216 4.44441 19.8315C4.60886 19.9414 4.8022 20 4.99998 20C5.2652 20 5.51955 19.8947 5.70709 19.7071C5.89463 19.5196 5.99998 19.2652 5.99998 19Z" fill="#0F1621"/>
</svg>
