<svg xmlns="http://www.w3.org/2000/svg" viewBox="0 0 24 24"><defs><style>.cls-1{opacity:0;}.cls-2{fill:none;}</style></defs><g id="Layer_2" data-name="Layer 2"><g id="UI_Solid" data-name="UI Solid"><g id="color-palette"><g class="cls-1"><rect class="cls-2" width="24" height="24"/></g><path d="M21.71,9.57a10,10,0,0,0-8-7.43A10.93,10.93,0,0,0,12,2,10,10,0,0,0,2,12.74,10.18,10.18,0,0,0,12.28,22a1.72,1.72,0,0,0,1.63-2.27l-.8-2.39A2,2,0,0,1,15,14.7a2.28,2.28,0,0,1,.44.05l4,.86a1.58,1.58,0,0,0,.43.05,2,2,0,0,0,1.94-1.53A10.2,10.2,0,0,0,21.71,9.57ZM8,16a1,1,0,1,1,1-1A1,1,0,0,1,8,16Zm-.5-4A1.5,1.5,0,1,1,9,10.5,1.5,1.5,0,0,1,7.5,12ZM11,9a1.5,1.5,0,1,1,1.5-1.5A1.5,1.5,0,0,1,11,9Zm4.5,2A1.5,1.5,0,1,1,17,9.5,1.5,1.5,0,0,1,15.5,11Z"/></g></g></g></svg>