<svg width="24" height="24" viewBox="0 0 24 24" fill="none" xmlns="http://www.w3.org/2000/svg">
<path d="M21.71 9.57001C21.2401 7.68944 20.2338 5.98598 18.8135 4.66687C17.3932 3.34776 15.6201 2.46987 13.71 2.14001C13.1446 2.04861 12.5728 2.0018 12 2.00001C10.6221 1.99623 9.25833 2.27724 7.99419 2.82542C6.73004 3.37359 5.59282 4.1771 4.65388 5.18553C3.71493 6.19396 2.99451 7.38556 2.53782 8.68555C2.08114 9.98555 1.89803 11.3659 2 12.74C2.23158 15.2948 3.41913 17.6679 5.32512 19.3848C7.23111 21.1017 9.71501 22.0357 12.28 22C12.5531 22.0001 12.8223 21.9351 13.0653 21.8104C13.3083 21.6858 13.5181 21.5051 13.6774 21.2832C13.8367 21.0614 13.9409 20.8048 13.9813 20.5347C14.0218 20.2646 13.9973 19.9888 13.91 19.73L13.11 17.34C13.0085 17.0395 12.9799 16.7192 13.0266 16.4055C13.0733 16.0918 13.194 15.7937 13.3786 15.5358C13.5632 15.2779 13.8066 15.0676 14.0885 14.9223C14.3704 14.777 14.6828 14.7008 15 14.7C15.1479 14.7024 15.2953 14.7191 15.44 14.75L19.44 15.61C19.5804 15.6463 19.7251 15.6631 19.87 15.66C20.318 15.6591 20.7527 15.5078 21.1045 15.2304C21.4563 14.953 21.7047 14.5655 21.81 14.13C22.1213 12.6219 22.0871 11.063 21.71 9.57001ZM19.83 13.66L15.83 12.8C15.5485 12.7317 15.2597 12.6981 14.97 12.7C14.3363 12.7018 13.712 12.8542 13.1487 13.1445C12.5854 13.4348 12.0991 13.8549 11.73 14.37C11.36 14.8837 11.1172 15.4779 11.0215 16.1038C10.9259 16.7296 10.9802 17.3692 11.18 17.97L11.86 19.97C9.87651 19.906 7.9843 19.1214 6.53755 17.763C5.0908 16.4046 4.18867 14.5655 4 12.59C3.91872 11.4909 4.06541 10.3868 4.43089 9.34706C4.79637 8.3073 5.37275 7.35427 6.12388 6.54775C6.87501 5.74122 7.78469 5.0986 8.79586 4.66018C9.80703 4.22176 10.8979 3.99701 12 4.00001C12.4621 4.00185 12.9234 4.03862 13.38 4.11001C14.4399 4.29478 15.4516 4.69144 16.3546 5.27625C17.2576 5.86106 18.0334 6.622 18.6356 7.51356C19.2377 8.40512 19.6539 9.40898 19.8591 10.4651C20.0643 11.5212 20.0544 12.6078 19.83 13.66ZM9 10.5C9 10.7967 8.91203 11.0867 8.74721 11.3334C8.58238 11.58 8.34812 11.7723 8.07403 11.8858C7.79994 11.9994 7.49834 12.0291 7.20737 11.9712C6.91639 11.9133 6.64912 11.7704 6.43934 11.5607C6.22956 11.3509 6.0867 11.0836 6.02882 10.7926C5.97095 10.5017 6.00065 10.2001 6.11418 9.92598C6.22771 9.65189 6.41997 9.41762 6.66665 9.2528C6.91332 9.08798 7.20333 9.00001 7.5 9.00001C7.89783 9.00001 8.27936 9.15804 8.56066 9.43935C8.84197 9.72065 9 10.1022 9 10.5ZM9 15C9 15.1978 8.94135 15.3911 8.83147 15.5556C8.72159 15.72 8.56541 15.8482 8.38268 15.9239C8.19996 15.9996 7.99889 16.0194 7.80491 15.9808C7.61093 15.9422 7.43275 15.847 7.29289 15.7071C7.15304 15.5673 7.0578 15.3891 7.01922 15.1951C6.98063 15.0011 7.00043 14.8 7.07612 14.6173C7.15181 14.4346 7.27998 14.2784 7.44443 14.1685C7.60888 14.0587 7.80222 14 8 14C8.26522 14 8.51957 14.1054 8.70711 14.2929C8.89464 14.4804 9 14.7348 9 15ZM12.5 7.50001C12.5 7.79668 12.412 8.08669 12.2472 8.33336C12.0824 8.58004 11.8481 8.77229 11.574 8.88583C11.2999 8.99936 10.9983 9.02906 10.7074 8.97119C10.4164 8.91331 10.1491 8.77045 9.93934 8.56067C9.72956 8.35089 9.5867 8.08361 9.52882 7.79264C9.47094 7.50167 9.50065 7.20007 9.61418 6.92598C9.72771 6.65189 9.91997 6.41762 10.1666 6.2528C10.4133 6.08798 10.7033 6.00001 11 6.00001C11.3978 6.00001 11.7794 6.15804 12.0607 6.43935C12.342 6.72065 12.5 7.10218 12.5 7.50001ZM17 9.50001C17 9.79668 16.912 10.0867 16.7472 10.3334C16.5824 10.58 16.3481 10.7723 16.074 10.8858C15.7999 10.9994 15.4983 11.0291 15.2074 10.9712C14.9164 10.9133 14.6491 10.7704 14.4393 10.5607C14.2296 10.3509 14.0867 10.0836 14.0288 9.79264C13.9709 9.50167 14.0007 9.20007 14.1142 8.92598C14.2277 8.65189 14.42 8.41762 14.6666 8.2528C14.9133 8.08798 15.2033 8.00001 15.5 8.00001C15.8978 8.00001 16.2794 8.15804 16.5607 8.43935C16.842 8.72065 17 9.10218 17 9.50001Z" fill="#0F1621"/>
</svg>
