<svg width="24" height="24" viewBox="0 0 24 24" fill="none" xmlns="http://www.w3.org/2000/svg">
<path d="M6 16L5 18.29V22H5.54L8.21 16H11V17H13V16H15.79L18.46 22H19V18.29L18 16H19V14H17.09L15 9.28C15.2759 8.8255 15.4433 8.31355 15.4892 7.78388C15.5352 7.25421 15.4585 6.72107 15.265 6.22586C15.0716 5.73064 14.7666 5.28666 14.3738 4.92839C13.981 4.57011 13.5109 4.30718 13 4.16V2H11V4.16C10.4891 4.30718 10.019 4.57011 9.62621 4.92839C9.2334 5.28666 8.92844 5.73064 8.73499 6.22586C8.54155 6.72107 8.46483 7.25421 8.51079 7.78388C8.55675 8.31355 8.72415 8.8255 9 9.28L6.91 14H5V16H6ZM12 6C12.2967 6 12.5867 6.08797 12.8334 6.2528C13.08 6.41762 13.2723 6.65189 13.3858 6.92597C13.4994 7.20006 13.5291 7.50166 13.4712 7.79264C13.4133 8.08361 13.2704 8.35088 13.0607 8.56066C12.8509 8.77044 12.5836 8.9133 12.2926 8.97118C12.0017 9.02906 11.7001 8.99935 11.426 8.88582C11.1519 8.77229 10.9176 8.58003 10.7528 8.33335C10.588 8.08668 10.5 7.79667 10.5 7.5C10.5 7.10218 10.658 6.72064 10.9393 6.43934C11.2206 6.15804 11.6022 6 12 6ZM10.57 10.69C11.019 10.8945 11.5066 11.0003 12 11.0003C12.4934 11.0003 12.981 10.8945 13.43 10.69L14.91 14H13V13H11V14H9.09L10.57 10.69Z" fill="#0F1621"/>
</svg>
