<svg width="24" height="24" viewBox="0 0 24 24" fill="none" xmlns="http://www.w3.org/2000/svg">
<path d="M11.65 13.77L7.69999 17.71C7.89484 18.1123 7.99734 18.553 7.99999 19C8.00183 19.6506 7.79212 20.2842 7.40246 20.8052C7.01281 21.3262 6.46434 21.7064 5.83973 21.8886C5.21513 22.0707 4.54825 22.0448 3.93963 21.8148C3.33102 21.5849 2.81366 21.1633 2.46555 20.6136C2.11743 20.064 1.95744 19.4161 2.00969 18.7676C2.06194 18.1191 2.3236 17.5051 2.75522 17.0183C3.18683 16.5314 3.76502 16.1981 4.4026 16.0686C5.04018 15.939 5.7026 16.0202 6.28999 16.3L10.23 12.3L11.65 13.77ZM19 1.99999C18.2043 1.99999 17.4413 2.31606 16.8787 2.87867C16.3161 3.44128 16 4.20434 16 4.99999C16.0026 5.44697 16.1051 5.88771 16.3 6.28999L12.3 10.23L13.72 11.65L17.71 7.69999C18.1165 7.89687 18.5623 7.9994 19.014 7.99994C19.4657 8.00047 19.9117 7.89899 20.3187 7.70308C20.7257 7.50716 21.0833 7.22186 21.3646 6.86847C21.6459 6.51507 21.8438 6.10271 21.9436 5.66214C22.0433 5.22157 22.0422 4.76417 21.9404 4.32408C21.8387 3.88398 21.6388 3.47254 21.3558 3.12047C21.0728 2.76839 20.714 2.48477 20.3061 2.29075C19.8982 2.09674 19.4517 1.99735 19 1.99999Z" fill="#0F1621"/>
</svg>
