<svg width="24" height="24" viewBox="0 0 24 24" fill="none" xmlns="http://www.w3.org/2000/svg">
<path d="M11.49 8.24998L3.08 16.66L2 20.73C1.9382 20.908 1.92798 21.0999 1.97051 21.2835C2.01305 21.4671 2.1066 21.635 2.24039 21.7677C2.37418 21.9005 2.54276 21.9927 2.7267 22.0338C2.91063 22.0749 3.10244 22.0632 3.28 22L7.35 21L15.76 12.59L11.49 8.24998ZM18.59 9.68998L20.59 11.69L19.18 13.11L10.91 4.83998L12.32 3.41998L14.32 5.41998L16.86 2.87998C17.4225 2.31818 18.185 2.00262 18.98 2.00262C19.775 2.00262 20.5375 2.31818 21.1 2.87998C21.3797 3.1587 21.6016 3.48987 21.753 3.85453C21.9044 4.21918 21.9824 4.61014 21.9824 5.00498C21.9824 5.39983 21.9044 5.79079 21.753 6.15544C21.6016 6.5201 21.3797 6.85127 21.1 7.12998L18.59 9.68998Z" fill="#0F1621"/>
</svg>
