<svg width="16" height="16" viewBox="0 0 16 16" fill="none" xmlns="http://www.w3.org/2000/svg">
<path d="M7.46 5.70999L10.29 8.53999L5 13.86L2.2 15C2.03461 15.0383 1.86218 15.0339 1.69897 14.9872C1.53575 14.9405 1.38711 14.853 1.26706 14.7329C1.14701 14.6129 1.0595 14.4642 1.01278 14.301C0.966058 14.1378 0.96166 13.9654 1 13.8L2.14 11L7.46 5.70999ZM12.46 6.41999L14 4.82999C14.3753 4.45471 14.5861 3.94572 14.5861 3.41499C14.5861 2.88426 14.3753 2.37527 14 1.99999C13.6247 1.62471 13.1157 1.41388 12.585 1.41388C12.0543 1.41388 11.5453 1.62471 11.17 1.99999L9.59 3.58999L8.41 2.40999L7 3.82999L12.17 8.99999L13.59 7.58999L12.46 6.41999Z" fill="#0F1621"/>
</svg>
