<svg xmlns="http://www.w3.org/2000/svg" viewBox="0 0 24 24"><g id="Layer_2" data-name="Layer 2"><g id="UI_Outline" data-name="UI Outline"><g id="picker"><rect width="24" height="24" style="fill:none"/><path d="M11.49,11.08l1.44,1.44-6.6,6.61-1.94.49.49-1.93,6.61-6.61M19,2a3,3,0,0,0-2.12.88L14.32,5.42l-2-2L10.91,4.84l3.41,3.41,3.95-4A1,1,0,0,1,19,4a1,1,0,0,1,.69.28l0,0h0A1,1,0,0,1,20,5a1,1,0,0,1-.29.7l-3.95,4,3.41,3.41,1.41-1.42-2-2,2.54-2.53a3,3,0,0,0,0-4.25l0,0A3,3,0,0,0,19,2ZM11.49,8.25,3.08,16.66,2,20.73A1,1,0,0,0,3,22a1,1,0,0,0,.29,0l4.07-1,8.41-8.41L11.49,8.25Z"/></g></g></g></svg>