<svg xmlns="http://www.w3.org/2000/svg" viewBox="0 0 24 24"><defs><style>.cls-1{fill:none;}</style></defs><g id="Layer_2" data-name="Layer 2"><g id="System_UI_Solid" data-name="System UI Solid"><g id="polyline"><rect class="cls-1" width="24" height="24"/><path d="M19,2a3,3,0,0,0-3,3,3,3,0,0,0,.3,1.29L14.79,7.8,16.2,9.21,17.71,7.7A3,3,0,1,0,19,2ZM7.8,14.79,6.29,16.3A3,3,0,1,0,8,19a3,3,0,0,0-.3-1.29L9.21,16.2ZM12,10.59,13.41,12l1.39-1.4L13.39,9.2ZM9.2,13.39l1.41,1.41L12,13.41,10.59,12Z"/></g></g></g></svg>