<svg width="24" height="24" viewBox="0 0 24 24" fill="none" xmlns="http://www.w3.org/2000/svg">
<path d="M19 1.99999C18.2043 1.99999 17.4413 2.31606 16.8787 2.87867C16.3161 3.44128 16 4.20434 16 4.99999C16.0026 5.44697 16.1051 5.88771 16.3 6.28999L14.79 7.79999L16.2 9.20999L17.71 7.69999C18.1165 7.89687 18.5623 7.9994 19.014 7.99994C19.4657 8.00047 19.9117 7.89899 20.3187 7.70308C20.7257 7.50716 21.0833 7.22186 21.3646 6.86847C21.6459 6.51507 21.8439 6.10271 21.9436 5.66214C22.0433 5.22157 22.0422 4.76417 21.9404 4.32408C21.8387 3.88398 21.6388 3.47254 21.3558 3.12047C21.0729 2.76839 20.714 2.48477 20.3061 2.29075C19.8982 2.09674 19.4517 1.99735 19 1.99999ZM7.8 14.79L6.29 16.3C5.70261 16.0202 5.04019 15.939 4.40261 16.0686C3.76502 16.1981 3.18684 16.5314 2.75522 17.0183C2.32361 17.5051 2.06195 18.1191 2.0097 18.7676C1.95745 19.4161 2.11744 20.064 2.46555 20.6136C2.81366 21.1633 3.33103 21.5849 3.93964 21.8148C4.54826 22.0448 5.21514 22.0707 5.83974 21.8886C6.46434 21.7064 7.01282 21.3262 7.40247 20.8052C7.79213 20.2842 8.00184 19.6506 8 19C7.99735 18.553 7.89485 18.1123 7.7 17.71L9.21 16.2L7.8 14.79ZM12 10.59L13.41 12L14.8 10.6L13.39 9.19999L12 10.59ZM9.2 13.39L10.61 14.8L12 13.41L10.59 12L9.2 13.39Z" fill="#0F1621"/>
</svg>
