<svg xmlns="http://www.w3.org/2000/svg" viewBox="0 0 24 24"><g id="Layer_2" data-name="Layer 2"><g id="UI_Outline" data-name="UI Outline"><g id="polygon"><rect width="24" height="24" style="fill:none"/><path d="M19,16a2.58,2.58,0,0,0-.39,0h0l-.89-1.79L16,15.13l.89,1.79h0A3.14,3.14,0,0,0,16.18,18H7.82a3.14,3.14,0,0,0-.66-1.08l4.48-9A2.2,2.2,0,0,0,12,8a3.27,3.27,0,0,0,.44,0l-.06,0,.89,1.78,1.79-.89-.9-1.79,0,0a3,3,0,1,0-4.29,0L5.36,16A2.2,2.2,0,0,0,5,16a3,3,0,1,0,2.82,4h8.36A3,3,0,1,0,19,16Zm-3.94-2.65,1.78-.9L16,10.67l-1.79.89Z"/></g></g></g></svg>