<svg width="24" height="24" viewBox="0 0 24 24" fill="none" xmlns="http://www.w3.org/2000/svg">
<path d="M4 8H2V11H4V8ZM2 5V6H4V5C4 4.73478 4.10536 4.48043 4.29289 4.29289C4.48043 4.10536 4.73478 4 5 4H6V2H5C4.20435 2 3.44129 2.31607 2.87868 2.87868C2.31607 3.44129 2 4.20435 2 5ZM4 19V18H2V19C2 19.7956 2.31607 20.5587 2.87868 21.1213C3.44129 21.6839 4.20435 22 5 22H6V20H5C4.73478 20 4.48043 19.8946 4.29289 19.7071C4.10536 19.5196 4 19.2652 4 19ZM11 2H8V4H11V2ZM13 4H16V2H13V4ZM19 2H18V4H19C19.2652 4 19.5196 4.10536 19.7071 4.29289C19.8946 4.48043 20 4.73478 20 5V6H22V5C22 4.20435 21.6839 3.44129 21.1213 2.87868C20.5587 2.31607 19.7956 2 19 2ZM20 11H22V8H20V11ZM4 13H2V16H4V13ZM20 16H22V13H20V16ZM20 19C20 19.2652 19.8946 19.5196 19.7071 19.7071C19.5196 19.8946 19.2652 20 19 20H18V22H19C19.7956 22 20.5587 21.6839 21.1213 21.1213C21.6839 20.5587 22 19.7956 22 19V18H20V19ZM16 22V20H13.9C13.7543 20.7259 13.4467 21.4095 13 22H16ZM13 15C12.9996 15.3507 12.9071 15.6952 12.7315 15.9988C12.556 16.3025 12.3037 16.5546 12 16.73V19C12 19.7956 11.6839 20.5587 11.1213 21.1213C10.5587 21.6839 9.79565 22 9 22H8V20H9C9.26522 20 9.51957 19.8946 9.70711 19.7071C9.89464 19.5196 10 19.2652 10 19V16.73C9.69589 16.5544 9.44336 16.3019 9.26782 15.9977C9.09228 15.6936 8.99991 15.3486 9 14.9974C9.00009 14.6463 9.09264 14.3013 9.26834 13.9973C9.44403 13.6932 9.69669 13.4408 10.0009 13.2654C10.3051 13.09 10.6501 12.9977 11.0013 12.998C11.3524 12.9982 11.6974 13.0909 12.0013 13.2667C12.3053 13.4425 12.5576 13.6952 12.7329 13.9995C12.9083 14.3038 13.0004 14.6488 13 15Z" fill="#0F1621"/>
</svg>
