<svg width="16" height="16" viewBox="0 0 16 16" fill="none" xmlns="http://www.w3.org/2000/svg">
<path d="M10 10C9.99964 10.3507 9.90706 10.6952 9.73154 10.9988C9.55602 11.3025 9.30374 11.5546 9 11.73V14C9 14.2652 8.89464 14.5196 8.70711 14.7071C8.51957 14.8946 8.26522 15 8 15H6V13H7V11.73C6.69589 11.5544 6.44336 11.3019 6.26782 10.9977C6.09228 10.6936 5.99991 10.3486 6 9.99744C6.00009 9.64628 6.09264 9.30133 6.26834 8.99728C6.44403 8.69324 6.69669 8.44081 7.00089 8.26539C7.30509 8.08996 7.65012 7.99773 8.00128 7.99795C8.35244 7.99818 8.69735 8.09085 9.00133 8.26667C9.30531 8.44248 9.55764 8.69523 9.73295 8.9995C9.90826 9.30377 10.0004 9.64884 10 10ZM3 7V9H1V7H3ZM5 1V3H3V5H1V2C1 1.73478 1.10536 1.48043 1.29289 1.29289C1.48043 1.10536 1.73478 1 2 1H5ZM4 13V15H2C1.73478 15 1.48043 14.8946 1.29289 14.7071C1.10536 14.5196 1 14.2652 1 14V11H3V13H4ZM9 1V3H7V1H9ZM15 2V5H13V3H11V1H14C14.2652 1 14.5196 1.10536 14.7071 1.29289C14.8946 1.48043 15 1.73478 15 2ZM15 7V9H13V7H15ZM15 11V14C15 14.2652 14.8946 14.5196 14.7071 14.7071C14.5196 14.8946 14.2652 15 14 15H11V13H13V11H15Z" fill="#0F1621"/>
</svg>
