<svg xmlns="http://www.w3.org/2000/svg" viewBox="0 0 16 16"><defs><style>.cls-1{fill:none;}</style></defs><g id="Layer_2" data-name="Layer 2"><g id="UI_16" data-name="UI 16"><g id="selector-freeform"><rect class="cls-1" width="16" height="16"/><path d="M10,10a2,2,0,0,1-1,1.73V14a1,1,0,0,1-1,1H6V13H7V11.73A2,2,0,1,1,10,10ZM3,7V9H1V7ZM5,1V3H3V5H1V2A1,1,0,0,1,2,1ZM4,13v2H2a1,1,0,0,1-1-1V11H3v2ZM9,1V3H7V1Zm6,1V5H13V3H11V1h3A1,1,0,0,1,15,2Zm0,5V9H13V7Zm0,4v3a1,1,0,0,1-1,1H11V13h2V11Z"/></g></g></g></svg>