<svg width="24" height="24" viewBox="0 0 24 24" fill="none" xmlns="http://www.w3.org/2000/svg">
<path d="M20 16.18V7.82001C20.4797 7.6529 20.9091 7.36673 21.2479 6.98833C21.5867 6.60993 21.824 6.15169 21.9373 5.65657C22.0507 5.16144 22.0365 4.64563 21.896 4.1575C21.7556 3.66936 21.4935 3.22488 21.1343 2.86571C20.7752 2.50654 20.3307 2.24445 19.8425 2.104C19.3544 1.96355 18.8386 1.94934 18.3435 2.0627C17.8483 2.17606 17.3901 2.41328 17.0117 2.75213C16.6333 3.09097 16.3471 3.52035 16.18 4.00001H7.82001C7.6529 3.52035 7.36673 3.09097 6.98833 2.75213C6.60993 2.41328 6.15169 2.17606 5.65657 2.0627C5.16144 1.94934 4.64563 1.96355 4.1575 2.104C3.66936 2.24445 3.22488 2.50654 2.86571 2.86571C2.50654 3.22488 2.24445 3.66936 2.104 4.1575C1.96355 4.64563 1.94934 5.16144 2.0627 5.65657C2.17606 6.15169 2.41328 6.60993 2.75213 6.98833C3.09097 7.36673 3.52035 7.6529 4.00001 7.82001V16.18C3.52035 16.3471 3.09097 16.6333 2.75213 17.0117C2.41328 17.3901 2.17606 17.8483 2.0627 18.3435C1.94934 18.8386 1.96355 19.3544 2.104 19.8425C2.24445 20.3307 2.50654 20.7752 2.86571 21.1343C3.22488 21.4935 3.66936 21.7556 4.1575 21.896C4.64563 22.0365 5.16144 22.0507 5.65657 21.9373C6.15169 21.824 6.60993 21.5867 6.98833 21.2479C7.36673 20.9091 7.6529 20.4797 7.82001 20H16.18C16.3471 20.4797 16.6333 20.9091 17.0117 21.2479C17.3901 21.5867 17.8483 21.824 18.3435 21.9373C18.8386 22.0507 19.3544 22.0365 19.8425 21.896C20.3307 21.7556 20.7752 21.4935 21.1343 21.1343C21.4935 20.7752 21.7556 20.3307 21.896 19.8425C22.0365 19.3544 22.0507 18.8386 21.9373 18.3435C21.824 17.8483 21.5867 17.3901 21.2479 17.0117C20.9091 16.6333 20.4797 16.3471 20 16.18ZM6.00001 16.18V7.82001C6.41941 7.6707 6.80032 7.42991 7.11511 7.11511C7.42991 6.80032 7.6707 6.41941 7.82001 6.00001H16.18C16.3293 6.41941 16.5701 6.80032 16.8849 7.11511C17.1997 7.42991 17.5806 7.6707 18 7.82001V16.18C17.5806 16.3293 17.1997 16.5701 16.8849 16.8849C16.5701 17.1997 16.3293 17.5806 16.18 18H7.82001C7.6707 17.5806 7.42991 17.1997 7.11511 16.8849C6.80032 16.5701 6.41941 16.3293 6.00001 16.18Z" fill="#0F1621"/>
</svg>
