<svg width="24" height="24" viewBox="0 0 24 24" fill="none" xmlns="http://www.w3.org/2000/svg">
<path d="M20 16.18V7.82001C20.4796 7.6529 20.909 7.36673 21.2479 6.98833C21.5867 6.60993 21.8239 6.15169 21.9373 5.65657C22.0507 5.16144 22.0365 4.64563 21.896 4.1575C21.7555 3.66936 21.4935 3.22488 21.1343 2.86571C20.7751 2.50654 20.3306 2.24445 19.8425 2.104C19.3544 1.96355 18.8386 1.94934 18.3434 2.0627C17.8483 2.17606 17.3901 2.41328 17.0117 2.75213C16.6333 3.09097 16.3471 3.52035 16.18 4.00001H7.81998C7.65287 3.52035 7.3667 3.09097 6.9883 2.75213C6.6099 2.41328 6.15166 2.17606 5.65654 2.0627C5.16141 1.94934 4.6456 1.96355 4.15747 2.104C3.66933 2.24445 3.22485 2.50654 2.86568 2.86571C2.50651 3.22488 2.24442 3.66936 2.10397 4.1575C1.96352 4.64563 1.94931 5.16144 2.06267 5.65657C2.17603 6.15169 2.41325 6.60993 2.7521 6.98833C3.09094 7.36673 3.52032 7.6529 3.99998 7.82001V16.18C3.52032 16.3471 3.09094 16.6333 2.7521 17.0117C2.41325 17.3901 2.17603 17.8483 2.06267 18.3435C1.94931 18.8386 1.96352 19.3544 2.10397 19.8425C2.24442 20.3307 2.50651 20.7752 2.86568 21.1343C3.22485 21.4935 3.66933 21.7556 4.15747 21.896C4.6456 22.0365 5.16141 22.0507 5.65654 21.9373C6.15166 21.824 6.6099 21.5867 6.9883 21.2479C7.3667 20.9091 7.65287 20.4797 7.81998 20H16.18C16.3471 20.4797 16.6333 20.9091 17.0117 21.2479C17.3901 21.5867 17.8483 21.824 18.3434 21.9373C18.8386 22.0507 19.3544 22.0365 19.8425 21.896C20.3306 21.7556 20.7751 21.4935 21.1343 21.1343C21.4935 20.7752 21.7555 20.3307 21.896 19.8425C22.0365 19.3544 22.0507 18.8386 21.9373 18.3435C21.8239 17.8483 21.5867 17.3901 21.2479 17.0117C20.909 16.6333 20.4796 16.3471 20 16.18ZM16.18 18H7.81998C7.67067 17.5806 7.42988 17.1997 7.11508 16.8849C6.80029 16.5701 6.41938 16.3293 5.99998 16.18V7.82001C6.41938 7.6707 6.80029 7.42991 7.11508 7.11511C7.42988 6.80032 7.67067 6.41941 7.81998 6.00001H16.18C16.3293 6.41941 16.5701 6.80032 16.8849 7.11511C17.1997 7.42991 17.5806 7.6707 18 7.82001V16.18C17.5806 16.3293 17.1997 16.5701 16.8849 16.8849C16.5701 17.1997 16.3293 17.5806 16.18 18ZM19 4.00001C19.1978 4.00001 19.3911 4.05866 19.5556 4.16854C19.72 4.27843 19.8482 4.4346 19.9239 4.61733C19.9995 4.80006 20.0194 5.00112 19.9808 5.1951C19.9422 5.38909 19.8469 5.56727 19.7071 5.70712C19.5672 5.84697 19.3891 5.94221 19.1951 5.9808C19.0011 6.01938 18.8 5.99958 18.6173 5.92389C18.4346 5.84821 18.2784 5.72003 18.1685 5.55558C18.0586 5.39114 18 5.1978 18 5.00001C18 4.7348 18.1053 4.48044 18.2929 4.29291C18.4804 4.10537 18.7348 4.00001 19 4.00001ZM4.99998 4.00001C5.19777 4.00001 5.3911 4.05866 5.55555 4.16854C5.72 4.27843 5.84818 4.4346 5.92386 4.61733C5.99955 4.80006 6.01935 5.00112 5.98077 5.1951C5.94218 5.38909 5.84694 5.56727 5.70709 5.70712C5.56724 5.84697 5.38906 5.94221 5.19507 5.9808C5.00109 6.01938 4.80003 5.99958 4.6173 5.92389C4.43457 5.84821 4.2784 5.72003 4.16851 5.55558C4.05863 5.39114 3.99998 5.1978 3.99998 5.00001C3.99998 4.7348 4.10534 4.48044 4.29288 4.29291C4.48041 4.10537 4.73477 4.00001 4.99998 4.00001ZM4.99998 20C4.8022 20 4.60886 19.9414 4.44441 19.8315C4.27996 19.7216 4.15179 19.5654 4.0761 19.3827C4.00042 19.2 3.98061 18.9989 4.0192 18.8049C4.05778 18.6109 4.15302 18.4328 4.29288 18.2929C4.43273 18.1531 4.61091 18.0578 4.80489 18.0192C4.99887 17.9806 5.19994 18.0004 5.38267 18.0761C5.56539 18.1518 5.72157 18.28 5.83145 18.4444C5.94133 18.6089 5.99998 18.8022 5.99998 19C5.99998 19.2652 5.89463 19.5196 5.70709 19.7071C5.51955 19.8947 5.2652 20 4.99998 20ZM19 20C18.8022 20 18.6089 19.9414 18.4444 19.8315C18.28 19.7216 18.1518 19.5654 18.0761 19.3827C18.0004 19.2 17.9806 18.9989 18.0192 18.8049C18.0578 18.6109 18.153 18.4328 18.2929 18.2929C18.4327 18.1531 18.6109 18.0578 18.8049 18.0192C18.9989 17.9806 19.1999 18.0004 19.3827 18.0761C19.5654 18.1518 19.7216 18.28 19.8315 18.4444C19.9413 18.6089 20 18.8022 20 19C20 19.2652 19.8946 19.5196 19.7071 19.7071C19.5196 19.8947 19.2652 20 19 20Z" fill="#0F1621"/>
</svg>
