<svg width="16" height="16" viewBox="0 0 16 16" fill="none" xmlns="http://www.w3.org/2000/svg">
<path d="M13.59 1L12.19 2.4C10.9801 1.49597 9.51032 1.00749 8 1.00749C6.48968 1.00749 5.01987 1.49597 3.81 2.4L2.41 1L1 2.41L2.4 3.81C1.49597 5.01987 1.00749 6.48968 1.00749 8C1.00749 9.51032 1.49597 10.9801 2.4 12.19L1 13.59L2.41 15L3.81 13.6C5.01987 14.504 6.48968 14.9925 8 14.9925C9.51032 14.9925 10.9801 14.504 12.19 13.6L13.59 15L15 13.59L13.6 12.19C14.504 10.9801 14.9925 9.51032 14.9925 8C14.9925 6.48968 14.504 5.01987 13.6 3.81L15 2.41L13.59 1ZM5.59 7L7 5.59L5.25 3.83C6.06639 3.29236 7.02248 3.00582 8 3.00582C8.97752 3.00582 9.93361 3.29236 10.75 3.83L9 5.59L10.41 7L12.17 5.25C12.7076 6.06639 12.9942 7.02248 12.9942 8C12.9942 8.97752 12.7076 9.93361 12.17 10.75L10.41 9L9 10.41L10.75 12.17C9.93361 12.7076 8.97752 12.9942 8 12.9942C7.02248 12.9942 6.06639 12.7076 5.25 12.17L7 10.41L5.59 9L3.83 10.75C3.29236 9.93361 3.00582 8.97752 3.00582 8C3.00582 7.02248 3.29236 6.06639 3.83 5.25L5.59 7Z" fill="#0F1621"/>
</svg>
