<svg xmlns="http://www.w3.org/2000/svg" viewBox="0 0 24 24"><defs><style>.cls-1{fill:none;}</style></defs><g id="Layer_2" data-name="Layer 2"><g id="System_UI_Solid" data-name="System UI Solid"><g id="tiepoint"><rect class="cls-1" width="24" height="24"/><path d="M19.75,5.67,21,4.41,19.59,3,18.33,4.25a10,10,0,0,0-12.66,0L4.41,3,3,4.41,4.25,5.67a10,10,0,0,0,0,12.66L3,19.59,4.41,21l1.26-1.25a10,10,0,0,0,12.66,0L19.59,21,21,19.59l-1.25-1.26A10,10,0,0,0,19.75,5.67ZM12,20a8,8,0,0,1-4.9-1.68L10.41,15,9,13.59,5.68,16.9a8,8,0,0,1,0-9.8L9,10.41,10.41,9,7.1,5.68a8,8,0,0,1,9.8,0L13.54,9,15,10.46,18.32,7.1a8,8,0,0,1,0,9.8L15,13.59,13.59,15l3.31,3.32A8,8,0,0,1,12,20Z"/></g></g></g></svg>