<svg xmlns="http://www.w3.org/2000/svg" viewBox="0 0 16 16"><defs><style>.cls-1{fill:none;}</style></defs><g id="Layer_2" data-name="Layer 2"><g id="UI_System_16" data-name="UI System 16"><g id="tiepoint"><rect class="cls-1" width="16" height="16"/><path d="M13.59,1l-1.4,1.4a7,7,0,0,0-8.38,0L2.41,1,1,2.41l1.4,1.4a7,7,0,0,0,0,8.38L1,13.59,2.41,15l1.4-1.4a7,7,0,0,0,8.38,0l1.4,1.4L15,13.59l-1.4-1.4a7,7,0,0,0,0-8.38L15,2.41,13.59,1Zm-8,6L7,5.59,5.25,3.83a5,5,0,0,1,5.5,0L9,5.59,10.41,7l1.76-1.75a5,5,0,0,1,0,5.5L10.41,9,9,10.41l1.75,1.76a5,5,0,0,1-5.5,0L7,10.41,5.59,9,3.83,10.75a5,5,0,0,1,0-5.5L5.59,7Z"/></g></g></g></svg>