<svg width="16" height="16" viewBox="0 0 16 16" fill="none" xmlns="http://www.w3.org/2000/svg">
<path d="M13.81 7.93998C13.3076 8.44268 12.6822 8.80505 11.9963 8.99102C11.3103 9.17699 10.5876 9.18008 9.90001 8.99998L4.47001 14.4C4.28156 14.5884 4.05785 14.7379 3.81163 14.8399C3.56541 14.9419 3.30152 14.9944 3.03501 14.9944C2.49678 14.9944 1.9806 14.7806 1.60001 14.4C1.21943 14.0194 1.00562 13.5032 1.00562 12.965C1.00562 12.4267 1.21943 11.9106 1.60001 11.53L7.00001 6.09998C6.80196 5.36602 6.81449 4.59114 7.03615 3.86396C7.25782 3.13679 7.67967 2.48668 8.25346 1.988C8.82725 1.48933 9.52982 1.16221 10.2808 1.04408C11.0318 0.925939 11.8008 1.02155 12.5 1.31998L9.86001 3.99998L10.22 5.79998L12.02 6.15998L14.68 3.49998C14.9906 4.24309 15.0737 5.06164 14.9188 5.85201C14.7639 6.64237 14.3781 7.36903 13.81 7.93998Z" fill="#0F1621"/>
</svg>
