<svg xmlns="http://www.w3.org/2000/svg" width="24" height="24" viewBox="0 0 24 24"><rect width="24" height="24" style="fill:none"/><path d="M20.63,4.14a4.12,4.12,0,0,0-.78-.78,5.91,5.91,0,0,0-9.47,6.08L2.93,16.9a3,3,0,0,0-.44,3.79,3.16,3.16,0,0,0,.37.45,2.94,2.94,0,0,0,4.16,0l7.54-7.53a5.9,5.9,0,0,0,6.07-9.47Zm-5.57,7.57L14,11.41l-.8.81L5.63,19.75a1,1,0,0,1-1.38,0,.7.7,0,0,1-.13-.16,1,1,0,0,1,.21-1.29l7.45-7.46.8-.8-.29-1.1A3.91,3.91,0,0,1,17.1,4.12L15.39,5.83V8.61h2.78l1.7-1.71a3.9,3.9,0,0,1-1,3.79A4,4,0,0,1,15.06,11.71Z"/></svg>