<svg xmlns="http://www.w3.org/2000/svg" viewBox="0 0 24 24"><title>LUI-icon-pd-places-religious_main-solid-24</title><g id="Layer_2" data-name="Layer 2"><g id="LUI-icon-pd-places-religious_main-solid-24"><g id="LUI-icon-pd-places-religious_main-solid-24-2" data-name="LUI-icon-pd-places-religious_main-solid-24"><rect width="24" height="24" fill="none"/><path d="M18,2,14,15v5H11V11H3V22H22V15ZM6,20V14a1,1,0,0,1,1-1H7a1,1,0,0,1,1,1v6Zm11,0V16a1,1,0,0,1,1-1h0a1,1,0,0,1,1,1v4ZM12,7a2.38,2.38,0,0,1-1,2H3A2.38,2.38,0,0,1,2,7C2,5,7,2,7,2S12,5,12,7Z"/></g></g></g></svg>