<svg xmlns="http://www.w3.org/2000/svg" viewBox="0 0 24 24"><title>LUI-icon-pd-places-transport_monorail-solid-24</title><g id="Layer_2" data-name="Layer 2"><g id="LUI-icon-pd-places-transport_monorail-solid-24"><g id="LUI-icon-pd-places-transport_monorail-solid-24-2" data-name="LUI-icon-pd-places-transport_monorail-solid-24"><rect width="24" height="24" fill="none"/><path d="M21,13.51,19.32,3.67a2,2,0,0,0-2-1.67H6.66a2,2,0,0,0-2,1.67L3,13.51a2,2,0,0,0,.08,1l1.38,4.16A2,2,0,0,0,6.41,20H7V18.17L10,15h4l3,3.17V20h.56a2,2,0,0,0,1.92-1.37l1.38-4.16A2,2,0,0,0,21,13.51ZM8,14H6V12H8ZM18,14H16V12h2ZM6,10l.85-5.2a1,1,0,0,1,1-.8h8.42a1,1,0,0,1,1,.8L18,10Zm9,9v3H9V19l2-2h2Z"/></g></g></g></svg>