<svg xmlns="http://www.w3.org/2000/svg" viewBox="0 0 24 24"><title>LUI-icon-pd-places-goingout_karaoke-outline-24</title><g id="Layer_2" data-name="Layer 2"><g id="LUI-icon-pd-places-goingout_karaoke-outline-24"><g id="LUI-icon-pd-places-goingout_karaoke-outline-24-2" data-name="LUI-icon-pd-places-goingout_karaoke-outline-24"><rect width="24" height="24" fill="none"/><path d="M11.34,11.24l1.42,1.42L7.1,18.31l-.87-.87-.54-.54,5.65-5.66Zm0-2.83L4.27,15.48a2,2,0,0,0,0,2.83l-2,2a1,1,0,0,0,0,1.42,1,1,0,0,0,1.42,0l2-2a2,2,0,0,0,1.41.58,2,2,0,0,0,1.42-.58l7.07-7.07L11.34,8.41ZM17,4a3,3,0,0,1,2.12,5.12,3,3,0,0,1-.82.59l-4-4A3,3,0,0,1,17,4m0-2a5,5,0,0,0-4.95,4.29L17.71,12a5,5,0,0,0,2.83-1.42A5,5,0,0,0,17,2ZM10.64,13.36a1,1,0,1,0,0,1.42A1,1,0,0,0,10.64,13.36Z"/></g></g></g></svg>