<svg xmlns="http://www.w3.org/2000/svg" viewBox="0 0 24 24"><title>LUI-icon-pd-places-sport_main-solid-24</title><g id="Layer_2" data-name="Layer 2"><g id="LUI-icon-pd-places-sport_main-solid-24"><g id="LUI-icon-pd-places-sport_main-solid-24-2" data-name="LUI-icon-pd-places-sport_main-solid-24"><rect width="24" height="24" fill="none"/><path d="M22,8V20a2,2,0,0,1-2,2H14V20a2,2,0,0,0-2-2,2,2,0,0,0-2,2v2H4a2,2,0,0,1-2-2V8l6,6h8ZM20,4l2-1L20,2H18V6H13V4l2-1L13,2H11V6H6V4L8,3,6,2H4V6H2L4,8H20l2-2H20ZM6,10l2,2h7.88L18,10Z"/></g></g></g></svg>