<svg xmlns="http://www.w3.org/2000/svg" viewBox="0 0 24 24"><title>LUI-icon-pd-places-eatdrink_coffee-solid-24</title><g id="Layer_2" data-name="Layer 2"><g id="LUI-icon-pd-places-eatdrink_coffee-solid-24"><g id="LUI-icon-pd-places-eatdrink_coffee-solid-24-2" data-name="LUI-icon-pd-places-eatdrink_coffee-solid-24"><rect width="24" height="24" fill="none"/><path d="M20,22H4a2,2,0,0,1-2-2H22A2,2,0,0,1,20,22ZM22,6V8a4,4,0,0,1-4,4v4a2,2,0,0,1-2,2H6a2,2,0,0,1-2-2V2H18A4,4,0,0,1,22,6ZM20,6a2,2,0,0,0-2-2v6a2,2,0,0,0,2-2Z"/></g></g></g></svg>