<svg xmlns="http://www.w3.org/2000/svg" viewBox="0 0 24 24"><title>LUI-icon-pd-places-emergency_firedepartment-solid-24</title><g id="Layer_2" data-name="Layer 2"><g id="LUI-icon-pd-places-emergency_firedepartment-solid-24"><g id="LUI-icon-pd-places-emergency_firedepartment-solid-24-2" data-name="LUI-icon-pd-places-emergency_firedepartment-solid-24"><rect width="24" height="24" fill="none"/><path d="M12,10h0a2,2,0,0,1,2,2v2H10V12A2,2,0,0,1,12,10Zm9,2a2,2,0,0,1-2,2H16V12a4,4,0,0,0-8,0v2H5a2,2,0,0,1-2-2,2,2,0,0,1,2-2H5V9a5,5,0,0,1,5-5l2-2,2,2a5,5,0,0,1,5,5v1h0a2,2,0,0,1,2,2ZM6,16a6,6,0,0,0,12,0Z"/></g></g></g></svg>