<svg xmlns="http://www.w3.org/2000/svg" viewBox="0 0 24 24"><title>LUI-icon-pd-places-emergency_pacemaker-solid-24</title><g id="Layer_2" data-name="Layer 2"><g id="LUI-icon-pd-places-emergency_pacemaker-solid-24"><g id="LUI-icon-pd-places-emergency_pacemaker-solid-24-2" data-name="LUI-icon-pd-places-emergency_pacemaker-solid-24"><rect width="24" height="24" fill="none"/><path d="M16.5,3a6.14,6.14,0,0,0-3.36,1L12,5,10.86,4A6.14,6.14,0,0,0,7.5,3,5.35,5.35,0,0,0,2,8.37a6.06,6.06,0,0,0,.74,2.85,16.78,16.78,0,0,0,3.37,4.14c.58.57,4.06,3.84,5.18,4.94L12,21V17H10V12.75l1.06-4.24L11.44,7h7.12l-1,4H20v2.1a10.64,10.64,0,0,0,1.26-1.88A6.06,6.06,0,0,0,22,8.37,5.35,5.35,0,0,0,16.5,3ZM16,9H13l-1,4v2h2v4l4-4V13H15Z"/></g></g></g></svg>