<svg xmlns="http://www.w3.org/2000/svg" viewBox="0 0 24 24"><title>LUI-icon-pd-places-emergency_pacemaker-outline-24</title><g id="Layer_2" data-name="Layer 2"><g id="LUI-icon-pd-places-emergency_pacemaker-outline-24"><g id="LUI-icon-pd-places-emergency_pacemaker-outline-24-2" data-name="LUI-icon-pd-places-emergency_pacemaker-outline-24"><rect width="24" height="24" fill="none"/><path d="M16.5,3a6.14,6.14,0,0,0-3.36,1L12,5,10.86,4A6.14,6.14,0,0,0,7.5,3,5.35,5.35,0,0,0,2,8.38a6,6,0,0,0,.74,2.84,16.78,16.78,0,0,0,3.37,4.14c.58.57,4.06,3.84,5.18,4.94L12,21V18.2L9.31,15.65c-.84-.8-1.57-1.49-1.8-1.72a15.28,15.28,0,0,1-3-3.63A4.15,4.15,0,0,1,4,8.38,3.36,3.36,0,0,1,7.5,5a4.05,4.05,0,0,1,2.14.64l1,.91L12,7.7l1.32-1.15,1-.91A4.05,4.05,0,0,1,16.5,5,3.36,3.36,0,0,1,20,8.38a4.15,4.15,0,0,1-.51,1.92,5.89,5.89,0,0,1-.42.7H20v2.1a10.64,10.64,0,0,0,1.26-1.88A6,6,0,0,0,22,8.38,5.35,5.35,0,0,0,16.5,3ZM12,15V13l1-4h3l-1,4h3v2l-4,4V15Z"/></g></g></g></svg>