<svg xmlns="http://www.w3.org/2000/svg" viewBox="0 0 24 24"><title>LUI-icon-pd-places-facilities_exhibition_center-outline-24</title><g id="Layer_2" data-name="Layer 2"><g id="LUI-icon-pd-places-facilities_exhibition_center-outline-24"><g id="LUI-icon-pd-places-facilities_exhibition_center-outline-24-2" data-name="LUI-icon-pd-places-facilities_exhibition_center-outline-24"><rect width="24" height="24" fill="none"/><path d="M12,2C4,2,2,10,2,10H4A11.85,11.85,0,0,1,5.52,7.3L5.79,7a3.27,3.27,0,0,1,.3-.35,8.33,8.33,0,0,1,1-.95,5.3,5.3,0,0,1,.45-.34h0A7.68,7.68,0,0,1,12,4a7.68,7.68,0,0,1,4.43,1.3h0a5.3,5.3,0,0,1,.45.34,8.33,8.33,0,0,1,1,.95,3.27,3.27,0,0,1,.3.35l.27.35a4.56,4.56,0,0,1,.27.39A11.37,11.37,0,0,1,20,10h2S20,2,12,2ZM2,12V22H8V19h8v3h6V12Zm4,5H4V14H6Zm5,0H8V14h3Zm5,0H13V14h3Zm4,0H18V14h2Z"/></g></g></g></svg>