<svg xmlns="http://www.w3.org/2000/svg" viewBox="0 0 24 24"><title>LUI-icon-pd-places-business_laundry-solid-24</title><g id="Layer_2" data-name="Layer 2"><g id="LUI-icon-pd-places-business_laundry-solid-24"><g id="LUI-icon-pd-places-business_laundry-solid-24-2" data-name="LUI-icon-pd-places-business_laundry-solid-24"><rect width="24" height="24" fill="none"/><path d="M4,8V22H20V8Zm4.54,8A4,4,0,1,1,12,18,4,4,0,0,1,8.54,16ZM18,2H6A2,2,0,0,0,4,4V6h6V4h2V6h2V4h2V6h4V4A2,2,0,0,0,18,2ZM14,14a2,2,0,0,1-4,0,2,2,0,0,0,2-2A2,2,0,0,1,14,14Z"/></g></g></g></svg>