<svg xmlns="http://www.w3.org/2000/svg" viewBox="0 0 24 24"><title>LUI-icon-pd-places-sport_fitness-outline-24</title><g id="Layer_2" data-name="Layer 2"><g id="LUI-icon-pd-places-sport_fitness-outline-24"><g id="LUI-icon-pd-places-sport_fitness-outline-24-2" data-name="LUI-icon-pd-places-sport_fitness-outline-24"><rect width="24" height="24" fill="none"/><path d="M21.71,10.15,20,8.48l.71-.71a1,1,0,0,0,0-1.42l-.84-.84L21.41,4,20,2.59,18.48,4.1l-.83-.83a1,1,0,0,0-1.41,0L15.53,4,13.85,2.29a1,1,0,0,0-1.42,0L8.9,5.83l3.93,3.93L9.78,12.81,5.85,8.88,2.32,12.42a1,1,0,0,0,0,1.41L4,15.51l-.7.7a1,1,0,0,0,0,1.42l.83.83L2.58,20,4,21.42l1.54-1.54.83.83a1,1,0,0,0,.71.3,1,1,0,0,0,.71-.3l.7-.7,1.69,1.68a1,1,0,0,0,.7.29,1,1,0,0,0,.71-.29l3.54-3.54-3.94-3.93,3.05-3.05,3.93,3.93,3.54-3.53A1,1,0,0,0,21.71,10.15Zm-9.41,8-1.42,1.42-1-1L8.49,17.18,7.08,18.59,5.41,16.92l1.41-1.41L5.41,14.09l-1-1,1.41-1.41Zm5.87-5.88L11.73,5.83l1.41-1.42,1,1L15.53,6.8l1.41-1.41,1.68,1.67L17.2,8.48l1.42,1.41,1,1Z"/></g></g></g></svg>