<svg xmlns="http://www.w3.org/2000/svg" viewBox="0 0 24 24"><title>LUI-icon-pd-places-leisure_zoo-outline-24</title><g id="Layer_2" data-name="Layer 2"><g id="LUI-icon-pd-places-leisure_zoo-outline-24"><g id="LUI-icon-pd-places-leisure_zoo-outline-24-2" data-name="LUI-icon-pd-places-leisure_zoo-outline-24"><rect width="24" height="24" fill="none"/><path d="M8,9A1,1,0,1,1,7,8,1,1,0,0,1,8,9Zm6-7H9A7,7,0,0,0,2,9v1.18a3.62,3.62,0,0,0,1,2.44A3.53,3.53,0,0,1,4,15v2a1,1,0,0,1-1,1H2v2H4a2,2,0,0,0,2-2V14.84a5.47,5.47,0,0,0-1.57-3.66,1.49,1.49,0,0,1-.43-1V9A5,5,0,0,1,9,4h3.46A4,4,0,0,1,13,6v4h2V6a6,6,0,0,0-.33-2A6,6,0,0,1,20,10V20H18V15H12v5H10V15H8v5a2,2,0,0,0,2,2h4V17h2v3a2,2,0,0,0,2,2h4V10A8,8,0,0,0,14,2Z"/></g></g></g></svg>