<svg xmlns="http://www.w3.org/2000/svg" viewBox="0 0 24 24"><title>LUI-icon-pd-places-leisure_playground-outline-24</title><g id="Layer_2" data-name="Layer 2"><g id="LUI-icon-pd-places-leisure_playground-outline-24"><g id="LUI-icon-pd-places-leisure_playground-outline-24-2" data-name="LUI-icon-pd-places-leisure_playground-outline-24"><rect width="24" height="24" fill="none"/><path d="M20,2H4A2,2,0,0,0,2,4V22H4V4H6V17H9v3h2V17h2v3h2V17h3V4h2V22h2V4A2,2,0,0,0,20,2ZM10,15V13.31a.31.31,0,0,1,.31-.31h3.38a.31.31,0,0,1,.31.31V15Zm6-1.69A2.3,2.3,0,0,0,13.69,11H10.31A2.3,2.3,0,0,0,8,13.31V4h8ZM12,10h0a2,2,0,0,1-2-2h0a2,2,0,0,1,2-2h0a2,2,0,0,1,2,2h0A2,2,0,0,1,12,10Z"/></g></g></g></svg>