<svg xmlns="http://www.w3.org/2000/svg" viewBox="0 0 24 24"><title>LUI-icon-pd-places-facilities_cemetry-outline-24</title><g id="Layer_2" data-name="Layer 2"><g id="LUI-icon-pd-places-facilities_cemetry-outline-24"><g id="LUI-icon-pd-places-facilities_cemetry-outline-24-2" data-name="LUI-icon-pd-places-facilities_cemetry-outline-24"><rect width="24" height="24" fill="none"/><path d="M22,22H2V20H22ZM11,12H8v2h3Zm5-4H8v2h8Zm0,4H13v2h3ZM13,4H11V6H6V16H18V6H13V4m0-2a2,2,0,0,1,2,2h3a2,2,0,0,1,2,2V18H4V6A2,2,0,0,1,6,4H9a2,2,0,0,1,2-2Z"/></g></g></g></svg>