<svg xmlns="http://www.w3.org/2000/svg" viewBox="0 0 24 24"><title>LUI-icon-pd-places-facilities_ticketbarrier-outline-24</title><g id="Layer_2" data-name="Layer 2"><g id="LUI-icon-pd-places-facilities_ticketbarrier-outline-24"><g id="LUI-icon-pd-places-facilities_ticketbarrier-outline-24-2" data-name="LUI-icon-pd-places-facilities_ticketbarrier-outline-24"><rect width="24" height="24" fill="none"/><path d="M22,4v6H20V4H4v6H2V4A2,2,0,0,1,4,2H20A2,2,0,0,1,22,4ZM11,6,9,8H8v2H6V6Zm7,0v4H16V8H15L13,6Zm-2,9v5h-.54a4,4,0,0,0-6.92,0H8V15L6,13v9h4a2,2,0,0,1,4,0h4V13Zm0-3L12,8,8,12l1.27,1.27L11,11.5V16h2V11.5l1.75,1.75Z"/></g></g></g></svg>