<svg xmlns="http://www.w3.org/2000/svg" viewBox="0 0 24 24"><title>LUI-icon-pd-places-goingout_casino-outline-24</title><g id="Layer_2" data-name="Layer 2"><g id="LUI-icon-pd-places-goingout_casino-outline-24"><g id="LUI-icon-pd-places-goingout_casino-outline-24-2" data-name="LUI-icon-pd-places-goingout_casino-outline-24"><rect width="24" height="24" fill="none"/><path d="M20,4V20H4V4H20m0-2H4A2,2,0,0,0,2,4V20a2,2,0,0,0,2,2H20a2,2,0,0,0,2-2V4a2,2,0,0,0-2-2Zm-8,8a2,2,0,1,0,2,2A2,2,0,0,0,12,10ZM8,14a2,2,0,1,0,2,2A2,2,0,0,0,8,14Zm8-8a2,2,0,1,0,2,2A2,2,0,0,0,16,6Z"/></g></g></g></svg>