<svg xmlns="http://www.w3.org/2000/svg" viewBox="0 0 24 24"><title>LUI-icon-pd-places-emergency_pharmacy-outline-24</title><g id="Layer_2" data-name="Layer 2"><g id="LUI-icon-pd-places-emergency_pharmacy-outline-24"><g id="LUI-icon-pd-places-emergency_pharmacy-outline-24-2" data-name="LUI-icon-pd-places-emergency_pharmacy-outline-24"><rect width="24" height="24" fill="none"/><path d="M16,4H8V2h8Zm0,4H8a2,2,0,0,0-2,2V20H18V10a2,2,0,0,0-2-2m0-2a4,4,0,0,1,4,4V20a2,2,0,0,1-2,2H6a2,2,0,0,1-2-2V10A4,4,0,0,1,8,6Zm-3,7V10H11v3H8v2h3v3h2V15h3V13Z"/></g></g></g></svg>