<svg xmlns="http://www.w3.org/2000/svg" viewBox="0 0 24 24"><title>LUI-icon-pd-places-accommodation_main-outline-24</title><g id="Layer_2" data-name="Layer 2"><g id="LUI-icon-pd-places-accommodation_main-outline-24"><g id="LUI-icon-pd-places-accommodation_main-outline-24-2" data-name="LUI-icon-pd-places-accommodation_main-outline-24"><rect width="24" height="24" fill="none"/><path d="M20,14v2H4V14H20M2,4V20H4V18H20v2h2V12H4V6a2,2,0,0,0-.59-1.41A2,2,0,0,0,2,4ZM19,7H13a1,1,0,0,0-1,1v2h8V8A1,1,0,0,0,19,7ZM8,7H8A2,2,0,0,0,6,9a2,2,0,0,0,.27,1H9.73A2,2,0,0,0,8,7Z"/></g></g></g></svg>