<svg xmlns="http://www.w3.org/2000/svg" viewBox="0 0 24 24"><title>LUI-icon-pd-places-goingout_main-solid-24</title><g id="Layer_2" data-name="Layer 2"><g id="LUI-icon-pd-places-goingout_main-solid-24"><g id="LUI-icon-pd-places-goingout_main-solid-24-2" data-name="LUI-icon-pd-places-goingout_main-solid-24"><rect width="24" height="24" fill="none"/><path d="M2,2V13a9,9,0,0,0,9,9h2a9,9,0,0,0,9-9V2ZM8,7a2.05,2.05,0,0,1,2,2.09C10,11.18,9.1,9,8,9s-2,2.17-2,.08A2.05,2.05,0,0,1,8,7Zm4,11c-3.31,0-6-1.69-6-5H18C18,16.31,15.31,18,12,18Zm4-9c-1.1,0-2,2.17-2,.08a2,2,0,1,1,4,0C18,11.18,17.1,9,16,9Z"/></g></g></g></svg>