<svg xmlns="http://www.w3.org/2000/svg" viewBox="0 0 24 24"><title>LUI-icon-pd-places-shopping_main-solid-24</title><g id="Layer_2" data-name="Layer 2"><g id="LUI-icon-pd-places-shopping_main-solid-24"><g id="LUI-icon-pd-places-shopping_main-solid-24-2" data-name="LUI-icon-pd-places-shopping_main-solid-24"><rect width="24" height="24" fill="none"/><path d="M19.14,22H4.86a2,2,0,0,1-2-1.86L2,8H22l-.87,12.14A2,2,0,0,1,19.14,22ZM17,5V6H15V5a1,1,0,0,0-1-1H10A1,1,0,0,0,9,5V6H7V5a3,3,0,0,1,3-3h4A3,3,0,0,1,17,5Z"/></g></g></g></svg>