<svg xmlns="http://www.w3.org/2000/svg" viewBox="0 0 24 24"><title>LUI-icon-pd-places-business_laundry-outline-24</title><g id="Layer_2" data-name="Layer 2"><g id="LUI-icon-pd-places-business_laundry-outline-24"><g id="LUI-icon-pd-places-business_laundry-outline-24-2" data-name="LUI-icon-pd-places-business_laundry-outline-24"><rect width="24" height="24" fill="none"/><path d="M18,2H6A2,2,0,0,0,4,4V22H20V4A2,2,0,0,0,18,2ZM12,4h2V6H12ZM6,4h4V6H6ZM18,20H6V8H18ZM18,6H16V4h2Zm-6,4a4,4,0,1,0,4,4A4,4,0,0,0,12,10Zm0,6a2,2,0,0,1-2-2,2,2,0,0,0,2-2,2,2,0,0,1,0,4Z"/></g></g></g></svg>