<svg xmlns="http://www.w3.org/2000/svg" viewBox="0 0 24 24"><title>LUI-icon-pd-places-automotive_charging-solid-24</title><g id="Layer_2" data-name="Layer 2"><g id="LUI-icon-pd-places-automotive_charging-solid-24"><g id="LUI-icon-pd-places-automotive_charging-solid-24-2" data-name="LUI-icon-pd-places-automotive_charging-solid-24"><rect width="24" height="24" fill="none"/><path d="M22,11H19.45l-.86-1.18A2.06,2.06,0,0,0,17,9v2.16a.92.92,0,0,1,.3.29L19,14H5l1.7-2.55a.92.92,0,0,1,.3-.29V9a2.06,2.06,0,0,0-1.59.82L4.55,11H2v2H3.1l-.77,1.06a1.64,1.64,0,0,0-.33,1V20a2,2,0,0,0,2,2H7a1,1,0,0,0,1-1V20h8v1a1,1,0,0,0,1,1h3a2,2,0,0,0,2-2V15.06a1.64,1.64,0,0,0-.33-1L20.9,13H22ZM8,18H4V16H8Zm12,0H16V16h4Zm-7-8h0v2H11V10h0A2,2,0,0,1,9,8V6h6V8A2,2,0,0,1,13,10Zm2-6H13V2h2ZM11,4H9V2h2Z"/></g></g></g></svg>