<svg xmlns="http://www.w3.org/2000/svg" viewBox="0 0 24 24"><title>LUI-icon-pd-places-goingout_nightclub-outline-24</title><g id="Layer_2" data-name="Layer 2"><g id="LUI-icon-pd-places-goingout_nightclub-outline-24"><g id="LUI-icon-pd-places-goingout_nightclub-outline-24-2" data-name="LUI-icon-pd-places-goingout_nightclub-outline-24"><rect width="24" height="24" fill="none"/><path d="M12,10a2,2,0,1,1-2,2,2,2,0,0,1,2-2m0-2a4,4,0,1,0,4,4,4,4,0,0,0-4-4Zm8-6V14a1.05,1.05,0,0,1-.29.71l-2,2L17,16l-3,3,3,3,3-3-.88-.88,2-2A3,3,0,0,0,22,14V2ZM12,2a10,10,0,0,0,0,20l.69,0L13,22h0c.22,0,.44-.05.65-.09L14,21.8l-1.39-1.39L12.17,20H12A8,8,0,1,1,18,6.72V4A9.93,9.93,0,0,0,12,2Zm0,0a10,10,0,0,0,0,20l.69,0L13,22h0c.22,0,.44-.05.65-.09L14,21.8l-1.39-1.39L12.17,20H12A8,8,0,1,1,18,6.72V4a9.93,9.93,0,0,0-6-2Z"/></g></g></g></svg>