<svg xmlns="http://www.w3.org/2000/svg" viewBox="0 0 24 24"><title>LUI-icon-pd-places-transport_rail_regional-solid-24</title><g id="Layer_2" data-name="Layer 2"><g id="LUI-icon-pd-places-transport_rail_regional-solid-24"><g id="LUI-icon-pd-places-transport_rail_regional-solid-24-2" data-name="LUI-icon-pd-places-transport_rail_regional-solid-24"><rect width="24" height="24" fill="none"/><path d="M18,22H6V20H18Zm.26-18.3L20,15a3,3,0,0,1-3,3H7a3,3,0,0,1-3-3L5.74,3.7a2,2,0,0,1,2-1.7h8.56A2,2,0,0,1,18.26,3.7ZM10,13H6v2h4Zm8,0H14v2h4ZM16.53,4.83a1,1,0,0,0-1-.83H8.45a1,1,0,0,0-1,.83C7.29,5.88,7,7.6,7,8c0,1,3,3,5,3s5-2,5-3C17,7.6,16.71,5.88,16.53,4.83Z"/></g></g></g></svg>