<svg xmlns="http://www.w3.org/2000/svg" viewBox="0 0 24 24"><title>LUI-icon-pd-places-sport_golfcourse-outline-24</title><g id="Layer_2" data-name="Layer 2"><g id="LUI-icon-pd-places-sport_golfcourse-outline-24"><g id="LUI-icon-pd-places-sport_golfcourse-outline-24-2" data-name="LUI-icon-pd-places-sport_golfcourse-outline-24"><rect width="24" height="24" fill="none"/><path d="M19,14a1,1,0,1,1-1,1,1,1,0,0,1,1-1m0-2a3,3,0,1,0,3,3,3,3,0,0,0-3-3ZM16,8V6L6,2V16H5a3,3,0,0,0,0,6h7a3,3,0,0,0,0-6H8V12ZM5,20a1,1,0,0,1,0-2H6v2Zm7-2a1,1,0,0,1,0,2H8V18ZM8,9.76V5l5.34,2.14Z"/></g></g></g></svg>