<svg xmlns="http://www.w3.org/2000/svg" viewBox="0 0 24 24"><title>LUI-icon-pd-places-facilities_carts-solid-24</title><g id="Layer_2" data-name="Layer 2"><g id="LUI-icon-pd-places-facilities_carts-solid-24"><g id="LUI-icon-pd-places-facilities_carts-solid-24-2" data-name="LUI-icon-pd-places-facilities_carts-solid-24"><rect width="24" height="24" fill="none"/><path d="M19.49,13H7.55l.31,2H21v2H7.86a2,2,0,0,1-2-1.7L4.14,4H2V2H4.14a2,2,0,0,1,2,1.7L6.32,5H22l-.59,6.55A2,2,0,0,1,19.49,13Zm-1,6A1.5,1.5,0,1,0,20,20.5,1.5,1.5,0,0,0,18.5,19Zm-12,0A1.5,1.5,0,1,0,8,20.5,1.5,1.5,0,0,0,6.5,19Z"/></g></g></g></svg>