<svg xmlns="http://www.w3.org/2000/svg" viewBox="0 0 24 24"><title>LUI-icon-pd-places-eatdrink_kitchen-outline-24</title><g id="Layer_2" data-name="Layer 2"><g id="LUI-icon-pd-places-eatdrink_kitchen-outline-24"><g id="LUI-icon-pd-places-eatdrink_kitchen-outline-24-2" data-name="LUI-icon-pd-places-eatdrink_kitchen-outline-24"><rect width="24" height="24" fill="none"/><path d="M11,15h0a1,1,0,0,1-.63-1.27l.58-1.3a1,1,0,0,0-.06-.76l-.78-1.17a1,1,0,0,1-.06-.77l.69-2A1,1,0,0,1,12,7.06h0a1,1,0,0,1,.63,1.27l-.58,1.29a1,1,0,0,0,.06.76l.78,1.17a1,1,0,0,1,.06.77l-.69,2A1,1,0,0,1,11,15Zm-2.74-.63.69-2a1,1,0,0,0-.06-.77l-.78-1.17a1,1,0,0,1-.06-.76l.58-1.29A1,1,0,0,0,8,7.06H8a1,1,0,0,0-1.26.63l-.69,2a1,1,0,0,0,.06.77l.78,1.17a1,1,0,0,1,.06.76l-.58,1.3A1,1,0,0,0,7,15H7A1,1,0,0,0,8.26,14.32ZM22,5V17a2,2,0,0,1-2,2H19v2H15V19H9v2H5V19H4a2,2,0,0,1-2-2V5A2,2,0,0,1,4,3H20A2,2,0,0,1,22,5ZM15,17V5H4V17Zm5-4H17v4h3Zm0-4H17v2h3Zm0-4H17V7h3Z"/></g></g></g></svg>