<svg xmlns="http://www.w3.org/2000/svg" viewBox="0 0 24 24"><title>LUI-icon-pd-places-sport_swimming-solid-24</title><g id="Layer_2" data-name="Layer 2"><g id="LUI-icon-pd-places-sport_swimming-solid-24"><g id="LUI-icon-pd-places-sport_swimming-solid-24-2" data-name="LUI-icon-pd-places-sport_swimming-solid-24"><rect width="24" height="24" fill="none"/><path d="M20,19.89a6,6,0,0,0-8,0,6,6,0,0,0-8,0A5.87,5.87,0,0,0,2,18.7v2.19a4.58,4.58,0,0,1,.75.56,1.7,1.7,0,0,0,2.5,0,4,4,0,0,1,5.5,0,1.7,1.7,0,0,0,2.5,0,4,4,0,0,1,5.5,0,1.7,1.7,0,0,0,2.5,0,4.58,4.58,0,0,1,.75-.56V18.7A5.87,5.87,0,0,0,20,19.89ZM9,8V9.51L6.56,13H6a2,2,0,0,1-2-2V8A2,2,0,0,1,6,6H7A2,2,0,0,1,9,8ZM6.21,16.56,15,4H7V2H17a1,1,0,0,1,.86,1.51L14.79,8.66a2,2,0,0,0,.31,2.44L21,17a5.74,5.74,0,0,0-1,.46,7.95,7.95,0,0,0-8,0,8,8,0,0,0-4-1.08A7.62,7.62,0,0,0,6.21,16.56Z"/></g></g></g></svg>