<svg xmlns="http://www.w3.org/2000/svg" viewBox="0 0 24 24"><title>LUI-icon-pd-places-facilities_carts-outline-24</title><g id="Layer_2" data-name="Layer 2"><g id="LUI-icon-pd-places-facilities_carts-outline-24"><g id="LUI-icon-pd-places-facilities_carts-outline-24-2" data-name="LUI-icon-pd-places-facilities_carts-outline-24"><rect width="24" height="24" fill="none"/><path d="M19.81,7l-.36,4H7.24L6.63,7H19.81M4.14,2H2V4H4.14L5.88,15.3a2,2,0,0,0,2,1.7H21V15H7.86l-.31-2H19.49a2,2,0,0,0,1.92-1.45L22,5H6.32l-.2-1.3a2,2,0,0,0-2-1.7ZM18.5,19A1.5,1.5,0,1,0,20,20.5,1.5,1.5,0,0,0,18.5,19Zm-12,0A1.5,1.5,0,1,0,8,20.5,1.5,1.5,0,0,0,6.5,19Z"/></g></g></g></svg>