<svg xmlns="http://www.w3.org/2000/svg" viewBox="0 0 24 24"><title>LUI-icon-pd-places-emergency_firedepartment-outline-24</title><g id="Layer_2" data-name="Layer 2"><g id="LUI-icon-pd-places-emergency_firedepartment-outline-24"><g id="LUI-icon-pd-places-emergency_firedepartment-outline-24-2" data-name="LUI-icon-pd-places-emergency_firedepartment-outline-24"><rect width="24" height="24" fill="none"/><path d="M12,10h0a2,2,0,0,1,2,2v2H10V12A2,2,0,0,1,12,10Zm9,2h0a2,2,0,0,1-2,2h0V12H17V9a3,3,0,0,0-3-3h-.83l-.58-.59L12,4.83l-.59.58L10.83,6H10A3,3,0,0,0,7,9v3H5v2H5a2,2,0,0,1-2-2H3a2,2,0,0,1,2-2H5V9a5,5,0,0,1,5-5l2-2,2,2a5,5,0,0,1,5,5v1h0A2,2,0,0,1,21,12Zm-3,4A6,6,0,0,1,6,16H8a4,4,0,0,0,8,0Z"/></g></g></g></svg>