<svg xmlns="http://www.w3.org/2000/svg" viewBox="0 0 24 24"><title>LUI-icon-pd-places-service_wheelchair-solid-24</title><g id="Layer_2" data-name="Layer 2"><g id="LUI-icon-pd-places-service_wheelchair-solid-24"><g id="LUI-icon-pd-places-service_wheelchair-solid-24-2" data-name="LUI-icon-pd-places-service_wheelchair-solid-24"><rect width="24" height="24" fill="none"/><path d="M11,7h0A2,2,0,0,1,9,5V4a2,2,0,0,1,2-2h0a2,2,0,0,1,2,2V5A2,2,0,0,1,11,7Zm4.39,11.67a4.91,4.91,0,0,1-.77.59,5,5,0,0,1-6.88-1.64A4.94,4.94,0,0,1,7.12,16h-2a7,7,0,0,0,10.6,5c.19-.12.38-.25.55-.38ZM17,13H13V11a2,2,0,0,0-2-2H9.4a1.18,1.18,0,0,0-.72.24L5.4,11.7a1,1,0,0,0-.4.8V14H7V13l2-1v3a1,1,0,0,0,1,1h6l2,4,2-1Z"/></g></g></g></svg>