<svg xmlns="http://www.w3.org/2000/svg" viewBox="0 0 24 24"><title>LUI-icon-pd-places-emergency_police-outline-24</title><g id="Layer_2" data-name="Layer 2"><g id="LUI-icon-pd-places-emergency_police-outline-24"><g id="LUI-icon-pd-places-emergency_police-outline-24-2" data-name="LUI-icon-pd-places-emergency_police-outline-24"><rect width="24" height="24" fill="none"/><path d="M12,2,2,9l4,3H8.54A4,4,0,0,1,8,10H6.67L5.29,9,12,4l6.71,5-1.38,1H16a4,4,0,0,1-.54,2H18l4-3Zm4,12v2a4,4,0,0,1-8,0V14H6v2a6,6,0,0,0,12,0V14Zm-4-2h0a2,2,0,0,1-2-2V8h4v2A2,2,0,0,1,12,12Z"/></g></g></g></svg>