<svg xmlns="http://www.w3.org/2000/svg" viewBox="0 0 24 24"><title>LUI-icon-pd-places-transport_ferry-solid-24</title><g id="Layer_2" data-name="Layer 2"><g id="LUI-icon-pd-places-transport_ferry-solid-24"><g id="LUI-icon-pd-places-transport_ferry-solid-24-2" data-name="LUI-icon-pd-places-transport_ferry-solid-24"><rect width="24" height="24" fill="none"/><path d="M19,6v5.38L17.1,11,12,10,6.9,11,5,11.38V6A2,2,0,0,1,7,4h6V2h2V4h2A2,2,0,0,1,19,6Zm-7,6L3,14l2,8a4,4,0,0,1,3.5-2A4,4,0,0,1,12,22a4.06,4.06,0,0,1,7,0l2-8Z"/></g></g></g></svg>