<svg xmlns="http://www.w3.org/2000/svg" viewBox="0 0 24 24"><title>LUI-icon-pd-places-emergency_meetingpoint-outline-24</title><g id="Layer_2" data-name="Layer 2"><g id="LUI-icon-pd-places-emergency_meetingpoint-outline-24"><g id="LUI-icon-pd-places-emergency_meetingpoint-outline-24-2" data-name="LUI-icon-pd-places-emergency_meetingpoint-outline-24"><rect width="24" height="24" fill="none"/><path d="M9,3V9H3V7H5.58L2,3.41,3.41,2,7,5.58V3Zm6,0V9h6V7H18.42L22,3.41,20.59,2,17,5.58V3Zm2,18V18.42L20.59,22,22,20.59,18.42,17H21V15H15v6ZM9,21V15H3v2H5.58L2,20.59,3.41,22,7,18.42V21Zm3-11a2,2,0,1,0,2,2A2,2,0,0,0,12,10Z"/></g></g></g></svg>