<svg xmlns="http://www.w3.org/2000/svg" viewBox="0 0 24 24"><title>LUI-icon-pd-places-eatdrink_main-outline-24</title><g id="Layer_2" data-name="Layer 2"><g id="LUI-icon-pd-places-eatdrink_main-outline-24"><g id="LUI-icon-pd-places-eatdrink_main-outline-24-2" data-name="LUI-icon-pd-places-eatdrink_main-outline-24"><rect width="24" height="24" fill="none"/><path d="M19,4.55V14H17V8a4,4,0,0,1,2-3.46M21,2a6,6,0,0,0-6,6v6a2,2,0,0,0,2,2h4V2ZM11,12v1a1,1,0,0,1-1,1H6a1,1,0,0,1-1-1V12h6M12,2a1,1,0,0,0-1,1v7H9V3A1,1,0,0,0,7,3v7H5V3A1,1,0,0,0,3,3V13a3,3,0,0,0,3,3h4a3,3,0,0,0,3-3V3a1,1,0,0,0-1-1ZM10,18H6v4h4Zm7,4h4V18H17Z"/></g></g></g></svg>