<svg xmlns="http://www.w3.org/2000/svg" viewBox="0 0 24 24"><title>LUI-icon-pd-places-transport_aerial-outline-24</title><g id="Layer_2" data-name="Layer 2"><g id="LUI-icon-pd-places-transport_aerial-outline-24"><g id="LUI-icon-pd-places-transport_aerial-outline-24-2" data-name="LUI-icon-pd-places-transport_aerial-outline-24"><rect width="24" height="24" fill="none"/><path d="M22,4V2L2,8v2l9-2.7V11H6a2,2,0,0,0-2,2v5a4,4,0,0,0,4,4h8a4,4,0,0,0,4-4V13a2,2,0,0,0-2-2H13V6.7Zm-4,9v5a2,2,0,0,1-2,2H8a2,2,0,0,1-2-2V13Zm-3,5H9V16h6Z"/></g></g></g></svg>