<svg xmlns="http://www.w3.org/2000/svg" viewBox="0 0 24 24"><title>LUI-icon-pd-places-accommodation_hotel-outline-24</title><g id="Layer_2" data-name="Layer 2"><g id="LUI-icon-pd-places-accommodation_hotel-outline-24"><g id="LUI-icon-pd-places-accommodation_hotel-outline-24-2" data-name="LUI-icon-pd-places-accommodation_hotel-outline-24"><rect width="24" height="24" fill="none"/><path d="M20,16v2H4V16H20M2,8V22H4V20H20v2h2V14H4V10a2,2,0,0,0-.59-1.41A2,2,0,0,0,2,8ZM19,9H13a1,1,0,0,0-1,1v2h8V10A1,1,0,0,0,19,9ZM8,9H8a2,2,0,0,0-2,2,2,2,0,0,0,.27,1H9.73A2,2,0,0,0,8,9Zm4-7L2,4V6L12,4,22,6V4Z"/></g></g></g></svg>