<svg xmlns="http://www.w3.org/2000/svg" viewBox="0 0 24 24"><title>LUI-icon-pd-places-service_ticketing-outline-24</title><g id="Layer_2" data-name="Layer 2"><g id="LUI-icon-pd-places-service_ticketing-outline-24"><g id="LUI-icon-pd-places-service_ticketing-outline-24-2" data-name="LUI-icon-pd-places-service_ticketing-outline-24"><rect width="24" height="24" fill="none"/><path d="M20,5V19a5,5,0,0,0-8,0V5a5,5,0,0,0,8,0m2-3H19a3,3,0,0,1-6,0H10V22h3a3,3,0,0,1,6,0h3V2ZM8,8.93v-2A3.09,3.09,0,0,1,7.2,7,3,3,0,0,1,4.6,5.5L2,7,8,18V14L5.23,8.6a5,5,0,0,0,2,.4A4.25,4.25,0,0,0,8,8.93Z"/></g></g></g></svg>