<svg xmlns="http://www.w3.org/2000/svg" viewBox="0 0 24 24"><title>LUI-icon-pd-places-automotive_petrolstation_24h-outline-24</title><g id="Layer_2" data-name="Layer 2"><g id="LUI-icon-pd-places-automotive_petrolstation_24h-outline-24"><g id="LUI-icon-pd-places-automotive_petrolstation_24h-outline-24-2" data-name="LUI-icon-pd-places-automotive_petrolstation_24h-outline-24"><rect width="24" height="24" fill="none"/><path d="M13,2H3A1,1,0,0,0,2,3v9H14V3A1,1,0,0,0,13,2Zm-1,8H4V4h8Zm10,1.83V19a3,3,0,0,1-3,3H16V20h3a1,1,0,0,0,1-1V14l-2-2V9.41l-2-2L17.42,6l3.7,3.7A3,3,0,0,1,22,11.83ZM14,14v8H12V19H8V14h2v3h2V14ZM7,14v5H4v1H7v2H2V17H5V16H2V14Z"/></g></g></g></svg>