<?xml version="1.0" encoding="iso-8859-1"?>
<!-- Generator: Adobe Illustrator 24.1.2, SVG Export Plug-In . SVG Version: 6.00 Build 0)  -->
<svg version="1.1" id="_x35_50-5510-0000_x5F_outdoor-recreation-layer"
	 xmlns="http://www.w3.org/2000/svg" xmlns:xlink="http://www.w3.org/1999/xlink" x="0px" y="0px" viewBox="0 0 24 24"
	 style="enable-background:new 0 0 24 24;" xml:space="preserve">
<g id="_x35_50-5510-0000_x5F_outdoor-recreation">
	<rect style="fill:none;" width="24" height="24"/>
	<path d="M13,22h-2v-6h2V22z M22,12l-1,2h-4l-1-2h-2l-1,2h-2l-1-2H8l-1,2H3l-1-2l0.01-0.12C2.58,7.38,6.41,4,10.95,4H11V2h2v2h0.05
		c4.54,0,8.37,3.38,8.94,7.88L22,12z M19.93,11.67C19.3,8.41,16.42,6,13.05,6h-2.1C7.58,6,4.7,8.41,4.07,11.67L4.24,12h1.52
		l0.45-0.89L6.76,10h4.48l0.55,1.11L12,11.53l0.21-0.42L12.76,10h4.48l0.55,1.11L18.24,12h1.52L19.93,11.67z"/>
</g>
</svg>
