<?xml version="1.0" encoding="iso-8859-1"?>
<!-- Generator: Adobe Illustrator 24.1.2, SVG Export Plug-In . SVG Version: 6.00 Build 0)  -->
<svg version="1.1" id="_x35_50-5520-0212_x5F_ski-resort-layer"
	 xmlns="http://www.w3.org/2000/svg" xmlns:xlink="http://www.w3.org/1999/xlink" x="0px" y="0px" viewBox="0 0 24 24"
	 style="enable-background:new 0 0 24 24;" xml:space="preserve">
<g id="_x35_50-5520-0212_x5F_ski-resort_1_">
	<rect style="fill:none;" width="24" height="24"/>
	<path d="M20.624,6.84l0.962-1.753c0.962-1.753-0.791-2.716-0.791-2.716c-1.753-0.962-2.716,0.791-2.716,0.791l-0.962,1.753
		L20.624,6.84z M18.356,19.284c0,0-0.481,0.877-1.358,0.395l-5.26-2.887l2.168-1.131c0.636-0.332,1.046-0.979,1.074-1.697
		l0.041-1.075l-4.383-2.406l1.667,3.197l-3.197,1.667l-6.136-3.368L2.01,13.734l14.026,7.699c2.63,1.444,4.073-1.186,4.073-1.186
		L18.356,19.284z M20.453,11.309l-3.506-1.925l0.962-1.753l-3.506-1.925l-2.716,0.791L6.427,3.61L5.465,5.363l14.026,7.699
		L20.453,11.309z"/>
</g>
</svg>
