<svg xmlns="http://www.w3.org/2000/svg" width="24" height="24" viewBox="0 0 24 24">
  <g fill="none" fill-rule="evenodd">
    <rect width="24" height="24"/>
    <path fill="#0F1621" fill-opacity=".95" d="M5.99999996,6.99999998 L5.99999996,9.99999998 L3.99999996,9.99999998 L3.99999996,13 L5.99999996,13 L5.99999996,16 L3.99999996,16 L3.99999996,19 L5.99999996,19 L5.99999996,22 L1.99999996,22 L1.99999996,6.99999998 L5.99999996,6.99999998 Z M22,3.99999997 L22,22 L16,22 L16,17 L14,17 L14,22 L7.99999998,22 L7.99999998,3.99999997 L22,3.99999997 Z M12,17 L9.99999999,17 L9.99999999,20 L12,20 L12,17 Z M20,17 L18,17 L18,20 L20,20 L20,17 Z M12,12 L9.99999999,12 L9.99999999,15 L12,15 L12,12 Z M16,12 L14,12 L14,15 L16,15 L16,12 Z M20,12 L18,12 L18,15 L20,15 L20,12 Z M12,6.99999998 L9.99999999,6.99999998 L9.99999999,9.99999998 L12,9.99999998 L12,6.99999998 Z M16,6.99999998 L14,6.99999998 L14,9.99999998 L16,9.99999998 L16,6.99999998 Z M20,6.99999998 L18,6.99999998 L18,9.99999998 L20,9.99999998 L20,6.99999998 Z"/>
  </g>
</svg>
