<svg xmlns="http://www.w3.org/2000/svg" width="80" height="80" viewBox="0 0 80 80">
  <g fill="none" fill-rule="evenodd">
    <path fill="#D1DEF4" fill-opacity=".35" d="M43,5 L43,48.34 L64,31 L68,36 L50.5745451,49.9812462 L49.6021036,50.7642547 C44.6272181,54.7296202 43,55.4702222 43,60 L43,80 L37,80 L37,60 C37,55.4702222 35.3727819,54.7296202 30.3978964,50.7642547 L29.4254549,49.9812462 L12,36 L16,31 L35.9622029,47.4876752 L37.0000702,48.341789 L37,5 L43,5 Z"/>
    <polygon fill="#FFF" fill-rule="nonzero" points="51.5 21 43 12 43 80 37 80 37 12 28.5 21 24 17 40 1 56 17"/>
  </g>
</svg>
